<?xml version="1.0" encoding="UTF-8" standalone="no"?>
<!DOCTYPE svg PUBLIC "-//W3C//DTD SVG 1.1//EN"
 "http://www.w3.org/Graphics/SVG/1.1/DTD/svg11.dtd">
<!-- Generated by graphviz version 2.30.1 (20130221.2233)
 -->
<!-- Title: vTickISR Pages: 1 -->
<svg width="236pt" height="66pt"
 viewBox="0.00 0.00 236.00 66.00" xmlns="http://www.w3.org/2000/svg" xmlns:xlink="http://www.w3.org/1999/xlink">
<g id="graph0" class="graph" transform="scale(1 1) rotate(0) translate(4 62)">
<title>vTickISR</title>
<polygon fill="white" stroke="white" points="-4,5 -4,-62 233,-62 233,5 -4,5"/>
<!-- Node1 -->
<g id="node1" class="node"><title>Node1</title>
<polygon fill="#bfbfbf" stroke="black" points="0,-19.5 0,-38.5 56,-38.5 56,-19.5 0,-19.5"/>
<text text-anchor="middle" x="28" y="-26.5" font-family="Helvetica,sans-Serif" font-size="10.00">vTickISR</text>
</g>
<!-- Node2 -->
<g id="node2" class="node"><title>Node2</title>
<g id="a_node2"><a xlink:href="_i_a_r_2_v850_e_s_2portmacro_8h.html#a716d176e9130fa97ac875a31e7453605" target="_top" xlink:title="portRESTORE_CONTEXT">
<polygon fill="white" stroke="black" points="92.5,-38.5 92.5,-57.5 227.5,-57.5 227.5,-38.5 92.5,-38.5"/>
<text text-anchor="middle" x="160" y="-45.5" font-family="Helvetica,sans-Serif" font-size="10.00">portRESTORE_CONTEXT</text>
</a>
</g>
</g>
<!-- Node1&#45;&gt;Node2 -->
<g id="edge1" class="edge"><title>Node1&#45;&gt;Node2</title>
<path fill="none" stroke="midnightblue" d="M56.2523,-32.983C64.5166,-34.1909 74.0268,-35.5808 83.8542,-37.0172"/>
<polygon fill="midnightblue" stroke="midnightblue" points="83.352,-40.4809 93.753,-38.4639 84.3644,-33.5544 83.352,-40.4809"/>
</g>
<!-- Node3 -->
<g id="node3" class="node"><title>Node3</title>
<g id="a_node3"><a xlink:href="_i_a_r_2_v850_e_s_2portmacro_8h.html#ad79a8b96e1489f7f0645e8d57360337d" target="_top" xlink:title="portSAVE_CONTEXT">
<polygon fill="white" stroke="black" points="103,-0.5 103,-19.5 217,-19.5 217,-0.5 103,-0.5"/>
<text text-anchor="middle" x="160" y="-7.5" font-family="Helvetica,sans-Serif" font-size="10.00">portSAVE_CONTEXT</text>
</a>
</g>
</g>
<!-- Node1&#45;&gt;Node3 -->
<g id="edge2" class="edge"><title>Node1&#45;&gt;Node3</title>
<path fill="none" stroke="midnightblue" d="M56.2523,-25.017C67.0503,-23.4388 79.9753,-21.5498 92.9559,-19.6526"/>
<polygon fill="midnightblue" stroke="midnightblue" points="93.47,-23.1147 102.859,-18.2053 92.4576,-16.1883 93.47,-23.1147"/>
</g>
</g>
</svg>
