<?xml version="1.0" encoding="UTF-8" standalone="no"?>
<!DOCTYPE svg PUBLIC "-//W3C//DTD SVG 1.1//EN"
 "http://www.w3.org/Graphics/SVG/1.1/DTD/svg11.dtd">
<!-- Generated by graphviz version 2.30.1 (20130221.2233)
 -->
<!-- Title: prvSetTickFrequencyDefault Pages: 1 -->
<svg width="416pt" height="28pt"
 viewBox="0.00 0.00 416.00 28.00" xmlns="http://www.w3.org/2000/svg" xmlns:xlink="http://www.w3.org/1999/xlink">
<g id="graph0" class="graph" transform="scale(1 1) rotate(0) translate(4 24)">
<title>prvSetTickFrequencyDefault</title>
<polygon fill="white" stroke="white" points="-4,5 -4,-24 413,-24 413,5 -4,5"/>
<!-- Node1 -->
<g id="node1" class="node"><title>Node1</title>
<polygon fill="#bfbfbf" stroke="black" points="0.5,-0.5 0.5,-19.5 143.5,-19.5 143.5,-0.5 0.5,-0.5"/>
<text text-anchor="middle" x="72" y="-7.5" font-family="Helvetica,sans-Serif" font-size="10.00">prvSetTickFrequencyDefault</text>
</g>
<!-- Node2 -->
<g id="node2" class="node"><title>Node2</title>
<g id="a_node2"><a xlink:href="_b_c_c_216_bit_d_o_s_2_p_c_2port_8c.html#a00a48cbe854dbefdb16fe52c71a4d661" target="_top" xlink:title="prvExitFunction">
<polygon fill="white" stroke="black" points="180.5,-0.5 180.5,-19.5 265.5,-19.5 265.5,-0.5 180.5,-0.5"/>
<text text-anchor="middle" x="223" y="-7.5" font-family="Helvetica,sans-Serif" font-size="10.00">prvExitFunction</text>
</a>
</g>
</g>
<!-- Node1&#45;&gt;Node2 -->
<g id="edge1" class="edge"><title>Node1&#45;&gt;Node2</title>
<path fill="none" stroke="midnightblue" d="M153.647,-10C162.911,-10 172.047,-10 180.477,-10"/>
<polygon fill="midnightblue" stroke="midnightblue" points="153.573,-6.5001 143.573,-10 153.573,-13.5001 153.573,-6.5001"/>
</g>
<!-- Node3 -->
<g id="node3" class="node"><title>Node3</title>
<g id="a_node3"><a xlink:href="_b_c_c_216_bit_d_o_s_2_p_c_2port_8c.html#ade5a8c6666e7413a0355cc252029c5c6" target="_top" xlink:title="xPortStartScheduler">
<polygon fill="white" stroke="black" points="302,-0.5 302,-19.5 408,-19.5 408,-0.5 302,-0.5"/>
<text text-anchor="middle" x="355" y="-7.5" font-family="Helvetica,sans-Serif" font-size="10.00">xPortStartScheduler</text>
</a>
</g>
</g>
<!-- Node2&#45;&gt;Node3 -->
<g id="edge2" class="edge"><title>Node2&#45;&gt;Node3</title>
<path fill="none" stroke="midnightblue" d="M275.995,-10C284.473,-10 293.258,-10 301.742,-10"/>
<polygon fill="midnightblue" stroke="midnightblue" points="275.848,-6.5001 265.848,-10 275.848,-13.5001 275.848,-6.5001"/>
</g>
</g>
</svg>
