<?xml version="1.0" encoding="UTF-8" standalone="no"?>
<!DOCTYPE svg PUBLIC "-//W3C//DTD SVG 1.1//EN"
 "http://www.w3.org/Graphics/SVG/1.1/DTD/svg11.dtd">
<!-- Generated by graphviz version 2.30.1 (20130221.2233)
 -->
<!-- Title: prvExitFunction Pages: 1 -->
<svg width="274pt" height="66pt"
 viewBox="0.00 0.00 274.00 66.00" xmlns="http://www.w3.org/2000/svg" xmlns:xlink="http://www.w3.org/1999/xlink">
<g id="graph0" class="graph" transform="scale(1 1) rotate(0) translate(4 62)">
<title>prvExitFunction</title>
<polygon fill="white" stroke="white" points="-4,5 -4,-62 271,-62 271,5 -4,5"/>
<!-- Node1 -->
<g id="node1" class="node"><title>Node1</title>
<polygon fill="#bfbfbf" stroke="black" points="0.5,-19.5 0.5,-38.5 85.5,-38.5 85.5,-19.5 0.5,-19.5"/>
<text text-anchor="middle" x="43" y="-26.5" font-family="Helvetica,sans-Serif" font-size="10.00">prvExitFunction</text>
</g>
<!-- Node2 -->
<g id="node2" class="node"><title>Node2</title>
<g id="a_node2"><a xlink:href="_b_c_c_216_bit_d_o_s_2_p_c_2port_8c.html#a2a802a87f0bd14993b86925d83dc3b5b" target="_top" xlink:title="prvSetTickFrequencyDefault">
<polygon fill="white" stroke="black" points="122.5,-38.5 122.5,-57.5 265.5,-57.5 265.5,-38.5 122.5,-38.5"/>
<text text-anchor="middle" x="194" y="-45.5" font-family="Helvetica,sans-Serif" font-size="10.00">prvSetTickFrequencyDefault</text>
</a>
</g>
</g>
<!-- Node1&#45;&gt;Node2 -->
<g id="edge1" class="edge"><title>Node1&#45;&gt;Node2</title>
<path fill="none" stroke="midnightblue" d="M85.5048,-34.2926C93.9153,-35.365 103.029,-36.5272 112.271,-37.7057"/>
<polygon fill="midnightblue" stroke="midnightblue" points="111.961,-41.1944 122.323,-38.9875 112.846,-34.2506 111.961,-41.1944"/>
</g>
<!-- Node3 -->
<g id="node3" class="node"><title>Node3</title>
<g id="a_node3"><a xlink:href="_b_c_c_216_bit_d_o_s_2_p_c_2port_8c.html#a6844da40beef38737cda9e5a83517564" target="_top" xlink:title="void">
<polygon fill="white" stroke="black" points="176.5,-0.5 176.5,-19.5 211.5,-19.5 211.5,-0.5 176.5,-0.5"/>
<text text-anchor="middle" x="194" y="-7.5" font-family="Helvetica,sans-Serif" font-size="10.00">void</text>
</a>
</g>
</g>
<!-- Node1&#45;&gt;Node3 -->
<g id="edge2" class="edge"><title>Node1&#45;&gt;Node3</title>
<path fill="none" stroke="midnightblue" d="M85.5048,-23.7074C111.257,-20.4236 143.6,-16.2993 166.049,-13.4367"/>
<polygon fill="midnightblue" stroke="midnightblue" points="166.725,-16.8789 176.202,-12.142 165.84,-9.93516 166.725,-16.8789"/>
</g>
</g>
</svg>
