<?xml version="1.0" encoding="UTF-8" standalone="no"?>
<!DOCTYPE svg PUBLIC "-//W3C//DTD SVG 1.1//EN"
 "http://www.w3.org/Graphics/SVG/1.1/DTD/svg11.dtd">
<!-- Generated by graphviz version 2.30.1 (20130221.2233)
 -->
<!-- Title: prvSetupTimerInterrupt Pages: 1 -->
<svg width="428pt" height="28pt"
 viewBox="0.00 0.00 428.00 28.00" xmlns="http://www.w3.org/2000/svg" xmlns:xlink="http://www.w3.org/1999/xlink">
<g id="graph0" class="graph" transform="scale(1 1) rotate(0) translate(4 24)">
<title>prvSetupTimerInterrupt</title>
<polygon fill="white" stroke="white" points="-4,5 -4,-24 425,-24 425,5 -4,5"/>
<!-- Node1 -->
<g id="node1" class="node"><title>Node1</title>
<polygon fill="#bfbfbf" stroke="black" points="0.5,-0.5 0.5,-19.5 119.5,-19.5 119.5,-0.5 0.5,-0.5"/>
<text text-anchor="middle" x="60" y="-7.5" font-family="Helvetica,sans-Serif" font-size="10.00">prvSetupTimerInterrupt</text>
</g>
<!-- Node2 -->
<g id="node2" class="node"><title>Node2</title>
<g id="a_node2"><a xlink:href="_code_warrior_2_h_c_s12_2port_8c.html#af6daded1e58ffe8853c8c1f71e574b1d" target="_top" xlink:title="xBankedStartScheduler">
<polygon fill="white" stroke="black" points="156,-0.5 156,-19.5 278,-19.5 278,-0.5 156,-0.5"/>
<text text-anchor="middle" x="217" y="-7.5" font-family="Helvetica,sans-Serif" font-size="10.00">xBankedStartScheduler</text>
</a>
</g>
</g>
<!-- Node1&#45;&gt;Node2 -->
<g id="edge1" class="edge"><title>Node1&#45;&gt;Node2</title>
<path fill="none" stroke="midnightblue" d="M129.703,-10C138.391,-10 147.229,-10 155.771,-10"/>
<polygon fill="midnightblue" stroke="midnightblue" points="129.599,-6.5001 119.599,-10 129.599,-13.5001 129.599,-6.5001"/>
</g>
<!-- Node3 -->
<g id="node3" class="node"><title>Node3</title>
<g id="a_node3"><a xlink:href="_code_warrior_2_h_c_s12_2port_8c.html#ade5a8c6666e7413a0355cc252029c5c6" target="_top" xlink:title="xPortStartScheduler">
<polygon fill="white" stroke="black" points="314,-0.5 314,-19.5 420,-19.5 420,-0.5 314,-0.5"/>
<text text-anchor="middle" x="367" y="-7.5" font-family="Helvetica,sans-Serif" font-size="10.00">xPortStartScheduler</text>
</a>
</g>
</g>
<!-- Node2&#45;&gt;Node3 -->
<g id="edge2" class="edge"><title>Node2&#45;&gt;Node3</title>
<path fill="none" stroke="midnightblue" d="M288.279,-10C296.917,-10 305.623,-10 313.925,-10"/>
<polygon fill="midnightblue" stroke="midnightblue" points="288.197,-6.5001 278.197,-10 288.197,-13.5001 288.197,-6.5001"/>
</g>
</g>
</svg>
