<?xml version="1.0" encoding="UTF-8" standalone="no"?>
<!DOCTYPE svg PUBLIC "-//W3C//DTD SVG 1.1//EN"
 "http://www.w3.org/Graphics/SVG/1.1/DTD/svg11.dtd">
<!-- Generated by graphviz version 2.30.1 (20130221.2233)
 -->
<!-- Title: xPortStartScheduler Pages: 1 -->
<svg width="444pt" height="66pt"
 viewBox="0.00 0.00 444.00 66.00" xmlns="http://www.w3.org/2000/svg" xmlns:xlink="http://www.w3.org/1999/xlink">
<g id="graph0" class="graph" transform="scale(1 1) rotate(0) translate(4 62)">
<title>xPortStartScheduler</title>
<polygon fill="white" stroke="white" points="-4,5 -4,-62 441,-62 441,5 -4,5"/>
<!-- Node1 -->
<g id="node1" class="node"><title>Node1</title>
<polygon fill="#bfbfbf" stroke="black" points="0,-19.5 0,-38.5 106,-38.5 106,-19.5 0,-19.5"/>
<text text-anchor="middle" x="53" y="-26.5" font-family="Helvetica,sans-Serif" font-size="10.00">xPortStartScheduler</text>
</g>
<!-- Node2 -->
<g id="node2" class="node"><title>Node2</title>
<g id="a_node2"><a xlink:href="_code_warrior_2_h_c_s12_2port_8c.html#af6daded1e58ffe8853c8c1f71e574b1d" target="_top" xlink:title="xBankedStartScheduler">
<polygon fill="white" stroke="black" points="142,-19.5 142,-38.5 264,-38.5 264,-19.5 142,-19.5"/>
<text text-anchor="middle" x="203" y="-26.5" font-family="Helvetica,sans-Serif" font-size="10.00">xBankedStartScheduler</text>
</a>
</g>
</g>
<!-- Node1&#45;&gt;Node2 -->
<g id="edge1" class="edge"><title>Node1&#45;&gt;Node2</title>
<path fill="none" stroke="midnightblue" d="M106.179,-29C114.494,-29 123.212,-29 131.859,-29"/>
<polygon fill="midnightblue" stroke="midnightblue" points="131.95,-32.5001 141.95,-29 131.95,-25.5001 131.95,-32.5001"/>
</g>
<!-- Node3 -->
<g id="node3" class="node"><title>Node3</title>
<g id="a_node3"><a xlink:href="_i_a_r_2_v850_e_s_2portmacro_8h.html#a716d176e9130fa97ac875a31e7453605" target="_top" xlink:title="portRESTORE_CONTEXT">
<polygon fill="white" stroke="black" points="300.5,-38.5 300.5,-57.5 435.5,-57.5 435.5,-38.5 300.5,-38.5"/>
<text text-anchor="middle" x="368" y="-45.5" font-family="Helvetica,sans-Serif" font-size="10.00">portRESTORE_CONTEXT</text>
</a>
</g>
</g>
<!-- Node2&#45;&gt;Node3 -->
<g id="edge2" class="edge"><title>Node2&#45;&gt;Node3</title>
<path fill="none" stroke="midnightblue" d="M264.232,-36.0209C272.706,-37.0087 281.509,-38.0348 290.24,-39.0525"/>
<polygon fill="midnightblue" stroke="midnightblue" points="290.094,-42.5591 300.432,-40.2405 290.904,-35.6061 290.094,-42.5591"/>
</g>
<!-- Node4 -->
<g id="node4" class="node"><title>Node4</title>
<g id="a_node4"><a xlink:href="_code_warrior_2_h_c_s12_2port_8c.html#aeb91268bfbb6dc04ff839631ee5c72ba" target="_top" xlink:title="prvSetupTimerInterrupt">
<polygon fill="white" stroke="black" points="308.5,-0.5 308.5,-19.5 427.5,-19.5 427.5,-0.5 308.5,-0.5"/>
<text text-anchor="middle" x="368" y="-7.5" font-family="Helvetica,sans-Serif" font-size="10.00">prvSetupTimerInterrupt</text>
</a>
</g>
</g>
<!-- Node2&#45;&gt;Node4 -->
<g id="edge3" class="edge"><title>Node2&#45;&gt;Node4</title>
<path fill="none" stroke="midnightblue" d="M264.232,-21.9791C275.272,-20.6922 286.872,-19.3401 298.141,-18.0265"/>
<polygon fill="midnightblue" stroke="midnightblue" points="298.844,-21.4683 308.372,-16.834 298.034,-14.5154 298.844,-21.4683"/>
</g>
</g>
</svg>
