<?xml version="1.0" encoding="UTF-8" standalone="no"?>
<!DOCTYPE svg PUBLIC "-//W3C//DTD SVG 1.1//EN"
 "http://www.w3.org/Graphics/SVG/1.1/DTD/svg11.dtd">
<!-- Generated by graphviz version 2.30.1 (20130221.2233)
 -->
<!-- Title: vPortTickISR Pages: 1 -->
<svg width="382pt" height="66pt"
 viewBox="0.00 0.00 382.00 66.00" xmlns="http://www.w3.org/2000/svg" xmlns:xlink="http://www.w3.org/1999/xlink">
<g id="graph0" class="graph" transform="scale(1 1) rotate(0) translate(4 62)">
<title>vPortTickISR</title>
<polygon fill="white" stroke="white" points="-4,5 -4,-62 379,-62 379,5 -4,5"/>
<!-- Node1 -->
<g id="node1" class="node"><title>Node1</title>
<polygon fill="#bfbfbf" stroke="black" points="0.5,-19.5 0.5,-38.5 75.5,-38.5 75.5,-19.5 0.5,-19.5"/>
<text text-anchor="middle" x="38" y="-26.5" font-family="Helvetica,sans-Serif" font-size="10.00">vPortTickISR</text>
</g>
<!-- Node2 -->
<g id="node2" class="node"><title>Node2</title>
<g id="a_node2"><a xlink:href="_g_c_c_2_p_p_c405___xilinx_2port_8c.html#aeb91268bfbb6dc04ff839631ee5c72ba" target="_top" xlink:title="prvSetupTimerInterrupt">
<polygon fill="white" stroke="black" points="112.5,-38.5 112.5,-57.5 231.5,-57.5 231.5,-38.5 112.5,-38.5"/>
<text text-anchor="middle" x="172" y="-45.5" font-family="Helvetica,sans-Serif" font-size="10.00">prvSetupTimerInterrupt</text>
</a>
</g>
</g>
<!-- Node1&#45;&gt;Node2 -->
<g id="edge1" class="edge"><title>Node1&#45;&gt;Node2</title>
<path fill="none" stroke="midnightblue" d="M85.9459,-35.7574C94.5151,-36.9908 103.553,-38.2917 112.411,-39.5667"/>
<polygon fill="midnightblue" stroke="midnightblue" points="86.166,-32.2531 75.7694,-34.2926 85.1687,-39.1817 86.166,-32.2531"/>
</g>
<!-- Node4 -->
<g id="node4" class="node"><title>Node4</title>
<g id="a_node4"><a xlink:href="_c_c_s_2_m_s_p430_x_2port_8c.html#aaec2782626451af0689abd0222b24e79" target="_top" xlink:title="vTickISREntry">
<polygon fill="white" stroke="black" points="132,-0.5 132,-19.5 212,-19.5 212,-0.5 132,-0.5"/>
<text text-anchor="middle" x="172" y="-7.5" font-family="Helvetica,sans-Serif" font-size="10.00">vTickISREntry</text>
</a>
</g>
</g>
<!-- Node1&#45;&gt;Node4 -->
<g id="edge3" class="edge"><title>Node1&#45;&gt;Node4</title>
<path fill="none" stroke="midnightblue" d="M85.8682,-22.2538C100.849,-20.0975 117.27,-17.7339 131.658,-15.6628"/>
<polygon fill="midnightblue" stroke="midnightblue" points="85.1687,-18.8183 75.7694,-23.7074 86.166,-25.7469 85.1687,-18.8183"/>
</g>
<!-- Node3 -->
<g id="node3" class="node"><title>Node3</title>
<g id="a_node3"><a xlink:href="_g_c_c_2_p_p_c405___xilinx_2port_8c.html#ade5a8c6666e7413a0355cc252029c5c6" target="_top" xlink:title="xPortStartScheduler">
<polygon fill="white" stroke="black" points="268,-38.5 268,-57.5 374,-57.5 374,-38.5 268,-38.5"/>
<text text-anchor="middle" x="321" y="-45.5" font-family="Helvetica,sans-Serif" font-size="10.00">xPortStartScheduler</text>
</a>
</g>
</g>
<!-- Node2&#45;&gt;Node3 -->
<g id="edge2" class="edge"><title>Node2&#45;&gt;Node3</title>
<path fill="none" stroke="midnightblue" d="M241.756,-48C250.536,-48 259.407,-48 267.865,-48"/>
<polygon fill="midnightblue" stroke="midnightblue" points="241.521,-44.5001 231.521,-48 241.521,-51.5001 241.521,-44.5001"/>
</g>
</g>
</svg>
