<?xml version="1.0" encoding="UTF-8" standalone="no"?>
<!DOCTYPE svg PUBLIC "-//W3C//DTD SVG 1.1//EN"
 "http://www.w3.org/Graphics/SVG/1.1/DTD/svg11.dtd">
<!-- Generated by graphviz version 2.30.1 (20130221.2233)
 -->
<!-- Title: prvEnsureInterruptControllerIsInitialised Pages: 1 -->
<svg width="528pt" height="38pt"
 viewBox="0.00 0.00 528.00 38.00" xmlns="http://www.w3.org/2000/svg" xmlns:xlink="http://www.w3.org/1999/xlink">
<g id="graph0" class="graph" transform="scale(1 1) rotate(0) translate(4 34)">
<title>prvEnsureInterruptControllerIsInitialised</title>
<polygon fill="white" stroke="white" points="-4,5 -4,-34 525,-34 525,5 -4,5"/>
<!-- Node1 -->
<g id="node1" class="node"><title>Node1</title>
<polygon fill="#bfbfbf" stroke="black" points="0.5,-0 0.5,-30 143.5,-30 143.5,-0 0.5,-0"/>
<text text-anchor="start" x="8.5" y="-18" font-family="Helvetica,sans-Serif" font-size="10.00">prvEnsureInterruptController</text>
<text text-anchor="middle" x="72" y="-7" font-family="Helvetica,sans-Serif" font-size="10.00">IsInitialised</text>
</g>
<!-- Node2 -->
<g id="node2" class="node"><title>Node2</title>
<g id="a_node2"><a xlink:href="_g_c_c_2_micro_blaze_v8_2port_8c.html#a43eecfae6ac83875cba12b6f8a7df8b7" target="_top" xlink:title="prvInitialiseInterruptController">
<polygon fill="white" stroke="black" points="180.5,-5.5 180.5,-24.5 327.5,-24.5 327.5,-5.5 180.5,-5.5"/>
<text text-anchor="middle" x="254" y="-12.5" font-family="Helvetica,sans-Serif" font-size="10.00">prvInitialiseInterruptController</text>
</a>
</g>
</g>
<!-- Node1&#45;&gt;Node2 -->
<g id="edge1" class="edge"><title>Node1&#45;&gt;Node2</title>
<path fill="none" stroke="midnightblue" d="M143.624,-15C152.261,-15 161.147,-15 169.945,-15"/>
<polygon fill="midnightblue" stroke="midnightblue" points="170.211,-18.5001 180.211,-15 170.211,-11.5001 170.211,-18.5001"/>
</g>
<!-- Node3 -->
<g id="node3" class="node"><title>Node3</title>
<g id="a_node3"><a xlink:href="_g_c_c_2_micro_blaze_v8_2portmacro_8h.html#a02e7621bd12097c626a731d7a0b452c7" target="_top" xlink:title="vPortExceptionsInstallHandlers">
<polygon fill="white" stroke="black" points="364.5,-5.5 364.5,-24.5 519.5,-24.5 519.5,-5.5 364.5,-5.5"/>
<text text-anchor="middle" x="442" y="-12.5" font-family="Helvetica,sans-Serif" font-size="10.00">vPortExceptionsInstallHandlers</text>
</a>
</g>
</g>
<!-- Node2&#45;&gt;Node3 -->
<g id="edge2" class="edge"><title>Node2&#45;&gt;Node3</title>
<path fill="none" stroke="midnightblue" d="M327.712,-15C336.447,-15 345.434,-15 354.342,-15"/>
<polygon fill="midnightblue" stroke="midnightblue" points="354.349,-18.5001 364.349,-15 354.349,-11.5001 354.349,-18.5001"/>
</g>
</g>
</svg>
