<?xml version="1.0" encoding="UTF-8" standalone="no"?>
<!DOCTYPE svg PUBLIC "-//W3C//DTD SVG 1.1//EN"
 "http://www.w3.org/Graphics/SVG/1.1/DTD/svg11.dtd">
<!-- Generated by graphviz version 2.30.1 (20130221.2233)
 -->
<!-- Title: MPU_vPortInitialiseBlocks Pages: 1 -->
<svg width="284pt" height="66pt"
 viewBox="0.00 0.00 284.00 66.00" xmlns="http://www.w3.org/2000/svg" xmlns:xlink="http://www.w3.org/1999/xlink">
<g id="graph0" class="graph" transform="scale(1 1) rotate(0) translate(4 62)">
<title>MPU_vPortInitialiseBlocks</title>
<polygon fill="white" stroke="white" points="-4,5 -4,-62 281,-62 281,5 -4,5"/>
<!-- Node1 -->
<g id="node1" class="node"><title>Node1</title>
<polygon fill="#bfbfbf" stroke="black" points="0.5,-19.5 0.5,-38.5 133.5,-38.5 133.5,-19.5 0.5,-19.5"/>
<text text-anchor="middle" x="67" y="-26.5" font-family="Helvetica,sans-Serif" font-size="10.00">MPU_vPortInitialiseBlocks</text>
</g>
<!-- Node2 -->
<g id="node2" class="node"><title>Node2</title>
<g id="a_node2"><a xlink:href="_g_c_c_2_a_r_m___c_m3___m_p_u_2port_8c.html#ad5691a9d6fd4c0b9f4e55426dd9a48ad" target="_top" xlink:title="prvRaisePrivilege">
<polygon fill="white" stroke="black" points="176,-38.5 176,-57.5 270,-57.5 270,-38.5 176,-38.5"/>
<text text-anchor="middle" x="223" y="-45.5" font-family="Helvetica,sans-Serif" font-size="10.00">prvRaisePrivilege</text>
</a>
</g>
</g>
<!-- Node1&#45;&gt;Node2 -->
<g id="edge1" class="edge"><title>Node1&#45;&gt;Node2</title>
<path fill="none" stroke="midnightblue" d="M133.757,-37.1128C144.302,-38.4139 155.136,-39.7505 165.443,-41.0222"/>
<polygon fill="midnightblue" stroke="midnightblue" points="165.19,-44.5175 175.544,-42.2684 166.047,-37.5701 165.19,-44.5175"/>
</g>
<!-- Node3 -->
<g id="node3" class="node"><title>Node3</title>
<g id="a_node3"><a xlink:href="portable_8h.html#a846b5ebdaf2b51fe707efb4a0974f676" target="_top" xlink:title="vPortInitialiseBlocks">
<polygon fill="white" stroke="black" points="170.5,-0.5 170.5,-19.5 275.5,-19.5 275.5,-0.5 170.5,-0.5"/>
<text text-anchor="middle" x="223" y="-7.5" font-family="Helvetica,sans-Serif" font-size="10.00">vPortInitialiseBlocks</text>
</a>
</g>
</g>
<!-- Node1&#45;&gt;Node3 -->
<g id="edge2" class="edge"><title>Node1&#45;&gt;Node3</title>
<path fill="none" stroke="midnightblue" d="M133.757,-20.8872C142.57,-19.7998 151.585,-18.6876 160.325,-17.6092"/>
<polygon fill="midnightblue" stroke="midnightblue" points="160.935,-21.0607 170.431,-16.3624 160.077,-14.1133 160.935,-21.0607"/>
</g>
</g>
</svg>
