<?xml version="1.0" encoding="UTF-8" standalone="no"?>
<!DOCTYPE svg PUBLIC "-//W3C//DTD SVG 1.1//EN"
 "http://www.w3.org/Graphics/SVG/1.1/DTD/svg11.dtd">
<!-- Generated by graphviz version 2.30.1 (20130221.2233)
 -->
<!-- Title: xPortStartScheduler Pages: 1 -->
<svg width="280pt" height="104pt"
 viewBox="0.00 0.00 280.00 104.00" xmlns="http://www.w3.org/2000/svg" xmlns:xlink="http://www.w3.org/1999/xlink">
<g id="graph0" class="graph" transform="scale(1 1) rotate(0) translate(4 100)">
<title>xPortStartScheduler</title>
<polygon fill="white" stroke="white" points="-4,5 -4,-100 277,-100 277,5 -4,5"/>
<!-- Node1 -->
<g id="node1" class="node"><title>Node1</title>
<polygon fill="#bfbfbf" stroke="black" points="0,-38.5 0,-57.5 106,-57.5 106,-38.5 0,-38.5"/>
<text text-anchor="middle" x="53" y="-45.5" font-family="Helvetica,sans-Serif" font-size="10.00">xPortStartScheduler</text>
</g>
<!-- Node2 -->
<g id="node2" class="node"><title>Node2</title>
<g id="a_node2"><a xlink:href="_g_c_c_2_a_r_m___c_m3_2port_8c.html#a50dd292452ec6c17a611a90c22e19136" target="_top" xlink:title="prvPortStartFirstTask">
<polygon fill="white" stroke="black" points="151.5,-76.5 151.5,-95.5 262.5,-95.5 262.5,-76.5 151.5,-76.5"/>
<text text-anchor="middle" x="207" y="-83.5" font-family="Helvetica,sans-Serif" font-size="10.00">prvPortStartFirstTask</text>
</a>
</g>
</g>
<!-- Node1&#45;&gt;Node2 -->
<g id="edge1" class="edge"><title>Node1&#45;&gt;Node2</title>
<path fill="none" stroke="midnightblue" d="M92.356,-57.589C112.324,-62.5809 136.93,-68.7324 158.133,-74.0334"/>
<polygon fill="midnightblue" stroke="midnightblue" points="157.369,-77.45 167.92,-76.4799 159.067,-70.659 157.369,-77.45"/>
</g>
<!-- Node3 -->
<g id="node3" class="node"><title>Node3</title>
<g id="a_node3"><a xlink:href="_g_c_c_2_a_r_m___c_m3_2port_8c.html#a813e8227aedfc6bd83c66c4a9b8e4f41" target="_top" xlink:title="prvTaskExitError">
<polygon fill="white" stroke="black" points="161.5,-38.5 161.5,-57.5 252.5,-57.5 252.5,-38.5 161.5,-38.5"/>
<text text-anchor="middle" x="207" y="-45.5" font-family="Helvetica,sans-Serif" font-size="10.00">prvTaskExitError</text>
</a>
</g>
</g>
<!-- Node1&#45;&gt;Node3 -->
<g id="edge2" class="edge"><title>Node1&#45;&gt;Node3</title>
<path fill="none" stroke="midnightblue" d="M106.31,-48C120.683,-48 136.313,-48 150.841,-48"/>
<polygon fill="midnightblue" stroke="midnightblue" points="151.192,-51.5001 161.191,-48 151.191,-44.5001 151.192,-51.5001"/>
</g>
<!-- Node4 -->
<g id="node4" class="node"><title>Node4</title>
<g id="a_node4"><a xlink:href="_c_c_s_2_a_r_m___c_m4_f_2port_8c.html#a4649001ea4d29b80759e6eca4bba58eb" target="_top" xlink:title="vPortSetupTimerInterrupt">
<polygon fill="white" stroke="black" points="142.5,-0.5 142.5,-19.5 271.5,-19.5 271.5,-0.5 142.5,-0.5"/>
<text text-anchor="middle" x="207" y="-7.5" font-family="Helvetica,sans-Serif" font-size="10.00">vPortSetupTimerInterrupt</text>
</a>
</g>
</g>
<!-- Node1&#45;&gt;Node4 -->
<g id="edge3" class="edge"><title>Node1&#45;&gt;Node4</title>
<path fill="none" stroke="midnightblue" d="M92.356,-38.411C112.324,-33.4191 136.93,-27.2676 158.133,-21.9666"/>
<polygon fill="midnightblue" stroke="midnightblue" points="159.067,-25.341 167.92,-19.5201 157.369,-18.55 159.067,-25.341"/>
</g>
</g>
</svg>
