<?xml version="1.0" encoding="UTF-8" standalone="no"?>
<!DOCTYPE svg PUBLIC "-//W3C//DTD SVG 1.1//EN"
 "http://www.w3.org/Graphics/SVG/1.1/DTD/svg11.dtd">
<!-- Generated by graphviz version 2.30.1 (20130221.2233)
 -->
<!-- Title: xPortStartScheduler Pages: 1 -->
<svg width="310pt" height="66pt"
 viewBox="0.00 0.00 310.00 66.00" xmlns="http://www.w3.org/2000/svg" xmlns:xlink="http://www.w3.org/1999/xlink">
<g id="graph0" class="graph" transform="scale(1 1) rotate(0) translate(4 62)">
<title>xPortStartScheduler</title>
<polygon fill="white" stroke="white" points="-4,5 -4,-62 307,-62 307,5 -4,5"/>
<!-- Node1 -->
<g id="node1" class="node"><title>Node1</title>
<polygon fill="#bfbfbf" stroke="black" points="0,-19.5 0,-38.5 106,-38.5 106,-19.5 0,-19.5"/>
<text text-anchor="middle" x="53" y="-26.5" font-family="Helvetica,sans-Serif" font-size="10.00">xPortStartScheduler</text>
</g>
<!-- Node2 -->
<g id="node2" class="node"><title>Node2</title>
<g id="a_node2"><a xlink:href="_g_c_c_2_r_x600v2_2port_8c.html#a9466af92d506da7a4773c36574dfd6cb" target="_top" xlink:title="prvStartFirstTask">
<polygon fill="white" stroke="black" points="175.5,-38.5 175.5,-57.5 268.5,-57.5 268.5,-38.5 175.5,-38.5"/>
<text text-anchor="middle" x="222" y="-45.5" font-family="Helvetica,sans-Serif" font-size="10.00">prvStartFirstTask</text>
</a>
</g>
</g>
<!-- Node1&#45;&gt;Node2 -->
<g id="edge1" class="edge"><title>Node1&#45;&gt;Node2</title>
<path fill="none" stroke="midnightblue" d="M106.382,-34.9596C125.112,-37.0906 146.28,-39.4989 165.281,-41.6607"/>
<polygon fill="midnightblue" stroke="midnightblue" points="164.958,-45.1465 175.29,-42.7994 165.75,-38.1913 164.958,-45.1465"/>
</g>
<!-- Node3 -->
<g id="node3" class="node"><title>Node3</title>
<g id="a_node3"><a xlink:href="_c_c_s_2_m_s_p430_x_2portmacro_8h.html#af6c61ea6aaa9367ebdc5348c1b121aa7" target="_top" xlink:title="vApplicationSetupTimerInterrupt">
<polygon fill="white" stroke="black" points="142.5,-0.5 142.5,-19.5 301.5,-19.5 301.5,-0.5 142.5,-0.5"/>
<text text-anchor="middle" x="222" y="-7.5" font-family="Helvetica,sans-Serif" font-size="10.00">vApplicationSetupTimerInterrupt</text>
</a>
</g>
</g>
<!-- Node1&#45;&gt;Node3 -->
<g id="edge2" class="edge"><title>Node1&#45;&gt;Node3</title>
<path fill="none" stroke="midnightblue" d="M106.382,-23.0404C114.652,-22.0995 123.398,-21.1044 132.223,-20.1004"/>
<polygon fill="midnightblue" stroke="midnightblue" points="132.658,-23.5735 142.198,-18.9655 131.867,-16.6184 132.658,-23.5735"/>
</g>
</g>
</svg>
