<?xml version="1.0" encoding="UTF-8" standalone="no"?>
<!DOCTYPE svg PUBLIC "-//W3C//DTD SVG 1.1//EN"
 "http://www.w3.org/Graphics/SVG/1.1/DTD/svg11.dtd">
<!-- Generated by graphviz version 2.30.1 (20130221.2233)
 -->
<!-- Title: prvInitialiseInterruptController Pages: 1 -->
<svg width="510pt" height="104pt"
 viewBox="0.00 0.00 510.00 104.00" xmlns="http://www.w3.org/2000/svg" xmlns:xlink="http://www.w3.org/1999/xlink">
<g id="graph0" class="graph" transform="scale(1 1) rotate(0) translate(4 100)">
<title>prvInitialiseInterruptController</title>
<polygon fill="white" stroke="white" points="-4,5 -4,-100 507,-100 507,5 -4,5"/>
<!-- Node1 -->
<g id="node1" class="node"><title>Node1</title>
<polygon fill="#bfbfbf" stroke="black" points="0.5,-38.5 0.5,-57.5 147.5,-57.5 147.5,-38.5 0.5,-38.5"/>
<text text-anchor="middle" x="74" y="-45.5" font-family="Helvetica,sans-Serif" font-size="10.00">prvInitialiseInterruptController</text>
</g>
<!-- Node2 -->
<g id="node2" class="node"><title>Node2</title>
<g id="a_node2"><a xlink:href="_g_c_c_2_micro_blaze_v8_2port_8c.html#ae77c3d4a7d030a38089a6a55812130eb" target="_top" xlink:title="prvEnsureInterruptController\lIsInitialised">
<polygon fill="white" stroke="black" points="184.5,-33 184.5,-63 327.5,-63 327.5,-33 184.5,-33"/>
<text text-anchor="start" x="192.5" y="-51" font-family="Helvetica,sans-Serif" font-size="10.00">prvEnsureInterruptController</text>
<text text-anchor="middle" x="256" y="-40" font-family="Helvetica,sans-Serif" font-size="10.00">IsInitialised</text>
</a>
</g>
</g>
<!-- Node1&#45;&gt;Node2 -->
<g id="edge1" class="edge"><title>Node1&#45;&gt;Node2</title>
<path fill="none" stroke="midnightblue" d="M157.697,-48C166.61,-48 175.619,-48 184.372,-48"/>
<polygon fill="midnightblue" stroke="midnightblue" points="157.694,-44.5001 147.694,-48 157.694,-51.5001 157.694,-44.5001"/>
</g>
<!-- Node3 -->
<g id="node3" class="node"><title>Node3</title>
<g id="a_node3"><a xlink:href="_g_c_c_2_micro_blaze_v8_2portmacro_8h.html#a46aef84bd9c309576be51201c6f09741" target="_top" xlink:title="vPortDisableInterrupt">
<polygon fill="white" stroke="black" points="378,-76.5 378,-95.5 488,-95.5 488,-76.5 378,-76.5"/>
<text text-anchor="middle" x="433" y="-83.5" font-family="Helvetica,sans-Serif" font-size="10.00">vPortDisableInterrupt</text>
</a>
</g>
</g>
<!-- Node2&#45;&gt;Node3 -->
<g id="edge2" class="edge"><title>Node2&#45;&gt;Node3</title>
<path fill="none" stroke="midnightblue" d="M336.06,-65.1673C353.995,-69.0618 372.408,-73.06 388.246,-76.4991"/>
<polygon fill="midnightblue" stroke="midnightblue" points="336.68,-61.7204 326.165,-63.0186 335.194,-68.561 336.68,-61.7204"/>
</g>
<!-- Node4 -->
<g id="node4" class="node"><title>Node4</title>
<g id="a_node4"><a xlink:href="_g_c_c_2_micro_blaze_v8_2portmacro_8h.html#a0471656744e861f8982a1f5397a27838" target="_top" xlink:title="vPortEnableInterrupt">
<polygon fill="white" stroke="black" points="379,-38.5 379,-57.5 487,-57.5 487,-38.5 379,-38.5"/>
<text text-anchor="middle" x="433" y="-45.5" font-family="Helvetica,sans-Serif" font-size="10.00">vPortEnableInterrupt</text>
</a>
</g>
</g>
<!-- Node2&#45;&gt;Node4 -->
<g id="edge3" class="edge"><title>Node2&#45;&gt;Node4</title>
<path fill="none" stroke="midnightblue" d="M337.761,-48C351.696,-48 365.861,-48 378.83,-48"/>
<polygon fill="midnightblue" stroke="midnightblue" points="337.675,-44.5001 327.675,-48 337.675,-51.5001 337.675,-44.5001"/>
</g>
<!-- Node5 -->
<g id="node5" class="node"><title>Node5</title>
<g id="a_node5"><a xlink:href="_g_c_c_2_p_p_c440___xilinx_2portmacro_8h.html#a7e326747e8b11763013926ee724d5523" target="_top" xlink:title="xPortInstallInterruptHandler">
<polygon fill="white" stroke="black" points="364,-0.5 364,-19.5 502,-19.5 502,-0.5 364,-0.5"/>
<text text-anchor="middle" x="433" y="-7.5" font-family="Helvetica,sans-Serif" font-size="10.00">xPortInstallInterruptHandler</text>
</a>
</g>
</g>
<!-- Node2&#45;&gt;Node5 -->
<g id="edge4" class="edge"><title>Node2&#45;&gt;Node5</title>
<path fill="none" stroke="midnightblue" d="M336.06,-30.8327C353.995,-26.9382 372.408,-22.94 388.246,-19.5009"/>
<polygon fill="midnightblue" stroke="midnightblue" points="335.194,-27.439 326.165,-32.9814 336.68,-34.2796 335.194,-27.439"/>
</g>
</g>
</svg>
