<?xml version="1.0" encoding="UTF-8" standalone="no"?>
<!DOCTYPE svg PUBLIC "-//W3C//DTD SVG 1.1//EN"
 "http://www.w3.org/Graphics/SVG/1.1/DTD/svg11.dtd">
<!-- Generated by graphviz version 2.30.1 (20130221.2233)
 -->
<!-- Title: prvSetInterruptGate Pages: 1 -->
<svg width="428pt" height="104pt"
 viewBox="0.00 0.00 428.00 104.00" xmlns="http://www.w3.org/2000/svg" xmlns:xlink="http://www.w3.org/1999/xlink">
<g id="graph0" class="graph" transform="scale(1 1) rotate(0) translate(4 100)">
<title>prvSetInterruptGate</title>
<polygon fill="white" stroke="white" points="-4,5 -4,-100 425,-100 425,5 -4,5"/>
<!-- Node1 -->
<g id="node1" class="node"><title>Node1</title>
<polygon fill="#bfbfbf" stroke="black" points="0,-38.5 0,-57.5 104,-57.5 104,-38.5 0,-38.5"/>
<text text-anchor="middle" x="52" y="-45.5" font-family="Helvetica,sans-Serif" font-size="10.00">prvSetInterruptGate</text>
</g>
<!-- Node2 -->
<g id="node2" class="node"><title>Node2</title>
<g id="a_node2"><a xlink:href="_g_c_c_2_i_a32__flat_2port_8c.html#aeb91268bfbb6dc04ff839631ee5c72ba" target="_top" xlink:title="prvSetupTimerInterrupt">
<polygon fill="white" stroke="black" points="149.5,-76.5 149.5,-95.5 268.5,-95.5 268.5,-76.5 149.5,-76.5"/>
<text text-anchor="middle" x="209" y="-83.5" font-family="Helvetica,sans-Serif" font-size="10.00">prvSetupTimerInterrupt</text>
</a>
</g>
</g>
<!-- Node1&#45;&gt;Node2 -->
<g id="edge1" class="edge"><title>Node1&#45;&gt;Node2</title>
<path fill="none" stroke="midnightblue" d="M102.111,-60.04C123.765,-65.3488 148.85,-71.4988 169.168,-76.4799"/>
<polygon fill="midnightblue" stroke="midnightblue" points="102.659,-56.5708 92.113,-57.589 100.992,-63.3695 102.659,-56.5708"/>
</g>
<!-- Node4 -->
<g id="node4" class="node"><title>Node4</title>
<g id="a_node4"><a xlink:href="_g_c_c_2_i_a32__flat_2port_8c.html#ab80bbff02ac9871dcfb168f77b763beb" target="_top" xlink:title="vPortSetupIDT">
<polygon fill="white" stroke="black" points="168,-38.5 168,-57.5 250,-57.5 250,-38.5 168,-38.5"/>
<text text-anchor="middle" x="209" y="-45.5" font-family="Helvetica,sans-Serif" font-size="10.00">vPortSetupIDT</text>
</a>
</g>
</g>
<!-- Node1&#45;&gt;Node4 -->
<g id="edge3" class="edge"><title>Node1&#45;&gt;Node4</title>
<path fill="none" stroke="midnightblue" d="M114.285,-48C132.226,-48 151.38,-48 167.666,-48"/>
<polygon fill="midnightblue" stroke="midnightblue" points="114.182,-44.5001 104.182,-48 114.182,-51.5001 114.182,-44.5001"/>
</g>
<!-- Node5 -->
<g id="node5" class="node"><title>Node5</title>
<g id="a_node5"><a xlink:href="_g_c_c_2_i_a32__flat_2portmacro_8h.html#aafd5a66e2a6b457102a8bad08e680532" target="_top" xlink:title="xPortInstallInterruptHandler">
<polygon fill="white" stroke="black" points="140,-0.5 140,-19.5 278,-19.5 278,-0.5 140,-0.5"/>
<text text-anchor="middle" x="209" y="-7.5" font-family="Helvetica,sans-Serif" font-size="10.00">xPortInstallInterruptHandler</text>
</a>
</g>
</g>
<!-- Node1&#45;&gt;Node5 -->
<g id="edge5" class="edge"><title>Node1&#45;&gt;Node5</title>
<path fill="none" stroke="midnightblue" d="M102.111,-35.96C123.765,-30.6512 148.85,-24.5012 169.168,-19.5201"/>
<polygon fill="midnightblue" stroke="midnightblue" points="100.992,-32.6305 92.113,-38.411 102.659,-39.4292 100.992,-32.6305"/>
</g>
<!-- Node3 -->
<g id="node3" class="node"><title>Node3</title>
<g id="a_node3"><a xlink:href="_g_c_c_2_i_a32__flat_2port_8c.html#ade5a8c6666e7413a0355cc252029c5c6" target="_top" xlink:title="xPortStartScheduler">
<polygon fill="white" stroke="black" points="314,-57.5 314,-76.5 420,-76.5 420,-57.5 314,-57.5"/>
<text text-anchor="middle" x="367" y="-64.5" font-family="Helvetica,sans-Serif" font-size="10.00">xPortStartScheduler</text>
</a>
</g>
</g>
<!-- Node2&#45;&gt;Node3 -->
<g id="edge2" class="edge"><title>Node2&#45;&gt;Node3</title>
<path fill="none" stroke="midnightblue" d="M278.768,-77.6245C290.529,-76.192 302.574,-74.7249 313.814,-73.356"/>
<polygon fill="midnightblue" stroke="midnightblue" points="278.036,-74.1876 268.532,-78.871 278.882,-81.1363 278.036,-74.1876"/>
</g>
<!-- Node4&#45;&gt;Node3 -->
<g id="edge4" class="edge"><title>Node4&#45;&gt;Node3</title>
<path fill="none" stroke="midnightblue" d="M260.512,-54.1521C277.591,-56.2323 296.686,-58.5579 313.887,-60.6528"/>
<polygon fill="midnightblue" stroke="midnightblue" points="260.524,-50.6277 250.174,-52.893 259.677,-57.5764 260.524,-50.6277"/>
</g>
</g>
</svg>
