<?xml version="1.0" encoding="UTF-8" standalone="no"?>
<!DOCTYPE svg PUBLIC "-//W3C//DTD SVG 1.1//EN"
 "http://www.w3.org/Graphics/SVG/1.1/DTD/svg11.dtd">
<!-- Generated by graphviz version 2.30.1 (20130221.2233)
 -->
<!-- Title: vTickISR Pages: 1 -->
<svg width="324pt" height="85pt"
 viewBox="0.00 0.00 324.00 85.00" xmlns="http://www.w3.org/2000/svg" xmlns:xlink="http://www.w3.org/1999/xlink">
<g id="graph0" class="graph" transform="scale(1 1) rotate(0) translate(4 81)">
<title>vTickISR</title>
<polygon fill="white" stroke="white" points="-4,5 -4,-81 321,-81 321,5 -4,5"/>
<!-- Node1 -->
<g id="node1" class="node"><title>Node1</title>
<polygon fill="#bfbfbf" stroke="black" points="0,-38.5 0,-57.5 56,-57.5 56,-38.5 0,-38.5"/>
<text text-anchor="middle" x="28" y="-45.5" font-family="Helvetica,sans-Serif" font-size="10.00">vTickISR</text>
</g>
<!-- Node2 -->
<g id="node2" class="node"><title>Node2</title>
<g id="a_node2"><a xlink:href="_renesas_2_r_x100_2port_8c.html#a9c86137bc3c1cbffc39fff22627cb885" target="_top" xlink:title="vTaskSwitchContext">
<polygon fill="white" stroke="black" points="92.5,-57.5 92.5,-76.5 199.5,-76.5 199.5,-57.5 92.5,-57.5"/>
<text text-anchor="middle" x="146" y="-64.5" font-family="Helvetica,sans-Serif" font-size="10.00">vTaskSwitchContext</text>
</a>
</g>
</g>
<!-- Node1&#45;&gt;Node2 -->
<g id="edge1" class="edge"><title>Node1&#45;&gt;Node2</title>
<path fill="none" stroke="midnightblue" d="M56.1968,-52.4547C64.1636,-53.7596 73.2226,-55.2434 82.4362,-56.7525"/>
<polygon fill="midnightblue" stroke="midnightblue" points="82.016,-60.2302 92.4503,-58.3927 83.1475,-53.3223 82.016,-60.2302"/>
</g>
<!-- Node3 -->
<g id="node3" class="node"><title>Node3</title>
<g id="a_node3"><a xlink:href="task_8h.html#a978e25460ac35706f9ad30b46d9403d8" target="_top" xlink:title="xTaskIncrementTick">
<polygon fill="white" stroke="black" points="93,-19.5 93,-38.5 199,-38.5 199,-19.5 93,-19.5"/>
<text text-anchor="middle" x="146" y="-26.5" font-family="Helvetica,sans-Serif" font-size="10.00">xTaskIncrementTick</text>
</a>
</g>
</g>
<!-- Node1&#45;&gt;Node3 -->
<g id="edge2" class="edge"><title>Node1&#45;&gt;Node3</title>
<path fill="none" stroke="midnightblue" d="M56.1968,-43.5453C64.262,-42.2243 73.4465,-40.72 82.7776,-39.1916"/>
<polygon fill="midnightblue" stroke="midnightblue" points="83.6115,-42.6017 92.9142,-37.5313 82.48,-35.6938 83.6115,-42.6017"/>
</g>
<!-- Node4 -->
<g id="node4" class="node"><title>Node4</title>
<g id="a_node4"><a xlink:href="list_8h.html#a2eb1558482076fff8cafc63419c2d34a" target="_top" xlink:title="uxListRemove">
<polygon fill="white" stroke="black" points="236,-38.5 236,-57.5 316,-57.5 316,-38.5 236,-38.5"/>
<text text-anchor="middle" x="276" y="-45.5" font-family="Helvetica,sans-Serif" font-size="10.00">uxListRemove</text>
</a>
</g>
</g>
<!-- Node3&#45;&gt;Node4 -->
<g id="edge3" class="edge"><title>Node3&#45;&gt;Node4</title>
<path fill="none" stroke="midnightblue" d="M199.062,-36.728C207.918,-38.0424 217.089,-39.4038 225.865,-40.7065"/>
<polygon fill="midnightblue" stroke="midnightblue" points="225.538,-44.1963 235.944,-42.2026 226.566,-37.2722 225.538,-44.1963"/>
</g>
<!-- Node5 -->
<g id="node5" class="node"><title>Node5</title>
<g id="a_node5"><a xlink:href="_paradigm_2_tern___e_e_2small_2portmacro_8h.html#a14d32f8130d3c0b212cfc751730b5b49" target="_top" xlink:title="void">
<polygon fill="white" stroke="black" points="258.5,-0.5 258.5,-19.5 293.5,-19.5 293.5,-0.5 258.5,-0.5"/>
<text text-anchor="middle" x="276" y="-7.5" font-family="Helvetica,sans-Serif" font-size="10.00">void</text>
</a>
</g>
</g>
<!-- Node3&#45;&gt;Node5 -->
<g id="edge4" class="edge"><title>Node3&#45;&gt;Node5</title>
<path fill="none" stroke="midnightblue" d="M199.062,-21.272C215.94,-18.7667 233.966,-16.0911 248.218,-13.9755"/>
<polygon fill="midnightblue" stroke="midnightblue" points="248.921,-17.4095 258.299,-12.479 247.894,-10.4853 248.921,-17.4095"/>
</g>
</g>
</svg>
