<?xml version="1.0" encoding="UTF-8" standalone="no"?>
<!DOCTYPE svg PUBLIC "-//W3C//DTD SVG 1.1//EN"
 "http://www.w3.org/Graphics/SVG/1.1/DTD/svg11.dtd">
<!-- Generated by graphviz version 2.30.1 (20130221.2233)
 -->
<!-- Title: source/portable/GCC/AVR32_UC3/port.c Pages: 1 -->
<svg width="549pt" height="208pt"
 viewBox="0.00 0.00 549.00 208.00" xmlns="http://www.w3.org/2000/svg" xmlns:xlink="http://www.w3.org/1999/xlink">
<g id="graph0" class="graph" transform="scale(1 1) rotate(0) translate(4 204)">
<title>source/portable/GCC/AVR32_UC3/port.c</title>
<polygon fill="white" stroke="white" points="-4,5 -4,-204 546,-204 546,5 -4,5"/>
<!-- Node1 -->
<g id="node1" class="node"><title>Node1</title>
<polygon fill="#bfbfbf" stroke="black" points="214,-169 214,-199 324,-199 324,-169 214,-169"/>
<text text-anchor="start" x="222" y="-187" font-family="Helvetica,sans-Serif" font-size="10.00">source/portable/GCC</text>
<text text-anchor="middle" x="269" y="-176" font-family="Helvetica,sans-Serif" font-size="10.00">/AVR32_UC3/port.c</text>
</g>
<!-- Node2 -->
<g id="node2" class="node"><title>Node2</title>
<polygon fill="white" stroke="#bfbfbf" points="-0.5,-112.5 -0.5,-131.5 58.5,-131.5 58.5,-112.5 -0.5,-112.5"/>
<text text-anchor="middle" x="29" y="-119.5" font-family="Helvetica,sans-Serif" font-size="10.00">sys/cpu.h</text>
</g>
<!-- Node1&#45;&gt;Node2 -->
<g id="edge1" class="edge"><title>Node1&#45;&gt;Node2</title>
<path fill="none" stroke="midnightblue" d="M213.939,-169.235C169.508,-158.127 108.081,-142.77 68.4425,-132.861"/>
<polygon fill="midnightblue" stroke="midnightblue" points="69.1623,-129.433 58.612,-130.403 67.4645,-136.224 69.1623,-129.433"/>
</g>
<!-- Node3 -->
<g id="node3" class="node"><title>Node3</title>
<polygon fill="white" stroke="#bfbfbf" points="76.5,-112.5 76.5,-131.5 141.5,-131.5 141.5,-112.5 76.5,-112.5"/>
<text text-anchor="middle" x="109" y="-119.5" font-family="Helvetica,sans-Serif" font-size="10.00">sys/usart.h</text>
</g>
<!-- Node1&#45;&gt;Node3 -->
<g id="edge2" class="edge"><title>Node1&#45;&gt;Node3</title>
<path fill="none" stroke="midnightblue" d="M231.487,-168.933C204.132,-158.674 167.439,-144.915 141.365,-135.137"/>
<polygon fill="midnightblue" stroke="midnightblue" points="142.526,-131.834 131.933,-131.6 140.068,-138.388 142.526,-131.834"/>
</g>
<!-- Node4 -->
<g id="node4" class="node"><title>Node4</title>
<polygon fill="white" stroke="#bfbfbf" points="160,-112.5 160,-131.5 214,-131.5 214,-112.5 160,-112.5"/>
<text text-anchor="middle" x="187" y="-119.5" font-family="Helvetica,sans-Serif" font-size="10.00">malloc.h</text>
</g>
<!-- Node1&#45;&gt;Node4 -->
<g id="edge3" class="edge"><title>Node1&#45;&gt;Node4</title>
<path fill="none" stroke="midnightblue" d="M249.567,-168.781C236.792,-159.433 220.111,-147.227 207.186,-137.77"/>
<polygon fill="midnightblue" stroke="midnightblue" points="209.069,-134.811 198.932,-131.731 204.935,-140.46 209.069,-134.811"/>
</g>
<!-- Node5 -->
<g id="node5" class="node"><title>Node5</title>
<g id="a_node5"><a xlink:href="_free_r_t_o_s_8h.html" target="_top" xlink:title="FreeRTOS.h">
<polygon fill="white" stroke="black" points="232.5,-112.5 232.5,-131.5 305.5,-131.5 305.5,-112.5 232.5,-112.5"/>
<text text-anchor="middle" x="269" y="-119.5" font-family="Helvetica,sans-Serif" font-size="10.00">FreeRTOS.h</text>
</a>
</g>
</g>
<!-- Node1&#45;&gt;Node5 -->
<g id="edge4" class="edge"><title>Node1&#45;&gt;Node5</title>
<path fill="none" stroke="midnightblue" d="M269,-168.781C269,-160.781 269,-150.689 269,-142.017"/>
<polygon fill="midnightblue" stroke="midnightblue" points="272.5,-141.73 269,-131.731 265.5,-141.731 272.5,-141.73"/>
</g>
<!-- Node14 -->
<g id="node14" class="node"><title>Node14</title>
<g id="a_node14"><a xlink:href="task_8h.html" target="_top" xlink:title="task.h">
<polygon fill="white" stroke="black" points="323.5,-112.5 323.5,-131.5 366.5,-131.5 366.5,-112.5 323.5,-112.5"/>
<text text-anchor="middle" x="345" y="-119.5" font-family="Helvetica,sans-Serif" font-size="10.00">task.h</text>
</a>
</g>
</g>
<!-- Node1&#45;&gt;Node14 -->
<g id="edge13" class="edge"><title>Node1&#45;&gt;Node14</title>
<path fill="none" stroke="midnightblue" d="M287.011,-168.781C298.738,-159.523 314.015,-147.462 325.945,-138.044"/>
<polygon fill="midnightblue" stroke="midnightblue" points="328.261,-140.674 333.941,-131.731 323.924,-135.18 328.261,-140.674"/>
</g>
<!-- Node16 -->
<g id="node16" class="node"><title>Node16</title>
<polygon fill="white" stroke="#bfbfbf" points="385,-112.5 385,-131.5 445,-131.5 445,-112.5 385,-112.5"/>
<text text-anchor="middle" x="415" y="-119.5" font-family="Helvetica,sans-Serif" font-size="10.00">avr32/io.h</text>
</g>
<!-- Node1&#45;&gt;Node16 -->
<g id="edge15" class="edge"><title>Node1&#45;&gt;Node16</title>
<path fill="none" stroke="midnightblue" d="M303.231,-168.933C327.862,-158.81 360.79,-145.278 384.518,-135.527"/>
<polygon fill="midnightblue" stroke="midnightblue" points="386.154,-138.639 394.073,-131.6 383.493,-132.164 386.154,-138.639"/>
</g>
<!-- Node17 -->
<g id="node17" class="node"><title>Node17</title>
<polygon fill="white" stroke="#bfbfbf" points="463,-112.5 463,-131.5 507,-131.5 507,-112.5 463,-112.5"/>
<text text-anchor="middle" x="485" y="-119.5" font-family="Helvetica,sans-Serif" font-size="10.00">gpio.h</text>
</g>
<!-- Node1&#45;&gt;Node17 -->
<g id="edge16" class="edge"><title>Node1&#45;&gt;Node17</title>
<path fill="none" stroke="midnightblue" d="M320.886,-168.898C355.752,-159.376 402.981,-146.389 453.242,-132.189"/>
<polygon fill="midnightblue" stroke="midnightblue" points="454.326,-135.519 462.995,-129.428 452.42,-128.784 454.326,-135.519"/>
</g>
<!-- Node6 -->
<g id="node6" class="node"><title>Node6</title>
<polygon fill="white" stroke="#bfbfbf" points="30,-56.5 30,-75.5 82,-75.5 82,-56.5 30,-56.5"/>
<text text-anchor="middle" x="56" y="-63.5" font-family="Helvetica,sans-Serif" font-size="10.00">stddef.h</text>
</g>
<!-- Node5&#45;&gt;Node6 -->
<g id="edge5" class="edge"><title>Node5&#45;&gt;Node6</title>
<path fill="none" stroke="midnightblue" d="M235.25,-112.444C196.186,-102.54 132.108,-86.2949 92.0803,-76.1471"/>
<polygon fill="midnightblue" stroke="midnightblue" points="92.7598,-72.7087 82.2064,-73.6439 91.0396,-79.4941 92.7598,-72.7087"/>
</g>
<!-- Node7 -->
<g id="node7" class="node"><title>Node7</title>
<polygon fill="white" stroke="#bfbfbf" points="100.5,-56.5 100.5,-75.5 149.5,-75.5 149.5,-56.5 100.5,-56.5"/>
<text text-anchor="middle" x="125" y="-63.5" font-family="Helvetica,sans-Serif" font-size="10.00">stdint.h</text>
</g>
<!-- Node5&#45;&gt;Node7 -->
<g id="edge6" class="edge"><title>Node5&#45;&gt;Node7</title>
<path fill="none" stroke="midnightblue" d="M246.183,-112.444C222.168,-103.438 184.171,-89.1891 157.131,-79.049"/>
<polygon fill="midnightblue" stroke="midnightblue" points="158.303,-75.7506 147.71,-75.5164 155.845,-82.3049 158.303,-75.7506"/>
</g>
<!-- Node8 -->
<g id="node8" class="node"><title>Node8</title>
<polygon fill="white" stroke="#bfbfbf" points="168,-56.5 168,-75.5 270,-75.5 270,-56.5 168,-56.5"/>
<text text-anchor="middle" x="219" y="-63.5" font-family="Helvetica,sans-Serif" font-size="10.00">FreeRTOSConfig.h</text>
</g>
<!-- Node5&#45;&gt;Node8 -->
<g id="edge7" class="edge"><title>Node5&#45;&gt;Node8</title>
<path fill="none" stroke="midnightblue" d="M260.744,-112.083C253.535,-104.298 242.89,-92.8015 234.154,-83.3665"/>
<polygon fill="midnightblue" stroke="midnightblue" points="236.465,-80.7108 227.103,-75.7511 231.329,-85.4666 236.465,-80.7108"/>
</g>
<!-- Node9 -->
<g id="node9" class="node"><title>Node9</title>
<g id="a_node9"><a xlink:href="projdefs_8h.html" target="_top" xlink:title="projdefs.h">
<polygon fill="white" stroke="black" points="288,-56.5 288,-75.5 348,-75.5 348,-56.5 288,-56.5"/>
<text text-anchor="middle" x="318" y="-63.5" font-family="Helvetica,sans-Serif" font-size="10.00">projdefs.h</text>
</a>
</g>
</g>
<!-- Node5&#45;&gt;Node9 -->
<g id="edge8" class="edge"><title>Node5&#45;&gt;Node9</title>
<path fill="none" stroke="midnightblue" d="M277.091,-112.083C284.155,-104.298 294.588,-92.8015 303.149,-83.3665"/>
<polygon fill="midnightblue" stroke="midnightblue" points="305.931,-85.5087 310.059,-75.7511 300.747,-80.8047 305.931,-85.5087"/>
</g>
<!-- Node10 -->
<g id="node10" class="node"><title>Node10</title>
<g id="a_node10"><a xlink:href="portable_8h.html" target="_top" xlink:title="portable.h">
<polygon fill="white" stroke="black" points="366.5,-56.5 366.5,-75.5 427.5,-75.5 427.5,-56.5 366.5,-56.5"/>
<text text-anchor="middle" x="397" y="-63.5" font-family="Helvetica,sans-Serif" font-size="10.00">portable.h</text>
</a>
</g>
</g>
<!-- Node5&#45;&gt;Node10 -->
<g id="edge9" class="edge"><title>Node5&#45;&gt;Node10</title>
<path fill="none" stroke="midnightblue" d="M289.282,-112.444C310.347,-103.557 343.517,-89.5632 367.486,-79.4514"/>
<polygon fill="midnightblue" stroke="midnightblue" points="368.96,-82.6283 376.813,-75.5164 366.239,-76.1787 368.96,-82.6283"/>
</g>
<!-- Node11 -->
<g id="node11" class="node"><title>Node11</title>
<g id="a_node11"><a xlink:href="deprecated__definitions_8h.html" target="_top" xlink:title="deprecated_definitions.h">
<polygon fill="white" stroke="black" points="218.5,-0.5 218.5,-19.5 343.5,-19.5 343.5,-0.5 218.5,-0.5"/>
<text text-anchor="middle" x="281" y="-7.5" font-family="Helvetica,sans-Serif" font-size="10.00">deprecated_definitions.h</text>
</a>
</g>
</g>
<!-- Node10&#45;&gt;Node11 -->
<g id="edge10" class="edge"><title>Node10&#45;&gt;Node11</title>
<path fill="none" stroke="midnightblue" d="M378.619,-56.4435C359.784,-47.6751 330.269,-33.9355 308.621,-23.8579"/>
<polygon fill="midnightblue" stroke="midnightblue" points="309.838,-20.5637 299.295,-19.5164 306.883,-26.9098 309.838,-20.5637"/>
</g>
<!-- Node12 -->
<g id="node12" class="node"><title>Node12</title>
<polygon fill="white" stroke="#bfbfbf" points="362,-0.5 362,-19.5 432,-19.5 432,-0.5 362,-0.5"/>
<text text-anchor="middle" x="397" y="-7.5" font-family="Helvetica,sans-Serif" font-size="10.00">portmacro.h</text>
</g>
<!-- Node10&#45;&gt;Node12 -->
<g id="edge11" class="edge"><title>Node10&#45;&gt;Node12</title>
<path fill="none" stroke="midnightblue" d="M397,-56.083C397,-49.0059 397,-38.8611 397,-29.9865"/>
<polygon fill="midnightblue" stroke="midnightblue" points="400.5,-29.751 397,-19.7511 393.5,-29.7511 400.5,-29.751"/>
</g>
<!-- Node13 -->
<g id="node13" class="node"><title>Node13</title>
<g id="a_node13"><a xlink:href="mpu__wrappers_8h.html" target="_top" xlink:title="mpu_wrappers.h">
<polygon fill="white" stroke="black" points="450.5,-0.5 450.5,-19.5 541.5,-19.5 541.5,-0.5 450.5,-0.5"/>
<text text-anchor="middle" x="496" y="-7.5" font-family="Helvetica,sans-Serif" font-size="10.00">mpu_wrappers.h</text>
</a>
</g>
</g>
<!-- Node10&#45;&gt;Node13 -->
<g id="edge12" class="edge"><title>Node10&#45;&gt;Node13</title>
<path fill="none" stroke="midnightblue" d="M412.906,-56.324C428.638,-47.7428 452.942,-34.486 471.209,-24.5224"/>
<polygon fill="midnightblue" stroke="midnightblue" points="473.03,-27.5157 480.133,-19.6545 469.678,-21.3704 473.03,-27.5157"/>
</g>
<!-- Node15 -->
<g id="node15" class="node"><title>Node15</title>
<g id="a_node15"><a xlink:href="list_8h.html" target="_top" xlink:title="list.h">
<polygon fill="white" stroke="black" points="445.5,-56.5 445.5,-75.5 482.5,-75.5 482.5,-56.5 445.5,-56.5"/>
<text text-anchor="middle" x="464" y="-63.5" font-family="Helvetica,sans-Serif" font-size="10.00">list.h</text>
</a>
</g>
</g>
<!-- Node14&#45;&gt;Node15 -->
<g id="edge14" class="edge"><title>Node14&#45;&gt;Node15</title>
<path fill="none" stroke="midnightblue" d="M363.856,-112.444C383.266,-103.636 413.73,-89.8116 435.965,-79.722"/>
<polygon fill="midnightblue" stroke="midnightblue" points="437.572,-82.836 445.232,-75.5164 434.68,-76.4615 437.572,-82.836"/>
</g>
</g>
</svg>
