<?xml version="1.0" encoding="UTF-8" standalone="no"?>
<!DOCTYPE svg PUBLIC "-//W3C//DTD SVG 1.1//EN"
 "http://www.w3.org/Graphics/SVG/1.1/DTD/svg11.dtd">
<!-- Generated by graphviz version 2.30.1 (20130221.2233)
 -->
<!-- Title: prvProcessTick Pages: 1 -->
<svg width="354pt" height="85pt"
 viewBox="0.00 0.00 354.00 85.00" xmlns="http://www.w3.org/2000/svg" xmlns:xlink="http://www.w3.org/1999/xlink">
<g id="graph0" class="graph" transform="scale(1 1) rotate(0) translate(4 81)">
<title>prvProcessTick</title>
<polygon fill="white" stroke="white" points="-4,5 -4,-81 351,-81 351,5 -4,5"/>
<!-- Node1 -->
<g id="node1" class="node"><title>Node1</title>
<polygon fill="#bfbfbf" stroke="black" points="0.5,-38.5 0.5,-57.5 85.5,-57.5 85.5,-38.5 0.5,-38.5"/>
<text text-anchor="middle" x="43" y="-45.5" font-family="Helvetica,sans-Serif" font-size="10.00">prvProcessTick</text>
</g>
<!-- Node2 -->
<g id="node2" class="node"><title>Node2</title>
<g id="a_node2"><a xlink:href="_renesas_2_r_x100_2port_8c.html#a9c86137bc3c1cbffc39fff22627cb885" target="_top" xlink:title="vTaskSwitchContext">
<polygon fill="white" stroke="black" points="122.5,-57.5 122.5,-76.5 229.5,-76.5 229.5,-57.5 122.5,-57.5"/>
<text text-anchor="middle" x="176" y="-64.5" font-family="Helvetica,sans-Serif" font-size="10.00">vTaskSwitchContext</text>
</a>
</g>
</g>
<!-- Node1&#45;&gt;Node2 -->
<g id="edge1" class="edge"><title>Node1&#45;&gt;Node2</title>
<path fill="none" stroke="midnightblue" d="M85.8094,-54.064C94.1877,-55.2791 103.164,-56.581 112.076,-57.8736"/>
<polygon fill="midnightblue" stroke="midnightblue" points="111.677,-61.3523 122.076,-59.324 112.682,-54.4248 111.677,-61.3523"/>
</g>
<!-- Node3 -->
<g id="node3" class="node"><title>Node3</title>
<g id="a_node3"><a xlink:href="task_8h.html#a978e25460ac35706f9ad30b46d9403d8" target="_top" xlink:title="xTaskIncrementTick">
<polygon fill="white" stroke="black" points="123,-19.5 123,-38.5 229,-38.5 229,-19.5 123,-19.5"/>
<text text-anchor="middle" x="176" y="-26.5" font-family="Helvetica,sans-Serif" font-size="10.00">xTaskIncrementTick</text>
</a>
</g>
</g>
<!-- Node1&#45;&gt;Node3 -->
<g id="edge2" class="edge"><title>Node1&#45;&gt;Node3</title>
<path fill="none" stroke="midnightblue" d="M85.8094,-41.936C94.2965,-40.7051 103.397,-39.3852 112.423,-38.0761"/>
<polygon fill="midnightblue" stroke="midnightblue" points="113.152,-41.5071 122.546,-36.6079 112.147,-34.5796 113.152,-41.5071"/>
</g>
<!-- Node4 -->
<g id="node4" class="node"><title>Node4</title>
<g id="a_node4"><a xlink:href="list_8h.html#a2eb1558482076fff8cafc63419c2d34a" target="_top" xlink:title="uxListRemove">
<polygon fill="white" stroke="black" points="266,-38.5 266,-57.5 346,-57.5 346,-38.5 266,-38.5"/>
<text text-anchor="middle" x="306" y="-45.5" font-family="Helvetica,sans-Serif" font-size="10.00">uxListRemove</text>
</a>
</g>
</g>
<!-- Node3&#45;&gt;Node4 -->
<g id="edge3" class="edge"><title>Node3&#45;&gt;Node4</title>
<path fill="none" stroke="midnightblue" d="M229.062,-36.728C237.918,-38.0424 247.089,-39.4038 255.865,-40.7065"/>
<polygon fill="midnightblue" stroke="midnightblue" points="255.538,-44.1963 265.944,-42.2026 256.566,-37.2722 255.538,-44.1963"/>
</g>
<!-- Node5 -->
<g id="node5" class="node"><title>Node5</title>
<g id="a_node5"><a xlink:href="_paradigm_2_tern___e_e_2small_2portmacro_8h.html#a14d32f8130d3c0b212cfc751730b5b49" target="_top" xlink:title="void">
<polygon fill="white" stroke="black" points="288.5,-0.5 288.5,-19.5 323.5,-19.5 323.5,-0.5 288.5,-0.5"/>
<text text-anchor="middle" x="306" y="-7.5" font-family="Helvetica,sans-Serif" font-size="10.00">void</text>
</a>
</g>
</g>
<!-- Node3&#45;&gt;Node5 -->
<g id="edge4" class="edge"><title>Node3&#45;&gt;Node5</title>
<path fill="none" stroke="midnightblue" d="M229.062,-21.272C245.94,-18.7667 263.966,-16.0911 278.218,-13.9755"/>
<polygon fill="midnightblue" stroke="midnightblue" points="278.921,-17.4095 288.299,-12.479 277.894,-10.4853 278.921,-17.4095"/>
</g>
</g>
</svg>
