<?xml version="1.0" encoding="UTF-8" standalone="no"?>
<!DOCTYPE svg PUBLIC "-//W3C//DTD SVG 1.1//EN"
 "http://www.w3.org/Graphics/SVG/1.1/DTD/svg11.dtd">
<!-- Generated by graphviz version 2.30.1 (20130221.2233)
 -->
<!-- Title: AT91F_PDC_DisableRx Pages: 1 -->
<svg width="430pt" height="142pt"
 viewBox="0.00 0.00 430.00 142.00" xmlns="http://www.w3.org/2000/svg" xmlns:xlink="http://www.w3.org/1999/xlink">
<g id="graph0" class="graph" transform="scale(1 1) rotate(0) translate(4 138)">
<title>AT91F_PDC_DisableRx</title>
<polygon fill="white" stroke="white" points="-4,5 -4,-138 427,-138 427,5 -4,5"/>
<!-- Node1 -->
<g id="node1" class="node"><title>Node1</title>
<polygon fill="#bfbfbf" stroke="black" points="0,-57.5 0,-76.5 124,-76.5 124,-57.5 0,-57.5"/>
<text text-anchor="middle" x="62" y="-64.5" font-family="Helvetica,sans-Serif" font-size="10.00">AT91F_PDC_DisableRx</text>
</g>
<!-- Node2 -->
<g id="node2" class="node"><title>Node2</title>
<g id="a_node2"><a xlink:href="_g_c_c_2_a_r_m7___a_t91_s_a_m7_s_2lib___a_t91_s_a_m7_x256_8h.html#ae7a00663d9b586d0060d83e4c3e1921f" target="_top" xlink:title="AT91F_PDC_Close">
<polygon fill="white" stroke="black" points="160,-76.5 160,-95.5 264,-95.5 264,-76.5 160,-76.5"/>
<text text-anchor="middle" x="212" y="-83.5" font-family="Helvetica,sans-Serif" font-size="10.00">AT91F_PDC_Close</text>
</a>
</g>
</g>
<!-- Node1&#45;&gt;Node2 -->
<g id="edge1" class="edge"><title>Node1&#45;&gt;Node2</title>
<path fill="none" stroke="midnightblue" d="M134.211,-76.1419C142.909,-77.2586 151.659,-78.382 159.979,-79.4501"/>
<polygon fill="midnightblue" stroke="midnightblue" points="134.416,-72.6396 124.052,-74.8377 133.525,-79.5827 134.416,-72.6396"/>
</g>
<!-- Node5 -->
<g id="node5" class="node"><title>Node5</title>
<g id="a_node5"><a xlink:href="_g_c_c_2_a_r_m7___a_t91_s_a_m7_s_2lib___a_t91_s_a_m7_x256_8h.html#a943bb6125d66d7956df049c6989f00f1" target="_top" xlink:title="AT91F_PDC_Open">
<polygon fill="white" stroke="black" points="160.5,-38.5 160.5,-57.5 263.5,-57.5 263.5,-38.5 160.5,-38.5"/>
<text text-anchor="middle" x="212" y="-45.5" font-family="Helvetica,sans-Serif" font-size="10.00">AT91F_PDC_Open</text>
</a>
</g>
</g>
<!-- Node1&#45;&gt;Node5 -->
<g id="edge4" class="edge"><title>Node1&#45;&gt;Node5</title>
<path fill="none" stroke="midnightblue" d="M134.059,-57.8775C142.969,-56.7337 151.936,-55.5825 160.442,-54.4906"/>
<polygon fill="midnightblue" stroke="midnightblue" points="133.525,-54.4173 124.052,-59.1623 134.416,-61.3604 133.525,-54.4173"/>
</g>
<!-- Node3 -->
<g id="node3" class="node"><title>Node3</title>
<g id="a_node3"><a xlink:href="_g_c_c_2_a_r_m7___a_t91_s_a_m7_s_2lib___a_t91_s_a_m7_x256_8h.html#a1d538178f15852104ef39cbb837504c3" target="_top" xlink:title="AT91F_SPI_Close">
<polygon fill="white" stroke="black" points="311.5,-114.5 311.5,-133.5 410.5,-133.5 410.5,-114.5 311.5,-114.5"/>
<text text-anchor="middle" x="361" y="-121.5" font-family="Helvetica,sans-Serif" font-size="10.00">AT91F_SPI_Close</text>
</a>
</g>
</g>
<!-- Node2&#45;&gt;Node3 -->
<g id="edge2" class="edge"><title>Node2&#45;&gt;Node3</title>
<path fill="none" stroke="midnightblue" d="M259.855,-98.1121C280.328,-103.404 303.99,-109.521 323.172,-114.48"/>
<polygon fill="midnightblue" stroke="midnightblue" points="260.652,-94.7032 250.094,-95.589 258.9,-101.48 260.652,-94.7032"/>
</g>
<!-- Node4 -->
<g id="node4" class="node"><title>Node4</title>
<g id="a_node4"><a xlink:href="_g_c_c_2_a_r_m7___a_t91_s_a_m7_s_2lib___a_t91_s_a_m7_x256_8h.html#a7b4bbc35e32ebaa01d042c344ff4ded0" target="_top" xlink:title="AT91F_US_Close">
<polygon fill="white" stroke="black" points="312.5,-76.5 312.5,-95.5 409.5,-95.5 409.5,-76.5 312.5,-76.5"/>
<text text-anchor="middle" x="361" y="-83.5" font-family="Helvetica,sans-Serif" font-size="10.00">AT91F_US_Close</text>
</a>
</g>
</g>
<!-- Node2&#45;&gt;Node4 -->
<g id="edge3" class="edge"><title>Node2&#45;&gt;Node4</title>
<path fill="none" stroke="midnightblue" d="M274.036,-86C286.722,-86 299.919,-86 312.054,-86"/>
<polygon fill="midnightblue" stroke="midnightblue" points="274.001,-82.5001 264.001,-86 274.001,-89.5001 274.001,-82.5001"/>
</g>
<!-- Node6 -->
<g id="node6" class="node"><title>Node6</title>
<g id="a_node6"><a xlink:href="_g_c_c_2_a_r_m7___a_t91_s_a_m7_s_2lib___a_t91_s_a_m7_x256_8h.html#acbbed25fcf0256823175db5f1a8f1f39" target="_top" xlink:title="AT91F_US_Configure">
<polygon fill="white" stroke="black" points="303.5,-38.5 303.5,-57.5 418.5,-57.5 418.5,-38.5 303.5,-38.5"/>
<text text-anchor="middle" x="361" y="-45.5" font-family="Helvetica,sans-Serif" font-size="10.00">AT91F_US_Configure</text>
</a>
</g>
</g>
<!-- Node5&#45;&gt;Node6 -->
<g id="edge5" class="edge"><title>Node5&#45;&gt;Node6</title>
<path fill="none" stroke="midnightblue" d="M273.656,-48C283.454,-48 293.567,-48 303.268,-48"/>
<polygon fill="midnightblue" stroke="midnightblue" points="273.589,-44.5001 263.589,-48 273.589,-51.5001 273.589,-44.5001"/>
</g>
<!-- Node7 -->
<g id="node7" class="node"><title>Node7</title>
<g id="a_node7"><a xlink:href="_g_c_c_2_a_r_m7___a_t91_s_a_m7_s_2lib___a_t91_s_a_m7_x256_8h.html#aa9745e47a0642596e61432ffbc890080" target="_top" xlink:title="AT91F_SSC_Configure">
<polygon fill="white" stroke="black" points="300,-0.5 300,-19.5 422,-19.5 422,-0.5 300,-0.5"/>
<text text-anchor="middle" x="361" y="-7.5" font-family="Helvetica,sans-Serif" font-size="10.00">AT91F_SSC_Configure</text>
</a>
</g>
</g>
<!-- Node5&#45;&gt;Node7 -->
<g id="edge6" class="edge"><title>Node5&#45;&gt;Node7</title>
<path fill="none" stroke="midnightblue" d="M259.855,-35.8879C280.328,-30.5956 303.99,-24.4787 323.172,-19.5201"/>
<polygon fill="midnightblue" stroke="midnightblue" points="258.9,-32.5195 250.094,-38.411 260.652,-39.2968 258.9,-32.5195"/>
</g>
</g>
</svg>
