<?xml version="1.0" encoding="UTF-8" standalone="no"?>
<!DOCTYPE svg PUBLIC "-//W3C//DTD SVG 1.1//EN"
 "http://www.w3.org/Graphics/SVG/1.1/DTD/svg11.dtd">
<!-- Generated by graphviz version 2.30.1 (20130221.2233)
 -->
<!-- Title: MPU_vTaskAllocateMPURegions Pages: 1 -->
<svg width="348pt" height="66pt"
 viewBox="0.00 0.00 348.00 66.00" xmlns="http://www.w3.org/2000/svg" xmlns:xlink="http://www.w3.org/1999/xlink">
<g id="graph0" class="graph" transform="scale(1 1) rotate(0) translate(4 62)">
<title>MPU_vTaskAllocateMPURegions</title>
<polygon fill="white" stroke="white" points="-4,5 -4,-62 345,-62 345,5 -4,5"/>
<!-- Node1 -->
<g id="node1" class="node"><title>Node1</title>
<polygon fill="#bfbfbf" stroke="black" points="0.5,-19.5 0.5,-38.5 165.5,-38.5 165.5,-19.5 0.5,-19.5"/>
<text text-anchor="middle" x="83" y="-26.5" font-family="Helvetica,sans-Serif" font-size="10.00">MPU_vTaskAllocateMPURegions</text>
</g>
<!-- Node2 -->
<g id="node2" class="node"><title>Node2</title>
<g id="a_node2"><a xlink:href="_g_c_c_2_a_r_m___c_m3___m_p_u_2port_8c.html#ad5691a9d6fd4c0b9f4e55426dd9a48ad" target="_top" xlink:title="prvRaisePrivilege">
<polygon fill="white" stroke="black" points="224,-38.5 224,-57.5 318,-57.5 318,-38.5 224,-38.5"/>
<text text-anchor="middle" x="271" y="-45.5" font-family="Helvetica,sans-Serif" font-size="10.00">prvRaisePrivilege</text>
</a>
</g>
</g>
<!-- Node1&#45;&gt;Node2 -->
<g id="edge1" class="edge"><title>Node1&#45;&gt;Node2</title>
<path fill="none" stroke="midnightblue" d="M165.582,-37.3337C181.84,-38.9944 198.571,-40.7035 213.746,-42.2536"/>
<polygon fill="midnightblue" stroke="midnightblue" points="213.675,-45.7645 223.979,-43.2989 214.386,-38.8007 213.675,-45.7645"/>
</g>
<!-- Node3 -->
<g id="node3" class="node"><title>Node3</title>
<g id="a_node3"><a xlink:href="task_8h.html#ad889595baff9faf9efe02f3696825409" target="_top" xlink:title="vTaskAllocateMPURegions">
<polygon fill="white" stroke="black" points="202,-0.5 202,-19.5 340,-19.5 340,-0.5 202,-0.5"/>
<text text-anchor="middle" x="271" y="-7.5" font-family="Helvetica,sans-Serif" font-size="10.00">vTaskAllocateMPURegions</text>
</a>
</g>
</g>
<!-- Node1&#45;&gt;Node3 -->
<g id="edge2" class="edge"><title>Node1&#45;&gt;Node3</title>
<path fill="none" stroke="midnightblue" d="M165.582,-20.6663C174.282,-19.7777 183.116,-18.8752 191.776,-17.9906"/>
<polygon fill="midnightblue" stroke="midnightblue" points="192.249,-21.4606 201.842,-16.9624 191.538,-14.4968 192.249,-21.4606"/>
</g>
</g>
</svg>
