<?xml version="1.0" encoding="UTF-8" standalone="no"?>
<!DOCTYPE svg PUBLIC "-//W3C//DTD SVG 1.1//EN"
 "http://www.w3.org/Graphics/SVG/1.1/DTD/svg11.dtd">
<!-- Generated by graphviz version 2.30.1 (20130221.2233)
 -->
<!-- Title: source/portable/GCC/TriCore_1782/portmacro.h Pages: 1 -->
<svg width="185pt" height="96pt"
 viewBox="0.00 0.00 185.00 96.00" xmlns="http://www.w3.org/2000/svg" xmlns:xlink="http://www.w3.org/1999/xlink">
<g id="graph0" class="graph" transform="scale(1 1) rotate(0) translate(4 92)">
<title>source/portable/GCC/TriCore_1782/portmacro.h</title>
<polygon fill="white" stroke="white" points="-4,5 -4,-92 182,-92 182,5 -4,5"/>
<!-- Node1 -->
<g id="node1" class="node"><title>Node1</title>
<polygon fill="#bfbfbf" stroke="black" points="7.5,-57 7.5,-87 144.5,-87 144.5,-57 7.5,-57"/>
<text text-anchor="start" x="15.5" y="-75" font-family="Helvetica,sans-Serif" font-size="10.00">source/portable/GCC</text>
<text text-anchor="middle" x="76" y="-64" font-family="Helvetica,sans-Serif" font-size="10.00">/TriCore_1782/portmacro.h</text>
</g>
<!-- Node2 -->
<g id="node2" class="node"><title>Node2</title>
<polygon fill="white" stroke="#bfbfbf" points="-0.5,-0.5 -0.5,-19.5 54.5,-19.5 54.5,-0.5 -0.5,-0.5"/>
<text text-anchor="middle" x="27" y="-7.5" font-family="Helvetica,sans-Serif" font-size="10.00">tc1782.h</text>
</g>
<!-- Node1&#45;&gt;Node2 -->
<g id="edge1" class="edge"><title>Node1&#45;&gt;Node2</title>
<path fill="none" stroke="midnightblue" d="M64.3877,-56.7808C57.2674,-48.0621 48.1169,-36.8574 40.6508,-27.7153"/>
<polygon fill="midnightblue" stroke="midnightblue" points="43.1662,-25.262 34.1299,-19.7305 37.7444,-29.6898 43.1662,-25.262"/>
</g>
<!-- Node3 -->
<g id="node3" class="node"><title>Node3</title>
<polygon fill="white" stroke="#bfbfbf" points="73,-0.5 73,-19.5 177,-19.5 177,-0.5 73,-0.5"/>
<text text-anchor="middle" x="125" y="-7.5" font-family="Helvetica,sans-Serif" font-size="10.00">machine/intrinsics.h</text>
</g>
<!-- Node1&#45;&gt;Node3 -->
<g id="edge2" class="edge"><title>Node1&#45;&gt;Node3</title>
<path fill="none" stroke="midnightblue" d="M87.6123,-56.7808C94.7326,-48.0621 103.883,-36.8574 111.349,-27.7153"/>
<polygon fill="midnightblue" stroke="midnightblue" points="114.256,-29.6898 117.87,-19.7305 108.834,-25.262 114.256,-29.6898"/>
</g>
</g>
</svg>
