<?xml version="1.0" encoding="UTF-8" standalone="no"?>
<!DOCTYPE svg PUBLIC "-//W3C//DTD SVG 1.1//EN"
 "http://www.w3.org/Graphics/SVG/1.1/DTD/svg11.dtd">
<!-- Generated by graphviz version 2.30.1 (20130221.2233)
 -->
<!-- Title: xPortInstallInterruptHandler Pages: 1 -->
<svg width="312pt" height="77pt"
 viewBox="0.00 0.00 312.00 77.00" xmlns="http://www.w3.org/2000/svg" xmlns:xlink="http://www.w3.org/1999/xlink">
<g id="graph0" class="graph" transform="scale(1 1) rotate(0) translate(4 73)">
<title>xPortInstallInterruptHandler</title>
<polygon fill="white" stroke="white" points="-4,5 -4,-73 309,-73 309,5 -4,5"/>
<!-- Node1 -->
<g id="node1" class="node"><title>Node1</title>
<polygon fill="#bfbfbf" stroke="black" points="0,-22.5 0,-41.5 138,-41.5 138,-22.5 0,-22.5"/>
<text text-anchor="middle" x="69" y="-29.5" font-family="Helvetica,sans-Serif" font-size="10.00">xPortInstallInterruptHandler</text>
</g>
<!-- Node2 -->
<g id="node2" class="node"><title>Node2</title>
<g id="a_node2"><a xlink:href="_g_c_c_2_i_a32__flat_2port_8c.html#a2f6722783bd2abc1808e0a081f3b8ad5" target="_top" xlink:title="prvCheckValidityOfVector\lNumber">
<polygon fill="white" stroke="black" points="174,-39 174,-69 304,-69 304,-39 174,-39"/>
<text text-anchor="start" x="182" y="-57" font-family="Helvetica,sans-Serif" font-size="10.00">prvCheckValidityOfVector</text>
<text text-anchor="middle" x="239" y="-46" font-family="Helvetica,sans-Serif" font-size="10.00">Number</text>
</a>
</g>
</g>
<!-- Node1&#45;&gt;Node2 -->
<g id="edge1" class="edge"><title>Node1&#45;&gt;Node2</title>
<path fill="none" stroke="midnightblue" d="M138.332,-40.9482C146.663,-42.0392 155.208,-43.1582 163.622,-44.26"/>
<polygon fill="midnightblue" stroke="midnightblue" points="163.427,-47.7643 173.797,-45.5925 164.336,-40.8236 163.427,-47.7643"/>
</g>
<!-- Node3 -->
<g id="node3" class="node"><title>Node3</title>
<g id="a_node3"><a xlink:href="_g_c_c_2_i_a32__flat_2port_8c.html#ad1f3f6f4095543774160a3d9676d2852" target="_top" xlink:title="prvSetInterruptGate">
<polygon fill="white" stroke="black" points="187,-0.5 187,-19.5 291,-19.5 291,-0.5 187,-0.5"/>
<text text-anchor="middle" x="239" y="-7.5" font-family="Helvetica,sans-Serif" font-size="10.00">prvSetInterruptGate</text>
</a>
</g>
</g>
<!-- Node1&#45;&gt;Node3 -->
<g id="edge2" class="edge"><title>Node1&#45;&gt;Node3</title>
<path fill="none" stroke="midnightblue" d="M138.332,-23.0518C151.036,-21.3882 164.235,-19.6596 176.712,-18.0258"/>
<polygon fill="midnightblue" stroke="midnightblue" points="177.535,-21.448 186.996,-16.6791 176.626,-14.5073 177.535,-21.448"/>
</g>
</g>
</svg>
