<?xml version="1.0" encoding="UTF-8" standalone="no"?>
<!DOCTYPE svg PUBLIC "-//W3C//DTD SVG 1.1//EN"
 "http://www.w3.org/Graphics/SVG/1.1/DTD/svg11.dtd">
<!-- Generated by graphviz version 2.30.1 (20130221.2233)
 -->
<!-- Title: AT91F_PDC_IsTxEmpty Pages: 1 -->
<svg width="468pt" height="104pt"
 viewBox="0.00 0.00 468.00 104.00" xmlns="http://www.w3.org/2000/svg" xmlns:xlink="http://www.w3.org/1999/xlink">
<g id="graph0" class="graph" transform="scale(1 1) rotate(0) translate(4 100)">
<title>AT91F_PDC_IsTxEmpty</title>
<polygon fill="white" stroke="white" points="-4,5 -4,-100 465,-100 465,5 -4,5"/>
<!-- Node1 -->
<g id="node1" class="node"><title>Node1</title>
<polygon fill="#bfbfbf" stroke="black" points="0,-38.5 0,-57.5 126,-57.5 126,-38.5 0,-38.5"/>
<text text-anchor="middle" x="63" y="-45.5" font-family="Helvetica,sans-Serif" font-size="10.00">AT91F_PDC_IsTxEmpty</text>
</g>
<!-- Node2 -->
<g id="node2" class="node"><title>Node2</title>
<g id="a_node2"><a xlink:href="_g_c_c_2_a_r_m7___a_t91_s_a_m7_s_2lib___a_t91_s_a_m7_x256_8h.html#a69b0e9baa0272a3febd549034aad1fcb" target="_top" xlink:title="AT91F_PDC_SendFrame">
<polygon fill="white" stroke="black" points="162.5,-38.5 162.5,-57.5 293.5,-57.5 293.5,-38.5 162.5,-38.5"/>
<text text-anchor="middle" x="228" y="-45.5" font-family="Helvetica,sans-Serif" font-size="10.00">AT91F_PDC_SendFrame</text>
</a>
</g>
</g>
<!-- Node1&#45;&gt;Node2 -->
<g id="edge1" class="edge"><title>Node1&#45;&gt;Node2</title>
<path fill="none" stroke="midnightblue" d="M136.223,-48C144.933,-48 153.786,-48 162.377,-48"/>
<polygon fill="midnightblue" stroke="midnightblue" points="136.088,-44.5001 126.088,-48 136.088,-51.5001 136.088,-44.5001"/>
</g>
<!-- Node3 -->
<g id="node3" class="node"><title>Node3</title>
<g id="a_node3"><a xlink:href="_g_c_c_2_a_r_m7___a_t91_s_a_m7_s_2lib___a_t91_s_a_m7_x256_8h.html#a9cf180ac507975a8259e99352d233732" target="_top" xlink:title="AT91F_SPI_SendFrame">
<polygon fill="white" stroke="black" points="332,-76.5 332,-95.5 458,-95.5 458,-76.5 332,-76.5"/>
<text text-anchor="middle" x="395" y="-83.5" font-family="Helvetica,sans-Serif" font-size="10.00">AT91F_SPI_SendFrame</text>
</a>
</g>
</g>
<!-- Node2&#45;&gt;Node3 -->
<g id="edge2" class="edge"><title>Node2&#45;&gt;Node3</title>
<path fill="none" stroke="midnightblue" d="M280.654,-59.8961C303.846,-65.2374 330.838,-71.4537 352.663,-76.4799"/>
<polygon fill="midnightblue" stroke="midnightblue" points="281.167,-56.4226 270.636,-57.589 279.596,-63.2441 281.167,-56.4226"/>
</g>
<!-- Node4 -->
<g id="node4" class="node"><title>Node4</title>
<g id="a_node4"><a xlink:href="_g_c_c_2_a_r_m7___a_t91_s_a_m7_s_2lib___a_t91_s_a_m7_x256_8h.html#abf1fd25f710588e80351fba226751bdf" target="_top" xlink:title="AT91F_US_SendFrame">
<polygon fill="white" stroke="black" points="333,-38.5 333,-57.5 457,-57.5 457,-38.5 333,-38.5"/>
<text text-anchor="middle" x="395" y="-45.5" font-family="Helvetica,sans-Serif" font-size="10.00">AT91F_US_SendFrame</text>
</a>
</g>
</g>
<!-- Node2&#45;&gt;Node4 -->
<g id="edge3" class="edge"><title>Node2&#45;&gt;Node4</title>
<path fill="none" stroke="midnightblue" d="M303.823,-48C313.572,-48 323.465,-48 332.951,-48"/>
<polygon fill="midnightblue" stroke="midnightblue" points="303.739,-44.5001 293.739,-48 303.739,-51.5001 303.739,-44.5001"/>
</g>
<!-- Node5 -->
<g id="node5" class="node"><title>Node5</title>
<g id="a_node5"><a xlink:href="_g_c_c_2_a_r_m7___a_t91_s_a_m7_s_2lib___a_t91_s_a_m7_x256_8h.html#ad69b884ddf6875c1e37a7a2bdcb624a4" target="_top" xlink:title="AT91F_SSC_SendFrame">
<polygon fill="white" stroke="black" points="330,-0.5 330,-19.5 460,-19.5 460,-0.5 330,-0.5"/>
<text text-anchor="middle" x="395" y="-7.5" font-family="Helvetica,sans-Serif" font-size="10.00">AT91F_SSC_SendFrame</text>
</a>
</g>
</g>
<!-- Node2&#45;&gt;Node5 -->
<g id="edge4" class="edge"><title>Node2&#45;&gt;Node5</title>
<path fill="none" stroke="midnightblue" d="M280.654,-36.1039C303.846,-30.7626 330.838,-24.5463 352.663,-19.5201"/>
<polygon fill="midnightblue" stroke="midnightblue" points="279.596,-32.7559 270.636,-38.411 281.167,-39.5774 279.596,-32.7559"/>
</g>
</g>
</svg>
