<?xml version="1.0" encoding="UTF-8" standalone="no"?>
<!DOCTYPE svg PUBLIC "-//W3C//DTD SVG 1.1//EN"
 "http://www.w3.org/Graphics/SVG/1.1/DTD/svg11.dtd">
<!-- Generated by graphviz version 2.30.1 (20130221.2233)
 -->
<!-- Title: xPortStartScheduler Pages: 1 -->
<svg width="704pt" height="142pt"
 viewBox="0.00 0.00 704.00 142.00" xmlns="http://www.w3.org/2000/svg" xmlns:xlink="http://www.w3.org/1999/xlink">
<g id="graph0" class="graph" transform="scale(1 1) rotate(0) translate(4 138)">
<title>xPortStartScheduler</title>
<polygon fill="white" stroke="white" points="-4,5 -4,-138 701,-138 701,5 -4,5"/>
<!-- Node1 -->
<g id="node1" class="node"><title>Node1</title>
<polygon fill="#bfbfbf" stroke="black" points="0,-95.5 0,-114.5 106,-114.5 106,-95.5 0,-95.5"/>
<text text-anchor="middle" x="53" y="-102.5" font-family="Helvetica,sans-Serif" font-size="10.00">xPortStartScheduler</text>
</g>
<!-- Node2 -->
<g id="node2" class="node"><title>Node2</title>
<g id="a_node2"><a xlink:href="_i_a_r_2_v850_e_s_2portmacro_8h.html#a716d176e9130fa97ac875a31e7453605" target="_top" xlink:title="portRESTORE_CONTEXT">
<polygon fill="white" stroke="black" points="142.5,-114.5 142.5,-133.5 277.5,-133.5 277.5,-114.5 142.5,-114.5"/>
<text text-anchor="middle" x="210" y="-121.5" font-family="Helvetica,sans-Serif" font-size="10.00">portRESTORE_CONTEXT</text>
</a>
</g>
</g>
<!-- Node1&#45;&gt;Node2 -->
<g id="edge1" class="edge"><title>Node1&#45;&gt;Node2</title>
<path fill="none" stroke="midnightblue" d="M106.044,-111.38C114.479,-112.414 123.366,-113.503 132.24,-114.591"/>
<polygon fill="midnightblue" stroke="midnightblue" points="131.878,-118.072 142.229,-115.815 132.73,-111.124 131.878,-118.072"/>
</g>
<!-- Node3 -->
<g id="node3" class="node"><title>Node3</title>
<g id="a_node3"><a xlink:href="_g_c_c_2_a_v_r32___u_c3_2port_8c.html#aeb91268bfbb6dc04ff839631ee5c72ba" target="_top" xlink:title="prvSetupTimerInterrupt">
<polygon fill="white" stroke="black" points="150.5,-76.5 150.5,-95.5 269.5,-95.5 269.5,-76.5 150.5,-76.5"/>
<text text-anchor="middle" x="210" y="-83.5" font-family="Helvetica,sans-Serif" font-size="10.00">prvSetupTimerInterrupt</text>
</a>
</g>
</g>
<!-- Node1&#45;&gt;Node3 -->
<g id="edge2" class="edge"><title>Node1&#45;&gt;Node3</title>
<path fill="none" stroke="midnightblue" d="M106.044,-98.6204C117.063,-97.2696 128.855,-95.8242 140.382,-94.4113"/>
<polygon fill="midnightblue" stroke="midnightblue" points="140.917,-97.872 150.417,-93.1812 140.065,-90.924 140.917,-97.872"/>
</g>
<!-- Node4 -->
<g id="node4" class="node"><title>Node4</title>
<g id="a_node4"><a xlink:href="_g_c_c_2_a_v_r32___u_c3_2port_8c.html#a151847961076db0b8fa510b3847b4196" target="_top" xlink:title="prvScheduleFirstTick">
<polygon fill="white" stroke="black" points="314,-95.5 314,-114.5 424,-114.5 424,-95.5 314,-95.5"/>
<text text-anchor="middle" x="369" y="-102.5" font-family="Helvetica,sans-Serif" font-size="10.00">prvScheduleFirstTick</text>
</a>
</g>
</g>
<!-- Node3&#45;&gt;Node4 -->
<g id="edge3" class="edge"><title>Node3&#45;&gt;Node4</title>
<path fill="none" stroke="midnightblue" d="M269.908,-93.129C280.966,-94.4672 292.579,-95.8726 303.789,-97.2293"/>
<polygon fill="midnightblue" stroke="midnightblue" points="303.596,-100.731 313.944,-98.4582 304.437,-93.782 303.596,-100.731"/>
</g>
<!-- Node5 -->
<g id="node5" class="node"><title>Node5</title>
<g id="a_node5"><a xlink:href="_i_a_r_2_a_v_r32___u_c3_2port_8c.html#a4d7be48967d0bbfac84a6d33223702a2" target="_top" xlink:title="vTick">
<polygon fill="white" stroke="black" points="349,-57.5 349,-76.5 389,-76.5 389,-57.5 349,-57.5"/>
<text text-anchor="middle" x="369" y="-64.5" font-family="Helvetica,sans-Serif" font-size="10.00">vTick</text>
</a>
</g>
</g>
<!-- Node3&#45;&gt;Node5 -->
<g id="edge4" class="edge"><title>Node3&#45;&gt;Node5</title>
<path fill="none" stroke="midnightblue" d="M269.908,-78.871C293.401,-76.028 319.394,-72.8822 338.718,-70.5436"/>
<polygon fill="midnightblue" stroke="midnightblue" points="339.202,-74.0107 348.709,-69.3345 338.361,-67.0614 339.202,-74.0107"/>
</g>
<!-- Node6 -->
<g id="node6" class="node"><title>Node6</title>
<g id="a_node6"><a xlink:href="_i_a_r_2_a_v_r32___u_c3_2port_8c.html#ae003e5aa4c4682b689129c010e7448d7" target="_top" xlink:title="prvScheduleNextTick">
<polygon fill="white" stroke="black" points="464.5,-95.5 464.5,-114.5 575.5,-114.5 575.5,-95.5 464.5,-95.5"/>
<text text-anchor="middle" x="520" y="-102.5" font-family="Helvetica,sans-Serif" font-size="10.00">prvScheduleNextTick</text>
</a>
</g>
</g>
<!-- Node5&#45;&gt;Node6 -->
<g id="edge5" class="edge"><title>Node5&#45;&gt;Node6</title>
<path fill="none" stroke="midnightblue" d="M389.174,-71.89C409.895,-77.1745 443.696,-85.795 471.615,-92.9152"/>
<polygon fill="midnightblue" stroke="midnightblue" points="471.045,-96.3817 481.599,-95.4616 472.774,-89.5988 471.045,-96.3817"/>
</g>
<!-- Node7 -->
<g id="node7" class="node"><title>Node7</title>
<g id="a_node7"><a xlink:href="o_watcom_216_bit_d_o_s_2_flsh186_2portmacro_8h.html#adff63afc268c80ed13a4db7eb576c989" target="_top" xlink:title="portENTER_CRITICAL">
<polygon fill="white" stroke="black" points="460.5,-57.5 460.5,-76.5 579.5,-76.5 579.5,-57.5 460.5,-57.5"/>
<text text-anchor="middle" x="520" y="-64.5" font-family="Helvetica,sans-Serif" font-size="10.00">portENTER_CRITICAL</text>
</a>
</g>
</g>
<!-- Node5&#45;&gt;Node7 -->
<g id="edge6" class="edge"><title>Node5&#45;&gt;Node7</title>
<path fill="none" stroke="midnightblue" d="M389.174,-67C404.783,-67 427.814,-67 450.162,-67"/>
<polygon fill="midnightblue" stroke="midnightblue" points="450.353,-70.5001 460.353,-67 450.353,-63.5001 450.353,-70.5001"/>
</g>
<!-- Node8 -->
<g id="node8" class="node"><title>Node8</title>
<g id="a_node8"><a xlink:href="task_8h.html#a978e25460ac35706f9ad30b46d9403d8" target="_top" xlink:title="xTaskIncrementTick">
<polygon fill="white" stroke="black" points="467,-19.5 467,-38.5 573,-38.5 573,-19.5 467,-19.5"/>
<text text-anchor="middle" x="520" y="-26.5" font-family="Helvetica,sans-Serif" font-size="10.00">xTaskIncrementTick</text>
</a>
</g>
</g>
<!-- Node5&#45;&gt;Node8 -->
<g id="edge7" class="edge"><title>Node5&#45;&gt;Node8</title>
<path fill="none" stroke="midnightblue" d="M389.174,-62.11C409.895,-56.8255 443.696,-48.205 471.615,-41.0848"/>
<polygon fill="midnightblue" stroke="midnightblue" points="472.774,-44.4012 481.599,-38.5384 471.045,-37.6183 472.774,-44.4012"/>
</g>
<!-- Node9 -->
<g id="node9" class="node"><title>Node9</title>
<g id="a_node9"><a xlink:href="list_8h.html#a2eb1558482076fff8cafc63419c2d34a" target="_top" xlink:title="uxListRemove">
<polygon fill="white" stroke="black" points="616,-38.5 616,-57.5 696,-57.5 696,-38.5 616,-38.5"/>
<text text-anchor="middle" x="656" y="-45.5" font-family="Helvetica,sans-Serif" font-size="10.00">uxListRemove</text>
</a>
</g>
</g>
<!-- Node8&#45;&gt;Node9 -->
<g id="edge8" class="edge"><title>Node8&#45;&gt;Node9</title>
<path fill="none" stroke="midnightblue" d="M573.192,-36.4003C583.884,-37.9164 595.106,-39.5075 605.693,-41.0087"/>
<polygon fill="midnightblue" stroke="midnightblue" points="605.218,-44.4763 615.611,-42.4149 606.201,-37.5457 605.218,-44.4763"/>
</g>
<!-- Node10 -->
<g id="node10" class="node"><title>Node10</title>
<g id="a_node10"><a xlink:href="_paradigm_2_tern___e_e_2small_2portmacro_8h.html#a14d32f8130d3c0b212cfc751730b5b49" target="_top" xlink:title="void">
<polygon fill="white" stroke="black" points="638.5,-0.5 638.5,-19.5 673.5,-19.5 673.5,-0.5 638.5,-0.5"/>
<text text-anchor="middle" x="656" y="-7.5" font-family="Helvetica,sans-Serif" font-size="10.00">void</text>
</a>
</g>
</g>
<!-- Node8&#45;&gt;Node10 -->
<g id="edge9" class="edge"><title>Node8&#45;&gt;Node10</title>
<path fill="none" stroke="midnightblue" d="M573.192,-21.5997C592.059,-18.9244 612.576,-16.0153 628.343,-13.7797"/>
<polygon fill="midnightblue" stroke="midnightblue" points="629.012,-17.2199 638.422,-12.3506 628.03,-10.2892 629.012,-17.2199"/>
</g>
</g>
</svg>
