<?xml version="1.0" encoding="UTF-8" standalone="no"?>
<!DOCTYPE svg PUBLIC "-//W3C//DTD SVG 1.1//EN"
 "http://www.w3.org/Graphics/SVG/1.1/DTD/svg11.dtd">
<!-- Generated by graphviz version 2.30.1 (20130221.2233)
 -->
<!-- Title: MPU_xQueueGenericSend Pages: 1 -->
<svg width="940pt" height="522pt"
 viewBox="0.00 0.00 940.00 522.00" xmlns="http://www.w3.org/2000/svg" xmlns:xlink="http://www.w3.org/1999/xlink">
<g id="graph0" class="graph" transform="scale(1 1) rotate(0) translate(4 518)">
<title>MPU_xQueueGenericSend</title>
<polygon fill="white" stroke="white" points="-4,5 -4,-518 937,-518 937,5 -4,5"/>
<!-- Node1 -->
<g id="node1" class="node"><title>Node1</title>
<polygon fill="#bfbfbf" stroke="black" points="0,-209.5 0,-228.5 138,-228.5 138,-209.5 0,-209.5"/>
<text text-anchor="middle" x="69" y="-216.5" font-family="Helvetica,sans-Serif" font-size="10.00">MPU_xQueueGenericSend</text>
</g>
<!-- Node2 -->
<g id="node2" class="node"><title>Node2</title>
<g id="a_node2"><a xlink:href="_g_c_c_2_a_r_m___c_m3___m_p_u_2port_8c.html#ad5691a9d6fd4c0b9f4e55426dd9a48ad" target="_top" xlink:title="prvRaisePrivilege">
<polygon fill="white" stroke="black" points="182,-228.5 182,-247.5 276,-247.5 276,-228.5 182,-228.5"/>
<text text-anchor="middle" x="229" y="-235.5" font-family="Helvetica,sans-Serif" font-size="10.00">prvRaisePrivilege</text>
</a>
</g>
</g>
<!-- Node1&#45;&gt;Node2 -->
<g id="edge1" class="edge"><title>Node1&#45;&gt;Node2</title>
<path fill="none" stroke="midnightblue" d="M138.382,-227.223C149.506,-228.561 160.915,-229.933 171.707,-231.231"/>
<polygon fill="midnightblue" stroke="midnightblue" points="171.489,-234.729 181.835,-232.449 172.325,-227.78 171.489,-234.729"/>
</g>
<!-- Node3 -->
<g id="node3" class="node"><title>Node3</title>
<g id="a_node3"><a xlink:href="queue_8h.html#a7ce86d1026e0c3055a523935bf53c0b3" target="_top" xlink:title="xQueueGenericSend">
<polygon fill="white" stroke="black" points="174,-190.5 174,-209.5 284,-209.5 284,-190.5 174,-190.5"/>
<text text-anchor="middle" x="229" y="-197.5" font-family="Helvetica,sans-Serif" font-size="10.00">xQueueGenericSend</text>
</a>
</g>
</g>
<!-- Node1&#45;&gt;Node3 -->
<g id="edge2" class="edge"><title>Node1&#45;&gt;Node3</title>
<path fill="none" stroke="midnightblue" d="M138.382,-210.777C146.802,-209.764 155.385,-208.732 163.741,-207.727"/>
<polygon fill="midnightblue" stroke="midnightblue" points="164.282,-211.188 173.793,-206.519 163.447,-204.238 164.282,-211.188"/>
</g>
<!-- Node4 -->
<g id="node4" class="node"><title>Node4</title>
<g id="a_node4"><a xlink:href="queue_8c.html#a77098159b7735e0c27e27aa7072376c6" target="_top" xlink:title="prvCopyDataToQueue">
<polygon fill="white" stroke="black" points="325.5,-456.5 325.5,-475.5 442.5,-475.5 442.5,-456.5 325.5,-456.5"/>
<text text-anchor="middle" x="384" y="-463.5" font-family="Helvetica,sans-Serif" font-size="10.00">prvCopyDataToQueue</text>
</a>
</g>
</g>
<!-- Node3&#45;&gt;Node4 -->
<g id="edge3" class="edge"><title>Node3&#45;&gt;Node4</title>
<path fill="none" stroke="midnightblue" d="M272.171,-209.557C276.651,-212.018 280.749,-215.111 284,-219 348.388,-296.027 256.605,-364.153 320,-442 323.072,-445.772 326.807,-448.952 330.909,-451.632"/>
<polygon fill="midnightblue" stroke="midnightblue" points="329.295,-454.739 339.748,-456.463 332.651,-448.596 329.295,-454.739"/>
</g>
<!-- Node7 -->
<g id="node7" class="node"><title>Node7</title>
<g id="a_node7"><a xlink:href="queue_8c.html#a70546f6b48a8b715eae3dd84e0546045" target="_top" xlink:title="prvIsQueueFull">
<polygon fill="white" stroke="black" points="342,-152.5 342,-171.5 426,-171.5 426,-152.5 342,-152.5"/>
<text text-anchor="middle" x="384" y="-159.5" font-family="Helvetica,sans-Serif" font-size="10.00">prvIsQueueFull</text>
</a>
</g>
</g>
<!-- Node3&#45;&gt;Node7 -->
<g id="edge6" class="edge"><title>Node3&#45;&gt;Node7</title>
<path fill="none" stroke="midnightblue" d="M268.608,-190.411C288.707,-185.419 313.475,-179.268 334.819,-173.967"/>
<polygon fill="midnightblue" stroke="midnightblue" points="335.808,-177.327 344.669,-171.52 334.12,-170.534 335.808,-177.327"/>
</g>
<!-- Node8 -->
<g id="node8" class="node"><title>Node8</title>
<g id="a_node8"><a xlink:href="queue_8c.html#a7297c84a7c770ed57567bad1d3e2faf6" target="_top" xlink:title="prvUnlockQueue">
<polygon fill="white" stroke="black" points="338.5,-266.5 338.5,-285.5 429.5,-285.5 429.5,-266.5 338.5,-266.5"/>
<text text-anchor="middle" x="384" y="-273.5" font-family="Helvetica,sans-Serif" font-size="10.00">prvUnlockQueue</text>
</a>
</g>
</g>
<!-- Node3&#45;&gt;Node8 -->
<g id="edge7" class="edge"><title>Node3&#45;&gt;Node8</title>
<path fill="none" stroke="midnightblue" d="M263.793,-209.527C270.713,-212.121 277.778,-215.269 284,-219 302.615,-230.162 301.53,-240.6 320,-252 326.505,-256.015 333.792,-259.543 341.037,-262.572"/>
<polygon fill="midnightblue" stroke="midnightblue" points="340.227,-266.013 350.816,-266.392 342.774,-259.493 340.227,-266.013"/>
</g>
<!-- Node6 -->
<g id="node6" class="node"><title>Node6</title>
<g id="a_node6"><a xlink:href="_paradigm_2_tern___e_e_2small_2portmacro_8h.html#a14d32f8130d3c0b212cfc751730b5b49" target="_top" xlink:title="void">
<polygon fill="white" stroke="black" points="732.5,-380.5 732.5,-399.5 767.5,-399.5 767.5,-380.5 732.5,-380.5"/>
<text text-anchor="middle" x="750" y="-387.5" font-family="Helvetica,sans-Serif" font-size="10.00">void</text>
</a>
</g>
</g>
<!-- Node3&#45;&gt;Node6 -->
<g id="edge14" class="edge"><title>Node3&#45;&gt;Node6</title>
<path fill="none" stroke="midnightblue" d="M271.253,-209.613C276.001,-212.064 280.416,-215.14 284,-219 325.671,-263.874 276.281,-309.119 320,-352 431.677,-461.536 647.337,-417.418 722.438,-397.633"/>
<polygon fill="midnightblue" stroke="midnightblue" points="723.735,-400.908 732.47,-394.911 721.902,-394.152 723.735,-400.908"/>
</g>
<!-- Node14 -->
<g id="node14" class="node"><title>Node14</title>
<g id="a_node14"><a xlink:href="task_8h.html#a56ae23bc0dece4522d666959902221ca" target="_top" xlink:title="vTaskPlaceOnEventList">
<polygon fill="white" stroke="black" points="495.5,-190.5 495.5,-209.5 618.5,-209.5 618.5,-190.5 495.5,-190.5"/>
<text text-anchor="middle" x="557" y="-197.5" font-family="Helvetica,sans-Serif" font-size="10.00">vTaskPlaceOnEventList</text>
</a>
</g>
</g>
<!-- Node3&#45;&gt;Node14 -->
<g id="edge15" class="edge"><title>Node3&#45;&gt;Node14</title>
<path fill="none" stroke="midnightblue" d="M284.198,-200C339.224,-200 424.693,-200 485.076,-200"/>
<polygon fill="midnightblue" stroke="midnightblue" points="485.293,-203.5 495.293,-200 485.293,-196.5 485.293,-203.5"/>
</g>
<!-- Node17 -->
<g id="node17" class="node"><title>Node17</title>
<g id="a_node17"><a xlink:href="task_8h.html#a67155ad4ea2482b5f4597a69f2152be0" target="_top" xlink:title="vTaskSetTimeOutState">
<polygon fill="white" stroke="black" points="324,-114.5 324,-133.5 444,-133.5 444,-114.5 324,-114.5"/>
<text text-anchor="middle" x="384" y="-121.5" font-family="Helvetica,sans-Serif" font-size="10.00">vTaskSetTimeOutState</text>
</a>
</g>
</g>
<!-- Node3&#45;&gt;Node17 -->
<g id="edge21" class="edge"><title>Node3&#45;&gt;Node17</title>
<path fill="none" stroke="midnightblue" d="M242.778,-190.32C259.672,-177.903 290.731,-156.379 320,-143 325,-140.714 330.347,-138.617 335.733,-136.717"/>
<polygon fill="midnightblue" stroke="midnightblue" points="337.012,-139.98 345.404,-133.514 334.811,-133.335 337.012,-139.98"/>
</g>
<!-- Node18 -->
<g id="node18" class="node"><title>Node18</title>
<g id="a_node18"><a xlink:href="task_8h.html#a366b302eba79d10b5ee2a3756f0fcc43" target="_top" xlink:title="vTaskSuspendAll">
<polygon fill="white" stroke="black" points="337,-76.5 337,-95.5 431,-95.5 431,-76.5 337,-76.5"/>
<text text-anchor="middle" x="384" y="-83.5" font-family="Helvetica,sans-Serif" font-size="10.00">vTaskSuspendAll</text>
</a>
</g>
</g>
<!-- Node3&#45;&gt;Node18 -->
<g id="edge22" class="edge"><title>Node3&#45;&gt;Node18</title>
<path fill="none" stroke="midnightblue" d="M236.472,-190.35C249.811,-171.204 282.293,-128.257 320,-105 323.403,-102.901 327.053,-101.021 330.819,-99.3388"/>
<polygon fill="midnightblue" stroke="midnightblue" points="332.344,-102.499 340.345,-95.5543 329.759,-95.9939 332.344,-102.499"/>
</g>
<!-- Node19 -->
<g id="node19" class="node"><title>Node19</title>
<g id="a_node19"><a xlink:href="task_8h.html#a3b018a85d339e536a6c05748dd666a3a" target="_top" xlink:title="xTaskCheckForTimeOut">
<polygon fill="white" stroke="black" points="321.5,-38.5 321.5,-57.5 446.5,-57.5 446.5,-38.5 321.5,-38.5"/>
<text text-anchor="middle" x="384" y="-45.5" font-family="Helvetica,sans-Serif" font-size="10.00">xTaskCheckForTimeOut</text>
</a>
</g>
</g>
<!-- Node3&#45;&gt;Node19 -->
<g id="edge23" class="edge"><title>Node3&#45;&gt;Node19</title>
<path fill="none" stroke="midnightblue" d="M233.812,-190.301C243.946,-165.783 273.966,-100.875 320,-67 322.622,-65.0703 325.442,-63.3347 328.382,-61.774"/>
<polygon fill="midnightblue" stroke="midnightblue" points="329.857,-64.9481 337.487,-57.5972 326.938,-58.5856 329.857,-64.9481"/>
</g>
<!-- Node21 -->
<g id="node21" class="node"><title>Node21</title>
<g id="a_node21"><a xlink:href="task_8h.html#a0241000e08a261372186d34825a35979" target="_top" xlink:title="xTaskGetSchedulerState">
<polygon fill="white" stroke="black" points="320,-0.5 320,-19.5 448,-19.5 448,-0.5 320,-0.5"/>
<text text-anchor="middle" x="384" y="-7.5" font-family="Helvetica,sans-Serif" font-size="10.00">xTaskGetSchedulerState</text>
</a>
</g>
</g>
<!-- Node3&#45;&gt;Node21 -->
<g id="edge25" class="edge"><title>Node3&#45;&gt;Node21</title>
<path fill="none" stroke="midnightblue" d="M232.303,-190.181C239.66,-161 265.389,-74.0375 320,-29 322.044,-27.3146 324.234,-25.7787 326.528,-24.3789"/>
<polygon fill="midnightblue" stroke="midnightblue" points="328.493,-27.3044 335.795,-19.6271 325.299,-21.0755 328.493,-27.3044"/>
</g>
<!-- Node10 -->
<g id="node10" class="node"><title>Node10</title>
<g id="a_node10"><a xlink:href="task_8h.html#a14513b7dd36055f73fba3c5ebbdc1b06" target="_top" xlink:title="xTaskRemoveFromEventList">
<polygon fill="white" stroke="black" points="484.5,-228.5 484.5,-247.5 629.5,-247.5 629.5,-228.5 484.5,-228.5"/>
<text text-anchor="middle" x="557" y="-235.5" font-family="Helvetica,sans-Serif" font-size="10.00">xTaskRemoveFromEventList</text>
</a>
</g>
</g>
<!-- Node3&#45;&gt;Node10 -->
<g id="edge26" class="edge"><title>Node3&#45;&gt;Node10</title>
<path fill="none" stroke="midnightblue" d="M284.189,-208.905C295.977,-210.709 308.394,-212.508 320,-214 371.172,-220.577 428.776,-226.465 474.263,-230.762"/>
<polygon fill="midnightblue" stroke="midnightblue" points="474.085,-234.261 484.368,-231.71 474.738,-227.291 474.085,-234.261"/>
</g>
<!-- Node22 -->
<g id="node22" class="node"><title>Node22</title>
<g id="a_node22"><a xlink:href="task_8h.html#a003f8ae6d649225abd030cc76e1c7d0e" target="_top" xlink:title="xTaskResumeAll">
<polygon fill="white" stroke="black" points="338,-323.5 338,-342.5 430,-342.5 430,-323.5 338,-323.5"/>
<text text-anchor="middle" x="384" y="-330.5" font-family="Helvetica,sans-Serif" font-size="10.00">xTaskResumeAll</text>
</a>
</g>
</g>
<!-- Node3&#45;&gt;Node22 -->
<g id="edge27" class="edge"><title>Node3&#45;&gt;Node22</title>
<path fill="none" stroke="midnightblue" d="M269.255,-209.592C274.604,-212.056 279.718,-215.142 284,-219 311.767,-244.018 294.931,-267.279 320,-295 328.701,-304.622 340.414,-312.59 351.38,-318.702"/>
<polygon fill="midnightblue" stroke="midnightblue" points="349.851,-321.852 360.333,-323.396 353.101,-315.653 349.851,-321.852"/>
</g>
<!-- Node5 -->
<g id="node5" class="node"><title>Node5</title>
<g id="a_node5"><a xlink:href="task_8h.html#a02fe2e1419fd6c35f75a1357c5e5ce22" target="_top" xlink:title="xTaskPriorityDisinherit">
<polygon fill="white" stroke="black" points="499,-494.5 499,-513.5 615,-513.5 615,-494.5 499,-494.5"/>
<text text-anchor="middle" x="557" y="-501.5" font-family="Helvetica,sans-Serif" font-size="10.00">xTaskPriorityDisinherit</text>
</a>
</g>
</g>
<!-- Node4&#45;&gt;Node5 -->
<g id="edge4" class="edge"><title>Node4&#45;&gt;Node5</title>
<path fill="none" stroke="midnightblue" d="M428.151,-475.589C450.919,-480.649 479.048,-486.9 503.119,-492.249"/>
<polygon fill="midnightblue" stroke="midnightblue" points="502.639,-495.727 513.16,-494.48 504.157,-488.894 502.639,-495.727"/>
</g>
<!-- Node4&#45;&gt;Node6 -->
<g id="edge5" class="edge"><title>Node4&#45;&gt;Node6</title>
<path fill="none" stroke="midnightblue" d="M442.822,-465.426C493.041,-463.73 567.342,-458.321 630,-442 663.558,-433.259 699.748,-416.251 723.294,-404.064"/>
<polygon fill="midnightblue" stroke="midnightblue" points="725.051,-407.095 732.266,-399.336 721.788,-400.902 725.051,-407.095"/>
</g>
<!-- Node9 -->
<g id="node9" class="node"><title>Node9</title>
<g id="a_node9"><a xlink:href="task_8h.html#a998c69e37431a3a32c637b31ff60089a" target="_top" xlink:title="vTaskMissedYield">
<polygon fill="white" stroke="black" points="508.5,-266.5 508.5,-285.5 605.5,-285.5 605.5,-266.5 508.5,-266.5"/>
<text text-anchor="middle" x="557" y="-273.5" font-family="Helvetica,sans-Serif" font-size="10.00">vTaskMissedYield</text>
</a>
</g>
</g>
<!-- Node8&#45;&gt;Node9 -->
<g id="edge8" class="edge"><title>Node8&#45;&gt;Node9</title>
<path fill="none" stroke="midnightblue" d="M429.928,-276C450.866,-276 476.03,-276 498.351,-276"/>
<polygon fill="midnightblue" stroke="midnightblue" points="498.381,-279.5 508.381,-276 498.381,-272.5 498.381,-279.5"/>
</g>
<!-- Node8&#45;&gt;Node10 -->
<g id="edge9" class="edge"><title>Node8&#45;&gt;Node10</title>
<path fill="none" stroke="midnightblue" d="M428.151,-266.411C450.919,-261.351 479.048,-255.1 503.119,-249.751"/>
<polygon fill="midnightblue" stroke="midnightblue" points="504.157,-253.106 513.16,-247.52 502.639,-246.273 504.157,-253.106"/>
</g>
<!-- Node11 -->
<g id="node11" class="node"><title>Node11</title>
<g id="a_node11"><a xlink:href="tasks_8c.html#ad1b2e4995f863a99cf980836efe330d7" target="_top" xlink:title="prvResetNextTaskUnblockTime">
<polygon fill="white" stroke="black" points="671.5,-266.5 671.5,-285.5 828.5,-285.5 828.5,-266.5 671.5,-266.5"/>
<text text-anchor="middle" x="750" y="-273.5" font-family="Helvetica,sans-Serif" font-size="10.00">prvResetNextTaskUnblockTime</text>
</a>
</g>
</g>
<!-- Node10&#45;&gt;Node11 -->
<g id="edge10" class="edge"><title>Node10&#45;&gt;Node11</title>
<path fill="none" stroke="midnightblue" d="M606.197,-247.589C631.97,-252.716 663.891,-259.067 691.012,-264.463"/>
<polygon fill="midnightblue" stroke="midnightblue" points="690.658,-267.961 701.149,-266.48 692.024,-261.096 690.658,-267.961"/>
</g>
<!-- Node12 -->
<g id="node12" class="node"><title>Node12</title>
<g id="a_node12"><a xlink:href="list_8h.html#a2eb1558482076fff8cafc63419c2d34a" target="_top" xlink:title="uxListRemove">
<polygon fill="white" stroke="black" points="710,-304.5 710,-323.5 790,-323.5 790,-304.5 710,-304.5"/>
<text text-anchor="middle" x="750" y="-311.5" font-family="Helvetica,sans-Serif" font-size="10.00">uxListRemove</text>
</a>
</g>
</g>
<!-- Node10&#45;&gt;Node12 -->
<g id="edge11" class="edge"><title>Node10&#45;&gt;Node12</title>
<path fill="none" stroke="midnightblue" d="M608.634,-247.527C616.078,-250.004 623.439,-253.11 630,-257 650.011,-268.865 645.796,-283.466 666,-295 676.227,-300.838 688.127,-304.883 699.667,-307.685"/>
<polygon fill="midnightblue" stroke="midnightblue" points="699.153,-311.154 709.666,-309.841 700.628,-304.312 699.153,-311.154"/>
</g>
<!-- Node13 -->
<g id="node13" class="node"><title>Node13</title>
<g id="a_node13"><a xlink:href="list_8h.html#a71a6a6099b3cbd8f90539aabe5c9e572" target="_top" xlink:title="vListInsertEnd">
<polygon fill="white" stroke="black" points="710,-228.5 710,-247.5 790,-247.5 790,-228.5 710,-228.5"/>
<text text-anchor="middle" x="750" y="-235.5" font-family="Helvetica,sans-Serif" font-size="10.00">vListInsertEnd</text>
</a>
</g>
</g>
<!-- Node10&#45;&gt;Node13 -->
<g id="edge12" class="edge"><title>Node10&#45;&gt;Node13</title>
<path fill="none" stroke="midnightblue" d="M629.665,-238C653.044,-238 678.458,-238 699.802,-238"/>
<polygon fill="midnightblue" stroke="midnightblue" points="699.926,-241.5 709.926,-238 699.926,-234.5 699.926,-241.5"/>
</g>
<!-- Node10&#45;&gt;Node6 -->
<g id="edge13" class="edge"><title>Node10&#45;&gt;Node6</title>
<path fill="none" stroke="midnightblue" d="M614.265,-247.55C619.942,-250.02 625.326,-253.117 630,-257 658.749,-280.884 641.759,-304.551 666,-333 681.879,-351.636 705.228,-366.942 723.119,-376.984"/>
<polygon fill="midnightblue" stroke="midnightblue" points="721.954,-380.332 732.416,-382.008 725.283,-374.174 721.954,-380.332"/>
</g>
<!-- Node15 -->
<g id="node15" class="node"><title>Node15</title>
<g id="a_node15"><a xlink:href="tasks_8c.html#a7859bfaa75a7c5524dd45b89036f1233" target="_top" xlink:title="prvAddCurrentTaskToDelayedList">
<polygon fill="white" stroke="black" points="666.5,-152.5 666.5,-171.5 833.5,-171.5 833.5,-152.5 666.5,-152.5"/>
<text text-anchor="middle" x="750" y="-159.5" font-family="Helvetica,sans-Serif" font-size="10.00">prvAddCurrentTaskToDelayedList</text>
</a>
</g>
</g>
<!-- Node14&#45;&gt;Node15 -->
<g id="edge16" class="edge"><title>Node14&#45;&gt;Node15</title>
<path fill="none" stroke="midnightblue" d="M606.197,-190.411C631.97,-185.284 663.891,-178.933 691.012,-173.537"/>
<polygon fill="midnightblue" stroke="midnightblue" points="692.024,-176.904 701.149,-171.52 690.658,-170.039 692.024,-176.904"/>
</g>
<!-- Node14&#45;&gt;Node12 -->
<g id="edge18" class="edge"><title>Node14&#45;&gt;Node12</title>
<path fill="none" stroke="midnightblue" d="M614.265,-209.55C619.942,-212.02 625.326,-215.117 630,-219 658.749,-242.884 636.861,-271.594 666,-295 675.634,-302.739 687.826,-307.449 699.879,-310.284"/>
<polygon fill="midnightblue" stroke="midnightblue" points="699.425,-313.762 709.911,-312.25 700.771,-306.892 699.425,-313.762"/>
</g>
<!-- Node16 -->
<g id="node16" class="node"><title>Node16</title>
<g id="a_node16"><a xlink:href="list_8h.html#aa129290da5cbda47dffb7bf877b2f02a" target="_top" xlink:title="vListInsert">
<polygon fill="white" stroke="black" points="870,-171.5 870,-190.5 932,-190.5 932,-171.5 870,-171.5"/>
<text text-anchor="middle" x="901" y="-178.5" font-family="Helvetica,sans-Serif" font-size="10.00">vListInsert</text>
</a>
</g>
</g>
<!-- Node14&#45;&gt;Node16 -->
<g id="edge19" class="edge"><title>Node14&#45;&gt;Node16</title>
<path fill="none" stroke="midnightblue" d="M618.749,-196.625C688.282,-192.762 800.213,-186.544 859.74,-183.237"/>
<polygon fill="midnightblue" stroke="midnightblue" points="860.084,-186.723 869.875,-182.674 859.696,-179.734 860.084,-186.723"/>
</g>
<!-- Node14&#45;&gt;Node13 -->
<g id="edge20" class="edge"><title>Node14&#45;&gt;Node13</title>
<path fill="none" stroke="midnightblue" d="M606.197,-209.589C634.866,-215.293 671.143,-222.51 699.959,-228.243"/>
<polygon fill="midnightblue" stroke="midnightblue" points="699.324,-231.685 709.815,-230.204 700.69,-224.82 699.324,-231.685"/>
</g>
<!-- Node15&#45;&gt;Node16 -->
<g id="edge17" class="edge"><title>Node15&#45;&gt;Node16</title>
<path fill="none" stroke="midnightblue" d="M825.937,-171.556C837.568,-173.039 849.185,-174.52 859.654,-175.855"/>
<polygon fill="midnightblue" stroke="midnightblue" points="859.335,-179.343 869.698,-177.136 860.221,-172.399 859.335,-179.343"/>
</g>
<!-- Node20 -->
<g id="node20" class="node"><title>Node20</title>
<g id="a_node20"><a xlink:href="tasks_8c.html#a5dfb2b9e41fb002318d9c55452a91c83" target="_top" xlink:title="vTaskSetTimeOutState">
<polygon fill="white" stroke="black" points="497,-38.5 497,-57.5 617,-57.5 617,-38.5 497,-38.5"/>
<text text-anchor="middle" x="557" y="-45.5" font-family="Helvetica,sans-Serif" font-size="10.00">vTaskSetTimeOutState</text>
</a>
</g>
</g>
<!-- Node19&#45;&gt;Node20 -->
<g id="edge24" class="edge"><title>Node19&#45;&gt;Node20</title>
<path fill="none" stroke="midnightblue" d="M446.735,-48C459.771,-48 473.607,-48 486.895,-48"/>
<polygon fill="midnightblue" stroke="midnightblue" points="486.927,-51.5001 496.927,-48 486.927,-44.5001 486.927,-51.5001"/>
</g>
<!-- Node22&#45;&gt;Node12 -->
<g id="edge28" class="edge"><title>Node22&#45;&gt;Node12</title>
<path fill="none" stroke="midnightblue" d="M430.365,-330.632C499.027,-327.048 628.832,-320.272 699.732,-316.572"/>
<polygon fill="midnightblue" stroke="midnightblue" points="699.947,-320.065 709.751,-316.049 699.582,-313.075 699.947,-320.065"/>
</g>
<!-- Node22&#45;&gt;Node6 -->
<g id="edge29" class="edge"><title>Node22&#45;&gt;Node6</title>
<path fill="none" stroke="midnightblue" d="M404.934,-342.664C424.55,-351.686 455.607,-364.679 484,-371 569.418,-390.015 673.775,-391.281 722.086,-390.662"/>
<polygon fill="midnightblue" stroke="midnightblue" points="722.38,-394.158 732.32,-390.491 722.262,-387.159 722.38,-394.158"/>
</g>
<!-- Node23 -->
<g id="node23" class="node"><title>Node23</title>
<g id="a_node23"><a xlink:href="tasks_8c.html#a54f31e9aef0eb7b87e48c7d68ecc84c1" target="_top" xlink:title="xTaskIncrementTick">
<polygon fill="white" stroke="black" points="504,-342.5 504,-361.5 610,-361.5 610,-342.5 504,-342.5"/>
<text text-anchor="middle" x="557" y="-349.5" font-family="Helvetica,sans-Serif" font-size="10.00">xTaskIncrementTick</text>
</a>
</g>
</g>
<!-- Node22&#45;&gt;Node23 -->
<g id="edge30" class="edge"><title>Node22&#45;&gt;Node23</title>
<path fill="none" stroke="midnightblue" d="M430.376,-338.042C449.763,-340.196 472.709,-342.745 493.652,-345.072"/>
<polygon fill="midnightblue" stroke="midnightblue" points="493.422,-348.568 503.747,-346.194 494.195,-341.611 493.422,-348.568"/>
</g>
<!-- Node23&#45;&gt;Node6 -->
<g id="edge31" class="edge"><title>Node23&#45;&gt;Node6</title>
<path fill="none" stroke="midnightblue" d="M606.197,-361.589C643.008,-368.913 692.363,-378.732 722.361,-384.7"/>
<polygon fill="midnightblue" stroke="midnightblue" points="721.987,-388.194 732.478,-386.713 723.353,-381.329 721.987,-388.194"/>
</g>
<!-- Node23&#45;&gt;Node12 -->
<g id="edge32" class="edge"><title>Node23&#45;&gt;Node12</title>
<path fill="none" stroke="midnightblue" d="M606.197,-342.411C634.866,-336.707 671.143,-329.49 699.959,-323.757"/>
<polygon fill="midnightblue" stroke="midnightblue" points="700.69,-327.18 709.815,-321.796 699.324,-320.315 700.69,-327.18"/>
</g>
</g>
</svg>
