<?xml version="1.0" encoding="UTF-8" standalone="no"?>
<!DOCTYPE svg PUBLIC "-//W3C//DTD SVG 1.1//EN"
 "http://www.w3.org/Graphics/SVG/1.1/DTD/svg11.dtd">
<!-- Generated by graphviz version 2.30.1 (20130221.2233)
 -->
<!-- Title: xPortStartScheduler Pages: 1 -->
<svg width="454pt" height="142pt"
 viewBox="0.00 0.00 454.00 142.00" xmlns="http://www.w3.org/2000/svg" xmlns:xlink="http://www.w3.org/1999/xlink">
<g id="graph0" class="graph" transform="scale(1 1) rotate(0) translate(4 138)">
<title>xPortStartScheduler</title>
<polygon fill="white" stroke="white" points="-4,5 -4,-138 451,-138 451,5 -4,5"/>
<!-- Node1 -->
<g id="node1" class="node"><title>Node1</title>
<polygon fill="#bfbfbf" stroke="black" points="0,-38.5 0,-57.5 106,-57.5 106,-38.5 0,-38.5"/>
<text text-anchor="middle" x="53" y="-45.5" font-family="Helvetica,sans-Serif" font-size="10.00">xPortStartScheduler</text>
</g>
<!-- Node2 -->
<g id="node2" class="node"><title>Node2</title>
<g id="a_node2"><a xlink:href="_g_c_c_2_i_a32__flat_2port_8c.html#aeb91268bfbb6dc04ff839631ee5c72ba" target="_top" xlink:title="prvSetupTimerInterrupt">
<polygon fill="white" stroke="black" points="142.5,-76.5 142.5,-95.5 261.5,-95.5 261.5,-76.5 142.5,-76.5"/>
<text text-anchor="middle" x="202" y="-83.5" font-family="Helvetica,sans-Serif" font-size="10.00">prvSetupTimerInterrupt</text>
</a>
</g>
</g>
<!-- Node1&#45;&gt;Node2 -->
<g id="edge1" class="edge"><title>Node1&#45;&gt;Node2</title>
<path fill="none" stroke="midnightblue" d="M91.0943,-57.589C110.318,-62.5583 133.986,-68.6767 154.429,-73.9613"/>
<polygon fill="midnightblue" stroke="midnightblue" points="153.615,-77.3657 164.172,-76.4799 155.367,-70.5885 153.615,-77.3657"/>
</g>
<!-- Node6 -->
<g id="node6" class="node"><title>Node6</title>
<g id="a_node6"><a xlink:href="_g_c_c_2_i_a32__flat_2port_8c.html#ab80bbff02ac9871dcfb168f77b763beb" target="_top" xlink:title="vPortSetupIDT">
<polygon fill="white" stroke="black" points="161,-38.5 161,-57.5 243,-57.5 243,-38.5 161,-38.5"/>
<text text-anchor="middle" x="202" y="-45.5" font-family="Helvetica,sans-Serif" font-size="10.00">vPortSetupIDT</text>
</a>
</g>
</g>
<!-- Node1&#45;&gt;Node6 -->
<g id="edge5" class="edge"><title>Node1&#45;&gt;Node6</title>
<path fill="none" stroke="midnightblue" d="M106.241,-48C120.717,-48 136.397,-48 150.757,-48"/>
<polygon fill="midnightblue" stroke="midnightblue" points="150.944,-51.5001 160.944,-48 150.944,-44.5001 150.944,-51.5001"/>
</g>
<!-- Node8 -->
<g id="node8" class="node"><title>Node8</title>
<g id="a_node8"><a xlink:href="_c_c_s_2_a_r_m___c_m4_f_2port_8c.html#a5cfc38319f17c8e804020ec247b6325d" target="_top" xlink:title="vPortStartFirstTask">
<polygon fill="white" stroke="black" points="151,-0.5 151,-19.5 253,-19.5 253,-0.5 151,-0.5"/>
<text text-anchor="middle" x="202" y="-7.5" font-family="Helvetica,sans-Serif" font-size="10.00">vPortStartFirstTask</text>
</a>
</g>
</g>
<!-- Node1&#45;&gt;Node8 -->
<g id="edge8" class="edge"><title>Node1&#45;&gt;Node8</title>
<path fill="none" stroke="midnightblue" d="M91.0943,-38.411C110.318,-33.4417 133.986,-27.3233 154.429,-22.0387"/>
<polygon fill="midnightblue" stroke="midnightblue" points="155.367,-25.4115 164.172,-19.5201 153.615,-18.6343 155.367,-25.4115"/>
</g>
<!-- Node3 -->
<g id="node3" class="node"><title>Node3</title>
<g id="a_node3"><a xlink:href="_g_c_c_2_i_a32__flat_2port_8c.html#ad1f3f6f4095543774160a3d9676d2852" target="_top" xlink:title="prvSetInterruptGate">
<polygon fill="white" stroke="black" points="320,-38.5 320,-57.5 424,-57.5 424,-38.5 320,-38.5"/>
<text text-anchor="middle" x="372" y="-45.5" font-family="Helvetica,sans-Serif" font-size="10.00">prvSetInterruptGate</text>
</a>
</g>
</g>
<!-- Node2&#45;&gt;Node3 -->
<g id="edge2" class="edge"><title>Node2&#45;&gt;Node3</title>
<path fill="none" stroke="midnightblue" d="M245.393,-76.411C267.763,-71.3513 295.398,-65.1004 319.047,-59.7512"/>
<polygon fill="midnightblue" stroke="midnightblue" points="319.93,-63.1401 328.911,-57.5201 318.386,-56.3125 319.93,-63.1401"/>
</g>
<!-- Node4 -->
<g id="node4" class="node"><title>Node4</title>
<g id="a_node4"><a xlink:href="_g_c_c_2_i_a32__flat_2port_8c.html#a55872590166dadefe3cb12afa147e3c5" target="_top" xlink:title="vPortTimerHandler">
<polygon fill="white" stroke="black" points="322,-114.5 322,-133.5 422,-133.5 422,-114.5 322,-114.5"/>
<text text-anchor="middle" x="372" y="-121.5" font-family="Helvetica,sans-Serif" font-size="10.00">vPortTimerHandler</text>
</a>
</g>
</g>
<!-- Node2&#45;&gt;Node4 -->
<g id="edge3" class="edge"><title>Node2&#45;&gt;Node4</title>
<path fill="none" stroke="midnightblue" d="M245.393,-95.589C267.763,-100.649 295.398,-106.9 319.047,-112.249"/>
<polygon fill="midnightblue" stroke="midnightblue" points="318.386,-115.687 328.911,-114.48 319.93,-108.86 318.386,-115.687"/>
</g>
<!-- Node5 -->
<g id="node5" class="node"><title>Node5</title>
<g id="a_node5"><a xlink:href="_g_c_c_2_i_a32__flat_2port_8c.html#a220b88566b1282758d92b6ae16f19fe9" target="_top" xlink:title="vPortYieldCall">
<polygon fill="white" stroke="black" points="332.5,-76.5 332.5,-95.5 411.5,-95.5 411.5,-76.5 332.5,-76.5"/>
<text text-anchor="middle" x="372" y="-83.5" font-family="Helvetica,sans-Serif" font-size="10.00">vPortYieldCall</text>
</a>
</g>
</g>
<!-- Node2&#45;&gt;Node5 -->
<g id="edge4" class="edge"><title>Node2&#45;&gt;Node5</title>
<path fill="none" stroke="midnightblue" d="M261.758,-86C281.478,-86 303.244,-86 322.123,-86"/>
<polygon fill="midnightblue" stroke="midnightblue" points="322.283,-89.5001 332.283,-86 322.283,-82.5001 322.283,-89.5001"/>
</g>
<!-- Node6&#45;&gt;Node3 -->
<g id="edge6" class="edge"><title>Node6&#45;&gt;Node3</title>
<path fill="none" stroke="midnightblue" d="M243.24,-48C263.191,-48 287.711,-48 309.917,-48"/>
<polygon fill="midnightblue" stroke="midnightblue" points="309.933,-51.5001 319.933,-48 309.932,-44.5001 309.933,-51.5001"/>
</g>
<!-- Node7 -->
<g id="node7" class="node"><title>Node7</title>
<g id="a_node7"><a xlink:href="_g_c_c_2_i_a32__flat_2port_8c.html#a9427e8b1f123b9b6cd5f6531fbe342bf" target="_top" xlink:title="vPortCentralInterruptWrapper">
<polygon fill="white" stroke="black" points="298,-0.5 298,-19.5 446,-19.5 446,-0.5 298,-0.5"/>
<text text-anchor="middle" x="372" y="-7.5" font-family="Helvetica,sans-Serif" font-size="10.00">vPortCentralInterruptWrapper</text>
</a>
</g>
</g>
<!-- Node6&#45;&gt;Node7 -->
<g id="edge7" class="edge"><title>Node6&#45;&gt;Node7</title>
<path fill="none" stroke="midnightblue" d="M243.24,-38.8981C265.935,-33.7648 294.542,-27.2941 318.93,-21.7777"/>
<polygon fill="midnightblue" stroke="midnightblue" points="319.762,-25.178 328.744,-19.558 318.218,-18.3504 319.762,-25.178"/>
</g>
</g>
</svg>
