<?xml version="1.0" encoding="UTF-8" standalone="no"?>
<!DOCTYPE svg PUBLIC "-//W3C//DTD SVG 1.1//EN"
 "http://www.w3.org/Graphics/SVG/1.1/DTD/svg11.dtd">
<!-- Generated by graphviz version 2.30.1 (20130221.2233)
 -->
<!-- Title: vPortExceptionsInstallHandlers Pages: 1 -->
<svg width="702pt" height="104pt"
 viewBox="0.00 0.00 702.00 104.00" xmlns="http://www.w3.org/2000/svg" xmlns:xlink="http://www.w3.org/1999/xlink">
<g id="graph0" class="graph" transform="scale(1 1) rotate(0) translate(4 100)">
<title>vPortExceptionsInstallHandlers</title>
<polygon fill="white" stroke="white" points="-4,5 -4,-100 699,-100 699,5 -4,5"/>
<!-- Node1 -->
<g id="node1" class="node"><title>Node1</title>
<polygon fill="#bfbfbf" stroke="black" points="0.5,-38.5 0.5,-57.5 155.5,-57.5 155.5,-38.5 0.5,-38.5"/>
<text text-anchor="middle" x="78" y="-45.5" font-family="Helvetica,sans-Serif" font-size="10.00">vPortExceptionsInstallHandlers</text>
</g>
<!-- Node2 -->
<g id="node2" class="node"><title>Node2</title>
<g id="a_node2"><a xlink:href="_g_c_c_2_micro_blaze_v8_2port_8c.html#a43eecfae6ac83875cba12b6f8a7df8b7" target="_top" xlink:title="prvInitialiseInterruptController">
<polygon fill="white" stroke="black" points="192.5,-38.5 192.5,-57.5 339.5,-57.5 339.5,-38.5 192.5,-38.5"/>
<text text-anchor="middle" x="266" y="-45.5" font-family="Helvetica,sans-Serif" font-size="10.00">prvInitialiseInterruptController</text>
</a>
</g>
</g>
<!-- Node1&#45;&gt;Node2 -->
<g id="edge1" class="edge"><title>Node1&#45;&gt;Node2</title>
<path fill="none" stroke="midnightblue" d="M165.728,-48C174.63,-48 183.609,-48 192.336,-48"/>
<polygon fill="midnightblue" stroke="midnightblue" points="165.727,-44.5001 155.727,-48 165.727,-51.5001 165.727,-44.5001"/>
</g>
<!-- Node3 -->
<g id="node3" class="node"><title>Node3</title>
<g id="a_node3"><a xlink:href="_g_c_c_2_micro_blaze_v8_2port_8c.html#ae77c3d4a7d030a38089a6a55812130eb" target="_top" xlink:title="prvEnsureInterruptController\lIsInitialised">
<polygon fill="white" stroke="black" points="376.5,-33 376.5,-63 519.5,-63 519.5,-33 376.5,-33"/>
<text text-anchor="start" x="384.5" y="-51" font-family="Helvetica,sans-Serif" font-size="10.00">prvEnsureInterruptController</text>
<text text-anchor="middle" x="448" y="-40" font-family="Helvetica,sans-Serif" font-size="10.00">IsInitialised</text>
</a>
</g>
</g>
<!-- Node2&#45;&gt;Node3 -->
<g id="edge2" class="edge"><title>Node2&#45;&gt;Node3</title>
<path fill="none" stroke="midnightblue" d="M349.697,-48C358.61,-48 367.619,-48 376.372,-48"/>
<polygon fill="midnightblue" stroke="midnightblue" points="349.694,-44.5001 339.694,-48 349.694,-51.5001 349.694,-44.5001"/>
</g>
<!-- Node4 -->
<g id="node4" class="node"><title>Node4</title>
<g id="a_node4"><a xlink:href="_g_c_c_2_micro_blaze_v8_2portmacro_8h.html#a46aef84bd9c309576be51201c6f09741" target="_top" xlink:title="vPortDisableInterrupt">
<polygon fill="white" stroke="black" points="570,-76.5 570,-95.5 680,-95.5 680,-76.5 570,-76.5"/>
<text text-anchor="middle" x="625" y="-83.5" font-family="Helvetica,sans-Serif" font-size="10.00">vPortDisableInterrupt</text>
</a>
</g>
</g>
<!-- Node3&#45;&gt;Node4 -->
<g id="edge3" class="edge"><title>Node3&#45;&gt;Node4</title>
<path fill="none" stroke="midnightblue" d="M528.06,-65.1673C545.995,-69.0618 564.408,-73.06 580.246,-76.4991"/>
<polygon fill="midnightblue" stroke="midnightblue" points="528.68,-61.7204 518.165,-63.0186 527.194,-68.561 528.68,-61.7204"/>
</g>
<!-- Node5 -->
<g id="node5" class="node"><title>Node5</title>
<g id="a_node5"><a xlink:href="_g_c_c_2_micro_blaze_v8_2portmacro_8h.html#a0471656744e861f8982a1f5397a27838" target="_top" xlink:title="vPortEnableInterrupt">
<polygon fill="white" stroke="black" points="571,-38.5 571,-57.5 679,-57.5 679,-38.5 571,-38.5"/>
<text text-anchor="middle" x="625" y="-45.5" font-family="Helvetica,sans-Serif" font-size="10.00">vPortEnableInterrupt</text>
</a>
</g>
</g>
<!-- Node3&#45;&gt;Node5 -->
<g id="edge4" class="edge"><title>Node3&#45;&gt;Node5</title>
<path fill="none" stroke="midnightblue" d="M529.761,-48C543.696,-48 557.861,-48 570.83,-48"/>
<polygon fill="midnightblue" stroke="midnightblue" points="529.675,-44.5001 519.675,-48 529.675,-51.5001 529.675,-44.5001"/>
</g>
<!-- Node6 -->
<g id="node6" class="node"><title>Node6</title>
<g id="a_node6"><a xlink:href="_g_c_c_2_p_p_c440___xilinx_2portmacro_8h.html#a7e326747e8b11763013926ee724d5523" target="_top" xlink:title="xPortInstallInterruptHandler">
<polygon fill="white" stroke="black" points="556,-0.5 556,-19.5 694,-19.5 694,-0.5 556,-0.5"/>
<text text-anchor="middle" x="625" y="-7.5" font-family="Helvetica,sans-Serif" font-size="10.00">xPortInstallInterruptHandler</text>
</a>
</g>
</g>
<!-- Node3&#45;&gt;Node6 -->
<g id="edge5" class="edge"><title>Node3&#45;&gt;Node6</title>
<path fill="none" stroke="midnightblue" d="M528.06,-30.8327C545.995,-26.9382 564.408,-22.94 580.246,-19.5009"/>
<polygon fill="midnightblue" stroke="midnightblue" points="527.194,-27.439 518.165,-32.9814 528.68,-34.2796 527.194,-27.439"/>
</g>
</g>
</svg>
