<?xml version="1.0" encoding="UTF-8" standalone="no"?>
<!DOCTYPE svg PUBLIC "-//W3C//DTD SVG 1.1//EN"
 "http://www.w3.org/Graphics/SVG/1.1/DTD/svg11.dtd">
<!-- Generated by graphviz version 2.30.1 (20130221.2233)
 -->
<!-- Title: prvGetMPURegionSizeSetting Pages: 1 -->
<svg width="504pt" height="66pt"
 viewBox="0.00 0.00 504.00 66.00" xmlns="http://www.w3.org/2000/svg" xmlns:xlink="http://www.w3.org/1999/xlink">
<g id="graph0" class="graph" transform="scale(1 1) rotate(0) translate(4 62)">
<title>prvGetMPURegionSizeSetting</title>
<polygon fill="white" stroke="white" points="-4,5 -4,-62 501,-62 501,5 -4,5"/>
<!-- Node1 -->
<g id="node1" class="node"><title>Node1</title>
<polygon fill="#bfbfbf" stroke="black" points="0.5,-19.5 0.5,-38.5 151.5,-38.5 151.5,-19.5 0.5,-19.5"/>
<text text-anchor="middle" x="76" y="-26.5" font-family="Helvetica,sans-Serif" font-size="10.00">prvGetMPURegionSizeSetting</text>
</g>
<!-- Node2 -->
<g id="node2" class="node"><title>Node2</title>
<g id="a_node2"><a xlink:href="_g_c_c_2_a_r_m___c_m3___m_p_u_2port_8c.html#ac8f1b1a01e872c9158247e0bf5d5e472" target="_top" xlink:title="prvSetupMPU">
<polygon fill="white" stroke="black" points="220.5,-38.5 220.5,-57.5 299.5,-57.5 299.5,-38.5 220.5,-38.5"/>
<text text-anchor="middle" x="260" y="-45.5" font-family="Helvetica,sans-Serif" font-size="10.00">prvSetupMPU</text>
</a>
</g>
</g>
<!-- Node1&#45;&gt;Node2 -->
<g id="edge1" class="edge"><title>Node1&#45;&gt;Node2</title>
<path fill="none" stroke="midnightblue" d="M161.563,-37.828C182.065,-39.9684 203.006,-42.1545 220.194,-43.9488"/>
<polygon fill="midnightblue" stroke="midnightblue" points="161.861,-34.3402 151.551,-36.7828 161.134,-41.3023 161.861,-34.3402"/>
</g>
<!-- Node4 -->
<g id="node4" class="node"><title>Node4</title>
<g id="a_node4"><a xlink:href="_g_c_c_2_a_r_m___c_m3___m_p_u_2port_8c.html#a761732f8e4da23f369a8d3cdc9d5dd9d" target="_top" xlink:title="vPortStoreTaskMPUSettings">
<polygon fill="white" stroke="black" points="188,-0.5 188,-19.5 332,-19.5 332,-0.5 188,-0.5"/>
<text text-anchor="middle" x="260" y="-7.5" font-family="Helvetica,sans-Serif" font-size="10.00">vPortStoreTaskMPUSettings</text>
</a>
</g>
</g>
<!-- Node1&#45;&gt;Node4 -->
<g id="edge3" class="edge"><title>Node1&#45;&gt;Node4</title>
<path fill="none" stroke="midnightblue" d="M161.731,-20.1545C170.448,-19.2444 179.243,-18.3263 187.793,-17.4337"/>
<polygon fill="midnightblue" stroke="midnightblue" points="161.134,-16.6977 151.551,-21.2172 161.861,-23.6598 161.134,-16.6977"/>
</g>
<!-- Node3 -->
<g id="node3" class="node"><title>Node3</title>
<g id="a_node3"><a xlink:href="_g_c_c_2_a_r_m___c_m3___m_p_u_2port_8c.html#ade5a8c6666e7413a0355cc252029c5c6" target="_top" xlink:title="xPortStartScheduler">
<polygon fill="white" stroke="black" points="379,-38.5 379,-57.5 485,-57.5 485,-38.5 379,-38.5"/>
<text text-anchor="middle" x="432" y="-45.5" font-family="Helvetica,sans-Serif" font-size="10.00">xPortStartScheduler</text>
</a>
</g>
</g>
<!-- Node2&#45;&gt;Node3 -->
<g id="edge2" class="edge"><title>Node2&#45;&gt;Node3</title>
<path fill="none" stroke="midnightblue" d="M309.823,-48C331.388,-48 356.773,-48 378.721,-48"/>
<polygon fill="midnightblue" stroke="midnightblue" points="309.576,-44.5001 299.576,-48 309.576,-51.5001 309.576,-44.5001"/>
</g>
<!-- Node5 -->
<g id="node5" class="node"><title>Node5</title>
<g id="a_node5"><a xlink:href="tasks_8c.html#adba13007509a1513186e01d2989cf116" target="_top" xlink:title="prvInitialiseTCBVariables">
<polygon fill="white" stroke="black" points="368,-0.5 368,-19.5 496,-19.5 496,-0.5 368,-0.5"/>
<text text-anchor="middle" x="432" y="-7.5" font-family="Helvetica,sans-Serif" font-size="10.00">prvInitialiseTCBVariables</text>
</a>
</g>
</g>
<!-- Node4&#45;&gt;Node5 -->
<g id="edge4" class="edge"><title>Node4&#45;&gt;Node5</title>
<path fill="none" stroke="midnightblue" d="M342.157,-10C350.753,-10 359.402,-10 367.751,-10"/>
<polygon fill="midnightblue" stroke="midnightblue" points="342.11,-6.5001 332.11,-10 342.11,-13.5001 342.11,-6.5001"/>
</g>
</g>
</svg>
