<?xml version="1.0" encoding="UTF-8" standalone="no"?>
<!DOCTYPE svg PUBLIC "-//W3C//DTD SVG 1.1//EN"
 "http://www.w3.org/Graphics/SVG/1.1/DTD/svg11.dtd">
<!-- Generated by graphviz version 2.30.1 (20130221.2233)
 -->
<!-- Title: AT91F_PDC_SetNextRx Pages: 1 -->
<svg width="496pt" height="256pt"
 viewBox="0.00 0.00 496.00 256.00" xmlns="http://www.w3.org/2000/svg" xmlns:xlink="http://www.w3.org/1999/xlink">
<g id="graph0" class="graph" transform="scale(1 1) rotate(0) translate(4 252)">
<title>AT91F_PDC_SetNextRx</title>
<polygon fill="white" stroke="white" points="-4,5 -4,-252 493,-252 493,5 -4,5"/>
<!-- Node1 -->
<g id="node1" class="node"><title>Node1</title>
<polygon fill="#bfbfbf" stroke="black" points="0.5,-123.5 0.5,-142.5 127.5,-142.5 127.5,-123.5 0.5,-123.5"/>
<text text-anchor="middle" x="64" y="-130.5" font-family="Helvetica,sans-Serif" font-size="10.00">AT91F_PDC_SetNextRx</text>
</g>
<!-- Node2 -->
<g id="node2" class="node"><title>Node2</title>
<g id="a_node2"><a xlink:href="_g_c_c_2_a_r_m7___a_t91_s_a_m7_s_2lib___a_t91_s_a_m7_x256_8h.html#ae7a00663d9b586d0060d83e4c3e1921f" target="_top" xlink:title="AT91F_PDC_Close">
<polygon fill="white" stroke="black" points="184,-190.5 184,-209.5 288,-209.5 288,-190.5 184,-190.5"/>
<text text-anchor="middle" x="236" y="-197.5" font-family="Helvetica,sans-Serif" font-size="10.00">AT91F_PDC_Close</text>
</a>
</g>
</g>
<!-- Node1&#45;&gt;Node2 -->
<g id="edge1" class="edge"><title>Node1&#45;&gt;Node2</title>
<path fill="none" stroke="midnightblue" d="M99.0492,-146.419C132.094,-159.443 181.422,-178.884 210.688,-190.418"/>
<polygon fill="midnightblue" stroke="midnightblue" points="99.9437,-143.01 89.3569,-142.599 97.377,-149.522 99.9437,-143.01"/>
</g>
<!-- Node5 -->
<g id="node5" class="node"><title>Node5</title>
<g id="a_node5"><a xlink:href="_g_c_c_2_a_r_m7___a_t91_s_a_m7_s_2lib___a_t91_s_a_m7_x256_8h.html#a943bb6125d66d7956df049c6989f00f1" target="_top" xlink:title="AT91F_PDC_Open">
<polygon fill="white" stroke="black" points="184.5,-123.5 184.5,-142.5 287.5,-142.5 287.5,-123.5 184.5,-123.5"/>
<text text-anchor="middle" x="236" y="-130.5" font-family="Helvetica,sans-Serif" font-size="10.00">AT91F_PDC_Open</text>
</a>
</g>
</g>
<!-- Node1&#45;&gt;Node5 -->
<g id="edge4" class="edge"><title>Node1&#45;&gt;Node5</title>
<path fill="none" stroke="midnightblue" d="M137.988,-133C153.62,-133 169.804,-133 184.369,-133"/>
<polygon fill="midnightblue" stroke="midnightblue" points="137.819,-129.5 127.819,-133 137.819,-136.5 137.819,-129.5"/>
</g>
<!-- Node8 -->
<g id="node8" class="node"><title>Node8</title>
<g id="a_node8"><a xlink:href="_g_c_c_2_a_r_m7___a_t91_s_a_m7_s_2lib___a_t91_s_a_m7_x256_8h.html#aafc2ac73bfe8e6584b59dfa99dcc734d" target="_top" xlink:title="AT91F_PDC_ReceiveFrame">
<polygon fill="white" stroke="black" points="164,-66.5 164,-85.5 308,-85.5 308,-66.5 164,-66.5"/>
<text text-anchor="middle" x="236" y="-73.5" font-family="Helvetica,sans-Serif" font-size="10.00">AT91F_PDC_ReceiveFrame</text>
</a>
</g>
</g>
<!-- Node1&#45;&gt;Node8 -->
<g id="edge7" class="edge"><title>Node1&#45;&gt;Node8</title>
<path fill="none" stroke="midnightblue" d="M103.151,-120.208C134.461,-109.71 178.103,-95.0772 206.453,-85.5716"/>
<polygon fill="midnightblue" stroke="midnightblue" points="101.823,-116.962 93.4542,-123.459 104.048,-123.599 101.823,-116.962"/>
</g>
<!-- Node3 -->
<g id="node3" class="node"><title>Node3</title>
<g id="a_node3"><a xlink:href="_g_c_c_2_a_r_m7___a_t91_s_a_m7_s_2lib___a_t91_s_a_m7_x256_8h.html#a1d538178f15852104ef39cbb837504c3" target="_top" xlink:title="AT91F_SPI_Close">
<polygon fill="white" stroke="black" points="366.5,-228.5 366.5,-247.5 465.5,-247.5 465.5,-228.5 366.5,-228.5"/>
<text text-anchor="middle" x="416" y="-235.5" font-family="Helvetica,sans-Serif" font-size="10.00">AT91F_SPI_Close</text>
</a>
</g>
</g>
<!-- Node2&#45;&gt;Node3 -->
<g id="edge2" class="edge"><title>Node2&#45;&gt;Node3</title>
<path fill="none" stroke="midnightblue" d="M291.716,-211.681C316.959,-217.07 346.545,-223.386 370.406,-228.48"/>
<polygon fill="midnightblue" stroke="midnightblue" points="292.427,-208.254 281.917,-209.589 290.966,-215.1 292.427,-208.254"/>
</g>
<!-- Node4 -->
<g id="node4" class="node"><title>Node4</title>
<g id="a_node4"><a xlink:href="_g_c_c_2_a_r_m7___a_t91_s_a_m7_s_2lib___a_t91_s_a_m7_x256_8h.html#a7b4bbc35e32ebaa01d042c344ff4ded0" target="_top" xlink:title="AT91F_US_Close">
<polygon fill="white" stroke="black" points="367.5,-190.5 367.5,-209.5 464.5,-209.5 464.5,-190.5 367.5,-190.5"/>
<text text-anchor="middle" x="416" y="-197.5" font-family="Helvetica,sans-Serif" font-size="10.00">AT91F_US_Close</text>
</a>
</g>
</g>
<!-- Node2&#45;&gt;Node4 -->
<g id="edge3" class="edge"><title>Node2&#45;&gt;Node4</title>
<path fill="none" stroke="midnightblue" d="M298.19,-200C320.812,-200 346.099,-200 367.344,-200"/>
<polygon fill="midnightblue" stroke="midnightblue" points="298.008,-196.5 288.008,-200 298.008,-203.5 298.008,-196.5"/>
</g>
<!-- Node6 -->
<g id="node6" class="node"><title>Node6</title>
<g id="a_node6"><a xlink:href="_g_c_c_2_a_r_m7___a_t91_s_a_m7_s_2lib___a_t91_s_a_m7_x256_8h.html#aa9745e47a0642596e61432ffbc890080" target="_top" xlink:title="AT91F_SSC_Configure">
<polygon fill="white" stroke="black" points="355,-152.5 355,-171.5 477,-171.5 477,-152.5 355,-152.5"/>
<text text-anchor="middle" x="416" y="-159.5" font-family="Helvetica,sans-Serif" font-size="10.00">AT91F_SSC_Configure</text>
</a>
</g>
</g>
<!-- Node5&#45;&gt;Node6 -->
<g id="edge5" class="edge"><title>Node5&#45;&gt;Node6</title>
<path fill="none" stroke="midnightblue" d="M297.584,-142.87C316.619,-145.972 337.592,-149.389 356.481,-152.466"/>
<polygon fill="midnightblue" stroke="midnightblue" points="297.964,-139.386 287.532,-141.233 296.839,-146.295 297.964,-139.386"/>
</g>
<!-- Node7 -->
<g id="node7" class="node"><title>Node7</title>
<g id="a_node7"><a xlink:href="_g_c_c_2_a_r_m7___a_t91_s_a_m7_s_2lib___a_t91_s_a_m7_x256_8h.html#acbbed25fcf0256823175db5f1a8f1f39" target="_top" xlink:title="AT91F_US_Configure">
<polygon fill="white" stroke="black" points="358.5,-114.5 358.5,-133.5 473.5,-133.5 473.5,-114.5 358.5,-114.5"/>
<text text-anchor="middle" x="416" y="-121.5" font-family="Helvetica,sans-Serif" font-size="10.00">AT91F_US_Configure</text>
</a>
</g>
</g>
<!-- Node5&#45;&gt;Node7 -->
<g id="edge6" class="edge"><title>Node5&#45;&gt;Node7</title>
<path fill="none" stroke="midnightblue" d="M297.608,-129.936C317.281,-128.941 339.023,-127.842 358.393,-126.862"/>
<polygon fill="midnightblue" stroke="midnightblue" points="297.342,-126.444 287.532,-130.445 297.696,-133.436 297.342,-126.444"/>
</g>
<!-- Node9 -->
<g id="node9" class="node"><title>Node9</title>
<g id="a_node9"><a xlink:href="_g_c_c_2_a_r_m7___a_t91_s_a_m7_s_2lib___a_t91_s_a_m7_x256_8h.html#a3fd88379fedca045387ceabc79da98f6" target="_top" xlink:title="AT91F_SPI_ReceiveFrame">
<polygon fill="white" stroke="black" points="346.5,-76.5 346.5,-95.5 485.5,-95.5 485.5,-76.5 346.5,-76.5"/>
<text text-anchor="middle" x="416" y="-83.5" font-family="Helvetica,sans-Serif" font-size="10.00">AT91F_SPI_ReceiveFrame</text>
</a>
</g>
</g>
<!-- Node8&#45;&gt;Node9 -->
<g id="edge8" class="edge"><title>Node8&#45;&gt;Node9</title>
<path fill="none" stroke="midnightblue" d="M318.235,-80.5637C327.619,-81.0909 337.118,-81.6246 346.313,-82.1412"/>
<polygon fill="midnightblue" stroke="midnightblue" points="318.298,-77.0619 308.118,-79.9954 317.906,-84.0509 318.298,-77.0619"/>
</g>
<!-- Node10 -->
<g id="node10" class="node"><title>Node10</title>
<g id="a_node10"><a xlink:href="_g_c_c_2_a_r_m7___a_t91_s_a_m7_s_2lib___a_t91_s_a_m7_x256_8h.html#ae2e9978885885118d9106fb029b40b8a" target="_top" xlink:title="AT91F_SSC_ReceiveFrame">
<polygon fill="white" stroke="black" points="344.5,-38.5 344.5,-57.5 487.5,-57.5 487.5,-38.5 344.5,-38.5"/>
<text text-anchor="middle" x="416" y="-45.5" font-family="Helvetica,sans-Serif" font-size="10.00">AT91F_SSC_ReceiveFrame</text>
</a>
</g>
</g>
<!-- Node8&#45;&gt;Node10 -->
<g id="edge9" class="edge"><title>Node8&#45;&gt;Node10</title>
<path fill="none" stroke="midnightblue" d="M307.792,-64.8641C323.259,-62.4311 339.493,-59.8776 354.514,-57.5146"/>
<polygon fill="midnightblue" stroke="midnightblue" points="307.094,-61.4308 297.76,-66.4423 308.182,-68.3458 307.094,-61.4308"/>
</g>
<!-- Node11 -->
<g id="node11" class="node"><title>Node11</title>
<g id="a_node11"><a xlink:href="_g_c_c_2_a_r_m7___a_t91_s_a_m7_s_2lib___a_t91_s_a_m7_x256_8h.html#a413427ce949ec0321bf321a4c1b91cd1" target="_top" xlink:title="AT91F_US_ReceiveFrame">
<polygon fill="white" stroke="black" points="347.5,-0.5 347.5,-19.5 484.5,-19.5 484.5,-0.5 347.5,-0.5"/>
<text text-anchor="middle" x="416" y="-7.5" font-family="Helvetica,sans-Serif" font-size="10.00">AT91F_US_ReceiveFrame</text>
</a>
</g>
</g>
<!-- Node8&#45;&gt;Node11 -->
<g id="edge10" class="edge"><title>Node8&#45;&gt;Node11</title>
<path fill="none" stroke="midnightblue" d="M265.487,-62.065C286.775,-52.0033 316.774,-38.5598 344,-29 353.872,-25.5335 364.705,-22.3384 374.87,-19.5964"/>
<polygon fill="midnightblue" stroke="midnightblue" points="263.876,-58.9559 256.361,-66.4239 266.893,-65.2725 263.876,-58.9559"/>
</g>
</g>
</svg>
