<?xml version="1.0" encoding="UTF-8" standalone="no"?>
<!DOCTYPE svg PUBLIC "-//W3C//DTD SVG 1.1//EN"
 "http://www.w3.org/Graphics/SVG/1.1/DTD/svg11.dtd">
<!-- Generated by graphviz version 2.30.1 (20130221.2233)
 -->
<!-- Title: xPortStartScheduler Pages: 1 -->
<svg width="382pt" height="104pt"
 viewBox="0.00 0.00 382.00 104.00" xmlns="http://www.w3.org/2000/svg" xmlns:xlink="http://www.w3.org/1999/xlink">
<g id="graph0" class="graph" transform="scale(1 1) rotate(0) translate(4 100)">
<title>xPortStartScheduler</title>
<polygon fill="white" stroke="white" points="-4,5 -4,-100 379,-100 379,5 -4,5"/>
<!-- Node1 -->
<g id="node1" class="node"><title>Node1</title>
<polygon fill="#bfbfbf" stroke="black" points="0,-38.5 0,-57.5 106,-57.5 106,-38.5 0,-38.5"/>
<text text-anchor="middle" x="53" y="-45.5" font-family="Helvetica,sans-Serif" font-size="10.00">xPortStartScheduler</text>
</g>
<!-- Node2 -->
<g id="node2" class="node"><title>Node2</title>
<g id="a_node2"><a xlink:href="_g_c_c_2_p_p_c440___xilinx_2port_8c.html#aeb91268bfbb6dc04ff839631ee5c72ba" target="_top" xlink:title="prvSetupTimerInterrupt">
<polygon fill="white" stroke="black" points="142.5,-76.5 142.5,-95.5 261.5,-95.5 261.5,-76.5 142.5,-76.5"/>
<text text-anchor="middle" x="202" y="-83.5" font-family="Helvetica,sans-Serif" font-size="10.00">prvSetupTimerInterrupt</text>
</a>
</g>
</g>
<!-- Node1&#45;&gt;Node2 -->
<g id="edge1" class="edge"><title>Node1&#45;&gt;Node2</title>
<path fill="none" stroke="midnightblue" d="M91.0943,-57.589C110.318,-62.5583 133.986,-68.6767 154.429,-73.9613"/>
<polygon fill="midnightblue" stroke="midnightblue" points="153.615,-77.3657 164.172,-76.4799 155.367,-70.5885 153.615,-77.3657"/>
</g>
<!-- Node4 -->
<g id="node4" class="node"><title>Node4</title>
<g id="a_node4"><a xlink:href="_c_c_s_2_a_r_m___c_m4_f_2port_8c.html#a5cfc38319f17c8e804020ec247b6325d" target="_top" xlink:title="vPortStartFirstTask">
<polygon fill="white" stroke="black" points="151,-38.5 151,-57.5 253,-57.5 253,-38.5 151,-38.5"/>
<text text-anchor="middle" x="202" y="-45.5" font-family="Helvetica,sans-Serif" font-size="10.00">vPortStartFirstTask</text>
</a>
</g>
</g>
<!-- Node1&#45;&gt;Node4 -->
<g id="edge3" class="edge"><title>Node1&#45;&gt;Node4</title>
<path fill="none" stroke="midnightblue" d="M106.241,-48C117.361,-48 129.191,-48 140.588,-48"/>
<polygon fill="midnightblue" stroke="midnightblue" points="140.899,-51.5001 150.899,-48 140.899,-44.5001 140.899,-51.5001"/>
</g>
<!-- Node5 -->
<g id="node5" class="node"><title>Node5</title>
<g id="a_node5"><a xlink:href="_code_warrior_2_h_c_s12_2port_8c.html#aad7fc9aa6bc470c8d84a4078eb29bb96" target="_top" xlink:title="vPortYield">
<polygon fill="white" stroke="black" points="171,-0.5 171,-19.5 233,-19.5 233,-0.5 171,-0.5"/>
<text text-anchor="middle" x="202" y="-7.5" font-family="Helvetica,sans-Serif" font-size="10.00">vPortYield</text>
</a>
</g>
</g>
<!-- Node1&#45;&gt;Node5 -->
<g id="edge4" class="edge"><title>Node1&#45;&gt;Node5</title>
<path fill="none" stroke="midnightblue" d="M91.0943,-38.411C112.388,-32.9066 139.135,-25.9924 160.911,-20.3631"/>
<polygon fill="midnightblue" stroke="midnightblue" points="162.036,-23.6874 170.842,-17.7959 160.284,-16.9101 162.036,-23.6874"/>
</g>
<!-- Node3 -->
<g id="node3" class="node"><title>Node3</title>
<g id="a_node3"><a xlink:href="_code_warrior_2_cold_fire___v1_2port_8c.html#aad6152882d58328e92220bb7bc58dabb" target="_top" xlink:title="vPortTickISR">
<polygon fill="white" stroke="black" points="298.5,-76.5 298.5,-95.5 373.5,-95.5 373.5,-76.5 298.5,-76.5"/>
<text text-anchor="middle" x="336" y="-83.5" font-family="Helvetica,sans-Serif" font-size="10.00">vPortTickISR</text>
</a>
</g>
</g>
<!-- Node2&#45;&gt;Node3 -->
<g id="edge2" class="edge"><title>Node2&#45;&gt;Node3</title>
<path fill="none" stroke="midnightblue" d="M261.666,-86C270.575,-86 279.665,-86 288.275,-86"/>
<polygon fill="midnightblue" stroke="midnightblue" points="288.495,-89.5001 298.495,-86 288.495,-82.5001 288.495,-89.5001"/>
</g>
</g>
</svg>
