<?xml version="1.0" encoding="UTF-8" standalone="no"?>
<!DOCTYPE svg PUBLIC "-//W3C//DTD SVG 1.1//EN"
 "http://www.w3.org/Graphics/SVG/1.1/DTD/svg11.dtd">
<!-- Generated by graphviz version 2.30.1 (20130221.2233)
 -->
<!-- Title: MPU_xQueueGenericReceive Pages: 1 -->
<svg width="980pt" height="461pt"
 viewBox="0.00 0.00 980.00 461.36" xmlns="http://www.w3.org/2000/svg" xmlns:xlink="http://www.w3.org/1999/xlink">
<g id="graph0" class="graph" transform="scale(1 1) rotate(0) translate(4 457.357)">
<title>MPU_xQueueGenericReceive</title>
<polygon fill="white" stroke="white" points="-4,5 -4,-457.357 977,-457.357 977,5 -4,5"/>
<!-- Node1 -->
<g id="node1" class="node"><title>Node1</title>
<polygon fill="#bfbfbf" stroke="black" points="0,-217.48 0,-236.48 150,-236.48 150,-217.48 0,-217.48"/>
<text text-anchor="middle" x="75" y="-224.48" font-family="Helvetica,sans-Serif" font-size="10.00">MPU_xQueueGenericReceive</text>
</g>
<!-- Node2 -->
<g id="node2" class="node"><title>Node2</title>
<g id="a_node2"><a xlink:href="_g_c_c_2_a_r_m___c_m3___m_p_u_2port_8c.html#ad5691a9d6fd4c0b9f4e55426dd9a48ad" target="_top" xlink:title="prvRaisePrivilege">
<polygon fill="white" stroke="black" points="201,-236.48 201,-255.48 295,-255.48 295,-236.48 201,-236.48"/>
<text text-anchor="middle" x="248" y="-243.48" font-family="Helvetica,sans-Serif" font-size="10.00">prvRaisePrivilege</text>
</a>
</g>
</g>
<!-- Node1&#45;&gt;Node2 -->
<g id="edge1" class="edge"><title>Node1&#45;&gt;Node2</title>
<path fill="none" stroke="midnightblue" d="M150.009,-235.203C163.541,-236.706 177.465,-238.254 190.39,-239.69"/>
<polygon fill="midnightblue" stroke="midnightblue" points="190.19,-243.189 200.515,-240.815 190.963,-236.232 190.19,-243.189"/>
</g>
<!-- Node3 -->
<g id="node3" class="node"><title>Node3</title>
<g id="a_node3"><a xlink:href="queue_8h.html#a6a0c9135edf180d270ac0ffb17ec21b4" target="_top" xlink:title="xQueueGenericReceive">
<polygon fill="white" stroke="black" points="186.5,-198.48 186.5,-217.48 309.5,-217.48 309.5,-198.48 186.5,-198.48"/>
<text text-anchor="middle" x="248" y="-205.48" font-family="Helvetica,sans-Serif" font-size="10.00">xQueueGenericReceive</text>
</a>
</g>
</g>
<!-- Node1&#45;&gt;Node3 -->
<g id="edge2" class="edge"><title>Node1&#45;&gt;Node3</title>
<path fill="none" stroke="midnightblue" d="M150.009,-218.757C158.702,-217.791 167.557,-216.807 176.205,-215.846"/>
<polygon fill="midnightblue" stroke="midnightblue" points="176.687,-219.314 186.24,-214.731 175.914,-212.357 176.687,-219.314"/>
</g>
<!-- Node4 -->
<g id="node4" class="node"><title>Node4</title>
<g id="a_node4"><a xlink:href="queue_8c.html#ad9a2e17b2b13d4878f7af1361437320e" target="_top" xlink:title="prvCopyDataFromQueue">
<polygon fill="white" stroke="black" points="533,-17.4797 533,-36.4797 661,-36.4797 661,-17.4797 533,-17.4797"/>
<text text-anchor="middle" x="597" y="-24.4797" font-family="Helvetica,sans-Serif" font-size="10.00">prvCopyDataFromQueue</text>
</a>
</g>
</g>
<!-- Node3&#45;&gt;Node4 -->
<g id="edge3" class="edge"><title>Node3&#45;&gt;Node4</title>
<path fill="none" stroke="midnightblue" d="M251.037,-198.33C257.995,-168.07 283.923,-74.8171 346,-36.9797 406.979,0.188068 492.742,-6.25851 546.308,-15.6298"/>
<polygon fill="midnightblue" stroke="midnightblue" points="545.778,-19.0911 556.248,-17.4672 547.051,-12.2077 545.778,-19.0911"/>
</g>
<!-- Node6 -->
<g id="node6" class="node"><title>Node6</title>
<g id="a_node6"><a xlink:href="queue_8c.html#a8f21d4b7a21be0d109953120c93f6741" target="_top" xlink:title="prvIsQueueEmpty">
<polygon fill="white" stroke="black" points="368.5,-400.48 368.5,-419.48 465.5,-419.48 465.5,-400.48 368.5,-400.48"/>
<text text-anchor="middle" x="417" y="-407.48" font-family="Helvetica,sans-Serif" font-size="10.00">prvIsQueueEmpty</text>
</a>
</g>
</g>
<!-- Node3&#45;&gt;Node6 -->
<g id="edge5" class="edge"><title>Node3&#45;&gt;Node6</title>
<path fill="none" stroke="midnightblue" d="M297.539,-217.613C302.189,-220.067 306.475,-223.139 310,-226.98 360.454,-281.963 294.54,-336.937 346,-390.98 349.704,-394.87 354.117,-397.991 358.9,-400.492"/>
<polygon fill="midnightblue" stroke="midnightblue" points="357.894,-403.868 368.466,-404.574 360.642,-397.429 357.894,-403.868"/>
</g>
<!-- Node7 -->
<g id="node7" class="node"><title>Node7</title>
<g id="a_node7"><a xlink:href="queue_8c.html#a7297c84a7c770ed57567bad1d3e2faf6" target="_top" xlink:title="prvUnlockQueue">
<polygon fill="white" stroke="black" points="371.5,-362.48 371.5,-381.48 462.5,-381.48 462.5,-362.48 371.5,-362.48"/>
<text text-anchor="middle" x="417" y="-369.48" font-family="Helvetica,sans-Serif" font-size="10.00">prvUnlockQueue</text>
</a>
</g>
</g>
<!-- Node3&#45;&gt;Node7 -->
<g id="edge6" class="edge"><title>Node3&#45;&gt;Node7</title>
<path fill="none" stroke="midnightblue" d="M296.694,-217.539C301.617,-220.002 306.198,-223.095 310,-226.98 350.438,-268.298 305.076,-311.142 346,-351.98 350.521,-356.491 355.984,-360.001 361.842,-362.728"/>
<polygon fill="midnightblue" stroke="midnightblue" points="360.704,-366.041 371.293,-366.402 363.241,-359.517 360.704,-366.041"/>
</g>
<!-- Node13 -->
<g id="node13" class="node"><title>Node13</title>
<g id="a_node13"><a xlink:href="task_8h.html#aa1a0ae86baba1a7edda940a6ecd4cfb4" target="_top" xlink:title="pvTaskIncrementMutexHeld\lCount">
<polygon fill="white" stroke="black" points="346.5,-312.98 346.5,-342.98 487.5,-342.98 487.5,-312.98 346.5,-312.98"/>
<text text-anchor="start" x="354.5" y="-330.98" font-family="Helvetica,sans-Serif" font-size="10.00">pvTaskIncrementMutexHeld</text>
<text text-anchor="middle" x="417" y="-319.98" font-family="Helvetica,sans-Serif" font-size="10.00">Count</text>
</a>
</g>
</g>
<!-- Node3&#45;&gt;Node13 -->
<g id="edge13" class="edge"><title>Node3&#45;&gt;Node13</title>
<path fill="none" stroke="midnightblue" d="M294.458,-217.578C300.067,-220.032 305.426,-223.113 310,-226.98 337.02,-249.819 320.19,-273.78 346,-297.98 350.039,-301.767 354.63,-305.117 359.483,-308.073"/>
<polygon fill="midnightblue" stroke="midnightblue" points="357.989,-311.246 368.442,-312.977 361.35,-305.105 357.989,-311.246"/>
</g>
<!-- Node5 -->
<g id="node5" class="node"><title>Node5</title>
<g id="a_node5"><a xlink:href="_paradigm_2_tern___e_e_2small_2portmacro_8h.html#a14d32f8130d3c0b212cfc751730b5b49" target="_top" xlink:title="void">
<polygon fill="white" stroke="black" points="772.5,-74.4797 772.5,-93.4797 807.5,-93.4797 807.5,-74.4797 772.5,-74.4797"/>
<text text-anchor="middle" x="790" y="-81.4797" font-family="Helvetica,sans-Serif" font-size="10.00">void</text>
</a>
</g>
</g>
<!-- Node3&#45;&gt;Node5 -->
<g id="edge14" class="edge"><title>Node3&#45;&gt;Node5</title>
<path fill="none" stroke="midnightblue" d="M250.076,-198.429C254.458,-164.613 274.301,-50.1837 346,-4.97972 360.465,4.14019 647.91,-1.32938 670,-7.97972 709.579,-19.8952 748.646,-49.0855 770.705,-67.6249"/>
<polygon fill="midnightblue" stroke="midnightblue" points="768.689,-70.508 778.552,-74.3794 773.256,-65.2029 768.689,-70.508"/>
</g>
<!-- Node14 -->
<g id="node14" class="node"><title>Node14</title>
<g id="a_node14"><a xlink:href="task_8h.html#a56ae23bc0dece4522d666959902221ca" target="_top" xlink:title="vTaskPlaceOnEventList">
<polygon fill="white" stroke="black" points="535.5,-378.48 535.5,-397.48 658.5,-397.48 658.5,-378.48 535.5,-378.48"/>
<text text-anchor="middle" x="597" y="-385.48" font-family="Helvetica,sans-Serif" font-size="10.00">vTaskPlaceOnEventList</text>
</a>
</g>
</g>
<!-- Node3&#45;&gt;Node14 -->
<g id="edge15" class="edge"><title>Node3&#45;&gt;Node14</title>
<path fill="none" stroke="midnightblue" d="M297.987,-217.634C302.494,-220.087 306.626,-223.153 310,-226.98 370.309,-295.382 276.089,-370.426 346,-428.98 412.067,-484.314 523.453,-430.926 572.083,-402.829"/>
<polygon fill="midnightblue" stroke="midnightblue" points="574.117,-405.692 580.94,-397.587 570.552,-399.668 574.117,-405.692"/>
</g>
<!-- Node17 -->
<g id="node17" class="node"><title>Node17</title>
<g id="a_node17"><a xlink:href="task_8h.html#a4d9ad38aaf26a0ccac6bb307f90ead39" target="_top" xlink:title="vTaskPriorityInherit">
<polygon fill="white" stroke="black" points="366,-198.48 366,-217.48 468,-217.48 468,-198.48 366,-198.48"/>
<text text-anchor="middle" x="417" y="-205.48" font-family="Helvetica,sans-Serif" font-size="10.00">vTaskPriorityInherit</text>
</a>
</g>
</g>
<!-- Node3&#45;&gt;Node17 -->
<g id="edge21" class="edge"><title>Node3&#45;&gt;Node17</title>
<path fill="none" stroke="midnightblue" d="M309.763,-207.98C324.767,-207.98 340.83,-207.98 355.806,-207.98"/>
<polygon fill="midnightblue" stroke="midnightblue" points="355.974,-211.48 365.974,-207.98 355.974,-204.48 355.974,-211.48"/>
</g>
<!-- Node18 -->
<g id="node18" class="node"><title>Node18</title>
<g id="a_node18"><a xlink:href="task_8h.html#a67155ad4ea2482b5f4597a69f2152be0" target="_top" xlink:title="vTaskSetTimeOutState">
<polygon fill="white" stroke="black" points="357,-160.48 357,-179.48 477,-179.48 477,-160.48 357,-160.48"/>
<text text-anchor="middle" x="417" y="-167.48" font-family="Helvetica,sans-Serif" font-size="10.00">vTaskSetTimeOutState</text>
</a>
</g>
</g>
<!-- Node3&#45;&gt;Node18 -->
<g id="edge22" class="edge"><title>Node3&#45;&gt;Node18</title>
<path fill="none" stroke="midnightblue" d="M291.141,-198.391C313.377,-193.331 340.848,-187.08 364.356,-181.731"/>
<polygon fill="midnightblue" stroke="midnightblue" points="365.188,-185.131 374.162,-179.5 363.635,-178.306 365.188,-185.131"/>
</g>
<!-- Node19 -->
<g id="node19" class="node"><title>Node19</title>
<g id="a_node19"><a xlink:href="task_8h.html#a366b302eba79d10b5ee2a3756f0fcc43" target="_top" xlink:title="vTaskSuspendAll">
<polygon fill="white" stroke="black" points="370,-122.48 370,-141.48 464,-141.48 464,-122.48 370,-122.48"/>
<text text-anchor="middle" x="417" y="-129.48" font-family="Helvetica,sans-Serif" font-size="10.00">vTaskSuspendAll</text>
</a>
</g>
</g>
<!-- Node3&#45;&gt;Node19 -->
<g id="edge23" class="edge"><title>Node3&#45;&gt;Node19</title>
<path fill="none" stroke="midnightblue" d="M262.525,-198.452C280.733,-186.003 314.492,-164.233 346,-150.98 351.713,-148.577 357.817,-146.395 363.95,-144.439"/>
<polygon fill="midnightblue" stroke="midnightblue" points="364.99,-147.781 373.56,-141.551 362.975,-141.078 364.99,-147.781"/>
</g>
<!-- Node20 -->
<g id="node20" class="node"><title>Node20</title>
<g id="a_node20"><a xlink:href="task_8h.html#a3b018a85d339e536a6c05748dd666a3a" target="_top" xlink:title="xTaskCheckForTimeOut">
<polygon fill="white" stroke="black" points="354.5,-236.48 354.5,-255.48 479.5,-255.48 479.5,-236.48 354.5,-236.48"/>
<text text-anchor="middle" x="417" y="-243.48" font-family="Helvetica,sans-Serif" font-size="10.00">xTaskCheckForTimeOut</text>
</a>
</g>
</g>
<!-- Node3&#45;&gt;Node20 -->
<g id="edge24" class="edge"><title>Node3&#45;&gt;Node20</title>
<path fill="none" stroke="midnightblue" d="M291.141,-217.569C313.377,-222.628 340.848,-228.879 364.356,-234.228"/>
<polygon fill="midnightblue" stroke="midnightblue" points="363.635,-237.654 374.162,-236.46 365.188,-230.828 363.635,-237.654"/>
</g>
<!-- Node22 -->
<g id="node22" class="node"><title>Node22</title>
<g id="a_node22"><a xlink:href="task_8h.html#a0241000e08a261372186d34825a35979" target="_top" xlink:title="xTaskGetSchedulerState">
<polygon fill="white" stroke="black" points="353,-46.4797 353,-65.4797 481,-65.4797 481,-46.4797 353,-46.4797"/>
<text text-anchor="middle" x="417" y="-53.4797" font-family="Helvetica,sans-Serif" font-size="10.00">xTaskGetSchedulerState</text>
</a>
</g>
</g>
<!-- Node3&#45;&gt;Node22 -->
<g id="edge26" class="edge"><title>Node3&#45;&gt;Node22</title>
<path fill="none" stroke="midnightblue" d="M253.269,-198.202C264.57,-173.501 297.741,-108.198 346,-74.9797 348.888,-72.9917 351.976,-71.2114 355.186,-69.6171"/>
<polygon fill="midnightblue" stroke="midnightblue" points="356.699,-72.7763 364.492,-65.5986 353.924,-66.3498 356.699,-72.7763"/>
</g>
<!-- Node9 -->
<g id="node9" class="node"><title>Node9</title>
<g id="a_node9"><a xlink:href="task_8h.html#a14513b7dd36055f73fba3c5ebbdc1b06" target="_top" xlink:title="xTaskRemoveFromEventList">
<polygon fill="white" stroke="black" points="524.5,-274.48 524.5,-293.48 669.5,-293.48 669.5,-274.48 524.5,-274.48"/>
<text text-anchor="middle" x="597" y="-281.48" font-family="Helvetica,sans-Serif" font-size="10.00">xTaskRemoveFromEventList</text>
</a>
</g>
</g>
<!-- Node3&#45;&gt;Node9 -->
<g id="edge27" class="edge"><title>Node3&#45;&gt;Node9</title>
<path fill="none" stroke="midnightblue" d="M289.98,-217.56C296.936,-220.066 303.881,-223.167 310,-226.98 329.746,-239.282 324.993,-254.983 346,-264.98 398.124,-289.782 463.332,-293.987 514.081,-292.278"/>
<polygon fill="midnightblue" stroke="midnightblue" points="514.511,-295.763 524.355,-291.846 514.217,-288.77 514.511,-295.763"/>
</g>
<!-- Node23 -->
<g id="node23" class="node"><title>Node23</title>
<g id="a_node23"><a xlink:href="task_8h.html#a003f8ae6d649225abd030cc76e1c7d0e" target="_top" xlink:title="xTaskResumeAll">
<polygon fill="white" stroke="black" points="371,-84.4797 371,-103.48 463,-103.48 463,-84.4797 371,-84.4797"/>
<text text-anchor="middle" x="417" y="-91.4797" font-family="Helvetica,sans-Serif" font-size="10.00">xTaskResumeAll</text>
</a>
</g>
</g>
<!-- Node3&#45;&gt;Node23 -->
<g id="edge28" class="edge"><title>Node3&#45;&gt;Node23</title>
<path fill="none" stroke="midnightblue" d="M256.103,-198.259C270.71,-178.985 306.111,-135.819 346,-112.98 350.781,-110.242 355.972,-107.886 361.294,-105.859"/>
<polygon fill="midnightblue" stroke="midnightblue" points="362.623,-109.104 370.954,-102.558 360.359,-102.48 362.623,-109.104"/>
</g>
<!-- Node4&#45;&gt;Node5 -->
<g id="edge4" class="edge"><title>Node4&#45;&gt;Node5</title>
<path fill="none" stroke="midnightblue" d="M629.969,-36.5202C667.118,-47.6066 727.74,-65.6981 762.419,-76.0473"/>
<polygon fill="midnightblue" stroke="midnightblue" points="761.711,-79.4884 772.294,-78.9943 763.713,-72.7807 761.711,-79.4884"/>
</g>
<!-- Node8 -->
<g id="node8" class="node"><title>Node8</title>
<g id="a_node8"><a xlink:href="task_8h.html#a998c69e37431a3a32c637b31ff60089a" target="_top" xlink:title="vTaskMissedYield">
<polygon fill="white" stroke="black" points="548.5,-340.48 548.5,-359.48 645.5,-359.48 645.5,-340.48 548.5,-340.48"/>
<text text-anchor="middle" x="597" y="-347.48" font-family="Helvetica,sans-Serif" font-size="10.00">vTaskMissedYield</text>
</a>
</g>
</g>
<!-- Node7&#45;&gt;Node8 -->
<g id="edge7" class="edge"><title>Node7&#45;&gt;Node8</title>
<path fill="none" stroke="midnightblue" d="M462.917,-366.428C485.716,-363.61 513.68,-360.154 538.079,-357.139"/>
<polygon fill="midnightblue" stroke="midnightblue" points="538.797,-360.576 548.292,-355.876 537.938,-353.629 538.797,-360.576"/>
</g>
<!-- Node7&#45;&gt;Node9 -->
<g id="edge8" class="edge"><title>Node7&#45;&gt;Node9</title>
<path fill="none" stroke="midnightblue" d="M458.674,-362.466C468.47,-359.603 478.768,-356.104 488,-351.98 496.808,-348.045 543.613,-317.995 572.641,-299.181"/>
<polygon fill="midnightblue" stroke="midnightblue" points="574.888,-301.895 581.371,-293.515 571.077,-296.024 574.888,-301.895"/>
</g>
<!-- Node10 -->
<g id="node10" class="node"><title>Node10</title>
<g id="a_node10"><a xlink:href="tasks_8c.html#ad1b2e4995f863a99cf980836efe330d7" target="_top" xlink:title="prvResetNextTaskUnblockTime">
<polygon fill="white" stroke="black" points="711.5,-274.48 711.5,-293.48 868.5,-293.48 868.5,-274.48 711.5,-274.48"/>
<text text-anchor="middle" x="790" y="-281.48" font-family="Helvetica,sans-Serif" font-size="10.00">prvResetNextTaskUnblockTime</text>
</a>
</g>
</g>
<!-- Node9&#45;&gt;Node10 -->
<g id="edge9" class="edge"><title>Node9&#45;&gt;Node10</title>
<path fill="none" stroke="midnightblue" d="M669.665,-283.98C680.013,-283.98 690.76,-283.98 701.376,-283.98"/>
<polygon fill="midnightblue" stroke="midnightblue" points="701.497,-287.48 711.497,-283.98 701.497,-280.48 701.497,-287.48"/>
</g>
<!-- Node11 -->
<g id="node11" class="node"><title>Node11</title>
<g id="a_node11"><a xlink:href="list_8h.html#a2eb1558482076fff8cafc63419c2d34a" target="_top" xlink:title="uxListRemove">
<polygon fill="white" stroke="black" points="750,-212.48 750,-231.48 830,-231.48 830,-212.48 750,-212.48"/>
<text text-anchor="middle" x="790" y="-219.48" font-family="Helvetica,sans-Serif" font-size="10.00">uxListRemove</text>
</a>
</g>
</g>
<!-- Node9&#45;&gt;Node11 -->
<g id="edge10" class="edge"><title>Node9&#45;&gt;Node11</title>
<path fill="none" stroke="midnightblue" d="M636.668,-274.45C647.508,-271.596 659.263,-268.329 670,-264.98 698.992,-255.936 731.376,-244.12 755.033,-235.163"/>
<polygon fill="midnightblue" stroke="midnightblue" points="756.504,-238.348 764.602,-231.516 754.011,-231.807 756.504,-238.348"/>
</g>
<!-- Node12 -->
<g id="node12" class="node"><title>Node12</title>
<g id="a_node12"><a xlink:href="list_8h.html#a71a6a6099b3cbd8f90539aabe5c9e572" target="_top" xlink:title="vListInsertEnd">
<polygon fill="white" stroke="black" points="750,-318.48 750,-337.48 830,-337.48 830,-318.48 750,-318.48"/>
<text text-anchor="middle" x="790" y="-325.48" font-family="Helvetica,sans-Serif" font-size="10.00">vListInsertEnd</text>
</a>
</g>
</g>
<!-- Node9&#45;&gt;Node12 -->
<g id="edge11" class="edge"><title>Node9&#45;&gt;Node12</title>
<path fill="none" stroke="midnightblue" d="M639.444,-293.527C669.046,-300.346 708.979,-309.545 740.135,-316.723"/>
<polygon fill="midnightblue" stroke="midnightblue" points="739.388,-320.142 749.918,-318.977 740.959,-313.321 739.388,-320.142"/>
</g>
<!-- Node9&#45;&gt;Node5 -->
<g id="edge12" class="edge"><title>Node9&#45;&gt;Node5</title>
<path fill="none" stroke="midnightblue" d="M653.215,-274.335C659.215,-271.887 664.962,-268.82 670,-264.98 695.34,-245.661 688.871,-229.848 706,-202.98 729.429,-166.229 759.105,-124.793 775.879,-101.796"/>
<polygon fill="midnightblue" stroke="midnightblue" points="778.748,-103.802 781.833,-93.6658 773.101,-99.666 778.748,-103.802"/>
</g>
<!-- Node15 -->
<g id="node15" class="node"><title>Node15</title>
<g id="a_node15"><a xlink:href="tasks_8c.html#a7859bfaa75a7c5524dd45b89036f1233" target="_top" xlink:title="prvAddCurrentTaskToDelayedList">
<polygon fill="white" stroke="black" points="706.5,-397.48 706.5,-416.48 873.5,-416.48 873.5,-397.48 706.5,-397.48"/>
<text text-anchor="middle" x="790" y="-404.48" font-family="Helvetica,sans-Serif" font-size="10.00">prvAddCurrentTaskToDelayedList</text>
</a>
</g>
</g>
<!-- Node14&#45;&gt;Node15 -->
<g id="edge16" class="edge"><title>Node14&#45;&gt;Node15</title>
<path fill="none" stroke="midnightblue" d="M658.696,-394.018C670.677,-395.209 683.504,-396.485 696.265,-397.755"/>
<polygon fill="midnightblue" stroke="midnightblue" points="696.171,-401.263 706.468,-398.77 696.864,-394.297 696.171,-401.263"/>
</g>
<!-- Node14&#45;&gt;Node11 -->
<g id="edge18" class="edge"><title>Node14&#45;&gt;Node11</title>
<path fill="none" stroke="midnightblue" d="M655.77,-378.429C660.965,-375.948 665.829,-372.848 670,-368.98 705.863,-335.718 674.005,-301.977 706,-264.98 717.34,-251.866 733.67,-242.209 748.849,-235.408"/>
<polygon fill="midnightblue" stroke="midnightblue" points="750.224,-238.626 758.097,-231.536 747.521,-232.169 750.224,-238.626"/>
</g>
<!-- Node16 -->
<g id="node16" class="node"><title>Node16</title>
<g id="a_node16"><a xlink:href="list_8h.html#aa129290da5cbda47dffb7bf877b2f02a" target="_top" xlink:title="vListInsert">
<polygon fill="white" stroke="black" points="910,-378.48 910,-397.48 972,-397.48 972,-378.48 910,-378.48"/>
<text text-anchor="middle" x="941" y="-385.48" font-family="Helvetica,sans-Serif" font-size="10.00">vListInsert</text>
</a>
</g>
</g>
<!-- Node14&#45;&gt;Node16 -->
<g id="edge19" class="edge"><title>Node14&#45;&gt;Node16</title>
<path fill="none" stroke="midnightblue" d="M658.749,-387.98C728.282,-387.98 840.213,-387.98 899.74,-387.98"/>
<polygon fill="midnightblue" stroke="midnightblue" points="899.875,-391.48 909.875,-387.98 899.875,-384.48 899.875,-391.48"/>
</g>
<!-- Node14&#45;&gt;Node12 -->
<g id="edge20" class="edge"><title>Node14&#45;&gt;Node12</title>
<path fill="none" stroke="midnightblue" d="M637.471,-378.422C648.102,-375.615 659.55,-372.378 670,-368.98 686.326,-363.67 689.831,-360.748 706,-354.98 719.781,-350.063 734.975,-345.014 748.555,-340.632"/>
<polygon fill="midnightblue" stroke="midnightblue" points="749.659,-343.953 758.115,-337.57 747.524,-337.287 749.659,-343.953"/>
</g>
<!-- Node15&#45;&gt;Node16 -->
<g id="edge17" class="edge"><title>Node15&#45;&gt;Node16</title>
<path fill="none" stroke="midnightblue" d="M865.937,-397.424C877.568,-395.941 889.185,-394.46 899.654,-393.125"/>
<polygon fill="midnightblue" stroke="midnightblue" points="900.221,-396.581 909.698,-391.844 899.335,-389.637 900.221,-396.581"/>
</g>
<!-- Node21 -->
<g id="node21" class="node"><title>Node21</title>
<g id="a_node21"><a xlink:href="tasks_8c.html#a5dfb2b9e41fb002318d9c55452a91c83" target="_top" xlink:title="vTaskSetTimeOutState">
<polygon fill="white" stroke="black" points="537,-236.48 537,-255.48 657,-255.48 657,-236.48 537,-236.48"/>
<text text-anchor="middle" x="597" y="-243.48" font-family="Helvetica,sans-Serif" font-size="10.00">vTaskSetTimeOutState</text>
</a>
</g>
</g>
<!-- Node20&#45;&gt;Node21 -->
<g id="edge25" class="edge"><title>Node20&#45;&gt;Node21</title>
<path fill="none" stroke="midnightblue" d="M479.756,-245.98C494.912,-245.98 511.234,-245.98 526.718,-245.98"/>
<polygon fill="midnightblue" stroke="midnightblue" points="526.752,-249.48 536.752,-245.98 526.752,-242.48 526.752,-249.48"/>
</g>
<!-- Node23&#45;&gt;Node11 -->
<g id="edge29" class="edge"><title>Node23&#45;&gt;Node11</title>
<path fill="none" stroke="midnightblue" d="M463.041,-103.37C471.558,-105.929 480.226,-109.099 488,-112.98 506.135,-122.034 506.01,-131.64 524,-140.98 594.744,-177.706 684.92,-200.823 739.741,-212.562"/>
<polygon fill="midnightblue" stroke="midnightblue" points="739.048,-215.993 749.553,-214.622 740.486,-209.142 739.048,-215.993"/>
</g>
<!-- Node23&#45;&gt;Node5 -->
<g id="edge30" class="edge"><title>Node23&#45;&gt;Node5</title>
<path fill="none" stroke="midnightblue" d="M463.121,-92.7635C541.091,-90.6619 698.744,-86.4125 761.918,-84.7097"/>
<polygon fill="midnightblue" stroke="midnightblue" points="762.336,-88.1998 772.238,-84.4315 762.147,-81.2023 762.336,-88.1998"/>
</g>
<!-- Node24 -->
<g id="node24" class="node"><title>Node24</title>
<g id="a_node24"><a xlink:href="tasks_8c.html#a54f31e9aef0eb7b87e48c7d68ecc84c1" target="_top" xlink:title="xTaskIncrementTick">
<polygon fill="white" stroke="black" points="544,-112.48 544,-131.48 650,-131.48 650,-112.48 544,-112.48"/>
<text text-anchor="middle" x="597" y="-119.48" font-family="Helvetica,sans-Serif" font-size="10.00">xTaskIncrementTick</text>
</a>
</g>
</g>
<!-- Node23&#45;&gt;Node24 -->
<g id="edge31" class="edge"><title>Node23&#45;&gt;Node24</title>
<path fill="none" stroke="midnightblue" d="M463.377,-101.118C484.732,-104.477 510.538,-108.536 533.688,-112.178"/>
<polygon fill="midnightblue" stroke="midnightblue" points="533.346,-115.667 543.769,-113.764 534.434,-108.752 533.346,-115.667"/>
</g>
<!-- Node24&#45;&gt;Node5 -->
<g id="edge32" class="edge"><title>Node24&#45;&gt;Node5</title>
<path fill="none" stroke="midnightblue" d="M646.197,-112.391C683.008,-105.067 732.363,-95.2477 762.361,-89.2797"/>
<polygon fill="midnightblue" stroke="midnightblue" points="763.353,-92.651 772.478,-87.2669 761.987,-85.7855 763.353,-92.651"/>
</g>
<!-- Node24&#45;&gt;Node11 -->
<g id="edge33" class="edge"><title>Node24&#45;&gt;Node11</title>
<path fill="none" stroke="midnightblue" d="M616.314,-131.568C649.97,-149.189 721.826,-186.81 761.415,-207.537"/>
<polygon fill="midnightblue" stroke="midnightblue" points="760.259,-210.883 770.742,-212.42 763.506,-204.681 760.259,-210.883"/>
</g>
</g>
</svg>
