<?xml version="1.0" encoding="UTF-8" standalone="no"?>
<!DOCTYPE svg PUBLIC "-//W3C//DTD SVG 1.1//EN"
 "http://www.w3.org/Graphics/SVG/1.1/DTD/svg11.dtd">
<!-- Generated by graphviz version 2.30.1 (20130221.2233)
 -->
<!-- Title: MPU_xPortGetFreeHeapSize Pages: 1 -->
<svg width="312pt" height="66pt"
 viewBox="0.00 0.00 312.00 66.00" xmlns="http://www.w3.org/2000/svg" xmlns:xlink="http://www.w3.org/1999/xlink">
<g id="graph0" class="graph" transform="scale(1 1) rotate(0) translate(4 62)">
<title>MPU_xPortGetFreeHeapSize</title>
<polygon fill="white" stroke="white" points="-4,5 -4,-62 309,-62 309,5 -4,5"/>
<!-- Node1 -->
<g id="node1" class="node"><title>Node1</title>
<polygon fill="#bfbfbf" stroke="black" points="0,-19.5 0,-38.5 148,-38.5 148,-19.5 0,-19.5"/>
<text text-anchor="middle" x="74" y="-26.5" font-family="Helvetica,sans-Serif" font-size="10.00">MPU_xPortGetFreeHeapSize</text>
</g>
<!-- Node2 -->
<g id="node2" class="node"><title>Node2</title>
<g id="a_node2"><a xlink:href="_g_c_c_2_a_r_m___c_m3___m_p_u_2port_8c.html#ad5691a9d6fd4c0b9f4e55426dd9a48ad" target="_top" xlink:title="prvRaisePrivilege">
<polygon fill="white" stroke="black" points="197,-38.5 197,-57.5 291,-57.5 291,-38.5 197,-38.5"/>
<text text-anchor="middle" x="244" y="-45.5" font-family="Helvetica,sans-Serif" font-size="10.00">prvRaisePrivilege</text>
</a>
</g>
</g>
<!-- Node1&#45;&gt;Node2 -->
<g id="edge1" class="edge"><title>Node1&#45;&gt;Node2</title>
<path fill="none" stroke="midnightblue" d="M148.199,-37.2784C161.047,-38.7316 174.239,-40.2235 186.544,-41.6151"/>
<polygon fill="midnightblue" stroke="midnightblue" points="186.315,-45.1114 196.645,-42.7575 187.102,-38.1558 186.315,-45.1114"/>
</g>
<!-- Node3 -->
<g id="node3" class="node"><title>Node3</title>
<g id="a_node3"><a xlink:href="portable_8h.html#a8f72fbee5c25c956bda528299ce6dd02" target="_top" xlink:title="xPortGetFreeHeapSize">
<polygon fill="white" stroke="black" points="184,-0.5 184,-19.5 304,-19.5 304,-0.5 184,-0.5"/>
<text text-anchor="middle" x="244" y="-7.5" font-family="Helvetica,sans-Serif" font-size="10.00">xPortGetFreeHeapSize</text>
</a>
</g>
</g>
<!-- Node1&#45;&gt;Node3 -->
<g id="edge2" class="edge"><title>Node1&#45;&gt;Node3</title>
<path fill="none" stroke="midnightblue" d="M148.199,-20.7216C156.685,-19.7618 165.321,-18.7851 173.753,-17.8316"/>
<polygon fill="midnightblue" stroke="midnightblue" points="174.368,-21.2843 183.912,-16.6826 173.582,-14.3287 174.368,-21.2843"/>
</g>
</g>
</svg>
