<?xml version="1.0" encoding="UTF-8" standalone="no"?>
<!DOCTYPE svg PUBLIC "-//W3C//DTD SVG 1.1//EN"
 "http://www.w3.org/Graphics/SVG/1.1/DTD/svg11.dtd">
<!-- Generated by graphviz version 2.30.1 (20130221.2233)
 -->
<!-- Title: MPU_vPortFree Pages: 1 -->
<svg width="614pt" height="113pt"
 viewBox="0.00 0.00 614.00 113.00" xmlns="http://www.w3.org/2000/svg" xmlns:xlink="http://www.w3.org/1999/xlink">
<g id="graph0" class="graph" transform="scale(1 1) rotate(0) translate(4 109)">
<title>MPU_vPortFree</title>
<polygon fill="white" stroke="white" points="-4,5 -4,-109 611,-109 611,5 -4,5"/>
<!-- Node1 -->
<g id="node1" class="node"><title>Node1</title>
<polygon fill="#bfbfbf" stroke="black" points="0,-66.5 0,-85.5 88,-85.5 88,-66.5 0,-66.5"/>
<text text-anchor="middle" x="44" y="-73.5" font-family="Helvetica,sans-Serif" font-size="10.00">MPU_vPortFree</text>
</g>
<!-- Node2 -->
<g id="node2" class="node"><title>Node2</title>
<g id="a_node2"><a xlink:href="_g_c_c_2_a_r_m___c_m3___m_p_u_2port_8c.html#ad5691a9d6fd4c0b9f4e55426dd9a48ad" target="_top" xlink:title="prvRaisePrivilege">
<polygon fill="white" stroke="black" points="124,-85.5 124,-104.5 218,-104.5 218,-85.5 124,-85.5"/>
<text text-anchor="middle" x="171" y="-92.5" font-family="Helvetica,sans-Serif" font-size="10.00">prvRaisePrivilege</text>
</a>
</g>
</g>
<!-- Node1&#45;&gt;Node2 -->
<g id="edge1" class="edge"><title>Node1&#45;&gt;Node2</title>
<path fill="none" stroke="midnightblue" d="M88.0179,-82.5387C96.3424,-83.804 105.179,-85.1472 113.851,-86.4654"/>
<polygon fill="midnightblue" stroke="midnightblue" points="113.503,-89.9525 123.915,-87.9951 114.555,-83.032 113.503,-89.9525"/>
</g>
<!-- Node3 -->
<g id="node3" class="node"><title>Node3</title>
<g id="a_node3"><a xlink:href="_wiz_c_2_p_i_c18_2port_8c.html#a1e7cea2fd1bc894ea3b5f5e8179d259b" target="_top" xlink:title="vPortFree">
<polygon fill="white" stroke="black" points="141,-47.5 141,-66.5 201,-66.5 201,-47.5 141,-47.5"/>
<text text-anchor="middle" x="171" y="-54.5" font-family="Helvetica,sans-Serif" font-size="10.00">vPortFree</text>
</a>
</g>
</g>
<!-- Node1&#45;&gt;Node3 -->
<g id="edge2" class="edge"><title>Node1&#45;&gt;Node3</title>
<path fill="none" stroke="midnightblue" d="M88.0179,-69.4613C101.862,-67.357 117.123,-65.0373 130.686,-62.9757"/>
<polygon fill="midnightblue" stroke="midnightblue" points="131.315,-66.4204 140.676,-61.4573 130.263,-59.4998 131.315,-66.4204"/>
</g>
<!-- Node4 -->
<g id="node4" class="node"><title>Node4</title>
<g id="a_node4"><a xlink:href="task_8h.html#a366b302eba79d10b5ee2a3756f0fcc43" target="_top" xlink:title="vTaskSuspendAll">
<polygon fill="white" stroke="black" points="254,-66.5 254,-85.5 348,-85.5 348,-66.5 254,-66.5"/>
<text text-anchor="middle" x="301" y="-73.5" font-family="Helvetica,sans-Serif" font-size="10.00">vTaskSuspendAll</text>
</a>
</g>
</g>
<!-- Node3&#45;&gt;Node4 -->
<g id="edge3" class="edge"><title>Node3&#45;&gt;Node4</title>
<path fill="none" stroke="midnightblue" d="M201.045,-61.3114C213.75,-63.1973 229.107,-65.4768 243.893,-67.6716"/>
<polygon fill="midnightblue" stroke="midnightblue" points="243.593,-71.1653 253.998,-69.1716 244.62,-64.2412 243.593,-71.1653"/>
</g>
<!-- Node5 -->
<g id="node5" class="node"><title>Node5</title>
<g id="a_node5"><a xlink:href="task_8h.html#a003f8ae6d649225abd030cc76e1c7d0e" target="_top" xlink:title="xTaskResumeAll">
<polygon fill="white" stroke="black" points="255,-28.5 255,-47.5 347,-47.5 347,-28.5 255,-28.5"/>
<text text-anchor="middle" x="301" y="-35.5" font-family="Helvetica,sans-Serif" font-size="10.00">xTaskResumeAll</text>
</a>
</g>
</g>
<!-- Node3&#45;&gt;Node5 -->
<g id="edge4" class="edge"><title>Node3&#45;&gt;Node5</title>
<path fill="none" stroke="midnightblue" d="M201.045,-52.6886C213.99,-50.7671 229.687,-48.437 244.729,-46.2043"/>
<polygon fill="midnightblue" stroke="midnightblue" points="245.618,-49.6108 254.996,-44.6803 244.59,-42.6866 245.618,-49.6108"/>
</g>
<!-- Node6 -->
<g id="node6" class="node"><title>Node6</title>
<g id="a_node6"><a xlink:href="list_8h.html#a2eb1558482076fff8cafc63419c2d34a" target="_top" xlink:title="uxListRemove">
<polygon fill="white" stroke="black" points="526,-47.5 526,-66.5 606,-66.5 606,-47.5 526,-47.5"/>
<text text-anchor="middle" x="566" y="-54.5" font-family="Helvetica,sans-Serif" font-size="10.00">uxListRemove</text>
</a>
</g>
</g>
<!-- Node5&#45;&gt;Node6 -->
<g id="edge5" class="edge"><title>Node5&#45;&gt;Node6</title>
<path fill="none" stroke="midnightblue" d="M335.212,-47.5071C350.011,-51.2716 367.739,-55.1407 384,-57 428.186,-62.0522 478.837,-61.5182 515.299,-60.0304"/>
<polygon fill="midnightblue" stroke="midnightblue" points="515.829,-63.5103 525.662,-59.5665 515.516,-56.5173 515.829,-63.5103"/>
</g>
<!-- Node7 -->
<g id="node7" class="node"><title>Node7</title>
<g id="a_node7"><a xlink:href="_paradigm_2_tern___e_e_2small_2portmacro_8h.html#a14d32f8130d3c0b212cfc751730b5b49" target="_top" xlink:title="void">
<polygon fill="white" stroke="black" points="548.5,-0.5 548.5,-19.5 583.5,-19.5 583.5,-0.5 548.5,-0.5"/>
<text text-anchor="middle" x="566" y="-7.5" font-family="Helvetica,sans-Serif" font-size="10.00">void</text>
</a>
</g>
</g>
<!-- Node5&#45;&gt;Node7 -->
<g id="edge6" class="edge"><title>Node5&#45;&gt;Node7</title>
<path fill="none" stroke="midnightblue" d="M336.858,-28.4792C351.333,-24.9043 368.369,-21.1818 384,-19 438.501,-11.3926 503.02,-9.97916 538.426,-9.84706"/>
<polygon fill="midnightblue" stroke="midnightblue" points="538.438,-13.3472 548.437,-9.84176 538.435,-6.34715 538.438,-13.3472"/>
</g>
<!-- Node8 -->
<g id="node8" class="node"><title>Node8</title>
<g id="a_node8"><a xlink:href="tasks_8c.html#a54f31e9aef0eb7b87e48c7d68ecc84c1" target="_top" xlink:title="xTaskIncrementTick">
<polygon fill="white" stroke="black" points="384,-28.5 384,-47.5 490,-47.5 490,-28.5 384,-28.5"/>
<text text-anchor="middle" x="437" y="-35.5" font-family="Helvetica,sans-Serif" font-size="10.00">xTaskIncrementTick</text>
</a>
</g>
</g>
<!-- Node5&#45;&gt;Node8 -->
<g id="edge7" class="edge"><title>Node5&#45;&gt;Node8</title>
<path fill="none" stroke="midnightblue" d="M347.366,-38C355.77,-38 364.683,-38 373.492,-38"/>
<polygon fill="midnightblue" stroke="midnightblue" points="373.748,-41.5001 383.748,-38 373.748,-34.5001 373.748,-41.5001"/>
</g>
<!-- Node8&#45;&gt;Node7 -->
<g id="edge8" class="edge"><title>Node8&#45;&gt;Node7</title>
<path fill="none" stroke="midnightblue" d="M481.351,-28.4423C500.214,-24.2836 521.722,-19.5415 538.206,-15.9074"/>
<polygon fill="midnightblue" stroke="midnightblue" points="539.222,-19.2675 548.234,-13.6965 537.715,-12.4317 539.222,-19.2675"/>
</g>
<!-- Node8&#45;&gt;Node6 -->
<g id="edge9" class="edge"><title>Node8&#45;&gt;Node6</title>
<path fill="none" stroke="midnightblue" d="M490.022,-45.7828C498.496,-47.0506 507.252,-48.3605 515.659,-49.6183"/>
<polygon fill="midnightblue" stroke="midnightblue" points="515.291,-53.102 525.698,-51.1202 516.326,-46.1791 515.291,-53.102"/>
</g>
</g>
</svg>
