<?xml version="1.0" encoding="UTF-8" standalone="no"?>
<!DOCTYPE svg PUBLIC "-//W3C//DTD SVG 1.1//EN"
 "http://www.w3.org/Graphics/SVG/1.1/DTD/svg11.dtd">
<!-- Generated by graphviz version 2.30.1 (20130221.2233)
 -->
<!-- Title: xPortStartScheduler Pages: 1 -->
<svg width="440pt" height="132pt"
 viewBox="0.00 0.00 440.00 132.00" xmlns="http://www.w3.org/2000/svg" xmlns:xlink="http://www.w3.org/1999/xlink">
<g id="graph0" class="graph" transform="scale(1 1) rotate(0) translate(4 128)">
<title>xPortStartScheduler</title>
<polygon fill="white" stroke="white" points="-4,5 -4,-128 437,-128 437,5 -4,5"/>
<!-- Node1 -->
<g id="node1" class="node"><title>Node1</title>
<polygon fill="#bfbfbf" stroke="black" points="0,-57.5 0,-76.5 106,-76.5 106,-57.5 0,-57.5"/>
<text text-anchor="middle" x="53" y="-64.5" font-family="Helvetica,sans-Serif" font-size="10.00">xPortStartScheduler</text>
</g>
<!-- Node2 -->
<g id="node2" class="node"><title>Node2</title>
<g id="a_node2"><a xlink:href="_i_a_r_2_v850_e_s_2portmacro_8h.html#a716d176e9130fa97ac875a31e7453605" target="_top" xlink:title="portRESTORE_CONTEXT">
<polygon fill="white" stroke="black" points="296.5,-104.5 296.5,-123.5 431.5,-123.5 431.5,-104.5 296.5,-104.5"/>
<text text-anchor="middle" x="364" y="-111.5" font-family="Helvetica,sans-Serif" font-size="10.00">portRESTORE_CONTEXT</text>
</a>
</g>
</g>
<!-- Node1&#45;&gt;Node2 -->
<g id="edge1" class="edge"><title>Node1&#45;&gt;Node2</title>
<path fill="none" stroke="midnightblue" d="M70.8919,-76.5264C88.155,-85.7171 116.04,-99.0812 142,-105 189.138,-115.747 243.366,-118.1 286.309,-117.716"/>
<polygon fill="midnightblue" stroke="midnightblue" points="286.46,-121.214 296.409,-117.574 286.361,-114.215 286.46,-121.214"/>
</g>
<!-- Node3 -->
<g id="node3" class="node"><title>Node3</title>
<g id="a_node3"><a xlink:href="_g_c_c_2_m_c_f5235_2port_8c.html#a63dbda6b7b3f407d233f73a0095ed528" target="_top" xlink:title="prvPortPreemptiveTick">
<polygon fill="white" stroke="black" points="142,-76.5 142,-95.5 260,-95.5 260,-76.5 142,-76.5"/>
<text text-anchor="middle" x="201" y="-83.5" font-family="Helvetica,sans-Serif" font-size="10.00">prvPortPreemptiveTick</text>
</a>
</g>
</g>
<!-- Node1&#45;&gt;Node3 -->
<g id="edge2" class="edge"><title>Node1&#45;&gt;Node3</title>
<path fill="none" stroke="midnightblue" d="M106.297,-73.8058C114.589,-74.8849 123.27,-76.0146 131.86,-77.1325"/>
<polygon fill="midnightblue" stroke="midnightblue" points="131.507,-80.6159 141.875,-78.4358 132.41,-73.6745 131.507,-80.6159"/>
</g>
<!-- Node4 -->
<g id="node4" class="node"><title>Node4</title>
<g id="a_node4"><a xlink:href="_g_c_c_2_m_c_f5235_2port_8c.html#ab29afb2a4cb7a5158953f41abd366a76" target="_top" xlink:title="prvPortYield">
<polygon fill="white" stroke="black" points="165.5,-38.5 165.5,-57.5 236.5,-57.5 236.5,-38.5 165.5,-38.5"/>
<text text-anchor="middle" x="201" y="-45.5" font-family="Helvetica,sans-Serif" font-size="10.00">prvPortYield</text>
</a>
</g>
</g>
<!-- Node1&#45;&gt;Node4 -->
<g id="edge3" class="edge"><title>Node1&#45;&gt;Node4</title>
<path fill="none" stroke="midnightblue" d="M106.297,-60.1942C122.252,-58.1178 139.646,-55.8543 155.068,-53.8473"/>
<polygon fill="midnightblue" stroke="midnightblue" points="155.924,-57.2655 165.388,-52.5042 155.02,-50.3241 155.924,-57.2655"/>
</g>
<!-- Node7 -->
<g id="node7" class="node"><title>Node7</title>
<g id="a_node7"><a xlink:href="_paradigm_2_tern___e_e_2small_2portmacro_8h.html#a14d32f8130d3c0b212cfc751730b5b49" target="_top" xlink:title="void">
<polygon fill="white" stroke="black" points="183.5,-0.5 183.5,-19.5 218.5,-19.5 218.5,-0.5 183.5,-0.5"/>
<text text-anchor="middle" x="201" y="-7.5" font-family="Helvetica,sans-Serif" font-size="10.00">void</text>
</a>
</g>
</g>
<!-- Node1&#45;&gt;Node7 -->
<g id="edge7" class="edge"><title>Node1&#45;&gt;Node7</title>
<path fill="none" stroke="midnightblue" d="M74.7615,-57.3983C92.4564,-49.369 118.657,-37.8425 142,-29 152.222,-25.1277 163.625,-21.2909 173.596,-18.0897"/>
<polygon fill="midnightblue" stroke="midnightblue" points="174.877,-21.3559 183.36,-15.009 172.77,-14.6803 174.877,-21.3559"/>
</g>
<!-- Node4&#45;&gt;Node2 -->
<g id="edge4" class="edge"><title>Node4&#45;&gt;Node2</title>
<path fill="none" stroke="midnightblue" d="M233.23,-57.5238C241.964,-60.3779 251.413,-63.6464 260,-67 285.605,-77 313.974,-90.1007 334.445,-99.9299"/>
<polygon fill="midnightblue" stroke="midnightblue" points="333.008,-103.123 343.534,-104.328 336.057,-96.822 333.008,-103.123"/>
</g>
<!-- Node5 -->
<g id="node5" class="node"><title>Node5</title>
<g id="a_node5"><a xlink:href="_i_a_r_2_v850_e_s_2portmacro_8h.html#ad79a8b96e1489f7f0645e8d57360337d" target="_top" xlink:title="portSAVE_CONTEXT">
<polygon fill="white" stroke="black" points="307,-47.5 307,-66.5 421,-66.5 421,-47.5 307,-47.5"/>
<text text-anchor="middle" x="364" y="-54.5" font-family="Helvetica,sans-Serif" font-size="10.00">portSAVE_CONTEXT</text>
</a>
</g>
</g>
<!-- Node4&#45;&gt;Node5 -->
<g id="edge5" class="edge"><title>Node4&#45;&gt;Node5</title>
<path fill="none" stroke="midnightblue" d="M236.539,-49.9307C254.166,-50.9161 276.215,-52.1487 296.944,-53.3074"/>
<polygon fill="midnightblue" stroke="midnightblue" points="296.809,-56.8052 306.988,-53.8689 297.199,-49.8161 296.809,-56.8052"/>
</g>
<!-- Node6 -->
<g id="node6" class="node"><title>Node6</title>
<g id="a_node6"><a xlink:href="_renesas_2_r_x100_2port_8c.html#a9c86137bc3c1cbffc39fff22627cb885" target="_top" xlink:title="vTaskSwitchContext">
<polygon fill="white" stroke="black" points="310.5,-9.5 310.5,-28.5 417.5,-28.5 417.5,-9.5 310.5,-9.5"/>
<text text-anchor="middle" x="364" y="-16.5" font-family="Helvetica,sans-Serif" font-size="10.00">vTaskSwitchContext</text>
</a>
</g>
</g>
<!-- Node4&#45;&gt;Node6 -->
<g id="edge6" class="edge"><title>Node4&#45;&gt;Node6</title>
<path fill="none" stroke="midnightblue" d="M236.539,-41.7788C255.208,-38.416 278.837,-34.1598 300.603,-30.2391"/>
<polygon fill="midnightblue" stroke="midnightblue" points="301.228,-33.6831 310.449,-28.4657 299.987,-26.794 301.228,-33.6831"/>
</g>
</g>
</svg>
