<?xml version="1.0" encoding="UTF-8" standalone="no"?>
<!DOCTYPE svg PUBLIC "-//W3C//DTD SVG 1.1//EN"
 "http://www.w3.org/Graphics/SVG/1.1/DTD/svg11.dtd">
<!-- Generated by graphviz version 2.30.1 (20130221.2233)
 -->
<!-- Title: prvSetupTimerInterrupt Pages: 1 -->
<svg width="532pt" height="66pt"
 viewBox="0.00 0.00 532.00 66.00" xmlns="http://www.w3.org/2000/svg" xmlns:xlink="http://www.w3.org/1999/xlink">
<g id="graph0" class="graph" transform="scale(1 1) rotate(0) translate(4 62)">
<title>prvSetupTimerInterrupt</title>
<polygon fill="white" stroke="white" points="-4,5 -4,-62 529,-62 529,5 -4,5"/>
<!-- Node1 -->
<g id="node1" class="node"><title>Node1</title>
<polygon fill="#bfbfbf" stroke="black" points="0.5,-19.5 0.5,-38.5 119.5,-38.5 119.5,-19.5 0.5,-19.5"/>
<text text-anchor="middle" x="60" y="-26.5" font-family="Helvetica,sans-Serif" font-size="10.00">prvSetupTimerInterrupt</text>
</g>
<!-- Node2 -->
<g id="node2" class="node"><title>Node2</title>
<g id="a_node2"><a xlink:href="_r_v_d_s_2_a_r_m7___l_p_c21xx_2port_8c.html#ac642f8fce0e1256dd848a1e4ffd0c30c" target="_top" xlink:title="vNonPreemptiveTick">
<polygon fill="white" stroke="black" points="156.5,-38.5 156.5,-57.5 265.5,-57.5 265.5,-38.5 156.5,-38.5"/>
<text text-anchor="middle" x="211" y="-45.5" font-family="Helvetica,sans-Serif" font-size="10.00">vNonPreemptiveTick</text>
</a>
</g>
</g>
<!-- Node1&#45;&gt;Node2 -->
<g id="edge1" class="edge"><title>Node1&#45;&gt;Node2</title>
<path fill="none" stroke="midnightblue" d="M119.889,-36.5093C128.542,-37.6127 137.489,-38.7536 146.234,-39.8688"/>
<polygon fill="midnightblue" stroke="midnightblue" points="146.016,-43.3693 156.379,-41.1624 146.902,-36.4255 146.016,-43.3693"/>
</g>
<!-- Node5 -->
<g id="node5" class="node"><title>Node5</title>
<g id="a_node5"><a xlink:href="_paradigm_2_tern___e_e_2small_2portmacro_8h.html#a14d32f8130d3c0b212cfc751730b5b49" target="_top" xlink:title="void">
<polygon fill="white" stroke="black" points="466.5,-0.5 466.5,-19.5 501.5,-19.5 501.5,-0.5 466.5,-0.5"/>
<text text-anchor="middle" x="484" y="-7.5" font-family="Helvetica,sans-Serif" font-size="10.00">void</text>
</a>
</g>
</g>
<!-- Node1&#45;&gt;Node5 -->
<g id="edge5" class="edge"><title>Node1&#45;&gt;Node5</title>
<path fill="none" stroke="midnightblue" d="M119.677,-26.3581C212.354,-22.1855 388.98,-14.2331 456.159,-11.2085"/>
<polygon fill="midnightblue" stroke="midnightblue" points="456.495,-14.697 466.327,-10.7507 456.18,-7.70409 456.495,-14.697"/>
</g>
<!-- Node3 -->
<g id="node3" class="node"><title>Node3</title>
<g id="a_node3"><a xlink:href="task_8h.html#a978e25460ac35706f9ad30b46d9403d8" target="_top" xlink:title="xTaskIncrementTick">
<polygon fill="white" stroke="black" points="302,-38.5 302,-57.5 408,-57.5 408,-38.5 302,-38.5"/>
<text text-anchor="middle" x="355" y="-45.5" font-family="Helvetica,sans-Serif" font-size="10.00">xTaskIncrementTick</text>
</a>
</g>
</g>
<!-- Node2&#45;&gt;Node3 -->
<g id="edge2" class="edge"><title>Node2&#45;&gt;Node3</title>
<path fill="none" stroke="midnightblue" d="M265.684,-48C274.152,-48 282.969,-48 291.614,-48"/>
<polygon fill="midnightblue" stroke="midnightblue" points="291.651,-51.5001 301.651,-48 291.651,-44.5001 291.651,-51.5001"/>
</g>
<!-- Node4 -->
<g id="node4" class="node"><title>Node4</title>
<g id="a_node4"><a xlink:href="list_8h.html#a2eb1558482076fff8cafc63419c2d34a" target="_top" xlink:title="uxListRemove">
<polygon fill="white" stroke="black" points="444,-38.5 444,-57.5 524,-57.5 524,-38.5 444,-38.5"/>
<text text-anchor="middle" x="484" y="-45.5" font-family="Helvetica,sans-Serif" font-size="10.00">uxListRemove</text>
</a>
</g>
</g>
<!-- Node3&#45;&gt;Node4 -->
<g id="edge3" class="edge"><title>Node3&#45;&gt;Node4</title>
<path fill="none" stroke="midnightblue" d="M408.022,-48C416.496,-48 425.252,-48 433.659,-48"/>
<polygon fill="midnightblue" stroke="midnightblue" points="433.698,-51.5001 443.698,-48 433.698,-44.5001 433.698,-51.5001"/>
</g>
<!-- Node3&#45;&gt;Node5 -->
<g id="edge4" class="edge"><title>Node3&#45;&gt;Node5</title>
<path fill="none" stroke="midnightblue" d="M388.047,-38.411C409.198,-32.0826 436.576,-23.8907 456.496,-17.9305"/>
<polygon fill="midnightblue" stroke="midnightblue" points="457.583,-21.2585 466.16,-15.0387 455.576,-14.5523 457.583,-21.2585"/>
</g>
</g>
</svg>
