<?xml version="1.0" encoding="UTF-8" standalone="no"?>
<!DOCTYPE svg PUBLIC "-//W3C//DTD SVG 1.1//EN"
 "http://www.w3.org/Graphics/SVG/1.1/DTD/svg11.dtd">
<!-- Generated by graphviz version 2.30.1 (20130221.2233)
 -->
<!-- Title: prvEnsureInterruptControllerIsInitialised Pages: 1 -->
<svg width="326pt" height="104pt"
 viewBox="0.00 0.00 326.00 104.00" xmlns="http://www.w3.org/2000/svg" xmlns:xlink="http://www.w3.org/1999/xlink">
<g id="graph0" class="graph" transform="scale(1 1) rotate(0) translate(4 100)">
<title>prvEnsureInterruptControllerIsInitialised</title>
<polygon fill="white" stroke="white" points="-4,5 -4,-100 323,-100 323,5 -4,5"/>
<!-- Node1 -->
<g id="node1" class="node"><title>Node1</title>
<polygon fill="#bfbfbf" stroke="black" points="0.5,-33 0.5,-63 143.5,-63 143.5,-33 0.5,-33"/>
<text text-anchor="start" x="8.5" y="-51" font-family="Helvetica,sans-Serif" font-size="10.00">prvEnsureInterruptController</text>
<text text-anchor="middle" x="72" y="-40" font-family="Helvetica,sans-Serif" font-size="10.00">IsInitialised</text>
</g>
<!-- Node2 -->
<g id="node2" class="node"><title>Node2</title>
<g id="a_node2"><a xlink:href="_g_c_c_2_micro_blaze_v8_2portmacro_8h.html#a46aef84bd9c309576be51201c6f09741" target="_top" xlink:title="vPortDisableInterrupt">
<polygon fill="white" stroke="black" points="194,-76.5 194,-95.5 304,-95.5 304,-76.5 194,-76.5"/>
<text text-anchor="middle" x="249" y="-83.5" font-family="Helvetica,sans-Serif" font-size="10.00">vPortDisableInterrupt</text>
</a>
</g>
</g>
<!-- Node1&#45;&gt;Node2 -->
<g id="edge1" class="edge"><title>Node1&#45;&gt;Node2</title>
<path fill="none" stroke="midnightblue" d="M152.06,-65.1673C169.995,-69.0618 188.408,-73.06 204.246,-76.4991"/>
<polygon fill="midnightblue" stroke="midnightblue" points="152.68,-61.7204 142.165,-63.0186 151.194,-68.561 152.68,-61.7204"/>
</g>
<!-- Node3 -->
<g id="node3" class="node"><title>Node3</title>
<g id="a_node3"><a xlink:href="_g_c_c_2_micro_blaze_v8_2portmacro_8h.html#a0471656744e861f8982a1f5397a27838" target="_top" xlink:title="vPortEnableInterrupt">
<polygon fill="white" stroke="black" points="195,-38.5 195,-57.5 303,-57.5 303,-38.5 195,-38.5"/>
<text text-anchor="middle" x="249" y="-45.5" font-family="Helvetica,sans-Serif" font-size="10.00">vPortEnableInterrupt</text>
</a>
</g>
</g>
<!-- Node1&#45;&gt;Node3 -->
<g id="edge2" class="edge"><title>Node1&#45;&gt;Node3</title>
<path fill="none" stroke="midnightblue" d="M153.761,-48C167.696,-48 181.861,-48 194.83,-48"/>
<polygon fill="midnightblue" stroke="midnightblue" points="153.675,-44.5001 143.675,-48 153.675,-51.5001 153.675,-44.5001"/>
</g>
<!-- Node4 -->
<g id="node4" class="node"><title>Node4</title>
<g id="a_node4"><a xlink:href="_g_c_c_2_p_p_c440___xilinx_2portmacro_8h.html#a7e326747e8b11763013926ee724d5523" target="_top" xlink:title="xPortInstallInterruptHandler">
<polygon fill="white" stroke="black" points="180,-0.5 180,-19.5 318,-19.5 318,-0.5 180,-0.5"/>
<text text-anchor="middle" x="249" y="-7.5" font-family="Helvetica,sans-Serif" font-size="10.00">xPortInstallInterruptHandler</text>
</a>
</g>
</g>
<!-- Node1&#45;&gt;Node4 -->
<g id="edge3" class="edge"><title>Node1&#45;&gt;Node4</title>
<path fill="none" stroke="midnightblue" d="M152.06,-30.8327C169.995,-26.9382 188.408,-22.94 204.246,-19.5009"/>
<polygon fill="midnightblue" stroke="midnightblue" points="151.194,-27.439 142.165,-32.9814 152.68,-34.2796 151.194,-27.439"/>
</g>
</g>
</svg>
