<?xml version="1.0" encoding="UTF-8" standalone="no"?>
<!DOCTYPE svg PUBLIC "-//W3C//DTD SVG 1.1//EN"
 "http://www.w3.org/Graphics/SVG/1.1/DTD/svg11.dtd">
<!-- Generated by graphviz version 2.30.1 (20130221.2233)
 -->
<!-- Title: vPortTickISR Pages: 1 -->
<svg width="394pt" height="104pt"
 viewBox="0.00 0.00 394.00 104.00" xmlns="http://www.w3.org/2000/svg" xmlns:xlink="http://www.w3.org/1999/xlink">
<g id="graph0" class="graph" transform="scale(1 1) rotate(0) translate(4 100)">
<title>vPortTickISR</title>
<polygon fill="white" stroke="white" points="-4,5 -4,-100 391,-100 391,5 -4,5"/>
<!-- Node1 -->
<g id="node1" class="node"><title>Node1</title>
<polygon fill="#bfbfbf" stroke="black" points="0.5,-38.5 0.5,-57.5 75.5,-57.5 75.5,-38.5 0.5,-38.5"/>
<text text-anchor="middle" x="38" y="-45.5" font-family="Helvetica,sans-Serif" font-size="10.00">vPortTickISR</text>
</g>
<!-- Node2 -->
<g id="node2" class="node"><title>Node2</title>
<g id="a_node2"><a xlink:href="_g_c_c_2_micro_blaze_v8_2portmacro_8h.html#ada8bec0ed1974828097368e3eb2e6a09" target="_top" xlink:title="vApplicationClearTimerInterrupt">
<polygon fill="white" stroke="black" points="112.5,-76.5 112.5,-95.5 269.5,-95.5 269.5,-76.5 112.5,-76.5"/>
<text text-anchor="middle" x="191" y="-83.5" font-family="Helvetica,sans-Serif" font-size="10.00">vApplicationClearTimerInterrupt</text>
</a>
</g>
</g>
<!-- Node1&#45;&gt;Node2 -->
<g id="edge1" class="edge"><title>Node1&#45;&gt;Node2</title>
<path fill="none" stroke="midnightblue" d="M75.5529,-57.1987C95.5959,-62.2427 120.682,-68.5557 142.255,-73.9848"/>
<polygon fill="midnightblue" stroke="midnightblue" points="141.655,-77.4428 152.207,-76.4891 143.363,-70.6544 141.655,-77.4428"/>
</g>
<!-- Node3 -->
<g id="node3" class="node"><title>Node3</title>
<g id="a_node3"><a xlink:href="_paradigm_2_tern___e_e_2small_2portmacro_8h.html#a14d32f8130d3c0b212cfc751730b5b49" target="_top" xlink:title="void">
<polygon fill="white" stroke="black" points="328.5,-38.5 328.5,-57.5 363.5,-57.5 363.5,-38.5 328.5,-38.5"/>
<text text-anchor="middle" x="346" y="-45.5" font-family="Helvetica,sans-Serif" font-size="10.00">void</text>
</a>
</g>
</g>
<!-- Node1&#45;&gt;Node3 -->
<g id="edge2" class="edge"><title>Node1&#45;&gt;Node3</title>
<path fill="none" stroke="midnightblue" d="M75.6068,-48C137.94,-48 263.262,-48 318.181,-48"/>
<polygon fill="midnightblue" stroke="midnightblue" points="318.485,-51.5001 328.485,-48 318.485,-44.5001 318.485,-51.5001"/>
</g>
<!-- Node4 -->
<g id="node4" class="node"><title>Node4</title>
<g id="a_node4"><a xlink:href="task_8h.html#a978e25460ac35706f9ad30b46d9403d8" target="_top" xlink:title="xTaskIncrementTick">
<polygon fill="white" stroke="black" points="138,-0.5 138,-19.5 244,-19.5 244,-0.5 138,-0.5"/>
<text text-anchor="middle" x="191" y="-7.5" font-family="Helvetica,sans-Serif" font-size="10.00">xTaskIncrementTick</text>
</a>
</g>
</g>
<!-- Node1&#45;&gt;Node4 -->
<g id="edge3" class="edge"><title>Node1&#45;&gt;Node4</title>
<path fill="none" stroke="midnightblue" d="M75.5529,-38.8013C95.5959,-33.7573 120.682,-27.4443 142.255,-22.0152"/>
<polygon fill="midnightblue" stroke="midnightblue" points="143.363,-25.3456 152.207,-19.5109 141.655,-18.5572 143.363,-25.3456"/>
</g>
<!-- Node5 -->
<g id="node5" class="node"><title>Node5</title>
<g id="a_node5"><a xlink:href="list_8h.html#a2eb1558482076fff8cafc63419c2d34a" target="_top" xlink:title="uxListRemove">
<polygon fill="white" stroke="black" points="306,-0.5 306,-19.5 386,-19.5 386,-0.5 306,-0.5"/>
<text text-anchor="middle" x="346" y="-7.5" font-family="Helvetica,sans-Serif" font-size="10.00">uxListRemove</text>
</a>
</g>
</g>
<!-- Node4&#45;&gt;Node5 -->
<g id="edge4" class="edge"><title>Node4&#45;&gt;Node5</title>
<path fill="none" stroke="midnightblue" d="M244.226,-10C260.701,-10 278.852,-10 295.156,-10"/>
<polygon fill="midnightblue" stroke="midnightblue" points="295.568,-13.5001 305.568,-10 295.568,-6.5001 295.568,-13.5001"/>
</g>
<!-- Node4&#45;&gt;Node3 -->
<g id="edge5" class="edge"><title>Node4&#45;&gt;Node3</title>
<path fill="none" stroke="midnightblue" d="M230.608,-19.589C258.061,-26.4073 294.223,-35.3887 318.473,-41.4117"/>
<polygon fill="midnightblue" stroke="midnightblue" points="317.841,-44.8609 328.39,-43.8746 319.528,-38.0673 317.841,-44.8609"/>
</g>
</g>
</svg>
