<?xml version="1.0" encoding="UTF-8" standalone="no"?>
<!DOCTYPE svg PUBLIC "-//W3C//DTD SVG 1.1//EN"
 "http://www.w3.org/Graphics/SVG/1.1/DTD/svg11.dtd">
<!-- Generated by graphviz version 2.30.1 (20130221.2233)
 -->
<!-- Title: MPU_pvPortMalloc Pages: 1 -->
<svg width="628pt" height="113pt"
 viewBox="0.00 0.00 628.00 113.00" xmlns="http://www.w3.org/2000/svg" xmlns:xlink="http://www.w3.org/1999/xlink">
<g id="graph0" class="graph" transform="scale(1 1) rotate(0) translate(4 109)">
<title>MPU_pvPortMalloc</title>
<polygon fill="white" stroke="white" points="-4,5 -4,-109 625,-109 625,5 -4,5"/>
<!-- Node1 -->
<g id="node1" class="node"><title>Node1</title>
<polygon fill="#bfbfbf" stroke="black" points="0,-66.5 0,-85.5 102,-85.5 102,-66.5 0,-66.5"/>
<text text-anchor="middle" x="51" y="-73.5" font-family="Helvetica,sans-Serif" font-size="10.00">MPU_pvPortMalloc</text>
</g>
<!-- Node2 -->
<g id="node2" class="node"><title>Node2</title>
<g id="a_node2"><a xlink:href="_g_c_c_2_a_r_m___c_m3___m_p_u_2port_8c.html#ad5691a9d6fd4c0b9f4e55426dd9a48ad" target="_top" xlink:title="prvRaisePrivilege">
<polygon fill="white" stroke="black" points="138,-85.5 138,-104.5 232,-104.5 232,-85.5 138,-85.5"/>
<text text-anchor="middle" x="185" y="-92.5" font-family="Helvetica,sans-Serif" font-size="10.00">prvRaisePrivilege</text>
</a>
</g>
</g>
<!-- Node1&#45;&gt;Node2 -->
<g id="edge1" class="edge"><title>Node1&#45;&gt;Node2</title>
<path fill="none" stroke="midnightblue" d="M102.28,-83.2373C110.568,-84.4302 119.206,-85.6736 127.631,-86.8863"/>
<polygon fill="midnightblue" stroke="midnightblue" points="127.367,-90.3842 137.763,-88.3447 128.364,-83.4556 127.367,-90.3842"/>
</g>
<!-- Node3 -->
<g id="node3" class="node"><title>Node3</title>
<g id="a_node3"><a xlink:href="_wiz_c_2_p_i_c18_2port_8c.html#a0dc0ff621115a685d59ea38b526ebe89" target="_top" xlink:title="pvPortMalloc">
<polygon fill="white" stroke="black" points="148,-47.5 148,-66.5 222,-66.5 222,-47.5 148,-47.5"/>
<text text-anchor="middle" x="185" y="-54.5" font-family="Helvetica,sans-Serif" font-size="10.00">pvPortMalloc</text>
</a>
</g>
</g>
<!-- Node1&#45;&gt;Node3 -->
<g id="edge2" class="edge"><title>Node1&#45;&gt;Node3</title>
<path fill="none" stroke="midnightblue" d="M102.28,-68.7627C113.883,-67.0926 126.173,-65.3235 137.602,-63.6785"/>
<polygon fill="midnightblue" stroke="midnightblue" points="138.411,-67.0982 147.81,-62.2091 137.414,-60.1696 138.411,-67.0982"/>
</g>
<!-- Node4 -->
<g id="node4" class="node"><title>Node4</title>
<g id="a_node4"><a xlink:href="task_8h.html#a366b302eba79d10b5ee2a3756f0fcc43" target="_top" xlink:title="vTaskSuspendAll">
<polygon fill="white" stroke="black" points="268,-66.5 268,-85.5 362,-85.5 362,-66.5 268,-66.5"/>
<text text-anchor="middle" x="315" y="-73.5" font-family="Helvetica,sans-Serif" font-size="10.00">vTaskSuspendAll</text>
</a>
</g>
</g>
<!-- Node3&#45;&gt;Node4 -->
<g id="edge3" class="edge"><title>Node3&#45;&gt;Node4</title>
<path fill="none" stroke="midnightblue" d="M222.337,-62.3938C233.424,-64.0395 245.882,-65.8887 257.956,-67.681"/>
<polygon fill="midnightblue" stroke="midnightblue" points="257.564,-71.1611 267.97,-69.1674 258.592,-64.237 257.564,-71.1611"/>
</g>
<!-- Node5 -->
<g id="node5" class="node"><title>Node5</title>
<g id="a_node5"><a xlink:href="task_8h.html#a003f8ae6d649225abd030cc76e1c7d0e" target="_top" xlink:title="xTaskResumeAll">
<polygon fill="white" stroke="black" points="269,-28.5 269,-47.5 361,-47.5 361,-28.5 269,-28.5"/>
<text text-anchor="middle" x="315" y="-35.5" font-family="Helvetica,sans-Serif" font-size="10.00">xTaskResumeAll</text>
</a>
</g>
</g>
<!-- Node3&#45;&gt;Node5 -->
<g id="edge4" class="edge"><title>Node3&#45;&gt;Node5</title>
<path fill="none" stroke="midnightblue" d="M222.337,-51.6062C233.655,-49.9262 246.402,-48.0341 258.71,-46.2071"/>
<polygon fill="midnightblue" stroke="midnightblue" points="259.528,-49.6241 268.906,-44.6937 258.5,-42.7 259.528,-49.6241"/>
</g>
<!-- Node6 -->
<g id="node6" class="node"><title>Node6</title>
<g id="a_node6"><a xlink:href="list_8h.html#a2eb1558482076fff8cafc63419c2d34a" target="_top" xlink:title="uxListRemove">
<polygon fill="white" stroke="black" points="540,-47.5 540,-66.5 620,-66.5 620,-47.5 540,-47.5"/>
<text text-anchor="middle" x="580" y="-54.5" font-family="Helvetica,sans-Serif" font-size="10.00">uxListRemove</text>
</a>
</g>
</g>
<!-- Node5&#45;&gt;Node6 -->
<g id="edge5" class="edge"><title>Node5&#45;&gt;Node6</title>
<path fill="none" stroke="midnightblue" d="M349.212,-47.5071C364.011,-51.2716 381.739,-55.1407 398,-57 442.186,-62.0522 492.837,-61.5182 529.299,-60.0304"/>
<polygon fill="midnightblue" stroke="midnightblue" points="529.829,-63.5103 539.662,-59.5665 529.516,-56.5173 529.829,-63.5103"/>
</g>
<!-- Node7 -->
<g id="node7" class="node"><title>Node7</title>
<g id="a_node7"><a xlink:href="_paradigm_2_tern___e_e_2small_2portmacro_8h.html#a14d32f8130d3c0b212cfc751730b5b49" target="_top" xlink:title="void">
<polygon fill="white" stroke="black" points="562.5,-0.5 562.5,-19.5 597.5,-19.5 597.5,-0.5 562.5,-0.5"/>
<text text-anchor="middle" x="580" y="-7.5" font-family="Helvetica,sans-Serif" font-size="10.00">void</text>
</a>
</g>
</g>
<!-- Node5&#45;&gt;Node7 -->
<g id="edge6" class="edge"><title>Node5&#45;&gt;Node7</title>
<path fill="none" stroke="midnightblue" d="M350.858,-28.4792C365.333,-24.9043 382.369,-21.1818 398,-19 452.501,-11.3926 517.02,-9.97916 552.426,-9.84706"/>
<polygon fill="midnightblue" stroke="midnightblue" points="552.438,-13.3472 562.437,-9.84176 552.435,-6.34715 552.438,-13.3472"/>
</g>
<!-- Node8 -->
<g id="node8" class="node"><title>Node8</title>
<g id="a_node8"><a xlink:href="tasks_8c.html#a54f31e9aef0eb7b87e48c7d68ecc84c1" target="_top" xlink:title="xTaskIncrementTick">
<polygon fill="white" stroke="black" points="398,-28.5 398,-47.5 504,-47.5 504,-28.5 398,-28.5"/>
<text text-anchor="middle" x="451" y="-35.5" font-family="Helvetica,sans-Serif" font-size="10.00">xTaskIncrementTick</text>
</a>
</g>
</g>
<!-- Node5&#45;&gt;Node8 -->
<g id="edge7" class="edge"><title>Node5&#45;&gt;Node8</title>
<path fill="none" stroke="midnightblue" d="M361.366,-38C369.77,-38 378.683,-38 387.492,-38"/>
<polygon fill="midnightblue" stroke="midnightblue" points="387.748,-41.5001 397.748,-38 387.748,-34.5001 387.748,-41.5001"/>
</g>
<!-- Node8&#45;&gt;Node7 -->
<g id="edge8" class="edge"><title>Node8&#45;&gt;Node7</title>
<path fill="none" stroke="midnightblue" d="M495.351,-28.4423C514.214,-24.2836 535.722,-19.5415 552.206,-15.9074"/>
<polygon fill="midnightblue" stroke="midnightblue" points="553.222,-19.2675 562.234,-13.6965 551.715,-12.4317 553.222,-19.2675"/>
</g>
<!-- Node8&#45;&gt;Node6 -->
<g id="edge9" class="edge"><title>Node8&#45;&gt;Node6</title>
<path fill="none" stroke="midnightblue" d="M504.022,-45.7828C512.496,-47.0506 521.252,-48.3605 529.659,-49.6183"/>
<polygon fill="midnightblue" stroke="midnightblue" points="529.291,-53.102 539.698,-51.1202 530.326,-46.1791 529.291,-53.102"/>
</g>
</g>
</svg>
