<?xml version="1.0" encoding="UTF-8" standalone="no"?>
<!DOCTYPE svg PUBLIC "-//W3C//DTD SVG 1.1//EN"
 "http://www.w3.org/Graphics/SVG/1.1/DTD/svg11.dtd">
<!-- Generated by graphviz version 2.30.1 (20130221.2233)
 -->
<!-- Title: prvSetupTimerInterrupt Pages: 1 -->
<svg width="268pt" height="104pt"
 viewBox="0.00 0.00 268.00 104.00" xmlns="http://www.w3.org/2000/svg" xmlns:xlink="http://www.w3.org/1999/xlink">
<g id="graph0" class="graph" transform="scale(1 1) rotate(0) translate(4 100)">
<title>prvSetupTimerInterrupt</title>
<polygon fill="white" stroke="white" points="-4,5 -4,-100 265,-100 265,5 -4,5"/>
<!-- Node1 -->
<g id="node1" class="node"><title>Node1</title>
<polygon fill="#bfbfbf" stroke="black" points="0.5,-38.5 0.5,-57.5 119.5,-57.5 119.5,-38.5 0.5,-38.5"/>
<text text-anchor="middle" x="60" y="-45.5" font-family="Helvetica,sans-Serif" font-size="10.00">prvSetupTimerInterrupt</text>
</g>
<!-- Node2 -->
<g id="node2" class="node"><title>Node2</title>
<g id="a_node2"><a xlink:href="_g_c_c_2_i_a32__flat_2port_8c.html#ad1f3f6f4095543774160a3d9676d2852" target="_top" xlink:title="prvSetInterruptGate">
<polygon fill="white" stroke="black" points="156,-76.5 156,-95.5 260,-95.5 260,-76.5 156,-76.5"/>
<text text-anchor="middle" x="208" y="-83.5" font-family="Helvetica,sans-Serif" font-size="10.00">prvSetInterruptGate</text>
</a>
</g>
</g>
<!-- Node1&#45;&gt;Node2 -->
<g id="edge1" class="edge"><title>Node1&#45;&gt;Node2</title>
<path fill="none" stroke="midnightblue" d="M97.842,-57.589C116.848,-62.5358 140.229,-68.6211 160.469,-73.8892"/>
<polygon fill="midnightblue" stroke="midnightblue" points="159.864,-77.3482 170.423,-76.4799 161.627,-70.5739 159.864,-77.3482"/>
</g>
<!-- Node3 -->
<g id="node3" class="node"><title>Node3</title>
<g id="a_node3"><a xlink:href="_g_c_c_2_i_a32__flat_2port_8c.html#a55872590166dadefe3cb12afa147e3c5" target="_top" xlink:title="vPortTimerHandler">
<polygon fill="white" stroke="black" points="158,-38.5 158,-57.5 258,-57.5 258,-38.5 158,-38.5"/>
<text text-anchor="middle" x="208" y="-45.5" font-family="Helvetica,sans-Serif" font-size="10.00">vPortTimerHandler</text>
</a>
</g>
</g>
<!-- Node1&#45;&gt;Node3 -->
<g id="edge2" class="edge"><title>Node1&#45;&gt;Node3</title>
<path fill="none" stroke="midnightblue" d="M119.543,-48C128.765,-48 138.308,-48 147.551,-48"/>
<polygon fill="midnightblue" stroke="midnightblue" points="147.825,-51.5001 157.825,-48 147.825,-44.5001 147.825,-51.5001"/>
</g>
<!-- Node4 -->
<g id="node4" class="node"><title>Node4</title>
<g id="a_node4"><a xlink:href="_g_c_c_2_i_a32__flat_2port_8c.html#a220b88566b1282758d92b6ae16f19fe9" target="_top" xlink:title="vPortYieldCall">
<polygon fill="white" stroke="black" points="168.5,-0.5 168.5,-19.5 247.5,-19.5 247.5,-0.5 168.5,-0.5"/>
<text text-anchor="middle" x="208" y="-7.5" font-family="Helvetica,sans-Serif" font-size="10.00">vPortYieldCall</text>
</a>
</g>
</g>
<!-- Node1&#45;&gt;Node4 -->
<g id="edge3" class="edge"><title>Node1&#45;&gt;Node4</title>
<path fill="none" stroke="midnightblue" d="M97.842,-38.411C116.848,-33.4642 140.229,-27.3789 160.469,-22.1108"/>
<polygon fill="midnightblue" stroke="midnightblue" points="161.627,-25.4261 170.423,-19.5201 159.864,-18.6518 161.627,-25.4261"/>
</g>
</g>
</svg>
