<?xml version="1.0" encoding="UTF-8" standalone="no"?>
<!DOCTYPE svg PUBLIC "-//W3C//DTD SVG 1.1//EN"
 "http://www.w3.org/Graphics/SVG/1.1/DTD/svg11.dtd">
<!-- Generated by graphviz version 2.30.1 (20130221.2233)
 -->
<!-- Title: MPU_vQueueDelete Pages: 1 -->
<svg width="730pt" height="123pt"
 viewBox="0.00 0.00 730.00 123.00" xmlns="http://www.w3.org/2000/svg" xmlns:xlink="http://www.w3.org/1999/xlink">
<g id="graph0" class="graph" transform="scale(1 1) rotate(0) translate(4 119)">
<title>MPU_vQueueDelete</title>
<polygon fill="white" stroke="white" points="-4,5 -4,-119 727,-119 727,5 -4,5"/>
<!-- Node1 -->
<g id="node1" class="node"><title>Node1</title>
<polygon fill="#bfbfbf" stroke="black" points="0,-76.5 0,-95.5 108,-95.5 108,-76.5 0,-76.5"/>
<text text-anchor="middle" x="54" y="-83.5" font-family="Helvetica,sans-Serif" font-size="10.00">MPU_vQueueDelete</text>
</g>
<!-- Node2 -->
<g id="node2" class="node"><title>Node2</title>
<g id="a_node2"><a xlink:href="_g_c_c_2_a_r_m___c_m3___m_p_u_2port_8c.html#ad5691a9d6fd4c0b9f4e55426dd9a48ad" target="_top" xlink:title="prvRaisePrivilege">
<polygon fill="white" stroke="black" points="144,-95.5 144,-114.5 238,-114.5 238,-95.5 144,-95.5"/>
<text text-anchor="middle" x="191" y="-102.5" font-family="Helvetica,sans-Serif" font-size="10.00">prvRaisePrivilege</text>
</a>
</g>
</g>
<!-- Node1&#45;&gt;Node2 -->
<g id="edge1" class="edge"><title>Node1&#45;&gt;Node2</title>
<path fill="none" stroke="midnightblue" d="M108.356,-93.5093C116.634,-94.6744 125.21,-95.8814 133.554,-97.0558"/>
<polygon fill="midnightblue" stroke="midnightblue" points="133.192,-100.539 143.582,-98.4671 134.167,-93.6075 133.192,-100.539"/>
</g>
<!-- Node3 -->
<g id="node3" class="node"><title>Node3</title>
<g id="a_node3"><a xlink:href="queue_8h.html#a707cbcfe3aed6b877b6aa6d9d75a3f22" target="_top" xlink:title="vQueueDelete">
<polygon fill="white" stroke="black" points="151,-57.5 151,-76.5 231,-76.5 231,-57.5 151,-57.5"/>
<text text-anchor="middle" x="191" y="-64.5" font-family="Helvetica,sans-Serif" font-size="10.00">vQueueDelete</text>
</a>
</g>
</g>
<!-- Node1&#45;&gt;Node3 -->
<g id="edge2" class="edge"><title>Node1&#45;&gt;Node3</title>
<path fill="none" stroke="midnightblue" d="M108.356,-78.4907C118.968,-76.997 130.07,-75.4346 140.545,-73.9603"/>
<polygon fill="midnightblue" stroke="midnightblue" points="141.356,-77.3807 150.771,-72.5211 140.381,-70.449 141.356,-77.3807"/>
</g>
<!-- Node4 -->
<g id="node4" class="node"><title>Node4</title>
<g id="a_node4"><a xlink:href="portable_8h.html#a735cd3085bb7ba06ff8e47565bfd7016" target="_top" xlink:title="vPortFree">
<polygon fill="white" stroke="black" points="274,-57.5 274,-76.5 334,-76.5 334,-57.5 274,-57.5"/>
<text text-anchor="middle" x="304" y="-64.5" font-family="Helvetica,sans-Serif" font-size="10.00">vPortFree</text>
</a>
</g>
</g>
<!-- Node3&#45;&gt;Node4 -->
<g id="edge3" class="edge"><title>Node3&#45;&gt;Node4</title>
<path fill="none" stroke="midnightblue" d="M231.134,-67C241.714,-67 253.165,-67 263.751,-67"/>
<polygon fill="midnightblue" stroke="midnightblue" points="263.984,-70.5001 273.984,-67 263.984,-63.5001 263.984,-70.5001"/>
</g>
<!-- Node5 -->
<g id="node5" class="node"><title>Node5</title>
<g id="a_node5"><a xlink:href="_paradigm_2_tern___e_e_2small_2portmacro_8h.html#a14d32f8130d3c0b212cfc751730b5b49" target="_top" xlink:title="void">
<polygon fill="white" stroke="black" points="664.5,-57.5 664.5,-76.5 699.5,-76.5 699.5,-57.5 664.5,-57.5"/>
<text text-anchor="middle" x="682" y="-64.5" font-family="Helvetica,sans-Serif" font-size="10.00">void</text>
</a>
</g>
</g>
<!-- Node4&#45;&gt;Node5 -->
<g id="edge4" class="edge"><title>Node4&#45;&gt;Node5</title>
<path fill="none" stroke="midnightblue" d="M331.189,-76.5007C342.894,-80.264 356.965,-84.1339 370,-86 474.451,-100.953 600.288,-82.0878 654.278,-72.2591"/>
<polygon fill="midnightblue" stroke="midnightblue" points="655.197,-75.6482 664.384,-70.3704 653.911,-68.7673 655.197,-75.6482"/>
</g>
<!-- Node6 -->
<g id="node6" class="node"><title>Node6</title>
<g id="a_node6"><a xlink:href="task_8h.html#a366b302eba79d10b5ee2a3756f0fcc43" target="_top" xlink:title="vTaskSuspendAll">
<polygon fill="white" stroke="black" points="370,-57.5 370,-76.5 464,-76.5 464,-57.5 370,-57.5"/>
<text text-anchor="middle" x="417" y="-64.5" font-family="Helvetica,sans-Serif" font-size="10.00">vTaskSuspendAll</text>
</a>
</g>
</g>
<!-- Node4&#45;&gt;Node6 -->
<g id="edge5" class="edge"><title>Node4&#45;&gt;Node6</title>
<path fill="none" stroke="midnightblue" d="M334.164,-67C342.012,-67 350.776,-67 359.57,-67"/>
<polygon fill="midnightblue" stroke="midnightblue" points="359.855,-70.5001 369.855,-67 359.855,-63.5001 359.855,-70.5001"/>
</g>
<!-- Node7 -->
<g id="node7" class="node"><title>Node7</title>
<g id="a_node7"><a xlink:href="task_8h.html#a003f8ae6d649225abd030cc76e1c7d0e" target="_top" xlink:title="xTaskResumeAll">
<polygon fill="white" stroke="black" points="371,-19.5 371,-38.5 463,-38.5 463,-19.5 371,-19.5"/>
<text text-anchor="middle" x="417" y="-26.5" font-family="Helvetica,sans-Serif" font-size="10.00">xTaskResumeAll</text>
</a>
</g>
</g>
<!-- Node4&#45;&gt;Node7 -->
<g id="edge6" class="edge"><title>Node4&#45;&gt;Node7</title>
<path fill="none" stroke="midnightblue" d="M333.01,-57.411C346.682,-52.7306 363.331,-47.0308 378.118,-41.9685"/>
<polygon fill="midnightblue" stroke="midnightblue" points="379.672,-45.1362 387.999,-38.5859 377.404,-38.5136 379.672,-45.1362"/>
</g>
<!-- Node8 -->
<g id="node8" class="node"><title>Node8</title>
<g id="a_node8"><a xlink:href="list_8h.html#a2eb1558482076fff8cafc63419c2d34a" target="_top" xlink:title="uxListRemove">
<polygon fill="white" stroke="black" points="642,-0.5 642,-19.5 722,-19.5 722,-0.5 642,-0.5"/>
<text text-anchor="middle" x="682" y="-7.5" font-family="Helvetica,sans-Serif" font-size="10.00">uxListRemove</text>
</a>
</g>
</g>
<!-- Node7&#45;&gt;Node8 -->
<g id="edge7" class="edge"><title>Node7&#45;&gt;Node8</title>
<path fill="none" stroke="midnightblue" d="M451.212,-19.4929C466.011,-15.7284 483.739,-11.8593 500,-10 544.186,-4.94785 594.837,-5.48185 631.299,-6.96955"/>
<polygon fill="midnightblue" stroke="midnightblue" points="631.516,-10.4827 641.662,-7.43354 631.829,-3.48968 631.516,-10.4827"/>
</g>
<!-- Node7&#45;&gt;Node5 -->
<g id="edge8" class="edge"><title>Node7&#45;&gt;Node5</title>
<path fill="none" stroke="midnightblue" d="M454.952,-38.5805C468.982,-41.9489 485.156,-45.5108 500,-48 554.503,-57.1393 619.021,-62.6594 654.427,-65.2395"/>
<polygon fill="midnightblue" stroke="midnightblue" points="654.215,-68.7332 664.437,-65.9466 654.708,-61.7506 654.215,-68.7332"/>
</g>
<!-- Node9 -->
<g id="node9" class="node"><title>Node9</title>
<g id="a_node9"><a xlink:href="tasks_8c.html#a54f31e9aef0eb7b87e48c7d68ecc84c1" target="_top" xlink:title="xTaskIncrementTick">
<polygon fill="white" stroke="black" points="500,-19.5 500,-38.5 606,-38.5 606,-19.5 500,-19.5"/>
<text text-anchor="middle" x="553" y="-26.5" font-family="Helvetica,sans-Serif" font-size="10.00">xTaskIncrementTick</text>
</a>
</g>
</g>
<!-- Node7&#45;&gt;Node9 -->
<g id="edge9" class="edge"><title>Node7&#45;&gt;Node9</title>
<path fill="none" stroke="midnightblue" d="M463.366,-29C471.77,-29 480.683,-29 489.492,-29"/>
<polygon fill="midnightblue" stroke="midnightblue" points="489.748,-32.5001 499.748,-29 489.748,-25.5001 489.748,-32.5001"/>
</g>
<!-- Node9&#45;&gt;Node5 -->
<g id="edge10" class="edge"><title>Node9&#45;&gt;Node5</title>
<path fill="none" stroke="midnightblue" d="M586.047,-38.589C607.198,-44.9174 634.576,-53.1093 654.496,-59.0695"/>
<polygon fill="midnightblue" stroke="midnightblue" points="653.576,-62.4477 664.16,-61.9613 655.583,-55.7415 653.576,-62.4477"/>
</g>
<!-- Node9&#45;&gt;Node8 -->
<g id="edge11" class="edge"><title>Node9&#45;&gt;Node8</title>
<path fill="none" stroke="midnightblue" d="M606.022,-21.2172C614.496,-19.9494 623.252,-18.6395 631.659,-17.3817"/>
<polygon fill="midnightblue" stroke="midnightblue" points="632.326,-20.8209 641.698,-15.8798 631.291,-13.898 632.326,-20.8209"/>
</g>
</g>
</svg>
