<?xml version="1.0" encoding="UTF-8" standalone="no"?>
<!DOCTYPE svg PUBLIC "-//W3C//DTD SVG 1.1//EN"
 "http://www.w3.org/Graphics/SVG/1.1/DTD/svg11.dtd">
<!-- Generated by graphviz version 2.30.1 (20130221.2233)
 -->
<!-- Title: MPU_xTaskResumeAll Pages: 1 -->
<svg width="516pt" height="94pt"
 viewBox="0.00 0.00 516.00 94.00" xmlns="http://www.w3.org/2000/svg" xmlns:xlink="http://www.w3.org/1999/xlink">
<g id="graph0" class="graph" transform="scale(1 1) rotate(0) translate(4 90)">
<title>MPU_xTaskResumeAll</title>
<polygon fill="white" stroke="white" points="-4,5 -4,-90 513,-90 513,5 -4,5"/>
<!-- Node1 -->
<g id="node1" class="node"><title>Node1</title>
<polygon fill="#bfbfbf" stroke="black" points="0.5,-47.5 0.5,-66.5 119.5,-66.5 119.5,-47.5 0.5,-47.5"/>
<text text-anchor="middle" x="60" y="-54.5" font-family="Helvetica,sans-Serif" font-size="10.00">MPU_xTaskResumeAll</text>
</g>
<!-- Node2 -->
<g id="node2" class="node"><title>Node2</title>
<g id="a_node2"><a xlink:href="_g_c_c_2_a_r_m___c_m3___m_p_u_2port_8c.html#ad5691a9d6fd4c0b9f4e55426dd9a48ad" target="_top" xlink:title="prvRaisePrivilege">
<polygon fill="white" stroke="black" points="156,-66.5 156,-85.5 250,-85.5 250,-66.5 156,-66.5"/>
<text text-anchor="middle" x="203" y="-73.5" font-family="Helvetica,sans-Serif" font-size="10.00">prvRaisePrivilege</text>
</a>
</g>
</g>
<!-- Node1&#45;&gt;Node2 -->
<g id="edge1" class="edge"><title>Node1&#45;&gt;Node2</title>
<path fill="none" stroke="midnightblue" d="M119.572,-64.8926C128.273,-66.0652 137.224,-67.2713 145.873,-68.4369"/>
<polygon fill="midnightblue" stroke="midnightblue" points="145.478,-71.9151 155.856,-69.782 146.413,-64.9778 145.478,-71.9151"/>
</g>
<!-- Node3 -->
<g id="node3" class="node"><title>Node3</title>
<g id="a_node3"><a xlink:href="task_8h.html#a003f8ae6d649225abd030cc76e1c7d0e" target="_top" xlink:title="xTaskResumeAll">
<polygon fill="white" stroke="black" points="157,-28.5 157,-47.5 249,-47.5 249,-28.5 157,-28.5"/>
<text text-anchor="middle" x="203" y="-35.5" font-family="Helvetica,sans-Serif" font-size="10.00">xTaskResumeAll</text>
</a>
</g>
</g>
<!-- Node1&#45;&gt;Node3 -->
<g id="edge2" class="edge"><title>Node1&#45;&gt;Node3</title>
<path fill="none" stroke="midnightblue" d="M119.572,-49.1074C128.587,-47.8925 137.871,-46.6415 146.81,-45.4369"/>
<polygon fill="midnightblue" stroke="midnightblue" points="147.28,-48.9053 156.723,-44.1012 146.345,-41.968 147.28,-48.9053"/>
</g>
<!-- Node4 -->
<g id="node4" class="node"><title>Node4</title>
<g id="a_node4"><a xlink:href="list_8h.html#a2eb1558482076fff8cafc63419c2d34a" target="_top" xlink:title="uxListRemove">
<polygon fill="white" stroke="black" points="428,-47.5 428,-66.5 508,-66.5 508,-47.5 428,-47.5"/>
<text text-anchor="middle" x="468" y="-54.5" font-family="Helvetica,sans-Serif" font-size="10.00">uxListRemove</text>
</a>
</g>
</g>
<!-- Node3&#45;&gt;Node4 -->
<g id="edge3" class="edge"><title>Node3&#45;&gt;Node4</title>
<path fill="none" stroke="midnightblue" d="M237.212,-47.5071C252.011,-51.2716 269.739,-55.1407 286,-57 330.186,-62.0522 380.837,-61.5182 417.299,-60.0304"/>
<polygon fill="midnightblue" stroke="midnightblue" points="417.829,-63.5103 427.662,-59.5665 417.516,-56.5173 417.829,-63.5103"/>
</g>
<!-- Node5 -->
<g id="node5" class="node"><title>Node5</title>
<g id="a_node5"><a xlink:href="_paradigm_2_tern___e_e_2small_2portmacro_8h.html#a14d32f8130d3c0b212cfc751730b5b49" target="_top" xlink:title="void">
<polygon fill="white" stroke="black" points="450.5,-0.5 450.5,-19.5 485.5,-19.5 485.5,-0.5 450.5,-0.5"/>
<text text-anchor="middle" x="468" y="-7.5" font-family="Helvetica,sans-Serif" font-size="10.00">void</text>
</a>
</g>
</g>
<!-- Node3&#45;&gt;Node5 -->
<g id="edge4" class="edge"><title>Node3&#45;&gt;Node5</title>
<path fill="none" stroke="midnightblue" d="M238.858,-28.4792C253.333,-24.9043 270.369,-21.1818 286,-19 340.501,-11.3926 405.02,-9.97916 440.426,-9.84706"/>
<polygon fill="midnightblue" stroke="midnightblue" points="440.438,-13.3472 450.437,-9.84176 440.435,-6.34715 440.438,-13.3472"/>
</g>
<!-- Node6 -->
<g id="node6" class="node"><title>Node6</title>
<g id="a_node6"><a xlink:href="tasks_8c.html#a54f31e9aef0eb7b87e48c7d68ecc84c1" target="_top" xlink:title="xTaskIncrementTick">
<polygon fill="white" stroke="black" points="286,-28.5 286,-47.5 392,-47.5 392,-28.5 286,-28.5"/>
<text text-anchor="middle" x="339" y="-35.5" font-family="Helvetica,sans-Serif" font-size="10.00">xTaskIncrementTick</text>
</a>
</g>
</g>
<!-- Node3&#45;&gt;Node6 -->
<g id="edge5" class="edge"><title>Node3&#45;&gt;Node6</title>
<path fill="none" stroke="midnightblue" d="M249.366,-38C257.77,-38 266.683,-38 275.492,-38"/>
<polygon fill="midnightblue" stroke="midnightblue" points="275.748,-41.5001 285.748,-38 275.748,-34.5001 275.748,-41.5001"/>
</g>
<!-- Node6&#45;&gt;Node5 -->
<g id="edge6" class="edge"><title>Node6&#45;&gt;Node5</title>
<path fill="none" stroke="midnightblue" d="M383.351,-28.4423C402.214,-24.2836 423.722,-19.5415 440.206,-15.9074"/>
<polygon fill="midnightblue" stroke="midnightblue" points="441.222,-19.2675 450.234,-13.6965 439.715,-12.4317 441.222,-19.2675"/>
</g>
<!-- Node6&#45;&gt;Node4 -->
<g id="edge7" class="edge"><title>Node6&#45;&gt;Node4</title>
<path fill="none" stroke="midnightblue" d="M392.022,-45.7828C400.496,-47.0506 409.252,-48.3605 417.659,-49.6183"/>
<polygon fill="midnightblue" stroke="midnightblue" points="417.291,-53.102 427.698,-51.1202 418.326,-46.1791 417.291,-53.102"/>
</g>
</g>
</svg>
