<?xml version="1.0" encoding="UTF-8" standalone="no"?>
<!DOCTYPE svg PUBLIC "-//W3C//DTD SVG 1.1//EN"
 "http://www.w3.org/Graphics/SVG/1.1/DTD/svg11.dtd">
<!-- Generated by graphviz version 2.30.1 (20130221.2233)
 -->
<!-- Title: vPortSVCHandler Pages: 1 -->
<svg width="414pt" height="28pt"
 viewBox="0.00 0.00 414.00 28.00" xmlns="http://www.w3.org/2000/svg" xmlns:xlink="http://www.w3.org/1999/xlink">
<g id="graph0" class="graph" transform="scale(1 1) rotate(0) translate(4 24)">
<title>vPortSVCHandler</title>
<polygon fill="white" stroke="white" points="-4,5 -4,-24 411,-24 411,5 -4,5"/>
<!-- Node1 -->
<g id="node1" class="node"><title>Node1</title>
<polygon fill="#bfbfbf" stroke="black" points="0.5,-0.5 0.5,-19.5 95.5,-19.5 95.5,-0.5 0.5,-0.5"/>
<text text-anchor="middle" x="48" y="-7.5" font-family="Helvetica,sans-Serif" font-size="10.00">vPortSVCHandler</text>
</g>
<!-- Node2 -->
<g id="node2" class="node"><title>Node2</title>
<g id="a_node2"><a xlink:href="_g_c_c_2_a_r_m___c_m3___m_p_u_2port_8c.html#a00adb57bbbdfe3b9904fe57ac80696ed" target="_top" xlink:title="prvSVCHandler">
<polygon fill="white" stroke="black" points="132,-0.5 132,-19.5 218,-19.5 218,-0.5 132,-0.5"/>
<text text-anchor="middle" x="175" y="-7.5" font-family="Helvetica,sans-Serif" font-size="10.00">prvSVCHandler</text>
</a>
</g>
</g>
<!-- Node1&#45;&gt;Node2 -->
<g id="edge1" class="edge"><title>Node1&#45;&gt;Node2</title>
<path fill="none" stroke="midnightblue" d="M95.5454,-10C104.127,-10 113.138,-10 121.871,-10"/>
<polygon fill="midnightblue" stroke="midnightblue" points="121.953,-13.5001 131.953,-10 121.953,-6.5001 121.953,-13.5001"/>
</g>
<!-- Node3 -->
<g id="node3" class="node"><title>Node3</title>
<g id="a_node3"><a xlink:href="_g_c_c_2_a_r_m___c_m3___m_p_u_2port_8c.html#a00af3f4c1a629c73a5f483ee03b66281" target="_top" xlink:title="prvRestoreContextOfFirstTask">
<polygon fill="white" stroke="black" points="254,-0.5 254,-19.5 406,-19.5 406,-0.5 254,-0.5"/>
<text text-anchor="middle" x="330" y="-7.5" font-family="Helvetica,sans-Serif" font-size="10.00">prvRestoreContextOfFirstTask</text>
</a>
</g>
</g>
<!-- Node2&#45;&gt;Node3 -->
<g id="edge2" class="edge"><title>Node2&#45;&gt;Node3</title>
<path fill="none" stroke="midnightblue" d="M218.213,-10C226.246,-10 234.915,-10 243.742,-10"/>
<polygon fill="midnightblue" stroke="midnightblue" points="243.749,-13.5001 253.749,-10 243.749,-6.5001 243.749,-13.5001"/>
</g>
</g>
</svg>
