<?xml version="1.0" encoding="UTF-8" standalone="no"?>
<!DOCTYPE svg PUBLIC "-//W3C//DTD SVG 1.1//EN"
 "http://www.w3.org/Graphics/SVG/1.1/DTD/svg11.dtd">
<!-- Generated by graphviz version 2.30.1 (20130221.2233)
 -->
<!-- Title: xPortStartScheduler Pages: 1 -->
<svg width="658pt" height="85pt"
 viewBox="0.00 0.00 658.00 85.04" xmlns="http://www.w3.org/2000/svg" xmlns:xlink="http://www.w3.org/1999/xlink">
<g id="graph0" class="graph" transform="scale(1 1) rotate(0) translate(4 81.0449)">
<title>xPortStartScheduler</title>
<polygon fill="white" stroke="white" points="-4,5 -4,-81.0449 655,-81.0449 655,5 -4,5"/>
<!-- Node1 -->
<g id="node1" class="node"><title>Node1</title>
<polygon fill="#bfbfbf" stroke="black" points="0,-19.5449 0,-38.5449 106,-38.5449 106,-19.5449 0,-19.5449"/>
<text text-anchor="middle" x="53" y="-26.5449" font-family="Helvetica,sans-Serif" font-size="10.00">xPortStartScheduler</text>
</g>
<!-- Node2 -->
<g id="node2" class="node"><title>Node2</title>
<g id="a_node2"><a xlink:href="_g_c_c_2_micro_blaze_2port_8c.html#aeb91268bfbb6dc04ff839631ee5c72ba" target="_top" xlink:title="prvSetupTimerInterrupt">
<polygon fill="white" stroke="black" points="142.5,-57.5449 142.5,-76.5449 261.5,-76.5449 261.5,-57.5449 142.5,-57.5449"/>
<text text-anchor="middle" x="202" y="-64.5449" font-family="Helvetica,sans-Serif" font-size="10.00">prvSetupTimerInterrupt</text>
</a>
</g>
</g>
<!-- Node1&#45;&gt;Node2 -->
<g id="edge1" class="edge"><title>Node1&#45;&gt;Node2</title>
<path fill="none" stroke="midnightblue" d="M91.0943,-38.6339C110.318,-43.6032 133.986,-49.7216 154.429,-55.0062"/>
<polygon fill="midnightblue" stroke="midnightblue" points="153.615,-58.4106 164.172,-57.5248 155.367,-51.6334 153.615,-58.4106"/>
</g>
<!-- Node3 -->
<g id="node3" class="node"><title>Node3</title>
<g id="a_node3"><a xlink:href="_wiz_c_2_p_i_c18_2port_8c.html#a0dc0ff621115a685d59ea38b526ebe89" target="_top" xlink:title="pvPortMalloc">
<polygon fill="white" stroke="black" points="165,-19.5449 165,-38.5449 239,-38.5449 239,-19.5449 165,-19.5449"/>
<text text-anchor="middle" x="202" y="-26.5449" font-family="Helvetica,sans-Serif" font-size="10.00">pvPortMalloc</text>
</a>
</g>
</g>
<!-- Node1&#45;&gt;Node3 -->
<g id="edge2" class="edge"><title>Node1&#45;&gt;Node3</title>
<path fill="none" stroke="midnightblue" d="M106.241,-29.0449C121.93,-29.0449 139.034,-29.0449 154.339,-29.0449"/>
<polygon fill="midnightblue" stroke="midnightblue" points="154.607,-32.545 164.607,-29.0449 154.607,-25.545 154.607,-32.545"/>
</g>
<!-- Node7 -->
<g id="node7" class="node"><title>Node7</title>
<g id="a_node7"><a xlink:href="_paradigm_2_tern___e_e_2small_2portmacro_8h.html#a14d32f8130d3c0b212cfc751730b5b49" target="_top" xlink:title="void">
<polygon fill="white" stroke="black" points="592.5,-0.544895 592.5,-19.5449 627.5,-19.5449 627.5,-0.544895 592.5,-0.544895"/>
<text text-anchor="middle" x="610" y="-7.54489" font-family="Helvetica,sans-Serif" font-size="10.00">void</text>
</a>
</g>
</g>
<!-- Node1&#45;&gt;Node7 -->
<g id="edge10" class="edge"><title>Node1&#45;&gt;Node7</title>
<path fill="none" stroke="midnightblue" d="M89.6844,-19.5363C105.574,-15.7715 124.593,-11.9026 142,-10.0449 308.441,7.71852 510.155,-3.16922 581.998,-8.04887"/>
<polygon fill="midnightblue" stroke="midnightblue" points="582.168,-11.5692 592.388,-8.77513 582.656,-4.58626 582.168,-11.5692"/>
</g>
<!-- Node4 -->
<g id="node4" class="node"><title>Node4</title>
<g id="a_node4"><a xlink:href="task_8h.html#a366b302eba79d10b5ee2a3756f0fcc43" target="_top" xlink:title="vTaskSuspendAll">
<polygon fill="white" stroke="black" points="298,-57.5449 298,-76.5449 392,-76.5449 392,-57.5449 298,-57.5449"/>
<text text-anchor="middle" x="345" y="-64.5449" font-family="Helvetica,sans-Serif" font-size="10.00">vTaskSuspendAll</text>
</a>
</g>
</g>
<!-- Node3&#45;&gt;Node4 -->
<g id="edge3" class="edge"><title>Node3&#45;&gt;Node4</title>
<path fill="none" stroke="midnightblue" d="M238.58,-38.6339C256.782,-43.5393 279.138,-49.5645 298.572,-54.802"/>
<polygon fill="midnightblue" stroke="midnightblue" points="297.865,-58.2361 308.431,-57.459 299.686,-51.4773 297.865,-58.2361"/>
</g>
<!-- Node5 -->
<g id="node5" class="node"><title>Node5</title>
<g id="a_node5"><a xlink:href="task_8h.html#a003f8ae6d649225abd030cc76e1c7d0e" target="_top" xlink:title="xTaskResumeAll">
<polygon fill="white" stroke="black" points="299,-19.5449 299,-38.5449 391,-38.5449 391,-19.5449 299,-19.5449"/>
<text text-anchor="middle" x="345" y="-26.5449" font-family="Helvetica,sans-Serif" font-size="10.00">xTaskResumeAll</text>
</a>
</g>
</g>
<!-- Node3&#45;&gt;Node5 -->
<g id="edge4" class="edge"><title>Node3&#45;&gt;Node5</title>
<path fill="none" stroke="midnightblue" d="M239.311,-29.0449C254.38,-29.0449 272.198,-29.0449 288.821,-29.0449"/>
<polygon fill="midnightblue" stroke="midnightblue" points="288.982,-32.545 298.982,-29.0449 288.982,-25.545 288.982,-32.545"/>
</g>
<!-- Node6 -->
<g id="node6" class="node"><title>Node6</title>
<g id="a_node6"><a xlink:href="list_8h.html#a2eb1558482076fff8cafc63419c2d34a" target="_top" xlink:title="uxListRemove">
<polygon fill="white" stroke="black" points="570,-57.5449 570,-76.5449 650,-76.5449 650,-57.5449 570,-57.5449"/>
<text text-anchor="middle" x="610" y="-64.5449" font-family="Helvetica,sans-Serif" font-size="10.00">uxListRemove</text>
</a>
</g>
</g>
<!-- Node5&#45;&gt;Node6 -->
<g id="edge5" class="edge"><title>Node5&#45;&gt;Node6</title>
<path fill="none" stroke="midnightblue" d="M370.537,-38.6806C377.53,-41.5611 385.116,-44.8154 392,-48.0449 408.379,-55.7289 410.439,-62.6951 428,-67.0449 471.633,-77.8527 523.02,-76.5819 559.87,-73.3566"/>
<polygon fill="midnightblue" stroke="midnightblue" points="560.237,-76.8375 569.86,-72.4035 559.572,-69.8692 560.237,-76.8375"/>
</g>
<!-- Node5&#45;&gt;Node7 -->
<g id="edge6" class="edge"><title>Node5&#45;&gt;Node7</title>
<path fill="none" stroke="midnightblue" d="M391.211,-25.7787C446.161,-21.8089 537.103,-15.239 582.089,-11.989"/>
<polygon fill="midnightblue" stroke="midnightblue" points="582.512,-15.4677 592.234,-11.2562 582.007,-8.4859 582.512,-15.4677"/>
</g>
<!-- Node8 -->
<g id="node8" class="node"><title>Node8</title>
<g id="a_node8"><a xlink:href="tasks_8c.html#a54f31e9aef0eb7b87e48c7d68ecc84c1" target="_top" xlink:title="xTaskIncrementTick">
<polygon fill="white" stroke="black" points="428,-38.5449 428,-57.5449 534,-57.5449 534,-38.5449 428,-38.5449"/>
<text text-anchor="middle" x="481" y="-45.5449" font-family="Helvetica,sans-Serif" font-size="10.00">xTaskIncrementTick</text>
</a>
</g>
</g>
<!-- Node5&#45;&gt;Node8 -->
<g id="edge7" class="edge"><title>Node5&#45;&gt;Node8</title>
<path fill="none" stroke="midnightblue" d="M391.366,-35.4774C399.862,-36.682 408.877,-37.9603 417.779,-39.2226"/>
<polygon fill="midnightblue" stroke="midnightblue" points="417.356,-42.6975 427.748,-40.6361 418.339,-35.7668 417.356,-42.6975"/>
</g>
<!-- Node8&#45;&gt;Node7 -->
<g id="edge8" class="edge"><title>Node8&#45;&gt;Node7</title>
<path fill="none" stroke="midnightblue" d="M514.047,-38.4559C535.198,-32.1275 562.576,-23.9356 582.496,-17.9754"/>
<polygon fill="midnightblue" stroke="midnightblue" points="583.583,-21.3034 592.16,-15.0836 581.576,-14.5972 583.583,-21.3034"/>
</g>
<!-- Node8&#45;&gt;Node6 -->
<g id="edge9" class="edge"><title>Node8&#45;&gt;Node6</title>
<path fill="none" stroke="midnightblue" d="M534.022,-55.8277C542.496,-57.0955 551.252,-58.4054 559.659,-59.6632"/>
<polygon fill="midnightblue" stroke="midnightblue" points="559.291,-63.1469 569.698,-61.1651 560.326,-56.224 559.291,-63.1469"/>
</g>
</g>
</svg>
