<?xml version="1.0" encoding="UTF-8" standalone="no"?>
<!DOCTYPE svg PUBLIC "-//W3C//DTD SVG 1.1//EN"
 "http://www.w3.org/Graphics/SVG/1.1/DTD/svg11.dtd">
<!-- Generated by graphviz version 2.30.1 (20130221.2233)
 -->
<!-- Title: MPU_xQueueGenericReset Pages: 1 -->
<svg width="674pt" height="142pt"
 viewBox="0.00 0.00 674.00 142.00" xmlns="http://www.w3.org/2000/svg" xmlns:xlink="http://www.w3.org/1999/xlink">
<g id="graph0" class="graph" transform="scale(1 1) rotate(0) translate(4 138)">
<title>MPU_xQueueGenericReset</title>
<polygon fill="white" stroke="white" points="-4,5 -4,-138 671,-138 671,5 -4,5"/>
<!-- Node1 -->
<g id="node1" class="node"><title>Node1</title>
<polygon fill="#bfbfbf" stroke="black" points="0,-95.5 0,-114.5 140,-114.5 140,-95.5 0,-95.5"/>
<text text-anchor="middle" x="70" y="-102.5" font-family="Helvetica,sans-Serif" font-size="10.00">MPU_xQueueGenericReset</text>
</g>
<!-- Node2 -->
<g id="node2" class="node"><title>Node2</title>
<g id="a_node2"><a xlink:href="_g_c_c_2_a_r_m___c_m3___m_p_u_2port_8c.html#ad5691a9d6fd4c0b9f4e55426dd9a48ad" target="_top" xlink:title="prvRaisePrivilege">
<polygon fill="white" stroke="black" points="186,-114.5 186,-133.5 280,-133.5 280,-114.5 186,-114.5"/>
<text text-anchor="middle" x="233" y="-121.5" font-family="Helvetica,sans-Serif" font-size="10.00">prvRaisePrivilege</text>
</a>
</g>
</g>
<!-- Node1&#45;&gt;Node2 -->
<g id="edge1" class="edge"><title>Node1&#45;&gt;Node2</title>
<path fill="none" stroke="midnightblue" d="M140.213,-113.168C151.958,-114.554 164.031,-115.979 175.403,-117.321"/>
<polygon fill="midnightblue" stroke="midnightblue" points="175.28,-120.831 185.621,-118.527 176.1,-113.879 175.28,-120.831"/>
</g>
<!-- Node3 -->
<g id="node3" class="node"><title>Node3</title>
<g id="a_node3"><a xlink:href="queue_8h.html#a3c13a9fe455ec2d35b5f8386a1040599" target="_top" xlink:title="xQueueGenericReset">
<polygon fill="white" stroke="black" points="176.5,-76.5 176.5,-95.5 289.5,-95.5 289.5,-76.5 176.5,-76.5"/>
<text text-anchor="middle" x="233" y="-83.5" font-family="Helvetica,sans-Serif" font-size="10.00">xQueueGenericReset</text>
</a>
</g>
</g>
<!-- Node1&#45;&gt;Node3 -->
<g id="edge2" class="edge"><title>Node1&#45;&gt;Node3</title>
<path fill="none" stroke="midnightblue" d="M140.213,-96.832C148.911,-95.8055 157.789,-94.7578 166.429,-93.7381"/>
<polygon fill="midnightblue" stroke="midnightblue" points="166.917,-97.205 176.438,-92.557 166.097,-90.2532 166.917,-97.205"/>
</g>
<!-- Node4 -->
<g id="node4" class="node"><title>Node4</title>
<g id="a_node4"><a xlink:href="list_8h.html#adeef7734d7d6d9a3eea642a70c106919" target="_top" xlink:title="vListInitialise">
<polygon fill="white" stroke="black" points="362.5,-95.5 362.5,-114.5 435.5,-114.5 435.5,-95.5 362.5,-95.5"/>
<text text-anchor="middle" x="399" y="-102.5" font-family="Helvetica,sans-Serif" font-size="10.00">vListInitialise</text>
</a>
</g>
</g>
<!-- Node3&#45;&gt;Node4 -->
<g id="edge3" class="edge"><title>Node3&#45;&gt;Node4</title>
<path fill="none" stroke="midnightblue" d="M289.523,-92.4325C309.845,-94.7869 332.598,-97.4229 351.997,-99.6704"/>
<polygon fill="midnightblue" stroke="midnightblue" points="351.762,-103.166 362.098,-100.841 352.567,-96.213 351.762,-103.166"/>
</g>
<!-- Node5 -->
<g id="node5" class="node"><title>Node5</title>
<g id="a_node5"><a xlink:href="task_8h.html#a14513b7dd36055f73fba3c5ebbdc1b06" target="_top" xlink:title="xTaskRemoveFromEventList">
<polygon fill="white" stroke="black" points="326.5,-57.5 326.5,-76.5 471.5,-76.5 471.5,-57.5 326.5,-57.5"/>
<text text-anchor="middle" x="399" y="-64.5" font-family="Helvetica,sans-Serif" font-size="10.00">xTaskRemoveFromEventList</text>
</a>
</g>
</g>
<!-- Node3&#45;&gt;Node5 -->
<g id="edge4" class="edge"><title>Node3&#45;&gt;Node5</title>
<path fill="none" stroke="midnightblue" d="M289.523,-79.5675C298.097,-78.5741 307.105,-77.5306 316.11,-76.4872"/>
<polygon fill="midnightblue" stroke="midnightblue" points="316.723,-79.9398 326.254,-75.3121 315.917,-72.9863 316.723,-79.9398"/>
</g>
<!-- Node6 -->
<g id="node6" class="node"><title>Node6</title>
<g id="a_node6"><a xlink:href="tasks_8c.html#ad1b2e4995f863a99cf980836efe330d7" target="_top" xlink:title="prvResetNextTaskUnblockTime">
<polygon fill="white" stroke="black" points="508.5,-114.5 508.5,-133.5 665.5,-133.5 665.5,-114.5 508.5,-114.5"/>
<text text-anchor="middle" x="587" y="-121.5" font-family="Helvetica,sans-Serif" font-size="10.00">prvResetNextTaskUnblockTime</text>
</a>
</g>
</g>
<!-- Node5&#45;&gt;Node6 -->
<g id="edge5" class="edge"><title>Node5&#45;&gt;Node6</title>
<path fill="none" stroke="midnightblue" d="M442.774,-76.5728C452.517,-79.2236 462.726,-82.3835 472,-86 488.855,-92.5728 491.083,-98.5882 508,-105 514.72,-107.547 521.897,-109.839 529.075,-111.875"/>
<polygon fill="midnightblue" stroke="midnightblue" points="528.255,-115.278 538.821,-114.493 530.071,-108.518 528.255,-115.278"/>
</g>
<!-- Node7 -->
<g id="node7" class="node"><title>Node7</title>
<g id="a_node7"><a xlink:href="list_8h.html#a2eb1558482076fff8cafc63419c2d34a" target="_top" xlink:title="uxListRemove">
<polygon fill="white" stroke="black" points="547,-76.5 547,-95.5 627,-95.5 627,-76.5 547,-76.5"/>
<text text-anchor="middle" x="587" y="-83.5" font-family="Helvetica,sans-Serif" font-size="10.00">uxListRemove</text>
</a>
</g>
</g>
<!-- Node5&#45;&gt;Node7 -->
<g id="edge6" class="edge"><title>Node5&#45;&gt;Node7</title>
<path fill="none" stroke="midnightblue" d="M471.646,-74.3187C493.433,-76.5442 516.873,-78.9386 536.824,-80.9766"/>
<polygon fill="midnightblue" stroke="midnightblue" points="536.608,-84.4727 546.912,-82.0071 537.319,-77.5089 536.608,-84.4727"/>
</g>
<!-- Node8 -->
<g id="node8" class="node"><title>Node8</title>
<g id="a_node8"><a xlink:href="list_8h.html#a71a6a6099b3cbd8f90539aabe5c9e572" target="_top" xlink:title="vListInsertEnd">
<polygon fill="white" stroke="black" points="547,-38.5 547,-57.5 627,-57.5 627,-38.5 547,-38.5"/>
<text text-anchor="middle" x="587" y="-45.5" font-family="Helvetica,sans-Serif" font-size="10.00">vListInsertEnd</text>
</a>
</g>
</g>
<!-- Node5&#45;&gt;Node8 -->
<g id="edge7" class="edge"><title>Node5&#45;&gt;Node8</title>
<path fill="none" stroke="midnightblue" d="M471.646,-59.6813C493.433,-57.4558 516.873,-55.0614 536.824,-53.0234"/>
<polygon fill="midnightblue" stroke="midnightblue" points="537.319,-56.4911 546.912,-51.9929 536.608,-49.5273 537.319,-56.4911"/>
</g>
<!-- Node9 -->
<g id="node9" class="node"><title>Node9</title>
<g id="a_node9"><a xlink:href="_paradigm_2_tern___e_e_2small_2portmacro_8h.html#a14d32f8130d3c0b212cfc751730b5b49" target="_top" xlink:title="void">
<polygon fill="white" stroke="black" points="569.5,-0.5 569.5,-19.5 604.5,-19.5 604.5,-0.5 569.5,-0.5"/>
<text text-anchor="middle" x="587" y="-7.5" font-family="Helvetica,sans-Serif" font-size="10.00">void</text>
</a>
</g>
</g>
<!-- Node5&#45;&gt;Node9 -->
<g id="edge8" class="edge"><title>Node5&#45;&gt;Node9</title>
<path fill="none" stroke="midnightblue" d="M425.081,-57.3776C446.823,-49.2288 479.228,-37.5431 508,-29 525.044,-23.9393 544.469,-19.2045 559.67,-15.7272"/>
<polygon fill="midnightblue" stroke="midnightblue" points="560.449,-19.1396 569.439,-13.5323 558.914,-12.3099 560.449,-19.1396"/>
</g>
</g>
</svg>
