<?xml version="1.0" encoding="UTF-8" standalone="no"?>
<!DOCTYPE svg PUBLIC "-//W3C//DTD SVG 1.1//EN"
 "http://www.w3.org/Graphics/SVG/1.1/DTD/svg11.dtd">
<!-- Generated by graphviz version 2.30.1 (20130221.2233)
 -->
<!-- Title: __malloc_unlock Pages: 1 -->
<svg width="486pt" height="75pt"
 viewBox="0.00 0.00 486.00 75.00" xmlns="http://www.w3.org/2000/svg" xmlns:xlink="http://www.w3.org/1999/xlink">
<g id="graph0" class="graph" transform="scale(1 1) rotate(0) translate(4 71)">
<title>__malloc_unlock</title>
<polygon fill="white" stroke="white" points="-4,5 -4,-71 483,-71 483,5 -4,5"/>
<!-- Node1 -->
<g id="node1" class="node"><title>Node1</title>
<polygon fill="#bfbfbf" stroke="black" points="0.5,-28.5 0.5,-47.5 91.5,-47.5 91.5,-28.5 0.5,-28.5"/>
<text text-anchor="middle" x="46" y="-35.5" font-family="Helvetica,sans-Serif" font-size="10.00">__malloc_unlock</text>
</g>
<!-- Node2 -->
<g id="node2" class="node"><title>Node2</title>
<g id="a_node2"><a xlink:href="task_8h.html#a003f8ae6d649225abd030cc76e1c7d0e" target="_top" xlink:title="xTaskResumeAll">
<polygon fill="white" stroke="black" points="128,-28.5 128,-47.5 220,-47.5 220,-28.5 128,-28.5"/>
<text text-anchor="middle" x="174" y="-35.5" font-family="Helvetica,sans-Serif" font-size="10.00">xTaskResumeAll</text>
</a>
</g>
</g>
<!-- Node1&#45;&gt;Node2 -->
<g id="edge1" class="edge"><title>Node1&#45;&gt;Node2</title>
<path fill="none" stroke="midnightblue" d="M91.7777,-38C100.217,-38 109.134,-38 117.847,-38"/>
<polygon fill="midnightblue" stroke="midnightblue" points="117.942,-41.5001 127.942,-38 117.942,-34.5001 117.942,-41.5001"/>
</g>
<!-- Node3 -->
<g id="node3" class="node"><title>Node3</title>
<g id="a_node3"><a xlink:href="list_8h.html#a2eb1558482076fff8cafc63419c2d34a" target="_top" xlink:title="uxListRemove">
<polygon fill="white" stroke="black" points="398,-47.5 398,-66.5 478,-66.5 478,-47.5 398,-47.5"/>
<text text-anchor="middle" x="438" y="-54.5" font-family="Helvetica,sans-Serif" font-size="10.00">uxListRemove</text>
</a>
</g>
</g>
<!-- Node2&#45;&gt;Node3 -->
<g id="edge2" class="edge"><title>Node2&#45;&gt;Node3</title>
<path fill="none" stroke="midnightblue" d="M207.8,-47.5069C222.417,-51.2713 239.93,-55.1405 256,-57 300.179,-62.1121 350.83,-61.5718 387.295,-60.0664"/>
<polygon fill="midnightblue" stroke="midnightblue" points="387.827,-63.546 397.659,-59.5969 387.511,-56.5531 387.827,-63.546"/>
</g>
<!-- Node4 -->
<g id="node4" class="node"><title>Node4</title>
<g id="a_node4"><a xlink:href="_paradigm_2_tern___e_e_2small_2portmacro_8h.html#a14d32f8130d3c0b212cfc751730b5b49" target="_top" xlink:title="void">
<polygon fill="white" stroke="black" points="420.5,-0.5 420.5,-19.5 455.5,-19.5 455.5,-0.5 420.5,-0.5"/>
<text text-anchor="middle" x="438" y="-7.5" font-family="Helvetica,sans-Serif" font-size="10.00">void</text>
</a>
</g>
</g>
<!-- Node2&#45;&gt;Node4 -->
<g id="edge3" class="edge"><title>Node2&#45;&gt;Node4</title>
<path fill="none" stroke="midnightblue" d="M209.426,-28.4749C223.723,-24.8993 240.553,-21.1775 256,-19 310.491,-11.3187 375.013,-9.93232 410.423,-9.8248"/>
<polygon fill="midnightblue" stroke="midnightblue" points="410.434,-13.3247 420.434,-9.82694 410.435,-6.32471 410.434,-13.3247"/>
</g>
<!-- Node5 -->
<g id="node5" class="node"><title>Node5</title>
<g id="a_node5"><a xlink:href="tasks_8c.html#a54f31e9aef0eb7b87e48c7d68ecc84c1" target="_top" xlink:title="xTaskIncrementTick">
<polygon fill="white" stroke="black" points="256,-28.5 256,-47.5 362,-47.5 362,-28.5 256,-28.5"/>
<text text-anchor="middle" x="309" y="-35.5" font-family="Helvetica,sans-Serif" font-size="10.00">xTaskIncrementTick</text>
</a>
</g>
</g>
<!-- Node2&#45;&gt;Node5 -->
<g id="edge4" class="edge"><title>Node2&#45;&gt;Node5</title>
<path fill="none" stroke="midnightblue" d="M220.028,-38C228.261,-38 236.986,-38 245.618,-38"/>
<polygon fill="midnightblue" stroke="midnightblue" points="245.674,-41.5001 255.674,-38 245.673,-34.5001 245.674,-41.5001"/>
</g>
<!-- Node5&#45;&gt;Node4 -->
<g id="edge5" class="edge"><title>Node5&#45;&gt;Node4</title>
<path fill="none" stroke="midnightblue" d="M353.351,-28.4423C372.214,-24.2836 393.722,-19.5415 410.206,-15.9074"/>
<polygon fill="midnightblue" stroke="midnightblue" points="411.222,-19.2675 420.234,-13.6965 409.715,-12.4317 411.222,-19.2675"/>
</g>
<!-- Node5&#45;&gt;Node3 -->
<g id="edge6" class="edge"><title>Node5&#45;&gt;Node3</title>
<path fill="none" stroke="midnightblue" d="M362.022,-45.7828C370.496,-47.0506 379.252,-48.3605 387.659,-49.6183"/>
<polygon fill="midnightblue" stroke="midnightblue" points="387.291,-53.102 397.698,-51.1202 388.326,-46.1791 387.291,-53.102"/>
</g>
</g>
</svg>
