<?xml version="1.0" encoding="UTF-8" standalone="no"?>
<!DOCTYPE svg PUBLIC "-//W3C//DTD SVG 1.1//EN"
 "http://www.w3.org/Graphics/SVG/1.1/DTD/svg11.dtd">
<!-- Generated by graphviz version 2.30.1 (20130221.2233)
 -->
<!-- Title: xPortStartScheduler Pages: 1 -->
<svg width="282pt" height="104pt"
 viewBox="0.00 0.00 282.00 104.00" xmlns="http://www.w3.org/2000/svg" xmlns:xlink="http://www.w3.org/1999/xlink">
<g id="graph0" class="graph" transform="scale(1 1) rotate(0) translate(4 100)">
<title>xPortStartScheduler</title>
<polygon fill="white" stroke="white" points="-4,5 -4,-100 279,-100 279,5 -4,5"/>
<!-- Node1 -->
<g id="node1" class="node"><title>Node1</title>
<polygon fill="#bfbfbf" stroke="black" points="0,-38.5 0,-57.5 106,-57.5 106,-38.5 0,-38.5"/>
<text text-anchor="middle" x="53" y="-45.5" font-family="Helvetica,sans-Serif" font-size="10.00">xPortStartScheduler</text>
</g>
<!-- Node2 -->
<g id="node2" class="node"><title>Node2</title>
<g id="a_node2"><a xlink:href="_g_c_c_2_a_r_m___c_r5_2port_8c.html#a813e8227aedfc6bd83c66c4a9b8e4f41" target="_top" xlink:title="prvTaskExitError">
<polygon fill="white" stroke="black" points="162.5,-76.5 162.5,-95.5 253.5,-95.5 253.5,-76.5 162.5,-76.5"/>
<text text-anchor="middle" x="208" y="-83.5" font-family="Helvetica,sans-Serif" font-size="10.00">prvTaskExitError</text>
</a>
</g>
</g>
<!-- Node1&#45;&gt;Node2 -->
<g id="edge1" class="edge"><title>Node1&#45;&gt;Node2</title>
<path fill="none" stroke="midnightblue" d="M92.6084,-57.589C112.707,-62.5809 137.475,-68.7324 158.819,-74.0334"/>
<polygon fill="midnightblue" stroke="midnightblue" points="158.12,-77.4662 168.669,-76.4799 159.808,-70.6726 158.12,-77.4662"/>
</g>
<!-- Node3 -->
<g id="node3" class="node"><title>Node3</title>
<g id="a_node3"><a xlink:href="_paradigm_2_tern___e_e_2small_2portmacro_8h.html#a14d32f8130d3c0b212cfc751730b5b49" target="_top" xlink:title="void">
<polygon fill="white" stroke="black" points="190.5,-38.5 190.5,-57.5 225.5,-57.5 225.5,-38.5 190.5,-38.5"/>
<text text-anchor="middle" x="208" y="-45.5" font-family="Helvetica,sans-Serif" font-size="10.00">void</text>
</a>
</g>
</g>
<!-- Node1&#45;&gt;Node3 -->
<g id="edge2" class="edge"><title>Node1&#45;&gt;Node3</title>
<path fill="none" stroke="midnightblue" d="M106.226,-48C131.175,-48 159.967,-48 180.371,-48"/>
<polygon fill="midnightblue" stroke="midnightblue" points="180.488,-51.5001 190.488,-48 180.488,-44.5001 180.488,-51.5001"/>
</g>
<!-- Node4 -->
<g id="node4" class="node"><title>Node4</title>
<g id="a_node4"><a xlink:href="_g_c_c_2_a_r_m___c_a9_2port_8c.html#a222aec9e4494ebf3fdbda864b5cb3a4b" target="_top" xlink:title="vPortRestoreTaskContext">
<polygon fill="white" stroke="black" points="142.5,-0.5 142.5,-19.5 273.5,-19.5 273.5,-0.5 142.5,-0.5"/>
<text text-anchor="middle" x="208" y="-7.5" font-family="Helvetica,sans-Serif" font-size="10.00">vPortRestoreTaskContext</text>
</a>
</g>
</g>
<!-- Node1&#45;&gt;Node4 -->
<g id="edge3" class="edge"><title>Node1&#45;&gt;Node4</title>
<path fill="none" stroke="midnightblue" d="M92.6084,-38.411C112.707,-33.4191 137.475,-27.2676 158.819,-21.9666"/>
<polygon fill="midnightblue" stroke="midnightblue" points="159.808,-25.3274 168.669,-19.5201 158.12,-18.5338 159.808,-25.3274"/>
</g>
</g>
</svg>
