<?xml version="1.0" encoding="UTF-8" standalone="no"?>
<!DOCTYPE svg PUBLIC "-//W3C//DTD SVG 1.1//EN"
 "http://www.w3.org/Graphics/SVG/1.1/DTD/svg11.dtd">
<!-- Generated by graphviz version 2.30.1 (20130221.2233)
 -->
<!-- Title: xPortStartScheduler Pages: 1 -->
<svg width="676pt" height="104pt"
 viewBox="0.00 0.00 676.00 104.00" xmlns="http://www.w3.org/2000/svg" xmlns:xlink="http://www.w3.org/1999/xlink">
<g id="graph0" class="graph" transform="scale(1 1) rotate(0) translate(4 100)">
<title>xPortStartScheduler</title>
<polygon fill="white" stroke="white" points="-4,5 -4,-100 673,-100 673,5 -4,5"/>
<!-- Node1 -->
<g id="node1" class="node"><title>Node1</title>
<polygon fill="#bfbfbf" stroke="black" points="0,-57.5 0,-76.5 106,-76.5 106,-57.5 0,-57.5"/>
<text text-anchor="middle" x="53" y="-64.5" font-family="Helvetica,sans-Serif" font-size="10.00">xPortStartScheduler</text>
</g>
<!-- Node2 -->
<g id="node2" class="node"><title>Node2</title>
<g id="a_node2"><a xlink:href="_g_c_c_2_nios_i_i_2port_8c.html#a397ed34de04a678dc71217c713763423" target="_top" xlink:title="prvSetupTimerInterrupt">
<polygon fill="white" stroke="black" points="142.5,-57.5 142.5,-76.5 261.5,-76.5 261.5,-57.5 142.5,-57.5"/>
<text text-anchor="middle" x="202" y="-64.5" font-family="Helvetica,sans-Serif" font-size="10.00">prvSetupTimerInterrupt</text>
</a>
</g>
</g>
<!-- Node1&#45;&gt;Node2 -->
<g id="edge1" class="edge"><title>Node1&#45;&gt;Node2</title>
<path fill="none" stroke="midnightblue" d="M106.241,-67C114.663,-67 123.493,-67 132.234,-67"/>
<polygon fill="midnightblue" stroke="midnightblue" points="132.423,-70.5001 142.423,-67 132.423,-63.5001 132.423,-70.5001"/>
</g>
<!-- Node3 -->
<g id="node3" class="node"><title>Node3</title>
<g id="a_node3"><a xlink:href="_g_c_c_2_nios_i_i_2port_8c.html#a4e6cf52f2584041266c71bea630cd84e" target="_top" xlink:title="alt_irq_register">
<polygon fill="white" stroke="black" points="311.5,-76.5 311.5,-95.5 394.5,-95.5 394.5,-76.5 311.5,-76.5"/>
<text text-anchor="middle" x="353" y="-83.5" font-family="Helvetica,sans-Serif" font-size="10.00">alt_irq_register</text>
</a>
</g>
</g>
<!-- Node2&#45;&gt;Node3 -->
<g id="edge2" class="edge"><title>Node2&#45;&gt;Node3</title>
<path fill="none" stroke="midnightblue" d="M261.889,-74.5093C274.983,-76.179 288.75,-77.9346 301.473,-79.557"/>
<polygon fill="midnightblue" stroke="midnightblue" points="301.058,-83.0323 311.42,-80.8254 301.944,-76.0885 301.058,-83.0323"/>
</g>
<!-- Node4 -->
<g id="node4" class="node"><title>Node4</title>
<g id="a_node4"><a xlink:href="_g_c_c_2_nios_i_i_2port_8c.html#aba3499e1ee02f7effadcdda992d7c17f" target="_top" xlink:title="vPortSysTickHandler">
<polygon fill="white" stroke="black" points="298,-38.5 298,-57.5 408,-57.5 408,-38.5 298,-38.5"/>
<text text-anchor="middle" x="353" y="-45.5" font-family="Helvetica,sans-Serif" font-size="10.00">vPortSysTickHandler</text>
</a>
</g>
</g>
<!-- Node2&#45;&gt;Node4 -->
<g id="edge3" class="edge"><title>Node2&#45;&gt;Node4</title>
<path fill="none" stroke="midnightblue" d="M261.889,-59.4907C270.425,-58.4022 279.247,-57.2772 287.88,-56.1764"/>
<polygon fill="midnightblue" stroke="midnightblue" points="288.421,-59.6358 297.898,-54.8989 287.536,-52.692 288.421,-59.6358"/>
</g>
<!-- Node5 -->
<g id="node5" class="node"><title>Node5</title>
<g id="a_node5"><a xlink:href="_renesas_2_r_x100_2port_8c.html#a9c86137bc3c1cbffc39fff22627cb885" target="_top" xlink:title="vTaskSwitchContext">
<polygon fill="white" stroke="black" points="444.5,-57.5 444.5,-76.5 551.5,-76.5 551.5,-57.5 444.5,-57.5"/>
<text text-anchor="middle" x="498" y="-64.5" font-family="Helvetica,sans-Serif" font-size="10.00">vTaskSwitchContext</text>
</a>
</g>
</g>
<!-- Node4&#45;&gt;Node5 -->
<g id="edge4" class="edge"><title>Node4&#45;&gt;Node5</title>
<path fill="none" stroke="midnightblue" d="M408.062,-55.1831C416.589,-56.3161 425.469,-57.4959 434.174,-58.6525"/>
<polygon fill="midnightblue" stroke="midnightblue" points="433.908,-62.1478 444.282,-59.9955 434.83,-55.2088 433.908,-62.1478"/>
</g>
<!-- Node6 -->
<g id="node6" class="node"><title>Node6</title>
<g id="a_node6"><a xlink:href="task_8h.html#a978e25460ac35706f9ad30b46d9403d8" target="_top" xlink:title="xTaskIncrementTick">
<polygon fill="white" stroke="black" points="445,-19.5 445,-38.5 551,-38.5 551,-19.5 445,-19.5"/>
<text text-anchor="middle" x="498" y="-26.5" font-family="Helvetica,sans-Serif" font-size="10.00">xTaskIncrementTick</text>
</a>
</g>
</g>
<!-- Node4&#45;&gt;Node6 -->
<g id="edge5" class="edge"><title>Node4&#45;&gt;Node6</title>
<path fill="none" stroke="midnightblue" d="M408.062,-40.8169C416.797,-39.6564 425.901,-38.4467 434.81,-37.263"/>
<polygon fill="midnightblue" stroke="midnightblue" points="435.302,-40.7285 444.754,-35.9418 434.38,-33.7894 435.302,-40.7285"/>
</g>
<!-- Node7 -->
<g id="node7" class="node"><title>Node7</title>
<g id="a_node7"><a xlink:href="list_8h.html#a2eb1558482076fff8cafc63419c2d34a" target="_top" xlink:title="uxListRemove">
<polygon fill="white" stroke="black" points="588,-38.5 588,-57.5 668,-57.5 668,-38.5 588,-38.5"/>
<text text-anchor="middle" x="628" y="-45.5" font-family="Helvetica,sans-Serif" font-size="10.00">uxListRemove</text>
</a>
</g>
</g>
<!-- Node6&#45;&gt;Node7 -->
<g id="edge6" class="edge"><title>Node6&#45;&gt;Node7</title>
<path fill="none" stroke="midnightblue" d="M551.062,-36.728C559.918,-38.0424 569.089,-39.4038 577.865,-40.7065"/>
<polygon fill="midnightblue" stroke="midnightblue" points="577.538,-44.1963 587.944,-42.2026 578.566,-37.2722 577.538,-44.1963"/>
</g>
<!-- Node8 -->
<g id="node8" class="node"><title>Node8</title>
<g id="a_node8"><a xlink:href="_paradigm_2_tern___e_e_2small_2portmacro_8h.html#a14d32f8130d3c0b212cfc751730b5b49" target="_top" xlink:title="void">
<polygon fill="white" stroke="black" points="610.5,-0.5 610.5,-19.5 645.5,-19.5 645.5,-0.5 610.5,-0.5"/>
<text text-anchor="middle" x="628" y="-7.5" font-family="Helvetica,sans-Serif" font-size="10.00">void</text>
</a>
</g>
</g>
<!-- Node6&#45;&gt;Node8 -->
<g id="edge7" class="edge"><title>Node6&#45;&gt;Node8</title>
<path fill="none" stroke="midnightblue" d="M551.062,-21.272C567.94,-18.7667 585.966,-16.0911 600.218,-13.9755"/>
<polygon fill="midnightblue" stroke="midnightblue" points="600.921,-17.4095 610.299,-12.479 599.894,-10.4853 600.921,-17.4095"/>
</g>
</g>
</svg>
