<?xml version="1.0" encoding="UTF-8" standalone="no"?>
<!DOCTYPE svg PUBLIC "-//W3C//DTD SVG 1.1//EN"
 "http://www.w3.org/Graphics/SVG/1.1/DTD/svg11.dtd">
<!-- Generated by graphviz version 2.30.1 (20130221.2233)
 -->
<!-- Title: vPortTickInterrupt Pages: 1 -->
<svg width="392pt" height="161pt"
 viewBox="0.00 0.00 392.00 161.00" xmlns="http://www.w3.org/2000/svg" xmlns:xlink="http://www.w3.org/1999/xlink">
<g id="graph0" class="graph" transform="scale(1 1) rotate(0) translate(4 157)">
<title>vPortTickInterrupt</title>
<polygon fill="white" stroke="white" points="-4,5 -4,-157 389,-157 389,5 -4,5"/>
<!-- Node1 -->
<g id="node1" class="node"><title>Node1</title>
<polygon fill="#bfbfbf" stroke="black" points="0.5,-76.5 0.5,-95.5 95.5,-95.5 95.5,-76.5 0.5,-76.5"/>
<text text-anchor="middle" x="48" y="-83.5" font-family="Helvetica,sans-Serif" font-size="10.00">vPortTickInterrupt</text>
</g>
<!-- Node2 -->
<g id="node2" class="node"><title>Node2</title>
<g id="a_node2"><a xlink:href="_i_a_r_2_v850_e_s_2portmacro_8h.html#a716d176e9130fa97ac875a31e7453605" target="_top" xlink:title="portRESTORE_CONTEXT">
<polygon fill="white" stroke="black" points="132.5,-133.5 132.5,-152.5 267.5,-152.5 267.5,-133.5 132.5,-133.5"/>
<text text-anchor="middle" x="200" y="-140.5" font-family="Helvetica,sans-Serif" font-size="10.00">portRESTORE_CONTEXT</text>
</a>
</g>
</g>
<!-- Node1&#45;&gt;Node2 -->
<g id="edge1" class="edge"><title>Node1&#45;&gt;Node2</title>
<path fill="none" stroke="midnightblue" d="M67.7727,-95.5974C84.3725,-103.84 109.395,-115.676 132,-124 138.327,-126.33 145.077,-128.546 151.765,-130.588"/>
<polygon fill="midnightblue" stroke="midnightblue" points="150.882,-133.977 161.463,-133.448 152.862,-127.262 150.882,-133.977"/>
</g>
<!-- Node3 -->
<g id="node3" class="node"><title>Node3</title>
<g id="a_node3"><a xlink:href="_i_a_r_2_v850_e_s_2portmacro_8h.html#ad79a8b96e1489f7f0645e8d57360337d" target="_top" xlink:title="portSAVE_CONTEXT">
<polygon fill="white" stroke="black" points="143,-95.5 143,-114.5 257,-114.5 257,-95.5 143,-95.5"/>
<text text-anchor="middle" x="200" y="-102.5" font-family="Helvetica,sans-Serif" font-size="10.00">portSAVE_CONTEXT</text>
</a>
</g>
</g>
<!-- Node1&#45;&gt;Node3 -->
<g id="edge2" class="edge"><title>Node1&#45;&gt;Node3</title>
<path fill="none" stroke="midnightblue" d="M95.6387,-91.9076C107.446,-93.4032 120.354,-95.0382 132.923,-96.6302"/>
<polygon fill="midnightblue" stroke="midnightblue" points="132.542,-100.11 142.902,-97.8943 133.421,-93.1653 132.542,-100.11"/>
</g>
<!-- Node4 -->
<g id="node4" class="node"><title>Node4</title>
<g id="a_node4"><a xlink:href="_renesas_2_r_x100_2port_8c.html#a9c86137bc3c1cbffc39fff22627cb885" target="_top" xlink:title="vTaskSwitchContext">
<polygon fill="white" stroke="black" points="146.5,-57.5 146.5,-76.5 253.5,-76.5 253.5,-57.5 146.5,-57.5"/>
<text text-anchor="middle" x="200" y="-64.5" font-family="Helvetica,sans-Serif" font-size="10.00">vTaskSwitchContext</text>
</a>
</g>
</g>
<!-- Node1&#45;&gt;Node4 -->
<g id="edge3" class="edge"><title>Node1&#45;&gt;Node4</title>
<path fill="none" stroke="midnightblue" d="M95.6387,-80.0924C108.454,-78.4691 122.566,-76.6817 136.133,-74.9632"/>
<polygon fill="midnightblue" stroke="midnightblue" points="136.89,-78.3953 146.371,-73.6663 136.01,-71.4508 136.89,-78.3953"/>
</g>
<!-- Node5 -->
<g id="node5" class="node"><title>Node5</title>
<g id="a_node5"><a xlink:href="task_8h.html#a978e25460ac35706f9ad30b46d9403d8" target="_top" xlink:title="xTaskIncrementTick">
<polygon fill="white" stroke="black" points="147,-19.5 147,-38.5 253,-38.5 253,-19.5 147,-19.5"/>
<text text-anchor="middle" x="200" y="-26.5" font-family="Helvetica,sans-Serif" font-size="10.00">xTaskIncrementTick</text>
</a>
</g>
</g>
<!-- Node1&#45;&gt;Node5 -->
<g id="edge4" class="edge"><title>Node1&#45;&gt;Node5</title>
<path fill="none" stroke="midnightblue" d="M67.7727,-76.4026C84.3725,-68.16 109.395,-56.3243 132,-48 138.327,-45.6701 145.077,-43.4537 151.765,-41.4118"/>
<polygon fill="midnightblue" stroke="midnightblue" points="152.862,-44.7376 161.463,-38.5524 150.882,-38.0233 152.862,-44.7376"/>
</g>
<!-- Node6 -->
<g id="node6" class="node"><title>Node6</title>
<g id="a_node6"><a xlink:href="list_8h.html#a2eb1558482076fff8cafc63419c2d34a" target="_top" xlink:title="uxListRemove">
<polygon fill="white" stroke="black" points="304,-38.5 304,-57.5 384,-57.5 384,-38.5 304,-38.5"/>
<text text-anchor="middle" x="344" y="-45.5" font-family="Helvetica,sans-Serif" font-size="10.00">uxListRemove</text>
</a>
</g>
</g>
<!-- Node5&#45;&gt;Node6 -->
<g id="edge5" class="edge"><title>Node5&#45;&gt;Node6</title>
<path fill="none" stroke="midnightblue" d="M253.069,-35.967C266.31,-37.7387 280.499,-39.6372 293.602,-41.3904"/>
<polygon fill="midnightblue" stroke="midnightblue" points="293.464,-44.903 303.84,-42.7602 294.392,-37.9649 293.464,-44.903"/>
</g>
<!-- Node7 -->
<g id="node7" class="node"><title>Node7</title>
<g id="a_node7"><a xlink:href="_paradigm_2_tern___e_e_2small_2portmacro_8h.html#a14d32f8130d3c0b212cfc751730b5b49" target="_top" xlink:title="void">
<polygon fill="white" stroke="black" points="326.5,-0.5 326.5,-19.5 361.5,-19.5 361.5,-0.5 326.5,-0.5"/>
<text text-anchor="middle" x="344" y="-7.5" font-family="Helvetica,sans-Serif" font-size="10.00">void</text>
</a>
</g>
</g>
<!-- Node5&#45;&gt;Node7 -->
<g id="edge6" class="edge"><title>Node5&#45;&gt;Node7</title>
<path fill="none" stroke="midnightblue" d="M253.069,-22.033C274.539,-19.1603 298.5,-15.9542 316.288,-13.5742"/>
<polygon fill="midnightblue" stroke="midnightblue" points="316.787,-17.0387 326.234,-12.2433 315.858,-10.1005 316.787,-17.0387"/>
</g>
</g>
</svg>
