<?xml version="1.0" encoding="UTF-8" standalone="no"?>
<!DOCTYPE svg PUBLIC "-//W3C//DTD SVG 1.1//EN"
 "http://www.w3.org/Graphics/SVG/1.1/DTD/svg11.dtd">
<!-- Generated by graphviz version 2.30.1 (20130221.2233)
 -->
<!-- Title: prvSetupTimerInterrupt Pages: 1 -->
<svg width="438pt" height="28pt"
 viewBox="0.00 0.00 438.00 28.00" xmlns="http://www.w3.org/2000/svg" xmlns:xlink="http://www.w3.org/1999/xlink">
<g id="graph0" class="graph" transform="scale(1 1) rotate(0) translate(4 24)">
<title>prvSetupTimerInterrupt</title>
<polygon fill="white" stroke="white" points="-4,5 -4,-24 435,-24 435,5 -4,5"/>
<!-- Node1 -->
<g id="node1" class="node"><title>Node1</title>
<polygon fill="#bfbfbf" stroke="black" points="0.5,-0.5 0.5,-19.5 119.5,-19.5 119.5,-0.5 0.5,-0.5"/>
<text text-anchor="middle" x="60" y="-7.5" font-family="Helvetica,sans-Serif" font-size="10.00">prvSetupTimerInterrupt</text>
</g>
<!-- Node2 -->
<g id="node2" class="node"><title>Node2</title>
<g id="a_node2"><a xlink:href="_g_c_c_2_tri_core__1782_2port_8c.html#a5986ea73d477ec35723b0e09e0cdcbb7" target="_top" xlink:title="prvSystemTickHandler">
<polygon fill="white" stroke="black" points="156.5,-0.5 156.5,-19.5 273.5,-19.5 273.5,-0.5 156.5,-0.5"/>
<text text-anchor="middle" x="215" y="-7.5" font-family="Helvetica,sans-Serif" font-size="10.00">prvSystemTickHandler</text>
</a>
</g>
</g>
<!-- Node1&#45;&gt;Node2 -->
<g id="edge1" class="edge"><title>Node1&#45;&gt;Node2</title>
<path fill="none" stroke="midnightblue" d="M119.716,-10C128.378,-10 137.361,-10 146.188,-10"/>
<polygon fill="midnightblue" stroke="midnightblue" points="146.45,-13.5001 156.45,-10 146.45,-6.5001 146.45,-13.5001"/>
</g>
<!-- Node3 -->
<g id="node3" class="node"><title>Node3</title>
<g id="a_node3"><a xlink:href="o_watcom_216_bit_d_o_s_2_flsh186_2portmacro_8h.html#adff63afc268c80ed13a4db7eb576c989" target="_top" xlink:title="portENTER_CRITICAL">
<polygon fill="white" stroke="black" points="310.5,-0.5 310.5,-19.5 429.5,-19.5 429.5,-0.5 310.5,-0.5"/>
<text text-anchor="middle" x="370" y="-7.5" font-family="Helvetica,sans-Serif" font-size="10.00">portENTER_CRITICAL</text>
</a>
</g>
</g>
<!-- Node2&#45;&gt;Node3 -->
<g id="edge2" class="edge"><title>Node2&#45;&gt;Node3</title>
<path fill="none" stroke="midnightblue" d="M273.843,-10C282.419,-10 291.328,-10 300.102,-10"/>
<polygon fill="midnightblue" stroke="midnightblue" points="300.313,-13.5001 310.313,-10 300.313,-6.5001 300.313,-13.5001"/>
</g>
</g>
</svg>
