<?xml version="1.0" encoding="UTF-8" standalone="no"?>
<!DOCTYPE svg PUBLIC "-//W3C//DTD SVG 1.1//EN"
 "http://www.w3.org/Graphics/SVG/1.1/DTD/svg11.dtd">
<!-- Generated by graphviz version 2.30.1 (20130221.2233)
 -->
<!-- Title: AT91F_PDC_Close Pages: 1 -->
<svg width="276pt" height="218pt"
 viewBox="0.00 0.00 276.00 218.00" xmlns="http://www.w3.org/2000/svg" xmlns:xlink="http://www.w3.org/1999/xlink">
<g id="graph0" class="graph" transform="scale(1 1) rotate(0) translate(4 214)">
<title>AT91F_PDC_Close</title>
<polygon fill="white" stroke="white" points="-4,5 -4,-214 273,-214 273,5 -4,5"/>
<!-- Node1 -->
<g id="node1" class="node"><title>Node1</title>
<polygon fill="#bfbfbf" stroke="black" points="0,-95.5 0,-114.5 104,-114.5 104,-95.5 0,-95.5"/>
<text text-anchor="middle" x="52" y="-102.5" font-family="Helvetica,sans-Serif" font-size="10.00">AT91F_PDC_Close</text>
</g>
<!-- Node2 -->
<g id="node2" class="node"><title>Node2</title>
<g id="a_node2"><a xlink:href="_g_c_c_2_a_r_m7___a_t91_s_a_m7_s_2lib___a_t91_s_a_m7_x256_8h.html#a065419f8fc40760b2db4773c57812ac5" target="_top" xlink:title="AT91F_PDC_DisableRx">
<polygon fill="white" stroke="black" points="142,-190.5 142,-209.5 266,-209.5 266,-190.5 142,-190.5"/>
<text text-anchor="middle" x="204" y="-197.5" font-family="Helvetica,sans-Serif" font-size="10.00">AT91F_PDC_DisableRx</text>
</a>
</g>
</g>
<!-- Node1&#45;&gt;Node2 -->
<g id="edge1" class="edge"><title>Node1&#45;&gt;Node2</title>
<path fill="none" stroke="midnightblue" d="M61.4023,-114.629C75.8892,-130.658 107.186,-162.84 140,-181 143.929,-183.175 148.138,-185.129 152.447,-186.881"/>
<polygon fill="midnightblue" stroke="midnightblue" points="151.377,-190.217 161.971,-190.395 153.801,-183.65 151.377,-190.217"/>
</g>
<!-- Node3 -->
<g id="node3" class="node"><title>Node3</title>
<g id="a_node3"><a xlink:href="_g_c_c_2_a_r_m7___a_t91_s_a_m7_s_2lib___a_t91_s_a_m7_x256_8h.html#a232c924087e392d02daf17acf4b9be52" target="_top" xlink:title="AT91F_PDC_DisableTx">
<polygon fill="white" stroke="black" points="142.5,-152.5 142.5,-171.5 265.5,-171.5 265.5,-152.5 142.5,-152.5"/>
<text text-anchor="middle" x="204" y="-159.5" font-family="Helvetica,sans-Serif" font-size="10.00">AT91F_PDC_DisableTx</text>
</a>
</g>
</g>
<!-- Node1&#45;&gt;Node3 -->
<g id="edge2" class="edge"><title>Node1&#45;&gt;Node3</title>
<path fill="none" stroke="midnightblue" d="M73.1127,-114.599C90.5698,-122.733 116.641,-134.411 140,-143 146.051,-145.225 152.496,-147.393 158.868,-149.42"/>
<polygon fill="midnightblue" stroke="midnightblue" points="158.164,-152.865 168.751,-152.478 160.233,-146.178 158.164,-152.865"/>
</g>
<!-- Node4 -->
<g id="node4" class="node"><title>Node4</title>
<g id="a_node4"><a xlink:href="_g_c_c_2_a_r_m7___a_t91_s_a_m7_s_2lib___a_t91_s_a_m7_x256_8h.html#a90529726eb41ee44d45f3bb99923b2ef" target="_top" xlink:title="AT91F_PDC_SetNextRx">
<polygon fill="white" stroke="black" points="140.5,-114.5 140.5,-133.5 267.5,-133.5 267.5,-114.5 140.5,-114.5"/>
<text text-anchor="middle" x="204" y="-121.5" font-family="Helvetica,sans-Serif" font-size="10.00">AT91F_PDC_SetNextRx</text>
</a>
</g>
</g>
<!-- Node1&#45;&gt;Node4 -->
<g id="edge3" class="edge"><title>Node1&#45;&gt;Node4</title>
<path fill="none" stroke="midnightblue" d="M104.202,-111.486C112.65,-112.556 121.547,-113.683 130.4,-114.804"/>
<polygon fill="midnightblue" stroke="midnightblue" points="129.989,-118.28 140.35,-116.064 130.869,-111.335 129.989,-118.28"/>
</g>
<!-- Node5 -->
<g id="node5" class="node"><title>Node5</title>
<g id="a_node5"><a xlink:href="_g_c_c_2_a_r_m7___a_t91_s_a_m7_s_2lib___a_t91_s_a_m7_x256_8h.html#aa0b8b8b33d4b6514714851b653a011eb" target="_top" xlink:title="AT91F_PDC_SetNextTx">
<polygon fill="white" stroke="black" points="141.5,-76.5 141.5,-95.5 266.5,-95.5 266.5,-76.5 141.5,-76.5"/>
<text text-anchor="middle" x="204" y="-83.5" font-family="Helvetica,sans-Serif" font-size="10.00">AT91F_PDC_SetNextTx</text>
</a>
</g>
</g>
<!-- Node1&#45;&gt;Node5 -->
<g id="edge4" class="edge"><title>Node1&#45;&gt;Node5</title>
<path fill="none" stroke="midnightblue" d="M104.202,-98.5144C112.99,-97.4013 122.264,-96.2265 131.469,-95.0606"/>
<polygon fill="midnightblue" stroke="midnightblue" points="131.922,-98.5312 141.403,-93.8022 131.043,-91.5867 131.922,-98.5312"/>
</g>
<!-- Node6 -->
<g id="node6" class="node"><title>Node6</title>
<g id="a_node6"><a xlink:href="_g_c_c_2_a_r_m7___a_t91_s_a_m7_s_2lib___a_t91_s_a_m7_x256_8h.html#af3a2086c959ae5ea3b73fcfc09bb46fb" target="_top" xlink:title="AT91F_PDC_SetRx">
<polygon fill="white" stroke="black" points="151,-38.5 151,-57.5 257,-57.5 257,-38.5 151,-38.5"/>
<text text-anchor="middle" x="204" y="-45.5" font-family="Helvetica,sans-Serif" font-size="10.00">AT91F_PDC_SetRx</text>
</a>
</g>
</g>
<!-- Node1&#45;&gt;Node6 -->
<g id="edge5" class="edge"><title>Node1&#45;&gt;Node6</title>
<path fill="none" stroke="midnightblue" d="M73.1127,-95.4008C90.5698,-87.2666 116.641,-75.5892 140,-67 146.051,-64.7749 152.496,-62.6074 158.868,-60.5803"/>
<polygon fill="midnightblue" stroke="midnightblue" points="160.233,-63.8218 168.751,-57.5224 158.164,-57.1345 160.233,-63.8218"/>
</g>
<!-- Node7 -->
<g id="node7" class="node"><title>Node7</title>
<g id="a_node7"><a xlink:href="_g_c_c_2_a_r_m7___a_t91_s_a_m7_s_2lib___a_t91_s_a_m7_x256_8h.html#ad32f369ef9e9f0f395e577e1ed1652df" target="_top" xlink:title="AT91F_PDC_SetTx">
<polygon fill="white" stroke="black" points="151.5,-0.5 151.5,-19.5 256.5,-19.5 256.5,-0.5 151.5,-0.5"/>
<text text-anchor="middle" x="204" y="-7.5" font-family="Helvetica,sans-Serif" font-size="10.00">AT91F_PDC_SetTx</text>
</a>
</g>
</g>
<!-- Node1&#45;&gt;Node7 -->
<g id="edge6" class="edge"><title>Node1&#45;&gt;Node7</title>
<path fill="none" stroke="midnightblue" d="M61.4023,-95.3705C75.8892,-79.3418 107.186,-47.16 140,-29 143.929,-26.8254 148.138,-24.8705 152.447,-23.1193"/>
<polygon fill="midnightblue" stroke="midnightblue" points="153.801,-26.3503 161.971,-19.6046 151.377,-19.7833 153.801,-26.3503"/>
</g>
</g>
</svg>
