<?xml version="1.0" encoding="UTF-8" standalone="no"?>
<!DOCTYPE svg PUBLIC "-//W3C//DTD SVG 1.1//EN"
 "http://www.w3.org/Graphics/SVG/1.1/DTD/svg11.dtd">
<!-- Generated by graphviz version 2.30.1 (20130221.2233)
 -->
<!-- Title: prvRestoreContextOfFirstTask Pages: 1 -->
<svg width="414pt" height="28pt"
 viewBox="0.00 0.00 414.00 28.00" xmlns="http://www.w3.org/2000/svg" xmlns:xlink="http://www.w3.org/1999/xlink">
<g id="graph0" class="graph" transform="scale(1 1) rotate(0) translate(4 24)">
<title>prvRestoreContextOfFirstTask</title>
<polygon fill="white" stroke="white" points="-4,5 -4,-24 411,-24 411,5 -4,5"/>
<!-- Node1 -->
<g id="node1" class="node"><title>Node1</title>
<polygon fill="#bfbfbf" stroke="black" points="0,-0.5 0,-19.5 152,-19.5 152,-0.5 0,-0.5"/>
<text text-anchor="middle" x="76" y="-7.5" font-family="Helvetica,sans-Serif" font-size="10.00">prvRestoreContextOfFirstTask</text>
</g>
<!-- Node2 -->
<g id="node2" class="node"><title>Node2</title>
<g id="a_node2"><a xlink:href="_g_c_c_2_a_r_m___c_m3___m_p_u_2port_8c.html#a00adb57bbbdfe3b9904fe57ac80696ed" target="_top" xlink:title="prvSVCHandler">
<polygon fill="white" stroke="black" points="188,-0.5 188,-19.5 274,-19.5 274,-0.5 188,-0.5"/>
<text text-anchor="middle" x="231" y="-7.5" font-family="Helvetica,sans-Serif" font-size="10.00">prvSVCHandler</text>
</a>
</g>
</g>
<!-- Node1&#45;&gt;Node2 -->
<g id="edge1" class="edge"><title>Node1&#45;&gt;Node2</title>
<path fill="none" stroke="midnightblue" d="M162.183,-10C171.028,-10 179.716,-10 187.766,-10"/>
<polygon fill="midnightblue" stroke="midnightblue" points="162.155,-6.5001 152.155,-10 162.155,-13.5001 162.155,-6.5001"/>
</g>
<!-- Node3 -->
<g id="node3" class="node"><title>Node3</title>
<g id="a_node3"><a xlink:href="_g_c_c_2_a_r_m___c_m3___m_p_u_2port_8c.html#a859e86b6143d6bc4cf96b2867f408c75" target="_top" xlink:title="vPortSVCHandler">
<polygon fill="white" stroke="black" points="310.5,-0.5 310.5,-19.5 405.5,-19.5 405.5,-0.5 310.5,-0.5"/>
<text text-anchor="middle" x="358" y="-7.5" font-family="Helvetica,sans-Serif" font-size="10.00">vPortSVCHandler</text>
</a>
</g>
</g>
<!-- Node2&#45;&gt;Node3 -->
<g id="edge2" class="edge"><title>Node2&#45;&gt;Node3</title>
<path fill="none" stroke="midnightblue" d="M284.326,-10C292.99,-10 301.922,-10 310.432,-10"/>
<polygon fill="midnightblue" stroke="midnightblue" points="284.319,-6.5001 274.319,-10 284.319,-13.5001 284.319,-6.5001"/>
</g>
</g>
</svg>
