<?xml version="1.0" encoding="UTF-8" standalone="no"?>
<!DOCTYPE svg PUBLIC "-//W3C//DTD SVG 1.1//EN"
 "http://www.w3.org/Graphics/SVG/1.1/DTD/svg11.dtd">
<!-- Generated by graphviz version 2.30.1 (20130221.2233)
 -->
<!-- Title: xPortStartScheduler Pages: 1 -->
<svg width="624pt" height="370pt"
 viewBox="0.00 0.00 624.00 370.00" xmlns="http://www.w3.org/2000/svg" xmlns:xlink="http://www.w3.org/1999/xlink">
<g id="graph0" class="graph" transform="scale(1 1) rotate(0) translate(4 366)">
<title>xPortStartScheduler</title>
<polygon fill="white" stroke="white" points="-4,5 -4,-366 621,-366 621,5 -4,5"/>
<!-- Node1 -->
<g id="node1" class="node"><title>Node1</title>
<polygon fill="#bfbfbf" stroke="black" points="0,-285.5 0,-304.5 106,-304.5 106,-285.5 0,-285.5"/>
<text text-anchor="middle" x="53" y="-292.5" font-family="Helvetica,sans-Serif" font-size="10.00">xPortStartScheduler</text>
</g>
<!-- Node2 -->
<g id="node2" class="node"><title>Node2</title>
<g id="a_node2"><a xlink:href="_g_c_c_2_tri_core__1782_2port_8c.html#a6b11d209264bd492e907dfa5924057c5" target="_top" xlink:title="prvInterruptYield">
<polygon fill="white" stroke="black" points="157,-342.5 157,-361.5 247,-361.5 247,-342.5 157,-342.5"/>
<text text-anchor="middle" x="202" y="-349.5" font-family="Helvetica,sans-Serif" font-size="10.00">prvInterruptYield</text>
</a>
</g>
</g>
<!-- Node1&#45;&gt;Node2 -->
<g id="edge1" class="edge"><title>Node1&#45;&gt;Node2</title>
<path fill="none" stroke="midnightblue" d="M74.7501,-304.632C92.4381,-312.68 118.635,-324.216 142,-333 147.679,-335.135 153.717,-337.251 159.682,-339.253"/>
<polygon fill="midnightblue" stroke="midnightblue" points="158.982,-342.706 169.574,-342.497 161.163,-336.055 158.982,-342.706"/>
</g>
<!-- Node5 -->
<g id="node5" class="node"><title>Node5</title>
<g id="a_node5"><a xlink:href="_g_c_c_2_tri_core__1782_2port_8c.html#aeb91268bfbb6dc04ff839631ee5c72ba" target="_top" xlink:title="prvSetupTimerInterrupt">
<polygon fill="white" stroke="black" points="142.5,-266.5 142.5,-285.5 261.5,-285.5 261.5,-266.5 142.5,-266.5"/>
<text text-anchor="middle" x="202" y="-273.5" font-family="Helvetica,sans-Serif" font-size="10.00">prvSetupTimerInterrupt</text>
</a>
</g>
</g>
<!-- Node1&#45;&gt;Node5 -->
<g id="edge4" class="edge"><title>Node1&#45;&gt;Node5</title>
<path fill="none" stroke="midnightblue" d="M106.241,-288.248C114.663,-287.159 123.493,-286.018 132.234,-284.888"/>
<polygon fill="midnightblue" stroke="midnightblue" points="132.954,-288.324 142.423,-283.571 132.057,-281.382 132.954,-288.324"/>
</g>
<!-- Node8 -->
<g id="node8" class="node"><title>Node8</title>
<g id="a_node8"><a xlink:href="_g_c_c_2_tri_core__1782_2port_8c.html#ab7cabab6d1e9f66ab2be70efc236a7df" target="_top" xlink:title="prvTrapYield">
<polygon fill="white" stroke="black" points="165.5,-304.5 165.5,-323.5 238.5,-323.5 238.5,-304.5 165.5,-304.5"/>
<text text-anchor="middle" x="202" y="-311.5" font-family="Helvetica,sans-Serif" font-size="10.00">prvTrapYield</text>
</a>
</g>
</g>
<!-- Node1&#45;&gt;Node8 -->
<g id="edge7" class="edge"><title>Node1&#45;&gt;Node8</title>
<path fill="none" stroke="midnightblue" d="M106.241,-301.752C122.064,-303.797 139.327,-306.029 154.731,-308.02"/>
<polygon fill="midnightblue" stroke="midnightblue" points="154.691,-311.544 165.057,-309.354 155.589,-304.601 154.691,-311.544"/>
</g>
<!-- Node9 -->
<g id="node9" class="node"><title>Node9</title>
<g id="a_node9"><a xlink:href="porttrap_8c.html#abb81dc2f729d6c6fe39b23aa9f61e1a5" target="_top" xlink:title="vTrapInstallHandlers">
<polygon fill="white" stroke="black" points="148,-133.5 148,-152.5 256,-152.5 256,-133.5 148,-133.5"/>
<text text-anchor="middle" x="202" y="-140.5" font-family="Helvetica,sans-Serif" font-size="10.00">vTrapInstallHandlers</text>
</a>
</g>
</g>
<!-- Node1&#45;&gt;Node9 -->
<g id="edge9" class="edge"><title>Node1&#45;&gt;Node9</title>
<path fill="none" stroke="midnightblue" d="M63.1955,-285.492C87.5323,-260.327 153.868,-191.735 184.764,-159.788"/>
<polygon fill="midnightblue" stroke="midnightblue" points="187.372,-162.126 191.808,-152.505 182.34,-157.26 187.372,-162.126"/>
</g>
<!-- Node3 -->
<g id="node3" class="node"><title>Node3</title>
<g id="a_node3"><a xlink:href="_paradigm_2_tern___e_e_2small_2portmacro_8h.html#a14d32f8130d3c0b212cfc751730b5b49" target="_top" xlink:title="void">
<polygon fill="white" stroke="black" points="361.5,-342.5 361.5,-361.5 396.5,-361.5 396.5,-342.5 361.5,-342.5"/>
<text text-anchor="middle" x="379" y="-349.5" font-family="Helvetica,sans-Serif" font-size="10.00">void</text>
</a>
</g>
</g>
<!-- Node2&#45;&gt;Node3 -->
<g id="edge2" class="edge"><title>Node2&#45;&gt;Node3</title>
<path fill="none" stroke="midnightblue" d="M247.16,-352C279.876,-352 323.407,-352 351.074,-352"/>
<polygon fill="midnightblue" stroke="midnightblue" points="351.191,-355.5 361.19,-352 351.19,-348.5 351.191,-355.5"/>
</g>
<!-- Node4 -->
<g id="node4" class="node"><title>Node4</title>
<g id="a_node4"><a xlink:href="_renesas_2_r_x100_2port_8c.html#a9c86137bc3c1cbffc39fff22627cb885" target="_top" xlink:title="vTaskSwitchContext">
<polygon fill="white" stroke="black" points="325.5,-304.5 325.5,-323.5 432.5,-323.5 432.5,-304.5 325.5,-304.5"/>
<text text-anchor="middle" x="379" y="-311.5" font-family="Helvetica,sans-Serif" font-size="10.00">vTaskSwitchContext</text>
</a>
</g>
</g>
<!-- Node2&#45;&gt;Node4 -->
<g id="edge3" class="edge"><title>Node2&#45;&gt;Node4</title>
<path fill="none" stroke="midnightblue" d="M247.16,-342.411C270.565,-337.329 299.505,-331.045 324.212,-325.68"/>
<polygon fill="midnightblue" stroke="midnightblue" points="325.128,-329.062 334.158,-323.52 323.643,-322.222 325.128,-329.062"/>
</g>
<!-- Node6 -->
<g id="node6" class="node"><title>Node6</title>
<g id="a_node6"><a xlink:href="_g_c_c_2_tri_core__1782_2port_8c.html#a5986ea73d477ec35723b0e09e0cdcbb7" target="_top" xlink:title="prvSystemTickHandler">
<polygon fill="white" stroke="black" points="320.5,-266.5 320.5,-285.5 437.5,-285.5 437.5,-266.5 320.5,-266.5"/>
<text text-anchor="middle" x="379" y="-273.5" font-family="Helvetica,sans-Serif" font-size="10.00">prvSystemTickHandler</text>
</a>
</g>
</g>
<!-- Node5&#45;&gt;Node6 -->
<g id="edge5" class="edge"><title>Node5&#45;&gt;Node6</title>
<path fill="none" stroke="midnightblue" d="M261.759,-276C277.235,-276 294.061,-276 309.98,-276"/>
<polygon fill="midnightblue" stroke="midnightblue" points="310.287,-279.5 320.287,-276 310.287,-272.5 310.287,-279.5"/>
</g>
<!-- Node7 -->
<g id="node7" class="node"><title>Node7</title>
<g id="a_node7"><a xlink:href="o_watcom_216_bit_d_o_s_2_flsh186_2portmacro_8h.html#adff63afc268c80ed13a4db7eb576c989" target="_top" xlink:title="portENTER_CRITICAL">
<polygon fill="white" stroke="black" points="496.5,-266.5 496.5,-285.5 615.5,-285.5 615.5,-266.5 496.5,-266.5"/>
<text text-anchor="middle" x="556" y="-273.5" font-family="Helvetica,sans-Serif" font-size="10.00">portENTER_CRITICAL</text>
</a>
</g>
</g>
<!-- Node6&#45;&gt;Node7 -->
<g id="edge6" class="edge"><title>Node6&#45;&gt;Node7</title>
<path fill="none" stroke="midnightblue" d="M437.787,-276C453.222,-276 470.057,-276 486.029,-276"/>
<polygon fill="midnightblue" stroke="midnightblue" points="486.377,-279.5 496.377,-276 486.377,-272.5 486.377,-279.5"/>
</g>
<!-- Node8&#45;&gt;Node4 -->
<g id="edge8" class="edge"><title>Node8&#45;&gt;Node4</title>
<path fill="none" stroke="midnightblue" d="M238.836,-314C260.818,-314 289.576,-314 315.241,-314"/>
<polygon fill="midnightblue" stroke="midnightblue" points="315.275,-317.5 325.275,-314 315.274,-310.5 315.275,-317.5"/>
</g>
<!-- Node10 -->
<g id="node10" class="node"><title>Node10</title>
<g id="a_node10"><a xlink:href="porttrap_8c.html#a17a5aece41bf1c8f900abc6c18e21f79" target="_top" xlink:title="vMMUTrap">
<polygon fill="white" stroke="black" points="346,-228.5 346,-247.5 412,-247.5 412,-228.5 346,-228.5"/>
<text text-anchor="middle" x="379" y="-235.5" font-family="Helvetica,sans-Serif" font-size="10.00">vMMUTrap</text>
</a>
</g>
</g>
<!-- Node9&#45;&gt;Node10 -->
<g id="edge10" class="edge"><title>Node9&#45;&gt;Node10</title>
<path fill="none" stroke="midnightblue" d="M211.994,-152.552C227.807,-168.762 262.313,-201.587 298,-219 309.743,-224.73 323.316,-228.791 335.908,-231.645"/>
<polygon fill="midnightblue" stroke="midnightblue" points="335.242,-235.081 345.744,-233.683 336.662,-228.227 335.242,-235.081"/>
</g>
<!-- Node11 -->
<g id="node11" class="node"><title>Node11</title>
<g id="a_node11"><a xlink:href="porttrap_8c.html#a5df71a2cd124792eeddc63b57ec6de08" target="_top" xlink:title="vInternalProtectionTrap">
<polygon fill="white" stroke="black" points="319,-190.5 319,-209.5 439,-209.5 439,-190.5 319,-190.5"/>
<text text-anchor="middle" x="379" y="-197.5" font-family="Helvetica,sans-Serif" font-size="10.00">vInternalProtectionTrap</text>
</a>
</g>
</g>
<!-- Node9&#45;&gt;Node11 -->
<g id="edge11" class="edge"><title>Node9&#45;&gt;Node11</title>
<path fill="none" stroke="midnightblue" d="M224.179,-152.518C243.218,-160.821 272.091,-172.791 298,-181 306.02,-183.541 314.588,-185.92 323.026,-188.075"/>
<polygon fill="midnightblue" stroke="midnightblue" points="322.283,-191.497 332.831,-190.5 323.964,-184.701 322.283,-191.497"/>
</g>
<!-- Node12 -->
<g id="node12" class="node"><title>Node12</title>
<g id="a_node12"><a xlink:href="porttrap_8c.html#a51979b7d23c817291c4bec28288e37ef" target="_top" xlink:title="vInstructionErrorTrap">
<polygon fill="white" stroke="black" points="324,-152.5 324,-171.5 434,-171.5 434,-152.5 324,-152.5"/>
<text text-anchor="middle" x="379" y="-159.5" font-family="Helvetica,sans-Serif" font-size="10.00">vInstructionErrorTrap</text>
</a>
</g>
</g>
<!-- Node9&#45;&gt;Node12 -->
<g id="edge12" class="edge"><title>Node9&#45;&gt;Node12</title>
<path fill="none" stroke="midnightblue" d="M256.457,-148.804C274.605,-150.774 295.068,-152.996 313.957,-155.047"/>
<polygon fill="midnightblue" stroke="midnightblue" points="313.646,-158.533 323.966,-156.133 314.402,-151.574 313.646,-158.533"/>
</g>
<!-- Node13 -->
<g id="node13" class="node"><title>Node13</title>
<g id="a_node13"><a xlink:href="porttrap_8c.html#aafb193dbaa52093ad36ea36e60742031" target="_top" xlink:title="vContextManagementTrap">
<polygon fill="white" stroke="black" points="311.5,-114.5 311.5,-133.5 446.5,-133.5 446.5,-114.5 311.5,-114.5"/>
<text text-anchor="middle" x="379" y="-121.5" font-family="Helvetica,sans-Serif" font-size="10.00">vContextManagementTrap</text>
</a>
</g>
</g>
<!-- Node9&#45;&gt;Node13 -->
<g id="edge13" class="edge"><title>Node9&#45;&gt;Node13</title>
<path fill="none" stroke="midnightblue" d="M256.457,-137.196C270.504,-135.671 285.938,-133.995 300.955,-132.365"/>
<polygon fill="midnightblue" stroke="midnightblue" points="301.699,-135.805 311.263,-131.246 300.943,-128.846 301.699,-135.805"/>
</g>
<!-- Node14 -->
<g id="node14" class="node"><title>Node14</title>
<g id="a_node14"><a xlink:href="porttrap_8c.html#a8b44898fec32d8fa9b25be516928ff69" target="_top" xlink:title="vSystemBusAndPeripheralsTrap">
<polygon fill="white" stroke="black" points="298.5,-76.5 298.5,-95.5 459.5,-95.5 459.5,-76.5 298.5,-76.5"/>
<text text-anchor="middle" x="379" y="-83.5" font-family="Helvetica,sans-Serif" font-size="10.00">vSystemBusAndPeripheralsTrap</text>
</a>
</g>
</g>
<!-- Node9&#45;&gt;Node14 -->
<g id="edge14" class="edge"><title>Node9&#45;&gt;Node14</title>
<path fill="none" stroke="midnightblue" d="M224.179,-133.482C243.218,-125.179 272.091,-113.209 298,-105 306.02,-102.459 314.588,-100.08 323.026,-97.925"/>
<polygon fill="midnightblue" stroke="midnightblue" points="323.964,-101.299 332.831,-95.5004 322.283,-94.5032 323.964,-101.299"/>
</g>
<!-- Node15 -->
<g id="node15" class="node"><title>Node15</title>
<g id="a_node15"><a xlink:href="porttrap_8c.html#a0d55dbf825efb634259c4f5cecda97f6" target="_top" xlink:title="vAssertionTrap">
<polygon fill="white" stroke="black" points="337,-38.5 337,-57.5 421,-57.5 421,-38.5 337,-38.5"/>
<text text-anchor="middle" x="379" y="-45.5" font-family="Helvetica,sans-Serif" font-size="10.00">vAssertionTrap</text>
</a>
</g>
</g>
<!-- Node9&#45;&gt;Node15 -->
<g id="edge15" class="edge"><title>Node9&#45;&gt;Node15</title>
<path fill="none" stroke="midnightblue" d="M211.994,-133.448C227.807,-117.238 262.313,-84.4132 298,-67 307.045,-62.5866 317.175,-59.1631 327.107,-56.5189"/>
<polygon fill="midnightblue" stroke="midnightblue" points="328.038,-59.8946 336.925,-54.1268 326.381,-53.0935 328.038,-59.8946"/>
</g>
<!-- Node16 -->
<g id="node16" class="node"><title>Node16</title>
<g id="a_node16"><a xlink:href="porttrap_8c.html#ad338c056dbca06ab78a09678009a1cb2" target="_top" xlink:title="vNonMaskableInterruptTrap">
<polygon fill="white" stroke="black" points="309,-0.5 309,-19.5 449,-19.5 449,-0.5 309,-0.5"/>
<text text-anchor="middle" x="379" y="-7.5" font-family="Helvetica,sans-Serif" font-size="10.00">vNonMaskableInterruptTrap</text>
</a>
</g>
</g>
<!-- Node9&#45;&gt;Node16 -->
<g id="edge16" class="edge"><title>Node9&#45;&gt;Node16</title>
<path fill="none" stroke="midnightblue" d="M208.175,-133.251C220.52,-110.995 253.979,-56.2702 298,-29 301.55,-26.8011 305.332,-24.8566 309.249,-23.1372"/>
<polygon fill="midnightblue" stroke="midnightblue" points="310.524,-26.3969 318.583,-19.5196 307.994,-19.87 310.524,-26.3969"/>
</g>
</g>
</svg>
