<?xml version="1.0" encoding="UTF-8" standalone="no"?>
<!DOCTYPE svg PUBLIC "-//W3C//DTD SVG 1.1//EN"
 "http://www.w3.org/Graphics/SVG/1.1/DTD/svg11.dtd">
<!-- Generated by graphviz version 2.30.1 (20130221.2233)
 -->
<!-- Title: vPortSetupIDT Pages: 1 -->
<svg width="274pt" height="66pt"
 viewBox="0.00 0.00 274.00 66.00" xmlns="http://www.w3.org/2000/svg" xmlns:xlink="http://www.w3.org/1999/xlink">
<g id="graph0" class="graph" transform="scale(1 1) rotate(0) translate(4 62)">
<title>vPortSetupIDT</title>
<polygon fill="white" stroke="white" points="-4,5 -4,-62 271,-62 271,5 -4,5"/>
<!-- Node1 -->
<g id="node1" class="node"><title>Node1</title>
<polygon fill="#bfbfbf" stroke="black" points="0,-19.5 0,-38.5 82,-38.5 82,-19.5 0,-19.5"/>
<text text-anchor="middle" x="41" y="-26.5" font-family="Helvetica,sans-Serif" font-size="10.00">vPortSetupIDT</text>
</g>
<!-- Node2 -->
<g id="node2" class="node"><title>Node2</title>
<g id="a_node2"><a xlink:href="_g_c_c_2_i_a32__flat_2port_8c.html#ad1f3f6f4095543774160a3d9676d2852" target="_top" xlink:title="prvSetInterruptGate">
<polygon fill="white" stroke="black" points="140,-38.5 140,-57.5 244,-57.5 244,-38.5 140,-38.5"/>
<text text-anchor="middle" x="192" y="-45.5" font-family="Helvetica,sans-Serif" font-size="10.00">prvSetInterruptGate</text>
</a>
</g>
</g>
<!-- Node1&#45;&gt;Node2 -->
<g id="edge1" class="edge"><title>Node1&#45;&gt;Node2</title>
<path fill="none" stroke="midnightblue" d="M82.3215,-34.1417C96.8856,-35.9988 113.674,-38.1397 129.633,-40.1747"/>
<polygon fill="midnightblue" stroke="midnightblue" points="129.606,-43.6995 139.969,-41.4926 130.492,-36.7557 129.606,-43.6995"/>
</g>
<!-- Node3 -->
<g id="node3" class="node"><title>Node3</title>
<g id="a_node3"><a xlink:href="_g_c_c_2_i_a32__flat_2port_8c.html#a9427e8b1f123b9b6cd5f6531fbe342bf" target="_top" xlink:title="vPortCentralInterruptWrapper">
<polygon fill="white" stroke="black" points="118,-0.5 118,-19.5 266,-19.5 266,-0.5 118,-0.5"/>
<text text-anchor="middle" x="192" y="-7.5" font-family="Helvetica,sans-Serif" font-size="10.00">vPortCentralInterruptWrapper</text>
</a>
</g>
</g>
<!-- Node1&#45;&gt;Node3 -->
<g id="edge2" class="edge"><title>Node1&#45;&gt;Node3</title>
<path fill="none" stroke="midnightblue" d="M82.3215,-23.8583C90.3368,-22.8362 99.0259,-21.7282 107.88,-20.5992"/>
<polygon fill="midnightblue" stroke="midnightblue" points="108.442,-24.056 117.919,-19.3191 107.556,-17.1122 108.442,-24.056"/>
</g>
</g>
</svg>
