<?xml version="1.0" encoding="UTF-8" standalone="no"?>
<!DOCTYPE svg PUBLIC "-//W3C//DTD SVG 1.1//EN"
 "http://www.w3.org/Graphics/SVG/1.1/DTD/svg11.dtd">
<!-- Generated by graphviz version 2.30.1 (20130221.2233)
 -->
<!-- Title: source/portable/GCC/MicroBlazeV8/portmacro.h Pages: 1 -->
<svg width="189pt" height="96pt"
 viewBox="0.00 0.00 189.00 96.00" xmlns="http://www.w3.org/2000/svg" xmlns:xlink="http://www.w3.org/1999/xlink">
<g id="graph0" class="graph" transform="scale(1 1) rotate(0) translate(4 92)">
<title>source/portable/GCC/MicroBlazeV8/portmacro.h</title>
<polygon fill="white" stroke="white" points="-4,5 -4,-92 186,-92 186,5 -4,5"/>
<!-- Node1 -->
<g id="node1" class="node"><title>Node1</title>
<polygon fill="#bfbfbf" stroke="black" points="22.5,-57 22.5,-87 159.5,-87 159.5,-57 22.5,-57"/>
<text text-anchor="start" x="30.5" y="-75" font-family="Helvetica,sans-Serif" font-size="10.00">source/portable/GCC</text>
<text text-anchor="middle" x="91" y="-64" font-family="Helvetica,sans-Serif" font-size="10.00">/MicroBlazeV8/portmacro.h</text>
</g>
<!-- Node2 -->
<g id="node2" class="node"><title>Node2</title>
<polygon fill="white" stroke="#bfbfbf" points="-0.5,-0.5 -0.5,-19.5 82.5,-19.5 82.5,-0.5 -0.5,-0.5"/>
<text text-anchor="middle" x="41" y="-7.5" font-family="Helvetica,sans-Serif" font-size="10.00">mb_interface.h</text>
</g>
<!-- Node1&#45;&gt;Node2 -->
<g id="edge1" class="edge"><title>Node1&#45;&gt;Node2</title>
<path fill="none" stroke="midnightblue" d="M79.1507,-56.7808C71.8102,-47.9722 62.3551,-36.6262 54.6943,-27.4332"/>
<polygon fill="midnightblue" stroke="midnightblue" points="57.3661,-25.1721 48.2754,-19.7305 51.9885,-29.6534 57.3661,-25.1721"/>
</g>
<!-- Node3 -->
<g id="node3" class="node"><title>Node3</title>
<polygon fill="white" stroke="#bfbfbf" points="101,-0.5 101,-19.5 181,-19.5 181,-0.5 101,-0.5"/>
<text text-anchor="middle" x="141" y="-7.5" font-family="Helvetica,sans-Serif" font-size="10.00">xparameters.h</text>
</g>
<!-- Node1&#45;&gt;Node3 -->
<g id="edge2" class="edge"><title>Node1&#45;&gt;Node3</title>
<path fill="none" stroke="midnightblue" d="M102.849,-56.7808C110.19,-47.9722 119.645,-36.6262 127.306,-27.4332"/>
<polygon fill="midnightblue" stroke="midnightblue" points="130.011,-29.6534 133.725,-19.7305 124.634,-25.1721 130.011,-29.6534"/>
</g>
</g>
</svg>
