<?xml version="1.0" encoding="UTF-8" standalone="no"?>
<!DOCTYPE svg PUBLIC "-//W3C//DTD SVG 1.1//EN"
 "http://www.w3.org/Graphics/SVG/1.1/DTD/svg11.dtd">
<!-- Generated by graphviz version 2.30.1 (20130221.2233)
 -->
<!-- Title: xPortStartScheduler Pages: 1 -->
<svg width="458pt" height="66pt"
 viewBox="0.00 0.00 458.00 66.00" xmlns="http://www.w3.org/2000/svg" xmlns:xlink="http://www.w3.org/1999/xlink">
<g id="graph0" class="graph" transform="scale(1 1) rotate(0) translate(4 62)">
<title>xPortStartScheduler</title>
<polygon fill="white" stroke="white" points="-4,5 -4,-62 455,-62 455,5 -4,5"/>
<!-- Node1 -->
<g id="node1" class="node"><title>Node1</title>
<polygon fill="#bfbfbf" stroke="black" points="0,-19.5 0,-38.5 106,-38.5 106,-19.5 0,-19.5"/>
<text text-anchor="middle" x="53" y="-26.5" font-family="Helvetica,sans-Serif" font-size="10.00">xPortStartScheduler</text>
</g>
<!-- Node2 -->
<g id="node2" class="node"><title>Node2</title>
<g id="a_node2"><a xlink:href="_g_c_c_2_a_r_m___c_m3___m_p_u_2port_8c.html#ac8f1b1a01e872c9158247e0bf5d5e472" target="_top" xlink:title="prvSetupMPU">
<polygon fill="white" stroke="black" points="162.5,-38.5 162.5,-57.5 241.5,-57.5 241.5,-38.5 162.5,-38.5"/>
<text text-anchor="middle" x="202" y="-45.5" font-family="Helvetica,sans-Serif" font-size="10.00">prvSetupMPU</text>
</a>
</g>
</g>
<!-- Node1&#45;&gt;Node2 -->
<g id="edge1" class="edge"><title>Node1&#45;&gt;Node2</title>
<path fill="none" stroke="midnightblue" d="M106.241,-35.7522C121.26,-37.6935 137.575,-39.8022 152.367,-41.7141"/>
<polygon fill="midnightblue" stroke="midnightblue" points="151.963,-45.1909 162.329,-43.0018 152.861,-38.2487 151.963,-45.1909"/>
</g>
<!-- Node4 -->
<g id="node4" class="node"><title>Node4</title>
<g id="a_node4"><a xlink:href="_g_c_c_2_a_r_m___c_m3___m_p_u_2port_8c.html#aa83f9ee94a2f01b154bba920d9093ed8" target="_top" xlink:title="prvSetupTimerInterrupt">
<polygon fill="white" stroke="black" points="142.5,-0.5 142.5,-19.5 261.5,-19.5 261.5,-0.5 142.5,-0.5"/>
<text text-anchor="middle" x="202" y="-7.5" font-family="Helvetica,sans-Serif" font-size="10.00">prvSetupTimerInterrupt</text>
</a>
</g>
</g>
<!-- Node1&#45;&gt;Node4 -->
<g id="edge3" class="edge"><title>Node1&#45;&gt;Node4</title>
<path fill="none" stroke="midnightblue" d="M106.241,-22.2478C114.663,-21.1592 123.493,-20.0179 132.234,-18.8882"/>
<polygon fill="midnightblue" stroke="midnightblue" points="132.954,-22.3242 142.423,-17.5712 132.057,-15.382 132.954,-22.3242"/>
</g>
<!-- Node3 -->
<g id="node3" class="node"><title>Node3</title>
<g id="a_node3"><a xlink:href="_g_c_c_2_a_r_m___c_m3___m_p_u_2port_8c.html#ad888bf94e92ca9b4cf8e14d863d89c58" target="_top" xlink:title="prvGetMPURegionSizeSetting">
<polygon fill="white" stroke="black" points="298.5,-38.5 298.5,-57.5 449.5,-57.5 449.5,-38.5 298.5,-38.5"/>
<text text-anchor="middle" x="374" y="-45.5" font-family="Helvetica,sans-Serif" font-size="10.00">prvGetMPURegionSizeSetting</text>
</a>
</g>
</g>
<!-- Node2&#45;&gt;Node3 -->
<g id="edge2" class="edge"><title>Node2&#45;&gt;Node3</title>
<path fill="none" stroke="midnightblue" d="M241.576,-48C255.529,-48 271.891,-48 288.24,-48"/>
<polygon fill="midnightblue" stroke="midnightblue" points="288.397,-51.5001 298.397,-48 288.397,-44.5001 288.397,-51.5001"/>
</g>
</g>
</svg>
