<?xml version="1.0" encoding="UTF-8" standalone="no"?>
<!DOCTYPE svg PUBLIC "-//W3C//DTD SVG 1.1//EN"
 "http://www.w3.org/Graphics/SVG/1.1/DTD/svg11.dtd">
<!-- Generated by graphviz version 2.30.1 (20130221.2233)
 -->
<!-- Title: source/portable/GCC/MCF5235/port.c Pages: 1 -->
<svg width="461pt" height="208pt"
 viewBox="0.00 0.00 461.00 208.00" xmlns="http://www.w3.org/2000/svg" xmlns:xlink="http://www.w3.org/1999/xlink">
<g id="graph0" class="graph" transform="scale(1 1) rotate(0) translate(4 204)">
<title>source/portable/GCC/MCF5235/port.c</title>
<polygon fill="white" stroke="white" points="-4,5 -4,-204 458,-204 458,5 -4,5"/>
<!-- Node1 -->
<g id="node1" class="node"><title>Node1</title>
<polygon fill="#bfbfbf" stroke="black" points="233,-169 233,-199 343,-199 343,-169 233,-169"/>
<text text-anchor="start" x="241" y="-187" font-family="Helvetica,sans-Serif" font-size="10.00">source/portable/GCC</text>
<text text-anchor="middle" x="288" y="-176" font-family="Helvetica,sans-Serif" font-size="10.00">/MCF5235/port.c</text>
</g>
<!-- Node2 -->
<g id="node2" class="node"><title>Node2</title>
<polygon fill="white" stroke="#bfbfbf" points="144,-112.5 144,-131.5 192,-131.5 192,-112.5 144,-112.5"/>
<text text-anchor="middle" x="168" y="-119.5" font-family="Helvetica,sans-Serif" font-size="10.00">stdlib.h</text>
</g>
<!-- Node1&#45;&gt;Node2 -->
<g id="edge1" class="edge"><title>Node1&#45;&gt;Node2</title>
<path fill="none" stroke="midnightblue" d="M259.865,-168.933C240.072,-159.036 213.761,-145.88 194.37,-136.185"/>
<polygon fill="midnightblue" stroke="midnightblue" points="195.71,-132.942 185.2,-131.6 192.579,-139.203 195.71,-132.942"/>
</g>
<!-- Node3 -->
<g id="node3" class="node"><title>Node3</title>
<g id="a_node3"><a xlink:href="_free_r_t_o_s_8h.html" target="_top" xlink:title="FreeRTOS.h">
<polygon fill="white" stroke="black" points="210.5,-112.5 210.5,-131.5 283.5,-131.5 283.5,-112.5 210.5,-112.5"/>
<text text-anchor="middle" x="247" y="-119.5" font-family="Helvetica,sans-Serif" font-size="10.00">FreeRTOS.h</text>
</a>
</g>
</g>
<!-- Node1&#45;&gt;Node3 -->
<g id="edge2" class="edge"><title>Node1&#45;&gt;Node3</title>
<path fill="none" stroke="midnightblue" d="M278.284,-168.781C272.387,-160.152 264.827,-149.088 258.616,-139.999"/>
<polygon fill="midnightblue" stroke="midnightblue" points="261.498,-138.012 252.966,-131.731 255.718,-141.962 261.498,-138.012"/>
</g>
<!-- Node6 -->
<g id="node6" class="node"><title>Node6</title>
<polygon fill="white" stroke="#bfbfbf" points="296,-56.5 296,-75.5 398,-75.5 398,-56.5 296,-56.5"/>
<text text-anchor="middle" x="347" y="-63.5" font-family="Helvetica,sans-Serif" font-size="10.00">FreeRTOSConfig.h</text>
</g>
<!-- Node1&#45;&gt;Node6 -->
<g id="edge11" class="edge"><title>Node1&#45;&gt;Node6</title>
<path fill="none" stroke="midnightblue" d="M295.235,-168.776C306.01,-147.591 326.261,-107.776 337.985,-84.7245"/>
<polygon fill="midnightblue" stroke="midnightblue" points="341.158,-86.2071 342.571,-75.707 334.918,-83.0336 341.158,-86.2071"/>
</g>
<!-- Node12 -->
<g id="node12" class="node"><title>Node12</title>
<g id="a_node12"><a xlink:href="task_8h.html" target="_top" xlink:title="task.h">
<polygon fill="white" stroke="black" points="393.5,-112.5 393.5,-131.5 436.5,-131.5 436.5,-112.5 393.5,-112.5"/>
<text text-anchor="middle" x="415" y="-119.5" font-family="Helvetica,sans-Serif" font-size="10.00">task.h</text>
</a>
</g>
</g>
<!-- Node1&#45;&gt;Node12 -->
<g id="edge12" class="edge"><title>Node1&#45;&gt;Node12</title>
<path fill="none" stroke="midnightblue" d="M317.776,-168.933C338.915,-158.946 367.079,-145.64 387.652,-135.92"/>
<polygon fill="midnightblue" stroke="midnightblue" points="389.25,-139.036 396.797,-131.6 386.26,-132.707 389.25,-139.036"/>
</g>
<!-- Node4 -->
<g id="node4" class="node"><title>Node4</title>
<polygon fill="white" stroke="#bfbfbf" points="0,-56.5 0,-75.5 52,-75.5 52,-56.5 0,-56.5"/>
<text text-anchor="middle" x="26" y="-63.5" font-family="Helvetica,sans-Serif" font-size="10.00">stddef.h</text>
</g>
<!-- Node3&#45;&gt;Node4 -->
<g id="edge3" class="edge"><title>Node3&#45;&gt;Node4</title>
<path fill="none" stroke="midnightblue" d="M210.958,-112.442C175.51,-103.989 119.597,-90.5605 62.3147,-76.3039"/>
<polygon fill="midnightblue" stroke="midnightblue" points="62.9128,-72.8459 52.363,-73.8221 61.2189,-79.6379 62.9128,-72.8459"/>
</g>
<!-- Node5 -->
<g id="node5" class="node"><title>Node5</title>
<polygon fill="white" stroke="#bfbfbf" points="70.5,-56.5 70.5,-75.5 119.5,-75.5 119.5,-56.5 70.5,-56.5"/>
<text text-anchor="middle" x="95" y="-63.5" font-family="Helvetica,sans-Serif" font-size="10.00">stdint.h</text>
</g>
<!-- Node3&#45;&gt;Node5 -->
<g id="edge4" class="edge"><title>Node3&#45;&gt;Node5</title>
<path fill="none" stroke="midnightblue" d="M222.915,-112.444C197.455,-103.399 157.106,-89.064 128.541,-78.9158"/>
<polygon fill="midnightblue" stroke="midnightblue" points="129.567,-75.5661 118.972,-75.5164 127.223,-82.1622 129.567,-75.5661"/>
</g>
<!-- Node3&#45;&gt;Node6 -->
<g id="edge5" class="edge"><title>Node3&#45;&gt;Node6</title>
<path fill="none" stroke="midnightblue" d="M263.067,-112.324C278.958,-103.743 303.507,-90.486 321.958,-80.5224"/>
<polygon fill="midnightblue" stroke="midnightblue" points="323.837,-83.4857 330.973,-75.6545 320.511,-77.3264 323.837,-83.4857"/>
</g>
<!-- Node7 -->
<g id="node7" class="node"><title>Node7</title>
<g id="a_node7"><a xlink:href="projdefs_8h.html" target="_top" xlink:title="projdefs.h">
<polygon fill="white" stroke="black" points="138,-56.5 138,-75.5 198,-75.5 198,-56.5 138,-56.5"/>
<text text-anchor="middle" x="168" y="-63.5" font-family="Helvetica,sans-Serif" font-size="10.00">projdefs.h</text>
</a>
</g>
</g>
<!-- Node3&#45;&gt;Node7 -->
<g id="edge6" class="edge"><title>Node3&#45;&gt;Node7</title>
<path fill="none" stroke="midnightblue" d="M234.307,-112.324C222.099,-103.979 203.422,-91.2122 188.997,-81.3524"/>
<polygon fill="midnightblue" stroke="midnightblue" points="190.892,-78.4082 180.661,-75.6545 186.942,-84.1871 190.892,-78.4082"/>
</g>
<!-- Node8 -->
<g id="node8" class="node"><title>Node8</title>
<g id="a_node8"><a xlink:href="portable_8h.html" target="_top" xlink:title="portable.h">
<polygon fill="white" stroke="black" points="216.5,-56.5 216.5,-75.5 277.5,-75.5 277.5,-56.5 216.5,-56.5"/>
<text text-anchor="middle" x="247" y="-63.5" font-family="Helvetica,sans-Serif" font-size="10.00">portable.h</text>
</a>
</g>
</g>
<!-- Node3&#45;&gt;Node8 -->
<g id="edge7" class="edge"><title>Node3&#45;&gt;Node8</title>
<path fill="none" stroke="midnightblue" d="M247,-112.083C247,-105.006 247,-94.8611 247,-85.9865"/>
<polygon fill="midnightblue" stroke="midnightblue" points="250.5,-85.751 247,-75.7511 243.5,-85.7511 250.5,-85.751"/>
</g>
<!-- Node9 -->
<g id="node9" class="node"><title>Node9</title>
<g id="a_node9"><a xlink:href="deprecated__definitions_8h.html" target="_top" xlink:title="deprecated_definitions.h">
<polygon fill="white" stroke="black" points="68.5,-0.5 68.5,-19.5 193.5,-19.5 193.5,-0.5 68.5,-0.5"/>
<text text-anchor="middle" x="131" y="-7.5" font-family="Helvetica,sans-Serif" font-size="10.00">deprecated_definitions.h</text>
</a>
</g>
</g>
<!-- Node8&#45;&gt;Node9 -->
<g id="edge8" class="edge"><title>Node8&#45;&gt;Node9</title>
<path fill="none" stroke="midnightblue" d="M228.619,-56.4435C209.784,-47.6751 180.269,-33.9355 158.621,-23.8579"/>
<polygon fill="midnightblue" stroke="midnightblue" points="159.838,-20.5637 149.295,-19.5164 156.883,-26.9098 159.838,-20.5637"/>
</g>
<!-- Node10 -->
<g id="node10" class="node"><title>Node10</title>
<polygon fill="white" stroke="#bfbfbf" points="212,-0.5 212,-19.5 282,-19.5 282,-0.5 212,-0.5"/>
<text text-anchor="middle" x="247" y="-7.5" font-family="Helvetica,sans-Serif" font-size="10.00">portmacro.h</text>
</g>
<!-- Node8&#45;&gt;Node10 -->
<g id="edge9" class="edge"><title>Node8&#45;&gt;Node10</title>
<path fill="none" stroke="midnightblue" d="M247,-56.083C247,-49.0059 247,-38.8611 247,-29.9865"/>
<polygon fill="midnightblue" stroke="midnightblue" points="250.5,-29.751 247,-19.7511 243.5,-29.7511 250.5,-29.751"/>
</g>
<!-- Node11 -->
<g id="node11" class="node"><title>Node11</title>
<g id="a_node11"><a xlink:href="mpu__wrappers_8h.html" target="_top" xlink:title="mpu_wrappers.h">
<polygon fill="white" stroke="black" points="300.5,-0.5 300.5,-19.5 391.5,-19.5 391.5,-0.5 300.5,-0.5"/>
<text text-anchor="middle" x="346" y="-7.5" font-family="Helvetica,sans-Serif" font-size="10.00">mpu_wrappers.h</text>
</a>
</g>
</g>
<!-- Node8&#45;&gt;Node11 -->
<g id="edge10" class="edge"><title>Node8&#45;&gt;Node11</title>
<path fill="none" stroke="midnightblue" d="M262.906,-56.324C278.638,-47.7428 302.942,-34.486 321.209,-24.5224"/>
<polygon fill="midnightblue" stroke="midnightblue" points="323.03,-27.5157 330.133,-19.6545 319.678,-21.3704 323.03,-27.5157"/>
</g>
<!-- Node13 -->
<g id="node13" class="node"><title>Node13</title>
<g id="a_node13"><a xlink:href="list_8h.html" target="_top" xlink:title="list.h">
<polygon fill="white" stroke="black" points="416.5,-56.5 416.5,-75.5 453.5,-75.5 453.5,-56.5 416.5,-56.5"/>
<text text-anchor="middle" x="435" y="-63.5" font-family="Helvetica,sans-Serif" font-size="10.00">list.h</text>
</a>
</g>
</g>
<!-- Node12&#45;&gt;Node13 -->
<g id="edge13" class="edge"><title>Node12&#45;&gt;Node13</title>
<path fill="none" stroke="midnightblue" d="M418.303,-112.083C420.982,-104.849 424.849,-94.4087 428.186,-85.3968"/>
<polygon fill="midnightblue" stroke="midnightblue" points="431.568,-86.3442 431.759,-75.7511 425.004,-83.9129 431.568,-86.3442"/>
</g>
</g>
</svg>
