<?xml version="1.0" encoding="UTF-8" standalone="no"?>
<!DOCTYPE svg PUBLIC "-//W3C//DTD SVG 1.1//EN"
 "http://www.w3.org/Graphics/SVG/1.1/DTD/svg11.dtd">
<!-- Generated by graphviz version 2.30.1 (20130221.2233)
 -->
<!-- Title: vPortCentralInterruptWrapper Pages: 1 -->
<svg width="416pt" height="28pt"
 viewBox="0.00 0.00 416.00 28.00" xmlns="http://www.w3.org/2000/svg" xmlns:xlink="http://www.w3.org/1999/xlink">
<g id="graph0" class="graph" transform="scale(1 1) rotate(0) translate(4 24)">
<title>vPortCentralInterruptWrapper</title>
<polygon fill="white" stroke="white" points="-4,5 -4,-24 413,-24 413,5 -4,5"/>
<!-- Node1 -->
<g id="node1" class="node"><title>Node1</title>
<polygon fill="#bfbfbf" stroke="black" points="0,-0.5 0,-19.5 148,-19.5 148,-0.5 0,-0.5"/>
<text text-anchor="middle" x="74" y="-7.5" font-family="Helvetica,sans-Serif" font-size="10.00">vPortCentralInterruptWrapper</text>
</g>
<!-- Node2 -->
<g id="node2" class="node"><title>Node2</title>
<g id="a_node2"><a xlink:href="_g_c_c_2_i_a32__flat_2port_8c.html#ab80bbff02ac9871dcfb168f77b763beb" target="_top" xlink:title="vPortSetupIDT">
<polygon fill="white" stroke="black" points="184,-0.5 184,-19.5 266,-19.5 266,-0.5 184,-0.5"/>
<text text-anchor="middle" x="225" y="-7.5" font-family="Helvetica,sans-Serif" font-size="10.00">vPortSetupIDT</text>
</a>
</g>
</g>
<!-- Node1&#45;&gt;Node2 -->
<g id="edge1" class="edge"><title>Node1&#45;&gt;Node2</title>
<path fill="none" stroke="midnightblue" d="M158.196,-10C167.02,-10 175.678,-10 183.668,-10"/>
<polygon fill="midnightblue" stroke="midnightblue" points="158.191,-6.5001 148.19,-10 158.19,-13.5001 158.191,-6.5001"/>
</g>
<!-- Node3 -->
<g id="node3" class="node"><title>Node3</title>
<g id="a_node3"><a xlink:href="_g_c_c_2_i_a32__flat_2port_8c.html#ade5a8c6666e7413a0355cc252029c5c6" target="_top" xlink:title="xPortStartScheduler">
<polygon fill="white" stroke="black" points="302,-0.5 302,-19.5 408,-19.5 408,-0.5 302,-0.5"/>
<text text-anchor="middle" x="355" y="-7.5" font-family="Helvetica,sans-Serif" font-size="10.00">xPortStartScheduler</text>
</a>
</g>
</g>
<!-- Node2&#45;&gt;Node3 -->
<g id="edge2" class="edge"><title>Node2&#45;&gt;Node3</title>
<path fill="none" stroke="midnightblue" d="M276.188,-10C284.588,-10 293.322,-10 301.772,-10"/>
<polygon fill="midnightblue" stroke="midnightblue" points="276.149,-6.5001 266.149,-10 276.149,-13.5001 276.149,-6.5001"/>
</g>
</g>
</svg>
