<?xml version="1.0" encoding="UTF-8" standalone="no"?>
<!DOCTYPE svg PUBLIC "-//W3C//DTD SVG 1.1//EN"
 "http://www.w3.org/Graphics/SVG/1.1/DTD/svg11.dtd">
<!-- Generated by graphviz version 2.30.1 (20130221.2233)
 -->
<!-- Title: source/portable/GCC/TriCore_1782/port.c Pages: 1 -->
<svg width="811pt" height="208pt"
 viewBox="0.00 0.00 811.00 208.00" xmlns="http://www.w3.org/2000/svg" xmlns:xlink="http://www.w3.org/1999/xlink">
<g id="graph0" class="graph" transform="scale(1 1) rotate(0) translate(4 204)">
<title>source/portable/GCC/TriCore_1782/port.c</title>
<polygon fill="white" stroke="white" points="-4,5 -4,-204 808,-204 808,5 -4,5"/>
<!-- Node1 -->
<g id="node1" class="node"><title>Node1</title>
<polygon fill="#bfbfbf" stroke="black" points="315,-169 315,-199 425,-199 425,-169 315,-169"/>
<text text-anchor="start" x="323" y="-187" font-family="Helvetica,sans-Serif" font-size="10.00">source/portable/GCC</text>
<text text-anchor="middle" x="370" y="-176" font-family="Helvetica,sans-Serif" font-size="10.00">/TriCore_1782/port.c</text>
</g>
<!-- Node2 -->
<g id="node2" class="node"><title>Node2</title>
<polygon fill="white" stroke="#bfbfbf" points="0,-112.5 0,-131.5 48,-131.5 48,-112.5 0,-112.5"/>
<text text-anchor="middle" x="24" y="-119.5" font-family="Helvetica,sans-Serif" font-size="10.00">stdlib.h</text>
</g>
<!-- Node1&#45;&gt;Node2 -->
<g id="edge1" class="edge"><title>Node1&#45;&gt;Node2</title>
<path fill="none" stroke="midnightblue" d="M314.827,-175.793C254.123,-167.465 153.537,-152.494 57.9117,-132.01"/>
<polygon fill="midnightblue" stroke="midnightblue" points="58.5931,-128.576 48.0787,-129.88 57.1111,-135.418 58.5931,-128.576"/>
</g>
<!-- Node3 -->
<g id="node3" class="node"><title>Node3</title>
<polygon fill="white" stroke="#bfbfbf" points="66.5,-112.5 66.5,-131.5 115.5,-131.5 115.5,-112.5 66.5,-112.5"/>
<text text-anchor="middle" x="91" y="-119.5" font-family="Helvetica,sans-Serif" font-size="10.00">string.h</text>
</g>
<!-- Node1&#45;&gt;Node3 -->
<g id="edge2" class="edge"><title>Node1&#45;&gt;Node3</title>
<path fill="none" stroke="midnightblue" d="M314.837,-172.394C267.295,-163.054 196.605,-148.696 125.829,-132.097"/>
<polygon fill="midnightblue" stroke="midnightblue" points="126.38,-128.631 115.844,-129.741 124.772,-135.444 126.38,-128.631"/>
</g>
<!-- Node4 -->
<g id="node4" class="node"><title>Node4</title>
<polygon fill="white" stroke="#bfbfbf" points="133.5,-112.5 133.5,-131.5 188.5,-131.5 188.5,-112.5 133.5,-112.5"/>
<text text-anchor="middle" x="161" y="-119.5" font-family="Helvetica,sans-Serif" font-size="10.00">tc1782.h</text>
</g>
<!-- Node1&#45;&gt;Node4 -->
<g id="edge3" class="edge"><title>Node1&#45;&gt;Node4</title>
<path fill="none" stroke="midnightblue" d="M320.999,-168.933C283.443,-158.151 232.414,-143.502 198.176,-133.673"/>
<polygon fill="midnightblue" stroke="midnightblue" points="199.134,-130.306 188.557,-130.911 197.202,-137.035 199.134,-130.306"/>
</g>
<!-- Node5 -->
<g id="node5" class="node"><title>Node5</title>
<polygon fill="white" stroke="#bfbfbf" points="207,-112.5 207,-131.5 311,-131.5 311,-112.5 207,-112.5"/>
<text text-anchor="middle" x="259" y="-119.5" font-family="Helvetica,sans-Serif" font-size="10.00">machine/intrinsics.h</text>
</g>
<!-- Node1&#45;&gt;Node5 -->
<g id="edge4" class="edge"><title>Node1&#45;&gt;Node5</title>
<path fill="none" stroke="midnightblue" d="M343.975,-168.933C325.917,-159.171 301.994,-146.24 284.133,-136.586"/>
<polygon fill="midnightblue" stroke="midnightblue" points="285.371,-133.276 274.91,-131.6 282.043,-139.434 285.371,-133.276"/>
</g>
<!-- Node6 -->
<g id="node6" class="node"><title>Node6</title>
<polygon fill="white" stroke="#bfbfbf" points="329.5,-112.5 329.5,-131.5 410.5,-131.5 410.5,-112.5 329.5,-112.5"/>
<text text-anchor="middle" x="370" y="-119.5" font-family="Helvetica,sans-Serif" font-size="10.00">machine/cint.h</text>
</g>
<!-- Node1&#45;&gt;Node6 -->
<g id="edge5" class="edge"><title>Node1&#45;&gt;Node6</title>
<path fill="none" stroke="midnightblue" d="M370,-168.781C370,-160.781 370,-150.689 370,-142.017"/>
<polygon fill="midnightblue" stroke="midnightblue" points="373.5,-141.73 370,-131.731 366.5,-141.731 373.5,-141.73"/>
</g>
<!-- Node7 -->
<g id="node7" class="node"><title>Node7</title>
<polygon fill="white" stroke="#bfbfbf" points="428.5,-112.5 428.5,-131.5 525.5,-131.5 525.5,-112.5 428.5,-112.5"/>
<text text-anchor="middle" x="477" y="-119.5" font-family="Helvetica,sans-Serif" font-size="10.00">machine/wdtcon.h</text>
</g>
<!-- Node1&#45;&gt;Node7 -->
<g id="edge6" class="edge"><title>Node1&#45;&gt;Node7</title>
<path fill="none" stroke="midnightblue" d="M395.087,-168.933C412.494,-159.171 435.555,-146.24 452.772,-136.586"/>
<polygon fill="midnightblue" stroke="midnightblue" points="454.653,-139.544 461.663,-131.6 451.229,-133.438 454.653,-139.544"/>
</g>
<!-- Node8 -->
<g id="node8" class="node"><title>Node8</title>
<g id="a_node8"><a xlink:href="_free_r_t_o_s_8h.html" target="_top" xlink:title="FreeRTOS.h">
<polygon fill="white" stroke="black" points="543.5,-112.5 543.5,-131.5 616.5,-131.5 616.5,-112.5 543.5,-112.5"/>
<text text-anchor="middle" x="580" y="-119.5" font-family="Helvetica,sans-Serif" font-size="10.00">FreeRTOS.h</text>
</a>
</g>
</g>
<!-- Node1&#45;&gt;Node8 -->
<g id="edge7" class="edge"><title>Node1&#45;&gt;Node8</title>
<path fill="none" stroke="midnightblue" d="M419.236,-168.933C456.199,-158.372 506.151,-144.1 540.513,-134.282"/>
<polygon fill="midnightblue" stroke="midnightblue" points="541.552,-137.625 550.206,-131.513 539.629,-130.895 541.552,-137.625"/>
</g>
<!-- Node17 -->
<g id="node17" class="node"><title>Node17</title>
<g id="a_node17"><a xlink:href="task_8h.html" target="_top" xlink:title="task.h">
<polygon fill="white" stroke="black" points="644.5,-112.5 644.5,-131.5 687.5,-131.5 687.5,-112.5 644.5,-112.5"/>
<text text-anchor="middle" x="666" y="-119.5" font-family="Helvetica,sans-Serif" font-size="10.00">task.h</text>
</a>
</g>
</g>
<!-- Node1&#45;&gt;Node17 -->
<g id="edge16" class="edge"><title>Node1&#45;&gt;Node17</title>
<path fill="none" stroke="midnightblue" d="M425.275,-172.254C476.967,-162.132 556.291,-146.411 625,-132 628.04,-131.362 631.205,-130.688 634.368,-130.006"/>
<polygon fill="midnightblue" stroke="midnightblue" points="635.286,-133.388 644.313,-127.84 633.797,-126.548 635.286,-133.388"/>
</g>
<!-- Node18 -->
<g id="node18" class="node"><title>Node18</title>
<g id="a_node18"><a xlink:href="list_8h.html" target="_top" xlink:title="list.h">
<polygon fill="white" stroke="black" points="707.5,-56.5 707.5,-75.5 744.5,-75.5 744.5,-56.5 707.5,-56.5"/>
<text text-anchor="middle" x="726" y="-63.5" font-family="Helvetica,sans-Serif" font-size="10.00">list.h</text>
</a>
</g>
</g>
<!-- Node1&#45;&gt;Node18 -->
<g id="edge18" class="edge"><title>Node1&#45;&gt;Node18</title>
<path fill="none" stroke="midnightblue" d="M425.207,-180.573C506.774,-175.973 654.342,-163.458 696,-132 710.701,-120.899 718.435,-100.863 722.342,-85.9601"/>
<polygon fill="midnightblue" stroke="midnightblue" points="725.848,-86.3224 724.636,-75.7972 719.02,-84.7814 725.848,-86.3224"/>
</g>
<!-- Node9 -->
<g id="node9" class="node"><title>Node9</title>
<polygon fill="white" stroke="#bfbfbf" points="292,-56.5 292,-75.5 344,-75.5 344,-56.5 292,-56.5"/>
<text text-anchor="middle" x="318" y="-63.5" font-family="Helvetica,sans-Serif" font-size="10.00">stddef.h</text>
</g>
<!-- Node8&#45;&gt;Node9 -->
<g id="edge8" class="edge"><title>Node8&#45;&gt;Node9</title>
<path fill="none" stroke="midnightblue" d="M543.097,-113.754C489.385,-103.193 392.67,-84.1215 354.251,-75.9117"/>
<polygon fill="midnightblue" stroke="midnightblue" points="354.828,-72.4553 344.311,-73.734 353.33,-79.2931 354.828,-72.4553"/>
</g>
<!-- Node10 -->
<g id="node10" class="node"><title>Node10</title>
<polygon fill="white" stroke="#bfbfbf" points="362.5,-56.5 362.5,-75.5 411.5,-75.5 411.5,-56.5 362.5,-56.5"/>
<text text-anchor="middle" x="387" y="-63.5" font-family="Helvetica,sans-Serif" font-size="10.00">stdint.h</text>
</g>
<!-- Node8&#45;&gt;Node10 -->
<g id="edge9" class="edge"><title>Node8&#45;&gt;Node10</title>
<path fill="none" stroke="midnightblue" d="M549.419,-112.444C514.539,-102.685 457.652,-86.768 421.295,-76.5956"/>
<polygon fill="midnightblue" stroke="midnightblue" points="422.194,-73.2126 411.62,-73.8886 420.308,-79.9537 422.194,-73.2126"/>
</g>
<!-- Node11 -->
<g id="node11" class="node"><title>Node11</title>
<polygon fill="white" stroke="#bfbfbf" points="430,-56.5 430,-75.5 532,-75.5 532,-56.5 430,-56.5"/>
<text text-anchor="middle" x="481" y="-63.5" font-family="Helvetica,sans-Serif" font-size="10.00">FreeRTOSConfig.h</text>
</g>
<!-- Node8&#45;&gt;Node11 -->
<g id="edge10" class="edge"><title>Node8&#45;&gt;Node11</title>
<path fill="none" stroke="midnightblue" d="M564.094,-112.324C548.362,-103.743 524.058,-90.486 505.791,-80.5224"/>
<polygon fill="midnightblue" stroke="midnightblue" points="507.322,-77.3704 496.867,-75.6545 503.97,-83.5157 507.322,-77.3704"/>
</g>
<!-- Node12 -->
<g id="node12" class="node"><title>Node12</title>
<g id="a_node12"><a xlink:href="projdefs_8h.html" target="_top" xlink:title="projdefs.h">
<polygon fill="white" stroke="black" points="550,-56.5 550,-75.5 610,-75.5 610,-56.5 550,-56.5"/>
<text text-anchor="middle" x="580" y="-63.5" font-family="Helvetica,sans-Serif" font-size="10.00">projdefs.h</text>
</a>
</g>
</g>
<!-- Node8&#45;&gt;Node12 -->
<g id="edge11" class="edge"><title>Node8&#45;&gt;Node12</title>
<path fill="none" stroke="midnightblue" d="M580,-112.083C580,-105.006 580,-94.8611 580,-85.9865"/>
<polygon fill="midnightblue" stroke="midnightblue" points="583.5,-85.751 580,-75.7511 576.5,-85.7511 583.5,-85.751"/>
</g>
<!-- Node13 -->
<g id="node13" class="node"><title>Node13</title>
<g id="a_node13"><a xlink:href="portable_8h.html" target="_top" xlink:title="portable.h">
<polygon fill="white" stroke="black" points="628.5,-56.5 628.5,-75.5 689.5,-75.5 689.5,-56.5 628.5,-56.5"/>
<text text-anchor="middle" x="659" y="-63.5" font-family="Helvetica,sans-Serif" font-size="10.00">portable.h</text>
</a>
</g>
</g>
<!-- Node8&#45;&gt;Node13 -->
<g id="edge12" class="edge"><title>Node8&#45;&gt;Node13</title>
<path fill="none" stroke="midnightblue" d="M592.693,-112.324C604.901,-103.979 623.578,-91.2122 638.003,-81.3524"/>
<polygon fill="midnightblue" stroke="midnightblue" points="640.058,-84.1871 646.339,-75.6545 636.108,-78.4082 640.058,-84.1871"/>
</g>
<!-- Node14 -->
<g id="node14" class="node"><title>Node14</title>
<g id="a_node14"><a xlink:href="deprecated__definitions_8h.html" target="_top" xlink:title="deprecated_definitions.h">
<polygon fill="white" stroke="black" points="480.5,-0.5 480.5,-19.5 605.5,-19.5 605.5,-0.5 480.5,-0.5"/>
<text text-anchor="middle" x="543" y="-7.5" font-family="Helvetica,sans-Serif" font-size="10.00">deprecated_definitions.h</text>
</a>
</g>
</g>
<!-- Node13&#45;&gt;Node14 -->
<g id="edge13" class="edge"><title>Node13&#45;&gt;Node14</title>
<path fill="none" stroke="midnightblue" d="M640.619,-56.4435C621.784,-47.6751 592.269,-33.9355 570.621,-23.8579"/>
<polygon fill="midnightblue" stroke="midnightblue" points="571.838,-20.5637 561.295,-19.5164 568.883,-26.9098 571.838,-20.5637"/>
</g>
<!-- Node15 -->
<g id="node15" class="node"><title>Node15</title>
<polygon fill="white" stroke="#bfbfbf" points="624,-0.5 624,-19.5 694,-19.5 694,-0.5 624,-0.5"/>
<text text-anchor="middle" x="659" y="-7.5" font-family="Helvetica,sans-Serif" font-size="10.00">portmacro.h</text>
</g>
<!-- Node13&#45;&gt;Node15 -->
<g id="edge14" class="edge"><title>Node13&#45;&gt;Node15</title>
<path fill="none" stroke="midnightblue" d="M659,-56.083C659,-49.0059 659,-38.8611 659,-29.9865"/>
<polygon fill="midnightblue" stroke="midnightblue" points="662.5,-29.751 659,-19.7511 655.5,-29.7511 662.5,-29.751"/>
</g>
<!-- Node16 -->
<g id="node16" class="node"><title>Node16</title>
<g id="a_node16"><a xlink:href="mpu__wrappers_8h.html" target="_top" xlink:title="mpu_wrappers.h">
<polygon fill="white" stroke="black" points="712.5,-0.5 712.5,-19.5 803.5,-19.5 803.5,-0.5 712.5,-0.5"/>
<text text-anchor="middle" x="758" y="-7.5" font-family="Helvetica,sans-Serif" font-size="10.00">mpu_wrappers.h</text>
</a>
</g>
</g>
<!-- Node13&#45;&gt;Node16 -->
<g id="edge15" class="edge"><title>Node13&#45;&gt;Node16</title>
<path fill="none" stroke="midnightblue" d="M674.906,-56.324C690.638,-47.7428 714.942,-34.486 733.209,-24.5224"/>
<polygon fill="midnightblue" stroke="midnightblue" points="735.03,-27.5157 742.133,-19.6545 731.678,-21.3704 735.03,-27.5157"/>
</g>
<!-- Node17&#45;&gt;Node18 -->
<g id="edge17" class="edge"><title>Node17&#45;&gt;Node18</title>
<path fill="none" stroke="midnightblue" d="M675.64,-112.324C684.51,-104.341 697.875,-92.3128 708.608,-82.6529"/>
<polygon fill="midnightblue" stroke="midnightblue" points="711.093,-85.1251 716.185,-75.8339 706.41,-79.922 711.093,-85.1251"/>
</g>
</g>
</svg>
