<?xml version="1.0" encoding="UTF-8" standalone="no"?>
<!DOCTYPE svg PUBLIC "-//W3C//DTD SVG 1.1//EN"
 "http://www.w3.org/Graphics/SVG/1.1/DTD/svg11.dtd">
<!-- Generated by graphviz version 2.30.1 (20130221.2233)
 -->
<!-- Title: prvRaisePrivilege Pages: 1 -->
<svg width="304pt" height="750pt"
 viewBox="0.00 0.00 304.00 750.00" xmlns="http://www.w3.org/2000/svg" xmlns:xlink="http://www.w3.org/1999/xlink">
<g id="graph0" class="graph" transform="scale(1 1) rotate(0) translate(4 746)">
<title>prvRaisePrivilege</title>
<polygon fill="white" stroke="white" points="-4,5 -4,-746 301,-746 301,5 -4,5"/>
<!-- Node1 -->
<g id="node1" class="node"><title>Node1</title>
<polygon fill="#bfbfbf" stroke="black" points="0,-361.5 0,-380.5 94,-380.5 94,-361.5 0,-361.5"/>
<text text-anchor="middle" x="47" y="-368.5" font-family="Helvetica,sans-Serif" font-size="10.00">prvRaisePrivilege</text>
</g>
<!-- Node2 -->
<g id="node2" class="node"><title>Node2</title>
<g id="a_node2"><a xlink:href="_g_c_c_2_a_r_m___c_m3___m_p_u_2port_8c.html#a84af3fe5d0df7cd011534fb37e97b504" target="_top" xlink:title="MPU_pvPortMalloc">
<polygon fill="white" stroke="black" points="162,-722.5 162,-741.5 264,-741.5 264,-722.5 162,-722.5"/>
<text text-anchor="middle" x="213" y="-729.5" font-family="Helvetica,sans-Serif" font-size="10.00">MPU_pvPortMalloc</text>
</a>
</g>
</g>
<!-- Node1&#45;&gt;Node2 -->
<g id="edge1" class="edge"><title>Node1&#45;&gt;Node2</title>
<path fill="none" stroke="midnightblue" d="M50.0425,-390.87C57.2183,-456.797 83.3921,-666.747 130,-713 138.505,-721.441 149.975,-726.424 161.638,-729.298"/>
<polygon fill="midnightblue" stroke="midnightblue" points="53.4906,-390.194 48.9552,-380.619 46.5296,-390.933 53.4906,-390.194"/>
</g>
<!-- Node3 -->
<g id="node3" class="node"><title>Node3</title>
<g id="a_node3"><a xlink:href="_g_c_c_2_a_r_m___c_m3___m_p_u_2port_8c.html#ab197334f4b3b92d0a0c744f568481a5d" target="_top" xlink:title="MPU_uxQueueMessagesWaiting">
<polygon fill="white" stroke="black" points="131,-684.5 131,-703.5 295,-703.5 295,-684.5 131,-684.5"/>
<text text-anchor="middle" x="213" y="-691.5" font-family="Helvetica,sans-Serif" font-size="10.00">MPU_uxQueueMessagesWaiting</text>
</a>
</g>
</g>
<!-- Node1&#45;&gt;Node3 -->
<g id="edge2" class="edge"><title>Node1&#45;&gt;Node3</title>
<path fill="none" stroke="midnightblue" d="M50.7001,-391.015C59.345,-452.146 88.2389,-634.707 130,-675 133.891,-678.754 138.37,-681.82 143.186,-684.318"/>
<polygon fill="midnightblue" stroke="midnightblue" points="54.1214,-390.204 49.283,-380.779 47.1876,-391.164 54.1214,-390.204"/>
</g>
<!-- Node4 -->
<g id="node4" class="node"><title>Node4</title>
<g id="a_node4"><a xlink:href="_g_c_c_2_a_r_m___c_m3___m_p_u_2port_8c.html#a46b9dfbf8afce7ac947cb5be9bf381fa" target="_top" xlink:title="MPU_uxTaskGetNumberOfTasks">
<polygon fill="white" stroke="black" points="130.5,-646.5 130.5,-665.5 295.5,-665.5 295.5,-646.5 130.5,-646.5"/>
<text text-anchor="middle" x="213" y="-653.5" font-family="Helvetica,sans-Serif" font-size="10.00">MPU_uxTaskGetNumberOfTasks</text>
</a>
</g>
</g>
<!-- Node1&#45;&gt;Node4 -->
<g id="edge3" class="edge"><title>Node1&#45;&gt;Node4</title>
<path fill="none" stroke="midnightblue" d="M47.8385,-390.74C48.5674,-440.08 57.6497,-569.635 130,-637 134.064,-640.784 138.728,-643.863 143.725,-646.364"/>
<polygon fill="midnightblue" stroke="midnightblue" points="51.3385,-390.722 47.7942,-380.738 44.3386,-390.753 51.3385,-390.722"/>
</g>
<!-- Node5 -->
<g id="node5" class="node"><title>Node5</title>
<g id="a_node5"><a xlink:href="_g_c_c_2_a_r_m___c_m3___m_p_u_2port_8c.html#acd24fff1bcec99632bfea2b06fd9fb22" target="_top" xlink:title="MPU_vPortFree">
<polygon fill="white" stroke="black" points="169,-608.5 169,-627.5 257,-627.5 257,-608.5 169,-608.5"/>
<text text-anchor="middle" x="213" y="-615.5" font-family="Helvetica,sans-Serif" font-size="10.00">MPU_vPortFree</text>
</a>
</g>
</g>
<!-- Node1&#45;&gt;Node5 -->
<g id="edge4" class="edge"><title>Node1&#45;&gt;Node5</title>
<path fill="none" stroke="midnightblue" d="M49.0003,-390.573C52.3612,-434.802 66.9477,-542.956 130,-599 140.595,-608.417 154.933,-613.426 168.658,-616.014"/>
<polygon fill="midnightblue" stroke="midnightblue" points="52.4905,-390.306 48.3533,-380.553 45.505,-390.757 52.4905,-390.306"/>
</g>
<!-- Node6 -->
<g id="node6" class="node"><title>Node6</title>
<g id="a_node6"><a xlink:href="_g_c_c_2_a_r_m___c_m3___m_p_u_2port_8c.html#aab32821ad688618871c0c2771b981a61" target="_top" xlink:title="MPU_vPortInitialiseBlocks">
<polygon fill="white" stroke="black" points="146.5,-570.5 146.5,-589.5 279.5,-589.5 279.5,-570.5 146.5,-570.5"/>
<text text-anchor="middle" x="213" y="-577.5" font-family="Helvetica,sans-Serif" font-size="10.00">MPU_vPortInitialiseBlocks</text>
</a>
</g>
</g>
<!-- Node1&#45;&gt;Node6 -->
<g id="edge5" class="edge"><title>Node1&#45;&gt;Node6</title>
<path fill="none" stroke="midnightblue" d="M50.609,-390.711C56.8359,-429.567 76.2781,-516.16 130,-561 134.824,-565.027 140.341,-568.236 146.182,-570.791"/>
<polygon fill="midnightblue" stroke="midnightblue" points="54.0522,-390.069 49.131,-380.686 47.127,-391.09 54.0522,-390.069"/>
</g>
<!-- Node7 -->
<g id="node7" class="node"><title>Node7</title>
<g id="a_node7"><a xlink:href="_g_c_c_2_a_r_m___c_m3___m_p_u_2port_8c.html#ac378aaf28d5631ab7dcb8c75840f9544" target="_top" xlink:title="MPU_vQueueDelete">
<polygon fill="white" stroke="black" points="159,-532.5 159,-551.5 267,-551.5 267,-532.5 159,-532.5"/>
<text text-anchor="middle" x="213" y="-539.5" font-family="Helvetica,sans-Serif" font-size="10.00">MPU_vQueueDelete</text>
</a>
</g>
</g>
<!-- Node1&#45;&gt;Node7 -->
<g id="edge6" class="edge"><title>Node1&#45;&gt;Node7</title>
<path fill="none" stroke="midnightblue" d="M52.8314,-390.356C62.027,-423.016 85.243,-488.843 130,-523 138.364,-529.383 148.51,-533.679 158.773,-536.556"/>
<polygon fill="midnightblue" stroke="midnightblue" points="56.1999,-389.404 50.2395,-380.645 49.4367,-391.209 56.1999,-389.404"/>
</g>
<!-- Node8 -->
<g id="node8" class="node"><title>Node8</title>
<g id="a_node8"><a xlink:href="_g_c_c_2_a_r_m___c_m3___m_p_u_2port_8c.html#a851c943acdf98615bfa3940ae18b0158" target="_top" xlink:title="MPU_vTaskAllocateMPURegions">
<polygon fill="white" stroke="black" points="130.5,-494.5 130.5,-513.5 295.5,-513.5 295.5,-494.5 130.5,-494.5"/>
<text text-anchor="middle" x="213" y="-501.5" font-family="Helvetica,sans-Serif" font-size="10.00">MPU_vTaskAllocateMPURegions</text>
</a>
</g>
</g>
<!-- Node1&#45;&gt;Node8 -->
<g id="edge7" class="edge"><title>Node1&#45;&gt;Node8</title>
<path fill="none" stroke="midnightblue" d="M56.4166,-390.184C68.7302,-415.916 94.1511,-461.129 130,-485 135.838,-488.888 142.37,-491.986 149.13,-494.453"/>
<polygon fill="midnightblue" stroke="midnightblue" points="59.4413,-388.384 52.0804,-380.764 53.0827,-391.311 59.4413,-388.384"/>
</g>
<!-- Node9 -->
<g id="node9" class="node"><title>Node9</title>
<g id="a_node9"><a xlink:href="_g_c_c_2_a_r_m___c_m3___m_p_u_2port_8c.html#a5a89966e24025e52ea10166ce2c492d4" target="_top" xlink:title="MPU_vTaskSuspendAll">
<polygon fill="white" stroke="black" points="152,-456.5 152,-475.5 274,-475.5 274,-456.5 152,-456.5"/>
<text text-anchor="middle" x="213" y="-463.5" font-family="Helvetica,sans-Serif" font-size="10.00">MPU_vTaskSuspendAll</text>
</a>
</g>
</g>
<!-- Node1&#45;&gt;Node9 -->
<g id="edge8" class="edge"><title>Node1&#45;&gt;Node9</title>
<path fill="none" stroke="midnightblue" d="M61.9329,-388.399C76.8991,-405.891 102.294,-432.309 130,-447 137.359,-450.902 145.506,-454.009 153.726,-456.48"/>
<polygon fill="midnightblue" stroke="midnightblue" points="64.5461,-386.067 55.4592,-380.62 59.1655,-390.545 64.5461,-386.067"/>
</g>
<!-- Node10 -->
<g id="node10" class="node"><title>Node10</title>
<g id="a_node10"><a xlink:href="_g_c_c_2_a_r_m___c_m3___m_p_u_2port_8c.html#aaa61035f1d697dafc2b97227e0d81f0a" target="_top" xlink:title="MPU_xPortGetFreeHeapSize">
<polygon fill="white" stroke="black" points="139,-418.5 139,-437.5 287,-437.5 287,-418.5 139,-418.5"/>
<text text-anchor="middle" x="213" y="-425.5" font-family="Helvetica,sans-Serif" font-size="10.00">MPU_xPortGetFreeHeapSize</text>
</a>
</g>
</g>
<!-- Node1&#45;&gt;Node10 -->
<g id="edge9" class="edge"><title>Node1&#45;&gt;Node10</title>
<path fill="none" stroke="midnightblue" d="M74.9272,-385.194C90.6554,-393.046 111.075,-402.5 130,-409 140.642,-412.655 152.301,-415.83 163.402,-418.484"/>
<polygon fill="midnightblue" stroke="midnightblue" points="76.2962,-381.964 65.7957,-380.553 73.1244,-388.204 76.2962,-381.964"/>
</g>
<!-- Node11 -->
<g id="node11" class="node"><title>Node11</title>
<g id="a_node11"><a xlink:href="_g_c_c_2_a_r_m___c_m3___m_p_u_2port_8c.html#a807a463b8fc68904094127b85ae5d23b" target="_top" xlink:title="MPU_xQueueGenericCreate">
<polygon fill="white" stroke="black" points="141,-380.5 141,-399.5 285,-399.5 285,-380.5 141,-380.5"/>
<text text-anchor="middle" x="213" y="-387.5" font-family="Helvetica,sans-Serif" font-size="10.00">MPU_xQueueGenericCreate</text>
</a>
</g>
</g>
<!-- Node1&#45;&gt;Node11 -->
<g id="edge10" class="edge"><title>Node1&#45;&gt;Node11</title>
<path fill="none" stroke="midnightblue" d="M104.231,-377.515C115.999,-378.878 128.556,-380.333 140.787,-381.75"/>
<polygon fill="midnightblue" stroke="midnightblue" points="104.456,-374.017 94.1196,-376.343 103.65,-380.971 104.456,-374.017"/>
</g>
<!-- Node12 -->
<g id="node12" class="node"><title>Node12</title>
<g id="a_node12"><a xlink:href="_g_c_c_2_a_r_m___c_m3___m_p_u_2port_8c.html#a11f6f4ba0b7f2612c09d7494aa695297" target="_top" xlink:title="MPU_xQueueGenericReceive">
<polygon fill="white" stroke="black" points="138,-342.5 138,-361.5 288,-361.5 288,-342.5 138,-342.5"/>
<text text-anchor="middle" x="213" y="-349.5" font-family="Helvetica,sans-Serif" font-size="10.00">MPU_xQueueGenericReceive</text>
</a>
</g>
</g>
<!-- Node1&#45;&gt;Node12 -->
<g id="edge11" class="edge"><title>Node1&#45;&gt;Node12</title>
<path fill="none" stroke="midnightblue" d="M104.294,-364.478C115.149,-363.221 126.673,-361.885 137.992,-360.574"/>
<polygon fill="midnightblue" stroke="midnightblue" points="103.65,-361.029 94.1196,-365.657 104.456,-367.983 103.65,-361.029"/>
</g>
<!-- Node13 -->
<g id="node13" class="node"><title>Node13</title>
<g id="a_node13"><a xlink:href="_g_c_c_2_a_r_m___c_m3___m_p_u_2port_8c.html#ac7dccb1862fd656e1aedff73bd7c3433" target="_top" xlink:title="MPU_xQueueGenericReset">
<polygon fill="white" stroke="black" points="143,-304.5 143,-323.5 283,-323.5 283,-304.5 143,-304.5"/>
<text text-anchor="middle" x="213" y="-311.5" font-family="Helvetica,sans-Serif" font-size="10.00">MPU_xQueueGenericReset</text>
</a>
</g>
</g>
<!-- Node1&#45;&gt;Node13 -->
<g id="edge12" class="edge"><title>Node1&#45;&gt;Node13</title>
<path fill="none" stroke="midnightblue" d="M74.9272,-356.806C90.6554,-348.954 111.075,-339.5 130,-333 140.642,-329.345 152.301,-326.17 163.402,-323.516"/>
<polygon fill="midnightblue" stroke="midnightblue" points="73.1244,-353.796 65.7957,-361.447 76.2962,-360.036 73.1244,-353.796"/>
</g>
<!-- Node14 -->
<g id="node14" class="node"><title>Node14</title>
<g id="a_node14"><a xlink:href="_g_c_c_2_a_r_m___c_m3___m_p_u_2port_8c.html#afec3801d053a850488cda14b0cad95fd" target="_top" xlink:title="MPU_xQueueGenericSend">
<polygon fill="white" stroke="black" points="144,-266.5 144,-285.5 282,-285.5 282,-266.5 144,-266.5"/>
<text text-anchor="middle" x="213" y="-273.5" font-family="Helvetica,sans-Serif" font-size="10.00">MPU_xQueueGenericSend</text>
</a>
</g>
</g>
<!-- Node1&#45;&gt;Node14 -->
<g id="edge13" class="edge"><title>Node1&#45;&gt;Node14</title>
<path fill="none" stroke="midnightblue" d="M61.9329,-353.601C76.8991,-336.109 102.294,-309.691 130,-295 137.359,-291.098 145.506,-287.991 153.726,-285.52"/>
<polygon fill="midnightblue" stroke="midnightblue" points="59.1655,-351.455 55.4592,-361.38 64.5461,-355.933 59.1655,-351.455"/>
</g>
<!-- Node15 -->
<g id="node15" class="node"><title>Node15</title>
<g id="a_node15"><a xlink:href="_g_c_c_2_a_r_m___c_m3___m_p_u_2port_8c.html#a7278ca1132b990192755eee24d6d2ef7" target="_top" xlink:title="MPU_xQueueGetMutexHolder">
<polygon fill="white" stroke="black" points="137,-228.5 137,-247.5 289,-247.5 289,-228.5 137,-228.5"/>
<text text-anchor="middle" x="213" y="-235.5" font-family="Helvetica,sans-Serif" font-size="10.00">MPU_xQueueGetMutexHolder</text>
</a>
</g>
</g>
<!-- Node1&#45;&gt;Node15 -->
<g id="edge14" class="edge"><title>Node1&#45;&gt;Node15</title>
<path fill="none" stroke="midnightblue" d="M56.4166,-351.816C68.7302,-326.084 94.1511,-280.871 130,-257 135.838,-253.112 142.37,-250.014 149.13,-247.547"/>
<polygon fill="midnightblue" stroke="midnightblue" points="53.0827,-350.689 52.0804,-361.236 59.4413,-353.616 53.0827,-350.689"/>
</g>
<!-- Node16 -->
<g id="node16" class="node"><title>Node16</title>
<g id="a_node16"><a xlink:href="_g_c_c_2_a_r_m___c_m3___m_p_u_2port_8c.html#a9aeb66abf9fe439c26ffebcde56017ea" target="_top" xlink:title="MPU_xQueuePeekFromISR">
<polygon fill="white" stroke="black" points="142,-190.5 142,-209.5 284,-209.5 284,-190.5 142,-190.5"/>
<text text-anchor="middle" x="213" y="-197.5" font-family="Helvetica,sans-Serif" font-size="10.00">MPU_xQueuePeekFromISR</text>
</a>
</g>
</g>
<!-- Node1&#45;&gt;Node16 -->
<g id="edge15" class="edge"><title>Node1&#45;&gt;Node16</title>
<path fill="none" stroke="midnightblue" d="M52.8314,-351.644C62.027,-318.984 85.243,-253.157 130,-219 134.995,-215.188 140.626,-212.12 146.537,-209.655"/>
<polygon fill="midnightblue" stroke="midnightblue" points="49.4367,-350.791 50.2395,-361.355 56.1999,-352.596 49.4367,-350.791"/>
</g>
<!-- Node17 -->
<g id="node17" class="node"><title>Node17</title>
<g id="a_node17"><a xlink:href="_g_c_c_2_a_r_m___c_m3___m_p_u_2port_8c.html#a03080211c89a7d05e9918e1b5f364bf6" target="_top" xlink:title="MPU_xTaskGenericCreate">
<polygon fill="white" stroke="black" points="145,-152.5 145,-171.5 281,-171.5 281,-152.5 145,-152.5"/>
<text text-anchor="middle" x="213" y="-159.5" font-family="Helvetica,sans-Serif" font-size="10.00">MPU_xTaskGenericCreate</text>
</a>
</g>
</g>
<!-- Node1&#45;&gt;Node17 -->
<g id="edge16" class="edge"><title>Node1&#45;&gt;Node17</title>
<path fill="none" stroke="midnightblue" d="M50.609,-351.289C56.8359,-312.433 76.2781,-225.84 130,-181 134.6,-177.161 139.829,-174.064 145.369,-171.57"/>
<polygon fill="midnightblue" stroke="midnightblue" points="47.127,-350.91 49.131,-361.314 54.0522,-351.931 47.127,-350.91"/>
</g>
<!-- Node18 -->
<g id="node18" class="node"><title>Node18</title>
<g id="a_node18"><a xlink:href="_g_c_c_2_a_r_m___c_m3___m_p_u_2port_8c.html#a3b24e0327b39b868b91ff031fbdab048" target="_top" xlink:title="MPU_xTaskGetTickCount">
<polygon fill="white" stroke="black" points="147,-114.5 147,-133.5 279,-133.5 279,-114.5 147,-114.5"/>
<text text-anchor="middle" x="213" y="-121.5" font-family="Helvetica,sans-Serif" font-size="10.00">MPU_xTaskGetTickCount</text>
</a>
</g>
</g>
<!-- Node1&#45;&gt;Node18 -->
<g id="edge17" class="edge"><title>Node1&#45;&gt;Node18</title>
<path fill="none" stroke="midnightblue" d="M49.0003,-351.427C52.3612,-307.198 66.9477,-199.044 130,-143 134.915,-138.631 140.636,-135.211 146.727,-132.542"/>
<polygon fill="midnightblue" stroke="midnightblue" points="45.505,-351.243 48.3533,-361.447 52.4905,-351.694 45.505,-351.243"/>
</g>
<!-- Node19 -->
<g id="node19" class="node"><title>Node19</title>
<g id="a_node19"><a xlink:href="_g_c_c_2_a_r_m___c_m3___m_p_u_2port_8c.html#aa43b421a9eff441d0a850998551b17b4" target="_top" xlink:title="MPU_xTaskResumeAll">
<polygon fill="white" stroke="black" points="153.5,-76.5 153.5,-95.5 272.5,-95.5 272.5,-76.5 153.5,-76.5"/>
<text text-anchor="middle" x="213" y="-83.5" font-family="Helvetica,sans-Serif" font-size="10.00">MPU_xTaskResumeAll</text>
</a>
</g>
</g>
<!-- Node1&#45;&gt;Node19 -->
<g id="edge18" class="edge"><title>Node1&#45;&gt;Node19</title>
<path fill="none" stroke="midnightblue" d="M47.8385,-351.26C48.5674,-301.92 57.6497,-172.365 130,-105 136.524,-98.9256 144.595,-94.6672 153.105,-91.7043"/>
<polygon fill="midnightblue" stroke="midnightblue" points="44.3386,-351.247 47.7942,-361.262 51.3385,-351.278 44.3386,-351.247"/>
</g>
<!-- Node20 -->
<g id="node20" class="node"><title>Node20</title>
<g id="a_node20"><a xlink:href="_g_c_c_2_a_r_m___c_m3___m_p_u_2port_8c.html#a2ed3554a3de09a3bd09d396ee081ab69" target="_top" xlink:title="vPortEnterCritical">
<polygon fill="white" stroke="black" points="166,-38.5 166,-57.5 260,-57.5 260,-38.5 166,-38.5"/>
<text text-anchor="middle" x="213" y="-45.5" font-family="Helvetica,sans-Serif" font-size="10.00">vPortEnterCritical</text>
</a>
</g>
</g>
<!-- Node1&#45;&gt;Node20 -->
<g id="edge19" class="edge"><title>Node1&#45;&gt;Node20</title>
<path fill="none" stroke="midnightblue" d="M50.7001,-350.985C59.345,-289.854 88.2389,-107.293 130,-67 139.57,-57.7665 152.698,-52.6967 165.644,-49.9971"/>
<polygon fill="midnightblue" stroke="midnightblue" points="47.1876,-350.836 49.283,-361.221 54.1214,-351.796 47.1876,-350.836"/>
</g>
<!-- Node21 -->
<g id="node21" class="node"><title>Node21</title>
<g id="a_node21"><a xlink:href="_g_c_c_2_a_r_m___c_m3___m_p_u_2port_8c.html#aed20ada05b957181a0de042802a82a5b" target="_top" xlink:title="vPortExitCritical">
<polygon fill="white" stroke="black" points="169.5,-0.5 169.5,-19.5 256.5,-19.5 256.5,-0.5 169.5,-0.5"/>
<text text-anchor="middle" x="213" y="-7.5" font-family="Helvetica,sans-Serif" font-size="10.00">vPortExitCritical</text>
</a>
</g>
</g>
<!-- Node1&#45;&gt;Node21 -->
<g id="edge20" class="edge"><title>Node1&#45;&gt;Node21</title>
<path fill="none" stroke="midnightblue" d="M50.0425,-351.13C57.2183,-285.203 83.3921,-75.2535 130,-29 140.373,-18.7064 155.154,-13.5555 169.317,-11.1002"/>
<polygon fill="midnightblue" stroke="midnightblue" points="46.5296,-351.067 48.9552,-361.381 53.4906,-351.806 46.5296,-351.067"/>
</g>
</g>
</svg>
