<?xml version="1.0" encoding="UTF-8" standalone="no"?>
<!DOCTYPE svg PUBLIC "-//W3C//DTD SVG 1.1//EN"
 "http://www.w3.org/Graphics/SVG/1.1/DTD/svg11.dtd">
<!-- Generated by graphviz version 2.30.1 (20130221.2233)
 -->
<!-- Title: MPU_uxQueueMessagesWaiting Pages: 1 -->
<svg width="344pt" height="66pt"
 viewBox="0.00 0.00 344.00 66.00" xmlns="http://www.w3.org/2000/svg" xmlns:xlink="http://www.w3.org/1999/xlink">
<g id="graph0" class="graph" transform="scale(1 1) rotate(0) translate(4 62)">
<title>MPU_uxQueueMessagesWaiting</title>
<polygon fill="white" stroke="white" points="-4,5 -4,-62 341,-62 341,5 -4,5"/>
<!-- Node1 -->
<g id="node1" class="node"><title>Node1</title>
<polygon fill="#bfbfbf" stroke="black" points="0,-19.5 0,-38.5 164,-38.5 164,-19.5 0,-19.5"/>
<text text-anchor="middle" x="82" y="-26.5" font-family="Helvetica,sans-Serif" font-size="10.00">MPU_uxQueueMessagesWaiting</text>
</g>
<!-- Node2 -->
<g id="node2" class="node"><title>Node2</title>
<g id="a_node2"><a xlink:href="_g_c_c_2_a_r_m___c_m3___m_p_u_2port_8c.html#ad5691a9d6fd4c0b9f4e55426dd9a48ad" target="_top" xlink:title="prvRaisePrivilege">
<polygon fill="white" stroke="black" points="221,-38.5 221,-57.5 315,-57.5 315,-38.5 221,-38.5"/>
<text text-anchor="middle" x="268" y="-45.5" font-family="Helvetica,sans-Serif" font-size="10.00">prvRaisePrivilege</text>
</a>
</g>
</g>
<!-- Node1&#45;&gt;Node2 -->
<g id="edge1" class="edge"><title>Node1&#45;&gt;Node2</title>
<path fill="none" stroke="midnightblue" d="M164.241,-37.389C180.041,-39.0206 196.271,-40.6965 211.031,-42.2206"/>
<polygon fill="midnightblue" stroke="midnightblue" points="210.685,-45.7034 220.992,-43.2492 211.404,-38.7404 210.685,-45.7034"/>
</g>
<!-- Node3 -->
<g id="node3" class="node"><title>Node3</title>
<g id="a_node3"><a xlink:href="queue_8h.html#add7ee0701ba35904d190811b9e5a4eda" target="_top" xlink:title="uxQueueMessagesWaiting">
<polygon fill="white" stroke="black" points="200,-0.5 200,-19.5 336,-19.5 336,-0.5 200,-0.5"/>
<text text-anchor="middle" x="268" y="-7.5" font-family="Helvetica,sans-Serif" font-size="10.00">uxQueueMessagesWaiting</text>
</a>
</g>
</g>
<!-- Node1&#45;&gt;Node3 -->
<g id="edge2" class="edge"><title>Node1&#45;&gt;Node3</title>
<path fill="none" stroke="midnightblue" d="M164.241,-20.611C172.728,-19.7346 181.338,-18.8455 189.779,-17.9739"/>
<polygon fill="midnightblue" stroke="midnightblue" points="190.382,-21.4303 199.97,-16.9216 189.663,-14.4673 190.382,-21.4303"/>
</g>
</g>
</svg>
