<?xml version="1.0" encoding="UTF-8" standalone="no"?>
<!DOCTYPE svg PUBLIC "-//W3C//DTD SVG 1.1//EN"
 "http://www.w3.org/Graphics/SVG/1.1/DTD/svg11.dtd">
<!-- Generated by graphviz version 2.30.1 (20130221.2233)
 -->
<!-- Title: xPortStartScheduler Pages: 1 -->
<svg width="620pt" height="85pt"
 viewBox="0.00 0.00 620.00 85.00" xmlns="http://www.w3.org/2000/svg" xmlns:xlink="http://www.w3.org/1999/xlink">
<g id="graph0" class="graph" transform="scale(1 1) rotate(0) translate(4 81)">
<title>xPortStartScheduler</title>
<polygon fill="white" stroke="white" points="-4,5 -4,-81 617,-81 617,5 -4,5"/>
<!-- Node1 -->
<g id="node1" class="node"><title>Node1</title>
<polygon fill="#bfbfbf" stroke="black" points="0,-19.5 0,-38.5 106,-38.5 106,-19.5 0,-19.5"/>
<text text-anchor="middle" x="53" y="-26.5" font-family="Helvetica,sans-Serif" font-size="10.00">xPortStartScheduler</text>
</g>
<!-- Node2 -->
<g id="node2" class="node"><title>Node2</title>
<g id="a_node2"><a xlink:href="_g_c_c_2_a_r_m7___l_p_c2000_2port_8c.html#aeb91268bfbb6dc04ff839631ee5c72ba" target="_top" xlink:title="prvSetupTimerInterrupt">
<polygon fill="white" stroke="black" points="142.5,-38.5 142.5,-57.5 261.5,-57.5 261.5,-38.5 142.5,-38.5"/>
<text text-anchor="middle" x="202" y="-45.5" font-family="Helvetica,sans-Serif" font-size="10.00">prvSetupTimerInterrupt</text>
</a>
</g>
</g>
<!-- Node1&#45;&gt;Node2 -->
<g id="edge1" class="edge"><title>Node1&#45;&gt;Node2</title>
<path fill="none" stroke="midnightblue" d="M106.241,-35.7522C114.663,-36.8408 123.493,-37.9821 132.234,-39.1118"/>
<polygon fill="midnightblue" stroke="midnightblue" points="132.057,-42.618 142.423,-40.4288 132.954,-35.6758 132.057,-42.618"/>
</g>
<!-- Node7 -->
<g id="node7" class="node"><title>Node7</title>
<g id="a_node7"><a xlink:href="_g_c_c_2_a_r_m7___a_t91_f_r40008_2port_8c.html#ab6f659b3911405d21fe98a1c7a347d8f" target="_top" xlink:title="vPortISRStartFirstTask">
<polygon fill="white" stroke="black" points="142.5,-0.5 142.5,-19.5 261.5,-19.5 261.5,-0.5 142.5,-0.5"/>
<text text-anchor="middle" x="202" y="-7.5" font-family="Helvetica,sans-Serif" font-size="10.00">vPortISRStartFirstTask</text>
</a>
</g>
</g>
<!-- Node1&#45;&gt;Node7 -->
<g id="edge7" class="edge"><title>Node1&#45;&gt;Node7</title>
<path fill="none" stroke="midnightblue" d="M106.241,-22.2478C114.663,-21.1592 123.493,-20.0179 132.234,-18.8882"/>
<polygon fill="midnightblue" stroke="midnightblue" points="132.954,-22.3242 142.423,-17.5712 132.057,-15.382 132.954,-22.3242"/>
</g>
<!-- Node3 -->
<g id="node3" class="node"><title>Node3</title>
<g id="a_node3"><a xlink:href="_paradigm_2_tern___e_e_2small_2portmacro_8h.html#a14d32f8130d3c0b212cfc751730b5b49" target="_top" xlink:title="void">
<polygon fill="white" stroke="black" points="554.5,-57.5 554.5,-76.5 589.5,-76.5 589.5,-57.5 554.5,-57.5"/>
<text text-anchor="middle" x="572" y="-64.5" font-family="Helvetica,sans-Serif" font-size="10.00">void</text>
</a>
</g>
</g>
<!-- Node2&#45;&gt;Node3 -->
<g id="edge2" class="edge"><title>Node2&#45;&gt;Node3</title>
<path fill="none" stroke="midnightblue" d="M261.718,-51.0316C342.715,-55.2136 485.397,-62.5803 544.355,-65.6243"/>
<polygon fill="midnightblue" stroke="midnightblue" points="544.189,-69.1203 554.356,-66.1407 544.55,-62.1296 544.189,-69.1203"/>
</g>
<!-- Node4 -->
<g id="node4" class="node"><title>Node4</title>
<g id="a_node4"><a xlink:href="_g_c_c_2_h8_s2329_2port_8c.html#a502142367426395ab5c401b99204b437" target="_top" xlink:title="vTickISR">
<polygon fill="white" stroke="black" points="298,-19.5 298,-38.5 354,-38.5 354,-19.5 298,-19.5"/>
<text text-anchor="middle" x="326" y="-26.5" font-family="Helvetica,sans-Serif" font-size="10.00">vTickISR</text>
</a>
</g>
</g>
<!-- Node2&#45;&gt;Node4 -->
<g id="edge3" class="edge"><title>Node2&#45;&gt;Node4</title>
<path fill="none" stroke="midnightblue" d="M261.856,-38.8339C270.682,-37.4594 279.567,-36.0756 287.773,-34.7977"/>
<polygon fill="midnightblue" stroke="midnightblue" points="288.404,-38.2416 297.747,-33.2444 287.327,-31.325 288.404,-38.2416"/>
</g>
<!-- Node5 -->
<g id="node5" class="node"><title>Node5</title>
<g id="a_node5"><a xlink:href="task_8h.html#a978e25460ac35706f9ad30b46d9403d8" target="_top" xlink:title="xTaskIncrementTick">
<polygon fill="white" stroke="black" points="390,-19.5 390,-38.5 496,-38.5 496,-19.5 390,-19.5"/>
<text text-anchor="middle" x="443" y="-26.5" font-family="Helvetica,sans-Serif" font-size="10.00">xTaskIncrementTick</text>
</a>
</g>
</g>
<!-- Node4&#45;&gt;Node5 -->
<g id="edge4" class="edge"><title>Node4&#45;&gt;Node5</title>
<path fill="none" stroke="midnightblue" d="M354.253,-29C361.975,-29 370.713,-29 379.609,-29"/>
<polygon fill="midnightblue" stroke="midnightblue" points="379.674,-32.5001 389.674,-29 379.674,-25.5001 379.674,-32.5001"/>
</g>
<!-- Node6 -->
<g id="node6" class="node"><title>Node6</title>
<g id="a_node6"><a xlink:href="list_8h.html#a2eb1558482076fff8cafc63419c2d34a" target="_top" xlink:title="uxListRemove">
<polygon fill="white" stroke="black" points="532,-19.5 532,-38.5 612,-38.5 612,-19.5 532,-19.5"/>
<text text-anchor="middle" x="572" y="-26.5" font-family="Helvetica,sans-Serif" font-size="10.00">uxListRemove</text>
</a>
</g>
</g>
<!-- Node5&#45;&gt;Node6 -->
<g id="edge5" class="edge"><title>Node5&#45;&gt;Node6</title>
<path fill="none" stroke="midnightblue" d="M496.022,-29C504.496,-29 513.252,-29 521.659,-29"/>
<polygon fill="midnightblue" stroke="midnightblue" points="521.698,-32.5001 531.698,-29 521.698,-25.5001 521.698,-32.5001"/>
</g>
<!-- Node5&#45;&gt;Node3 -->
<g id="edge6" class="edge"><title>Node5&#45;&gt;Node3</title>
<path fill="none" stroke="midnightblue" d="M476.047,-38.589C497.198,-44.9174 524.576,-53.1093 544.496,-59.0695"/>
<polygon fill="midnightblue" stroke="midnightblue" points="543.576,-62.4477 554.16,-61.9613 545.583,-55.7415 543.576,-62.4477"/>
</g>
</g>
</svg>
