<?xml version="1.0" encoding="UTF-8" standalone="no"?>
<!DOCTYPE svg PUBLIC "-//W3C//DTD SVG 1.1//EN"
 "http://www.w3.org/Graphics/SVG/1.1/DTD/svg11.dtd">
<!-- Generated by graphviz version 2.30.1 (20130221.2233)
 -->
<!-- Title: AT91F_PIO_CfgPeriph Pages: 1 -->
<svg width="312pt" height="712pt"
 viewBox="0.00 0.00 312.00 712.00" xmlns="http://www.w3.org/2000/svg" xmlns:xlink="http://www.w3.org/1999/xlink">
<g id="graph0" class="graph" transform="scale(1 1) rotate(0) translate(4 708)">
<title>AT91F_PIO_CfgPeriph</title>
<polygon fill="white" stroke="white" points="-4,5 -4,-708 309,-708 309,5 -4,5"/>
<!-- Node1 -->
<g id="node1" class="node"><title>Node1</title>
<polygon fill="#bfbfbf" stroke="black" points="0.5,-342.5 0.5,-361.5 119.5,-361.5 119.5,-342.5 0.5,-342.5"/>
<text text-anchor="middle" x="60" y="-349.5" font-family="Helvetica,sans-Serif" font-size="10.00">AT91F_PIO_CfgPeriph</text>
</g>
<!-- Node2 -->
<g id="node2" class="node"><title>Node2</title>
<g id="a_node2"><a xlink:href="_g_c_c_2_a_r_m7___a_t91_s_a_m7_s_2lib___a_t91_s_a_m7_x256_8h.html#a0d455227cf619e2d01fc40426f939105" target="_top" xlink:title="AT91F_ADC_CfgPIO">
<polygon fill="white" stroke="black" points="174,-684.5 174,-703.5 286,-703.5 286,-684.5 174,-684.5"/>
<text text-anchor="middle" x="230" y="-691.5" font-family="Helvetica,sans-Serif" font-size="10.00">AT91F_ADC_CfgPIO</text>
</a>
</g>
</g>
<!-- Node1&#45;&gt;Node2 -->
<g id="edge1" class="edge"><title>Node1&#45;&gt;Node2</title>
<path fill="none" stroke="midnightblue" d="M60.5603,-371.614C60.4261,-427.628 68.0344,-589.756 156,-675 161.078,-679.921 167.263,-683.612 173.86,-686.372"/>
<polygon fill="midnightblue" stroke="midnightblue" points="64.0601,-371.647 60.6746,-361.608 57.0605,-371.567 64.0601,-371.647"/>
</g>
<!-- Node3 -->
<g id="node3" class="node"><title>Node3</title>
<g id="a_node3"><a xlink:href="_g_c_c_2_a_r_m7___a_t91_s_a_m7_s_2lib___a_t91_s_a_m7_x256_8h.html#a33bc9f33509a141ddc019aff77379d1d" target="_top" xlink:title="AT91F_AIC_CfgPIO">
<polygon fill="white" stroke="black" points="176.5,-646.5 176.5,-665.5 283.5,-665.5 283.5,-646.5 176.5,-646.5"/>
<text text-anchor="middle" x="230" y="-653.5" font-family="Helvetica,sans-Serif" font-size="10.00">AT91F_AIC_CfgPIO</text>
</a>
</g>
</g>
<!-- Node1&#45;&gt;Node3 -->
<g id="edge2" class="edge"><title>Node1&#45;&gt;Node3</title>
<path fill="none" stroke="midnightblue" d="M61.4618,-371.677C63.778,-423.262 77.3726,-563.481 156,-637 161.739,-642.367 168.798,-646.261 176.243,-649.079"/>
<polygon fill="midnightblue" stroke="midnightblue" points="64.9555,-371.432 61.1066,-361.561 57.9598,-371.678 64.9555,-371.432"/>
</g>
<!-- Node4 -->
<g id="node4" class="node"><title>Node4</title>
<g id="a_node4"><a xlink:href="_g_c_c_2_a_r_m7___a_t91_s_a_m7_s_2lib___a_t91_s_a_m7_x256_8h.html#a20538770220271ce6f6bc56340141694" target="_top" xlink:title="AT91F_CAN_CfgPIO">
<polygon fill="white" stroke="black" points="174,-608.5 174,-627.5 286,-627.5 286,-608.5 174,-608.5"/>
<text text-anchor="middle" x="230" y="-615.5" font-family="Helvetica,sans-Serif" font-size="10.00">AT91F_CAN_CfgPIO</text>
</a>
</g>
</g>
<!-- Node1&#45;&gt;Node4 -->
<g id="edge3" class="edge"><title>Node1&#45;&gt;Node4</title>
<path fill="none" stroke="midnightblue" d="M62.6018,-371.539C67.5052,-418.216 86.5206,-536.931 156,-599 161.176,-603.624 167.338,-607.148 173.855,-609.829"/>
<polygon fill="midnightblue" stroke="midnightblue" points="66.0817,-371.161 61.6563,-361.534 59.1128,-371.819 66.0817,-371.161"/>
</g>
<!-- Node5 -->
<g id="node5" class="node"><title>Node5</title>
<g id="a_node5"><a xlink:href="_g_c_c_2_a_r_m7___a_t91_s_a_m7_s_2lib___a_t91_s_a_m7_x256_8h.html#a76156828a1bc6d8d7d2c6407e16ec804" target="_top" xlink:title="AT91F_DBGU_CfgPIO">
<polygon fill="white" stroke="black" points="170.5,-570.5 170.5,-589.5 289.5,-589.5 289.5,-570.5 170.5,-570.5"/>
<text text-anchor="middle" x="230" y="-577.5" font-family="Helvetica,sans-Serif" font-size="10.00">AT91F_DBGU_CfgPIO</text>
</a>
</g>
</g>
<!-- Node1&#45;&gt;Node5 -->
<g id="edge4" class="edge"><title>Node1&#45;&gt;Node5</title>
<path fill="none" stroke="midnightblue" d="M64.1364,-371.588C71.8401,-413.093 95.6529,-510.233 156,-561 160.61,-564.878 165.92,-567.976 171.53,-570.449"/>
<polygon fill="midnightblue" stroke="midnightblue" points="67.5704,-370.906 62.408,-361.654 60.674,-372.106 67.5704,-370.906"/>
</g>
<!-- Node6 -->
<g id="node6" class="node"><title>Node6</title>
<g id="a_node6"><a xlink:href="_g_c_c_2_a_r_m7___a_t91_s_a_m7_s_2lib___a_t91_s_a_m7_x256_8h.html#a728f4551a3a9a2783f841064842d7b46" target="_top" xlink:title="AT91F_EMAC_CfgPIO">
<polygon fill="white" stroke="black" points="170.5,-532.5 170.5,-551.5 289.5,-551.5 289.5,-532.5 170.5,-532.5"/>
<text text-anchor="middle" x="230" y="-539.5" font-family="Helvetica,sans-Serif" font-size="10.00">AT91F_EMAC_CfgPIO</text>
</a>
</g>
</g>
<!-- Node1&#45;&gt;Node6 -->
<g id="edge5" class="edge"><title>Node1&#45;&gt;Node6</title>
<path fill="none" stroke="midnightblue" d="M66.1583,-371.161C76.7537,-406.746 104.421,-483.039 156,-523 160.969,-526.85 166.641,-529.924 172.578,-532.378"/>
<polygon fill="midnightblue" stroke="midnightblue" points="69.5151,-370.17 63.4105,-361.51 62.7826,-372.086 69.5151,-370.17"/>
</g>
<!-- Node7 -->
<g id="node7" class="node"><title>Node7</title>
<g id="a_node7"><a xlink:href="_g_c_c_2_a_r_m7___a_t91_s_a_m7_s_2lib___a_t91_s_a_m7_x256_8h.html#a0fe1b1a35fb3e5ddc1d3ad8bc8fa3709" target="_top" xlink:title="AT91F_PMC_CfgPIO">
<polygon fill="white" stroke="black" points="173.5,-494.5 173.5,-513.5 286.5,-513.5 286.5,-494.5 173.5,-494.5"/>
<text text-anchor="middle" x="230" y="-501.5" font-family="Helvetica,sans-Serif" font-size="10.00">AT91F_PMC_CfgPIO</text>
</a>
</g>
</g>
<!-- Node1&#45;&gt;Node7 -->
<g id="edge6" class="edge"><title>Node1&#45;&gt;Node7</title>
<path fill="none" stroke="midnightblue" d="M69.2476,-370.916C82.931,-400.023 113.13,-455.508 156,-485 161.61,-488.86 167.954,-491.935 174.5,-494.386"/>
<polygon fill="midnightblue" stroke="midnightblue" points="72.4301,-369.459 65.1027,-361.807 66.0587,-372.359 72.4301,-369.459"/>
</g>
<!-- Node8 -->
<g id="node8" class="node"><title>Node8</title>
<g id="a_node8"><a xlink:href="_g_c_c_2_a_r_m7___a_t91_s_a_m7_s_2lib___a_t91_s_a_m7_x256_8h.html#a0b690d563c2f014fc7d61deda403f1c8" target="_top" xlink:title="AT91F_PWMC_CH0_CfgPIO">
<polygon fill="white" stroke="black" points="156,-456.5 156,-475.5 304,-475.5 304,-456.5 156,-456.5"/>
<text text-anchor="middle" x="230" y="-463.5" font-family="Helvetica,sans-Serif" font-size="10.00">AT91F_PWMC_CH0_CfgPIO</text>
</a>
</g>
</g>
<!-- Node1&#45;&gt;Node8 -->
<g id="edge7" class="edge"><title>Node1&#45;&gt;Node8</title>
<path fill="none" stroke="midnightblue" d="M73.9047,-369.764C90.4884,-391.29 121.309,-427.137 156,-447 162.705,-450.839 170.197,-453.918 177.757,-456.383"/>
<polygon fill="midnightblue" stroke="midnightblue" points="76.695,-367.651 67.888,-361.762 71.0999,-371.858 76.695,-367.651"/>
</g>
<!-- Node9 -->
<g id="node9" class="node"><title>Node9</title>
<g id="a_node9"><a xlink:href="_g_c_c_2_a_r_m7___a_t91_s_a_m7_s_2lib___a_t91_s_a_m7_x256_8h.html#af24954299ad7a276905e17926675e8ad" target="_top" xlink:title="AT91F_PWMC_CH1_CfgPIO">
<polygon fill="white" stroke="black" points="156,-418.5 156,-437.5 304,-437.5 304,-418.5 156,-418.5"/>
<text text-anchor="middle" x="230" y="-425.5" font-family="Helvetica,sans-Serif" font-size="10.00">AT91F_PWMC_CH1_CfgPIO</text>
</a>
</g>
</g>
<!-- Node1&#45;&gt;Node9 -->
<g id="edge8" class="edge"><title>Node1&#45;&gt;Node9</title>
<path fill="none" stroke="midnightblue" d="M82.5467,-367.381C101.209,-380.089 129.329,-397.802 156,-409 164.815,-412.701 174.538,-415.836 183.935,-418.427"/>
<polygon fill="midnightblue" stroke="midnightblue" points="84.4063,-364.411 74.1927,-361.595 80.4205,-370.166 84.4063,-364.411"/>
</g>
<!-- Node10 -->
<g id="node10" class="node"><title>Node10</title>
<g id="a_node10"><a xlink:href="_g_c_c_2_a_r_m7___a_t91_s_a_m7_s_2lib___a_t91_s_a_m7_x256_8h.html#ad4c4d693cd8eea3f078a4c9f1df6102d" target="_top" xlink:title="AT91F_PWMC_CH2_CfgPIO">
<polygon fill="white" stroke="black" points="156,-380.5 156,-399.5 304,-399.5 304,-380.5 156,-380.5"/>
<text text-anchor="middle" x="230" y="-387.5" font-family="Helvetica,sans-Serif" font-size="10.00">AT91F_PWMC_CH2_CfgPIO</text>
</a>
</g>
</g>
<!-- Node1&#45;&gt;Node10 -->
<g id="edge9" class="edge"><title>Node1&#45;&gt;Node10</title>
<path fill="none" stroke="midnightblue" d="M113.276,-363.824C136.961,-369.182 164.59,-375.431 186.911,-380.48"/>
<polygon fill="midnightblue" stroke="midnightblue" points="113.919,-360.381 103.393,-361.589 112.375,-367.209 113.919,-360.381"/>
</g>
<!-- Node11 -->
<g id="node11" class="node"><title>Node11</title>
<g id="a_node11"><a xlink:href="_g_c_c_2_a_r_m7___a_t91_s_a_m7_s_2lib___a_t91_s_a_m7_x256_8h.html#a3162bc2434c21b8be8e79bd90016b8cc" target="_top" xlink:title="AT91F_PWMC_CH3_CfgPIO">
<polygon fill="white" stroke="black" points="156,-342.5 156,-361.5 304,-361.5 304,-342.5 156,-342.5"/>
<text text-anchor="middle" x="230" y="-349.5" font-family="Helvetica,sans-Serif" font-size="10.00">AT91F_PWMC_CH3_CfgPIO</text>
</a>
</g>
</g>
<!-- Node1&#45;&gt;Node11 -->
<g id="edge10" class="edge"><title>Node1&#45;&gt;Node11</title>
<path fill="none" stroke="midnightblue" d="M130.005,-352C138.512,-352 147.231,-352 155.798,-352"/>
<polygon fill="midnightblue" stroke="midnightblue" points="129.758,-348.5 119.758,-352 129.758,-355.5 129.758,-348.5"/>
</g>
<!-- Node12 -->
<g id="node12" class="node"><title>Node12</title>
<g id="a_node12"><a xlink:href="_g_c_c_2_a_r_m7___a_t91_s_a_m7_s_2lib___a_t91_s_a_m7_x256_8h.html#a8f49e94040e1664f4a839cf672852ac3" target="_top" xlink:title="AT91F_SPI0_CfgPIO">
<polygon fill="white" stroke="black" points="174,-304.5 174,-323.5 286,-323.5 286,-304.5 174,-304.5"/>
<text text-anchor="middle" x="230" y="-311.5" font-family="Helvetica,sans-Serif" font-size="10.00">AT91F_SPI0_CfgPIO</text>
</a>
</g>
</g>
<!-- Node1&#45;&gt;Node12 -->
<g id="edge11" class="edge"><title>Node1&#45;&gt;Node12</title>
<path fill="none" stroke="midnightblue" d="M113.276,-340.176C136.961,-334.818 164.59,-328.569 186.911,-323.52"/>
<polygon fill="midnightblue" stroke="midnightblue" points="112.375,-336.791 103.393,-342.411 113.919,-343.619 112.375,-336.791"/>
</g>
<!-- Node13 -->
<g id="node13" class="node"><title>Node13</title>
<g id="a_node13"><a xlink:href="_g_c_c_2_a_r_m7___a_t91_s_a_m7_s_2lib___a_t91_s_a_m7_x256_8h.html#af143bff5461f2e72fae67a49280fb120" target="_top" xlink:title="AT91F_SPI1_CfgPIO">
<polygon fill="white" stroke="black" points="174,-266.5 174,-285.5 286,-285.5 286,-266.5 174,-266.5"/>
<text text-anchor="middle" x="230" y="-273.5" font-family="Helvetica,sans-Serif" font-size="10.00">AT91F_SPI1_CfgPIO</text>
</a>
</g>
</g>
<!-- Node1&#45;&gt;Node13 -->
<g id="edge12" class="edge"><title>Node1&#45;&gt;Node13</title>
<path fill="none" stroke="midnightblue" d="M82.5467,-336.619C101.209,-323.911 129.329,-306.198 156,-295 164.815,-291.299 174.538,-288.164 183.935,-285.573"/>
<polygon fill="midnightblue" stroke="midnightblue" points="80.4205,-333.834 74.1927,-342.405 84.4063,-339.589 80.4205,-333.834"/>
</g>
<!-- Node14 -->
<g id="node14" class="node"><title>Node14</title>
<g id="a_node14"><a xlink:href="_g_c_c_2_a_r_m7___a_t91_s_a_m7_s_2lib___a_t91_s_a_m7_x256_8h.html#a2887c8d4df90490931680b2ffe227dcd" target="_top" xlink:title="AT91F_SSC_CfgPIO">
<polygon fill="white" stroke="black" points="174.5,-228.5 174.5,-247.5 285.5,-247.5 285.5,-228.5 174.5,-228.5"/>
<text text-anchor="middle" x="230" y="-235.5" font-family="Helvetica,sans-Serif" font-size="10.00">AT91F_SSC_CfgPIO</text>
</a>
</g>
</g>
<!-- Node1&#45;&gt;Node14 -->
<g id="edge13" class="edge"><title>Node1&#45;&gt;Node14</title>
<path fill="none" stroke="midnightblue" d="M73.9047,-334.236C90.4884,-312.71 121.309,-276.863 156,-257 162.705,-253.161 170.197,-250.082 177.757,-247.617"/>
<polygon fill="midnightblue" stroke="midnightblue" points="71.0999,-332.142 67.888,-342.238 76.695,-336.349 71.0999,-332.142"/>
</g>
<!-- Node15 -->
<g id="node15" class="node"><title>Node15</title>
<g id="a_node15"><a xlink:href="_g_c_c_2_a_r_m7___a_t91_s_a_m7_s_2lib___a_t91_s_a_m7_x256_8h.html#abcc4af6458f85a5a03190674e12158f5" target="_top" xlink:title="AT91F_TC0_CfgPIO">
<polygon fill="white" stroke="black" points="175.5,-190.5 175.5,-209.5 284.5,-209.5 284.5,-190.5 175.5,-190.5"/>
<text text-anchor="middle" x="230" y="-197.5" font-family="Helvetica,sans-Serif" font-size="10.00">AT91F_TC0_CfgPIO</text>
</a>
</g>
</g>
<!-- Node1&#45;&gt;Node15 -->
<g id="edge14" class="edge"><title>Node1&#45;&gt;Node15</title>
<path fill="none" stroke="midnightblue" d="M69.2476,-333.084C82.931,-303.977 113.13,-248.492 156,-219 161.826,-214.992 168.443,-211.829 175.257,-209.334"/>
<polygon fill="midnightblue" stroke="midnightblue" points="66.0587,-331.641 65.1027,-342.193 72.4301,-334.541 66.0587,-331.641"/>
</g>
<!-- Node16 -->
<g id="node16" class="node"><title>Node16</title>
<g id="a_node16"><a xlink:href="_g_c_c_2_a_r_m7___a_t91_s_a_m7_s_2lib___a_t91_s_a_m7_x256_8h.html#a9aab7bf29eabb567b6b050ad73cbaba9" target="_top" xlink:title="AT91F_TC1_CfgPIO">
<polygon fill="white" stroke="black" points="175.5,-152.5 175.5,-171.5 284.5,-171.5 284.5,-152.5 175.5,-152.5"/>
<text text-anchor="middle" x="230" y="-159.5" font-family="Helvetica,sans-Serif" font-size="10.00">AT91F_TC1_CfgPIO</text>
</a>
</g>
</g>
<!-- Node1&#45;&gt;Node16 -->
<g id="edge15" class="edge"><title>Node1&#45;&gt;Node16</title>
<path fill="none" stroke="midnightblue" d="M66.1583,-332.839C76.7537,-297.254 104.421,-220.961 156,-181 161.694,-176.589 168.311,-173.196 175.191,-170.587"/>
<polygon fill="midnightblue" stroke="midnightblue" points="62.7826,-331.914 63.4105,-342.49 69.5151,-333.83 62.7826,-331.914"/>
</g>
<!-- Node17 -->
<g id="node17" class="node"><title>Node17</title>
<g id="a_node17"><a xlink:href="_g_c_c_2_a_r_m7___a_t91_s_a_m7_s_2lib___a_t91_s_a_m7_x256_8h.html#aee426d7c8c6ddd43b750545222d364c4" target="_top" xlink:title="AT91F_TC2_CfgPIO">
<polygon fill="white" stroke="black" points="175.5,-114.5 175.5,-133.5 284.5,-133.5 284.5,-114.5 175.5,-114.5"/>
<text text-anchor="middle" x="230" y="-121.5" font-family="Helvetica,sans-Serif" font-size="10.00">AT91F_TC2_CfgPIO</text>
</a>
</g>
</g>
<!-- Node1&#45;&gt;Node17 -->
<g id="edge16" class="edge"><title>Node1&#45;&gt;Node17</title>
<path fill="none" stroke="midnightblue" d="M64.1364,-332.412C71.8401,-290.907 95.6529,-193.767 156,-143 161.612,-138.279 168.262,-134.714 175.227,-132.026"/>
<polygon fill="midnightblue" stroke="midnightblue" points="60.674,-331.894 62.408,-342.346 67.5704,-333.094 60.674,-331.894"/>
</g>
<!-- Node18 -->
<g id="node18" class="node"><title>Node18</title>
<g id="a_node18"><a xlink:href="_g_c_c_2_a_r_m7___a_t91_s_a_m7_s_2lib___a_t91_s_a_m7_x256_8h.html#a79ea78bdca11f0dc4b7559072bab31fb" target="_top" xlink:title="AT91F_TWI_CfgPIO">
<polygon fill="white" stroke="black" points="175.5,-76.5 175.5,-95.5 284.5,-95.5 284.5,-76.5 175.5,-76.5"/>
<text text-anchor="middle" x="230" y="-83.5" font-family="Helvetica,sans-Serif" font-size="10.00">AT91F_TWI_CfgPIO</text>
</a>
</g>
</g>
<!-- Node1&#45;&gt;Node18 -->
<g id="edge17" class="edge"><title>Node1&#45;&gt;Node18</title>
<path fill="none" stroke="midnightblue" d="M62.6018,-332.461C67.5052,-285.784 86.5206,-167.069 156,-105 161.567,-100.027 168.274,-96.3265 175.337,-93.5785"/>
<polygon fill="midnightblue" stroke="midnightblue" points="59.1128,-332.181 61.6563,-342.466 66.0817,-332.839 59.1128,-332.181"/>
</g>
<!-- Node19 -->
<g id="node19" class="node"><title>Node19</title>
<g id="a_node19"><a xlink:href="_g_c_c_2_a_r_m7___a_t91_s_a_m7_s_2lib___a_t91_s_a_m7_x256_8h.html#aeeefa4b2a9d0e0119707d757371b0bc4" target="_top" xlink:title="AT91F_US0_CfgPIO">
<polygon fill="white" stroke="black" points="175,-38.5 175,-57.5 285,-57.5 285,-38.5 175,-38.5"/>
<text text-anchor="middle" x="230" y="-45.5" font-family="Helvetica,sans-Serif" font-size="10.00">AT91F_US0_CfgPIO</text>
</a>
</g>
</g>
<!-- Node1&#45;&gt;Node19 -->
<g id="edge18" class="edge"><title>Node1&#45;&gt;Node19</title>
<path fill="none" stroke="midnightblue" d="M61.4618,-332.323C63.778,-280.738 77.3726,-140.519 156,-67 161.357,-61.9912 167.863,-58.2646 174.76,-55.4989"/>
<polygon fill="midnightblue" stroke="midnightblue" points="57.9598,-332.322 61.1066,-342.439 64.9555,-332.568 57.9598,-332.322"/>
</g>
<!-- Node20 -->
<g id="node20" class="node"><title>Node20</title>
<g id="a_node20"><a xlink:href="_g_c_c_2_a_r_m7___a_t91_s_a_m7_s_2lib___a_t91_s_a_m7_x256_8h.html#af00dc4c2e81eb1dcdca1d5074e45d557" target="_top" xlink:title="AT91F_US1_CfgPIO">
<polygon fill="white" stroke="black" points="175,-0.5 175,-19.5 285,-19.5 285,-0.5 175,-0.5"/>
<text text-anchor="middle" x="230" y="-7.5" font-family="Helvetica,sans-Serif" font-size="10.00">AT91F_US1_CfgPIO</text>
</a>
</g>
</g>
<!-- Node1&#45;&gt;Node20 -->
<g id="edge19" class="edge"><title>Node1&#45;&gt;Node20</title>
<path fill="none" stroke="midnightblue" d="M60.5603,-332.386C60.4261,-276.372 68.0344,-114.244 156,-29 161.361,-23.8053 167.953,-19.9819 174.963,-17.1767"/>
<polygon fill="midnightblue" stroke="midnightblue" points="57.0605,-332.433 60.6746,-342.392 64.0601,-332.353 57.0605,-332.433"/>
</g>
</g>
</svg>
