<?xml version="1.0" encoding="UTF-8" standalone="no"?>
<!DOCTYPE svg PUBLIC "-//W3C//DTD SVG 1.1//EN"
 "http://www.w3.org/Graphics/SVG/1.1/DTD/svg11.dtd">
<!-- Generated by graphviz version 2.30.1 (20130221.2233)
 -->
<!-- Title: prvSystemTickHandler Pages: 1 -->
<svg width="424pt" height="28pt"
 viewBox="0.00 0.00 424.00 28.00" xmlns="http://www.w3.org/2000/svg" xmlns:xlink="http://www.w3.org/1999/xlink">
<g id="graph0" class="graph" transform="scale(1 1) rotate(0) translate(4 24)">
<title>prvSystemTickHandler</title>
<polygon fill="white" stroke="white" points="-4,5 -4,-24 421,-24 421,5 -4,5"/>
<!-- Node1 -->
<g id="node1" class="node"><title>Node1</title>
<polygon fill="#bfbfbf" stroke="black" points="0.5,-0.5 0.5,-19.5 117.5,-19.5 117.5,-0.5 0.5,-0.5"/>
<text text-anchor="middle" x="59" y="-7.5" font-family="Helvetica,sans-Serif" font-size="10.00">prvSystemTickHandler</text>
</g>
<!-- Node2 -->
<g id="node2" class="node"><title>Node2</title>
<g id="a_node2"><a xlink:href="_g_c_c_2_tri_core__1782_2port_8c.html#aeb91268bfbb6dc04ff839631ee5c72ba" target="_top" xlink:title="prvSetupTimerInterrupt">
<polygon fill="white" stroke="black" points="154.5,-0.5 154.5,-19.5 273.5,-19.5 273.5,-0.5 154.5,-0.5"/>
<text text-anchor="middle" x="214" y="-7.5" font-family="Helvetica,sans-Serif" font-size="10.00">prvSetupTimerInterrupt</text>
</a>
</g>
</g>
<!-- Node1&#45;&gt;Node2 -->
<g id="edge1" class="edge"><title>Node1&#45;&gt;Node2</title>
<path fill="none" stroke="midnightblue" d="M128.035,-10C136.8,-10 145.715,-10 154.313,-10"/>
<polygon fill="midnightblue" stroke="midnightblue" points="127.843,-6.5001 117.843,-10 127.843,-13.5001 127.843,-6.5001"/>
</g>
<!-- Node3 -->
<g id="node3" class="node"><title>Node3</title>
<g id="a_node3"><a xlink:href="_g_c_c_2_tri_core__1782_2port_8c.html#a42d48e1e07c99c055d4353dc3b38b466" target="_top" xlink:title="xPortStartScheduler">
<polygon fill="white" stroke="black" points="310,-0.5 310,-19.5 416,-19.5 416,-0.5 310,-0.5"/>
<text text-anchor="middle" x="363" y="-7.5" font-family="Helvetica,sans-Serif" font-size="10.00">xPortStartScheduler</text>
</a>
</g>
</g>
<!-- Node2&#45;&gt;Node3 -->
<g id="edge2" class="edge"><title>Node2&#45;&gt;Node3</title>
<path fill="none" stroke="midnightblue" d="M283.756,-10C292.536,-10 301.407,-10 309.865,-10"/>
<polygon fill="midnightblue" stroke="midnightblue" points="283.521,-6.5001 273.521,-10 283.521,-13.5001 283.521,-6.5001"/>
</g>
</g>
</svg>
