<?xml version="1.0" encoding="UTF-8" standalone="no"?>
<!DOCTYPE svg PUBLIC "-//W3C//DTD SVG 1.1//EN"
 "http://www.w3.org/Graphics/SVG/1.1/DTD/svg11.dtd">
<!-- Generated by graphviz version 2.30.1 (20130221.2233)
 -->
<!-- Title: vPortDisableInterrupt Pages: 1 -->
<svg width="674pt" height="38pt"
 viewBox="0.00 0.00 674.00 38.00" xmlns="http://www.w3.org/2000/svg" xmlns:xlink="http://www.w3.org/1999/xlink">
<g id="graph0" class="graph" transform="scale(1 1) rotate(0) translate(4 34)">
<title>vPortDisableInterrupt</title>
<polygon fill="white" stroke="white" points="-4,5 -4,-34 671,-34 671,5 -4,5"/>
<!-- Node1 -->
<g id="node1" class="node"><title>Node1</title>
<polygon fill="#bfbfbf" stroke="black" points="0,-5.5 0,-24.5 110,-24.5 110,-5.5 0,-5.5"/>
<text text-anchor="middle" x="55" y="-12.5" font-family="Helvetica,sans-Serif" font-size="10.00">vPortDisableInterrupt</text>
</g>
<!-- Node2 -->
<g id="node2" class="node"><title>Node2</title>
<g id="a_node2"><a xlink:href="_g_c_c_2_micro_blaze_v8_2port_8c.html#ae77c3d4a7d030a38089a6a55812130eb" target="_top" xlink:title="prvEnsureInterruptController\lIsInitialised">
<polygon fill="white" stroke="black" points="146.5,-0 146.5,-30 289.5,-30 289.5,-0 146.5,-0"/>
<text text-anchor="start" x="154.5" y="-18" font-family="Helvetica,sans-Serif" font-size="10.00">prvEnsureInterruptController</text>
<text text-anchor="middle" x="218" y="-7" font-family="Helvetica,sans-Serif" font-size="10.00">IsInitialised</text>
</a>
</g>
</g>
<!-- Node1&#45;&gt;Node2 -->
<g id="edge1" class="edge"><title>Node1&#45;&gt;Node2</title>
<path fill="none" stroke="midnightblue" d="M110.059,-15C118.397,-15 127.162,-15 135.935,-15"/>
<polygon fill="midnightblue" stroke="midnightblue" points="136.214,-18.5001 146.214,-15 136.214,-11.5001 136.214,-18.5001"/>
</g>
<!-- Node3 -->
<g id="node3" class="node"><title>Node3</title>
<g id="a_node3"><a xlink:href="_g_c_c_2_micro_blaze_v8_2port_8c.html#a43eecfae6ac83875cba12b6f8a7df8b7" target="_top" xlink:title="prvInitialiseInterruptController">
<polygon fill="white" stroke="black" points="326.5,-5.5 326.5,-24.5 473.5,-24.5 473.5,-5.5 326.5,-5.5"/>
<text text-anchor="middle" x="400" y="-12.5" font-family="Helvetica,sans-Serif" font-size="10.00">prvInitialiseInterruptController</text>
</a>
</g>
</g>
<!-- Node2&#45;&gt;Node3 -->
<g id="edge2" class="edge"><title>Node2&#45;&gt;Node3</title>
<path fill="none" stroke="midnightblue" d="M289.624,-15C298.261,-15 307.147,-15 315.945,-15"/>
<polygon fill="midnightblue" stroke="midnightblue" points="316.211,-18.5001 326.211,-15 316.211,-11.5001 316.211,-18.5001"/>
</g>
<!-- Node4 -->
<g id="node4" class="node"><title>Node4</title>
<g id="a_node4"><a xlink:href="_g_c_c_2_micro_blaze_v8_2portmacro_8h.html#a02e7621bd12097c626a731d7a0b452c7" target="_top" xlink:title="vPortExceptionsInstallHandlers">
<polygon fill="white" stroke="black" points="510.5,-5.5 510.5,-24.5 665.5,-24.5 665.5,-5.5 510.5,-5.5"/>
<text text-anchor="middle" x="588" y="-12.5" font-family="Helvetica,sans-Serif" font-size="10.00">vPortExceptionsInstallHandlers</text>
</a>
</g>
</g>
<!-- Node3&#45;&gt;Node4 -->
<g id="edge3" class="edge"><title>Node3&#45;&gt;Node4</title>
<path fill="none" stroke="midnightblue" d="M473.712,-15C482.447,-15 491.434,-15 500.342,-15"/>
<polygon fill="midnightblue" stroke="midnightblue" points="500.349,-18.5001 510.349,-15 500.349,-11.5001 500.349,-18.5001"/>
</g>
</g>
</svg>
