<?xml version="1.0" encoding="UTF-8" standalone="no"?>
<!DOCTYPE svg PUBLIC "-//W3C//DTD SVG 1.1//EN"
 "http://www.w3.org/Graphics/SVG/1.1/DTD/svg11.dtd">
<!-- Generated by graphviz version 2.30.1 (20130221.2233)
 -->
<!-- Title: interrupt31_handler Pages: 1 -->
<svg width="284pt" height="66pt"
 viewBox="0.00 0.00 284.00 66.00" xmlns="http://www.w3.org/2000/svg" xmlns:xlink="http://www.w3.org/1999/xlink">
<g id="graph0" class="graph" transform="scale(1 1) rotate(0) translate(4 62)">
<title>interrupt31_handler</title>
<polygon fill="white" stroke="white" points="-4,5 -4,-62 281,-62 281,5 -4,5"/>
<!-- Node1 -->
<g id="node1" class="node"><title>Node1</title>
<polygon fill="#bfbfbf" stroke="black" points="0.5,-19.5 0.5,-38.5 103.5,-38.5 103.5,-19.5 0.5,-19.5"/>
<text text-anchor="middle" x="52" y="-26.5" font-family="Helvetica,sans-Serif" font-size="10.00">interrupt31_handler</text>
</g>
<!-- Node2 -->
<g id="node2" class="node"><title>Node2</title>
<g id="a_node2"><a xlink:href="_i_a_r_2_v850_e_s_2portmacro_8h.html#a716d176e9130fa97ac875a31e7453605" target="_top" xlink:title="portRESTORE_CONTEXT">
<polygon fill="white" stroke="black" points="140.5,-38.5 140.5,-57.5 275.5,-57.5 275.5,-38.5 140.5,-38.5"/>
<text text-anchor="middle" x="208" y="-45.5" font-family="Helvetica,sans-Serif" font-size="10.00">portRESTORE_CONTEXT</text>
</a>
</g>
</g>
<!-- Node1&#45;&gt;Node2 -->
<g id="edge1" class="edge"><title>Node1&#45;&gt;Node2</title>
<path fill="none" stroke="midnightblue" d="M103.852,-35.274C112.318,-36.3185 121.263,-37.422 130.204,-38.5252"/>
<polygon fill="midnightblue" stroke="midnightblue" points="129.918,-42.0163 140.271,-39.7672 130.775,-35.069 129.918,-42.0163"/>
</g>
<!-- Node3 -->
<g id="node3" class="node"><title>Node3</title>
<g id="a_node3"><a xlink:href="_i_a_r_2_v850_e_s_2portmacro_8h.html#ad79a8b96e1489f7f0645e8d57360337d" target="_top" xlink:title="portSAVE_CONTEXT">
<polygon fill="white" stroke="black" points="151,-0.5 151,-19.5 265,-19.5 265,-0.5 151,-0.5"/>
<text text-anchor="middle" x="208" y="-7.5" font-family="Helvetica,sans-Serif" font-size="10.00">portSAVE_CONTEXT</text>
</a>
</g>
</g>
<!-- Node1&#45;&gt;Node3 -->
<g id="edge2" class="edge"><title>Node1&#45;&gt;Node3</title>
<path fill="none" stroke="midnightblue" d="M103.852,-22.726C115.625,-21.2736 128.323,-19.7069 140.65,-18.1861"/>
<polygon fill="midnightblue" stroke="midnightblue" points="141.392,-21.6211 150.888,-16.9228 140.535,-14.6738 141.392,-21.6211"/>
</g>
</g>
</svg>
