<?xml version="1.0" encoding="UTF-8" standalone="no"?>
<!DOCTYPE svg PUBLIC "-//W3C//DTD SVG 1.1//EN"
 "http://www.w3.org/Graphics/SVG/1.1/DTD/svg11.dtd">
<!-- Generated by graphviz version 2.30.1 (20130221.2233)
 -->
<!-- Title: source/portable/GCC/ARM7_AT91FR40008/port.c Pages: 1 -->
<svg width="609pt" height="208pt"
 viewBox="0.00 0.00 609.00 208.00" xmlns="http://www.w3.org/2000/svg" xmlns:xlink="http://www.w3.org/1999/xlink">
<g id="graph0" class="graph" transform="scale(1 1) rotate(0) translate(4 204)">
<title>source/portable/GCC/ARM7_AT91FR40008/port.c</title>
<polygon fill="white" stroke="white" points="-4,5 -4,-204 606,-204 606,5 -4,5"/>
<!-- Node1 -->
<g id="node1" class="node"><title>Node1</title>
<polygon fill="#bfbfbf" stroke="black" points="323.5,-169 323.5,-199 468.5,-199 468.5,-169 323.5,-169"/>
<text text-anchor="start" x="331.5" y="-187" font-family="Helvetica,sans-Serif" font-size="10.00">source/portable/GCC</text>
<text text-anchor="middle" x="396" y="-176" font-family="Helvetica,sans-Serif" font-size="10.00">/ARM7_AT91FR40008/port.c</text>
</g>
<!-- Node2 -->
<g id="node2" class="node"><title>Node2</title>
<polygon fill="white" stroke="#bfbfbf" points="135,-112.5 135,-131.5 183,-131.5 183,-112.5 135,-112.5"/>
<text text-anchor="middle" x="159" y="-119.5" font-family="Helvetica,sans-Serif" font-size="10.00">stdlib.h</text>
</g>
<!-- Node1&#45;&gt;Node2 -->
<g id="edge1" class="edge"><title>Node1&#45;&gt;Node2</title>
<path fill="none" stroke="midnightblue" d="M338.321,-168.927C299.738,-159.433 247.584,-146.448 192.992,-132.221"/>
<polygon fill="midnightblue" stroke="midnightblue" points="193.695,-128.788 183.135,-129.646 191.925,-135.56 193.695,-128.788"/>
</g>
<!-- Node3 -->
<g id="node3" class="node"><title>Node3</title>
<g id="a_node3"><a xlink:href="_free_r_t_o_s_8h.html" target="_top" xlink:title="FreeRTOS.h">
<polygon fill="white" stroke="black" points="201.5,-112.5 201.5,-131.5 274.5,-131.5 274.5,-112.5 201.5,-112.5"/>
<text text-anchor="middle" x="238" y="-119.5" font-family="Helvetica,sans-Serif" font-size="10.00">FreeRTOS.h</text>
</a>
</g>
</g>
<!-- Node1&#45;&gt;Node3 -->
<g id="edge2" class="edge"><title>Node1&#45;&gt;Node3</title>
<path fill="none" stroke="midnightblue" d="M358.956,-168.933C332.062,-158.72 296.028,-145.036 270.301,-135.266"/>
<polygon fill="midnightblue" stroke="midnightblue" points="271.238,-131.878 260.647,-131.6 268.753,-138.422 271.238,-131.878"/>
</g>
<!-- Node12 -->
<g id="node12" class="node"><title>Node12</title>
<g id="a_node12"><a xlink:href="task_8h.html" target="_top" xlink:title="task.h">
<polygon fill="white" stroke="black" points="292.5,-112.5 292.5,-131.5 335.5,-131.5 335.5,-112.5 292.5,-112.5"/>
<text text-anchor="middle" x="314" y="-119.5" font-family="Helvetica,sans-Serif" font-size="10.00">task.h</text>
</a>
</g>
</g>
<!-- Node1&#45;&gt;Node12 -->
<g id="edge11" class="edge"><title>Node1&#45;&gt;Node12</title>
<path fill="none" stroke="midnightblue" d="M376.567,-168.781C363.792,-159.433 347.111,-147.227 334.186,-137.77"/>
<polygon fill="midnightblue" stroke="midnightblue" points="336.069,-134.811 325.932,-131.731 331.935,-140.46 336.069,-134.811"/>
</g>
<!-- Node14 -->
<g id="node14" class="node"><title>Node14</title>
<polygon fill="white" stroke="#bfbfbf" points="354,-112.5 354,-131.5 438,-131.5 438,-112.5 354,-112.5"/>
<text text-anchor="middle" x="396" y="-119.5" font-family="Helvetica,sans-Serif" font-size="10.00">AT91R40008.h</text>
</g>
<!-- Node1&#45;&gt;Node14 -->
<g id="edge13" class="edge"><title>Node1&#45;&gt;Node14</title>
<path fill="none" stroke="midnightblue" d="M396,-168.781C396,-160.781 396,-150.689 396,-142.017"/>
<polygon fill="midnightblue" stroke="midnightblue" points="399.5,-141.73 396,-131.731 392.5,-141.731 399.5,-141.73"/>
</g>
<!-- Node15 -->
<g id="node15" class="node"><title>Node15</title>
<polygon fill="white" stroke="#bfbfbf" points="456,-112.5 456,-131.5 494,-131.5 494,-112.5 456,-112.5"/>
<text text-anchor="middle" x="475" y="-119.5" font-family="Helvetica,sans-Serif" font-size="10.00">pio.h</text>
</g>
<!-- Node1&#45;&gt;Node15 -->
<g id="edge14" class="edge"><title>Node1&#45;&gt;Node15</title>
<path fill="none" stroke="midnightblue" d="M414.722,-168.781C426.912,-159.523 442.792,-147.462 455.193,-138.044"/>
<polygon fill="midnightblue" stroke="midnightblue" points="457.658,-140.566 463.505,-131.731 453.424,-134.992 457.658,-140.566"/>
</g>
<!-- Node16 -->
<g id="node16" class="node"><title>Node16</title>
<polygon fill="white" stroke="#bfbfbf" points="512,-112.5 512,-131.5 550,-131.5 550,-112.5 512,-112.5"/>
<text text-anchor="middle" x="531" y="-119.5" font-family="Helvetica,sans-Serif" font-size="10.00">aic.h</text>
</g>
<!-- Node1&#45;&gt;Node16 -->
<g id="edge15" class="edge"><title>Node1&#45;&gt;Node16</title>
<path fill="none" stroke="midnightblue" d="M427.652,-168.933C450.224,-158.9 480.332,-145.519 502.225,-135.789"/>
<polygon fill="midnightblue" stroke="midnightblue" points="503.933,-138.86 511.65,-131.6 501.09,-132.463 503.933,-138.86"/>
</g>
<!-- Node17 -->
<g id="node17" class="node"><title>Node17</title>
<polygon fill="white" stroke="#bfbfbf" points="568.5,-112.5 568.5,-131.5 601.5,-131.5 601.5,-112.5 568.5,-112.5"/>
<text text-anchor="middle" x="585" y="-119.5" font-family="Helvetica,sans-Serif" font-size="10.00">tc.h</text>
</g>
<!-- Node1&#45;&gt;Node17 -->
<g id="edge16" class="edge"><title>Node1&#45;&gt;Node17</title>
<path fill="none" stroke="midnightblue" d="M442.138,-168.968C472.67,-159.591 513.807,-146.782 558.625,-132.055"/>
<polygon fill="midnightblue" stroke="midnightblue" points="559.841,-135.339 568.242,-128.884 557.648,-128.691 559.841,-135.339"/>
</g>
<!-- Node4 -->
<g id="node4" class="node"><title>Node4</title>
<polygon fill="white" stroke="#bfbfbf" points="0,-56.5 0,-75.5 52,-75.5 52,-56.5 0,-56.5"/>
<text text-anchor="middle" x="26" y="-63.5" font-family="Helvetica,sans-Serif" font-size="10.00">stddef.h</text>
</g>
<!-- Node3&#45;&gt;Node4 -->
<g id="edge3" class="edge"><title>Node3&#45;&gt;Node4</title>
<path fill="none" stroke="midnightblue" d="M204.39,-112.484C170.798,-103.966 117.401,-90.4095 62.3091,-76.3301"/>
<polygon fill="midnightblue" stroke="midnightblue" points="62.9266,-72.8755 52.3713,-73.7894 61.1927,-79.6573 62.9266,-72.8755"/>
</g>
<!-- Node5 -->
<g id="node5" class="node"><title>Node5</title>
<polygon fill="white" stroke="#bfbfbf" points="70.5,-56.5 70.5,-75.5 119.5,-75.5 119.5,-56.5 70.5,-56.5"/>
<text text-anchor="middle" x="95" y="-63.5" font-family="Helvetica,sans-Serif" font-size="10.00">stdint.h</text>
</g>
<!-- Node3&#45;&gt;Node5 -->
<g id="edge4" class="edge"><title>Node3&#45;&gt;Node5</title>
<path fill="none" stroke="midnightblue" d="M215.341,-112.444C191.598,-103.478 154.091,-89.314 127.262,-79.1827"/>
<polygon fill="midnightblue" stroke="midnightblue" points="128.144,-75.7749 117.553,-75.5164 125.671,-82.3235 128.144,-75.7749"/>
</g>
<!-- Node6 -->
<g id="node6" class="node"><title>Node6</title>
<polygon fill="white" stroke="#bfbfbf" points="138,-56.5 138,-75.5 240,-75.5 240,-56.5 138,-56.5"/>
<text text-anchor="middle" x="189" y="-63.5" font-family="Helvetica,sans-Serif" font-size="10.00">FreeRTOSConfig.h</text>
</g>
<!-- Node3&#45;&gt;Node6 -->
<g id="edge5" class="edge"><title>Node3&#45;&gt;Node6</title>
<path fill="none" stroke="midnightblue" d="M229.909,-112.083C222.845,-104.298 212.412,-92.8015 203.851,-83.3665"/>
<polygon fill="midnightblue" stroke="midnightblue" points="206.253,-80.8047 196.941,-75.7511 201.069,-85.5087 206.253,-80.8047"/>
</g>
<!-- Node7 -->
<g id="node7" class="node"><title>Node7</title>
<g id="a_node7"><a xlink:href="projdefs_8h.html" target="_top" xlink:title="projdefs.h">
<polygon fill="white" stroke="black" points="258,-56.5 258,-75.5 318,-75.5 318,-56.5 258,-56.5"/>
<text text-anchor="middle" x="288" y="-63.5" font-family="Helvetica,sans-Serif" font-size="10.00">projdefs.h</text>
</a>
</g>
</g>
<!-- Node3&#45;&gt;Node7 -->
<g id="edge6" class="edge"><title>Node3&#45;&gt;Node7</title>
<path fill="none" stroke="midnightblue" d="M246.256,-112.083C253.465,-104.298 264.11,-92.8015 272.846,-83.3665"/>
<polygon fill="midnightblue" stroke="midnightblue" points="275.671,-85.4666 279.897,-75.7511 270.535,-80.7108 275.671,-85.4666"/>
</g>
<!-- Node8 -->
<g id="node8" class="node"><title>Node8</title>
<g id="a_node8"><a xlink:href="portable_8h.html" target="_top" xlink:title="portable.h">
<polygon fill="white" stroke="black" points="336.5,-56.5 336.5,-75.5 397.5,-75.5 397.5,-56.5 336.5,-56.5"/>
<text text-anchor="middle" x="367" y="-63.5" font-family="Helvetica,sans-Serif" font-size="10.00">portable.h</text>
</a>
</g>
</g>
<!-- Node3&#45;&gt;Node8 -->
<g id="edge7" class="edge"><title>Node3&#45;&gt;Node8</title>
<path fill="none" stroke="midnightblue" d="M258.44,-112.444C279.67,-103.557 313.099,-89.5632 337.255,-79.4514"/>
<polygon fill="midnightblue" stroke="midnightblue" points="338.782,-82.6064 346.655,-75.5164 336.079,-76.1493 338.782,-82.6064"/>
</g>
<!-- Node9 -->
<g id="node9" class="node"><title>Node9</title>
<g id="a_node9"><a xlink:href="deprecated__definitions_8h.html" target="_top" xlink:title="deprecated_definitions.h">
<polygon fill="white" stroke="black" points="188.5,-0.5 188.5,-19.5 313.5,-19.5 313.5,-0.5 188.5,-0.5"/>
<text text-anchor="middle" x="251" y="-7.5" font-family="Helvetica,sans-Serif" font-size="10.00">deprecated_definitions.h</text>
</a>
</g>
</g>
<!-- Node8&#45;&gt;Node9 -->
<g id="edge8" class="edge"><title>Node8&#45;&gt;Node9</title>
<path fill="none" stroke="midnightblue" d="M348.619,-56.4435C329.784,-47.6751 300.269,-33.9355 278.621,-23.8579"/>
<polygon fill="midnightblue" stroke="midnightblue" points="279.838,-20.5637 269.295,-19.5164 276.883,-26.9098 279.838,-20.5637"/>
</g>
<!-- Node10 -->
<g id="node10" class="node"><title>Node10</title>
<polygon fill="white" stroke="#bfbfbf" points="332,-0.5 332,-19.5 402,-19.5 402,-0.5 332,-0.5"/>
<text text-anchor="middle" x="367" y="-7.5" font-family="Helvetica,sans-Serif" font-size="10.00">portmacro.h</text>
</g>
<!-- Node8&#45;&gt;Node10 -->
<g id="edge9" class="edge"><title>Node8&#45;&gt;Node10</title>
<path fill="none" stroke="midnightblue" d="M367,-56.083C367,-49.0059 367,-38.8611 367,-29.9865"/>
<polygon fill="midnightblue" stroke="midnightblue" points="370.5,-29.751 367,-19.7511 363.5,-29.7511 370.5,-29.751"/>
</g>
<!-- Node11 -->
<g id="node11" class="node"><title>Node11</title>
<g id="a_node11"><a xlink:href="mpu__wrappers_8h.html" target="_top" xlink:title="mpu_wrappers.h">
<polygon fill="white" stroke="black" points="420.5,-0.5 420.5,-19.5 511.5,-19.5 511.5,-0.5 420.5,-0.5"/>
<text text-anchor="middle" x="466" y="-7.5" font-family="Helvetica,sans-Serif" font-size="10.00">mpu_wrappers.h</text>
</a>
</g>
</g>
<!-- Node8&#45;&gt;Node11 -->
<g id="edge10" class="edge"><title>Node8&#45;&gt;Node11</title>
<path fill="none" stroke="midnightblue" d="M382.906,-56.324C398.638,-47.7428 422.942,-34.486 441.209,-24.5224"/>
<polygon fill="midnightblue" stroke="midnightblue" points="443.03,-27.5157 450.133,-19.6545 439.678,-21.3704 443.03,-27.5157"/>
</g>
<!-- Node13 -->
<g id="node13" class="node"><title>Node13</title>
<g id="a_node13"><a xlink:href="list_8h.html" target="_top" xlink:title="list.h">
<polygon fill="white" stroke="black" points="415.5,-56.5 415.5,-75.5 452.5,-75.5 452.5,-56.5 415.5,-56.5"/>
<text text-anchor="middle" x="434" y="-63.5" font-family="Helvetica,sans-Serif" font-size="10.00">list.h</text>
</a>
</g>
</g>
<!-- Node12&#45;&gt;Node13 -->
<g id="edge12" class="edge"><title>Node12&#45;&gt;Node13</title>
<path fill="none" stroke="midnightblue" d="M333.014,-112.444C352.703,-103.584 383.669,-89.6488 406.124,-79.5443"/>
<polygon fill="midnightblue" stroke="midnightblue" points="407.786,-82.6344 415.469,-75.339 404.913,-76.251 407.786,-82.6344"/>
</g>
</g>
</svg>
