<?xml version="1.0" encoding="UTF-8" standalone="no"?>
<!DOCTYPE svg PUBLIC "-//W3C//DTD SVG 1.1//EN"
 "http://www.w3.org/Graphics/SVG/1.1/DTD/svg11.dtd">
<!-- Generated by graphviz version 2.30.1 (20130221.2233)
 -->
<!-- Title: vPortEnableInterrupt Pages: 1 -->
<svg width="672pt" height="38pt"
 viewBox="0.00 0.00 672.00 38.00" xmlns="http://www.w3.org/2000/svg" xmlns:xlink="http://www.w3.org/1999/xlink">
<g id="graph0" class="graph" transform="scale(1 1) rotate(0) translate(4 34)">
<title>vPortEnableInterrupt</title>
<polygon fill="white" stroke="white" points="-4,5 -4,-34 669,-34 669,5 -4,5"/>
<!-- Node1 -->
<g id="node1" class="node"><title>Node1</title>
<polygon fill="#bfbfbf" stroke="black" points="0,-5.5 0,-24.5 108,-24.5 108,-5.5 0,-5.5"/>
<text text-anchor="middle" x="54" y="-12.5" font-family="Helvetica,sans-Serif" font-size="10.00">vPortEnableInterrupt</text>
</g>
<!-- Node2 -->
<g id="node2" class="node"><title>Node2</title>
<g id="a_node2"><a xlink:href="_g_c_c_2_micro_blaze_v8_2port_8c.html#ae77c3d4a7d030a38089a6a55812130eb" target="_top" xlink:title="prvEnsureInterruptController\lIsInitialised">
<polygon fill="white" stroke="black" points="144.5,-0 144.5,-30 287.5,-30 287.5,-0 144.5,-0"/>
<text text-anchor="start" x="152.5" y="-18" font-family="Helvetica,sans-Serif" font-size="10.00">prvEnsureInterruptController</text>
<text text-anchor="middle" x="216" y="-7" font-family="Helvetica,sans-Serif" font-size="10.00">IsInitialised</text>
</a>
</g>
</g>
<!-- Node1&#45;&gt;Node2 -->
<g id="edge1" class="edge"><title>Node1&#45;&gt;Node2</title>
<path fill="none" stroke="midnightblue" d="M108.278,-15C116.576,-15 125.307,-15 134.054,-15"/>
<polygon fill="midnightblue" stroke="midnightblue" points="134.303,-18.5001 144.303,-15 134.303,-11.5001 134.303,-18.5001"/>
</g>
<!-- Node3 -->
<g id="node3" class="node"><title>Node3</title>
<g id="a_node3"><a xlink:href="_g_c_c_2_micro_blaze_v8_2port_8c.html#a43eecfae6ac83875cba12b6f8a7df8b7" target="_top" xlink:title="prvInitialiseInterruptController">
<polygon fill="white" stroke="black" points="324.5,-5.5 324.5,-24.5 471.5,-24.5 471.5,-5.5 324.5,-5.5"/>
<text text-anchor="middle" x="398" y="-12.5" font-family="Helvetica,sans-Serif" font-size="10.00">prvInitialiseInterruptController</text>
</a>
</g>
</g>
<!-- Node2&#45;&gt;Node3 -->
<g id="edge2" class="edge"><title>Node2&#45;&gt;Node3</title>
<path fill="none" stroke="midnightblue" d="M287.624,-15C296.261,-15 305.147,-15 313.945,-15"/>
<polygon fill="midnightblue" stroke="midnightblue" points="314.211,-18.5001 324.211,-15 314.211,-11.5001 314.211,-18.5001"/>
</g>
<!-- Node4 -->
<g id="node4" class="node"><title>Node4</title>
<g id="a_node4"><a xlink:href="_g_c_c_2_micro_blaze_v8_2portmacro_8h.html#a02e7621bd12097c626a731d7a0b452c7" target="_top" xlink:title="vPortExceptionsInstallHandlers">
<polygon fill="white" stroke="black" points="508.5,-5.5 508.5,-24.5 663.5,-24.5 663.5,-5.5 508.5,-5.5"/>
<text text-anchor="middle" x="586" y="-12.5" font-family="Helvetica,sans-Serif" font-size="10.00">vPortExceptionsInstallHandlers</text>
</a>
</g>
</g>
<!-- Node3&#45;&gt;Node4 -->
<g id="edge3" class="edge"><title>Node3&#45;&gt;Node4</title>
<path fill="none" stroke="midnightblue" d="M471.712,-15C480.447,-15 489.434,-15 498.342,-15"/>
<polygon fill="midnightblue" stroke="midnightblue" points="498.349,-18.5001 508.349,-15 498.349,-11.5001 498.349,-18.5001"/>
</g>
</g>
</svg>
