<?xml version="1.0" encoding="UTF-8" standalone="no"?>
<!DOCTYPE svg PUBLIC "-//W3C//DTD SVG 1.1//EN"
 "http://www.w3.org/Graphics/SVG/1.1/DTD/svg11.dtd">
<!-- Generated by graphviz version 2.30.1 (20130221.2233)
 -->
<!-- Title: AT91F_PDC_IsNextTxEmpty Pages: 1 -->
<svg width="490pt" height="104pt"
 viewBox="0.00 0.00 490.00 104.00" xmlns="http://www.w3.org/2000/svg" xmlns:xlink="http://www.w3.org/1999/xlink">
<g id="graph0" class="graph" transform="scale(1 1) rotate(0) translate(4 100)">
<title>AT91F_PDC_IsNextTxEmpty</title>
<polygon fill="white" stroke="white" points="-4,5 -4,-100 487,-100 487,5 -4,5"/>
<!-- Node1 -->
<g id="node1" class="node"><title>Node1</title>
<polygon fill="#bfbfbf" stroke="black" points="0.5,-38.5 0.5,-57.5 147.5,-57.5 147.5,-38.5 0.5,-38.5"/>
<text text-anchor="middle" x="74" y="-45.5" font-family="Helvetica,sans-Serif" font-size="10.00">AT91F_PDC_IsNextTxEmpty</text>
</g>
<!-- Node2 -->
<g id="node2" class="node"><title>Node2</title>
<g id="a_node2"><a xlink:href="_g_c_c_2_a_r_m7___a_t91_s_a_m7_s_2lib___a_t91_s_a_m7_x256_8h.html#a69b0e9baa0272a3febd549034aad1fcb" target="_top" xlink:title="AT91F_PDC_SendFrame">
<polygon fill="white" stroke="black" points="184.5,-38.5 184.5,-57.5 315.5,-57.5 315.5,-38.5 184.5,-38.5"/>
<text text-anchor="middle" x="250" y="-45.5" font-family="Helvetica,sans-Serif" font-size="10.00">AT91F_PDC_SendFrame</text>
</a>
</g>
</g>
<!-- Node1&#45;&gt;Node2 -->
<g id="edge1" class="edge"><title>Node1&#45;&gt;Node2</title>
<path fill="none" stroke="midnightblue" d="M157.62,-48C166.596,-48 175.635,-48 184.353,-48"/>
<polygon fill="midnightblue" stroke="midnightblue" points="157.532,-44.5001 147.532,-48 157.532,-51.5001 157.532,-44.5001"/>
</g>
<!-- Node3 -->
<g id="node3" class="node"><title>Node3</title>
<g id="a_node3"><a xlink:href="_g_c_c_2_a_r_m7___a_t91_s_a_m7_s_2lib___a_t91_s_a_m7_x256_8h.html#a9cf180ac507975a8259e99352d233732" target="_top" xlink:title="AT91F_SPI_SendFrame">
<polygon fill="white" stroke="black" points="354,-76.5 354,-95.5 480,-95.5 480,-76.5 354,-76.5"/>
<text text-anchor="middle" x="417" y="-83.5" font-family="Helvetica,sans-Serif" font-size="10.00">AT91F_SPI_SendFrame</text>
</a>
</g>
</g>
<!-- Node2&#45;&gt;Node3 -->
<g id="edge2" class="edge"><title>Node2&#45;&gt;Node3</title>
<path fill="none" stroke="midnightblue" d="M302.654,-59.8961C325.846,-65.2374 352.838,-71.4537 374.663,-76.4799"/>
<polygon fill="midnightblue" stroke="midnightblue" points="303.167,-56.4226 292.636,-57.589 301.596,-63.2441 303.167,-56.4226"/>
</g>
<!-- Node4 -->
<g id="node4" class="node"><title>Node4</title>
<g id="a_node4"><a xlink:href="_g_c_c_2_a_r_m7___a_t91_s_a_m7_s_2lib___a_t91_s_a_m7_x256_8h.html#abf1fd25f710588e80351fba226751bdf" target="_top" xlink:title="AT91F_US_SendFrame">
<polygon fill="white" stroke="black" points="355,-38.5 355,-57.5 479,-57.5 479,-38.5 355,-38.5"/>
<text text-anchor="middle" x="417" y="-45.5" font-family="Helvetica,sans-Serif" font-size="10.00">AT91F_US_SendFrame</text>
</a>
</g>
</g>
<!-- Node2&#45;&gt;Node4 -->
<g id="edge3" class="edge"><title>Node2&#45;&gt;Node4</title>
<path fill="none" stroke="midnightblue" d="M325.823,-48C335.572,-48 345.465,-48 354.951,-48"/>
<polygon fill="midnightblue" stroke="midnightblue" points="325.739,-44.5001 315.739,-48 325.739,-51.5001 325.739,-44.5001"/>
</g>
<!-- Node5 -->
<g id="node5" class="node"><title>Node5</title>
<g id="a_node5"><a xlink:href="_g_c_c_2_a_r_m7___a_t91_s_a_m7_s_2lib___a_t91_s_a_m7_x256_8h.html#ad69b884ddf6875c1e37a7a2bdcb624a4" target="_top" xlink:title="AT91F_SSC_SendFrame">
<polygon fill="white" stroke="black" points="352,-0.5 352,-19.5 482,-19.5 482,-0.5 352,-0.5"/>
<text text-anchor="middle" x="417" y="-7.5" font-family="Helvetica,sans-Serif" font-size="10.00">AT91F_SSC_SendFrame</text>
</a>
</g>
</g>
<!-- Node2&#45;&gt;Node5 -->
<g id="edge4" class="edge"><title>Node2&#45;&gt;Node5</title>
<path fill="none" stroke="midnightblue" d="M302.654,-36.1039C325.846,-30.7626 352.838,-24.5463 374.663,-19.5201"/>
<polygon fill="midnightblue" stroke="midnightblue" points="301.596,-32.7559 292.636,-38.411 303.167,-39.5774 301.596,-32.7559"/>
</g>
</g>
</svg>
