<?xml version="1.0" encoding="UTF-8" standalone="no"?>
<!DOCTYPE svg PUBLIC "-//W3C//DTD SVG 1.1//EN"
 "http://www.w3.org/Graphics/SVG/1.1/DTD/svg11.dtd">
<!-- Generated by graphviz version 2.30.1 (20130221.2233)
 -->
<!-- Title: vPortTickISR Pages: 1 -->
<svg width="344pt" height="85pt"
 viewBox="0.00 0.00 344.00 85.00" xmlns="http://www.w3.org/2000/svg" xmlns:xlink="http://www.w3.org/1999/xlink">
<g id="graph0" class="graph" transform="scale(1 1) rotate(0) translate(4 81)">
<title>vPortTickISR</title>
<polygon fill="white" stroke="white" points="-4,5 -4,-81 341,-81 341,5 -4,5"/>
<!-- Node1 -->
<g id="node1" class="node"><title>Node1</title>
<polygon fill="#bfbfbf" stroke="black" points="0.5,-38.5 0.5,-57.5 75.5,-57.5 75.5,-38.5 0.5,-38.5"/>
<text text-anchor="middle" x="38" y="-45.5" font-family="Helvetica,sans-Serif" font-size="10.00">vPortTickISR</text>
</g>
<!-- Node2 -->
<g id="node2" class="node"><title>Node2</title>
<g id="a_node2"><a xlink:href="task_8h.html#a26df422f8d635d5191a3e106fbeeed68" target="_top" xlink:title="vTaskSwitchContext">
<polygon fill="white" stroke="black" points="112.5,-57.5 112.5,-76.5 219.5,-76.5 219.5,-57.5 112.5,-57.5"/>
<text text-anchor="middle" x="166" y="-64.5" font-family="Helvetica,sans-Serif" font-size="10.00">vTaskSwitchContext</text>
</a>
</g>
</g>
<!-- Node1&#45;&gt;Node2 -->
<g id="edge1" class="edge"><title>Node1&#45;&gt;Node2</title>
<path fill="none" stroke="midnightblue" d="M75.7831,-53.5467C84.2114,-54.8176 93.4016,-56.2034 102.576,-57.5868"/>
<polygon fill="midnightblue" stroke="midnightblue" points="102.077,-61.0511 112.487,-59.0814 103.121,-54.1293 102.077,-61.0511"/>
</g>
<!-- Node3 -->
<g id="node3" class="node"><title>Node3</title>
<g id="a_node3"><a xlink:href="task_8h.html#a978e25460ac35706f9ad30b46d9403d8" target="_top" xlink:title="xTaskIncrementTick">
<polygon fill="white" stroke="black" points="113,-19.5 113,-38.5 219,-38.5 219,-19.5 113,-19.5"/>
<text text-anchor="middle" x="166" y="-26.5" font-family="Helvetica,sans-Serif" font-size="10.00">xTaskIncrementTick</text>
</a>
</g>
</g>
<!-- Node1&#45;&gt;Node3 -->
<g id="edge2" class="edge"><title>Node1&#45;&gt;Node3</title>
<path fill="none" stroke="midnightblue" d="M75.7831,-42.4533C84.3181,-41.1663 93.6344,-39.7615 102.924,-38.3607"/>
<polygon fill="midnightblue" stroke="midnightblue" points="103.589,-41.8001 112.955,-36.848 102.545,-34.8783 103.589,-41.8001"/>
</g>
<!-- Node4 -->
<g id="node4" class="node"><title>Node4</title>
<g id="a_node4"><a xlink:href="list_8h.html#a2eb1558482076fff8cafc63419c2d34a" target="_top" xlink:title="uxListRemove">
<polygon fill="white" stroke="black" points="256,-38.5 256,-57.5 336,-57.5 336,-38.5 256,-38.5"/>
<text text-anchor="middle" x="296" y="-45.5" font-family="Helvetica,sans-Serif" font-size="10.00">uxListRemove</text>
</a>
</g>
</g>
<!-- Node3&#45;&gt;Node4 -->
<g id="edge3" class="edge"><title>Node3&#45;&gt;Node4</title>
<path fill="none" stroke="midnightblue" d="M219.062,-36.728C227.918,-38.0424 237.089,-39.4038 245.865,-40.7065"/>
<polygon fill="midnightblue" stroke="midnightblue" points="245.538,-44.1963 255.944,-42.2026 246.566,-37.2722 245.538,-44.1963"/>
</g>
<!-- Node5 -->
<g id="node5" class="node"><title>Node5</title>
<g id="a_node5"><a xlink:href="_paradigm_2_tern___e_e_2small_2portmacro_8h.html#a14d32f8130d3c0b212cfc751730b5b49" target="_top" xlink:title="void">
<polygon fill="white" stroke="black" points="278.5,-0.5 278.5,-19.5 313.5,-19.5 313.5,-0.5 278.5,-0.5"/>
<text text-anchor="middle" x="296" y="-7.5" font-family="Helvetica,sans-Serif" font-size="10.00">void</text>
</a>
</g>
</g>
<!-- Node3&#45;&gt;Node5 -->
<g id="edge4" class="edge"><title>Node3&#45;&gt;Node5</title>
<path fill="none" stroke="midnightblue" d="M219.062,-21.272C235.94,-18.7667 253.966,-16.0911 268.218,-13.9755"/>
<polygon fill="midnightblue" stroke="midnightblue" points="268.921,-17.4095 278.299,-12.479 267.894,-10.4853 268.921,-17.4095"/>
</g>
</g>
</svg>
