<?xml version="1.0" encoding="UTF-8" standalone="no"?>
<!DOCTYPE svg PUBLIC "-//W3C//DTD SVG 1.1//EN"
 "http://www.w3.org/Graphics/SVG/1.1/DTD/svg11.dtd">
<!-- Generated by graphviz version 2.30.1 (20130221.2233)
 -->
<!-- Title: AT91F_PDC_EnableTx Pages: 1 -->
<svg width="428pt" height="66pt"
 viewBox="0.00 0.00 428.00 66.00" xmlns="http://www.w3.org/2000/svg" xmlns:xlink="http://www.w3.org/1999/xlink">
<g id="graph0" class="graph" transform="scale(1 1) rotate(0) translate(4 62)">
<title>AT91F_PDC_EnableTx</title>
<polygon fill="white" stroke="white" points="-4,5 -4,-62 425,-62 425,5 -4,5"/>
<!-- Node1 -->
<g id="node1" class="node"><title>Node1</title>
<polygon fill="#bfbfbf" stroke="black" points="0.5,-19.5 0.5,-38.5 121.5,-38.5 121.5,-19.5 0.5,-19.5"/>
<text text-anchor="middle" x="61" y="-26.5" font-family="Helvetica,sans-Serif" font-size="10.00">AT91F_PDC_EnableTx</text>
</g>
<!-- Node2 -->
<g id="node2" class="node"><title>Node2</title>
<g id="a_node2"><a xlink:href="_g_c_c_2_a_r_m7___a_t91_s_a_m7_s_2lib___a_t91_s_a_m7_x256_8h.html#a943bb6125d66d7956df049c6989f00f1" target="_top" xlink:title="AT91F_PDC_Open">
<polygon fill="white" stroke="black" points="158.5,-19.5 158.5,-38.5 261.5,-38.5 261.5,-19.5 158.5,-19.5"/>
<text text-anchor="middle" x="210" y="-26.5" font-family="Helvetica,sans-Serif" font-size="10.00">AT91F_PDC_Open</text>
</a>
</g>
</g>
<!-- Node1&#45;&gt;Node2 -->
<g id="edge1" class="edge"><title>Node1&#45;&gt;Node2</title>
<path fill="none" stroke="midnightblue" d="M132.076,-29C140.889,-29 149.769,-29 158.205,-29"/>
<polygon fill="midnightblue" stroke="midnightblue" points="131.791,-25.5001 121.791,-29 131.79,-32.5001 131.791,-25.5001"/>
</g>
<!-- Node3 -->
<g id="node3" class="node"><title>Node3</title>
<g id="a_node3"><a xlink:href="_g_c_c_2_a_r_m7___a_t91_s_a_m7_s_2lib___a_t91_s_a_m7_x256_8h.html#acbbed25fcf0256823175db5f1a8f1f39" target="_top" xlink:title="AT91F_US_Configure">
<polygon fill="white" stroke="black" points="301.5,-38.5 301.5,-57.5 416.5,-57.5 416.5,-38.5 301.5,-38.5"/>
<text text-anchor="middle" x="359" y="-45.5" font-family="Helvetica,sans-Serif" font-size="10.00">AT91F_US_Configure</text>
</a>
</g>
</g>
<!-- Node2&#45;&gt;Node3 -->
<g id="edge2" class="edge"><title>Node2&#45;&gt;Node3</title>
<path fill="none" stroke="midnightblue" d="M271.656,-36.8399C281.454,-38.1063 291.567,-39.4134 301.268,-40.6673"/>
<polygon fill="midnightblue" stroke="midnightblue" points="271.955,-33.3495 261.589,-35.5387 271.058,-40.2918 271.955,-33.3495"/>
</g>
<!-- Node4 -->
<g id="node4" class="node"><title>Node4</title>
<g id="a_node4"><a xlink:href="_g_c_c_2_a_r_m7___a_t91_s_a_m7_s_2lib___a_t91_s_a_m7_x256_8h.html#aa9745e47a0642596e61432ffbc890080" target="_top" xlink:title="AT91F_SSC_Configure">
<polygon fill="white" stroke="black" points="298,-0.5 298,-19.5 420,-19.5 420,-0.5 298,-0.5"/>
<text text-anchor="middle" x="359" y="-7.5" font-family="Helvetica,sans-Serif" font-size="10.00">AT91F_SSC_Configure</text>
</a>
</g>
</g>
<!-- Node2&#45;&gt;Node4 -->
<g id="edge3" class="edge"><title>Node2&#45;&gt;Node4</title>
<path fill="none" stroke="midnightblue" d="M271.644,-21.1617C280.331,-20.0388 289.266,-18.8839 297.943,-17.7625"/>
<polygon fill="midnightblue" stroke="midnightblue" points="271.058,-17.7082 261.589,-22.4613 271.955,-24.6505 271.058,-17.7082"/>
</g>
</g>
</svg>
