<?xml version="1.0" encoding="UTF-8" standalone="no"?>
<!DOCTYPE svg PUBLIC "-//W3C//DTD SVG 1.1//EN"
 "http://www.w3.org/Graphics/SVG/1.1/DTD/svg11.dtd">
<!-- Generated by graphviz version 2.30.1 (20130221.2233)
 -->
<!-- Title: xPortStartScheduler Pages: 1 -->
<svg width="280pt" height="142pt"
 viewBox="0.00 0.00 280.00 142.00" xmlns="http://www.w3.org/2000/svg" xmlns:xlink="http://www.w3.org/1999/xlink">
<g id="graph0" class="graph" transform="scale(1 1) rotate(0) translate(4 138)">
<title>xPortStartScheduler</title>
<polygon fill="white" stroke="white" points="-4,5 -4,-138 277,-138 277,5 -4,5"/>
<!-- Node1 -->
<g id="node1" class="node"><title>Node1</title>
<polygon fill="#bfbfbf" stroke="black" points="0,-57.5 0,-76.5 106,-76.5 106,-57.5 0,-57.5"/>
<text text-anchor="middle" x="53" y="-64.5" font-family="Helvetica,sans-Serif" font-size="10.00">xPortStartScheduler</text>
</g>
<!-- Node2 -->
<g id="node2" class="node"><title>Node2</title>
<g id="a_node2"><a xlink:href="_g_c_c_2_a_r_m___c_m7_2r0p1_2port_8c.html#a50dd292452ec6c17a611a90c22e19136" target="_top" xlink:title="prvPortStartFirstTask">
<polygon fill="white" stroke="black" points="151.5,-114.5 151.5,-133.5 262.5,-133.5 262.5,-114.5 151.5,-114.5"/>
<text text-anchor="middle" x="207" y="-121.5" font-family="Helvetica,sans-Serif" font-size="10.00">prvPortStartFirstTask</text>
</a>
</g>
</g>
<!-- Node1&#45;&gt;Node2 -->
<g id="edge1" class="edge"><title>Node1&#45;&gt;Node2</title>
<path fill="none" stroke="midnightblue" d="M74.347,-76.608C92.0067,-84.7476 118.379,-96.4282 142,-105 148.295,-107.285 155.009,-109.506 161.632,-111.576"/>
<polygon fill="midnightblue" stroke="midnightblue" points="160.625,-114.928 171.211,-114.49 162.663,-108.231 160.625,-114.928"/>
</g>
<!-- Node3 -->
<g id="node3" class="node"><title>Node3</title>
<g id="a_node3"><a xlink:href="_g_c_c_2_a_r_m___c_m7_2r0p1_2port_8c.html#a813e8227aedfc6bd83c66c4a9b8e4f41" target="_top" xlink:title="prvTaskExitError">
<polygon fill="white" stroke="black" points="161.5,-76.5 161.5,-95.5 252.5,-95.5 252.5,-76.5 161.5,-76.5"/>
<text text-anchor="middle" x="207" y="-83.5" font-family="Helvetica,sans-Serif" font-size="10.00">prvTaskExitError</text>
</a>
</g>
</g>
<!-- Node1&#45;&gt;Node3 -->
<g id="edge2" class="edge"><title>Node1&#45;&gt;Node3</title>
<path fill="none" stroke="midnightblue" d="M106.31,-73.5387C120.823,-75.3528 136.616,-77.327 151.264,-79.158"/>
<polygon fill="midnightblue" stroke="midnightblue" points="150.835,-82.6315 161.191,-80.3989 151.703,-75.6855 150.835,-82.6315"/>
</g>
<!-- Node4 -->
<g id="node4" class="node"><title>Node4</title>
<g id="a_node4"><a xlink:href="_c_c_s_2_a_r_m___c_m4_f_2port_8c.html#ae7d07e03614f384260df2c902d131caf" target="_top" xlink:title="vPortEnableVFP">
<polygon fill="white" stroke="black" points="162,-38.5 162,-57.5 252,-57.5 252,-38.5 162,-38.5"/>
<text text-anchor="middle" x="207" y="-45.5" font-family="Helvetica,sans-Serif" font-size="10.00">vPortEnableVFP</text>
</a>
</g>
</g>
<!-- Node1&#45;&gt;Node4 -->
<g id="edge3" class="edge"><title>Node1&#45;&gt;Node4</title>
<path fill="none" stroke="midnightblue" d="M106.31,-60.4613C120.962,-58.6297 136.92,-56.635 151.686,-54.7893"/>
<polygon fill="midnightblue" stroke="midnightblue" points="152.199,-58.2525 161.687,-53.5391 151.33,-51.3065 152.199,-58.2525"/>
</g>
<!-- Node5 -->
<g id="node5" class="node"><title>Node5</title>
<g id="a_node5"><a xlink:href="_c_c_s_2_a_r_m___c_m4_f_2port_8c.html#a4649001ea4d29b80759e6eca4bba58eb" target="_top" xlink:title="vPortSetupTimerInterrupt">
<polygon fill="white" stroke="black" points="142.5,-0.5 142.5,-19.5 271.5,-19.5 271.5,-0.5 142.5,-0.5"/>
<text text-anchor="middle" x="207" y="-7.5" font-family="Helvetica,sans-Serif" font-size="10.00">vPortSetupTimerInterrupt</text>
</a>
</g>
</g>
<!-- Node1&#45;&gt;Node5 -->
<g id="edge4" class="edge"><title>Node1&#45;&gt;Node5</title>
<path fill="none" stroke="midnightblue" d="M74.347,-57.392C92.0067,-49.2524 118.379,-37.5718 142,-29 148.295,-26.7155 155.009,-24.4943 161.632,-22.4242"/>
<polygon fill="midnightblue" stroke="midnightblue" points="162.663,-25.7691 171.211,-19.5097 160.625,-19.0723 162.663,-25.7691"/>
</g>
</g>
</svg>
