<?xml version="1.0" encoding="UTF-8" standalone="no"?>
<!DOCTYPE svg PUBLIC "-//W3C//DTD SVG 1.1//EN"
 "http://www.w3.org/Graphics/SVG/1.1/DTD/svg11.dtd">
<!-- Generated by graphviz version 2.30.1 (20130221.2233)
 -->
<!-- Title: prvSetupTimerInterrupt Pages: 1 -->
<svg width="534pt" height="85pt"
 viewBox="0.00 0.00 534.00 85.00" xmlns="http://www.w3.org/2000/svg" xmlns:xlink="http://www.w3.org/1999/xlink">
<g id="graph0" class="graph" transform="scale(1 1) rotate(0) translate(4 81)">
<title>prvSetupTimerInterrupt</title>
<polygon fill="white" stroke="white" points="-4,5 -4,-81 531,-81 531,5 -4,5"/>
<!-- Node1 -->
<g id="node1" class="node"><title>Node1</title>
<polygon fill="#bfbfbf" stroke="black" points="0.5,-38.5 0.5,-57.5 119.5,-57.5 119.5,-38.5 0.5,-38.5"/>
<text text-anchor="middle" x="60" y="-45.5" font-family="Helvetica,sans-Serif" font-size="10.00">prvSetupTimerInterrupt</text>
</g>
<!-- Node2 -->
<g id="node2" class="node"><title>Node2</title>
<g id="a_node2"><a xlink:href="_g_c_c_2_nios_i_i_2port_8c.html#a4e6cf52f2584041266c71bea630cd84e" target="_top" xlink:title="alt_irq_register">
<polygon fill="white" stroke="black" points="169.5,-57.5 169.5,-76.5 252.5,-76.5 252.5,-57.5 169.5,-57.5"/>
<text text-anchor="middle" x="211" y="-64.5" font-family="Helvetica,sans-Serif" font-size="10.00">alt_irq_register</text>
</a>
</g>
</g>
<!-- Node1&#45;&gt;Node2 -->
<g id="edge1" class="edge"><title>Node1&#45;&gt;Node2</title>
<path fill="none" stroke="midnightblue" d="M119.889,-55.5093C132.983,-57.179 146.75,-58.9346 159.473,-60.557"/>
<polygon fill="midnightblue" stroke="midnightblue" points="159.058,-64.0323 169.42,-61.8254 159.944,-57.0885 159.058,-64.0323"/>
</g>
<!-- Node3 -->
<g id="node3" class="node"><title>Node3</title>
<g id="a_node3"><a xlink:href="_g_c_c_2_nios_i_i_2port_8c.html#aba3499e1ee02f7effadcdda992d7c17f" target="_top" xlink:title="vPortSysTickHandler">
<polygon fill="white" stroke="black" points="156,-19.5 156,-38.5 266,-38.5 266,-19.5 156,-19.5"/>
<text text-anchor="middle" x="211" y="-26.5" font-family="Helvetica,sans-Serif" font-size="10.00">vPortSysTickHandler</text>
</a>
</g>
</g>
<!-- Node1&#45;&gt;Node3 -->
<g id="edge2" class="edge"><title>Node1&#45;&gt;Node3</title>
<path fill="none" stroke="midnightblue" d="M119.889,-40.4907C128.425,-39.4022 137.247,-38.2772 145.88,-37.1764"/>
<polygon fill="midnightblue" stroke="midnightblue" points="146.421,-40.6358 155.898,-35.8989 145.536,-33.692 146.421,-40.6358"/>
</g>
<!-- Node4 -->
<g id="node4" class="node"><title>Node4</title>
<g id="a_node4"><a xlink:href="task_8h.html#a978e25460ac35706f9ad30b46d9403d8" target="_top" xlink:title="xTaskIncrementTick">
<polygon fill="white" stroke="black" points="303,-38.5 303,-57.5 409,-57.5 409,-38.5 303,-38.5"/>
<text text-anchor="middle" x="356" y="-45.5" font-family="Helvetica,sans-Serif" font-size="10.00">xTaskIncrementTick</text>
</a>
</g>
</g>
<!-- Node3&#45;&gt;Node4 -->
<g id="edge3" class="edge"><title>Node3&#45;&gt;Node4</title>
<path fill="none" stroke="midnightblue" d="M266.062,-36.1831C274.797,-37.3436 283.901,-38.5533 292.81,-39.737"/>
<polygon fill="midnightblue" stroke="midnightblue" points="292.38,-43.2106 302.754,-41.0582 293.302,-36.2715 292.38,-43.2106"/>
</g>
<!-- Node7 -->
<g id="node7" class="node"><title>Node7</title>
<g id="a_node7"><a xlink:href="_renesas_2_r_x100_2port_8c.html#a9c86137bc3c1cbffc39fff22627cb885" target="_top" xlink:title="vTaskSwitchContext">
<polygon fill="white" stroke="black" points="302.5,-0.5 302.5,-19.5 409.5,-19.5 409.5,-0.5 302.5,-0.5"/>
<text text-anchor="middle" x="356" y="-7.5" font-family="Helvetica,sans-Serif" font-size="10.00">vTaskSwitchContext</text>
</a>
</g>
</g>
<!-- Node3&#45;&gt;Node7 -->
<g id="edge6" class="edge"><title>Node3&#45;&gt;Node7</title>
<path fill="none" stroke="midnightblue" d="M266.062,-21.8169C274.589,-20.6839 283.469,-19.5041 292.174,-18.3475"/>
<polygon fill="midnightblue" stroke="midnightblue" points="292.83,-21.7912 302.282,-17.0045 291.908,-14.8522 292.83,-21.7912"/>
</g>
<!-- Node5 -->
<g id="node5" class="node"><title>Node5</title>
<g id="a_node5"><a xlink:href="list_8h.html#a2eb1558482076fff8cafc63419c2d34a" target="_top" xlink:title="uxListRemove">
<polygon fill="white" stroke="black" points="446,-57.5 446,-76.5 526,-76.5 526,-57.5 446,-57.5"/>
<text text-anchor="middle" x="486" y="-64.5" font-family="Helvetica,sans-Serif" font-size="10.00">uxListRemove</text>
</a>
</g>
</g>
<!-- Node4&#45;&gt;Node5 -->
<g id="edge4" class="edge"><title>Node4&#45;&gt;Node5</title>
<path fill="none" stroke="midnightblue" d="M409.062,-55.728C417.918,-57.0424 427.089,-58.4038 435.865,-59.7065"/>
<polygon fill="midnightblue" stroke="midnightblue" points="435.538,-63.1963 445.944,-61.2026 436.566,-56.2722 435.538,-63.1963"/>
</g>
<!-- Node6 -->
<g id="node6" class="node"><title>Node6</title>
<g id="a_node6"><a xlink:href="_paradigm_2_tern___e_e_2small_2portmacro_8h.html#a14d32f8130d3c0b212cfc751730b5b49" target="_top" xlink:title="void">
<polygon fill="white" stroke="black" points="468.5,-19.5 468.5,-38.5 503.5,-38.5 503.5,-19.5 468.5,-19.5"/>
<text text-anchor="middle" x="486" y="-26.5" font-family="Helvetica,sans-Serif" font-size="10.00">void</text>
</a>
</g>
</g>
<!-- Node4&#45;&gt;Node6 -->
<g id="edge5" class="edge"><title>Node4&#45;&gt;Node6</title>
<path fill="none" stroke="midnightblue" d="M409.062,-40.272C425.94,-37.7667 443.966,-35.0911 458.218,-32.9755"/>
<polygon fill="midnightblue" stroke="midnightblue" points="458.921,-36.4095 468.299,-31.479 457.894,-29.4853 458.921,-36.4095"/>
</g>
</g>
</svg>
