<?xml version="1.0" encoding="UTF-8" standalone="no"?>
<!DOCTYPE svg PUBLIC "-//W3C//DTD SVG 1.1//EN"
 "http://www.w3.org/Graphics/SVG/1.1/DTD/svg11.dtd">
<!-- Generated by graphviz version 2.30.1 (20130221.2233)
 -->
<!-- Title: prvSystemTickHandler Pages: 1 -->
<svg width="386pt" height="85pt"
 viewBox="0.00 0.00 386.00 85.00" xmlns="http://www.w3.org/2000/svg" xmlns:xlink="http://www.w3.org/1999/xlink">
<g id="graph0" class="graph" transform="scale(1 1) rotate(0) translate(4 81)">
<title>prvSystemTickHandler</title>
<polygon fill="white" stroke="white" points="-4,5 -4,-81 383,-81 383,5 -4,5"/>
<!-- Node1 -->
<g id="node1" class="node"><title>Node1</title>
<polygon fill="#bfbfbf" stroke="black" points="0.5,-38.5 0.5,-57.5 117.5,-57.5 117.5,-38.5 0.5,-38.5"/>
<text text-anchor="middle" x="59" y="-45.5" font-family="Helvetica,sans-Serif" font-size="10.00">prvSystemTickHandler</text>
</g>
<!-- Node2 -->
<g id="node2" class="node"><title>Node2</title>
<g id="a_node2"><a xlink:href="_paradigm_2_tern___e_e_2small_2portmacro_8h.html#a14d32f8130d3c0b212cfc751730b5b49" target="_top" xlink:title="void">
<polygon fill="white" stroke="black" points="320.5,-57.5 320.5,-76.5 355.5,-76.5 355.5,-57.5 320.5,-57.5"/>
<text text-anchor="middle" x="338" y="-64.5" font-family="Helvetica,sans-Serif" font-size="10.00">void</text>
</a>
</g>
</g>
<!-- Node1&#45;&gt;Node2 -->
<g id="edge1" class="edge"><title>Node1&#45;&gt;Node2</title>
<path fill="none" stroke="midnightblue" d="M98.1541,-57.5098C115.134,-61.2748 135.445,-65.1436 154,-67 209.293,-72.5322 274.455,-70.5049 310.19,-68.6654"/>
<polygon fill="midnightblue" stroke="midnightblue" points="310.499,-72.1537 320.291,-68.1091 310.114,-65.1643 310.499,-72.1537"/>
</g>
<!-- Node3 -->
<g id="node3" class="node"><title>Node3</title>
<g id="a_node3"><a xlink:href="_renesas_2_r_x100_2port_8c.html#a9c86137bc3c1cbffc39fff22627cb885" target="_top" xlink:title="vTaskSwitchContext">
<polygon fill="white" stroke="black" points="154.5,-38.5 154.5,-57.5 261.5,-57.5 261.5,-38.5 154.5,-38.5"/>
<text text-anchor="middle" x="208" y="-45.5" font-family="Helvetica,sans-Serif" font-size="10.00">vTaskSwitchContext</text>
</a>
</g>
</g>
<!-- Node1&#45;&gt;Node3 -->
<g id="edge2" class="edge"><title>Node1&#45;&gt;Node3</title>
<path fill="none" stroke="midnightblue" d="M117.676,-48C126.348,-48 135.329,-48 144.103,-48"/>
<polygon fill="midnightblue" stroke="midnightblue" points="144.278,-51.5001 154.278,-48 144.278,-44.5001 144.278,-51.5001"/>
</g>
<!-- Node4 -->
<g id="node4" class="node"><title>Node4</title>
<g id="a_node4"><a xlink:href="task_8h.html#a978e25460ac35706f9ad30b46d9403d8" target="_top" xlink:title="xTaskIncrementTick">
<polygon fill="white" stroke="black" points="155,-0.5 155,-19.5 261,-19.5 261,-0.5 155,-0.5"/>
<text text-anchor="middle" x="208" y="-7.5" font-family="Helvetica,sans-Serif" font-size="10.00">xTaskIncrementTick</text>
</a>
</g>
</g>
<!-- Node1&#45;&gt;Node4 -->
<g id="edge3" class="edge"><title>Node1&#45;&gt;Node4</title>
<path fill="none" stroke="midnightblue" d="M97.0943,-38.411C116.318,-33.4417 139.986,-27.3233 160.429,-22.0387"/>
<polygon fill="midnightblue" stroke="midnightblue" points="161.367,-25.4115 170.172,-19.5201 159.615,-18.6343 161.367,-25.4115"/>
</g>
<!-- Node5 -->
<g id="node5" class="node"><title>Node5</title>
<g id="a_node5"><a xlink:href="list_8h.html#a2eb1558482076fff8cafc63419c2d34a" target="_top" xlink:title="uxListRemove">
<polygon fill="white" stroke="black" points="298,-0.5 298,-19.5 378,-19.5 378,-0.5 298,-0.5"/>
<text text-anchor="middle" x="338" y="-7.5" font-family="Helvetica,sans-Serif" font-size="10.00">uxListRemove</text>
</a>
</g>
</g>
<!-- Node4&#45;&gt;Node5 -->
<g id="edge4" class="edge"><title>Node4&#45;&gt;Node5</title>
<path fill="none" stroke="midnightblue" d="M261.062,-10C269.918,-10 279.089,-10 287.865,-10"/>
<polygon fill="midnightblue" stroke="midnightblue" points="287.944,-13.5001 297.944,-10 287.944,-6.5001 287.944,-13.5001"/>
</g>
<!-- Node4&#45;&gt;Node2 -->
<g id="edge5" class="edge"><title>Node4&#45;&gt;Node2</title>
<path fill="none" stroke="midnightblue" d="M237.585,-19.5112C245.566,-22.3651 254.189,-25.6368 262,-29 278.666,-36.1763 296.832,-45.3435 311.11,-52.876"/>
<polygon fill="midnightblue" stroke="midnightblue" points="309.838,-56.1643 320.308,-57.785 313.134,-49.9887 309.838,-56.1643"/>
</g>
</g>
</svg>
