<?xml version="1.0" encoding="UTF-8" standalone="no"?>
<!DOCTYPE svg PUBLIC "-//W3C//DTD SVG 1.1//EN"
 "http://www.w3.org/Graphics/SVG/1.1/DTD/svg11.dtd">
<!-- Generated by graphviz version 2.30.1 (20130221.2233)
 -->
<!-- Title: source/portable/GCC/NiosII/port.c Pages: 1 -->
<svg width="776pt" height="220pt"
 viewBox="0.00 0.00 776.00 220.00" xmlns="http://www.w3.org/2000/svg" xmlns:xlink="http://www.w3.org/1999/xlink">
<g id="graph0" class="graph" transform="scale(1 1) rotate(0) translate(4 216)">
<title>source/portable/GCC/NiosII/port.c</title>
<polygon fill="white" stroke="white" points="-4,5 -4,-216 773,-216 773,5 -4,5"/>
<!-- Node1 -->
<g id="node1" class="node"><title>Node1</title>
<polygon fill="#bfbfbf" stroke="black" points="218,-181 218,-211 328,-211 328,-181 218,-181"/>
<text text-anchor="start" x="226" y="-199" font-family="Helvetica,sans-Serif" font-size="10.00">source/portable/GCC</text>
<text text-anchor="middle" x="273" y="-188" font-family="Helvetica,sans-Serif" font-size="10.00">/NiosII/port.c</text>
</g>
<!-- Node2 -->
<g id="node2" class="node"><title>Node2</title>
<polygon fill="white" stroke="#bfbfbf" points="-0.5,-118.5 -0.5,-137.5 48.5,-137.5 48.5,-118.5 -0.5,-118.5"/>
<text text-anchor="middle" x="24" y="-125.5" font-family="Helvetica,sans-Serif" font-size="10.00">string.h</text>
</g>
<!-- Node1&#45;&gt;Node2 -->
<g id="edge1" class="edge"><title>Node1&#45;&gt;Node2</title>
<path fill="none" stroke="midnightblue" d="M217.883,-184.816C173.983,-176.017 111.273,-161.903 58,-144 55.7296,-143.237 53.4026,-142.38 51.0833,-141.472"/>
<polygon fill="midnightblue" stroke="midnightblue" points="52.3319,-138.2 41.7562,-137.565 49.6272,-144.657 52.3319,-138.2"/>
</g>
<!-- Node3 -->
<g id="node3" class="node"><title>Node3</title>
<polygon fill="white" stroke="#bfbfbf" points="67,-118.5 67,-137.5 115,-137.5 115,-118.5 67,-118.5"/>
<text text-anchor="middle" x="91" y="-125.5" font-family="Helvetica,sans-Serif" font-size="10.00">errno.h</text>
</g>
<!-- Node1&#45;&gt;Node3 -->
<g id="edge2" class="edge"><title>Node1&#45;&gt;Node3</title>
<path fill="none" stroke="midnightblue" d="M228.254,-180.938C198.448,-171.266 158.556,-157.73 124,-144 122.158,-143.268 120.269,-142.489 118.374,-141.686"/>
<polygon fill="midnightblue" stroke="midnightblue" points="119.583,-138.394 109.02,-137.571 116.764,-144.801 119.583,-138.394"/>
</g>
<!-- Node4 -->
<g id="node4" class="node"><title>Node4</title>
<polygon fill="white" stroke="#bfbfbf" points="133,-118.5 133,-137.5 203,-137.5 203,-118.5 133,-118.5"/>
<text text-anchor="middle" x="168" y="-125.5" font-family="Helvetica,sans-Serif" font-size="10.00">sys/alt_irq.h</text>
</g>
<!-- Node1&#45;&gt;Node4 -->
<g id="edge3" class="edge"><title>Node1&#45;&gt;Node4</title>
<path fill="none" stroke="midnightblue" d="M250.475,-180.841C232.72,-169.681 208.087,-154.198 190.372,-143.063"/>
<polygon fill="midnightblue" stroke="midnightblue" points="192.141,-140.04 181.812,-137.682 188.416,-145.967 192.141,-140.04"/>
</g>
<!-- Node5 -->
<g id="node5" class="node"><title>Node5</title>
<polygon fill="white" stroke="#bfbfbf" points="221,-113 221,-143 325,-143 325,-113 221,-113"/>
<text text-anchor="start" x="229" y="-131" font-family="Helvetica,sans-Serif" font-size="10.00">altera_avalon_timer</text>
<text text-anchor="middle" x="273" y="-120" font-family="Helvetica,sans-Serif" font-size="10.00">_regs.h</text>
</g>
<!-- Node1&#45;&gt;Node5 -->
<g id="edge4" class="edge"><title>Node1&#45;&gt;Node5</title>
<path fill="none" stroke="midnightblue" d="M273,-180.679C273,-172.722 273,-162.605 273,-153.436"/>
<polygon fill="midnightblue" stroke="midnightblue" points="276.5,-153.293 273,-143.293 269.5,-153.293 276.5,-153.293"/>
</g>
<!-- Node6 -->
<g id="node6" class="node"><title>Node6</title>
<polygon fill="white" stroke="#bfbfbf" points="343,-118.5 343,-137.5 441,-137.5 441,-118.5 343,-118.5"/>
<text text-anchor="middle" x="392" y="-125.5" font-family="Helvetica,sans-Serif" font-size="10.00">priv/alt_irq_table.h</text>
</g>
<!-- Node1&#45;&gt;Node6 -->
<g id="edge5" class="edge"><title>Node1&#45;&gt;Node6</title>
<path fill="none" stroke="midnightblue" d="M298.528,-180.841C318.927,-169.528 347.338,-153.771 367.469,-142.605"/>
<polygon fill="midnightblue" stroke="midnightblue" points="369.299,-145.593 376.346,-137.682 365.904,-139.471 369.299,-145.593"/>
</g>
<!-- Node7 -->
<g id="node7" class="node"><title>Node7</title>
<g id="a_node7"><a xlink:href="_free_r_t_o_s_8h.html" target="_top" xlink:title="FreeRTOS.h">
<polygon fill="white" stroke="black" points="459.5,-118.5 459.5,-137.5 532.5,-137.5 532.5,-118.5 459.5,-118.5"/>
<text text-anchor="middle" x="496" y="-125.5" font-family="Helvetica,sans-Serif" font-size="10.00">FreeRTOS.h</text>
</a>
</g>
</g>
<!-- Node1&#45;&gt;Node7 -->
<g id="edge6" class="edge"><title>Node1&#45;&gt;Node7</title>
<path fill="none" stroke="midnightblue" d="M323.492,-180.954C358.976,-170.96 407.506,-157.046 450,-144 453.395,-142.958 456.924,-141.85 460.449,-140.728"/>
<polygon fill="midnightblue" stroke="midnightblue" points="461.816,-143.965 470.261,-137.567 459.67,-137.302 461.816,-143.965"/>
</g>
<!-- Node16 -->
<g id="node16" class="node"><title>Node16</title>
<g id="a_node16"><a xlink:href="task_8h.html" target="_top" xlink:title="task.h">
<polygon fill="white" stroke="black" points="609.5,-118.5 609.5,-137.5 652.5,-137.5 652.5,-118.5 609.5,-118.5"/>
<text text-anchor="middle" x="631" y="-125.5" font-family="Helvetica,sans-Serif" font-size="10.00">task.h</text>
</a>
</g>
</g>
<!-- Node1&#45;&gt;Node16 -->
<g id="edge15" class="edge"><title>Node1&#45;&gt;Node16</title>
<path fill="none" stroke="midnightblue" d="M328.153,-184.832C404.014,-170.847 538.085,-146.13 599.128,-134.876"/>
<polygon fill="midnightblue" stroke="midnightblue" points="600.106,-138.255 609.305,-133 598.837,-131.371 600.106,-138.255"/>
</g>
<!-- Node8 -->
<g id="node8" class="node"><title>Node8</title>
<polygon fill="white" stroke="#bfbfbf" points="257,-56.5 257,-75.5 309,-75.5 309,-56.5 257,-56.5"/>
<text text-anchor="middle" x="283" y="-63.5" font-family="Helvetica,sans-Serif" font-size="10.00">stddef.h</text>
</g>
<!-- Node7&#45;&gt;Node8 -->
<g id="edge7" class="edge"><title>Node7&#45;&gt;Node8</title>
<path fill="none" stroke="midnightblue" d="M470.285,-118.354C463.694,-116.209 456.602,-113.964 450,-112 405.139,-98.6514 352.994,-84.8749 319.068,-76.1405"/>
<polygon fill="midnightblue" stroke="midnightblue" points="319.708,-72.6915 309.152,-73.5978 317.969,-79.4721 319.708,-72.6915"/>
</g>
<!-- Node9 -->
<g id="node9" class="node"><title>Node9</title>
<polygon fill="white" stroke="#bfbfbf" points="327.5,-56.5 327.5,-75.5 376.5,-75.5 376.5,-56.5 327.5,-56.5"/>
<text text-anchor="middle" x="352" y="-63.5" font-family="Helvetica,sans-Serif" font-size="10.00">stdint.h</text>
</g>
<!-- Node7&#45;&gt;Node9 -->
<g id="edge8" class="edge"><title>Node7&#45;&gt;Node9</title>
<path fill="none" stroke="midnightblue" d="M475.368,-118.403C450.881,-108.2 409.853,-91.1055 381.891,-79.4544"/>
<polygon fill="midnightblue" stroke="midnightblue" points="383.17,-76.196 372.593,-75.5806 380.478,-82.6576 383.17,-76.196"/>
</g>
<!-- Node10 -->
<g id="node10" class="node"><title>Node10</title>
<polygon fill="white" stroke="#bfbfbf" points="395,-56.5 395,-75.5 497,-75.5 497,-56.5 395,-56.5"/>
<text text-anchor="middle" x="446" y="-63.5" font-family="Helvetica,sans-Serif" font-size="10.00">FreeRTOSConfig.h</text>
</g>
<!-- Node7&#45;&gt;Node10 -->
<g id="edge9" class="edge"><title>Node7&#45;&gt;Node10</title>
<path fill="none" stroke="midnightblue" d="M488.836,-118.403C481.262,-109.314 469.13,-94.7559 459.707,-83.4489"/>
<polygon fill="midnightblue" stroke="midnightblue" points="462.241,-81.0222 453.15,-75.5806 456.864,-85.5035 462.241,-81.0222"/>
</g>
<!-- Node11 -->
<g id="node11" class="node"><title>Node11</title>
<g id="a_node11"><a xlink:href="projdefs_8h.html" target="_top" xlink:title="projdefs.h">
<polygon fill="white" stroke="black" points="515,-56.5 515,-75.5 575,-75.5 575,-56.5 515,-56.5"/>
<text text-anchor="middle" x="545" y="-63.5" font-family="Helvetica,sans-Serif" font-size="10.00">projdefs.h</text>
</a>
</g>
</g>
<!-- Node7&#45;&gt;Node11 -->
<g id="edge10" class="edge"><title>Node7&#45;&gt;Node11</title>
<path fill="none" stroke="midnightblue" d="M503.021,-118.403C510.443,-109.314 522.333,-94.7559 531.567,-83.4489"/>
<polygon fill="midnightblue" stroke="midnightblue" points="534.378,-85.5398 537.993,-75.5806 528.956,-81.1121 534.378,-85.5398"/>
</g>
<!-- Node12 -->
<g id="node12" class="node"><title>Node12</title>
<g id="a_node12"><a xlink:href="portable_8h.html" target="_top" xlink:title="portable.h">
<polygon fill="white" stroke="black" points="593.5,-56.5 593.5,-75.5 654.5,-75.5 654.5,-56.5 593.5,-56.5"/>
<text text-anchor="middle" x="624" y="-63.5" font-family="Helvetica,sans-Serif" font-size="10.00">portable.h</text>
</a>
</g>
</g>
<!-- Node7&#45;&gt;Node12 -->
<g id="edge11" class="edge"><title>Node7&#45;&gt;Node12</title>
<path fill="none" stroke="midnightblue" d="M514.339,-118.403C535.821,-108.334 571.622,-91.5522 596.448,-79.9151"/>
<polygon fill="midnightblue" stroke="midnightblue" points="598.126,-82.9941 605.695,-75.5806 595.155,-76.6559 598.126,-82.9941"/>
</g>
<!-- Node13 -->
<g id="node13" class="node"><title>Node13</title>
<g id="a_node13"><a xlink:href="deprecated__definitions_8h.html" target="_top" xlink:title="deprecated_definitions.h">
<polygon fill="white" stroke="black" points="445.5,-0.5 445.5,-19.5 570.5,-19.5 570.5,-0.5 445.5,-0.5"/>
<text text-anchor="middle" x="508" y="-7.5" font-family="Helvetica,sans-Serif" font-size="10.00">deprecated_definitions.h</text>
</a>
</g>
</g>
<!-- Node12&#45;&gt;Node13 -->
<g id="edge12" class="edge"><title>Node12&#45;&gt;Node13</title>
<path fill="none" stroke="midnightblue" d="M605.619,-56.4435C586.784,-47.6751 557.269,-33.9355 535.621,-23.8579"/>
<polygon fill="midnightblue" stroke="midnightblue" points="536.838,-20.5637 526.295,-19.5164 533.883,-26.9098 536.838,-20.5637"/>
</g>
<!-- Node14 -->
<g id="node14" class="node"><title>Node14</title>
<polygon fill="white" stroke="#bfbfbf" points="589,-0.5 589,-19.5 659,-19.5 659,-0.5 589,-0.5"/>
<text text-anchor="middle" x="624" y="-7.5" font-family="Helvetica,sans-Serif" font-size="10.00">portmacro.h</text>
</g>
<!-- Node12&#45;&gt;Node14 -->
<g id="edge13" class="edge"><title>Node12&#45;&gt;Node14</title>
<path fill="none" stroke="midnightblue" d="M624,-56.083C624,-49.0059 624,-38.8611 624,-29.9865"/>
<polygon fill="midnightblue" stroke="midnightblue" points="627.5,-29.751 624,-19.7511 620.5,-29.7511 627.5,-29.751"/>
</g>
<!-- Node15 -->
<g id="node15" class="node"><title>Node15</title>
<g id="a_node15"><a xlink:href="mpu__wrappers_8h.html" target="_top" xlink:title="mpu_wrappers.h">
<polygon fill="white" stroke="black" points="677.5,-0.5 677.5,-19.5 768.5,-19.5 768.5,-0.5 677.5,-0.5"/>
<text text-anchor="middle" x="723" y="-7.5" font-family="Helvetica,sans-Serif" font-size="10.00">mpu_wrappers.h</text>
</a>
</g>
</g>
<!-- Node12&#45;&gt;Node15 -->
<g id="edge14" class="edge"><title>Node12&#45;&gt;Node15</title>
<path fill="none" stroke="midnightblue" d="M639.906,-56.324C655.638,-47.7428 679.942,-34.486 698.209,-24.5224"/>
<polygon fill="midnightblue" stroke="midnightblue" points="700.03,-27.5157 707.133,-19.6545 696.678,-21.3704 700.03,-27.5157"/>
</g>
<!-- Node17 -->
<g id="node17" class="node"><title>Node17</title>
<g id="a_node17"><a xlink:href="list_8h.html" target="_top" xlink:title="list.h">
<polygon fill="white" stroke="black" points="672.5,-56.5 672.5,-75.5 709.5,-75.5 709.5,-56.5 672.5,-56.5"/>
<text text-anchor="middle" x="691" y="-63.5" font-family="Helvetica,sans-Serif" font-size="10.00">list.h</text>
</a>
</g>
</g>
<!-- Node16&#45;&gt;Node17 -->
<g id="edge16" class="edge"><title>Node16&#45;&gt;Node17</title>
<path fill="none" stroke="midnightblue" d="M639.597,-118.403C648.864,-109.136 663.817,-94.1828 675.212,-82.7876"/>
<polygon fill="midnightblue" stroke="midnightblue" points="677.823,-85.1266 682.419,-75.5806 672.873,-80.1768 677.823,-85.1266"/>
</g>
</g>
</svg>
