<?xml version="1.0" encoding="UTF-8" standalone="no"?>
<!DOCTYPE svg PUBLIC "-//W3C//DTD SVG 1.1//EN"
 "http://www.w3.org/Graphics/SVG/1.1/DTD/svg11.dtd">
<!-- Generated by graphviz version 2.30.1 (20130221.2233)
 -->
<!-- Title: __asm__ Pages: 1 -->
<svg width="548pt" height="104pt"
 viewBox="0.00 0.00 548.00 104.00" xmlns="http://www.w3.org/2000/svg" xmlns:xlink="http://www.w3.org/1999/xlink">
<g id="graph0" class="graph" transform="scale(1 1) rotate(0) translate(4 100)">
<title>__asm__</title>
<polygon fill="white" stroke="white" points="-4,5 -4,-100 545,-100 545,5 -4,5"/>
<!-- Node1 -->
<g id="node1" class="node"><title>Node1</title>
<polygon fill="#bfbfbf" stroke="black" points="0,-57.5 0,-76.5 58,-76.5 58,-57.5 0,-57.5"/>
<text text-anchor="middle" x="29" y="-64.5" font-family="Helvetica,sans-Serif" font-size="10.00">__asm__</text>
</g>
<!-- Node2 -->
<g id="node2" class="node"><title>Node2</title>
<g id="a_node2"><a xlink:href="_m_p_l_a_b_2_p_i_c32_m_e_c14xx_2portmacro_8h.html#af9561114d7b987e72644f998cb0f52a1" target="_top" xlink:title="vPortSetCP0Cause">
<polygon fill="white" stroke="black" points="94.5,-76.5 94.5,-95.5 197.5,-95.5 197.5,-76.5 94.5,-76.5"/>
<text text-anchor="middle" x="146" y="-83.5" font-family="Helvetica,sans-Serif" font-size="10.00">vPortSetCP0Cause</text>
</a>
</g>
</g>
<!-- Node1&#45;&gt;Node2 -->
<g id="edge1" class="edge"><title>Node1&#45;&gt;Node2</title>
<path fill="none" stroke="midnightblue" d="M68.0151,-73.2808C76.4201,-74.6694 85.455,-76.1621 94.2743,-77.6192"/>
<polygon fill="midnightblue" stroke="midnightblue" points="68.569,-69.8249 58.1322,-71.6479 67.4279,-76.7313 68.569,-69.8249"/>
</g>
<!-- Node4 -->
<g id="node4" class="node"><title>Node4</title>
<g id="a_node4"><a xlink:href="_m_p_l_a_b_2_p_i_c32_m_e_c14xx_2portmacro_8h.html#a1a3e098dfdca120706632e268a9ba671" target="_top" xlink:title="vPortSetCP0Status">
<polygon fill="white" stroke="black" points="94.5,-38.5 94.5,-57.5 197.5,-57.5 197.5,-38.5 94.5,-38.5"/>
<text text-anchor="middle" x="146" y="-45.5" font-family="Helvetica,sans-Serif" font-size="10.00">vPortSetCP0Status</text>
</a>
</g>
</g>
<!-- Node1&#45;&gt;Node4 -->
<g id="edge3" class="edge"><title>Node1&#45;&gt;Node4</title>
<path fill="none" stroke="midnightblue" d="M68.0151,-60.7192C76.4201,-59.3306 85.455,-57.8379 94.2743,-56.3808"/>
<polygon fill="midnightblue" stroke="midnightblue" points="67.4279,-57.2687 58.1322,-62.3521 68.569,-64.1751 67.4279,-57.2687"/>
</g>
<!-- Node3 -->
<g id="node3" class="node"><title>Node3</title>
<g id="a_node3"><a xlink:href="_m_p_l_a_b_2_p_i_c32_m_e_c14xx_2port_8c.html#aa9ac2b26adfad38266878b63174ea70a" target="_top" xlink:title="vPortIncrementTick">
<polygon fill="white" stroke="black" points="436.5,-38.5 436.5,-57.5 539.5,-57.5 539.5,-38.5 436.5,-38.5"/>
<text text-anchor="middle" x="488" y="-45.5" font-family="Helvetica,sans-Serif" font-size="10.00">vPortIncrementTick</text>
</a>
</g>
</g>
<!-- Node2&#45;&gt;Node3 -->
<g id="edge2" class="edge"><title>Node2&#45;&gt;Node3</title>
<path fill="none" stroke="midnightblue" d="M207.903,-83.8199C259.313,-81.4079 334.758,-76.526 400,-67 416.063,-64.6546 433.585,-61.0369 448.667,-57.585"/>
<polygon fill="midnightblue" stroke="midnightblue" points="207.463,-80.3361 197.631,-84.2839 207.779,-87.329 207.463,-80.3361"/>
</g>
<!-- Node5 -->
<g id="node5" class="node"><title>Node5</title>
<g id="a_node5"><a xlink:href="_m_p_l_a_b_2_p_i_c32_m_e_c14xx_2port_8c.html#ad3b846f809a7cff169a8c3cb621ec1ee" target="_top" xlink:title="uxPortSetInterruptMaskFromISR">
<polygon fill="white" stroke="black" points="236,-38.5 236,-57.5 398,-57.5 398,-38.5 236,-38.5"/>
<text text-anchor="middle" x="317" y="-45.5" font-family="Helvetica,sans-Serif" font-size="10.00">uxPortSetInterruptMaskFromISR</text>
</a>
</g>
</g>
<!-- Node4&#45;&gt;Node5 -->
<g id="edge4" class="edge"><title>Node4&#45;&gt;Node5</title>
<path fill="none" stroke="midnightblue" d="M207.816,-48C216.945,-48 226.475,-48 235.931,-48"/>
<polygon fill="midnightblue" stroke="midnightblue" points="207.706,-44.5001 197.706,-48 207.706,-51.5001 207.706,-44.5001"/>
</g>
<!-- Node6 -->
<g id="node6" class="node"><title>Node6</title>
<g id="a_node6"><a xlink:href="_m_p_l_a_b_2_p_i_c32_m_z_2portmacro_8h.html#a12396024e6649cc1dee6c0df77689812" target="_top" xlink:title="vPortClearInterruptMaskFromISR">
<polygon fill="white" stroke="black" points="234.5,-0.5 234.5,-19.5 399.5,-19.5 399.5,-0.5 234.5,-0.5"/>
<text text-anchor="middle" x="317" y="-7.5" font-family="Helvetica,sans-Serif" font-size="10.00">vPortClearInterruptMaskFromISR</text>
</a>
</g>
</g>
<!-- Node4&#45;&gt;Node6 -->
<g id="edge5" class="edge"><title>Node4&#45;&gt;Node6</title>
<path fill="none" stroke="midnightblue" d="M199.587,-36.1757C223.413,-30.8184 251.207,-24.5689 273.661,-19.5201"/>
<polygon fill="midnightblue" stroke="midnightblue" points="198.634,-32.8024 189.646,-38.411 200.17,-39.6319 198.634,-32.8024"/>
</g>
<!-- Node6&#45;&gt;Node3 -->
<g id="edge6" class="edge"><title>Node6&#45;&gt;Node3</title>
<path fill="none" stroke="midnightblue" d="M370.587,-21.8243C394.413,-27.1816 422.207,-33.4311 444.661,-38.4799"/>
<polygon fill="midnightblue" stroke="midnightblue" points="371.17,-18.3681 360.646,-19.589 369.634,-25.1976 371.17,-18.3681"/>
</g>
</g>
</svg>
