<?xml version="1.0" encoding="UTF-8" standalone="no"?>
<!DOCTYPE svg PUBLIC "-//W3C//DTD SVG 1.1//EN"
 "http://www.w3.org/Graphics/SVG/1.1/DTD/svg11.dtd">
<!-- Generated by graphviz version 2.30.1 (20130221.2233)
 -->
<!-- Title: source/portable/GCC/ARM7_AT91SAM7S/AT91SAM7X256.h Pages: 1 -->
<svg width="460pt" height="118pt"
 viewBox="0.00 0.00 460.00 118.00" xmlns="http://www.w3.org/2000/svg" xmlns:xlink="http://www.w3.org/1999/xlink">
<g id="graph0" class="graph" transform="scale(1 1) rotate(0) translate(4 114)">
<title>source/portable/GCC/ARM7_AT91SAM7S/AT91SAM7X256.h</title>
<polygon fill="white" stroke="white" points="-4,5 -4,-114 457,-114 457,5 -4,5"/>
<!-- Node1 -->
<g id="node1" class="node"><title>Node1</title>
<polygon fill="#bfbfbf" stroke="black" points="112,-79 112,-109 308,-109 308,-79 112,-79"/>
<text text-anchor="start" x="120" y="-97" font-family="Helvetica,sans-Serif" font-size="10.00">source/portable/GCC</text>
<text text-anchor="middle" x="210" y="-86" font-family="Helvetica,sans-Serif" font-size="10.00">/ARM7_AT91SAM7S/AT91SAM7X256.h</text>
</g>
<!-- Node2 -->
<g id="node2" class="node"><title>Node2</title>
<g id="a_node2"><a xlink:href="lib___a_t91_s_a_m7_x256_8c.html" target="_top" xlink:title="source/portable/GCC\l/ARM7_AT91SAM7S/lib\l_AT91SAM7X256.c">
<polygon fill="white" stroke="black" points="-0.5,-0.5 -0.5,-41.5 122.5,-41.5 122.5,-0.5 -0.5,-0.5"/>
<text text-anchor="start" x="7.5" y="-29.5" font-family="Helvetica,sans-Serif" font-size="10.00">source/portable/GCC</text>
<text text-anchor="start" x="7.5" y="-18.5" font-family="Helvetica,sans-Serif" font-size="10.00">/ARM7_AT91SAM7S/lib</text>
<text text-anchor="middle" x="61" y="-7.5" font-family="Helvetica,sans-Serif" font-size="10.00">_AT91SAM7X256.c</text>
</a>
</g>
</g>
<!-- Node1&#45;&gt;Node2 -->
<g id="edge1" class="edge"><title>Node1&#45;&gt;Node2</title>
<path fill="none" stroke="midnightblue" d="M171.466,-74.6383C150.139,-64.4756 123.637,-51.8473 101.938,-41.5075"/>
<polygon fill="midnightblue" stroke="midnightblue" points="170.029,-77.8306 180.562,-78.9727 173.041,-71.5113 170.029,-77.8306"/>
</g>
<!-- Node3 -->
<g id="node3" class="node"><title>Node3</title>
<g id="a_node3"><a xlink:href="_g_c_c_2_a_r_m7___a_t91_s_a_m7_s_2port_8c.html" target="_top" xlink:title="source/portable/GCC\l/ARM7_AT91SAM7S/port.c">
<polygon fill="white" stroke="black" points="141,-6 141,-36 279,-36 279,-6 141,-6"/>
<text text-anchor="start" x="149" y="-24" font-family="Helvetica,sans-Serif" font-size="10.00">source/portable/GCC</text>
<text text-anchor="middle" x="210" y="-13" font-family="Helvetica,sans-Serif" font-size="10.00">/ARM7_AT91SAM7S/port.c</text>
</a>
</g>
</g>
<!-- Node1&#45;&gt;Node3 -->
<g id="edge2" class="edge"><title>Node1&#45;&gt;Node3</title>
<path fill="none" stroke="midnightblue" d="M210,-68.8976C210,-58.1314 210,-45.8005 210,-36.4856"/>
<polygon fill="midnightblue" stroke="midnightblue" points="206.5,-68.9727 210,-78.9727 213.5,-68.9727 206.5,-68.9727"/>
</g>
<!-- Node4 -->
<g id="node4" class="node"><title>Node4</title>
<g id="a_node4"><a xlink:href="_a_r_m7___a_t91_s_a_m7_s_2port_i_s_r_8c.html" target="_top" xlink:title="source/portable/GCC\l/ARM7_AT91SAM7S/portISR.c">
<polygon fill="white" stroke="black" points="297.5,-6 297.5,-36 452.5,-36 452.5,-6 297.5,-6"/>
<text text-anchor="start" x="305.5" y="-24" font-family="Helvetica,sans-Serif" font-size="10.00">source/portable/GCC</text>
<text text-anchor="middle" x="375" y="-13" font-family="Helvetica,sans-Serif" font-size="10.00">/ARM7_AT91SAM7S/portISR.c</text>
</a>
</g>
</g>
<!-- Node1&#45;&gt;Node4 -->
<g id="edge3" class="edge"><title>Node1&#45;&gt;Node4</title>
<path fill="none" stroke="midnightblue" d="M252.126,-74.8732C280.117,-62.8285 316.338,-47.2426 342.187,-36.1195"/>
<polygon fill="midnightblue" stroke="midnightblue" points="250.401,-71.805 242.599,-78.9727 253.168,-78.235 250.401,-71.805"/>
</g>
</g>
</svg>
