<?xml version="1.0" encoding="UTF-8" standalone="no"?>
<!DOCTYPE svg PUBLIC "-//W3C//DTD SVG 1.1//EN"
 "http://www.w3.org/Graphics/SVG/1.1/DTD/svg11.dtd">
<!-- Generated by graphviz version 2.30.1 (20130221.2233)
 -->
<!-- Title: AT91F_PDC_ReceiveFrame Pages: 1 -->
<svg width="332pt" height="104pt"
 viewBox="0.00 0.00 332.00 104.00" xmlns="http://www.w3.org/2000/svg" xmlns:xlink="http://www.w3.org/1999/xlink">
<g id="graph0" class="graph" transform="scale(1 1) rotate(0) translate(4 100)">
<title>AT91F_PDC_ReceiveFrame</title>
<polygon fill="white" stroke="white" points="-4,5 -4,-100 329,-100 329,5 -4,5"/>
<!-- Node1 -->
<g id="node1" class="node"><title>Node1</title>
<polygon fill="#bfbfbf" stroke="black" points="0,-38.5 0,-57.5 144,-57.5 144,-38.5 0,-38.5"/>
<text text-anchor="middle" x="72" y="-45.5" font-family="Helvetica,sans-Serif" font-size="10.00">AT91F_PDC_ReceiveFrame</text>
</g>
<!-- Node2 -->
<g id="node2" class="node"><title>Node2</title>
<g id="a_node2"><a xlink:href="_g_c_c_2_a_r_m7___a_t91_s_a_m7_s_2lib___a_t91_s_a_m7_x256_8h.html#a3fd88379fedca045387ceabc79da98f6" target="_top" xlink:title="AT91F_SPI_ReceiveFrame">
<polygon fill="white" stroke="black" points="182.5,-76.5 182.5,-95.5 321.5,-95.5 321.5,-76.5 182.5,-76.5"/>
<text text-anchor="middle" x="252" y="-83.5" font-family="Helvetica,sans-Serif" font-size="10.00">AT91F_SPI_ReceiveFrame</text>
</a>
</g>
</g>
<!-- Node1&#45;&gt;Node2 -->
<g id="edge1" class="edge"><title>Node1&#45;&gt;Node2</title>
<path fill="none" stroke="midnightblue" d="M127.716,-59.681C152.959,-65.0699 182.545,-71.3861 206.406,-76.4799"/>
<polygon fill="midnightblue" stroke="midnightblue" points="128.427,-56.254 117.917,-57.589 126.966,-63.0997 128.427,-56.254"/>
</g>
<!-- Node3 -->
<g id="node3" class="node"><title>Node3</title>
<g id="a_node3"><a xlink:href="_g_c_c_2_a_r_m7___a_t91_s_a_m7_s_2lib___a_t91_s_a_m7_x256_8h.html#ae2e9978885885118d9106fb029b40b8a" target="_top" xlink:title="AT91F_SSC_ReceiveFrame">
<polygon fill="white" stroke="black" points="180.5,-38.5 180.5,-57.5 323.5,-57.5 323.5,-38.5 180.5,-38.5"/>
<text text-anchor="middle" x="252" y="-45.5" font-family="Helvetica,sans-Serif" font-size="10.00">AT91F_SSC_ReceiveFrame</text>
</a>
</g>
</g>
<!-- Node1&#45;&gt;Node3 -->
<g id="edge2" class="edge"><title>Node1&#45;&gt;Node3</title>
<path fill="none" stroke="midnightblue" d="M154.253,-48C162.943,-48 171.732,-48 180.286,-48"/>
<polygon fill="midnightblue" stroke="midnightblue" points="154.118,-44.5001 144.118,-48 154.118,-51.5001 154.118,-44.5001"/>
</g>
<!-- Node4 -->
<g id="node4" class="node"><title>Node4</title>
<g id="a_node4"><a xlink:href="_g_c_c_2_a_r_m7___a_t91_s_a_m7_s_2lib___a_t91_s_a_m7_x256_8h.html#a413427ce949ec0321bf321a4c1b91cd1" target="_top" xlink:title="AT91F_US_ReceiveFrame">
<polygon fill="white" stroke="black" points="183.5,-0.5 183.5,-19.5 320.5,-19.5 320.5,-0.5 183.5,-0.5"/>
<text text-anchor="middle" x="252" y="-7.5" font-family="Helvetica,sans-Serif" font-size="10.00">AT91F_US_ReceiveFrame</text>
</a>
</g>
</g>
<!-- Node1&#45;&gt;Node4 -->
<g id="edge3" class="edge"><title>Node1&#45;&gt;Node4</title>
<path fill="none" stroke="midnightblue" d="M127.716,-36.319C152.959,-30.9301 182.545,-24.6139 206.406,-19.5201"/>
<polygon fill="midnightblue" stroke="midnightblue" points="126.966,-32.9003 117.917,-38.411 128.427,-39.746 126.966,-32.9003"/>
</g>
</g>
</svg>
