<?xml version="1.0" encoding="UTF-8" standalone="no"?>
<!DOCTYPE svg PUBLIC "-//W3C//DTD SVG 1.1//EN"
 "http://www.w3.org/Graphics/SVG/1.1/DTD/svg11.dtd">
<!-- Generated by graphviz version 2.30.1 (20130221.2233)
 -->
<!-- Title: __attribute__ Pages: 1 -->
<svg width="356pt" height="123pt"
 viewBox="0.00 0.00 356.00 123.00" xmlns="http://www.w3.org/2000/svg" xmlns:xlink="http://www.w3.org/1999/xlink">
<g id="graph0" class="graph" transform="scale(1 1) rotate(0) translate(4 119)">
<title>__attribute__</title>
<polygon fill="white" stroke="white" points="-4,5 -4,-119 353,-119 353,5 -4,5"/>
<!-- Node1 -->
<g id="node1" class="node"><title>Node1</title>
<polygon fill="#bfbfbf" stroke="black" points="0.5,-57.5 0.5,-76.5 75.5,-76.5 75.5,-57.5 0.5,-57.5"/>
<text text-anchor="middle" x="38" y="-64.5" font-family="Helvetica,sans-Serif" font-size="10.00">__attribute__</text>
</g>
<!-- Node2 -->
<g id="node2" class="node"><title>Node2</title>
<g id="a_node2"><a xlink:href="o_watcom_216_bit_d_o_s_2_flsh186_2portmacro_8h.html#adff63afc268c80ed13a4db7eb576c989" target="_top" xlink:title="portENTER_CRITICAL">
<polygon fill="white" stroke="black" points="112.5,-95.5 112.5,-114.5 231.5,-114.5 231.5,-95.5 112.5,-95.5"/>
<text text-anchor="middle" x="172" y="-102.5" font-family="Helvetica,sans-Serif" font-size="10.00">portENTER_CRITICAL</text>
</a>
</g>
</g>
<!-- Node1&#45;&gt;Node2 -->
<g id="edge1" class="edge"><title>Node1&#45;&gt;Node2</title>
<path fill="none" stroke="midnightblue" d="M72.3092,-76.589C89.1928,-81.4494 109.895,-87.4091 127.971,-92.6127"/>
<polygon fill="midnightblue" stroke="midnightblue" points="127.123,-96.011 137.701,-95.4141 129.06,-89.2842 127.123,-96.011"/>
</g>
<!-- Node3 -->
<g id="node3" class="node"><title>Node3</title>
<g id="a_node3"><a xlink:href="_g_c_c_2_a_v_r32___u_c3_2port_8c.html#ae003e5aa4c4682b689129c010e7448d7" target="_top" xlink:title="prvScheduleNextTick">
<polygon fill="white" stroke="black" points="116.5,-57.5 116.5,-76.5 227.5,-76.5 227.5,-57.5 116.5,-57.5"/>
<text text-anchor="middle" x="172" y="-64.5" font-family="Helvetica,sans-Serif" font-size="10.00">prvScheduleNextTick</text>
</a>
</g>
</g>
<!-- Node1&#45;&gt;Node3 -->
<g id="edge2" class="edge"><title>Node1&#45;&gt;Node3</title>
<path fill="none" stroke="midnightblue" d="M75.7694,-67C85.1524,-67 95.5231,-67 105.866,-67"/>
<polygon fill="midnightblue" stroke="midnightblue" points="106.161,-70.5001 116.161,-67 106.161,-63.5001 106.161,-70.5001"/>
</g>
<!-- Node4 -->
<g id="node4" class="node"><title>Node4</title>
<g id="a_node4"><a xlink:href="task_8h.html#a978e25460ac35706f9ad30b46d9403d8" target="_top" xlink:title="xTaskIncrementTick">
<polygon fill="white" stroke="black" points="119,-19.5 119,-38.5 225,-38.5 225,-19.5 119,-19.5"/>
<text text-anchor="middle" x="172" y="-26.5" font-family="Helvetica,sans-Serif" font-size="10.00">xTaskIncrementTick</text>
</a>
</g>
</g>
<!-- Node1&#45;&gt;Node4 -->
<g id="edge3" class="edge"><title>Node1&#45;&gt;Node4</title>
<path fill="none" stroke="midnightblue" d="M72.3092,-57.411C89.1928,-52.5506 109.895,-46.5909 127.971,-41.3873"/>
<polygon fill="midnightblue" stroke="midnightblue" points="129.06,-44.7158 137.701,-38.5859 127.123,-37.989 129.06,-44.7158"/>
</g>
<!-- Node5 -->
<g id="node5" class="node"><title>Node5</title>
<g id="a_node5"><a xlink:href="list_8h.html#a2eb1558482076fff8cafc63419c2d34a" target="_top" xlink:title="uxListRemove">
<polygon fill="white" stroke="black" points="268,-38.5 268,-57.5 348,-57.5 348,-38.5 268,-38.5"/>
<text text-anchor="middle" x="308" y="-45.5" font-family="Helvetica,sans-Serif" font-size="10.00">uxListRemove</text>
</a>
</g>
</g>
<!-- Node4&#45;&gt;Node5 -->
<g id="edge4" class="edge"><title>Node4&#45;&gt;Node5</title>
<path fill="none" stroke="midnightblue" d="M225.192,-36.4003C235.884,-37.9164 247.106,-39.5075 257.693,-41.0087"/>
<polygon fill="midnightblue" stroke="midnightblue" points="257.218,-44.4763 267.611,-42.4149 258.201,-37.5457 257.218,-44.4763"/>
</g>
<!-- Node6 -->
<g id="node6" class="node"><title>Node6</title>
<g id="a_node6"><a xlink:href="_paradigm_2_tern___e_e_2small_2portmacro_8h.html#a14d32f8130d3c0b212cfc751730b5b49" target="_top" xlink:title="void">
<polygon fill="white" stroke="black" points="290.5,-0.5 290.5,-19.5 325.5,-19.5 325.5,-0.5 290.5,-0.5"/>
<text text-anchor="middle" x="308" y="-7.5" font-family="Helvetica,sans-Serif" font-size="10.00">void</text>
</a>
</g>
</g>
<!-- Node4&#45;&gt;Node6 -->
<g id="edge5" class="edge"><title>Node4&#45;&gt;Node6</title>
<path fill="none" stroke="midnightblue" d="M225.192,-21.5997C244.059,-18.9244 264.576,-16.0153 280.343,-13.7797"/>
<polygon fill="midnightblue" stroke="midnightblue" points="281.012,-17.2199 290.422,-12.3506 280.03,-10.2892 281.012,-17.2199"/>
</g>
</g>
</svg>
