<?xml version="1.0" encoding="UTF-8" standalone="no"?>
<!DOCTYPE svg PUBLIC "-//W3C//DTD SVG 1.1//EN"
 "http://www.w3.org/Graphics/SVG/1.1/DTD/svg11.dtd">
<!-- Generated by graphviz version 2.30.1 (20130221.2233)
 -->
<!-- Title: MPU_xQueuePeekFromISR Pages: 1 -->
<svg width="536pt" height="66pt"
 viewBox="0.00 0.00 536.00 66.00" xmlns="http://www.w3.org/2000/svg" xmlns:xlink="http://www.w3.org/1999/xlink">
<g id="graph0" class="graph" transform="scale(1 1) rotate(0) translate(4 62)">
<title>MPU_xQueuePeekFromISR</title>
<polygon fill="white" stroke="white" points="-4,5 -4,-62 533,-62 533,5 -4,5"/>
<!-- Node1 -->
<g id="node1" class="node"><title>Node1</title>
<polygon fill="#bfbfbf" stroke="black" points="0,-19.5 0,-38.5 142,-38.5 142,-19.5 0,-19.5"/>
<text text-anchor="middle" x="71" y="-26.5" font-family="Helvetica,sans-Serif" font-size="10.00">MPU_xQueuePeekFromISR</text>
</g>
<!-- Node2 -->
<g id="node2" class="node"><title>Node2</title>
<g id="a_node2"><a xlink:href="_g_c_c_2_a_r_m___c_m3___m_p_u_2port_8c.html#ad5691a9d6fd4c0b9f4e55426dd9a48ad" target="_top" xlink:title="prvRaisePrivilege">
<polygon fill="white" stroke="black" points="188,-38.5 188,-57.5 282,-57.5 282,-38.5 188,-38.5"/>
<text text-anchor="middle" x="235" y="-45.5" font-family="Helvetica,sans-Serif" font-size="10.00">prvRaisePrivilege</text>
</a>
</g>
</g>
<!-- Node1&#45;&gt;Node2 -->
<g id="edge1" class="edge"><title>Node1&#45;&gt;Node2</title>
<path fill="none" stroke="midnightblue" d="M142.113,-37.2232C153.898,-38.6053 165.996,-40.0242 177.384,-41.3599"/>
<polygon fill="midnightblue" stroke="midnightblue" points="177.275,-44.871 187.615,-42.5597 178.09,-37.9186 177.275,-44.871"/>
</g>
<!-- Node3 -->
<g id="node3" class="node"><title>Node3</title>
<g id="a_node3"><a xlink:href="queue_8h.html#ac402adf98be1fb8ca0345f30dc11a9dc" target="_top" xlink:title="xQueuePeekFromISR">
<polygon fill="white" stroke="black" points="178,-0.5 178,-19.5 292,-19.5 292,-0.5 178,-0.5"/>
<text text-anchor="middle" x="235" y="-7.5" font-family="Helvetica,sans-Serif" font-size="10.00">xQueuePeekFromISR</text>
</a>
</g>
</g>
<!-- Node1&#45;&gt;Node3 -->
<g id="edge2" class="edge"><title>Node1&#45;&gt;Node3</title>
<path fill="none" stroke="midnightblue" d="M142.113,-20.7768C150.625,-19.7786 159.299,-18.7612 167.752,-17.7699"/>
<polygon fill="midnightblue" stroke="midnightblue" points="168.402,-21.2177 177.926,-16.5766 167.587,-14.2653 168.402,-21.2177"/>
</g>
<!-- Node4 -->
<g id="node4" class="node"><title>Node4</title>
<g id="a_node4"><a xlink:href="queue_8c.html#ad9a2e17b2b13d4878f7af1361437320e" target="_top" xlink:title="prvCopyDataFromQueue">
<polygon fill="white" stroke="black" points="328,-0.5 328,-19.5 456,-19.5 456,-0.5 328,-0.5"/>
<text text-anchor="middle" x="392" y="-7.5" font-family="Helvetica,sans-Serif" font-size="10.00">prvCopyDataFromQueue</text>
</a>
</g>
</g>
<!-- Node3&#45;&gt;Node4 -->
<g id="edge3" class="edge"><title>Node3&#45;&gt;Node4</title>
<path fill="none" stroke="midnightblue" d="M292.397,-10C300.582,-10 309.106,-10 317.566,-10"/>
<polygon fill="midnightblue" stroke="midnightblue" points="317.825,-13.5001 327.825,-10 317.825,-6.5001 317.825,-13.5001"/>
</g>
<!-- Node5 -->
<g id="node5" class="node"><title>Node5</title>
<g id="a_node5"><a xlink:href="_paradigm_2_tern___e_e_2small_2portmacro_8h.html#a14d32f8130d3c0b212cfc751730b5b49" target="_top" xlink:title="void">
<polygon fill="white" stroke="black" points="492.5,-0.5 492.5,-19.5 527.5,-19.5 527.5,-0.5 492.5,-0.5"/>
<text text-anchor="middle" x="510" y="-7.5" font-family="Helvetica,sans-Serif" font-size="10.00">void</text>
</a>
</g>
</g>
<!-- Node4&#45;&gt;Node5 -->
<g id="edge4" class="edge"><title>Node4&#45;&gt;Node5</title>
<path fill="none" stroke="midnightblue" d="M456.092,-10C465.298,-10 474.332,-10 482.256,-10"/>
<polygon fill="midnightblue" stroke="midnightblue" points="482.286,-13.5001 492.285,-10 482.285,-6.5001 482.286,-13.5001"/>
</g>
</g>
</svg>
