<?xml version="1.0" encoding="UTF-8" standalone="no"?>
<!DOCTYPE svg PUBLIC "-//W3C//DTD SVG 1.1//EN"
 "http://www.w3.org/Graphics/SVG/1.1/DTD/svg11.dtd">
<!-- Generated by graphviz version 2.30.1 (20130221.2233)
 -->
<!-- Title: prvSetupTimerInterrupt Pages: 1 -->
<svg width="546pt" height="123pt"
 viewBox="0.00 0.00 546.00 123.00" xmlns="http://www.w3.org/2000/svg" xmlns:xlink="http://www.w3.org/1999/xlink">
<g id="graph0" class="graph" transform="scale(1 1) rotate(0) translate(4 119)">
<title>prvSetupTimerInterrupt</title>
<polygon fill="white" stroke="white" points="-4,5 -4,-119 543,-119 543,5 -4,5"/>
<!-- Node1 -->
<g id="node1" class="node"><title>Node1</title>
<polygon fill="#bfbfbf" stroke="black" points="0.5,-76.5 0.5,-95.5 119.5,-95.5 119.5,-76.5 0.5,-76.5"/>
<text text-anchor="middle" x="60" y="-83.5" font-family="Helvetica,sans-Serif" font-size="10.00">prvSetupTimerInterrupt</text>
</g>
<!-- Node2 -->
<g id="node2" class="node"><title>Node2</title>
<g id="a_node2"><a xlink:href="_g_c_c_2_a_v_r32___u_c3_2port_8c.html#a151847961076db0b8fa510b3847b4196" target="_top" xlink:title="prvScheduleFirstTick">
<polygon fill="white" stroke="black" points="156,-95.5 156,-114.5 266,-114.5 266,-95.5 156,-95.5"/>
<text text-anchor="middle" x="211" y="-102.5" font-family="Helvetica,sans-Serif" font-size="10.00">prvScheduleFirstTick</text>
</a>
</g>
</g>
<!-- Node1&#45;&gt;Node2 -->
<g id="edge1" class="edge"><title>Node1&#45;&gt;Node2</title>
<path fill="none" stroke="midnightblue" d="M119.889,-93.5093C128.425,-94.5978 137.247,-95.7228 145.88,-96.8236"/>
<polygon fill="midnightblue" stroke="midnightblue" points="145.536,-100.308 155.898,-98.1011 146.421,-93.3642 145.536,-100.308"/>
</g>
<!-- Node3 -->
<g id="node3" class="node"><title>Node3</title>
<g id="a_node3"><a xlink:href="_i_a_r_2_a_v_r32___u_c3_2port_8c.html#a4d7be48967d0bbfac84a6d33223702a2" target="_top" xlink:title="vTick">
<polygon fill="white" stroke="black" points="191,-57.5 191,-76.5 231,-76.5 231,-57.5 191,-57.5"/>
<text text-anchor="middle" x="211" y="-64.5" font-family="Helvetica,sans-Serif" font-size="10.00">vTick</text>
</a>
</g>
</g>
<!-- Node1&#45;&gt;Node3 -->
<g id="edge2" class="edge"><title>Node1&#45;&gt;Node3</title>
<path fill="none" stroke="midnightblue" d="M119.889,-78.4907C140.771,-75.8278 163.367,-72.9465 180.708,-70.7352"/>
<polygon fill="midnightblue" stroke="midnightblue" points="181.287,-74.1898 190.764,-69.4529 180.402,-67.246 181.287,-74.1898"/>
</g>
<!-- Node4 -->
<g id="node4" class="node"><title>Node4</title>
<g id="a_node4"><a xlink:href="_i_a_r_2_a_v_r32___u_c3_2port_8c.html#ae003e5aa4c4682b689129c010e7448d7" target="_top" xlink:title="prvScheduleNextTick">
<polygon fill="white" stroke="black" points="306.5,-95.5 306.5,-114.5 417.5,-114.5 417.5,-95.5 306.5,-95.5"/>
<text text-anchor="middle" x="362" y="-102.5" font-family="Helvetica,sans-Serif" font-size="10.00">prvScheduleNextTick</text>
</a>
</g>
</g>
<!-- Node3&#45;&gt;Node4 -->
<g id="edge3" class="edge"><title>Node3&#45;&gt;Node4</title>
<path fill="none" stroke="midnightblue" d="M231.174,-71.89C251.895,-77.1745 285.696,-85.795 313.615,-92.9152"/>
<polygon fill="midnightblue" stroke="midnightblue" points="313.045,-96.3817 323.599,-95.4616 314.774,-89.5988 313.045,-96.3817"/>
</g>
<!-- Node5 -->
<g id="node5" class="node"><title>Node5</title>
<g id="a_node5"><a xlink:href="o_watcom_216_bit_d_o_s_2_flsh186_2portmacro_8h.html#adff63afc268c80ed13a4db7eb576c989" target="_top" xlink:title="portENTER_CRITICAL">
<polygon fill="white" stroke="black" points="302.5,-57.5 302.5,-76.5 421.5,-76.5 421.5,-57.5 302.5,-57.5"/>
<text text-anchor="middle" x="362" y="-64.5" font-family="Helvetica,sans-Serif" font-size="10.00">portENTER_CRITICAL</text>
</a>
</g>
</g>
<!-- Node3&#45;&gt;Node5 -->
<g id="edge4" class="edge"><title>Node3&#45;&gt;Node5</title>
<path fill="none" stroke="midnightblue" d="M231.174,-67C246.783,-67 269.814,-67 292.162,-67"/>
<polygon fill="midnightblue" stroke="midnightblue" points="292.353,-70.5001 302.353,-67 292.353,-63.5001 292.353,-70.5001"/>
</g>
<!-- Node6 -->
<g id="node6" class="node"><title>Node6</title>
<g id="a_node6"><a xlink:href="task_8h.html#a978e25460ac35706f9ad30b46d9403d8" target="_top" xlink:title="xTaskIncrementTick">
<polygon fill="white" stroke="black" points="309,-19.5 309,-38.5 415,-38.5 415,-19.5 309,-19.5"/>
<text text-anchor="middle" x="362" y="-26.5" font-family="Helvetica,sans-Serif" font-size="10.00">xTaskIncrementTick</text>
</a>
</g>
</g>
<!-- Node3&#45;&gt;Node6 -->
<g id="edge5" class="edge"><title>Node3&#45;&gt;Node6</title>
<path fill="none" stroke="midnightblue" d="M231.174,-62.11C251.895,-56.8255 285.696,-48.205 313.615,-41.0848"/>
<polygon fill="midnightblue" stroke="midnightblue" points="314.774,-44.4012 323.599,-38.5384 313.045,-37.6183 314.774,-44.4012"/>
</g>
<!-- Node7 -->
<g id="node7" class="node"><title>Node7</title>
<g id="a_node7"><a xlink:href="list_8h.html#a2eb1558482076fff8cafc63419c2d34a" target="_top" xlink:title="uxListRemove">
<polygon fill="white" stroke="black" points="458,-38.5 458,-57.5 538,-57.5 538,-38.5 458,-38.5"/>
<text text-anchor="middle" x="498" y="-45.5" font-family="Helvetica,sans-Serif" font-size="10.00">uxListRemove</text>
</a>
</g>
</g>
<!-- Node6&#45;&gt;Node7 -->
<g id="edge6" class="edge"><title>Node6&#45;&gt;Node7</title>
<path fill="none" stroke="midnightblue" d="M415.192,-36.4003C425.884,-37.9164 437.106,-39.5075 447.693,-41.0087"/>
<polygon fill="midnightblue" stroke="midnightblue" points="447.218,-44.4763 457.611,-42.4149 448.201,-37.5457 447.218,-44.4763"/>
</g>
<!-- Node8 -->
<g id="node8" class="node"><title>Node8</title>
<g id="a_node8"><a xlink:href="_paradigm_2_tern___e_e_2small_2portmacro_8h.html#a14d32f8130d3c0b212cfc751730b5b49" target="_top" xlink:title="void">
<polygon fill="white" stroke="black" points="480.5,-0.5 480.5,-19.5 515.5,-19.5 515.5,-0.5 480.5,-0.5"/>
<text text-anchor="middle" x="498" y="-7.5" font-family="Helvetica,sans-Serif" font-size="10.00">void</text>
</a>
</g>
</g>
<!-- Node6&#45;&gt;Node8 -->
<g id="edge7" class="edge"><title>Node6&#45;&gt;Node8</title>
<path fill="none" stroke="midnightblue" d="M415.192,-21.5997C434.059,-18.9244 454.576,-16.0153 470.343,-13.7797"/>
<polygon fill="midnightblue" stroke="midnightblue" points="471.012,-17.2199 480.422,-12.3506 470.03,-10.2892 471.012,-17.2199"/>
</g>
</g>
</svg>
