<?xml version="1.0" encoding="UTF-8" standalone="no"?>
<!DOCTYPE svg PUBLIC "-//W3C//DTD SVG 1.1//EN"
 "http://www.w3.org/Graphics/SVG/1.1/DTD/svg11.dtd">
<!-- Generated by graphviz version 2.30.1 (20130221.2233)
 -->
<!-- Title: MPU_xQueueGenericCreate Pages: 1 -->
<svg width="942pt" height="246pt"
 viewBox="0.00 0.00 942.00 246.40" xmlns="http://www.w3.org/2000/svg" xmlns:xlink="http://www.w3.org/1999/xlink">
<g id="graph0" class="graph" transform="scale(1 1) rotate(0) translate(4 242.395)">
<title>MPU_xQueueGenericCreate</title>
<polygon fill="white" stroke="white" points="-4,5 -4,-242.395 939,-242.395 939,5 -4,5"/>
<!-- Node1 -->
<g id="node1" class="node"><title>Node1</title>
<polygon fill="#bfbfbf" stroke="black" points="0,-171.5 0,-190.5 144,-190.5 144,-171.5 0,-171.5"/>
<text text-anchor="middle" x="72" y="-178.5" font-family="Helvetica,sans-Serif" font-size="10.00">MPU_xQueueGenericCreate</text>
</g>
<!-- Node2 -->
<g id="node2" class="node"><title>Node2</title>
<g id="a_node2"><a xlink:href="_g_c_c_2_a_r_m___c_m3___m_p_u_2port_8c.html#ad5691a9d6fd4c0b9f4e55426dd9a48ad" target="_top" xlink:title="prvRaisePrivilege">
<polygon fill="white" stroke="black" points="192,-190.5 192,-209.5 286,-209.5 286,-190.5 192,-190.5"/>
<text text-anchor="middle" x="239" y="-197.5" font-family="Helvetica,sans-Serif" font-size="10.00">prvRaisePrivilege</text>
</a>
</g>
</g>
<!-- Node1&#45;&gt;Node2 -->
<g id="edge1" class="edge"><title>Node1&#45;&gt;Node2</title>
<path fill="none" stroke="midnightblue" d="M144.412,-189.223C156.807,-190.65 169.542,-192.117 181.47,-193.49"/>
<polygon fill="midnightblue" stroke="midnightblue" points="181.381,-197.003 191.716,-194.67 182.182,-190.049 181.381,-197.003"/>
</g>
<!-- Node3 -->
<g id="node3" class="node"><title>Node3</title>
<g id="a_node3"><a xlink:href="queue_8h.html#a74fb40ea6a869143597ca91ce90c99c2" target="_top" xlink:title="xQueueGenericCreate">
<polygon fill="white" stroke="black" points="180.5,-152.5 180.5,-171.5 297.5,-171.5 297.5,-152.5 180.5,-152.5"/>
<text text-anchor="middle" x="239" y="-159.5" font-family="Helvetica,sans-Serif" font-size="10.00">xQueueGenericCreate</text>
</a>
</g>
</g>
<!-- Node1&#45;&gt;Node3 -->
<g id="edge2" class="edge"><title>Node1&#45;&gt;Node3</title>
<path fill="none" stroke="midnightblue" d="M144.412,-172.777C153.051,-171.782 161.855,-170.768 170.436,-169.78"/>
<polygon fill="midnightblue" stroke="midnightblue" points="170.849,-173.256 180.383,-168.635 170.049,-166.302 170.849,-173.256"/>
</g>
<!-- Node4 -->
<g id="node4" class="node"><title>Node4</title>
<g id="a_node4"><a xlink:href="portable_8h.html#a237d63f90b28e0950bd86f76815cd6e3" target="_top" xlink:title="pvPortMalloc">
<polygon fill="white" stroke="black" points="334,-152.5 334,-171.5 408,-171.5 408,-152.5 334,-152.5"/>
<text text-anchor="middle" x="371" y="-159.5" font-family="Helvetica,sans-Serif" font-size="10.00">pvPortMalloc</text>
</a>
</g>
</g>
<!-- Node3&#45;&gt;Node4 -->
<g id="edge3" class="edge"><title>Node3&#45;&gt;Node4</title>
<path fill="none" stroke="midnightblue" d="M297.777,-162C306.359,-162 315.112,-162 323.426,-162"/>
<polygon fill="midnightblue" stroke="midnightblue" points="323.677,-165.5 333.677,-162 323.677,-158.5 323.677,-165.5"/>
</g>
<!-- Node6 -->
<g id="node6" class="node"><title>Node6</title>
<g id="a_node6"><a xlink:href="_paradigm_2_tern___e_e_2small_2portmacro_8h.html#a14d32f8130d3c0b212cfc751730b5b49" target="_top" xlink:title="void">
<polygon fill="white" stroke="black" points="837.5,-171.5 837.5,-190.5 872.5,-190.5 872.5,-171.5 837.5,-171.5"/>
<text text-anchor="middle" x="855" y="-178.5" font-family="Helvetica,sans-Serif" font-size="10.00">void</text>
</a>
</g>
</g>
<!-- Node3&#45;&gt;Node6 -->
<g id="edge13" class="edge"><title>Node3&#45;&gt;Node6</title>
<path fill="none" stroke="midnightblue" d="M269.424,-171.568C317.266,-186.944 409.993,-215.95 444,-221 574.131,-240.326 610.485,-246.099 740,-223 771.292,-217.419 805.247,-203.854 827.887,-193.64"/>
<polygon fill="midnightblue" stroke="midnightblue" points="829.538,-196.732 837.149,-189.362 826.602,-190.377 829.538,-196.732"/>
</g>
<!-- Node11 -->
<g id="node11" class="node"><title>Node11</title>
<g id="a_node11"><a xlink:href="queue_8c.html#a5e54273dbe3f56b8bdc8f7abee67a871" target="_top" xlink:title="xQueueGenericReset">
<polygon fill="white" stroke="black" points="444.5,-57.5 444.5,-76.5 557.5,-76.5 557.5,-57.5 444.5,-57.5"/>
<text text-anchor="middle" x="501" y="-64.5" font-family="Helvetica,sans-Serif" font-size="10.00">xQueueGenericReset</text>
</a>
</g>
</g>
<!-- Node3&#45;&gt;Node11 -->
<g id="edge14" class="edge"><title>Node3&#45;&gt;Node11</title>
<path fill="none" stroke="midnightblue" d="M265.037,-152.401C303.426,-137.744 379.194,-109.06 444,-86 449.701,-83.9715 455.745,-81.87 461.672,-79.8365"/>
<polygon fill="midnightblue" stroke="midnightblue" points="463.118,-83.0415 471.455,-76.5036 460.861,-76.4154 463.118,-83.0415"/>
</g>
<!-- Node5 -->
<g id="node5" class="node"><title>Node5</title>
<g id="a_node5"><a xlink:href="heap__2_8c.html#a3e55181f788f17d9a3e7d226a5206e4f" target="_top" xlink:title="prvHeapInit">
<polygon fill="white" stroke="black" points="467,-133.5 467,-152.5 535,-152.5 535,-133.5 467,-133.5"/>
<text text-anchor="middle" x="501" y="-140.5" font-family="Helvetica,sans-Serif" font-size="10.00">prvHeapInit</text>
</a>
</g>
</g>
<!-- Node4&#45;&gt;Node5 -->
<g id="edge4" class="edge"><title>Node4&#45;&gt;Node5</title>
<path fill="none" stroke="midnightblue" d="M408.337,-156.606C423.374,-154.374 440.932,-151.768 456.635,-149.437"/>
<polygon fill="midnightblue" stroke="midnightblue" points="457.263,-152.882 466.641,-147.952 456.236,-145.958 457.263,-152.882"/>
</g>
<!-- Node4&#45;&gt;Node6 -->
<g id="edge5" class="edge"><title>Node4&#45;&gt;Node6</title>
<path fill="none" stroke="midnightblue" d="M385.261,-171.555C399.129,-180.909 421.912,-194.529 444,-200 584.866,-234.892 761.091,-202.242 827.26,-187.433"/>
<polygon fill="midnightblue" stroke="midnightblue" points="828.297,-190.786 837.262,-185.14 826.733,-183.963 828.297,-190.786"/>
</g>
<!-- Node7 -->
<g id="node7" class="node"><title>Node7</title>
<g id="a_node7"><a xlink:href="task_8h.html#a366b302eba79d10b5ee2a3756f0fcc43" target="_top" xlink:title="vTaskSuspendAll">
<polygon fill="white" stroke="black" points="454,-171.5 454,-190.5 548,-190.5 548,-171.5 454,-171.5"/>
<text text-anchor="middle" x="501" y="-178.5" font-family="Helvetica,sans-Serif" font-size="10.00">vTaskSuspendAll</text>
</a>
</g>
</g>
<!-- Node4&#45;&gt;Node7 -->
<g id="edge6" class="edge"><title>Node4&#45;&gt;Node7</title>
<path fill="none" stroke="midnightblue" d="M408.337,-167.394C419.424,-169.039 431.882,-170.889 443.956,-172.681"/>
<polygon fill="midnightblue" stroke="midnightblue" points="443.564,-176.161 453.97,-174.167 444.592,-169.237 443.564,-176.161"/>
</g>
<!-- Node8 -->
<g id="node8" class="node"><title>Node8</title>
<g id="a_node8"><a xlink:href="task_8h.html#a003f8ae6d649225abd030cc76e1c7d0e" target="_top" xlink:title="xTaskResumeAll">
<polygon fill="white" stroke="black" points="455,-95.5 455,-114.5 547,-114.5 547,-95.5 455,-95.5"/>
<text text-anchor="middle" x="501" y="-102.5" font-family="Helvetica,sans-Serif" font-size="10.00">xTaskResumeAll</text>
</a>
</g>
</g>
<!-- Node4&#45;&gt;Node8 -->
<g id="edge7" class="edge"><title>Node4&#45;&gt;Node8</title>
<path fill="none" stroke="midnightblue" d="M388.223,-152.486C402.583,-144.296 424.266,-132.492 444,-124 448.827,-121.923 453.963,-119.917 459.091,-118.036"/>
<polygon fill="midnightblue" stroke="midnightblue" points="460.594,-121.217 468.859,-114.589 458.264,-114.616 460.594,-121.217"/>
</g>
<!-- Node9 -->
<g id="node9" class="node"><title>Node9</title>
<g id="a_node9"><a xlink:href="list_8h.html#a2eb1558482076fff8cafc63419c2d34a" target="_top" xlink:title="uxListRemove">
<polygon fill="white" stroke="black" points="815,-95.5 815,-114.5 895,-114.5 895,-95.5 815,-95.5"/>
<text text-anchor="middle" x="855" y="-102.5" font-family="Helvetica,sans-Serif" font-size="10.00">uxListRemove</text>
</a>
</g>
</g>
<!-- Node8&#45;&gt;Node9 -->
<g id="edge8" class="edge"><title>Node8&#45;&gt;Node9</title>
<path fill="none" stroke="midnightblue" d="M547.297,-105C613.528,-105 736.332,-105 804.74,-105"/>
<polygon fill="midnightblue" stroke="midnightblue" points="804.83,-108.5 814.83,-105 804.83,-101.5 804.83,-108.5"/>
</g>
<!-- Node8&#45;&gt;Node6 -->
<g id="edge9" class="edge"><title>Node8&#45;&gt;Node6</title>
<path fill="none" stroke="midnightblue" d="M538.735,-114.598C545.415,-117.128 552.122,-120.234 558,-124 577.589,-136.55 572.978,-152.034 594,-162 672.133,-199.04 778.453,-191.377 827.373,-185.104"/>
<polygon fill="midnightblue" stroke="midnightblue" points="828.017,-188.549 837.45,-183.725 827.068,-181.613 828.017,-188.549"/>
</g>
<!-- Node10 -->
<g id="node10" class="node"><title>Node10</title>
<g id="a_node10"><a xlink:href="tasks_8c.html#a54f31e9aef0eb7b87e48c7d68ecc84c1" target="_top" xlink:title="xTaskIncrementTick">
<polygon fill="white" stroke="black" points="614,-133.5 614,-152.5 720,-152.5 720,-133.5 614,-133.5"/>
<text text-anchor="middle" x="667" y="-140.5" font-family="Helvetica,sans-Serif" font-size="10.00">xTaskIncrementTick</text>
</a>
</g>
</g>
<!-- Node8&#45;&gt;Node10 -->
<g id="edge10" class="edge"><title>Node8&#45;&gt;Node10</title>
<path fill="none" stroke="midnightblue" d="M543.384,-114.589C565.123,-119.626 591.957,-125.844 614.975,-131.177"/>
<polygon fill="midnightblue" stroke="midnightblue" points="614.381,-134.632 624.913,-133.48 615.962,-127.813 614.381,-134.632"/>
</g>
<!-- Node10&#45;&gt;Node6 -->
<g id="edge11" class="edge"><title>Node10&#45;&gt;Node6</title>
<path fill="none" stroke="midnightblue" d="M714.936,-152.589C750.591,-159.873 798.332,-169.627 827.588,-175.604"/>
<polygon fill="midnightblue" stroke="midnightblue" points="826.975,-179.051 837.473,-177.624 828.376,-172.193 826.975,-179.051"/>
</g>
<!-- Node10&#45;&gt;Node9 -->
<g id="edge12" class="edge"><title>Node10&#45;&gt;Node9</title>
<path fill="none" stroke="midnightblue" d="M714.936,-133.411C742.444,-127.791 777.146,-120.701 805.003,-115.01"/>
<polygon fill="midnightblue" stroke="midnightblue" points="805.833,-118.413 814.93,-112.982 804.432,-111.555 805.833,-118.413"/>
</g>
<!-- Node12 -->
<g id="node12" class="node"><title>Node12</title>
<g id="a_node12"><a xlink:href="task_8h.html#a14513b7dd36055f73fba3c5ebbdc1b06" target="_top" xlink:title="xTaskRemoveFromEventList">
<polygon fill="white" stroke="black" points="594.5,-19.5 594.5,-38.5 739.5,-38.5 739.5,-19.5 594.5,-19.5"/>
<text text-anchor="middle" x="667" y="-26.5" font-family="Helvetica,sans-Serif" font-size="10.00">xTaskRemoveFromEventList</text>
</a>
</g>
</g>
<!-- Node11&#45;&gt;Node12 -->
<g id="edge15" class="edge"><title>Node11&#45;&gt;Node12</title>
<path fill="none" stroke="midnightblue" d="M543.384,-57.411C565.123,-52.3739 591.957,-46.1562 614.975,-40.8229"/>
<polygon fill="midnightblue" stroke="midnightblue" points="615.962,-44.1871 624.913,-38.5201 614.381,-37.3677 615.962,-44.1871"/>
</g>
<!-- Node15 -->
<g id="node15" class="node"><title>Node15</title>
<g id="a_node15"><a xlink:href="list_8h.html#adeef7734d7d6d9a3eea642a70c106919" target="_top" xlink:title="vListInitialise">
<polygon fill="white" stroke="black" points="630.5,-57.5 630.5,-76.5 703.5,-76.5 703.5,-57.5 630.5,-57.5"/>
<text text-anchor="middle" x="667" y="-64.5" font-family="Helvetica,sans-Serif" font-size="10.00">vListInitialise</text>
</a>
</g>
</g>
<!-- Node11&#45;&gt;Node15 -->
<g id="edge20" class="edge"><title>Node11&#45;&gt;Node15</title>
<path fill="none" stroke="midnightblue" d="M557.523,-67C577.845,-67 600.598,-67 619.997,-67"/>
<polygon fill="midnightblue" stroke="midnightblue" points="620.098,-70.5001 630.098,-67 620.098,-63.5001 620.098,-70.5001"/>
</g>
<!-- Node13 -->
<g id="node13" class="node"><title>Node13</title>
<g id="a_node13"><a xlink:href="tasks_8c.html#ad1b2e4995f863a99cf980836efe330d7" target="_top" xlink:title="prvResetNextTaskUnblockTime">
<polygon fill="white" stroke="black" points="776.5,-38.5 776.5,-57.5 933.5,-57.5 933.5,-38.5 776.5,-38.5"/>
<text text-anchor="middle" x="855" y="-45.5" font-family="Helvetica,sans-Serif" font-size="10.00">prvResetNextTaskUnblockTime</text>
</a>
</g>
</g>
<!-- Node12&#45;&gt;Node13 -->
<g id="edge16" class="edge"><title>Node12&#45;&gt;Node13</title>
<path fill="none" stroke="midnightblue" d="M739.646,-36.3187C748.346,-37.2074 757.309,-38.123 766.208,-39.032"/>
<polygon fill="midnightblue" stroke="midnightblue" points="765.907,-42.5194 776.211,-40.0538 766.619,-35.5556 765.907,-42.5194"/>
</g>
<!-- Node12&#45;&gt;Node9 -->
<g id="edge17" class="edge"><title>Node12&#45;&gt;Node9</title>
<path fill="none" stroke="midnightblue" d="M710.774,-38.5728C720.517,-41.2236 730.726,-44.3835 740,-48 756.855,-54.5728 759.866,-58.8149 776,-67 792.089,-75.162 810.195,-84.004 824.911,-91.1035"/>
<polygon fill="midnightblue" stroke="midnightblue" points="823.507,-94.312 834.036,-95.4925 826.541,-88.0038 823.507,-94.312"/>
</g>
<!-- Node14 -->
<g id="node14" class="node"><title>Node14</title>
<g id="a_node14"><a xlink:href="list_8h.html#a71a6a6099b3cbd8f90539aabe5c9e572" target="_top" xlink:title="vListInsertEnd">
<polygon fill="white" stroke="black" points="815,-0.5 815,-19.5 895,-19.5 895,-0.5 815,-0.5"/>
<text text-anchor="middle" x="855" y="-7.5" font-family="Helvetica,sans-Serif" font-size="10.00">vListInsertEnd</text>
</a>
</g>
</g>
<!-- Node12&#45;&gt;Node14 -->
<g id="edge18" class="edge"><title>Node12&#45;&gt;Node14</title>
<path fill="none" stroke="midnightblue" d="M739.646,-21.6813C761.433,-19.4558 784.873,-17.0614 804.824,-15.0234"/>
<polygon fill="midnightblue" stroke="midnightblue" points="805.319,-18.4911 814.912,-13.9929 804.608,-11.5273 805.319,-18.4911"/>
</g>
<!-- Node12&#45;&gt;Node6 -->
<g id="edge19" class="edge"><title>Node12&#45;&gt;Node6</title>
<path fill="none" stroke="midnightblue" d="M724.265,-38.5502C729.942,-41.0198 735.326,-44.1173 740,-48 768.749,-71.8835 752.179,-95.1991 776,-124 790.702,-141.775 812.119,-156.903 828.793,-167.097"/>
<polygon fill="midnightblue" stroke="midnightblue" points="827.106,-170.165 837.496,-172.239 830.667,-164.139 827.106,-170.165"/>
</g>
</g>
</svg>
