<?xml version="1.0" encoding="UTF-8" standalone="no"?>
<!DOCTYPE svg PUBLIC "-//W3C//DTD SVG 1.1//EN"
 "http://www.w3.org/Graphics/SVG/1.1/DTD/svg11.dtd">
<!-- Generated by graphviz version 2.30.1 (20130221.2233)
 -->
<!-- Title: interrupt7_handler Pages: 1 -->
<svg width="538pt" height="123pt"
 viewBox="0.00 0.00 538.00 123.00" xmlns="http://www.w3.org/2000/svg" xmlns:xlink="http://www.w3.org/1999/xlink">
<g id="graph0" class="graph" transform="scale(1 1) rotate(0) translate(4 119)">
<title>interrupt7_handler</title>
<polygon fill="white" stroke="white" points="-4,5 -4,-119 535,-119 535,5 -4,5"/>
<!-- Node1 -->
<g id="node1" class="node"><title>Node1</title>
<polygon fill="#bfbfbf" stroke="black" points="0,-57.5 0,-76.5 98,-76.5 98,-57.5 0,-57.5"/>
<text text-anchor="middle" x="49" y="-64.5" font-family="Helvetica,sans-Serif" font-size="10.00">interrupt7_handler</text>
</g>
<!-- Node2 -->
<g id="node2" class="node"><title>Node2</title>
<g id="a_node2"><a xlink:href="_i_a_r_2_v850_e_s_2portmacro_8h.html#a716d176e9130fa97ac875a31e7453605" target="_top" xlink:title="portRESTORE_CONTEXT">
<polygon fill="white" stroke="black" points="134.5,-95.5 134.5,-114.5 269.5,-114.5 269.5,-95.5 134.5,-95.5"/>
<text text-anchor="middle" x="202" y="-102.5" font-family="Helvetica,sans-Serif" font-size="10.00">portRESTORE_CONTEXT</text>
</a>
</g>
</g>
<!-- Node1&#45;&gt;Node2 -->
<g id="edge1" class="edge"><title>Node1&#45;&gt;Node2</title>
<path fill="none" stroke="midnightblue" d="M88.1037,-76.589C107.94,-81.5809 132.384,-87.7324 153.448,-93.0334"/>
<polygon fill="midnightblue" stroke="midnightblue" points="152.618,-96.4336 163.17,-95.4799 154.327,-89.6452 152.618,-96.4336"/>
</g>
<!-- Node3 -->
<g id="node3" class="node"><title>Node3</title>
<g id="a_node3"><a xlink:href="_i_a_r_2_v850_e_s_2portmacro_8h.html#ad79a8b96e1489f7f0645e8d57360337d" target="_top" xlink:title="portSAVE_CONTEXT">
<polygon fill="white" stroke="black" points="145,-57.5 145,-76.5 259,-76.5 259,-57.5 145,-57.5"/>
<text text-anchor="middle" x="202" y="-64.5" font-family="Helvetica,sans-Serif" font-size="10.00">portSAVE_CONTEXT</text>
</a>
</g>
</g>
<!-- Node1&#45;&gt;Node3 -->
<g id="edge2" class="edge"><title>Node1&#45;&gt;Node3</title>
<path fill="none" stroke="midnightblue" d="M98.1925,-67C109.791,-67 122.382,-67 134.647,-67"/>
<polygon fill="midnightblue" stroke="midnightblue" points="134.844,-70.5001 144.844,-67 134.844,-63.5001 134.844,-70.5001"/>
</g>
<!-- Node4 -->
<g id="node4" class="node"><title>Node4</title>
<g id="a_node4"><a xlink:href="_g_c_c_2_c_o_r_t_u_s___a_p_s3_2port_8c.html#aa0ae742a01361a946aea2acb64fb924b" target="_top" xlink:title="prvProcessTick">
<polygon fill="white" stroke="black" points="159.5,-19.5 159.5,-38.5 244.5,-38.5 244.5,-19.5 159.5,-19.5"/>
<text text-anchor="middle" x="202" y="-26.5" font-family="Helvetica,sans-Serif" font-size="10.00">prvProcessTick</text>
</a>
</g>
</g>
<!-- Node1&#45;&gt;Node4 -->
<g id="edge3" class="edge"><title>Node1&#45;&gt;Node4</title>
<path fill="none" stroke="midnightblue" d="M88.1037,-57.411C107.94,-52.4191 132.384,-46.2676 153.448,-40.9666"/>
<polygon fill="midnightblue" stroke="midnightblue" points="154.327,-44.3548 163.17,-38.5201 152.618,-37.5664 154.327,-44.3548"/>
</g>
<!-- Node5 -->
<g id="node5" class="node"><title>Node5</title>
<g id="a_node5"><a xlink:href="task_8h.html#a978e25460ac35706f9ad30b46d9403d8" target="_top" xlink:title="xTaskIncrementTick">
<polygon fill="white" stroke="black" points="307,-38.5 307,-57.5 413,-57.5 413,-38.5 307,-38.5"/>
<text text-anchor="middle" x="360" y="-45.5" font-family="Helvetica,sans-Serif" font-size="10.00">xTaskIncrementTick</text>
</a>
</g>
</g>
<!-- Node4&#45;&gt;Node5 -->
<g id="edge4" class="edge"><title>Node4&#45;&gt;Node5</title>
<path fill="none" stroke="midnightblue" d="M244.805,-34.0917C260.724,-36.0305 279.227,-38.2841 296.645,-40.4055"/>
<polygon fill="midnightblue" stroke="midnightblue" points="296.398,-43.9011 306.748,-41.6359 297.244,-36.9525 296.398,-43.9011"/>
</g>
<!-- Node8 -->
<g id="node8" class="node"><title>Node8</title>
<g id="a_node8"><a xlink:href="_renesas_2_r_x100_2port_8c.html#a9c86137bc3c1cbffc39fff22627cb885" target="_top" xlink:title="vTaskSwitchContext">
<polygon fill="white" stroke="black" points="306.5,-0.5 306.5,-19.5 413.5,-19.5 413.5,-0.5 306.5,-0.5"/>
<text text-anchor="middle" x="360" y="-7.5" font-family="Helvetica,sans-Serif" font-size="10.00">vTaskSwitchContext</text>
</a>
</g>
</g>
<!-- Node4&#45;&gt;Node8 -->
<g id="edge7" class="edge"><title>Node4&#45;&gt;Node8</title>
<path fill="none" stroke="midnightblue" d="M244.805,-23.9083C260.649,-21.9787 279.052,-19.7372 296.398,-17.6247"/>
<polygon fill="midnightblue" stroke="midnightblue" points="296.957,-21.0824 306.461,-16.399 296.111,-14.1338 296.957,-21.0824"/>
</g>
<!-- Node6 -->
<g id="node6" class="node"><title>Node6</title>
<g id="a_node6"><a xlink:href="list_8h.html#a2eb1558482076fff8cafc63419c2d34a" target="_top" xlink:title="uxListRemove">
<polygon fill="white" stroke="black" points="450,-57.5 450,-76.5 530,-76.5 530,-57.5 450,-57.5"/>
<text text-anchor="middle" x="490" y="-64.5" font-family="Helvetica,sans-Serif" font-size="10.00">uxListRemove</text>
</a>
</g>
</g>
<!-- Node5&#45;&gt;Node6 -->
<g id="edge5" class="edge"><title>Node5&#45;&gt;Node6</title>
<path fill="none" stroke="midnightblue" d="M413.062,-55.728C421.918,-57.0424 431.089,-58.4038 439.865,-59.7065"/>
<polygon fill="midnightblue" stroke="midnightblue" points="439.538,-63.1963 449.944,-61.2026 440.566,-56.2722 439.538,-63.1963"/>
</g>
<!-- Node7 -->
<g id="node7" class="node"><title>Node7</title>
<g id="a_node7"><a xlink:href="_paradigm_2_tern___e_e_2small_2portmacro_8h.html#a14d32f8130d3c0b212cfc751730b5b49" target="_top" xlink:title="void">
<polygon fill="white" stroke="black" points="472.5,-19.5 472.5,-38.5 507.5,-38.5 507.5,-19.5 472.5,-19.5"/>
<text text-anchor="middle" x="490" y="-26.5" font-family="Helvetica,sans-Serif" font-size="10.00">void</text>
</a>
</g>
</g>
<!-- Node5&#45;&gt;Node7 -->
<g id="edge6" class="edge"><title>Node5&#45;&gt;Node7</title>
<path fill="none" stroke="midnightblue" d="M413.062,-40.272C429.94,-37.7667 447.966,-35.0911 462.218,-32.9755"/>
<polygon fill="midnightblue" stroke="midnightblue" points="462.921,-36.4095 472.299,-31.479 461.894,-29.4853 462.921,-36.4095"/>
</g>
</g>
</svg>
