<?xml version="1.0" encoding="UTF-8" standalone="no"?>
<!DOCTYPE svg PUBLIC "-//W3C//DTD SVG 1.1//EN"
 "http://www.w3.org/Graphics/SVG/1.1/DTD/svg11.dtd">
<!-- Generated by graphviz version 2.30.1 (20130221.2233)
 -->
<!-- Title: xPortStartScheduler Pages: 1 -->
<svg width="270pt" height="66pt"
 viewBox="0.00 0.00 270.00 66.00" xmlns="http://www.w3.org/2000/svg" xmlns:xlink="http://www.w3.org/1999/xlink">
<g id="graph0" class="graph" transform="scale(1 1) rotate(0) translate(4 62)">
<title>xPortStartScheduler</title>
<polygon fill="white" stroke="white" points="-4,5 -4,-62 267,-62 267,5 -4,5"/>
<!-- Node1 -->
<g id="node1" class="node"><title>Node1</title>
<polygon fill="#bfbfbf" stroke="black" points="0,-19.5 0,-38.5 106,-38.5 106,-19.5 0,-19.5"/>
<text text-anchor="middle" x="53" y="-26.5" font-family="Helvetica,sans-Serif" font-size="10.00">xPortStartScheduler</text>
</g>
<!-- Node2 -->
<g id="node2" class="node"><title>Node2</title>
<g id="a_node2"><a xlink:href="_i_a_r_2_a_t_mega323_2port_8c.html#aeb91268bfbb6dc04ff839631ee5c72ba" target="_top" xlink:title="prvSetupTimerInterrupt">
<polygon fill="white" stroke="black" points="142.5,-38.5 142.5,-57.5 261.5,-57.5 261.5,-38.5 142.5,-38.5"/>
<text text-anchor="middle" x="202" y="-45.5" font-family="Helvetica,sans-Serif" font-size="10.00">prvSetupTimerInterrupt</text>
</a>
</g>
</g>
<!-- Node1&#45;&gt;Node2 -->
<g id="edge1" class="edge"><title>Node1&#45;&gt;Node2</title>
<path fill="none" stroke="midnightblue" d="M106.241,-35.7522C114.663,-36.8408 123.493,-37.9821 132.234,-39.1118"/>
<polygon fill="midnightblue" stroke="midnightblue" points="132.057,-42.618 142.423,-40.4288 132.954,-35.6758 132.057,-42.618"/>
</g>
<!-- Node3 -->
<g id="node3" class="node"><title>Node3</title>
<g id="a_node3"><a xlink:href="_i_a_r_2_a_t_mega323_2port_8c.html#a97998187984cbffc1cbeef4d67622ab6" target="_top" xlink:title="vPortStart">
<polygon fill="white" stroke="black" points="171.5,-0.5 171.5,-19.5 232.5,-19.5 232.5,-0.5 171.5,-0.5"/>
<text text-anchor="middle" x="202" y="-7.5" font-family="Helvetica,sans-Serif" font-size="10.00">vPortStart</text>
</a>
</g>
</g>
<!-- Node1&#45;&gt;Node3 -->
<g id="edge2" class="edge"><title>Node1&#45;&gt;Node3</title>
<path fill="none" stroke="midnightblue" d="M106.241,-22.2478C124.282,-19.9159 144.194,-17.3423 161.089,-15.1586"/>
<polygon fill="midnightblue" stroke="midnightblue" points="161.706,-18.608 171.175,-13.8549 160.809,-11.6658 161.706,-18.608"/>
</g>
</g>
</svg>
