<?xml version="1.0" encoding="UTF-8" standalone="no"?>
<!DOCTYPE svg PUBLIC "-//W3C//DTD SVG 1.1//EN"
 "http://www.w3.org/Graphics/SVG/1.1/DTD/svg11.dtd">
<!-- Generated by graphviz version 2.30.1 (20130221.2233)
 -->
<!-- Title: vPortTickISR Pages: 1 -->
<svg width="344pt" height="85pt"
 viewBox="0.00 0.00 344.00 85.00" xmlns="http://www.w3.org/2000/svg" xmlns:xlink="http://www.w3.org/1999/xlink">
<g id="graph0" class="graph" transform="scale(1 1) rotate(0) translate(4 81)">
<title>vPortTickISR</title>
<polygon fill="white" stroke="white" points="-4,5 -4,-81 341,-81 341,5 -4,5"/>
<!-- Node1 -->
<g id="node1" class="node"><title>Node1</title>
<polygon fill="#bfbfbf" stroke="black" points="0.5,-38.5 0.5,-57.5 75.5,-57.5 75.5,-38.5 0.5,-38.5"/>
<text text-anchor="middle" x="38" y="-45.5" font-family="Helvetica,sans-Serif" font-size="10.00">vPortTickISR</text>
</g>
<!-- Node2 -->
<g id="node2" class="node"><title>Node2</title>
<g id="a_node2"><a xlink:href="_paradigm_2_tern___e_e_2small_2portmacro_8h.html#a14d32f8130d3c0b212cfc751730b5b49" target="_top" xlink:title="void">
<polygon fill="white" stroke="black" points="278.5,-57.5 278.5,-76.5 313.5,-76.5 313.5,-57.5 278.5,-57.5"/>
<text text-anchor="middle" x="296" y="-64.5" font-family="Helvetica,sans-Serif" font-size="10.00">void</text>
</a>
</g>
</g>
<!-- Node1&#45;&gt;Node2 -->
<g id="edge1" class="edge"><title>Node1&#45;&gt;Node2</title>
<path fill="none" stroke="midnightblue" d="M68.4983,-57.5042C81.6601,-61.2682 97.4514,-65.1377 112,-67 167.119,-74.0555 232.345,-71.47 268.137,-69.124"/>
<polygon fill="midnightblue" stroke="midnightblue" points="268.526,-72.6054 278.257,-68.4145 268.036,-65.6225 268.526,-72.6054"/>
</g>
<!-- Node3 -->
<g id="node3" class="node"><title>Node3</title>
<g id="a_node3"><a xlink:href="_renesas_2_r_x100_2port_8c.html#a9c86137bc3c1cbffc39fff22627cb885" target="_top" xlink:title="vTaskSwitchContext">
<polygon fill="white" stroke="black" points="112.5,-38.5 112.5,-57.5 219.5,-57.5 219.5,-38.5 112.5,-38.5"/>
<text text-anchor="middle" x="166" y="-45.5" font-family="Helvetica,sans-Serif" font-size="10.00">vTaskSwitchContext</text>
</a>
</g>
</g>
<!-- Node1&#45;&gt;Node3 -->
<g id="edge2" class="edge"><title>Node1&#45;&gt;Node3</title>
<path fill="none" stroke="midnightblue" d="M75.7831,-48C84.1217,-48 93.2062,-48 102.283,-48"/>
<polygon fill="midnightblue" stroke="midnightblue" points="102.487,-51.5001 112.487,-48 102.487,-44.5001 102.487,-51.5001"/>
</g>
<!-- Node4 -->
<g id="node4" class="node"><title>Node4</title>
<g id="a_node4"><a xlink:href="task_8h.html#a978e25460ac35706f9ad30b46d9403d8" target="_top" xlink:title="xTaskIncrementTick">
<polygon fill="white" stroke="black" points="113,-0.5 113,-19.5 219,-19.5 219,-0.5 113,-0.5"/>
<text text-anchor="middle" x="166" y="-7.5" font-family="Helvetica,sans-Serif" font-size="10.00">xTaskIncrementTick</text>
</a>
</g>
</g>
<!-- Node1&#45;&gt;Node4 -->
<g id="edge3" class="edge"><title>Node1&#45;&gt;Node4</title>
<path fill="none" stroke="midnightblue" d="M70.7951,-38.411C86.7621,-33.5956 106.307,-27.7012 123.447,-22.532"/>
<polygon fill="midnightblue" stroke="midnightblue" points="124.652,-25.8244 133.215,-19.5859 122.63,-19.1225 124.652,-25.8244"/>
</g>
<!-- Node5 -->
<g id="node5" class="node"><title>Node5</title>
<g id="a_node5"><a xlink:href="list_8h.html#a2eb1558482076fff8cafc63419c2d34a" target="_top" xlink:title="uxListRemove">
<polygon fill="white" stroke="black" points="256,-0.5 256,-19.5 336,-19.5 336,-0.5 256,-0.5"/>
<text text-anchor="middle" x="296" y="-7.5" font-family="Helvetica,sans-Serif" font-size="10.00">uxListRemove</text>
</a>
</g>
</g>
<!-- Node4&#45;&gt;Node5 -->
<g id="edge4" class="edge"><title>Node4&#45;&gt;Node5</title>
<path fill="none" stroke="midnightblue" d="M219.062,-10C227.918,-10 237.089,-10 245.865,-10"/>
<polygon fill="midnightblue" stroke="midnightblue" points="245.944,-13.5001 255.944,-10 245.944,-6.5001 245.944,-13.5001"/>
</g>
<!-- Node4&#45;&gt;Node2 -->
<g id="edge5" class="edge"><title>Node4&#45;&gt;Node2</title>
<path fill="none" stroke="midnightblue" d="M195.585,-19.5112C203.566,-22.3651 212.189,-25.6368 220,-29 236.666,-36.1763 254.832,-45.3435 269.11,-52.876"/>
<polygon fill="midnightblue" stroke="midnightblue" points="267.838,-56.1643 278.308,-57.785 271.134,-49.9887 267.838,-56.1643"/>
</g>
</g>
</svg>
