<?xml version="1.0" encoding="UTF-8" standalone="no"?>
<!DOCTYPE svg PUBLIC "-//W3C//DTD SVG 1.1//EN"
 "http://www.w3.org/Graphics/SVG/1.1/DTD/svg11.dtd">
<!-- Generated by graphviz version 2.30.1 (20130221.2233)
 -->
<!-- Title: vTick Pages: 1 -->
<svg width="320pt" height="123pt"
 viewBox="0.00 0.00 320.00 123.00" xmlns="http://www.w3.org/2000/svg" xmlns:xlink="http://www.w3.org/1999/xlink">
<g id="graph0" class="graph" transform="scale(1 1) rotate(0) translate(4 119)">
<title>vTick</title>
<polygon fill="white" stroke="white" points="-4,5 -4,-119 317,-119 317,5 -4,5"/>
<!-- Node1 -->
<g id="node1" class="node"><title>Node1</title>
<polygon fill="#bfbfbf" stroke="black" points="0,-57.5 0,-76.5 40,-76.5 40,-57.5 0,-57.5"/>
<text text-anchor="middle" x="20" y="-64.5" font-family="Helvetica,sans-Serif" font-size="10.00">vTick</text>
</g>
<!-- Node2 -->
<g id="node2" class="node"><title>Node2</title>
<g id="a_node2"><a xlink:href="o_watcom_216_bit_d_o_s_2_flsh186_2portmacro_8h.html#adff63afc268c80ed13a4db7eb576c989" target="_top" xlink:title="portENTER_CRITICAL">
<polygon fill="white" stroke="black" points="76.5,-95.5 76.5,-114.5 195.5,-114.5 195.5,-95.5 76.5,-95.5"/>
<text text-anchor="middle" x="136" y="-102.5" font-family="Helvetica,sans-Serif" font-size="10.00">portENTER_CRITICAL</text>
</a>
</g>
</g>
<!-- Node1&#45;&gt;Node2 -->
<g id="edge1" class="edge"><title>Node1&#45;&gt;Node2</title>
<path fill="none" stroke="midnightblue" d="M40.0567,-73.6938C50.6277,-77.3791 64.0215,-82.0027 76,-86 82.1629,-88.0566 88.7005,-90.1999 95.0933,-92.2747"/>
<polygon fill="midnightblue" stroke="midnightblue" points="94.3535,-95.7137 104.945,-95.4563 96.5047,-89.0524 94.3535,-95.7137"/>
</g>
<!-- Node3 -->
<g id="node3" class="node"><title>Node3</title>
<g id="a_node3"><a xlink:href="_i_a_r_2_a_v_r32___u_c3_2port_8c.html#ae003e5aa4c4682b689129c010e7448d7" target="_top" xlink:title="prvScheduleNextTick">
<polygon fill="white" stroke="black" points="80.5,-57.5 80.5,-76.5 191.5,-76.5 191.5,-57.5 80.5,-57.5"/>
<text text-anchor="middle" x="136" y="-64.5" font-family="Helvetica,sans-Serif" font-size="10.00">prvScheduleNextTick</text>
</a>
</g>
</g>
<!-- Node1&#45;&gt;Node3 -->
<g id="edge2" class="edge"><title>Node1&#45;&gt;Node3</title>
<path fill="none" stroke="midnightblue" d="M40.081,-67C48.6221,-67 59.2421,-67 70.2551,-67"/>
<polygon fill="midnightblue" stroke="midnightblue" points="70.4312,-70.5001 80.4312,-67 70.4311,-63.5001 70.4312,-70.5001"/>
</g>
<!-- Node4 -->
<g id="node4" class="node"><title>Node4</title>
<g id="a_node4"><a xlink:href="task_8h.html#a978e25460ac35706f9ad30b46d9403d8" target="_top" xlink:title="xTaskIncrementTick">
<polygon fill="white" stroke="black" points="83,-19.5 83,-38.5 189,-38.5 189,-19.5 83,-19.5"/>
<text text-anchor="middle" x="136" y="-26.5" font-family="Helvetica,sans-Serif" font-size="10.00">xTaskIncrementTick</text>
</a>
</g>
</g>
<!-- Node1&#45;&gt;Node4 -->
<g id="edge3" class="edge"><title>Node1&#45;&gt;Node4</title>
<path fill="none" stroke="midnightblue" d="M40.0567,-60.3062C50.6277,-56.6209 64.0215,-51.9973 76,-48 82.1629,-45.9434 88.7005,-43.8001 95.0933,-41.7253"/>
<polygon fill="midnightblue" stroke="midnightblue" points="96.5047,-44.9476 104.945,-38.5437 94.3535,-38.2863 96.5047,-44.9476"/>
</g>
<!-- Node5 -->
<g id="node5" class="node"><title>Node5</title>
<g id="a_node5"><a xlink:href="list_8h.html#a2eb1558482076fff8cafc63419c2d34a" target="_top" xlink:title="uxListRemove">
<polygon fill="white" stroke="black" points="232,-38.5 232,-57.5 312,-57.5 312,-38.5 232,-38.5"/>
<text text-anchor="middle" x="272" y="-45.5" font-family="Helvetica,sans-Serif" font-size="10.00">uxListRemove</text>
</a>
</g>
</g>
<!-- Node4&#45;&gt;Node5 -->
<g id="edge4" class="edge"><title>Node4&#45;&gt;Node5</title>
<path fill="none" stroke="midnightblue" d="M189.192,-36.4003C199.884,-37.9164 211.106,-39.5075 221.693,-41.0087"/>
<polygon fill="midnightblue" stroke="midnightblue" points="221.218,-44.4763 231.611,-42.4149 222.201,-37.5457 221.218,-44.4763"/>
</g>
<!-- Node6 -->
<g id="node6" class="node"><title>Node6</title>
<g id="a_node6"><a xlink:href="_paradigm_2_tern___e_e_2small_2portmacro_8h.html#a14d32f8130d3c0b212cfc751730b5b49" target="_top" xlink:title="void">
<polygon fill="white" stroke="black" points="254.5,-0.5 254.5,-19.5 289.5,-19.5 289.5,-0.5 254.5,-0.5"/>
<text text-anchor="middle" x="272" y="-7.5" font-family="Helvetica,sans-Serif" font-size="10.00">void</text>
</a>
</g>
</g>
<!-- Node4&#45;&gt;Node6 -->
<g id="edge5" class="edge"><title>Node4&#45;&gt;Node6</title>
<path fill="none" stroke="midnightblue" d="M189.192,-21.5997C208.059,-18.9244 228.576,-16.0153 244.343,-13.7797"/>
<polygon fill="midnightblue" stroke="midnightblue" points="245.012,-17.2199 254.422,-12.3506 244.03,-10.2892 245.012,-17.2199"/>
</g>
</g>
</svg>
