<?xml version="1.0" encoding="UTF-8" standalone="no"?>
<!DOCTYPE svg PUBLIC "-//W3C//DTD SVG 1.1//EN"
 "http://www.w3.org/Graphics/SVG/1.1/DTD/svg11.dtd">
<!-- Generated by graphviz version 2.30.1 (20130221.2233)
 -->
<!-- Title: portSAVE_CONTEXT Pages: 1 -->
<svg width="408pt" height="256pt"
 viewBox="0.00 0.00 408.00 256.00" xmlns="http://www.w3.org/2000/svg" xmlns:xlink="http://www.w3.org/1999/xlink">
<g id="graph0" class="graph" transform="scale(1 1) rotate(0) translate(4 252)">
<title>portSAVE_CONTEXT</title>
<polygon fill="white" stroke="white" points="-4,5 -4,-252 405,-252 405,5 -4,5"/>
<!-- Node1 -->
<g id="node1" class="node"><title>Node1</title>
<polygon fill="#bfbfbf" stroke="black" points="0,-114.5 0,-133.5 114,-133.5 114,-114.5 0,-114.5"/>
<text text-anchor="middle" x="57" y="-121.5" font-family="Helvetica,sans-Serif" font-size="10.00">portSAVE_CONTEXT</text>
</g>
<!-- Node2 -->
<g id="node2" class="node"><title>Node2</title>
<g id="a_node2"><a xlink:href="_g_c_c_2_c_o_r_t_u_s___a_p_s3_2port_8c.html#a50b37c333edece21ce0e269a5a1a9a68" target="_top" xlink:title="interrupt31_handler">
<polygon fill="white" stroke="black" points="152.5,-228.5 152.5,-247.5 255.5,-247.5 255.5,-228.5 152.5,-228.5"/>
<text text-anchor="middle" x="204" y="-235.5" font-family="Helvetica,sans-Serif" font-size="10.00">interrupt31_handler</text>
</a>
</g>
</g>
<!-- Node1&#45;&gt;Node2 -->
<g id="edge1" class="edge"><title>Node1&#45;&gt;Node2</title>
<path fill="none" stroke="midnightblue" d="M71.139,-141.891C87.4798,-162.996 117.248,-197.876 150,-219 155.832,-222.762 162.506,-225.898 169.106,-228.467"/>
<polygon fill="midnightblue" stroke="midnightblue" points="73.8159,-139.628 64.9884,-133.769 68.2356,-143.854 73.8159,-139.628"/>
</g>
<!-- Node3 -->
<g id="node3" class="node"><title>Node3</title>
<g id="a_node3"><a xlink:href="_g_c_c_2_c_o_r_t_u_s___a_p_s3_2port_8c.html#a1addd63671cd6fd6f4b9c5752433008e" target="_top" xlink:title="interrupt7_handler">
<polygon fill="white" stroke="black" points="155,-190.5 155,-209.5 253,-209.5 253,-190.5 155,-190.5"/>
<text text-anchor="middle" x="204" y="-197.5" font-family="Helvetica,sans-Serif" font-size="10.00">interrupt7_handler</text>
</a>
</g>
</g>
<!-- Node1&#45;&gt;Node3 -->
<g id="edge2" class="edge"><title>Node1&#45;&gt;Node3</title>
<path fill="none" stroke="midnightblue" d="M80.1844,-139.594C98.3645,-151.912 125.069,-168.974 150,-181 157.219,-184.482 165.252,-187.683 172.835,-190.426"/>
<polygon fill="midnightblue" stroke="midnightblue" points="81.7336,-136.412 71.5089,-133.636 77.7709,-142.182 81.7336,-136.412"/>
</g>
<!-- Node4 -->
<g id="node4" class="node"><title>Node4</title>
<g id="a_node4"><a xlink:href="_g_c_c_2_m_c_f5235_2port_8c.html#ab29afb2a4cb7a5158953f41abd366a76" target="_top" xlink:title="prvPortYield">
<polygon fill="white" stroke="black" points="168.5,-152.5 168.5,-171.5 239.5,-171.5 239.5,-152.5 168.5,-152.5"/>
<text text-anchor="middle" x="204" y="-159.5" font-family="Helvetica,sans-Serif" font-size="10.00">prvPortYield</text>
</a>
</g>
</g>
<!-- Node1&#45;&gt;Node4 -->
<g id="edge3" class="edge"><title>Node1&#45;&gt;Node4</title>
<path fill="none" stroke="midnightblue" d="M104.481,-136.181C125.241,-141.622 149.282,-147.922 168.419,-152.937"/>
<polygon fill="midnightblue" stroke="midnightblue" points="105.15,-132.738 94.5896,-133.589 103.376,-139.51 105.15,-132.738"/>
</g>
<!-- Node6 -->
<g id="node6" class="node"><title>Node6</title>
<g id="a_node6"><a xlink:href="_code_warrior_2_h_c_s12_2port_8c.html#ae536a48b8cb683c5474b383aa811fd3e" target="_top" xlink:title="vPortTickInterrupt">
<polygon fill="white" stroke="black" points="156.5,-114.5 156.5,-133.5 251.5,-133.5 251.5,-114.5 156.5,-114.5"/>
<text text-anchor="middle" x="204" y="-121.5" font-family="Helvetica,sans-Serif" font-size="10.00">vPortTickInterrupt</text>
</a>
</g>
</g>
<!-- Node1&#45;&gt;Node6 -->
<g id="edge5" class="edge"><title>Node1&#45;&gt;Node6</title>
<path fill="none" stroke="midnightblue" d="M124.372,-124C135.219,-124 146.25,-124 156.485,-124"/>
<polygon fill="midnightblue" stroke="midnightblue" points="124.061,-120.5 114.061,-124 124.061,-127.5 124.061,-120.5"/>
</g>
<!-- Node7 -->
<g id="node7" class="node"><title>Node7</title>
<g id="a_node7"><a xlink:href="_tasking_2_a_r_m___c_m4_f_2portmacro_8h.html#add01c927fb689f7ec170e42d47d27927" target="_top" xlink:title="vPortYield">
<polygon fill="white" stroke="black" points="173,-76.5 173,-95.5 235,-95.5 235,-76.5 173,-76.5"/>
<text text-anchor="middle" x="204" y="-83.5" font-family="Helvetica,sans-Serif" font-size="10.00">vPortYield</text>
</a>
</g>
</g>
<!-- Node1&#45;&gt;Node7 -->
<g id="edge6" class="edge"><title>Node1&#45;&gt;Node7</title>
<path fill="none" stroke="midnightblue" d="M104.557,-111.799C126.91,-105.941 153.054,-99.0892 172.78,-93.9198"/>
<polygon fill="midnightblue" stroke="midnightblue" points="103.376,-108.49 94.5896,-114.411 105.15,-115.262 103.376,-108.49"/>
</g>
<!-- Node9 -->
<g id="node9" class="node"><title>Node9</title>
<g id="a_node9"><a xlink:href="_a_r_m7___a_t91_f_r40008_2port_i_s_r_8c.html#ab2e6549af16c47ab2e7d0fccb861a708" target="_top" xlink:title="vPortYieldProcessor">
<polygon fill="white" stroke="black" points="150.5,-38.5 150.5,-57.5 257.5,-57.5 257.5,-38.5 150.5,-38.5"/>
<text text-anchor="middle" x="204" y="-45.5" font-family="Helvetica,sans-Serif" font-size="10.00">vPortYieldProcessor</text>
</a>
</g>
</g>
<!-- Node1&#45;&gt;Node9 -->
<g id="edge8" class="edge"><title>Node1&#45;&gt;Node9</title>
<path fill="none" stroke="midnightblue" d="M80.1844,-108.406C98.3645,-96.0876 125.069,-79.0264 150,-67 157.219,-63.5176 165.252,-60.3167 172.835,-57.5743"/>
<polygon fill="midnightblue" stroke="midnightblue" points="77.7709,-105.818 71.5089,-114.364 81.7336,-111.588 77.7709,-105.818"/>
</g>
<!-- Node10 -->
<g id="node10" class="node"><title>Node10</title>
<g id="a_node10"><a xlink:href="_a_r_m7___l_p_c2000_2port_i_s_r_8c.html#ad34d9b239e2529468c1ba4a770b63f81" target="_top" xlink:title="vTickISR">
<polygon fill="white" stroke="black" points="176,-0.5 176,-19.5 232,-19.5 232,-0.5 176,-0.5"/>
<text text-anchor="middle" x="204" y="-7.5" font-family="Helvetica,sans-Serif" font-size="10.00">vTickISR</text>
</a>
</g>
</g>
<!-- Node1&#45;&gt;Node10 -->
<g id="edge9" class="edge"><title>Node1&#45;&gt;Node10</title>
<path fill="none" stroke="midnightblue" d="M71.139,-106.109C87.4798,-85.0039 117.248,-50.1241 150,-29 157.804,-23.9669 167.114,-20.0527 175.739,-17.1203"/>
<polygon fill="midnightblue" stroke="midnightblue" points="68.2356,-104.146 64.9884,-114.231 73.8159,-108.372 68.2356,-104.146"/>
</g>
<!-- Node5 -->
<g id="node5" class="node"><title>Node5</title>
<g id="a_node5"><a xlink:href="_g_c_c_2_m_c_f5235_2port_8c.html#ade5a8c6666e7413a0355cc252029c5c6" target="_top" xlink:title="xPortStartScheduler">
<polygon fill="white" stroke="black" points="294,-152.5 294,-171.5 400,-171.5 400,-152.5 294,-152.5"/>
<text text-anchor="middle" x="347" y="-159.5" font-family="Helvetica,sans-Serif" font-size="10.00">xPortStartScheduler</text>
</a>
</g>
</g>
<!-- Node4&#45;&gt;Node5 -->
<g id="edge4" class="edge"><title>Node4&#45;&gt;Node5</title>
<path fill="none" stroke="midnightblue" d="M250.177,-162C264.122,-162 279.591,-162 293.96,-162"/>
<polygon fill="midnightblue" stroke="midnightblue" points="249.854,-158.5 239.854,-162 249.854,-165.5 249.854,-158.5"/>
</g>
<!-- Node8 -->
<g id="node8" class="node"><title>Node8</title>
<g id="a_node8"><a xlink:href="_g_c_c_2_p_p_c405___xilinx_2port_8c.html#ade5a8c6666e7413a0355cc252029c5c6" target="_top" xlink:title="xPortStartScheduler">
<polygon fill="white" stroke="black" points="294,-76.5 294,-95.5 400,-95.5 400,-76.5 294,-76.5"/>
<text text-anchor="middle" x="347" y="-83.5" font-family="Helvetica,sans-Serif" font-size="10.00">xPortStartScheduler</text>
</a>
</g>
</g>
<!-- Node7&#45;&gt;Node8 -->
<g id="edge7" class="edge"><title>Node7&#45;&gt;Node8</title>
<path fill="none" stroke="midnightblue" d="M245.307,-86C260.428,-86 277.835,-86 293.876,-86"/>
<polygon fill="midnightblue" stroke="midnightblue" points="245.248,-82.5001 235.248,-86 245.248,-89.5001 245.248,-82.5001"/>
</g>
</g>
</svg>
