<?xml version="1.0" encoding="UTF-8" standalone="no"?>
<!DOCTYPE svg PUBLIC "-//W3C//DTD SVG 1.1//EN"
 "http://www.w3.org/Graphics/SVG/1.1/DTD/svg11.dtd">
<!-- Generated by graphviz version 2.30.1 (20130221.2233)
 -->
<!-- Title: prvSetupTimerInterrupt Pages: 1 -->
<svg width="262pt" height="66pt"
 viewBox="0.00 0.00 262.00 66.00" xmlns="http://www.w3.org/2000/svg" xmlns:xlink="http://www.w3.org/1999/xlink">
<g id="graph0" class="graph" transform="scale(1 1) rotate(0) translate(4 62)">
<title>prvSetupTimerInterrupt</title>
<polygon fill="white" stroke="white" points="-4,5 -4,-62 259,-62 259,5 -4,5"/>
<!-- Node1 -->
<g id="node1" class="node"><title>Node1</title>
<polygon fill="#bfbfbf" stroke="black" points="0.5,-19.5 0.5,-38.5 119.5,-38.5 119.5,-19.5 0.5,-19.5"/>
<text text-anchor="middle" x="60" y="-26.5" font-family="Helvetica,sans-Serif" font-size="10.00">prvSetupTimerInterrupt</text>
</g>
<!-- Node2 -->
<g id="node2" class="node"><title>Node2</title>
<g id="a_node2"><a xlink:href="_i_a_r_2_s_t_r91x_2port_8c.html#a519f363a0c5424ea1c50df35030250a0" target="_top" xlink:title="prvDefaultHandler">
<polygon fill="white" stroke="black" points="156.5,-38.5 156.5,-57.5 253.5,-57.5 253.5,-38.5 156.5,-38.5"/>
<text text-anchor="middle" x="205" y="-45.5" font-family="Helvetica,sans-Serif" font-size="10.00">prvDefaultHandler</text>
</a>
</g>
</g>
<!-- Node1&#45;&gt;Node2 -->
<g id="edge1" class="edge"><title>Node1&#45;&gt;Node2</title>
<path fill="none" stroke="midnightblue" d="M119.576,-36.7828C128.335,-37.9467 137.362,-39.146 146.107,-40.308"/>
<polygon fill="midnightblue" stroke="midnightblue" points="145.837,-43.8027 156.211,-41.6504 146.759,-36.8637 145.837,-43.8027"/>
</g>
<!-- Node3 -->
<g id="node3" class="node"><title>Node3</title>
<g id="a_node3"><a xlink:href="_i_a_r_2_s_t_r91x_2port_8c.html#aa2c9c1a72c3db88751df0db6265fb694" target="_top" xlink:title="prvFindFactors">
<polygon fill="white" stroke="black" points="163.5,-0.5 163.5,-19.5 246.5,-19.5 246.5,-0.5 163.5,-0.5"/>
<text text-anchor="middle" x="205" y="-7.5" font-family="Helvetica,sans-Serif" font-size="10.00">prvFindFactors</text>
</a>
</g>
</g>
<!-- Node1&#45;&gt;Node3 -->
<g id="edge2" class="edge"><title>Node1&#45;&gt;Node3</title>
<path fill="none" stroke="midnightblue" d="M119.576,-21.2172C130.682,-19.7416 142.218,-18.2088 153.064,-16.7677"/>
<polygon fill="midnightblue" stroke="midnightblue" points="153.763,-20.2057 163.215,-15.419 152.841,-13.2667 153.763,-20.2057"/>
</g>
</g>
</svg>
