<?xml version="1.0" encoding="UTF-8" standalone="no"?>
<!DOCTYPE svg PUBLIC "-//W3C//DTD SVG 1.1//EN"
 "http://www.w3.org/Graphics/SVG/1.1/DTD/svg11.dtd">
<!-- Generated by graphviz version 2.30.1 (20130221.2233)
 -->
<!-- Title: vTick Pages: 1 -->
<svg width="346pt" height="28pt"
 viewBox="0.00 0.00 346.00 28.00" xmlns="http://www.w3.org/2000/svg" xmlns:xlink="http://www.w3.org/1999/xlink">
<g id="graph0" class="graph" transform="scale(1 1) rotate(0) translate(4 24)">
<title>vTick</title>
<polygon fill="white" stroke="white" points="-4,5 -4,-24 343,-24 343,5 -4,5"/>
<!-- Node1 -->
<g id="node1" class="node"><title>Node1</title>
<polygon fill="#bfbfbf" stroke="black" points="0,-0.5 0,-19.5 40,-19.5 40,-0.5 0,-0.5"/>
<text text-anchor="middle" x="20" y="-7.5" font-family="Helvetica,sans-Serif" font-size="10.00">vTick</text>
</g>
<!-- Node2 -->
<g id="node2" class="node"><title>Node2</title>
<g id="a_node2"><a xlink:href="_g_c_c_2_a_v_r32___u_c3_2port_8c.html#aeb91268bfbb6dc04ff839631ee5c72ba" target="_top" xlink:title="prvSetupTimerInterrupt">
<polygon fill="white" stroke="black" points="76.5,-0.5 76.5,-19.5 195.5,-19.5 195.5,-0.5 76.5,-0.5"/>
<text text-anchor="middle" x="136" y="-7.5" font-family="Helvetica,sans-Serif" font-size="10.00">prvSetupTimerInterrupt</text>
</a>
</g>
</g>
<!-- Node1&#45;&gt;Node2 -->
<g id="edge1" class="edge"><title>Node1&#45;&gt;Node2</title>
<path fill="none" stroke="midnightblue" d="M50.0875,-10C58.1988,-10 67.3113,-10 76.4764,-10"/>
<polygon fill="midnightblue" stroke="midnightblue" points="50.0811,-6.5001 40.081,-10 50.081,-13.5001 50.0811,-6.5001"/>
</g>
<!-- Node3 -->
<g id="node3" class="node"><title>Node3</title>
<g id="a_node3"><a xlink:href="_g_c_c_2_a_v_r32___u_c3_2port_8c.html#ade5a8c6666e7413a0355cc252029c5c6" target="_top" xlink:title="xPortStartScheduler">
<polygon fill="white" stroke="black" points="232,-0.5 232,-19.5 338,-19.5 338,-0.5 232,-0.5"/>
<text text-anchor="middle" x="285" y="-7.5" font-family="Helvetica,sans-Serif" font-size="10.00">xPortStartScheduler</text>
</a>
</g>
</g>
<!-- Node2&#45;&gt;Node3 -->
<g id="edge2" class="edge"><title>Node2&#45;&gt;Node3</title>
<path fill="none" stroke="midnightblue" d="M205.756,-10C214.536,-10 223.407,-10 231.865,-10"/>
<polygon fill="midnightblue" stroke="midnightblue" points="205.521,-6.5001 195.521,-10 205.521,-13.5001 205.521,-6.5001"/>
</g>
</g>
</svg>
