<?xml version="1.0" encoding="UTF-8" standalone="no"?>
<!DOCTYPE svg PUBLIC "-//W3C//DTD SVG 1.1//EN"
 "http://www.w3.org/Graphics/SVG/1.1/DTD/svg11.dtd">
<!-- Generated by graphviz version 2.30.1 (20130221.2233)
 -->
<!-- Title: xPortStartScheduler Pages: 1 -->
<svg width="382pt" height="66pt"
 viewBox="0.00 0.00 382.00 66.00" xmlns="http://www.w3.org/2000/svg" xmlns:xlink="http://www.w3.org/1999/xlink">
<g id="graph0" class="graph" transform="scale(1 1) rotate(0) translate(4 62)">
<title>xPortStartScheduler</title>
<polygon fill="white" stroke="white" points="-4,5 -4,-62 379,-62 379,5 -4,5"/>
<!-- Node1 -->
<g id="node1" class="node"><title>Node1</title>
<polygon fill="#bfbfbf" stroke="black" points="0,-19.5 0,-38.5 106,-38.5 106,-19.5 0,-19.5"/>
<text text-anchor="middle" x="53" y="-26.5" font-family="Helvetica,sans-Serif" font-size="10.00">xPortStartScheduler</text>
</g>
<!-- Node2 -->
<g id="node2" class="node"><title>Node2</title>
<g id="a_node2"><a xlink:href="_i_a_r_2_atmel_s_a_m9_x_e_2port_8c.html#aeb91268bfbb6dc04ff839631ee5c72ba" target="_top" xlink:title="prvSetupTimerInterrupt">
<polygon fill="white" stroke="black" points="142.5,-38.5 142.5,-57.5 261.5,-57.5 261.5,-38.5 142.5,-38.5"/>
<text text-anchor="middle" x="202" y="-45.5" font-family="Helvetica,sans-Serif" font-size="10.00">prvSetupTimerInterrupt</text>
</a>
</g>
</g>
<!-- Node1&#45;&gt;Node2 -->
<g id="edge1" class="edge"><title>Node1&#45;&gt;Node2</title>
<path fill="none" stroke="midnightblue" d="M106.241,-35.7522C114.663,-36.8408 123.493,-37.9821 132.234,-39.1118"/>
<polygon fill="midnightblue" stroke="midnightblue" points="132.057,-42.618 142.423,-40.4288 132.954,-35.6758 132.057,-42.618"/>
</g>
<!-- Node4 -->
<g id="node4" class="node"><title>Node4</title>
<g id="a_node4"><a xlink:href="_c_c_s_2_a_r_m___c_m4_f_2port_8c.html#a5cfc38319f17c8e804020ec247b6325d" target="_top" xlink:title="vPortStartFirstTask">
<polygon fill="white" stroke="black" points="151,-0.5 151,-19.5 253,-19.5 253,-0.5 151,-0.5"/>
<text text-anchor="middle" x="202" y="-7.5" font-family="Helvetica,sans-Serif" font-size="10.00">vPortStartFirstTask</text>
</a>
</g>
</g>
<!-- Node1&#45;&gt;Node4 -->
<g id="edge3" class="edge"><title>Node1&#45;&gt;Node4</title>
<path fill="none" stroke="midnightblue" d="M106.241,-22.2478C117.474,-20.7959 129.433,-19.2502 140.936,-17.7633"/>
<polygon fill="midnightblue" stroke="midnightblue" points="141.43,-21.2287 150.899,-16.4756 140.533,-14.2864 141.43,-21.2287"/>
</g>
<!-- Node3 -->
<g id="node3" class="node"><title>Node3</title>
<g id="a_node3"><a xlink:href="_code_warrior_2_cold_fire___v1_2port_8c.html#aad6152882d58328e92220bb7bc58dabb" target="_top" xlink:title="vPortTickISR">
<polygon fill="white" stroke="black" points="298.5,-38.5 298.5,-57.5 373.5,-57.5 373.5,-38.5 298.5,-38.5"/>
<text text-anchor="middle" x="336" y="-45.5" font-family="Helvetica,sans-Serif" font-size="10.00">vPortTickISR</text>
</a>
</g>
</g>
<!-- Node2&#45;&gt;Node3 -->
<g id="edge2" class="edge"><title>Node2&#45;&gt;Node3</title>
<path fill="none" stroke="midnightblue" d="M261.666,-48C270.575,-48 279.665,-48 288.275,-48"/>
<polygon fill="midnightblue" stroke="midnightblue" points="288.495,-51.5001 298.495,-48 288.495,-44.5001 288.495,-51.5001"/>
</g>
</g>
</svg>
