<?xml version="1.0" encoding="UTF-8" standalone="no"?>
<!DOCTYPE svg PUBLIC "-//W3C//DTD SVG 1.1//EN"
 "http://www.w3.org/Graphics/SVG/1.1/DTD/svg11.dtd">
<!-- Generated by graphviz version 2.30.1 (20130221.2233)
 -->
<!-- Title: xPortStartScheduler Pages: 1 -->
<svg width="694pt" height="142pt"
 viewBox="0.00 0.00 694.00 142.00" xmlns="http://www.w3.org/2000/svg" xmlns:xlink="http://www.w3.org/1999/xlink">
<g id="graph0" class="graph" transform="scale(1 1) rotate(0) translate(4 138)">
<title>xPortStartScheduler</title>
<polygon fill="white" stroke="white" points="-4,5 -4,-138 691,-138 691,5 -4,5"/>
<!-- Node1 -->
<g id="node1" class="node"><title>Node1</title>
<polygon fill="#bfbfbf" stroke="black" points="0,-38.5 0,-57.5 106,-57.5 106,-38.5 0,-38.5"/>
<text text-anchor="middle" x="53" y="-45.5" font-family="Helvetica,sans-Serif" font-size="10.00">xPortStartScheduler</text>
</g>
<!-- Node2 -->
<g id="node2" class="node"><title>Node2</title>
<g id="a_node2"><a xlink:href="_i_a_r_2_atmel_s_a_m7_s64_2port_8c.html#aeb91268bfbb6dc04ff839631ee5c72ba" target="_top" xlink:title="prvSetupTimerInterrupt">
<polygon fill="white" stroke="black" points="142.5,-57.5 142.5,-76.5 261.5,-76.5 261.5,-57.5 142.5,-57.5"/>
<text text-anchor="middle" x="202" y="-64.5" font-family="Helvetica,sans-Serif" font-size="10.00">prvSetupTimerInterrupt</text>
</a>
</g>
</g>
<!-- Node1&#45;&gt;Node2 -->
<g id="edge1" class="edge"><title>Node1&#45;&gt;Node2</title>
<path fill="none" stroke="midnightblue" d="M106.241,-54.7522C114.663,-55.8408 123.493,-56.9821 132.234,-58.1118"/>
<polygon fill="midnightblue" stroke="midnightblue" points="132.057,-61.618 142.423,-59.4288 132.954,-54.6758 132.057,-61.618"/>
</g>
<!-- Node10 -->
<g id="node10" class="node"><title>Node10</title>
<g id="a_node10"><a xlink:href="_c_c_s_2_a_r_m___c_m4_f_2port_8c.html#a5cfc38319f17c8e804020ec247b6325d" target="_top" xlink:title="vPortStartFirstTask">
<polygon fill="white" stroke="black" points="151,-19.5 151,-38.5 253,-38.5 253,-19.5 151,-19.5"/>
<text text-anchor="middle" x="202" y="-26.5" font-family="Helvetica,sans-Serif" font-size="10.00">vPortStartFirstTask</text>
</a>
</g>
</g>
<!-- Node1&#45;&gt;Node10 -->
<g id="edge11" class="edge"><title>Node1&#45;&gt;Node10</title>
<path fill="none" stroke="midnightblue" d="M106.241,-41.2478C117.474,-39.7959 129.433,-38.2502 140.936,-36.7633"/>
<polygon fill="midnightblue" stroke="midnightblue" points="141.43,-40.2287 150.899,-35.4756 140.533,-33.2864 141.43,-40.2287"/>
</g>
<!-- Node3 -->
<g id="node3" class="node"><title>Node3</title>
<g id="a_node3"><a xlink:href="_g_c_c_2_a_r_m7___a_t91_s_a_m7_s_2lib___a_t91_s_a_m7_x256_8h.html#a1553f687d03391a84adb3b14c1ff7d23" target="_top" xlink:title="AT91F_AIC_EnableIt">
<polygon fill="white" stroke="black" points="306.5,-114.5 306.5,-133.5 417.5,-133.5 417.5,-114.5 306.5,-114.5"/>
<text text-anchor="middle" x="362" y="-121.5" font-family="Helvetica,sans-Serif" font-size="10.00">AT91F_AIC_EnableIt</text>
</a>
</g>
</g>
<!-- Node2&#45;&gt;Node3 -->
<g id="edge2" class="edge"><title>Node2&#45;&gt;Node3</title>
<path fill="none" stroke="midnightblue" d="M229.446,-76.5405C255.535,-85.9527 295.621,-100.414 324.687,-110.9"/>
<polygon fill="midnightblue" stroke="midnightblue" points="323.874,-114.327 334.468,-114.428 326.249,-107.742 323.874,-114.327"/>
</g>
<!-- Node4 -->
<g id="node4" class="node"><title>Node4</title>
<g id="a_node4"><a xlink:href="_paradigm_2_tern___e_e_2small_2portmacro_8h.html#a14d32f8130d3c0b212cfc751730b5b49" target="_top" xlink:title="void">
<polygon fill="white" stroke="black" points="628.5,-76.5 628.5,-95.5 663.5,-95.5 663.5,-76.5 628.5,-76.5"/>
<text text-anchor="middle" x="646" y="-83.5" font-family="Helvetica,sans-Serif" font-size="10.00">void</text>
</a>
</g>
</g>
<!-- Node2&#45;&gt;Node4 -->
<g id="edge3" class="edge"><title>Node2&#45;&gt;Node4</title>
<path fill="none" stroke="midnightblue" d="M261.694,-69.5231C358.435,-73.6816 547.65,-81.8153 617.898,-84.835"/>
<polygon fill="midnightblue" stroke="midnightblue" points="617.977,-88.3415 628.118,-85.2743 618.278,-81.348 617.977,-88.3415"/>
</g>
<!-- Node5 -->
<g id="node5" class="node"><title>Node5</title>
<g id="a_node5"><a xlink:href="_c_c_s_2_a_r_m___cortex-_r4_2port_8c.html#aa3d36248da898dd1d2ae1784c76bdb9c" target="_top" xlink:title="vPortNonPreemptiveTick">
<polygon fill="white" stroke="black" points="298.5,-38.5 298.5,-57.5 425.5,-57.5 425.5,-38.5 298.5,-38.5"/>
<text text-anchor="middle" x="362" y="-45.5" font-family="Helvetica,sans-Serif" font-size="10.00">vPortNonPreemptiveTick</text>
</a>
</g>
</g>
<!-- Node2&#45;&gt;Node5 -->
<g id="edge4" class="edge"><title>Node2&#45;&gt;Node5</title>
<path fill="none" stroke="midnightblue" d="M261.833,-59.9251C270.503,-58.8826 279.52,-57.7983 288.427,-56.7271"/>
<polygon fill="midnightblue" stroke="midnightblue" points="288.902,-60.1953 298.412,-55.5264 288.066,-53.2454 288.902,-60.1953"/>
</g>
<!-- Node8 -->
<g id="node8" class="node"><title>Node8</title>
<g id="a_node8"><a xlink:href="_i_a_r_2_s_t_r71x_2port_8c.html#afa0af0d6450abd50943523742eb8090b" target="_top" xlink:title="vPortPreemptiveTick">
<polygon fill="white" stroke="black" points="307.5,-0.5 307.5,-19.5 416.5,-19.5 416.5,-0.5 307.5,-0.5"/>
<text text-anchor="middle" x="362" y="-7.5" font-family="Helvetica,sans-Serif" font-size="10.00">vPortPreemptiveTick</text>
</a>
</g>
</g>
<!-- Node2&#45;&gt;Node8 -->
<g id="edge8" class="edge"><title>Node2&#45;&gt;Node8</title>
<path fill="none" stroke="midnightblue" d="M236.138,-57.4459C244.673,-54.6825 253.768,-51.4665 262,-48 278.673,-40.9784 281.262,-35.866 298,-29 303.485,-26.7503 309.334,-24.6319 315.175,-22.6841"/>
<polygon fill="midnightblue" stroke="midnightblue" points="316.467,-25.9458 324.932,-19.5741 314.341,-19.2765 316.467,-25.9458"/>
</g>
<!-- Node6 -->
<g id="node6" class="node"><title>Node6</title>
<g id="a_node6"><a xlink:href="task_8h.html#a978e25460ac35706f9ad30b46d9403d8" target="_top" xlink:title="xTaskIncrementTick">
<polygon fill="white" stroke="black" points="463,-38.5 463,-57.5 569,-57.5 569,-38.5 463,-38.5"/>
<text text-anchor="middle" x="516" y="-45.5" font-family="Helvetica,sans-Serif" font-size="10.00">xTaskIncrementTick</text>
</a>
</g>
</g>
<!-- Node5&#45;&gt;Node6 -->
<g id="edge5" class="edge"><title>Node5&#45;&gt;Node6</title>
<path fill="none" stroke="midnightblue" d="M425.702,-48C434.518,-48 443.582,-48 452.396,-48"/>
<polygon fill="midnightblue" stroke="midnightblue" points="452.6,-51.5001 462.6,-48 452.6,-44.5001 452.6,-51.5001"/>
</g>
<!-- Node7 -->
<g id="node7" class="node"><title>Node7</title>
<g id="a_node7"><a xlink:href="list_8h.html#a2eb1558482076fff8cafc63419c2d34a" target="_top" xlink:title="uxListRemove">
<polygon fill="white" stroke="black" points="606,-38.5 606,-57.5 686,-57.5 686,-38.5 606,-38.5"/>
<text text-anchor="middle" x="646" y="-45.5" font-family="Helvetica,sans-Serif" font-size="10.00">uxListRemove</text>
</a>
</g>
</g>
<!-- Node6&#45;&gt;Node7 -->
<g id="edge6" class="edge"><title>Node6&#45;&gt;Node7</title>
<path fill="none" stroke="midnightblue" d="M569.062,-48C577.918,-48 587.089,-48 595.865,-48"/>
<polygon fill="midnightblue" stroke="midnightblue" points="595.944,-51.5001 605.944,-48 595.944,-44.5001 595.944,-51.5001"/>
</g>
<!-- Node6&#45;&gt;Node4 -->
<g id="edge7" class="edge"><title>Node6&#45;&gt;Node4</title>
<path fill="none" stroke="midnightblue" d="M549.3,-57.589C570.743,-63.9548 598.537,-72.2063 618.642,-78.1751"/>
<polygon fill="midnightblue" stroke="midnightblue" points="617.798,-81.5755 628.381,-81.0663 619.791,-74.8649 617.798,-81.5755"/>
</g>
<!-- Node8&#45;&gt;Node6 -->
<g id="edge9" class="edge"><title>Node8&#45;&gt;Node6</title>
<path fill="none" stroke="midnightblue" d="M401.356,-19.589C421.324,-24.5809 445.93,-30.7324 467.133,-36.0334"/>
<polygon fill="midnightblue" stroke="midnightblue" points="466.369,-39.45 476.92,-38.4799 468.067,-32.659 466.369,-39.45"/>
</g>
<!-- Node9 -->
<g id="node9" class="node"><title>Node9</title>
<g id="a_node9"><a xlink:href="_renesas_2_r_x100_2port_8c.html#a9c86137bc3c1cbffc39fff22627cb885" target="_top" xlink:title="vTaskSwitchContext">
<polygon fill="white" stroke="black" points="462.5,-0.5 462.5,-19.5 569.5,-19.5 569.5,-0.5 462.5,-0.5"/>
<text text-anchor="middle" x="516" y="-7.5" font-family="Helvetica,sans-Serif" font-size="10.00">vTaskSwitchContext</text>
</a>
</g>
</g>
<!-- Node8&#45;&gt;Node9 -->
<g id="edge10" class="edge"><title>Node8&#45;&gt;Node9</title>
<path fill="none" stroke="midnightblue" d="M416.59,-10C428.092,-10 440.347,-10 452.164,-10"/>
<polygon fill="midnightblue" stroke="midnightblue" points="452.406,-13.5001 462.406,-10 452.406,-6.5001 452.406,-13.5001"/>
</g>
</g>
</svg>
