<?xml version="1.0" encoding="UTF-8" standalone="no"?>
<!DOCTYPE svg PUBLIC "-//W3C//DTD SVG 1.1//EN"
 "http://www.w3.org/Graphics/SVG/1.1/DTD/svg11.dtd">
<!-- Generated by graphviz version 2.30.1 (20130221.2233)
 -->
<!-- Title: pvPortRealloc Pages: 1 -->
<svg width="476pt" height="94pt"
 viewBox="0.00 0.00 476.00 94.00" xmlns="http://www.w3.org/2000/svg" xmlns:xlink="http://www.w3.org/1999/xlink">
<g id="graph0" class="graph" transform="scale(1 1) rotate(0) translate(4 90)">
<title>pvPortRealloc</title>
<polygon fill="white" stroke="white" points="-4,5 -4,-90 473,-90 473,5 -4,5"/>
<!-- Node1 -->
<g id="node1" class="node"><title>Node1</title>
<polygon fill="#bfbfbf" stroke="black" points="0.5,-47.5 0.5,-66.5 79.5,-66.5 79.5,-47.5 0.5,-47.5"/>
<text text-anchor="middle" x="40" y="-54.5" font-family="Helvetica,sans-Serif" font-size="10.00">pvPortRealloc</text>
</g>
<!-- Node2 -->
<g id="node2" class="node"><title>Node2</title>
<g id="a_node2"><a xlink:href="task_8h.html#a366b302eba79d10b5ee2a3756f0fcc43" target="_top" xlink:title="vTaskSuspendAll">
<polygon fill="white" stroke="black" points="116,-66.5 116,-85.5 210,-85.5 210,-66.5 116,-66.5"/>
<text text-anchor="middle" x="163" y="-73.5" font-family="Helvetica,sans-Serif" font-size="10.00">vTaskSuspendAll</text>
</a>
</g>
</g>
<!-- Node1&#45;&gt;Node2 -->
<g id="edge1" class="edge"><title>Node1&#45;&gt;Node2</title>
<path fill="none" stroke="midnightblue" d="M79.6178,-63.064C87.9596,-64.3738 96.9427,-65.7844 105.802,-67.1755"/>
<polygon fill="midnightblue" stroke="midnightblue" points="105.29,-70.6379 115.712,-68.7316 106.376,-63.7226 105.29,-70.6379"/>
</g>
<!-- Node3 -->
<g id="node3" class="node"><title>Node3</title>
<g id="a_node3"><a xlink:href="task_8h.html#a003f8ae6d649225abd030cc76e1c7d0e" target="_top" xlink:title="xTaskResumeAll">
<polygon fill="white" stroke="black" points="117,-28.5 117,-47.5 209,-47.5 209,-28.5 117,-28.5"/>
<text text-anchor="middle" x="163" y="-35.5" font-family="Helvetica,sans-Serif" font-size="10.00">xTaskResumeAll</text>
</a>
</g>
</g>
<!-- Node1&#45;&gt;Node3 -->
<g id="edge2" class="edge"><title>Node1&#45;&gt;Node3</title>
<path fill="none" stroke="midnightblue" d="M79.6178,-50.936C88.1606,-49.5946 97.376,-48.1476 106.442,-46.7239"/>
<polygon fill="midnightblue" stroke="midnightblue" points="107.236,-50.1423 116.572,-45.1334 106.15,-43.2271 107.236,-50.1423"/>
</g>
<!-- Node4 -->
<g id="node4" class="node"><title>Node4</title>
<g id="a_node4"><a xlink:href="list_8h.html#a2eb1558482076fff8cafc63419c2d34a" target="_top" xlink:title="uxListRemove">
<polygon fill="white" stroke="black" points="388,-47.5 388,-66.5 468,-66.5 468,-47.5 388,-47.5"/>
<text text-anchor="middle" x="428" y="-54.5" font-family="Helvetica,sans-Serif" font-size="10.00">uxListRemove</text>
</a>
</g>
</g>
<!-- Node3&#45;&gt;Node4 -->
<g id="edge3" class="edge"><title>Node3&#45;&gt;Node4</title>
<path fill="none" stroke="midnightblue" d="M197.212,-47.5071C212.011,-51.2716 229.739,-55.1407 246,-57 290.186,-62.0522 340.837,-61.5182 377.299,-60.0304"/>
<polygon fill="midnightblue" stroke="midnightblue" points="377.829,-63.5103 387.662,-59.5665 377.516,-56.5173 377.829,-63.5103"/>
</g>
<!-- Node5 -->
<g id="node5" class="node"><title>Node5</title>
<g id="a_node5"><a xlink:href="_paradigm_2_tern___e_e_2small_2portmacro_8h.html#a14d32f8130d3c0b212cfc751730b5b49" target="_top" xlink:title="void">
<polygon fill="white" stroke="black" points="410.5,-0.5 410.5,-19.5 445.5,-19.5 445.5,-0.5 410.5,-0.5"/>
<text text-anchor="middle" x="428" y="-7.5" font-family="Helvetica,sans-Serif" font-size="10.00">void</text>
</a>
</g>
</g>
<!-- Node3&#45;&gt;Node5 -->
<g id="edge4" class="edge"><title>Node3&#45;&gt;Node5</title>
<path fill="none" stroke="midnightblue" d="M198.858,-28.4792C213.333,-24.9043 230.369,-21.1818 246,-19 300.501,-11.3926 365.02,-9.97916 400.426,-9.84706"/>
<polygon fill="midnightblue" stroke="midnightblue" points="400.438,-13.3472 410.437,-9.84176 400.435,-6.34715 400.438,-13.3472"/>
</g>
<!-- Node6 -->
<g id="node6" class="node"><title>Node6</title>
<g id="a_node6"><a xlink:href="tasks_8c.html#a54f31e9aef0eb7b87e48c7d68ecc84c1" target="_top" xlink:title="xTaskIncrementTick">
<polygon fill="white" stroke="black" points="246,-28.5 246,-47.5 352,-47.5 352,-28.5 246,-28.5"/>
<text text-anchor="middle" x="299" y="-35.5" font-family="Helvetica,sans-Serif" font-size="10.00">xTaskIncrementTick</text>
</a>
</g>
</g>
<!-- Node3&#45;&gt;Node6 -->
<g id="edge5" class="edge"><title>Node3&#45;&gt;Node6</title>
<path fill="none" stroke="midnightblue" d="M209.366,-38C217.77,-38 226.683,-38 235.492,-38"/>
<polygon fill="midnightblue" stroke="midnightblue" points="235.748,-41.5001 245.748,-38 235.748,-34.5001 235.748,-41.5001"/>
</g>
<!-- Node6&#45;&gt;Node5 -->
<g id="edge6" class="edge"><title>Node6&#45;&gt;Node5</title>
<path fill="none" stroke="midnightblue" d="M343.351,-28.4423C362.214,-24.2836 383.722,-19.5415 400.206,-15.9074"/>
<polygon fill="midnightblue" stroke="midnightblue" points="401.222,-19.2675 410.234,-13.6965 399.715,-12.4317 401.222,-19.2675"/>
</g>
<!-- Node6&#45;&gt;Node4 -->
<g id="edge7" class="edge"><title>Node6&#45;&gt;Node4</title>
<path fill="none" stroke="midnightblue" d="M352.022,-45.7828C360.496,-47.0506 369.252,-48.3605 377.659,-49.6183"/>
<polygon fill="midnightblue" stroke="midnightblue" points="377.291,-53.102 387.698,-51.1202 378.326,-46.1791 377.291,-53.102"/>
</g>
</g>
</svg>
