<?xml version="1.0" encoding="UTF-8" standalone="no"?>
<!DOCTYPE svg PUBLIC "-//W3C//DTD SVG 1.1//EN"
 "http://www.w3.org/Graphics/SVG/1.1/DTD/svg11.dtd">
<!-- Generated by graphviz version 2.30.1 (20130221.2233)
 -->
<!-- Title: source/portable/IAR/AVR32_UC3/portmacro.h Pages: 1 -->
<svg width="207pt" height="96pt"
 viewBox="0.00 0.00 207.00 96.00" xmlns="http://www.w3.org/2000/svg" xmlns:xlink="http://www.w3.org/1999/xlink">
<g id="graph0" class="graph" transform="scale(1 1) rotate(0) translate(4 92)">
<title>source/portable/IAR/AVR32_UC3/portmacro.h</title>
<polygon fill="white" stroke="white" points="-4,5 -4,-92 204,-92 204,5 -4,5"/>
<!-- Node1 -->
<g id="node1" class="node"><title>Node1</title>
<polygon fill="#bfbfbf" stroke="black" points="31.5,-57 31.5,-87 164.5,-87 164.5,-57 31.5,-57"/>
<text text-anchor="start" x="39.5" y="-75" font-family="Helvetica,sans-Serif" font-size="10.00">source/portable/IAR</text>
<text text-anchor="middle" x="98" y="-64" font-family="Helvetica,sans-Serif" font-size="10.00">/AVR32_UC3/portmacro.h</text>
</g>
<!-- Node2 -->
<g id="node2" class="node"><title>Node2</title>
<polygon fill="white" stroke="#bfbfbf" points="0,-0.5 0,-19.5 60,-19.5 60,-0.5 0,-0.5"/>
<text text-anchor="middle" x="30" y="-7.5" font-family="Helvetica,sans-Serif" font-size="10.00">avr32/io.h</text>
</g>
<!-- Node1&#45;&gt;Node2 -->
<g id="edge1" class="edge"><title>Node1&#45;&gt;Node2</title>
<path fill="none" stroke="midnightblue" d="M81.8849,-56.7808C71.5963,-47.7026 58.253,-35.9291 47.6745,-26.5951"/>
<polygon fill="midnightblue" stroke="midnightblue" points="49.7087,-23.7223 39.8946,-19.7305 45.0773,-28.9712 49.7087,-23.7223"/>
</g>
<!-- Node3 -->
<g id="node3" class="node"><title>Node3</title>
<polygon fill="white" stroke="#bfbfbf" points="78,-0.5 78,-19.5 118,-19.5 118,-0.5 78,-0.5"/>
<text text-anchor="middle" x="98" y="-7.5" font-family="Helvetica,sans-Serif" font-size="10.00">intc.h</text>
</g>
<!-- Node1&#45;&gt;Node3 -->
<g id="edge2" class="edge"><title>Node1&#45;&gt;Node3</title>
<path fill="none" stroke="midnightblue" d="M98,-56.7808C98,-48.7812 98,-38.6887 98,-30.0168"/>
<polygon fill="midnightblue" stroke="midnightblue" points="101.5,-29.7305 98,-19.7305 94.5001,-29.7306 101.5,-29.7305"/>
</g>
<!-- Node4 -->
<g id="node4" class="node"><title>Node4</title>
<polygon fill="white" stroke="#bfbfbf" points="136.5,-0.5 136.5,-19.5 199.5,-19.5 199.5,-0.5 136.5,-0.5"/>
<text text-anchor="middle" x="168" y="-7.5" font-family="Helvetica,sans-Serif" font-size="10.00">compiler.h</text>
</g>
<!-- Node1&#45;&gt;Node4 -->
<g id="edge3" class="edge"><title>Node1&#45;&gt;Node4</title>
<path fill="none" stroke="midnightblue" d="M114.589,-56.7808C125.285,-47.6127 139.188,-35.6957 150.128,-26.3186"/>
<polygon fill="midnightblue" stroke="midnightblue" points="152.5,-28.8959 157.814,-19.7305 147.944,-23.5811 152.5,-28.8959"/>
</g>
</g>
</svg>
