<?xml version="1.0" encoding="UTF-8" standalone="no"?>
<!DOCTYPE svg PUBLIC "-//W3C//DTD SVG 1.1//EN"
 "http://www.w3.org/Graphics/SVG/1.1/DTD/svg11.dtd">
<!-- Generated by graphviz version 2.30.1 (20130221.2233)
 -->
<!-- Title: source/portable/IAR/AtmelSAM9XE/port.c Pages: 1 -->
<svg width="940pt" height="208pt"
 viewBox="0.00 0.00 940.00 208.00" xmlns="http://www.w3.org/2000/svg" xmlns:xlink="http://www.w3.org/1999/xlink">
<g id="graph0" class="graph" transform="scale(1 1) rotate(0) translate(4 204)">
<title>source/portable/IAR/AtmelSAM9XE/port.c</title>
<polygon fill="white" stroke="white" points="-4,5 -4,-204 937,-204 937,5 -4,5"/>
<!-- Node1 -->
<g id="node1" class="node"><title>Node1</title>
<polygon fill="#bfbfbf" stroke="black" points="470.5,-169 470.5,-199 583.5,-199 583.5,-169 470.5,-169"/>
<text text-anchor="start" x="478.5" y="-187" font-family="Helvetica,sans-Serif" font-size="10.00">source/portable/IAR</text>
<text text-anchor="middle" x="527" y="-176" font-family="Helvetica,sans-Serif" font-size="10.00">/AtmelSAM9XE/port.c</text>
</g>
<!-- Node2 -->
<g id="node2" class="node"><title>Node2</title>
<polygon fill="white" stroke="#bfbfbf" points="135,-112.5 135,-131.5 183,-131.5 183,-112.5 135,-112.5"/>
<text text-anchor="middle" x="159" y="-119.5" font-family="Helvetica,sans-Serif" font-size="10.00">stdlib.h</text>
</g>
<!-- Node1&#45;&gt;Node2 -->
<g id="edge1" class="edge"><title>Node1&#45;&gt;Node2</title>
<path fill="none" stroke="midnightblue" d="M470.333,-176.396C405.517,-168.391 296.085,-153.503 193.024,-132.01"/>
<polygon fill="midnightblue" stroke="midnightblue" points="193.58,-128.55 183.072,-129.909 192.134,-135.399 193.58,-128.55"/>
</g>
<!-- Node3 -->
<g id="node3" class="node"><title>Node3</title>
<g id="a_node3"><a xlink:href="_free_r_t_o_s_8h.html" target="_top" xlink:title="FreeRTOS.h">
<polygon fill="white" stroke="black" points="201.5,-112.5 201.5,-131.5 274.5,-131.5 274.5,-112.5 201.5,-112.5"/>
<text text-anchor="middle" x="238" y="-119.5" font-family="Helvetica,sans-Serif" font-size="10.00">FreeRTOS.h</text>
</a>
</g>
</g>
<!-- Node1&#45;&gt;Node3 -->
<g id="edge2" class="edge"><title>Node1&#45;&gt;Node3</title>
<path fill="none" stroke="midnightblue" d="M470.248,-171.218C416.114,-159.979 335.538,-143.25 284.929,-132.743"/>
<polygon fill="midnightblue" stroke="midnightblue" points="285.417,-129.27 274.914,-130.664 283.994,-136.124 285.417,-129.27"/>
</g>
<!-- Node12 -->
<g id="node12" class="node"><title>Node12</title>
<g id="a_node12"><a xlink:href="task_8h.html" target="_top" xlink:title="task.h">
<polygon fill="white" stroke="black" points="292.5,-112.5 292.5,-131.5 335.5,-131.5 335.5,-112.5 292.5,-112.5"/>
<text text-anchor="middle" x="314" y="-119.5" font-family="Helvetica,sans-Serif" font-size="10.00">task.h</text>
</a>
</g>
</g>
<!-- Node1&#45;&gt;Node12 -->
<g id="edge11" class="edge"><title>Node1&#45;&gt;Node12</title>
<path fill="none" stroke="midnightblue" d="M476.362,-168.947C442.039,-159.39 395.398,-146.344 345.383,-132.09"/>
<polygon fill="midnightblue" stroke="midnightblue" points="346.249,-128.698 335.673,-129.32 344.329,-135.429 346.249,-128.698"/>
</g>
<!-- Node14 -->
<g id="node14" class="node"><title>Node14</title>
<polygon fill="white" stroke="#bfbfbf" points="354,-112.5 354,-131.5 404,-131.5 404,-112.5 354,-112.5"/>
<text text-anchor="middle" x="379" y="-119.5" font-family="Helvetica,sans-Serif" font-size="10.00">board.h</text>
</g>
<!-- Node1&#45;&gt;Node14 -->
<g id="edge13" class="edge"><title>Node1&#45;&gt;Node14</title>
<path fill="none" stroke="midnightblue" d="M492.301,-168.933C467.22,-158.765 433.654,-145.157 409.578,-135.396"/>
<polygon fill="midnightblue" stroke="midnightblue" points="410.796,-132.114 400.213,-131.6 408.166,-138.601 410.796,-132.114"/>
</g>
<!-- Node15 -->
<g id="node15" class="node"><title>Node15</title>
<polygon fill="white" stroke="#bfbfbf" points="422,-112.5 422,-131.5 476,-131.5 476,-112.5 422,-112.5"/>
<text text-anchor="middle" x="449" y="-119.5" font-family="Helvetica,sans-Serif" font-size="10.00">pio/pio.h</text>
</g>
<!-- Node1&#45;&gt;Node15 -->
<g id="edge14" class="edge"><title>Node1&#45;&gt;Node15</title>
<path fill="none" stroke="midnightblue" d="M508.515,-168.781C496.48,-159.523 480.8,-147.462 468.557,-138.044"/>
<polygon fill="midnightblue" stroke="midnightblue" points="470.41,-135.053 460.35,-131.731 466.142,-140.602 470.41,-135.053"/>
</g>
<!-- Node16 -->
<g id="node16" class="node"><title>Node16</title>
<polygon fill="white" stroke="#bfbfbf" points="494.5,-112.5 494.5,-131.5 559.5,-131.5 559.5,-112.5 494.5,-112.5"/>
<text text-anchor="middle" x="527" y="-119.5" font-family="Helvetica,sans-Serif" font-size="10.00">pio/pio_it.h</text>
</g>
<!-- Node1&#45;&gt;Node16 -->
<g id="edge15" class="edge"><title>Node1&#45;&gt;Node16</title>
<path fill="none" stroke="midnightblue" d="M527,-168.781C527,-160.781 527,-150.689 527,-142.017"/>
<polygon fill="midnightblue" stroke="midnightblue" points="530.5,-141.73 527,-131.731 523.5,-141.731 530.5,-141.73"/>
</g>
<!-- Node17 -->
<g id="node17" class="node"><title>Node17</title>
<polygon fill="white" stroke="#bfbfbf" points="577.5,-112.5 577.5,-131.5 626.5,-131.5 626.5,-112.5 577.5,-112.5"/>
<text text-anchor="middle" x="602" y="-119.5" font-family="Helvetica,sans-Serif" font-size="10.00">pit/pit.h</text>
</g>
<!-- Node1&#45;&gt;Node17 -->
<g id="edge16" class="edge"><title>Node1&#45;&gt;Node17</title>
<path fill="none" stroke="midnightblue" d="M544.774,-168.781C556.346,-159.523 571.423,-147.462 583.196,-138.044"/>
<polygon fill="midnightblue" stroke="midnightblue" points="585.465,-140.711 591.087,-131.731 581.092,-135.244 585.465,-140.711"/>
</g>
<!-- Node18 -->
<g id="node18" class="node"><title>Node18</title>
<polygon fill="white" stroke="#bfbfbf" points="644.5,-112.5 644.5,-131.5 697.5,-131.5 697.5,-112.5 644.5,-112.5"/>
<text text-anchor="middle" x="671" y="-119.5" font-family="Helvetica,sans-Serif" font-size="10.00">aic/aic.h</text>
</g>
<!-- Node1&#45;&gt;Node18 -->
<g id="edge17" class="edge"><title>Node1&#45;&gt;Node18</title>
<path fill="none" stroke="midnightblue" d="M560.762,-168.933C585.056,-158.81 617.533,-145.278 640.936,-135.527"/>
<polygon fill="midnightblue" stroke="midnightblue" points="642.475,-138.677 650.36,-131.6 639.783,-132.215 642.475,-138.677"/>
</g>
<!-- Node19 -->
<g id="node19" class="node"><title>Node19</title>
<polygon fill="white" stroke="#bfbfbf" points="715.5,-112.5 715.5,-131.5 758.5,-131.5 758.5,-112.5 715.5,-112.5"/>
<text text-anchor="middle" x="737" y="-119.5" font-family="Helvetica,sans-Serif" font-size="10.00">tc/tc.h</text>
</g>
<!-- Node1&#45;&gt;Node19 -->
<g id="edge18" class="edge"><title>Node1&#45;&gt;Node19</title>
<path fill="none" stroke="midnightblue" d="M576.404,-168.996C610.112,-159.424 656.036,-146.352 705.406,-132.161"/>
<polygon fill="midnightblue" stroke="midnightblue" points="706.681,-135.436 715.324,-129.308 704.746,-128.709 706.681,-135.436"/>
</g>
<!-- Node20 -->
<g id="node20" class="node"><title>Node20</title>
<polygon fill="white" stroke="#bfbfbf" points="777,-112.5 777,-131.5 841,-131.5 841,-112.5 777,-112.5"/>
<text text-anchor="middle" x="809" y="-119.5" font-family="Helvetica,sans-Serif" font-size="10.00">utility/led.h</text>
</g>
<!-- Node1&#45;&gt;Node20 -->
<g id="edge19" class="edge"><title>Node1&#45;&gt;Node20</title>
<path fill="none" stroke="midnightblue" d="M583.741,-170.971C632.376,-160.654 704.303,-145.379 767,-132 767.1,-131.979 767.201,-131.957 767.301,-131.936"/>
<polygon fill="midnightblue" stroke="midnightblue" points="767.85,-135.398 776.898,-129.885 766.387,-128.552 767.85,-135.398"/>
</g>
<!-- Node21 -->
<g id="node21" class="node"><title>Node21</title>
<polygon fill="white" stroke="#bfbfbf" points="859.5,-112.5 859.5,-131.5 932.5,-131.5 932.5,-112.5 859.5,-112.5"/>
<text text-anchor="middle" x="896" y="-119.5" font-family="Helvetica,sans-Serif" font-size="10.00">utility/trace.h</text>
</g>
<!-- Node1&#45;&gt;Node21 -->
<g id="edge20" class="edge"><title>Node1&#45;&gt;Node21</title>
<path fill="none" stroke="midnightblue" d="M583.702,-174.689C646.203,-165.384 749.962,-149.513 849.442,-132.044"/>
<polygon fill="midnightblue" stroke="midnightblue" points="850.124,-135.477 859.364,-130.293 848.908,-128.584 850.124,-135.477"/>
</g>
<!-- Node4 -->
<g id="node4" class="node"><title>Node4</title>
<polygon fill="white" stroke="#bfbfbf" points="0,-56.5 0,-75.5 52,-75.5 52,-56.5 0,-56.5"/>
<text text-anchor="middle" x="26" y="-63.5" font-family="Helvetica,sans-Serif" font-size="10.00">stddef.h</text>
</g>
<!-- Node3&#45;&gt;Node4 -->
<g id="edge3" class="edge"><title>Node3&#45;&gt;Node4</title>
<path fill="none" stroke="midnightblue" d="M204.39,-112.484C170.798,-103.966 117.401,-90.4095 62.3091,-76.3301"/>
<polygon fill="midnightblue" stroke="midnightblue" points="62.9266,-72.8755 52.3713,-73.7894 61.1927,-79.6573 62.9266,-72.8755"/>
</g>
<!-- Node5 -->
<g id="node5" class="node"><title>Node5</title>
<polygon fill="white" stroke="#bfbfbf" points="70.5,-56.5 70.5,-75.5 119.5,-75.5 119.5,-56.5 70.5,-56.5"/>
<text text-anchor="middle" x="95" y="-63.5" font-family="Helvetica,sans-Serif" font-size="10.00">stdint.h</text>
</g>
<!-- Node3&#45;&gt;Node5 -->
<g id="edge4" class="edge"><title>Node3&#45;&gt;Node5</title>
<path fill="none" stroke="midnightblue" d="M215.341,-112.444C191.598,-103.478 154.091,-89.314 127.262,-79.1827"/>
<polygon fill="midnightblue" stroke="midnightblue" points="128.144,-75.7749 117.553,-75.5164 125.671,-82.3235 128.144,-75.7749"/>
</g>
<!-- Node6 -->
<g id="node6" class="node"><title>Node6</title>
<polygon fill="white" stroke="#bfbfbf" points="138,-56.5 138,-75.5 240,-75.5 240,-56.5 138,-56.5"/>
<text text-anchor="middle" x="189" y="-63.5" font-family="Helvetica,sans-Serif" font-size="10.00">FreeRTOSConfig.h</text>
</g>
<!-- Node3&#45;&gt;Node6 -->
<g id="edge5" class="edge"><title>Node3&#45;&gt;Node6</title>
<path fill="none" stroke="midnightblue" d="M229.909,-112.083C222.845,-104.298 212.412,-92.8015 203.851,-83.3665"/>
<polygon fill="midnightblue" stroke="midnightblue" points="206.253,-80.8047 196.941,-75.7511 201.069,-85.5087 206.253,-80.8047"/>
</g>
<!-- Node7 -->
<g id="node7" class="node"><title>Node7</title>
<g id="a_node7"><a xlink:href="projdefs_8h.html" target="_top" xlink:title="projdefs.h">
<polygon fill="white" stroke="black" points="258,-56.5 258,-75.5 318,-75.5 318,-56.5 258,-56.5"/>
<text text-anchor="middle" x="288" y="-63.5" font-family="Helvetica,sans-Serif" font-size="10.00">projdefs.h</text>
</a>
</g>
</g>
<!-- Node3&#45;&gt;Node7 -->
<g id="edge6" class="edge"><title>Node3&#45;&gt;Node7</title>
<path fill="none" stroke="midnightblue" d="M246.256,-112.083C253.465,-104.298 264.11,-92.8015 272.846,-83.3665"/>
<polygon fill="midnightblue" stroke="midnightblue" points="275.671,-85.4666 279.897,-75.7511 270.535,-80.7108 275.671,-85.4666"/>
</g>
<!-- Node8 -->
<g id="node8" class="node"><title>Node8</title>
<g id="a_node8"><a xlink:href="portable_8h.html" target="_top" xlink:title="portable.h">
<polygon fill="white" stroke="black" points="336.5,-56.5 336.5,-75.5 397.5,-75.5 397.5,-56.5 336.5,-56.5"/>
<text text-anchor="middle" x="367" y="-63.5" font-family="Helvetica,sans-Serif" font-size="10.00">portable.h</text>
</a>
</g>
</g>
<!-- Node3&#45;&gt;Node8 -->
<g id="edge7" class="edge"><title>Node3&#45;&gt;Node8</title>
<path fill="none" stroke="midnightblue" d="M258.44,-112.444C279.67,-103.557 313.099,-89.5632 337.255,-79.4514"/>
<polygon fill="midnightblue" stroke="midnightblue" points="338.782,-82.6064 346.655,-75.5164 336.079,-76.1493 338.782,-82.6064"/>
</g>
<!-- Node9 -->
<g id="node9" class="node"><title>Node9</title>
<g id="a_node9"><a xlink:href="deprecated__definitions_8h.html" target="_top" xlink:title="deprecated_definitions.h">
<polygon fill="white" stroke="black" points="188.5,-0.5 188.5,-19.5 313.5,-19.5 313.5,-0.5 188.5,-0.5"/>
<text text-anchor="middle" x="251" y="-7.5" font-family="Helvetica,sans-Serif" font-size="10.00">deprecated_definitions.h</text>
</a>
</g>
</g>
<!-- Node8&#45;&gt;Node9 -->
<g id="edge8" class="edge"><title>Node8&#45;&gt;Node9</title>
<path fill="none" stroke="midnightblue" d="M348.619,-56.4435C329.784,-47.6751 300.269,-33.9355 278.621,-23.8579"/>
<polygon fill="midnightblue" stroke="midnightblue" points="279.838,-20.5637 269.295,-19.5164 276.883,-26.9098 279.838,-20.5637"/>
</g>
<!-- Node10 -->
<g id="node10" class="node"><title>Node10</title>
<polygon fill="white" stroke="#bfbfbf" points="332,-0.5 332,-19.5 402,-19.5 402,-0.5 332,-0.5"/>
<text text-anchor="middle" x="367" y="-7.5" font-family="Helvetica,sans-Serif" font-size="10.00">portmacro.h</text>
</g>
<!-- Node8&#45;&gt;Node10 -->
<g id="edge9" class="edge"><title>Node8&#45;&gt;Node10</title>
<path fill="none" stroke="midnightblue" d="M367,-56.083C367,-49.0059 367,-38.8611 367,-29.9865"/>
<polygon fill="midnightblue" stroke="midnightblue" points="370.5,-29.751 367,-19.7511 363.5,-29.7511 370.5,-29.751"/>
</g>
<!-- Node11 -->
<g id="node11" class="node"><title>Node11</title>
<g id="a_node11"><a xlink:href="mpu__wrappers_8h.html" target="_top" xlink:title="mpu_wrappers.h">
<polygon fill="white" stroke="black" points="420.5,-0.5 420.5,-19.5 511.5,-19.5 511.5,-0.5 420.5,-0.5"/>
<text text-anchor="middle" x="466" y="-7.5" font-family="Helvetica,sans-Serif" font-size="10.00">mpu_wrappers.h</text>
</a>
</g>
</g>
<!-- Node8&#45;&gt;Node11 -->
<g id="edge10" class="edge"><title>Node8&#45;&gt;Node11</title>
<path fill="none" stroke="midnightblue" d="M382.906,-56.324C398.638,-47.7428 422.942,-34.486 441.209,-24.5224"/>
<polygon fill="midnightblue" stroke="midnightblue" points="443.03,-27.5157 450.133,-19.6545 439.678,-21.3704 443.03,-27.5157"/>
</g>
<!-- Node13 -->
<g id="node13" class="node"><title>Node13</title>
<g id="a_node13"><a xlink:href="list_8h.html" target="_top" xlink:title="list.h">
<polygon fill="white" stroke="black" points="415.5,-56.5 415.5,-75.5 452.5,-75.5 452.5,-56.5 415.5,-56.5"/>
<text text-anchor="middle" x="434" y="-63.5" font-family="Helvetica,sans-Serif" font-size="10.00">list.h</text>
</a>
</g>
</g>
<!-- Node12&#45;&gt;Node13 -->
<g id="edge12" class="edge"><title>Node12&#45;&gt;Node13</title>
<path fill="none" stroke="midnightblue" d="M333.014,-112.444C352.703,-103.584 383.669,-89.6488 406.124,-79.5443"/>
<polygon fill="midnightblue" stroke="midnightblue" points="407.786,-82.6344 415.469,-75.339 404.913,-76.251 407.786,-82.6344"/>
</g>
</g>
</svg>
