<?xml version="1.0" encoding="UTF-8" standalone="no"?>
<!DOCTYPE svg PUBLIC "-//W3C//DTD SVG 1.1//EN"
 "http://www.w3.org/Graphics/SVG/1.1/DTD/svg11.dtd">
<!-- Generated by graphviz version 2.30.1 (20130221.2233)
 -->
<!-- Title: source/portable/IAR/RX100/portmacro.h Pages: 1 -->
<svg width="153pt" height="96pt"
 viewBox="0.00 0.00 153.00 96.00" xmlns="http://www.w3.org/2000/svg" xmlns:xlink="http://www.w3.org/1999/xlink">
<g id="graph0" class="graph" transform="scale(1 1) rotate(0) translate(4 92)">
<title>source/portable/IAR/RX100/portmacro.h</title>
<polygon fill="white" stroke="white" points="-4,5 -4,-92 150,-92 150,5 -4,5"/>
<!-- Node1 -->
<g id="node1" class="node"><title>Node1</title>
<polygon fill="#bfbfbf" stroke="black" points="20,-57 20,-87 126,-87 126,-57 20,-57"/>
<text text-anchor="start" x="28" y="-75" font-family="Helvetica,sans-Serif" font-size="10.00">source/portable/IAR</text>
<text text-anchor="middle" x="73" y="-64" font-family="Helvetica,sans-Serif" font-size="10.00">/RX100/portmacro.h</text>
</g>
<!-- Node2 -->
<g id="node2" class="node"><title>Node2</title>
<polygon fill="white" stroke="#bfbfbf" points="0,-0.5 0,-19.5 64,-19.5 64,-0.5 0,-0.5"/>
<text text-anchor="middle" x="32" y="-7.5" font-family="Helvetica,sans-Serif" font-size="10.00">intrinsics.h</text>
</g>
<!-- Node1&#45;&gt;Node2 -->
<g id="edge1" class="edge"><title>Node1&#45;&gt;Node2</title>
<path fill="none" stroke="midnightblue" d="M63.2836,-56.7808C57.3872,-48.152 49.8269,-37.0882 43.6158,-27.9987"/>
<polygon fill="midnightblue" stroke="midnightblue" points="46.4976,-26.0123 37.9659,-19.7305 40.718,-29.9617 46.4976,-26.0123"/>
</g>
<!-- Node3 -->
<g id="node3" class="node"><title>Node3</title>
<polygon fill="white" stroke="#bfbfbf" points="82.5,-0.5 82.5,-19.5 145.5,-19.5 145.5,-0.5 82.5,-0.5"/>
<text text-anchor="middle" x="114" y="-7.5" font-family="Helvetica,sans-Serif" font-size="10.00">machine.h</text>
</g>
<!-- Node1&#45;&gt;Node3 -->
<g id="edge2" class="edge"><title>Node1&#45;&gt;Node3</title>
<path fill="none" stroke="midnightblue" d="M82.7164,-56.7808C88.6128,-48.152 96.1731,-37.0882 102.384,-27.9987"/>
<polygon fill="midnightblue" stroke="midnightblue" points="105.282,-29.9617 108.034,-19.7305 99.5024,-26.0123 105.282,-29.9617"/>
</g>
</g>
</svg>
