<?xml version="1.0" encoding="UTF-8" standalone="no"?>
<!DOCTYPE svg PUBLIC "-//W3C//DTD SVG 1.1//EN"
 "http://www.w3.org/Graphics/SVG/1.1/DTD/svg11.dtd">
<!-- Generated by graphviz version 2.30.1 (20130221.2233)
 -->
<!-- Title: source/portable/IAR/STR91x/port.c Pages: 1 -->
<svg width="528pt" height="208pt"
 viewBox="0.00 0.00 528.00 208.00" xmlns="http://www.w3.org/2000/svg" xmlns:xlink="http://www.w3.org/1999/xlink">
<g id="graph0" class="graph" transform="scale(1 1) rotate(0) translate(4 204)">
<title>source/portable/IAR/STR91x/port.c</title>
<polygon fill="white" stroke="white" points="-4,5 -4,-204 525,-204 525,5 -4,5"/>
<!-- Node1 -->
<g id="node1" class="node"><title>Node1</title>
<polygon fill="#bfbfbf" stroke="black" points="114.5,-169 114.5,-199 219.5,-199 219.5,-169 114.5,-169"/>
<text text-anchor="start" x="122.5" y="-187" font-family="Helvetica,sans-Serif" font-size="10.00">source/portable/IAR</text>
<text text-anchor="middle" x="167" y="-176" font-family="Helvetica,sans-Serif" font-size="10.00">/STR91x/port.c</text>
</g>
<!-- Node2 -->
<g id="node2" class="node"><title>Node2</title>
<polygon fill="white" stroke="#bfbfbf" points="-0.5,-112.5 -0.5,-131.5 56.5,-131.5 56.5,-112.5 -0.5,-112.5"/>
<text text-anchor="middle" x="28" y="-119.5" font-family="Helvetica,sans-Serif" font-size="10.00">91x_lib.h</text>
</g>
<!-- Node1&#45;&gt;Node2 -->
<g id="edge1" class="edge"><title>Node1&#45;&gt;Node2</title>
<path fill="none" stroke="midnightblue" d="M134.411,-168.933C111.064,-158.855 79.8902,-145.399 57.3232,-135.657"/>
<polygon fill="midnightblue" stroke="midnightblue" points="58.4917,-132.35 47.9234,-131.6 55.7175,-138.777 58.4917,-132.35"/>
</g>
<!-- Node3 -->
<g id="node3" class="node"><title>Node3</title>
<polygon fill="white" stroke="#bfbfbf" points="75,-112.5 75,-131.5 123,-131.5 123,-112.5 75,-112.5"/>
<text text-anchor="middle" x="99" y="-119.5" font-family="Helvetica,sans-Serif" font-size="10.00">stdlib.h</text>
</g>
<!-- Node1&#45;&gt;Node3 -->
<g id="edge2" class="edge"><title>Node1&#45;&gt;Node3</title>
<path fill="none" stroke="midnightblue" d="M150.885,-168.781C140.596,-159.703 127.253,-147.929 116.674,-138.595"/>
<polygon fill="midnightblue" stroke="midnightblue" points="118.709,-135.722 108.895,-131.731 114.077,-140.971 118.709,-135.722"/>
</g>
<!-- Node4 -->
<g id="node4" class="node"><title>Node4</title>
<polygon fill="white" stroke="#bfbfbf" points="141,-112.5 141,-131.5 193,-131.5 193,-112.5 141,-112.5"/>
<text text-anchor="middle" x="167" y="-119.5" font-family="Helvetica,sans-Serif" font-size="10.00">assert.h</text>
</g>
<!-- Node1&#45;&gt;Node4 -->
<g id="edge3" class="edge"><title>Node1&#45;&gt;Node4</title>
<path fill="none" stroke="midnightblue" d="M167,-168.781C167,-160.781 167,-150.689 167,-142.017"/>
<polygon fill="midnightblue" stroke="midnightblue" points="170.5,-141.73 167,-131.731 163.5,-141.731 170.5,-141.73"/>
</g>
<!-- Node5 -->
<g id="node5" class="node"><title>Node5</title>
<g id="a_node5"><a xlink:href="_free_r_t_o_s_8h.html" target="_top" xlink:title="FreeRTOS.h">
<polygon fill="white" stroke="black" points="211.5,-112.5 211.5,-131.5 284.5,-131.5 284.5,-112.5 211.5,-112.5"/>
<text text-anchor="middle" x="248" y="-119.5" font-family="Helvetica,sans-Serif" font-size="10.00">FreeRTOS.h</text>
</a>
</g>
</g>
<!-- Node1&#45;&gt;Node5 -->
<g id="edge4" class="edge"><title>Node1&#45;&gt;Node5</title>
<path fill="none" stroke="midnightblue" d="M186.196,-168.781C198.816,-159.433 215.293,-147.227 228.061,-137.77"/>
<polygon fill="midnightblue" stroke="midnightblue" points="230.262,-140.495 236.214,-131.731 226.095,-134.87 230.262,-140.495"/>
</g>
<!-- Node14 -->
<g id="node14" class="node"><title>Node14</title>
<g id="a_node14"><a xlink:href="task_8h.html" target="_top" xlink:title="task.h">
<polygon fill="white" stroke="black" points="361.5,-112.5 361.5,-131.5 404.5,-131.5 404.5,-112.5 361.5,-112.5"/>
<text text-anchor="middle" x="383" y="-119.5" font-family="Helvetica,sans-Serif" font-size="10.00">task.h</text>
</a>
</g>
</g>
<!-- Node1&#45;&gt;Node14 -->
<g id="edge13" class="edge"><title>Node1&#45;&gt;Node14</title>
<path fill="none" stroke="midnightblue" d="M217.642,-168.933C259.18,-157.394 316.664,-141.427 351.761,-131.677"/>
<polygon fill="midnightblue" stroke="midnightblue" points="352.765,-135.031 361.464,-128.982 350.892,-128.287 352.765,-135.031"/>
</g>
<!-- Node6 -->
<g id="node6" class="node"><title>Node6</title>
<polygon fill="white" stroke="#bfbfbf" points="9,-56.5 9,-75.5 61,-75.5 61,-56.5 9,-56.5"/>
<text text-anchor="middle" x="35" y="-63.5" font-family="Helvetica,sans-Serif" font-size="10.00">stddef.h</text>
</g>
<!-- Node5&#45;&gt;Node6 -->
<g id="edge5" class="edge"><title>Node5&#45;&gt;Node6</title>
<path fill="none" stroke="midnightblue" d="M214.197,-112.498C180.413,-103.991 126.711,-90.4425 71.3553,-76.3387"/>
<polygon fill="midnightblue" stroke="midnightblue" points="71.925,-72.872 61.3703,-73.7932 70.1958,-79.6551 71.925,-72.872"/>
</g>
<!-- Node7 -->
<g id="node7" class="node"><title>Node7</title>
<polygon fill="white" stroke="#bfbfbf" points="79.5,-56.5 79.5,-75.5 128.5,-75.5 128.5,-56.5 79.5,-56.5"/>
<text text-anchor="middle" x="104" y="-63.5" font-family="Helvetica,sans-Serif" font-size="10.00">stdint.h</text>
</g>
<!-- Node5&#45;&gt;Node7 -->
<g id="edge6" class="edge"><title>Node5&#45;&gt;Node7</title>
<path fill="none" stroke="midnightblue" d="M225.183,-112.444C201.168,-103.438 163.171,-89.1891 136.131,-79.049"/>
<polygon fill="midnightblue" stroke="midnightblue" points="137.303,-75.7506 126.71,-75.5164 134.845,-82.3049 137.303,-75.7506"/>
</g>
<!-- Node8 -->
<g id="node8" class="node"><title>Node8</title>
<polygon fill="white" stroke="#bfbfbf" points="147,-56.5 147,-75.5 249,-75.5 249,-56.5 147,-56.5"/>
<text text-anchor="middle" x="198" y="-63.5" font-family="Helvetica,sans-Serif" font-size="10.00">FreeRTOSConfig.h</text>
</g>
<!-- Node5&#45;&gt;Node8 -->
<g id="edge7" class="edge"><title>Node5&#45;&gt;Node8</title>
<path fill="none" stroke="midnightblue" d="M239.744,-112.083C232.535,-104.298 221.89,-92.8015 213.154,-83.3665"/>
<polygon fill="midnightblue" stroke="midnightblue" points="215.465,-80.7108 206.103,-75.7511 210.329,-85.4666 215.465,-80.7108"/>
</g>
<!-- Node9 -->
<g id="node9" class="node"><title>Node9</title>
<g id="a_node9"><a xlink:href="projdefs_8h.html" target="_top" xlink:title="projdefs.h">
<polygon fill="white" stroke="black" points="267,-56.5 267,-75.5 327,-75.5 327,-56.5 267,-56.5"/>
<text text-anchor="middle" x="297" y="-63.5" font-family="Helvetica,sans-Serif" font-size="10.00">projdefs.h</text>
</a>
</g>
</g>
<!-- Node5&#45;&gt;Node9 -->
<g id="edge8" class="edge"><title>Node5&#45;&gt;Node9</title>
<path fill="none" stroke="midnightblue" d="M256.091,-112.083C263.155,-104.298 273.588,-92.8015 282.149,-83.3665"/>
<polygon fill="midnightblue" stroke="midnightblue" points="284.931,-85.5087 289.059,-75.7511 279.747,-80.8047 284.931,-85.5087"/>
</g>
<!-- Node10 -->
<g id="node10" class="node"><title>Node10</title>
<g id="a_node10"><a xlink:href="portable_8h.html" target="_top" xlink:title="portable.h">
<polygon fill="white" stroke="black" points="345.5,-56.5 345.5,-75.5 406.5,-75.5 406.5,-56.5 345.5,-56.5"/>
<text text-anchor="middle" x="376" y="-63.5" font-family="Helvetica,sans-Serif" font-size="10.00">portable.h</text>
</a>
</g>
</g>
<!-- Node5&#45;&gt;Node10 -->
<g id="edge9" class="edge"><title>Node5&#45;&gt;Node10</title>
<path fill="none" stroke="midnightblue" d="M268.282,-112.444C289.347,-103.557 322.517,-89.5632 346.486,-79.4514"/>
<polygon fill="midnightblue" stroke="midnightblue" points="347.96,-82.6283 355.813,-75.5164 345.239,-76.1787 347.96,-82.6283"/>
</g>
<!-- Node11 -->
<g id="node11" class="node"><title>Node11</title>
<g id="a_node11"><a xlink:href="deprecated__definitions_8h.html" target="_top" xlink:title="deprecated_definitions.h">
<polygon fill="white" stroke="black" points="197.5,-0.5 197.5,-19.5 322.5,-19.5 322.5,-0.5 197.5,-0.5"/>
<text text-anchor="middle" x="260" y="-7.5" font-family="Helvetica,sans-Serif" font-size="10.00">deprecated_definitions.h</text>
</a>
</g>
</g>
<!-- Node10&#45;&gt;Node11 -->
<g id="edge10" class="edge"><title>Node10&#45;&gt;Node11</title>
<path fill="none" stroke="midnightblue" d="M357.619,-56.4435C338.784,-47.6751 309.269,-33.9355 287.621,-23.8579"/>
<polygon fill="midnightblue" stroke="midnightblue" points="288.838,-20.5637 278.295,-19.5164 285.883,-26.9098 288.838,-20.5637"/>
</g>
<!-- Node12 -->
<g id="node12" class="node"><title>Node12</title>
<polygon fill="white" stroke="#bfbfbf" points="341,-0.5 341,-19.5 411,-19.5 411,-0.5 341,-0.5"/>
<text text-anchor="middle" x="376" y="-7.5" font-family="Helvetica,sans-Serif" font-size="10.00">portmacro.h</text>
</g>
<!-- Node10&#45;&gt;Node12 -->
<g id="edge11" class="edge"><title>Node10&#45;&gt;Node12</title>
<path fill="none" stroke="midnightblue" d="M376,-56.083C376,-49.0059 376,-38.8611 376,-29.9865"/>
<polygon fill="midnightblue" stroke="midnightblue" points="379.5,-29.751 376,-19.7511 372.5,-29.7511 379.5,-29.751"/>
</g>
<!-- Node13 -->
<g id="node13" class="node"><title>Node13</title>
<g id="a_node13"><a xlink:href="mpu__wrappers_8h.html" target="_top" xlink:title="mpu_wrappers.h">
<polygon fill="white" stroke="black" points="429.5,-0.5 429.5,-19.5 520.5,-19.5 520.5,-0.5 429.5,-0.5"/>
<text text-anchor="middle" x="475" y="-7.5" font-family="Helvetica,sans-Serif" font-size="10.00">mpu_wrappers.h</text>
</a>
</g>
</g>
<!-- Node10&#45;&gt;Node13 -->
<g id="edge12" class="edge"><title>Node10&#45;&gt;Node13</title>
<path fill="none" stroke="midnightblue" d="M391.906,-56.324C407.638,-47.7428 431.942,-34.486 450.209,-24.5224"/>
<polygon fill="midnightblue" stroke="midnightblue" points="452.03,-27.5157 459.133,-19.6545 448.678,-21.3704 452.03,-27.5157"/>
</g>
<!-- Node15 -->
<g id="node15" class="node"><title>Node15</title>
<g id="a_node15"><a xlink:href="list_8h.html" target="_top" xlink:title="list.h">
<polygon fill="white" stroke="black" points="424.5,-56.5 424.5,-75.5 461.5,-75.5 461.5,-56.5 424.5,-56.5"/>
<text text-anchor="middle" x="443" y="-63.5" font-family="Helvetica,sans-Serif" font-size="10.00">list.h</text>
</a>
</g>
</g>
<!-- Node14&#45;&gt;Node15 -->
<g id="edge14" class="edge"><title>Node14&#45;&gt;Node15</title>
<path fill="none" stroke="midnightblue" d="M392.64,-112.324C401.51,-104.341 414.875,-92.3128 425.608,-82.6529"/>
<polygon fill="midnightblue" stroke="midnightblue" points="428.093,-85.1251 433.185,-75.8339 423.41,-79.922 428.093,-85.1251"/>
</g>
</g>
</svg>
