<?xml version="1.0" encoding="UTF-8" standalone="no"?>
<!DOCTYPE svg PUBLIC "-//W3C//DTD SVG 1.1//EN"
 "http://www.w3.org/Graphics/SVG/1.1/DTD/svg11.dtd">
<!-- Generated by graphviz version 2.30.1 (20130221.2233)
 -->
<!-- Title: TIM2_IRQHandler Pages: 1 -->
<svg width="366pt" height="85pt"
 viewBox="0.00 0.00 366.00 85.00" xmlns="http://www.w3.org/2000/svg" xmlns:xlink="http://www.w3.org/1999/xlink">
<g id="graph0" class="graph" transform="scale(1 1) rotate(0) translate(4 81)">
<title>TIM2_IRQHandler</title>
<polygon fill="white" stroke="white" points="-4,5 -4,-81 363,-81 363,5 -4,5"/>
<!-- Node1 -->
<g id="node1" class="node"><title>Node1</title>
<polygon fill="#bfbfbf" stroke="black" points="0,-38.5 0,-57.5 98,-57.5 98,-38.5 0,-38.5"/>
<text text-anchor="middle" x="49" y="-45.5" font-family="Helvetica,sans-Serif" font-size="10.00">TIM2_IRQHandler</text>
</g>
<!-- Node2 -->
<g id="node2" class="node"><title>Node2</title>
<g id="a_node2"><a xlink:href="_renesas_2_r_x100_2port_8c.html#a9c86137bc3c1cbffc39fff22627cb885" target="_top" xlink:title="vTaskSwitchContext">
<polygon fill="white" stroke="black" points="134.5,-57.5 134.5,-76.5 241.5,-76.5 241.5,-57.5 134.5,-57.5"/>
<text text-anchor="middle" x="188" y="-64.5" font-family="Helvetica,sans-Serif" font-size="10.00">vTaskSwitchContext</text>
</a>
</g>
</g>
<!-- Node1&#45;&gt;Node2 -->
<g id="edge1" class="edge"><title>Node1&#45;&gt;Node2</title>
<path fill="none" stroke="midnightblue" d="M98.3011,-54.6987C106.717,-55.8659 115.581,-57.0951 124.317,-58.3067"/>
<polygon fill="midnightblue" stroke="midnightblue" points="124.093,-61.8091 134.479,-59.7161 125.055,-54.8755 124.093,-61.8091"/>
</g>
<!-- Node3 -->
<g id="node3" class="node"><title>Node3</title>
<g id="a_node3"><a xlink:href="task_8h.html#a978e25460ac35706f9ad30b46d9403d8" target="_top" xlink:title="xTaskIncrementTick">
<polygon fill="white" stroke="black" points="135,-19.5 135,-38.5 241,-38.5 241,-19.5 135,-19.5"/>
<text text-anchor="middle" x="188" y="-26.5" font-family="Helvetica,sans-Serif" font-size="10.00">xTaskIncrementTick</text>
</a>
</g>
</g>
<!-- Node1&#45;&gt;Node3 -->
<g id="edge2" class="edge"><title>Node1&#45;&gt;Node3</title>
<path fill="none" stroke="midnightblue" d="M98.3011,-41.3013C106.921,-40.1059 116.009,-38.8454 124.95,-37.6055"/>
<polygon fill="midnightblue" stroke="midnightblue" points="125.524,-41.0595 134.948,-36.2189 124.562,-34.1258 125.524,-41.0595"/>
</g>
<!-- Node4 -->
<g id="node4" class="node"><title>Node4</title>
<g id="a_node4"><a xlink:href="list_8h.html#a2eb1558482076fff8cafc63419c2d34a" target="_top" xlink:title="uxListRemove">
<polygon fill="white" stroke="black" points="278,-38.5 278,-57.5 358,-57.5 358,-38.5 278,-38.5"/>
<text text-anchor="middle" x="318" y="-45.5" font-family="Helvetica,sans-Serif" font-size="10.00">uxListRemove</text>
</a>
</g>
</g>
<!-- Node3&#45;&gt;Node4 -->
<g id="edge3" class="edge"><title>Node3&#45;&gt;Node4</title>
<path fill="none" stroke="midnightblue" d="M241.062,-36.728C249.918,-38.0424 259.089,-39.4038 267.865,-40.7065"/>
<polygon fill="midnightblue" stroke="midnightblue" points="267.538,-44.1963 277.944,-42.2026 268.566,-37.2722 267.538,-44.1963"/>
</g>
<!-- Node5 -->
<g id="node5" class="node"><title>Node5</title>
<g id="a_node5"><a xlink:href="_paradigm_2_tern___e_e_2small_2portmacro_8h.html#a14d32f8130d3c0b212cfc751730b5b49" target="_top" xlink:title="void">
<polygon fill="white" stroke="black" points="300.5,-0.5 300.5,-19.5 335.5,-19.5 335.5,-0.5 300.5,-0.5"/>
<text text-anchor="middle" x="318" y="-7.5" font-family="Helvetica,sans-Serif" font-size="10.00">void</text>
</a>
</g>
</g>
<!-- Node3&#45;&gt;Node5 -->
<g id="edge4" class="edge"><title>Node3&#45;&gt;Node5</title>
<path fill="none" stroke="midnightblue" d="M241.062,-21.272C257.94,-18.7667 275.966,-16.0911 290.218,-13.9755"/>
<polygon fill="midnightblue" stroke="midnightblue" points="290.921,-17.4095 300.299,-12.479 289.894,-10.4853 290.921,-17.4095"/>
</g>
</g>
</svg>
