<?xml version="1.0" encoding="UTF-8" standalone="no"?>
<!DOCTYPE svg PUBLIC "-//W3C//DTD SVG 1.1//EN"
 "http://www.w3.org/Graphics/SVG/1.1/DTD/svg11.dtd">
<!-- Generated by graphviz version 2.30.1 (20130221.2233)
 -->
<!-- Title: prvSetupTimerInterrupt Pages: 1 -->
<svg width="552pt" height="142pt"
 viewBox="0.00 0.00 552.00 142.00" xmlns="http://www.w3.org/2000/svg" xmlns:xlink="http://www.w3.org/1999/xlink">
<g id="graph0" class="graph" transform="scale(1 1) rotate(0) translate(4 138)">
<title>prvSetupTimerInterrupt</title>
<polygon fill="white" stroke="white" points="-4,5 -4,-138 549,-138 549,5 -4,5"/>
<!-- Node1 -->
<g id="node1" class="node"><title>Node1</title>
<polygon fill="#bfbfbf" stroke="black" points="0.5,-57.5 0.5,-76.5 119.5,-76.5 119.5,-57.5 0.5,-57.5"/>
<text text-anchor="middle" x="60" y="-64.5" font-family="Helvetica,sans-Serif" font-size="10.00">prvSetupTimerInterrupt</text>
</g>
<!-- Node2 -->
<g id="node2" class="node"><title>Node2</title>
<g id="a_node2"><a xlink:href="_g_c_c_2_a_r_m7___a_t91_s_a_m7_s_2lib___a_t91_s_a_m7_x256_8h.html#a1553f687d03391a84adb3b14c1ff7d23" target="_top" xlink:title="AT91F_AIC_EnableIt">
<polygon fill="white" stroke="black" points="164.5,-114.5 164.5,-133.5 275.5,-133.5 275.5,-114.5 164.5,-114.5"/>
<text text-anchor="middle" x="220" y="-121.5" font-family="Helvetica,sans-Serif" font-size="10.00">AT91F_AIC_EnableIt</text>
</a>
</g>
</g>
<!-- Node1&#45;&gt;Node2 -->
<g id="edge1" class="edge"><title>Node1&#45;&gt;Node2</title>
<path fill="none" stroke="midnightblue" d="M87.4456,-76.5405C113.535,-85.9527 153.621,-100.414 182.687,-110.9"/>
<polygon fill="midnightblue" stroke="midnightblue" points="181.874,-114.327 192.468,-114.428 184.249,-107.742 181.874,-114.327"/>
</g>
<!-- Node3 -->
<g id="node3" class="node"><title>Node3</title>
<g id="a_node3"><a xlink:href="_paradigm_2_tern___e_e_2small_2portmacro_8h.html#a14d32f8130d3c0b212cfc751730b5b49" target="_top" xlink:title="void">
<polygon fill="white" stroke="black" points="486.5,-76.5 486.5,-95.5 521.5,-95.5 521.5,-76.5 486.5,-76.5"/>
<text text-anchor="middle" x="504" y="-83.5" font-family="Helvetica,sans-Serif" font-size="10.00">void</text>
</a>
</g>
</g>
<!-- Node1&#45;&gt;Node3 -->
<g id="edge2" class="edge"><title>Node1&#45;&gt;Node3</title>
<path fill="none" stroke="midnightblue" d="M119.694,-69.5231C216.435,-73.6816 405.65,-81.8153 475.898,-84.835"/>
<polygon fill="midnightblue" stroke="midnightblue" points="475.977,-88.3415 486.118,-85.2743 476.278,-81.348 475.977,-88.3415"/>
</g>
<!-- Node4 -->
<g id="node4" class="node"><title>Node4</title>
<g id="a_node4"><a xlink:href="_c_c_s_2_a_r_m___cortex-_r4_2port_8c.html#aa3d36248da898dd1d2ae1784c76bdb9c" target="_top" xlink:title="vPortNonPreemptiveTick">
<polygon fill="white" stroke="black" points="156.5,-38.5 156.5,-57.5 283.5,-57.5 283.5,-38.5 156.5,-38.5"/>
<text text-anchor="middle" x="220" y="-45.5" font-family="Helvetica,sans-Serif" font-size="10.00">vPortNonPreemptiveTick</text>
</a>
</g>
</g>
<!-- Node1&#45;&gt;Node4 -->
<g id="edge3" class="edge"><title>Node1&#45;&gt;Node4</title>
<path fill="none" stroke="midnightblue" d="M119.833,-59.9251C128.503,-58.8826 137.52,-57.7983 146.427,-56.7271"/>
<polygon fill="midnightblue" stroke="midnightblue" points="146.902,-60.1953 156.412,-55.5264 146.066,-53.2454 146.902,-60.1953"/>
</g>
<!-- Node7 -->
<g id="node7" class="node"><title>Node7</title>
<g id="a_node7"><a xlink:href="_i_a_r_2_s_t_r71x_2port_8c.html#afa0af0d6450abd50943523742eb8090b" target="_top" xlink:title="vPortPreemptiveTick">
<polygon fill="white" stroke="black" points="165.5,-0.5 165.5,-19.5 274.5,-19.5 274.5,-0.5 165.5,-0.5"/>
<text text-anchor="middle" x="220" y="-7.5" font-family="Helvetica,sans-Serif" font-size="10.00">vPortPreemptiveTick</text>
</a>
</g>
</g>
<!-- Node1&#45;&gt;Node7 -->
<g id="edge7" class="edge"><title>Node1&#45;&gt;Node7</title>
<path fill="none" stroke="midnightblue" d="M83.4392,-57.3781C102.558,-49.3364 130.851,-37.8032 156,-29 162.375,-26.7684 169.166,-24.5542 175.841,-22.4683"/>
<polygon fill="midnightblue" stroke="midnightblue" points="176.938,-25.7927 185.474,-19.5169 174.888,-19.0997 176.938,-25.7927"/>
</g>
<!-- Node5 -->
<g id="node5" class="node"><title>Node5</title>
<g id="a_node5"><a xlink:href="task_8h.html#a978e25460ac35706f9ad30b46d9403d8" target="_top" xlink:title="xTaskIncrementTick">
<polygon fill="white" stroke="black" points="321,-38.5 321,-57.5 427,-57.5 427,-38.5 321,-38.5"/>
<text text-anchor="middle" x="374" y="-45.5" font-family="Helvetica,sans-Serif" font-size="10.00">xTaskIncrementTick</text>
</a>
</g>
</g>
<!-- Node4&#45;&gt;Node5 -->
<g id="edge4" class="edge"><title>Node4&#45;&gt;Node5</title>
<path fill="none" stroke="midnightblue" d="M283.702,-48C292.518,-48 301.582,-48 310.396,-48"/>
<polygon fill="midnightblue" stroke="midnightblue" points="310.6,-51.5001 320.6,-48 310.6,-44.5001 310.6,-51.5001"/>
</g>
<!-- Node6 -->
<g id="node6" class="node"><title>Node6</title>
<g id="a_node6"><a xlink:href="list_8h.html#a2eb1558482076fff8cafc63419c2d34a" target="_top" xlink:title="uxListRemove">
<polygon fill="white" stroke="black" points="464,-38.5 464,-57.5 544,-57.5 544,-38.5 464,-38.5"/>
<text text-anchor="middle" x="504" y="-45.5" font-family="Helvetica,sans-Serif" font-size="10.00">uxListRemove</text>
</a>
</g>
</g>
<!-- Node5&#45;&gt;Node6 -->
<g id="edge5" class="edge"><title>Node5&#45;&gt;Node6</title>
<path fill="none" stroke="midnightblue" d="M427.062,-48C435.918,-48 445.089,-48 453.865,-48"/>
<polygon fill="midnightblue" stroke="midnightblue" points="453.944,-51.5001 463.944,-48 453.944,-44.5001 453.944,-51.5001"/>
</g>
<!-- Node5&#45;&gt;Node3 -->
<g id="edge6" class="edge"><title>Node5&#45;&gt;Node3</title>
<path fill="none" stroke="midnightblue" d="M407.3,-57.589C428.743,-63.9548 456.537,-72.2063 476.642,-78.1751"/>
<polygon fill="midnightblue" stroke="midnightblue" points="475.798,-81.5755 486.381,-81.0663 477.791,-74.8649 475.798,-81.5755"/>
</g>
<!-- Node7&#45;&gt;Node5 -->
<g id="edge8" class="edge"><title>Node7&#45;&gt;Node5</title>
<path fill="none" stroke="midnightblue" d="M259.356,-19.589C279.324,-24.5809 303.93,-30.7324 325.133,-36.0334"/>
<polygon fill="midnightblue" stroke="midnightblue" points="324.369,-39.45 334.92,-38.4799 326.067,-32.659 324.369,-39.45"/>
</g>
<!-- Node8 -->
<g id="node8" class="node"><title>Node8</title>
<g id="a_node8"><a xlink:href="_renesas_2_r_x100_2port_8c.html#a9c86137bc3c1cbffc39fff22627cb885" target="_top" xlink:title="vTaskSwitchContext">
<polygon fill="white" stroke="black" points="320.5,-0.5 320.5,-19.5 427.5,-19.5 427.5,-0.5 320.5,-0.5"/>
<text text-anchor="middle" x="374" y="-7.5" font-family="Helvetica,sans-Serif" font-size="10.00">vTaskSwitchContext</text>
</a>
</g>
</g>
<!-- Node7&#45;&gt;Node8 -->
<g id="edge9" class="edge"><title>Node7&#45;&gt;Node8</title>
<path fill="none" stroke="midnightblue" d="M274.59,-10C286.092,-10 298.347,-10 310.164,-10"/>
<polygon fill="midnightblue" stroke="midnightblue" points="310.406,-13.5001 320.406,-10 310.406,-6.5001 310.406,-13.5001"/>
</g>
</g>
</svg>
