<?xml version="1.0" encoding="UTF-8" standalone="no"?>
<!DOCTYPE svg PUBLIC "-//W3C//DTD SVG 1.1//EN"
 "http://www.w3.org/Graphics/SVG/1.1/DTD/svg11.dtd">
<!-- Generated by graphviz version 2.30.1 (20130221.2233)
 -->
<!-- Title: xPortStartScheduler Pages: 1 -->
<svg width="692pt" height="104pt"
 viewBox="0.00 0.00 692.00 104.00" xmlns="http://www.w3.org/2000/svg" xmlns:xlink="http://www.w3.org/1999/xlink">
<g id="graph0" class="graph" transform="scale(1 1) rotate(0) translate(4 100)">
<title>xPortStartScheduler</title>
<polygon fill="white" stroke="white" points="-4,5 -4,-100 689,-100 689,5 -4,5"/>
<!-- Node1 -->
<g id="node1" class="node"><title>Node1</title>
<polygon fill="#bfbfbf" stroke="black" points="0,-19.5 0,-38.5 106,-38.5 106,-19.5 0,-19.5"/>
<text text-anchor="middle" x="53" y="-26.5" font-family="Helvetica,sans-Serif" font-size="10.00">xPortStartScheduler</text>
</g>
<!-- Node2 -->
<g id="node2" class="node"><title>Node2</title>
<g id="a_node2"><a xlink:href="_i_a_r_2_l_p_c2000_2port_8c.html#aeb91268bfbb6dc04ff839631ee5c72ba" target="_top" xlink:title="prvSetupTimerInterrupt">
<polygon fill="white" stroke="black" points="142.5,-38.5 142.5,-57.5 261.5,-57.5 261.5,-38.5 142.5,-38.5"/>
<text text-anchor="middle" x="202" y="-45.5" font-family="Helvetica,sans-Serif" font-size="10.00">prvSetupTimerInterrupt</text>
</a>
</g>
</g>
<!-- Node1&#45;&gt;Node2 -->
<g id="edge1" class="edge"><title>Node1&#45;&gt;Node2</title>
<path fill="none" stroke="midnightblue" d="M106.241,-35.7522C114.663,-36.8408 123.493,-37.9821 132.234,-39.1118"/>
<polygon fill="midnightblue" stroke="midnightblue" points="132.057,-42.618 142.423,-40.4288 132.954,-35.6758 132.057,-42.618"/>
</g>
<!-- Node8 -->
<g id="node8" class="node"><title>Node8</title>
<g id="a_node8"><a xlink:href="_c_c_s_2_a_r_m___c_m4_f_2port_8c.html#a5cfc38319f17c8e804020ec247b6325d" target="_top" xlink:title="vPortStartFirstTask">
<polygon fill="white" stroke="black" points="151,-0.5 151,-19.5 253,-19.5 253,-0.5 151,-0.5"/>
<text text-anchor="middle" x="202" y="-7.5" font-family="Helvetica,sans-Serif" font-size="10.00">vPortStartFirstTask</text>
</a>
</g>
</g>
<!-- Node1&#45;&gt;Node8 -->
<g id="edge9" class="edge"><title>Node1&#45;&gt;Node8</title>
<path fill="none" stroke="midnightblue" d="M106.241,-22.2478C117.474,-20.7959 129.433,-19.2502 140.936,-17.7633"/>
<polygon fill="midnightblue" stroke="midnightblue" points="141.43,-21.2287 150.899,-16.4756 140.533,-14.2864 141.43,-21.2287"/>
</g>
<!-- Node3 -->
<g id="node3" class="node"><title>Node3</title>
<g id="a_node3"><a xlink:href="_r_v_d_s_2_a_r_m7___l_p_c21xx_2port_8c.html#ac642f8fce0e1256dd848a1e4ffd0c30c" target="_top" xlink:title="vNonPreemptiveTick">
<polygon fill="white" stroke="black" points="307.5,-76.5 307.5,-95.5 416.5,-95.5 416.5,-76.5 307.5,-76.5"/>
<text text-anchor="middle" x="362" y="-83.5" font-family="Helvetica,sans-Serif" font-size="10.00">vNonPreemptiveTick</text>
</a>
</g>
</g>
<!-- Node2&#45;&gt;Node3 -->
<g id="edge2" class="edge"><title>Node2&#45;&gt;Node3</title>
<path fill="none" stroke="midnightblue" d="M242.87,-57.589C263.72,-62.6035 289.435,-68.7881 311.543,-74.1053"/>
<polygon fill="midnightblue" stroke="midnightblue" points="310.875,-77.5445 321.417,-76.4799 312.512,-70.7385 310.875,-77.5445"/>
</g>
<!-- Node6 -->
<g id="node6" class="node"><title>Node6</title>
<g id="a_node6"><a xlink:href="_paradigm_2_tern___e_e_2small_2portmacro_8h.html#a14d32f8130d3c0b212cfc751730b5b49" target="_top" xlink:title="void">
<polygon fill="white" stroke="black" points="626.5,-0.5 626.5,-19.5 661.5,-19.5 661.5,-0.5 626.5,-0.5"/>
<text text-anchor="middle" x="644" y="-7.5" font-family="Helvetica,sans-Serif" font-size="10.00">void</text>
</a>
</g>
</g>
<!-- Node2&#45;&gt;Node6 -->
<g id="edge6" class="edge"><title>Node2&#45;&gt;Node6</title>
<path fill="none" stroke="midnightblue" d="M243.94,-38.4853C260.621,-34.9562 280.146,-31.2653 298,-29 415.962,-14.0329 558.094,-10.8526 616.24,-10.1794"/>
<polygon fill="midnightblue" stroke="midnightblue" points="616.442,-13.6777 626.407,-10.078 616.372,-6.67802 616.442,-13.6777"/>
</g>
<!-- Node7 -->
<g id="node7" class="node"><title>Node7</title>
<g id="a_node7"><a xlink:href="_c_c_s_2_a_r_m___cortex-_r4_2port_8c.html#aa3d36248da898dd1d2ae1784c76bdb9c" target="_top" xlink:title="vPortNonPreemptiveTick">
<polygon fill="white" stroke="black" points="298.5,-38.5 298.5,-57.5 425.5,-57.5 425.5,-38.5 298.5,-38.5"/>
<text text-anchor="middle" x="362" y="-45.5" font-family="Helvetica,sans-Serif" font-size="10.00">vPortNonPreemptiveTick</text>
</a>
</g>
</g>
<!-- Node2&#45;&gt;Node7 -->
<g id="edge7" class="edge"><title>Node2&#45;&gt;Node7</title>
<path fill="none" stroke="midnightblue" d="M261.833,-48C270.41,-48 279.326,-48 288.14,-48"/>
<polygon fill="midnightblue" stroke="midnightblue" points="288.412,-51.5001 298.412,-48 288.412,-44.5001 288.412,-51.5001"/>
</g>
<!-- Node4 -->
<g id="node4" class="node"><title>Node4</title>
<g id="a_node4"><a xlink:href="task_8h.html#a978e25460ac35706f9ad30b46d9403d8" target="_top" xlink:title="xTaskIncrementTick">
<polygon fill="white" stroke="black" points="462,-38.5 462,-57.5 568,-57.5 568,-38.5 462,-38.5"/>
<text text-anchor="middle" x="515" y="-45.5" font-family="Helvetica,sans-Serif" font-size="10.00">xTaskIncrementTick</text>
</a>
</g>
</g>
<!-- Node3&#45;&gt;Node4 -->
<g id="edge3" class="edge"><title>Node3&#45;&gt;Node4</title>
<path fill="none" stroke="midnightblue" d="M401.104,-76.411C420.94,-71.4191 445.384,-65.2676 466.448,-59.9666"/>
<polygon fill="midnightblue" stroke="midnightblue" points="467.327,-63.3548 476.17,-57.5201 465.618,-56.5664 467.327,-63.3548"/>
</g>
<!-- Node5 -->
<g id="node5" class="node"><title>Node5</title>
<g id="a_node5"><a xlink:href="list_8h.html#a2eb1558482076fff8cafc63419c2d34a" target="_top" xlink:title="uxListRemove">
<polygon fill="white" stroke="black" points="604,-38.5 604,-57.5 684,-57.5 684,-38.5 604,-38.5"/>
<text text-anchor="middle" x="644" y="-45.5" font-family="Helvetica,sans-Serif" font-size="10.00">uxListRemove</text>
</a>
</g>
</g>
<!-- Node4&#45;&gt;Node5 -->
<g id="edge4" class="edge"><title>Node4&#45;&gt;Node5</title>
<path fill="none" stroke="midnightblue" d="M568.022,-48C576.496,-48 585.252,-48 593.659,-48"/>
<polygon fill="midnightblue" stroke="midnightblue" points="593.698,-51.5001 603.698,-48 593.698,-44.5001 593.698,-51.5001"/>
</g>
<!-- Node4&#45;&gt;Node6 -->
<g id="edge5" class="edge"><title>Node4&#45;&gt;Node6</title>
<path fill="none" stroke="midnightblue" d="M548.047,-38.411C569.198,-32.0826 596.576,-23.8907 616.496,-17.9305"/>
<polygon fill="midnightblue" stroke="midnightblue" points="617.583,-21.2585 626.16,-15.0387 615.576,-14.5523 617.583,-21.2585"/>
</g>
<!-- Node7&#45;&gt;Node4 -->
<g id="edge8" class="edge"><title>Node7&#45;&gt;Node4</title>
<path fill="none" stroke="midnightblue" d="M425.726,-48C434.252,-48 443.001,-48 451.523,-48"/>
<polygon fill="midnightblue" stroke="midnightblue" points="451.773,-51.5001 461.773,-48 451.773,-44.5001 451.773,-51.5001"/>
</g>
</g>
</svg>
