<?xml version="1.0" encoding="UTF-8" standalone="no"?>
<!DOCTYPE svg PUBLIC "-//W3C//DTD SVG 1.1//EN"
 "http://www.w3.org/Graphics/SVG/1.1/DTD/svg11.dtd">
<!-- Generated by graphviz version 2.30.1 (20130221.2233)
 -->
<!-- Title: vPortYieldFromTick Pages: 1 -->
<svg width="372pt" height="85pt"
 viewBox="0.00 0.00 372.00 85.00" xmlns="http://www.w3.org/2000/svg" xmlns:xlink="http://www.w3.org/1999/xlink">
<g id="graph0" class="graph" transform="scale(1 1) rotate(0) translate(4 81)">
<title>vPortYieldFromTick</title>
<polygon fill="white" stroke="white" points="-4,5 -4,-81 369,-81 369,5 -4,5"/>
<!-- Node1 -->
<g id="node1" class="node"><title>Node1</title>
<polygon fill="#bfbfbf" stroke="black" points="0,-38.5 0,-57.5 104,-57.5 104,-38.5 0,-38.5"/>
<text text-anchor="middle" x="52" y="-45.5" font-family="Helvetica,sans-Serif" font-size="10.00">vPortYieldFromTick</text>
</g>
<!-- Node2 -->
<g id="node2" class="node"><title>Node2</title>
<g id="a_node2"><a xlink:href="_renesas_2_r_x100_2port_8c.html#a9c86137bc3c1cbffc39fff22627cb885" target="_top" xlink:title="vTaskSwitchContext">
<polygon fill="white" stroke="black" points="140.5,-57.5 140.5,-76.5 247.5,-76.5 247.5,-57.5 140.5,-57.5"/>
<text text-anchor="middle" x="194" y="-64.5" font-family="Helvetica,sans-Serif" font-size="10.00">vTaskSwitchContext</text>
</a>
</g>
</g>
<!-- Node1&#45;&gt;Node2 -->
<g id="edge1" class="edge"><title>Node1&#45;&gt;Node2</title>
<path fill="none" stroke="midnightblue" d="M104.336,-54.967C112.749,-56.1089 121.551,-57.3034 130.204,-58.4777"/>
<polygon fill="midnightblue" stroke="midnightblue" points="129.882,-61.966 140.262,-59.8427 130.824,-55.0296 129.882,-61.966"/>
</g>
<!-- Node3 -->
<g id="node3" class="node"><title>Node3</title>
<g id="a_node3"><a xlink:href="task_8h.html#a978e25460ac35706f9ad30b46d9403d8" target="_top" xlink:title="xTaskIncrementTick">
<polygon fill="white" stroke="black" points="141,-19.5 141,-38.5 247,-38.5 247,-19.5 141,-19.5"/>
<text text-anchor="middle" x="194" y="-26.5" font-family="Helvetica,sans-Serif" font-size="10.00">xTaskIncrementTick</text>
</a>
</g>
</g>
<!-- Node1&#45;&gt;Node3 -->
<g id="edge2" class="edge"><title>Node1&#45;&gt;Node3</title>
<path fill="none" stroke="midnightblue" d="M104.336,-41.033C112.862,-39.8759 121.786,-38.6648 130.55,-37.4753"/>
<polygon fill="midnightblue" stroke="midnightblue" points="131.294,-40.9066 140.732,-36.0935 130.352,-33.9702 131.294,-40.9066"/>
</g>
<!-- Node4 -->
<g id="node4" class="node"><title>Node4</title>
<g id="a_node4"><a xlink:href="list_8h.html#a2eb1558482076fff8cafc63419c2d34a" target="_top" xlink:title="uxListRemove">
<polygon fill="white" stroke="black" points="284,-38.5 284,-57.5 364,-57.5 364,-38.5 284,-38.5"/>
<text text-anchor="middle" x="324" y="-45.5" font-family="Helvetica,sans-Serif" font-size="10.00">uxListRemove</text>
</a>
</g>
</g>
<!-- Node3&#45;&gt;Node4 -->
<g id="edge3" class="edge"><title>Node3&#45;&gt;Node4</title>
<path fill="none" stroke="midnightblue" d="M247.062,-36.728C255.918,-38.0424 265.089,-39.4038 273.865,-40.7065"/>
<polygon fill="midnightblue" stroke="midnightblue" points="273.538,-44.1963 283.944,-42.2026 274.566,-37.2722 273.538,-44.1963"/>
</g>
<!-- Node5 -->
<g id="node5" class="node"><title>Node5</title>
<g id="a_node5"><a xlink:href="_paradigm_2_tern___e_e_2small_2portmacro_8h.html#a14d32f8130d3c0b212cfc751730b5b49" target="_top" xlink:title="void">
<polygon fill="white" stroke="black" points="306.5,-0.5 306.5,-19.5 341.5,-19.5 341.5,-0.5 306.5,-0.5"/>
<text text-anchor="middle" x="324" y="-7.5" font-family="Helvetica,sans-Serif" font-size="10.00">void</text>
</a>
</g>
</g>
<!-- Node3&#45;&gt;Node5 -->
<g id="edge4" class="edge"><title>Node3&#45;&gt;Node5</title>
<path fill="none" stroke="midnightblue" d="M247.062,-21.272C263.94,-18.7667 281.966,-16.0911 296.218,-13.9755"/>
<polygon fill="midnightblue" stroke="midnightblue" points="296.921,-17.4095 306.299,-12.479 295.894,-10.4853 296.921,-17.4095"/>
</g>
</g>
</svg>
