<?xml version="1.0" encoding="UTF-8" standalone="no"?>
<!DOCTYPE svg PUBLIC "-//W3C//DTD SVG 1.1//EN"
 "http://www.w3.org/Graphics/SVG/1.1/DTD/svg11.dtd">
<!-- Generated by graphviz version 2.30.1 (20130221.2233)
 -->
<!-- Title: portRESTORE_CONTEXT Pages: 1 -->
<svg width="444pt" height="370pt"
 viewBox="0.00 0.00 444.00 370.00" xmlns="http://www.w3.org/2000/svg" xmlns:xlink="http://www.w3.org/1999/xlink">
<g id="graph0" class="graph" transform="scale(1 1) rotate(0) translate(4 366)">
<title>portRESTORE_CONTEXT</title>
<polygon fill="white" stroke="white" points="-4,5 -4,-366 441,-366 441,5 -4,5"/>
<!-- Node1 -->
<g id="node1" class="node"><title>Node1</title>
<polygon fill="#bfbfbf" stroke="black" points="0.5,-171.5 0.5,-190.5 135.5,-190.5 135.5,-171.5 0.5,-171.5"/>
<text text-anchor="middle" x="68" y="-178.5" font-family="Helvetica,sans-Serif" font-size="10.00">portRESTORE_CONTEXT</text>
</g>
<!-- Node2 -->
<g id="node2" class="node"><title>Node2</title>
<g id="a_node2"><a xlink:href="_g_c_c_2_c_o_r_t_u_s___a_p_s3_2port_8c.html#a50b37c333edece21ce0e269a5a1a9a68" target="_top" xlink:title="interrupt31_handler">
<polygon fill="white" stroke="black" points="181.5,-342.5 181.5,-361.5 284.5,-361.5 284.5,-342.5 181.5,-342.5"/>
<text text-anchor="middle" x="233" y="-349.5" font-family="Helvetica,sans-Serif" font-size="10.00">interrupt31_handler</text>
</a>
</g>
</g>
<!-- Node1&#45;&gt;Node2 -->
<g id="edge1" class="edge"><title>Node1&#45;&gt;Node2</title>
<path fill="none" stroke="midnightblue" d="M76.8446,-200.051C91.0431,-232.205 124.046,-297.224 172,-333 177.167,-336.855 183.139,-339.942 189.271,-342.411"/>
<polygon fill="midnightblue" stroke="midnightblue" points="80.0559,-198.659 72.9003,-190.846 73.6216,-201.416 80.0559,-198.659"/>
</g>
<!-- Node3 -->
<g id="node3" class="node"><title>Node3</title>
<g id="a_node3"><a xlink:href="_g_c_c_2_c_o_r_t_u_s___a_p_s3_2port_8c.html#a1addd63671cd6fd6f4b9c5752433008e" target="_top" xlink:title="interrupt7_handler">
<polygon fill="white" stroke="black" points="184,-304.5 184,-323.5 282,-323.5 282,-304.5 184,-304.5"/>
<text text-anchor="middle" x="233" y="-311.5" font-family="Helvetica,sans-Serif" font-size="10.00">interrupt7_handler</text>
</a>
</g>
</g>
<!-- Node1&#45;&gt;Node3 -->
<g id="edge2" class="edge"><title>Node1&#45;&gt;Node3</title>
<path fill="none" stroke="midnightblue" d="M80.6698,-199.052C97.7782,-224.123 132.011,-269.291 172,-295 177.974,-298.841 184.783,-301.956 191.617,-304.467"/>
<polygon fill="midnightblue" stroke="midnightblue" points="83.4343,-196.889 74.9751,-190.51 77.61,-200.772 83.4343,-196.889"/>
</g>
<!-- Node4 -->
<g id="node4" class="node"><title>Node4</title>
<g id="a_node4"><a xlink:href="_g_c_c_2_m_c_f5235_2port_8c.html#ab29afb2a4cb7a5158953f41abd366a76" target="_top" xlink:title="prvPortYield">
<polygon fill="white" stroke="black" points="197.5,-266.5 197.5,-285.5 268.5,-285.5 268.5,-266.5 197.5,-266.5"/>
<text text-anchor="middle" x="233" y="-273.5" font-family="Helvetica,sans-Serif" font-size="10.00">prvPortYield</text>
</a>
</g>
</g>
<!-- Node1&#45;&gt;Node4 -->
<g id="edge3" class="edge"><title>Node1&#45;&gt;Node4</title>
<path fill="none" stroke="midnightblue" d="M87.2152,-197.37C106.893,-214.322 139.773,-240.582 172,-257 179.886,-261.018 188.788,-264.395 197.275,-267.135"/>
<polygon fill="midnightblue" stroke="midnightblue" points="89.4603,-194.684 79.6306,-190.731 84.8496,-199.951 89.4603,-194.684"/>
</g>
<!-- Node6 -->
<g id="node6" class="node"><title>Node6</title>
<g id="a_node6"><a xlink:href="_code_warrior_2_h_c_s12_2port_8c.html#ae536a48b8cb683c5474b383aa811fd3e" target="_top" xlink:title="vPortTickInterrupt">
<polygon fill="white" stroke="black" points="185.5,-228.5 185.5,-247.5 280.5,-247.5 280.5,-228.5 185.5,-228.5"/>
<text text-anchor="middle" x="233" y="-235.5" font-family="Helvetica,sans-Serif" font-size="10.00">vPortTickInterrupt</text>
</a>
</g>
</g>
<!-- Node1&#45;&gt;Node6 -->
<g id="edge5" class="edge"><title>Node1&#45;&gt;Node6</title>
<path fill="none" stroke="midnightblue" d="M103.441,-194.164C123.385,-201.672 149.016,-211.126 172,-219 181.303,-222.187 191.481,-225.482 200.768,-228.414"/>
<polygon fill="midnightblue" stroke="midnightblue" points="104.451,-190.804 93.8593,-190.542 101.976,-197.352 104.451,-190.804"/>
</g>
<!-- Node7 -->
<g id="node7" class="node"><title>Node7</title>
<g id="a_node7"><a xlink:href="_tasking_2_a_r_m___c_m4_f_2portmacro_8h.html#add01c927fb689f7ec170e42d47d27927" target="_top" xlink:title="vPortYield">
<polygon fill="white" stroke="black" points="202,-190.5 202,-209.5 264,-209.5 264,-190.5 202,-190.5"/>
<text text-anchor="middle" x="233" y="-197.5" font-family="Helvetica,sans-Serif" font-size="10.00">vPortYield</text>
</a>
</g>
</g>
<!-- Node1&#45;&gt;Node7 -->
<g id="edge6" class="edge"><title>Node1&#45;&gt;Node7</title>
<path fill="none" stroke="midnightblue" d="M145.758,-189.947C165.574,-192.257 185.765,-194.611 201.625,-196.459"/>
<polygon fill="midnightblue" stroke="midnightblue" points="146.107,-186.464 135.769,-188.783 145.296,-193.417 146.107,-186.464"/>
</g>
<!-- Node9 -->
<g id="node9" class="node"><title>Node9</title>
<g id="a_node9"><a xlink:href="_a_r_m7___a_t91_f_r40008_2port_i_s_r_8c.html#ac295ae47abb7152bd3b68c2a63b86ac1" target="_top" xlink:title="vPortYieldProcessor">
<polygon fill="white" stroke="black" points="179.5,-152.5 179.5,-171.5 286.5,-171.5 286.5,-152.5 179.5,-152.5"/>
<text text-anchor="middle" x="233" y="-159.5" font-family="Helvetica,sans-Serif" font-size="10.00">vPortYieldProcessor</text>
</a>
</g>
</g>
<!-- Node1&#45;&gt;Node9 -->
<g id="edge8" class="edge"><title>Node1&#45;&gt;Node9</title>
<path fill="none" stroke="midnightblue" d="M145.705,-172.059C157.075,-170.734 168.569,-169.394 179.299,-168.143"/>
<polygon fill="midnightblue" stroke="midnightblue" points="145.296,-168.583 135.769,-173.217 146.107,-175.536 145.296,-168.583"/>
</g>
<!-- Node10 -->
<g id="node10" class="node"><title>Node10</title>
<g id="a_node10"><a xlink:href="_a_r_m7___l_p_c2000_2port_i_s_r_8c.html#ad34d9b239e2529468c1ba4a770b63f81" target="_top" xlink:title="vTickISR">
<polygon fill="white" stroke="black" points="205,-114.5 205,-133.5 261,-133.5 261,-114.5 205,-114.5"/>
<text text-anchor="middle" x="233" y="-121.5" font-family="Helvetica,sans-Serif" font-size="10.00">vTickISR</text>
</a>
</g>
</g>
<!-- Node1&#45;&gt;Node10 -->
<g id="edge9" class="edge"><title>Node1&#45;&gt;Node10</title>
<path fill="none" stroke="midnightblue" d="M103.441,-167.836C123.385,-160.328 149.016,-150.874 172,-143 182.647,-139.353 194.439,-135.564 204.732,-132.339"/>
<polygon fill="midnightblue" stroke="midnightblue" points="101.976,-164.648 93.8593,-171.458 104.451,-171.196 101.976,-164.648"/>
</g>
<!-- Node11 -->
<g id="node11" class="node"><title>Node11</title>
<g id="a_node11"><a xlink:href="_code_warrior_2_h_c_s12_2port_8c.html#af6daded1e58ffe8853c8c1f71e574b1d" target="_top" xlink:title="xBankedStartScheduler">
<polygon fill="white" stroke="black" points="172,-76.5 172,-95.5 294,-95.5 294,-76.5 172,-76.5"/>
<text text-anchor="middle" x="233" y="-83.5" font-family="Helvetica,sans-Serif" font-size="10.00">xBankedStartScheduler</text>
</a>
</g>
</g>
<!-- Node1&#45;&gt;Node11 -->
<g id="edge10" class="edge"><title>Node1&#45;&gt;Node11</title>
<path fill="none" stroke="midnightblue" d="M87.2152,-164.63C106.893,-147.678 139.773,-121.418 172,-105 179.205,-101.33 187.257,-98.1936 195.066,-95.5897"/>
<polygon fill="midnightblue" stroke="midnightblue" points="84.8496,-162.049 79.6306,-171.269 89.4603,-167.316 84.8496,-162.049"/>
</g>
<!-- Node13 -->
<g id="node13" class="node"><title>Node13</title>
<g id="a_node13"><a xlink:href="_g_c_c_2_a_v_r32___u_c3_2port_8c.html#ade5a8c6666e7413a0355cc252029c5c6" target="_top" xlink:title="xPortStartScheduler">
<polygon fill="white" stroke="black" points="180,-38.5 180,-57.5 286,-57.5 286,-38.5 180,-38.5"/>
<text text-anchor="middle" x="233" y="-45.5" font-family="Helvetica,sans-Serif" font-size="10.00">xPortStartScheduler</text>
</a>
</g>
</g>
<!-- Node1&#45;&gt;Node13 -->
<g id="edge12" class="edge"><title>Node1&#45;&gt;Node13</title>
<path fill="none" stroke="midnightblue" d="M80.6698,-162.948C97.7782,-137.877 132.011,-92.7087 172,-67 177.974,-63.1593 184.783,-60.044 191.617,-57.5335"/>
<polygon fill="midnightblue" stroke="midnightblue" points="77.61,-161.228 74.9751,-171.49 83.4343,-165.111 77.61,-161.228"/>
</g>
<!-- Node14 -->
<g id="node14" class="node"><title>Node14</title>
<g id="a_node14"><a xlink:href="_g_c_c_2_h_c_s12_2port_8c.html#a0f1ab8783182022e38376cbce6b5fa99" target="_top" xlink:title="xStartSchedulerNear">
<polygon fill="white" stroke="black" points="178.5,-0.5 178.5,-19.5 287.5,-19.5 287.5,-0.5 178.5,-0.5"/>
<text text-anchor="middle" x="233" y="-7.5" font-family="Helvetica,sans-Serif" font-size="10.00">xStartSchedulerNear</text>
</a>
</g>
</g>
<!-- Node1&#45;&gt;Node14 -->
<g id="edge13" class="edge"><title>Node1&#45;&gt;Node14</title>
<path fill="none" stroke="midnightblue" d="M76.8446,-161.949C91.0431,-129.795 124.046,-64.7756 172,-29 177.167,-25.1452 183.139,-22.0579 189.271,-19.5893"/>
<polygon fill="midnightblue" stroke="midnightblue" points="73.6216,-160.584 72.9003,-171.154 80.0559,-163.341 73.6216,-160.584"/>
</g>
<!-- Node5 -->
<g id="node5" class="node"><title>Node5</title>
<g id="a_node5"><a xlink:href="_g_c_c_2_m_c_f5235_2port_8c.html#ade5a8c6666e7413a0355cc252029c5c6" target="_top" xlink:title="xPortStartScheduler">
<polygon fill="white" stroke="black" points="330,-266.5 330,-285.5 436,-285.5 436,-266.5 330,-266.5"/>
<text text-anchor="middle" x="383" y="-273.5" font-family="Helvetica,sans-Serif" font-size="10.00">xPortStartScheduler</text>
</a>
</g>
</g>
<!-- Node4&#45;&gt;Node5 -->
<g id="edge4" class="edge"><title>Node4&#45;&gt;Node5</title>
<path fill="none" stroke="midnightblue" d="M278.902,-276C294.966,-276 313.205,-276 329.83,-276"/>
<polygon fill="midnightblue" stroke="midnightblue" points="278.699,-272.5 268.699,-276 278.699,-279.5 278.699,-272.5"/>
</g>
<!-- Node8 -->
<g id="node8" class="node"><title>Node8</title>
<g id="a_node8"><a xlink:href="_g_c_c_2_p_p_c405___xilinx_2port_8c.html#ade5a8c6666e7413a0355cc252029c5c6" target="_top" xlink:title="xPortStartScheduler">
<polygon fill="white" stroke="black" points="330,-190.5 330,-209.5 436,-209.5 436,-190.5 330,-190.5"/>
<text text-anchor="middle" x="383" y="-197.5" font-family="Helvetica,sans-Serif" font-size="10.00">xPortStartScheduler</text>
</a>
</g>
</g>
<!-- Node7&#45;&gt;Node8 -->
<g id="edge7" class="edge"><title>Node7&#45;&gt;Node8</title>
<path fill="none" stroke="midnightblue" d="M274.51,-200C291.593,-200 311.695,-200 329.864,-200"/>
<polygon fill="midnightblue" stroke="midnightblue" points="274.307,-196.5 264.307,-200 274.307,-203.5 274.307,-196.5"/>
</g>
<!-- Node12 -->
<g id="node12" class="node"><title>Node12</title>
<g id="a_node12"><a xlink:href="_code_warrior_2_h_c_s12_2port_8c.html#ade5a8c6666e7413a0355cc252029c5c6" target="_top" xlink:title="xPortStartScheduler">
<polygon fill="white" stroke="black" points="330,-76.5 330,-95.5 436,-95.5 436,-76.5 330,-76.5"/>
<text text-anchor="middle" x="383" y="-83.5" font-family="Helvetica,sans-Serif" font-size="10.00">xPortStartScheduler</text>
</a>
</g>
</g>
<!-- Node11&#45;&gt;Node12 -->
<g id="edge11" class="edge"><title>Node11&#45;&gt;Node12</title>
<path fill="none" stroke="midnightblue" d="M304.279,-86C312.917,-86 321.623,-86 329.925,-86"/>
<polygon fill="midnightblue" stroke="midnightblue" points="304.197,-82.5001 294.197,-86 304.197,-89.5001 304.197,-82.5001"/>
</g>
</g>
</svg>
