<?xml version="1.0" encoding="UTF-8" standalone="no"?>
<!DOCTYPE svg PUBLIC "-//W3C//DTD SVG 1.1//EN"
 "http://www.w3.org/Graphics/SVG/1.1/DTD/svg11.dtd">
<!-- Generated by graphviz version 2.30.1 (20130221.2233)
 -->
<!-- Title: source/portable/Softune/MB96340/__STD_LIB_sbrk.c Pages: 1 -->
<svg width="179pt" height="96pt"
 viewBox="0.00 0.00 179.00 96.00" xmlns="http://www.w3.org/2000/svg" xmlns:xlink="http://www.w3.org/1999/xlink">
<g id="graph0" class="graph" transform="scale(1 1) rotate(0) translate(4 92)">
<title>source/portable/Softune/MB96340/__STD_LIB_sbrk.c</title>
<polygon fill="white" stroke="white" points="-4,5 -4,-92 176,-92 176,5 -4,5"/>
<!-- Node1 -->
<g id="node1" class="node"><title>Node1</title>
<polygon fill="#bfbfbf" stroke="black" points="22.5,-57 22.5,-87 171.5,-87 171.5,-57 22.5,-57"/>
<text text-anchor="start" x="30.5" y="-75" font-family="Helvetica,sans-Serif" font-size="10.00">source/portable/Softune</text>
<text text-anchor="middle" x="97" y="-64" font-family="Helvetica,sans-Serif" font-size="10.00">/MB96340/__STD_LIB_sbrk.c</text>
</g>
<!-- Node2 -->
<g id="node2" class="node"><title>Node2</title>
<polygon fill="white" stroke="#bfbfbf" points="0,-0.5 0,-19.5 102,-19.5 102,-0.5 0,-0.5"/>
<text text-anchor="middle" x="51" y="-7.5" font-family="Helvetica,sans-Serif" font-size="10.00">FreeRTOSConfig.h</text>
</g>
<!-- Node1&#45;&gt;Node2 -->
<g id="edge1" class="edge"><title>Node1&#45;&gt;Node2</title>
<path fill="none" stroke="midnightblue" d="M86.0986,-56.7808C79.4143,-48.0621 70.824,-36.8574 63.815,-27.7153"/>
<polygon fill="midnightblue" stroke="midnightblue" points="66.5554,-25.5371 57.6934,-19.7305 61.0001,-29.7961 66.5554,-25.5371"/>
</g>
<!-- Node3 -->
<g id="node3" class="node"><title>Node3</title>
<polygon fill="white" stroke="#bfbfbf" points="120,-0.5 120,-19.5 168,-19.5 168,-0.5 120,-0.5"/>
<text text-anchor="middle" x="144" y="-7.5" font-family="Helvetica,sans-Serif" font-size="10.00">stdlib.h</text>
</g>
<!-- Node1&#45;&gt;Node3 -->
<g id="edge2" class="edge"><title>Node1&#45;&gt;Node3</title>
<path fill="none" stroke="midnightblue" d="M108.138,-56.7808C114.968,-48.0621 123.745,-36.8574 130.906,-27.7153"/>
<polygon fill="midnightblue" stroke="midnightblue" points="133.75,-29.7612 137.161,-19.7305 128.239,-25.4445 133.75,-29.7612"/>
</g>
</g>
</svg>
