<?xml version="1.0" encoding="UTF-8" standalone="no"?>
<!DOCTYPE svg PUBLIC "-//W3C//DTD SVG 1.1//EN"
 "http://www.w3.org/Graphics/SVG/1.1/DTD/svg11.dtd">
<!-- Generated by graphviz version 2.30.1 (20130221.2233)
 -->
<!-- Title: xPortStartScheduler Pages: 1 -->
<svg width="642pt" height="170pt"
 viewBox="0.00 0.00 642.00 170.00" xmlns="http://www.w3.org/2000/svg" xmlns:xlink="http://www.w3.org/1999/xlink">
<g id="graph0" class="graph" transform="scale(1 1) rotate(0) translate(4 166)">
<title>xPortStartScheduler</title>
<polygon fill="white" stroke="white" points="-4,5 -4,-166 639,-166 639,5 -4,5"/>
<!-- Node1 -->
<g id="node1" class="node"><title>Node1</title>
<polygon fill="#bfbfbf" stroke="black" points="0,-57.5 0,-76.5 106,-76.5 106,-57.5 0,-57.5"/>
<text text-anchor="middle" x="53" y="-64.5" font-family="Helvetica,sans-Serif" font-size="10.00">xPortStartScheduler</text>
</g>
<!-- Node2 -->
<g id="node2" class="node"><title>Node2</title>
<g id="a_node2"><a xlink:href="_m_p_l_a_b_2_p_i_c18_f_2port_8c.html#a58197e4187d2a15e3442c99500df5250" target="_top" xlink:title="prvLowInterrupt">
<polygon fill="white" stroke="black" points="159,-114.5 159,-133.5 245,-133.5 245,-114.5 159,-114.5"/>
<text text-anchor="middle" x="202" y="-121.5" font-family="Helvetica,sans-Serif" font-size="10.00">prvLowInterrupt</text>
</a>
</g>
</g>
<!-- Node1&#45;&gt;Node2 -->
<g id="edge1" class="edge"><title>Node1&#45;&gt;Node2</title>
<path fill="none" stroke="midnightblue" d="M74.7501,-76.6319C92.4381,-84.6796 118.635,-96.2161 142,-105 147.679,-107.135 153.717,-109.251 159.682,-111.253"/>
<polygon fill="midnightblue" stroke="midnightblue" points="158.982,-114.706 169.574,-114.497 161.163,-108.055 158.982,-114.706"/>
</g>
<!-- Node10 -->
<g id="node10" class="node"><title>Node10</title>
<g id="a_node10"><a xlink:href="_m_p_l_a_b_2_p_i_c18_f_2port_8c.html#aeb91268bfbb6dc04ff839631ee5c72ba" target="_top" xlink:title="prvSetupTimerInterrupt">
<polygon fill="white" stroke="black" points="142.5,-76.5 142.5,-95.5 261.5,-95.5 261.5,-76.5 142.5,-76.5"/>
<text text-anchor="middle" x="202" y="-83.5" font-family="Helvetica,sans-Serif" font-size="10.00">prvSetupTimerInterrupt</text>
</a>
</g>
</g>
<!-- Node1&#45;&gt;Node10 -->
<g id="edge9" class="edge"><title>Node1&#45;&gt;Node10</title>
<path fill="none" stroke="midnightblue" d="M106.241,-73.7522C114.663,-74.8408 123.493,-75.9821 132.234,-77.1118"/>
<polygon fill="midnightblue" stroke="midnightblue" points="132.057,-80.618 142.423,-78.4288 132.954,-73.6758 132.057,-80.618"/>
</g>
<!-- Node3 -->
<g id="node3" class="node"><title>Node3</title>
<g id="a_node3"><a xlink:href="_m_p_l_a_b_2_p_i_c18_f_2port_8c.html#aa102d20e6272879e93b4fe81a049dad6" target="_top" xlink:title="prvTickISR">
<polygon fill="white" stroke="black" points="303.5,-47.5 303.5,-66.5 368.5,-66.5 368.5,-47.5 303.5,-47.5"/>
<text text-anchor="middle" x="336" y="-54.5" font-family="Helvetica,sans-Serif" font-size="10.00">prvTickISR</text>
</a>
</g>
</g>
<!-- Node1&#45;&gt;Node3 -->
<g id="edge10" class="edge"><title>Node1&#45;&gt;Node3</title>
<path fill="none" stroke="midnightblue" d="M106.195,-65.1425C160.132,-63.2231 243.266,-60.2645 293.079,-58.4919"/>
<polygon fill="midnightblue" stroke="midnightblue" points="293.311,-61.9859 303.18,-58.1324 293.062,-54.9903 293.311,-61.9859"/>
</g>
<!-- Node7 -->
<g id="node7" class="node"><title>Node7</title>
<g id="a_node7"><a xlink:href="_paradigm_2_tern___e_e_2small_2portmacro_8h.html#a14d32f8130d3c0b212cfc751730b5b49" target="_top" xlink:title="void">
<polygon fill="white" stroke="black" points="576.5,-0.5 576.5,-19.5 611.5,-19.5 611.5,-0.5 576.5,-0.5"/>
<text text-anchor="middle" x="594" y="-7.5" font-family="Helvetica,sans-Serif" font-size="10.00">void</text>
</a>
</g>
</g>
<!-- Node1&#45;&gt;Node7 -->
<g id="edge11" class="edge"><title>Node1&#45;&gt;Node7</title>
<path fill="none" stroke="midnightblue" d="M106.086,-59.6607C117.887,-58.0637 130.369,-56.4266 142,-55 302.505,-35.3147 495.95,-18.2356 566.017,-12.264"/>
<polygon fill="midnightblue" stroke="midnightblue" points="566.51,-15.7348 576.179,-11.4022 565.919,-8.75979 566.51,-15.7348"/>
</g>
<!-- Node2&#45;&gt;Node3 -->
<g id="edge2" class="edge"><title>Node2&#45;&gt;Node3</title>
<path fill="none" stroke="midnightblue" d="M237.926,-114.475C245.995,-111.805 254.43,-108.625 262,-105 280.806,-95.9944 300.465,-82.8195 314.638,-72.5499"/>
<polygon fill="midnightblue" stroke="midnightblue" points="316.735,-75.3523 322.697,-66.5943 312.574,-69.7227 316.735,-75.3523"/>
</g>
<!-- Node8 -->
<g id="node8" class="node"><title>Node8</title>
<g id="a_node8"><a xlink:href="_m_p_l_a_b_2_p_i_c18_f_2port_8c.html#ac7e6fe280714dbd37e42dff8f41005c4" target="_top" xlink:title="vSerialRxISR">
<polygon fill="white" stroke="black" points="298,-142.5 298,-161.5 374,-161.5 374,-142.5 298,-142.5"/>
<text text-anchor="middle" x="336" y="-149.5" font-family="Helvetica,sans-Serif" font-size="10.00">vSerialRxISR</text>
</a>
</g>
</g>
<!-- Node2&#45;&gt;Node8 -->
<g id="edge7" class="edge"><title>Node2&#45;&gt;Node8</title>
<path fill="none" stroke="midnightblue" d="M245.129,-132.936C258.729,-135.821 273.891,-139.038 287.831,-141.994"/>
<polygon fill="midnightblue" stroke="midnightblue" points="287.217,-145.442 297.725,-144.093 288.669,-138.594 287.217,-145.442"/>
</g>
<!-- Node9 -->
<g id="node9" class="node"><title>Node9</title>
<g id="a_node9"><a xlink:href="_m_p_l_a_b_2_p_i_c18_f_2port_8c.html#aca258f7ba02e25e54c401721007de5a9" target="_top" xlink:title="vSerialTxISR">
<polygon fill="white" stroke="black" points="298.5,-104.5 298.5,-123.5 373.5,-123.5 373.5,-104.5 298.5,-104.5"/>
<text text-anchor="middle" x="336" y="-111.5" font-family="Helvetica,sans-Serif" font-size="10.00">vSerialTxISR</text>
</a>
</g>
</g>
<!-- Node2&#45;&gt;Node9 -->
<g id="edge8" class="edge"><title>Node2&#45;&gt;Node9</title>
<path fill="none" stroke="midnightblue" d="M245.129,-120.808C258.717,-119.779 273.865,-118.631 287.795,-117.576"/>
<polygon fill="midnightblue" stroke="midnightblue" points="288.456,-121.036 298.163,-116.791 287.928,-114.056 288.456,-121.036"/>
</g>
<!-- Node4 -->
<g id="node4" class="node"><title>Node4</title>
<g id="a_node4"><a xlink:href="_renesas_2_r_x100_2port_8c.html#a9c86137bc3c1cbffc39fff22627cb885" target="_top" xlink:title="vTaskSwitchContext">
<polygon fill="white" stroke="black" points="410.5,-76.5 410.5,-95.5 517.5,-95.5 517.5,-76.5 410.5,-76.5"/>
<text text-anchor="middle" x="464" y="-83.5" font-family="Helvetica,sans-Serif" font-size="10.00">vTaskSwitchContext</text>
</a>
</g>
</g>
<!-- Node3&#45;&gt;Node4 -->
<g id="edge3" class="edge"><title>Node3&#45;&gt;Node4</title>
<path fill="none" stroke="midnightblue" d="M368.795,-64.3179C381.827,-67.3172 397.241,-70.865 411.786,-74.2128"/>
<polygon fill="midnightblue" stroke="midnightblue" points="411.147,-77.6571 421.677,-76.4893 412.717,-70.8354 411.147,-77.6571"/>
</g>
<!-- Node5 -->
<g id="node5" class="node"><title>Node5</title>
<g id="a_node5"><a xlink:href="task_8h.html#a978e25460ac35706f9ad30b46d9403d8" target="_top" xlink:title="xTaskIncrementTick">
<polygon fill="white" stroke="black" points="411,-38.5 411,-57.5 517,-57.5 517,-38.5 411,-38.5"/>
<text text-anchor="middle" x="464" y="-45.5" font-family="Helvetica,sans-Serif" font-size="10.00">xTaskIncrementTick</text>
</a>
</g>
</g>
<!-- Node3&#45;&gt;Node5 -->
<g id="edge4" class="edge"><title>Node3&#45;&gt;Node5</title>
<path fill="none" stroke="midnightblue" d="M368.795,-54.7289C378.507,-54.0352 389.543,-53.2469 400.556,-52.4603"/>
<polygon fill="midnightblue" stroke="midnightblue" points="400.9,-55.9447 410.625,-51.7411 400.401,-48.9625 400.9,-55.9447"/>
</g>
<!-- Node6 -->
<g id="node6" class="node"><title>Node6</title>
<g id="a_node6"><a xlink:href="list_8h.html#a2eb1558482076fff8cafc63419c2d34a" target="_top" xlink:title="uxListRemove">
<polygon fill="white" stroke="black" points="554,-38.5 554,-57.5 634,-57.5 634,-38.5 554,-38.5"/>
<text text-anchor="middle" x="594" y="-45.5" font-family="Helvetica,sans-Serif" font-size="10.00">uxListRemove</text>
</a>
</g>
</g>
<!-- Node5&#45;&gt;Node6 -->
<g id="edge5" class="edge"><title>Node5&#45;&gt;Node6</title>
<path fill="none" stroke="midnightblue" d="M517.062,-48C525.918,-48 535.089,-48 543.865,-48"/>
<polygon fill="midnightblue" stroke="midnightblue" points="543.944,-51.5001 553.944,-48 543.944,-44.5001 543.944,-51.5001"/>
</g>
<!-- Node5&#45;&gt;Node7 -->
<g id="edge6" class="edge"><title>Node5&#45;&gt;Node7</title>
<path fill="none" stroke="midnightblue" d="M497.3,-38.411C518.743,-32.0452 546.537,-23.7937 566.642,-17.8249"/>
<polygon fill="midnightblue" stroke="midnightblue" points="567.791,-21.1351 576.381,-14.9337 565.798,-14.4245 567.791,-21.1351"/>
</g>
</g>
</svg>
