<?xml version="1.0" encoding="UTF-8" standalone="no"?>
<!DOCTYPE svg PUBLIC "-//W3C//DTD SVG 1.1//EN"
 "http://www.w3.org/Graphics/SVG/1.1/DTD/svg11.dtd">
<!-- Generated by graphviz version 2.30.1 (20130221.2233)
 -->
<!-- Title: vPortSetCP0Status Pages: 1 -->
<svg width="454pt" height="66pt"
 viewBox="0.00 0.00 454.00 66.00" xmlns="http://www.w3.org/2000/svg" xmlns:xlink="http://www.w3.org/1999/xlink">
<g id="graph0" class="graph" transform="scale(1 1) rotate(0) translate(4 62)">
<title>vPortSetCP0Status</title>
<polygon fill="white" stroke="white" points="-4,5 -4,-62 451,-62 451,5 -4,5"/>
<!-- Node1 -->
<g id="node1" class="node"><title>Node1</title>
<polygon fill="#bfbfbf" stroke="black" points="0.5,-19.5 0.5,-38.5 103.5,-38.5 103.5,-19.5 0.5,-19.5"/>
<text text-anchor="middle" x="52" y="-26.5" font-family="Helvetica,sans-Serif" font-size="10.00">vPortSetCP0Status</text>
</g>
<!-- Node2 -->
<g id="node2" class="node"><title>Node2</title>
<g id="a_node2"><a xlink:href="_m_p_l_a_b_2_p_i_c32_m_e_c14xx_2port_8c.html#ad3b846f809a7cff169a8c3cb621ec1ee" target="_top" xlink:title="uxPortSetInterruptMaskFromISR">
<polygon fill="white" stroke="black" points="142,-38.5 142,-57.5 304,-57.5 304,-38.5 142,-38.5"/>
<text text-anchor="middle" x="223" y="-45.5" font-family="Helvetica,sans-Serif" font-size="10.00">uxPortSetInterruptMaskFromISR</text>
</a>
</g>
</g>
<!-- Node1&#45;&gt;Node2 -->
<g id="edge1" class="edge"><title>Node1&#45;&gt;Node2</title>
<path fill="none" stroke="midnightblue" d="M113.816,-35.8374C122.945,-36.8637 132.475,-37.9351 141.931,-38.9982"/>
<polygon fill="midnightblue" stroke="midnightblue" points="114.034,-32.3398 103.706,-34.7006 113.252,-39.296 114.034,-32.3398"/>
</g>
<!-- Node3 -->
<g id="node3" class="node"><title>Node3</title>
<g id="a_node3"><a xlink:href="_m_p_l_a_b_2_p_i_c32_m_z_2portmacro_8h.html#a12396024e6649cc1dee6c0df77689812" target="_top" xlink:title="vPortClearInterruptMaskFromISR">
<polygon fill="white" stroke="black" points="140.5,-0.5 140.5,-19.5 305.5,-19.5 305.5,-0.5 140.5,-0.5"/>
<text text-anchor="middle" x="223" y="-7.5" font-family="Helvetica,sans-Serif" font-size="10.00">vPortClearInterruptMaskFromISR</text>
</a>
</g>
</g>
<!-- Node1&#45;&gt;Node3 -->
<g id="edge2" class="edge"><title>Node1&#45;&gt;Node3</title>
<path fill="none" stroke="midnightblue" d="M113.684,-22.1776C122.346,-21.2037 131.373,-20.1889 140.356,-19.1789"/>
<polygon fill="midnightblue" stroke="midnightblue" points="113.252,-18.704 103.706,-23.2994 114.034,-25.6602 113.252,-18.704"/>
</g>
<!-- Node4 -->
<g id="node4" class="node"><title>Node4</title>
<g id="a_node4"><a xlink:href="_m_p_l_a_b_2_p_i_c32_m_e_c14xx_2port_8c.html#aa9ac2b26adfad38266878b63174ea70a" target="_top" xlink:title="vPortIncrementTick">
<polygon fill="white" stroke="black" points="342.5,-0.5 342.5,-19.5 445.5,-19.5 445.5,-0.5 342.5,-0.5"/>
<text text-anchor="middle" x="394" y="-7.5" font-family="Helvetica,sans-Serif" font-size="10.00">vPortIncrementTick</text>
</a>
</g>
</g>
<!-- Node3&#45;&gt;Node4 -->
<g id="edge3" class="edge"><title>Node3&#45;&gt;Node4</title>
<path fill="none" stroke="midnightblue" d="M315.774,-10C324.826,-10 333.765,-10 342.173,-10"/>
<polygon fill="midnightblue" stroke="midnightblue" points="315.53,-6.5001 305.53,-10 315.53,-13.5001 315.53,-6.5001"/>
</g>
</g>
</svg>
