<?xml version="1.0" encoding="UTF-8" standalone="no"?>
<!DOCTYPE svg PUBLIC "-//W3C//DTD SVG 1.1//EN"
 "http://www.w3.org/Graphics/SVG/1.1/DTD/svg11.dtd">
<!-- Generated by graphviz version 2.30.1 (20130221.2233)
 -->
<!-- Title: ulPortGetCP0Cause Pages: 1 -->
<svg width="260pt" height="66pt"
 viewBox="0.00 0.00 260.00 66.00" xmlns="http://www.w3.org/2000/svg" xmlns:xlink="http://www.w3.org/1999/xlink">
<g id="graph0" class="graph" transform="scale(1 1) rotate(0) translate(4 62)">
<title>ulPortGetCP0Cause</title>
<polygon fill="white" stroke="white" points="-4,5 -4,-62 257,-62 257,5 -4,5"/>
<!-- Node1 -->
<g id="node1" class="node"><title>Node1</title>
<polygon fill="#bfbfbf" stroke="black" points="0.5,-19.5 0.5,-38.5 107.5,-38.5 107.5,-19.5 0.5,-19.5"/>
<text text-anchor="middle" x="54" y="-26.5" font-family="Helvetica,sans-Serif" font-size="10.00">ulPortGetCP0Cause</text>
</g>
<!-- Node2 -->
<g id="node2" class="node"><title>Node2</title>
<g id="a_node2"><a xlink:href="_m_p_l_a_b_2_p_i_c32_m_e_c14xx_2port_8c.html#a474fbbb58ea661a1557f05adc41120c1" target="_top" xlink:title="pxPortInitialiseStack">
<polygon fill="white" stroke="black" points="144.5,-38.5 144.5,-57.5 251.5,-57.5 251.5,-38.5 144.5,-38.5"/>
<text text-anchor="middle" x="198" y="-45.5" font-family="Helvetica,sans-Serif" font-size="10.00">pxPortInitialiseStack</text>
</a>
</g>
</g>
<!-- Node1&#45;&gt;Node2 -->
<g id="edge1" class="edge"><title>Node1&#45;&gt;Node2</title>
<path fill="none" stroke="midnightblue" d="M117.994,-37.4288C126.704,-38.5943 135.578,-39.7815 144.08,-40.9192"/>
<polygon fill="midnightblue" stroke="midnightblue" points="118.251,-33.9321 107.876,-36.0749 117.323,-40.8703 118.251,-33.9321"/>
</g>
<!-- Node3 -->
<g id="node3" class="node"><title>Node3</title>
<g id="a_node3"><a xlink:href="_m_p_l_a_b_2_p_i_c32_m_e_c14xx_2port_8c.html#aa9ac2b26adfad38266878b63174ea70a" target="_top" xlink:title="vPortIncrementTick">
<polygon fill="white" stroke="black" points="146.5,-0.5 146.5,-19.5 249.5,-19.5 249.5,-0.5 146.5,-0.5"/>
<text text-anchor="middle" x="198" y="-7.5" font-family="Helvetica,sans-Serif" font-size="10.00">vPortIncrementTick</text>
</a>
</g>
</g>
<!-- Node1&#45;&gt;Node3 -->
<g id="edge2" class="edge"><title>Node1&#45;&gt;Node3</title>
<path fill="none" stroke="midnightblue" d="M118.07,-20.5611C127.564,-19.2907 137.25,-17.9948 146.436,-16.7656"/>
<polygon fill="midnightblue" stroke="midnightblue" points="117.323,-17.1297 107.876,-21.9251 118.251,-24.0679 117.323,-17.1297"/>
</g>
</g>
</svg>
