<?xml version="1.0" encoding="UTF-8" standalone="no"?>
<!DOCTYPE svg PUBLIC "-//W3C//DTD SVG 1.1//EN"
 "http://www.w3.org/Graphics/SVG/1.1/DTD/svg11.dtd">
<!-- Generated by graphviz version 2.30.1 (20130221.2233)
 -->
<!-- Title: uxPortSetInterruptMaskFromISR Pages: 1 -->
<svg width="408pt" height="123pt"
 viewBox="0.00 0.00 408.00 123.00" xmlns="http://www.w3.org/2000/svg" xmlns:xlink="http://www.w3.org/1999/xlink">
<g id="graph0" class="graph" transform="scale(1 1) rotate(0) translate(4 119)">
<title>uxPortSetInterruptMaskFromISR</title>
<polygon fill="white" stroke="white" points="-4,5 -4,-119 405,-119 405,5 -4,5"/>
<!-- Node1 -->
<g id="node1" class="node"><title>Node1</title>
<polygon fill="#bfbfbf" stroke="black" points="0,-57.5 0,-76.5 162,-76.5 162,-57.5 0,-57.5"/>
<text text-anchor="middle" x="81" y="-64.5" font-family="Helvetica,sans-Serif" font-size="10.00">uxPortSetInterruptMaskFromISR</text>
</g>
<!-- Node2 -->
<g id="node2" class="node"><title>Node2</title>
<g id="a_node2"><a xlink:href="_m_p_l_a_b_2_p_i_c32_m_e_c14xx_2port_8c.html#a66ea2b4baeb3198003efc131810ed632" target="_top" xlink:title="prvDisableInterrupt">
<polygon fill="white" stroke="black" points="201.5,-95.5 201.5,-114.5 302.5,-114.5 302.5,-95.5 201.5,-95.5"/>
<text text-anchor="middle" x="252" y="-102.5" font-family="Helvetica,sans-Serif" font-size="10.00">prvDisableInterrupt</text>
</a>
</g>
</g>
<!-- Node1&#45;&gt;Node2 -->
<g id="edge1" class="edge"><title>Node1&#45;&gt;Node2</title>
<path fill="none" stroke="midnightblue" d="M124.646,-76.589C147.148,-81.6487 174.948,-87.8996 198.738,-93.2488"/>
<polygon fill="midnightblue" stroke="midnightblue" points="198.137,-96.7009 208.661,-95.4799 199.672,-89.8714 198.137,-96.7009"/>
</g>
<!-- Node3 -->
<g id="node3" class="node"><title>Node3</title>
<g id="a_node3"><a xlink:href="_m_p_l_a_b_2_p_i_c32_m_e_c14xx_2portmacro_8h.html#a61188a375cc4f6b6e3fa5c3680b60bcb" target="_top" xlink:title="ulPortGetCP0Status">
<polygon fill="white" stroke="black" points="198.5,-57.5 198.5,-76.5 305.5,-76.5 305.5,-57.5 198.5,-57.5"/>
<text text-anchor="middle" x="252" y="-64.5" font-family="Helvetica,sans-Serif" font-size="10.00">ulPortGetCP0Status</text>
</a>
</g>
</g>
<!-- Node1&#45;&gt;Node3 -->
<g id="edge2" class="edge"><title>Node1&#45;&gt;Node3</title>
<path fill="none" stroke="midnightblue" d="M162.046,-67C170.78,-67 179.578,-67 188.064,-67"/>
<polygon fill="midnightblue" stroke="midnightblue" points="188.237,-70.5001 198.237,-67 188.237,-63.5001 188.237,-70.5001"/>
</g>
<!-- Node4 -->
<g id="node4" class="node"><title>Node4</title>
<g id="a_node4"><a xlink:href="_m_p_l_a_b_2_p_i_c32_m_e_c14xx_2portmacro_8h.html#a1a3e098dfdca120706632e268a9ba671" target="_top" xlink:title="vPortSetCP0Status">
<polygon fill="white" stroke="black" points="200.5,-19.5 200.5,-38.5 303.5,-38.5 303.5,-19.5 200.5,-19.5"/>
<text text-anchor="middle" x="252" y="-26.5" font-family="Helvetica,sans-Serif" font-size="10.00">vPortSetCP0Status</text>
</a>
</g>
</g>
<!-- Node1&#45;&gt;Node4 -->
<g id="edge3" class="edge"><title>Node1&#45;&gt;Node4</title>
<path fill="none" stroke="midnightblue" d="M124.646,-57.411C147.148,-52.3513 174.948,-46.1004 198.738,-40.7512"/>
<polygon fill="midnightblue" stroke="midnightblue" points="199.672,-44.1286 208.661,-38.5201 198.137,-37.2991 199.672,-44.1286"/>
</g>
<!-- Node5 -->
<g id="node5" class="node"><title>Node5</title>
<g id="a_node5"><a xlink:href="_paradigm_2_tern___e_e_2small_2portmacro_8h.html#a14d32f8130d3c0b212cfc751730b5b49" target="_top" xlink:title="void">
<polygon fill="white" stroke="black" points="353.5,-38.5 353.5,-57.5 388.5,-57.5 388.5,-38.5 353.5,-38.5"/>
<text text-anchor="middle" x="371" y="-45.5" font-family="Helvetica,sans-Serif" font-size="10.00">void</text>
</a>
</g>
</g>
<!-- Node4&#45;&gt;Node5 -->
<g id="edge4" class="edge"><title>Node4&#45;&gt;Node5</title>
<path fill="none" stroke="midnightblue" d="M303.637,-37.2232C317.35,-39.45 331.649,-41.7721 343.448,-43.6881"/>
<polygon fill="midnightblue" stroke="midnightblue" points="343.06,-47.1709 353.492,-45.3192 344.182,-40.2614 343.06,-47.1709"/>
</g>
<!-- Node6 -->
<g id="node6" class="node"><title>Node6</title>
<g id="a_node6"><a xlink:href="_g_c_c_2_nios_i_i_2portmacro_8h.html#a9f0665b22b0310ec0e31f26892a95c4c" target="_top" xlink:title="__asm__">
<polygon fill="white" stroke="black" points="342,-0.5 342,-19.5 400,-19.5 400,-0.5 342,-0.5"/>
<text text-anchor="middle" x="371" y="-7.5" font-family="Helvetica,sans-Serif" font-size="10.00">__asm__</text>
</a>
</g>
</g>
<!-- Node4&#45;&gt;Node6 -->
<g id="edge5" class="edge"><title>Node4&#45;&gt;Node6</title>
<path fill="none" stroke="midnightblue" d="M303.637,-20.7768C313.048,-19.2486 322.735,-17.6755 331.7,-16.2196"/>
<polygon fill="midnightblue" stroke="midnightblue" points="332.524,-19.6318 341.834,-14.574 331.402,-12.7223 332.524,-19.6318"/>
</g>
</g>
</svg>
