<?xml version="1.0" encoding="UTF-8" standalone="no"?>
<!DOCTYPE svg PUBLIC "-//W3C//DTD SVG 1.1//EN"
 "http://www.w3.org/Graphics/SVG/1.1/DTD/svg11.dtd">
<!-- Generated by graphviz version 2.30.1 (20130221.2233)
 -->
<!-- Title: vPortSetCP0Cause Pages: 1 -->
<svg width="206pt" height="66pt"
 viewBox="0.00 0.00 206.00 66.00" xmlns="http://www.w3.org/2000/svg" xmlns:xlink="http://www.w3.org/1999/xlink">
<g id="graph0" class="graph" transform="scale(1 1) rotate(0) translate(4 62)">
<title>vPortSetCP0Cause</title>
<polygon fill="white" stroke="white" points="-4,5 -4,-62 203,-62 203,5 -4,5"/>
<!-- Node1 -->
<g id="node1" class="node"><title>Node1</title>
<polygon fill="#bfbfbf" stroke="black" points="0.5,-19.5 0.5,-38.5 103.5,-38.5 103.5,-19.5 0.5,-19.5"/>
<text text-anchor="middle" x="52" y="-26.5" font-family="Helvetica,sans-Serif" font-size="10.00">vPortSetCP0Cause</text>
</g>
<!-- Node2 -->
<g id="node2" class="node"><title>Node2</title>
<g id="a_node2"><a xlink:href="_g_c_c_2_nios_i_i_2portmacro_8h.html#a9f0665b22b0310ec0e31f26892a95c4c" target="_top" xlink:title="__asm__">
<polygon fill="white" stroke="black" points="140,-38.5 140,-57.5 198,-57.5 198,-38.5 140,-38.5"/>
<text text-anchor="middle" x="169" y="-45.5" font-family="Helvetica,sans-Serif" font-size="10.00">__asm__</text>
</a>
</g>
</g>
<!-- Node1&#45;&gt;Node2 -->
<g id="edge1" class="edge"><title>Node1&#45;&gt;Node2</title>
<path fill="none" stroke="midnightblue" d="M103.775,-37.389C112.587,-38.8449 121.613,-40.3361 130.009,-41.7233"/>
<polygon fill="midnightblue" stroke="midnightblue" points="129.445,-45.1774 139.882,-43.3544 130.586,-38.271 129.445,-45.1774"/>
</g>
<!-- Node3 -->
<g id="node3" class="node"><title>Node3</title>
<g id="a_node3"><a xlink:href="_paradigm_2_tern___e_e_2small_2portmacro_8h.html#a14d32f8130d3c0b212cfc751730b5b49" target="_top" xlink:title="void">
<polygon fill="white" stroke="black" points="151.5,-0.5 151.5,-19.5 186.5,-19.5 186.5,-0.5 151.5,-0.5"/>
<text text-anchor="middle" x="169" y="-7.5" font-family="Helvetica,sans-Serif" font-size="10.00">void</text>
</a>
</g>
</g>
<!-- Node1&#45;&gt;Node3 -->
<g id="edge2" class="edge"><title>Node1&#45;&gt;Node3</title>
<path fill="none" stroke="midnightblue" d="M103.775,-20.611C116.725,-18.4715 130.136,-16.2558 141.332,-14.406"/>
<polygon fill="midnightblue" stroke="midnightblue" points="142.005,-17.8423 151.301,-12.759 140.864,-10.9359 142.005,-17.8423"/>
</g>
</g>
</svg>
