<?xml version="1.0" encoding="UTF-8" standalone="no"?>
<!DOCTYPE svg PUBLIC "-//W3C//DTD SVG 1.1//EN"
 "http://www.w3.org/Graphics/SVG/1.1/DTD/svg11.dtd">
<!-- Generated by graphviz version 2.30.1 (20130221.2233)
 -->
<!-- Title: vPortIncrementTick Pages: 1 -->
<svg width="430pt" height="123pt"
 viewBox="0.00 0.00 430.00 123.00" xmlns="http://www.w3.org/2000/svg" xmlns:xlink="http://www.w3.org/1999/xlink">
<g id="graph0" class="graph" transform="scale(1 1) rotate(0) translate(4 119)">
<title>vPortIncrementTick</title>
<polygon fill="white" stroke="white" points="-4,5 -4,-119 427,-119 427,5 -4,5"/>
<!-- Node1 -->
<g id="node1" class="node"><title>Node1</title>
<polygon fill="#bfbfbf" stroke="black" points="0.5,-57.5 0.5,-76.5 103.5,-76.5 103.5,-57.5 0.5,-57.5"/>
<text text-anchor="middle" x="52" y="-64.5" font-family="Helvetica,sans-Serif" font-size="10.00">vPortIncrementTick</text>
</g>
<!-- Node2 -->
<g id="node2" class="node"><title>Node2</title>
<g id="a_node2"><a xlink:href="_g_c_c_2_tri_core__1782_2port_8c.html#ad2d8a18289cda8ec91acf0a4dce63e30" target="_top" xlink:title="uxPortSetInterruptMaskFromISR">
<polygon fill="white" stroke="black" points="142,-95.5 142,-114.5 304,-114.5 304,-95.5 142,-95.5"/>
<text text-anchor="middle" x="223" y="-102.5" font-family="Helvetica,sans-Serif" font-size="10.00">uxPortSetInterruptMaskFromISR</text>
</a>
</g>
</g>
<!-- Node1&#45;&gt;Node2 -->
<g id="edge1" class="edge"><title>Node1&#45;&gt;Node2</title>
<path fill="none" stroke="midnightblue" d="M95.6458,-76.589C118.148,-81.6487 145.948,-87.8996 169.738,-93.2488"/>
<polygon fill="midnightblue" stroke="midnightblue" points="169.137,-96.7009 179.661,-95.4799 170.672,-89.8714 169.137,-96.7009"/>
</g>
<!-- Node3 -->
<g id="node3" class="node"><title>Node3</title>
<g id="a_node3"><a xlink:href="_m_p_l_a_b_2_p_i_c32_m_e_c14xx_2port_8c.html#a62eacd09c9598a61fc169a6c4f4c01be" target="_top" xlink:title="vPortClearInterruptMaskFromISR">
<polygon fill="white" stroke="black" points="140.5,-57.5 140.5,-76.5 305.5,-76.5 305.5,-57.5 140.5,-57.5"/>
<text text-anchor="middle" x="223" y="-64.5" font-family="Helvetica,sans-Serif" font-size="10.00">vPortClearInterruptMaskFromISR</text>
</a>
</g>
</g>
<!-- Node1&#45;&gt;Node3 -->
<g id="edge2" class="edge"><title>Node1&#45;&gt;Node3</title>
<path fill="none" stroke="midnightblue" d="M103.706,-67C112.112,-67 121.052,-67 130.107,-67"/>
<polygon fill="midnightblue" stroke="midnightblue" points="130.356,-70.5001 140.356,-67 130.356,-63.5001 130.356,-70.5001"/>
</g>
<!-- Node4 -->
<g id="node4" class="node"><title>Node4</title>
<g id="a_node4"><a xlink:href="task_8h.html#a978e25460ac35706f9ad30b46d9403d8" target="_top" xlink:title="xTaskIncrementTick">
<polygon fill="white" stroke="black" points="170,-19.5 170,-38.5 276,-38.5 276,-19.5 170,-19.5"/>
<text text-anchor="middle" x="223" y="-26.5" font-family="Helvetica,sans-Serif" font-size="10.00">xTaskIncrementTick</text>
</a>
</g>
</g>
<!-- Node1&#45;&gt;Node4 -->
<g id="edge3" class="edge"><title>Node1&#45;&gt;Node4</title>
<path fill="none" stroke="midnightblue" d="M95.6458,-57.411C118.148,-52.3513 145.948,-46.1004 169.738,-40.7512"/>
<polygon fill="midnightblue" stroke="midnightblue" points="170.672,-44.1286 179.661,-38.5201 169.137,-37.2991 170.672,-44.1286"/>
</g>
<!-- Node5 -->
<g id="node5" class="node"><title>Node5</title>
<g id="a_node5"><a xlink:href="list_8h.html#a2eb1558482076fff8cafc63419c2d34a" target="_top" xlink:title="uxListRemove">
<polygon fill="white" stroke="black" points="342,-38.5 342,-57.5 422,-57.5 422,-38.5 342,-38.5"/>
<text text-anchor="middle" x="382" y="-45.5" font-family="Helvetica,sans-Serif" font-size="10.00">uxListRemove</text>
</a>
</g>
</g>
<!-- Node4&#45;&gt;Node5 -->
<g id="edge4" class="edge"><title>Node4&#45;&gt;Node5</title>
<path fill="none" stroke="midnightblue" d="M276.279,-35.3267C294.175,-37.4925 314.125,-39.9069 331.772,-42.0425"/>
<polygon fill="midnightblue" stroke="midnightblue" points="331.515,-45.5368 341.863,-43.2637 332.356,-38.5875 331.515,-45.5368"/>
</g>
<!-- Node6 -->
<g id="node6" class="node"><title>Node6</title>
<g id="a_node6"><a xlink:href="_paradigm_2_tern___e_e_2small_2portmacro_8h.html#a14d32f8130d3c0b212cfc751730b5b49" target="_top" xlink:title="void">
<polygon fill="white" stroke="black" points="364.5,-0.5 364.5,-19.5 399.5,-19.5 399.5,-0.5 364.5,-0.5"/>
<text text-anchor="middle" x="382" y="-7.5" font-family="Helvetica,sans-Serif" font-size="10.00">void</text>
</a>
</g>
</g>
<!-- Node4&#45;&gt;Node6 -->
<g id="edge5" class="edge"><title>Node4&#45;&gt;Node6</title>
<path fill="none" stroke="midnightblue" d="M276.279,-22.6733C302.529,-19.4965 333.199,-15.7848 354.537,-13.2026"/>
<polygon fill="midnightblue" stroke="midnightblue" points="354.979,-16.6747 364.486,-11.9985 354.138,-9.7254 354.979,-16.6747"/>
</g>
</g>
</svg>
