<?xml version="1.0" encoding="UTF-8" standalone="no"?>
<!DOCTYPE svg PUBLIC "-//W3C//DTD SVG 1.1//EN"
 "http://www.w3.org/Graphics/SVG/1.1/DTD/svg11.dtd">
<!-- Generated by graphviz version 2.30.1 (20130221.2233)
 -->
<!-- Title: vSerialRxISR Pages: 1 -->
<svg width="348pt" height="28pt"
 viewBox="0.00 0.00 348.00 28.00" xmlns="http://www.w3.org/2000/svg" xmlns:xlink="http://www.w3.org/1999/xlink">
<g id="graph0" class="graph" transform="scale(1 1) rotate(0) translate(4 24)">
<title>vSerialRxISR</title>
<polygon fill="white" stroke="white" points="-4,5 -4,-24 345,-24 345,5 -4,5"/>
<!-- Node1 -->
<g id="node1" class="node"><title>Node1</title>
<polygon fill="#bfbfbf" stroke="black" points="0,-0.5 0,-19.5 76,-19.5 76,-0.5 0,-0.5"/>
<text text-anchor="middle" x="38" y="-7.5" font-family="Helvetica,sans-Serif" font-size="10.00">vSerialRxISR</text>
</g>
<!-- Node2 -->
<g id="node2" class="node"><title>Node2</title>
<g id="a_node2"><a xlink:href="_m_p_l_a_b_2_p_i_c18_f_2port_8c.html#a58197e4187d2a15e3442c99500df5250" target="_top" xlink:title="prvLowInterrupt">
<polygon fill="white" stroke="black" points="112,-0.5 112,-19.5 198,-19.5 198,-0.5 112,-0.5"/>
<text text-anchor="middle" x="155" y="-7.5" font-family="Helvetica,sans-Serif" font-size="10.00">prvLowInterrupt</text>
</a>
</g>
</g>
<!-- Node1&#45;&gt;Node2 -->
<g id="edge1" class="edge"><title>Node1&#45;&gt;Node2</title>
<path fill="none" stroke="midnightblue" d="M86.1861,-10C94.69,-10 103.505,-10 111.854,-10"/>
<polygon fill="midnightblue" stroke="midnightblue" points="86.0198,-6.5001 76.0197,-10 86.0197,-13.5001 86.0198,-6.5001"/>
</g>
<!-- Node3 -->
<g id="node3" class="node"><title>Node3</title>
<g id="a_node3"><a xlink:href="_m_p_l_a_b_2_p_i_c18_f_2port_8c.html#ade5a8c6666e7413a0355cc252029c5c6" target="_top" xlink:title="xPortStartScheduler">
<polygon fill="white" stroke="black" points="234,-0.5 234,-19.5 340,-19.5 340,-0.5 234,-0.5"/>
<text text-anchor="middle" x="287" y="-7.5" font-family="Helvetica,sans-Serif" font-size="10.00">xPortStartScheduler</text>
</a>
</g>
</g>
<!-- Node2&#45;&gt;Node3 -->
<g id="edge2" class="edge"><title>Node2&#45;&gt;Node3</title>
<path fill="none" stroke="midnightblue" d="M208.478,-10C216.739,-10 225.28,-10 233.54,-10"/>
<polygon fill="midnightblue" stroke="midnightblue" points="208.207,-6.5001 198.207,-10 208.207,-13.5001 208.207,-6.5001"/>
</g>
</g>
</svg>
