<?xml version="1.0" encoding="UTF-8" standalone="no"?>
<!DOCTYPE svg PUBLIC "-//W3C//DTD SVG 1.1//EN"
 "http://www.w3.org/Graphics/SVG/1.1/DTD/svg11.dtd">
<!-- Generated by graphviz version 2.30.1 (20130221.2233)
 -->
<!-- Title: xPortStartScheduler Pages: 1 -->
<svg width="290pt" height="77pt"
 viewBox="0.00 0.00 290.00 77.00" xmlns="http://www.w3.org/2000/svg" xmlns:xlink="http://www.w3.org/1999/xlink">
<g id="graph0" class="graph" transform="scale(1 1) rotate(0) translate(4 73)">
<title>xPortStartScheduler</title>
<polygon fill="white" stroke="white" points="-4,5 -4,-73 287,-73 287,5 -4,5"/>
<!-- Node1 -->
<g id="node1" class="node"><title>Node1</title>
<polygon fill="#bfbfbf" stroke="black" points="0,-27.5 0,-46.5 106,-46.5 106,-27.5 0,-27.5"/>
<text text-anchor="middle" x="53" y="-34.5" font-family="Helvetica,sans-Serif" font-size="10.00">xPortStartScheduler</text>
</g>
<!-- Node2 -->
<g id="node2" class="node"><title>Node2</title>
<g id="a_node2"><a xlink:href="_i_a_r_2_v850_e_s_2portmacro_8h.html#a716d176e9130fa97ac875a31e7453605" target="_top" xlink:title="portRESTORE_CONTEXT">
<polygon fill="white" stroke="black" points="144.5,-49.5 144.5,-68.5 279.5,-68.5 279.5,-49.5 144.5,-49.5"/>
<text text-anchor="middle" x="212" y="-56.5" font-family="Helvetica,sans-Serif" font-size="10.00">portRESTORE_CONTEXT</text>
</a>
</g>
</g>
<!-- Node1&#45;&gt;Node2 -->
<g id="edge1" class="edge"><title>Node1&#45;&gt;Node2</title>
<path fill="none" stroke="midnightblue" d="M106.279,-44.3257C115.349,-45.5966 124.946,-46.9415 134.504,-48.2809"/>
<polygon fill="midnightblue" stroke="midnightblue" points="134.038,-51.7496 144.427,-49.6713 135.009,-44.8173 134.038,-51.7496"/>
</g>
<!-- Node3 -->
<g id="node3" class="node"><title>Node3</title>
<g id="a_node3"><a xlink:href="_m_p_l_a_b_2_p_i_c24__ds_p_i_c_2port_8c.html#a8b738ae962ed08676c294ff428c93fa5" target="_top" xlink:title="vApplicationSetupTickTimer\lInterrupt">
<polygon fill="white" stroke="black" points="142,-0 142,-30 282,-30 282,-0 142,-0"/>
<text text-anchor="start" x="150" y="-18" font-family="Helvetica,sans-Serif" font-size="10.00">vApplicationSetupTickTimer</text>
<text text-anchor="middle" x="212" y="-7" font-family="Helvetica,sans-Serif" font-size="10.00">Interrupt</text>
</a>
</g>
</g>
<!-- Node1&#45;&gt;Node3 -->
<g id="edge2" class="edge"><title>Node1&#45;&gt;Node3</title>
<path fill="none" stroke="midnightblue" d="M106.279,-29.6743C114.485,-28.5244 123.124,-27.3139 131.774,-26.1017"/>
<polygon fill="midnightblue" stroke="midnightblue" points="132.492,-29.5355 141.909,-24.6815 131.52,-22.6032 132.492,-29.5355"/>
</g>
</g>
</svg>
