<?xml version="1.0" encoding="UTF-8" standalone="no"?>
<!DOCTYPE svg PUBLIC "-//W3C//DTD SVG 1.1//EN"
 "http://www.w3.org/Graphics/SVG/1.1/DTD/svg11.dtd">
<!-- Generated by graphviz version 2.30.1 (20130221.2233)
 -->
<!-- Title: vPortClearInterruptMaskFromISR Pages: 1 -->
<svg width="408pt" height="66pt"
 viewBox="0.00 0.00 408.00 66.00" xmlns="http://www.w3.org/2000/svg" xmlns:xlink="http://www.w3.org/1999/xlink">
<g id="graph0" class="graph" transform="scale(1 1) rotate(0) translate(4 62)">
<title>vPortClearInterruptMaskFromISR</title>
<polygon fill="white" stroke="white" points="-4,5 -4,-62 405,-62 405,5 -4,5"/>
<!-- Node1 -->
<g id="node1" class="node"><title>Node1</title>
<polygon fill="#bfbfbf" stroke="black" points="0.5,-19.5 0.5,-38.5 165.5,-38.5 165.5,-19.5 0.5,-19.5"/>
<text text-anchor="middle" x="83" y="-26.5" font-family="Helvetica,sans-Serif" font-size="10.00">vPortClearInterruptMaskFromISR</text>
</g>
<!-- Node2 -->
<g id="node2" class="node"><title>Node2</title>
<g id="a_node2"><a xlink:href="_m_p_l_a_b_2_p_i_c32_m_e_c14xx_2portmacro_8h.html#a1a3e098dfdca120706632e268a9ba671" target="_top" xlink:title="vPortSetCP0Status">
<polygon fill="white" stroke="black" points="202.5,-19.5 202.5,-38.5 305.5,-38.5 305.5,-19.5 202.5,-19.5"/>
<text text-anchor="middle" x="254" y="-26.5" font-family="Helvetica,sans-Serif" font-size="10.00">vPortSetCP0Status</text>
</a>
</g>
</g>
<!-- Node1&#45;&gt;Node2 -->
<g id="edge1" class="edge"><title>Node1&#45;&gt;Node2</title>
<path fill="none" stroke="midnightblue" d="M165.53,-29C174.411,-29 183.336,-29 191.912,-29"/>
<polygon fill="midnightblue" stroke="midnightblue" points="192.173,-32.5001 202.173,-29 192.173,-25.5001 192.173,-32.5001"/>
</g>
<!-- Node3 -->
<g id="node3" class="node"><title>Node3</title>
<g id="a_node3"><a xlink:href="_g_c_c_2_nios_i_i_2portmacro_8h.html#a9f0665b22b0310ec0e31f26892a95c4c" target="_top" xlink:title="__asm__">
<polygon fill="white" stroke="black" points="342,-38.5 342,-57.5 400,-57.5 400,-38.5 342,-38.5"/>
<text text-anchor="middle" x="371" y="-45.5" font-family="Helvetica,sans-Serif" font-size="10.00">__asm__</text>
</a>
</g>
</g>
<!-- Node2&#45;&gt;Node3 -->
<g id="edge2" class="edge"><title>Node2&#45;&gt;Node3</title>
<path fill="none" stroke="midnightblue" d="M305.775,-37.389C314.587,-38.8449 323.613,-40.3361 332.009,-41.7233"/>
<polygon fill="midnightblue" stroke="midnightblue" points="331.445,-45.1774 341.882,-43.3544 332.586,-38.271 331.445,-45.1774"/>
</g>
<!-- Node4 -->
<g id="node4" class="node"><title>Node4</title>
<g id="a_node4"><a xlink:href="_paradigm_2_tern___e_e_2small_2portmacro_8h.html#a14d32f8130d3c0b212cfc751730b5b49" target="_top" xlink:title="void">
<polygon fill="white" stroke="black" points="353.5,-0.5 353.5,-19.5 388.5,-19.5 388.5,-0.5 353.5,-0.5"/>
<text text-anchor="middle" x="371" y="-7.5" font-family="Helvetica,sans-Serif" font-size="10.00">void</text>
</a>
</g>
</g>
<!-- Node2&#45;&gt;Node4 -->
<g id="edge3" class="edge"><title>Node2&#45;&gt;Node4</title>
<path fill="none" stroke="midnightblue" d="M305.775,-20.611C318.725,-18.4715 332.136,-16.2558 343.332,-14.406"/>
<polygon fill="midnightblue" stroke="midnightblue" points="344.005,-17.8423 353.301,-12.759 342.864,-10.9359 344.005,-17.8423"/>
</g>
</g>
</svg>
