<?xml version="1.0" encoding="UTF-8" standalone="no"?>
<!DOCTYPE svg PUBLIC "-//W3C//DTD SVG 1.1//EN"
 "http://www.w3.org/Graphics/SVG/1.1/DTD/svg11.dtd">
<!-- Generated by graphviz version 2.30.1 (20130221.2233)
 -->
<!-- Title: vPortIncrementTick Pages: 1 -->
<svg width="430pt" height="199pt"
 viewBox="0.00 0.00 430.00 199.00" xmlns="http://www.w3.org/2000/svg" xmlns:xlink="http://www.w3.org/1999/xlink">
<g id="graph0" class="graph" transform="scale(1 1) rotate(0) translate(4 195)">
<title>vPortIncrementTick</title>
<polygon fill="white" stroke="white" points="-4,5 -4,-195 427,-195 427,5 -4,5"/>
<!-- Node1 -->
<g id="node1" class="node"><title>Node1</title>
<polygon fill="#bfbfbf" stroke="black" points="0.5,-95.5 0.5,-114.5 103.5,-114.5 103.5,-95.5 0.5,-95.5"/>
<text text-anchor="middle" x="52" y="-102.5" font-family="Helvetica,sans-Serif" font-size="10.00">vPortIncrementTick</text>
</g>
<!-- Node2 -->
<g id="node2" class="node"><title>Node2</title>
<g id="a_node2"><a xlink:href="_m_p_l_a_b_2_p_i_c32_m_e_c14xx_2portmacro_8h.html#ad523f50bacdc86f42c830315ae15db6e" target="_top" xlink:title="ulPortGetCP0Cause">
<polygon fill="white" stroke="black" points="169.5,-171.5 169.5,-190.5 276.5,-190.5 276.5,-171.5 169.5,-171.5"/>
<text text-anchor="middle" x="223" y="-178.5" font-family="Helvetica,sans-Serif" font-size="10.00">ulPortGetCP0Cause</text>
</a>
</g>
</g>
<!-- Node1&#45;&gt;Node2 -->
<g id="edge1" class="edge"><title>Node1&#45;&gt;Node2</title>
<path fill="none" stroke="midnightblue" d="M64.6165,-114.561C80.6138,-127.253 110.776,-149.512 140,-162 146.139,-164.624 152.699,-166.916 159.334,-168.912"/>
<polygon fill="midnightblue" stroke="midnightblue" points="158.495,-172.311 169.067,-171.627 160.376,-165.569 158.495,-172.311"/>
</g>
<!-- Node3 -->
<g id="node3" class="node"><title>Node3</title>
<g id="a_node3"><a xlink:href="_g_c_c_2_tri_core__1782_2port_8c.html#ad2d8a18289cda8ec91acf0a4dce63e30" target="_top" xlink:title="uxPortSetInterruptMaskFromISR">
<polygon fill="white" stroke="black" points="142,-133.5 142,-152.5 304,-152.5 304,-133.5 142,-133.5"/>
<text text-anchor="middle" x="223" y="-140.5" font-family="Helvetica,sans-Serif" font-size="10.00">uxPortSetInterruptMaskFromISR</text>
</a>
</g>
</g>
<!-- Node1&#45;&gt;Node3 -->
<g id="edge2" class="edge"><title>Node1&#45;&gt;Node3</title>
<path fill="none" stroke="midnightblue" d="M95.6458,-114.589C118.148,-119.649 145.948,-125.9 169.738,-131.249"/>
<polygon fill="midnightblue" stroke="midnightblue" points="169.137,-134.701 179.661,-133.48 170.672,-127.871 169.137,-134.701"/>
</g>
<!-- Node4 -->
<g id="node4" class="node"><title>Node4</title>
<g id="a_node4"><a xlink:href="_m_p_l_a_b_2_p_i_c32_m_e_c14xx_2port_8c.html#a62eacd09c9598a61fc169a6c4f4c01be" target="_top" xlink:title="vPortClearInterruptMaskFromISR">
<polygon fill="white" stroke="black" points="140.5,-95.5 140.5,-114.5 305.5,-114.5 305.5,-95.5 140.5,-95.5"/>
<text text-anchor="middle" x="223" y="-102.5" font-family="Helvetica,sans-Serif" font-size="10.00">vPortClearInterruptMaskFromISR</text>
</a>
</g>
</g>
<!-- Node1&#45;&gt;Node4 -->
<g id="edge3" class="edge"><title>Node1&#45;&gt;Node4</title>
<path fill="none" stroke="midnightblue" d="M103.706,-105C112.112,-105 121.052,-105 130.107,-105"/>
<polygon fill="midnightblue" stroke="midnightblue" points="130.356,-108.5 140.356,-105 130.356,-101.5 130.356,-108.5"/>
</g>
<!-- Node5 -->
<g id="node5" class="node"><title>Node5</title>
<g id="a_node5"><a xlink:href="_m_p_l_a_b_2_p_i_c32_m_e_c14xx_2portmacro_8h.html#af9561114d7b987e72644f998cb0f52a1" target="_top" xlink:title="vPortSetCP0Cause">
<polygon fill="white" stroke="black" points="171.5,-57.5 171.5,-76.5 274.5,-76.5 274.5,-57.5 171.5,-57.5"/>
<text text-anchor="middle" x="223" y="-64.5" font-family="Helvetica,sans-Serif" font-size="10.00">vPortSetCP0Cause</text>
</a>
</g>
</g>
<!-- Node1&#45;&gt;Node5 -->
<g id="edge4" class="edge"><title>Node1&#45;&gt;Node5</title>
<path fill="none" stroke="midnightblue" d="M95.6458,-95.411C118.148,-90.3513 145.948,-84.1004 169.738,-78.7512"/>
<polygon fill="midnightblue" stroke="midnightblue" points="170.672,-82.1286 179.661,-76.5201 169.137,-75.2991 170.672,-82.1286"/>
</g>
<!-- Node8 -->
<g id="node8" class="node"><title>Node8</title>
<g id="a_node8"><a xlink:href="task_8h.html#a978e25460ac35706f9ad30b46d9403d8" target="_top" xlink:title="xTaskIncrementTick">
<polygon fill="white" stroke="black" points="170,-19.5 170,-38.5 276,-38.5 276,-19.5 170,-19.5"/>
<text text-anchor="middle" x="223" y="-26.5" font-family="Helvetica,sans-Serif" font-size="10.00">xTaskIncrementTick</text>
</a>
</g>
</g>
<!-- Node1&#45;&gt;Node8 -->
<g id="edge7" class="edge"><title>Node1&#45;&gt;Node8</title>
<path fill="none" stroke="midnightblue" d="M64.6165,-95.4385C80.6138,-82.7467 110.776,-60.4885 140,-48 146.32,-45.2993 153.085,-42.9496 159.919,-40.9132"/>
<polygon fill="midnightblue" stroke="midnightblue" points="161.228,-44.1829 169.937,-38.1492 159.366,-37.4351 161.228,-44.1829"/>
</g>
<!-- Node6 -->
<g id="node6" class="node"><title>Node6</title>
<g id="a_node6"><a xlink:href="_paradigm_2_tern___e_e_2small_2portmacro_8h.html#a14d32f8130d3c0b212cfc751730b5b49" target="_top" xlink:title="void">
<polygon fill="white" stroke="black" points="364.5,-38.5 364.5,-57.5 399.5,-57.5 399.5,-38.5 364.5,-38.5"/>
<text text-anchor="middle" x="382" y="-45.5" font-family="Helvetica,sans-Serif" font-size="10.00">void</text>
</a>
</g>
</g>
<!-- Node5&#45;&gt;Node6 -->
<g id="edge5" class="edge"><title>Node5&#45;&gt;Node6</title>
<path fill="none" stroke="midnightblue" d="M274.54,-60.8837C301.073,-57.6727 332.508,-53.8684 354.31,-51.23"/>
<polygon fill="midnightblue" stroke="midnightblue" points="354.958,-54.6772 364.465,-50.0011 354.117,-47.7279 354.958,-54.6772"/>
</g>
<!-- Node7 -->
<g id="node7" class="node"><title>Node7</title>
<g id="a_node7"><a xlink:href="_g_c_c_2_nios_i_i_2portmacro_8h.html#a9f0665b22b0310ec0e31f26892a95c4c" target="_top" xlink:title="__asm__">
<polygon fill="white" stroke="black" points="353,-76.5 353,-95.5 411,-95.5 411,-76.5 353,-76.5"/>
<text text-anchor="middle" x="382" y="-83.5" font-family="Helvetica,sans-Serif" font-size="10.00">__asm__</text>
</a>
</g>
</g>
<!-- Node5&#45;&gt;Node7 -->
<g id="edge6" class="edge"><title>Node5&#45;&gt;Node7</title>
<path fill="none" stroke="midnightblue" d="M274.54,-73.1163C296.779,-75.8076 322.461,-78.9157 343.029,-81.4047"/>
<polygon fill="midnightblue" stroke="midnightblue" points="342.626,-84.8815 352.974,-82.6083 343.467,-77.9322 342.626,-84.8815"/>
</g>
<!-- Node9 -->
<g id="node9" class="node"><title>Node9</title>
<g id="a_node9"><a xlink:href="list_8h.html#a2eb1558482076fff8cafc63419c2d34a" target="_top" xlink:title="uxListRemove">
<polygon fill="white" stroke="black" points="342,-0.5 342,-19.5 422,-19.5 422,-0.5 342,-0.5"/>
<text text-anchor="middle" x="382" y="-7.5" font-family="Helvetica,sans-Serif" font-size="10.00">uxListRemove</text>
</a>
</g>
</g>
<!-- Node8&#45;&gt;Node9 -->
<g id="edge8" class="edge"><title>Node8&#45;&gt;Node9</title>
<path fill="none" stroke="midnightblue" d="M276.279,-22.6733C294.175,-20.5075 314.125,-18.0931 331.772,-15.9575"/>
<polygon fill="midnightblue" stroke="midnightblue" points="332.356,-19.4125 341.863,-14.7363 331.515,-12.4632 332.356,-19.4125"/>
</g>
<!-- Node8&#45;&gt;Node6 -->
<g id="edge9" class="edge"><title>Node8&#45;&gt;Node6</title>
<path fill="none" stroke="midnightblue" d="M276.279,-35.3267C302.529,-38.5035 333.199,-42.2152 354.537,-44.7974"/>
<polygon fill="midnightblue" stroke="midnightblue" points="354.138,-48.2746 364.486,-46.0015 354.979,-41.3253 354.138,-48.2746"/>
</g>
</g>
</svg>
