<?xml version="1.0" encoding="UTF-8" standalone="no"?>
<!DOCTYPE svg PUBLIC "-//W3C//DTD SVG 1.1//EN"
 "http://www.w3.org/Graphics/SVG/1.1/DTD/svg11.dtd">
<!-- Generated by graphviz version 2.30.1 (20130221.2233)
 -->
<!-- Title: __attribute__ Pages: 1 -->
<svg width="342pt" height="66pt"
 viewBox="0.00 0.00 342.00 66.00" xmlns="http://www.w3.org/2000/svg" xmlns:xlink="http://www.w3.org/1999/xlink">
<g id="graph0" class="graph" transform="scale(1 1) rotate(0) translate(4 62)">
<title>__attribute__</title>
<polygon fill="white" stroke="white" points="-4,5 -4,-62 339,-62 339,5 -4,5"/>
<!-- Node1 -->
<g id="node1" class="node"><title>Node1</title>
<polygon fill="#bfbfbf" stroke="black" points="0.5,-19.5 0.5,-38.5 75.5,-38.5 75.5,-19.5 0.5,-19.5"/>
<text text-anchor="middle" x="38" y="-26.5" font-family="Helvetica,sans-Serif" font-size="10.00">__attribute__</text>
</g>
<!-- Node2 -->
<g id="node2" class="node"><title>Node2</title>
<g id="a_node2"><a xlink:href="task_8h.html#a978e25460ac35706f9ad30b46d9403d8" target="_top" xlink:title="xTaskIncrementTick">
<polygon fill="white" stroke="black" points="112,-19.5 112,-38.5 218,-38.5 218,-19.5 112,-19.5"/>
<text text-anchor="middle" x="165" y="-26.5" font-family="Helvetica,sans-Serif" font-size="10.00">xTaskIncrementTick</text>
</a>
</g>
</g>
<!-- Node1&#45;&gt;Node2 -->
<g id="edge1" class="edge"><title>Node1&#45;&gt;Node2</title>
<path fill="none" stroke="midnightblue" d="M75.828,-29C83.9028,-29 92.6695,-29 101.438,-29"/>
<polygon fill="midnightblue" stroke="midnightblue" points="101.69,-32.5001 111.69,-29 101.69,-25.5001 101.69,-32.5001"/>
</g>
<!-- Node3 -->
<g id="node3" class="node"><title>Node3</title>
<g id="a_node3"><a xlink:href="list_8h.html#a2eb1558482076fff8cafc63419c2d34a" target="_top" xlink:title="uxListRemove">
<polygon fill="white" stroke="black" points="254,-38.5 254,-57.5 334,-57.5 334,-38.5 254,-38.5"/>
<text text-anchor="middle" x="294" y="-45.5" font-family="Helvetica,sans-Serif" font-size="10.00">uxListRemove</text>
</a>
</g>
</g>
<!-- Node2&#45;&gt;Node3 -->
<g id="edge2" class="edge"><title>Node2&#45;&gt;Node3</title>
<path fill="none" stroke="midnightblue" d="M218.022,-36.7828C226.496,-38.0506 235.252,-39.3605 243.659,-40.6183"/>
<polygon fill="midnightblue" stroke="midnightblue" points="243.291,-44.102 253.698,-42.1202 244.326,-37.1791 243.291,-44.102"/>
</g>
<!-- Node4 -->
<g id="node4" class="node"><title>Node4</title>
<g id="a_node4"><a xlink:href="_paradigm_2_tern___e_e_2small_2portmacro_8h.html#a14d32f8130d3c0b212cfc751730b5b49" target="_top" xlink:title="void">
<polygon fill="white" stroke="black" points="276.5,-0.5 276.5,-19.5 311.5,-19.5 311.5,-0.5 276.5,-0.5"/>
<text text-anchor="middle" x="294" y="-7.5" font-family="Helvetica,sans-Serif" font-size="10.00">void</text>
</a>
</g>
</g>
<!-- Node2&#45;&gt;Node4 -->
<g id="edge3" class="edge"><title>Node2&#45;&gt;Node4</title>
<path fill="none" stroke="midnightblue" d="M218.022,-21.2172C234.617,-18.7345 252.293,-16.09 266.312,-13.9926"/>
<polygon fill="midnightblue" stroke="midnightblue" points="266.87,-17.4483 276.242,-12.5071 265.834,-10.5253 266.87,-17.4483"/>
</g>
</g>
</svg>
