<?xml version="1.0" encoding="UTF-8" standalone="no"?>
<!DOCTYPE svg PUBLIC "-//W3C//DTD SVG 1.1//EN"
 "http://www.w3.org/Graphics/SVG/1.1/DTD/svg11.dtd">
<!-- Generated by graphviz version 2.30.1 (20130221.2233)
 -->
<!-- Title: source/portable/MPLAB/PIC18F/port.c Pages: 1 -->
<svg width="524pt" height="208pt"
 viewBox="0.00 0.00 524.00 208.00" xmlns="http://www.w3.org/2000/svg" xmlns:xlink="http://www.w3.org/1999/xlink">
<g id="graph0" class="graph" transform="scale(1 1) rotate(0) translate(4 204)">
<title>source/portable/MPLAB/PIC18F/port.c</title>
<polygon fill="white" stroke="white" points="-4,5 -4,-204 521,-204 521,5 -4,5"/>
<!-- Node1 -->
<g id="node1" class="node"><title>Node1</title>
<polygon fill="#bfbfbf" stroke="black" points="328,-169 328,-199 450,-199 450,-169 328,-169"/>
<text text-anchor="start" x="336" y="-187" font-family="Helvetica,sans-Serif" font-size="10.00">source/portable/MPLAB</text>
<text text-anchor="middle" x="389" y="-176" font-family="Helvetica,sans-Serif" font-size="10.00">/PIC18F/port.c</text>
</g>
<!-- Node2 -->
<g id="node2" class="node"><title>Node2</title>
<g id="a_node2"><a xlink:href="_free_r_t_o_s_8h.html" target="_top" xlink:title="FreeRTOS.h">
<polygon fill="white" stroke="black" points="201.5,-112.5 201.5,-131.5 274.5,-131.5 274.5,-112.5 201.5,-112.5"/>
<text text-anchor="middle" x="238" y="-119.5" font-family="Helvetica,sans-Serif" font-size="10.00">FreeRTOS.h</text>
</a>
</g>
</g>
<!-- Node1&#45;&gt;Node2 -->
<g id="edge1" class="edge"><title>Node1&#45;&gt;Node2</title>
<path fill="none" stroke="midnightblue" d="M353.597,-168.933C328.008,-158.765 293.762,-145.157 269.197,-135.396"/>
<polygon fill="midnightblue" stroke="midnightblue" points="270.229,-132.04 259.643,-131.6 267.644,-138.545 270.229,-132.04"/>
</g>
<!-- Node11 -->
<g id="node11" class="node"><title>Node11</title>
<g id="a_node11"><a xlink:href="task_8h.html" target="_top" xlink:title="task.h">
<polygon fill="white" stroke="black" points="421.5,-56.5 421.5,-75.5 464.5,-75.5 464.5,-56.5 421.5,-56.5"/>
<text text-anchor="middle" x="443" y="-63.5" font-family="Helvetica,sans-Serif" font-size="10.00">task.h</text>
</a>
</g>
</g>
<!-- Node1&#45;&gt;Node11 -->
<g id="edge10" class="edge"><title>Node1&#45;&gt;Node11</title>
<path fill="none" stroke="midnightblue" d="M391.082,-168.799C393.635,-154.026 398.8,-130.511 408,-112 413.166,-101.607 420.943,-91.2929 427.855,-83.1666"/>
<polygon fill="midnightblue" stroke="midnightblue" points="430.572,-85.3778 434.6,-75.5782 425.34,-80.7275 430.572,-85.3778"/>
</g>
<!-- Node13 -->
<g id="node13" class="node"><title>Node13</title>
<g id="a_node13"><a xlink:href="timers_8h.html" target="_top" xlink:title="timers.h">
<polygon fill="white" stroke="black" points="417,-112.5 417,-131.5 469,-131.5 469,-112.5 417,-112.5"/>
<text text-anchor="middle" x="443" y="-119.5" font-family="Helvetica,sans-Serif" font-size="10.00">timers.h</text>
</a>
</g>
</g>
<!-- Node1&#45;&gt;Node13 -->
<g id="edge12" class="edge"><title>Node1&#45;&gt;Node13</title>
<path fill="none" stroke="midnightblue" d="M401.797,-168.781C409.725,-159.972 419.936,-148.626 428.21,-139.433"/>
<polygon fill="midnightblue" stroke="midnightblue" points="431.054,-141.505 435.143,-131.731 425.851,-136.822 431.054,-141.505"/>
</g>
<!-- Node3 -->
<g id="node3" class="node"><title>Node3</title>
<polygon fill="white" stroke="#bfbfbf" points="0,-56.5 0,-75.5 52,-75.5 52,-56.5 0,-56.5"/>
<text text-anchor="middle" x="26" y="-63.5" font-family="Helvetica,sans-Serif" font-size="10.00">stddef.h</text>
</g>
<!-- Node2&#45;&gt;Node3 -->
<g id="edge2" class="edge"><title>Node2&#45;&gt;Node3</title>
<path fill="none" stroke="midnightblue" d="M204.39,-112.484C170.798,-103.966 117.401,-90.4095 62.3091,-76.3301"/>
<polygon fill="midnightblue" stroke="midnightblue" points="62.9266,-72.8755 52.3713,-73.7894 61.1927,-79.6573 62.9266,-72.8755"/>
</g>
<!-- Node4 -->
<g id="node4" class="node"><title>Node4</title>
<polygon fill="white" stroke="#bfbfbf" points="70.5,-56.5 70.5,-75.5 119.5,-75.5 119.5,-56.5 70.5,-56.5"/>
<text text-anchor="middle" x="95" y="-63.5" font-family="Helvetica,sans-Serif" font-size="10.00">stdint.h</text>
</g>
<!-- Node2&#45;&gt;Node4 -->
<g id="edge3" class="edge"><title>Node2&#45;&gt;Node4</title>
<path fill="none" stroke="midnightblue" d="M215.341,-112.444C191.598,-103.478 154.091,-89.314 127.262,-79.1827"/>
<polygon fill="midnightblue" stroke="midnightblue" points="128.144,-75.7749 117.553,-75.5164 125.671,-82.3235 128.144,-75.7749"/>
</g>
<!-- Node5 -->
<g id="node5" class="node"><title>Node5</title>
<polygon fill="white" stroke="#bfbfbf" points="138,-56.5 138,-75.5 240,-75.5 240,-56.5 138,-56.5"/>
<text text-anchor="middle" x="189" y="-63.5" font-family="Helvetica,sans-Serif" font-size="10.00">FreeRTOSConfig.h</text>
</g>
<!-- Node2&#45;&gt;Node5 -->
<g id="edge4" class="edge"><title>Node2&#45;&gt;Node5</title>
<path fill="none" stroke="midnightblue" d="M229.909,-112.083C222.845,-104.298 212.412,-92.8015 203.851,-83.3665"/>
<polygon fill="midnightblue" stroke="midnightblue" points="206.253,-80.8047 196.941,-75.7511 201.069,-85.5087 206.253,-80.8047"/>
</g>
<!-- Node6 -->
<g id="node6" class="node"><title>Node6</title>
<g id="a_node6"><a xlink:href="projdefs_8h.html" target="_top" xlink:title="projdefs.h">
<polygon fill="white" stroke="black" points="258,-56.5 258,-75.5 318,-75.5 318,-56.5 258,-56.5"/>
<text text-anchor="middle" x="288" y="-63.5" font-family="Helvetica,sans-Serif" font-size="10.00">projdefs.h</text>
</a>
</g>
</g>
<!-- Node2&#45;&gt;Node6 -->
<g id="edge5" class="edge"><title>Node2&#45;&gt;Node6</title>
<path fill="none" stroke="midnightblue" d="M246.256,-112.083C253.465,-104.298 264.11,-92.8015 272.846,-83.3665"/>
<polygon fill="midnightblue" stroke="midnightblue" points="275.671,-85.4666 279.897,-75.7511 270.535,-80.7108 275.671,-85.4666"/>
</g>
<!-- Node7 -->
<g id="node7" class="node"><title>Node7</title>
<g id="a_node7"><a xlink:href="portable_8h.html" target="_top" xlink:title="portable.h">
<polygon fill="white" stroke="black" points="336.5,-56.5 336.5,-75.5 397.5,-75.5 397.5,-56.5 336.5,-56.5"/>
<text text-anchor="middle" x="367" y="-63.5" font-family="Helvetica,sans-Serif" font-size="10.00">portable.h</text>
</a>
</g>
</g>
<!-- Node2&#45;&gt;Node7 -->
<g id="edge6" class="edge"><title>Node2&#45;&gt;Node7</title>
<path fill="none" stroke="midnightblue" d="M258.44,-112.444C279.67,-103.557 313.099,-89.5632 337.255,-79.4514"/>
<polygon fill="midnightblue" stroke="midnightblue" points="338.782,-82.6064 346.655,-75.5164 336.079,-76.1493 338.782,-82.6064"/>
</g>
<!-- Node8 -->
<g id="node8" class="node"><title>Node8</title>
<g id="a_node8"><a xlink:href="deprecated__definitions_8h.html" target="_top" xlink:title="deprecated_definitions.h">
<polygon fill="white" stroke="black" points="138.5,-0.5 138.5,-19.5 263.5,-19.5 263.5,-0.5 138.5,-0.5"/>
<text text-anchor="middle" x="201" y="-7.5" font-family="Helvetica,sans-Serif" font-size="10.00">deprecated_definitions.h</text>
</a>
</g>
</g>
<!-- Node7&#45;&gt;Node8 -->
<g id="edge7" class="edge"><title>Node7&#45;&gt;Node8</title>
<path fill="none" stroke="midnightblue" d="M340.697,-56.4435C312.649,-47.3196 268.056,-32.8133 236.816,-22.6509"/>
<polygon fill="midnightblue" stroke="midnightblue" points="237.772,-19.2816 227.18,-19.5164 235.607,-25.9383 237.772,-19.2816"/>
</g>
<!-- Node9 -->
<g id="node9" class="node"><title>Node9</title>
<polygon fill="white" stroke="#bfbfbf" points="282,-0.5 282,-19.5 352,-19.5 352,-0.5 282,-0.5"/>
<text text-anchor="middle" x="317" y="-7.5" font-family="Helvetica,sans-Serif" font-size="10.00">portmacro.h</text>
</g>
<!-- Node7&#45;&gt;Node9 -->
<g id="edge8" class="edge"><title>Node7&#45;&gt;Node9</title>
<path fill="none" stroke="midnightblue" d="M358.744,-56.083C351.535,-48.2982 340.89,-36.8015 332.154,-27.3665"/>
<polygon fill="midnightblue" stroke="midnightblue" points="334.465,-24.7108 325.103,-19.7511 329.329,-29.4666 334.465,-24.7108"/>
</g>
<!-- Node10 -->
<g id="node10" class="node"><title>Node10</title>
<g id="a_node10"><a xlink:href="mpu__wrappers_8h.html" target="_top" xlink:title="mpu_wrappers.h">
<polygon fill="white" stroke="black" points="370.5,-0.5 370.5,-19.5 461.5,-19.5 461.5,-0.5 370.5,-0.5"/>
<text text-anchor="middle" x="416" y="-7.5" font-family="Helvetica,sans-Serif" font-size="10.00">mpu_wrappers.h</text>
</a>
</g>
</g>
<!-- Node7&#45;&gt;Node10 -->
<g id="edge9" class="edge"><title>Node7&#45;&gt;Node10</title>
<path fill="none" stroke="midnightblue" d="M375.091,-56.083C382.155,-48.2982 392.588,-36.8015 401.149,-27.3665"/>
<polygon fill="midnightblue" stroke="midnightblue" points="403.931,-29.5087 408.059,-19.7511 398.747,-24.8047 403.931,-29.5087"/>
</g>
<!-- Node12 -->
<g id="node12" class="node"><title>Node12</title>
<g id="a_node12"><a xlink:href="list_8h.html" target="_top" xlink:title="list.h">
<polygon fill="white" stroke="black" points="479.5,-0.5 479.5,-19.5 516.5,-19.5 516.5,-0.5 479.5,-0.5"/>
<text text-anchor="middle" x="498" y="-7.5" font-family="Helvetica,sans-Serif" font-size="10.00">list.h</text>
</a>
</g>
</g>
<!-- Node11&#45;&gt;Node12 -->
<g id="edge11" class="edge"><title>Node11&#45;&gt;Node12</title>
<path fill="none" stroke="midnightblue" d="M452.082,-56.083C460.171,-48.1409 472.195,-36.3354 481.91,-26.7973"/>
<polygon fill="midnightblue" stroke="midnightblue" points="484.403,-29.2545 489.087,-19.7511 479.499,-24.2595 484.403,-29.2545"/>
</g>
<!-- Node13&#45;&gt;Node11 -->
<g id="edge13" class="edge"><title>Node13&#45;&gt;Node11</title>
<path fill="none" stroke="midnightblue" d="M443,-112.083C443,-105.006 443,-94.8611 443,-85.9865"/>
<polygon fill="midnightblue" stroke="midnightblue" points="446.5,-85.751 443,-75.7511 439.5,-85.7511 446.5,-85.751"/>
</g>
</g>
</svg>
