<?xml version="1.0" encoding="UTF-8" standalone="no"?>
<!DOCTYPE svg PUBLIC "-//W3C//DTD SVG 1.1//EN"
 "http://www.w3.org/Graphics/SVG/1.1/DTD/svg11.dtd">
<!-- Generated by graphviz version 2.30.1 (20130221.2233)
 -->
<!-- Title: prvTickISR Pages: 1 -->
<svg width="338pt" height="47pt"
 viewBox="0.00 0.00 338.00 47.00" xmlns="http://www.w3.org/2000/svg" xmlns:xlink="http://www.w3.org/1999/xlink">
<g id="graph0" class="graph" transform="scale(1 1) rotate(0) translate(4 43)">
<title>prvTickISR</title>
<polygon fill="white" stroke="white" points="-4,5 -4,-43 335,-43 335,5 -4,5"/>
<!-- Node1 -->
<g id="node1" class="node"><title>Node1</title>
<polygon fill="#bfbfbf" stroke="black" points="0.5,-0.5 0.5,-19.5 65.5,-19.5 65.5,-0.5 0.5,-0.5"/>
<text text-anchor="middle" x="33" y="-7.5" font-family="Helvetica,sans-Serif" font-size="10.00">prvTickISR</text>
</g>
<!-- Node2 -->
<g id="node2" class="node"><title>Node2</title>
<g id="a_node2"><a xlink:href="_m_p_l_a_b_2_p_i_c18_f_2port_8c.html#a58197e4187d2a15e3442c99500df5250" target="_top" xlink:title="prvLowInterrupt">
<polygon fill="white" stroke="black" points="102,-19.5 102,-38.5 188,-38.5 188,-19.5 102,-19.5"/>
<text text-anchor="middle" x="145" y="-26.5" font-family="Helvetica,sans-Serif" font-size="10.00">prvLowInterrupt</text>
</a>
</g>
</g>
<!-- Node1&#45;&gt;Node2 -->
<g id="edge1" class="edge"><title>Node1&#45;&gt;Node2</title>
<path fill="none" stroke="midnightblue" d="M75.3871,-17.1487C84.0255,-18.6408 93.142,-20.2154 101.809,-21.7125"/>
<polygon fill="midnightblue" stroke="midnightblue" points="75.9714,-13.6979 65.5216,-15.4446 74.7799,-20.5957 75.9714,-13.6979"/>
</g>
<!-- Node3 -->
<g id="node3" class="node"><title>Node3</title>
<g id="a_node3"><a xlink:href="_m_p_l_a_b_2_p_i_c18_f_2port_8c.html#ade5a8c6666e7413a0355cc252029c5c6" target="_top" xlink:title="xPortStartScheduler">
<polygon fill="white" stroke="black" points="224,-0.5 224,-19.5 330,-19.5 330,-0.5 224,-0.5"/>
<text text-anchor="middle" x="277" y="-7.5" font-family="Helvetica,sans-Serif" font-size="10.00">xPortStartScheduler</text>
</a>
</g>
</g>
<!-- Node1&#45;&gt;Node3 -->
<g id="edge3" class="edge"><title>Node1&#45;&gt;Node3</title>
<path fill="none" stroke="midnightblue" d="M75.8139,-10C116.761,-10 179.28,-10 223.541,-10"/>
<polygon fill="midnightblue" stroke="midnightblue" points="75.6373,-6.5001 65.6373,-10 75.6372,-13.5001 75.6373,-6.5001"/>
</g>
<!-- Node2&#45;&gt;Node3 -->
<g id="edge2" class="edge"><title>Node2&#45;&gt;Node3</title>
<path fill="none" stroke="midnightblue" d="M198.203,-21.3703C206.549,-20.1505 215.188,-18.8879 223.54,-17.6673"/>
<polygon fill="midnightblue" stroke="midnightblue" points="197.596,-17.9218 188.207,-22.8312 198.608,-24.8482 197.596,-17.9218"/>
</g>
</g>
</svg>
