<?xml version="1.0" encoding="UTF-8" standalone="no"?>
<!DOCTYPE svg PUBLIC "-//W3C//DTD SVG 1.1//EN"
 "http://www.w3.org/Graphics/SVG/1.1/DTD/svg11.dtd">
<!-- Generated by graphviz version 2.30.1 (20130221.2233)
 -->
<!-- Title: prvLowInterrupt Pages: 1 -->
<svg width="466pt" height="142pt"
 viewBox="0.00 0.00 466.00 142.00" xmlns="http://www.w3.org/2000/svg" xmlns:xlink="http://www.w3.org/1999/xlink">
<g id="graph0" class="graph" transform="scale(1 1) rotate(0) translate(4 138)">
<title>prvLowInterrupt</title>
<polygon fill="white" stroke="white" points="-4,5 -4,-138 463,-138 463,5 -4,5"/>
<!-- Node1 -->
<g id="node1" class="node"><title>Node1</title>
<polygon fill="#bfbfbf" stroke="black" points="0,-38.5 0,-57.5 86,-57.5 86,-38.5 0,-38.5"/>
<text text-anchor="middle" x="43" y="-45.5" font-family="Helvetica,sans-Serif" font-size="10.00">prvLowInterrupt</text>
</g>
<!-- Node2 -->
<g id="node2" class="node"><title>Node2</title>
<g id="a_node2"><a xlink:href="_m_p_l_a_b_2_p_i_c18_f_2port_8c.html#aa102d20e6272879e93b4fe81a049dad6" target="_top" xlink:title="prvTickISR">
<polygon fill="white" stroke="black" points="127.5,-76.5 127.5,-95.5 192.5,-95.5 192.5,-76.5 127.5,-76.5"/>
<text text-anchor="middle" x="160" y="-83.5" font-family="Helvetica,sans-Serif" font-size="10.00">prvTickISR</text>
</a>
</g>
</g>
<!-- Node1&#45;&gt;Node2 -->
<g id="edge1" class="edge"><title>Node1&#45;&gt;Node2</title>
<path fill="none" stroke="midnightblue" d="M73.0194,-57.589C87.32,-62.3144 104.765,-68.0789 120.195,-73.1774"/>
<polygon fill="midnightblue" stroke="midnightblue" points="119.397,-76.5998 129.99,-76.4141 121.593,-69.9532 119.397,-76.5998"/>
</g>
<!-- Node7 -->
<g id="node7" class="node"><title>Node7</title>
<g id="a_node7"><a xlink:href="_m_p_l_a_b_2_p_i_c18_f_2port_8c.html#ac7e6fe280714dbd37e42dff8f41005c4" target="_top" xlink:title="vSerialRxISR">
<polygon fill="white" stroke="black" points="122,-38.5 122,-57.5 198,-57.5 198,-38.5 122,-38.5"/>
<text text-anchor="middle" x="160" y="-45.5" font-family="Helvetica,sans-Serif" font-size="10.00">vSerialRxISR</text>
</a>
</g>
</g>
<!-- Node1&#45;&gt;Node7 -->
<g id="edge6" class="edge"><title>Node1&#45;&gt;Node7</title>
<path fill="none" stroke="midnightblue" d="M86.1688,-48C94.4631,-48 103.217,-48 111.668,-48"/>
<polygon fill="midnightblue" stroke="midnightblue" points="111.775,-51.5001 121.774,-48 111.774,-44.5001 111.775,-51.5001"/>
</g>
<!-- Node8 -->
<g id="node8" class="node"><title>Node8</title>
<g id="a_node8"><a xlink:href="_m_p_l_a_b_2_p_i_c18_f_2port_8c.html#aca258f7ba02e25e54c401721007de5a9" target="_top" xlink:title="vSerialTxISR">
<polygon fill="white" stroke="black" points="122.5,-0.5 122.5,-19.5 197.5,-19.5 197.5,-0.5 122.5,-0.5"/>
<text text-anchor="middle" x="160" y="-7.5" font-family="Helvetica,sans-Serif" font-size="10.00">vSerialTxISR</text>
</a>
</g>
</g>
<!-- Node1&#45;&gt;Node8 -->
<g id="edge7" class="edge"><title>Node1&#45;&gt;Node8</title>
<path fill="none" stroke="midnightblue" d="M73.0194,-38.411C87.32,-33.6856 104.765,-27.9211 120.195,-22.8226"/>
<polygon fill="midnightblue" stroke="midnightblue" points="121.593,-26.0468 129.99,-19.5859 119.397,-19.4002 121.593,-26.0468"/>
</g>
<!-- Node3 -->
<g id="node3" class="node"><title>Node3</title>
<g id="a_node3"><a xlink:href="task_8h.html#a978e25460ac35706f9ad30b46d9403d8" target="_top" xlink:title="xTaskIncrementTick">
<polygon fill="white" stroke="black" points="235,-95.5 235,-114.5 341,-114.5 341,-95.5 235,-95.5"/>
<text text-anchor="middle" x="288" y="-102.5" font-family="Helvetica,sans-Serif" font-size="10.00">xTaskIncrementTick</text>
</a>
</g>
</g>
<!-- Node2&#45;&gt;Node3 -->
<g id="edge2" class="edge"><title>Node2&#45;&gt;Node3</title>
<path fill="none" stroke="midnightblue" d="M192.795,-90.7945C202.507,-92.259 213.543,-93.9231 224.556,-95.5838"/>
<polygon fill="midnightblue" stroke="midnightblue" points="224.215,-99.0719 234.625,-97.1022 225.259,-92.1502 224.215,-99.0719"/>
</g>
<!-- Node6 -->
<g id="node6" class="node"><title>Node6</title>
<g id="a_node6"><a xlink:href="_renesas_2_r_x100_2port_8c.html#a9c86137bc3c1cbffc39fff22627cb885" target="_top" xlink:title="vTaskSwitchContext">
<polygon fill="white" stroke="black" points="234.5,-57.5 234.5,-76.5 341.5,-76.5 341.5,-57.5 234.5,-57.5"/>
<text text-anchor="middle" x="288" y="-64.5" font-family="Helvetica,sans-Serif" font-size="10.00">vTaskSwitchContext</text>
</a>
</g>
</g>
<!-- Node2&#45;&gt;Node6 -->
<g id="edge5" class="edge"><title>Node2&#45;&gt;Node6</title>
<path fill="none" stroke="midnightblue" d="M192.795,-81.2055C202.396,-79.7578 213.289,-78.1151 224.176,-76.4734"/>
<polygon fill="midnightblue" stroke="midnightblue" points="224.769,-79.9237 234.135,-74.9717 223.725,-73.002 224.769,-79.9237"/>
</g>
<!-- Node4 -->
<g id="node4" class="node"><title>Node4</title>
<g id="a_node4"><a xlink:href="list_8h.html#a2eb1558482076fff8cafc63419c2d34a" target="_top" xlink:title="uxListRemove">
<polygon fill="white" stroke="black" points="378,-114.5 378,-133.5 458,-133.5 458,-114.5 378,-114.5"/>
<text text-anchor="middle" x="418" y="-121.5" font-family="Helvetica,sans-Serif" font-size="10.00">uxListRemove</text>
</a>
</g>
</g>
<!-- Node3&#45;&gt;Node4 -->
<g id="edge3" class="edge"><title>Node3&#45;&gt;Node4</title>
<path fill="none" stroke="midnightblue" d="M341.062,-112.728C349.918,-114.042 359.089,-115.404 367.865,-116.707"/>
<polygon fill="midnightblue" stroke="midnightblue" points="367.538,-120.196 377.944,-118.203 368.566,-113.272 367.538,-120.196"/>
</g>
<!-- Node5 -->
<g id="node5" class="node"><title>Node5</title>
<g id="a_node5"><a xlink:href="_paradigm_2_tern___e_e_2small_2portmacro_8h.html#a14d32f8130d3c0b212cfc751730b5b49" target="_top" xlink:title="void">
<polygon fill="white" stroke="black" points="400.5,-76.5 400.5,-95.5 435.5,-95.5 435.5,-76.5 400.5,-76.5"/>
<text text-anchor="middle" x="418" y="-83.5" font-family="Helvetica,sans-Serif" font-size="10.00">void</text>
</a>
</g>
</g>
<!-- Node3&#45;&gt;Node5 -->
<g id="edge4" class="edge"><title>Node3&#45;&gt;Node5</title>
<path fill="none" stroke="midnightblue" d="M341.062,-97.272C357.94,-94.7667 375.966,-92.0911 390.218,-89.9755"/>
<polygon fill="midnightblue" stroke="midnightblue" points="390.921,-93.4095 400.299,-88.479 389.894,-86.4853 390.921,-93.4095"/>
</g>
</g>
</svg>
