<?xml version="1.0" encoding="UTF-8" standalone="no"?>
<!DOCTYPE svg PUBLIC "-//W3C//DTD SVG 1.1//EN"
 "http://www.w3.org/Graphics/SVG/1.1/DTD/svg11.dtd">
<!-- Generated by graphviz version 2.30.1 (20130221.2233)
 -->
<!-- Title: prvEndProcess Pages: 1 -->
<svg width="416pt" height="28pt"
 viewBox="0.00 0.00 416.00 28.00" xmlns="http://www.w3.org/2000/svg" xmlns:xlink="http://www.w3.org/1999/xlink">
<g id="graph0" class="graph" transform="scale(1 1) rotate(0) translate(4 24)">
<title>prvEndProcess</title>
<polygon fill="white" stroke="white" points="-4,5 -4,-24 413,-24 413,5 -4,5"/>
<!-- Node1 -->
<g id="node1" class="node"><title>Node1</title>
<polygon fill="#bfbfbf" stroke="black" points="0,-0.5 0,-19.5 84,-19.5 84,-0.5 0,-0.5"/>
<text text-anchor="middle" x="42" y="-7.5" font-family="Helvetica,sans-Serif" font-size="10.00">prvEndProcess</text>
</g>
<!-- Node2 -->
<g id="node2" class="node"><title>Node2</title>
<g id="a_node2"><a xlink:href="_m_s_v_c-_ming_w_2port_8c.html#a284a392f76fcc26d88e604c71e491bfd" target="_top" xlink:title="prvSimulatedPeripheralTimer">
<polygon fill="white" stroke="black" points="120,-0.5 120,-19.5 266,-19.5 266,-0.5 120,-0.5"/>
<text text-anchor="middle" x="193" y="-7.5" font-family="Helvetica,sans-Serif" font-size="10.00">prvSimulatedPeripheralTimer</text>
</a>
</g>
</g>
<!-- Node1&#45;&gt;Node2 -->
<g id="edge1" class="edge"><title>Node1&#45;&gt;Node2</title>
<path fill="none" stroke="midnightblue" d="M94.3013,-10C102.553,-10 111.227,-10 119.859,-10"/>
<polygon fill="midnightblue" stroke="midnightblue" points="94.1094,-6.5001 84.1093,-10 94.1093,-13.5001 94.1094,-6.5001"/>
</g>
<!-- Node3 -->
<g id="node3" class="node"><title>Node3</title>
<g id="a_node3"><a xlink:href="_m_s_v_c-_ming_w_2port_8c.html#ade5a8c6666e7413a0355cc252029c5c6" target="_top" xlink:title="xPortStartScheduler">
<polygon fill="white" stroke="black" points="302,-0.5 302,-19.5 408,-19.5 408,-0.5 302,-0.5"/>
<text text-anchor="middle" x="355" y="-7.5" font-family="Helvetica,sans-Serif" font-size="10.00">xPortStartScheduler</text>
</a>
</g>
</g>
<!-- Node2&#45;&gt;Node3 -->
<g id="edge2" class="edge"><title>Node2&#45;&gt;Node3</title>
<path fill="none" stroke="midnightblue" d="M276.294,-10C285.034,-10 293.736,-10 301.985,-10"/>
<polygon fill="midnightblue" stroke="midnightblue" points="276.043,-6.5001 266.043,-10 276.043,-13.5001 276.043,-6.5001"/>
</g>
</g>
</svg>
