<?xml version="1.0" encoding="UTF-8" standalone="no"?>
<!DOCTYPE svg PUBLIC "-//W3C//DTD SVG 1.1//EN"
 "http://www.w3.org/Graphics/SVG/1.1/DTD/svg11.dtd">
<!-- Generated by graphviz version 2.30.1 (20130221.2233)
 -->
<!-- Title: prvSimulatedPeripheralTimer Pages: 1 -->
<svg width="346pt" height="47pt"
 viewBox="0.00 0.00 346.00 47.00" xmlns="http://www.w3.org/2000/svg" xmlns:xlink="http://www.w3.org/1999/xlink">
<g id="graph0" class="graph" transform="scale(1 1) rotate(0) translate(4 43)">
<title>prvSimulatedPeripheralTimer</title>
<polygon fill="white" stroke="white" points="-4,5 -4,-43 343,-43 343,5 -4,5"/>
<!-- Node1 -->
<g id="node1" class="node"><title>Node1</title>
<polygon fill="#bfbfbf" stroke="black" points="0,-0.5 0,-19.5 146,-19.5 146,-0.5 0,-0.5"/>
<text text-anchor="middle" x="73" y="-7.5" font-family="Helvetica,sans-Serif" font-size="10.00">prvSimulatedPeripheralTimer</text>
</g>
<!-- Node2 -->
<g id="node2" class="node"><title>Node2</title>
<g id="a_node2"><a xlink:href="_m_s_v_c-_ming_w_2port_8c.html#ae18099e835a03c7c5dfe13da9c102bd7" target="_top" xlink:title="prvEndProcess">
<polygon fill="white" stroke="black" points="182,-19.5 182,-38.5 266,-38.5 266,-19.5 182,-19.5"/>
<text text-anchor="middle" x="224" y="-26.5" font-family="Helvetica,sans-Serif" font-size="10.00">prvEndProcess</text>
</a>
</g>
</g>
<!-- Node1&#45;&gt;Node2 -->
<g id="edge1" class="edge"><title>Node1&#45;&gt;Node2</title>
<path fill="none" stroke="midnightblue" d="M146.318,-19.2217C154.868,-20.312 163.456,-21.4072 171.632,-22.4497"/>
<polygon fill="midnightblue" stroke="midnightblue" points="171.371,-25.9447 181.733,-23.7378 172.256,-19.0009 171.371,-25.9447"/>
</g>
<!-- Node3 -->
<g id="node3" class="node"><title>Node3</title>
<g id="a_node3"><a xlink:href="_paradigm_2_tern___e_e_2small_2portmacro_8h.html#a14d32f8130d3c0b212cfc751730b5b49" target="_top" xlink:title="void">
<polygon fill="white" stroke="black" points="302.5,-0.5 302.5,-19.5 337.5,-19.5 337.5,-0.5 302.5,-0.5"/>
<text text-anchor="middle" x="320" y="-7.5" font-family="Helvetica,sans-Serif" font-size="10.00">void</text>
</a>
</g>
</g>
<!-- Node1&#45;&gt;Node3 -->
<g id="edge3" class="edge"><title>Node1&#45;&gt;Node3</title>
<path fill="none" stroke="midnightblue" d="M146.183,-10C195.092,-10 256.952,-10 291.834,-10"/>
<polygon fill="midnightblue" stroke="midnightblue" points="292.16,-13.5001 302.16,-10 292.16,-6.5001 292.16,-13.5001"/>
</g>
<!-- Node2&#45;&gt;Node3 -->
<g id="edge2" class="edge"><title>Node2&#45;&gt;Node3</title>
<path fill="none" stroke="midnightblue" d="M266.23,-20.6663C275.01,-18.8915 284.064,-17.0616 292.139,-15.4293"/>
<polygon fill="midnightblue" stroke="midnightblue" points="292.978,-18.8307 302.086,-13.4188 291.591,-11.9694 292.978,-18.8307"/>
</g>
</g>
</svg>
