<?xml version="1.0" encoding="UTF-8" standalone="no"?>
<!DOCTYPE svg PUBLIC "-//W3C//DTD SVG 1.1//EN"
 "http://www.w3.org/Graphics/SVG/1.1/DTD/svg11.dtd">
<!-- Generated by graphviz version 2.30.1 (20130221.2233)
 -->
<!-- Title: prvSetupTimerInterrupt Pages: 1 -->
<svg width="540pt" height="66pt"
 viewBox="0.00 0.00 540.00 66.00" xmlns="http://www.w3.org/2000/svg" xmlns:xlink="http://www.w3.org/1999/xlink">
<g id="graph0" class="graph" transform="scale(1 1) rotate(0) translate(4 62)">
<title>prvSetupTimerInterrupt</title>
<polygon fill="white" stroke="white" points="-4,5 -4,-62 537,-62 537,5 -4,5"/>
<!-- Node1 -->
<g id="node1" class="node"><title>Node1</title>
<polygon fill="#bfbfbf" stroke="black" points="0.5,-19.5 0.5,-38.5 119.5,-38.5 119.5,-19.5 0.5,-19.5"/>
<text text-anchor="middle" x="60" y="-26.5" font-family="Helvetica,sans-Serif" font-size="10.00">prvSetupTimerInterrupt</text>
</g>
<!-- Node2 -->
<g id="node2" class="node"><title>Node2</title>
<g id="a_node2"><a xlink:href="_paradigm_2_tern___e_e_2small_2port_8c.html#acf9df4f9ff9bc642609898d1a7503a53" target="_top" xlink:title="prvNonPreemptiveTick">
<polygon fill="white" stroke="black" points="156,-19.5 156,-38.5 274,-38.5 274,-19.5 156,-19.5"/>
<text text-anchor="middle" x="215" y="-26.5" font-family="Helvetica,sans-Serif" font-size="10.00">prvNonPreemptiveTick</text>
</a>
</g>
</g>
<!-- Node1&#45;&gt;Node2 -->
<g id="edge1" class="edge"><title>Node1&#45;&gt;Node2</title>
<path fill="none" stroke="midnightblue" d="M119.716,-29C128.257,-29 137.11,-29 145.818,-29"/>
<polygon fill="midnightblue" stroke="midnightblue" points="145.946,-32.5001 155.946,-29 145.946,-25.5001 145.946,-32.5001"/>
</g>
<!-- Node3 -->
<g id="node3" class="node"><title>Node3</title>
<g id="a_node3"><a xlink:href="task_8h.html#a978e25460ac35706f9ad30b46d9403d8" target="_top" xlink:title="xTaskIncrementTick">
<polygon fill="white" stroke="black" points="310,-19.5 310,-38.5 416,-38.5 416,-19.5 310,-19.5"/>
<text text-anchor="middle" x="363" y="-26.5" font-family="Helvetica,sans-Serif" font-size="10.00">xTaskIncrementTick</text>
</a>
</g>
</g>
<!-- Node2&#45;&gt;Node3 -->
<g id="edge2" class="edge"><title>Node2&#45;&gt;Node3</title>
<path fill="none" stroke="midnightblue" d="M274.123,-29C282.49,-29 291.129,-29 299.576,-29"/>
<polygon fill="midnightblue" stroke="midnightblue" points="299.751,-32.5001 309.751,-29 299.751,-25.5001 299.751,-32.5001"/>
</g>
<!-- Node4 -->
<g id="node4" class="node"><title>Node4</title>
<g id="a_node4"><a xlink:href="list_8h.html#a2eb1558482076fff8cafc63419c2d34a" target="_top" xlink:title="uxListRemove">
<polygon fill="white" stroke="black" points="452,-38.5 452,-57.5 532,-57.5 532,-38.5 452,-38.5"/>
<text text-anchor="middle" x="492" y="-45.5" font-family="Helvetica,sans-Serif" font-size="10.00">uxListRemove</text>
</a>
</g>
</g>
<!-- Node3&#45;&gt;Node4 -->
<g id="edge3" class="edge"><title>Node3&#45;&gt;Node4</title>
<path fill="none" stroke="midnightblue" d="M416.022,-36.7828C424.496,-38.0506 433.252,-39.3605 441.659,-40.6183"/>
<polygon fill="midnightblue" stroke="midnightblue" points="441.291,-44.102 451.698,-42.1202 442.326,-37.1791 441.291,-44.102"/>
</g>
<!-- Node5 -->
<g id="node5" class="node"><title>Node5</title>
<g id="a_node5"><a xlink:href="_paradigm_2_tern___e_e_2small_2portmacro_8h.html#a14d32f8130d3c0b212cfc751730b5b49" target="_top" xlink:title="void">
<polygon fill="white" stroke="black" points="474.5,-0.5 474.5,-19.5 509.5,-19.5 509.5,-0.5 474.5,-0.5"/>
<text text-anchor="middle" x="492" y="-7.5" font-family="Helvetica,sans-Serif" font-size="10.00">void</text>
</a>
</g>
</g>
<!-- Node3&#45;&gt;Node5 -->
<g id="edge4" class="edge"><title>Node3&#45;&gt;Node5</title>
<path fill="none" stroke="midnightblue" d="M416.022,-21.2172C432.617,-18.7345 450.293,-16.09 464.312,-13.9926"/>
<polygon fill="midnightblue" stroke="midnightblue" points="464.87,-17.4483 474.242,-12.5071 463.834,-10.5253 464.87,-17.4483"/>
</g>
</g>
</svg>
