<?xml version="1.0" encoding="UTF-8" standalone="no"?>
<!DOCTYPE svg PUBLIC "-//W3C//DTD SVG 1.1//EN"
 "http://www.w3.org/Graphics/SVG/1.1/DTD/svg11.dtd">
<!-- Generated by graphviz version 2.30.1 (20130221.2233)
 -->
<!-- Title: xPortStartScheduler Pages: 1 -->
<svg width="692pt" height="104pt"
 viewBox="0.00 0.00 692.00 104.00" xmlns="http://www.w3.org/2000/svg" xmlns:xlink="http://www.w3.org/1999/xlink">
<g id="graph0" class="graph" transform="scale(1 1) rotate(0) translate(4 100)">
<title>xPortStartScheduler</title>
<polygon fill="white" stroke="white" points="-4,5 -4,-100 689,-100 689,5 -4,5"/>
<!-- Node1 -->
<g id="node1" class="node"><title>Node1</title>
<polygon fill="#bfbfbf" stroke="black" points="0,-38.5 0,-57.5 106,-57.5 106,-38.5 0,-38.5"/>
<text text-anchor="middle" x="53" y="-45.5" font-family="Helvetica,sans-Serif" font-size="10.00">xPortStartScheduler</text>
</g>
<!-- Node2 -->
<g id="node2" class="node"><title>Node2</title>
<g id="a_node2"><a xlink:href="o_watcom_216_bit_d_o_s_2common_2portasm_8h.html#a1417b1dac299b0a3773613340427aa14" target="_top" xlink:title="portFIRST_CONTEXT">
<polygon fill="white" stroke="black" points="144,-76.5 144,-95.5 260,-95.5 260,-76.5 144,-76.5"/>
<text text-anchor="middle" x="202" y="-83.5" font-family="Helvetica,sans-Serif" font-size="10.00">portFIRST_CONTEXT</text>
</a>
</g>
</g>
<!-- Node1&#45;&gt;Node2 -->
<g id="edge1" class="edge"><title>Node1&#45;&gt;Node2</title>
<path fill="none" stroke="midnightblue" d="M91.0943,-57.589C110.318,-62.5583 133.986,-68.6767 154.429,-73.9613"/>
<polygon fill="midnightblue" stroke="midnightblue" points="153.615,-77.3657 164.172,-76.4799 155.367,-70.5885 153.615,-77.3657"/>
</g>
<!-- Node3 -->
<g id="node3" class="node"><title>Node3</title>
<g id="a_node3"><a xlink:href="_paradigm_2_tern___e_e_2large__untested_2port_8c.html#aeb91268bfbb6dc04ff839631ee5c72ba" target="_top" xlink:title="prvSetupTimerInterrupt">
<polygon fill="white" stroke="black" points="142.5,-38.5 142.5,-57.5 261.5,-57.5 261.5,-38.5 142.5,-38.5"/>
<text text-anchor="middle" x="202" y="-45.5" font-family="Helvetica,sans-Serif" font-size="10.00">prvSetupTimerInterrupt</text>
</a>
</g>
</g>
<!-- Node1&#45;&gt;Node3 -->
<g id="edge2" class="edge"><title>Node1&#45;&gt;Node3</title>
<path fill="none" stroke="midnightblue" d="M106.241,-48C114.663,-48 123.493,-48 132.234,-48"/>
<polygon fill="midnightblue" stroke="midnightblue" points="132.423,-51.5001 142.423,-48 132.423,-44.5001 132.423,-51.5001"/>
</g>
<!-- Node9 -->
<g id="node9" class="node"><title>Node9</title>
<g id="a_node9"><a xlink:href="_paradigm_2_tern___e_e_2large__untested_2port_8c.html#a45db6cc1dd49dae903bd425b5c2027f9" target="_top" xlink:title="prvYieldProcessor">
<polygon fill="white" stroke="black" points="153,-0.5 153,-19.5 251,-19.5 251,-0.5 153,-0.5"/>
<text text-anchor="middle" x="202" y="-7.5" font-family="Helvetica,sans-Serif" font-size="10.00">prvYieldProcessor</text>
</a>
</g>
</g>
<!-- Node1&#45;&gt;Node9 -->
<g id="edge8" class="edge"><title>Node1&#45;&gt;Node9</title>
<path fill="none" stroke="midnightblue" d="M91.0943,-38.411C110.318,-33.4417 133.986,-27.3233 154.429,-22.0387"/>
<polygon fill="midnightblue" stroke="midnightblue" points="155.367,-25.4115 164.172,-19.5201 153.615,-18.6343 155.367,-25.4115"/>
</g>
<!-- Node4 -->
<g id="node4" class="node"><title>Node4</title>
<g id="a_node4"><a xlink:href="_paradigm_2_tern___e_e_2large__untested_2port_8c.html#a8cd02cee29b11e6f112c2bd899137d17" target="_top" xlink:title="prvDummyISR">
<polygon fill="white" stroke="black" points="321,-76.5 321,-95.5 403,-95.5 403,-76.5 321,-76.5"/>
<text text-anchor="middle" x="362" y="-83.5" font-family="Helvetica,sans-Serif" font-size="10.00">prvDummyISR</text>
</a>
</g>
</g>
<!-- Node3&#45;&gt;Node4 -->
<g id="edge3" class="edge"><title>Node3&#45;&gt;Node4</title>
<path fill="none" stroke="midnightblue" d="M242.87,-57.589C263.72,-62.6035 289.435,-68.7881 311.543,-74.1053"/>
<polygon fill="midnightblue" stroke="midnightblue" points="310.875,-77.5445 321.417,-76.4799 312.512,-70.7385 310.875,-77.5445"/>
</g>
<!-- Node5 -->
<g id="node5" class="node"><title>Node5</title>
<g id="a_node5"><a xlink:href="_paradigm_2_tern___e_e_2large__untested_2port_8c.html#acf9df4f9ff9bc642609898d1a7503a53" target="_top" xlink:title="prvNonPreemptiveTick">
<polygon fill="white" stroke="black" points="303,-38.5 303,-57.5 421,-57.5 421,-38.5 303,-38.5"/>
<text text-anchor="middle" x="362" y="-45.5" font-family="Helvetica,sans-Serif" font-size="10.00">prvNonPreemptiveTick</text>
</a>
</g>
</g>
<!-- Node3&#45;&gt;Node5 -->
<g id="edge4" class="edge"><title>Node3&#45;&gt;Node5</title>
<path fill="none" stroke="midnightblue" d="M261.833,-48C271.901,-48 282.437,-48 292.726,-48"/>
<polygon fill="midnightblue" stroke="midnightblue" points="292.906,-51.5001 302.906,-48 292.906,-44.5001 292.906,-51.5001"/>
</g>
<!-- Node6 -->
<g id="node6" class="node"><title>Node6</title>
<g id="a_node6"><a xlink:href="task_8h.html#a978e25460ac35706f9ad30b46d9403d8" target="_top" xlink:title="xTaskIncrementTick">
<polygon fill="white" stroke="black" points="462,-38.5 462,-57.5 568,-57.5 568,-38.5 462,-38.5"/>
<text text-anchor="middle" x="515" y="-45.5" font-family="Helvetica,sans-Serif" font-size="10.00">xTaskIncrementTick</text>
</a>
</g>
</g>
<!-- Node5&#45;&gt;Node6 -->
<g id="edge5" class="edge"><title>Node5&#45;&gt;Node6</title>
<path fill="none" stroke="midnightblue" d="M421.381,-48C431.236,-48 441.502,-48 451.458,-48"/>
<polygon fill="midnightblue" stroke="midnightblue" points="451.691,-51.5001 461.691,-48 451.691,-44.5001 451.691,-51.5001"/>
</g>
<!-- Node7 -->
<g id="node7" class="node"><title>Node7</title>
<g id="a_node7"><a xlink:href="list_8h.html#a2eb1558482076fff8cafc63419c2d34a" target="_top" xlink:title="uxListRemove">
<polygon fill="white" stroke="black" points="604,-57.5 604,-76.5 684,-76.5 684,-57.5 604,-57.5"/>
<text text-anchor="middle" x="644" y="-64.5" font-family="Helvetica,sans-Serif" font-size="10.00">uxListRemove</text>
</a>
</g>
</g>
<!-- Node6&#45;&gt;Node7 -->
<g id="edge6" class="edge"><title>Node6&#45;&gt;Node7</title>
<path fill="none" stroke="midnightblue" d="M568.022,-55.7828C576.496,-57.0506 585.252,-58.3605 593.659,-59.6183"/>
<polygon fill="midnightblue" stroke="midnightblue" points="593.291,-63.102 603.698,-61.1202 594.326,-56.1791 593.291,-63.102"/>
</g>
<!-- Node8 -->
<g id="node8" class="node"><title>Node8</title>
<g id="a_node8"><a xlink:href="_paradigm_2_tern___e_e_2small_2portmacro_8h.html#a14d32f8130d3c0b212cfc751730b5b49" target="_top" xlink:title="void">
<polygon fill="white" stroke="black" points="626.5,-19.5 626.5,-38.5 661.5,-38.5 661.5,-19.5 626.5,-19.5"/>
<text text-anchor="middle" x="644" y="-26.5" font-family="Helvetica,sans-Serif" font-size="10.00">void</text>
</a>
</g>
</g>
<!-- Node6&#45;&gt;Node8 -->
<g id="edge7" class="edge"><title>Node6&#45;&gt;Node8</title>
<path fill="none" stroke="midnightblue" d="M568.022,-40.2172C584.617,-37.7345 602.293,-35.09 616.312,-32.9926"/>
<polygon fill="midnightblue" stroke="midnightblue" points="616.87,-36.4483 626.242,-31.5071 615.834,-29.5253 616.87,-36.4483"/>
</g>
<!-- Node10 -->
<g id="node10" class="node"><title>Node10</title>
<g id="a_node10"><a xlink:href="o_watcom_216_bit_d_o_s_2common_2portasm_8h.html#af70bcc366f49027b3a4930a113be2dbb" target="_top" xlink:title="portSWITCH_CONTEXT">
<polygon fill="white" stroke="black" points="298.5,-0.5 298.5,-19.5 425.5,-19.5 425.5,-0.5 298.5,-0.5"/>
<text text-anchor="middle" x="362" y="-7.5" font-family="Helvetica,sans-Serif" font-size="10.00">portSWITCH_CONTEXT</text>
</a>
</g>
</g>
<!-- Node9&#45;&gt;Node10 -->
<g id="edge9" class="edge"><title>Node9&#45;&gt;Node10</title>
<path fill="none" stroke="midnightblue" d="M251.264,-10C263.008,-10 275.825,-10 288.423,-10"/>
<polygon fill="midnightblue" stroke="midnightblue" points="288.455,-13.5001 298.455,-10 288.455,-6.5001 288.455,-13.5001"/>
</g>
</g>
</svg>
