<?xml version="1.0" encoding="UTF-8" standalone="no"?>
<!DOCTYPE svg PUBLIC "-//W3C//DTD SVG 1.1//EN"
 "http://www.w3.org/Graphics/SVG/1.1/DTD/svg11.dtd">
<!-- Generated by graphviz version 2.30.1 (20130221.2233)
 -->
<!-- Title: source/portable/Paradigm/Tern_EE/large_untested/portasm.h Pages: 1 -->
<svg width="162pt" height="118pt"
 viewBox="0.00 0.00 162.00 118.00" xmlns="http://www.w3.org/2000/svg" xmlns:xlink="http://www.w3.org/1999/xlink">
<g id="graph0" class="graph" transform="scale(1 1) rotate(0) translate(4 114)">
<title>source/portable/Paradigm/Tern_EE/large_untested/portasm.h</title>
<polygon fill="white" stroke="white" points="-4,5 -4,-114 159,-114 159,5 -4,5"/>
<!-- Node1 -->
<g id="node1" class="node"><title>Node1</title>
<polygon fill="#bfbfbf" stroke="black" points="11.5,-68.5 11.5,-109.5 142.5,-109.5 142.5,-68.5 11.5,-68.5"/>
<text text-anchor="start" x="19.5" y="-97.5" font-family="Helvetica,sans-Serif" font-size="10.00">source/portable/Paradigm</text>
<text text-anchor="start" x="19.5" y="-86.5" font-family="Helvetica,sans-Serif" font-size="10.00">/Tern_EE/large_untested</text>
<text text-anchor="middle" x="77" y="-75.5" font-family="Helvetica,sans-Serif" font-size="10.00">/portasm.h</text>
</g>
<!-- Node2 -->
<g id="node2" class="node"><title>Node2</title>
<g id="a_node2"><a xlink:href="_paradigm_2_tern___e_e_2large__untested_2port_8c.html" target="_top" xlink:title="source/portable/Paradigm\l/Tern_EE/large_untested/port.c">
<polygon fill="white" stroke="black" points="-0.5,-1 -0.5,-31 154.5,-31 154.5,-1 -0.5,-1"/>
<text text-anchor="start" x="7.5" y="-19" font-family="Helvetica,sans-Serif" font-size="10.00">source/portable/Paradigm</text>
<text text-anchor="middle" x="77" y="-8" font-family="Helvetica,sans-Serif" font-size="10.00">/Tern_EE/large_untested/port.c</text>
</a>
</g>
</g>
<!-- Node1&#45;&gt;Node2 -->
<g id="edge1" class="edge"><title>Node1&#45;&gt;Node2</title>
<path fill="none" stroke="midnightblue" d="M77,-58.0188C77,-48.6567 77,-38.7696 77,-31.0485"/>
<polygon fill="midnightblue" stroke="midnightblue" points="73.5001,-58.2225 77,-68.2225 80.5001,-58.2226 73.5001,-58.2225"/>
</g>
</g>
</svg>
