<?xml version="1.0" encoding="UTF-8" standalone="no"?>
<!DOCTYPE svg PUBLIC "-//W3C//DTD SVG 1.1//EN"
 "http://www.w3.org/Graphics/SVG/1.1/DTD/svg11.dtd">
<!-- Generated by graphviz version 2.30.1 (20130221.2233)
 -->
<!-- Title: xPortStartScheduler Pages: 1 -->
<svg width="280pt" height="66pt"
 viewBox="0.00 0.00 280.00 66.00" xmlns="http://www.w3.org/2000/svg" xmlns:xlink="http://www.w3.org/1999/xlink">
<g id="graph0" class="graph" transform="scale(1 1) rotate(0) translate(4 62)">
<title>xPortStartScheduler</title>
<polygon fill="white" stroke="white" points="-4,5 -4,-62 277,-62 277,5 -4,5"/>
<!-- Node1 -->
<g id="node1" class="node"><title>Node1</title>
<polygon fill="#bfbfbf" stroke="black" points="0,-19.5 0,-38.5 106,-38.5 106,-19.5 0,-19.5"/>
<text text-anchor="middle" x="53" y="-26.5" font-family="Helvetica,sans-Serif" font-size="10.00">xPortStartScheduler</text>
</g>
<!-- Node2 -->
<g id="node2" class="node"><title>Node2</title>
<g id="a_node2"><a xlink:href="_i_a_r_2_r_x100_2port_8c.html#aa62e48aea4d4d2ad3426bd1243dbc72a" target="_top" xlink:title="prvStartFirstTask">
<polygon fill="white" stroke="black" points="160.5,-38.5 160.5,-57.5 253.5,-57.5 253.5,-38.5 160.5,-38.5"/>
<text text-anchor="middle" x="207" y="-45.5" font-family="Helvetica,sans-Serif" font-size="10.00">prvStartFirstTask</text>
</a>
</g>
</g>
<!-- Node1&#45;&gt;Node2 -->
<g id="edge1" class="edge"><title>Node1&#45;&gt;Node2</title>
<path fill="none" stroke="midnightblue" d="M106.31,-35.5387C120.407,-37.3008 135.712,-39.214 150.002,-41.0002"/>
<polygon fill="midnightblue" stroke="midnightblue" points="149.838,-44.507 160.195,-42.2744 150.707,-37.561 149.838,-44.507"/>
</g>
<!-- Node3 -->
<g id="node3" class="node"><title>Node3</title>
<g id="a_node3"><a xlink:href="_c_c_s_2_a_r_m___c_m4_f_2port_8c.html#a4649001ea4d29b80759e6eca4bba58eb" target="_top" xlink:title="vPortSetupTimerInterrupt">
<polygon fill="white" stroke="black" points="142.5,-0.5 142.5,-19.5 271.5,-19.5 271.5,-0.5 142.5,-0.5"/>
<text text-anchor="middle" x="207" y="-7.5" font-family="Helvetica,sans-Serif" font-size="10.00">vPortSetupTimerInterrupt</text>
</a>
</g>
</g>
<!-- Node1&#45;&gt;Node3 -->
<g id="edge2" class="edge"><title>Node1&#45;&gt;Node3</title>
<path fill="none" stroke="midnightblue" d="M106.31,-22.4613C114.642,-21.4197 123.397,-20.3254 132.115,-19.2357"/>
<polygon fill="midnightblue" stroke="midnightblue" points="132.815,-22.6754 142.304,-17.962 131.947,-15.7295 132.815,-22.6754"/>
</g>
</g>
</svg>
