<?xml version="1.0" encoding="UTF-8" standalone="no"?>
<!DOCTYPE svg PUBLIC "-//W3C//DTD SVG 1.1//EN"
 "http://www.w3.org/Graphics/SVG/1.1/DTD/svg11.dtd">
<!-- Generated by graphviz version 2.30.1 (20130221.2233)
 -->
<!-- Title: xPortStartScheduler Pages: 1 -->
<svg width="270pt" height="66pt"
 viewBox="0.00 0.00 270.00 66.00" xmlns="http://www.w3.org/2000/svg" xmlns:xlink="http://www.w3.org/1999/xlink">
<g id="graph0" class="graph" transform="scale(1 1) rotate(0) translate(4 62)">
<title>xPortStartScheduler</title>
<polygon fill="white" stroke="white" points="-4,5 -4,-62 267,-62 267,5 -4,5"/>
<!-- Node1 -->
<g id="node1" class="node"><title>Node1</title>
<polygon fill="#bfbfbf" stroke="black" points="0,-19.5 0,-38.5 106,-38.5 106,-19.5 0,-19.5"/>
<text text-anchor="middle" x="53" y="-26.5" font-family="Helvetica,sans-Serif" font-size="10.00">xPortStartScheduler</text>
</g>
<!-- Node2 -->
<g id="node2" class="node"><title>Node2</title>
<g id="a_node2"><a xlink:href="_r_v_d_s_2_a_r_m___c_m0_2port_8c.html#a3c44637d4b5fad879b04ad2a95c4c6dd" target="_top" xlink:title="prvPortStartFirstTask">
<polygon fill="white" stroke="black" points="146.5,-38.5 146.5,-57.5 257.5,-57.5 257.5,-38.5 146.5,-38.5"/>
<text text-anchor="middle" x="202" y="-45.5" font-family="Helvetica,sans-Serif" font-size="10.00">prvPortStartFirstTask</text>
</a>
</g>
</g>
<!-- Node1&#45;&gt;Node2 -->
<g id="edge1" class="edge"><title>Node1&#45;&gt;Node2</title>
<path fill="none" stroke="midnightblue" d="M106.241,-35.7522C116.02,-37.0161 126.348,-38.3511 136.448,-39.6565"/>
<polygon fill="midnightblue" stroke="midnightblue" points="136.076,-43.1375 146.442,-40.9483 136.973,-36.1952 136.076,-43.1375"/>
</g>
<!-- Node3 -->
<g id="node3" class="node"><title>Node3</title>
<g id="a_node3"><a xlink:href="_rowley_2_m_s_p430_f449_2port_8c.html#a397ed34de04a678dc71217c713763423" target="_top" xlink:title="prvSetupTimerInterrupt">
<polygon fill="white" stroke="black" points="142.5,-0.5 142.5,-19.5 261.5,-19.5 261.5,-0.5 142.5,-0.5"/>
<text text-anchor="middle" x="202" y="-7.5" font-family="Helvetica,sans-Serif" font-size="10.00">prvSetupTimerInterrupt</text>
</a>
</g>
</g>
<!-- Node1&#45;&gt;Node3 -->
<g id="edge2" class="edge"><title>Node1&#45;&gt;Node3</title>
<path fill="none" stroke="midnightblue" d="M106.241,-22.2478C114.663,-21.1592 123.493,-20.0179 132.234,-18.8882"/>
<polygon fill="midnightblue" stroke="midnightblue" points="132.954,-22.3242 142.423,-17.5712 132.057,-15.382 132.954,-22.3242"/>
</g>
</g>
</svg>
