<?xml version="1.0" encoding="UTF-8" standalone="no"?>
<!DOCTYPE svg PUBLIC "-//W3C//DTD SVG 1.1//EN"
 "http://www.w3.org/Graphics/SVG/1.1/DTD/svg11.dtd">
<!-- Generated by graphviz version 2.30.1 (20130221.2233)
 -->
<!-- Title: xPortStartScheduler Pages: 1 -->
<svg width="310pt" height="142pt"
 viewBox="0.00 0.00 310.00 142.00" xmlns="http://www.w3.org/2000/svg" xmlns:xlink="http://www.w3.org/1999/xlink">
<g id="graph0" class="graph" transform="scale(1 1) rotate(0) translate(4 138)">
<title>xPortStartScheduler</title>
<polygon fill="white" stroke="white" points="-4,5 -4,-138 307,-138 307,5 -4,5"/>
<!-- Node1 -->
<g id="node1" class="node"><title>Node1</title>
<polygon fill="#bfbfbf" stroke="black" points="0,-57.5 0,-76.5 106,-76.5 106,-57.5 0,-57.5"/>
<text text-anchor="middle" x="53" y="-64.5" font-family="Helvetica,sans-Serif" font-size="10.00">xPortStartScheduler</text>
</g>
<!-- Node2 -->
<g id="node2" class="node"><title>Node2</title>
<g id="a_node2"><a xlink:href="_i_a_r_2_r_x100_2port_8c.html#aa62e48aea4d4d2ad3426bd1243dbc72a" target="_top" xlink:title="prvStartFirstTask">
<polygon fill="white" stroke="black" points="175.5,-114.5 175.5,-133.5 268.5,-133.5 268.5,-114.5 175.5,-114.5"/>
<text text-anchor="middle" x="222" y="-121.5" font-family="Helvetica,sans-Serif" font-size="10.00">prvStartFirstTask</text>
</a>
</g>
</g>
<!-- Node1&#45;&gt;Node2 -->
<g id="edge1" class="edge"><title>Node1&#45;&gt;Node2</title>
<path fill="none" stroke="midnightblue" d="M73.5431,-76.5933C91.1306,-84.9462 117.846,-96.9466 142,-105 149.611,-107.538 157.74,-109.886 165.78,-112.003"/>
<polygon fill="midnightblue" stroke="midnightblue" points="164.95,-115.403 175.503,-114.468 166.67,-108.618 164.95,-115.403"/>
</g>
<!-- Node3 -->
<g id="node3" class="node"><title>Node3</title>
<g id="a_node3"><a xlink:href="_c_c_s_2_m_s_p430_x_2portmacro_8h.html#af6c61ea6aaa9367ebdc5348c1b121aa7" target="_top" xlink:title="vApplicationSetupTimerInterrupt">
<polygon fill="white" stroke="black" points="142.5,-76.5 142.5,-95.5 301.5,-95.5 301.5,-76.5 142.5,-76.5"/>
<text text-anchor="middle" x="222" y="-83.5" font-family="Helvetica,sans-Serif" font-size="10.00">vApplicationSetupTimerInterrupt</text>
</a>
</g>
</g>
<!-- Node1&#45;&gt;Node3 -->
<g id="edge2" class="edge"><title>Node1&#45;&gt;Node3</title>
<path fill="none" stroke="midnightblue" d="M106.382,-72.9596C114.652,-73.9005 123.398,-74.8956 132.223,-75.8996"/>
<polygon fill="midnightblue" stroke="midnightblue" points="131.867,-79.3816 142.198,-77.0345 132.658,-72.4265 131.867,-79.3816"/>
</g>
<!-- Node4 -->
<g id="node4" class="node"><title>Node4</title>
<g id="a_node4"><a xlink:href="_paradigm_2_tern___e_e_2small_2portmacro_8h.html#a14d32f8130d3c0b212cfc751730b5b49" target="_top" xlink:title="void">
<polygon fill="white" stroke="black" points="204.5,-38.5 204.5,-57.5 239.5,-57.5 239.5,-38.5 204.5,-38.5"/>
<text text-anchor="middle" x="222" y="-45.5" font-family="Helvetica,sans-Serif" font-size="10.00">void</text>
</a>
</g>
</g>
<!-- Node1&#45;&gt;Node4 -->
<g id="edge3" class="edge"><title>Node1&#45;&gt;Node4</title>
<path fill="none" stroke="midnightblue" d="M106.382,-61.0404C135.58,-57.7184 170.704,-53.7223 194.308,-51.0368"/>
<polygon fill="midnightblue" stroke="midnightblue" points="194.74,-54.5103 204.281,-49.9022 193.949,-47.5552 194.74,-54.5103"/>
</g>
<!-- Node5 -->
<g id="node5" class="node"><title>Node5</title>
<g id="a_node5"><a xlink:href="_g_c_c_2_r_x600_2port_8c.html#a05b8170f6114a4798593860395d9e8fd" target="_top" xlink:title="vSoftwareInterruptISR">
<polygon fill="white" stroke="black" points="164.5,-0.5 164.5,-19.5 279.5,-19.5 279.5,-0.5 164.5,-0.5"/>
<text text-anchor="middle" x="222" y="-7.5" font-family="Helvetica,sans-Serif" font-size="10.00">vSoftwareInterruptISR</text>
</a>
</g>
</g>
<!-- Node1&#45;&gt;Node5 -->
<g id="edge4" class="edge"><title>Node1&#45;&gt;Node5</title>
<path fill="none" stroke="midnightblue" d="M73.5431,-57.4067C91.1306,-49.0538 117.846,-37.0534 142,-29 149.611,-26.4623 157.74,-24.1144 165.78,-21.9972"/>
<polygon fill="midnightblue" stroke="midnightblue" points="166.67,-25.3824 175.503,-19.5318 164.95,-18.5971 166.67,-25.3824"/>
</g>
</g>
</svg>
