<?xml version="1.0" encoding="UTF-8" standalone="no"?>
<!DOCTYPE svg PUBLIC "-//W3C//DTD SVG 1.1//EN"
 "http://www.w3.org/Graphics/SVG/1.1/DTD/svg11.dtd">
<!-- Generated by graphviz version 2.30.1 (20130221.2233)
 -->
<!-- Title: vTaskSwitchContext Pages: 1 -->
<svg width="604pt" height="750pt"
 viewBox="0.00 0.00 604.00 750.00" xmlns="http://www.w3.org/2000/svg" xmlns:xlink="http://www.w3.org/1999/xlink">
<g id="graph0" class="graph" transform="scale(1 1) rotate(0) translate(4 746)">
<title>vTaskSwitchContext</title>
<polygon fill="white" stroke="white" points="-4,5 -4,-746 601,-746 601,5 -4,5"/>
<!-- Node1 -->
<g id="node1" class="node"><title>Node1</title>
<polygon fill="#bfbfbf" stroke="black" points="0.5,-361.5 0.5,-380.5 107.5,-380.5 107.5,-361.5 0.5,-361.5"/>
<text text-anchor="middle" x="54" y="-368.5" font-family="Helvetica,sans-Serif" font-size="10.00">vTaskSwitchContext</text>
</g>
<!-- Node2 -->
<g id="node2" class="node"><title>Node2</title>
<g id="a_node2"><a xlink:href="_g_c_c_2_tri_core__1782_2port_8c.html#a6b11d209264bd492e907dfa5924057c5" target="_top" xlink:title="prvInterruptYield">
<polygon fill="white" stroke="black" points="176,-646.5 176,-665.5 266,-665.5 266,-646.5 176,-646.5"/>
<text text-anchor="middle" x="221" y="-653.5" font-family="Helvetica,sans-Serif" font-size="10.00">prvInterruptYield</text>
</a>
</g>
</g>
<!-- Node1&#45;&gt;Node2 -->
<g id="edge1" class="edge"><title>Node1&#45;&gt;Node2</title>
<path fill="none" stroke="midnightblue" d="M55.493,-391.019C57.84,-440.513 71.0246,-569.499 144,-637 152.686,-645.035 164.246,-649.803 175.723,-652.596"/>
<polygon fill="midnightblue" stroke="midnightblue" points="58.9794,-390.584 55.1123,-380.72 51.9842,-390.843 58.9794,-390.584"/>
</g>
<!-- Node4 -->
<g id="node4" class="node"><title>Node4</title>
<g id="a_node4"><a xlink:href="_g_c_c_2_m_c_f5235_2port_8c.html#ab29afb2a4cb7a5158953f41abd366a76" target="_top" xlink:title="prvPortYield">
<polygon fill="white" stroke="black" points="185.5,-722.5 185.5,-741.5 256.5,-741.5 256.5,-722.5 185.5,-722.5"/>
<text text-anchor="middle" x="221" y="-729.5" font-family="Helvetica,sans-Serif" font-size="10.00">prvPortYield</text>
</a>
</g>
</g>
<!-- Node1&#45;&gt;Node4 -->
<g id="edge3" class="edge"><title>Node1&#45;&gt;Node4</title>
<path fill="none" stroke="midnightblue" d="M57.501,-390.857C66.1904,-456.741 97.1212,-666.57 144,-713 154.823,-723.719 170.722,-728.696 185.185,-730.903"/>
<polygon fill="midnightblue" stroke="midnightblue" points="60.9301,-390.082 56.1778,-380.613 53.9878,-390.979 60.9301,-390.082"/>
</g>
<!-- Node6 -->
<g id="node6" class="node"><title>Node6</title>
<g id="a_node6"><a xlink:href="_m_s_v_c-_ming_w_2port_8c.html#a1d6207a2b13a4c014a0b0f4d54f900e0" target="_top" xlink:title="prvProcessSimulatedInterrupts">
<polygon fill="white" stroke="black" points="144.5,-684.5 144.5,-703.5 297.5,-703.5 297.5,-684.5 144.5,-684.5"/>
<text text-anchor="middle" x="221" y="-691.5" font-family="Helvetica,sans-Serif" font-size="10.00">prvProcessSimulatedInterrupts</text>
</a>
</g>
</g>
<!-- Node1&#45;&gt;Node6 -->
<g id="edge5" class="edge"><title>Node1&#45;&gt;Node6</title>
<path fill="none" stroke="midnightblue" d="M54.5139,-390.886C54.3341,-444.946 61.6195,-595.837 144,-675 148.021,-678.864 152.703,-681.977 157.732,-684.482"/>
<polygon fill="midnightblue" stroke="midnightblue" points="58.0171,-390.661 54.6474,-380.616 51.0176,-390.57 58.0171,-390.661"/>
</g>
<!-- Node8 -->
<g id="node8" class="node"><title>Node8</title>
<g id="a_node8"><a xlink:href="_g_c_c_2_c_o_r_t_u_s___a_p_s3_2port_8c.html#aa0ae742a01361a946aea2acb64fb924b" target="_top" xlink:title="prvProcessTick">
<polygon fill="white" stroke="black" points="178.5,-532.5 178.5,-551.5 263.5,-551.5 263.5,-532.5 178.5,-532.5"/>
<text text-anchor="middle" x="221" y="-539.5" font-family="Helvetica,sans-Serif" font-size="10.00">prvProcessTick</text>
</a>
</g>
</g>
<!-- Node1&#45;&gt;Node8 -->
<g id="edge7" class="edge"><title>Node1&#45;&gt;Node8</title>
<path fill="none" stroke="midnightblue" d="M60.8032,-390.297C71.6237,-422.871 98.0474,-488.569 144,-523 153.905,-530.421 166.371,-534.967 178.326,-537.744"/>
<polygon fill="midnightblue" stroke="midnightblue" points="64.0902,-389.084 57.7261,-380.614 57.4189,-391.204 64.0902,-389.084"/>
</g>
<!-- Node10 -->
<g id="node10" class="node"><title>Node10</title>
<g id="a_node10"><a xlink:href="_g_c_c_2_tri_core__1782_2port_8c.html#acc47dfc4b7b63a5dc427be518fd85d99" target="_top" xlink:title="prvSystemTickHandler">
<polygon fill="white" stroke="black" points="162.5,-570.5 162.5,-589.5 279.5,-589.5 279.5,-570.5 162.5,-570.5"/>
<text text-anchor="middle" x="221" y="-577.5" font-family="Helvetica,sans-Serif" font-size="10.00">prvSystemTickHandler</text>
</a>
</g>
</g>
<!-- Node1&#45;&gt;Node10 -->
<g id="edge9" class="edge"><title>Node1&#45;&gt;Node10</title>
<path fill="none" stroke="midnightblue" d="M58.4389,-390.667C66.2826,-429.443 89.2303,-515.902 144,-561 149.355,-565.409 155.592,-568.815 162.148,-571.444"/>
<polygon fill="midnightblue" stroke="midnightblue" points="61.8437,-389.836 56.5415,-380.663 54.9663,-391.14 61.8437,-389.836"/>
</g>
<!-- Node11 -->
<g id="node11" class="node"><title>Node11</title>
<g id="a_node11"><a xlink:href="_m_p_l_a_b_2_p_i_c18_f_2port_8c.html#aa102d20e6272879e93b4fe81a049dad6" target="_top" xlink:title="prvTickISR">
<polygon fill="white" stroke="black" points="188.5,-494.5 188.5,-513.5 253.5,-513.5 253.5,-494.5 188.5,-494.5"/>
<text text-anchor="middle" x="221" y="-501.5" font-family="Helvetica,sans-Serif" font-size="10.00">prvTickISR</text>
</a>
</g>
</g>
<!-- Node1&#45;&gt;Node11 -->
<g id="edge10" class="edge"><title>Node1&#45;&gt;Node11</title>
<path fill="none" stroke="midnightblue" d="M64.4458,-389.755C78.3151,-415.325 106.646,-460.715 144,-485 157.113,-493.525 173.781,-498.225 188.165,-500.816"/>
<polygon fill="midnightblue" stroke="midnightblue" points="67.4473,-387.943 59.6997,-380.716 61.2496,-391.197 67.4473,-387.943"/>
</g>
<!-- Node14 -->
<g id="node14" class="node"><title>Node14</title>
<g id="a_node14"><a xlink:href="_g_c_c_2_tri_core__1782_2port_8c.html#ab7cabab6d1e9f66ab2be70efc236a7df" target="_top" xlink:title="prvTrapYield">
<polygon fill="white" stroke="black" points="184.5,-608.5 184.5,-627.5 257.5,-627.5 257.5,-608.5 184.5,-608.5"/>
<text text-anchor="middle" x="221" y="-615.5" font-family="Helvetica,sans-Serif" font-size="10.00">prvTrapYield</text>
</a>
</g>
</g>
<!-- Node1&#45;&gt;Node14 -->
<g id="edge14" class="edge"><title>Node1&#45;&gt;Node14</title>
<path fill="none" stroke="midnightblue" d="M56.7152,-390.536C61.6706,-434.689 80.0365,-542.695 144,-599 155.025,-608.705 170.275,-613.603 184.221,-616.023"/>
<polygon fill="midnightblue" stroke="midnightblue" points="60.1922,-390.131 55.7047,-380.534 53.2276,-390.835 60.1922,-390.131"/>
</g>
<!-- Node15 -->
<g id="node15" class="node"><title>Node15</title>
<g id="a_node15"><a xlink:href="_i_a_r_2_a_v_r32___u_c3_2port_8c.html#ad547cf475a00f0c1a37dac99d82ef31d" target="_top" xlink:title="SCALLYield">
<polygon fill="white" stroke="black" points="186,-456.5 186,-475.5 256,-475.5 256,-456.5 186,-456.5"/>
<text text-anchor="middle" x="221" y="-463.5" font-family="Helvetica,sans-Serif" font-size="10.00">SCALLYield</text>
</a>
</g>
</g>
<!-- Node1&#45;&gt;Node15 -->
<g id="edge16" class="edge"><title>Node1&#45;&gt;Node15</title>
<path fill="none" stroke="midnightblue" d="M70.4861,-388.257C87.0235,-405.634 114.82,-431.961 144,-447 156.936,-453.667 172.335,-458.08 185.879,-460.958"/>
<polygon fill="midnightblue" stroke="midnightblue" points="72.6845,-385.481 63.3155,-380.534 67.5547,-390.244 72.6845,-385.481"/>
</g>
<!-- Node16 -->
<g id="node16" class="node"><title>Node16</title>
<g id="a_node16"><a xlink:href="_i_a_r_2_s_t_r91x_2port_8c.html#a38ad4725462bdc5e86c4ead4f04b9fc2" target="_top" xlink:title="TIM2_IRQHandler">
<polygon fill="white" stroke="black" points="172,-418.5 172,-437.5 270,-437.5 270,-418.5 172,-418.5"/>
<text text-anchor="middle" x="221" y="-425.5" font-family="Helvetica,sans-Serif" font-size="10.00">TIM2_IRQHandler</text>
</a>
</g>
</g>
<!-- Node1&#45;&gt;Node16 -->
<g id="edge17" class="edge"><title>Node1&#45;&gt;Node16</title>
<path fill="none" stroke="midnightblue" d="M84.2525,-384.88C101.401,-392.663 123.632,-402.154 144,-409 154.442,-412.51 165.885,-415.701 176.65,-418.423"/>
<polygon fill="midnightblue" stroke="midnightblue" points="85.343,-381.529 74.7956,-380.527 82.4162,-387.888 85.343,-381.529"/>
</g>
<!-- Node17 -->
<g id="node17" class="node"><title>Node17</title>
<g id="a_node17"><a xlink:href="_renesas_2_r_x100_2port_8c.html#af76f3c0b44c5b5c06fc046a4ee1a6423" target="_top" xlink:title="vPortEndScheduler">
<polygon fill="white" stroke="black" points="169.5,-380.5 169.5,-399.5 272.5,-399.5 272.5,-380.5 169.5,-380.5"/>
<text text-anchor="middle" x="221" y="-387.5" font-family="Helvetica,sans-Serif" font-size="10.00">vPortEndScheduler</text>
</a>
</g>
</g>
<!-- Node1&#45;&gt;Node17 -->
<g id="edge18" class="edge"><title>Node1&#45;&gt;Node17</title>
<path fill="none" stroke="midnightblue" d="M118.03,-378.258C134.968,-380.208 153.068,-382.293 169.246,-384.156"/>
<polygon fill="midnightblue" stroke="midnightblue" points="117.995,-374.731 107.661,-377.064 117.195,-381.685 117.995,-374.731"/>
</g>
<!-- Node18 -->
<g id="node18" class="node"><title>Node18</title>
<g id="a_node18"><a xlink:href="_i_a_r_2_s_t_r71x_2port_8c.html#afa0af0d6450abd50943523742eb8090b" target="_top" xlink:title="vPortPreemptiveTick">
<polygon fill="white" stroke="black" points="166.5,-342.5 166.5,-361.5 275.5,-361.5 275.5,-342.5 166.5,-342.5"/>
<text text-anchor="middle" x="221" y="-349.5" font-family="Helvetica,sans-Serif" font-size="10.00">vPortPreemptiveTick</text>
</a>
</g>
</g>
<!-- Node1&#45;&gt;Node18 -->
<g id="edge19" class="edge"><title>Node1&#45;&gt;Node18</title>
<path fill="none" stroke="midnightblue" d="M117.981,-363.748C133.955,-361.908 150.965,-359.95 166.423,-358.169"/>
<polygon fill="midnightblue" stroke="midnightblue" points="117.195,-360.315 107.661,-364.936 117.995,-367.269 117.195,-360.315"/>
</g>
<!-- Node21 -->
<g id="node21" class="node"><title>Node21</title>
<g id="a_node21"><a xlink:href="_g_c_c_2_nios_i_i_2port_8c.html#aba3499e1ee02f7effadcdda992d7c17f" target="_top" xlink:title="vPortSysTickHandler">
<polygon fill="white" stroke="black" points="166,-304.5 166,-323.5 276,-323.5 276,-304.5 166,-304.5"/>
<text text-anchor="middle" x="221" y="-311.5" font-family="Helvetica,sans-Serif" font-size="10.00">vPortSysTickHandler</text>
</a>
</g>
</g>
<!-- Node1&#45;&gt;Node21 -->
<g id="edge22" class="edge"><title>Node1&#45;&gt;Node21</title>
<path fill="none" stroke="midnightblue" d="M84.2525,-357.12C101.401,-349.337 123.632,-339.846 144,-333 154.442,-329.49 165.885,-326.299 176.65,-323.577"/>
<polygon fill="midnightblue" stroke="midnightblue" points="82.4162,-354.112 74.7956,-361.473 85.343,-360.471 82.4162,-354.112"/>
</g>
<!-- Node24 -->
<g id="node24" class="node"><title>Node24</title>
<g id="a_node24"><a xlink:href="_code_warrior_2_h_c_s12_2port_8c.html#ae536a48b8cb683c5474b383aa811fd3e" target="_top" xlink:title="vPortTickInterrupt">
<polygon fill="white" stroke="black" points="173.5,-266.5 173.5,-285.5 268.5,-285.5 268.5,-266.5 173.5,-266.5"/>
<text text-anchor="middle" x="221" y="-273.5" font-family="Helvetica,sans-Serif" font-size="10.00">vPortTickInterrupt</text>
</a>
</g>
</g>
<!-- Node1&#45;&gt;Node24 -->
<g id="edge25" class="edge"><title>Node1&#45;&gt;Node24</title>
<path fill="none" stroke="midnightblue" d="M70.4861,-353.743C87.0235,-336.366 114.82,-310.039 144,-295 153.067,-290.327 163.345,-286.761 173.345,-284.055"/>
<polygon fill="midnightblue" stroke="midnightblue" points="67.5547,-351.756 63.3155,-361.466 72.6845,-356.519 67.5547,-351.756"/>
</g>
<!-- Node25 -->
<g id="node25" class="node"><title>Node25</title>
<g id="a_node25"><a xlink:href="_i_a_r_2_atmel_s_a_m9_x_e_2port_8c.html#aa9b28633f6ea4e6b2509a7c5bd839981" target="_top" xlink:title="vPortTickISR">
<polygon fill="white" stroke="black" points="183.5,-228.5 183.5,-247.5 258.5,-247.5 258.5,-228.5 183.5,-228.5"/>
<text text-anchor="middle" x="221" y="-235.5" font-family="Helvetica,sans-Serif" font-size="10.00">vPortTickISR</text>
</a>
</g>
</g>
<!-- Node1&#45;&gt;Node25 -->
<g id="edge26" class="edge"><title>Node1&#45;&gt;Node25</title>
<path fill="none" stroke="midnightblue" d="M64.4458,-352.245C78.3151,-326.675 106.646,-281.285 144,-257 155.631,-249.439 170.058,-244.887 183.208,-242.146"/>
<polygon fill="midnightblue" stroke="midnightblue" points="61.2496,-350.803 59.6997,-361.284 67.4473,-354.057 61.2496,-350.803"/>
</g>
<!-- Node26 -->
<g id="node26" class="node"><title>Node26</title>
<g id="a_node26"><a xlink:href="_tasking_2_a_r_m___c_m4_f_2portmacro_8h.html#add01c927fb689f7ec170e42d47d27927" target="_top" xlink:title="vPortYield">
<polygon fill="white" stroke="black" points="190,-190.5 190,-209.5 252,-209.5 252,-190.5 190,-190.5"/>
<text text-anchor="middle" x="221" y="-197.5" font-family="Helvetica,sans-Serif" font-size="10.00">vPortYield</text>
</a>
</g>
</g>
<!-- Node1&#45;&gt;Node26 -->
<g id="edge27" class="edge"><title>Node1&#45;&gt;Node26</title>
<path fill="none" stroke="midnightblue" d="M60.8032,-351.703C71.6237,-319.129 98.0474,-253.431 144,-219 157.17,-209.132 174.869,-204.348 189.873,-202.046"/>
<polygon fill="midnightblue" stroke="midnightblue" points="57.4189,-350.796 57.7261,-361.386 64.0902,-352.916 57.4189,-350.796"/>
</g>
<!-- Node28 -->
<g id="node28" class="node"><title>Node28</title>
<g id="a_node28"><a xlink:href="_softune_2_m_b96340_2port_8c.html#a04375590036a5cbfb25df405922ab067" target="_top" xlink:title="vPortYieldDelayed">
<polygon fill="white" stroke="black" points="171.5,-152.5 171.5,-171.5 270.5,-171.5 270.5,-152.5 171.5,-152.5"/>
<text text-anchor="middle" x="221" y="-159.5" font-family="Helvetica,sans-Serif" font-size="10.00">vPortYieldDelayed</text>
</a>
</g>
</g>
<!-- Node1&#45;&gt;Node28 -->
<g id="edge29" class="edge"><title>Node1&#45;&gt;Node28</title>
<path fill="none" stroke="midnightblue" d="M58.4389,-351.333C66.2826,-312.557 89.2303,-226.098 144,-181 151.769,-174.603 161.398,-170.316 171.161,-167.455"/>
<polygon fill="midnightblue" stroke="midnightblue" points="54.9663,-350.86 56.5415,-361.337 61.8437,-352.164 54.9663,-350.86"/>
</g>
<!-- Node29 -->
<g id="node29" class="node"><title>Node29</title>
<g id="a_node29"><a xlink:href="_i_a_r_2_a_t_mega323_2port_8c.html#a130213f2e8a8331aaa6dc715f41b6358" target="_top" xlink:title="vPortYieldFromTick">
<polygon fill="white" stroke="black" points="169,-114.5 169,-133.5 273,-133.5 273,-114.5 169,-114.5"/>
<text text-anchor="middle" x="221" y="-121.5" font-family="Helvetica,sans-Serif" font-size="10.00">vPortYieldFromTick</text>
</a>
</g>
</g>
<!-- Node1&#45;&gt;Node29 -->
<g id="edge30" class="edge"><title>Node1&#45;&gt;Node29</title>
<path fill="none" stroke="midnightblue" d="M56.7152,-351.464C61.6706,-307.311 80.0365,-199.305 144,-143 151.044,-136.799 159.812,-132.561 168.863,-129.677"/>
<polygon fill="midnightblue" stroke="midnightblue" points="53.2276,-351.165 55.7047,-361.466 60.1922,-351.869 53.2276,-351.165"/>
</g>
<!-- Node30 -->
<g id="node30" class="node"><title>Node30</title>
<g id="a_node30"><a xlink:href="_code_warrior_2_cold_fire___v1_2port_8c.html#ad39f79e3ec80894f2c6b1e5ed132f10f" target="_top" xlink:title="vPortYieldHandler">
<polygon fill="white" stroke="black" points="172.5,-76.5 172.5,-95.5 269.5,-95.5 269.5,-76.5 172.5,-76.5"/>
<text text-anchor="middle" x="221" y="-83.5" font-family="Helvetica,sans-Serif" font-size="10.00">vPortYieldHandler</text>
</a>
</g>
</g>
<!-- Node1&#45;&gt;Node30 -->
<g id="edge31" class="edge"><title>Node1&#45;&gt;Node30</title>
<path fill="none" stroke="midnightblue" d="M55.493,-350.981C57.84,-301.487 71.0246,-172.501 144,-105 151.788,-97.7965 161.885,-93.2188 172.162,-90.3355"/>
<polygon fill="midnightblue" stroke="midnightblue" points="51.9842,-351.157 55.1123,-361.28 58.9794,-351.416 51.9842,-351.157"/>
</g>
<!-- Node31 -->
<g id="node31" class="node"><title>Node31</title>
<g id="a_node31"><a xlink:href="_g_c_c_2_micro_blaze_2port_8c.html#ab5ab3ae4463018bbd90bc56dbe7da7b4" target="_top" xlink:title="vTickISR">
<polygon fill="white" stroke="black" points="193,-38.5 193,-57.5 249,-57.5 249,-38.5 193,-38.5"/>
<text text-anchor="middle" x="221" y="-45.5" font-family="Helvetica,sans-Serif" font-size="10.00">vTickISR</text>
</a>
</g>
</g>
<!-- Node1&#45;&gt;Node31 -->
<g id="edge32" class="edge"><title>Node1&#45;&gt;Node31</title>
<path fill="none" stroke="midnightblue" d="M54.5139,-351.114C54.3341,-297.054 61.6195,-146.163 144,-67 156.945,-54.5608 176.746,-49.898 192.892,-48.2994"/>
<polygon fill="midnightblue" stroke="midnightblue" points="51.0176,-351.43 54.6474,-361.384 58.0171,-351.339 51.0176,-351.43"/>
</g>
<!-- Node32 -->
<g id="node32" class="node"><title>Node32</title>
<g id="a_node32"><a xlink:href="_r_v_d_s_2_a_r_m___c_m0_2port_8c.html#a4e6b17b7b6e1a92564afdeff7e9dba91" target="_top" xlink:title="xPortPendSVHandler">
<polygon fill="white" stroke="black" points="165,-0.5 165,-19.5 277,-19.5 277,-0.5 165,-0.5"/>
<text text-anchor="middle" x="221" y="-7.5" font-family="Helvetica,sans-Serif" font-size="10.00">xPortPendSVHandler</text>
</a>
</g>
</g>
<!-- Node1&#45;&gt;Node32 -->
<g id="edge33" class="edge"><title>Node1&#45;&gt;Node32</title>
<path fill="none" stroke="midnightblue" d="M57.501,-351.143C66.1904,-285.259 97.1212,-75.4305 144,-29 149.798,-23.2576 157.053,-19.1632 164.763,-16.2598"/>
<polygon fill="midnightblue" stroke="midnightblue" points="53.9878,-351.021 56.1778,-361.387 60.9301,-351.918 53.9878,-351.021"/>
</g>
<!-- Node3 -->
<g id="node3" class="node"><title>Node3</title>
<g id="a_node3"><a xlink:href="_g_c_c_2_tri_core__1782_2port_8c.html#a42d48e1e07c99c055d4353dc3b38b466" target="_top" xlink:title="xPortStartScheduler">
<polygon fill="white" stroke="black" points="341,-627.5 341,-646.5 447,-646.5 447,-627.5 341,-627.5"/>
<text text-anchor="middle" x="394" y="-634.5" font-family="Helvetica,sans-Serif" font-size="10.00">xPortStartScheduler</text>
</a>
</g>
</g>
<!-- Node2&#45;&gt;Node3 -->
<g id="edge2" class="edge"><title>Node2&#45;&gt;Node3</title>
<path fill="none" stroke="midnightblue" d="M276.247,-649.973C296.925,-647.675 320.431,-645.063 340.905,-642.788"/>
<polygon fill="midnightblue" stroke="midnightblue" points="275.589,-646.524 266.037,-651.107 276.362,-653.481 275.589,-646.524"/>
</g>
<!-- Node5 -->
<g id="node5" class="node"><title>Node5</title>
<g id="a_node5"><a xlink:href="_g_c_c_2_m_c_f5235_2port_8c.html#ade5a8c6666e7413a0355cc252029c5c6" target="_top" xlink:title="xPortStartScheduler">
<polygon fill="white" stroke="black" points="341,-722.5 341,-741.5 447,-741.5 447,-722.5 341,-722.5"/>
<text text-anchor="middle" x="394" y="-729.5" font-family="Helvetica,sans-Serif" font-size="10.00">xPortStartScheduler</text>
</a>
</g>
</g>
<!-- Node4&#45;&gt;Node5 -->
<g id="edge4" class="edge"><title>Node4&#45;&gt;Node5</title>
<path fill="none" stroke="midnightblue" d="M266.668,-732C289.413,-732 317.196,-732 340.911,-732"/>
<polygon fill="midnightblue" stroke="midnightblue" points="266.604,-728.5 256.604,-732 266.604,-735.5 266.604,-728.5"/>
</g>
<!-- Node7 -->
<g id="node7" class="node"><title>Node7</title>
<g id="a_node7"><a xlink:href="_m_s_v_c-_ming_w_2port_8c.html#ade5a8c6666e7413a0355cc252029c5c6" target="_top" xlink:title="xPortStartScheduler">
<polygon fill="white" stroke="black" points="341,-684.5 341,-703.5 447,-703.5 447,-684.5 341,-684.5"/>
<text text-anchor="middle" x="394" y="-691.5" font-family="Helvetica,sans-Serif" font-size="10.00">xPortStartScheduler</text>
</a>
</g>
</g>
<!-- Node6&#45;&gt;Node7 -->
<g id="edge6" class="edge"><title>Node6&#45;&gt;Node7</title>
<path fill="none" stroke="midnightblue" d="M307.515,-694C318.933,-694 330.351,-694 340.954,-694"/>
<polygon fill="midnightblue" stroke="midnightblue" points="307.501,-690.5 297.501,-694 307.501,-697.5 307.501,-690.5"/>
</g>
<!-- Node9 -->
<g id="node9" class="node"><title>Node9</title>
<g id="a_node9"><a xlink:href="_g_c_c_2_c_o_r_t_u_s___a_p_s3_2port_8c.html#a1addd63671cd6fd6f4b9c5752433008e" target="_top" xlink:title="interrupt7_handler">
<polygon fill="white" stroke="black" points="345,-532.5 345,-551.5 443,-551.5 443,-532.5 345,-532.5"/>
<text text-anchor="middle" x="394" y="-539.5" font-family="Helvetica,sans-Serif" font-size="10.00">interrupt7_handler</text>
</a>
</g>
</g>
<!-- Node8&#45;&gt;Node9 -->
<g id="edge8" class="edge"><title>Node8&#45;&gt;Node9</title>
<path fill="none" stroke="midnightblue" d="M273.92,-542C296.508,-542 322.814,-542 344.947,-542"/>
<polygon fill="midnightblue" stroke="midnightblue" points="273.831,-538.5 263.831,-542 273.831,-545.5 273.831,-538.5"/>
</g>
<!-- Node12 -->
<g id="node12" class="node"><title>Node12</title>
<g id="a_node12"><a xlink:href="_m_p_l_a_b_2_p_i_c18_f_2port_8c.html#a58197e4187d2a15e3442c99500df5250" target="_top" xlink:title="prvLowInterrupt">
<polygon fill="white" stroke="black" points="351,-494.5 351,-513.5 437,-513.5 437,-494.5 351,-494.5"/>
<text text-anchor="middle" x="394" y="-501.5" font-family="Helvetica,sans-Serif" font-size="10.00">prvLowInterrupt</text>
</a>
</g>
</g>
<!-- Node11&#45;&gt;Node12 -->
<g id="edge11" class="edge"><title>Node11&#45;&gt;Node12</title>
<path fill="none" stroke="midnightblue" d="M263.845,-504C290.259,-504 324.269,-504 350.759,-504"/>
<polygon fill="midnightblue" stroke="midnightblue" points="263.763,-500.5 253.763,-504 263.763,-507.5 263.763,-500.5"/>
</g>
<!-- Node13 -->
<g id="node13" class="node"><title>Node13</title>
<g id="a_node13"><a xlink:href="_m_p_l_a_b_2_p_i_c18_f_2port_8c.html#ade5a8c6666e7413a0355cc252029c5c6" target="_top" xlink:title="xPortStartScheduler">
<polygon fill="white" stroke="black" points="490,-475.5 490,-494.5 596,-494.5 596,-475.5 490,-475.5"/>
<text text-anchor="middle" x="543" y="-482.5" font-family="Helvetica,sans-Serif" font-size="10.00">xPortStartScheduler</text>
</a>
</g>
</g>
<!-- Node11&#45;&gt;Node13 -->
<g id="edge13" class="edge"><title>Node11&#45;&gt;Node13</title>
<path fill="none" stroke="midnightblue" d="M263.564,-495.237C284.571,-491.246 310.524,-486.977 334,-485 386.896,-480.545 447.628,-481.206 489.755,-482.577"/>
<polygon fill="midnightblue" stroke="midnightblue" points="262.827,-491.815 253.681,-497.163 264.166,-498.686 262.827,-491.815"/>
</g>
<!-- Node12&#45;&gt;Node13 -->
<g id="edge12" class="edge"><title>Node12&#45;&gt;Node13</title>
<path fill="none" stroke="midnightblue" d="M447.438,-497.222C461.248,-495.437 476.142,-493.512 489.932,-491.73"/>
<polygon fill="midnightblue" stroke="midnightblue" points="446.593,-493.802 437.124,-498.555 447.49,-500.745 446.593,-493.802"/>
</g>
<!-- Node14&#45;&gt;Node3 -->
<g id="edge15" class="edge"><title>Node14&#45;&gt;Node3</title>
<path fill="none" stroke="midnightblue" d="M267.841,-623.093C290.384,-625.598 317.652,-628.628 340.974,-631.219"/>
<polygon fill="midnightblue" stroke="midnightblue" points="268.173,-619.609 257.847,-621.983 267.4,-626.566 268.173,-619.609"/>
</g>
<!-- Node19 -->
<g id="node19" class="node"><title>Node19</title>
<g id="a_node19"><a xlink:href="_i_a_r_2_atmel_s_a_m7_s64_2port_8c.html#aeb91268bfbb6dc04ff839631ee5c72ba" target="_top" xlink:title="prvSetupTimerInterrupt">
<polygon fill="white" stroke="black" points="334.5,-342.5 334.5,-361.5 453.5,-361.5 453.5,-342.5 334.5,-342.5"/>
<text text-anchor="middle" x="394" y="-349.5" font-family="Helvetica,sans-Serif" font-size="10.00">prvSetupTimerInterrupt</text>
</a>
</g>
</g>
<!-- Node18&#45;&gt;Node19 -->
<g id="edge20" class="edge"><title>Node18&#45;&gt;Node19</title>
<path fill="none" stroke="midnightblue" d="M285.871,-352C301.716,-352 318.621,-352 334.209,-352"/>
<polygon fill="midnightblue" stroke="midnightblue" points="285.636,-348.5 275.636,-352 285.636,-355.5 285.636,-348.5"/>
</g>
<!-- Node20 -->
<g id="node20" class="node"><title>Node20</title>
<g id="a_node20"><a xlink:href="_i_a_r_2_atmel_s_a_m7_s64_2port_8c.html#ade5a8c6666e7413a0355cc252029c5c6" target="_top" xlink:title="xPortStartScheduler">
<polygon fill="white" stroke="black" points="490,-342.5 490,-361.5 596,-361.5 596,-342.5 490,-342.5"/>
<text text-anchor="middle" x="543" y="-349.5" font-family="Helvetica,sans-Serif" font-size="10.00">xPortStartScheduler</text>
</a>
</g>
</g>
<!-- Node19&#45;&gt;Node20 -->
<g id="edge21" class="edge"><title>Node19&#45;&gt;Node20</title>
<path fill="none" stroke="midnightblue" d="M463.756,-352C472.536,-352 481.407,-352 489.865,-352"/>
<polygon fill="midnightblue" stroke="midnightblue" points="463.521,-348.5 453.521,-352 463.521,-355.5 463.521,-348.5"/>
</g>
<!-- Node22 -->
<g id="node22" class="node"><title>Node22</title>
<g id="a_node22"><a xlink:href="_g_c_c_2_nios_i_i_2port_8c.html#a397ed34de04a678dc71217c713763423" target="_top" xlink:title="prvSetupTimerInterrupt">
<polygon fill="white" stroke="black" points="334.5,-304.5 334.5,-323.5 453.5,-323.5 453.5,-304.5 334.5,-304.5"/>
<text text-anchor="middle" x="394" y="-311.5" font-family="Helvetica,sans-Serif" font-size="10.00">prvSetupTimerInterrupt</text>
</a>
</g>
</g>
<!-- Node21&#45;&gt;Node22 -->
<g id="edge23" class="edge"><title>Node21&#45;&gt;Node22</title>
<path fill="none" stroke="midnightblue" d="M286.27,-314C302,-314 318.753,-314 334.211,-314"/>
<polygon fill="midnightblue" stroke="midnightblue" points="286.106,-310.5 276.105,-314 286.105,-317.5 286.106,-310.5"/>
</g>
<!-- Node23 -->
<g id="node23" class="node"><title>Node23</title>
<g id="a_node23"><a xlink:href="_g_c_c_2_nios_i_i_2port_8c.html#ade5a8c6666e7413a0355cc252029c5c6" target="_top" xlink:title="xPortStartScheduler">
<polygon fill="white" stroke="black" points="490,-304.5 490,-323.5 596,-323.5 596,-304.5 490,-304.5"/>
<text text-anchor="middle" x="543" y="-311.5" font-family="Helvetica,sans-Serif" font-size="10.00">xPortStartScheduler</text>
</a>
</g>
</g>
<!-- Node22&#45;&gt;Node23 -->
<g id="edge24" class="edge"><title>Node22&#45;&gt;Node23</title>
<path fill="none" stroke="midnightblue" d="M463.756,-314C472.536,-314 481.407,-314 489.865,-314"/>
<polygon fill="midnightblue" stroke="midnightblue" points="463.521,-310.5 453.521,-314 463.521,-317.5 463.521,-310.5"/>
</g>
<!-- Node27 -->
<g id="node27" class="node"><title>Node27</title>
<g id="a_node27"><a xlink:href="_g_c_c_2_p_p_c405___xilinx_2port_8c.html#ade5a8c6666e7413a0355cc252029c5c6" target="_top" xlink:title="xPortStartScheduler">
<polygon fill="white" stroke="black" points="341,-190.5 341,-209.5 447,-209.5 447,-190.5 341,-190.5"/>
<text text-anchor="middle" x="394" y="-197.5" font-family="Helvetica,sans-Serif" font-size="10.00">xPortStartScheduler</text>
</a>
</g>
</g>
<!-- Node26&#45;&gt;Node27 -->
<g id="edge28" class="edge"><title>Node26&#45;&gt;Node27</title>
<path fill="none" stroke="midnightblue" d="M262.482,-200C285.966,-200 315.789,-200 340.998,-200"/>
<polygon fill="midnightblue" stroke="midnightblue" points="262.178,-196.5 252.178,-200 262.178,-203.5 262.178,-196.5"/>
</g>
</g>
</svg>
