<?xml version="1.0" encoding="UTF-8" standalone="no"?>
<!DOCTYPE svg PUBLIC "-//W3C//DTD SVG 1.1//EN"
 "http://www.w3.org/Graphics/SVG/1.1/DTD/svg11.dtd">
<!-- Generated by graphviz version 2.30.1 (20130221.2233)
 -->
<!-- Title: xPortStartScheduler Pages: 1 -->
<svg width="270pt" height="142pt"
 viewBox="0.00 0.00 270.00 142.00" xmlns="http://www.w3.org/2000/svg" xmlns:xlink="http://www.w3.org/1999/xlink">
<g id="graph0" class="graph" transform="scale(1 1) rotate(0) translate(4 138)">
<title>xPortStartScheduler</title>
<polygon fill="white" stroke="white" points="-4,5 -4,-138 267,-138 267,5 -4,5"/>
<!-- Node1 -->
<g id="node1" class="node"><title>Node1</title>
<polygon fill="#bfbfbf" stroke="black" points="0,-57.5 0,-76.5 106,-76.5 106,-57.5 0,-57.5"/>
<text text-anchor="middle" x="53" y="-64.5" font-family="Helvetica,sans-Serif" font-size="10.00">xPortStartScheduler</text>
</g>
<!-- Node2 -->
<g id="node2" class="node"><title>Node2</title>
<g id="a_node2"><a xlink:href="_renesas_2_r_x100_2port_8c.html#aeb91268bfbb6dc04ff839631ee5c72ba" target="_top" xlink:title="prvSetupTimerInterrupt">
<polygon fill="white" stroke="black" points="142.5,-114.5 142.5,-133.5 261.5,-133.5 261.5,-114.5 142.5,-114.5"/>
<text text-anchor="middle" x="202" y="-121.5" font-family="Helvetica,sans-Serif" font-size="10.00">prvSetupTimerInterrupt</text>
</a>
</g>
</g>
<!-- Node1&#45;&gt;Node2 -->
<g id="edge1" class="edge"><title>Node1&#45;&gt;Node2</title>
<path fill="none" stroke="midnightblue" d="M74.7501,-76.6319C92.4381,-84.6796 118.635,-96.2161 142,-105 147.679,-107.135 153.717,-109.251 159.682,-111.253"/>
<polygon fill="midnightblue" stroke="midnightblue" points="158.982,-114.706 169.574,-114.497 161.163,-108.055 158.982,-114.706"/>
</g>
<!-- Node3 -->
<g id="node3" class="node"><title>Node3</title>
<g id="a_node3"><a xlink:href="_i_a_r_2_r_x100_2port_8c.html#aa62e48aea4d4d2ad3426bd1243dbc72a" target="_top" xlink:title="prvStartFirstTask">
<polygon fill="white" stroke="black" points="155.5,-76.5 155.5,-95.5 248.5,-95.5 248.5,-76.5 155.5,-76.5"/>
<text text-anchor="middle" x="202" y="-83.5" font-family="Helvetica,sans-Serif" font-size="10.00">prvStartFirstTask</text>
</a>
</g>
</g>
<!-- Node1&#45;&gt;Node3 -->
<g id="edge2" class="edge"><title>Node1&#45;&gt;Node3</title>
<path fill="none" stroke="midnightblue" d="M106.241,-73.7522C118.873,-75.385 132.422,-77.1362 145.211,-78.7892"/>
<polygon fill="midnightblue" stroke="midnightblue" points="144.906,-82.2788 155.272,-80.0896 145.803,-75.3365 144.906,-82.2788"/>
</g>
<!-- Node4 -->
<g id="node4" class="node"><title>Node4</title>
<g id="a_node4"><a xlink:href="_paradigm_2_tern___e_e_2small_2portmacro_8h.html#a14d32f8130d3c0b212cfc751730b5b49" target="_top" xlink:title="void">
<polygon fill="white" stroke="black" points="184.5,-38.5 184.5,-57.5 219.5,-57.5 219.5,-38.5 184.5,-38.5"/>
<text text-anchor="middle" x="202" y="-45.5" font-family="Helvetica,sans-Serif" font-size="10.00">void</text>
</a>
</g>
</g>
<!-- Node1&#45;&gt;Node4 -->
<g id="edge3" class="edge"><title>Node1&#45;&gt;Node4</title>
<path fill="none" stroke="midnightblue" d="M106.241,-60.2478C129.25,-57.2737 155.302,-53.9066 174.258,-51.4565"/>
<polygon fill="midnightblue" stroke="midnightblue" points="174.789,-54.917 184.258,-50.1639 173.892,-47.9747 174.789,-54.917"/>
</g>
<!-- Node5 -->
<g id="node5" class="node"><title>Node5</title>
<g id="a_node5"><a xlink:href="_g_c_c_2_r_x600_2port_8c.html#a05b8170f6114a4798593860395d9e8fd" target="_top" xlink:title="vSoftwareInterruptISR">
<polygon fill="white" stroke="black" points="144.5,-0.5 144.5,-19.5 259.5,-19.5 259.5,-0.5 144.5,-0.5"/>
<text text-anchor="middle" x="202" y="-7.5" font-family="Helvetica,sans-Serif" font-size="10.00">vSoftwareInterruptISR</text>
</a>
</g>
</g>
<!-- Node1&#45;&gt;Node5 -->
<g id="edge4" class="edge"><title>Node1&#45;&gt;Node5</title>
<path fill="none" stroke="midnightblue" d="M74.7501,-57.3681C92.4381,-49.3204 118.635,-37.7839 142,-29 147.679,-26.8652 153.717,-24.7493 159.682,-22.7474"/>
<polygon fill="midnightblue" stroke="midnightblue" points="161.163,-25.9452 169.574,-19.5028 158.982,-19.2938 161.163,-25.9452"/>
</g>
</g>
</svg>
