<?xml version="1.0" encoding="UTF-8" standalone="no"?>
<!DOCTYPE svg PUBLIC "-//W3C//DTD SVG 1.1//EN"
 "http://www.w3.org/Graphics/SVG/1.1/DTD/svg11.dtd">
<!-- Generated by graphviz version 2.30.1 (20130221.2233)
 -->
<!-- Title: source/portable/Rowley/MSP430F449/portasm.h Pages: 1 -->
<svg width="562pt" height="108pt"
 viewBox="0.00 0.00 562.00 108.00" xmlns="http://www.w3.org/2000/svg" xmlns:xlink="http://www.w3.org/1999/xlink">
<g id="graph0" class="graph" transform="scale(1 1) rotate(0) translate(4 104)">
<title>source/portable/Rowley/MSP430F449/portasm.h</title>
<polygon fill="white" stroke="white" points="-4,5 -4,-104 559,-104 559,5 -4,5"/>
<!-- Node1 -->
<g id="node1" class="node"><title>Node1</title>
<polygon fill="#bfbfbf" stroke="black" points="208,-69 208,-99 336,-99 336,-69 208,-69"/>
<text text-anchor="start" x="216" y="-87" font-family="Helvetica,sans-Serif" font-size="10.00">source/portable/Rowley</text>
<text text-anchor="middle" x="272" y="-76" font-family="Helvetica,sans-Serif" font-size="10.00">/MSP430F449/portasm.h</text>
</g>
<!-- Node2 -->
<g id="node2" class="node"><title>Node2</title>
<g id="a_node2"><a xlink:href="_b_c_c_216_bit_d_o_s_2_flsh186_2port_8c.html" target="_top" xlink:title="source/portable/BCC\l/16BitDOS/Flsh186/port.c">
<polygon fill="white" stroke="black" points="0,-1 0,-31 130,-31 130,-1 0,-1"/>
<text text-anchor="start" x="8" y="-19" font-family="Helvetica,sans-Serif" font-size="10.00">source/portable/BCC</text>
<text text-anchor="middle" x="65" y="-8" font-family="Helvetica,sans-Serif" font-size="10.00">/16BitDOS/Flsh186/port.c</text>
</a>
</g>
</g>
<!-- Node1&#45;&gt;Node2 -->
<g id="edge1" class="edge"><title>Node1&#45;&gt;Node2</title>
<path fill="none" stroke="midnightblue" d="M218.094,-65.8127C184.175,-54.9979 140.949,-41.2157 109.085,-31.0561"/>
<polygon fill="midnightblue" stroke="midnightblue" points="217.257,-69.2191 227.847,-68.9223 219.383,-62.5499 217.257,-69.2191"/>
</g>
<!-- Node3 -->
<g id="node3" class="node"><title>Node3</title>
<g id="a_node3"><a xlink:href="_b_c_c_216_bit_d_o_s_2_p_c_2port_8c.html" target="_top" xlink:title="source/portable/BCC\l/16BitDOS/PC/port.c">
<polygon fill="white" stroke="black" points="148.5,-1 148.5,-31 257.5,-31 257.5,-1 148.5,-1"/>
<text text-anchor="start" x="156.5" y="-19" font-family="Helvetica,sans-Serif" font-size="10.00">source/portable/BCC</text>
<text text-anchor="middle" x="203" y="-8" font-family="Helvetica,sans-Serif" font-size="10.00">/16BitDOS/PC/port.c</text>
</a>
</g>
</g>
<!-- Node1&#45;&gt;Node3 -->
<g id="edge2" class="edge"><title>Node1&#45;&gt;Node3</title>
<path fill="none" stroke="midnightblue" d="M249.508,-61.4855C239.157,-51.5852 227.16,-40.1092 217.943,-31.2931"/>
<polygon fill="midnightblue" stroke="midnightblue" points="247.382,-64.296 257.028,-68.679 252.221,-59.2375 247.382,-64.296"/>
</g>
<!-- Node4 -->
<g id="node4" class="node"><title>Node4</title>
<g id="a_node4"><a xlink:href="o_watcom_216_bit_d_o_s_2_flsh186_2port_8c.html" target="_top" xlink:title="source/portable/oWatcom\l/16BitDOS/Flsh186/port.c">
<polygon fill="white" stroke="black" points="276,-1 276,-31 406,-31 406,-1 276,-1"/>
<text text-anchor="start" x="284" y="-19" font-family="Helvetica,sans-Serif" font-size="10.00">source/portable/oWatcom</text>
<text text-anchor="middle" x="341" y="-8" font-family="Helvetica,sans-Serif" font-size="10.00">/16BitDOS/Flsh186/port.c</text>
</a>
</g>
</g>
<!-- Node1&#45;&gt;Node4 -->
<g id="edge3" class="edge"><title>Node1&#45;&gt;Node4</title>
<path fill="none" stroke="midnightblue" d="M294.492,-61.4855C304.843,-51.5852 316.84,-40.1092 326.057,-31.2931"/>
<polygon fill="midnightblue" stroke="midnightblue" points="291.779,-59.2375 286.972,-68.679 296.618,-64.296 291.779,-59.2375"/>
</g>
<!-- Node5 -->
<g id="node5" class="node"><title>Node5</title>
<g id="a_node5"><a xlink:href="o_watcom_216_bit_d_o_s_2_p_c_2port_8c.html" target="_top" xlink:title="source/portable/oWatcom\l/16BitDOS/PC/port.c">
<polygon fill="white" stroke="black" points="424,-1 424,-31 554,-31 554,-1 424,-1"/>
<text text-anchor="start" x="432" y="-19" font-family="Helvetica,sans-Serif" font-size="10.00">source/portable/oWatcom</text>
<text text-anchor="middle" x="489" y="-8" font-family="Helvetica,sans-Serif" font-size="10.00">/16BitDOS/PC/port.c</text>
</a>
</g>
</g>
<!-- Node1&#45;&gt;Node5 -->
<g id="edge4" class="edge"><title>Node1&#45;&gt;Node5</title>
<path fill="none" stroke="midnightblue" d="M328.052,-65.9518C363.678,-55.1162 409.238,-41.2594 442.785,-31.0561"/>
<polygon fill="midnightblue" stroke="midnightblue" points="326.835,-62.6638 318.286,-68.9223 328.872,-69.3609 326.835,-62.6638"/>
</g>
</g>
</svg>
