<?xml version="1.0" encoding="UTF-8" standalone="no"?>
<!DOCTYPE svg PUBLIC "-//W3C//DTD SVG 1.1//EN"
 "http://www.w3.org/Graphics/SVG/1.1/DTD/svg11.dtd">
<!-- Generated by graphviz version 2.30.1 (20130221.2233)
 -->
<!-- Title: source/portable/Softune/MB91460/portmacro.h Pages: 1 -->
<svg width="150pt" height="96pt"
 viewBox="0.00 0.00 150.00 96.00" xmlns="http://www.w3.org/2000/svg" xmlns:xlink="http://www.w3.org/1999/xlink">
<g id="graph0" class="graph" transform="scale(1 1) rotate(0) translate(4 92)">
<title>source/portable/Softune/MB91460/portmacro.h</title>
<polygon fill="white" stroke="white" points="-4,5 -4,-92 147,-92 147,5 -4,5"/>
<!-- Node1 -->
<g id="node1" class="node"><title>Node1</title>
<polygon fill="#bfbfbf" stroke="black" points="14.5,-57 14.5,-87 137.5,-87 137.5,-57 14.5,-57"/>
<text text-anchor="start" x="22.5" y="-75" font-family="Helvetica,sans-Serif" font-size="10.00">source/portable/Softune</text>
<text text-anchor="middle" x="76" y="-64" font-family="Helvetica,sans-Serif" font-size="10.00">/MB91460/portmacro.h</text>
</g>
<!-- Node2 -->
<g id="node2" class="node"><title>Node2</title>
<polygon fill="white" stroke="#bfbfbf" points="0,-0.5 0,-19.5 72,-19.5 72,-0.5 0,-0.5"/>
<text text-anchor="middle" x="36" y="-7.5" font-family="Helvetica,sans-Serif" font-size="10.00">mb91467d.h</text>
</g>
<!-- Node1&#45;&gt;Node2 -->
<g id="edge1" class="edge"><title>Node1&#45;&gt;Node2</title>
<path fill="none" stroke="midnightblue" d="M66.5206,-56.7808C60.8279,-48.2419 53.5456,-37.3184 47.5222,-28.2834"/>
<polygon fill="midnightblue" stroke="midnightblue" points="50.2796,-26.1096 41.8204,-19.7305 44.4552,-29.9925 50.2796,-26.1096"/>
</g>
<!-- Node3 -->
<g id="node3" class="node"><title>Node3</title>
<polygon fill="white" stroke="#bfbfbf" points="90,-0.5 90,-19.5 142,-19.5 142,-0.5 90,-0.5"/>
<text text-anchor="middle" x="116" y="-7.5" font-family="Helvetica,sans-Serif" font-size="10.00">stddef.h</text>
</g>
<!-- Node1&#45;&gt;Node3 -->
<g id="edge2" class="edge"><title>Node1&#45;&gt;Node3</title>
<path fill="none" stroke="midnightblue" d="M85.4794,-56.7808C91.1721,-48.2419 98.4544,-37.3184 104.478,-28.2834"/>
<polygon fill="midnightblue" stroke="midnightblue" points="107.545,-29.9925 110.18,-19.7305 101.72,-26.1096 107.545,-29.9925"/>
</g>
</g>
</svg>
