<?xml version="1.0" encoding="UTF-8" standalone="no"?>
<!DOCTYPE svg PUBLIC "-//W3C//DTD SVG 1.1//EN"
 "http://www.w3.org/Graphics/SVG/1.1/DTD/svg11.dtd">
<!-- Generated by graphviz version 2.30.1 (20130221.2233)
 -->
<!-- Title: pxPortInitialiseStack Pages: 1 -->
<svg width="270pt" height="66pt"
 viewBox="0.00 0.00 270.00 66.00" xmlns="http://www.w3.org/2000/svg" xmlns:xlink="http://www.w3.org/1999/xlink">
<g id="graph0" class="graph" transform="scale(1 1) rotate(0) translate(4 62)">
<title>pxPortInitialiseStack</title>
<polygon fill="white" stroke="white" points="-4,5 -4,-62 267,-62 267,5 -4,5"/>
<!-- Node1 -->
<g id="node1" class="node"><title>Node1</title>
<polygon fill="#bfbfbf" stroke="black" points="0.5,-19.5 0.5,-38.5 107.5,-38.5 107.5,-19.5 0.5,-19.5"/>
<text text-anchor="middle" x="54" y="-26.5" font-family="Helvetica,sans-Serif" font-size="10.00">pxPortInitialiseStack</text>
</g>
<!-- Node2 -->
<g id="node2" class="node"><title>Node2</title>
<g id="a_node2"><a xlink:href="_softune_2_m_b96340_2port_8c.html#a13e5fe7547f79ab37fa3a6908f4a298e" target="_top" xlink:title="xGet_DPR_ADB_bank">
<polygon fill="white" stroke="black" points="144,-38.5 144,-57.5 262,-57.5 262,-38.5 144,-38.5"/>
<text text-anchor="middle" x="203" y="-45.5" font-family="Helvetica,sans-Serif" font-size="10.00">xGet_DPR_ADB_bank</text>
</a>
</g>
</g>
<!-- Node1&#45;&gt;Node2 -->
<g id="edge1" class="edge"><title>Node1&#45;&gt;Node2</title>
<path fill="none" stroke="midnightblue" d="M107.655,-35.8058C116.215,-36.9121 125.185,-38.0716 134.048,-39.217"/>
<polygon fill="midnightblue" stroke="midnightblue" points="133.614,-42.69 143.98,-40.5008 134.511,-35.7478 133.614,-42.69"/>
</g>
<!-- Node3 -->
<g id="node3" class="node"><title>Node3</title>
<g id="a_node3"><a xlink:href="_softune_2_m_b96340_2port_8c.html#ac1749073ebb72afb94fe7392ae8ba435" target="_top" xlink:title="xGet_DTB_PCB_bank">
<polygon fill="white" stroke="black" points="144.5,-0.5 144.5,-19.5 261.5,-19.5 261.5,-0.5 144.5,-0.5"/>
<text text-anchor="middle" x="203" y="-7.5" font-family="Helvetica,sans-Serif" font-size="10.00">xGet_DTB_PCB_bank</text>
</a>
</g>
</g>
<!-- Node1&#45;&gt;Node3 -->
<g id="edge2" class="edge"><title>Node1&#45;&gt;Node3</title>
<path fill="none" stroke="midnightblue" d="M107.655,-22.1942C116.334,-21.0724 125.436,-19.896 134.419,-18.7349"/>
<polygon fill="midnightblue" stroke="midnightblue" points="135.014,-22.1873 144.483,-17.4342 134.116,-15.245 135.014,-22.1873"/>
</g>
</g>
</svg>
