<?xml version="1.0" encoding="UTF-8" standalone="no"?>
<!DOCTYPE svg PUBLIC "-//W3C//DTD SVG 1.1//EN"
 "http://www.w3.org/Graphics/SVG/1.1/DTD/svg11.dtd">
<!-- Generated by graphviz version 2.30.1 (20130221.2233)
 -->
<!-- Title: vPortEnterCritical Pages: 1 -->
<svg width="258pt" height="104pt"
 viewBox="0.00 0.00 258.00 104.00" xmlns="http://www.w3.org/2000/svg" xmlns:xlink="http://www.w3.org/1999/xlink">
<g id="graph0" class="graph" transform="scale(1 1) rotate(0) translate(4 100)">
<title>vPortEnterCritical</title>
<polygon fill="white" stroke="white" points="-4,5 -4,-100 255,-100 255,5 -4,5"/>
<!-- Node1 -->
<g id="node1" class="node"><title>Node1</title>
<polygon fill="#bfbfbf" stroke="black" points="0,-38.5 0,-57.5 94,-57.5 94,-38.5 0,-38.5"/>
<text text-anchor="middle" x="47" y="-45.5" font-family="Helvetica,sans-Serif" font-size="10.00">vPortEnterCritical</text>
</g>
<!-- Node2 -->
<g id="node2" class="node"><title>Node2</title>
<g id="a_node2"><a xlink:href="_g_c_c_2_a_r_m___c_m3___m_p_u_2port_8c.html#ad5691a9d6fd4c0b9f4e55426dd9a48ad" target="_top" xlink:title="prvRaisePrivilege">
<polygon fill="white" stroke="black" points="143,-76.5 143,-95.5 237,-95.5 237,-76.5 143,-76.5"/>
<text text-anchor="middle" x="190" y="-83.5" font-family="Helvetica,sans-Serif" font-size="10.00">prvRaisePrivilege</text>
</a>
</g>
</g>
<!-- Node1&#45;&gt;Node2 -->
<g id="edge1" class="edge"><title>Node1&#45;&gt;Node2</title>
<path fill="none" stroke="midnightblue" d="M83.5803,-57.589C101.782,-62.4944 124.138,-68.5196 143.572,-73.7571"/>
<polygon fill="midnightblue" stroke="midnightblue" points="142.865,-77.1912 153.431,-76.4141 144.686,-70.4324 142.865,-77.1912"/>
</g>
<!-- Node3 -->
<g id="node3" class="node"><title>Node3</title>
<g id="a_node3"><a xlink:href="_g_c_c_2_a_r_m___c_a9_2port_8c.html#a0625efca0dcd0cb3a264e046a937731a" target="_top" xlink:title="ulPortSetInterruptMask">
<polygon fill="white" stroke="black" points="130.5,-38.5 130.5,-57.5 249.5,-57.5 249.5,-38.5 130.5,-38.5"/>
<text text-anchor="middle" x="190" y="-45.5" font-family="Helvetica,sans-Serif" font-size="10.00">ulPortSetInterruptMask</text>
</a>
</g>
</g>
<!-- Node1&#45;&gt;Node3 -->
<g id="edge2" class="edge"><title>Node1&#45;&gt;Node3</title>
<path fill="none" stroke="midnightblue" d="M94.1687,-48C102.481,-48 111.308,-48 120.102,-48"/>
<polygon fill="midnightblue" stroke="midnightblue" points="120.377,-51.5001 130.377,-48 120.377,-44.5001 120.377,-51.5001"/>
</g>
<!-- Node4 -->
<g id="node4" class="node"><title>Node4</title>
<g id="a_node4"><a xlink:href="_paradigm_2_tern___e_e_2small_2portmacro_8h.html#a14d32f8130d3c0b212cfc751730b5b49" target="_top" xlink:title="void">
<polygon fill="white" stroke="black" points="172.5,-0.5 172.5,-19.5 207.5,-19.5 207.5,-0.5 172.5,-0.5"/>
<text text-anchor="middle" x="190" y="-7.5" font-family="Helvetica,sans-Serif" font-size="10.00">void</text>
</a>
</g>
</g>
<!-- Node1&#45;&gt;Node4 -->
<g id="edge3" class="edge"><title>Node1&#45;&gt;Node4</title>
<path fill="none" stroke="midnightblue" d="M83.5803,-38.411C108.089,-31.8057 140.131,-23.1703 162.428,-17.1613"/>
<polygon fill="midnightblue" stroke="midnightblue" points="163.475,-20.5041 172.219,-14.5224 161.653,-13.7453 163.475,-20.5041"/>
</g>
</g>
</svg>
