<?xml version="1.0" encoding="UTF-8" standalone="no"?>
<!DOCTYPE svg PUBLIC "-//W3C//DTD SVG 1.1//EN"
 "http://www.w3.org/Graphics/SVG/1.1/DTD/svg11.dtd">
<!-- Generated by graphviz version 2.30.1 (20130221.2233)
 -->
<!-- Title: source/portable/WizC/PIC18/portmacro.h Pages: 1 -->
<svg width="6500pt" height="220pt"
 viewBox="0.00 0.00 6500.00 220.00" xmlns="http://www.w3.org/2000/svg" xmlns:xlink="http://www.w3.org/1999/xlink">
<g id="graph0" class="graph" transform="scale(1 1) rotate(0) translate(4 216)">
<title>source/portable/WizC/PIC18/portmacro.h</title>
<polygon fill="white" stroke="white" points="-4,5 -4,-216 6497,-216 6497,5 -4,5"/>
<!-- Node1 -->
<g id="node1" class="node"><title>Node1</title>
<polygon fill="#bfbfbf" stroke="black" points="3324,-181 3324,-211 3436,-211 3436,-181 3324,-181"/>
<text text-anchor="start" x="3332" y="-199" font-family="Helvetica,sans-Serif" font-size="10.00">source/portable/WizC</text>
<text text-anchor="middle" x="3380" y="-188" font-family="Helvetica,sans-Serif" font-size="10.00">/PIC18/portmacro.h</text>
</g>
<!-- Node2 -->
<g id="node2" class="node"><title>Node2</title>
<g id="a_node2"><a xlink:href="portable_8h.html" target="_top" xlink:title="source/include/portable.h">
<polygon fill="white" stroke="black" points="3316,-124.5 3316,-143.5 3444,-143.5 3444,-124.5 3316,-124.5"/>
<text text-anchor="middle" x="3380" y="-131.5" font-family="Helvetica,sans-Serif" font-size="10.00">source/include/portable.h</text>
</a>
</g>
</g>
<!-- Node1&#45;&gt;Node2 -->
<g id="edge1" class="edge"><title>Node1&#45;&gt;Node2</title>
<path fill="none" stroke="midnightblue" d="M3380,-170.586C3380,-161.074 3380,-150.786 3380,-143.731"/>
<polygon fill="midnightblue" stroke="midnightblue" points="3376.5,-170.781 3380,-180.781 3383.5,-170.781 3376.5,-170.781"/>
</g>
<!-- Node3 -->
<g id="node3" class="node"><title>Node3</title>
<g id="a_node3"><a xlink:href="_free_r_t_o_s_8h.html" target="_top" xlink:title="source/include/FreeRTOS.h">
<polygon fill="white" stroke="red" points="3310,-68.5 3310,-87.5 3450,-87.5 3450,-68.5 3310,-68.5"/>
<text text-anchor="middle" x="3380" y="-75.5" font-family="Helvetica,sans-Serif" font-size="10.00">source/include/FreeRTOS.h</text>
</a>
</g>
</g>
<!-- Node2&#45;&gt;Node3 -->
<g id="edge2" class="edge"><title>Node2&#45;&gt;Node3</title>
<path fill="none" stroke="midnightblue" d="M3380,-113.805C3380,-104.91 3380,-94.7798 3380,-87.7511"/>
<polygon fill="midnightblue" stroke="midnightblue" points="3376.5,-114.083 3380,-124.083 3383.5,-114.083 3376.5,-114.083"/>
</g>
<!-- Node4 -->
<g id="node4" class="node"><title>Node4</title>
<g id="a_node4"><a xlink:href="croutine_8c.html" target="_top" xlink:title="source/croutine.c">
<polygon fill="white" stroke="black" points="-0.5,-6.5 -0.5,-25.5 92.5,-25.5 92.5,-6.5 -0.5,-6.5"/>
<text text-anchor="middle" x="46" y="-13.5" font-family="Helvetica,sans-Serif" font-size="10.00">source/croutine.c</text>
</a>
</g>
</g>
<!-- Node3&#45;&gt;Node4 -->
<g id="edge3" class="edge"><title>Node3&#45;&gt;Node4</title>
<path fill="none" stroke="midnightblue" d="M3299.64,-77.0889C2827.81,-77.4523 427.112,-77.0597 102,-32 92.2297,-30.6459 81.7333,-28.1303 72.4984,-25.541"/>
<polygon fill="midnightblue" stroke="midnightblue" points="3299.77,-80.5889 3309.77,-77.0808 3299.77,-73.5889 3299.77,-80.5889"/>
</g>
<!-- Node5 -->
<g id="node5" class="node"><title>Node5</title>
<g id="a_node5"><a xlink:href="event__groups_8c.html" target="_top" xlink:title="source/event_groups.c">
<polygon fill="white" stroke="black" points="111,-6.5 111,-25.5 229,-25.5 229,-6.5 111,-6.5"/>
<text text-anchor="middle" x="170" y="-13.5" font-family="Helvetica,sans-Serif" font-size="10.00">source/event_groups.c</text>
</a>
</g>
</g>
<!-- Node3&#45;&gt;Node5 -->
<g id="edge4" class="edge"><title>Node3&#45;&gt;Node5</title>
<path fill="none" stroke="midnightblue" d="M3299.72,-76.8243C2839.87,-75.688 549.752,-68.2366 238,-32 226.232,-30.6321 213.508,-28.1133 202.286,-25.5253"/>
<polygon fill="midnightblue" stroke="midnightblue" points="3299.91,-80.3247 3309.92,-76.8492 3299.93,-73.3247 3299.91,-80.3247"/>
</g>
<!-- Node6 -->
<g id="node6" class="node"><title>Node6</title>
<g id="a_node6"><a xlink:href="list_8c.html" target="_top" xlink:title="source/list.c">
<polygon fill="white" stroke="black" points="247.5,-6.5 247.5,-25.5 316.5,-25.5 316.5,-6.5 247.5,-6.5"/>
<text text-anchor="middle" x="282" y="-13.5" font-family="Helvetica,sans-Serif" font-size="10.00">source/list.c</text>
</a>
</g>
</g>
<!-- Node3&#45;&gt;Node6 -->
<g id="edge5" class="edge"><title>Node3&#45;&gt;Node6</title>
<path fill="none" stroke="midnightblue" d="M3299.88,-76.5441C2832.68,-73.7947 475.526,-58.6428 325,-32 317.37,-30.6496 309.281,-28.1349 302.201,-25.5452"/>
<polygon fill="midnightblue" stroke="midnightblue" points="3299.89,-80.0441 3309.91,-76.6029 3299.93,-73.0443 3299.89,-80.0441"/>
</g>
<!-- Node7 -->
<g id="node7" class="node"><title>Node7</title>
<g id="a_node7"><a xlink:href="_b_c_c_216_bit_d_o_s_2common_2portcomn_8c.html" target="_top" xlink:title="source/portable/BCC\l/16BitDOS/common/portcomn.c">
<polygon fill="white" stroke="black" points="334.5,-1 334.5,-31 491.5,-31 491.5,-1 334.5,-1"/>
<text text-anchor="start" x="342.5" y="-19" font-family="Helvetica,sans-Serif" font-size="10.00">source/portable/BCC</text>
<text text-anchor="middle" x="413" y="-8" font-family="Helvetica,sans-Serif" font-size="10.00">/16BitDOS/common/portcomn.c</text>
</a>
</g>
</g>
<!-- Node3&#45;&gt;Node7 -->
<g id="edge6" class="edge"><title>Node3&#45;&gt;Node7</title>
<path fill="none" stroke="midnightblue" d="M3299.57,-76.4793C2862.87,-73.5537 785.833,-58.3451 501,-32 497.914,-31.7145 494.772,-31.3821 491.603,-31.0118"/>
<polygon fill="midnightblue" stroke="midnightblue" points="3299.86,-79.9812 3309.88,-76.5482 3299.9,-72.9814 3299.86,-79.9812"/>
</g>
<!-- Node8 -->
<g id="node8" class="node"><title>Node8</title>
<g id="a_node8"><a xlink:href="_b_c_c_216_bit_d_o_s_2_flsh186_2port_8c.html" target="_top" xlink:title="source/portable/BCC\l/16BitDOS/Flsh186/port.c">
<polygon fill="white" stroke="black" points="510,-1 510,-31 640,-31 640,-1 510,-1"/>
<text text-anchor="start" x="518" y="-19" font-family="Helvetica,sans-Serif" font-size="10.00">source/portable/BCC</text>
<text text-anchor="middle" x="575" y="-8" font-family="Helvetica,sans-Serif" font-size="10.00">/16BitDOS/Flsh186/port.c</text>
</a>
</g>
</g>
<!-- Node3&#45;&gt;Node8 -->
<g id="edge7" class="edge"><title>Node3&#45;&gt;Node8</title>
<path fill="none" stroke="midnightblue" d="M3299.63,-76.5556C2876.67,-74.0989 917.89,-61.2174 649,-32 646.133,-31.6885 643.212,-31.3197 640.268,-30.9059"/>
<polygon fill="midnightblue" stroke="midnightblue" points="3299.91,-80.0571 3309.93,-76.6151 3299.95,-73.0573 3299.91,-80.0571"/>
</g>
<!-- Node9 -->
<g id="node9" class="node"><title>Node9</title>
<g id="a_node9"><a xlink:href="_b_c_c_216_bit_d_o_s_2_p_c_2port_8c.html" target="_top" xlink:title="source/portable/BCC\l/16BitDOS/PC/port.c">
<polygon fill="white" stroke="black" points="658.5,-1 658.5,-31 767.5,-31 767.5,-1 658.5,-1"/>
<text text-anchor="start" x="666.5" y="-19" font-family="Helvetica,sans-Serif" font-size="10.00">source/portable/BCC</text>
<text text-anchor="middle" x="713" y="-8" font-family="Helvetica,sans-Serif" font-size="10.00">/16BitDOS/PC/port.c</text>
</a>
</g>
</g>
<!-- Node3&#45;&gt;Node9 -->
<g id="edge8" class="edge"><title>Node3&#45;&gt;Node9</title>
<path fill="none" stroke="midnightblue" d="M3299.69,-76.6472C2888.81,-74.7032 1031.11,-64.1878 776,-32 773.211,-31.6481 770.366,-31.2219 767.503,-30.7393"/>
<polygon fill="midnightblue" stroke="midnightblue" points="3299.69,-80.1471 3309.71,-76.6942 3299.72,-73.1472 3299.69,-80.1471"/>
</g>
<!-- Node10 -->
<g id="node10" class="node"><title>Node10</title>
<g id="a_node10"><a xlink:href="_c_c_s_2_a_r_m___c_m4_f_2port_8c.html" target="_top" xlink:title="source/portable/CCS\l/ARM_CM4F/port.c">
<polygon fill="white" stroke="black" points="785.5,-1 785.5,-31 894.5,-31 894.5,-1 785.5,-1"/>
<text text-anchor="start" x="793.5" y="-19" font-family="Helvetica,sans-Serif" font-size="10.00">source/portable/CCS</text>
<text text-anchor="middle" x="840" y="-8" font-family="Helvetica,sans-Serif" font-size="10.00">/ARM_CM4F/port.c</text>
</a>
</g>
</g>
<!-- Node3&#45;&gt;Node10 -->
<g id="edge9" class="edge"><title>Node3&#45;&gt;Node10</title>
<path fill="none" stroke="midnightblue" d="M3299.5,-76.552C2900.66,-74.1957 1145.76,-62.1814 904,-32 900.942,-31.6183 897.818,-31.1503 894.675,-30.6183"/>
<polygon fill="midnightblue" stroke="midnightblue" points="3299.77,-80.0535 3309.79,-76.6124 3299.81,-73.0537 3299.77,-80.0535"/>
</g>
<!-- Node11 -->
<g id="node11" class="node"><title>Node11</title>
<g id="a_node11"><a xlink:href="_c_c_s_2_a_r_m___cortex-_r4_2port_8c.html" target="_top" xlink:title="source/portable/CCS\l/ARM_Cortex&#45;R4/port.c">
<polygon fill="white" stroke="black" points="913,-1 913,-31 1033,-31 1033,-1 913,-1"/>
<text text-anchor="start" x="921" y="-19" font-family="Helvetica,sans-Serif" font-size="10.00">source/portable/CCS</text>
<text text-anchor="middle" x="973" y="-8" font-family="Helvetica,sans-Serif" font-size="10.00">/ARM_Cortex&#45;R4/port.c</text>
</a>
</g>
</g>
<!-- Node3&#45;&gt;Node11 -->
<g id="edge10" class="edge"><title>Node3&#45;&gt;Node11</title>
<path fill="none" stroke="midnightblue" d="M3299.65,-76.3833C2914.86,-73.3044 1269.63,-58.6752 1042,-32 1039.08,-31.6576 1036.1,-31.2475 1033.09,-30.7855"/>
<polygon fill="midnightblue" stroke="midnightblue" points="3299.83,-79.8847 3309.86,-76.4646 3299.89,-72.885 3299.83,-79.8847"/>
</g>
<!-- Node12 -->
<g id="node12" class="node"><title>Node12</title>
<g id="a_node12"><a xlink:href="_c_c_s_2_m_s_p430_x_2port_8c.html" target="_top" xlink:title="source/portable/CCS\l/MSP430X/port.c">
<polygon fill="white" stroke="black" points="1051.5,-1 1051.5,-31 1160.5,-31 1160.5,-1 1051.5,-1"/>
<text text-anchor="start" x="1059.5" y="-19" font-family="Helvetica,sans-Serif" font-size="10.00">source/portable/CCS</text>
<text text-anchor="middle" x="1106" y="-8" font-family="Helvetica,sans-Serif" font-size="10.00">/MSP430X/port.c</text>
</a>
</g>
</g>
<!-- Node3&#45;&gt;Node12 -->
<g id="edge11" class="edge"><title>Node3&#45;&gt;Node12</title>
<path fill="none" stroke="midnightblue" d="M3299.79,-76.3822C2928.22,-73.3831 1383.18,-59.3582 1169,-32 1166.21,-31.6439 1163.37,-31.2142 1160.5,-30.7288"/>
<polygon fill="midnightblue" stroke="midnightblue" points="3299.89,-79.883 3309.92,-76.4636 3299.95,-72.8832 3299.89,-79.883"/>
</g>
<!-- Node13 -->
<g id="node13" class="node"><title>Node13</title>
<g id="a_node13"><a xlink:href="_code_warrior_2_cold_fire___v1_2port_8c.html" target="_top" xlink:title="source/portable/CodeWarrior\l/ColdFire_V1/port.c">
<polygon fill="white" stroke="black" points="1178.5,-1 1178.5,-31 1323.5,-31 1323.5,-1 1178.5,-1"/>
<text text-anchor="start" x="1186.5" y="-19" font-family="Helvetica,sans-Serif" font-size="10.00">source/portable/CodeWarrior</text>
<text text-anchor="middle" x="1251" y="-8" font-family="Helvetica,sans-Serif" font-size="10.00">/ColdFire_V1/port.c</text>
</a>
</g>
</g>
<!-- Node3&#45;&gt;Node13 -->
<g id="edge12" class="edge"><title>Node3&#45;&gt;Node13</title>
<path fill="none" stroke="midnightblue" d="M3299.38,-76.9646C2969.77,-76.5515 1723.64,-72.3003 1332,-32 1329.3,-31.7219 1326.55,-31.4024 1323.78,-31.0492"/>
<polygon fill="midnightblue" stroke="midnightblue" points="3299.78,-80.465 3309.79,-76.9768 3299.79,-73.465 3299.78,-80.465"/>
</g>
<!-- Node14 -->
<g id="node14" class="node"><title>Node14</title>
<g id="a_node14"><a xlink:href="_code_warrior_2_cold_fire___v2_2port_8c.html" target="_top" xlink:title="source/portable/CodeWarrior\l/ColdFire_V2/port.c">
<polygon fill="white" stroke="black" points="1341.5,-1 1341.5,-31 1486.5,-31 1486.5,-1 1341.5,-1"/>
<text text-anchor="start" x="1349.5" y="-19" font-family="Helvetica,sans-Serif" font-size="10.00">source/portable/CodeWarrior</text>
<text text-anchor="middle" x="1414" y="-8" font-family="Helvetica,sans-Serif" font-size="10.00">/ColdFire_V2/port.c</text>
</a>
</g>
</g>
<!-- Node3&#45;&gt;Node14 -->
<g id="edge13" class="edge"><title>Node3&#45;&gt;Node14</title>
<path fill="none" stroke="midnightblue" d="M3299.64,-76.7865C2987.23,-75.6922 1853.06,-69.1883 1495,-32 1492.3,-31.7193 1489.55,-31.3976 1486.78,-31.0426"/>
<polygon fill="midnightblue" stroke="midnightblue" points="3299.96,-80.2875 3309.97,-76.8218 3299.98,-73.2876 3299.96,-80.2875"/>
</g>
<!-- Node15 -->
<g id="node15" class="node"><title>Node15</title>
<g id="a_node15"><a xlink:href="_code_warrior_2_h_c_s12_2port_8c.html" target="_top" xlink:title="source/portable/CodeWarrior\l/HCS12/port.c">
<polygon fill="white" stroke="black" points="1504.5,-1 1504.5,-31 1649.5,-31 1649.5,-1 1504.5,-1"/>
<text text-anchor="start" x="1512.5" y="-19" font-family="Helvetica,sans-Serif" font-size="10.00">source/portable/CodeWarrior</text>
<text text-anchor="middle" x="1577" y="-8" font-family="Helvetica,sans-Serif" font-size="10.00">/HCS12/port.c</text>
</a>
</g>
</g>
<!-- Node3&#45;&gt;Node15 -->
<g id="edge14" class="edge"><title>Node3&#45;&gt;Node15</title>
<path fill="none" stroke="midnightblue" d="M3299.53,-76.5741C3004.5,-74.7511 1982.44,-66.0664 1658,-32 1655.3,-31.7162 1652.55,-31.392 1649.78,-31.0348"/>
<polygon fill="midnightblue" stroke="midnightblue" points="3299.7,-80.075 3309.72,-76.636 3299.74,-73.0752 3299.7,-80.075"/>
</g>
<!-- Node16 -->
<g id="node16" class="node"><title>Node16</title>
<g id="a_node16"><a xlink:href="_g_c_c_2_a_r_m7___a_t91_f_r40008_2port_8c.html" target="_top" xlink:title="source/portable/GCC\l/ARM7_AT91FR40008/port.c">
<polygon fill="white" stroke="black" points="1667.5,-1 1667.5,-31 1812.5,-31 1812.5,-1 1667.5,-1"/>
<text text-anchor="start" x="1675.5" y="-19" font-family="Helvetica,sans-Serif" font-size="10.00">source/portable/GCC</text>
<text text-anchor="middle" x="1740" y="-8" font-family="Helvetica,sans-Serif" font-size="10.00">/ARM7_AT91FR40008/port.c</text>
</a>
</g>
</g>
<!-- Node3&#45;&gt;Node16 -->
<g id="edge15" class="edge"><title>Node3&#45;&gt;Node16</title>
<path fill="none" stroke="midnightblue" d="M3299.43,-76.2923C3022.8,-73.6087 2112.77,-62.6144 1822,-32 1818.98,-31.6818 1815.9,-31.3148 1812.79,-30.9093"/>
<polygon fill="midnightblue" stroke="midnightblue" points="3299.75,-79.7954 3309.79,-76.3917 3299.82,-72.7958 3299.75,-79.7954"/>
</g>
<!-- Node17 -->
<g id="node17" class="node"><title>Node17</title>
<g id="a_node17"><a xlink:href="_a_r_m7___a_t91_f_r40008_2port_i_s_r_8c.html" target="_top" xlink:title="source/portable/GCC\l/ARM7_AT91FR40008/portISR.c">
<polygon fill="white" stroke="black" points="1831,-1 1831,-31 1993,-31 1993,-1 1831,-1"/>
<text text-anchor="start" x="1839" y="-19" font-family="Helvetica,sans-Serif" font-size="10.00">source/portable/GCC</text>
<text text-anchor="middle" x="1912" y="-8" font-family="Helvetica,sans-Serif" font-size="10.00">/ARM7_AT91FR40008/portISR.c</text>
</a>
</g>
</g>
<!-- Node3&#45;&gt;Node17 -->
<g id="edge16" class="edge"><title>Node3&#45;&gt;Node17</title>
<path fill="none" stroke="midnightblue" d="M3299.4,-75.7723C3044.25,-71.6644 2256.17,-57.2191 2002,-32 1999.01,-31.7028 1995.96,-31.3672 1992.89,-31.0003"/>
<polygon fill="midnightblue" stroke="midnightblue" points="3299.64,-79.2765 3309.7,-75.9371 3299.76,-72.2774 3299.64,-79.2765"/>
</g>
<!-- Node18 -->
<g id="node18" class="node"><title>Node18</title>
<g id="a_node18"><a xlink:href="_g_c_c_2_a_r_m7___a_t91_s_a_m7_s_2port_8c.html" target="_top" xlink:title="source/portable/GCC\l/ARM7_AT91SAM7S/port.c">
<polygon fill="white" stroke="black" points="2011,-1 2011,-31 2149,-31 2149,-1 2011,-1"/>
<text text-anchor="start" x="2019" y="-19" font-family="Helvetica,sans-Serif" font-size="10.00">source/portable/GCC</text>
<text text-anchor="middle" x="2080" y="-8" font-family="Helvetica,sans-Serif" font-size="10.00">/ARM7_AT91SAM7S/port.c</text>
</a>
</g>
</g>
<!-- Node3&#45;&gt;Node18 -->
<g id="edge17" class="edge"><title>Node3&#45;&gt;Node18</title>
<path fill="none" stroke="midnightblue" d="M3299.77,-75.6514C3064.71,-71.4455 2380.26,-57.3128 2158,-32 2155.12,-31.6723 2152.19,-31.2975 2149.24,-30.8854"/>
<polygon fill="midnightblue" stroke="midnightblue" points="3299.89,-79.154 3309.95,-75.8324 3300.01,-72.1551 3299.89,-79.154"/>
</g>
<!-- Node19 -->
<g id="node19" class="node"><title>Node19</title>
<g id="a_node19"><a xlink:href="_a_r_m7___a_t91_s_a_m7_s_2port_i_s_r_8c.html" target="_top" xlink:title="source/portable/GCC\l/ARM7_AT91SAM7S/portISR.c">
<polygon fill="white" stroke="black" points="2167.5,-1 2167.5,-31 2322.5,-31 2322.5,-1 2167.5,-1"/>
<text text-anchor="start" x="2175.5" y="-19" font-family="Helvetica,sans-Serif" font-size="10.00">source/portable/GCC</text>
<text text-anchor="middle" x="2245" y="-8" font-family="Helvetica,sans-Serif" font-size="10.00">/ARM7_AT91SAM7S/portISR.c</text>
</a>
</g>
</g>
<!-- Node3&#45;&gt;Node19 -->
<g id="edge18" class="edge"><title>Node3&#45;&gt;Node19</title>
<path fill="none" stroke="midnightblue" d="M3299.66,-77.043C3123.75,-76.3721 2691.51,-70.5514 2332,-32 2328.95,-31.6732 2325.85,-31.3058 2322.72,-30.9064"/>
<polygon fill="midnightblue" stroke="midnightblue" points="3299.85,-80.5435 3309.86,-77.0772 3299.87,-73.5436 3299.85,-80.5435"/>
</g>
<!-- Node20 -->
<g id="node20" class="node"><title>Node20</title>
<g id="a_node20"><a xlink:href="_g_c_c_2_a_r_m7___l_p_c2000_2port_8c.html" target="_top" xlink:title="source/portable/GCC\l/ARM7_LPC2000/port.c">
<polygon fill="white" stroke="black" points="2341,-1 2341,-31 2463,-31 2463,-1 2341,-1"/>
<text text-anchor="start" x="2349" y="-19" font-family="Helvetica,sans-Serif" font-size="10.00">source/portable/GCC</text>
<text text-anchor="middle" x="2402" y="-8" font-family="Helvetica,sans-Serif" font-size="10.00">/ARM7_LPC2000/port.c</text>
</a>
</g>
</g>
<!-- Node3&#45;&gt;Node20 -->
<g id="edge19" class="edge"><title>Node3&#45;&gt;Node20</title>
<path fill="none" stroke="midnightblue" d="M3299.72,-77.3615C3140.93,-77.1202 2775.78,-71.8094 2472,-32 2469.17,-31.6286 2466.28,-31.2028 2463.36,-30.7354"/>
<polygon fill="midnightblue" stroke="midnightblue" points="3299.88,-80.8615 3309.88,-77.3704 3299.88,-73.8615 3299.88,-80.8615"/>
</g>
<!-- Node21 -->
<g id="node21" class="node"><title>Node21</title>
<g id="a_node21"><a xlink:href="_a_r_m7___l_p_c2000_2port_i_s_r_8c.html" target="_top" xlink:title="source/portable/GCC\l/ARM7_LPC2000/portISR.c">
<polygon fill="white" stroke="black" points="2481.5,-1 2481.5,-31 2620.5,-31 2620.5,-1 2481.5,-1"/>
<text text-anchor="start" x="2489.5" y="-19" font-family="Helvetica,sans-Serif" font-size="10.00">source/portable/GCC</text>
<text text-anchor="middle" x="2551" y="-8" font-family="Helvetica,sans-Serif" font-size="10.00">/ARM7_LPC2000/portISR.c</text>
</a>
</g>
</g>
<!-- Node3&#45;&gt;Node21 -->
<g id="edge20" class="edge"><title>Node3&#45;&gt;Node21</title>
<path fill="none" stroke="midnightblue" d="M3299.78,-75.6155C3162.08,-72.4754 2872.07,-62.5228 2629,-32 2626.26,-31.6564 2623.48,-31.2749 2620.67,-30.8636"/>
<polygon fill="midnightblue" stroke="midnightblue" points="3299.76,-79.1156 3309.83,-75.8386 3299.91,-72.1174 3299.76,-79.1156"/>
</g>
<!-- Node22 -->
<g id="node22" class="node"><title>Node22</title>
<g id="a_node22"><a xlink:href="_g_c_c_2_a_r_m7___l_p_c23xx_2port_8c.html" target="_top" xlink:title="source/portable/GCC\l/ARM7_LPC23xx/port.c">
<polygon fill="white" stroke="black" points="2638.5,-1 2638.5,-31 2759.5,-31 2759.5,-1 2638.5,-1"/>
<text text-anchor="start" x="2646.5" y="-19" font-family="Helvetica,sans-Serif" font-size="10.00">source/portable/GCC</text>
<text text-anchor="middle" x="2699" y="-8" font-family="Helvetica,sans-Serif" font-size="10.00">/ARM7_LPC23xx/port.c</text>
</a>
</g>
</g>
<!-- Node3&#45;&gt;Node22 -->
<g id="edge21" class="edge"><title>Node3&#45;&gt;Node22</title>
<path fill="none" stroke="midnightblue" d="M3299.24,-74.5887C3181.94,-70.2867 2957.82,-59.0532 2769,-32 2765.92,-31.5593 2762.78,-31.0617 2759.61,-30.5224"/>
<polygon fill="midnightblue" stroke="midnightblue" points="3299.44,-78.0982 3309.56,-74.9595 3299.69,-71.1027 3299.44,-78.0982"/>
</g>
<!-- Node23 -->
<g id="node23" class="node"><title>Node23</title>
<g id="a_node23"><a xlink:href="_a_r_m7___l_p_c23xx_2port_i_s_r_8c.html" target="_top" xlink:title="source/portable/GCC\l/ARM7_LPC23xx/portISR.c">
<polygon fill="white" stroke="black" points="2778,-1 2778,-31 2916,-31 2916,-1 2778,-1"/>
<text text-anchor="start" x="2786" y="-19" font-family="Helvetica,sans-Serif" font-size="10.00">source/portable/GCC</text>
<text text-anchor="middle" x="2847" y="-8" font-family="Helvetica,sans-Serif" font-size="10.00">/ARM7_LPC23xx/portISR.c</text>
</a>
</g>
</g>
<!-- Node3&#45;&gt;Node23 -->
<g id="edge22" class="edge"><title>Node3&#45;&gt;Node23</title>
<path fill="none" stroke="midnightblue" d="M3300.02,-71.3144C3208.94,-64.3241 3055.8,-51.0042 2925,-32 2922.13,-31.5836 2919.21,-31.1346 2916.27,-30.6611"/>
<polygon fill="midnightblue" stroke="midnightblue" points="3299.76,-74.8047 3310,-72.0738 3300.29,-67.8248 3299.76,-74.8047"/>
</g>
<!-- Node24 -->
<g id="node24" class="node"><title>Node24</title>
<g id="a_node24"><a xlink:href="_g_c_c_2_a_r_m___c_a9_2port_8c.html" target="_top" xlink:title="source/portable/GCC\l/ARM_CA9/port.c">
<polygon fill="white" stroke="black" points="2934,-1 2934,-31 3044,-31 3044,-1 2934,-1"/>
<text text-anchor="start" x="2942" y="-19" font-family="Helvetica,sans-Serif" font-size="10.00">source/portable/GCC</text>
<text text-anchor="middle" x="2989" y="-8" font-family="Helvetica,sans-Serif" font-size="10.00">/ARM_CA9/port.c</text>
</a>
</g>
</g>
<!-- Node3&#45;&gt;Node24 -->
<g id="edge23" class="edge"><title>Node3&#45;&gt;Node24</title>
<path fill="none" stroke="midnightblue" d="M3299.87,-68.0922C3233.46,-60.203 3136.74,-47.5398 3053,-32 3050.08,-31.4586 3047.1,-30.8725 3044.09,-30.2562"/>
<polygon fill="midnightblue" stroke="midnightblue" points="3299.51,-71.574 3309.85,-69.2692 3300.33,-64.6221 3299.51,-71.574"/>
</g>
<!-- Node25 -->
<g id="node25" class="node"><title>Node25</title>
<g id="a_node25"><a xlink:href="_g_c_c_2_a_r_m___c_m0_2port_8c.html" target="_top" xlink:title="source/portable/GCC\l/ARM_CM0/port.c">
<polygon fill="white" stroke="black" points="3062,-1 3062,-31 3172,-31 3172,-1 3062,-1"/>
<text text-anchor="start" x="3070" y="-19" font-family="Helvetica,sans-Serif" font-size="10.00">source/portable/GCC</text>
<text text-anchor="middle" x="3117" y="-8" font-family="Helvetica,sans-Serif" font-size="10.00">/ARM_CM0/port.c</text>
</a>
</g>
</g>
<!-- Node3&#45;&gt;Node25 -->
<g id="edge24" class="edge"><title>Node3&#45;&gt;Node25</title>
<path fill="none" stroke="midnightblue" d="M3332,-66.2563C3291.68,-57.2048 3232.55,-43.8694 3181,-32 3178.11,-31.3342 3175.14,-30.649 3172.15,-29.955"/>
<polygon fill="midnightblue" stroke="midnightblue" points="3331.31,-69.6876 3341.83,-68.4618 3332.84,-62.8574 3331.31,-69.6876"/>
</g>
<!-- Node26 -->
<g id="node26" class="node"><title>Node26</title>
<g id="a_node26"><a xlink:href="_g_c_c_2_a_r_m___c_m3_2port_8c.html" target="_top" xlink:title="source/portable/GCC\l/ARM_CM3/port.c">
<polygon fill="white" stroke="black" points="3190,-1 3190,-31 3300,-31 3300,-1 3190,-1"/>
<text text-anchor="start" x="3198" y="-19" font-family="Helvetica,sans-Serif" font-size="10.00">source/portable/GCC</text>
<text text-anchor="middle" x="3245" y="-8" font-family="Helvetica,sans-Serif" font-size="10.00">/ARM_CM3/port.c</text>
</a>
</g>
</g>
<!-- Node3&#45;&gt;Node26 -->
<g id="edge25" class="edge"><title>Node3&#45;&gt;Node26</title>
<path fill="none" stroke="midnightblue" d="M3351.52,-64.3408C3329.57,-54.5862 3299.24,-41.1068 3276.56,-31.0253"/>
<polygon fill="midnightblue" stroke="midnightblue" points="3350.1,-67.5404 3360.66,-68.4035 3352.94,-61.1437 3350.1,-67.5404"/>
</g>
<!-- Node27 -->
<g id="node27" class="node"><title>Node27</title>
<g id="a_node27"><a xlink:href="_g_c_c_2_a_r_m___c_m3___m_p_u_2port_8c.html" target="_top" xlink:title="source/portable/GCC\l/ARM_CM3_MPU/port.c">
<polygon fill="white" stroke="black" points="3318,-1 3318,-31 3442,-31 3442,-1 3318,-1"/>
<text text-anchor="start" x="3326" y="-19" font-family="Helvetica,sans-Serif" font-size="10.00">source/portable/GCC</text>
<text text-anchor="middle" x="3380" y="-8" font-family="Helvetica,sans-Serif" font-size="10.00">/ARM_CM3_MPU/port.c</text>
</a>
</g>
</g>
<!-- Node3&#45;&gt;Node27 -->
<g id="edge26" class="edge"><title>Node3&#45;&gt;Node27</title>
<path fill="none" stroke="midnightblue" d="M3380,-58.3707C3380,-49.5849 3380,-39.2721 3380,-31.1408"/>
<polygon fill="midnightblue" stroke="midnightblue" points="3376.5,-58.4034 3380,-68.4035 3383.5,-58.4035 3376.5,-58.4034"/>
</g>
<!-- Node28 -->
<g id="node28" class="node"><title>Node28</title>
<g id="a_node28"><a xlink:href="_g_c_c_2_a_r_m___c_m4_f_2port_8c.html" target="_top" xlink:title="source/portable/GCC\l/ARM_CM4F/port.c">
<polygon fill="white" stroke="black" points="3460,-1 3460,-31 3570,-31 3570,-1 3460,-1"/>
<text text-anchor="start" x="3468" y="-19" font-family="Helvetica,sans-Serif" font-size="10.00">source/portable/GCC</text>
<text text-anchor="middle" x="3515" y="-8" font-family="Helvetica,sans-Serif" font-size="10.00">/ARM_CM4F/port.c</text>
</a>
</g>
</g>
<!-- Node3&#45;&gt;Node28 -->
<g id="edge27" class="edge"><title>Node3&#45;&gt;Node28</title>
<path fill="none" stroke="midnightblue" d="M3408.48,-64.3408C3430.43,-54.5862 3460.76,-41.1068 3483.44,-31.0253"/>
<polygon fill="midnightblue" stroke="midnightblue" points="3407.06,-61.1437 3399.34,-68.4035 3409.9,-67.5404 3407.06,-61.1437"/>
</g>
<!-- Node29 -->
<g id="node29" class="node"><title>Node29</title>
<g id="a_node29"><a xlink:href="_g_c_c_2_a_r_m___c_m7_2r0p1_2port_8c.html" target="_top" xlink:title="source/portable/GCC\l/ARM_CM7/r0p1/port.c">
<polygon fill="white" stroke="black" points="3588.5,-1 3588.5,-31 3707.5,-31 3707.5,-1 3588.5,-1"/>
<text text-anchor="start" x="3596.5" y="-19" font-family="Helvetica,sans-Serif" font-size="10.00">source/portable/GCC</text>
<text text-anchor="middle" x="3648" y="-8" font-family="Helvetica,sans-Serif" font-size="10.00">/ARM_CM7/r0p1/port.c</text>
</a>
</g>
</g>
<!-- Node3&#45;&gt;Node29 -->
<g id="edge28" class="edge"><title>Node3&#45;&gt;Node29</title>
<path fill="none" stroke="midnightblue" d="M3427.89,-66.2783C3472.75,-56.235 3539.95,-41.1909 3588.29,-30.3685"/>
<polygon fill="midnightblue" stroke="midnightblue" points="3427.11,-62.8669 3418.11,-68.4672 3428.64,-69.6978 3427.11,-62.8669"/>
</g>
<!-- Node30 -->
<g id="node30" class="node"><title>Node30</title>
<g id="a_node30"><a xlink:href="_g_c_c_2_a_r_m___c_r5_2port_8c.html" target="_top" xlink:title="source/portable/GCC\l/ARM_CR5/port.c">
<polygon fill="white" stroke="black" points="3726,-1 3726,-31 3836,-31 3836,-1 3726,-1"/>
<text text-anchor="start" x="3734" y="-19" font-family="Helvetica,sans-Serif" font-size="10.00">source/portable/GCC</text>
<text text-anchor="middle" x="3781" y="-8" font-family="Helvetica,sans-Serif" font-size="10.00">/ARM_CR5/port.c</text>
</a>
</g>
</g>
<!-- Node3&#45;&gt;Node30 -->
<g id="edge29" class="edge"><title>Node3&#45;&gt;Node30</title>
<path fill="none" stroke="midnightblue" d="M3460.38,-68.3788C3528.65,-60.5437 3629.12,-47.8071 3716,-32 3719.19,-31.4196 3722.46,-30.7866 3725.75,-30.1197"/>
<polygon fill="midnightblue" stroke="midnightblue" points="3459.66,-64.9375 3450.12,-69.5464 3460.45,-71.8925 3459.66,-64.9375"/>
</g>
<!-- Node31 -->
<g id="node31" class="node"><title>Node31</title>
<g id="a_node31"><a xlink:href="_g_c_c_2_a_r_m___c_rx___no___g_i_c_2port_8c.html" target="_top" xlink:title="source/portable/GCC\l/ARM_CRx_No_GIC/port.c">
<polygon fill="white" stroke="black" points="3854,-1 3854,-31 3990,-31 3990,-1 3854,-1"/>
<text text-anchor="start" x="3862" y="-19" font-family="Helvetica,sans-Serif" font-size="10.00">source/portable/GCC</text>
<text text-anchor="middle" x="3922" y="-8" font-family="Helvetica,sans-Serif" font-size="10.00">/ARM_CRx_No_GIC/port.c</text>
</a>
</g>
</g>
<!-- Node3&#45;&gt;Node31 -->
<g id="edge30" class="edge"><title>Node3&#45;&gt;Node31</title>
<path fill="none" stroke="midnightblue" d="M3460.54,-71.5622C3553.49,-64.7418 3710.78,-51.5223 3845,-32 3847.83,-31.5883 3850.71,-31.1433 3853.62,-30.6731"/>
<polygon fill="midnightblue" stroke="midnightblue" points="3460.08,-68.0861 3450.37,-72.3023 3460.59,-75.0677 3460.08,-68.0861"/>
</g>
<!-- Node32 -->
<g id="node32" class="node"><title>Node32</title>
<g id="a_node32"><a xlink:href="_g_c_c_2_a_t_mega323_2port_8c.html" target="_top" xlink:title="source/portable/GCC\l/ATMega323/port.c">
<polygon fill="white" stroke="black" points="4008,-1 4008,-31 4118,-31 4118,-1 4008,-1"/>
<text text-anchor="start" x="4016" y="-19" font-family="Helvetica,sans-Serif" font-size="10.00">source/portable/GCC</text>
<text text-anchor="middle" x="4063" y="-8" font-family="Helvetica,sans-Serif" font-size="10.00">/ATMega323/port.c</text>
</a>
</g>
</g>
<!-- Node3&#45;&gt;Node32 -->
<g id="edge31" class="edge"><title>Node3&#45;&gt;Node32</title>
<path fill="none" stroke="midnightblue" d="M3460.09,-75.2053C3578.51,-71.6433 3807.01,-61.2908 3999,-32 4001.93,-31.5525 4004.93,-31.0412 4007.95,-30.4836"/>
<polygon fill="midnightblue" stroke="midnightblue" points="3459.92,-71.7089 3450.02,-75.4998 3460.12,-78.7059 3459.92,-71.7089"/>
</g>
<!-- Node33 -->
<g id="node33" class="node"><title>Node33</title>
<g id="a_node33"><a xlink:href="_g_c_c_2_a_v_r32___u_c3_2port_8c.html" target="_top" xlink:title="FreeRTOS port source for AVR32 UC3. ">
<polygon fill="white" stroke="black" points="4136,-1 4136,-31 4246,-31 4246,-1 4136,-1"/>
<text text-anchor="start" x="4144" y="-19" font-family="Helvetica,sans-Serif" font-size="10.00">source/portable/GCC</text>
<text text-anchor="middle" x="4191" y="-8" font-family="Helvetica,sans-Serif" font-size="10.00">/AVR32_UC3/port.c</text>
</a>
</g>
</g>
<!-- Node3&#45;&gt;Node33 -->
<g id="edge32" class="edge"><title>Node3&#45;&gt;Node33</title>
<path fill="none" stroke="midnightblue" d="M3460.2,-76.6274C3597.48,-74.9965 3886.04,-67.2335 4127,-32 4129.94,-31.5707 4132.94,-31.0739 4135.96,-30.5277"/>
<polygon fill="midnightblue" stroke="midnightblue" points="3460.14,-73.1277 3450.18,-76.7386 3460.22,-80.1273 3460.14,-73.1277"/>
</g>
<!-- Node34 -->
<g id="node34" class="node"><title>Node34</title>
<g id="a_node34"><a xlink:href="_g_c_c_2_cold_fire___v2_2port_8c.html" target="_top" xlink:title="source/portable/GCC\l/ColdFire_V2/port.c">
<polygon fill="white" stroke="black" points="4264,-1 4264,-31 4374,-31 4374,-1 4264,-1"/>
<text text-anchor="start" x="4272" y="-19" font-family="Helvetica,sans-Serif" font-size="10.00">source/portable/GCC</text>
<text text-anchor="middle" x="4319" y="-8" font-family="Helvetica,sans-Serif" font-size="10.00">/ColdFire_V2/port.c</text>
</a>
</g>
</g>
<!-- Node3&#45;&gt;Node34 -->
<g id="edge33" class="edge"><title>Node3&#45;&gt;Node34</title>
<path fill="none" stroke="midnightblue" d="M3460.52,-77.6513C3615.26,-77.8458 3964.6,-73.1606 4255,-32 4257.94,-31.5836 4260.94,-31.0971 4263.96,-30.5589"/>
<polygon fill="midnightblue" stroke="midnightblue" points="3460.17,-74.1507 3450.16,-77.6306 3460.15,-81.1507 3460.17,-74.1507"/>
</g>
<!-- Node35 -->
<g id="node35" class="node"><title>Node35</title>
<g id="a_node35"><a xlink:href="_g_c_c_2_c_o_r_t_u_s___a_p_s3_2port_8c.html" target="_top" xlink:title="source/portable/GCC\l/CORTUS_APS3/port.c">
<polygon fill="white" stroke="black" points="4392,-1 4392,-31 4512,-31 4512,-1 4392,-1"/>
<text text-anchor="start" x="4400" y="-19" font-family="Helvetica,sans-Serif" font-size="10.00">source/portable/GCC</text>
<text text-anchor="middle" x="4452" y="-8" font-family="Helvetica,sans-Serif" font-size="10.00">/CORTUS_APS3/port.c</text>
</a>
</g>
</g>
<!-- Node3&#45;&gt;Node35 -->
<g id="edge34" class="edge"><title>Node3&#45;&gt;Node35</title>
<path fill="none" stroke="midnightblue" d="M3460.13,-75.1567C3665.17,-70.1589 4205.16,-55.1506 4383,-32 4385.92,-31.6202 4388.89,-31.1798 4391.89,-30.6935"/>
<polygon fill="midnightblue" stroke="midnightblue" points="3459.95,-71.66 3450.04,-75.4012 3460.12,-78.6579 3459.95,-71.66"/>
</g>
<!-- Node36 -->
<g id="node36" class="node"><title>Node36</title>
<g id="a_node36"><a xlink:href="_g_c_c_2_h8_s2329_2port_8c.html" target="_top" xlink:title="source/portable/GCC\l/H8S2329/port.c">
<polygon fill="white" stroke="black" points="4530,-1 4530,-31 4640,-31 4640,-1 4530,-1"/>
<text text-anchor="start" x="4538" y="-19" font-family="Helvetica,sans-Serif" font-size="10.00">source/portable/GCC</text>
<text text-anchor="middle" x="4585" y="-8" font-family="Helvetica,sans-Serif" font-size="10.00">/H8S2329/port.c</text>
</a>
</g>
</g>
<!-- Node3&#45;&gt;Node36 -->
<g id="edge35" class="edge"><title>Node3&#45;&gt;Node36</title>
<path fill="none" stroke="midnightblue" d="M3460.38,-75.8242C3684.9,-72.2222 4315.68,-59.8503 4521,-32 4523.94,-31.6012 4526.94,-31.1286 4529.97,-30.6015"/>
<polygon fill="midnightblue" stroke="midnightblue" points="3460.26,-72.3255 3450.32,-75.9841 3460.37,-79.3246 3460.26,-72.3255"/>
</g>
<!-- Node37 -->
<g id="node37" class="node"><title>Node37</title>
<g id="a_node37"><a xlink:href="_g_c_c_2_h_c_s12_2port_8c.html" target="_top" xlink:title="source/portable/GCC\l/HCS12/port.c">
<polygon fill="white" stroke="black" points="4658,-1 4658,-31 4768,-31 4768,-1 4658,-1"/>
<text text-anchor="start" x="4666" y="-19" font-family="Helvetica,sans-Serif" font-size="10.00">source/portable/GCC</text>
<text text-anchor="middle" x="4713" y="-8" font-family="Helvetica,sans-Serif" font-size="10.00">/HCS12/port.c</text>
</a>
</g>
</g>
<!-- Node3&#45;&gt;Node37 -->
<g id="edge36" class="edge"><title>Node3&#45;&gt;Node37</title>
<path fill="none" stroke="midnightblue" d="M3460.46,-76.1957C3701.92,-73.458 4417.83,-62.8885 4649,-32 4651.94,-31.607 4654.94,-31.1391 4657.97,-30.6156"/>
<polygon fill="midnightblue" stroke="midnightblue" points="3460.31,-72.6971 3450.35,-76.3089 3460.39,-79.6966 3460.31,-72.6971"/>
</g>
<!-- Node38 -->
<g id="node38" class="node"><title>Node38</title>
<g id="a_node38"><a xlink:href="_g_c_c_2_i_a32__flat_2port_8c.html" target="_top" xlink:title="source/portable/GCC\l/IA32_flat/port.c">
<polygon fill="white" stroke="black" points="4786,-1 4786,-31 4896,-31 4896,-1 4786,-1"/>
<text text-anchor="start" x="4794" y="-19" font-family="Helvetica,sans-Serif" font-size="10.00">source/portable/GCC</text>
<text text-anchor="middle" x="4841" y="-8" font-family="Helvetica,sans-Serif" font-size="10.00">/IA32_flat/port.c</text>
</a>
</g>
</g>
<!-- Node3&#45;&gt;Node38 -->
<g id="edge37" class="edge"><title>Node3&#45;&gt;Node38</title>
<path fill="none" stroke="midnightblue" d="M3460.07,-76.5039C3717.13,-74.5836 4519.71,-65.9536 4777,-32 4779.94,-31.6118 4782.95,-31.1477 4785.97,-30.6272"/>
<polygon fill="midnightblue" stroke="midnightblue" points="3460.04,-73.004 3450.06,-76.5773 3460.09,-80.0038 3460.04,-73.004"/>
</g>
<!-- Node39 -->
<g id="node39" class="node"><title>Node39</title>
<g id="a_node39"><a xlink:href="_g_c_c_2_m_c_f5235_2port_8c.html" target="_top" xlink:title="source/portable/GCC\l/MCF5235/port.c">
<polygon fill="white" stroke="black" points="4914,-1 4914,-31 5024,-31 5024,-1 4914,-1"/>
<text text-anchor="start" x="4922" y="-19" font-family="Helvetica,sans-Serif" font-size="10.00">source/portable/GCC</text>
<text text-anchor="middle" x="4969" y="-8" font-family="Helvetica,sans-Serif" font-size="10.00">/MCF5235/port.c</text>
</a>
</g>
</g>
<!-- Node3&#45;&gt;Node39 -->
<g id="edge38" class="edge"><title>Node3&#45;&gt;Node39</title>
<path fill="none" stroke="midnightblue" d="M3460.32,-76.7562C3732.95,-75.5955 4621.71,-68.9966 4905,-32 4907.94,-31.6158 4910.95,-31.1549 4913.97,-30.6368"/>
<polygon fill="midnightblue" stroke="midnightblue" points="3460.1,-73.257 3450.11,-76.7983 3460.13,-80.2569 3460.1,-73.257"/>
</g>
<!-- Node40 -->
<g id="node40" class="node"><title>Node40</title>
<g id="a_node40"><a xlink:href="_g_c_c_2_micro_blaze_2port_8c.html" target="_top" xlink:title="source/portable/GCC\l/MicroBlaze/port.c">
<polygon fill="white" stroke="black" points="5042,-1 5042,-31 5152,-31 5152,-1 5042,-1"/>
<text text-anchor="start" x="5050" y="-19" font-family="Helvetica,sans-Serif" font-size="10.00">source/portable/GCC</text>
<text text-anchor="middle" x="5097" y="-8" font-family="Helvetica,sans-Serif" font-size="10.00">/MicroBlaze/port.c</text>
</a>
</g>
</g>
<!-- Node3&#45;&gt;Node40 -->
<g id="edge39" class="edge"><title>Node3&#45;&gt;Node40</title>
<path fill="none" stroke="midnightblue" d="M3460.64,-76.9709C3748.34,-76.529 4723.64,-72.0414 5033,-32 5035.94,-31.6191 5038.95,-31.1609 5041.97,-30.6449"/>
<polygon fill="midnightblue" stroke="midnightblue" points="3460.29,-73.4713 3450.29,-76.9855 3460.3,-80.4713 3460.29,-73.4713"/>
</g>
<!-- Node41 -->
<g id="node41" class="node"><title>Node41</title>
<g id="a_node41"><a xlink:href="_g_c_c_2_micro_blaze_v8_2port_8c.html" target="_top" xlink:title="source/portable/GCC\l/MicroBlazeV8/port.c">
<polygon fill="white" stroke="black" points="5170,-1 5170,-31 5280,-31 5280,-1 5170,-1"/>
<text text-anchor="start" x="5178" y="-19" font-family="Helvetica,sans-Serif" font-size="10.00">source/portable/GCC</text>
<text text-anchor="middle" x="5225" y="-8" font-family="Helvetica,sans-Serif" font-size="10.00">/MicroBlazeV8/port.c</text>
</a>
</g>
</g>
<!-- Node3&#45;&gt;Node41 -->
<g id="edge40" class="edge"><title>Node3&#45;&gt;Node41</title>
<path fill="none" stroke="midnightblue" d="M3460.71,-77.1563C3762.64,-77.3995 4825.41,-75.1028 5161,-32 5163.94,-31.622 5166.95,-31.1661 5169.97,-30.6519"/>
<polygon fill="midnightblue" stroke="midnightblue" points="3460.3,-73.656 3450.29,-77.1466 3460.29,-80.656 3460.3,-73.656"/>
</g>
<!-- Node42 -->
<g id="node42" class="node"><title>Node42</title>
<g id="a_node42"><a xlink:href="port__exceptions_8c.html" target="_top" xlink:title="source/portable/GCC\l/MicroBlazeV8/port_exceptions.c">
<polygon fill="white" stroke="black" points="5298,-1 5298,-31 5460,-31 5460,-1 5298,-1"/>
<text text-anchor="start" x="5306" y="-19" font-family="Helvetica,sans-Serif" font-size="10.00">source/portable/GCC</text>
<text text-anchor="middle" x="5379" y="-8" font-family="Helvetica,sans-Serif" font-size="10.00">/MicroBlazeV8/port_exceptions.c</text>
</a>
</g>
</g>
<!-- Node3&#45;&gt;Node42 -->
<g id="edge41" class="edge"><title>Node3&#45;&gt;Node42</title>
<path fill="none" stroke="midnightblue" d="M3460.56,-76.6219C3775.74,-74.9066 4925.75,-66.3779 5289,-32 5292,-31.7164 5295.04,-31.3923 5298.12,-31.0353"/>
<polygon fill="midnightblue" stroke="midnightblue" points="3460.13,-73.1241 3450.15,-76.6777 3460.17,-80.124 3460.13,-73.1241"/>
</g>
<!-- Node43 -->
<g id="node43" class="node"><title>Node43</title>
<g id="a_node43"><a xlink:href="_g_c_c_2_m_s_p430_f449_2port_8c.html" target="_top" xlink:title="source/portable/GCC\l/MSP430F449/port.c">
<polygon fill="white" stroke="black" points="5478,-1 5478,-31 5588,-31 5588,-1 5478,-1"/>
<text text-anchor="start" x="5486" y="-19" font-family="Helvetica,sans-Serif" font-size="10.00">source/portable/GCC</text>
<text text-anchor="middle" x="5533" y="-8" font-family="Helvetica,sans-Serif" font-size="10.00">/MSP430F449/port.c</text>
</a>
</g>
</g>
<!-- Node3&#45;&gt;Node43 -->
<g id="edge42" class="edge"><title>Node3&#45;&gt;Node43</title>
<path fill="none" stroke="midnightblue" d="M3460.15,-76.2635C3818.79,-72.8338 5267.43,-57.5079 5469,-32 5471.94,-31.6275 5474.95,-31.1759 5477.97,-30.6652"/>
<polygon fill="midnightblue" stroke="midnightblue" points="3460.08,-72.7639 3450.11,-76.3591 3460.15,-79.7636 3460.08,-72.7639"/>
</g>
<!-- Node44 -->
<g id="node44" class="node"><title>Node44</title>
<g id="a_node44"><a xlink:href="_g_c_c_2_nios_i_i_2port_8c.html" target="_top" xlink:title="source/portable/GCC\l/NiosII/port.c">
<polygon fill="white" stroke="black" points="5606,-1 5606,-31 5716,-31 5716,-1 5606,-1"/>
<text text-anchor="start" x="5614" y="-19" font-family="Helvetica,sans-Serif" font-size="10.00">source/portable/GCC</text>
<text text-anchor="middle" x="5661" y="-8" font-family="Helvetica,sans-Serif" font-size="10.00">/NiosII/port.c</text>
</a>
</g>
</g>
<!-- Node3&#45;&gt;Node44 -->
<g id="edge43" class="edge"><title>Node3&#45;&gt;Node44</title>
<path fill="none" stroke="midnightblue" d="M3460.42,-76.3685C3832.99,-73.3078 5382.19,-59.0481 5597,-32 5599.94,-31.6293 5602.95,-31.1792 5605.98,-30.6696"/>
<polygon fill="midnightblue" stroke="midnightblue" points="3460.24,-72.8698 3450.27,-76.4516 3460.3,-79.8696 3460.24,-72.8698"/>
</g>
<!-- Node45 -->
<g id="node45" class="node"><title>Node45</title>
<g id="a_node45"><a xlink:href="_g_c_c_2_p_p_c405___xilinx_2port_8c.html" target="_top" xlink:title="source/portable/GCC\l/PPC405_Xilinx/port.c">
<polygon fill="white" stroke="black" points="5734,-1 5734,-31 5848,-31 5848,-1 5734,-1"/>
<text text-anchor="start" x="5742" y="-19" font-family="Helvetica,sans-Serif" font-size="10.00">source/portable/GCC</text>
<text text-anchor="middle" x="5791" y="-8" font-family="Helvetica,sans-Serif" font-size="10.00">/PPC405_Xilinx/port.c</text>
</a>
</g>
</g>
<!-- Node3&#45;&gt;Node45 -->
<g id="edge44" class="edge"><title>Node3&#45;&gt;Node45</title>
<path fill="none" stroke="midnightblue" d="M3460.28,-76.4335C3845.66,-73.5826 5496.75,-59.8307 5725,-32 5727.92,-31.6444 5730.89,-31.2153 5733.89,-30.7303"/>
<polygon fill="midnightblue" stroke="midnightblue" points="3460.03,-72.9351 3450.05,-76.5088 3460.08,-79.935 3460.03,-72.9351"/>
</g>
<!-- Node46 -->
<g id="node46" class="node"><title>Node46</title>
<g id="a_node46"><a xlink:href="_g_c_c_2_p_p_c440___xilinx_2port_8c.html" target="_top" xlink:title="source/portable/GCC\l/PPC440_Xilinx/port.c">
<polygon fill="white" stroke="black" points="5866,-1 5866,-31 5980,-31 5980,-1 5866,-1"/>
<text text-anchor="start" x="5874" y="-19" font-family="Helvetica,sans-Serif" font-size="10.00">source/portable/GCC</text>
<text text-anchor="middle" x="5923" y="-8" font-family="Helvetica,sans-Serif" font-size="10.00">/PPC440_Xilinx/port.c</text>
</a>
</g>
</g>
<!-- Node3&#45;&gt;Node46 -->
<g id="edge45" class="edge"><title>Node3&#45;&gt;Node46</title>
<path fill="none" stroke="midnightblue" d="M3460.52,-76.5203C3859.51,-74.0115 5615.04,-61.3771 5857,-32 5859.92,-31.6459 5862.89,-31.218 5865.89,-30.7339"/>
<polygon fill="midnightblue" stroke="midnightblue" points="3460.21,-73.0221 3450.23,-76.5847 3460.25,-80.022 3460.21,-73.0221"/>
</g>
<!-- Node47 -->
<g id="node47" class="node"><title>Node47</title>
<g id="a_node47"><a xlink:href="_g_c_c_2_r_l78_2port_8c.html" target="_top" xlink:title="source/portable/GCC\l/RL78/port.c">
<polygon fill="white" stroke="black" points="5998,-1 5998,-31 6108,-31 6108,-1 5998,-1"/>
<text text-anchor="start" x="6006" y="-19" font-family="Helvetica,sans-Serif" font-size="10.00">source/portable/GCC</text>
<text text-anchor="middle" x="6053" y="-8" font-family="Helvetica,sans-Serif" font-size="10.00">/RL78/port.c</text>
</a>
</g>
</g>
<!-- Node3&#45;&gt;Node47 -->
<g id="edge46" class="edge"><title>Node3&#45;&gt;Node47</title>
<path fill="none" stroke="midnightblue" d="M3460.12,-76.6342C3871.1,-74.6216 5733.28,-63.8037 5989,-32 5991.94,-31.6338 5994.95,-31.1873 5997.98,-30.6805"/>
<polygon fill="midnightblue" stroke="midnightblue" points="3460.09,-73.1342 3450.11,-76.6829 3460.13,-80.1341 3460.09,-73.1342"/>
</g>
<!-- Node48 -->
<g id="node48" class="node"><title>Node48</title>
<g id="a_node48"><a xlink:href="_g_c_c_2_r_x100_2port_8c.html" target="_top" xlink:title="source/portable/GCC\l/RX100/port.c">
<polygon fill="white" stroke="black" points="6126,-1 6126,-31 6236,-31 6236,-1 6126,-1"/>
<text text-anchor="start" x="6134" y="-19" font-family="Helvetica,sans-Serif" font-size="10.00">source/portable/GCC</text>
<text text-anchor="middle" x="6181" y="-8" font-family="Helvetica,sans-Serif" font-size="10.00">/RX100/port.c</text>
</a>
</g>
</g>
<!-- Node3&#45;&gt;Node48 -->
<g id="edge47" class="edge"><title>Node3&#45;&gt;Node48</title>
<path fill="none" stroke="midnightblue" d="M3460.25,-76.7034C3883.57,-75.0018 5847.93,-65.3542 6117,-32 6119.94,-31.635 6122.95,-31.1894 6125.98,-30.6833"/>
<polygon fill="midnightblue" stroke="midnightblue" points="3460.23,-73.2034 3450.24,-76.7433 3460.26,-80.2033 3460.23,-73.2034"/>
</g>
<!-- Node49 -->
<g id="node49" class="node"><title>Node49</title>
<g id="a_node49"><a xlink:href="_g_c_c_2_r_x600_2port_8c.html" target="_top" xlink:title="source/portable/GCC\l/RX600/port.c">
<polygon fill="white" stroke="black" points="6254,-1 6254,-31 6364,-31 6364,-1 6254,-1"/>
<text text-anchor="start" x="6262" y="-19" font-family="Helvetica,sans-Serif" font-size="10.00">source/portable/GCC</text>
<text text-anchor="middle" x="6309" y="-8" font-family="Helvetica,sans-Serif" font-size="10.00">/RX600/port.c</text>
</a>
</g>
</g>
<!-- Node3&#45;&gt;Node49 -->
<g id="edge48" class="edge"><title>Node3&#45;&gt;Node49</title>
<path fill="none" stroke="midnightblue" d="M3460.43,-76.7664C3895.94,-75.364 5962.57,-66.9048 6245,-32 6247.94,-31.6361 6250.95,-31.1913 6253.98,-30.686"/>
<polygon fill="midnightblue" stroke="midnightblue" points="3460.13,-73.2673 3450.14,-76.7992 3460.15,-80.2672 3460.13,-73.2673"/>
</g>
<!-- Node50 -->
<g id="node50" class="node"><title>Node50</title>
<g id="a_node50"><a xlink:href="_g_c_c_2_r_x600v2_2port_8c.html" target="_top" xlink:title="source/portable/GCC\l/RX600v2/port.c">
<polygon fill="white" stroke="black" points="6382,-1 6382,-31 6492,-31 6492,-1 6382,-1"/>
<text text-anchor="start" x="6390" y="-19" font-family="Helvetica,sans-Serif" font-size="10.00">source/portable/GCC</text>
<text text-anchor="middle" x="6437" y="-8" font-family="Helvetica,sans-Serif" font-size="10.00">/RX600v2/port.c</text>
</a>
</g>
</g>
<!-- Node3&#45;&gt;Node50 -->
<g id="edge49" class="edge"><title>Node3&#45;&gt;Node50</title>
<path fill="none" stroke="midnightblue" d="M3460.39,-76.8248C3907.38,-75.7129 6077.15,-68.4624 6373,-32 6375.94,-31.6371 6378.95,-31.1931 6381.98,-30.6884"/>
<polygon fill="midnightblue" stroke="midnightblue" points="3460.15,-73.3253 3450.16,-76.85 3460.16,-80.3253 3460.15,-73.3253"/>
</g>
</g>
</svg>
