<?xml version="1.0" encoding="UTF-8" standalone="no"?>
<!DOCTYPE svg PUBLIC "-//W3C//DTD SVG 1.1//EN"
 "http://www.w3.org/Graphics/SVG/1.1/DTD/svg11.dtd">
<!-- Generated by graphviz version 2.30.1 (20130221.2233)
 -->
<!-- Title: source/portable/WizC/PIC18/portmacro.h Pages: 1 -->
<svg width="121pt" height="96pt"
 viewBox="0.00 0.00 121.00 96.00" xmlns="http://www.w3.org/2000/svg" xmlns:xlink="http://www.w3.org/1999/xlink">
<g id="graph0" class="graph" transform="scale(1 1) rotate(0) translate(4 92)">
<title>source/portable/WizC/PIC18/portmacro.h</title>
<polygon fill="white" stroke="white" points="-4,5 -4,-92 118,-92 118,5 -4,5"/>
<!-- Node1 -->
<g id="node1" class="node"><title>Node1</title>
<polygon fill="#bfbfbf" stroke="black" points="1,-57 1,-87 113,-87 113,-57 1,-57"/>
<text text-anchor="start" x="9" y="-75" font-family="Helvetica,sans-Serif" font-size="10.00">source/portable/WizC</text>
<text text-anchor="middle" x="57" y="-64" font-family="Helvetica,sans-Serif" font-size="10.00">/PIC18/portmacro.h</text>
</g>
<!-- Node2 -->
<g id="node2" class="node"><title>Node2</title>
<polygon fill="white" stroke="#bfbfbf" points="0,-0.5 0,-19.5 52,-19.5 52,-0.5 0,-0.5"/>
<text text-anchor="middle" x="26" y="-7.5" font-family="Helvetica,sans-Serif" font-size="10.00">stddef.h</text>
</g>
<!-- Node1&#45;&gt;Node2 -->
<g id="edge1" class="edge"><title>Node1&#45;&gt;Node2</title>
<path fill="none" stroke="midnightblue" d="M49.6534,-56.7808C45.3345,-48.4217 39.8349,-37.7773 35.2258,-28.8565"/>
<polygon fill="midnightblue" stroke="midnightblue" points="38.2105,-27.0082 30.5108,-19.7305 31.9915,-30.2214 38.2105,-27.0082"/>
</g>
<!-- Node3 -->
<g id="node3" class="node"><title>Node3</title>
<polygon fill="white" stroke="#bfbfbf" points="70,-0.5 70,-19.5 108,-19.5 108,-0.5 70,-0.5"/>
<text text-anchor="middle" x="89" y="-7.5" font-family="Helvetica,sans-Serif" font-size="10.00">pic.h</text>
</g>
<!-- Node1&#45;&gt;Node3 -->
<g id="edge2" class="edge"><title>Node1&#45;&gt;Node3</title>
<path fill="none" stroke="midnightblue" d="M64.5836,-56.7808C69.0897,-48.3318 74.841,-37.5481 79.6297,-28.5693"/>
<polygon fill="midnightblue" stroke="midnightblue" points="82.726,-30.2012 84.3437,-19.7305 76.5495,-26.907 82.726,-30.2012"/>
</g>
</g>
</svg>
