<?xml version="1.0" encoding="UTF-8" standalone="no"?>
<!DOCTYPE svg PUBLIC "-//W3C//DTD SVG 1.1//EN"
 "http://www.w3.org/Graphics/SVG/1.1/DTD/svg11.dtd">
<!-- Generated by graphviz version 2.30.1 (20130221.2233)
 -->
<!-- Title: vPortFree Pages: 1 -->
<svg width="378pt" height="142pt"
 viewBox="0.00 0.00 378.00 142.00" xmlns="http://www.w3.org/2000/svg" xmlns:xlink="http://www.w3.org/1999/xlink">
<g id="graph0" class="graph" transform="scale(1 1) rotate(0) translate(4 138)">
<title>vPortFree</title>
<polygon fill="white" stroke="white" points="-4,5 -4,-138 375,-138 375,5 -4,5"/>
<!-- Node1 -->
<g id="node1" class="node"><title>Node1</title>
<polygon fill="#bfbfbf" stroke="black" points="0,-57.5 0,-76.5 60,-76.5 60,-57.5 0,-57.5"/>
<text text-anchor="middle" x="30" y="-64.5" font-family="Helvetica,sans-Serif" font-size="10.00">vPortFree</text>
</g>
<!-- Node2 -->
<g id="node2" class="node"><title>Node2</title>
<g id="a_node2"><a xlink:href="_g_c_c_2_a_r_m___c_m3___m_p_u_2port_8c.html#acd24fff1bcec99632bfea2b06fd9fb22" target="_top" xlink:title="MPU_vPortFree">
<polygon fill="white" stroke="black" points="117,-114.5 117,-133.5 205,-133.5 205,-114.5 117,-114.5"/>
<text text-anchor="middle" x="161" y="-121.5" font-family="Helvetica,sans-Serif" font-size="10.00">MPU_vPortFree</text>
</a>
</g>
</g>
<!-- Node1&#45;&gt;Node2 -->
<g id="edge1" class="edge"><title>Node1&#45;&gt;Node2</title>
<path fill="none" stroke="midnightblue" d="M54.0177,-82.2882C66.1401,-89.8611 81.4717,-98.7061 96,-105 104.296,-108.594 113.477,-111.761 122.235,-114.429"/>
<polygon fill="midnightblue" stroke="midnightblue" points="55.7512,-79.2423 45.4397,-76.8083 51.9827,-85.1414 55.7512,-79.2423"/>
</g>
<!-- Node3 -->
<g id="node3" class="node"><title>Node3</title>
<g id="a_node3"><a xlink:href="tasks_8c.html#a91a076d3c5af24feadfe2bca03cc9f7a" target="_top" xlink:title="prvAllocateTCBAndStack">
<polygon fill="white" stroke="black" points="96.5,-76.5 96.5,-95.5 225.5,-95.5 225.5,-76.5 96.5,-76.5"/>
<text text-anchor="middle" x="161" y="-83.5" font-family="Helvetica,sans-Serif" font-size="10.00">prvAllocateTCBAndStack</text>
</a>
</g>
</g>
<!-- Node1&#45;&gt;Node3 -->
<g id="edge2" class="edge"><title>Node1&#45;&gt;Node3</title>
<path fill="none" stroke="midnightblue" d="M70.3219,-72.7916C78.5712,-74.0066 87.4723,-75.3176 96.3518,-76.6255"/>
<polygon fill="midnightblue" stroke="midnightblue" points="70.6754,-69.306 60.2721,-71.3114 69.6553,-76.2313 70.6754,-69.306"/>
</g>
<!-- Node4 -->
<g id="node4" class="node"><title>Node4</title>
<g id="a_node4"><a xlink:href="event__groups_8h.html#a50cb52d1c81b063fd8d94f5293dcfea9" target="_top" xlink:title="vEventGroupDelete">
<polygon fill="white" stroke="black" points="109,-38.5 109,-57.5 213,-57.5 213,-38.5 109,-38.5"/>
<text text-anchor="middle" x="161" y="-45.5" font-family="Helvetica,sans-Serif" font-size="10.00">vEventGroupDelete</text>
</a>
</g>
</g>
<!-- Node1&#45;&gt;Node4 -->
<g id="edge3" class="edge"><title>Node1&#45;&gt;Node4</title>
<path fill="none" stroke="midnightblue" d="M70.487,-61.1841C82.5778,-59.4033 96.0561,-57.4181 108.809,-55.5398"/>
<polygon fill="midnightblue" stroke="midnightblue" points="69.6553,-57.7687 60.2721,-62.6886 70.6754,-64.694 69.6553,-57.7687"/>
</g>
<!-- Node5 -->
<g id="node5" class="node"><title>Node5</title>
<g id="a_node5"><a xlink:href="queue_8c.html#a35c0b4f9a0e940cb3a86ca4c5e84c41c" target="_top" xlink:title="vQueueDelete">
<polygon fill="white" stroke="black" points="121,-0.5 121,-19.5 201,-19.5 201,-0.5 121,-0.5"/>
<text text-anchor="middle" x="161" y="-7.5" font-family="Helvetica,sans-Serif" font-size="10.00">vQueueDelete</text>
</a>
</g>
</g>
<!-- Node1&#45;&gt;Node5 -->
<g id="edge4" class="edge"><title>Node1&#45;&gt;Node5</title>
<path fill="none" stroke="midnightblue" d="M54.0177,-51.7118C66.1401,-44.1389 81.4717,-35.2939 96,-29 104.296,-25.4062 113.477,-22.2386 122.235,-19.571"/>
<polygon fill="midnightblue" stroke="midnightblue" points="51.9827,-48.8586 45.4397,-57.1917 55.7512,-54.7577 51.9827,-48.8586"/>
</g>
<!-- Node6 -->
<g id="node6" class="node"><title>Node6</title>
<g id="a_node6"><a xlink:href="_g_c_c_2_a_r_m___c_m3___m_p_u_2port_8c.html#ac378aaf28d5631ab7dcb8c75840f9544" target="_top" xlink:title="MPU_vQueueDelete">
<polygon fill="white" stroke="black" points="262,-0.5 262,-19.5 370,-19.5 370,-0.5 262,-0.5"/>
<text text-anchor="middle" x="316" y="-7.5" font-family="Helvetica,sans-Serif" font-size="10.00">MPU_vQueueDelete</text>
</a>
</g>
</g>
<!-- Node5&#45;&gt;Node6 -->
<g id="edge5" class="edge"><title>Node5&#45;&gt;Node6</title>
<path fill="none" stroke="midnightblue" d="M211.319,-10C227.479,-10 245.498,-10 261.923,-10"/>
<polygon fill="midnightblue" stroke="midnightblue" points="211.004,-6.5001 201.004,-10 211.004,-13.5001 211.004,-6.5001"/>
</g>
</g>
</svg>
