<?xml version="1.0" encoding="UTF-8" standalone="no"?>
<!DOCTYPE svg PUBLIC "-//W3C//DTD SVG 1.1//EN"
 "http://www.w3.org/Graphics/SVG/1.1/DTD/svg11.dtd">
<!-- Generated by graphviz version 2.30.1 (20130221.2233)
 -->
<!-- Title: vPortFree Pages: 1 -->
<svg width="456pt" height="94pt"
 viewBox="0.00 0.00 456.00 94.00" xmlns="http://www.w3.org/2000/svg" xmlns:xlink="http://www.w3.org/1999/xlink">
<g id="graph0" class="graph" transform="scale(1 1) rotate(0) translate(4 90)">
<title>vPortFree</title>
<polygon fill="white" stroke="white" points="-4,5 -4,-90 453,-90 453,5 -4,5"/>
<!-- Node1 -->
<g id="node1" class="node"><title>Node1</title>
<polygon fill="#bfbfbf" stroke="black" points="0,-47.5 0,-66.5 60,-66.5 60,-47.5 0,-47.5"/>
<text text-anchor="middle" x="30" y="-54.5" font-family="Helvetica,sans-Serif" font-size="10.00">vPortFree</text>
</g>
<!-- Node2 -->
<g id="node2" class="node"><title>Node2</title>
<g id="a_node2"><a xlink:href="task_8h.html#a366b302eba79d10b5ee2a3756f0fcc43" target="_top" xlink:title="vTaskSuspendAll">
<polygon fill="white" stroke="black" points="96,-66.5 96,-85.5 190,-85.5 190,-66.5 96,-66.5"/>
<text text-anchor="middle" x="143" y="-73.5" font-family="Helvetica,sans-Serif" font-size="10.00">vTaskSuspendAll</text>
</a>
</g>
</g>
<!-- Node1&#45;&gt;Node2 -->
<g id="edge1" class="edge"><title>Node1&#45;&gt;Node2</title>
<path fill="none" stroke="midnightblue" d="M60.1639,-61.992C68.0977,-63.3501 76.9663,-64.8681 85.8568,-66.3899"/>
<polygon fill="midnightblue" stroke="midnightblue" points="85.408,-69.8639 95.8552,-68.1013 86.5891,-62.9643 85.408,-69.8639"/>
</g>
<!-- Node3 -->
<g id="node3" class="node"><title>Node3</title>
<g id="a_node3"><a xlink:href="task_8h.html#a003f8ae6d649225abd030cc76e1c7d0e" target="_top" xlink:title="xTaskResumeAll">
<polygon fill="white" stroke="black" points="97,-28.5 97,-47.5 189,-47.5 189,-28.5 97,-28.5"/>
<text text-anchor="middle" x="143" y="-35.5" font-family="Helvetica,sans-Serif" font-size="10.00">xTaskResumeAll</text>
</a>
</g>
</g>
<!-- Node1&#45;&gt;Node3 -->
<g id="edge2" class="edge"><title>Node1&#45;&gt;Node3</title>
<path fill="none" stroke="midnightblue" d="M60.1639,-52.008C68.3717,-50.603 77.5799,-49.0269 86.778,-47.4524"/>
<polygon fill="midnightblue" stroke="midnightblue" points="87.4409,-50.8899 96.707,-45.7529 86.2598,-43.9903 87.4409,-50.8899"/>
</g>
<!-- Node4 -->
<g id="node4" class="node"><title>Node4</title>
<g id="a_node4"><a xlink:href="list_8h.html#a2eb1558482076fff8cafc63419c2d34a" target="_top" xlink:title="uxListRemove">
<polygon fill="white" stroke="black" points="368,-47.5 368,-66.5 448,-66.5 448,-47.5 368,-47.5"/>
<text text-anchor="middle" x="408" y="-54.5" font-family="Helvetica,sans-Serif" font-size="10.00">uxListRemove</text>
</a>
</g>
</g>
<!-- Node3&#45;&gt;Node4 -->
<g id="edge3" class="edge"><title>Node3&#45;&gt;Node4</title>
<path fill="none" stroke="midnightblue" d="M177.212,-47.5071C192.011,-51.2716 209.739,-55.1407 226,-57 270.186,-62.0522 320.837,-61.5182 357.299,-60.0304"/>
<polygon fill="midnightblue" stroke="midnightblue" points="357.829,-63.5103 367.662,-59.5665 357.516,-56.5173 357.829,-63.5103"/>
</g>
<!-- Node5 -->
<g id="node5" class="node"><title>Node5</title>
<g id="a_node5"><a xlink:href="_paradigm_2_tern___e_e_2small_2portmacro_8h.html#a14d32f8130d3c0b212cfc751730b5b49" target="_top" xlink:title="void">
<polygon fill="white" stroke="black" points="390.5,-0.5 390.5,-19.5 425.5,-19.5 425.5,-0.5 390.5,-0.5"/>
<text text-anchor="middle" x="408" y="-7.5" font-family="Helvetica,sans-Serif" font-size="10.00">void</text>
</a>
</g>
</g>
<!-- Node3&#45;&gt;Node5 -->
<g id="edge4" class="edge"><title>Node3&#45;&gt;Node5</title>
<path fill="none" stroke="midnightblue" d="M178.858,-28.4792C193.333,-24.9043 210.369,-21.1818 226,-19 280.501,-11.3926 345.02,-9.97916 380.426,-9.84706"/>
<polygon fill="midnightblue" stroke="midnightblue" points="380.438,-13.3472 390.437,-9.84176 380.435,-6.34715 380.438,-13.3472"/>
</g>
<!-- Node6 -->
<g id="node6" class="node"><title>Node6</title>
<g id="a_node6"><a xlink:href="tasks_8c.html#a54f31e9aef0eb7b87e48c7d68ecc84c1" target="_top" xlink:title="xTaskIncrementTick">
<polygon fill="white" stroke="black" points="226,-28.5 226,-47.5 332,-47.5 332,-28.5 226,-28.5"/>
<text text-anchor="middle" x="279" y="-35.5" font-family="Helvetica,sans-Serif" font-size="10.00">xTaskIncrementTick</text>
</a>
</g>
</g>
<!-- Node3&#45;&gt;Node6 -->
<g id="edge5" class="edge"><title>Node3&#45;&gt;Node6</title>
<path fill="none" stroke="midnightblue" d="M189.366,-38C197.77,-38 206.683,-38 215.492,-38"/>
<polygon fill="midnightblue" stroke="midnightblue" points="215.748,-41.5001 225.748,-38 215.748,-34.5001 215.748,-41.5001"/>
</g>
<!-- Node6&#45;&gt;Node5 -->
<g id="edge6" class="edge"><title>Node6&#45;&gt;Node5</title>
<path fill="none" stroke="midnightblue" d="M323.351,-28.4423C342.214,-24.2836 363.722,-19.5415 380.206,-15.9074"/>
<polygon fill="midnightblue" stroke="midnightblue" points="381.222,-19.2675 390.234,-13.6965 379.715,-12.4317 381.222,-19.2675"/>
</g>
<!-- Node6&#45;&gt;Node4 -->
<g id="edge7" class="edge"><title>Node6&#45;&gt;Node4</title>
<path fill="none" stroke="midnightblue" d="M332.022,-45.7828C340.496,-47.0506 349.252,-48.3605 357.659,-49.6183"/>
<polygon fill="midnightblue" stroke="midnightblue" points="357.291,-53.102 367.698,-51.1202 358.326,-46.1791 357.291,-53.102"/>
</g>
</g>
</svg>
