<?xml version="1.0" encoding="UTF-8" standalone="no"?>
<!DOCTYPE svg PUBLIC "-//W3C//DTD SVG 1.1//EN"
 "http://www.w3.org/Graphics/SVG/1.1/DTD/svg11.dtd">
<!-- Generated by graphviz version 2.30.1 (20130221.2233)
 -->
<!-- Title: pvPortMalloc Pages: 1 -->
<svg width="240pt" height="104pt"
 viewBox="0.00 0.00 240.00 104.00" xmlns="http://www.w3.org/2000/svg" xmlns:xlink="http://www.w3.org/1999/xlink">
<g id="graph0" class="graph" transform="scale(1 1) rotate(0) translate(4 100)">
<title>pvPortMalloc</title>
<polygon fill="white" stroke="white" points="-4,5 -4,-100 237,-100 237,5 -4,5"/>
<!-- Node1 -->
<g id="node1" class="node"><title>Node1</title>
<polygon fill="#bfbfbf" stroke="black" points="0,-38.5 0,-57.5 74,-57.5 74,-38.5 0,-38.5"/>
<text text-anchor="middle" x="37" y="-45.5" font-family="Helvetica,sans-Serif" font-size="10.00">pvPortMalloc</text>
</g>
<!-- Node2 -->
<g id="node2" class="node"><title>Node2</title>
<g id="a_node2"><a xlink:href="_g_c_c_2_a_r_m___c_m3___m_p_u_2port_8c.html#a84af3fe5d0df7cd011534fb37e97b504" target="_top" xlink:title="MPU_pvPortMalloc">
<polygon fill="white" stroke="black" points="120,-76.5 120,-95.5 222,-95.5 222,-76.5 120,-76.5"/>
<text text-anchor="middle" x="171" y="-83.5" font-family="Helvetica,sans-Serif" font-size="10.00">MPU_pvPortMalloc</text>
</a>
</g>
</g>
<!-- Node1&#45;&gt;Node2 -->
<g id="edge1" class="edge"><title>Node1&#45;&gt;Node2</title>
<path fill="none" stroke="midnightblue" d="M81.0409,-60.3906C99.1177,-65.5945 119.819,-71.5541 136.701,-76.4141"/>
<polygon fill="midnightblue" stroke="midnightblue" points="81.8872,-56.9921 71.3092,-57.589 79.9506,-63.7189 81.8872,-56.9921"/>
</g>
<!-- Node3 -->
<g id="node3" class="node"><title>Node3</title>
<g id="a_node3"><a xlink:href="_g_c_c_2_micro_blaze_2port_8c.html#ade5a8c6666e7413a0355cc252029c5c6" target="_top" xlink:title="xPortStartScheduler">
<polygon fill="white" stroke="black" points="118,-38.5 118,-57.5 224,-57.5 224,-38.5 118,-38.5"/>
<text text-anchor="middle" x="171" y="-45.5" font-family="Helvetica,sans-Serif" font-size="10.00">xPortStartScheduler</text>
</a>
</g>
</g>
<!-- Node1&#45;&gt;Node3 -->
<g id="edge2" class="edge"><title>Node1&#45;&gt;Node3</title>
<path fill="none" stroke="midnightblue" d="M84.1571,-48C94.9739,-48 106.575,-48 117.641,-48"/>
<polygon fill="midnightblue" stroke="midnightblue" points="84.0696,-44.5001 74.0696,-48 84.0695,-51.5001 84.0696,-44.5001"/>
</g>
<!-- Node4 -->
<g id="node4" class="node"><title>Node4</title>
<g id="a_node4"><a xlink:href="_renesas_2_s_h2_a___f_p_u_2portmacro_8h.html#a8c8d74fd181a4df3300db81a72bcd17d" target="_top" xlink:title="xPortUsesFloatingPoint">
<polygon fill="white" stroke="black" points="110.5,-0.5 110.5,-19.5 231.5,-19.5 231.5,-0.5 110.5,-0.5"/>
<text text-anchor="middle" x="171" y="-7.5" font-family="Helvetica,sans-Serif" font-size="10.00">xPortUsesFloatingPoint</text>
</a>
</g>
</g>
<!-- Node1&#45;&gt;Node4 -->
<g id="edge3" class="edge"><title>Node1&#45;&gt;Node4</title>
<path fill="none" stroke="midnightblue" d="M81.0409,-35.6094C99.1177,-30.4055 119.819,-24.4459 136.701,-19.5859"/>
<polygon fill="midnightblue" stroke="midnightblue" points="79.9506,-32.2811 71.3092,-38.411 81.8872,-39.0079 79.9506,-32.2811"/>
</g>
</g>
</svg>
