<?xml version="1.0" encoding="UTF-8" standalone="no"?>
<!DOCTYPE svg PUBLIC "-//W3C//DTD SVG 1.1//EN"
 "http://www.w3.org/Graphics/SVG/1.1/DTD/svg11.dtd">
<!-- Generated by graphviz version 2.30.1 (20130221.2233)
 -->
<!-- Title: pvPortMalloc Pages: 1 -->
<svg width="470pt" height="94pt"
 viewBox="0.00 0.00 470.00 94.00" xmlns="http://www.w3.org/2000/svg" xmlns:xlink="http://www.w3.org/1999/xlink">
<g id="graph0" class="graph" transform="scale(1 1) rotate(0) translate(4 90)">
<title>pvPortMalloc</title>
<polygon fill="white" stroke="white" points="-4,5 -4,-90 467,-90 467,5 -4,5"/>
<!-- Node1 -->
<g id="node1" class="node"><title>Node1</title>
<polygon fill="#bfbfbf" stroke="black" points="0,-47.5 0,-66.5 74,-66.5 74,-47.5 0,-47.5"/>
<text text-anchor="middle" x="37" y="-54.5" font-family="Helvetica,sans-Serif" font-size="10.00">pvPortMalloc</text>
</g>
<!-- Node2 -->
<g id="node2" class="node"><title>Node2</title>
<g id="a_node2"><a xlink:href="task_8h.html#a366b302eba79d10b5ee2a3756f0fcc43" target="_top" xlink:title="vTaskSuspendAll">
<polygon fill="white" stroke="black" points="110,-66.5 110,-85.5 204,-85.5 204,-66.5 110,-66.5"/>
<text text-anchor="middle" x="157" y="-73.5" font-family="Helvetica,sans-Serif" font-size="10.00">vTaskSuspendAll</text>
</a>
</g>
</g>
<!-- Node1&#45;&gt;Node2 -->
<g id="edge1" class="edge"><title>Node1&#45;&gt;Node2</title>
<path fill="none" stroke="midnightblue" d="M74.0451,-62.8039C82.1317,-64.1059 90.8999,-65.5178 99.5929,-66.9175"/>
<polygon fill="midnightblue" stroke="midnightblue" points="99.2886,-70.4135 109.718,-68.5478 100.401,-63.5025 99.2886,-70.4135"/>
</g>
<!-- Node3 -->
<g id="node3" class="node"><title>Node3</title>
<g id="a_node3"><a xlink:href="task_8h.html#a003f8ae6d649225abd030cc76e1c7d0e" target="_top" xlink:title="xTaskResumeAll">
<polygon fill="white" stroke="black" points="111,-28.5 111,-47.5 203,-47.5 203,-28.5 111,-28.5"/>
<text text-anchor="middle" x="157" y="-35.5" font-family="Helvetica,sans-Serif" font-size="10.00">xTaskResumeAll</text>
</a>
</g>
</g>
<!-- Node1&#45;&gt;Node3 -->
<g id="edge2" class="edge"><title>Node1&#45;&gt;Node3</title>
<path fill="none" stroke="midnightblue" d="M74.0451,-51.1961C82.4165,-49.8482 91.5185,-48.3826 100.511,-46.9346"/>
<polygon fill="midnightblue" stroke="midnightblue" points="101.257,-50.3597 110.573,-45.3145 100.144,-43.4488 101.257,-50.3597"/>
</g>
<!-- Node4 -->
<g id="node4" class="node"><title>Node4</title>
<g id="a_node4"><a xlink:href="list_8h.html#a2eb1558482076fff8cafc63419c2d34a" target="_top" xlink:title="uxListRemove">
<polygon fill="white" stroke="black" points="382,-47.5 382,-66.5 462,-66.5 462,-47.5 382,-47.5"/>
<text text-anchor="middle" x="422" y="-54.5" font-family="Helvetica,sans-Serif" font-size="10.00">uxListRemove</text>
</a>
</g>
</g>
<!-- Node3&#45;&gt;Node4 -->
<g id="edge3" class="edge"><title>Node3&#45;&gt;Node4</title>
<path fill="none" stroke="midnightblue" d="M191.212,-47.5071C206.011,-51.2716 223.739,-55.1407 240,-57 284.186,-62.0522 334.837,-61.5182 371.299,-60.0304"/>
<polygon fill="midnightblue" stroke="midnightblue" points="371.829,-63.5103 381.662,-59.5665 371.516,-56.5173 371.829,-63.5103"/>
</g>
<!-- Node5 -->
<g id="node5" class="node"><title>Node5</title>
<g id="a_node5"><a xlink:href="_paradigm_2_tern___e_e_2small_2portmacro_8h.html#a14d32f8130d3c0b212cfc751730b5b49" target="_top" xlink:title="void">
<polygon fill="white" stroke="black" points="404.5,-0.5 404.5,-19.5 439.5,-19.5 439.5,-0.5 404.5,-0.5"/>
<text text-anchor="middle" x="422" y="-7.5" font-family="Helvetica,sans-Serif" font-size="10.00">void</text>
</a>
</g>
</g>
<!-- Node3&#45;&gt;Node5 -->
<g id="edge4" class="edge"><title>Node3&#45;&gt;Node5</title>
<path fill="none" stroke="midnightblue" d="M192.858,-28.4792C207.333,-24.9043 224.369,-21.1818 240,-19 294.501,-11.3926 359.02,-9.97916 394.426,-9.84706"/>
<polygon fill="midnightblue" stroke="midnightblue" points="394.438,-13.3472 404.437,-9.84176 394.435,-6.34715 394.438,-13.3472"/>
</g>
<!-- Node6 -->
<g id="node6" class="node"><title>Node6</title>
<g id="a_node6"><a xlink:href="tasks_8c.html#a54f31e9aef0eb7b87e48c7d68ecc84c1" target="_top" xlink:title="xTaskIncrementTick">
<polygon fill="white" stroke="black" points="240,-28.5 240,-47.5 346,-47.5 346,-28.5 240,-28.5"/>
<text text-anchor="middle" x="293" y="-35.5" font-family="Helvetica,sans-Serif" font-size="10.00">xTaskIncrementTick</text>
</a>
</g>
</g>
<!-- Node3&#45;&gt;Node6 -->
<g id="edge5" class="edge"><title>Node3&#45;&gt;Node6</title>
<path fill="none" stroke="midnightblue" d="M203.366,-38C211.77,-38 220.683,-38 229.492,-38"/>
<polygon fill="midnightblue" stroke="midnightblue" points="229.748,-41.5001 239.748,-38 229.748,-34.5001 229.748,-41.5001"/>
</g>
<!-- Node6&#45;&gt;Node5 -->
<g id="edge6" class="edge"><title>Node6&#45;&gt;Node5</title>
<path fill="none" stroke="midnightblue" d="M337.351,-28.4423C356.214,-24.2836 377.722,-19.5415 394.206,-15.9074"/>
<polygon fill="midnightblue" stroke="midnightblue" points="395.222,-19.2675 404.234,-13.6965 393.715,-12.4317 395.222,-19.2675"/>
</g>
<!-- Node6&#45;&gt;Node4 -->
<g id="edge7" class="edge"><title>Node6&#45;&gt;Node4</title>
<path fill="none" stroke="midnightblue" d="M346.022,-45.7828C354.496,-47.0506 363.252,-48.3605 371.659,-49.6183"/>
<polygon fill="midnightblue" stroke="midnightblue" points="371.291,-53.102 381.698,-51.1202 372.326,-46.1791 371.291,-53.102"/>
</g>
</g>
</svg>
