<?xml version="1.0" encoding="UTF-8" standalone="no"?>
<!DOCTYPE svg PUBLIC "-//W3C//DTD SVG 1.1//EN"
 "http://www.w3.org/Graphics/SVG/1.1/DTD/svg11.dtd">
<!-- Generated by graphviz version 2.30.1 (20130221.2233)
 -->
<!-- Title: SimulatedTask Pages: 1 -->
<svg width="118pt" height="194pt"
 viewBox="0.00 0.00 118.00 194.00" xmlns="http://www.w3.org/2000/svg" xmlns:xlink="http://www.w3.org/1999/xlink">
<g id="graph0" class="graph" transform="scale(1 1) rotate(0) translate(4 190)">
<title>SimulatedTask</title>
<polygon fill="white" stroke="white" points="-4,5 -4,-190 115,-190 115,5 -4,5"/>
<!-- Node1 -->
<g id="node1" class="node"><title>Node1</title>
<polygon fill="#bfbfbf" stroke="black" points="0,-1 0,-91 110,-91 110,-1 0,-1"/>
<text text-anchor="middle" x="55" y="-79" font-family="Helvetica,sans-Serif" font-size="10.00">SimulatedTask</text>
<polyline fill="none" stroke="black" points="0,-72 110,-72 "/>
<text text-anchor="start" x="8" y="-60" font-family="Helvetica,sans-Serif" font-size="10.00">&#45; m_pxCode</text>
<text text-anchor="start" x="8" y="-49" font-family="Helvetica,sans-Serif" font-size="10.00">&#45; m_pvParameters</text>
<text text-anchor="start" x="8" y="-38" font-family="Helvetica,sans-Serif" font-size="10.00">&#45; s_totalNumThreads</text>
<polyline fill="none" stroke="black" points="0,-31 110,-31 "/>
<text text-anchor="start" x="8" y="-19" font-family="Helvetica,sans-Serif" font-size="10.00">+ SimulatedTask()</text>
<text text-anchor="start" x="8" y="-8" font-family="Helvetica,sans-Serif" font-size="10.00"># run()</text>
</g>
<!-- Node2 -->
<g id="node2" class="node"><title>Node2</title>
<polygon fill="white" stroke="#bfbfbf" points="27,-128.5 27,-185.5 83,-185.5 83,-128.5 27,-128.5"/>
<text text-anchor="middle" x="55" y="-173.5" font-family="Helvetica,sans-Serif" font-size="10.00">QThread</text>
<polyline fill="none" stroke="#bfbfbf" points="27,-166.5 83,-166.5 "/>
<text text-anchor="middle" x="55" y="-154.5" font-family="Helvetica,sans-Serif" font-size="10.00"> </text>
<polyline fill="none" stroke="#bfbfbf" points="27,-147.5 83,-147.5 "/>
<text text-anchor="middle" x="55" y="-135.5" font-family="Helvetica,sans-Serif" font-size="10.00"> </text>
</g>
<!-- Node2&#45;&gt;Node1 -->
<g id="edge1" class="edge"><title>Node2&#45;&gt;Node1</title>
<path fill="none" stroke="midnightblue" d="M55,-118.484C55,-109.643 55,-100.139 55,-91.0399"/>
<polygon fill="none" stroke="midnightblue" points="51.5001,-118.495 55,-128.495 58.5001,-118.495 51.5001,-118.495"/>
</g>
</g>
</svg>
