<?xml version="1.0" encoding="UTF-8" standalone="no"?>
<!DOCTYPE svg PUBLIC "-//W3C//DTD SVG 1.1//EN"
 "http://www.w3.org/Graphics/SVG/1.1/DTD/svg11.dtd">
<!-- Generated by graphviz version 2.30.1 (20130221.2233)
 -->
<!-- Title: TaskTimer Pages: 1 -->
<svg width="86pt" height="160pt"
 viewBox="0.00 0.00 86.00 160.00" xmlns="http://www.w3.org/2000/svg" xmlns:xlink="http://www.w3.org/1999/xlink">
<g id="graph0" class="graph" transform="scale(1 1) rotate(0) translate(4 156)">
<title>TaskTimer</title>
<polygon fill="white" stroke="white" points="-4,5 -4,-156 83,-156 83,5 -4,5"/>
<!-- Node1 -->
<g id="node1" class="node"><title>Node1</title>
<polygon fill="#bfbfbf" stroke="black" points="-0.5,-0.5 -0.5,-57.5 78.5,-57.5 78.5,-0.5 -0.5,-0.5"/>
<text text-anchor="middle" x="39" y="-45.5" font-family="Helvetica,sans-Serif" font-size="10.00">TaskTimer</text>
<polyline fill="none" stroke="black" points="-0.5,-38.5 78.5,-38.5 "/>
<text text-anchor="middle" x="39" y="-26.5" font-family="Helvetica,sans-Serif" font-size="10.00"> </text>
<polyline fill="none" stroke="black" points="-0.5,-19.5 78.5,-19.5 "/>
<text text-anchor="start" x="7.5" y="-7.5" font-family="Helvetica,sans-Serif" font-size="10.00">+ TaskTimer()</text>
</g>
<!-- Node2 -->
<g id="node2" class="node"><title>Node2</title>
<polygon fill="white" stroke="#bfbfbf" points="12.5,-94.5 12.5,-151.5 65.5,-151.5 65.5,-94.5 12.5,-94.5"/>
<text text-anchor="middle" x="39" y="-139.5" font-family="Helvetica,sans-Serif" font-size="10.00">QObject</text>
<polyline fill="none" stroke="#bfbfbf" points="12.5,-132.5 65.5,-132.5 "/>
<text text-anchor="middle" x="39" y="-120.5" font-family="Helvetica,sans-Serif" font-size="10.00"> </text>
<polyline fill="none" stroke="#bfbfbf" points="12.5,-113.5 65.5,-113.5 "/>
<text text-anchor="middle" x="39" y="-101.5" font-family="Helvetica,sans-Serif" font-size="10.00"> </text>
</g>
<!-- Node2&#45;&gt;Node1 -->
<g id="edge1" class="edge"><title>Node2&#45;&gt;Node1</title>
<path fill="none" stroke="midnightblue" d="M39,-84.2092C39,-75.2929 39,-65.9513 39,-57.5836"/>
<polygon fill="none" stroke="midnightblue" points="35.5001,-84.3969 39,-94.397 42.5001,-84.397 35.5001,-84.3969"/>
</g>
</g>
</svg>
