<?xml version="1.0" encoding="UTF-8" standalone="no"?>
<!DOCTYPE svg PUBLIC "-//W3C//DTD SVG 1.1//EN"
 "http://www.w3.org/Graphics/SVG/1.1/DTD/svg11.dtd">
<!-- Generated by graphviz version 2.30.1 (20130221.2233)
 -->
<!-- Title: source/portable/IAR/AtmelSAM7S64 Pages: 1 -->
<svg width="128pt" height="151pt"
 viewBox="0.00 0.00 128.00 151.00" xmlns="http://www.w3.org/2000/svg" xmlns:xlink="http://www.w3.org/1999/xlink">
<g id="graph0" class="graph" transform="scale(1 1) rotate(0) translate(4 147)">
<title>source/portable/IAR/AtmelSAM7S64</title>
<polygon fill="white" stroke="white" points="-4,5 -4,-147 125,-147 125,5 -4,5"/>
<g id="clust1" class="cluster"><title>clusterdir_15315e845ed14f3cd8e31ade5443d7d6</title>
<g id="a_clust1"><a xlink:href="dir_15315e845ed14f3cd8e31ade5443d7d6.html" target="_top" xlink:title="IAR">
<polygon fill="#ddddee" stroke="black" points="8,-64 8,-135 112,-135 112,-64 8,-64"/>
<text text-anchor="middle" x="60" y="-123" font-family="Helvetica,sans-Serif" font-size="10.00">IAR</text>
</a>
</g>
</g>
<!-- dir_084f3f78ebfee5a1b2e1ee54dcfd315d -->
<g id="node1" class="node"><title>dir_084f3f78ebfee5a1b2e1ee54dcfd315d</title>
<g id="a_node1"><a xlink:href="dir_084f3f78ebfee5a1b2e1ee54dcfd315d.html" target="_top" xlink:title="AtmelSAM7S64">
<polygon fill="#eeeeff" stroke="black" points="103.25,-108 16.75,-108 16.75,-72 103.25,-72 103.25,-108"/>
<text text-anchor="middle" x="60" y="-87.5" font-family="Helvetica,sans-Serif" font-size="10.00">AtmelSAM7S64</text>
</a>
</g>
</g>
<!-- dir_8ee1a5e78eaec319fe5d64075812fc61 -->
<g id="node2" class="node"><title>dir_8ee1a5e78eaec319fe5d64075812fc61</title>
<g id="a_node2"><a xlink:href="dir_8ee1a5e78eaec319fe5d64075812fc61.html" target="_top" xlink:title="include">
<polygon fill="none" stroke="black" points="87,-36 33,-36 33,-0 87,-0 87,-36"/>
<text text-anchor="middle" x="60" y="-15.5" font-family="Helvetica,sans-Serif" font-size="10.00">include</text>
</a>
</g>
</g>
<!-- dir_084f3f78ebfee5a1b2e1ee54dcfd315d&#45;&gt;dir_8ee1a5e78eaec319fe5d64075812fc61 -->
<g id="edge1" class="edge"><title>dir_084f3f78ebfee5a1b2e1ee54dcfd315d&#45;&gt;dir_8ee1a5e78eaec319fe5d64075812fc61</title>
<path fill="none" stroke="black" d="M60,-71.6966C60,-63.9827 60,-54.7125 60,-46.1124"/>
<polygon fill="black" stroke="black" points="63.5001,-46.1043 60,-36.1043 56.5001,-46.1044 63.5001,-46.1043"/>
<g id="a_edge1&#45;headlabel"><a xlink:href="dir_000071_000001.html" target="_top" xlink:title="2">
<text text-anchor="middle" x="66.3393" y="-47.199" font-family="Helvetica,sans-Serif" font-size="10.00">2</text>
</a>
</g>
</g>
</g>
</svg>
