<?xml version="1.0" encoding="UTF-8" standalone="no"?>
<!DOCTYPE svg PUBLIC "-//W3C//DTD SVG 1.1//EN"
 "http://www.w3.org/Graphics/SVG/1.1/DTD/svg11.dtd">
<!-- Generated by graphviz version 2.30.1 (20130221.2233)
 -->
<!-- Title: source/portable/IAR Pages: 1 -->
<svg width="2045pt" height="159pt"
 viewBox="0.00 0.00 2045.00 159.00" xmlns="http://www.w3.org/2000/svg" xmlns:xlink="http://www.w3.org/1999/xlink">
<g id="graph0" class="graph" transform="scale(1 1) rotate(0) translate(4 155)">
<title>source/portable/IAR</title>
<polygon fill="white" stroke="white" points="-4,5 -4,-155 2042,-155 2042,5 -4,5"/>
<g id="clust1" class="cluster"><title>clusterdir_a3bc36d27ac900b14f04c9e2c43db8b5</title>
<g id="a_clust1"><a xlink:href="dir_a3bc36d27ac900b14f04c9e2c43db8b5.html" target="_top" xlink:title="portable">
<polygon fill="#ddddee" stroke="black" points="8,-56 8,-143 2029,-143 2029,-56 8,-56"/>
<text text-anchor="middle" x="1018.5" y="-131" font-family="Helvetica,sans-Serif" font-size="10.00">portable</text>
</a>
</g>
</g>
<g id="clust2" class="cluster"><title>clusterdir_15315e845ed14f3cd8e31ade5443d7d6</title>
<g id="a_clust2"><a xlink:href="dir_15315e845ed14f3cd8e31ade5443d7d6.html" target="_top">
<polygon fill="#eeeeff" stroke="black" points="16,-64 16,-116 2021,-116 2021,-64 16,-64"/>
</a>
</g>
</g>
<!-- dir_15315e845ed14f3cd8e31ade5443d7d6 -->
<g id="node1" class="node"><title>dir_15315e845ed14f3cd8e31ade5443d7d6</title>
<text text-anchor="middle" x="1986" y="-87.5" font-family="Helvetica,sans-Serif" font-size="10.00">IAR</text>
</g>
<!-- dir_79191c95cbea9e1dd986def5822db5e4 -->
<g id="node2" class="node"><title>dir_79191c95cbea9e1dd986def5822db5e4</title>
<g id="a_node2"><a xlink:href="dir_79191c95cbea9e1dd986def5822db5e4.html" target="_top" xlink:title="78K0R">
<polygon fill="white" stroke="black" points="1941,-108 1887,-108 1887,-72 1941,-72 1941,-108"/>
<text text-anchor="middle" x="1914" y="-87.5" font-family="Helvetica,sans-Serif" font-size="10.00">78K0R</text>
</a>
</g>
</g>
<!-- dir_8ee1a5e78eaec319fe5d64075812fc61 -->
<g id="node25" class="node"><title>dir_8ee1a5e78eaec319fe5d64075812fc61</title>
<g id="a_node25"><a xlink:href="dir_8ee1a5e78eaec319fe5d64075812fc61.html" target="_top" xlink:title="include">
<polygon fill="none" stroke="black" points="894,-36 840,-36 840,-0 894,-0 894,-36"/>
<text text-anchor="middle" x="867" y="-15.5" font-family="Helvetica,sans-Serif" font-size="10.00">include</text>
</a>
</g>
</g>
<!-- dir_79191c95cbea9e1dd986def5822db5e4&#45;&gt;dir_8ee1a5e78eaec319fe5d64075812fc61 -->
<g id="edge10" class="edge"><title>dir_79191c95cbea9e1dd986def5822db5e4&#45;&gt;dir_8ee1a5e78eaec319fe5d64075812fc61</title>
<path fill="none" stroke="black" d="M1899.5,-71.7951C1893.26,-65.6481 1885.46,-59.4051 1877,-56 1785.52,-19.1983 1075.93,-18.4985 904.288,-18.8748"/>
<polygon fill="black" stroke="black" points="904.216,-15.3749 894.225,-18.8995 904.233,-22.3748 904.216,-15.3749"/>
<g id="a_edge10&#45;headlabel"><a xlink:href="dir_000063_000001.html" target="_top" xlink:title="2">
<text text-anchor="middle" x="907.804" y="-10.0269" font-family="Helvetica,sans-Serif" font-size="10.00">2</text>
</a>
</g>
</g>
<!-- dir_16947f276ce50217dc97ad15ea736c36 -->
<g id="node3" class="node"><title>dir_16947f276ce50217dc97ad15ea736c36</title>
<g id="a_node3"><a xlink:href="dir_16947f276ce50217dc97ad15ea736c36.html" target="_top" xlink:title="ARM_CA5_No_GIC">
<polygon fill="white" stroke="black" points="1868.25,-108 1763.75,-108 1763.75,-72 1868.25,-72 1868.25,-108"/>
<text text-anchor="middle" x="1816" y="-87.5" font-family="Helvetica,sans-Serif" font-size="10.00">ARM_CA5_No_GIC</text>
</a>
</g>
</g>
<!-- dir_16947f276ce50217dc97ad15ea736c36&#45;&gt;dir_8ee1a5e78eaec319fe5d64075812fc61 -->
<g id="edge11" class="edge"><title>dir_16947f276ce50217dc97ad15ea736c36&#45;&gt;dir_8ee1a5e78eaec319fe5d64075812fc61</title>
<path fill="none" stroke="black" d="M1790.23,-71.9539C1779.49,-65.7488 1766.59,-59.4223 1754,-56 1671.31,-33.5233 1062.9,-22.1757 904.576,-19.5835"/>
<polygon fill="black" stroke="black" points="904.443,-16.081 894.387,-19.4187 904.329,-23.0801 904.443,-16.081"/>
<g id="a_edge11&#45;headlabel"><a xlink:href="dir_000007_000001.html" target="_top" xlink:title="2">
<text text-anchor="middle" x="908.083" y="-10.8002" font-family="Helvetica,sans-Serif" font-size="10.00">2</text>
</a>
</g>
</g>
<!-- dir_73b948b023de41b26a42af75122f7ec9 -->
<g id="node4" class="node"><title>dir_73b948b023de41b26a42af75122f7ec9</title>
<g id="a_node4"><a xlink:href="dir_73b948b023de41b26a42af75122f7ec9.html" target="_top" xlink:title="ARM_CA9">
<polygon fill="white" stroke="black" points="1745,-108 1681,-108 1681,-72 1745,-72 1745,-108"/>
<text text-anchor="middle" x="1713" y="-87.5" font-family="Helvetica,sans-Serif" font-size="10.00">ARM_CA9</text>
</a>
</g>
</g>
<!-- dir_73b948b023de41b26a42af75122f7ec9&#45;&gt;dir_8ee1a5e78eaec319fe5d64075812fc61 -->
<g id="edge1" class="edge"><title>dir_73b948b023de41b26a42af75122f7ec9&#45;&gt;dir_8ee1a5e78eaec319fe5d64075812fc61</title>
<path fill="none" stroke="black" d="M1696.13,-71.8163C1689,-65.6722 1680.21,-59.4257 1671,-56 1598.73,-29.128 1053.38,-21.0886 904.47,-19.3833"/>
<polygon fill="black" stroke="black" points="904.087,-15.8789 894.049,-19.267 904.009,-22.8784 904.087,-15.8789"/>
<g id="a_edge1&#45;headlabel"><a xlink:href="dir_000008_000001.html" target="_top" xlink:title="2">
<text text-anchor="middle" x="907.714" y="-10.5798" font-family="Helvetica,sans-Serif" font-size="10.00">2</text>
</a>
</g>
</g>
<!-- dir_e0b4daf4a4175da25e2906814604c3b7 -->
<g id="node5" class="node"><title>dir_e0b4daf4a4175da25e2906814604c3b7</title>
<g id="a_node5"><a xlink:href="dir_e0b4daf4a4175da25e2906814604c3b7.html" target="_top" xlink:title="ARM_CM0">
<polygon fill="white" stroke="black" points="1662.25,-108 1597.75,-108 1597.75,-72 1662.25,-72 1662.25,-108"/>
<text text-anchor="middle" x="1630" y="-87.5" font-family="Helvetica,sans-Serif" font-size="10.00">ARM_CM0</text>
</a>
</g>
</g>
<!-- dir_e0b4daf4a4175da25e2906814604c3b7&#45;&gt;dir_8ee1a5e78eaec319fe5d64075812fc61 -->
<g id="edge13" class="edge"><title>dir_e0b4daf4a4175da25e2906814604c3b7&#45;&gt;dir_8ee1a5e78eaec319fe5d64075812fc61</title>
<path fill="none" stroke="black" d="M1613.12,-71.8414C1605.99,-65.7008 1597.2,-59.45 1588,-56 1523.8,-31.9366 1042.66,-21.9784 904.182,-19.5924"/>
<polygon fill="black" stroke="black" points="904.128,-16.0911 894.071,-19.4213 904.01,-23.0901 904.128,-16.0911"/>
<g id="a_edge13&#45;headlabel"><a xlink:href="dir_000064_000001.html" target="_top" xlink:title="2">
<text text-anchor="middle" x="907.771" y="-10.813" font-family="Helvetica,sans-Serif" font-size="10.00">2</text>
</a>
</g>
</g>
<!-- dir_8d3069c665a3ece15462f3dabd170d3c -->
<g id="node6" class="node"><title>dir_8d3069c665a3ece15462f3dabd170d3c</title>
<g id="a_node6"><a xlink:href="dir_8d3069c665a3ece15462f3dabd170d3c.html" target="_top" xlink:title="ARM_CM3">
<polygon fill="white" stroke="black" points="1579.25,-108 1514.75,-108 1514.75,-72 1579.25,-72 1579.25,-108"/>
<text text-anchor="middle" x="1547" y="-87.5" font-family="Helvetica,sans-Serif" font-size="10.00">ARM_CM3</text>
</a>
</g>
</g>
<!-- dir_8d3069c665a3ece15462f3dabd170d3c&#45;&gt;dir_8ee1a5e78eaec319fe5d64075812fc61 -->
<g id="edge15" class="edge"><title>dir_8d3069c665a3ece15462f3dabd170d3c&#45;&gt;dir_8ee1a5e78eaec319fe5d64075812fc61</title>
<path fill="none" stroke="black" d="M1530.11,-71.8729C1522.97,-65.7366 1514.19,-59.4806 1505,-56 1448.92,-34.768 1032.62,-23.0107 904.449,-19.8663"/>
<polygon fill="black" stroke="black" points="904.419,-16.3646 894.337,-19.6215 904.249,-23.3626 904.419,-16.3646"/>
<g id="a_edge15&#45;headlabel"><a xlink:href="dir_000065_000001.html" target="_top" xlink:title="2">
<text text-anchor="middle" x="908.081" y="-11.1131" font-family="Helvetica,sans-Serif" font-size="10.00">2</text>
</a>
</g>
</g>
<!-- dir_38715eeaa03ab90eee151e4ff21f2f84 -->
<g id="node7" class="node"><title>dir_38715eeaa03ab90eee151e4ff21f2f84</title>
<g id="a_node7"><a xlink:href="dir_38715eeaa03ab90eee151e4ff21f2f84.html" target="_top" xlink:title="ARM_CM4F">
<polygon fill="white" stroke="black" points="1496,-108 1424,-108 1424,-72 1496,-72 1496,-108"/>
<text text-anchor="middle" x="1460" y="-87.5" font-family="Helvetica,sans-Serif" font-size="10.00">ARM_CM4F</text>
</a>
</g>
</g>
<!-- dir_38715eeaa03ab90eee151e4ff21f2f84&#45;&gt;dir_8ee1a5e78eaec319fe5d64075812fc61 -->
<g id="edge19" class="edge"><title>dir_38715eeaa03ab90eee151e4ff21f2f84&#45;&gt;dir_8ee1a5e78eaec319fe5d64075812fc61</title>
<path fill="none" stroke="black" d="M1441.23,-71.9162C1433.38,-65.7859 1423.8,-59.5227 1414,-56 1319.83,-22.1676 1011.39,-18.9504 904.145,-18.8811"/>
<polygon fill="black" stroke="black" points="904.115,-15.381 894.116,-18.8836 904.117,-22.381 904.115,-15.381"/>
<g id="a_edge19&#45;headlabel"><a xlink:href="dir_000066_000001.html" target="_top" xlink:title="2">
<text text-anchor="middle" x="907.709" y="-10.0409" font-family="Helvetica,sans-Serif" font-size="10.00">2</text>
</a>
</g>
</g>
<!-- dir_bc26afa7663abb66776222b56930a4a9 -->
<g id="node8" class="node"><title>dir_bc26afa7663abb66776222b56930a4a9</title>
<g id="a_node8"><a xlink:href="dir_bc26afa7663abb66776222b56930a4a9.html" target="_top" xlink:title="ARM_CM7">
<polygon fill="white" stroke="red" points="1405.25,-108 1340.75,-108 1340.75,-72 1405.25,-72 1405.25,-108"/>
<text text-anchor="middle" x="1373" y="-87.5" font-family="Helvetica,sans-Serif" font-size="10.00">ARM_CM7</text>
</a>
</g>
</g>
<!-- dir_bc26afa7663abb66776222b56930a4a9&#45;&gt;dir_8ee1a5e78eaec319fe5d64075812fc61 -->
<g id="edge23" class="edge"><title>dir_bc26afa7663abb66776222b56930a4a9&#45;&gt;dir_8ee1a5e78eaec319fe5d64075812fc61</title>
<path fill="none" stroke="black" d="M1356.07,-71.9752C1348.93,-65.853 1340.15,-59.5799 1331,-56 1253.47,-25.6819 1000.2,-20.1988 904.278,-19.2134"/>
<polygon fill="black" stroke="black" points="904.203,-15.7127 894.171,-19.1205 904.138,-22.7124 904.203,-15.7127"/>
<g id="a_edge23&#45;headlabel"><a xlink:href="dir_000067_000001.html" target="_top" xlink:title="2">
<text text-anchor="middle" x="907.823" y="-10.4065" font-family="Helvetica,sans-Serif" font-size="10.00">2</text>
</a>
</g>
</g>
<!-- dir_05ba7675e0652a7ed86c7171a8501575 -->
<g id="node9" class="node"><title>dir_05ba7675e0652a7ed86c7171a8501575</title>
<g id="a_node9"><a xlink:href="dir_05ba7675e0652a7ed86c7171a8501575.html" target="_top" xlink:title="ARM_CRx_No_GIC">
<polygon fill="white" stroke="black" points="1322.25,-108 1217.75,-108 1217.75,-72 1322.25,-72 1322.25,-108"/>
<text text-anchor="middle" x="1270" y="-87.5" font-family="Helvetica,sans-Serif" font-size="10.00">ARM_CRx_No_GIC</text>
</a>
</g>
</g>
<!-- dir_05ba7675e0652a7ed86c7171a8501575&#45;&gt;dir_8ee1a5e78eaec319fe5d64075812fc61 -->
<g id="edge9" class="edge"><title>dir_05ba7675e0652a7ed86c7171a8501575&#45;&gt;dir_8ee1a5e78eaec319fe5d64075812fc61</title>
<path fill="none" stroke="black" d="M1243.2,-71.8594C1232.63,-65.8764 1220.12,-59.7306 1208,-56 1101.47,-23.2107 968.432,-18.5896 904.593,-18.475"/>
<polygon fill="black" stroke="black" points="904.22,-14.9756 894.227,-18.4957 904.234,-21.9756 904.22,-14.9756"/>
<g id="a_edge9&#45;headlabel"><a xlink:href="dir_000069_000001.html" target="_top" xlink:title="2">
<text text-anchor="middle" x="907.808" y="-9.62923" font-family="Helvetica,sans-Serif" font-size="10.00">2</text>
</a>
</g>
</g>
<!-- dir_aa292ae2ae122a33b93274e43e20c5e9 -->
<g id="node10" class="node"><title>dir_aa292ae2ae122a33b93274e43e20c5e9</title>
<g id="a_node10"><a xlink:href="dir_aa292ae2ae122a33b93274e43e20c5e9.html" target="_top" xlink:title="ATMega323">
<polygon fill="white" stroke="black" points="1199.25,-108 1128.75,-108 1128.75,-72 1199.25,-72 1199.25,-108"/>
<text text-anchor="middle" x="1164" y="-87.5" font-family="Helvetica,sans-Serif" font-size="10.00">ATMega323</text>
</a>
</g>
</g>
<!-- dir_aa292ae2ae122a33b93274e43e20c5e9&#45;&gt;dir_8ee1a5e78eaec319fe5d64075812fc61 -->
<g id="edge3" class="edge"><title>dir_aa292ae2ae122a33b93274e43e20c5e9&#45;&gt;dir_8ee1a5e78eaec319fe5d64075812fc61</title>
<path fill="none" stroke="black" d="M1145.1,-71.9579C1137.5,-65.987 1128.32,-59.8238 1119,-56 1047,-26.4674 954.907,-20.0533 904.368,-18.9289"/>
<polygon fill="black" stroke="black" points="904.292,-15.4273 894.236,-18.7628 904.177,-22.4263 904.292,-15.4273"/>
<g id="a_edge3&#45;headlabel"><a xlink:href="dir_000070_000001.html" target="_top" xlink:title="2">
<text text-anchor="middle" x="907.933" y="-10.1472" font-family="Helvetica,sans-Serif" font-size="10.00">2</text>
</a>
</g>
</g>
<!-- dir_084f3f78ebfee5a1b2e1ee54dcfd315d -->
<g id="node11" class="node"><title>dir_084f3f78ebfee5a1b2e1ee54dcfd315d</title>
<g id="a_node11"><a xlink:href="dir_084f3f78ebfee5a1b2e1ee54dcfd315d.html" target="_top" xlink:title="AtmelSAM7S64">
<polygon fill="white" stroke="black" points="1110.25,-108 1023.75,-108 1023.75,-72 1110.25,-72 1110.25,-108"/>
<text text-anchor="middle" x="1067" y="-87.5" font-family="Helvetica,sans-Serif" font-size="10.00">AtmelSAM7S64</text>
</a>
</g>
</g>
<!-- dir_084f3f78ebfee5a1b2e1ee54dcfd315d&#45;&gt;dir_8ee1a5e78eaec319fe5d64075812fc61 -->
<g id="edge14" class="edge"><title>dir_084f3f78ebfee5a1b2e1ee54dcfd315d&#45;&gt;dir_8ee1a5e78eaec319fe5d64075812fc61</title>
<path fill="none" stroke="black" d="M1043.06,-71.8939C1034.25,-66.2009 1023.98,-60.2384 1014,-56 978.141,-40.7656 934.595,-30.7773 904.246,-25.0624"/>
<polygon fill="black" stroke="black" points="904.56,-21.5622 894.095,-23.2176 903.308,-28.4494 904.56,-21.5622"/>
<g id="a_edge14&#45;headlabel"><a xlink:href="dir_000071_000001.html" target="_top" xlink:title="2">
<text text-anchor="middle" x="908.604" y="-16.9114" font-family="Helvetica,sans-Serif" font-size="10.00">2</text>
</a>
</g>
</g>
<!-- dir_e003fc17e6f40ee5ff42861aa95d4608 -->
<g id="node12" class="node"><title>dir_e003fc17e6f40ee5ff42861aa95d4608</title>
<g id="a_node12"><a xlink:href="dir_e003fc17e6f40ee5ff42861aa95d4608.html" target="_top" xlink:title="AtmelSAM9XE">
<polygon fill="white" stroke="black" points="1005.25,-108 922.75,-108 922.75,-72 1005.25,-72 1005.25,-108"/>
<text text-anchor="middle" x="964" y="-87.5" font-family="Helvetica,sans-Serif" font-size="10.00">AtmelSAM9XE</text>
</a>
</g>
</g>
<!-- dir_e003fc17e6f40ee5ff42861aa95d4608&#45;&gt;dir_8ee1a5e78eaec319fe5d64075812fc61 -->
<g id="edge2" class="edge"><title>dir_e003fc17e6f40ee5ff42861aa95d4608&#45;&gt;dir_8ee1a5e78eaec319fe5d64075812fc61</title>
<path fill="none" stroke="black" d="M940.022,-71.6966C927.689,-62.796 912.484,-51.8232 899.147,-42.1989"/>
<polygon fill="black" stroke="black" points="900.859,-39.1181 890.702,-36.1043 896.763,-44.7944 900.859,-39.1181"/>
<g id="a_edge2&#45;headlabel"><a xlink:href="dir_000072_000001.html" target="_top" xlink:title="2">
<text text-anchor="middle" x="905.435" y="-36.4192" font-family="Helvetica,sans-Serif" font-size="10.00">2</text>
</a>
</g>
</g>
<!-- dir_14b404c92337ec851ecbbbaa590e78a7 -->
<g id="node13" class="node"><title>dir_14b404c92337ec851ecbbbaa590e78a7</title>
<g id="a_node13"><a xlink:href="dir_14b404c92337ec851ecbbbaa590e78a7.html" target="_top" xlink:title="AVR32_UC3">
<polygon fill="white" stroke="black" points="904,-108 830,-108 830,-72 904,-72 904,-108"/>
<text text-anchor="middle" x="867" y="-87.5" font-family="Helvetica,sans-Serif" font-size="10.00">AVR32_UC3</text>
</a>
</g>
</g>
<!-- dir_14b404c92337ec851ecbbbaa590e78a7&#45;&gt;dir_8ee1a5e78eaec319fe5d64075812fc61 -->
<g id="edge8" class="edge"><title>dir_14b404c92337ec851ecbbbaa590e78a7&#45;&gt;dir_8ee1a5e78eaec319fe5d64075812fc61</title>
<path fill="none" stroke="black" d="M867,-71.6966C867,-63.9827 867,-54.7125 867,-46.1124"/>
<polygon fill="black" stroke="black" points="870.5,-46.1043 867,-36.1043 863.5,-46.1044 870.5,-46.1043"/>
<g id="a_edge8&#45;headlabel"><a xlink:href="dir_000073_000001.html" target="_top" xlink:title="2">
<text text-anchor="middle" x="873.339" y="-47.199" font-family="Helvetica,sans-Serif" font-size="10.00">2</text>
</a>
</g>
</g>
<!-- dir_ce16ee149a45e90157e26c0f5d6b0c8a -->
<g id="node14" class="node"><title>dir_ce16ee149a45e90157e26c0f5d6b0c8a</title>
<g id="a_node14"><a xlink:href="dir_ce16ee149a45e90157e26c0f5d6b0c8a.html" target="_top" xlink:title="LPC2000">
<polygon fill="white" stroke="black" points="812,-108 754,-108 754,-72 812,-72 812,-108"/>
<text text-anchor="middle" x="783" y="-87.5" font-family="Helvetica,sans-Serif" font-size="10.00">LPC2000</text>
</a>
</g>
</g>
<!-- dir_ce16ee149a45e90157e26c0f5d6b0c8a&#45;&gt;dir_8ee1a5e78eaec319fe5d64075812fc61 -->
<g id="edge21" class="edge"><title>dir_ce16ee149a45e90157e26c0f5d6b0c8a&#45;&gt;dir_8ee1a5e78eaec319fe5d64075812fc61</title>
<path fill="none" stroke="black" d="M802.601,-71.73C808.478,-66.6193 814.966,-61.0434 821,-56 826.283,-51.5838 831.962,-46.937 837.464,-42.485"/>
<polygon fill="black" stroke="black" points="839.738,-45.1478 845.334,-36.1511 835.349,-39.6948 839.738,-45.1478"/>
<g id="a_edge21&#45;headlabel"><a xlink:href="dir_000074_000001.html" target="_top" xlink:title="2">
<text text-anchor="middle" x="838.718" y="-47.1135" font-family="Helvetica,sans-Serif" font-size="10.00">2</text>
</a>
</g>
</g>
<!-- dir_a64a3a131d0251f79de4225127f20416 -->
<g id="node15" class="node"><title>dir_a64a3a131d0251f79de4225127f20416</title>
<g id="a_node15"><a xlink:href="dir_a64a3a131d0251f79de4225127f20416.html" target="_top" xlink:title="MSP430">
<polygon fill="white" stroke="black" points="735.25,-108 680.75,-108 680.75,-72 735.25,-72 735.25,-108"/>
<text text-anchor="middle" x="708" y="-87.5" font-family="Helvetica,sans-Serif" font-size="10.00">MSP430</text>
</a>
</g>
</g>
<!-- dir_a64a3a131d0251f79de4225127f20416&#45;&gt;dir_8ee1a5e78eaec319fe5d64075812fc61 -->
<g id="edge18" class="edge"><title>dir_a64a3a131d0251f79de4225127f20416&#45;&gt;dir_8ee1a5e78eaec319fe5d64075812fc61</title>
<path fill="none" stroke="black" d="M724.112,-71.8649C730.206,-66.1692 737.494,-60.2123 745,-56 771.634,-41.0534 805.001,-31.4698 830.105,-25.8103"/>
<polygon fill="black" stroke="black" points="830.93,-29.2131 839.972,-23.6907 829.459,-22.3692 830.93,-29.2131"/>
<g id="a_edge18&#45;headlabel"><a xlink:href="dir_000009_000001.html" target="_top" xlink:title="2">
<text text-anchor="middle" x="828.012" y="-30.2439" font-family="Helvetica,sans-Serif" font-size="10.00">2</text>
</a>
</g>
</g>
<!-- dir_347a589a74bf55ac8ac31a2067b1d11f -->
<g id="node16" class="node"><title>dir_347a589a74bf55ac8ac31a2067b1d11f</title>
<g id="a_node16"><a xlink:href="dir_347a589a74bf55ac8ac31a2067b1d11f.html" target="_top" xlink:title="MSP430X">
<polygon fill="white" stroke="black" points="662,-108 600,-108 600,-72 662,-72 662,-108"/>
<text text-anchor="middle" x="631" y="-87.5" font-family="Helvetica,sans-Serif" font-size="10.00">MSP430X</text>
</a>
</g>
</g>
<!-- dir_347a589a74bf55ac8ac31a2067b1d11f&#45;&gt;dir_8ee1a5e78eaec319fe5d64075812fc61 -->
<g id="edge20" class="edge"><title>dir_347a589a74bf55ac8ac31a2067b1d11f&#45;&gt;dir_8ee1a5e78eaec319fe5d64075812fc61</title>
<path fill="none" stroke="black" d="M648.474,-71.7838C655.311,-65.9399 663.539,-59.9074 672,-56 723.404,-32.2623 789.157,-23.7537 829.661,-20.7039"/>
<polygon fill="black" stroke="black" points="830.146,-24.1791 839.886,-20.0101 829.672,-17.1952 830.146,-24.1791"/>
<g id="a_edge20&#45;headlabel"><a xlink:href="dir_000075_000001.html" target="_top" xlink:title="2">
<text text-anchor="middle" x="826.752" y="-24.7551" font-family="Helvetica,sans-Serif" font-size="10.00">2</text>
</a>
</g>
</g>
<!-- dir_4c2e5587accabbf850588204f6d1c0d6 -->
<g id="node17" class="node"><title>dir_4c2e5587accabbf850588204f6d1c0d6</title>
<g id="a_node17"><a xlink:href="dir_4c2e5587accabbf850588204f6d1c0d6.html" target="_top" xlink:title="RL78">
<polygon fill="white" stroke="black" points="582,-108 528,-108 528,-72 582,-72 582,-108"/>
<text text-anchor="middle" x="555" y="-87.5" font-family="Helvetica,sans-Serif" font-size="10.00">RL78</text>
</a>
</g>
</g>
<!-- dir_4c2e5587accabbf850588204f6d1c0d6&#45;&gt;dir_8ee1a5e78eaec319fe5d64075812fc61 -->
<g id="edge16" class="edge"><title>dir_4c2e5587accabbf850588204f6d1c0d6&#45;&gt;dir_8ee1a5e78eaec319fe5d64075812fc61</title>
<path fill="none" stroke="black" d="M569.556,-71.8657C575.574,-65.8836 583.013,-59.7367 591,-56 632.584,-36.5445 764.381,-25.5917 829.644,-21.2339"/>
<polygon fill="black" stroke="black" points="830.146,-24.7087 839.898,-20.5671 829.692,-17.7235 830.146,-24.7087"/>
<g id="a_edge16&#45;headlabel"><a xlink:href="dir_000076_000001.html" target="_top" xlink:title="2">
<text text-anchor="middle" x="826.743" y="-25.2752" font-family="Helvetica,sans-Serif" font-size="10.00">2</text>
</a>
</g>
</g>
<!-- dir_03348ecb94ded425f953b1739d36e6ef -->
<g id="node18" class="node"><title>dir_03348ecb94ded425f953b1739d36e6ef</title>
<g id="a_node18"><a xlink:href="dir_03348ecb94ded425f953b1739d36e6ef.html" target="_top" xlink:title="RX100">
<polygon fill="white" stroke="black" points="510,-108 456,-108 456,-72 510,-72 510,-108"/>
<text text-anchor="middle" x="483" y="-87.5" font-family="Helvetica,sans-Serif" font-size="10.00">RX100</text>
</a>
</g>
</g>
<!-- dir_03348ecb94ded425f953b1739d36e6ef&#45;&gt;dir_8ee1a5e78eaec319fe5d64075812fc61 -->
<g id="edge4" class="edge"><title>dir_03348ecb94ded425f953b1739d36e6ef&#45;&gt;dir_8ee1a5e78eaec319fe5d64075812fc61</title>
<path fill="none" stroke="black" d="M497.503,-71.7499C503.515,-65.7535 510.963,-59.6272 519,-56 573.742,-31.2947 751.481,-22.6809 829.594,-20.0389"/>
<polygon fill="black" stroke="black" points="830.05,-23.5261 839.932,-19.7047 829.824,-16.5297 830.05,-23.5261"/>
<g id="a_edge4&#45;headlabel"><a xlink:href="dir_000077_000001.html" target="_top" xlink:title="2">
<text text-anchor="middle" x="826.549" y="-23.9799" font-family="Helvetica,sans-Serif" font-size="10.00">2</text>
</a>
</g>
</g>
<!-- dir_28bdb921ea60e291067efd53127de468 -->
<g id="node19" class="node"><title>dir_28bdb921ea60e291067efd53127de468</title>
<g id="a_node19"><a xlink:href="dir_28bdb921ea60e291067efd53127de468.html" target="_top" xlink:title="RX600">
<polygon fill="white" stroke="black" points="438,-108 384,-108 384,-72 438,-72 438,-108"/>
<text text-anchor="middle" x="411" y="-87.5" font-family="Helvetica,sans-Serif" font-size="10.00">RX600</text>
</a>
</g>
</g>
<!-- dir_28bdb921ea60e291067efd53127de468&#45;&gt;dir_8ee1a5e78eaec319fe5d64075812fc61 -->
<g id="edge12" class="edge"><title>dir_28bdb921ea60e291067efd53127de468&#45;&gt;dir_8ee1a5e78eaec319fe5d64075812fc61</title>
<path fill="none" stroke="black" d="M425.469,-71.673C431.476,-65.6672 438.93,-59.5545 447,-56 515.073,-26.0153 739.776,-20.32 829.507,-19.2461"/>
<polygon fill="black" stroke="black" points="829.799,-22.7433 839.761,-19.1368 829.724,-15.7437 829.799,-22.7433"/>
<g id="a_edge12&#45;headlabel"><a xlink:href="dir_000078_000001.html" target="_top" xlink:title="2">
<text text-anchor="middle" x="826.235" y="-23.1207" font-family="Helvetica,sans-Serif" font-size="10.00">2</text>
</a>
</g>
</g>
<!-- dir_fcec36da2978b9f0f987488775f088ec -->
<g id="node20" class="node"><title>dir_fcec36da2978b9f0f987488775f088ec</title>
<g id="a_node20"><a xlink:href="dir_fcec36da2978b9f0f987488775f088ec.html" target="_top" xlink:title="RXv2">
<polygon fill="white" stroke="black" points="366,-108 312,-108 312,-72 366,-72 366,-108"/>
<text text-anchor="middle" x="339" y="-87.5" font-family="Helvetica,sans-Serif" font-size="10.00">RXv2</text>
</a>
</g>
</g>
<!-- dir_fcec36da2978b9f0f987488775f088ec&#45;&gt;dir_8ee1a5e78eaec319fe5d64075812fc61 -->
<g id="edge17" class="edge"><title>dir_fcec36da2978b9f0f987488775f088ec&#45;&gt;dir_8ee1a5e78eaec319fe5d64075812fc61</title>
<path fill="none" stroke="black" d="M353.1,-71.965C359.163,-65.8415 366.752,-59.5701 375,-56 456.534,-20.7075 728.986,-18.3165 829.411,-18.6793"/>
<polygon fill="black" stroke="black" points="829.669,-22.1805 839.686,-18.7284 829.702,-15.1805 829.669,-22.1805"/>
<g id="a_edge17&#45;headlabel"><a xlink:href="dir_000079_000001.html" target="_top" xlink:title="2">
<text text-anchor="middle" x="826.061" y="-22.5026" font-family="Helvetica,sans-Serif" font-size="10.00">2</text>
</a>
</g>
</g>
<!-- dir_b62d8ead52ea26563059461723459168 -->
<g id="node21" class="node"><title>dir_b62d8ead52ea26563059461723459168</title>
<g id="a_node21"><a xlink:href="dir_b62d8ead52ea26563059461723459168.html" target="_top" xlink:title="STR71x">
<polygon fill="white" stroke="black" points="294,-108 240,-108 240,-72 294,-72 294,-108"/>
<text text-anchor="middle" x="267" y="-87.5" font-family="Helvetica,sans-Serif" font-size="10.00">STR71x</text>
</a>
</g>
</g>
<!-- dir_b62d8ead52ea26563059461723459168&#45;&gt;dir_8ee1a5e78eaec319fe5d64075812fc61 -->
<g id="edge6" class="edge"><title>dir_b62d8ead52ea26563059461723459168&#45;&gt;dir_8ee1a5e78eaec319fe5d64075812fc61</title>
<path fill="none" stroke="black" d="M281.083,-71.9244C287.143,-65.7952 294.735,-59.5306 303,-56 351.183,-35.4164 711.549,-23.4244 829.647,-20.0155"/>
<polygon fill="black" stroke="black" points="830.086,-23.5045 839.982,-19.7213 829.887,-16.5073 830.086,-23.5045"/>
<g id="a_edge6&#45;headlabel"><a xlink:href="dir_000080_000001.html" target="_top" xlink:title="2">
<text text-anchor="middle" x="826.573" y="-23.9448" font-family="Helvetica,sans-Serif" font-size="10.00">2</text>
</a>
</g>
</g>
<!-- dir_facf60c5830813b9705d011c01b71ecf -->
<g id="node22" class="node"><title>dir_facf60c5830813b9705d011c01b71ecf</title>
<g id="a_node22"><a xlink:href="dir_facf60c5830813b9705d011c01b71ecf.html" target="_top" xlink:title="STR75x">
<polygon fill="white" stroke="black" points="222,-108 168,-108 168,-72 222,-72 222,-108"/>
<text text-anchor="middle" x="195" y="-87.5" font-family="Helvetica,sans-Serif" font-size="10.00">STR75x</text>
</a>
</g>
</g>
<!-- dir_facf60c5830813b9705d011c01b71ecf&#45;&gt;dir_8ee1a5e78eaec319fe5d64075812fc61 -->
<g id="edge5" class="edge"><title>dir_facf60c5830813b9705d011c01b71ecf&#45;&gt;dir_8ee1a5e78eaec319fe5d64075812fc61</title>
<path fill="none" stroke="black" d="M209.069,-71.8929C215.127,-65.7594 222.722,-59.5 231,-56 286.054,-32.7215 701.632,-22.3739 829.607,-19.7177"/>
<polygon fill="black" stroke="black" points="829.777,-23.215 839.704,-19.5118 829.634,-16.2165 829.777,-23.215"/>
<g id="a_edge5&#45;headlabel"><a xlink:href="dir_000081_000001.html" target="_top" xlink:title="2">
<text text-anchor="middle" x="826.241" y="-23.6269" font-family="Helvetica,sans-Serif" font-size="10.00">2</text>
</a>
</g>
</g>
<!-- dir_c46fe35df5d362a416ddbfe3e90e7888 -->
<g id="node23" class="node"><title>dir_c46fe35df5d362a416ddbfe3e90e7888</title>
<g id="a_node23"><a xlink:href="dir_c46fe35df5d362a416ddbfe3e90e7888.html" target="_top" xlink:title="STR91x">
<polygon fill="white" stroke="black" points="150,-108 96,-108 96,-72 150,-72 150,-108"/>
<text text-anchor="middle" x="123" y="-87.5" font-family="Helvetica,sans-Serif" font-size="10.00">STR91x</text>
</a>
</g>
</g>
<!-- dir_c46fe35df5d362a416ddbfe3e90e7888&#45;&gt;dir_8ee1a5e78eaec319fe5d64075812fc61 -->
<g id="edge22" class="edge"><title>dir_c46fe35df5d362a416ddbfe3e90e7888&#45;&gt;dir_8ee1a5e78eaec319fe5d64075812fc61</title>
<path fill="none" stroke="black" d="M137.059,-71.8678C143.115,-65.7308 150.712,-59.4756 159,-56 220.957,-30.0178 692.232,-21.4411 829.559,-19.4798"/>
<polygon fill="black" stroke="black" points="830.017,-22.9738 839.967,-19.3348 829.919,-15.9745 830.017,-22.9738"/>
<g id="a_edge22&#45;headlabel"><a xlink:href="dir_000082_000001.html" target="_top" xlink:title="2">
<text text-anchor="middle" x="826.462" y="-23.3628" font-family="Helvetica,sans-Serif" font-size="10.00">2</text>
</a>
</g>
</g>
<!-- dir_03b58acae8a3400c922d0e70bfdb70f8 -->
<g id="node24" class="node"><title>dir_03b58acae8a3400c922d0e70bfdb70f8</title>
<g id="a_node24"><a xlink:href="dir_03b58acae8a3400c922d0e70bfdb70f8.html" target="_top" xlink:title="V850ES">
<polygon fill="white" stroke="black" points="78,-108 24,-108 24,-72 78,-72 78,-108"/>
<text text-anchor="middle" x="51" y="-87.5" font-family="Helvetica,sans-Serif" font-size="10.00">V850ES</text>
</a>
</g>
</g>
<!-- dir_03b58acae8a3400c922d0e70bfdb70f8&#45;&gt;dir_8ee1a5e78eaec319fe5d64075812fc61 -->
<g id="edge7" class="edge"><title>dir_03b58acae8a3400c922d0e70bfdb70f8&#45;&gt;dir_8ee1a5e78eaec319fe5d64075812fc61</title>
<path fill="none" stroke="black" d="M65.05,-71.8472C71.1056,-65.7074 78.7037,-59.4557 87,-56 155.905,-27.2989 683.551,-20.5966 829.623,-19.2841"/>
<polygon fill="black" stroke="black" points="829.89,-22.782 839.86,-19.1954 829.83,-15.7823 829.89,-22.782"/>
<g id="a_edge7&#45;headlabel"><a xlink:href="dir_000083_000001.html" target="_top" xlink:title="2">
<text text-anchor="middle" x="826.32" y="-23.1522" font-family="Helvetica,sans-Serif" font-size="10.00">2</text>
</a>
</g>
</g>
</g>
</svg>
