<?xml version="1.0" encoding="UTF-8" standalone="no"?>
<!DOCTYPE svg PUBLIC "-//W3C//DTD SVG 1.1//EN"
 "http://www.w3.org/Graphics/SVG/1.1/DTD/svg11.dtd">
<!-- Generated by graphviz version 2.30.1 (20130221.2233)
 -->
<!-- Title: source/portable/oWatcom Pages: 1 -->
<svg width="195pt" height="231pt"
 viewBox="0.00 0.00 195.00 231.00" xmlns="http://www.w3.org/2000/svg" xmlns:xlink="http://www.w3.org/1999/xlink">
<g id="graph0" class="graph" transform="scale(1 1) rotate(0) translate(4 227)">
<title>source/portable/oWatcom</title>
<polygon fill="white" stroke="white" points="-4,5 -4,-227 192,-227 192,5 -4,5"/>
<g id="clust1" class="cluster"><title>clusterdir_a3bc36d27ac900b14f04c9e2c43db8b5</title>
<g id="a_clust1"><a xlink:href="dir_a3bc36d27ac900b14f04c9e2c43db8b5.html" target="_top" xlink:title="portable">
<polygon fill="#ddddee" stroke="black" points="8,-128 8,-215 179,-215 179,-128 8,-128"/>
<text text-anchor="middle" x="93.5" y="-203" font-family="Helvetica,sans-Serif" font-size="10.00">portable</text>
</a>
</g>
</g>
<g id="clust2" class="cluster"><title>clusterdir_839ffd5c3b9afbc1283ad4fe68ddf903</title>
<g id="a_clust2"><a xlink:href="dir_839ffd5c3b9afbc1283ad4fe68ddf903.html" target="_top">
<polygon fill="#eeeeff" stroke="black" points="16,-136 16,-188 171,-188 171,-136 16,-136"/>
</a>
</g>
</g>
<!-- dir_839ffd5c3b9afbc1283ad4fe68ddf903 -->
<g id="node1" class="node"><title>dir_839ffd5c3b9afbc1283ad4fe68ddf903</title>
<text text-anchor="middle" x="133" y="-159.5" font-family="Helvetica,sans-Serif" font-size="10.00">oWatcom</text>
</g>
<!-- dir_62c6543fd4c42f1dddde8774800bec22 -->
<g id="node2" class="node"><title>dir_62c6543fd4c42f1dddde8774800bec22</title>
<g id="a_node2"><a xlink:href="dir_62c6543fd4c42f1dddde8774800bec22.html" target="_top" xlink:title="16BitDOS">
<polygon fill="white" stroke="red" points="85.25,-180 24.75,-180 24.75,-144 85.25,-144 85.25,-180"/>
<text text-anchor="middle" x="55" y="-159.5" font-family="Helvetica,sans-Serif" font-size="10.00">16BitDOS</text>
</a>
</g>
</g>
<!-- dir_921d680e936b75076e79072318538b88 -->
<g id="node3" class="node"><title>dir_921d680e936b75076e79072318538b88</title>
<g id="a_node3"><a xlink:href="dir_921d680e936b75076e79072318538b88.html" target="_top" xlink:title="MPLAB">
<polygon fill="white" stroke="red" points="55,-108 1,-108 1,-72 55,-72 55,-108"/>
<text text-anchor="middle" x="28" y="-87.5" font-family="Helvetica,sans-Serif" font-size="10.00">MPLAB</text>
</a>
</g>
</g>
<!-- dir_62c6543fd4c42f1dddde8774800bec22&#45;&gt;dir_921d680e936b75076e79072318538b88 -->
<g id="edge2" class="edge"><title>dir_62c6543fd4c42f1dddde8774800bec22&#45;&gt;dir_921d680e936b75076e79072318538b88</title>
<path fill="none" stroke="black" d="M48.3258,-143.697C45.2851,-135.813 41.6173,-126.304 38.2393,-117.546"/>
<polygon fill="black" stroke="black" points="41.4617,-116.175 34.5974,-108.104 34.9307,-118.694 41.4617,-116.175"/>
<g id="a_edge2&#45;headlabel"><a xlink:href="dir_000011_000084.html" target="_top" xlink:title="1">
<text text-anchor="middle" x="45.4043" y="-116.007" font-family="Helvetica,sans-Serif" font-size="10.00">1</text>
</a>
</g>
</g>
<!-- dir_8ee1a5e78eaec319fe5d64075812fc61 -->
<g id="node4" class="node"><title>dir_8ee1a5e78eaec319fe5d64075812fc61</title>
<g id="a_node4"><a xlink:href="dir_8ee1a5e78eaec319fe5d64075812fc61.html" target="_top" xlink:title="include">
<polygon fill="none" stroke="black" points="82,-36 28,-36 28,-0 82,-0 82,-36"/>
<text text-anchor="middle" x="55" y="-15.5" font-family="Helvetica,sans-Serif" font-size="10.00">include</text>
</a>
</g>
</g>
<!-- dir_62c6543fd4c42f1dddde8774800bec22&#45;&gt;dir_8ee1a5e78eaec319fe5d64075812fc61 -->
<g id="edge3" class="edge"><title>dir_62c6543fd4c42f1dddde8774800bec22&#45;&gt;dir_8ee1a5e78eaec319fe5d64075812fc61</title>
<path fill="none" stroke="black" d="M58.6538,-143.908C60.6758,-133.569 62.9808,-120.09 64,-108 65.3441,-92.0566 65.3441,-87.9434 64,-72 63.2834,-63.4991 61.9311,-54.3119 60.4884,-46.0122"/>
<polygon fill="black" stroke="black" points="63.9142,-45.2892 58.6538,-36.0925 57.0309,-46.5623 63.9142,-45.2892"/>
<g id="a_edge3&#45;headlabel"><a xlink:href="dir_000011_000001.html" target="_top" xlink:title="5">
<text text-anchor="middle" x="67.3597" y="-45.8075" font-family="Helvetica,sans-Serif" font-size="10.00">5</text>
</a>
</g>
</g>
<!-- dir_921d680e936b75076e79072318538b88&#45;&gt;dir_8ee1a5e78eaec319fe5d64075812fc61 -->
<g id="edge1" class="edge"><title>dir_921d680e936b75076e79072318538b88&#45;&gt;dir_8ee1a5e78eaec319fe5d64075812fc61</title>
<path fill="none" stroke="black" d="M34.6742,-71.6966C37.7149,-63.8132 41.3827,-54.3042 44.7607,-45.5464"/>
<polygon fill="black" stroke="black" points="48.0693,-46.6939 48.4026,-36.1043 41.5383,-44.1748 48.0693,-46.6939"/>
<g id="a_edge1&#45;headlabel"><a xlink:href="dir_000084_000001.html" target="_top" xlink:title="11">
<text text-anchor="middle" x="49.4248" y="-48.5695" font-family="Helvetica,sans-Serif" font-size="10.00">11</text>
</a>
</g>
</g>
</g>
</svg>
