<?xml version="1.0" encoding="UTF-8" standalone="no"?>
<!DOCTYPE svg PUBLIC "-//W3C//DTD SVG 1.1//EN"
 "http://www.w3.org/Graphics/SVG/1.1/DTD/svg11.dtd">
<!-- Generated by graphviz version 2.30.1 (20130221.2233)
 -->
<!-- Title: source/portable/MSVC&#45;MingW Pages: 1 -->
<svg width="120pt" height="223pt"
 viewBox="0.00 0.00 120.00 223.00" xmlns="http://www.w3.org/2000/svg" xmlns:xlink="http://www.w3.org/1999/xlink">
<g id="graph0" class="graph" transform="scale(1 1) rotate(0) translate(4 219)">
<title>source/portable/MSVC&#45;MingW</title>
<polygon fill="white" stroke="white" points="-4,5 -4,-219 117,-219 117,5 -4,5"/>
<g id="clust1" class="cluster"><title>clusterdir_a3bc36d27ac900b14f04c9e2c43db8b5</title>
<g id="a_clust1"><a xlink:href="dir_a3bc36d27ac900b14f04c9e2c43db8b5.html" target="_top" xlink:title="portable">
<polygon fill="#ddddee" stroke="black" points="8,-136 8,-207 104,-207 104,-136 8,-136"/>
<text text-anchor="middle" x="56" y="-195" font-family="Helvetica,sans-Serif" font-size="10.00">portable</text>
</a>
</g>
</g>
<!-- dir_cd1c2b5cc00414c9b21b7bc0f26bc6fc -->
<g id="node1" class="node"><title>dir_cd1c2b5cc00414c9b21b7bc0f26bc6fc</title>
<g id="a_node1"><a xlink:href="dir_cd1c2b5cc00414c9b21b7bc0f26bc6fc.html" target="_top" xlink:title="MSVC&#45;MingW">
<polygon fill="#eeeeff" stroke="black" points="96,-180 16,-180 16,-144 96,-144 96,-180"/>
<text text-anchor="middle" x="56" y="-159.5" font-family="Helvetica,sans-Serif" font-size="10.00">MSVC&#45;MingW</text>
</a>
</g>
</g>
<!-- dir_921d680e936b75076e79072318538b88 -->
<g id="node2" class="node"><title>dir_921d680e936b75076e79072318538b88</title>
<g id="a_node2"><a xlink:href="dir_921d680e936b75076e79072318538b88.html" target="_top" xlink:title="MPLAB">
<polygon fill="white" stroke="red" points="56,-108 2,-108 2,-72 56,-72 56,-108"/>
<text text-anchor="middle" x="29" y="-87.5" font-family="Helvetica,sans-Serif" font-size="10.00">MPLAB</text>
</a>
</g>
</g>
<!-- dir_cd1c2b5cc00414c9b21b7bc0f26bc6fc&#45;&gt;dir_921d680e936b75076e79072318538b88 -->
<g id="edge2" class="edge"><title>dir_cd1c2b5cc00414c9b21b7bc0f26bc6fc&#45;&gt;dir_921d680e936b75076e79072318538b88</title>
<path fill="none" stroke="black" d="M49.3258,-143.697C46.2851,-135.813 42.6173,-126.304 39.2393,-117.546"/>
<polygon fill="black" stroke="black" points="42.4617,-116.175 35.5974,-108.104 35.9307,-118.694 42.4617,-116.175"/>
<g id="a_edge2&#45;headlabel"><a xlink:href="dir_000090_000084.html" target="_top" xlink:title="1">
<text text-anchor="middle" x="46.4043" y="-116.007" font-family="Helvetica,sans-Serif" font-size="10.00">1</text>
</a>
</g>
</g>
<!-- dir_8ee1a5e78eaec319fe5d64075812fc61 -->
<g id="node3" class="node"><title>dir_8ee1a5e78eaec319fe5d64075812fc61</title>
<g id="a_node3"><a xlink:href="dir_8ee1a5e78eaec319fe5d64075812fc61.html" target="_top" xlink:title="include">
<polygon fill="none" stroke="black" points="83,-36 29,-36 29,-0 83,-0 83,-36"/>
<text text-anchor="middle" x="56" y="-15.5" font-family="Helvetica,sans-Serif" font-size="10.00">include</text>
</a>
</g>
</g>
<!-- dir_cd1c2b5cc00414c9b21b7bc0f26bc6fc&#45;&gt;dir_8ee1a5e78eaec319fe5d64075812fc61 -->
<g id="edge3" class="edge"><title>dir_cd1c2b5cc00414c9b21b7bc0f26bc6fc&#45;&gt;dir_8ee1a5e78eaec319fe5d64075812fc61</title>
<path fill="none" stroke="black" d="M59.6538,-143.908C61.6758,-133.569 63.9808,-120.09 65,-108 66.3441,-92.0566 66.3441,-87.9434 65,-72 64.2834,-63.4991 62.9311,-54.3119 61.4884,-46.0122"/>
<polygon fill="black" stroke="black" points="64.9142,-45.2892 59.6538,-36.0925 58.0309,-46.5623 64.9142,-45.2892"/>
<g id="a_edge3&#45;headlabel"><a xlink:href="dir_000090_000001.html" target="_top" xlink:title="2">
<text text-anchor="middle" x="68.3597" y="-45.8075" font-family="Helvetica,sans-Serif" font-size="10.00">2</text>
</a>
</g>
</g>
<!-- dir_921d680e936b75076e79072318538b88&#45;&gt;dir_8ee1a5e78eaec319fe5d64075812fc61 -->
<g id="edge1" class="edge"><title>dir_921d680e936b75076e79072318538b88&#45;&gt;dir_8ee1a5e78eaec319fe5d64075812fc61</title>
<path fill="none" stroke="black" d="M35.6742,-71.6966C38.7149,-63.8132 42.3827,-54.3042 45.7607,-45.5464"/>
<polygon fill="black" stroke="black" points="49.0693,-46.6939 49.4026,-36.1043 42.5383,-44.1748 49.0693,-46.6939"/>
<g id="a_edge1&#45;headlabel"><a xlink:href="dir_000084_000001.html" target="_top" xlink:title="11">
<text text-anchor="middle" x="50.4248" y="-48.5695" font-family="Helvetica,sans-Serif" font-size="10.00">11</text>
</a>
</g>
</g>
</g>
</svg>
