<?xml version="1.0" encoding="UTF-8" standalone="no"?>
<!DOCTYPE svg PUBLIC "-//W3C//DTD SVG 1.1//EN"
 "http://www.w3.org/Graphics/SVG/1.1/DTD/svg11.dtd">
<!-- Generated by graphviz version 2.30.1 (20130221.2233)
 -->
<!-- Title: source/portable/WizC/PIC18 Pages: 1 -->
<svg width="182pt" height="159pt"
 viewBox="0.00 0.00 182.00 159.00" xmlns="http://www.w3.org/2000/svg" xmlns:xlink="http://www.w3.org/1999/xlink">
<g id="graph0" class="graph" transform="scale(1 1) rotate(0) translate(4 155)">
<title>source/portable/WizC/PIC18</title>
<polygon fill="white" stroke="white" points="-4,5 -4,-155 179,-155 179,5 -4,5"/>
<g id="clust1" class="cluster"><title>clusterdir_9b362e6cebf19796f7023c0c6c7eaea3</title>
<g id="a_clust1"><a xlink:href="dir_9b362e6cebf19796f7023c0c6c7eaea3.html" target="_top" xlink:title="WizC">
<polygon fill="#ddddee" stroke="black" points="8,-56 8,-143 166,-143 166,-56 8,-56"/>
<text text-anchor="middle" x="87" y="-131" font-family="Helvetica,sans-Serif" font-size="10.00">WizC</text>
</a>
</g>
</g>
<g id="clust2" class="cluster"><title>clusterdir_8528fa2f43046e4b2897f168c176a059</title>
<g id="a_clust2"><a xlink:href="dir_8528fa2f43046e4b2897f168c176a059.html" target="_top">
<polygon fill="#eeeeff" stroke="black" points="16,-64 16,-116 158,-116 158,-64 16,-64"/>
</a>
</g>
</g>
<!-- dir_8528fa2f43046e4b2897f168c176a059 -->
<g id="node1" class="node"><title>dir_8528fa2f43046e4b2897f168c176a059</title>
<text text-anchor="middle" x="123" y="-87.5" font-family="Helvetica,sans-Serif" font-size="10.00">PIC18</text>
</g>
<!-- dir_8ee1a5e78eaec319fe5d64075812fc61 -->
<g id="node3" class="node"><title>dir_8ee1a5e78eaec319fe5d64075812fc61</title>
<g id="a_node3"><a xlink:href="dir_8ee1a5e78eaec319fe5d64075812fc61.html" target="_top" xlink:title="include">
<polygon fill="none" stroke="black" points="114,-36 60,-36 60,-0 114,-0 114,-36"/>
<text text-anchor="middle" x="87" y="-15.5" font-family="Helvetica,sans-Serif" font-size="10.00">include</text>
</a>
</g>
</g>
<!-- dir_8528fa2f43046e4b2897f168c176a059&#45;&gt;dir_8ee1a5e78eaec319fe5d64075812fc61 -->
<g id="edge2" class="edge"><title>dir_8528fa2f43046e4b2897f168c176a059&#45;&gt;dir_8ee1a5e78eaec319fe5d64075812fc61</title>
<path fill="none" stroke="black" d="M114.101,-71.6966C110.003,-63.7284 105.051,-54.0995 100.507,-45.2641"/>
<polygon fill="black" stroke="black" points="103.483,-43.3965 95.7965,-36.1043 97.2575,-46.598 103.483,-43.3965"/>
<g id="a_edge2&#45;headlabel"><a xlink:href="dir_000115_000001.html" target="_top" xlink:title="4">
<text text-anchor="middle" x="107.651" y="-42.7946" font-family="Helvetica,sans-Serif" font-size="10.00">4</text>
</a>
</g>
</g>
<!-- dir_f400d61bb7b055f83852f0309edd3053 -->
<g id="node2" class="node"><title>dir_f400d61bb7b055f83852f0309edd3053</title>
<g id="a_node2"><a xlink:href="dir_f400d61bb7b055f83852f0309edd3053.html" target="_top" xlink:title="Drivers">
<polygon fill="white" stroke="red" points="78,-108 24,-108 24,-72 78,-72 78,-108"/>
<text text-anchor="middle" x="51" y="-87.5" font-family="Helvetica,sans-Serif" font-size="10.00">Drivers</text>
</a>
</g>
</g>
<!-- dir_f400d61bb7b055f83852f0309edd3053&#45;&gt;dir_8ee1a5e78eaec319fe5d64075812fc61 -->
<g id="edge1" class="edge"><title>dir_f400d61bb7b055f83852f0309edd3053&#45;&gt;dir_8ee1a5e78eaec319fe5d64075812fc61</title>
<path fill="none" stroke="black" d="M59.8989,-71.6966C63.9968,-63.7284 68.9488,-54.0995 73.4927,-45.2641"/>
<polygon fill="black" stroke="black" points="76.7425,-46.598 78.2035,-36.1043 70.5174,-43.3965 76.7425,-46.598"/>
<g id="a_edge1&#45;headlabel"><a xlink:href="dir_000118_000001.html" target="_top" xlink:title="2">
<text text-anchor="middle" x="77.6235" y="-48.5931" font-family="Helvetica,sans-Serif" font-size="10.00">2</text>
</a>
</g>
</g>
</g>
</svg>
