<?xml version="1.0" encoding="UTF-8" standalone="no"?>
<!DOCTYPE svg PUBLIC "-//W3C//DTD SVG 1.1//EN"
 "http://www.w3.org/Graphics/SVG/1.1/DTD/svg11.dtd">
<!-- Generated by graphviz version 2.30.1 (20130221.2233)
 -->
<!-- Title: source/portable/MPLAB Pages: 1 -->
<svg width="539pt" height="159pt"
 viewBox="0.00 0.00 539.00 159.00" xmlns="http://www.w3.org/2000/svg" xmlns:xlink="http://www.w3.org/1999/xlink">
<g id="graph0" class="graph" transform="scale(1 1) rotate(0) translate(4 155)">
<title>source/portable/MPLAB</title>
<polygon fill="white" stroke="white" points="-4,5 -4,-155 536,-155 536,5 -4,5"/>
<g id="clust1" class="cluster"><title>clusterdir_a3bc36d27ac900b14f04c9e2c43db8b5</title>
<g id="a_clust1"><a xlink:href="dir_a3bc36d27ac900b14f04c9e2c43db8b5.html" target="_top" xlink:title="portable">
<polygon fill="#ddddee" stroke="black" points="8,-56 8,-143 523,-143 523,-56 8,-56"/>
<text text-anchor="middle" x="265.5" y="-131" font-family="Helvetica,sans-Serif" font-size="10.00">portable</text>
</a>
</g>
</g>
<g id="clust2" class="cluster"><title>clusterdir_921d680e936b75076e79072318538b88</title>
<g id="a_clust2"><a xlink:href="dir_921d680e936b75076e79072318538b88.html" target="_top">
<polygon fill="#eeeeff" stroke="black" points="16,-64 16,-116 515,-116 515,-64 16,-64"/>
</a>
</g>
</g>
<!-- dir_921d680e936b75076e79072318538b88 -->
<g id="node1" class="node"><title>dir_921d680e936b75076e79072318538b88</title>
<text text-anchor="middle" x="480" y="-87.5" font-family="Helvetica,sans-Serif" font-size="10.00">MPLAB</text>
</g>
<!-- dir_ce7a1a1be596832a7e653f32ab413fe9 -->
<g id="node2" class="node"><title>dir_ce7a1a1be596832a7e653f32ab413fe9</title>
<g id="a_node2"><a xlink:href="dir_ce7a1a1be596832a7e653f32ab413fe9.html" target="_top" xlink:title="PIC18F">
<polygon fill="white" stroke="black" points="435,-108 381,-108 381,-72 435,-72 435,-108"/>
<text text-anchor="middle" x="408" y="-87.5" font-family="Helvetica,sans-Serif" font-size="10.00">PIC18F</text>
</a>
</g>
</g>
<!-- dir_8ee1a5e78eaec319fe5d64075812fc61 -->
<g id="node7" class="node"><title>dir_8ee1a5e78eaec319fe5d64075812fc61</title>
<g id="a_node7"><a xlink:href="dir_8ee1a5e78eaec319fe5d64075812fc61.html" target="_top" xlink:title="include">
<polygon fill="none" stroke="black" points="250,-36 196,-36 196,-0 250,-0 250,-36"/>
<text text-anchor="middle" x="223" y="-15.5" font-family="Helvetica,sans-Serif" font-size="10.00">include</text>
</a>
</g>
</g>
<!-- dir_ce7a1a1be596832a7e653f32ab413fe9&#45;&gt;dir_8ee1a5e78eaec319fe5d64075812fc61 -->
<g id="edge2" class="edge"><title>dir_ce7a1a1be596832a7e653f32ab413fe9&#45;&gt;dir_8ee1a5e78eaec319fe5d64075812fc61</title>
<path fill="none" stroke="black" d="M392.366,-71.9993C386.21,-66.1787 378.76,-60.1059 371,-56 335.875,-37.4158 291.085,-27.9061 260.024,-23.2176"/>
<polygon fill="black" stroke="black" points="260.442,-19.742 250.05,-21.8063 259.461,-26.673 260.442,-19.742"/>
<g id="a_edge2&#45;headlabel"><a xlink:href="dir_000085_000001.html" target="_top" xlink:title="3">
<text text-anchor="middle" x="264.399" y="-14.9343" font-family="Helvetica,sans-Serif" font-size="10.00">3</text>
</a>
</g>
</g>
<!-- dir_5474571d8ac80198746e843d229a935c -->
<g id="node3" class="node"><title>dir_5474571d8ac80198746e843d229a935c</title>
<g id="a_node3"><a xlink:href="dir_5474571d8ac80198746e843d229a935c.html" target="_top" xlink:title="PIC24_dsPIC">
<polygon fill="white" stroke="black" points="362.25,-108 285.75,-108 285.75,-72 362.25,-72 362.25,-108"/>
<text text-anchor="middle" x="324" y="-87.5" font-family="Helvetica,sans-Serif" font-size="10.00">PIC24_dsPIC</text>
</a>
</g>
</g>
<!-- dir_5474571d8ac80198746e843d229a935c&#45;&gt;dir_8ee1a5e78eaec319fe5d64075812fc61 -->
<g id="edge4" class="edge"><title>dir_5474571d8ac80198746e843d229a935c&#45;&gt;dir_8ee1a5e78eaec319fe5d64075812fc61</title>
<path fill="none" stroke="black" d="M299.293,-71.8761C286.331,-62.8931 270.272,-51.7625 256.235,-42.0341"/>
<polygon fill="black" stroke="black" points="258.015,-39.0095 247.802,-36.1898 254.028,-44.7628 258.015,-39.0095"/>
<g id="a_edge4&#45;headlabel"><a xlink:href="dir_000086_000001.html" target="_top" xlink:title="2">
<text text-anchor="middle" x="262.587" y="-36.2235" font-family="Helvetica,sans-Serif" font-size="10.00">2</text>
</a>
</g>
</g>
<!-- dir_ae79d22af288ff949ac2459fb96e1081 -->
<g id="node4" class="node"><title>dir_ae79d22af288ff949ac2459fb96e1081</title>
<g id="a_node4"><a xlink:href="dir_ae79d22af288ff949ac2459fb96e1081.html" target="_top" xlink:title="PIC32MEC14xx">
<polygon fill="white" stroke="black" points="267,-108 179,-108 179,-72 267,-72 267,-108"/>
<text text-anchor="middle" x="223" y="-87.5" font-family="Helvetica,sans-Serif" font-size="10.00">PIC32MEC14xx</text>
</a>
</g>
</g>
<!-- dir_ae79d22af288ff949ac2459fb96e1081&#45;&gt;dir_8ee1a5e78eaec319fe5d64075812fc61 -->
<g id="edge3" class="edge"><title>dir_ae79d22af288ff949ac2459fb96e1081&#45;&gt;dir_8ee1a5e78eaec319fe5d64075812fc61</title>
<path fill="none" stroke="black" d="M223,-71.6966C223,-63.9827 223,-54.7125 223,-46.1124"/>
<polygon fill="black" stroke="black" points="226.5,-46.1043 223,-36.1043 219.5,-46.1044 226.5,-46.1043"/>
<g id="a_edge3&#45;headlabel"><a xlink:href="dir_000087_000001.html" target="_top" xlink:title="2">
<text text-anchor="middle" x="229.339" y="-47.199" font-family="Helvetica,sans-Serif" font-size="10.00">2</text>
</a>
</g>
</g>
<!-- dir_05e52e83481898a066856722405ec291 -->
<g id="node5" class="node"><title>dir_05e52e83481898a066856722405ec291</title>
<g id="a_node5"><a xlink:href="dir_05e52e83481898a066856722405ec291.html" target="_top" xlink:title="PIC32MX">
<polygon fill="white" stroke="black" points="160.25,-108 101.75,-108 101.75,-72 160.25,-72 160.25,-108"/>
<text text-anchor="middle" x="131" y="-87.5" font-family="Helvetica,sans-Serif" font-size="10.00">PIC32MX</text>
</a>
</g>
</g>
<!-- dir_05e52e83481898a066856722405ec291&#45;&gt;dir_8ee1a5e78eaec319fe5d64075812fc61 -->
<g id="edge1" class="edge"><title>dir_05e52e83481898a066856722405ec291&#45;&gt;dir_8ee1a5e78eaec319fe5d64075812fc61</title>
<path fill="none" stroke="black" d="M150.548,-71.8494C156.677,-66.6378 163.533,-60.9762 170,-56 176.053,-51.3422 182.634,-46.5457 189.034,-42.0135"/>
<polygon fill="black" stroke="black" points="191.394,-44.6342 197.583,-36.035 187.382,-38.8978 191.394,-44.6342"/>
<g id="a_edge1&#45;headlabel"><a xlink:href="dir_000088_000001.html" target="_top" xlink:title="2">
<text text-anchor="middle" x="190.075" y="-46.521" font-family="Helvetica,sans-Serif" font-size="10.00">2</text>
</a>
</g>
</g>
<!-- dir_d6703bbd0d619f62b280b6fb22aaf144 -->
<g id="node6" class="node"><title>dir_d6703bbd0d619f62b280b6fb22aaf144</title>
<g id="a_node6"><a xlink:href="dir_d6703bbd0d619f62b280b6fb22aaf144.html" target="_top" xlink:title="PIC32MZ">
<polygon fill="white" stroke="black" points="83.25,-108 24.75,-108 24.75,-72 83.25,-72 83.25,-108"/>
<text text-anchor="middle" x="54" y="-87.5" font-family="Helvetica,sans-Serif" font-size="10.00">PIC32MZ</text>
</a>
</g>
</g>
<!-- dir_d6703bbd0d619f62b280b6fb22aaf144&#45;&gt;dir_8ee1a5e78eaec319fe5d64075812fc61 -->
<g id="edge5" class="edge"><title>dir_d6703bbd0d619f62b280b6fb22aaf144&#45;&gt;dir_8ee1a5e78eaec319fe5d64075812fc61</title>
<path fill="none" stroke="black" d="M71.0772,-71.8204C77.5102,-66.1205 85.1732,-60.1724 93,-56 122.249,-40.4076 158.798,-30.7575 185.687,-25.2392"/>
<polygon fill="black" stroke="black" points="186.701,-28.6074 195.845,-23.2558 185.359,-21.7372 186.701,-28.6074"/>
<g id="a_edge5&#45;headlabel"><a xlink:href="dir_000089_000001.html" target="_top" xlink:title="2">
<text text-anchor="middle" x="183.717" y="-29.5829" font-family="Helvetica,sans-Serif" font-size="10.00">2</text>
</a>
</g>
</g>
</g>
</svg>
