<?xml version="1.0" encoding="UTF-8" standalone="no"?>
<!DOCTYPE svg PUBLIC "-//W3C//DTD SVG 1.1//EN"
 "http://www.w3.org/Graphics/SVG/1.1/DTD/svg11.dtd">
<!-- Generated by graphviz version 2.30.1 (20130221.2233)
 -->
<!-- Title: source/portable/GCC/ARM7_LPC2000 Pages: 1 -->
<svg width="132pt" height="151pt"
 viewBox="0.00 0.00 132.00 151.00" xmlns="http://www.w3.org/2000/svg" xmlns:xlink="http://www.w3.org/1999/xlink">
<g id="graph0" class="graph" transform="scale(1 1) rotate(0) translate(4 147)">
<title>source/portable/GCC/ARM7_LPC2000</title>
<polygon fill="white" stroke="white" points="-4,5 -4,-147 129,-147 129,5 -4,5"/>
<g id="clust1" class="cluster"><title>clusterdir_d4458967a3e0f1422a9a5cc862ecde1d</title>
<g id="a_clust1"><a xlink:href="dir_d4458967a3e0f1422a9a5cc862ecde1d.html" target="_top" xlink:title="GCC">
<polygon fill="#ddddee" stroke="black" points="8,-64 8,-135 116,-135 116,-64 8,-64"/>
<text text-anchor="middle" x="62" y="-123" font-family="Helvetica,sans-Serif" font-size="10.00">GCC</text>
</a>
</g>
</g>
<!-- dir_264cf1d5f6c1661653a1bfd8782e178e -->
<g id="node1" class="node"><title>dir_264cf1d5f6c1661653a1bfd8782e178e</title>
<g id="a_node1"><a xlink:href="dir_264cf1d5f6c1661653a1bfd8782e178e.html" target="_top" xlink:title="ARM7_LPC2000">
<polygon fill="#eeeeff" stroke="black" points="108,-108 16,-108 16,-72 108,-72 108,-108"/>
<text text-anchor="middle" x="62" y="-87.5" font-family="Helvetica,sans-Serif" font-size="10.00">ARM7_LPC2000</text>
</a>
</g>
</g>
<!-- dir_8ee1a5e78eaec319fe5d64075812fc61 -->
<g id="node2" class="node"><title>dir_8ee1a5e78eaec319fe5d64075812fc61</title>
<g id="a_node2"><a xlink:href="dir_8ee1a5e78eaec319fe5d64075812fc61.html" target="_top" xlink:title="include">
<polygon fill="none" stroke="black" points="89,-36 35,-36 35,-0 89,-0 89,-36"/>
<text text-anchor="middle" x="62" y="-15.5" font-family="Helvetica,sans-Serif" font-size="10.00">include</text>
</a>
</g>
</g>
<!-- dir_264cf1d5f6c1661653a1bfd8782e178e&#45;&gt;dir_8ee1a5e78eaec319fe5d64075812fc61 -->
<g id="edge1" class="edge"><title>dir_264cf1d5f6c1661653a1bfd8782e178e&#45;&gt;dir_8ee1a5e78eaec319fe5d64075812fc61</title>
<path fill="none" stroke="black" d="M62,-71.6966C62,-63.9827 62,-54.7125 62,-46.1124"/>
<polygon fill="black" stroke="black" points="65.5001,-46.1043 62,-36.1043 58.5001,-46.1044 65.5001,-46.1043"/>
<g id="a_edge1&#45;headlabel"><a xlink:href="dir_000032_000001.html" target="_top" xlink:title="3">
<text text-anchor="middle" x="68.3393" y="-47.199" font-family="Helvetica,sans-Serif" font-size="10.00">3</text>
</a>
</g>
</g>
</g>
</svg>
