<?xml version="1.0" encoding="UTF-8" standalone="no"?>
<!DOCTYPE svg PUBLIC "-//W3C//DTD SVG 1.1//EN"
 "http://www.w3.org/Graphics/SVG/1.1/DTD/svg11.dtd">
<!-- Generated by graphviz version 2.30.1 (20130221.2233)
 -->
<!-- Title: source/portable/Renesas/SH2A_FPU Pages: 1 -->
<svg width="108pt" height="151pt"
 viewBox="0.00 0.00 108.00 151.00" xmlns="http://www.w3.org/2000/svg" xmlns:xlink="http://www.w3.org/1999/xlink">
<g id="graph0" class="graph" transform="scale(1 1) rotate(0) translate(4 147)">
<title>source/portable/Renesas/SH2A_FPU</title>
<polygon fill="white" stroke="white" points="-4,5 -4,-147 105,-147 105,5 -4,5"/>
<g id="clust1" class="cluster"><title>clusterdir_4b4ea31bef69a66620816b1d75301e40</title>
<g id="a_clust1"><a xlink:href="dir_4b4ea31bef69a66620816b1d75301e40.html" target="_top" xlink:title="Renesas">
<polygon fill="#ddddee" stroke="black" points="8,-64 8,-135 92,-135 92,-64 8,-64"/>
<text text-anchor="middle" x="50" y="-123" font-family="Helvetica,sans-Serif" font-size="10.00">Renesas</text>
</a>
</g>
</g>
<!-- dir_dd0b0b2d843fbb3b1f2965f9de50a2ff -->
<g id="node1" class="node"><title>dir_dd0b0b2d843fbb3b1f2965f9de50a2ff</title>
<g id="a_node1"><a xlink:href="dir_dd0b0b2d843fbb3b1f2965f9de50a2ff.html" target="_top" xlink:title="SH2A_FPU">
<polygon fill="#eeeeff" stroke="black" points="84,-108 16,-108 16,-72 84,-72 84,-108"/>
<text text-anchor="middle" x="50" y="-87.5" font-family="Helvetica,sans-Serif" font-size="10.00">SH2A_FPU</text>
</a>
</g>
</g>
<!-- dir_8ee1a5e78eaec319fe5d64075812fc61 -->
<g id="node2" class="node"><title>dir_8ee1a5e78eaec319fe5d64075812fc61</title>
<g id="a_node2"><a xlink:href="dir_8ee1a5e78eaec319fe5d64075812fc61.html" target="_top" xlink:title="include">
<polygon fill="none" stroke="black" points="77,-36 23,-36 23,-0 77,-0 77,-36"/>
<text text-anchor="middle" x="50" y="-15.5" font-family="Helvetica,sans-Serif" font-size="10.00">include</text>
</a>
</g>
</g>
<!-- dir_dd0b0b2d843fbb3b1f2965f9de50a2ff&#45;&gt;dir_8ee1a5e78eaec319fe5d64075812fc61 -->
<g id="edge1" class="edge"><title>dir_dd0b0b2d843fbb3b1f2965f9de50a2ff&#45;&gt;dir_8ee1a5e78eaec319fe5d64075812fc61</title>
<path fill="none" stroke="black" d="M50,-71.6966C50,-63.9827 50,-54.7125 50,-46.1124"/>
<polygon fill="black" stroke="black" points="53.5001,-46.1043 50,-36.1043 46.5001,-46.1044 53.5001,-46.1043"/>
<g id="a_edge1&#45;headlabel"><a xlink:href="dir_000098_000001.html" target="_top" xlink:title="2">
<text text-anchor="middle" x="56.3393" y="-47.199" font-family="Helvetica,sans-Serif" font-size="10.00">2</text>
</a>
</g>
</g>
</g>
</svg>
