<?xml version="1.0" encoding="UTF-8" standalone="no"?>
<!DOCTYPE svg PUBLIC "-//W3C//DTD SVG 1.1//EN"
 "http://www.w3.org/Graphics/SVG/1.1/DTD/svg11.dtd">
<!-- Generated by graphviz version 2.30.1 (20130221.2233)
 -->
<!-- Title: source/portable/Softune Pages: 1 -->
<svg width="265pt" height="159pt"
 viewBox="0.00 0.00 265.00 159.00" xmlns="http://www.w3.org/2000/svg" xmlns:xlink="http://www.w3.org/1999/xlink">
<g id="graph0" class="graph" transform="scale(1 1) rotate(0) translate(4 155)">
<title>source/portable/Softune</title>
<polygon fill="white" stroke="white" points="-4,5 -4,-155 262,-155 262,5 -4,5"/>
<g id="clust1" class="cluster"><title>clusterdir_a3bc36d27ac900b14f04c9e2c43db8b5</title>
<g id="a_clust1"><a xlink:href="dir_a3bc36d27ac900b14f04c9e2c43db8b5.html" target="_top" xlink:title="portable">
<polygon fill="#ddddee" stroke="black" points="8,-56 8,-143 249,-143 249,-56 8,-56"/>
<text text-anchor="middle" x="128.5" y="-131" font-family="Helvetica,sans-Serif" font-size="10.00">portable</text>
</a>
</g>
</g>
<g id="clust2" class="cluster"><title>clusterdir_fb147759ce0c3092d3b39e4310930cf1</title>
<g id="a_clust2"><a xlink:href="dir_fb147759ce0c3092d3b39e4310930cf1.html" target="_top">
<polygon fill="#eeeeff" stroke="black" points="16,-64 16,-116 241,-116 241,-64 16,-64"/>
</a>
</g>
</g>
<!-- dir_fb147759ce0c3092d3b39e4310930cf1 -->
<g id="node1" class="node"><title>dir_fb147759ce0c3092d3b39e4310930cf1</title>
<text text-anchor="middle" x="206" y="-87.5" font-family="Helvetica,sans-Serif" font-size="10.00">Softune</text>
</g>
<!-- dir_b1aba007fbde65d8e4ee0de24183b974 -->
<g id="node2" class="node"><title>dir_b1aba007fbde65d8e4ee0de24183b974</title>
<g id="a_node2"><a xlink:href="dir_b1aba007fbde65d8e4ee0de24183b974.html" target="_top" xlink:title="MB91460">
<polygon fill="white" stroke="black" points="160.25,-108 101.75,-108 101.75,-72 160.25,-72 160.25,-108"/>
<text text-anchor="middle" x="131" y="-87.5" font-family="Helvetica,sans-Serif" font-size="10.00">MB91460</text>
</a>
</g>
</g>
<!-- dir_8ee1a5e78eaec319fe5d64075812fc61 -->
<g id="node4" class="node"><title>dir_8ee1a5e78eaec319fe5d64075812fc61</title>
<g id="a_node4"><a xlink:href="dir_8ee1a5e78eaec319fe5d64075812fc61.html" target="_top" xlink:title="include">
<polygon fill="none" stroke="black" points="119,-36 65,-36 65,-0 119,-0 119,-36"/>
<text text-anchor="middle" x="92" y="-15.5" font-family="Helvetica,sans-Serif" font-size="10.00">include</text>
</a>
</g>
</g>
<!-- dir_b1aba007fbde65d8e4ee0de24183b974&#45;&gt;dir_8ee1a5e78eaec319fe5d64075812fc61 -->
<g id="edge2" class="edge"><title>dir_b1aba007fbde65d8e4ee0de24183b974&#45;&gt;dir_8ee1a5e78eaec319fe5d64075812fc61</title>
<path fill="none" stroke="black" d="M121.36,-71.6966C116.873,-63.6436 111.441,-53.8945 106.476,-44.9824"/>
<polygon fill="black" stroke="black" points="109.454,-43.1366 101.53,-36.1043 103.339,-46.5435 109.454,-43.1366"/>
<g id="a_edge2&#45;headlabel"><a xlink:href="dir_000110_000001.html" target="_top" xlink:title="2">
<text text-anchor="middle" x="113.684" y="-42.3948" font-family="Helvetica,sans-Serif" font-size="10.00">2</text>
</a>
</g>
</g>
<!-- dir_795fb1a8c68b87aeb6d5d5d5663ca35b -->
<g id="node3" class="node"><title>dir_795fb1a8c68b87aeb6d5d5d5663ca35b</title>
<g id="a_node3"><a xlink:href="dir_795fb1a8c68b87aeb6d5d5d5663ca35b.html" target="_top" xlink:title="MB96340">
<polygon fill="white" stroke="black" points="83.25,-108 24.75,-108 24.75,-72 83.25,-72 83.25,-108"/>
<text text-anchor="middle" x="54" y="-87.5" font-family="Helvetica,sans-Serif" font-size="10.00">MB96340</text>
</a>
</g>
</g>
<!-- dir_795fb1a8c68b87aeb6d5d5d5663ca35b&#45;&gt;dir_8ee1a5e78eaec319fe5d64075812fc61 -->
<g id="edge1" class="edge"><title>dir_795fb1a8c68b87aeb6d5d5d5663ca35b&#45;&gt;dir_8ee1a5e78eaec319fe5d64075812fc61</title>
<path fill="none" stroke="black" d="M63.3933,-71.6966C67.7649,-63.6436 73.0573,-53.8945 77.8953,-44.9824"/>
<polygon fill="black" stroke="black" points="81.0198,-46.5627 82.7148,-36.1043 74.8678,-43.223 81.0198,-46.5627"/>
<g id="a_edge1&#45;headlabel"><a xlink:href="dir_000111_000001.html" target="_top" xlink:title="2">
<text text-anchor="middle" x="81.8002" y="-48.5764" font-family="Helvetica,sans-Serif" font-size="10.00">2</text>
</a>
</g>
</g>
</g>
</svg>
