<?xml version="1.0" encoding="UTF-8" standalone="no"?>
<!DOCTYPE svg PUBLIC "-//W3C//DTD SVG 1.1//EN"
 "http://www.w3.org/Graphics/SVG/1.1/DTD/svg11.dtd">
<!-- Generated by graphviz version 2.30.1 (20130221.2233)
 -->
<!-- Title: source/portable/GCC Pages: 1 -->
<svg width="3018pt" height="159pt"
 viewBox="0.00 0.00 3018.00 159.00" xmlns="http://www.w3.org/2000/svg" xmlns:xlink="http://www.w3.org/1999/xlink">
<g id="graph0" class="graph" transform="scale(1 1) rotate(0) translate(4 155)">
<title>source/portable/GCC</title>
<polygon fill="white" stroke="white" points="-4,5 -4,-155 3015,-155 3015,5 -4,5"/>
<g id="clust1" class="cluster"><title>clusterdir_a3bc36d27ac900b14f04c9e2c43db8b5</title>
<g id="a_clust1"><a xlink:href="dir_a3bc36d27ac900b14f04c9e2c43db8b5.html" target="_top" xlink:title="portable">
<polygon fill="#ddddee" stroke="black" points="8,-56 8,-143 3002,-143 3002,-56 8,-56"/>
<text text-anchor="middle" x="1505" y="-131" font-family="Helvetica,sans-Serif" font-size="10.00">portable</text>
</a>
</g>
</g>
<g id="clust2" class="cluster"><title>clusterdir_d4458967a3e0f1422a9a5cc862ecde1d</title>
<g id="a_clust2"><a xlink:href="dir_d4458967a3e0f1422a9a5cc862ecde1d.html" target="_top">
<polygon fill="#eeeeff" stroke="black" points="16,-64 16,-116 2994,-116 2994,-64 16,-64"/>
</a>
</g>
</g>
<!-- dir_d4458967a3e0f1422a9a5cc862ecde1d -->
<g id="node1" class="node"><title>dir_d4458967a3e0f1422a9a5cc862ecde1d</title>
<text text-anchor="middle" x="2959" y="-87.5" font-family="Helvetica,sans-Serif" font-size="10.00">GCC</text>
</g>
<!-- dir_bfc41f4d945cb63bdec458db901f763a -->
<g id="node2" class="node"><title>dir_bfc41f4d945cb63bdec458db901f763a</title>
<g id="a_node2"><a xlink:href="dir_bfc41f4d945cb63bdec458db901f763a.html" target="_top" xlink:title="ARM7_AT91FR40008">
<polygon fill="white" stroke="black" points="2913.25,-108 2798.75,-108 2798.75,-72 2913.25,-72 2913.25,-108"/>
<text text-anchor="middle" x="2856" y="-87.5" font-family="Helvetica,sans-Serif" font-size="10.00">ARM7_AT91FR40008</text>
</a>
</g>
</g>
<!-- dir_8ee1a5e78eaec319fe5d64075812fc61 -->
<g id="node34" class="node"><title>dir_8ee1a5e78eaec319fe5d64075812fc61</title>
<g id="a_node34"><a xlink:href="dir_8ee1a5e78eaec319fe5d64075812fc61.html" target="_top" xlink:title="include">
<polygon fill="none" stroke="black" points="1361,-36 1307,-36 1307,-0 1361,-0 1361,-36"/>
<text text-anchor="middle" x="1334" y="-15.5" font-family="Helvetica,sans-Serif" font-size="10.00">include</text>
</a>
</g>
</g>
<!-- dir_bfc41f4d945cb63bdec458db901f763a&#45;&gt;dir_8ee1a5e78eaec319fe5d64075812fc61 -->
<g id="edge27" class="edge"><title>dir_bfc41f4d945cb63bdec458db901f763a&#45;&gt;dir_8ee1a5e78eaec319fe5d64075812fc61</title>
<path fill="none" stroke="black" d="M2828.02,-71.8486C2816.39,-65.6281 2802.47,-59.3187 2789,-56 2647.85,-21.2282 1584.82,-19.0723 1371.29,-18.9918"/>
<polygon fill="black" stroke="black" points="1371.21,-15.4919 1361.21,-18.9894 1371.21,-22.4919 1371.21,-15.4919"/>
<g id="a_edge27&#45;headlabel"><a xlink:href="dir_000030_000001.html" target="_top" xlink:title="4">
<text text-anchor="middle" x="1374.81" y="-10.1534" font-family="Helvetica,sans-Serif" font-size="10.00">4</text>
</a>
</g>
</g>
<!-- dir_dba7ec70f42ba747aa8247885291f6b1 -->
<g id="node3" class="node"><title>dir_dba7ec70f42ba747aa8247885291f6b1</title>
<g id="a_node3"><a xlink:href="dir_dba7ec70f42ba747aa8247885291f6b1.html" target="_top" xlink:title="ARM7_AT91SAM7S">
<polygon fill="white" stroke="black" points="2780,-108 2672,-108 2672,-72 2780,-72 2780,-108"/>
<text text-anchor="middle" x="2726" y="-87.5" font-family="Helvetica,sans-Serif" font-size="10.00">ARM7_AT91SAM7S</text>
</a>
</g>
</g>
<!-- dir_dba7ec70f42ba747aa8247885291f6b1&#45;&gt;dir_8ee1a5e78eaec319fe5d64075812fc61 -->
<g id="edge28" class="edge"><title>dir_dba7ec70f42ba747aa8247885291f6b1&#45;&gt;dir_8ee1a5e78eaec319fe5d64075812fc61</title>
<path fill="none" stroke="black" d="M2699.81,-71.8649C2688.89,-65.6469 2675.78,-59.3347 2663,-56 2535.19,-22.6592 1573.39,-19.3601 1371.22,-19.0352"/>
<polygon fill="black" stroke="black" points="1371.11,-15.5352 1361.1,-19.0205 1371.1,-22.5352 1371.11,-15.5352"/>
<g id="a_edge28&#45;headlabel"><a xlink:href="dir_000031_000001.html" target="_top" xlink:title="4">
<text text-anchor="middle" x="1374.71" y="-10.201" font-family="Helvetica,sans-Serif" font-size="10.00">4</text>
</a>
</g>
</g>
<!-- dir_264cf1d5f6c1661653a1bfd8782e178e -->
<g id="node4" class="node"><title>dir_264cf1d5f6c1661653a1bfd8782e178e</title>
<g id="a_node4"><a xlink:href="dir_264cf1d5f6c1661653a1bfd8782e178e.html" target="_top" xlink:title="ARM7_LPC2000">
<polygon fill="white" stroke="black" points="2654,-108 2562,-108 2562,-72 2654,-72 2654,-108"/>
<text text-anchor="middle" x="2608" y="-87.5" font-family="Helvetica,sans-Serif" font-size="10.00">ARM7_LPC2000</text>
</a>
</g>
</g>
<!-- dir_264cf1d5f6c1661653a1bfd8782e178e&#45;&gt;dir_8ee1a5e78eaec319fe5d64075812fc61 -->
<g id="edge23" class="edge"><title>dir_264cf1d5f6c1661653a1bfd8782e178e&#45;&gt;dir_8ee1a5e78eaec319fe5d64075812fc61</title>
<path fill="none" stroke="black" d="M2585.41,-71.8848C2575.92,-65.6697 2564.43,-59.3543 2553,-56 2437.35,-22.0695 1563.08,-19.2265 1371.17,-19.0126"/>
<polygon fill="black" stroke="black" points="1371.03,-15.5125 1361.03,-19.003 1371.02,-22.5125 1371.03,-15.5125"/>
<g id="a_edge23&#45;headlabel"><a xlink:href="dir_000032_000001.html" target="_top" xlink:title="3">
<text text-anchor="middle" x="1374.63" y="-10.1765" font-family="Helvetica,sans-Serif" font-size="10.00">3</text>
</a>
</g>
</g>
<!-- dir_5e8610ed65da765c4cca39e7a037666c -->
<g id="node5" class="node"><title>dir_5e8610ed65da765c4cca39e7a037666c</title>
<g id="a_node5"><a xlink:href="dir_5e8610ed65da765c4cca39e7a037666c.html" target="_top" xlink:title="ARM7_LPC23xx">
<polygon fill="white" stroke="black" points="2544,-108 2454,-108 2454,-72 2544,-72 2544,-108"/>
<text text-anchor="middle" x="2499" y="-87.5" font-family="Helvetica,sans-Serif" font-size="10.00">ARM7_LPC23xx</text>
</a>
</g>
</g>
<!-- dir_5e8610ed65da765c4cca39e7a037666c&#45;&gt;dir_8ee1a5e78eaec319fe5d64075812fc61 -->
<g id="edge31" class="edge"><title>dir_5e8610ed65da765c4cca39e7a037666c&#45;&gt;dir_8ee1a5e78eaec319fe5d64075812fc61</title>
<path fill="none" stroke="black" d="M2476.86,-71.9028C2467.54,-65.6903 2456.26,-59.372 2445,-56 2340.43,-24.6903 1552.96,-19.823 1371.3,-19.1144"/>
<polygon fill="black" stroke="black" points="1371.19,-15.6141 1361.18,-19.0769 1371.17,-22.614 1371.19,-15.6141"/>
<g id="a_edge31&#45;headlabel"><a xlink:href="dir_000033_000001.html" target="_top" xlink:title="4">
<text text-anchor="middle" x="1374.8" y="-10.2881" font-family="Helvetica,sans-Serif" font-size="10.00">4</text>
</a>
</g>
</g>
<!-- dir_f199313a254ab6696b68f83ae194ecc3 -->
<g id="node6" class="node"><title>dir_f199313a254ab6696b68f83ae194ecc3</title>
<g id="a_node6"><a xlink:href="dir_f199313a254ab6696b68f83ae194ecc3.html" target="_top" xlink:title="ARM_CA9">
<polygon fill="white" stroke="black" points="2436,-108 2372,-108 2372,-72 2436,-72 2436,-108"/>
<text text-anchor="middle" x="2404" y="-87.5" font-family="Helvetica,sans-Serif" font-size="10.00">ARM_CA9</text>
</a>
</g>
</g>
<!-- dir_f199313a254ab6696b68f83ae194ecc3&#45;&gt;dir_8ee1a5e78eaec319fe5d64075812fc61 -->
<g id="edge11" class="edge"><title>dir_f199313a254ab6696b68f83ae194ecc3&#45;&gt;dir_8ee1a5e78eaec319fe5d64075812fc61</title>
<path fill="none" stroke="black" d="M2387.15,-71.7688C2380.02,-65.6181 2371.23,-59.3795 2362,-56 2267.65,-21.4563 1544.8,-19.0529 1371.33,-18.9769"/>
<polygon fill="black" stroke="black" points="1371.17,-15.4769 1361.17,-18.9749 1371.17,-22.4769 1371.17,-15.4769"/>
<g id="a_edge11&#45;headlabel"><a xlink:href="dir_000034_000001.html" target="_top" xlink:title="2">
<text text-anchor="middle" x="1374.77" y="-10.1383" font-family="Helvetica,sans-Serif" font-size="10.00">2</text>
</a>
</g>
</g>
<!-- dir_10b177132a179c88be9676b123be4ff7 -->
<g id="node7" class="node"><title>dir_10b177132a179c88be9676b123be4ff7</title>
<g id="a_node7"><a xlink:href="dir_10b177132a179c88be9676b123be4ff7.html" target="_top" xlink:title="ARM_CM0">
<polygon fill="white" stroke="black" points="2353.25,-108 2288.75,-108 2288.75,-72 2353.25,-72 2353.25,-108"/>
<text text-anchor="middle" x="2321" y="-87.5" font-family="Helvetica,sans-Serif" font-size="10.00">ARM_CM0</text>
</a>
</g>
</g>
<!-- dir_10b177132a179c88be9676b123be4ff7&#45;&gt;dir_8ee1a5e78eaec319fe5d64075812fc61 -->
<g id="edge26" class="edge"><title>dir_10b177132a179c88be9676b123be4ff7&#45;&gt;dir_8ee1a5e78eaec319fe5d64075812fc61</title>
<path fill="none" stroke="black" d="M2304.14,-71.7838C2297.01,-65.6352 2288.22,-59.3941 2279,-56 2192.87,-24.3099 1536.32,-19.7514 1371.46,-19.1052"/>
<polygon fill="black" stroke="black" points="1371.34,-15.6048 1361.32,-19.068 1371.31,-22.6047 1371.34,-15.6048"/>
<g id="a_edge26&#45;headlabel"><a xlink:href="dir_000035_000001.html" target="_top" xlink:title="2">
<text text-anchor="middle" x="1374.94" y="-10.2786" font-family="Helvetica,sans-Serif" font-size="10.00">2</text>
</a>
</g>
</g>
<!-- dir_d8271eba5a44f74311b78c9d0b13bf33 -->
<g id="node8" class="node"><title>dir_d8271eba5a44f74311b78c9d0b13bf33</title>
<g id="a_node8"><a xlink:href="dir_d8271eba5a44f74311b78c9d0b13bf33.html" target="_top" xlink:title="ARM_CM3">
<polygon fill="white" stroke="black" points="2270.25,-108 2205.75,-108 2205.75,-72 2270.25,-72 2270.25,-108"/>
<text text-anchor="middle" x="2238" y="-87.5" font-family="Helvetica,sans-Serif" font-size="10.00">ARM_CM3</text>
</a>
</g>
</g>
<!-- dir_d8271eba5a44f74311b78c9d0b13bf33&#45;&gt;dir_8ee1a5e78eaec319fe5d64075812fc61 -->
<g id="edge32" class="edge"><title>dir_d8271eba5a44f74311b78c9d0b13bf33&#45;&gt;dir_8ee1a5e78eaec319fe5d64075812fc61</title>
<path fill="none" stroke="black" d="M2221.13,-71.8017C2214,-65.6556 2205.22,-59.4114 2196,-56 2118.06,-27.1576 1527.46,-20.5161 1371.61,-19.2591"/>
<polygon fill="black" stroke="black" points="1371.18,-15.7557 1361.15,-19.1777 1371.13,-22.7555 1371.18,-15.7557"/>
<g id="a_edge32&#45;headlabel"><a xlink:href="dir_000036_000001.html" target="_top" xlink:title="2">
<text text-anchor="middle" x="1374.8" y="-10.4444" font-family="Helvetica,sans-Serif" font-size="10.00">2</text>
</a>
</g>
</g>
<!-- dir_6f0f624d6f47d69511e99ee9b0baa20f -->
<g id="node9" class="node"><title>dir_6f0f624d6f47d69511e99ee9b0baa20f</title>
<g id="a_node9"><a xlink:href="dir_6f0f624d6f47d69511e99ee9b0baa20f.html" target="_top" xlink:title="ARM_CM3_MPU">
<polygon fill="white" stroke="black" points="2187.25,-108 2094.75,-108 2094.75,-72 2187.25,-72 2187.25,-108"/>
<text text-anchor="middle" x="2141" y="-87.5" font-family="Helvetica,sans-Serif" font-size="10.00">ARM_CM3_MPU</text>
</a>
</g>
</g>
<!-- dir_6f0f624d6f47d69511e99ee9b0baa20f&#45;&gt;dir_8ee1a5e78eaec319fe5d64075812fc61 -->
<g id="edge10" class="edge"><title>dir_6f0f624d6f47d69511e99ee9b0baa20f&#45;&gt;dir_8ee1a5e78eaec319fe5d64075812fc61</title>
<path fill="none" stroke="black" d="M2117.93,-71.9951C2108.25,-65.7959 2096.57,-59.4628 2085,-56 2016.44,-35.4766 1514.29,-22.9649 1371.68,-19.7983"/>
<polygon fill="black" stroke="black" points="1371.35,-16.2904 1361.28,-19.5699 1371.2,-23.2887 1371.35,-16.2904"/>
<g id="a_edge10&#45;headlabel"><a xlink:href="dir_000037_000001.html" target="_top" xlink:title="3">
<text text-anchor="middle" x="1375.01" y="-11.0307" font-family="Helvetica,sans-Serif" font-size="10.00">3</text>
</a>
</g>
</g>
<!-- dir_92e1a5b2d42368a6257edae513f7babe -->
<g id="node10" class="node"><title>dir_92e1a5b2d42368a6257edae513f7babe</title>
<g id="a_node10"><a xlink:href="dir_92e1a5b2d42368a6257edae513f7babe.html" target="_top" xlink:title="ARM_CM4F">
<polygon fill="white" stroke="black" points="2076,-108 2004,-108 2004,-72 2076,-72 2076,-108"/>
<text text-anchor="middle" x="2040" y="-87.5" font-family="Helvetica,sans-Serif" font-size="10.00">ARM_CM4F</text>
</a>
</g>
</g>
<!-- dir_92e1a5b2d42368a6257edae513f7babe&#45;&gt;dir_8ee1a5e78eaec319fe5d64075812fc61 -->
<g id="edge16" class="edge"><title>dir_92e1a5b2d42368a6257edae513f7babe&#45;&gt;dir_8ee1a5e78eaec319fe5d64075812fc61</title>
<path fill="none" stroke="black" d="M2021.25,-71.8579C2013.4,-65.7195 2003.82,-59.466 1994,-56 1935.31,-35.2965 1502.28,-23.1147 1371.37,-19.8767"/>
<polygon fill="black" stroke="black" points="1371.15,-16.3703 1361.07,-19.6249 1370.98,-23.3682 1371.15,-16.3703"/>
<g id="a_edge16&#45;headlabel"><a xlink:href="dir_000038_000001.html" target="_top" xlink:title="2">
<text text-anchor="middle" x="1374.81" y="-11.1195" font-family="Helvetica,sans-Serif" font-size="10.00">2</text>
</a>
</g>
</g>
<!-- dir_cbf12754cf114c9fc8bcf119212c330a -->
<g id="node11" class="node"><title>dir_cbf12754cf114c9fc8bcf119212c330a</title>
<g id="a_node11"><a xlink:href="dir_cbf12754cf114c9fc8bcf119212c330a.html" target="_top" xlink:title="ARM_CM7">
<polygon fill="white" stroke="red" points="1985.25,-108 1920.75,-108 1920.75,-72 1985.25,-72 1985.25,-108"/>
<text text-anchor="middle" x="1953" y="-87.5" font-family="Helvetica,sans-Serif" font-size="10.00">ARM_CM7</text>
</a>
</g>
</g>
<!-- dir_cbf12754cf114c9fc8bcf119212c330a&#45;&gt;dir_8ee1a5e78eaec319fe5d64075812fc61 -->
<g id="edge14" class="edge"><title>dir_cbf12754cf114c9fc8bcf119212c330a&#45;&gt;dir_8ee1a5e78eaec319fe5d64075812fc61</title>
<path fill="none" stroke="black" d="M1936.1,-71.9018C1928.96,-65.7695 1920.18,-59.5087 1911,-56 1811.87,-18.1217 1482.91,-17.5726 1371.37,-18.5296"/>
<polygon fill="black" stroke="black" points="1371.23,-15.0306 1361.26,-18.6257 1371.3,-22.0303 1371.23,-15.0306"/>
<g id="a_edge14&#45;headlabel"><a xlink:href="dir_000039_000001.html" target="_top" xlink:title="2">
<text text-anchor="middle" x="1374.8" y="-9.65738" font-family="Helvetica,sans-Serif" font-size="10.00">2</text>
</a>
</g>
</g>
<!-- dir_c4a8e0dce544a4bd2f8a6923c3df2d88 -->
<g id="node12" class="node"><title>dir_c4a8e0dce544a4bd2f8a6923c3df2d88</title>
<g id="a_node12"><a xlink:href="dir_c4a8e0dce544a4bd2f8a6923c3df2d88.html" target="_top" xlink:title="ARM_CR5">
<polygon fill="white" stroke="black" points="1902,-108 1838,-108 1838,-72 1902,-72 1902,-108"/>
<text text-anchor="middle" x="1870" y="-87.5" font-family="Helvetica,sans-Serif" font-size="10.00">ARM_CR5</text>
</a>
</g>
</g>
<!-- dir_c4a8e0dce544a4bd2f8a6923c3df2d88&#45;&gt;dir_8ee1a5e78eaec319fe5d64075812fc61 -->
<g id="edge8" class="edge"><title>dir_c4a8e0dce544a4bd2f8a6923c3df2d88&#45;&gt;dir_8ee1a5e78eaec319fe5d64075812fc61</title>
<path fill="none" stroke="black" d="M1853.08,-71.9525C1845.94,-65.8271 1837.16,-59.5579 1828,-56 1744.75,-23.6746 1471.45,-19.4465 1371.25,-19.002"/>
<polygon fill="black" stroke="black" points="1371.02,-15.5013 1361.01,-18.9673 1371,-22.5013 1371.02,-15.5013"/>
<g id="a_edge8&#45;headlabel"><a xlink:href="dir_000041_000001.html" target="_top" xlink:title="2">
<text text-anchor="middle" x="1374.62" y="-10.1741" font-family="Helvetica,sans-Serif" font-size="10.00">2</text>
</a>
</g>
</g>
<!-- dir_8bf4eccf7f5096ec817eb94cbdbd6a90 -->
<g id="node13" class="node"><title>dir_8bf4eccf7f5096ec817eb94cbdbd6a90</title>
<g id="a_node13"><a xlink:href="dir_8bf4eccf7f5096ec817eb94cbdbd6a90.html" target="_top" xlink:title="ARM_CRx_No_GIC">
<polygon fill="white" stroke="black" points="1819.25,-108 1714.75,-108 1714.75,-72 1819.25,-72 1819.25,-108"/>
<text text-anchor="middle" x="1767" y="-87.5" font-family="Helvetica,sans-Serif" font-size="10.00">ARM_CRx_No_GIC</text>
</a>
</g>
</g>
<!-- dir_8bf4eccf7f5096ec817eb94cbdbd6a90&#45;&gt;dir_8ee1a5e78eaec319fe5d64075812fc61 -->
<g id="edge9" class="edge"><title>dir_8bf4eccf7f5096ec817eb94cbdbd6a90&#45;&gt;dir_8ee1a5e78eaec319fe5d64075812fc61</title>
<path fill="none" stroke="black" d="M1740.52,-71.9764C1729.88,-65.9322 1717.25,-59.7134 1705,-56 1643.27,-37.292 1452.79,-25.2876 1371.45,-20.8879"/>
<polygon fill="black" stroke="black" points="1371.35,-17.3775 1361.17,-20.3413 1370.97,-24.3676 1371.35,-17.3775"/>
<g id="a_edge9&#45;headlabel"><a xlink:href="dir_000042_000001.html" target="_top" xlink:title="2">
<text text-anchor="middle" x="1375.09" y="-12.2331" font-family="Helvetica,sans-Serif" font-size="10.00">2</text>
</a>
</g>
</g>
<!-- dir_6e23839f2d4420c344ac8708ae038da9 -->
<g id="node14" class="node"><title>dir_6e23839f2d4420c344ac8708ae038da9</title>
<g id="a_node14"><a xlink:href="dir_6e23839f2d4420c344ac8708ae038da9.html" target="_top" xlink:title="ATMega323">
<polygon fill="white" stroke="black" points="1696.25,-108 1625.75,-108 1625.75,-72 1696.25,-72 1696.25,-108"/>
<text text-anchor="middle" x="1661" y="-87.5" font-family="Helvetica,sans-Serif" font-size="10.00">ATMega323</text>
</a>
</g>
</g>
<!-- dir_6e23839f2d4420c344ac8708ae038da9&#45;&gt;dir_8ee1a5e78eaec319fe5d64075812fc61 -->
<g id="edge24" class="edge"><title>dir_6e23839f2d4420c344ac8708ae038da9&#45;&gt;dir_8ee1a5e78eaec319fe5d64075812fc61</title>
<path fill="none" stroke="black" d="M1642.14,-71.8822C1634.53,-65.9021 1625.35,-59.7522 1616,-56 1533.13,-22.7447 1426.61,-18.0098 1371.22,-18.0959"/>
<polygon fill="black" stroke="black" points="1371.14,-14.5962 1361.16,-18.1662 1371.19,-21.5961 1371.14,-14.5962"/>
<g id="a_edge24&#45;headlabel"><a xlink:href="dir_000043_000001.html" target="_top" xlink:title="2">
<text text-anchor="middle" x="1374.71" y="-9.23198" font-family="Helvetica,sans-Serif" font-size="10.00">2</text>
</a>
</g>
</g>
<!-- dir_e0943b5c363c56a0c6dc6a01ea7034e6 -->
<g id="node15" class="node"><title>dir_e0943b5c363c56a0c6dc6a01ea7034e6</title>
<g id="a_node15"><a xlink:href="dir_e0943b5c363c56a0c6dc6a01ea7034e6.html" target="_top" xlink:title="AVR32_UC3">
<polygon fill="white" stroke="black" points="1607,-108 1533,-108 1533,-72 1607,-72 1607,-108"/>
<text text-anchor="middle" x="1570" y="-87.5" font-family="Helvetica,sans-Serif" font-size="10.00">AVR32_UC3</text>
</a>
</g>
</g>
<!-- dir_e0943b5c363c56a0c6dc6a01ea7034e6&#45;&gt;dir_8ee1a5e78eaec319fe5d64075812fc61 -->
<g id="edge21" class="edge"><title>dir_e0943b5c363c56a0c6dc6a01ea7034e6&#45;&gt;dir_8ee1a5e78eaec319fe5d64075812fc61</title>
<path fill="none" stroke="black" d="M1550.08,-71.8533C1542.38,-66.017 1533.2,-59.9714 1524,-56 1473.83,-34.3543 1410.74,-25.2789 1371.39,-21.5378"/>
<polygon fill="black" stroke="black" points="1371.46,-18.0305 1361.19,-20.6378 1370.84,-25.0034 1371.46,-18.0305"/>
<g id="a_edge21&#45;headlabel"><a xlink:href="dir_000044_000001.html" target="_top" xlink:title="2">
<text text-anchor="middle" x="1375.29" y="-13.0182" font-family="Helvetica,sans-Serif" font-size="10.00">2</text>
</a>
</g>
</g>
<!-- dir_93e9c24f20090d9614ac887883e161fe -->
<g id="node16" class="node"><title>dir_93e9c24f20090d9614ac887883e161fe</title>
<g id="a_node16"><a xlink:href="dir_93e9c24f20090d9614ac887883e161fe.html" target="_top" xlink:title="ColdFire_V2">
<polygon fill="white" stroke="black" points="1515,-108 1443,-108 1443,-72 1515,-72 1515,-108"/>
<text text-anchor="middle" x="1479" y="-87.5" font-family="Helvetica,sans-Serif" font-size="10.00">ColdFire_V2</text>
</a>
</g>
</g>
<!-- dir_93e9c24f20090d9614ac887883e161fe&#45;&gt;dir_8ee1a5e78eaec319fe5d64075812fc61 -->
<g id="edge29" class="edge"><title>dir_93e9c24f20090d9614ac887883e161fe&#45;&gt;dir_8ee1a5e78eaec319fe5d64075812fc61</title>
<path fill="none" stroke="black" d="M1458.29,-71.9457C1450.92,-66.3883 1442.36,-60.4981 1434,-56 1414.01,-45.2457 1390.23,-36.3046 1370.87,-29.9072"/>
<polygon fill="black" stroke="black" points="1371.79,-26.5254 1361.19,-26.7975 1369.64,-33.1897 1371.79,-26.5254"/>
<g id="a_edge29&#45;headlabel"><a xlink:href="dir_000045_000001.html" target="_top" xlink:title="2">
<text text-anchor="middle" x="1376.08" y="-22.4222" font-family="Helvetica,sans-Serif" font-size="10.00">2</text>
</a>
</g>
</g>
<!-- dir_83fe40bfc89121de2e8625ca964714cc -->
<g id="node17" class="node"><title>dir_83fe40bfc89121de2e8625ca964714cc</title>
<g id="a_node17"><a xlink:href="dir_83fe40bfc89121de2e8625ca964714cc.html" target="_top" xlink:title="CORTUS_APS3">
<polygon fill="white" stroke="black" points="1425,-108 1335,-108 1335,-72 1425,-72 1425,-108"/>
<text text-anchor="middle" x="1380" y="-87.5" font-family="Helvetica,sans-Serif" font-size="10.00">CORTUS_APS3</text>
</a>
</g>
</g>
<!-- dir_83fe40bfc89121de2e8625ca964714cc&#45;&gt;dir_8ee1a5e78eaec319fe5d64075812fc61 -->
<g id="edge22" class="edge"><title>dir_83fe40bfc89121de2e8625ca964714cc&#45;&gt;dir_8ee1a5e78eaec319fe5d64075812fc61</title>
<path fill="none" stroke="black" d="M1368.63,-71.6966C1363.28,-63.5589 1356.8,-53.689 1350.89,-44.7013"/>
<polygon fill="black" stroke="black" points="1353.66,-42.5393 1345.24,-36.1043 1347.81,-46.3835 1353.66,-42.5393"/>
<g id="a_edge22&#45;headlabel"><a xlink:href="dir_000046_000001.html" target="_top" xlink:title="2">
<text text-anchor="middle" x="1358" y="-41.484" font-family="Helvetica,sans-Serif" font-size="10.00">2</text>
</a>
</g>
</g>
<!-- dir_de57c2a26ef8727f344709ce8b96bd62 -->
<g id="node18" class="node"><title>dir_de57c2a26ef8727f344709ce8b96bd62</title>
<g id="a_node18"><a xlink:href="dir_de57c2a26ef8727f344709ce8b96bd62.html" target="_top" xlink:title="H8S2329">
<polygon fill="white" stroke="black" points="1317,-108 1259,-108 1259,-72 1317,-72 1317,-108"/>
<text text-anchor="middle" x="1288" y="-87.5" font-family="Helvetica,sans-Serif" font-size="10.00">H8S2329</text>
</a>
</g>
</g>
<!-- dir_de57c2a26ef8727f344709ce8b96bd62&#45;&gt;dir_8ee1a5e78eaec319fe5d64075812fc61 -->
<g id="edge3" class="edge"><title>dir_de57c2a26ef8727f344709ce8b96bd62&#45;&gt;dir_8ee1a5e78eaec319fe5d64075812fc61</title>
<path fill="none" stroke="black" d="M1299.37,-71.6966C1304.72,-63.5589 1311.2,-53.689 1317.11,-44.7013"/>
<polygon fill="black" stroke="black" points="1320.19,-46.3835 1322.76,-36.1043 1314.34,-42.5393 1320.19,-46.3835"/>
<g id="a_edge3&#45;headlabel"><a xlink:href="dir_000047_000001.html" target="_top" xlink:title="2">
<text text-anchor="middle" x="1320.59" y="-48.4468" font-family="Helvetica,sans-Serif" font-size="10.00">2</text>
</a>
</g>
</g>
<!-- dir_c0b97a02b244ead875bba7f773498728 -->
<g id="node19" class="node"><title>dir_c0b97a02b244ead875bba7f773498728</title>
<g id="a_node19"><a xlink:href="dir_c0b97a02b244ead875bba7f773498728.html" target="_top" xlink:title="HCS12">
<polygon fill="white" stroke="black" points="1241,-108 1187,-108 1187,-72 1241,-72 1241,-108"/>
<text text-anchor="middle" x="1214" y="-87.5" font-family="Helvetica,sans-Serif" font-size="10.00">HCS12</text>
</a>
</g>
</g>
<!-- dir_c0b97a02b244ead875bba7f773498728&#45;&gt;dir_8ee1a5e78eaec319fe5d64075812fc61 -->
<g id="edge30" class="edge"><title>dir_c0b97a02b244ead875bba7f773498728&#45;&gt;dir_8ee1a5e78eaec319fe5d64075812fc61</title>
<path fill="none" stroke="black" d="M1230.26,-71.9965C1236.14,-66.4432 1243.04,-60.5426 1250,-56 1264.56,-46.4951 1281.96,-38.3715 1297.15,-32.1783"/>
<polygon fill="black" stroke="black" points="1298.73,-35.3159 1306.75,-28.392 1296.16,-28.8037 1298.73,-35.3159"/>
<g id="a_edge30&#45;headlabel"><a xlink:href="dir_000048_000001.html" target="_top" xlink:title="2">
<text text-anchor="middle" x="1296.43" y="-36.7756" font-family="Helvetica,sans-Serif" font-size="10.00">2</text>
</a>
</g>
</g>
<!-- dir_1317f1a8f4795713c33df8abe6c40ab4 -->
<g id="node20" class="node"><title>dir_1317f1a8f4795713c33df8abe6c40ab4</title>
<g id="a_node20"><a xlink:href="dir_1317f1a8f4795713c33df8abe6c40ab4.html" target="_top" xlink:title="IA32_flat">
<polygon fill="white" stroke="black" points="1169,-108 1113,-108 1113,-72 1169,-72 1169,-108"/>
<text text-anchor="middle" x="1141" y="-87.5" font-family="Helvetica,sans-Serif" font-size="10.00">IA32_flat</text>
</a>
</g>
</g>
<!-- dir_1317f1a8f4795713c33df8abe6c40ab4&#45;&gt;dir_8ee1a5e78eaec319fe5d64075812fc61 -->
<g id="edge25" class="edge"><title>dir_1317f1a8f4795713c33df8abe6c40ab4&#45;&gt;dir_8ee1a5e78eaec319fe5d64075812fc61</title>
<path fill="none" stroke="black" d="M1156.61,-71.9482C1162.76,-66.1221 1170.22,-60.0588 1178,-56 1215.75,-36.3184 1264.08,-26.9473 1296.87,-22.592"/>
<polygon fill="black" stroke="black" points="1297.44,-26.048 1306.93,-21.3475 1296.58,-19.1009 1297.44,-26.048"/>
<g id="a_edge25&#45;headlabel"><a xlink:href="dir_000049_000001.html" target="_top" xlink:title="2">
<text text-anchor="middle" x="1294.22" y="-26.8068" font-family="Helvetica,sans-Serif" font-size="10.00">2</text>
</a>
</g>
</g>
<!-- dir_86da65fd02337017da334db48406c8e2 -->
<g id="node21" class="node"><title>dir_86da65fd02337017da334db48406c8e2</title>
<g id="a_node21"><a xlink:href="dir_86da65fd02337017da334db48406c8e2.html" target="_top" xlink:title="MCF5235">
<polygon fill="white" stroke="black" points="1095,-108 1035,-108 1035,-72 1095,-72 1095,-108"/>
<text text-anchor="middle" x="1065" y="-87.5" font-family="Helvetica,sans-Serif" font-size="10.00">MCF5235</text>
</a>
</g>
</g>
<!-- dir_86da65fd02337017da334db48406c8e2&#45;&gt;dir_8ee1a5e78eaec319fe5d64075812fc61 -->
<g id="edge19" class="edge"><title>dir_86da65fd02337017da334db48406c8e2&#45;&gt;dir_8ee1a5e78eaec319fe5d64075812fc61</title>
<path fill="none" stroke="black" d="M1081.06,-71.9884C1087.61,-66.0214 1095.62,-59.8527 1104,-56 1167.37,-26.8681 1249.74,-20.195 1296.75,-18.942"/>
<polygon fill="black" stroke="black" points="1296.86,-22.4407 1306.79,-18.7433 1296.72,-15.442 1296.86,-22.4407"/>
<g id="a_edge19&#45;headlabel"><a xlink:href="dir_000050_000001.html" target="_top" xlink:title="2">
<text text-anchor="middle" x="1293.32" y="-22.8504" font-family="Helvetica,sans-Serif" font-size="10.00">2</text>
</a>
</g>
</g>
<!-- dir_5d8f54ad96a5b1cf7c76219e17bb5f18 -->
<g id="node22" class="node"><title>dir_5d8f54ad96a5b1cf7c76219e17bb5f18</title>
<g id="a_node22"><a xlink:href="dir_5d8f54ad96a5b1cf7c76219e17bb5f18.html" target="_top" xlink:title="MicroBlaze">
<polygon fill="white" stroke="black" points="1017,-108 951,-108 951,-72 1017,-72 1017,-108"/>
<text text-anchor="middle" x="984" y="-87.5" font-family="Helvetica,sans-Serif" font-size="10.00">MicroBlaze</text>
</a>
</g>
</g>
<!-- dir_5d8f54ad96a5b1cf7c76219e17bb5f18&#45;&gt;dir_8ee1a5e78eaec319fe5d64075812fc61 -->
<g id="edge7" class="edge"><title>dir_5d8f54ad96a5b1cf7c76219e17bb5f18&#45;&gt;dir_8ee1a5e78eaec319fe5d64075812fc61</title>
<path fill="none" stroke="black" d="M1001.41,-71.8176C1008.49,-65.8296 1017.09,-59.6912 1026,-56 1074.15,-36.0501 1225.57,-25.1159 1296.57,-20.969"/>
<polygon fill="black" stroke="black" points="1297.06,-24.447 1306.84,-20.3838 1296.66,-17.4583 1297.06,-24.447"/>
<g id="a_edge7&#45;headlabel"><a xlink:href="dir_000051_000001.html" target="_top" xlink:title="2">
<text text-anchor="middle" x="1293.63" y="-24.9861" font-family="Helvetica,sans-Serif" font-size="10.00">2</text>
</a>
</g>
</g>
<!-- dir_c064169c39bafc4a1d5b1346d9d01e47 -->
<g id="node23" class="node"><title>dir_c064169c39bafc4a1d5b1346d9d01e47</title>
<g id="a_node23"><a xlink:href="dir_c064169c39bafc4a1d5b1346d9d01e47.html" target="_top" xlink:title="MicroBlazeV8">
<polygon fill="white" stroke="black" points="933,-108 855,-108 855,-72 933,-72 933,-108"/>
<text text-anchor="middle" x="894" y="-87.5" font-family="Helvetica,sans-Serif" font-size="10.00">MicroBlazeV8</text>
</a>
</g>
</g>
<!-- dir_c064169c39bafc4a1d5b1346d9d01e47&#45;&gt;dir_8ee1a5e78eaec319fe5d64075812fc61 -->
<g id="edge17" class="edge"><title>dir_c064169c39bafc4a1d5b1346d9d01e47&#45;&gt;dir_8ee1a5e78eaec319fe5d64075812fc61</title>
<path fill="none" stroke="black" d="M914.215,-71.7091C922.338,-65.7077 932.114,-59.5885 942,-56 1006.62,-32.5422 1211.7,-23.1046 1296.62,-20.1373"/>
<polygon fill="black" stroke="black" points="1296.96,-23.6278 1306.84,-19.7914 1296.72,-16.6318 1296.96,-23.6278"/>
<g id="a_edge17&#45;headlabel"><a xlink:href="dir_000052_000001.html" target="_top" xlink:title="4">
<text text-anchor="middle" x="1293.47" y="-24.087" font-family="Helvetica,sans-Serif" font-size="10.00">4</text>
</a>
</g>
</g>
<!-- dir_eea76f2f86412b8c8152c1630ec127ad -->
<g id="node24" class="node"><title>dir_eea76f2f86412b8c8152c1630ec127ad</title>
<g id="a_node24"><a xlink:href="dir_eea76f2f86412b8c8152c1630ec127ad.html" target="_top" xlink:title="MSP430F449">
<polygon fill="white" stroke="black" points="837,-108 759,-108 759,-72 837,-72 837,-108"/>
<text text-anchor="middle" x="798" y="-87.5" font-family="Helvetica,sans-Serif" font-size="10.00">MSP430F449</text>
</a>
</g>
</g>
<!-- dir_eea76f2f86412b8c8152c1630ec127ad&#45;&gt;dir_8ee1a5e78eaec319fe5d64075812fc61 -->
<g id="edge18" class="edge"><title>dir_eea76f2f86412b8c8152c1630ec127ad&#45;&gt;dir_8ee1a5e78eaec319fe5d64075812fc61</title>
<path fill="none" stroke="black" d="M817.714,-71.9593C825.923,-65.835 835.89,-59.5645 846,-56 929.015,-26.7296 1197.33,-20.6024 1296.61,-19.33"/>
<polygon fill="black" stroke="black" points="1296.82,-22.828 1306.77,-19.2094 1296.73,-15.8285 1296.82,-22.828"/>
<g id="a_edge18&#45;headlabel"><a xlink:href="dir_000053_000001.html" target="_top" xlink:title="2">
<text text-anchor="middle" x="1293.26" y="-23.2096" font-family="Helvetica,sans-Serif" font-size="10.00">2</text>
</a>
</g>
</g>
<!-- dir_7c1e1c2b7c6ba1cc6c6774d6556fe0d7 -->
<g id="node25" class="node"><title>dir_7c1e1c2b7c6ba1cc6c6774d6556fe0d7</title>
<g id="a_node25"><a xlink:href="dir_7c1e1c2b7c6ba1cc6c6774d6556fe0d7.html" target="_top" xlink:title="NiosII">
<polygon fill="white" stroke="black" points="741,-108 687,-108 687,-72 741,-72 741,-108"/>
<text text-anchor="middle" x="714" y="-87.5" font-family="Helvetica,sans-Serif" font-size="10.00">NiosII</text>
</a>
</g>
</g>
<!-- dir_7c1e1c2b7c6ba1cc6c6774d6556fe0d7&#45;&gt;dir_8ee1a5e78eaec319fe5d64075812fc61 -->
<g id="edge13" class="edge"><title>dir_7c1e1c2b7c6ba1cc6c6774d6556fe0d7&#45;&gt;dir_8ee1a5e78eaec319fe5d64075812fc61</title>
<path fill="none" stroke="black" d="M728.078,-71.9149C734.138,-65.7844 741.731,-59.5214 750,-56 800.072,-34.6757 1175.49,-23.1264 1296.52,-19.9286"/>
<polygon fill="black" stroke="black" points="1296.86,-23.421 1306.77,-19.6618 1296.68,-16.4234 1296.86,-23.421"/>
<g id="a_edge13&#45;headlabel"><a xlink:href="dir_000054_000001.html" target="_top" xlink:title="2">
<text text-anchor="middle" x="1293.34" y="-23.8528" font-family="Helvetica,sans-Serif" font-size="10.00">2</text>
</a>
</g>
</g>
<!-- dir_607826b2869697afcd8b5f7132bc562f -->
<g id="node26" class="node"><title>dir_607826b2869697afcd8b5f7132bc562f</title>
<g id="a_node26"><a xlink:href="dir_607826b2869697afcd8b5f7132bc562f.html" target="_top" xlink:title="PPC405_Xilinx">
<polygon fill="white" stroke="black" points="668.25,-108 585.75,-108 585.75,-72 668.25,-72 668.25,-108"/>
<text text-anchor="middle" x="627" y="-87.5" font-family="Helvetica,sans-Serif" font-size="10.00">PPC405_Xilinx</text>
</a>
</g>
</g>
<!-- dir_607826b2869697afcd8b5f7132bc562f&#45;&gt;dir_8ee1a5e78eaec319fe5d64075812fc61 -->
<g id="edge6" class="edge"><title>dir_607826b2869697afcd8b5f7132bc562f&#45;&gt;dir_8ee1a5e78eaec319fe5d64075812fc61</title>
<path fill="none" stroke="black" d="M648.063,-71.8587C656.802,-65.7205 667.372,-59.4668 678,-56 794.19,-18.0978 1175.49,-17.7234 1296.67,-18.6079"/>
<polygon fill="black" stroke="black" points="1296.89,-22.1097 1306.92,-18.6904 1296.95,-15.1099 1296.89,-22.1097"/>
<g id="a_edge6&#45;headlabel"><a xlink:href="dir_000055_000001.html" target="_top" xlink:title="2">
<text text-anchor="middle" x="1293.28" y="-22.42" font-family="Helvetica,sans-Serif" font-size="10.00">2</text>
</a>
</g>
</g>
<!-- dir_8aea8f4992ebce98c3eb6dfa06fb6a16 -->
<g id="node27" class="node"><title>dir_8aea8f4992ebce98c3eb6dfa06fb6a16</title>
<g id="a_node27"><a xlink:href="dir_8aea8f4992ebce98c3eb6dfa06fb6a16.html" target="_top" xlink:title="PPC440_Xilinx">
<polygon fill="white" stroke="black" points="567.25,-108 484.75,-108 484.75,-72 567.25,-72 567.25,-108"/>
<text text-anchor="middle" x="526" y="-87.5" font-family="Helvetica,sans-Serif" font-size="10.00">PPC440_Xilinx</text>
</a>
</g>
</g>
<!-- dir_8aea8f4992ebce98c3eb6dfa06fb6a16&#45;&gt;dir_8ee1a5e78eaec319fe5d64075812fc61 -->
<g id="edge2" class="edge"><title>dir_8aea8f4992ebce98c3eb6dfa06fb6a16&#45;&gt;dir_8ee1a5e78eaec319fe5d64075812fc61</title>
<path fill="none" stroke="black" d="M547.05,-71.8176C555.787,-65.6737 566.359,-59.4269 577,-56 645.807,-33.84 1154.28,-22.4608 1296.9,-19.6825"/>
<polygon fill="black" stroke="black" points="1296.98,-23.1818 1306.91,-19.4901 1296.84,-16.1831 1296.98,-23.1818"/>
<g id="a_edge2&#45;headlabel"><a xlink:href="dir_000056_000001.html" target="_top" xlink:title="2">
<text text-anchor="middle" x="1293.44" y="-23.5896" font-family="Helvetica,sans-Serif" font-size="10.00">2</text>
</a>
</g>
</g>
<!-- dir_a8ddf60c1abd5069842dad81e526b474 -->
<g id="node28" class="node"><title>dir_a8ddf60c1abd5069842dad81e526b474</title>
<g id="a_node28"><a xlink:href="dir_a8ddf60c1abd5069842dad81e526b474.html" target="_top" xlink:title="RL78">
<polygon fill="white" stroke="black" points="466,-108 412,-108 412,-72 466,-72 466,-108"/>
<text text-anchor="middle" x="439" y="-87.5" font-family="Helvetica,sans-Serif" font-size="10.00">RL78</text>
</a>
</g>
</g>
<!-- dir_a8ddf60c1abd5069842dad81e526b474&#45;&gt;dir_8ee1a5e78eaec319fe5d64075812fc61 -->
<g id="edge1" class="edge"><title>dir_a8ddf60c1abd5069842dad81e526b474&#45;&gt;dir_8ee1a5e78eaec319fe5d64075812fc61</title>
<path fill="none" stroke="black" d="M453.516,-71.8233C459.75,-65.6802 467.547,-59.4325 476,-56 552.643,-24.8794 1141.19,-19.9096 1296.51,-19.138"/>
<polygon fill="black" stroke="black" points="1296.95,-22.6361 1306.94,-19.0894 1296.92,-15.6362 1296.95,-22.6361"/>
<g id="a_edge1&#45;headlabel"><a xlink:href="dir_000057_000001.html" target="_top" xlink:title="2">
<text text-anchor="middle" x="1293.37" y="-22.992" font-family="Helvetica,sans-Serif" font-size="10.00">2</text>
</a>
</g>
</g>
<!-- dir_8e7c171329a6ac5d82efee4e3c128187 -->
<g id="node29" class="node"><title>dir_8e7c171329a6ac5d82efee4e3c128187</title>
<g id="a_node29"><a xlink:href="dir_8e7c171329a6ac5d82efee4e3c128187.html" target="_top" xlink:title="RX100">
<polygon fill="white" stroke="black" points="394,-108 340,-108 340,-72 394,-72 394,-108"/>
<text text-anchor="middle" x="367" y="-87.5" font-family="Helvetica,sans-Serif" font-size="10.00">RX100</text>
</a>
</g>
</g>
<!-- dir_8e7c171329a6ac5d82efee4e3c128187&#45;&gt;dir_8ee1a5e78eaec319fe5d64075812fc61 -->
<g id="edge20" class="edge"><title>dir_8e7c171329a6ac5d82efee4e3c128187&#45;&gt;dir_8ee1a5e78eaec319fe5d64075812fc61</title>
<path fill="none" stroke="black" d="M381.036,-71.8144C387.09,-65.67 394.69,-59.4238 403,-56 486.51,-21.5913 1132.95,-19.0591 1296.5,-18.9729"/>
<polygon fill="black" stroke="black" points="1296.56,-22.473 1306.56,-18.9705 1296.56,-15.473 1296.56,-22.473"/>
<g id="a_edge20&#45;headlabel"><a xlink:href="dir_000058_000001.html" target="_top" xlink:title="2">
<text text-anchor="middle" x="1292.97" y="-22.813" font-family="Helvetica,sans-Serif" font-size="10.00">2</text>
</a>
</g>
</g>
<!-- dir_0b5093129d1e8273ec1e813d70ec1fc2 -->
<g id="node30" class="node"><title>dir_0b5093129d1e8273ec1e813d70ec1fc2</title>
<g id="a_node30"><a xlink:href="dir_0b5093129d1e8273ec1e813d70ec1fc2.html" target="_top" xlink:title="RX600">
<polygon fill="white" stroke="black" points="322,-108 268,-108 268,-72 322,-72 322,-108"/>
<text text-anchor="middle" x="295" y="-87.5" font-family="Helvetica,sans-Serif" font-size="10.00">RX600</text>
</a>
</g>
</g>
<!-- dir_0b5093129d1e8273ec1e813d70ec1fc2&#45;&gt;dir_8ee1a5e78eaec319fe5d64075812fc61 -->
<g id="edge4" class="edge"><title>dir_0b5093129d1e8273ec1e813d70ec1fc2&#45;&gt;dir_8ee1a5e78eaec319fe5d64075812fc61</title>
<path fill="none" stroke="black" d="M309.031,-71.8022C315.084,-65.6562 322.686,-59.4119 331,-56 421.549,-18.8417 1125.76,-18.4075 1296.7,-18.8574"/>
<polygon fill="black" stroke="black" points="1296.95,-22.358 1306.96,-18.8872 1296.97,-15.358 1296.95,-22.358"/>
<g id="a_edge4&#45;headlabel"><a xlink:href="dir_000059_000001.html" target="_top" xlink:title="2">
<text text-anchor="middle" x="1293.34" y="-22.6869" font-family="Helvetica,sans-Serif" font-size="10.00">2</text>
</a>
</g>
</g>
<!-- dir_dd94930ad332d96708022c96fbfbf93a -->
<g id="node31" class="node"><title>dir_dd94930ad332d96708022c96fbfbf93a</title>
<g id="a_node31"><a xlink:href="dir_dd94930ad332d96708022c96fbfbf93a.html" target="_top" xlink:title="RX600v2">
<polygon fill="white" stroke="black" points="250,-108 192,-108 192,-72 250,-72 250,-108"/>
<text text-anchor="middle" x="221" y="-87.5" font-family="Helvetica,sans-Serif" font-size="10.00">RX600v2</text>
</a>
</g>
</g>
<!-- dir_dd94930ad332d96708022c96fbfbf93a&#45;&gt;dir_8ee1a5e78eaec319fe5d64075812fc61 -->
<g id="edge12" class="edge"><title>dir_dd94930ad332d96708022c96fbfbf93a&#45;&gt;dir_8ee1a5e78eaec319fe5d64075812fc61</title>
<path fill="none" stroke="black" d="M235.973,-71.7798C242.384,-65.6307 250.381,-59.3902 259,-56 357.084,-17.42 1118.22,-18.1106 1296.66,-18.8119"/>
<polygon fill="black" stroke="black" points="1296.84,-22.3126 1306.85,-18.8546 1296.87,-15.3127 1296.84,-22.3126"/>
<g id="a_edge12&#45;headlabel"><a xlink:href="dir_000060_000001.html" target="_top" xlink:title="2">
<text text-anchor="middle" x="1293.23" y="-22.6369" font-family="Helvetica,sans-Serif" font-size="10.00">2</text>
</a>
</g>
</g>
<!-- dir_a100f85333bd555a7a6c8c0b0f4d73d2 -->
<g id="node32" class="node"><title>dir_a100f85333bd555a7a6c8c0b0f4d73d2</title>
<g id="a_node32"><a xlink:href="dir_a100f85333bd555a7a6c8c0b0f4d73d2.html" target="_top" xlink:title="STR75x">
<polygon fill="white" stroke="black" points="174,-108 120,-108 120,-72 174,-72 174,-108"/>
<text text-anchor="middle" x="147" y="-87.5" font-family="Helvetica,sans-Serif" font-size="10.00">STR75x</text>
</a>
</g>
</g>
<!-- dir_a100f85333bd555a7a6c8c0b0f4d73d2&#45;&gt;dir_8ee1a5e78eaec319fe5d64075812fc61 -->
<g id="edge5" class="edge"><title>dir_a100f85333bd555a7a6c8c0b0f4d73d2&#45;&gt;dir_8ee1a5e78eaec319fe5d64075812fc61</title>
<path fill="none" stroke="black" d="M161.023,-71.7819C167.075,-65.6331 174.678,-59.3922 183,-56 235.695,-34.5217 1105.2,-21.98 1296.83,-19.4692"/>
<polygon fill="black" stroke="black" points="1297.01,-22.9673 1306.96,-19.3376 1296.92,-15.9679 1297.01,-22.9673"/>
<g id="a_edge5&#45;headlabel"><a xlink:href="dir_000061_000001.html" target="_top" xlink:title="4">
<text text-anchor="middle" x="1293.45" y="-23.3529" font-family="Helvetica,sans-Serif" font-size="10.00">4</text>
</a>
</g>
</g>
<!-- dir_cec514503e3e84ee8abce506927e34b8 -->
<g id="node33" class="node"><title>dir_cec514503e3e84ee8abce506927e34b8</title>
<g id="a_node33"><a xlink:href="dir_cec514503e3e84ee8abce506927e34b8.html" target="_top" xlink:title="TriCore_1782">
<polygon fill="white" stroke="black" points="102,-108 24,-108 24,-72 102,-72 102,-108"/>
<text text-anchor="middle" x="63" y="-87.5" font-family="Helvetica,sans-Serif" font-size="10.00">TriCore_1782</text>
</a>
</g>
</g>
<!-- dir_cec514503e3e84ee8abce506927e34b8&#45;&gt;dir_8ee1a5e78eaec319fe5d64075812fc61 -->
<g id="edge15" class="edge"><title>dir_cec514503e3e84ee8abce506927e34b8&#45;&gt;dir_8ee1a5e78eaec319fe5d64075812fc61</title>
<path fill="none" stroke="black" d="M82.6334,-71.7219C90.8316,-65.5648 100.812,-59.334 111,-56 225.922,-18.3916 1103.92,-18.4132 1296.67,-18.8777"/>
<polygon fill="black" stroke="black" points="1296.85,-22.378 1306.86,-18.9042 1296.87,-15.3781 1296.85,-22.378"/>
<g id="a_edge15&#45;headlabel"><a xlink:href="dir_000062_000001.html" target="_top" xlink:title="4">
<text text-anchor="middle" x="1293.24" y="-22.708" font-family="Helvetica,sans-Serif" font-size="10.00">4</text>
</a>
</g>
</g>
</g>
</svg>
