<?xml version="1.0" encoding="UTF-8" standalone="no"?>
<!DOCTYPE svg PUBLIC "-//W3C//DTD SVG 1.1//EN"
 "http://www.w3.org/Graphics/SVG/1.1/DTD/svg11.dtd">
<!-- Generated by graphviz version 2.30.1 (20130221.2233)
 -->
<!-- Title: source/portable/GCC/PPC405_Xilinx Pages: 1 -->
<svg width="124pt" height="151pt"
 viewBox="0.00 0.00 124.00 151.00" xmlns="http://www.w3.org/2000/svg" xmlns:xlink="http://www.w3.org/1999/xlink">
<g id="graph0" class="graph" transform="scale(1 1) rotate(0) translate(4 147)">
<title>source/portable/GCC/PPC405_Xilinx</title>
<polygon fill="white" stroke="white" points="-4,5 -4,-147 121,-147 121,5 -4,5"/>
<g id="clust1" class="cluster"><title>clusterdir_d4458967a3e0f1422a9a5cc862ecde1d</title>
<g id="a_clust1"><a xlink:href="dir_d4458967a3e0f1422a9a5cc862ecde1d.html" target="_top" xlink:title="GCC">
<polygon fill="#ddddee" stroke="black" points="8,-64 8,-135 108,-135 108,-64 8,-64"/>
<text text-anchor="middle" x="58" y="-123" font-family="Helvetica,sans-Serif" font-size="10.00">GCC</text>
</a>
</g>
</g>
<!-- dir_607826b2869697afcd8b5f7132bc562f -->
<g id="node1" class="node"><title>dir_607826b2869697afcd8b5f7132bc562f</title>
<g id="a_node1"><a xlink:href="dir_607826b2869697afcd8b5f7132bc562f.html" target="_top" xlink:title="PPC405_Xilinx">
<polygon fill="#eeeeff" stroke="black" points="99.25,-108 16.75,-108 16.75,-72 99.25,-72 99.25,-108"/>
<text text-anchor="middle" x="58" y="-87.5" font-family="Helvetica,sans-Serif" font-size="10.00">PPC405_Xilinx</text>
</a>
</g>
</g>
<!-- dir_8ee1a5e78eaec319fe5d64075812fc61 -->
<g id="node2" class="node"><title>dir_8ee1a5e78eaec319fe5d64075812fc61</title>
<g id="a_node2"><a xlink:href="dir_8ee1a5e78eaec319fe5d64075812fc61.html" target="_top" xlink:title="include">
<polygon fill="none" stroke="black" points="85,-36 31,-36 31,-0 85,-0 85,-36"/>
<text text-anchor="middle" x="58" y="-15.5" font-family="Helvetica,sans-Serif" font-size="10.00">include</text>
</a>
</g>
</g>
<!-- dir_607826b2869697afcd8b5f7132bc562f&#45;&gt;dir_8ee1a5e78eaec319fe5d64075812fc61 -->
<g id="edge1" class="edge"><title>dir_607826b2869697afcd8b5f7132bc562f&#45;&gt;dir_8ee1a5e78eaec319fe5d64075812fc61</title>
<path fill="none" stroke="black" d="M58,-71.6966C58,-63.9827 58,-54.7125 58,-46.1124"/>
<polygon fill="black" stroke="black" points="61.5001,-46.1043 58,-36.1043 54.5001,-46.1044 61.5001,-46.1043"/>
<g id="a_edge1&#45;headlabel"><a xlink:href="dir_000055_000001.html" target="_top" xlink:title="2">
<text text-anchor="middle" x="64.3393" y="-47.199" font-family="Helvetica,sans-Serif" font-size="10.00">2</text>
</a>
</g>
</g>
</g>
</svg>
