<?xml version="1.0" encoding="UTF-8" standalone="no"?>
<!DOCTYPE svg PUBLIC "-//W3C//DTD SVG 1.1//EN"
 "http://www.w3.org/Graphics/SVG/1.1/DTD/svg11.dtd">
<!-- Generated by graphviz version 2.30.1 (20130221.2233)
 -->
<!-- Title: source/portable/CodeWarrior/HCS12 Pages: 1 -->
<svg width="97pt" height="151pt"
 viewBox="0.00 0.00 97.00 151.00" xmlns="http://www.w3.org/2000/svg" xmlns:xlink="http://www.w3.org/1999/xlink">
<g id="graph0" class="graph" transform="scale(1 1) rotate(0) translate(4 147)">
<title>source/portable/CodeWarrior/HCS12</title>
<polygon fill="white" stroke="white" points="-4,5 -4,-147 94,-147 94,5 -4,5"/>
<g id="clust1" class="cluster"><title>clusterdir_3b034963369cbffd29c9dc8d7d1a296c</title>
<g id="a_clust1"><a xlink:href="dir_3b034963369cbffd29c9dc8d7d1a296c.html" target="_top" xlink:title="CodeWarrior">
<polygon fill="#ddddee" stroke="black" points="8,-64 8,-135 81,-135 81,-64 8,-64"/>
<text text-anchor="middle" x="44.5" y="-123" font-family="Helvetica,sans-Serif" font-size="10.00">CodeWarrior</text>
</a>
</g>
</g>
<!-- dir_fc6f99a91a6a3e7ac9a517a5f713478f -->
<g id="node1" class="node"><title>dir_fc6f99a91a6a3e7ac9a517a5f713478f</title>
<g id="a_node1"><a xlink:href="dir_fc6f99a91a6a3e7ac9a517a5f713478f.html" target="_top" xlink:title="HCS12">
<polygon fill="#eeeeff" stroke="black" points="71,-108 17,-108 17,-72 71,-72 71,-108"/>
<text text-anchor="middle" x="44" y="-87.5" font-family="Helvetica,sans-Serif" font-size="10.00">HCS12</text>
</a>
</g>
</g>
<!-- dir_8ee1a5e78eaec319fe5d64075812fc61 -->
<g id="node2" class="node"><title>dir_8ee1a5e78eaec319fe5d64075812fc61</title>
<g id="a_node2"><a xlink:href="dir_8ee1a5e78eaec319fe5d64075812fc61.html" target="_top" xlink:title="include">
<polygon fill="none" stroke="black" points="71,-36 17,-36 17,-0 71,-0 71,-36"/>
<text text-anchor="middle" x="44" y="-15.5" font-family="Helvetica,sans-Serif" font-size="10.00">include</text>
</a>
</g>
</g>
<!-- dir_fc6f99a91a6a3e7ac9a517a5f713478f&#45;&gt;dir_8ee1a5e78eaec319fe5d64075812fc61 -->
<g id="edge1" class="edge"><title>dir_fc6f99a91a6a3e7ac9a517a5f713478f&#45;&gt;dir_8ee1a5e78eaec319fe5d64075812fc61</title>
<path fill="none" stroke="black" d="M44,-71.6966C44,-63.9827 44,-54.7125 44,-46.1124"/>
<polygon fill="black" stroke="black" points="47.5001,-46.1043 44,-36.1043 40.5001,-46.1044 47.5001,-46.1043"/>
<g id="a_edge1&#45;headlabel"><a xlink:href="dir_000028_000001.html" target="_top" xlink:title="2">
<text text-anchor="middle" x="50.3393" y="-47.199" font-family="Helvetica,sans-Serif" font-size="10.00">2</text>
</a>
</g>
</g>
</g>
</svg>
