<?xml version="1.0" encoding="UTF-8" standalone="no"?>
<!DOCTYPE svg PUBLIC "-//W3C//DTD SVG 1.1//EN"
 "http://www.w3.org/Graphics/SVG/1.1/DTD/svg11.dtd">
<!-- Generated by graphviz version 2.30.1 (20130221.2233)
 -->
<!-- Title: source/portable/CCS/MSP430X Pages: 1 -->
<svg width="102pt" height="151pt"
 viewBox="0.00 0.00 102.00 151.00" xmlns="http://www.w3.org/2000/svg" xmlns:xlink="http://www.w3.org/1999/xlink">
<g id="graph0" class="graph" transform="scale(1 1) rotate(0) translate(4 147)">
<title>source/portable/CCS/MSP430X</title>
<polygon fill="white" stroke="white" points="-4,5 -4,-147 99,-147 99,5 -4,5"/>
<g id="clust1" class="cluster"><title>clusterdir_a49d539f8fbf843d5a1d08107eb904f0</title>
<g id="a_clust1"><a xlink:href="dir_a49d539f8fbf843d5a1d08107eb904f0.html" target="_top" xlink:title="CCS">
<polygon fill="#ddddee" stroke="black" points="8,-64 8,-135 86,-135 86,-64 8,-64"/>
<text text-anchor="middle" x="47" y="-123" font-family="Helvetica,sans-Serif" font-size="10.00">CCS</text>
</a>
</g>
</g>
<!-- dir_bae34767ed5c6001d67c3395675e7253 -->
<g id="node1" class="node"><title>dir_bae34767ed5c6001d67c3395675e7253</title>
<g id="a_node1"><a xlink:href="dir_bae34767ed5c6001d67c3395675e7253.html" target="_top" xlink:title="MSP430X">
<polygon fill="#eeeeff" stroke="black" points="78,-108 16,-108 16,-72 78,-72 78,-108"/>
<text text-anchor="middle" x="47" y="-87.5" font-family="Helvetica,sans-Serif" font-size="10.00">MSP430X</text>
</a>
</g>
</g>
<!-- dir_8ee1a5e78eaec319fe5d64075812fc61 -->
<g id="node2" class="node"><title>dir_8ee1a5e78eaec319fe5d64075812fc61</title>
<g id="a_node2"><a xlink:href="dir_8ee1a5e78eaec319fe5d64075812fc61.html" target="_top" xlink:title="include">
<polygon fill="none" stroke="black" points="74,-36 20,-36 20,-0 74,-0 74,-36"/>
<text text-anchor="middle" x="47" y="-15.5" font-family="Helvetica,sans-Serif" font-size="10.00">include</text>
</a>
</g>
</g>
<!-- dir_bae34767ed5c6001d67c3395675e7253&#45;&gt;dir_8ee1a5e78eaec319fe5d64075812fc61 -->
<g id="edge1" class="edge"><title>dir_bae34767ed5c6001d67c3395675e7253&#45;&gt;dir_8ee1a5e78eaec319fe5d64075812fc61</title>
<path fill="none" stroke="black" d="M47,-71.6966C47,-63.9827 47,-54.7125 47,-46.1124"/>
<polygon fill="black" stroke="black" points="50.5001,-46.1043 47,-36.1043 43.5001,-46.1044 50.5001,-46.1043"/>
<g id="a_edge1&#45;headlabel"><a xlink:href="dir_000024_000001.html" target="_top" xlink:title="2">
<text text-anchor="middle" x="53.3393" y="-47.199" font-family="Helvetica,sans-Serif" font-size="10.00">2</text>
</a>
</g>
</g>
</g>
</svg>
