<?xml version="1.0" encoding="UTF-8" standalone="no"?>
<!DOCTYPE svg PUBLIC "-//W3C//DTD SVG 1.1//EN"
 "http://www.w3.org/Graphics/SVG/1.1/DTD/svg11.dtd">
<!-- Generated by graphviz version 2.30.1 (20130221.2233)
 -->
<!-- Title: source/portable/oWatcom/16BitDOS Pages: 1 -->
<svg width="336pt" height="231pt"
 viewBox="0.00 0.00 336.00 231.00" xmlns="http://www.w3.org/2000/svg" xmlns:xlink="http://www.w3.org/1999/xlink">
<g id="graph0" class="graph" transform="scale(1 1) rotate(0) translate(4 227)">
<title>source/portable/oWatcom/16BitDOS</title>
<polygon fill="white" stroke="white" points="-4,5 -4,-227 333,-227 333,5 -4,5"/>
<g id="clust1" class="cluster"><title>clusterdir_839ffd5c3b9afbc1283ad4fe68ddf903</title>
<g id="a_clust1"><a xlink:href="dir_839ffd5c3b9afbc1283ad4fe68ddf903.html" target="_top" xlink:title="oWatcom">
<polygon fill="#ddddee" stroke="black" points="8,-128 8,-215 320,-215 320,-128 8,-128"/>
<text text-anchor="middle" x="164" y="-203" font-family="Helvetica,sans-Serif" font-size="10.00">oWatcom</text>
</a>
</g>
</g>
<g id="clust2" class="cluster"><title>clusterdir_62c6543fd4c42f1dddde8774800bec22</title>
<g id="a_clust2"><a xlink:href="dir_62c6543fd4c42f1dddde8774800bec22.html" target="_top">
<polygon fill="#eeeeff" stroke="black" points="16,-136 16,-188 312,-188 312,-136 16,-136"/>
</a>
</g>
</g>
<!-- dir_62c6543fd4c42f1dddde8774800bec22 -->
<g id="node1" class="node"><title>dir_62c6543fd4c42f1dddde8774800bec22</title>
<text text-anchor="middle" x="273" y="-159.5" font-family="Helvetica,sans-Serif" font-size="10.00">16BitDOS</text>
</g>
<!-- dir_c2a6706bc2bf696e86fc39019423e6e3 -->
<g id="node2" class="node"><title>dir_c2a6706bc2bf696e86fc39019423e6e3</title>
<g id="a_node2"><a xlink:href="dir_c2a6706bc2bf696e86fc39019423e6e3.html" target="_top" xlink:title="common">
<polygon fill="white" stroke="black" points="79.25,-180 24.75,-180 24.75,-144 79.25,-144 79.25,-180"/>
<text text-anchor="middle" x="52" y="-159.5" font-family="Helvetica,sans-Serif" font-size="10.00">common</text>
</a>
</g>
</g>
<!-- dir_8ee1a5e78eaec319fe5d64075812fc61 -->
<g id="node6" class="node"><title>dir_8ee1a5e78eaec319fe5d64075812fc61</title>
<g id="a_node6"><a xlink:href="dir_8ee1a5e78eaec319fe5d64075812fc61.html" target="_top" xlink:title="include">
<polygon fill="none" stroke="black" points="170,-36 116,-36 116,-0 170,-0 170,-36"/>
<text text-anchor="middle" x="143" y="-15.5" font-family="Helvetica,sans-Serif" font-size="10.00">include</text>
</a>
</g>
</g>
<!-- dir_c2a6706bc2bf696e86fc39019423e6e3&#45;&gt;dir_8ee1a5e78eaec319fe5d64075812fc61 -->
<g id="edge2" class="edge"><title>dir_c2a6706bc2bf696e86fc39019423e6e3&#45;&gt;dir_8ee1a5e78eaec319fe5d64075812fc61</title>
<path fill="none" stroke="black" d="M62.9767,-143.871C78.7593,-119.244 107.986,-73.6377 126.412,-44.8845"/>
<polygon fill="black" stroke="black" points="129.536,-46.4972 131.984,-36.1893 123.642,-42.7203 129.536,-46.4972"/>
<g id="a_edge2&#45;headlabel"><a xlink:href="dir_000012_000001.html" target="_top" xlink:title="1">
<text text-anchor="middle" x="129.987" y="-48.5556" font-family="Helvetica,sans-Serif" font-size="10.00">1</text>
</a>
</g>
</g>
<!-- dir_11f33a0b4d23f2a4ca82f41284f9e57a -->
<g id="node3" class="node"><title>dir_11f33a0b4d23f2a4ca82f41284f9e57a</title>
<g id="a_node3"><a xlink:href="dir_11f33a0b4d23f2a4ca82f41284f9e57a.html" target="_top" xlink:title="Flsh186">
<polygon fill="white" stroke="black" points="152,-180 98,-180 98,-144 152,-144 152,-180"/>
<text text-anchor="middle" x="125" y="-159.5" font-family="Helvetica,sans-Serif" font-size="10.00">Flsh186</text>
</a>
</g>
</g>
<!-- dir_11f33a0b4d23f2a4ca82f41284f9e57a&#45;&gt;dir_8ee1a5e78eaec319fe5d64075812fc61 -->
<g id="edge5" class="edge"><title>dir_11f33a0b4d23f2a4ca82f41284f9e57a&#45;&gt;dir_8ee1a5e78eaec319fe5d64075812fc61</title>
<path fill="none" stroke="black" d="M126.725,-143.915C128.582,-125.98 131.713,-96.9734 135,-72 136.11,-63.5668 137.447,-54.3989 138.708,-46.0962"/>
<polygon fill="black" stroke="black" points="142.175,-46.5793 140.241,-36.1625 135.256,-45.5116 142.175,-46.5793"/>
<g id="a_edge5&#45;headlabel"><a xlink:href="dir_000091_000001.html" target="_top" xlink:title="2">
<text text-anchor="middle" x="144.432" y="-48.0649" font-family="Helvetica,sans-Serif" font-size="10.00">2</text>
</a>
</g>
</g>
<!-- dir_c98dae57bb1178d97e717eb990499c77 -->
<g id="node4" class="node"><title>dir_c98dae57bb1178d97e717eb990499c77</title>
<g id="a_node4"><a xlink:href="dir_c98dae57bb1178d97e717eb990499c77.html" target="_top" xlink:title="PC">
<polygon fill="white" stroke="black" points="224,-180 170,-180 170,-144 224,-144 224,-180"/>
<text text-anchor="middle" x="197" y="-159.5" font-family="Helvetica,sans-Serif" font-size="10.00">PC</text>
</a>
</g>
</g>
<!-- dir_921d680e936b75076e79072318538b88 -->
<g id="node5" class="node"><title>dir_921d680e936b75076e79072318538b88</title>
<g id="a_node5"><a xlink:href="dir_921d680e936b75076e79072318538b88.html" target="_top" xlink:title="MPLAB">
<polygon fill="white" stroke="red" points="198,-108 144,-108 144,-72 198,-72 198,-108"/>
<text text-anchor="middle" x="171" y="-87.5" font-family="Helvetica,sans-Serif" font-size="10.00">MPLAB</text>
</a>
</g>
</g>
<!-- dir_c98dae57bb1178d97e717eb990499c77&#45;&gt;dir_921d680e936b75076e79072318538b88 -->
<g id="edge3" class="edge"><title>dir_c98dae57bb1178d97e717eb990499c77&#45;&gt;dir_921d680e936b75076e79072318538b88</title>
<path fill="none" stroke="black" d="M190.573,-143.697C187.645,-135.813 184.113,-126.304 180.86,-117.546"/>
<polygon fill="black" stroke="black" points="184.116,-116.26 177.353,-108.104 177.554,-118.697 184.116,-116.26"/>
<g id="a_edge3&#45;headlabel"><a xlink:href="dir_000092_000084.html" target="_top" xlink:title="1">
<text text-anchor="middle" x="188.029" y="-116.141" font-family="Helvetica,sans-Serif" font-size="10.00">1</text>
</a>
</g>
</g>
<!-- dir_c98dae57bb1178d97e717eb990499c77&#45;&gt;dir_8ee1a5e78eaec319fe5d64075812fc61 -->
<g id="edge4" class="edge"><title>dir_c98dae57bb1178d97e717eb990499c77&#45;&gt;dir_8ee1a5e78eaec319fe5d64075812fc61</title>
<path fill="none" stroke="black" d="M204.151,-143.719C210.695,-125.111 217.851,-95.0756 207,-72 200.825,-58.8685 189.622,-47.8739 178.295,-39.3642"/>
<polygon fill="black" stroke="black" points="180.293,-36.4901 170.096,-33.612 176.273,-42.2205 180.293,-36.4901"/>
<g id="a_edge4&#45;headlabel"><a xlink:href="dir_000092_000001.html" target="_top" xlink:title="2">
<text text-anchor="middle" x="184.866" y="-33.7302" font-family="Helvetica,sans-Serif" font-size="10.00">2</text>
</a>
</g>
</g>
<!-- dir_921d680e936b75076e79072318538b88&#45;&gt;dir_8ee1a5e78eaec319fe5d64075812fc61 -->
<g id="edge1" class="edge"><title>dir_921d680e936b75076e79072318538b88&#45;&gt;dir_8ee1a5e78eaec319fe5d64075812fc61</title>
<path fill="none" stroke="black" d="M164.079,-71.6966C160.925,-63.8132 157.122,-54.3042 153.619,-45.5464"/>
<polygon fill="black" stroke="black" points="156.805,-44.0892 149.842,-36.1043 150.306,-46.689 156.805,-44.0892"/>
<g id="a_edge1&#45;headlabel"><a xlink:href="dir_000084_000001.html" target="_top" xlink:title="11">
<text text-anchor="middle" x="160.777" y="-43.8723" font-family="Helvetica,sans-Serif" font-size="10.00">11</text>
</a>
</g>
</g>
</g>
</svg>
