<?xml version="1.0" encoding="UTF-8" standalone="no"?>
<!DOCTYPE svg PUBLIC "-//W3C//DTD SVG 1.1//EN"
 "http://www.w3.org/Graphics/SVG/1.1/DTD/svg11.dtd">
<!-- Generated by graphviz version 2.30.1 (20130221.2233)
 -->
<!-- Title: source/portable/BCC/16BitDOS Pages: 1 -->
<svg width="335pt" height="159pt"
 viewBox="0.00 0.00 335.00 159.00" xmlns="http://www.w3.org/2000/svg" xmlns:xlink="http://www.w3.org/1999/xlink">
<g id="graph0" class="graph" transform="scale(1 1) rotate(0) translate(4 155)">
<title>source/portable/BCC/16BitDOS</title>
<polygon fill="white" stroke="white" points="-4,5 -4,-155 332,-155 332,5 -4,5"/>
<g id="clust1" class="cluster"><title>clusterdir_6afbb0004e1e7dc7fccb3a794160a878</title>
<g id="a_clust1"><a xlink:href="dir_6afbb0004e1e7dc7fccb3a794160a878.html" target="_top" xlink:title="BCC">
<polygon fill="#ddddee" stroke="black" points="8,-56 8,-143 319,-143 319,-56 8,-56"/>
<text text-anchor="middle" x="163.5" y="-131" font-family="Helvetica,sans-Serif" font-size="10.00">BCC</text>
</a>
</g>
</g>
<g id="clust2" class="cluster"><title>clusterdir_9952c995516ffd23ee10b36060fe6ff1</title>
<g id="a_clust2"><a xlink:href="dir_9952c995516ffd23ee10b36060fe6ff1.html" target="_top">
<polygon fill="#eeeeff" stroke="black" points="16,-64 16,-116 311,-116 311,-64 16,-64"/>
</a>
</g>
</g>
<!-- dir_9952c995516ffd23ee10b36060fe6ff1 -->
<g id="node1" class="node"><title>dir_9952c995516ffd23ee10b36060fe6ff1</title>
<text text-anchor="middle" x="272" y="-87.5" font-family="Helvetica,sans-Serif" font-size="10.00">16BitDOS</text>
</g>
<!-- dir_ae027ba62b1ad31c36a65d86370bdf58 -->
<g id="node2" class="node"><title>dir_ae027ba62b1ad31c36a65d86370bdf58</title>
<g id="a_node2"><a xlink:href="dir_ae027ba62b1ad31c36a65d86370bdf58.html" target="_top" xlink:title="common">
<polygon fill="white" stroke="black" points="223.25,-108 168.75,-108 168.75,-72 223.25,-72 223.25,-108"/>
<text text-anchor="middle" x="196" y="-87.5" font-family="Helvetica,sans-Serif" font-size="10.00">common</text>
</a>
</g>
</g>
<!-- dir_8ee1a5e78eaec319fe5d64075812fc61 -->
<g id="node5" class="node"><title>dir_8ee1a5e78eaec319fe5d64075812fc61</title>
<g id="a_node5"><a xlink:href="dir_8ee1a5e78eaec319fe5d64075812fc61.html" target="_top" xlink:title="include">
<polygon fill="none" stroke="black" points="150,-36 96,-36 96,-0 150,-0 150,-36"/>
<text text-anchor="middle" x="123" y="-15.5" font-family="Helvetica,sans-Serif" font-size="10.00">include</text>
</a>
</g>
</g>
<!-- dir_ae027ba62b1ad31c36a65d86370bdf58&#45;&gt;dir_8ee1a5e78eaec319fe5d64075812fc61 -->
<g id="edge1" class="edge"><title>dir_ae027ba62b1ad31c36a65d86370bdf58&#45;&gt;dir_8ee1a5e78eaec319fe5d64075812fc61</title>
<path fill="none" stroke="black" d="M177.955,-71.6966C168.938,-63.0503 157.882,-52.4486 148.057,-43.027"/>
<polygon fill="black" stroke="black" points="150.478,-40.4993 140.837,-36.1043 145.633,-45.5518 150.478,-40.4993"/>
<g id="a_edge1&#45;headlabel"><a xlink:href="dir_000005_000001.html" target="_top" xlink:title="1">
<text text-anchor="middle" x="155.037" y="-38.4379" font-family="Helvetica,sans-Serif" font-size="10.00">1</text>
</a>
</g>
</g>
<!-- dir_4a432257b1d8ba69bf6ae9e6228bdf76 -->
<g id="node3" class="node"><title>dir_4a432257b1d8ba69bf6ae9e6228bdf76</title>
<g id="a_node3"><a xlink:href="dir_4a432257b1d8ba69bf6ae9e6228bdf76.html" target="_top" xlink:title="Flsh186">
<polygon fill="white" stroke="black" points="150,-108 96,-108 96,-72 150,-72 150,-108"/>
<text text-anchor="middle" x="123" y="-87.5" font-family="Helvetica,sans-Serif" font-size="10.00">Flsh186</text>
</a>
</g>
</g>
<!-- dir_4a432257b1d8ba69bf6ae9e6228bdf76&#45;&gt;dir_8ee1a5e78eaec319fe5d64075812fc61 -->
<g id="edge3" class="edge"><title>dir_4a432257b1d8ba69bf6ae9e6228bdf76&#45;&gt;dir_8ee1a5e78eaec319fe5d64075812fc61</title>
<path fill="none" stroke="black" d="M123,-71.6966C123,-63.9827 123,-54.7125 123,-46.1124"/>
<polygon fill="black" stroke="black" points="126.5,-46.1043 123,-36.1043 119.5,-46.1044 126.5,-46.1043"/>
<g id="a_edge3&#45;headlabel"><a xlink:href="dir_000019_000001.html" target="_top" xlink:title="2">
<text text-anchor="middle" x="129.339" y="-47.199" font-family="Helvetica,sans-Serif" font-size="10.00">2</text>
</a>
</g>
</g>
<!-- dir_aece91e871265b6d87f8ec759c1cc2f7 -->
<g id="node4" class="node"><title>dir_aece91e871265b6d87f8ec759c1cc2f7</title>
<g id="a_node4"><a xlink:href="dir_aece91e871265b6d87f8ec759c1cc2f7.html" target="_top" xlink:title="PC">
<polygon fill="white" stroke="black" points="78,-108 24,-108 24,-72 78,-72 78,-108"/>
<text text-anchor="middle" x="51" y="-87.5" font-family="Helvetica,sans-Serif" font-size="10.00">PC</text>
</a>
</g>
</g>
<!-- dir_aece91e871265b6d87f8ec759c1cc2f7&#45;&gt;dir_8ee1a5e78eaec319fe5d64075812fc61 -->
<g id="edge2" class="edge"><title>dir_aece91e871265b6d87f8ec759c1cc2f7&#45;&gt;dir_8ee1a5e78eaec319fe5d64075812fc61</title>
<path fill="none" stroke="black" d="M68.7978,-71.6966C77.604,-63.135 88.3821,-52.6562 98.0011,-43.3045"/>
<polygon fill="black" stroke="black" points="100.677,-45.5846 105.407,-36.1043 95.7972,-40.5657 100.677,-45.5846"/>
<g id="a_edge2&#45;headlabel"><a xlink:href="dir_000020_000001.html" target="_top" xlink:title="2">
<text text-anchor="middle" x="100.079" y="-47.6261" font-family="Helvetica,sans-Serif" font-size="10.00">2</text>
</a>
</g>
</g>
</g>
</svg>
