<?xml version="1.0" encoding="UTF-8" standalone="no"?>
<!DOCTYPE svg PUBLIC "-//W3C//DTD SVG 1.1//EN"
 "http://www.w3.org/Graphics/SVG/1.1/DTD/svg11.dtd">
<!-- Generated by graphviz version 2.30.1 (20130221.2233)
 -->
<!-- Title: source/portable/RVDS/ARM7_LPC21xx Pages: 1 -->
<svg width="130pt" height="151pt"
 viewBox="0.00 0.00 130.00 151.00" xmlns="http://www.w3.org/2000/svg" xmlns:xlink="http://www.w3.org/1999/xlink">
<g id="graph0" class="graph" transform="scale(1 1) rotate(0) translate(4 147)">
<title>source/portable/RVDS/ARM7_LPC21xx</title>
<polygon fill="white" stroke="white" points="-4,5 -4,-147 127,-147 127,5 -4,5"/>
<g id="clust1" class="cluster"><title>clusterdir_033da7e77bbf006ab48b2e7d50b8e21e</title>
<g id="a_clust1"><a xlink:href="dir_033da7e77bbf006ab48b2e7d50b8e21e.html" target="_top" xlink:title="RVDS">
<polygon fill="#ddddee" stroke="black" points="8,-64 8,-135 114,-135 114,-64 8,-64"/>
<text text-anchor="middle" x="61" y="-123" font-family="Helvetica,sans-Serif" font-size="10.00">RVDS</text>
</a>
</g>
</g>
<!-- dir_e7d80831831b7dbe6d54851b8fa4f5f9 -->
<g id="node1" class="node"><title>dir_e7d80831831b7dbe6d54851b8fa4f5f9</title>
<g id="a_node1"><a xlink:href="dir_e7d80831831b7dbe6d54851b8fa4f5f9.html" target="_top" xlink:title="ARM7_LPC21xx">
<polygon fill="#eeeeff" stroke="black" points="106,-108 16,-108 16,-72 106,-72 106,-108"/>
<text text-anchor="middle" x="61" y="-87.5" font-family="Helvetica,sans-Serif" font-size="10.00">ARM7_LPC21xx</text>
</a>
</g>
</g>
<!-- dir_8ee1a5e78eaec319fe5d64075812fc61 -->
<g id="node2" class="node"><title>dir_8ee1a5e78eaec319fe5d64075812fc61</title>
<g id="a_node2"><a xlink:href="dir_8ee1a5e78eaec319fe5d64075812fc61.html" target="_top" xlink:title="include">
<polygon fill="none" stroke="black" points="88,-36 34,-36 34,-0 88,-0 88,-36"/>
<text text-anchor="middle" x="61" y="-15.5" font-family="Helvetica,sans-Serif" font-size="10.00">include</text>
</a>
</g>
</g>
<!-- dir_e7d80831831b7dbe6d54851b8fa4f5f9&#45;&gt;dir_8ee1a5e78eaec319fe5d64075812fc61 -->
<g id="edge1" class="edge"><title>dir_e7d80831831b7dbe6d54851b8fa4f5f9&#45;&gt;dir_8ee1a5e78eaec319fe5d64075812fc61</title>
<path fill="none" stroke="black" d="M61,-71.6966C61,-63.9827 61,-54.7125 61,-46.1124"/>
<polygon fill="black" stroke="black" points="64.5001,-46.1043 61,-36.1043 57.5001,-46.1044 64.5001,-46.1043"/>
<g id="a_edge1&#45;headlabel"><a xlink:href="dir_000100_000001.html" target="_top" xlink:title="2">
<text text-anchor="middle" x="67.3393" y="-47.199" font-family="Helvetica,sans-Serif" font-size="10.00">2</text>
</a>
</g>
</g>
</g>
</svg>
