<?xml version="1.0" encoding="UTF-8" standalone="no"?>
<!DOCTYPE svg PUBLIC "-//W3C//DTD SVG 1.1//EN"
 "http://www.w3.org/Graphics/SVG/1.1/DTD/svg11.dtd">
<!-- Generated by graphviz version 2.30.1 (20130221.2233)
 -->
<!-- Title: source/portable/Rowley Pages: 1 -->
<svg width="206pt" height="159pt"
 viewBox="0.00 0.00 206.00 159.00" xmlns="http://www.w3.org/2000/svg" xmlns:xlink="http://www.w3.org/1999/xlink">
<g id="graph0" class="graph" transform="scale(1 1) rotate(0) translate(4 155)">
<title>source/portable/Rowley</title>
<polygon fill="white" stroke="white" points="-4,5 -4,-155 203,-155 203,5 -4,5"/>
<g id="clust1" class="cluster"><title>clusterdir_a3bc36d27ac900b14f04c9e2c43db8b5</title>
<g id="a_clust1"><a xlink:href="dir_a3bc36d27ac900b14f04c9e2c43db8b5.html" target="_top" xlink:title="portable">
<polygon fill="#ddddee" stroke="black" points="8,-56 8,-143 190,-143 190,-56 8,-56"/>
<text text-anchor="middle" x="99" y="-131" font-family="Helvetica,sans-Serif" font-size="10.00">portable</text>
</a>
</g>
</g>
<g id="clust2" class="cluster"><title>clusterdir_3be387656b3d9dacf8df6e2fd12ed3b7</title>
<g id="a_clust2"><a xlink:href="dir_3be387656b3d9dacf8df6e2fd12ed3b7.html" target="_top">
<polygon fill="#eeeeff" stroke="black" points="16,-64 16,-116 182,-116 182,-64 16,-64"/>
</a>
</g>
</g>
<!-- dir_3be387656b3d9dacf8df6e2fd12ed3b7 -->
<g id="node1" class="node"><title>dir_3be387656b3d9dacf8df6e2fd12ed3b7</title>
<text text-anchor="middle" x="147" y="-87.5" font-family="Helvetica,sans-Serif" font-size="10.00">Rowley</text>
</g>
<!-- dir_af9e15e13b43d38ac1bd7215924b079a -->
<g id="node2" class="node"><title>dir_af9e15e13b43d38ac1bd7215924b079a</title>
<g id="a_node2"><a xlink:href="dir_af9e15e13b43d38ac1bd7215924b079a.html" target="_top" xlink:title="MSP430F449">
<polygon fill="white" stroke="black" points="102,-108 24,-108 24,-72 102,-72 102,-108"/>
<text text-anchor="middle" x="63" y="-87.5" font-family="Helvetica,sans-Serif" font-size="10.00">MSP430F449</text>
</a>
</g>
</g>
<!-- dir_8ee1a5e78eaec319fe5d64075812fc61 -->
<g id="node3" class="node"><title>dir_8ee1a5e78eaec319fe5d64075812fc61</title>
<g id="a_node3"><a xlink:href="dir_8ee1a5e78eaec319fe5d64075812fc61.html" target="_top" xlink:title="include">
<polygon fill="none" stroke="black" points="90,-36 36,-36 36,-0 90,-0 90,-36"/>
<text text-anchor="middle" x="63" y="-15.5" font-family="Helvetica,sans-Serif" font-size="10.00">include</text>
</a>
</g>
</g>
<!-- dir_af9e15e13b43d38ac1bd7215924b079a&#45;&gt;dir_8ee1a5e78eaec319fe5d64075812fc61 -->
<g id="edge1" class="edge"><title>dir_af9e15e13b43d38ac1bd7215924b079a&#45;&gt;dir_8ee1a5e78eaec319fe5d64075812fc61</title>
<path fill="none" stroke="black" d="M63,-71.6966C63,-63.9827 63,-54.7125 63,-46.1124"/>
<polygon fill="black" stroke="black" points="66.5001,-46.1043 63,-36.1043 59.5001,-46.1044 66.5001,-46.1043"/>
<g id="a_edge1&#45;headlabel"><a xlink:href="dir_000018_000001.html" target="_top" xlink:title="2">
<text text-anchor="middle" x="69.3393" y="-47.199" font-family="Helvetica,sans-Serif" font-size="10.00">2</text>
</a>
</g>
</g>
</g>
</svg>
