<?xml version="1.0" encoding="UTF-8" standalone="no"?>
<!DOCTYPE svg PUBLIC "-//W3C//DTD SVG 1.1//EN"
 "http://www.w3.org/Graphics/SVG/1.1/DTD/svg11.dtd">
<!-- Generated by graphviz version 2.30.1 (20130221.2233)
 -->
<!-- Title: source/portable/MPLAB/PIC32MX Pages: 1 -->
<svg width="100pt" height="151pt"
 viewBox="0.00 0.00 100.00 151.00" xmlns="http://www.w3.org/2000/svg" xmlns:xlink="http://www.w3.org/1999/xlink">
<g id="graph0" class="graph" transform="scale(1 1) rotate(0) translate(4 147)">
<title>source/portable/MPLAB/PIC32MX</title>
<polygon fill="white" stroke="white" points="-4,5 -4,-147 97,-147 97,5 -4,5"/>
<g id="clust1" class="cluster"><title>clusterdir_921d680e936b75076e79072318538b88</title>
<g id="a_clust1"><a xlink:href="dir_921d680e936b75076e79072318538b88.html" target="_top" xlink:title="MPLAB">
<polygon fill="#ddddee" stroke="black" points="8,-64 8,-135 84,-135 84,-64 8,-64"/>
<text text-anchor="middle" x="46" y="-123" font-family="Helvetica,sans-Serif" font-size="10.00">MPLAB</text>
</a>
</g>
</g>
<!-- dir_05e52e83481898a066856722405ec291 -->
<g id="node1" class="node"><title>dir_05e52e83481898a066856722405ec291</title>
<g id="a_node1"><a xlink:href="dir_05e52e83481898a066856722405ec291.html" target="_top" xlink:title="PIC32MX">
<polygon fill="#eeeeff" stroke="black" points="75.25,-108 16.75,-108 16.75,-72 75.25,-72 75.25,-108"/>
<text text-anchor="middle" x="46" y="-87.5" font-family="Helvetica,sans-Serif" font-size="10.00">PIC32MX</text>
</a>
</g>
</g>
<!-- dir_8ee1a5e78eaec319fe5d64075812fc61 -->
<g id="node2" class="node"><title>dir_8ee1a5e78eaec319fe5d64075812fc61</title>
<g id="a_node2"><a xlink:href="dir_8ee1a5e78eaec319fe5d64075812fc61.html" target="_top" xlink:title="include">
<polygon fill="none" stroke="black" points="73,-36 19,-36 19,-0 73,-0 73,-36"/>
<text text-anchor="middle" x="46" y="-15.5" font-family="Helvetica,sans-Serif" font-size="10.00">include</text>
</a>
</g>
</g>
<!-- dir_05e52e83481898a066856722405ec291&#45;&gt;dir_8ee1a5e78eaec319fe5d64075812fc61 -->
<g id="edge1" class="edge"><title>dir_05e52e83481898a066856722405ec291&#45;&gt;dir_8ee1a5e78eaec319fe5d64075812fc61</title>
<path fill="none" stroke="black" d="M46,-71.6966C46,-63.9827 46,-54.7125 46,-46.1124"/>
<polygon fill="black" stroke="black" points="49.5001,-46.1043 46,-36.1043 42.5001,-46.1044 49.5001,-46.1043"/>
<g id="a_edge1&#45;headlabel"><a xlink:href="dir_000088_000001.html" target="_top" xlink:title="2">
<text text-anchor="middle" x="52.3393" y="-47.199" font-family="Helvetica,sans-Serif" font-size="10.00">2</text>
</a>
</g>
</g>
</g>
</svg>
