<?xml version="1.0" encoding="UTF-8" standalone="no"?>
<!DOCTYPE svg PUBLIC "-//W3C//DTD SVG 1.1//EN"
 "http://www.w3.org/Graphics/SVG/1.1/DTD/svg11.dtd">
<!-- Generated by graphviz version 2.30.1 (20130221.2233)
 -->
<!-- Title: source/portable/WizC/PIC18/Drivers Pages: 1 -->
<svg width="182pt" height="159pt"
 viewBox="0.00 0.00 182.00 159.00" xmlns="http://www.w3.org/2000/svg" xmlns:xlink="http://www.w3.org/1999/xlink">
<g id="graph0" class="graph" transform="scale(1 1) rotate(0) translate(4 155)">
<title>source/portable/WizC/PIC18/Drivers</title>
<polygon fill="white" stroke="white" points="-4,5 -4,-155 179,-155 179,5 -4,5"/>
<g id="clust1" class="cluster"><title>clusterdir_8528fa2f43046e4b2897f168c176a059</title>
<g id="a_clust1"><a xlink:href="dir_8528fa2f43046e4b2897f168c176a059.html" target="_top" xlink:title="PIC18">
<polygon fill="#ddddee" stroke="black" points="8,-56 8,-143 166,-143 166,-56 8,-56"/>
<text text-anchor="middle" x="87" y="-131" font-family="Helvetica,sans-Serif" font-size="10.00">PIC18</text>
</a>
</g>
</g>
<g id="clust2" class="cluster"><title>clusterdir_f400d61bb7b055f83852f0309edd3053</title>
<g id="a_clust2"><a xlink:href="dir_f400d61bb7b055f83852f0309edd3053.html" target="_top">
<polygon fill="#eeeeff" stroke="black" points="16,-64 16,-116 158,-116 158,-64 16,-64"/>
</a>
</g>
</g>
<!-- dir_f400d61bb7b055f83852f0309edd3053 -->
<g id="node1" class="node"><title>dir_f400d61bb7b055f83852f0309edd3053</title>
<text text-anchor="middle" x="123" y="-87.5" font-family="Helvetica,sans-Serif" font-size="10.00">Drivers</text>
</g>
<!-- dir_b681bf1065e3f848186e5a7c2e869c80 -->
<g id="node2" class="node"><title>dir_b681bf1065e3f848186e5a7c2e869c80</title>
<g id="a_node2"><a xlink:href="dir_b681bf1065e3f848186e5a7c2e869c80.html" target="_top" xlink:title="Tick">
<polygon fill="white" stroke="black" points="78,-108 24,-108 24,-72 78,-72 78,-108"/>
<text text-anchor="middle" x="51" y="-87.5" font-family="Helvetica,sans-Serif" font-size="10.00">Tick</text>
</a>
</g>
</g>
<!-- dir_8ee1a5e78eaec319fe5d64075812fc61 -->
<g id="node3" class="node"><title>dir_8ee1a5e78eaec319fe5d64075812fc61</title>
<g id="a_node3"><a xlink:href="dir_8ee1a5e78eaec319fe5d64075812fc61.html" target="_top" xlink:title="include">
<polygon fill="none" stroke="black" points="78,-36 24,-36 24,-0 78,-0 78,-36"/>
<text text-anchor="middle" x="51" y="-15.5" font-family="Helvetica,sans-Serif" font-size="10.00">include</text>
</a>
</g>
</g>
<!-- dir_b681bf1065e3f848186e5a7c2e869c80&#45;&gt;dir_8ee1a5e78eaec319fe5d64075812fc61 -->
<g id="edge1" class="edge"><title>dir_b681bf1065e3f848186e5a7c2e869c80&#45;&gt;dir_8ee1a5e78eaec319fe5d64075812fc61</title>
<path fill="none" stroke="black" d="M51,-71.6966C51,-63.9827 51,-54.7125 51,-46.1124"/>
<polygon fill="black" stroke="black" points="54.5001,-46.1043 51,-36.1043 47.5001,-46.1044 54.5001,-46.1043"/>
<g id="a_edge1&#45;headlabel"><a xlink:href="dir_000119_000001.html" target="_top" xlink:title="2">
<text text-anchor="middle" x="57.3393" y="-47.199" font-family="Helvetica,sans-Serif" font-size="10.00">2</text>
</a>
</g>
</g>
</g>
</svg>
