<?xml version="1.0" encoding="UTF-8" standalone="no"?>
<!DOCTYPE svg PUBLIC "-//W3C//DTD SVG 1.1//EN"
 "http://www.w3.org/Graphics/SVG/1.1/DTD/svg11.dtd">
<!-- Generated by graphviz version 2.30.1 (20130221.2233)
 -->
<!-- Title: source/portable/GCC/RX600v2 Pages: 1 -->
<svg width="98pt" height="151pt"
 viewBox="0.00 0.00 98.00 151.00" xmlns="http://www.w3.org/2000/svg" xmlns:xlink="http://www.w3.org/1999/xlink">
<g id="graph0" class="graph" transform="scale(1 1) rotate(0) translate(4 147)">
<title>source/portable/GCC/RX600v2</title>
<polygon fill="white" stroke="white" points="-4,5 -4,-147 95,-147 95,5 -4,5"/>
<g id="clust1" class="cluster"><title>clusterdir_d4458967a3e0f1422a9a5cc862ecde1d</title>
<g id="a_clust1"><a xlink:href="dir_d4458967a3e0f1422a9a5cc862ecde1d.html" target="_top" xlink:title="GCC">
<polygon fill="#ddddee" stroke="black" points="8,-64 8,-135 82,-135 82,-64 8,-64"/>
<text text-anchor="middle" x="45" y="-123" font-family="Helvetica,sans-Serif" font-size="10.00">GCC</text>
</a>
</g>
</g>
<!-- dir_dd94930ad332d96708022c96fbfbf93a -->
<g id="node1" class="node"><title>dir_dd94930ad332d96708022c96fbfbf93a</title>
<g id="a_node1"><a xlink:href="dir_dd94930ad332d96708022c96fbfbf93a.html" target="_top" xlink:title="RX600v2">
<polygon fill="#eeeeff" stroke="black" points="74,-108 16,-108 16,-72 74,-72 74,-108"/>
<text text-anchor="middle" x="45" y="-87.5" font-family="Helvetica,sans-Serif" font-size="10.00">RX600v2</text>
</a>
</g>
</g>
<!-- dir_8ee1a5e78eaec319fe5d64075812fc61 -->
<g id="node2" class="node"><title>dir_8ee1a5e78eaec319fe5d64075812fc61</title>
<g id="a_node2"><a xlink:href="dir_8ee1a5e78eaec319fe5d64075812fc61.html" target="_top" xlink:title="include">
<polygon fill="none" stroke="black" points="72,-36 18,-36 18,-0 72,-0 72,-36"/>
<text text-anchor="middle" x="45" y="-15.5" font-family="Helvetica,sans-Serif" font-size="10.00">include</text>
</a>
</g>
</g>
<!-- dir_dd94930ad332d96708022c96fbfbf93a&#45;&gt;dir_8ee1a5e78eaec319fe5d64075812fc61 -->
<g id="edge1" class="edge"><title>dir_dd94930ad332d96708022c96fbfbf93a&#45;&gt;dir_8ee1a5e78eaec319fe5d64075812fc61</title>
<path fill="none" stroke="black" d="M45,-71.6966C45,-63.9827 45,-54.7125 45,-46.1124"/>
<polygon fill="black" stroke="black" points="48.5001,-46.1043 45,-36.1043 41.5001,-46.1044 48.5001,-46.1043"/>
<g id="a_edge1&#45;headlabel"><a xlink:href="dir_000060_000001.html" target="_top" xlink:title="2">
<text text-anchor="middle" x="51.3393" y="-47.199" font-family="Helvetica,sans-Serif" font-size="10.00">2</text>
</a>
</g>
</g>
</g>
</svg>
