<?xml version="1.0" encoding="UTF-8" standalone="no"?>
<!DOCTYPE svg PUBLIC "-//W3C//DTD SVG 1.1//EN"
 "http://www.w3.org/Graphics/SVG/1.1/DTD/svg11.dtd">
<!-- Generated by graphviz version 2.30.1 (20130221.2233)
 -->
<!-- Title: source/portable/Paradigm/Tern_EE Pages: 1 -->
<svg width="286pt" height="159pt"
 viewBox="0.00 0.00 286.00 159.00" xmlns="http://www.w3.org/2000/svg" xmlns:xlink="http://www.w3.org/1999/xlink">
<g id="graph0" class="graph" transform="scale(1 1) rotate(0) translate(4 155)">
<title>source/portable/Paradigm/Tern_EE</title>
<polygon fill="white" stroke="white" points="-4,5 -4,-155 283,-155 283,5 -4,5"/>
<g id="clust1" class="cluster"><title>clusterdir_301802eeeb73f8dc3d8affd501062caf</title>
<g id="a_clust1"><a xlink:href="dir_301802eeeb73f8dc3d8affd501062caf.html" target="_top" xlink:title="Paradigm">
<polygon fill="#ddddee" stroke="black" points="8,-56 8,-143 270,-143 270,-56 8,-56"/>
<text text-anchor="middle" x="139" y="-131" font-family="Helvetica,sans-Serif" font-size="10.00">Paradigm</text>
</a>
</g>
</g>
<g id="clust2" class="cluster"><title>clusterdir_339d9aa8b437d453b9bf0dbd7ee0f24f</title>
<g id="a_clust2"><a xlink:href="dir_339d9aa8b437d453b9bf0dbd7ee0f24f.html" target="_top">
<polygon fill="#eeeeff" stroke="black" points="16,-64 16,-116 262,-116 262,-64 16,-64"/>
</a>
</g>
</g>
<!-- dir_339d9aa8b437d453b9bf0dbd7ee0f24f -->
<g id="node1" class="node"><title>dir_339d9aa8b437d453b9bf0dbd7ee0f24f</title>
<text text-anchor="middle" x="226" y="-87.5" font-family="Helvetica,sans-Serif" font-size="10.00">Tern_EE</text>
</g>
<!-- dir_b7e13c093151f51c58ca6c9c2689ded7 -->
<g id="node2" class="node"><title>dir_b7e13c093151f51c58ca6c9c2689ded7</title>
<g id="a_node2"><a xlink:href="dir_b7e13c093151f51c58ca6c9c2689ded7.html" target="_top" xlink:title="large_untested">
<polygon fill="white" stroke="black" points="179.25,-108 96.75,-108 96.75,-72 179.25,-72 179.25,-108"/>
<text text-anchor="middle" x="138" y="-87.5" font-family="Helvetica,sans-Serif" font-size="10.00">large_untested</text>
</a>
</g>
</g>
<!-- dir_8ee1a5e78eaec319fe5d64075812fc61 -->
<g id="node4" class="node"><title>dir_8ee1a5e78eaec319fe5d64075812fc61</title>
<g id="a_node4"><a xlink:href="dir_8ee1a5e78eaec319fe5d64075812fc61.html" target="_top" xlink:title="include">
<polygon fill="none" stroke="black" points="121,-36 67,-36 67,-0 121,-0 121,-36"/>
<text text-anchor="middle" x="94" y="-15.5" font-family="Helvetica,sans-Serif" font-size="10.00">include</text>
</a>
</g>
</g>
<!-- dir_b7e13c093151f51c58ca6c9c2689ded7&#45;&gt;dir_8ee1a5e78eaec319fe5d64075812fc61 -->
<g id="edge1" class="edge"><title>dir_b7e13c093151f51c58ca6c9c2689ded7&#45;&gt;dir_8ee1a5e78eaec319fe5d64075812fc61</title>
<path fill="none" stroke="black" d="M127.124,-71.6966C122.008,-63.5589 115.805,-53.689 110.155,-44.7013"/>
<polygon fill="black" stroke="black" points="113.036,-42.7081 104.751,-36.1043 107.11,-46.4333 113.036,-42.7081"/>
<g id="a_edge1&#45;headlabel"><a xlink:href="dir_000015_000001.html" target="_top" xlink:title="2">
<text text-anchor="middle" x="117.353" y="-41.7405" font-family="Helvetica,sans-Serif" font-size="10.00">2</text>
</a>
</g>
</g>
<!-- dir_b00462afea724606ccfa941b897a872a -->
<g id="node3" class="node"><title>dir_b00462afea724606ccfa941b897a872a</title>
<g id="a_node3"><a xlink:href="dir_b00462afea724606ccfa941b897a872a.html" target="_top" xlink:title="small">
<polygon fill="white" stroke="black" points="78,-108 24,-108 24,-72 78,-72 78,-108"/>
<text text-anchor="middle" x="51" y="-87.5" font-family="Helvetica,sans-Serif" font-size="10.00">small</text>
</a>
</g>
</g>
<!-- dir_b00462afea724606ccfa941b897a872a&#45;&gt;dir_8ee1a5e78eaec319fe5d64075812fc61 -->
<g id="edge2" class="edge"><title>dir_b00462afea724606ccfa941b897a872a&#45;&gt;dir_8ee1a5e78eaec319fe5d64075812fc61</title>
<path fill="none" stroke="black" d="M61.6292,-71.6966C66.6281,-63.5589 72.691,-53.689 78.2121,-44.7013"/>
<polygon fill="black" stroke="black" points="81.2411,-46.4571 83.4931,-36.1043 75.2766,-42.7931 81.2411,-46.4571"/>
<g id="a_edge2&#45;headlabel"><a xlink:href="dir_000016_000001.html" target="_top" xlink:title="2">
<text text-anchor="middle" x="81.7789" y="-48.5061" font-family="Helvetica,sans-Serif" font-size="10.00">2</text>
</a>
</g>
</g>
</g>
</svg>
