<?xml version="1.0" encoding="UTF-8" standalone="no"?>
<!DOCTYPE svg PUBLIC "-//W3C//DTD SVG 1.1//EN"
 "http://www.w3.org/Graphics/SVG/1.1/DTD/svg11.dtd">
<!-- Generated by graphviz version 2.30.1 (20130221.2233)
 -->
<!-- Title: source/portable/CCS Pages: 1 -->
<svg width="388pt" height="159pt"
 viewBox="0.00 0.00 388.00 159.00" xmlns="http://www.w3.org/2000/svg" xmlns:xlink="http://www.w3.org/1999/xlink">
<g id="graph0" class="graph" transform="scale(1 1) rotate(0) translate(4 155)">
<title>source/portable/CCS</title>
<polygon fill="white" stroke="white" points="-4,5 -4,-155 385,-155 385,5 -4,5"/>
<g id="clust1" class="cluster"><title>clusterdir_a3bc36d27ac900b14f04c9e2c43db8b5</title>
<g id="a_clust1"><a xlink:href="dir_a3bc36d27ac900b14f04c9e2c43db8b5.html" target="_top" xlink:title="portable">
<polygon fill="#ddddee" stroke="black" points="8,-56 8,-143 372,-143 372,-56 8,-56"/>
<text text-anchor="middle" x="190" y="-131" font-family="Helvetica,sans-Serif" font-size="10.00">portable</text>
</a>
</g>
</g>
<g id="clust2" class="cluster"><title>clusterdir_a49d539f8fbf843d5a1d08107eb904f0</title>
<g id="a_clust2"><a xlink:href="dir_a49d539f8fbf843d5a1d08107eb904f0.html" target="_top">
<polygon fill="#eeeeff" stroke="black" points="16,-64 16,-116 364,-116 364,-64 16,-64"/>
</a>
</g>
</g>
<!-- dir_a49d539f8fbf843d5a1d08107eb904f0 -->
<g id="node1" class="node"><title>dir_a49d539f8fbf843d5a1d08107eb904f0</title>
<text text-anchor="middle" x="329" y="-87.5" font-family="Helvetica,sans-Serif" font-size="10.00">CCS</text>
</g>
<!-- dir_0f2f329f41f0e71665842acc59b991a5 -->
<g id="node2" class="node"><title>dir_0f2f329f41f0e71665842acc59b991a5</title>
<g id="a_node2"><a xlink:href="dir_0f2f329f41f0e71665842acc59b991a5.html" target="_top" xlink:title="ARM_CM4F">
<polygon fill="white" stroke="black" points="284,-108 212,-108 212,-72 284,-72 284,-108"/>
<text text-anchor="middle" x="248" y="-87.5" font-family="Helvetica,sans-Serif" font-size="10.00">ARM_CM4F</text>
</a>
</g>
</g>
<!-- dir_8ee1a5e78eaec319fe5d64075812fc61 -->
<g id="node5" class="node"><title>dir_8ee1a5e78eaec319fe5d64075812fc61</title>
<g id="a_node5"><a xlink:href="dir_8ee1a5e78eaec319fe5d64075812fc61.html" target="_top" xlink:title="include">
<polygon fill="none" stroke="black" points="176,-36 122,-36 122,-0 176,-0 176,-36"/>
<text text-anchor="middle" x="149" y="-15.5" font-family="Helvetica,sans-Serif" font-size="10.00">include</text>
</a>
</g>
</g>
<!-- dir_0f2f329f41f0e71665842acc59b991a5&#45;&gt;dir_8ee1a5e78eaec319fe5d64075812fc61 -->
<g id="edge3" class="edge"><title>dir_0f2f329f41f0e71665842acc59b991a5&#45;&gt;dir_8ee1a5e78eaec319fe5d64075812fc61</title>
<path fill="none" stroke="black" d="M224.747,-71.7295C217.786,-66.6188 210.113,-61.043 203,-56 196.481,-51.3784 189.47,-46.5043 182.728,-41.8652"/>
<polygon fill="black" stroke="black" points="184.618,-38.917 174.39,-36.1511 180.661,-44.6912 184.618,-38.917"/>
<g id="a_edge3&#45;headlabel"><a xlink:href="dir_000022_000001.html" target="_top" xlink:title="2">
<text text-anchor="middle" x="189.188" y="-36.1069" font-family="Helvetica,sans-Serif" font-size="10.00">2</text>
</a>
</g>
</g>
<!-- dir_1ca5b8529e9e1e0cecede22e8efbbeb5 -->
<g id="node3" class="node"><title>dir_1ca5b8529e9e1e0cecede22e8efbbeb5</title>
<g id="a_node3"><a xlink:href="dir_1ca5b8529e9e1e0cecede22e8efbbeb5.html" target="_top" xlink:title="ARM_Cortex&#45;R4">
<polygon fill="white" stroke="black" points="194,-108 104,-108 104,-72 194,-72 194,-108"/>
<text text-anchor="middle" x="149" y="-87.5" font-family="Helvetica,sans-Serif" font-size="10.00">ARM_Cortex&#45;R4</text>
</a>
</g>
</g>
<!-- dir_1ca5b8529e9e1e0cecede22e8efbbeb5&#45;&gt;dir_8ee1a5e78eaec319fe5d64075812fc61 -->
<g id="edge1" class="edge"><title>dir_1ca5b8529e9e1e0cecede22e8efbbeb5&#45;&gt;dir_8ee1a5e78eaec319fe5d64075812fc61</title>
<path fill="none" stroke="black" d="M149,-71.6966C149,-63.9827 149,-54.7125 149,-46.1124"/>
<polygon fill="black" stroke="black" points="152.5,-46.1043 149,-36.1043 145.5,-46.1044 152.5,-46.1043"/>
<g id="a_edge1&#45;headlabel"><a xlink:href="dir_000023_000001.html" target="_top" xlink:title="2">
<text text-anchor="middle" x="155.339" y="-47.199" font-family="Helvetica,sans-Serif" font-size="10.00">2</text>
</a>
</g>
</g>
<!-- dir_bae34767ed5c6001d67c3395675e7253 -->
<g id="node4" class="node"><title>dir_bae34767ed5c6001d67c3395675e7253</title>
<g id="a_node4"><a xlink:href="dir_bae34767ed5c6001d67c3395675e7253.html" target="_top" xlink:title="MSP430X">
<polygon fill="white" stroke="black" points="86,-108 24,-108 24,-72 86,-72 86,-108"/>
<text text-anchor="middle" x="55" y="-87.5" font-family="Helvetica,sans-Serif" font-size="10.00">MSP430X</text>
</a>
</g>
</g>
<!-- dir_bae34767ed5c6001d67c3395675e7253&#45;&gt;dir_8ee1a5e78eaec319fe5d64075812fc61 -->
<g id="edge2" class="edge"><title>dir_bae34767ed5c6001d67c3395675e7253&#45;&gt;dir_8ee1a5e78eaec319fe5d64075812fc61</title>
<path fill="none" stroke="black" d="M75.0679,-71.8554C81.3556,-66.644 88.3827,-60.9811 95,-56 101.32,-51.2424 108.196,-46.3365 114.858,-41.7146"/>
<polygon fill="black" stroke="black" points="116.857,-44.5876 123.124,-36.0448 112.897,-38.8151 116.857,-44.5876"/>
<g id="a_edge2&#45;headlabel"><a xlink:href="dir_000024_000001.html" target="_top" xlink:title="2">
<text text-anchor="middle" x="115.499" y="-46.4622" font-family="Helvetica,sans-Serif" font-size="10.00">2</text>
</a>
</g>
</g>
</g>
</svg>
