<?xml version="1.0" encoding="UTF-8" standalone="no"?>
<!DOCTYPE svg PUBLIC "-//W3C//DTD SVG 1.1//EN"
 "http://www.w3.org/Graphics/SVG/1.1/DTD/svg11.dtd">
<!-- Generated by graphviz version 2.30.1 (20130221.2233)
 -->
<!-- Title: source/portable Pages: 1 -->
<svg width="1458pt" height="183pt"
 viewBox="0.00 0.00 1458.00 183.00" xmlns="http://www.w3.org/2000/svg" xmlns:xlink="http://www.w3.org/1999/xlink">
<g id="graph0" class="graph" transform="scale(1 1) rotate(0) translate(4 179)">
<title>source/portable</title>
<polygon fill="white" stroke="white" points="-4,5 -4,-179 1455,-179 1455,5 -4,5"/>
<g id="clust1" class="cluster"><title>clusterdir_b2f33c71d4aa5e7af42a1ca61ff5af1b</title>
<g id="a_clust1"><a xlink:href="dir_b2f33c71d4aa5e7af42a1ca61ff5af1b.html" target="_top" xlink:title="source">
<polygon fill="#ddddee" stroke="black" points="8,-8 8,-167 1388,-167 1388,-8 8,-8"/>
<text text-anchor="middle" x="698" y="-155" font-family="Helvetica,sans-Serif" font-size="10.00">source</text>
</a>
</g>
</g>
<g id="clust2" class="cluster"><title>clusterdir_a3bc36d27ac900b14f04c9e2c43db8b5</title>
<g id="a_clust2"><a xlink:href="dir_a3bc36d27ac900b14f04c9e2c43db8b5.html" target="_top">
<polygon fill="#eeeeff" stroke="black" points="16,-16 16,-140 1380,-140 1380,-16 16,-16"/>
</a>
</g>
</g>
<!-- dir_a3bc36d27ac900b14f04c9e2c43db8b5 -->
<g id="node1" class="node"><title>dir_a3bc36d27ac900b14f04c9e2c43db8b5</title>
<text text-anchor="middle" x="1345" y="-111.5" font-family="Helvetica,sans-Serif" font-size="10.00">portable</text>
</g>
<!-- dir_6afbb0004e1e7dc7fccb3a794160a878 -->
<g id="node2" class="node"><title>dir_6afbb0004e1e7dc7fccb3a794160a878</title>
<g id="a_node2"><a xlink:href="dir_6afbb0004e1e7dc7fccb3a794160a878.html" target="_top" xlink:title="BCC">
<polygon fill="white" stroke="red" points="1156,-132 1102,-132 1102,-96 1156,-96 1156,-132"/>
<text text-anchor="middle" x="1129" y="-111.5" font-family="Helvetica,sans-Serif" font-size="10.00">BCC</text>
</a>
</g>
</g>
<!-- dir_8ee1a5e78eaec319fe5d64075812fc61 -->
<g id="node20" class="node"><title>dir_8ee1a5e78eaec319fe5d64075812fc61</title>
<g id="a_node20"><a xlink:href="dir_8ee1a5e78eaec319fe5d64075812fc61.html" target="_top" xlink:title="include">
<polygon fill="none" stroke="black" points="1450,-60 1396,-60 1396,-24 1450,-24 1450,-60"/>
<text text-anchor="middle" x="1423" y="-39.5" font-family="Helvetica,sans-Serif" font-size="10.00">include</text>
</a>
</g>
</g>
<!-- dir_6afbb0004e1e7dc7fccb3a794160a878&#45;&gt;dir_8ee1a5e78eaec319fe5d64075812fc61 -->
<g id="edge16" class="edge"><title>dir_6afbb0004e1e7dc7fccb3a794160a878&#45;&gt;dir_8ee1a5e78eaec319fe5d64075812fc61</title>
<path fill="none" stroke="black" d="M1156.2,-99.1953C1159.13,-98.0006 1162.1,-96.9047 1165,-96 1259.17,-66.6566 1289.39,-87.9221 1384,-60 1384.72,-59.7883 1385.44,-59.5668 1386.16,-59.3365"/>
<polygon fill="black" stroke="black" points="1387.39,-62.6147 1395.62,-55.941 1385.02,-56.0266 1387.39,-62.6147"/>
<g id="a_edge16&#45;headlabel"><a xlink:href="dir_000003_000001.html" target="_top" xlink:title="5">
<text text-anchor="middle" x="1384.97" y="-64.0017" font-family="Helvetica,sans-Serif" font-size="10.00">5</text>
</a>
</g>
</g>
<!-- dir_a49d539f8fbf843d5a1d08107eb904f0 -->
<g id="node3" class="node"><title>dir_a49d539f8fbf843d5a1d08107eb904f0</title>
<g id="a_node3"><a xlink:href="dir_a49d539f8fbf843d5a1d08107eb904f0.html" target="_top" xlink:title="CCS">
<polygon fill="white" stroke="red" points="1084,-132 1030,-132 1030,-96 1084,-96 1084,-132"/>
<text text-anchor="middle" x="1057" y="-111.5" font-family="Helvetica,sans-Serif" font-size="10.00">CCS</text>
</a>
</g>
</g>
<!-- dir_a49d539f8fbf843d5a1d08107eb904f0&#45;&gt;dir_8ee1a5e78eaec319fe5d64075812fc61 -->
<g id="edge7" class="edge"><title>dir_a49d539f8fbf843d5a1d08107eb904f0&#45;&gt;dir_8ee1a5e78eaec319fe5d64075812fc61</title>
<path fill="none" stroke="black" d="M1084.17,-99.0759C1087.1,-97.9045 1090.08,-96.8467 1093,-96 1218.17,-59.7185 1258.3,-94.3928 1384,-60 1384.72,-59.8026 1385.45,-59.5943 1386.17,-59.3761"/>
<polygon fill="black" stroke="black" points="1387.36,-62.6694 1395.66,-56.0838 1385.06,-56.0565 1387.36,-62.6694"/>
<g id="a_edge7&#45;headlabel"><a xlink:href="dir_000021_000001.html" target="_top" xlink:title="6">
<text text-anchor="middle" x="1384.9" y="-64.0304" font-family="Helvetica,sans-Serif" font-size="10.00">6</text>
</a>
</g>
</g>
<!-- dir_3b034963369cbffd29c9dc8d7d1a296c -->
<g id="node4" class="node"><title>dir_3b034963369cbffd29c9dc8d7d1a296c</title>
<g id="a_node4"><a xlink:href="dir_3b034963369cbffd29c9dc8d7d1a296c.html" target="_top" xlink:title="CodeWarrior">
<polygon fill="white" stroke="red" points="1011.25,-132 938.75,-132 938.75,-96 1011.25,-96 1011.25,-132"/>
<text text-anchor="middle" x="975" y="-111.5" font-family="Helvetica,sans-Serif" font-size="10.00">CodeWarrior</text>
</a>
</g>
</g>
<!-- dir_3b034963369cbffd29c9dc8d7d1a296c&#45;&gt;dir_8ee1a5e78eaec319fe5d64075812fc61 -->
<g id="edge3" class="edge"><title>dir_3b034963369cbffd29c9dc8d7d1a296c&#45;&gt;dir_8ee1a5e78eaec319fe5d64075812fc61</title>
<path fill="none" stroke="black" d="M1011.4,-98.5926C1014.62,-97.6116 1017.85,-96.7263 1021,-96 1178.99,-59.6039 1227.12,-100.889 1384,-60 1384.72,-59.8114 1385.45,-59.6111 1386.18,-59.4004"/>
<polygon fill="black" stroke="black" points="1387.34,-62.7027 1395.68,-56.171 1385.09,-56.0751 1387.34,-62.7027"/>
<g id="a_edge3&#45;headlabel"><a xlink:href="dir_000025_000001.html" target="_top" xlink:title="6">
<text text-anchor="middle" x="1384.85" y="-64.0476" font-family="Helvetica,sans-Serif" font-size="10.00">6</text>
</a>
</g>
</g>
<!-- dir_d4458967a3e0f1422a9a5cc862ecde1d -->
<g id="node5" class="node"><title>dir_d4458967a3e0f1422a9a5cc862ecde1d</title>
<g id="a_node5"><a xlink:href="dir_d4458967a3e0f1422a9a5cc862ecde1d.html" target="_top" xlink:title="GCC">
<polygon fill="white" stroke="red" points="920,-132 866,-132 866,-96 920,-96 920,-132"/>
<text text-anchor="middle" x="893" y="-111.5" font-family="Helvetica,sans-Serif" font-size="10.00">GCC</text>
</a>
</g>
</g>
<!-- dir_d4458967a3e0f1422a9a5cc862ecde1d&#45;&gt;dir_8ee1a5e78eaec319fe5d64075812fc61 -->
<g id="edge9" class="edge"><title>dir_d4458967a3e0f1422a9a5cc862ecde1d&#45;&gt;dir_8ee1a5e78eaec319fe5d64075812fc61</title>
<path fill="none" stroke="black" d="M920.129,-98.9429C923.069,-97.7974 926.061,-96.782 929,-96 1125.03,-43.8368 1187.2,-109.206 1384,-60 1384.73,-59.8186 1385.45,-59.625 1386.19,-59.4203"/>
<polygon fill="black" stroke="black" points="1387.32,-62.7301 1395.7,-56.2428 1385.11,-56.0905 1387.32,-62.7301"/>
<g id="a_edge9&#45;headlabel"><a xlink:href="dir_000029_000001.html" target="_top" xlink:title="78">
<text text-anchor="middle" x="1384.81" y="-64.0617" font-family="Helvetica,sans-Serif" font-size="10.00">78</text>
</a>
</g>
</g>
<!-- dir_15315e845ed14f3cd8e31ade5443d7d6 -->
<g id="node6" class="node"><title>dir_15315e845ed14f3cd8e31ade5443d7d6</title>
<g id="a_node6"><a xlink:href="dir_15315e845ed14f3cd8e31ade5443d7d6.html" target="_top" xlink:title="IAR">
<polygon fill="white" stroke="red" points="848,-132 794,-132 794,-96 848,-96 848,-132"/>
<text text-anchor="middle" x="821" y="-111.5" font-family="Helvetica,sans-Serif" font-size="10.00">IAR</text>
</a>
</g>
</g>
<!-- dir_15315e845ed14f3cd8e31ade5443d7d6&#45;&gt;dir_8ee1a5e78eaec319fe5d64075812fc61 -->
<g id="edge6" class="edge"><title>dir_15315e845ed14f3cd8e31ade5443d7d6&#45;&gt;dir_8ee1a5e78eaec319fe5d64075812fc61</title>
<path fill="none" stroke="black" d="M848.12,-98.9104C851.062,-97.7713 854.057,-96.7662 857,-96 1084.19,-36.8507 1155.94,-115.722 1384,-60 1384.73,-59.8225 1385.46,-59.6324 1386.19,-59.4311"/>
<polygon fill="black" stroke="black" points="1387.32,-62.7449 1395.71,-56.2816 1385.12,-56.0989 1387.32,-62.7449"/>
<g id="a_edge6&#45;headlabel"><a xlink:href="dir_000006_000001.html" target="_top" xlink:title="46">
<text text-anchor="middle" x="1384.79" y="-64.0692" font-family="Helvetica,sans-Serif" font-size="10.00">46</text>
</a>
</g>
</g>
<!-- dir_d44753bd6d112a787489cbc723ae1ce0 -->
<g id="node7" class="node"><title>dir_d44753bd6d112a787489cbc723ae1ce0</title>
<g id="a_node7"><a xlink:href="dir_d44753bd6d112a787489cbc723ae1ce0.html" target="_top" xlink:title="MemMang">
<polygon fill="white" stroke="black" points="776,-132 712,-132 712,-96 776,-96 776,-132"/>
<text text-anchor="middle" x="744" y="-111.5" font-family="Helvetica,sans-Serif" font-size="10.00">MemMang</text>
</a>
</g>
</g>
<!-- dir_d44753bd6d112a787489cbc723ae1ce0&#45;&gt;dir_8ee1a5e78eaec319fe5d64075812fc61 -->
<g id="edge8" class="edge"><title>dir_d44753bd6d112a787489cbc723ae1ce0&#45;&gt;dir_8ee1a5e78eaec319fe5d64075812fc61</title>
<path fill="none" stroke="black" d="M776.351,-98.4433C779.237,-97.4947 782.147,-96.6577 785,-96 1044.89,-36.0959 1124.66,-122.242 1384,-60 1384.73,-59.8255 1385.46,-59.6382 1386.19,-59.4393"/>
<polygon fill="black" stroke="black" points="1387.31,-62.7561 1395.72,-56.3113 1385.13,-56.1054 1387.31,-62.7561"/>
<g id="a_edge8&#45;headlabel"><a xlink:href="dir_000117_000001.html" target="_top" xlink:title="10">
<text text-anchor="middle" x="1384.78" y="-64.0749" font-family="Helvetica,sans-Serif" font-size="10.00">10</text>
</a>
</g>
</g>
<!-- dir_921d680e936b75076e79072318538b88 -->
<g id="node8" class="node"><title>dir_921d680e936b75076e79072318538b88</title>
<g id="a_node8"><a xlink:href="dir_921d680e936b75076e79072318538b88.html" target="_top" xlink:title="MPLAB">
<polygon fill="white" stroke="red" points="176,-60 122,-60 122,-24 176,-24 176,-60"/>
<text text-anchor="middle" x="149" y="-39.5" font-family="Helvetica,sans-Serif" font-size="10.00">MPLAB</text>
</a>
</g>
</g>
<!-- dir_921d680e936b75076e79072318538b88&#45;&gt;dir_8ee1a5e78eaec319fe5d64075812fc61 -->
<g id="edge5" class="edge"><title>dir_921d680e936b75076e79072318538b88&#45;&gt;dir_8ee1a5e78eaec319fe5d64075812fc61</title>
<path fill="none" stroke="black" d="M176.06,-42C579.3,-42 982.54,-42 1385.78,-42"/>
<polygon fill="black" stroke="black" points="1385.91,-45.5001 1395.91,-42 1385.91,-38.5001 1385.91,-45.5001"/>
<g id="a_edge5&#45;headlabel"><a xlink:href="dir_000084_000001.html" target="_top" xlink:title="11">
<text text-anchor="middle" x="1382.31" y="-45.8393" font-family="Helvetica,sans-Serif" font-size="10.00">11</text>
</a>
</g>
</g>
<!-- dir_cd1c2b5cc00414c9b21b7bc0f26bc6fc -->
<g id="node9" class="node"><title>dir_cd1c2b5cc00414c9b21b7bc0f26bc6fc</title>
<g id="a_node9"><a xlink:href="dir_cd1c2b5cc00414c9b21b7bc0f26bc6fc.html" target="_top" xlink:title="MSVC&#45;MingW">
<polygon fill="white" stroke="black" points="104,-132 24,-132 24,-96 104,-96 104,-132"/>
<text text-anchor="middle" x="64" y="-111.5" font-family="Helvetica,sans-Serif" font-size="10.00">MSVC&#45;MingW</text>
</a>
</g>
</g>
<!-- dir_cd1c2b5cc00414c9b21b7bc0f26bc6fc&#45;&gt;dir_921d680e936b75076e79072318538b88 -->
<g id="edge20" class="edge"><title>dir_cd1c2b5cc00414c9b21b7bc0f26bc6fc&#45;&gt;dir_921d680e936b75076e79072318538b88</title>
<path fill="none" stroke="black" d="M85.0112,-95.6966C95.7163,-86.8807 108.89,-76.0321 120.496,-66.4742"/>
<polygon fill="black" stroke="black" points="122.736,-69.1632 128.23,-60.1043 118.286,-63.7597 122.736,-69.1632"/>
<g id="a_edge20&#45;headlabel"><a xlink:href="dir_000090_000084.html" target="_top" xlink:title="1">
<text text-anchor="middle" x="121.766" y="-71.14" font-family="Helvetica,sans-Serif" font-size="10.00">1</text>
</a>
</g>
</g>
<!-- dir_cd1c2b5cc00414c9b21b7bc0f26bc6fc&#45;&gt;dir_8ee1a5e78eaec319fe5d64075812fc61 -->
<g id="edge21" class="edge"><title>dir_cd1c2b5cc00414c9b21b7bc0f26bc6fc&#45;&gt;dir_8ee1a5e78eaec319fe5d64075812fc61</title>
<path fill="none" stroke="black" d="M104.114,-97.9932C107.094,-97.215 110.077,-96.5353 113,-96 390.935,-45.0995 1108.23,-121.577 1384,-60 1384.73,-59.837 1385.46,-59.6603 1386.2,-59.4713"/>
<polygon fill="black" stroke="black" points="1387.28,-62.7996 1395.74,-56.4263 1385.15,-56.1306 1387.28,-62.7996"/>
<g id="a_edge21&#45;headlabel"><a xlink:href="dir_000090_000001.html" target="_top" xlink:title="2">
<text text-anchor="middle" x="1384.72" y="-64.0969" font-family="Helvetica,sans-Serif" font-size="10.00">2</text>
</a>
</g>
</g>
<!-- dir_839ffd5c3b9afbc1283ad4fe68ddf903 -->
<g id="node10" class="node"><title>dir_839ffd5c3b9afbc1283ad4fe68ddf903</title>
<g id="a_node10"><a xlink:href="dir_839ffd5c3b9afbc1283ad4fe68ddf903.html" target="_top" xlink:title="oWatcom">
<polygon fill="white" stroke="red" points="253.25,-132 194.75,-132 194.75,-96 253.25,-96 253.25,-132"/>
<text text-anchor="middle" x="224" y="-111.5" font-family="Helvetica,sans-Serif" font-size="10.00">oWatcom</text>
</a>
</g>
</g>
<!-- dir_839ffd5c3b9afbc1283ad4fe68ddf903&#45;&gt;dir_921d680e936b75076e79072318538b88 -->
<g id="edge17" class="edge"><title>dir_839ffd5c3b9afbc1283ad4fe68ddf903&#45;&gt;dir_921d680e936b75076e79072318538b88</title>
<path fill="none" stroke="black" d="M205.461,-95.6966C196.197,-87.0503 184.838,-76.4486 174.743,-67.027"/>
<polygon fill="black" stroke="black" points="177.025,-64.3688 167.326,-60.1043 172.249,-69.4863 177.025,-64.3688"/>
<g id="a_edge17&#45;headlabel"><a xlink:href="dir_000010_000084.html" target="_top" xlink:title="1">
<text text-anchor="middle" x="181.59" y="-62.2458" font-family="Helvetica,sans-Serif" font-size="10.00">1</text>
</a>
</g>
</g>
<!-- dir_839ffd5c3b9afbc1283ad4fe68ddf903&#45;&gt;dir_8ee1a5e78eaec319fe5d64075812fc61 -->
<g id="edge18" class="edge"><title>dir_839ffd5c3b9afbc1283ad4fe68ddf903&#45;&gt;dir_8ee1a5e78eaec319fe5d64075812fc61</title>
<path fill="none" stroke="black" d="M253.417,-98.8034C256.597,-97.6852 259.83,-96.7142 263,-96 506.146,-41.2234 1140.85,-114.777 1384,-60 1384.73,-59.8356 1385.46,-59.6577 1386.2,-59.4675"/>
<polygon fill="black" stroke="black" points="1387.28,-62.7944 1395.74,-56.4126 1385.15,-56.1276 1387.28,-62.7944"/>
<g id="a_edge18&#45;headlabel"><a xlink:href="dir_000010_000001.html" target="_top" xlink:title="5">
<text text-anchor="middle" x="1384.73" y="-64.0943" font-family="Helvetica,sans-Serif" font-size="10.00">5</text>
</a>
</g>
</g>
<!-- dir_301802eeeb73f8dc3d8affd501062caf -->
<g id="node11" class="node"><title>dir_301802eeeb73f8dc3d8affd501062caf</title>
<g id="a_node11"><a xlink:href="dir_301802eeeb73f8dc3d8affd501062caf.html" target="_top" xlink:title="Paradigm">
<polygon fill="white" stroke="red" points="693.25,-132 634.75,-132 634.75,-96 693.25,-96 693.25,-132"/>
<text text-anchor="middle" x="664" y="-111.5" font-family="Helvetica,sans-Serif" font-size="10.00">Paradigm</text>
</a>
</g>
</g>
<!-- dir_301802eeeb73f8dc3d8affd501062caf&#45;&gt;dir_8ee1a5e78eaec319fe5d64075812fc61 -->
<g id="edge13" class="edge"><title>dir_301802eeeb73f8dc3d8affd501062caf&#45;&gt;dir_8ee1a5e78eaec319fe5d64075812fc61</title>
<path fill="none" stroke="black" d="M693.433,-98.8709C696.609,-97.7395 699.837,-96.747 703,-96 997.973,-26.3303 1089.03,-129.67 1384,-60 1384.73,-59.8281 1385.46,-59.6432 1386.19,-59.4466"/>
<polygon fill="black" stroke="black" points="1387.3,-62.766 1395.72,-56.3374 1385.13,-56.1111 1387.3,-62.766"/>
<g id="a_edge13&#45;headlabel"><a xlink:href="dir_000013_000001.html" target="_top" xlink:title="4">
<text text-anchor="middle" x="1384.77" y="-64.08" font-family="Helvetica,sans-Serif" font-size="10.00">4</text>
</a>
</g>
</g>
<!-- dir_c7e91e084d65f5e6b0a7bc0196a43133 -->
<g id="node12" class="node"><title>dir_c7e91e084d65f5e6b0a7bc0196a43133</title>
<g id="a_node12"><a xlink:href="dir_c7e91e084d65f5e6b0a7bc0196a43133.html" target="_top" xlink:title="Qt">
<polygon fill="white" stroke="black" points="176,-132 122,-132 122,-96 176,-96 176,-132"/>
<text text-anchor="middle" x="149" y="-111.5" font-family="Helvetica,sans-Serif" font-size="10.00">Qt</text>
</a>
</g>
</g>
<!-- dir_c7e91e084d65f5e6b0a7bc0196a43133&#45;&gt;dir_921d680e936b75076e79072318538b88 -->
<g id="edge14" class="edge"><title>dir_c7e91e084d65f5e6b0a7bc0196a43133&#45;&gt;dir_921d680e936b75076e79072318538b88</title>
<path fill="none" stroke="black" d="M149,-95.6966C149,-87.9827 149,-78.7125 149,-70.1124"/>
<polygon fill="black" stroke="black" points="152.5,-70.1043 149,-60.1043 145.5,-70.1044 152.5,-70.1043"/>
<g id="a_edge14&#45;headlabel"><a xlink:href="dir_000116_000084.html" target="_top" xlink:title="1">
<text text-anchor="middle" x="155.339" y="-71.199" font-family="Helvetica,sans-Serif" font-size="10.00">1</text>
</a>
</g>
</g>
<!-- dir_c7e91e084d65f5e6b0a7bc0196a43133&#45;&gt;dir_8ee1a5e78eaec319fe5d64075812fc61 -->
<g id="edge15" class="edge"><title>dir_c7e91e084d65f5e6b0a7bc0196a43133&#45;&gt;dir_8ee1a5e78eaec319fe5d64075812fc61</title>
<path fill="none" stroke="black" d="M176.091,-98.7945C179.039,-97.678 182.043,-96.7099 185,-96 444.201,-33.7774 1123.89,-118.313 1384,-60 1384.73,-59.8364 1385.46,-59.6592 1386.2,-59.4696"/>
<polygon fill="black" stroke="black" points="1387.28,-62.7973 1395.74,-56.4202 1385.15,-56.1293 1387.28,-62.7973"/>
<g id="a_edge15&#45;headlabel"><a xlink:href="dir_000116_000001.html" target="_top" xlink:title="3">
<text text-anchor="middle" x="1384.72" y="-64.0957" font-family="Helvetica,sans-Serif" font-size="10.00">3</text>
</a>
</g>
</g>
<!-- dir_4b4ea31bef69a66620816b1d75301e40 -->
<g id="node13" class="node"><title>dir_4b4ea31bef69a66620816b1d75301e40</title>
<g id="a_node13"><a xlink:href="dir_4b4ea31bef69a66620816b1d75301e40.html" target="_top" xlink:title="Renesas">
<polygon fill="white" stroke="red" points="616,-132 560,-132 560,-96 616,-96 616,-132"/>
<text text-anchor="middle" x="588" y="-111.5" font-family="Helvetica,sans-Serif" font-size="10.00">Renesas</text>
</a>
</g>
</g>
<!-- dir_4b4ea31bef69a66620816b1d75301e40&#45;&gt;dir_8ee1a5e78eaec319fe5d64075812fc61 -->
<g id="edge11" class="edge"><title>dir_4b4ea31bef69a66620816b1d75301e40&#45;&gt;dir_8ee1a5e78eaec319fe5d64075812fc61</title>
<path fill="none" stroke="black" d="M616.292,-98.6963C619.181,-97.6329 622.115,-96.703 625,-96 953.11,-16.0385 1055.12,-136.738 1384,-60 1384.73,-59.8301 1385.46,-59.647 1386.19,-59.4521"/>
<polygon fill="black" stroke="black" points="1387.3,-62.7734 1395.73,-56.357 1385.14,-56.1154 1387.3,-62.7734"/>
<g id="a_edge11&#45;headlabel"><a xlink:href="dir_000093_000001.html" target="_top" xlink:title="10">
<text text-anchor="middle" x="1384.76" y="-64.0837" font-family="Helvetica,sans-Serif" font-size="10.00">10</text>
</a>
</g>
</g>
<!-- dir_3be387656b3d9dacf8df6e2fd12ed3b7 -->
<g id="node14" class="node"><title>dir_3be387656b3d9dacf8df6e2fd12ed3b7</title>
<g id="a_node14"><a xlink:href="dir_3be387656b3d9dacf8df6e2fd12ed3b7.html" target="_top" xlink:title="Rowley">
<polygon fill="white" stroke="red" points="542,-132 488,-132 488,-96 542,-96 542,-132"/>
<text text-anchor="middle" x="515" y="-111.5" font-family="Helvetica,sans-Serif" font-size="10.00">Rowley</text>
</a>
</g>
</g>
<!-- dir_3be387656b3d9dacf8df6e2fd12ed3b7&#45;&gt;dir_8ee1a5e78eaec319fe5d64075812fc61 -->
<g id="edge12" class="edge"><title>dir_3be387656b3d9dacf8df6e2fd12ed3b7&#45;&gt;dir_8ee1a5e78eaec319fe5d64075812fc61</title>
<path fill="none" stroke="black" d="M542.101,-98.8345C545.047,-97.7102 548.048,-96.7294 551,-96 910.753,-7.12881 1022.95,-143.444 1384,-60 1384.73,-59.8316 1385.46,-59.6499 1386.19,-59.4563"/>
<polygon fill="black" stroke="black" points="1387.29,-62.7792 1395.73,-56.3723 1385.14,-56.1187 1387.29,-62.7792"/>
<g id="a_edge12&#45;headlabel"><a xlink:href="dir_000017_000001.html" target="_top" xlink:title="2">
<text text-anchor="middle" x="1384.75" y="-64.0866" font-family="Helvetica,sans-Serif" font-size="10.00">2</text>
</a>
</g>
</g>
<!-- dir_033da7e77bbf006ab48b2e7d50b8e21e -->
<g id="node15" class="node"><title>dir_033da7e77bbf006ab48b2e7d50b8e21e</title>
<g id="a_node15"><a xlink:href="dir_033da7e77bbf006ab48b2e7d50b8e21e.html" target="_top" xlink:title="RVDS">
<polygon fill="white" stroke="red" points="470,-132 416,-132 416,-96 470,-96 470,-132"/>
<text text-anchor="middle" x="443" y="-111.5" font-family="Helvetica,sans-Serif" font-size="10.00">RVDS</text>
</a>
</g>
</g>
<!-- dir_033da7e77bbf006ab48b2e7d50b8e21e&#45;&gt;dir_8ee1a5e78eaec319fe5d64075812fc61 -->
<g id="edge4" class="edge"><title>dir_033da7e77bbf006ab48b2e7d50b8e21e&#45;&gt;dir_8ee1a5e78eaec319fe5d64075812fc61</title>
<path fill="none" stroke="black" d="M470.098,-98.8241C473.044,-97.7018 476.046,-96.7243 479,-96 869.958,-0.13183 991.643,-149.971 1384,-60 1384.73,-59.8329 1385.46,-59.6523 1386.2,-59.4598"/>
<polygon fill="black" stroke="black" points="1387.29,-62.7839 1395.74,-56.3848 1385.14,-56.1215 1387.29,-62.7839"/>
<g id="a_edge4&#45;headlabel"><a xlink:href="dir_000099_000001.html" target="_top" xlink:title="12">
<text text-anchor="middle" x="1384.74" y="-64.089" font-family="Helvetica,sans-Serif" font-size="10.00">12</text>
</a>
</g>
</g>
<!-- dir_6394614b35db206dcff9c63e73962b09 -->
<g id="node16" class="node"><title>dir_6394614b35db206dcff9c63e73962b09</title>
<g id="a_node16"><a xlink:href="dir_6394614b35db206dcff9c63e73962b09.html" target="_top" xlink:title="SDCC">
<polygon fill="white" stroke="red" points="398,-132 344,-132 344,-96 398,-96 398,-132"/>
<text text-anchor="middle" x="371" y="-111.5" font-family="Helvetica,sans-Serif" font-size="10.00">SDCC</text>
</a>
</g>
</g>
<!-- dir_6394614b35db206dcff9c63e73962b09&#45;&gt;dir_8ee1a5e78eaec319fe5d64075812fc61 -->
<g id="edge19" class="edge"><title>dir_6394614b35db206dcff9c63e73962b09&#45;&gt;dir_8ee1a5e78eaec319fe5d64075812fc61</title>
<path fill="none" stroke="black" d="M398.096,-98.8152C401.043,-97.6946 404.045,-96.72 407,-96 829.165,6.86587 960.334,-156.498 1384,-60 1384.73,-59.8339 1385.46,-59.6544 1386.2,-59.4627"/>
<polygon fill="black" stroke="black" points="1387.29,-62.7879 1395.74,-56.3954 1385.15,-56.1238 1387.29,-62.7879"/>
<g id="a_edge19&#45;headlabel"><a xlink:href="dir_000107_000001.html" target="_top" xlink:title="2">
<text text-anchor="middle" x="1384.74" y="-64.091" font-family="Helvetica,sans-Serif" font-size="10.00">2</text>
</a>
</g>
</g>
<!-- dir_fb147759ce0c3092d3b39e4310930cf1 -->
<g id="node17" class="node"><title>dir_fb147759ce0c3092d3b39e4310930cf1</title>
<g id="a_node17"><a xlink:href="dir_fb147759ce0c3092d3b39e4310930cf1.html" target="_top" xlink:title="Softune">
<polygon fill="white" stroke="red" points="326,-132 272,-132 272,-96 326,-96 326,-132"/>
<text text-anchor="middle" x="299" y="-111.5" font-family="Helvetica,sans-Serif" font-size="10.00">Softune</text>
</a>
</g>
</g>
<!-- dir_fb147759ce0c3092d3b39e4310930cf1&#45;&gt;dir_8ee1a5e78eaec319fe5d64075812fc61 -->
<g id="edge1" class="edge"><title>dir_fb147759ce0c3092d3b39e4310930cf1&#45;&gt;dir_8ee1a5e78eaec319fe5d64075812fc61</title>
<path fill="none" stroke="black" d="M326.094,-98.8075C329.041,-97.6885 332.044,-96.7162 335,-96 561.688,-41.0679 1156.51,-111.513 1384,-60 1384.73,-59.8348 1385.46,-59.6562 1386.2,-59.4653"/>
<polygon fill="black" stroke="black" points="1387.29,-62.7914 1395.74,-56.4046 1385.15,-56.1258 1387.29,-62.7914"/>
<g id="a_edge1&#45;headlabel"><a xlink:href="dir_000109_000001.html" target="_top" xlink:title="4">
<text text-anchor="middle" x="1384.73" y="-64.0928" font-family="Helvetica,sans-Serif" font-size="10.00">4</text>
</a>
</g>
</g>
<!-- dir_f6cc430d48fa982996f8a9442b62512d -->
<g id="node18" class="node"><title>dir_f6cc430d48fa982996f8a9442b62512d</title>
<g id="a_node18"><a xlink:href="dir_f6cc430d48fa982996f8a9442b62512d.html" target="_top" xlink:title="Tasking">
<polygon fill="white" stroke="red" points="1300,-132 1246,-132 1246,-96 1300,-96 1300,-132"/>
<text text-anchor="middle" x="1273" y="-111.5" font-family="Helvetica,sans-Serif" font-size="10.00">Tasking</text>
</a>
</g>
</g>
<!-- dir_f6cc430d48fa982996f8a9442b62512d&#45;&gt;dir_8ee1a5e78eaec319fe5d64075812fc61 -->
<g id="edge10" class="edge"><title>dir_f6cc430d48fa982996f8a9442b62512d&#45;&gt;dir_8ee1a5e78eaec319fe5d64075812fc61</title>
<path fill="none" stroke="black" d="M1300.12,-100.173C1303.11,-98.7621 1306.12,-97.349 1309,-96 1334.94,-83.8454 1364.25,-70.2226 1386.65,-59.832"/>
<polygon fill="black" stroke="black" points="1388.2,-62.9721 1395.8,-55.5905 1385.25,-56.6214 1388.2,-62.9721"/>
<g id="a_edge10&#45;headlabel"><a xlink:href="dir_000112_000001.html" target="_top" xlink:title="2">
<text text-anchor="middle" x="1386.13" y="-64.5599" font-family="Helvetica,sans-Serif" font-size="10.00">2</text>
</a>
</g>
</g>
<!-- dir_9b362e6cebf19796f7023c0c6c7eaea3 -->
<g id="node19" class="node"><title>dir_9b362e6cebf19796f7023c0c6c7eaea3</title>
<g id="a_node19"><a xlink:href="dir_9b362e6cebf19796f7023c0c6c7eaea3.html" target="_top" xlink:title="WizC">
<polygon fill="white" stroke="red" points="1228,-132 1174,-132 1174,-96 1228,-96 1228,-132"/>
<text text-anchor="middle" x="1201" y="-111.5" font-family="Helvetica,sans-Serif" font-size="10.00">WizC</text>
</a>
</g>
</g>
<!-- dir_9b362e6cebf19796f7023c0c6c7eaea3&#45;&gt;dir_8ee1a5e78eaec319fe5d64075812fc61 -->
<g id="edge2" class="edge"><title>dir_9b362e6cebf19796f7023c0c6c7eaea3&#45;&gt;dir_8ee1a5e78eaec319fe5d64075812fc61</title>
<path fill="none" stroke="black" d="M1228.28,-99.4245C1231.19,-98.1852 1234.13,-97.0161 1237,-96 1300.4,-73.5255 1320.27,-81.5174 1384,-60 1384.86,-59.7106 1385.72,-59.4099 1386.59,-59.0997"/>
<polygon fill="black" stroke="black" points="1387.88,-62.3525 1395.96,-55.4927 1385.37,-55.8201 1387.88,-62.3525"/>
<g id="a_edge2&#45;headlabel"><a xlink:href="dir_000114_000001.html" target="_top" xlink:title="4">
<text text-anchor="middle" x="1385.55" y="-63.7938" font-family="Helvetica,sans-Serif" font-size="10.00">4</text>
</a>
</g>
</g>
</g>
</svg>
