<?xml version="1.0" encoding="UTF-8" standalone="no"?>
<!DOCTYPE svg PUBLIC "-//W3C//DTD SVG 1.1//EN"
 "http://www.w3.org/Graphics/SVG/1.1/DTD/svg11.dtd">
<!-- Generated by graphviz version 2.30.1 (20130221.2233)
 -->
<!-- Title: source/portable/Paradigm Pages: 1 -->
<svg width="190pt" height="159pt"
 viewBox="0.00 0.00 190.00 159.00" xmlns="http://www.w3.org/2000/svg" xmlns:xlink="http://www.w3.org/1999/xlink">
<g id="graph0" class="graph" transform="scale(1 1) rotate(0) translate(4 155)">
<title>source/portable/Paradigm</title>
<polygon fill="white" stroke="white" points="-4,5 -4,-155 187,-155 187,5 -4,5"/>
<g id="clust1" class="cluster"><title>clusterdir_a3bc36d27ac900b14f04c9e2c43db8b5</title>
<g id="a_clust1"><a xlink:href="dir_a3bc36d27ac900b14f04c9e2c43db8b5.html" target="_top" xlink:title="portable">
<polygon fill="#ddddee" stroke="black" points="8,-56 8,-143 174,-143 174,-56 8,-56"/>
<text text-anchor="middle" x="91" y="-131" font-family="Helvetica,sans-Serif" font-size="10.00">portable</text>
</a>
</g>
</g>
<g id="clust2" class="cluster"><title>clusterdir_301802eeeb73f8dc3d8affd501062caf</title>
<g id="a_clust2"><a xlink:href="dir_301802eeeb73f8dc3d8affd501062caf.html" target="_top">
<polygon fill="#eeeeff" stroke="black" points="16,-64 16,-116 166,-116 166,-64 16,-64"/>
</a>
</g>
</g>
<!-- dir_301802eeeb73f8dc3d8affd501062caf -->
<g id="node1" class="node"><title>dir_301802eeeb73f8dc3d8affd501062caf</title>
<text text-anchor="middle" x="128" y="-87.5" font-family="Helvetica,sans-Serif" font-size="10.00">Paradigm</text>
</g>
<!-- dir_339d9aa8b437d453b9bf0dbd7ee0f24f -->
<g id="node2" class="node"><title>dir_339d9aa8b437d453b9bf0dbd7ee0f24f</title>
<g id="a_node2"><a xlink:href="dir_339d9aa8b437d453b9bf0dbd7ee0f24f.html" target="_top" xlink:title="Tern_EE">
<polygon fill="white" stroke="red" points="80,-108 24,-108 24,-72 80,-72 80,-108"/>
<text text-anchor="middle" x="52" y="-87.5" font-family="Helvetica,sans-Serif" font-size="10.00">Tern_EE</text>
</a>
</g>
</g>
<!-- dir_8ee1a5e78eaec319fe5d64075812fc61 -->
<g id="node3" class="node"><title>dir_8ee1a5e78eaec319fe5d64075812fc61</title>
<g id="a_node3"><a xlink:href="dir_8ee1a5e78eaec319fe5d64075812fc61.html" target="_top" xlink:title="include">
<polygon fill="none" stroke="black" points="79,-36 25,-36 25,-0 79,-0 79,-36"/>
<text text-anchor="middle" x="52" y="-15.5" font-family="Helvetica,sans-Serif" font-size="10.00">include</text>
</a>
</g>
</g>
<!-- dir_339d9aa8b437d453b9bf0dbd7ee0f24f&#45;&gt;dir_8ee1a5e78eaec319fe5d64075812fc61 -->
<g id="edge1" class="edge"><title>dir_339d9aa8b437d453b9bf0dbd7ee0f24f&#45;&gt;dir_8ee1a5e78eaec319fe5d64075812fc61</title>
<path fill="none" stroke="black" d="M52,-71.6966C52,-63.9827 52,-54.7125 52,-46.1124"/>
<polygon fill="black" stroke="black" points="55.5001,-46.1043 52,-36.1043 48.5001,-46.1044 55.5001,-46.1043"/>
<g id="a_edge1&#45;headlabel"><a xlink:href="dir_000014_000001.html" target="_top" xlink:title="4">
<text text-anchor="middle" x="58.3393" y="-47.199" font-family="Helvetica,sans-Serif" font-size="10.00">4</text>
</a>
</g>
</g>
</g>
</svg>
