<?xml version="1.0" encoding="UTF-8" standalone="no"?>
<!DOCTYPE svg PUBLIC "-//W3C//DTD SVG 1.1//EN"
 "http://www.w3.org/Graphics/SVG/1.1/DTD/svg11.dtd">
<!-- Generated by graphviz version 2.30.1 (20130221.2233)
 -->
<!-- Title: source/portable/CodeWarrior Pages: 1 -->
<svg width="382pt" height="159pt"
 viewBox="0.00 0.00 382.00 159.00" xmlns="http://www.w3.org/2000/svg" xmlns:xlink="http://www.w3.org/1999/xlink">
<g id="graph0" class="graph" transform="scale(1 1) rotate(0) translate(4 155)">
<title>source/portable/CodeWarrior</title>
<polygon fill="white" stroke="white" points="-4,5 -4,-155 379,-155 379,5 -4,5"/>
<g id="clust1" class="cluster"><title>clusterdir_a3bc36d27ac900b14f04c9e2c43db8b5</title>
<g id="a_clust1"><a xlink:href="dir_a3bc36d27ac900b14f04c9e2c43db8b5.html" target="_top" xlink:title="portable">
<polygon fill="#ddddee" stroke="black" points="8,-56 8,-143 366,-143 366,-56 8,-56"/>
<text text-anchor="middle" x="187" y="-131" font-family="Helvetica,sans-Serif" font-size="10.00">portable</text>
</a>
</g>
</g>
<g id="clust2" class="cluster"><title>clusterdir_3b034963369cbffd29c9dc8d7d1a296c</title>
<g id="a_clust2"><a xlink:href="dir_3b034963369cbffd29c9dc8d7d1a296c.html" target="_top">
<polygon fill="#eeeeff" stroke="black" points="16,-64 16,-116 358,-116 358,-64 16,-64"/>
</a>
</g>
</g>
<!-- dir_3b034963369cbffd29c9dc8d7d1a296c -->
<g id="node1" class="node"><title>dir_3b034963369cbffd29c9dc8d7d1a296c</title>
<text text-anchor="middle" x="313" y="-87.5" font-family="Helvetica,sans-Serif" font-size="10.00">CodeWarrior</text>
</g>
<!-- dir_1dea82497da1d777823519b1efe93708 -->
<g id="node2" class="node"><title>dir_1dea82497da1d777823519b1efe93708</title>
<g id="a_node2"><a xlink:href="dir_1dea82497da1d777823519b1efe93708.html" target="_top" xlink:title="ColdFire_V1">
<polygon fill="white" stroke="black" points="258,-108 186,-108 186,-72 258,-72 258,-108"/>
<text text-anchor="middle" x="222" y="-87.5" font-family="Helvetica,sans-Serif" font-size="10.00">ColdFire_V1</text>
</a>
</g>
</g>
<!-- dir_8ee1a5e78eaec319fe5d64075812fc61 -->
<g id="node5" class="node"><title>dir_8ee1a5e78eaec319fe5d64075812fc61</title>
<g id="a_node5"><a xlink:href="dir_8ee1a5e78eaec319fe5d64075812fc61.html" target="_top" xlink:title="include">
<polygon fill="none" stroke="black" points="159,-36 105,-36 105,-0 159,-0 159,-36"/>
<text text-anchor="middle" x="132" y="-15.5" font-family="Helvetica,sans-Serif" font-size="10.00">include</text>
</a>
</g>
</g>
<!-- dir_1dea82497da1d777823519b1efe93708&#45;&gt;dir_8ee1a5e78eaec319fe5d64075812fc61 -->
<g id="edge2" class="edge"><title>dir_1dea82497da1d777823519b1efe93708&#45;&gt;dir_8ee1a5e78eaec319fe5d64075812fc61</title>
<path fill="none" stroke="black" d="M199.753,-71.6966C188.418,-62.8807 174.47,-52.0321 162.181,-42.4742"/>
<polygon fill="black" stroke="black" points="164.034,-39.481 153.991,-36.1043 159.736,-45.0065 164.034,-39.481"/>
<g id="a_edge2&#45;headlabel"><a xlink:href="dir_000026_000001.html" target="_top" xlink:title="2">
<text text-anchor="middle" x="168.614" y="-36.9467" font-family="Helvetica,sans-Serif" font-size="10.00">2</text>
</a>
</g>
</g>
<!-- dir_fbb8cb87c770514bcb68d61886dbb647 -->
<g id="node3" class="node"><title>dir_fbb8cb87c770514bcb68d61886dbb647</title>
<g id="a_node3"><a xlink:href="dir_fbb8cb87c770514bcb68d61886dbb647.html" target="_top" xlink:title="ColdFire_V2">
<polygon fill="white" stroke="black" points="168,-108 96,-108 96,-72 168,-72 168,-108"/>
<text text-anchor="middle" x="132" y="-87.5" font-family="Helvetica,sans-Serif" font-size="10.00">ColdFire_V2</text>
</a>
</g>
</g>
<!-- dir_fbb8cb87c770514bcb68d61886dbb647&#45;&gt;dir_8ee1a5e78eaec319fe5d64075812fc61 -->
<g id="edge3" class="edge"><title>dir_fbb8cb87c770514bcb68d61886dbb647&#45;&gt;dir_8ee1a5e78eaec319fe5d64075812fc61</title>
<path fill="none" stroke="black" d="M132,-71.6966C132,-63.9827 132,-54.7125 132,-46.1124"/>
<polygon fill="black" stroke="black" points="135.5,-46.1043 132,-36.1043 128.5,-46.1044 135.5,-46.1043"/>
<g id="a_edge3&#45;headlabel"><a xlink:href="dir_000027_000001.html" target="_top" xlink:title="2">
<text text-anchor="middle" x="138.339" y="-47.199" font-family="Helvetica,sans-Serif" font-size="10.00">2</text>
</a>
</g>
</g>
<!-- dir_fc6f99a91a6a3e7ac9a517a5f713478f -->
<g id="node4" class="node"><title>dir_fc6f99a91a6a3e7ac9a517a5f713478f</title>
<g id="a_node4"><a xlink:href="dir_fc6f99a91a6a3e7ac9a517a5f713478f.html" target="_top" xlink:title="HCS12">
<polygon fill="white" stroke="black" points="78,-108 24,-108 24,-72 78,-72 78,-108"/>
<text text-anchor="middle" x="51" y="-87.5" font-family="Helvetica,sans-Serif" font-size="10.00">HCS12</text>
</a>
</g>
</g>
<!-- dir_fc6f99a91a6a3e7ac9a517a5f713478f&#45;&gt;dir_8ee1a5e78eaec319fe5d64075812fc61 -->
<g id="edge1" class="edge"><title>dir_fc6f99a91a6a3e7ac9a517a5f713478f&#45;&gt;dir_8ee1a5e78eaec319fe5d64075812fc61</title>
<path fill="none" stroke="black" d="M69.5123,-71.6792C75.0784,-66.567 81.2383,-61.0031 87,-56 92.0117,-51.6481 97.4111,-47.096 102.67,-42.7323"/>
<polygon fill="black" stroke="black" points="105.247,-45.1442 110.743,-36.086 100.798,-39.7401 105.247,-45.1442"/>
<g id="a_edge1&#45;headlabel"><a xlink:href="dir_000028_000001.html" target="_top" xlink:title="2">
<text text-anchor="middle" x="104.277" y="-47.1209" font-family="Helvetica,sans-Serif" font-size="10.00">2</text>
</a>
</g>
</g>
</g>
</svg>
