<?xml version="1.0" encoding="UTF-8" standalone="no"?>
<!DOCTYPE svg PUBLIC "-//W3C//DTD SVG 1.1//EN"
 "http://www.w3.org/Graphics/SVG/1.1/DTD/svg11.dtd">
<!-- Generated by graphviz version 2.30.1 (20130221.2233)
 -->
<!-- Title: source/portable/BCC/16BitDOS/common Pages: 1 -->
<svg width="96pt" height="151pt"
 viewBox="0.00 0.00 96.00 151.00" xmlns="http://www.w3.org/2000/svg" xmlns:xlink="http://www.w3.org/1999/xlink">
<g id="graph0" class="graph" transform="scale(1 1) rotate(0) translate(4 147)">
<title>source/portable/BCC/16BitDOS/common</title>
<polygon fill="white" stroke="white" points="-4,5 -4,-147 93,-147 93,5 -4,5"/>
<g id="clust1" class="cluster"><title>clusterdir_9952c995516ffd23ee10b36060fe6ff1</title>
<g id="a_clust1"><a xlink:href="dir_9952c995516ffd23ee10b36060fe6ff1.html" target="_top" xlink:title="16BitDOS">
<polygon fill="#ddddee" stroke="black" points="8,-64 8,-135 80,-135 80,-64 8,-64"/>
<text text-anchor="middle" x="44" y="-123" font-family="Helvetica,sans-Serif" font-size="10.00">16BitDOS</text>
</a>
</g>
</g>
<!-- dir_ae027ba62b1ad31c36a65d86370bdf58 -->
<g id="node1" class="node"><title>dir_ae027ba62b1ad31c36a65d86370bdf58</title>
<g id="a_node1"><a xlink:href="dir_ae027ba62b1ad31c36a65d86370bdf58.html" target="_top" xlink:title="common">
<polygon fill="#eeeeff" stroke="black" points="71.25,-108 16.75,-108 16.75,-72 71.25,-72 71.25,-108"/>
<text text-anchor="middle" x="44" y="-87.5" font-family="Helvetica,sans-Serif" font-size="10.00">common</text>
</a>
</g>
</g>
<!-- dir_8ee1a5e78eaec319fe5d64075812fc61 -->
<g id="node2" class="node"><title>dir_8ee1a5e78eaec319fe5d64075812fc61</title>
<g id="a_node2"><a xlink:href="dir_8ee1a5e78eaec319fe5d64075812fc61.html" target="_top" xlink:title="include">
<polygon fill="none" stroke="black" points="71,-36 17,-36 17,-0 71,-0 71,-36"/>
<text text-anchor="middle" x="44" y="-15.5" font-family="Helvetica,sans-Serif" font-size="10.00">include</text>
</a>
</g>
</g>
<!-- dir_ae027ba62b1ad31c36a65d86370bdf58&#45;&gt;dir_8ee1a5e78eaec319fe5d64075812fc61 -->
<g id="edge1" class="edge"><title>dir_ae027ba62b1ad31c36a65d86370bdf58&#45;&gt;dir_8ee1a5e78eaec319fe5d64075812fc61</title>
<path fill="none" stroke="black" d="M44,-71.6966C44,-63.9827 44,-54.7125 44,-46.1124"/>
<polygon fill="black" stroke="black" points="47.5001,-46.1043 44,-36.1043 40.5001,-46.1044 47.5001,-46.1043"/>
<g id="a_edge1&#45;headlabel"><a xlink:href="dir_000005_000001.html" target="_top" xlink:title="1">
<text text-anchor="middle" x="50.3393" y="-47.199" font-family="Helvetica,sans-Serif" font-size="10.00">1</text>
</a>
</g>
</g>
</g>
</svg>
