<?xml version="1.0" encoding="UTF-8" standalone="no"?>
<!DOCTYPE svg PUBLIC "-//W3C//DTD SVG 1.1//EN"
 "http://www.w3.org/Graphics/SVG/1.1/DTD/svg11.dtd">
<!-- Generated by graphviz version 2.30.1 (20130221.2233)
 -->
<!-- Title: source/portable/Renesas Pages: 1 -->
<svg width="490pt" height="159pt"
 viewBox="0.00 0.00 490.00 159.00" xmlns="http://www.w3.org/2000/svg" xmlns:xlink="http://www.w3.org/1999/xlink">
<g id="graph0" class="graph" transform="scale(1 1) rotate(0) translate(4 155)">
<title>source/portable/Renesas</title>
<polygon fill="white" stroke="white" points="-4,5 -4,-155 487,-155 487,5 -4,5"/>
<g id="clust1" class="cluster"><title>clusterdir_a3bc36d27ac900b14f04c9e2c43db8b5</title>
<g id="a_clust1"><a xlink:href="dir_a3bc36d27ac900b14f04c9e2c43db8b5.html" target="_top" xlink:title="portable">
<polygon fill="#ddddee" stroke="black" points="8,-56 8,-143 474,-143 474,-56 8,-56"/>
<text text-anchor="middle" x="241" y="-131" font-family="Helvetica,sans-Serif" font-size="10.00">portable</text>
</a>
</g>
</g>
<g id="clust2" class="cluster"><title>clusterdir_4b4ea31bef69a66620816b1d75301e40</title>
<g id="a_clust2"><a xlink:href="dir_4b4ea31bef69a66620816b1d75301e40.html" target="_top">
<polygon fill="#eeeeff" stroke="black" points="16,-64 16,-116 466,-116 466,-64 16,-64"/>
</a>
</g>
</g>
<!-- dir_4b4ea31bef69a66620816b1d75301e40 -->
<g id="node1" class="node"><title>dir_4b4ea31bef69a66620816b1d75301e40</title>
<text text-anchor="middle" x="430" y="-87.5" font-family="Helvetica,sans-Serif" font-size="10.00">Renesas</text>
</g>
<!-- dir_2281fbb6272f8891f108fd007c2eed1a -->
<g id="node2" class="node"><title>dir_2281fbb6272f8891f108fd007c2eed1a</title>
<g id="a_node2"><a xlink:href="dir_2281fbb6272f8891f108fd007c2eed1a.html" target="_top" xlink:title="RX100">
<polygon fill="white" stroke="black" points="384,-108 330,-108 330,-72 384,-72 384,-108"/>
<text text-anchor="middle" x="357" y="-87.5" font-family="Helvetica,sans-Serif" font-size="10.00">RX100</text>
</a>
</g>
</g>
<!-- dir_8ee1a5e78eaec319fe5d64075812fc61 -->
<g id="node7" class="node"><title>dir_8ee1a5e78eaec319fe5d64075812fc61</title>
<g id="a_node7"><a xlink:href="dir_8ee1a5e78eaec319fe5d64075812fc61.html" target="_top" xlink:title="include">
<polygon fill="none" stroke="black" points="240,-36 186,-36 186,-0 240,-0 240,-36"/>
<text text-anchor="middle" x="213" y="-15.5" font-family="Helvetica,sans-Serif" font-size="10.00">include</text>
</a>
</g>
</g>
<!-- dir_2281fbb6272f8891f108fd007c2eed1a&#45;&gt;dir_8ee1a5e78eaec319fe5d64075812fc61 -->
<g id="edge2" class="edge"><title>dir_2281fbb6272f8891f108fd007c2eed1a&#45;&gt;dir_8ee1a5e78eaec319fe5d64075812fc61</title>
<path fill="none" stroke="black" d="M341.309,-71.996C335.377,-66.3126 328.289,-60.33 321,-56 298.934,-42.8927 271.558,-33.5786 249.89,-27.5739"/>
<polygon fill="black" stroke="black" points="250.632,-24.1496 240.068,-24.9681 248.836,-30.9155 250.632,-24.1496"/>
<g id="a_edge2&#45;headlabel"><a xlink:href="dir_000094_000001.html" target="_top" xlink:title="2">
<text text-anchor="middle" x="254.834" y="-19.827" font-family="Helvetica,sans-Serif" font-size="10.00">2</text>
</a>
</g>
</g>
<!-- dir_4a0884688627979a690d2c99fa99ec03 -->
<g id="node3" class="node"><title>dir_4a0884688627979a690d2c99fa99ec03</title>
<g id="a_node3"><a xlink:href="dir_4a0884688627979a690d2c99fa99ec03.html" target="_top" xlink:title="RX200">
<polygon fill="white" stroke="black" points="312,-108 258,-108 258,-72 312,-72 312,-108"/>
<text text-anchor="middle" x="285" y="-87.5" font-family="Helvetica,sans-Serif" font-size="10.00">RX200</text>
</a>
</g>
</g>
<!-- dir_4a0884688627979a690d2c99fa99ec03&#45;&gt;dir_8ee1a5e78eaec319fe5d64075812fc61 -->
<g id="edge4" class="edge"><title>dir_4a0884688627979a690d2c99fa99ec03&#45;&gt;dir_8ee1a5e78eaec319fe5d64075812fc61</title>
<path fill="none" stroke="black" d="M267.202,-71.6966C258.396,-63.135 247.618,-52.6562 237.999,-43.3045"/>
<polygon fill="black" stroke="black" points="240.203,-40.5657 230.593,-36.1043 235.323,-45.5846 240.203,-40.5657"/>
<g id="a_edge4&#45;headlabel"><a xlink:href="dir_000095_000001.html" target="_top" xlink:title="2">
<text text-anchor="middle" x="244.759" y="-38.5356" font-family="Helvetica,sans-Serif" font-size="10.00">2</text>
</a>
</g>
</g>
<!-- dir_607c7436a47f9090024e81c55cdbccbd -->
<g id="node4" class="node"><title>dir_607c7436a47f9090024e81c55cdbccbd</title>
<g id="a_node4"><a xlink:href="dir_607c7436a47f9090024e81c55cdbccbd.html" target="_top" xlink:title="RX600">
<polygon fill="white" stroke="black" points="240,-108 186,-108 186,-72 240,-72 240,-108"/>
<text text-anchor="middle" x="213" y="-87.5" font-family="Helvetica,sans-Serif" font-size="10.00">RX600</text>
</a>
</g>
</g>
<!-- dir_607c7436a47f9090024e81c55cdbccbd&#45;&gt;dir_8ee1a5e78eaec319fe5d64075812fc61 -->
<g id="edge3" class="edge"><title>dir_607c7436a47f9090024e81c55cdbccbd&#45;&gt;dir_8ee1a5e78eaec319fe5d64075812fc61</title>
<path fill="none" stroke="black" d="M213,-71.6966C213,-63.9827 213,-54.7125 213,-46.1124"/>
<polygon fill="black" stroke="black" points="216.5,-46.1043 213,-36.1043 209.5,-46.1044 216.5,-46.1043"/>
<g id="a_edge3&#45;headlabel"><a xlink:href="dir_000096_000001.html" target="_top" xlink:title="2">
<text text-anchor="middle" x="219.339" y="-47.199" font-family="Helvetica,sans-Serif" font-size="10.00">2</text>
</a>
</g>
</g>
<!-- dir_06074950d7d1c742ec3bd49c1f6f2112 -->
<g id="node5" class="node"><title>dir_06074950d7d1c742ec3bd49c1f6f2112</title>
<g id="a_node5"><a xlink:href="dir_06074950d7d1c742ec3bd49c1f6f2112.html" target="_top" xlink:title="RX600v2">
<polygon fill="white" stroke="black" points="168,-108 110,-108 110,-72 168,-72 168,-108"/>
<text text-anchor="middle" x="139" y="-87.5" font-family="Helvetica,sans-Serif" font-size="10.00">RX600v2</text>
</a>
</g>
</g>
<!-- dir_06074950d7d1c742ec3bd49c1f6f2112&#45;&gt;dir_8ee1a5e78eaec319fe5d64075812fc61 -->
<g id="edge1" class="edge"><title>dir_06074950d7d1c742ec3bd49c1f6f2112&#45;&gt;dir_8ee1a5e78eaec319fe5d64075812fc61</title>
<path fill="none" stroke="black" d="M157.292,-71.6966C166.433,-63.0503 177.64,-52.4486 187.6,-43.027"/>
<polygon fill="black" stroke="black" points="190.059,-45.519 194.918,-36.1043 185.248,-40.4337 190.059,-45.519"/>
<g id="a_edge1&#45;headlabel"><a xlink:href="dir_000097_000001.html" target="_top" xlink:title="2">
<text text-anchor="middle" x="189.399" y="-47.5518" font-family="Helvetica,sans-Serif" font-size="10.00">2</text>
</a>
</g>
</g>
<!-- dir_dd0b0b2d843fbb3b1f2965f9de50a2ff -->
<g id="node6" class="node"><title>dir_dd0b0b2d843fbb3b1f2965f9de50a2ff</title>
<g id="a_node6"><a xlink:href="dir_dd0b0b2d843fbb3b1f2965f9de50a2ff.html" target="_top" xlink:title="SH2A_FPU">
<polygon fill="white" stroke="black" points="92,-108 24,-108 24,-72 92,-72 92,-108"/>
<text text-anchor="middle" x="58" y="-87.5" font-family="Helvetica,sans-Serif" font-size="10.00">SH2A_FPU</text>
</a>
</g>
</g>
<!-- dir_dd0b0b2d843fbb3b1f2965f9de50a2ff&#45;&gt;dir_8ee1a5e78eaec319fe5d64075812fc61 -->
<g id="edge5" class="edge"><title>dir_dd0b0b2d843fbb3b1f2965f9de50a2ff&#45;&gt;dir_8ee1a5e78eaec319fe5d64075812fc61</title>
<path fill="none" stroke="black" d="M77.6059,-71.7356C84.6375,-66.1614 92.8493,-60.3143 101,-56 124.7,-43.4555 153.458,-34.0635 175.899,-27.8812"/>
<polygon fill="black" stroke="black" points="176.96,-31.2206 185.724,-25.2667 175.16,-24.4559 176.96,-31.2206"/>
<g id="a_edge5&#45;headlabel"><a xlink:href="dir_000098_000001.html" target="_top" xlink:title="2">
<text text-anchor="middle" x="174.217" y="-32.3886" font-family="Helvetica,sans-Serif" font-size="10.00">2</text>
</a>
</g>
</g>
</g>
</svg>
