<?xml version="1.0" encoding="UTF-8" standalone="no"?>
<!DOCTYPE svg PUBLIC "-//W3C//DTD SVG 1.1//EN"
 "http://www.w3.org/Graphics/SVG/1.1/DTD/svg11.dtd">
<!-- Generated by graphviz version 2.30.1 (20130221.2233)
 -->
<!-- Title: source/portable/RVDS Pages: 1 -->
<svg width="641pt" height="159pt"
 viewBox="0.00 0.00 641.00 159.00" xmlns="http://www.w3.org/2000/svg" xmlns:xlink="http://www.w3.org/1999/xlink">
<g id="graph0" class="graph" transform="scale(1 1) rotate(0) translate(4 155)">
<title>source/portable/RVDS</title>
<polygon fill="white" stroke="white" points="-4,5 -4,-155 638,-155 638,5 -4,5"/>
<g id="clust1" class="cluster"><title>clusterdir_a3bc36d27ac900b14f04c9e2c43db8b5</title>
<g id="a_clust1"><a xlink:href="dir_a3bc36d27ac900b14f04c9e2c43db8b5.html" target="_top" xlink:title="portable">
<polygon fill="#ddddee" stroke="black" points="8,-56 8,-143 625,-143 625,-56 8,-56"/>
<text text-anchor="middle" x="316.5" y="-131" font-family="Helvetica,sans-Serif" font-size="10.00">portable</text>
</a>
</g>
</g>
<g id="clust2" class="cluster"><title>clusterdir_033da7e77bbf006ab48b2e7d50b8e21e</title>
<g id="a_clust2"><a xlink:href="dir_033da7e77bbf006ab48b2e7d50b8e21e.html" target="_top">
<polygon fill="#eeeeff" stroke="black" points="16,-64 16,-116 617,-116 617,-64 16,-64"/>
</a>
</g>
</g>
<!-- dir_033da7e77bbf006ab48b2e7d50b8e21e -->
<g id="node1" class="node"><title>dir_033da7e77bbf006ab48b2e7d50b8e21e</title>
<text text-anchor="middle" x="582" y="-87.5" font-family="Helvetica,sans-Serif" font-size="10.00">RVDS</text>
</g>
<!-- dir_e7d80831831b7dbe6d54851b8fa4f5f9 -->
<g id="node2" class="node"><title>dir_e7d80831831b7dbe6d54851b8fa4f5f9</title>
<g id="a_node2"><a xlink:href="dir_e7d80831831b7dbe6d54851b8fa4f5f9.html" target="_top" xlink:title="ARM7_LPC21xx">
<polygon fill="white" stroke="black" points="537,-108 447,-108 447,-72 537,-72 537,-108"/>
<text text-anchor="middle" x="492" y="-87.5" font-family="Helvetica,sans-Serif" font-size="10.00">ARM7_LPC21xx</text>
</a>
</g>
</g>
<!-- dir_8ee1a5e78eaec319fe5d64075812fc61 -->
<g id="node8" class="node"><title>dir_8ee1a5e78eaec319fe5d64075812fc61</title>
<g id="a_node8"><a xlink:href="dir_8ee1a5e78eaec319fe5d64075812fc61.html" target="_top" xlink:title="include">
<polygon fill="none" stroke="black" points="299,-36 245,-36 245,-0 299,-0 299,-36"/>
<text text-anchor="middle" x="272" y="-15.5" font-family="Helvetica,sans-Serif" font-size="10.00">include</text>
</a>
</g>
</g>
<!-- dir_e7d80831831b7dbe6d54851b8fa4f5f9&#45;&gt;dir_8ee1a5e78eaec319fe5d64075812fc61 -->
<g id="edge5" class="edge"><title>dir_e7d80831831b7dbe6d54851b8fa4f5f9&#45;&gt;dir_8ee1a5e78eaec319fe5d64075812fc61</title>
<path fill="none" stroke="black" d="M467.899,-71.928C458.865,-66.1699 448.289,-60.1565 438,-56 395.574,-38.861 343.683,-28.9136 309.333,-23.7315"/>
<polygon fill="black" stroke="black" points="309.664,-20.243 299.266,-22.2736 308.661,-27.1708 309.664,-20.243"/>
<g id="a_edge5&#45;headlabel"><a xlink:href="dir_000100_000001.html" target="_top" xlink:title="2">
<text text-anchor="middle" x="313.629" y="-15.4482" font-family="Helvetica,sans-Serif" font-size="10.00">2</text>
</a>
</g>
</g>
<!-- dir_b4aaa1761f9368b505d97cafc226c6ee -->
<g id="node3" class="node"><title>dir_b4aaa1761f9368b505d97cafc226c6ee</title>
<g id="a_node3"><a xlink:href="dir_b4aaa1761f9368b505d97cafc226c6ee.html" target="_top" xlink:title="ARM_CA9">
<polygon fill="white" stroke="black" points="429,-108 365,-108 365,-72 429,-72 429,-108"/>
<text text-anchor="middle" x="397" y="-87.5" font-family="Helvetica,sans-Serif" font-size="10.00">ARM_CA9</text>
</a>
</g>
</g>
<!-- dir_b4aaa1761f9368b505d97cafc226c6ee&#45;&gt;dir_8ee1a5e78eaec319fe5d64075812fc61 -->
<g id="edge6" class="edge"><title>dir_b4aaa1761f9368b505d97cafc226c6ee&#45;&gt;dir_8ee1a5e78eaec319fe5d64075812fc61</title>
<path fill="none" stroke="black" d="M377.223,-71.8288C370.435,-66.3872 362.623,-60.5972 355,-56 340.371,-47.1781 323.268,-39.1995 308.401,-32.9291"/>
<polygon fill="black" stroke="black" points="309.583,-29.6306 299.003,-29.0636 306.92,-36.1044 309.583,-29.6306"/>
<g id="a_edge6&#45;headlabel"><a xlink:href="dir_000101_000001.html" target="_top" xlink:title="2">
<text text-anchor="middle" x="313.987" y="-25.872" font-family="Helvetica,sans-Serif" font-size="10.00">2</text>
</a>
</g>
</g>
<!-- dir_5b87f6da330fd4bfbe860a4efc7d4d31 -->
<g id="node4" class="node"><title>dir_5b87f6da330fd4bfbe860a4efc7d4d31</title>
<g id="a_node4"><a xlink:href="dir_5b87f6da330fd4bfbe860a4efc7d4d31.html" target="_top" xlink:title="ARM_CM0">
<polygon fill="white" stroke="black" points="346.25,-108 281.75,-108 281.75,-72 346.25,-72 346.25,-108"/>
<text text-anchor="middle" x="314" y="-87.5" font-family="Helvetica,sans-Serif" font-size="10.00">ARM_CM0</text>
</a>
</g>
</g>
<!-- dir_5b87f6da330fd4bfbe860a4efc7d4d31&#45;&gt;dir_8ee1a5e78eaec319fe5d64075812fc61 -->
<g id="edge3" class="edge"><title>dir_5b87f6da330fd4bfbe860a4efc7d4d31&#45;&gt;dir_8ee1a5e78eaec319fe5d64075812fc61</title>
<path fill="none" stroke="black" d="M303.618,-71.6966C298.735,-63.5589 292.813,-53.689 287.421,-44.7013"/>
<polygon fill="black" stroke="black" points="290.409,-42.8785 282.263,-36.1043 284.406,-46.48 290.409,-42.8785"/>
<g id="a_edge3&#45;headlabel"><a xlink:href="dir_000102_000001.html" target="_top" xlink:title="2">
<text text-anchor="middle" x="294.693" y="-42.0001" font-family="Helvetica,sans-Serif" font-size="10.00">2</text>
</a>
</g>
</g>
<!-- dir_41dc64e81202678a1bba40941f1c21f0 -->
<g id="node5" class="node"><title>dir_41dc64e81202678a1bba40941f1c21f0</title>
<g id="a_node5"><a xlink:href="dir_41dc64e81202678a1bba40941f1c21f0.html" target="_top" xlink:title="ARM_CM3">
<polygon fill="white" stroke="black" points="263.25,-108 198.75,-108 198.75,-72 263.25,-72 263.25,-108"/>
<text text-anchor="middle" x="231" y="-87.5" font-family="Helvetica,sans-Serif" font-size="10.00">ARM_CM3</text>
</a>
</g>
</g>
<!-- dir_41dc64e81202678a1bba40941f1c21f0&#45;&gt;dir_8ee1a5e78eaec319fe5d64075812fc61 -->
<g id="edge4" class="edge"><title>dir_41dc64e81202678a1bba40941f1c21f0&#45;&gt;dir_8ee1a5e78eaec319fe5d64075812fc61</title>
<path fill="none" stroke="black" d="M241.135,-71.6966C245.852,-63.6436 251.562,-53.8945 256.782,-44.9824"/>
<polygon fill="black" stroke="black" points="259.948,-46.5021 261.982,-36.1043 253.908,-42.9643 259.948,-46.5021"/>
<g id="a_edge4&#45;headlabel"><a xlink:href="dir_000103_000001.html" target="_top" xlink:title="2">
<text text-anchor="middle" x="260.581" y="-48.5388" font-family="Helvetica,sans-Serif" font-size="10.00">2</text>
</a>
</g>
</g>
<!-- dir_6b6de0eb873e7f8255969dd142d3014c -->
<g id="node6" class="node"><title>dir_6b6de0eb873e7f8255969dd142d3014c</title>
<g id="a_node6"><a xlink:href="dir_6b6de0eb873e7f8255969dd142d3014c.html" target="_top" xlink:title="ARM_CM4F">
<polygon fill="white" stroke="black" points="180,-108 108,-108 108,-72 180,-72 180,-108"/>
<text text-anchor="middle" x="144" y="-87.5" font-family="Helvetica,sans-Serif" font-size="10.00">ARM_CM4F</text>
</a>
</g>
</g>
<!-- dir_6b6de0eb873e7f8255969dd142d3014c&#45;&gt;dir_8ee1a5e78eaec319fe5d64075812fc61 -->
<g id="edge1" class="edge"><title>dir_6b6de0eb873e7f8255969dd142d3014c&#45;&gt;dir_8ee1a5e78eaec319fe5d64075812fc61</title>
<path fill="none" stroke="black" d="M165.867,-71.9651C173.314,-66.5325 181.826,-60.7135 190,-56 204.291,-47.759 220.748,-40.0196 235.152,-33.7709"/>
<polygon fill="black" stroke="black" points="236.909,-36.8273 244.743,-29.6952 234.171,-30.3848 236.909,-36.8273"/>
<g id="a_edge1&#45;headlabel"><a xlink:href="dir_000104_000001.html" target="_top" xlink:title="2">
<text text-anchor="middle" x="234.711" y="-38.3462" font-family="Helvetica,sans-Serif" font-size="10.00">2</text>
</a>
</g>
</g>
<!-- dir_6fbfbd00fec1c02e21966f08c299bc8c -->
<g id="node7" class="node"><title>dir_6fbfbd00fec1c02e21966f08c299bc8c</title>
<g id="a_node7"><a xlink:href="dir_6fbfbd00fec1c02e21966f08c299bc8c.html" target="_top" xlink:title="ARM_CM7">
<polygon fill="white" stroke="red" points="89.25,-108 24.75,-108 24.75,-72 89.25,-72 89.25,-108"/>
<text text-anchor="middle" x="57" y="-87.5" font-family="Helvetica,sans-Serif" font-size="10.00">ARM_CM7</text>
</a>
</g>
</g>
<!-- dir_6fbfbd00fec1c02e21966f08c299bc8c&#45;&gt;dir_8ee1a5e78eaec319fe5d64075812fc61 -->
<g id="edge2" class="edge"><title>dir_6fbfbd00fec1c02e21966f08c299bc8c&#45;&gt;dir_8ee1a5e78eaec319fe5d64075812fc61</title>
<path fill="none" stroke="black" d="M75.0126,-71.9001C82.0283,-66.0688 90.4356,-60.0145 99,-56 142.916,-35.4146 198.479,-26.1468 234.611,-22.0669"/>
<polygon fill="black" stroke="black" points="235.134,-25.5313 244.713,-21.0044 234.401,-18.5697 235.134,-25.5313"/>
<g id="a_edge2&#45;headlabel"><a xlink:href="dir_000105_000001.html" target="_top" xlink:title="2">
<text text-anchor="middle" x="231.856" y="-26.2309" font-family="Helvetica,sans-Serif" font-size="10.00">2</text>
</a>
</g>
</g>
</g>
</svg>
