<?xml version="1.0" encoding="UTF-8" standalone="no"?>
<!DOCTYPE svg PUBLIC "-//W3C//DTD SVG 1.1//EN"
 "http://www.w3.org/Graphics/SVG/1.1/DTD/svg11.dtd">
<!-- Generated by graphviz version 2.30.1 (20130221.2233)
 -->
<!-- Title: source/portable/GCC/ARM_CM7 Pages: 1 -->
<svg width="194pt" height="159pt"
 viewBox="0.00 0.00 194.00 159.00" xmlns="http://www.w3.org/2000/svg" xmlns:xlink="http://www.w3.org/1999/xlink">
<g id="graph0" class="graph" transform="scale(1 1) rotate(0) translate(4 155)">
<title>source/portable/GCC/ARM_CM7</title>
<polygon fill="white" stroke="white" points="-4,5 -4,-155 191,-155 191,5 -4,5"/>
<g id="clust1" class="cluster"><title>clusterdir_d4458967a3e0f1422a9a5cc862ecde1d</title>
<g id="a_clust1"><a xlink:href="dir_d4458967a3e0f1422a9a5cc862ecde1d.html" target="_top" xlink:title="GCC">
<polygon fill="#ddddee" stroke="black" points="8,-56 8,-143 178,-143 178,-56 8,-56"/>
<text text-anchor="middle" x="93" y="-131" font-family="Helvetica,sans-Serif" font-size="10.00">GCC</text>
</a>
</g>
</g>
<g id="clust2" class="cluster"><title>clusterdir_cbf12754cf114c9fc8bcf119212c330a</title>
<g id="a_clust2"><a xlink:href="dir_cbf12754cf114c9fc8bcf119212c330a.html" target="_top">
<polygon fill="#eeeeff" stroke="black" points="16,-64 16,-116 170,-116 170,-64 16,-64"/>
</a>
</g>
</g>
<!-- dir_cbf12754cf114c9fc8bcf119212c330a -->
<g id="node1" class="node"><title>dir_cbf12754cf114c9fc8bcf119212c330a</title>
<text text-anchor="middle" x="129" y="-87.5" font-family="Helvetica,sans-Serif" font-size="10.00">ARM_CM7</text>
</g>
<!-- dir_343479817306c6fe4fb9b220efe2853e -->
<g id="node2" class="node"><title>dir_343479817306c6fe4fb9b220efe2853e</title>
<g id="a_node2"><a xlink:href="dir_343479817306c6fe4fb9b220efe2853e.html" target="_top" xlink:title="r0p1">
<polygon fill="white" stroke="black" points="78,-108 24,-108 24,-72 78,-72 78,-108"/>
<text text-anchor="middle" x="51" y="-87.5" font-family="Helvetica,sans-Serif" font-size="10.00">r0p1</text>
</a>
</g>
</g>
<!-- dir_8ee1a5e78eaec319fe5d64075812fc61 -->
<g id="node3" class="node"><title>dir_8ee1a5e78eaec319fe5d64075812fc61</title>
<g id="a_node3"><a xlink:href="dir_8ee1a5e78eaec319fe5d64075812fc61.html" target="_top" xlink:title="include">
<polygon fill="none" stroke="black" points="78,-36 24,-36 24,-0 78,-0 78,-36"/>
<text text-anchor="middle" x="51" y="-15.5" font-family="Helvetica,sans-Serif" font-size="10.00">include</text>
</a>
</g>
</g>
<!-- dir_343479817306c6fe4fb9b220efe2853e&#45;&gt;dir_8ee1a5e78eaec319fe5d64075812fc61 -->
<g id="edge1" class="edge"><title>dir_343479817306c6fe4fb9b220efe2853e&#45;&gt;dir_8ee1a5e78eaec319fe5d64075812fc61</title>
<path fill="none" stroke="black" d="M51,-71.6966C51,-63.9827 51,-54.7125 51,-46.1124"/>
<polygon fill="black" stroke="black" points="54.5001,-46.1043 51,-36.1043 47.5001,-46.1044 54.5001,-46.1043"/>
<g id="a_edge1&#45;headlabel"><a xlink:href="dir_000040_000001.html" target="_top" xlink:title="2">
<text text-anchor="middle" x="57.3393" y="-47.199" font-family="Helvetica,sans-Serif" font-size="10.00">2</text>
</a>
</g>
</g>
</g>
</svg>
