<?xml version="1.0" encoding="UTF-8" standalone="no"?>
<!DOCTYPE svg PUBLIC "-//W3C//DTD SVG 1.1//EN"
 "http://www.w3.org/Graphics/SVG/1.1/DTD/svg11.dtd">
<!-- Generated by graphviz version 2.30.1 (20130221.2233)
 -->
<!-- Title: source/portable/IAR/ARM_CA5_No_GIC Pages: 1 -->
<svg width="146pt" height="151pt"
 viewBox="0.00 0.00 146.00 151.00" xmlns="http://www.w3.org/2000/svg" xmlns:xlink="http://www.w3.org/1999/xlink">
<g id="graph0" class="graph" transform="scale(1 1) rotate(0) translate(4 147)">
<title>source/portable/IAR/ARM_CA5_No_GIC</title>
<polygon fill="white" stroke="white" points="-4,5 -4,-147 143,-147 143,5 -4,5"/>
<g id="clust1" class="cluster"><title>clusterdir_15315e845ed14f3cd8e31ade5443d7d6</title>
<g id="a_clust1"><a xlink:href="dir_15315e845ed14f3cd8e31ade5443d7d6.html" target="_top" xlink:title="IAR">
<polygon fill="#ddddee" stroke="black" points="8,-64 8,-135 130,-135 130,-64 8,-64"/>
<text text-anchor="middle" x="69" y="-123" font-family="Helvetica,sans-Serif" font-size="10.00">IAR</text>
</a>
</g>
</g>
<!-- dir_16947f276ce50217dc97ad15ea736c36 -->
<g id="node1" class="node"><title>dir_16947f276ce50217dc97ad15ea736c36</title>
<g id="a_node1"><a xlink:href="dir_16947f276ce50217dc97ad15ea736c36.html" target="_top" xlink:title="ARM_CA5_No_GIC">
<polygon fill="#eeeeff" stroke="black" points="121.25,-108 16.75,-108 16.75,-72 121.25,-72 121.25,-108"/>
<text text-anchor="middle" x="69" y="-87.5" font-family="Helvetica,sans-Serif" font-size="10.00">ARM_CA5_No_GIC</text>
</a>
</g>
</g>
<!-- dir_8ee1a5e78eaec319fe5d64075812fc61 -->
<g id="node2" class="node"><title>dir_8ee1a5e78eaec319fe5d64075812fc61</title>
<g id="a_node2"><a xlink:href="dir_8ee1a5e78eaec319fe5d64075812fc61.html" target="_top" xlink:title="include">
<polygon fill="none" stroke="black" points="96,-36 42,-36 42,-0 96,-0 96,-36"/>
<text text-anchor="middle" x="69" y="-15.5" font-family="Helvetica,sans-Serif" font-size="10.00">include</text>
</a>
</g>
</g>
<!-- dir_16947f276ce50217dc97ad15ea736c36&#45;&gt;dir_8ee1a5e78eaec319fe5d64075812fc61 -->
<g id="edge1" class="edge"><title>dir_16947f276ce50217dc97ad15ea736c36&#45;&gt;dir_8ee1a5e78eaec319fe5d64075812fc61</title>
<path fill="none" stroke="black" d="M69,-71.6966C69,-63.9827 69,-54.7125 69,-46.1124"/>
<polygon fill="black" stroke="black" points="72.5001,-46.1043 69,-36.1043 65.5001,-46.1044 72.5001,-46.1043"/>
<g id="a_edge1&#45;headlabel"><a xlink:href="dir_000007_000001.html" target="_top" xlink:title="2">
<text text-anchor="middle" x="75.3393" y="-47.199" font-family="Helvetica,sans-Serif" font-size="10.00">2</text>
</a>
</g>
</g>
</g>
</svg>
