<?xml version="1.0" encoding="UTF-8" standalone="no"?>
<!DOCTYPE svg PUBLIC "-//W3C//DTD SVG 1.1//EN"
 "http://www.w3.org/Graphics/SVG/1.1/DTD/svg11.dtd">
<!-- Generated by graphviz version 2.30.1 (20130221.2233)
 -->
<!-- Title: source/portable/MPLAB/PIC24_dsPIC Pages: 1 -->
<svg width="118pt" height="151pt"
 viewBox="0.00 0.00 118.00 151.00" xmlns="http://www.w3.org/2000/svg" xmlns:xlink="http://www.w3.org/1999/xlink">
<g id="graph0" class="graph" transform="scale(1 1) rotate(0) translate(4 147)">
<title>source/portable/MPLAB/PIC24_dsPIC</title>
<polygon fill="white" stroke="white" points="-4,5 -4,-147 115,-147 115,5 -4,5"/>
<g id="clust1" class="cluster"><title>clusterdir_921d680e936b75076e79072318538b88</title>
<g id="a_clust1"><a xlink:href="dir_921d680e936b75076e79072318538b88.html" target="_top" xlink:title="MPLAB">
<polygon fill="#ddddee" stroke="black" points="8,-64 8,-135 102,-135 102,-64 8,-64"/>
<text text-anchor="middle" x="55" y="-123" font-family="Helvetica,sans-Serif" font-size="10.00">MPLAB</text>
</a>
</g>
</g>
<!-- dir_5474571d8ac80198746e843d229a935c -->
<g id="node1" class="node"><title>dir_5474571d8ac80198746e843d229a935c</title>
<g id="a_node1"><a xlink:href="dir_5474571d8ac80198746e843d229a935c.html" target="_top" xlink:title="PIC24_dsPIC">
<polygon fill="#eeeeff" stroke="black" points="93.25,-108 16.75,-108 16.75,-72 93.25,-72 93.25,-108"/>
<text text-anchor="middle" x="55" y="-87.5" font-family="Helvetica,sans-Serif" font-size="10.00">PIC24_dsPIC</text>
</a>
</g>
</g>
<!-- dir_8ee1a5e78eaec319fe5d64075812fc61 -->
<g id="node2" class="node"><title>dir_8ee1a5e78eaec319fe5d64075812fc61</title>
<g id="a_node2"><a xlink:href="dir_8ee1a5e78eaec319fe5d64075812fc61.html" target="_top" xlink:title="include">
<polygon fill="none" stroke="black" points="82,-36 28,-36 28,-0 82,-0 82,-36"/>
<text text-anchor="middle" x="55" y="-15.5" font-family="Helvetica,sans-Serif" font-size="10.00">include</text>
</a>
</g>
</g>
<!-- dir_5474571d8ac80198746e843d229a935c&#45;&gt;dir_8ee1a5e78eaec319fe5d64075812fc61 -->
<g id="edge1" class="edge"><title>dir_5474571d8ac80198746e843d229a935c&#45;&gt;dir_8ee1a5e78eaec319fe5d64075812fc61</title>
<path fill="none" stroke="black" d="M55,-71.6966C55,-63.9827 55,-54.7125 55,-46.1124"/>
<polygon fill="black" stroke="black" points="58.5001,-46.1043 55,-36.1043 51.5001,-46.1044 58.5001,-46.1043"/>
<g id="a_edge1&#45;headlabel"><a xlink:href="dir_000086_000001.html" target="_top" xlink:title="2">
<text text-anchor="middle" x="61.3393" y="-47.199" font-family="Helvetica,sans-Serif" font-size="10.00">2</text>
</a>
</g>
</g>
</g>
</svg>
