<?xml version="1.0" encoding="UTF-8" standalone="no"?>
<!DOCTYPE svg PUBLIC "-//W3C//DTD SVG 1.1//EN"
 "http://www.w3.org/Graphics/SVG/1.1/DTD/svg11.dtd">
<!-- Generated by graphviz version 2.30.1 (20130221.2233)
 -->
<!-- Title: source/portable/GCC/NiosII Pages: 1 -->
<svg width="94pt" height="151pt"
 viewBox="0.00 0.00 94.00 151.00" xmlns="http://www.w3.org/2000/svg" xmlns:xlink="http://www.w3.org/1999/xlink">
<g id="graph0" class="graph" transform="scale(1 1) rotate(0) translate(4 147)">
<title>source/portable/GCC/NiosII</title>
<polygon fill="white" stroke="white" points="-4,5 -4,-147 91,-147 91,5 -4,5"/>
<g id="clust1" class="cluster"><title>clusterdir_d4458967a3e0f1422a9a5cc862ecde1d</title>
<g id="a_clust1"><a xlink:href="dir_d4458967a3e0f1422a9a5cc862ecde1d.html" target="_top" xlink:title="GCC">
<polygon fill="#ddddee" stroke="black" points="8,-64 8,-135 78,-135 78,-64 8,-64"/>
<text text-anchor="middle" x="43" y="-123" font-family="Helvetica,sans-Serif" font-size="10.00">GCC</text>
</a>
</g>
</g>
<!-- dir_7c1e1c2b7c6ba1cc6c6774d6556fe0d7 -->
<g id="node1" class="node"><title>dir_7c1e1c2b7c6ba1cc6c6774d6556fe0d7</title>
<g id="a_node1"><a xlink:href="dir_7c1e1c2b7c6ba1cc6c6774d6556fe0d7.html" target="_top" xlink:title="NiosII">
<polygon fill="#eeeeff" stroke="black" points="70,-108 16,-108 16,-72 70,-72 70,-108"/>
<text text-anchor="middle" x="43" y="-87.5" font-family="Helvetica,sans-Serif" font-size="10.00">NiosII</text>
</a>
</g>
</g>
<!-- dir_8ee1a5e78eaec319fe5d64075812fc61 -->
<g id="node2" class="node"><title>dir_8ee1a5e78eaec319fe5d64075812fc61</title>
<g id="a_node2"><a xlink:href="dir_8ee1a5e78eaec319fe5d64075812fc61.html" target="_top" xlink:title="include">
<polygon fill="none" stroke="black" points="70,-36 16,-36 16,-0 70,-0 70,-36"/>
<text text-anchor="middle" x="43" y="-15.5" font-family="Helvetica,sans-Serif" font-size="10.00">include</text>
</a>
</g>
</g>
<!-- dir_7c1e1c2b7c6ba1cc6c6774d6556fe0d7&#45;&gt;dir_8ee1a5e78eaec319fe5d64075812fc61 -->
<g id="edge1" class="edge"><title>dir_7c1e1c2b7c6ba1cc6c6774d6556fe0d7&#45;&gt;dir_8ee1a5e78eaec319fe5d64075812fc61</title>
<path fill="none" stroke="black" d="M43,-71.6966C43,-63.9827 43,-54.7125 43,-46.1124"/>
<polygon fill="black" stroke="black" points="46.5001,-46.1043 43,-36.1043 39.5001,-46.1044 46.5001,-46.1043"/>
<g id="a_edge1&#45;headlabel"><a xlink:href="dir_000054_000001.html" target="_top" xlink:title="2">
<text text-anchor="middle" x="49.3393" y="-47.199" font-family="Helvetica,sans-Serif" font-size="10.00">2</text>
</a>
</g>
</g>
</g>
</svg>
