<?xml version="1.0" encoding="UTF-8" standalone="no"?>
<!DOCTYPE svg PUBLIC "-//W3C//DTD SVG 1.1//EN"
 "http://www.w3.org/Graphics/SVG/1.1/DTD/svg11.dtd">
<!-- Generated by graphviz version 2.30.1 (20130221.2233)
 -->
<!-- Title: source/event_groups.c Pages: 1 -->
<svg width="585pt" height="252pt"
 viewBox="0.00 0.00 585.00 252.00" xmlns="http://www.w3.org/2000/svg" xmlns:xlink="http://www.w3.org/1999/xlink">
<g id="graph0" class="graph" transform="scale(1 1) rotate(0) translate(4 248)">
<title>source/event_groups.c</title>
<polygon fill="white" stroke="white" points="-4,5 -4,-248 582,-248 582,5 -4,5"/>
<!-- Node1 -->
<g id="node1" class="node"><title>Node1</title>
<polygon fill="#bfbfbf" stroke="black" points="367,-224.5 367,-243.5 485,-243.5 485,-224.5 367,-224.5"/>
<text text-anchor="middle" x="426" y="-231.5" font-family="Helvetica,sans-Serif" font-size="10.00">source/event_groups.c</text>
</g>
<!-- Node2 -->
<g id="node2" class="node"><title>Node2</title>
<polygon fill="white" stroke="#bfbfbf" points="185,-168.5 185,-187.5 233,-187.5 233,-168.5 185,-168.5"/>
<text text-anchor="middle" x="209" y="-175.5" font-family="Helvetica,sans-Serif" font-size="10.00">stdlib.h</text>
</g>
<!-- Node1&#45;&gt;Node2 -->
<g id="edge1" class="edge"><title>Node1&#45;&gt;Node2</title>
<path fill="none" stroke="midnightblue" d="M389.967,-224.485C354.852,-216.121 299.708,-202.812 242.987,-188.207"/>
<polygon fill="midnightblue" stroke="midnightblue" points="243.689,-184.773 233.131,-185.66 241.937,-191.551 243.689,-184.773"/>
</g>
<!-- Node3 -->
<g id="node3" class="node"><title>Node3</title>
<g id="a_node3"><a xlink:href="_free_r_t_o_s_8h.html" target="_top" xlink:title="FreeRTOS.h">
<polygon fill="white" stroke="black" points="251.5,-168.5 251.5,-187.5 324.5,-187.5 324.5,-168.5 251.5,-168.5"/>
<text text-anchor="middle" x="288" y="-175.5" font-family="Helvetica,sans-Serif" font-size="10.00">FreeRTOS.h</text>
</a>
</g>
</g>
<!-- Node1&#45;&gt;Node3 -->
<g id="edge2" class="edge"><title>Node1&#45;&gt;Node3</title>
<path fill="none" stroke="midnightblue" d="M404.133,-224.444C381.221,-215.478 345.025,-201.314 319.134,-191.183"/>
<polygon fill="midnightblue" stroke="midnightblue" points="320.352,-187.901 309.764,-187.516 317.801,-194.42 320.352,-187.901"/>
</g>
<!-- Node12 -->
<g id="node12" class="node"><title>Node12</title>
<g id="a_node12"><a xlink:href="task_8h.html" target="_top" xlink:title="task.h">
<polygon fill="white" stroke="black" points="485.5,-56.5 485.5,-75.5 528.5,-75.5 528.5,-56.5 485.5,-56.5"/>
<text text-anchor="middle" x="507" y="-63.5" font-family="Helvetica,sans-Serif" font-size="10.00">task.h</text>
</a>
</g>
</g>
<!-- Node1&#45;&gt;Node12 -->
<g id="edge11" class="edge"><title>Node1&#45;&gt;Node12</title>
<path fill="none" stroke="midnightblue" d="M428.307,-224.402C433.974,-204.031 449.752,-151.572 472,-112 477.688,-101.883 485.509,-91.5924 492.315,-83.41"/>
<polygon fill="midnightblue" stroke="midnightblue" points="495.043,-85.6062 498.909,-75.7419 489.735,-81.0422 495.043,-85.6062"/>
</g>
<!-- Node14 -->
<g id="node14" class="node"><title>Node14</title>
<g id="a_node14"><a xlink:href="timers_8h.html" target="_top" xlink:title="timers.h">
<polygon fill="white" stroke="black" points="481,-112.5 481,-131.5 533,-131.5 533,-112.5 481,-112.5"/>
<text text-anchor="middle" x="507" y="-119.5" font-family="Helvetica,sans-Serif" font-size="10.00">timers.h</text>
</a>
</g>
</g>
<!-- Node1&#45;&gt;Node14 -->
<g id="edge13" class="edge"><title>Node1&#45;&gt;Node14</title>
<path fill="none" stroke="midnightblue" d="M432.356,-224.368C445.782,-206.135 477.232,-163.426 494.721,-139.675"/>
<polygon fill="midnightblue" stroke="midnightblue" points="497.562,-141.719 500.674,-131.591 491.926,-137.568 497.562,-141.719"/>
</g>
<!-- Node15 -->
<g id="node15" class="node"><title>Node15</title>
<g id="a_node15"><a xlink:href="event__groups_8h.html" target="_top" xlink:title="event_groups.h">
<polygon fill="white" stroke="black" points="492.5,-168.5 492.5,-187.5 577.5,-187.5 577.5,-168.5 492.5,-168.5"/>
<text text-anchor="middle" x="535" y="-175.5" font-family="Helvetica,sans-Serif" font-size="10.00">event_groups.h</text>
</a>
</g>
</g>
<!-- Node1&#45;&gt;Node15 -->
<g id="edge15" class="edge"><title>Node1&#45;&gt;Node15</title>
<path fill="none" stroke="midnightblue" d="M443.513,-224.324C461.072,-215.625 488.331,-202.12 508.531,-192.113"/>
<polygon fill="midnightblue" stroke="midnightblue" points="510.124,-195.23 517.531,-187.655 507.016,-188.958 510.124,-195.23"/>
</g>
<!-- Node4 -->
<g id="node4" class="node"><title>Node4</title>
<polygon fill="white" stroke="#bfbfbf" points="0,-112.5 0,-131.5 52,-131.5 52,-112.5 0,-112.5"/>
<text text-anchor="middle" x="26" y="-119.5" font-family="Helvetica,sans-Serif" font-size="10.00">stddef.h</text>
</g>
<!-- Node3&#45;&gt;Node4 -->
<g id="edge3" class="edge"><title>Node3&#45;&gt;Node4</title>
<path fill="none" stroke="midnightblue" d="M251.394,-169.799C196.818,-159.056 97.4307,-139.463 62.5567,-132.153"/>
<polygon fill="midnightblue" stroke="midnightblue" points="62.849,-128.635 52.3349,-129.94 61.3681,-135.477 62.849,-128.635"/>
</g>
<!-- Node5 -->
<g id="node5" class="node"><title>Node5</title>
<polygon fill="white" stroke="#bfbfbf" points="70.5,-112.5 70.5,-131.5 119.5,-131.5 119.5,-112.5 70.5,-112.5"/>
<text text-anchor="middle" x="95" y="-119.5" font-family="Helvetica,sans-Serif" font-size="10.00">stdint.h</text>
</g>
<!-- Node3&#45;&gt;Node5 -->
<g id="edge4" class="edge"><title>Node3&#45;&gt;Node5</title>
<path fill="none" stroke="midnightblue" d="M257.419,-168.444C222.539,-158.685 165.652,-142.768 129.295,-132.596"/>
<polygon fill="midnightblue" stroke="midnightblue" points="130.194,-129.213 119.62,-129.889 128.308,-135.954 130.194,-129.213"/>
</g>
<!-- Node6 -->
<g id="node6" class="node"><title>Node6</title>
<polygon fill="white" stroke="#bfbfbf" points="138,-112.5 138,-131.5 240,-131.5 240,-112.5 138,-112.5"/>
<text text-anchor="middle" x="189" y="-119.5" font-family="Helvetica,sans-Serif" font-size="10.00">FreeRTOSConfig.h</text>
</g>
<!-- Node3&#45;&gt;Node6 -->
<g id="edge5" class="edge"><title>Node3&#45;&gt;Node6</title>
<path fill="none" stroke="midnightblue" d="M272.094,-168.324C256.362,-159.743 232.058,-146.486 213.791,-136.522"/>
<polygon fill="midnightblue" stroke="midnightblue" points="215.322,-133.37 204.867,-131.655 211.97,-139.516 215.322,-133.37"/>
</g>
<!-- Node7 -->
<g id="node7" class="node"><title>Node7</title>
<g id="a_node7"><a xlink:href="projdefs_8h.html" target="_top" xlink:title="projdefs.h">
<polygon fill="white" stroke="black" points="258,-112.5 258,-131.5 318,-131.5 318,-112.5 258,-112.5"/>
<text text-anchor="middle" x="288" y="-119.5" font-family="Helvetica,sans-Serif" font-size="10.00">projdefs.h</text>
</a>
</g>
</g>
<!-- Node3&#45;&gt;Node7 -->
<g id="edge6" class="edge"><title>Node3&#45;&gt;Node7</title>
<path fill="none" stroke="midnightblue" d="M288,-168.083C288,-161.006 288,-150.861 288,-141.986"/>
<polygon fill="midnightblue" stroke="midnightblue" points="291.5,-141.751 288,-131.751 284.5,-141.751 291.5,-141.751"/>
</g>
<!-- Node8 -->
<g id="node8" class="node"><title>Node8</title>
<g id="a_node8"><a xlink:href="portable_8h.html" target="_top" xlink:title="portable.h">
<polygon fill="white" stroke="black" points="336.5,-112.5 336.5,-131.5 397.5,-131.5 397.5,-112.5 336.5,-112.5"/>
<text text-anchor="middle" x="367" y="-119.5" font-family="Helvetica,sans-Serif" font-size="10.00">portable.h</text>
</a>
</g>
</g>
<!-- Node3&#45;&gt;Node8 -->
<g id="edge7" class="edge"><title>Node3&#45;&gt;Node8</title>
<path fill="none" stroke="midnightblue" d="M300.693,-168.324C312.901,-159.979 331.578,-147.212 346.003,-137.352"/>
<polygon fill="midnightblue" stroke="midnightblue" points="348.058,-140.187 354.339,-131.655 344.108,-134.408 348.058,-140.187"/>
</g>
<!-- Node9 -->
<g id="node9" class="node"><title>Node9</title>
<g id="a_node9"><a xlink:href="deprecated__definitions_8h.html" target="_top" xlink:title="deprecated_definitions.h">
<polygon fill="white" stroke="black" points="144.5,-56.5 144.5,-75.5 269.5,-75.5 269.5,-56.5 144.5,-56.5"/>
<text text-anchor="middle" x="207" y="-63.5" font-family="Helvetica,sans-Serif" font-size="10.00">deprecated_definitions.h</text>
</a>
</g>
</g>
<!-- Node8&#45;&gt;Node9 -->
<g id="edge8" class="edge"><title>Node8&#45;&gt;Node9</title>
<path fill="none" stroke="midnightblue" d="M341.648,-112.444C314.731,-103.359 272.004,-88.9388 241.913,-78.7831"/>
<polygon fill="midnightblue" stroke="midnightblue" points="242.828,-75.3981 232.234,-75.5164 240.59,-82.0305 242.828,-75.3981"/>
</g>
<!-- Node10 -->
<g id="node10" class="node"><title>Node10</title>
<polygon fill="white" stroke="#bfbfbf" points="288,-56.5 288,-75.5 358,-75.5 358,-56.5 288,-56.5"/>
<text text-anchor="middle" x="323" y="-63.5" font-family="Helvetica,sans-Serif" font-size="10.00">portmacro.h</text>
</g>
<!-- Node8&#45;&gt;Node10 -->
<g id="edge9" class="edge"><title>Node8&#45;&gt;Node10</title>
<path fill="none" stroke="midnightblue" d="M359.734,-112.083C353.455,-104.377 344.212,-93.0333 336.569,-83.6531"/>
<polygon fill="midnightblue" stroke="midnightblue" points="339.161,-81.2926 330.131,-75.7511 333.734,-85.7143 339.161,-81.2926"/>
</g>
<!-- Node11 -->
<g id="node11" class="node"><title>Node11</title>
<g id="a_node11"><a xlink:href="mpu__wrappers_8h.html" target="_top" xlink:title="mpu_wrappers.h">
<polygon fill="white" stroke="black" points="376.5,-56.5 376.5,-75.5 467.5,-75.5 467.5,-56.5 376.5,-56.5"/>
<text text-anchor="middle" x="422" y="-63.5" font-family="Helvetica,sans-Serif" font-size="10.00">mpu_wrappers.h</text>
</a>
</g>
</g>
<!-- Node8&#45;&gt;Node11 -->
<g id="edge10" class="edge"><title>Node8&#45;&gt;Node11</title>
<path fill="none" stroke="midnightblue" d="M376.082,-112.083C384.171,-104.141 396.195,-92.3354 405.91,-82.7973"/>
<polygon fill="midnightblue" stroke="midnightblue" points="408.403,-85.2545 413.087,-75.7511 403.499,-80.2595 408.403,-85.2545"/>
</g>
<!-- Node13 -->
<g id="node13" class="node"><title>Node13</title>
<g id="a_node13"><a xlink:href="list_8h.html" target="_top" xlink:title="list.h">
<polygon fill="white" stroke="black" points="488.5,-0.5 488.5,-19.5 525.5,-19.5 525.5,-0.5 488.5,-0.5"/>
<text text-anchor="middle" x="507" y="-7.5" font-family="Helvetica,sans-Serif" font-size="10.00">list.h</text>
</a>
</g>
</g>
<!-- Node12&#45;&gt;Node13 -->
<g id="edge12" class="edge"><title>Node12&#45;&gt;Node13</title>
<path fill="none" stroke="midnightblue" d="M507,-56.083C507,-49.0059 507,-38.8611 507,-29.9865"/>
<polygon fill="midnightblue" stroke="midnightblue" points="510.5,-29.751 507,-19.7511 503.5,-29.7511 510.5,-29.751"/>
</g>
<!-- Node14&#45;&gt;Node12 -->
<g id="edge14" class="edge"><title>Node14&#45;&gt;Node12</title>
<path fill="none" stroke="midnightblue" d="M507,-112.083C507,-105.006 507,-94.8611 507,-85.9865"/>
<polygon fill="midnightblue" stroke="midnightblue" points="510.5,-85.751 507,-75.7511 503.5,-85.7511 510.5,-85.751"/>
</g>
<!-- Node15&#45;&gt;Node14 -->
<g id="edge16" class="edge"><title>Node15&#45;&gt;Node14</title>
<path fill="none" stroke="midnightblue" d="M530.376,-168.083C526.544,-160.691 520.976,-149.953 516.235,-140.811"/>
<polygon fill="midnightblue" stroke="midnightblue" points="519.248,-139.018 511.538,-131.751 513.034,-142.24 519.248,-139.018"/>
</g>
</g>
</svg>
