<?xml version="1.0" encoding="UTF-8" standalone="no"?>
<!DOCTYPE svg PUBLIC "-//W3C//DTD SVG 1.1//EN"
 "http://www.w3.org/Graphics/SVG/1.1/DTD/svg11.dtd">
<!-- Generated by graphviz version 2.30.1 (20130221.2233)
 -->
<!-- Title: xEventGroupSetBits Pages: 1 -->
<svg width="298pt" height="66pt"
 viewBox="0.00 0.00 298.00 66.00" xmlns="http://www.w3.org/2000/svg" xmlns:xlink="http://www.w3.org/1999/xlink">
<g id="graph0" class="graph" transform="scale(1 1) rotate(0) translate(4 62)">
<title>xEventGroupSetBits</title>
<polygon fill="white" stroke="white" points="-4,5 -4,-62 295,-62 295,5 -4,5"/>
<!-- Node1 -->
<g id="node1" class="node"><title>Node1</title>
<polygon fill="#bfbfbf" stroke="black" points="0.5,-19.5 0.5,-38.5 107.5,-38.5 107.5,-19.5 0.5,-19.5"/>
<text text-anchor="middle" x="54" y="-26.5" font-family="Helvetica,sans-Serif" font-size="10.00">xEventGroupSetBits</text>
</g>
<!-- Node2 -->
<g id="node2" class="node"><title>Node2</title>
<g id="a_node2"><a xlink:href="event__groups_8h.html#abe76a301815525eb5e03f331e5e51ae3" target="_top" xlink:title="vEventGroupSetBitsCallback">
<polygon fill="white" stroke="black" points="144.5,-38.5 144.5,-57.5 289.5,-57.5 289.5,-38.5 144.5,-38.5"/>
<text text-anchor="middle" x="217" y="-45.5" font-family="Helvetica,sans-Serif" font-size="10.00">vEventGroupSetBitsCallback</text>
</a>
</g>
</g>
<!-- Node1&#45;&gt;Node2 -->
<g id="edge1" class="edge"><title>Node1&#45;&gt;Node2</title>
<path fill="none" stroke="midnightblue" d="M117.809,-36.4122C126.542,-37.4428 135.567,-38.5079 144.445,-39.5557"/>
<polygon fill="midnightblue" stroke="midnightblue" points="118.059,-32.9175 107.717,-35.2213 117.238,-39.8693 118.059,-32.9175"/>
</g>
<!-- Node3 -->
<g id="node3" class="node"><title>Node3</title>
<g id="a_node3"><a xlink:href="event__groups_8h.html#a869511456b86426f52e2eec898bff341" target="_top" xlink:title="xEventGroupSync">
<polygon fill="white" stroke="black" points="168.5,-0.5 168.5,-19.5 265.5,-19.5 265.5,-0.5 168.5,-0.5"/>
<text text-anchor="middle" x="217" y="-7.5" font-family="Helvetica,sans-Serif" font-size="10.00">xEventGroupSync</text>
</a>
</g>
</g>
<!-- Node1&#45;&gt;Node3 -->
<g id="edge2" class="edge"><title>Node1&#45;&gt;Node3</title>
<path fill="none" stroke="midnightblue" d="M117.982,-21.5673C134.734,-19.5905 152.548,-17.4881 168.331,-15.6255"/>
<polygon fill="midnightblue" stroke="midnightblue" points="117.238,-18.1307 107.717,-22.7787 118.059,-25.0825 117.238,-18.1307"/>
</g>
</g>
</svg>
