<?xml version="1.0" encoding="UTF-8" standalone="no"?>
<!DOCTYPE svg PUBLIC "-//W3C//DTD SVG 1.1//EN"
 "http://www.w3.org/Graphics/SVG/1.1/DTD/svg11.dtd">
<!-- Generated by graphviz version 2.30.1 (20130221.2233)
 -->
<!-- Title: source/include/event_groups.h Pages: 1 -->
<svg width="116pt" height="208pt"
 viewBox="0.00 0.00 116.00 208.00" xmlns="http://www.w3.org/2000/svg" xmlns:xlink="http://www.w3.org/1999/xlink">
<g id="graph0" class="graph" transform="scale(1 1) rotate(0) translate(4 204)">
<title>source/include/event_groups.h</title>
<polygon fill="white" stroke="white" points="-4,5 -4,-204 113,-204 113,5 -4,5"/>
<!-- Node1 -->
<g id="node1" class="node"><title>Node1</title>
<polygon fill="#bfbfbf" stroke="black" points="0,-169 0,-199 108,-199 108,-169 0,-169"/>
<text text-anchor="start" x="8" y="-187" font-family="Helvetica,sans-Serif" font-size="10.00">source/include/event</text>
<text text-anchor="middle" x="54" y="-176" font-family="Helvetica,sans-Serif" font-size="10.00">_groups.h</text>
</g>
<!-- Node2 -->
<g id="node2" class="node"><title>Node2</title>
<g id="a_node2"><a xlink:href="timers_8h.html" target="_top" xlink:title="timers.h">
<polygon fill="white" stroke="black" points="28,-112.5 28,-131.5 80,-131.5 80,-112.5 28,-112.5"/>
<text text-anchor="middle" x="54" y="-119.5" font-family="Helvetica,sans-Serif" font-size="10.00">timers.h</text>
</a>
</g>
</g>
<!-- Node1&#45;&gt;Node2 -->
<g id="edge1" class="edge"><title>Node1&#45;&gt;Node2</title>
<path fill="none" stroke="midnightblue" d="M54,-168.781C54,-160.781 54,-150.689 54,-142.017"/>
<polygon fill="midnightblue" stroke="midnightblue" points="57.5001,-141.73 54,-131.731 50.5001,-141.731 57.5001,-141.73"/>
</g>
<!-- Node3 -->
<g id="node3" class="node"><title>Node3</title>
<g id="a_node3"><a xlink:href="task_8h.html" target="_top" xlink:title="task.h">
<polygon fill="white" stroke="black" points="32.5,-56.5 32.5,-75.5 75.5,-75.5 75.5,-56.5 32.5,-56.5"/>
<text text-anchor="middle" x="54" y="-63.5" font-family="Helvetica,sans-Serif" font-size="10.00">task.h</text>
</a>
</g>
</g>
<!-- Node2&#45;&gt;Node3 -->
<g id="edge2" class="edge"><title>Node2&#45;&gt;Node3</title>
<path fill="none" stroke="midnightblue" d="M54,-112.083C54,-105.006 54,-94.8611 54,-85.9865"/>
<polygon fill="midnightblue" stroke="midnightblue" points="57.5001,-85.751 54,-75.7511 50.5001,-85.7511 57.5001,-85.751"/>
</g>
<!-- Node4 -->
<g id="node4" class="node"><title>Node4</title>
<g id="a_node4"><a xlink:href="list_8h.html" target="_top" xlink:title="list.h">
<polygon fill="white" stroke="black" points="35.5,-0.5 35.5,-19.5 72.5,-19.5 72.5,-0.5 35.5,-0.5"/>
<text text-anchor="middle" x="54" y="-7.5" font-family="Helvetica,sans-Serif" font-size="10.00">list.h</text>
</a>
</g>
</g>
<!-- Node3&#45;&gt;Node4 -->
<g id="edge3" class="edge"><title>Node3&#45;&gt;Node4</title>
<path fill="none" stroke="midnightblue" d="M54,-56.083C54,-49.0059 54,-38.8611 54,-29.9865"/>
<polygon fill="midnightblue" stroke="midnightblue" points="57.5001,-29.751 54,-19.7511 50.5001,-29.7511 57.5001,-29.751"/>
</g>
</g>
</svg>
