<?xml version="1.0" encoding="UTF-8" standalone="no"?>
<!DOCTYPE svg PUBLIC "-//W3C//DTD SVG 1.1//EN"
 "http://www.w3.org/Graphics/SVG/1.1/DTD/svg11.dtd">
<!-- Generated by graphviz version 2.30.1 (20130221.2233)
 -->
<!-- Title: xEventGroupSync Pages: 1 -->
<svg width="820pt" height="382pt"
 viewBox="0.00 0.00 820.00 382.00" xmlns="http://www.w3.org/2000/svg" xmlns:xlink="http://www.w3.org/1999/xlink">
<g id="graph0" class="graph" transform="scale(1 1) rotate(0) translate(4 378)">
<title>xEventGroupSync</title>
<polygon fill="white" stroke="white" points="-4,5 -4,-378 817,-378 817,5 -4,5"/>
<!-- Node1 -->
<g id="node1" class="node"><title>Node1</title>
<polygon fill="#bfbfbf" stroke="black" points="0.5,-190.5 0.5,-209.5 97.5,-209.5 97.5,-190.5 0.5,-190.5"/>
<text text-anchor="middle" x="49" y="-197.5" font-family="Helvetica,sans-Serif" font-size="10.00">xEventGroupSync</text>
</g>
<!-- Node2 -->
<g id="node2" class="node"><title>Node2</title>
<g id="a_node2"><a xlink:href="task_8h.html#a7793b4bbe45c10d4c5104c126b89e87c" target="_top" xlink:title="uxTaskResetEventItemValue">
<polygon fill="white" stroke="black" points="146.5,-354.5 146.5,-373.5 291.5,-373.5 291.5,-354.5 146.5,-354.5"/>
<text text-anchor="middle" x="219" y="-361.5" font-family="Helvetica,sans-Serif" font-size="10.00">uxTaskResetEventItemValue</text>
</a>
</g>
</g>
<!-- Node1&#45;&gt;Node2 -->
<g id="edge1" class="edge"><title>Node1&#45;&gt;Node2</title>
<path fill="none" stroke="midnightblue" d="M53.0593,-209.869C61.5105,-235.465 87.67,-304.462 134,-340 139.709,-344.379 146.186,-347.959 152.951,-350.886"/>
<polygon fill="midnightblue" stroke="midnightblue" points="151.72,-354.163 162.31,-354.487 154.233,-347.629 151.72,-354.163"/>
</g>
<!-- Node3 -->
<g id="node3" class="node"><title>Node3</title>
<g id="a_node3"><a xlink:href="_paradigm_2_tern___e_e_2small_2portmacro_8h.html#a14d32f8130d3c0b212cfc751730b5b49" target="_top" xlink:title="void">
<polygon fill="white" stroke="black" points="754.5,-234.5 754.5,-253.5 789.5,-253.5 789.5,-234.5 754.5,-234.5"/>
<text text-anchor="middle" x="772" y="-241.5" font-family="Helvetica,sans-Serif" font-size="10.00">void</text>
</a>
</g>
</g>
<!-- Node1&#45;&gt;Node3 -->
<g id="edge2" class="edge"><title>Node1&#45;&gt;Node3</title>
<path fill="none" stroke="midnightblue" d="M60.4536,-209.604C75.4722,-222.779 104.597,-246.064 134,-257 305.278,-320.706 361.285,-284.866 544,-288 611.546,-289.159 630.808,-305.712 696,-288 716.268,-282.494 736.657,-269.977 751.05,-259.696"/>
<polygon fill="midnightblue" stroke="midnightblue" points="753.234,-262.434 759.182,-253.666 749.065,-256.811 753.234,-262.434"/>
</g>
<!-- Node4 -->
<g id="node4" class="node"><title>Node4</title>
<g id="a_node4"><a xlink:href="task_8h.html#a9d52fa7b60cc6a7b4fd0846700d7834c" target="_top" xlink:title="vTaskPlaceOnUnorderedEventList">
<polygon fill="white" stroke="black" points="134,-76.5 134,-95.5 304,-95.5 304,-76.5 134,-76.5"/>
<text text-anchor="middle" x="219" y="-83.5" font-family="Helvetica,sans-Serif" font-size="10.00">vTaskPlaceOnUnorderedEventList</text>
</a>
</g>
</g>
<!-- Node1&#45;&gt;Node4 -->
<g id="edge3" class="edge"><title>Node1&#45;&gt;Node4</title>
<path fill="none" stroke="midnightblue" d="M64.0346,-190.477C92.9916,-170.827 159.603,-125.627 194.966,-101.63"/>
<polygon fill="midnightblue" stroke="midnightblue" points="197.34,-104.249 203.649,-95.738 193.409,-98.4569 197.34,-104.249"/>
</g>
<!-- Node9 -->
<g id="node9" class="node"><title>Node9</title>
<g id="a_node9"><a xlink:href="task_8h.html#a366b302eba79d10b5ee2a3756f0fcc43" target="_top" xlink:title="vTaskSuspendAll">
<polygon fill="white" stroke="black" points="377,-152.5 377,-171.5 471,-171.5 471,-152.5 377,-152.5"/>
<text text-anchor="middle" x="424" y="-159.5" font-family="Helvetica,sans-Serif" font-size="10.00">vTaskSuspendAll</text>
</a>
</g>
</g>
<!-- Node1&#45;&gt;Node9 -->
<g id="edge8" class="edge"><title>Node1&#45;&gt;Node9</title>
<path fill="none" stroke="midnightblue" d="M97.6196,-195.149C166.46,-188.135 293.542,-175.189 366.857,-167.72"/>
<polygon fill="midnightblue" stroke="midnightblue" points="367.24,-171.199 376.834,-166.703 366.531,-164.235 367.24,-171.199"/>
</g>
<!-- Node10 -->
<g id="node10" class="node"><title>Node10</title>
<g id="a_node10"><a xlink:href="event__groups_8c.html#a9ac7cd970f50e2e50a494b656e0eb239" target="_top" xlink:title="xEventGroupSetBits">
<polygon fill="white" stroke="black" points="165.5,-228.5 165.5,-247.5 272.5,-247.5 272.5,-228.5 165.5,-228.5"/>
<text text-anchor="middle" x="219" y="-235.5" font-family="Helvetica,sans-Serif" font-size="10.00">xEventGroupSetBits</text>
</a>
</g>
</g>
<!-- Node1&#45;&gt;Node10 -->
<g id="edge9" class="edge"><title>Node1&#45;&gt;Node10</title>
<path fill="none" stroke="midnightblue" d="M92.3935,-209.589C114.763,-214.649 142.398,-220.9 166.047,-226.249"/>
<polygon fill="midnightblue" stroke="midnightblue" points="165.386,-229.687 175.911,-228.48 166.93,-222.86 165.386,-229.687"/>
</g>
<!-- Node14 -->
<g id="node14" class="node"><title>Node14</title>
<g id="a_node14"><a xlink:href="task_8h.html#a0241000e08a261372186d34825a35979" target="_top" xlink:title="xTaskGetSchedulerState">
<polygon fill="white" stroke="black" points="155,-38.5 155,-57.5 283,-57.5 283,-38.5 155,-38.5"/>
<text text-anchor="middle" x="219" y="-45.5" font-family="Helvetica,sans-Serif" font-size="10.00">xTaskGetSchedulerState</text>
</a>
</g>
</g>
<!-- Node1&#45;&gt;Node14 -->
<g id="edge21" class="edge"><title>Node1&#45;&gt;Node14</title>
<path fill="none" stroke="midnightblue" d="M53.1026,-190.476C61.6583,-165.799 88.0483,-99.4572 134,-67 137.503,-64.5254 141.277,-62.3668 145.215,-60.4845"/>
<polygon fill="midnightblue" stroke="midnightblue" points="146.755,-63.635 154.655,-56.5751 144.077,-57.1676 146.755,-63.635"/>
</g>
<!-- Node12 -->
<g id="node12" class="node"><title>Node12</title>
<g id="a_node12"><a xlink:href="task_8h.html#a003f8ae6d649225abd030cc76e1c7d0e" target="_top" xlink:title="xTaskResumeAll">
<polygon fill="white" stroke="black" points="378,-190.5 378,-209.5 470,-209.5 470,-190.5 378,-190.5"/>
<text text-anchor="middle" x="424" y="-197.5" font-family="Helvetica,sans-Serif" font-size="10.00">xTaskResumeAll</text>
</a>
</g>
</g>
<!-- Node1&#45;&gt;Node12 -->
<g id="edge22" class="edge"><title>Node1&#45;&gt;Node12</title>
<path fill="none" stroke="midnightblue" d="M97.6196,-200C166.694,-200 294.405,-200 367.602,-200"/>
<polygon fill="midnightblue" stroke="midnightblue" points="367.992,-203.5 377.992,-200 367.992,-196.5 367.992,-203.5"/>
</g>
<!-- Node5 -->
<g id="node5" class="node"><title>Node5</title>
<g id="a_node5"><a xlink:href="list_8h.html#a71a6a6099b3cbd8f90539aabe5c9e572" target="_top" xlink:title="vListInsertEnd">
<polygon fill="white" stroke="black" points="384,-38.5 384,-57.5 464,-57.5 464,-38.5 384,-38.5"/>
<text text-anchor="middle" x="424" y="-45.5" font-family="Helvetica,sans-Serif" font-size="10.00">vListInsertEnd</text>
</a>
</g>
</g>
<!-- Node4&#45;&gt;Node5 -->
<g id="edge4" class="edge"><title>Node4&#45;&gt;Node5</title>
<path fill="none" stroke="midnightblue" d="M270.963,-76.46C302.408,-70.5739 342.54,-63.0615 373.676,-57.2331"/>
<polygon fill="midnightblue" stroke="midnightblue" points="374.679,-60.6062 383.864,-55.3259 373.391,-53.7257 374.679,-60.6062"/>
</g>
<!-- Node6 -->
<g id="node6" class="node"><title>Node6</title>
<g id="a_node6"><a xlink:href="list_8h.html#a2eb1558482076fff8cafc63419c2d34a" target="_top" xlink:title="uxListRemove">
<polygon fill="white" stroke="black" points="732,-133.5 732,-152.5 812,-152.5 812,-133.5 732,-133.5"/>
<text text-anchor="middle" x="772" y="-140.5" font-family="Helvetica,sans-Serif" font-size="10.00">uxListRemove</text>
</a>
</g>
</g>
<!-- Node4&#45;&gt;Node6 -->
<g id="edge5" class="edge"><title>Node4&#45;&gt;Node6</title>
<path fill="none" stroke="midnightblue" d="M304.028,-87.352C399.626,-90.0447 560.103,-98.0776 696,-122 707.948,-124.103 720.733,-127.312 732.301,-130.592"/>
<polygon fill="midnightblue" stroke="midnightblue" points="731.521,-134.011 742.102,-133.468 733.492,-127.294 731.521,-134.011"/>
</g>
<!-- Node7 -->
<g id="node7" class="node"><title>Node7</title>
<g id="a_node7"><a xlink:href="tasks_8c.html#a7859bfaa75a7c5524dd45b89036f1233" target="_top" xlink:title="prvAddCurrentTaskToDelayedList">
<polygon fill="white" stroke="black" points="340.5,-0.5 340.5,-19.5 507.5,-19.5 507.5,-0.5 340.5,-0.5"/>
<text text-anchor="middle" x="424" y="-7.5" font-family="Helvetica,sans-Serif" font-size="10.00">prvAddCurrentTaskToDelayedList</text>
</a>
</g>
</g>
<!-- Node4&#45;&gt;Node7 -->
<g id="edge6" class="edge"><title>Node4&#45;&gt;Node7</title>
<path fill="none" stroke="midnightblue" d="M282.138,-76.3598C289.765,-73.9133 297.243,-70.8459 304,-67 324.219,-55.4922 319.796,-40.534 340,-29 343.934,-26.7544 348.115,-24.7742 352.427,-23.028"/>
<polygon fill="midnightblue" stroke="midnightblue" points="353.813,-26.2491 362.035,-19.5668 351.44,-19.6634 353.813,-26.2491"/>
</g>
<!-- Node8 -->
<g id="node8" class="node"><title>Node8</title>
<g id="a_node8"><a xlink:href="list_8h.html#aa129290da5cbda47dffb7bf877b2f02a" target="_top" xlink:title="vListInsert">
<polygon fill="white" stroke="black" points="589,-0.5 589,-19.5 651,-19.5 651,-0.5 589,-0.5"/>
<text text-anchor="middle" x="620" y="-7.5" font-family="Helvetica,sans-Serif" font-size="10.00">vListInsert</text>
</a>
</g>
</g>
<!-- Node7&#45;&gt;Node8 -->
<g id="edge7" class="edge"><title>Node7&#45;&gt;Node8</title>
<path fill="none" stroke="midnightblue" d="M507.555,-10C532.145,-10 558.001,-10 578.612,-10"/>
<polygon fill="midnightblue" stroke="midnightblue" points="578.877,-13.5001 588.877,-10 578.877,-6.5001 578.877,-13.5001"/>
</g>
<!-- Node10&#45;&gt;Node3 -->
<g id="edge10" class="edge"><title>Node10&#45;&gt;Node3</title>
<path fill="none" stroke="midnightblue" d="M272.737,-246.96C293.629,-250.235 317.895,-253.697 340,-256 497.46,-272.407 539.582,-292.417 696,-268 712.63,-265.404 730.611,-259.754 744.798,-254.588"/>
<polygon fill="midnightblue" stroke="midnightblue" points="746.268,-257.774 754.383,-250.962 743.792,-251.226 746.268,-257.774"/>
</g>
<!-- Node10&#45;&gt;Node9 -->
<g id="edge11" class="edge"><title>Node10&#45;&gt;Node9</title>
<path fill="none" stroke="midnightblue" d="M236.987,-228.469C259.796,-216.015 301.871,-194.241 340,-181 348.614,-178.008 357.896,-175.355 367.024,-173.051"/>
<polygon fill="midnightblue" stroke="midnightblue" points="367.928,-176.434 376.83,-170.689 366.288,-169.629 367.928,-176.434"/>
</g>
<!-- Node11 -->
<g id="node11" class="node"><title>Node11</title>
<g id="a_node11"><a xlink:href="task_8h.html#aca64fad00201055cbaf9fff74f181b85" target="_top" xlink:title="xTaskRemoveFromUnordered\lEventList">
<polygon fill="white" stroke="black" points="544.5,-229 544.5,-259 695.5,-259 695.5,-229 544.5,-229"/>
<text text-anchor="start" x="552.5" y="-247" font-family="Helvetica,sans-Serif" font-size="10.00">xTaskRemoveFromUnordered</text>
<text text-anchor="middle" x="620" y="-236" font-family="Helvetica,sans-Serif" font-size="10.00">EventList</text>
</a>
</g>
</g>
<!-- Node10&#45;&gt;Node11 -->
<g id="edge12" class="edge"><title>Node10&#45;&gt;Node11</title>
<path fill="none" stroke="midnightblue" d="M272.573,-238.791C339.1,-239.791 454.543,-241.527 533.747,-242.718"/>
<polygon fill="midnightblue" stroke="midnightblue" points="534.137,-246.224 544.189,-242.875 534.242,-239.225 534.137,-246.224"/>
</g>
<!-- Node10&#45;&gt;Node12 -->
<g id="edge15" class="edge"><title>Node10&#45;&gt;Node12</title>
<path fill="none" stroke="midnightblue" d="M270.963,-228.46C300.509,-222.929 337.724,-215.963 367.939,-210.307"/>
<polygon fill="midnightblue" stroke="midnightblue" points="368.711,-213.723 377.897,-208.443 367.423,-206.843 368.711,-213.723"/>
</g>
<!-- Node11&#45;&gt;Node3 -->
<g id="edge13" class="edge"><title>Node11&#45;&gt;Node3</title>
<path fill="none" stroke="midnightblue" d="M695.561,-244C712.966,-244 730.403,-244 744.121,-244"/>
<polygon fill="midnightblue" stroke="midnightblue" points="744.255,-247.5 754.255,-244 744.255,-240.5 744.255,-247.5"/>
</g>
<!-- Node11&#45;&gt;Node6 -->
<g id="edge14" class="edge"><title>Node11&#45;&gt;Node6</title>
<path fill="none" stroke="midnightblue" d="M643.457,-228.879C671.628,-209.911 719.676,-177.558 748.068,-158.441"/>
<polygon fill="midnightblue" stroke="midnightblue" points="750.206,-161.221 756.546,-152.732 746.296,-155.414 750.206,-161.221"/>
</g>
<!-- Node12&#45;&gt;Node3 -->
<g id="edge16" class="edge"><title>Node12&#45;&gt;Node3</title>
<path fill="none" stroke="midnightblue" d="M470.054,-199.713C524.206,-200.156 617.586,-203.441 696,-219 712.575,-222.289 730.554,-228.196 744.753,-233.443"/>
<polygon fill="midnightblue" stroke="midnightblue" points="743.759,-236.81 754.35,-237.1 746.252,-230.269 743.759,-236.81"/>
</g>
<!-- Node12&#45;&gt;Node6 -->
<g id="edge17" class="edge"><title>Node12&#45;&gt;Node6</title>
<path fill="none" stroke="midnightblue" d="M470.293,-194.62C483.061,-191.806 496.574,-187.523 508,-181 528.204,-169.466 522.629,-152.192 544,-143 601.169,-118.41 674.183,-124.156 721.741,-132.17"/>
<polygon fill="midnightblue" stroke="midnightblue" points="721.323,-135.651 731.782,-133.96 722.551,-128.759 721.323,-135.651"/>
</g>
<!-- Node13 -->
<g id="node13" class="node"><title>Node13</title>
<g id="a_node13"><a xlink:href="tasks_8c.html#a54f31e9aef0eb7b87e48c7d68ecc84c1" target="_top" xlink:title="xTaskIncrementTick">
<polygon fill="white" stroke="black" points="567,-152.5 567,-171.5 673,-171.5 673,-152.5 567,-152.5"/>
<text text-anchor="middle" x="620" y="-159.5" font-family="Helvetica,sans-Serif" font-size="10.00">xTaskIncrementTick</text>
</a>
</g>
</g>
<!-- Node12&#45;&gt;Node13 -->
<g id="edge18" class="edge"><title>Node12&#45;&gt;Node13</title>
<path fill="none" stroke="midnightblue" d="M470.484,-191.091C497.333,-185.832 531.6,-179.12 560.451,-173.468"/>
<polygon fill="midnightblue" stroke="midnightblue" points="561.269,-176.875 570.409,-171.518 559.923,-170.005 561.269,-176.875"/>
</g>
<!-- Node13&#45;&gt;Node3 -->
<g id="edge19" class="edge"><title>Node13&#45;&gt;Node3</title>
<path fill="none" stroke="midnightblue" d="M659.81,-171.604C671.771,-175.299 684.746,-180.084 696,-186 717.436,-197.268 739.004,-214.741 753.473,-227.566"/>
<polygon fill="midnightblue" stroke="midnightblue" points="751.358,-230.372 761.117,-234.497 756.061,-225.187 751.358,-230.372"/>
</g>
<!-- Node13&#45;&gt;Node6 -->
<g id="edge20" class="edge"><title>Node13&#45;&gt;Node6</title>
<path fill="none" stroke="midnightblue" d="M673.042,-155.408C688.868,-153.403 706.203,-151.208 721.833,-149.228"/>
<polygon fill="midnightblue" stroke="midnightblue" points="722.344,-152.691 731.825,-147.962 721.464,-145.747 722.344,-152.691"/>
</g>
</g>
</svg>
