<?xml version="1.0" encoding="UTF-8" standalone="no"?>
<!DOCTYPE svg PUBLIC "-//W3C//DTD SVG 1.1//EN"
 "http://www.w3.org/Graphics/SVG/1.1/DTD/svg11.dtd">
<!-- Generated by graphviz version 2.30.1 (20130221.2233)
 -->
<!-- Title: vEventGroupDelete Pages: 1 -->
<svg width="642pt" height="241pt"
 viewBox="0.00 0.00 642.00 241.41" xmlns="http://www.w3.org/2000/svg" xmlns:xlink="http://www.w3.org/1999/xlink">
<g id="graph0" class="graph" transform="scale(1 1) rotate(0) translate(4 237.412)">
<title>vEventGroupDelete</title>
<polygon fill="white" stroke="white" points="-4,5 -4,-237.412 639,-237.412 639,5 -4,5"/>
<!-- Node1 -->
<g id="node1" class="node"><title>Node1</title>
<polygon fill="#bfbfbf" stroke="black" points="0,-163.5 0,-182.5 104,-182.5 104,-163.5 0,-163.5"/>
<text text-anchor="middle" x="52" y="-170.5" font-family="Helvetica,sans-Serif" font-size="10.00">vEventGroupDelete</text>
</g>
<!-- Node2 -->
<g id="node2" class="node"><title>Node2</title>
<g id="a_node2"><a xlink:href="_paradigm_2_tern___e_e_2small_2portmacro_8h.html#a14d32f8130d3c0b212cfc751730b5b49" target="_top" xlink:title="void">
<polygon fill="white" stroke="black" points="576.5,-125.5 576.5,-144.5 611.5,-144.5 611.5,-125.5 576.5,-125.5"/>
<text text-anchor="middle" x="594" y="-132.5" font-family="Helvetica,sans-Serif" font-size="10.00">void</text>
</a>
</g>
</g>
<!-- Node1&#45;&gt;Node2 -->
<g id="edge1" class="edge"><title>Node1&#45;&gt;Node2</title>
<path fill="none" stroke="midnightblue" d="M71.5564,-182.511C88.87,-191.043 115.621,-203.362 140,-211 181.505,-224.003 192.713,-225.758 236,-230 363.436,-242.49 398.889,-217.996 518,-171 534.702,-164.41 552.868,-155.731 567.138,-148.546"/>
<polygon fill="midnightblue" stroke="midnightblue" points="569.014,-151.519 576.329,-143.855 565.831,-145.284 569.014,-151.519"/>
</g>
<!-- Node3 -->
<g id="node3" class="node"><title>Node3</title>
<g id="a_node3"><a xlink:href="portable_8h.html#a735cd3085bb7ba06ff8e47565bfd7016" target="_top" xlink:title="vPortFree">
<polygon fill="white" stroke="black" points="140,-163.5 140,-182.5 200,-182.5 200,-163.5 140,-163.5"/>
<text text-anchor="middle" x="170" y="-170.5" font-family="Helvetica,sans-Serif" font-size="10.00">vPortFree</text>
</a>
</g>
</g>
<!-- Node1&#45;&gt;Node3 -->
<g id="edge2" class="edge"><title>Node1&#45;&gt;Node3</title>
<path fill="none" stroke="midnightblue" d="M104.217,-173C112.837,-173 121.66,-173 129.91,-173"/>
<polygon fill="midnightblue" stroke="midnightblue" points="129.995,-176.5 139.995,-173 129.995,-169.5 129.995,-176.5"/>
</g>
<!-- Node4 -->
<g id="node4" class="node"><title>Node4</title>
<g id="a_node4"><a xlink:href="task_8h.html#a366b302eba79d10b5ee2a3756f0fcc43" target="_top" xlink:title="vTaskSuspendAll">
<polygon fill="white" stroke="black" points="236,-201.5 236,-220.5 330,-220.5 330,-201.5 236,-201.5"/>
<text text-anchor="middle" x="283" y="-208.5" font-family="Helvetica,sans-Serif" font-size="10.00">vTaskSuspendAll</text>
</a>
</g>
</g>
<!-- Node1&#45;&gt;Node4 -->
<g id="edge11" class="edge"><title>Node1&#45;&gt;Node4</title>
<path fill="none" stroke="midnightblue" d="M93.583,-182.586C108.167,-185.839 124.773,-189.323 140,-192 168.114,-196.942 199.559,-201.272 225.699,-204.545"/>
<polygon fill="midnightblue" stroke="midnightblue" points="225.455,-208.041 235.808,-205.791 226.311,-201.094 225.455,-208.041"/>
</g>
<!-- Node8 -->
<g id="node8" class="node"><title>Node8</title>
<g id="a_node8"><a xlink:href="task_8h.html#aca64fad00201055cbaf9fff74f181b85" target="_top" xlink:title="xTaskRemoveFromUnordered\lEventList">
<polygon fill="white" stroke="black" points="366.5,-0 366.5,-30 517.5,-30 517.5,-0 366.5,-0"/>
<text text-anchor="start" x="374.5" y="-18" font-family="Helvetica,sans-Serif" font-size="10.00">xTaskRemoveFromUnordered</text>
<text text-anchor="middle" x="442" y="-7" font-family="Helvetica,sans-Serif" font-size="10.00">EventList</text>
</a>
</g>
</g>
<!-- Node1&#45;&gt;Node8 -->
<g id="edge12" class="edge"><title>Node1&#45;&gt;Node8</title>
<path fill="none" stroke="midnightblue" d="M76.3974,-163.472C138.965,-137.994 311.03,-67.9261 394.446,-33.9575"/>
<polygon fill="midnightblue" stroke="midnightblue" points="395.984,-37.1105 403.925,-30.0974 393.344,-30.6274 395.984,-37.1105"/>
</g>
<!-- Node5 -->
<g id="node5" class="node"><title>Node5</title>
<g id="a_node5"><a xlink:href="task_8h.html#a003f8ae6d649225abd030cc76e1c7d0e" target="_top" xlink:title="xTaskResumeAll">
<polygon fill="white" stroke="black" points="237,-125.5 237,-144.5 329,-144.5 329,-125.5 237,-125.5"/>
<text text-anchor="middle" x="283" y="-132.5" font-family="Helvetica,sans-Serif" font-size="10.00">xTaskResumeAll</text>
</a>
</g>
</g>
<!-- Node1&#45;&gt;Node5 -->
<g id="edge15" class="edge"><title>Node1&#45;&gt;Node5</title>
<path fill="none" stroke="midnightblue" d="M93.583,-163.414C108.167,-160.161 124.773,-156.677 140,-154 168.438,-149.001 200.285,-144.628 226.602,-141.342"/>
<polygon fill="midnightblue" stroke="midnightblue" points="227.27,-144.787 236.768,-140.092 226.416,-137.839 227.27,-144.787"/>
</g>
<!-- Node3&#45;&gt;Node4 -->
<g id="edge3" class="edge"><title>Node3&#45;&gt;Node4</title>
<path fill="none" stroke="midnightblue" d="M199.01,-182.589C212.682,-187.269 229.331,-192.969 244.118,-198.032"/>
<polygon fill="midnightblue" stroke="midnightblue" points="243.404,-201.486 253.999,-201.414 245.672,-194.864 243.404,-201.486"/>
</g>
<!-- Node3&#45;&gt;Node5 -->
<g id="edge4" class="edge"><title>Node3&#45;&gt;Node5</title>
<path fill="none" stroke="midnightblue" d="M199.01,-163.411C212.682,-158.731 229.331,-153.031 244.118,-147.968"/>
<polygon fill="midnightblue" stroke="midnightblue" points="245.672,-151.136 253.999,-144.586 243.404,-144.514 245.672,-151.136"/>
</g>
<!-- Node3&#45;&gt;Node2 -->
<g id="edge10" class="edge"><title>Node3&#45;&gt;Node2</title>
<path fill="none" stroke="midnightblue" d="M200.359,-172.114C260.279,-170.053 400.891,-163.929 518,-149 534.125,-146.944 552.024,-143.642 566.292,-140.761"/>
<polygon fill="midnightblue" stroke="midnightblue" points="567.323,-144.122 576.406,-138.668 565.904,-137.268 567.323,-144.122"/>
</g>
<!-- Node5&#45;&gt;Node2 -->
<g id="edge5" class="edge"><title>Node5&#45;&gt;Node2</title>
<path fill="none" stroke="midnightblue" d="M329.262,-135C394.523,-135 513.022,-135 566.067,-135"/>
<polygon fill="midnightblue" stroke="midnightblue" points="566.35,-138.5 576.35,-135 566.35,-131.5 566.35,-138.5"/>
</g>
<!-- Node6 -->
<g id="node6" class="node"><title>Node6</title>
<g id="a_node6"><a xlink:href="list_8h.html#a2eb1558482076fff8cafc63419c2d34a" target="_top" xlink:title="uxListRemove">
<polygon fill="white" stroke="black" points="554,-49.5 554,-68.5 634,-68.5 634,-49.5 554,-49.5"/>
<text text-anchor="middle" x="594" y="-56.5" font-family="Helvetica,sans-Serif" font-size="10.00">uxListRemove</text>
</a>
</g>
</g>
<!-- Node5&#45;&gt;Node6 -->
<g id="edge6" class="edge"><title>Node5&#45;&gt;Node6</title>
<path fill="none" stroke="midnightblue" d="M294.111,-125.26C308.662,-111.926 336.962,-88.4509 366,-78 424.465,-56.958 496.671,-54.5878 543.728,-55.8961"/>
<polygon fill="midnightblue" stroke="midnightblue" points="543.842,-59.402 553.957,-56.2496 544.084,-52.4062 543.842,-59.402"/>
</g>
<!-- Node7 -->
<g id="node7" class="node"><title>Node7</title>
<g id="a_node7"><a xlink:href="tasks_8c.html#a54f31e9aef0eb7b87e48c7d68ecc84c1" target="_top" xlink:title="xTaskIncrementTick">
<polygon fill="white" stroke="black" points="389,-87.5 389,-106.5 495,-106.5 495,-87.5 389,-87.5"/>
<text text-anchor="middle" x="442" y="-94.5" font-family="Helvetica,sans-Serif" font-size="10.00">xTaskIncrementTick</text>
</a>
</g>
</g>
<!-- Node5&#45;&gt;Node7 -->
<g id="edge7" class="edge"><title>Node5&#45;&gt;Node7</title>
<path fill="none" stroke="midnightblue" d="M323.618,-125.411C344.336,-120.396 369.888,-114.212 391.856,-108.895"/>
<polygon fill="midnightblue" stroke="midnightblue" points="392.771,-112.274 401.667,-106.52 391.124,-105.471 392.771,-112.274"/>
</g>
<!-- Node7&#45;&gt;Node2 -->
<g id="edge8" class="edge"><title>Node7&#45;&gt;Node2</title>
<path fill="none" stroke="midnightblue" d="M480.851,-106.589C507.614,-113.369 542.821,-122.288 566.592,-128.31"/>
<polygon fill="midnightblue" stroke="midnightblue" points="565.776,-131.714 576.329,-130.777 567.495,-124.928 565.776,-131.714"/>
</g>
<!-- Node7&#45;&gt;Node6 -->
<g id="edge9" class="edge"><title>Node7&#45;&gt;Node6</title>
<path fill="none" stroke="midnightblue" d="M480.851,-87.411C500.467,-82.4417 524.619,-76.3233 545.479,-71.0387"/>
<polygon fill="midnightblue" stroke="midnightblue" points="546.587,-74.3687 555.421,-68.5201 544.868,-67.5831 546.587,-74.3687"/>
</g>
<!-- Node8&#45;&gt;Node2 -->
<g id="edge13" class="edge"><title>Node8&#45;&gt;Node2</title>
<path fill="none" stroke="midnightblue" d="M461.998,-30.1981C490.555,-53.0436 544.278,-96.0224 573.263,-119.21"/>
<polygon fill="midnightblue" stroke="midnightblue" points="571.08,-121.946 581.075,-125.46 575.453,-116.48 571.08,-121.946"/>
</g>
<!-- Node8&#45;&gt;Node6 -->
<g id="edge14" class="edge"><title>Node8&#45;&gt;Node6</title>
<path fill="none" stroke="midnightblue" d="M494.202,-30.0192C512.506,-35.3885 532.92,-41.3766 550.419,-46.5095"/>
<polygon fill="midnightblue" stroke="midnightblue" points="549.766,-49.9654 560.347,-49.4217 551.736,-43.2484 549.766,-49.9654"/>
</g>
</g>
</svg>
