<?xml version="1.0" encoding="UTF-8" standalone="no"?>
<!DOCTYPE svg PUBLIC "-//W3C//DTD SVG 1.1//EN"
 "http://www.w3.org/Graphics/SVG/1.1/DTD/svg11.dtd">
<!-- Generated by graphviz version 2.30.1 (20130221.2233)
 -->
<!-- Title: xEventGroupCreate Pages: 1 -->
<svg width="612pt" height="165pt"
 viewBox="0.00 0.00 612.00 165.36" xmlns="http://www.w3.org/2000/svg" xmlns:xlink="http://www.w3.org/1999/xlink">
<g id="graph0" class="graph" transform="scale(1 1) rotate(0) translate(4 161.359)">
<title>xEventGroupCreate</title>
<polygon fill="white" stroke="white" points="-4,5 -4,-161.359 609,-161.359 609,5 -4,5"/>
<!-- Node1 -->
<g id="node1" class="node"><title>Node1</title>
<polygon fill="#bfbfbf" stroke="black" points="0.5,-61.8586 0.5,-80.8586 105.5,-80.8586 105.5,-61.8586 0.5,-61.8586"/>
<text text-anchor="middle" x="53" y="-68.8586" font-family="Helvetica,sans-Serif" font-size="10.00">xEventGroupCreate</text>
</g>
<!-- Node2 -->
<g id="node2" class="node"><title>Node2</title>
<g id="a_node2"><a xlink:href="portable_8h.html#a237d63f90b28e0950bd86f76815cd6e3" target="_top" xlink:title="pvPortMalloc">
<polygon fill="white" stroke="black" points="142,-80.8586 142,-99.8586 216,-99.8586 216,-80.8586 142,-80.8586"/>
<text text-anchor="middle" x="179" y="-87.8586" font-family="Helvetica,sans-Serif" font-size="10.00">pvPortMalloc</text>
</a>
</g>
</g>
<!-- Node1&#45;&gt;Node2 -->
<g id="edge1" class="edge"><title>Node1&#45;&gt;Node2</title>
<path fill="none" stroke="midnightblue" d="M105.51,-79.2513C114.31,-80.5997 123.4,-81.9926 132.044,-83.317"/>
<polygon fill="midnightblue" stroke="midnightblue" points="131.527,-86.7785 141.941,-84.8335 132.587,-79.8593 131.527,-86.7785"/>
</g>
<!-- Node9 -->
<g id="node9" class="node"><title>Node9</title>
<g id="a_node9"><a xlink:href="list_8h.html#adeef7734d7d6d9a3eea642a70c106919" target="_top" xlink:title="vListInitialise">
<polygon fill="white" stroke="black" points="142.5,-42.8586 142.5,-61.8586 215.5,-61.8586 215.5,-42.8586 142.5,-42.8586"/>
<text text-anchor="middle" x="179" y="-49.8586" font-family="Helvetica,sans-Serif" font-size="10.00">vListInitialise</text>
</a>
</g>
</g>
<!-- Node1&#45;&gt;Node9 -->
<g id="edge11" class="edge"><title>Node1&#45;&gt;Node9</title>
<path fill="none" stroke="midnightblue" d="M105.51,-63.466C114.406,-62.103 123.598,-60.6944 132.326,-59.3571"/>
<polygon fill="midnightblue" stroke="midnightblue" points="132.958,-62.8012 142.312,-57.827 131.897,-55.882 132.958,-62.8012"/>
</g>
<!-- Node3 -->
<g id="node3" class="node"><title>Node3</title>
<g id="a_node3"><a xlink:href="task_8h.html#a366b302eba79d10b5ee2a3756f0fcc43" target="_top" xlink:title="vTaskSuspendAll">
<polygon fill="white" stroke="black" points="252,-137.859 252,-156.859 346,-156.859 346,-137.859 252,-137.859"/>
<text text-anchor="middle" x="299" y="-144.859" font-family="Helvetica,sans-Serif" font-size="10.00">vTaskSuspendAll</text>
</a>
</g>
</g>
<!-- Node2&#45;&gt;Node3 -->
<g id="edge2" class="edge"><title>Node2&#45;&gt;Node3</title>
<path fill="none" stroke="midnightblue" d="M199.751,-99.8992C218.725,-109.065 247.611,-123.018 269.158,-133.426"/>
<polygon fill="midnightblue" stroke="midnightblue" points="267.658,-136.589 278.185,-137.787 270.703,-130.286 267.658,-136.589"/>
</g>
<!-- Node4 -->
<g id="node4" class="node"><title>Node4</title>
<g id="a_node4"><a xlink:href="_paradigm_2_tern___e_e_2small_2portmacro_8h.html#a14d32f8130d3c0b212cfc751730b5b49" target="_top" xlink:title="void">
<polygon fill="white" stroke="black" points="546.5,-61.8586 546.5,-80.8586 581.5,-80.8586 581.5,-61.8586 546.5,-61.8586"/>
<text text-anchor="middle" x="564" y="-68.8586" font-family="Helvetica,sans-Serif" font-size="10.00">void</text>
</a>
</g>
</g>
<!-- Node2&#45;&gt;Node4 -->
<g id="edge3" class="edge"><title>Node2&#45;&gt;Node4</title>
<path fill="none" stroke="midnightblue" d="M216.175,-91.955C273.869,-94.0108 390.191,-96.1483 488,-85.3586 504.157,-83.5763 522.058,-80.2856 536.319,-77.3423"/>
<polygon fill="midnightblue" stroke="midnightblue" points="537.373,-80.6963 546.425,-75.1899 535.915,-73.8498 537.373,-80.6963"/>
</g>
<!-- Node5 -->
<g id="node5" class="node"><title>Node5</title>
<g id="a_node5"><a xlink:href="task_8h.html#a003f8ae6d649225abd030cc76e1c7d0e" target="_top" xlink:title="xTaskResumeAll">
<polygon fill="white" stroke="black" points="253,-61.8586 253,-80.8586 345,-80.8586 345,-61.8586 253,-61.8586"/>
<text text-anchor="middle" x="299" y="-68.8586" font-family="Helvetica,sans-Serif" font-size="10.00">xTaskResumeAll</text>
</a>
</g>
</g>
<!-- Node2&#45;&gt;Node5 -->
<g id="edge4" class="edge"><title>Node2&#45;&gt;Node5</title>
<path fill="none" stroke="midnightblue" d="M216.045,-84.5548C224.417,-83.2068 233.518,-81.7413 242.511,-80.2933"/>
<polygon fill="midnightblue" stroke="midnightblue" points="243.257,-83.7184 252.573,-78.6731 242.144,-76.8074 243.257,-83.7184"/>
</g>
<!-- Node8 -->
<g id="node8" class="node"><title>Node8</title>
<g id="a_node8"><a xlink:href="heap__2_8c.html#a3e55181f788f17d9a3e7d226a5206e4f" target="_top" xlink:title="prvHeapInit">
<polygon fill="white" stroke="black" points="265,-23.8586 265,-42.8586 333,-42.8586 333,-23.8586 265,-23.8586"/>
<text text-anchor="middle" x="299" y="-30.8586" font-family="Helvetica,sans-Serif" font-size="10.00">prvHeapInit</text>
</a>
</g>
</g>
<!-- Node2&#45;&gt;Node8 -->
<g id="edge10" class="edge"><title>Node2&#45;&gt;Node8</title>
<path fill="none" stroke="midnightblue" d="M198.058,-80.8218C219.272,-69.6183 251.656,-52.52 252,-52.3586 255.872,-50.5421 259.967,-48.7176 264.053,-46.9563"/>
<polygon fill="midnightblue" stroke="midnightblue" points="265.605,-50.1004 273.463,-42.9943 262.889,-43.6488 265.605,-50.1004"/>
</g>
<!-- Node5&#45;&gt;Node4 -->
<g id="edge5" class="edge"><title>Node5&#45;&gt;Node4</title>
<path fill="none" stroke="midnightblue" d="M345.211,-71.3586C400.161,-71.3586 491.103,-71.3586 536.089,-71.3586"/>
<polygon fill="midnightblue" stroke="midnightblue" points="536.234,-74.8587 546.234,-71.3586 536.234,-67.8587 536.234,-74.8587"/>
</g>
<!-- Node6 -->
<g id="node6" class="node"><title>Node6</title>
<g id="a_node6"><a xlink:href="list_8h.html#a2eb1558482076fff8cafc63419c2d34a" target="_top" xlink:title="uxListRemove">
<polygon fill="white" stroke="black" points="524,-4.85865 524,-23.8586 604,-23.8586 604,-4.85865 524,-4.85865"/>
<text text-anchor="middle" x="564" y="-11.8586" font-family="Helvetica,sans-Serif" font-size="10.00">uxListRemove</text>
</a>
</g>
</g>
<!-- Node5&#45;&gt;Node6 -->
<g id="edge6" class="edge"><title>Node5&#45;&gt;Node6</title>
<path fill="none" stroke="midnightblue" d="M328.701,-61.6944C334.663,-59.0951 340.73,-55.9798 346,-52.3586 365.174,-39.183 360.629,-23.5511 382,-14.3586 423.69,3.57337 475.947,1.27276 513.58,-4.13917"/>
<polygon fill="midnightblue" stroke="midnightblue" points="513.365,-7.64801 523.785,-5.73389 514.446,-0.73193 513.365,-7.64801"/>
</g>
<!-- Node7 -->
<g id="node7" class="node"><title>Node7</title>
<g id="a_node7"><a xlink:href="tasks_8c.html#a54f31e9aef0eb7b87e48c7d68ecc84c1" target="_top" xlink:title="xTaskIncrementTick">
<polygon fill="white" stroke="black" points="382,-23.8586 382,-42.8586 488,-42.8586 488,-23.8586 382,-23.8586"/>
<text text-anchor="middle" x="435" y="-30.8586" font-family="Helvetica,sans-Serif" font-size="10.00">xTaskIncrementTick</text>
</a>
</g>
</g>
<!-- Node5&#45;&gt;Node7 -->
<g id="edge7" class="edge"><title>Node5&#45;&gt;Node7</title>
<path fill="none" stroke="midnightblue" d="M333.814,-61.7696C351.033,-56.8867 372.164,-50.8943 390.573,-45.6737"/>
<polygon fill="midnightblue" stroke="midnightblue" points="391.531,-49.0401 400.197,-42.9446 389.621,-42.3057 391.531,-49.0401"/>
</g>
<!-- Node7&#45;&gt;Node4 -->
<g id="edge8" class="edge"><title>Node7&#45;&gt;Node4</title>
<path fill="none" stroke="midnightblue" d="M468.047,-42.9477C489.198,-49.276 516.576,-57.4679 536.496,-63.4282"/>
<polygon fill="midnightblue" stroke="midnightblue" points="535.576,-66.8064 546.16,-66.3199 537.583,-60.1001 535.576,-66.8064"/>
</g>
<!-- Node7&#45;&gt;Node6 -->
<g id="edge9" class="edge"><title>Node7&#45;&gt;Node6</title>
<path fill="none" stroke="midnightblue" d="M488.022,-25.5758C496.496,-24.3081 505.252,-22.9981 513.659,-21.7404"/>
<polygon fill="midnightblue" stroke="midnightblue" points="514.326,-25.1796 523.698,-20.2384 513.291,-18.2566 514.326,-25.1796"/>
</g>
</g>
</svg>
