<?xml version="1.0" encoding="UTF-8" standalone="no"?>
<!DOCTYPE svg PUBLIC "-//W3C//DTD SVG 1.1//EN"
 "http://www.w3.org/Graphics/SVG/1.1/DTD/svg11.dtd">
<!-- Generated by graphviz version 2.30.1 (20130221.2233)
 -->
<!-- Title: vEventGroupSetBitsCallback Pages: 1 -->
<svg width="732pt" height="184pt"
 viewBox="0.00 0.00 732.00 184.29" xmlns="http://www.w3.org/2000/svg" xmlns:xlink="http://www.w3.org/1999/xlink">
<g id="graph0" class="graph" transform="scale(1 1) rotate(0) translate(4 180.291)">
<title>vEventGroupSetBitsCallback</title>
<polygon fill="white" stroke="white" points="-4,5 -4,-180.291 729,-180.291 729,5 -4,5"/>
<!-- Node1 -->
<g id="node1" class="node"><title>Node1</title>
<polygon fill="#bfbfbf" stroke="black" points="0.5,-140.004 0.5,-159.004 145.5,-159.004 145.5,-140.004 0.5,-140.004"/>
<text text-anchor="middle" x="73" y="-147.004" font-family="Helvetica,sans-Serif" font-size="10.00">vEventGroupSetBitsCallback</text>
</g>
<!-- Node2 -->
<g id="node2" class="node"><title>Node2</title>
<g id="a_node2"><a xlink:href="_paradigm_2_tern___e_e_2small_2portmacro_8h.html#a14d32f8130d3c0b212cfc751730b5b49" target="_top" xlink:title="void">
<polygon fill="white" stroke="black" points="666.5,-98.0041 666.5,-117.004 701.5,-117.004 701.5,-98.0041 666.5,-98.0041"/>
<text text-anchor="middle" x="684" y="-105.004" font-family="Helvetica,sans-Serif" font-size="10.00">void</text>
</a>
</g>
</g>
<!-- Node1&#45;&gt;Node2 -->
<g id="edge1" class="edge"><title>Node1&#45;&gt;Node2</title>
<path fill="none" stroke="midnightblue" d="M132.909,-159.044C232.639,-173.1 440.252,-193.275 608,-149.504 627.663,-144.373 647.628,-132.817 662.011,-123.123"/>
<polygon fill="midnightblue" stroke="midnightblue" points="664.415,-125.713 670.597,-117.108 660.398,-119.98 664.415,-125.713"/>
</g>
<!-- Node3 -->
<g id="node3" class="node"><title>Node3</title>
<g id="a_node3"><a xlink:href="event__groups_8c.html#a9ac7cd970f50e2e50a494b656e0eb239" target="_top" xlink:title="xEventGroupSetBits">
<polygon fill="white" stroke="black" points="182.5,-101.004 182.5,-120.004 289.5,-120.004 289.5,-101.004 182.5,-101.004"/>
<text text-anchor="middle" x="236" y="-108.004" font-family="Helvetica,sans-Serif" font-size="10.00">xEventGroupSetBits</text>
</a>
</g>
</g>
<!-- Node1&#45;&gt;Node3 -->
<g id="edge2" class="edge"><title>Node1&#45;&gt;Node3</title>
<path fill="none" stroke="midnightblue" d="M113.385,-139.964C135.199,-134.679 162.519,-128.062 185.736,-122.437"/>
<polygon fill="midnightblue" stroke="midnightblue" points="186.848,-125.77 195.743,-120.014 185.2,-118.966 186.848,-125.77"/>
</g>
<!-- Node3&#45;&gt;Node2 -->
<g id="edge3" class="edge"><title>Node3&#45;&gt;Node2</title>
<path fill="none" stroke="midnightblue" d="M287.436,-120.047C359.118,-132.096 494.382,-149.24 608,-131.504 624.63,-128.908 642.611,-123.258 656.798,-118.092"/>
<polygon fill="midnightblue" stroke="midnightblue" points="658.268,-121.278 666.383,-114.466 655.792,-114.731 658.268,-121.278"/>
</g>
<!-- Node4 -->
<g id="node4" class="node"><title>Node4</title>
<g id="a_node4"><a xlink:href="task_8h.html#a366b302eba79d10b5ee2a3756f0fcc43" target="_top" xlink:title="vTaskSuspendAll">
<polygon fill="white" stroke="black" points="326,-63.0041 326,-82.0041 420,-82.0041 420,-63.0041 326,-63.0041"/>
<text text-anchor="middle" x="373" y="-70.0041" font-family="Helvetica,sans-Serif" font-size="10.00">vTaskSuspendAll</text>
</a>
</g>
</g>
<!-- Node3&#45;&gt;Node4 -->
<g id="edge4" class="edge"><title>Node3&#45;&gt;Node4</title>
<path fill="none" stroke="midnightblue" d="M271.066,-100.915C288.413,-96.0321 309.702,-90.0397 328.249,-84.8191"/>
<polygon fill="midnightblue" stroke="midnightblue" points="329.267,-88.1687 337.945,-82.09 327.37,-81.4305 329.267,-88.1687"/>
</g>
<!-- Node5 -->
<g id="node5" class="node"><title>Node5</title>
<g id="a_node5"><a xlink:href="task_8h.html#aca64fad00201055cbaf9fff74f181b85" target="_top" xlink:title="xTaskRemoveFromUnordered\lEventList">
<polygon fill="white" stroke="black" points="456.5,-92.5041 456.5,-122.504 607.5,-122.504 607.5,-92.5041 456.5,-92.5041"/>
<text text-anchor="start" x="464.5" y="-110.504" font-family="Helvetica,sans-Serif" font-size="10.00">xTaskRemoveFromUnordered</text>
<text text-anchor="middle" x="532" y="-99.5041" font-family="Helvetica,sans-Serif" font-size="10.00">EventList</text>
</a>
</g>
</g>
<!-- Node3&#45;&gt;Node5 -->
<g id="edge5" class="edge"><title>Node3&#45;&gt;Node5</title>
<path fill="none" stroke="midnightblue" d="M289.561,-109.968C332.981,-109.525 395.465,-108.887 445.988,-108.372"/>
<polygon fill="midnightblue" stroke="midnightblue" points="446.286,-111.869 456.25,-108.267 446.215,-104.869 446.286,-111.869"/>
</g>
<!-- Node7 -->
<g id="node7" class="node"><title>Node7</title>
<g id="a_node7"><a xlink:href="task_8h.html#a003f8ae6d649225abd030cc76e1c7d0e" target="_top" xlink:title="xTaskResumeAll">
<polygon fill="white" stroke="black" points="327,-19.0041 327,-38.0041 419,-38.0041 419,-19.0041 327,-19.0041"/>
<text text-anchor="middle" x="373" y="-26.0041" font-family="Helvetica,sans-Serif" font-size="10.00">xTaskResumeAll</text>
</a>
</g>
</g>
<!-- Node3&#45;&gt;Node7 -->
<g id="edge8" class="edge"><title>Node3&#45;&gt;Node7</title>
<path fill="none" stroke="midnightblue" d="M251.292,-100.901C268.71,-89.302 299.146,-69.3732 326,-53.5041 331.854,-50.0446 338.215,-46.4721 344.287,-43.148"/>
<polygon fill="midnightblue" stroke="midnightblue" points="346.343,-46.0152 353.476,-38.1808 343.014,-39.8573 346.343,-46.0152"/>
</g>
<!-- Node5&#45;&gt;Node2 -->
<g id="edge6" class="edge"><title>Node5&#45;&gt;Node2</title>
<path fill="none" stroke="midnightblue" d="M607.561,-107.504C624.966,-107.504 642.403,-107.504 656.121,-107.504"/>
<polygon fill="midnightblue" stroke="midnightblue" points="656.255,-111.004 666.255,-107.504 656.255,-104.004 656.255,-111.004"/>
</g>
<!-- Node6 -->
<g id="node6" class="node"><title>Node6</title>
<g id="a_node6"><a xlink:href="list_8h.html#a2eb1558482076fff8cafc63419c2d34a" target="_top" xlink:title="uxListRemove">
<polygon fill="white" stroke="black" points="644,-16.0041 644,-35.0041 724,-35.0041 724,-16.0041 644,-16.0041"/>
<text text-anchor="middle" x="684" y="-23.0041" font-family="Helvetica,sans-Serif" font-size="10.00">uxListRemove</text>
</a>
</g>
</g>
<!-- Node5&#45;&gt;Node6 -->
<g id="edge7" class="edge"><title>Node5&#45;&gt;Node6</title>
<path fill="none" stroke="midnightblue" d="M560.512,-92.464C587.9,-77.4919 629.641,-54.6739 656.623,-39.9234"/>
<polygon fill="midnightblue" stroke="midnightblue" points="658.409,-42.9363 665.504,-35.0685 655.051,-36.7942 658.409,-42.9363"/>
</g>
<!-- Node7&#45;&gt;Node2 -->
<g id="edge9" class="edge"><title>Node7&#45;&gt;Node2</title>
<path fill="none" stroke="midnightblue" d="M419.181,-37.5998C466.547,-47.4452 542.982,-64.2103 608,-82.5041 624.373,-87.1108 642.469,-93.1156 656.783,-98.0856"/>
<polygon fill="midnightblue" stroke="midnightblue" points="655.864,-101.472 666.459,-101.487 658.185,-94.8686 655.864,-101.472"/>
</g>
<!-- Node7&#45;&gt;Node6 -->
<g id="edge10" class="edge"><title>Node7&#45;&gt;Node6</title>
<path fill="none" stroke="midnightblue" d="M402.468,-18.8937C418.075,-14.1289 437.88,-8.8926 456,-6.50406 522.976,2.32444 540.964,1.85518 608,-6.50406 619.43,-7.92929 631.617,-10.5315 642.772,-13.3623"/>
<polygon fill="midnightblue" stroke="midnightblue" points="642.112,-16.8083 652.676,-15.9991 643.913,-10.0439 642.112,-16.8083"/>
</g>
<!-- Node8 -->
<g id="node8" class="node"><title>Node8</title>
<g id="a_node8"><a xlink:href="tasks_8c.html#a54f31e9aef0eb7b87e48c7d68ecc84c1" target="_top" xlink:title="xTaskIncrementTick">
<polygon fill="white" stroke="black" points="479,-16.0041 479,-35.0041 585,-35.0041 585,-16.0041 479,-16.0041"/>
<text text-anchor="middle" x="532" y="-23.0041" font-family="Helvetica,sans-Serif" font-size="10.00">xTaskIncrementTick</text>
</a>
</g>
</g>
<!-- Node7&#45;&gt;Node8 -->
<g id="edge11" class="edge"><title>Node7&#45;&gt;Node8</title>
<path fill="none" stroke="midnightblue" d="M419.411,-27.6363C434.785,-27.3426 452.232,-27.0092 468.688,-26.6947"/>
<polygon fill="midnightblue" stroke="midnightblue" points="468.846,-30.1924 478.778,-26.5019 468.712,-23.1937 468.846,-30.1924"/>
</g>
<!-- Node8&#45;&gt;Node2 -->
<g id="edge12" class="edge"><title>Node8&#45;&gt;Node2</title>
<path fill="none" stroke="midnightblue" d="M571.81,-35.1079C583.771,-38.8029 596.746,-43.588 608,-49.5041 629.436,-60.7725 651.004,-78.2455 665.473,-91.0697"/>
<polygon fill="midnightblue" stroke="midnightblue" points="663.358,-93.8765 673.117,-98.0011 668.061,-88.691 663.358,-93.8765"/>
</g>
<!-- Node8&#45;&gt;Node6 -->
<g id="edge13" class="edge"><title>Node8&#45;&gt;Node6</title>
<path fill="none" stroke="midnightblue" d="M585.042,-25.5041C600.717,-25.5041 617.873,-25.5041 633.386,-25.5041"/>
<polygon fill="midnightblue" stroke="midnightblue" points="633.825,-29.0042 643.825,-25.5041 633.825,-22.0042 633.825,-29.0042"/>
</g>
</g>
</svg>
