<?xml version="1.0" encoding="UTF-8" standalone="no"?>
<!DOCTYPE svg PUBLIC "-//W3C//DTD SVG 1.1//EN"
 "http://www.w3.org/Graphics/SVG/1.1/DTD/svg11.dtd">
<!-- Generated by graphviz version 2.30.1 (20130221.2233)
 -->
<!-- Title: xEventGroupWaitBits Pages: 1 -->
<svg width="646pt" height="237pt"
 viewBox="0.00 0.00 646.00 237.00" xmlns="http://www.w3.org/2000/svg" xmlns:xlink="http://www.w3.org/1999/xlink">
<g id="graph0" class="graph" transform="scale(1 1) rotate(0) translate(4 233)">
<title>xEventGroupWaitBits</title>
<polygon fill="white" stroke="white" points="-4,5 -4,-233 643,-233 643,5 -4,5"/>
<!-- Node1 -->
<g id="node1" class="node"><title>Node1</title>
<polygon fill="#bfbfbf" stroke="black" points="0,-114.5 0,-133.5 112,-133.5 112,-114.5 0,-114.5"/>
<text text-anchor="middle" x="56" y="-121.5" font-family="Helvetica,sans-Serif" font-size="10.00">xEventGroupWaitBits</text>
</g>
<!-- Node2 -->
<g id="node2" class="node"><title>Node2</title>
<g id="a_node2"><a xlink:href="event__groups_8c.html#a0b39881dccfddfde543fb7181872fb5b" target="_top" xlink:title="prvTestWaitCondition">
<polygon fill="white" stroke="black" points="177,-209.5 177,-228.5 289,-228.5 289,-209.5 177,-209.5"/>
<text text-anchor="middle" x="233" y="-216.5" font-family="Helvetica,sans-Serif" font-size="10.00">prvTestWaitCondition</text>
</a>
</g>
</g>
<!-- Node1&#45;&gt;Node2 -->
<g id="edge1" class="edge"><title>Node1&#45;&gt;Node2</title>
<path fill="none" stroke="midnightblue" d="M65.5082,-133.608C80.4941,-149.902 113.31,-182.85 148,-200 154.034,-202.983 160.543,-205.504 167.173,-207.634"/>
<polygon fill="midnightblue" stroke="midnightblue" points="166.354,-211.041 176.934,-210.483 168.315,-204.321 166.354,-211.041"/>
</g>
<!-- Node3 -->
<g id="node3" class="node"><title>Node3</title>
<g id="a_node3"><a xlink:href="task_8h.html#a7793b4bbe45c10d4c5104c126b89e87c" target="_top" xlink:title="uxTaskResetEventItemValue">
<polygon fill="white" stroke="black" points="160.5,-171.5 160.5,-190.5 305.5,-190.5 305.5,-171.5 160.5,-171.5"/>
<text text-anchor="middle" x="233" y="-178.5" font-family="Helvetica,sans-Serif" font-size="10.00">uxTaskResetEventItemValue</text>
</a>
</g>
</g>
<!-- Node1&#45;&gt;Node3 -->
<g id="edge2" class="edge"><title>Node1&#45;&gt;Node3</title>
<path fill="none" stroke="midnightblue" d="M77.2207,-133.636C95.4153,-142.016 123.046,-154.034 148,-162 156.088,-164.582 164.72,-166.953 173.258,-169.08"/>
<polygon fill="midnightblue" stroke="midnightblue" points="172.658,-172.536 183.198,-171.463 174.29,-165.728 172.658,-172.536"/>
</g>
<!-- Node4 -->
<g id="node4" class="node"><title>Node4</title>
<g id="a_node4"><a xlink:href="task_8h.html#a9d52fa7b60cc6a7b4fd0846700d7834c" target="_top" xlink:title="vTaskPlaceOnUnorderedEventList">
<polygon fill="white" stroke="black" points="148,-133.5 148,-152.5 318,-152.5 318,-133.5 148,-133.5"/>
<text text-anchor="middle" x="233" y="-140.5" font-family="Helvetica,sans-Serif" font-size="10.00">vTaskPlaceOnUnorderedEventList</text>
</a>
</g>
</g>
<!-- Node1&#45;&gt;Node4 -->
<g id="edge3" class="edge"><title>Node1&#45;&gt;Node4</title>
<path fill="none" stroke="midnightblue" d="M112.371,-130.012C120.504,-130.895 129.067,-131.824 137.719,-132.764"/>
<polygon fill="midnightblue" stroke="midnightblue" points="137.576,-136.269 147.896,-133.869 138.332,-129.31 137.576,-136.269"/>
</g>
<!-- Node9 -->
<g id="node9" class="node"><title>Node9</title>
<g id="a_node9"><a xlink:href="task_8h.html#a366b302eba79d10b5ee2a3756f0fcc43" target="_top" xlink:title="vTaskSuspendAll">
<polygon fill="white" stroke="black" points="186,-95.5 186,-114.5 280,-114.5 280,-95.5 186,-95.5"/>
<text text-anchor="middle" x="233" y="-102.5" font-family="Helvetica,sans-Serif" font-size="10.00">vTaskSuspendAll</text>
</a>
</g>
</g>
<!-- Node1&#45;&gt;Node9 -->
<g id="edge8" class="edge"><title>Node1&#45;&gt;Node9</title>
<path fill="none" stroke="midnightblue" d="M112.371,-117.988C132.588,-115.793 155.461,-113.31 175.753,-111.107"/>
<polygon fill="midnightblue" stroke="midnightblue" points="176.228,-114.576 185.792,-110.017 175.473,-107.617 176.228,-114.576"/>
</g>
<!-- Node10 -->
<g id="node10" class="node"><title>Node10</title>
<g id="a_node10"><a xlink:href="task_8h.html#a0241000e08a261372186d34825a35979" target="_top" xlink:title="xTaskGetSchedulerState">
<polygon fill="white" stroke="black" points="169,-57.5 169,-76.5 297,-76.5 297,-57.5 169,-57.5"/>
<text text-anchor="middle" x="233" y="-64.5" font-family="Helvetica,sans-Serif" font-size="10.00">xTaskGetSchedulerState</text>
</a>
</g>
</g>
<!-- Node1&#45;&gt;Node10 -->
<g id="edge9" class="edge"><title>Node1&#45;&gt;Node10</title>
<path fill="none" stroke="midnightblue" d="M77.2207,-114.364C95.4153,-105.984 123.046,-93.9662 148,-86 156.088,-83.4181 164.72,-81.0469 173.258,-78.9198"/>
<polygon fill="midnightblue" stroke="midnightblue" points="174.29,-82.2717 183.198,-76.537 172.658,-75.4645 174.29,-82.2717"/>
</g>
<!-- Node11 -->
<g id="node11" class="node"><title>Node11</title>
<g id="a_node11"><a xlink:href="task_8h.html#a003f8ae6d649225abd030cc76e1c7d0e" target="_top" xlink:title="xTaskResumeAll">
<polygon fill="white" stroke="black" points="187,-19.5 187,-38.5 279,-38.5 279,-19.5 187,-19.5"/>
<text text-anchor="middle" x="233" y="-26.5" font-family="Helvetica,sans-Serif" font-size="10.00">xTaskResumeAll</text>
</a>
</g>
</g>
<!-- Node1&#45;&gt;Node11 -->
<g id="edge10" class="edge"><title>Node1&#45;&gt;Node11</title>
<path fill="none" stroke="midnightblue" d="M65.5082,-114.392C80.4941,-98.098 113.31,-65.1496 148,-48 156.947,-43.577 166.939,-40.1688 176.823,-37.5469"/>
<polygon fill="midnightblue" stroke="midnightblue" points="177.729,-40.9287 186.628,-35.1786 176.086,-34.1243 177.729,-40.9287"/>
</g>
<!-- Node5 -->
<g id="node5" class="node"><title>Node5</title>
<g id="a_node5"><a xlink:href="list_8h.html#a71a6a6099b3cbd8f90539aabe5c9e572" target="_top" xlink:title="vListInsertEnd">
<polygon fill="white" stroke="black" points="398,-171.5 398,-190.5 478,-190.5 478,-171.5 398,-171.5"/>
<text text-anchor="middle" x="438" y="-178.5" font-family="Helvetica,sans-Serif" font-size="10.00">vListInsertEnd</text>
</a>
</g>
</g>
<!-- Node4&#45;&gt;Node5 -->
<g id="edge4" class="edge"><title>Node4&#45;&gt;Node5</title>
<path fill="none" stroke="midnightblue" d="M284.963,-152.54C316.408,-158.426 356.54,-165.939 387.676,-171.767"/>
<polygon fill="midnightblue" stroke="midnightblue" points="387.391,-175.274 397.864,-173.674 388.679,-168.394 387.391,-175.274"/>
</g>
<!-- Node6 -->
<g id="node6" class="node"><title>Node6</title>
<g id="a_node6"><a xlink:href="list_8h.html#a2eb1558482076fff8cafc63419c2d34a" target="_top" xlink:title="uxListRemove">
<polygon fill="white" stroke="black" points="558,-57.5 558,-76.5 638,-76.5 638,-57.5 558,-57.5"/>
<text text-anchor="middle" x="598" y="-64.5" font-family="Helvetica,sans-Serif" font-size="10.00">uxListRemove</text>
</a>
</g>
</g>
<!-- Node4&#45;&gt;Node6 -->
<g id="edge5" class="edge"><title>Node4&#45;&gt;Node6</title>
<path fill="none" stroke="midnightblue" d="M279.607,-133.452C348.211,-119.088 477.425,-92.035 547.979,-77.2633"/>
<polygon fill="midnightblue" stroke="midnightblue" points="548.879,-80.6509 557.949,-75.1759 547.444,-73.7995 548.879,-80.6509"/>
</g>
<!-- Node7 -->
<g id="node7" class="node"><title>Node7</title>
<g id="a_node7"><a xlink:href="tasks_8c.html#a7859bfaa75a7c5524dd45b89036f1233" target="_top" xlink:title="prvAddCurrentTaskToDelayedList">
<polygon fill="white" stroke="black" points="354.5,-133.5 354.5,-152.5 521.5,-152.5 521.5,-133.5 354.5,-133.5"/>
<text text-anchor="middle" x="438" y="-140.5" font-family="Helvetica,sans-Serif" font-size="10.00">prvAddCurrentTaskToDelayedList</text>
</a>
</g>
</g>
<!-- Node4&#45;&gt;Node7 -->
<g id="edge6" class="edge"><title>Node4&#45;&gt;Node7</title>
<path fill="none" stroke="midnightblue" d="M318.033,-143C326.657,-143 335.454,-143 344.166,-143"/>
<polygon fill="midnightblue" stroke="midnightblue" points="344.337,-146.5 354.337,-143 344.337,-139.5 344.337,-146.5"/>
</g>
<!-- Node8 -->
<g id="node8" class="node"><title>Node8</title>
<g id="a_node8"><a xlink:href="list_8h.html#aa129290da5cbda47dffb7bf877b2f02a" target="_top" xlink:title="vListInsert">
<polygon fill="white" stroke="black" points="567,-133.5 567,-152.5 629,-152.5 629,-133.5 567,-133.5"/>
<text text-anchor="middle" x="598" y="-140.5" font-family="Helvetica,sans-Serif" font-size="10.00">vListInsert</text>
</a>
</g>
</g>
<!-- Node7&#45;&gt;Node8 -->
<g id="edge7" class="edge"><title>Node7&#45;&gt;Node8</title>
<path fill="none" stroke="midnightblue" d="M521.702,-143C533.798,-143 545.777,-143 556.503,-143"/>
<polygon fill="midnightblue" stroke="midnightblue" points="556.77,-146.5 566.77,-143 556.77,-139.5 556.77,-146.5"/>
</g>
<!-- Node12 -->
<g id="node12" class="node"><title>Node12</title>
<g id="a_node12"><a xlink:href="_paradigm_2_tern___e_e_2small_2portmacro_8h.html#a14d32f8130d3c0b212cfc751730b5b49" target="_top" xlink:title="void">
<polygon fill="white" stroke="black" points="580.5,-0.5 580.5,-19.5 615.5,-19.5 615.5,-0.5 580.5,-0.5"/>
<text text-anchor="middle" x="598" y="-7.5" font-family="Helvetica,sans-Serif" font-size="10.00">void</text>
</a>
</g>
</g>
<!-- Node11&#45;&gt;Node12 -->
<g id="edge11" class="edge"><title>Node11&#45;&gt;Node12</title>
<path fill="none" stroke="midnightblue" d="M279.102,-20.141C301.52,-16.1771 329.082,-11.9605 354,-10 432.485,-3.82507 525.671,-6.65267 570.419,-8.6391"/>
<polygon fill="midnightblue" stroke="midnightblue" points="570.313,-12.1378 580.465,-9.10778 570.639,-5.14545 570.313,-12.1378"/>
</g>
<!-- Node11&#45;&gt;Node6 -->
<g id="edge12" class="edge"><title>Node11&#45;&gt;Node6</title>
<path fill="none" stroke="midnightblue" d="M279.184,-37.0191C301.623,-40.7805 329.177,-45.0691 354,-48 420.893,-55.8984 498.549,-61.3203 547.72,-64.2918"/>
<polygon fill="midnightblue" stroke="midnightblue" points="547.576,-67.7893 557.766,-64.8887 547.991,-60.8016 547.576,-67.7893"/>
</g>
<!-- Node13 -->
<g id="node13" class="node"><title>Node13</title>
<g id="a_node13"><a xlink:href="tasks_8c.html#a54f31e9aef0eb7b87e48c7d68ecc84c1" target="_top" xlink:title="xTaskIncrementTick">
<polygon fill="white" stroke="black" points="385,-19.5 385,-38.5 491,-38.5 491,-19.5 385,-19.5"/>
<text text-anchor="middle" x="438" y="-26.5" font-family="Helvetica,sans-Serif" font-size="10.00">xTaskIncrementTick</text>
</a>
</g>
</g>
<!-- Node11&#45;&gt;Node13 -->
<g id="edge13" class="edge"><title>Node11&#45;&gt;Node13</title>
<path fill="none" stroke="midnightblue" d="M279.052,-29C307.177,-29 343.781,-29 374.668,-29"/>
<polygon fill="midnightblue" stroke="midnightblue" points="374.904,-32.5001 384.904,-29 374.904,-25.5001 374.904,-32.5001"/>
</g>
<!-- Node13&#45;&gt;Node12 -->
<g id="edge14" class="edge"><title>Node13&#45;&gt;Node12</title>
<path fill="none" stroke="midnightblue" d="M491.173,-22.726C517.625,-19.5451 548.63,-15.8166 570.216,-13.2209"/>
<polygon fill="midnightblue" stroke="midnightblue" points="570.772,-16.6793 580.283,-12.0103 569.936,-9.72935 570.772,-16.6793"/>
</g>
<!-- Node13&#45;&gt;Node6 -->
<g id="edge15" class="edge"><title>Node13&#45;&gt;Node6</title>
<path fill="none" stroke="midnightblue" d="M478.87,-38.589C499.878,-43.6416 525.826,-49.8822 548.047,-55.2264"/>
<polygon fill="midnightblue" stroke="midnightblue" points="547.422,-58.6758 557.963,-57.6113 549.059,-51.8699 547.422,-58.6758"/>
</g>
</g>
</svg>
