<?xml version="1.0" encoding="UTF-8" standalone="no"?>
<!DOCTYPE svg PUBLIC "-//W3C//DTD SVG 1.1//EN"
 "http://www.w3.org/Graphics/SVG/1.1/DTD/svg11.dtd">
<!-- Generated by graphviz version 2.30.1 (20130221.2233)
 -->
<!-- Title: xEventGroupSetBits Pages: 1 -->
<svg width="550pt" height="160pt"
 viewBox="0.00 0.00 550.00 159.90" xmlns="http://www.w3.org/2000/svg" xmlns:xlink="http://www.w3.org/1999/xlink">
<g id="graph0" class="graph" transform="scale(1 1) rotate(0) translate(4 155.896)">
<title>xEventGroupSetBits</title>
<polygon fill="white" stroke="white" points="-4,5 -4,-155.896 547,-155.896 547,5 -4,5"/>
<!-- Node1 -->
<g id="node1" class="node"><title>Node1</title>
<polygon fill="#bfbfbf" stroke="black" points="0.5,-81.9681 0.5,-100.968 107.5,-100.968 107.5,-81.9681 0.5,-81.9681"/>
<text text-anchor="middle" x="54" y="-88.9681" font-family="Helvetica,sans-Serif" font-size="10.00">xEventGroupSetBits</text>
</g>
<!-- Node2 -->
<g id="node2" class="node"><title>Node2</title>
<g id="a_node2"><a xlink:href="_paradigm_2_tern___e_e_2small_2portmacro_8h.html#a14d32f8130d3c0b212cfc751730b5b49" target="_top" xlink:title="void">
<polygon fill="white" stroke="black" points="484.5,-83.9681 484.5,-102.968 519.5,-102.968 519.5,-83.9681 484.5,-83.9681"/>
<text text-anchor="middle" x="502" y="-90.9681" font-family="Helvetica,sans-Serif" font-size="10.00">void</text>
</a>
</g>
</g>
<!-- Node1&#45;&gt;Node2 -->
<g id="edge1" class="edge"><title>Node1&#45;&gt;Node2</title>
<path fill="none" stroke="midnightblue" d="M78.9204,-101.06C138.611,-123.608 298.49,-175.456 426,-139.468 446.696,-133.627 467.311,-120.299 481.675,-109.485"/>
<polygon fill="midnightblue" stroke="midnightblue" points="484.034,-112.083 489.756,-103.166 479.722,-106.569 484.034,-112.083"/>
</g>
<!-- Node3 -->
<g id="node3" class="node"><title>Node3</title>
<g id="a_node3"><a xlink:href="task_8h.html#a366b302eba79d10b5ee2a3756f0fcc43" target="_top" xlink:title="vTaskSuspendAll">
<polygon fill="white" stroke="black" points="144,-23.9681 144,-42.9681 238,-42.9681 238,-23.9681 144,-23.9681"/>
<text text-anchor="middle" x="191" y="-30.9681" font-family="Helvetica,sans-Serif" font-size="10.00">vTaskSuspendAll</text>
</a>
</g>
</g>
<!-- Node1&#45;&gt;Node3 -->
<g id="edge2" class="edge"><title>Node1&#45;&gt;Node3</title>
<path fill="none" stroke="midnightblue" d="M76.5255,-81.8824C94.5162,-73.9077 120.871,-62.3109 144,-52.4681 148.229,-50.6685 152.686,-48.7966 157.094,-46.96"/>
<polygon fill="midnightblue" stroke="midnightblue" points="158.66,-50.0996 166.558,-43.0378 155.98,-43.633 158.66,-50.0996"/>
</g>
<!-- Node4 -->
<g id="node4" class="node"><title>Node4</title>
<g id="a_node4"><a xlink:href="task_8h.html#aca64fad00201055cbaf9fff74f181b85" target="_top" xlink:title="xTaskRemoveFromUnordered\lEventList">
<polygon fill="white" stroke="black" points="274.5,-100.468 274.5,-130.468 425.5,-130.468 425.5,-100.468 274.5,-100.468"/>
<text text-anchor="start" x="282.5" y="-118.468" font-family="Helvetica,sans-Serif" font-size="10.00">xTaskRemoveFromUnordered</text>
<text text-anchor="middle" x="350" y="-107.468" font-family="Helvetica,sans-Serif" font-size="10.00">EventList</text>
</a>
</g>
</g>
<!-- Node1&#45;&gt;Node4 -->
<g id="edge3" class="edge"><title>Node1&#45;&gt;Node4</title>
<path fill="none" stroke="midnightblue" d="M107.561,-95.7588C150.981,-99.3033 213.465,-104.404 263.988,-108.528"/>
<polygon fill="midnightblue" stroke="midnightblue" points="263.998,-112.041 274.25,-109.366 264.568,-105.064 263.998,-112.041"/>
</g>
<!-- Node6 -->
<g id="node6" class="node"><title>Node6</title>
<g id="a_node6"><a xlink:href="task_8h.html#a003f8ae6d649225abd030cc76e1c7d0e" target="_top" xlink:title="xTaskResumeAll">
<polygon fill="white" stroke="black" points="145,-61.9681 145,-80.9681 237,-80.9681 237,-61.9681 145,-61.9681"/>
<text text-anchor="middle" x="191" y="-68.9681" font-family="Helvetica,sans-Serif" font-size="10.00">xTaskResumeAll</text>
</a>
</g>
</g>
<!-- Node1&#45;&gt;Node6 -->
<g id="edge6" class="edge"><title>Node1&#45;&gt;Node6</title>
<path fill="none" stroke="midnightblue" d="M107.581,-83.6783C116.51,-82.3555 125.806,-80.9783 134.801,-79.6458"/>
<polygon fill="midnightblue" stroke="midnightblue" points="135.413,-83.0934 144.792,-78.1656 134.387,-76.169 135.413,-83.0934"/>
</g>
<!-- Node4&#45;&gt;Node2 -->
<g id="edge4" class="edge"><title>Node4&#45;&gt;Node2</title>
<path fill="none" stroke="midnightblue" d="M425.561,-104.533C442.966,-101.98 460.403,-99.4224 474.121,-97.4103"/>
<polygon fill="midnightblue" stroke="midnightblue" points="474.868,-100.838 484.255,-95.9241 473.853,-93.9124 474.868,-100.838"/>
</g>
<!-- Node5 -->
<g id="node5" class="node"><title>Node5</title>
<g id="a_node5"><a xlink:href="list_8h.html#a2eb1558482076fff8cafc63419c2d34a" target="_top" xlink:title="uxListRemove">
<polygon fill="white" stroke="black" points="462,-23.9681 462,-42.9681 542,-42.9681 542,-23.9681 462,-23.9681"/>
<text text-anchor="middle" x="502" y="-30.9681" font-family="Helvetica,sans-Serif" font-size="10.00">uxListRemove</text>
</a>
</g>
</g>
<!-- Node4&#45;&gt;Node5 -->
<g id="edge5" class="edge"><title>Node4&#45;&gt;Node5</title>
<path fill="none" stroke="midnightblue" d="M378.512,-100.428C405.9,-85.456 447.641,-62.6379 474.623,-47.8874"/>
<polygon fill="midnightblue" stroke="midnightblue" points="476.409,-50.9003 483.504,-43.0325 473.051,-44.7582 476.409,-50.9003"/>
</g>
<!-- Node6&#45;&gt;Node2 -->
<g id="edge7" class="edge"><title>Node6&#45;&gt;Node2</title>
<path fill="none" stroke="midnightblue" d="M237.262,-74.6906C302.523,-79.337 421.022,-87.7739 474.067,-91.5505"/>
<polygon fill="midnightblue" stroke="midnightblue" points="474.126,-95.0635 484.35,-92.2826 474.623,-88.0812 474.126,-95.0635"/>
</g>
<!-- Node6&#45;&gt;Node5 -->
<g id="edge8" class="edge"><title>Node6&#45;&gt;Node5</title>
<path fill="none" stroke="midnightblue" d="M220.701,-61.8038C226.663,-59.2045 232.73,-56.0893 238,-52.4681 257.174,-39.2925 252.629,-23.6606 274,-14.4681 337.63,12.9013 420.449,-6.0739 466.416,-20.7897"/>
<polygon fill="midnightblue" stroke="midnightblue" points="465.323,-24.1147 475.917,-23.9402 467.526,-17.4705 465.323,-24.1147"/>
</g>
<!-- Node7 -->
<g id="node7" class="node"><title>Node7</title>
<g id="a_node7"><a xlink:href="tasks_8c.html#a54f31e9aef0eb7b87e48c7d68ecc84c1" target="_top" xlink:title="xTaskIncrementTick">
<polygon fill="white" stroke="black" points="297,-23.9681 297,-42.9681 403,-42.9681 403,-23.9681 297,-23.9681"/>
<text text-anchor="middle" x="350" y="-30.9681" font-family="Helvetica,sans-Serif" font-size="10.00">xTaskIncrementTick</text>
</a>
</g>
</g>
<!-- Node6&#45;&gt;Node7 -->
<g id="edge9" class="edge"><title>Node6&#45;&gt;Node7</title>
<path fill="none" stroke="midnightblue" d="M231.618,-61.8791C252.336,-56.8646 277.888,-50.68 299.856,-45.3628"/>
<polygon fill="midnightblue" stroke="midnightblue" points="300.771,-48.7425 309.667,-42.9881 299.124,-41.9389 300.771,-48.7425"/>
</g>
<!-- Node7&#45;&gt;Node2 -->
<g id="edge10" class="edge"><title>Node7&#45;&gt;Node2</title>
<path fill="none" stroke="midnightblue" d="M384.204,-43.0143C397.362,-47.0762 412.535,-52.1116 426,-57.4681 442.683,-64.1047 460.849,-72.7848 475.124,-79.9588"/>
<polygon fill="midnightblue" stroke="midnightblue" points="473.819,-83.2221 484.318,-84.6412 476.996,-76.9844 473.819,-83.2221"/>
</g>
<!-- Node7&#45;&gt;Node5 -->
<g id="edge11" class="edge"><title>Node7&#45;&gt;Node5</title>
<path fill="none" stroke="midnightblue" d="M403.042,-33.4681C418.717,-33.4681 435.873,-33.4681 451.386,-33.4681"/>
<polygon fill="midnightblue" stroke="midnightblue" points="451.825,-36.9682 461.825,-33.4681 451.825,-29.9682 451.825,-36.9682"/>
</g>
</g>
</svg>
