<?xml version="1.0" encoding="UTF-8" standalone="no"?>
<!DOCTYPE svg PUBLIC "-//W3C//DTD SVG 1.1//EN"
 "http://www.w3.org/Graphics/SVG/1.1/DTD/svg11.dtd">
<!-- Generated by graphviz version 2.30.1 (20130221.2233)
 -->
<!-- Title: vEventGroupClearBitsCallback Pages: 1 -->
<svg width="314pt" height="66pt"
 viewBox="0.00 0.00 314.00 66.00" xmlns="http://www.w3.org/2000/svg" xmlns:xlink="http://www.w3.org/1999/xlink">
<g id="graph0" class="graph" transform="scale(1 1) rotate(0) translate(4 62)">
<title>vEventGroupClearBitsCallback</title>
<polygon fill="white" stroke="white" points="-4,5 -4,-62 311,-62 311,5 -4,5"/>
<!-- Node1 -->
<g id="node1" class="node"><title>Node1</title>
<polygon fill="#bfbfbf" stroke="black" points="0,-19.5 0,-38.5 154,-38.5 154,-19.5 0,-19.5"/>
<text text-anchor="middle" x="77" y="-26.5" font-family="Helvetica,sans-Serif" font-size="10.00">vEventGroupClearBitsCallback</text>
</g>
<!-- Node2 -->
<g id="node2" class="node"><title>Node2</title>
<g id="a_node2"><a xlink:href="_paradigm_2_tern___e_e_2small_2portmacro_8h.html#a14d32f8130d3c0b212cfc751730b5b49" target="_top" xlink:title="void">
<polygon fill="white" stroke="black" points="230.5,-38.5 230.5,-57.5 265.5,-57.5 265.5,-38.5 230.5,-38.5"/>
<text text-anchor="middle" x="248" y="-45.5" font-family="Helvetica,sans-Serif" font-size="10.00">void</text>
</a>
</g>
</g>
<!-- Node1&#45;&gt;Node2 -->
<g id="edge1" class="edge"><title>Node1&#45;&gt;Node2</title>
<path fill="none" stroke="midnightblue" d="M154.095,-37.5551C177.859,-40.2268 202.519,-42.9991 220.455,-45.0157"/>
<polygon fill="midnightblue" stroke="midnightblue" points="220.105,-48.4983 230.434,-46.1375 220.887,-41.5421 220.105,-48.4983"/>
</g>
<!-- Node3 -->
<g id="node3" class="node"><title>Node3</title>
<g id="a_node3"><a xlink:href="event__groups_8c.html#a71dd2680fdfbdde7d6b10db203e266ba" target="_top" xlink:title="xEventGroupClearBits">
<polygon fill="white" stroke="black" points="190.5,-0.5 190.5,-19.5 305.5,-19.5 305.5,-0.5 190.5,-0.5"/>
<text text-anchor="middle" x="248" y="-7.5" font-family="Helvetica,sans-Serif" font-size="10.00">xEventGroupClearBits</text>
</a>
</g>
</g>
<!-- Node1&#45;&gt;Node3 -->
<g id="edge2" class="edge"><title>Node1&#45;&gt;Node3</title>
<path fill="none" stroke="midnightblue" d="M154.095,-20.4449C162.848,-19.4608 171.723,-18.4631 180.338,-17.4946"/>
<polygon fill="midnightblue" stroke="midnightblue" points="180.763,-20.9689 190.31,-16.3735 179.981,-14.0127 180.763,-20.9689"/>
</g>
</g>
</svg>
