<?xml version="1.0" encoding="UTF-8" standalone="no"?>
<!DOCTYPE svg PUBLIC "-//W3C//DTD SVG 1.1//EN"
 "http://www.w3.org/Graphics/SVG/1.1/DTD/svg11.dtd">
<!-- Generated by graphviz version 2.30.1 (20130221.2233)
 -->
<!-- Title: EventGroup Pages: 1 -->
<svg width="262pt" height="332pt"
 viewBox="0.00 0.00 262.00 332.00" xmlns="http://www.w3.org/2000/svg" xmlns:xlink="http://www.w3.org/1999/xlink">
<g id="graph0" class="graph" transform="scale(1 1) rotate(0) translate(4 328)">
<title>EventGroup</title>
<polygon fill="white" stroke="white" points="-4,5 -4,-328 259,-328 259,5 -4,5"/>
<!-- Node3 -->
<g id="node1" class="node"><title>Node3</title>
<g id="a_node1"><a xlink:href="group__x_event_group_wait_bits.html" target="_top" xlink:title="xEventGroupWaitBits">
<polygon fill="white" stroke="black" points="124,-228.5 124,-247.5 236,-247.5 236,-228.5 124,-228.5"/>
<text text-anchor="middle" x="180" y="-235.5" font-family="Helvetica,sans-Serif" font-size="10.00">xEventGroupWaitBits</text>
</a>
</g>
</g>
<!-- Node5 -->
<g id="node2" class="node"><title>Node5</title>
<g id="a_node2"><a xlink:href="group__x_event_group_set_bits_from_i_s_r.html" target="_top" xlink:title="xEventGroupSetBitsFromISR">
<polygon fill="white" stroke="black" points="106.5,-152.5 106.5,-171.5 253.5,-171.5 253.5,-152.5 106.5,-152.5"/>
<text text-anchor="middle" x="180" y="-159.5" font-family="Helvetica,sans-Serif" font-size="10.00">xEventGroupSetBitsFromISR</text>
</a>
</g>
</g>
<!-- Node6 -->
<g id="node3" class="node"><title>Node6</title>
<g id="a_node3"><a xlink:href="group__x_event_group_set_bits.html" target="_top" xlink:title="xEventGroupSetBits">
<polygon fill="white" stroke="black" points="126.5,-114.5 126.5,-133.5 233.5,-133.5 233.5,-114.5 126.5,-114.5"/>
<text text-anchor="middle" x="180" y="-121.5" font-family="Helvetica,sans-Serif" font-size="10.00">xEventGroupSetBits</text>
</a>
</g>
</g>
<!-- Node1 -->
<g id="node4" class="node"><title>Node1</title>
<g id="a_node4"><a xlink:href="group___event_group_handle__t.html" target="_top" xlink:title="EventGroupHandle_t">
<polygon fill="white" stroke="black" points="125,-304.5 125,-323.5 235,-323.5 235,-304.5 125,-304.5"/>
<text text-anchor="middle" x="180" y="-311.5" font-family="Helvetica,sans-Serif" font-size="10.00">EventGroupHandle_t</text>
</a>
</g>
</g>
<!-- Node7 -->
<g id="node5" class="node"><title>Node7</title>
<g id="a_node5"><a xlink:href="group__x_event_group_sync.html" target="_top" xlink:title="xEventGroupSync">
<polygon fill="white" stroke="black" points="131.5,-76.5 131.5,-95.5 228.5,-95.5 228.5,-76.5 131.5,-76.5"/>
<text text-anchor="middle" x="180" y="-83.5" font-family="Helvetica,sans-Serif" font-size="10.00">xEventGroupSync</text>
</a>
</g>
</g>
<!-- Node4 -->
<g id="node6" class="node"><title>Node4</title>
<g id="a_node6"><a xlink:href="group__x_event_group_clear_bits.html" target="_top" xlink:title="xEventGroupClearBits">
<polygon fill="white" stroke="black" points="122.5,-190.5 122.5,-209.5 237.5,-209.5 237.5,-190.5 122.5,-190.5"/>
<text text-anchor="middle" x="180" y="-197.5" font-family="Helvetica,sans-Serif" font-size="10.00">xEventGroupClearBits</text>
</a>
</g>
</g>
<!-- Node2 -->
<g id="node7" class="node"><title>Node2</title>
<g id="a_node7"><a xlink:href="group__x_event_group_create.html" target="_top" xlink:title="xEventGroupCreate">
<polygon fill="white" stroke="black" points="127.5,-266.5 127.5,-285.5 232.5,-285.5 232.5,-266.5 127.5,-266.5"/>
<text text-anchor="middle" x="180" y="-273.5" font-family="Helvetica,sans-Serif" font-size="10.00">xEventGroupCreate</text>
</a>
</g>
</g>
<!-- Node8 -->
<g id="node8" class="node"><title>Node8</title>
<g id="a_node8"><a xlink:href="group__x_event_group_get_bits.html" target="_top" xlink:title="xEventGroupGetBits">
<polygon fill="white" stroke="black" points="126,-38.5 126,-57.5 234,-57.5 234,-38.5 126,-38.5"/>
<text text-anchor="middle" x="180" y="-45.5" font-family="Helvetica,sans-Serif" font-size="10.00">xEventGroupGetBits</text>
</a>
</g>
</g>
<!-- Node0 -->
<g id="node9" class="node"><title>Node0</title>
<polygon fill="#bfbfbf" stroke="black" points="0,-152.5 0,-171.5 70,-171.5 70,-152.5 0,-152.5"/>
<text text-anchor="middle" x="35" y="-159.5" font-family="Helvetica,sans-Serif" font-size="10.00">EventGroup</text>
</g>
<!-- Node0&#45;&gt;Node1 -->
<g id="edge1" class="edge"><title>Node0&#45;&gt;Node1</title>
<path fill="none" stroke="black" d="M40.8686,-181.625C49.1563,-210.852 68.8361,-265.528 106,-295 111.541,-299.394 117.992,-302.78 124.724,-305.387"/>
<polygon fill="black" stroke="black" points="44.1997,-180.533 38.2374,-171.775 37.4368,-182.34 44.1997,-180.533"/>
</g>
<!-- Node0&#45;&gt;Node2 -->
<g id="edge2" class="edge"><title>Node0&#45;&gt;Node2</title>
<path fill="none" stroke="black" d="M44.957,-180.987C56.1743,-202.679 77.443,-237.664 106,-257 112.398,-261.332 119.724,-264.677 127.211,-267.258"/>
<polygon fill="black" stroke="black" points="47.976,-179.197 40.3947,-171.796 41.7059,-182.309 47.976,-179.197"/>
</g>
<!-- Node0&#45;&gt;Node3 -->
<g id="edge3" class="edge"><title>Node0&#45;&gt;Node3</title>
<path fill="none" stroke="black" d="M52.4291,-178.865C65.7598,-191.631 85.6244,-208.675 106,-219 113.593,-222.848 122.037,-225.966 130.409,-228.478"/>
<polygon fill="black" stroke="black" points="54.6055,-176.096 45.027,-171.568 49.6911,-181.081 54.6055,-176.096"/>
</g>
<!-- Node0&#45;&gt;Node4 -->
<g id="edge4" class="edge"><title>Node0&#45;&gt;Node4</title>
<path fill="none" stroke="black" d="M80.0436,-174.03C88.647,-176.358 97.6028,-178.768 106,-181 117.644,-184.095 130.347,-187.42 141.843,-190.409"/>
<polygon fill="black" stroke="black" points="80.7281,-170.589 70.1605,-171.349 78.8953,-177.345 80.7281,-170.589"/>
</g>
<!-- Node0&#45;&gt;Node5 -->
<g id="edge5" class="edge"><title>Node0&#45;&gt;Node5</title>
<path fill="none" stroke="black" d="M80.3495,-162C88.592,-162 97.3998,-162 106.233,-162"/>
<polygon fill="black" stroke="black" points="80.2521,-158.5 70.2521,-162 80.252,-165.5 80.2521,-158.5"/>
</g>
<!-- Node0&#45;&gt;Node6 -->
<g id="edge6" class="edge"><title>Node0&#45;&gt;Node6</title>
<path fill="none" stroke="black" d="M80.0436,-149.97C88.647,-147.642 97.6028,-145.232 106,-143 117.644,-139.905 130.347,-136.58 141.843,-133.591"/>
<polygon fill="black" stroke="black" points="78.8953,-146.655 70.1605,-152.651 80.7281,-153.411 78.8953,-146.655"/>
</g>
<!-- Node0&#45;&gt;Node7 -->
<g id="edge7" class="edge"><title>Node0&#45;&gt;Node7</title>
<path fill="none" stroke="black" d="M52.4291,-145.135C65.7598,-132.369 85.6244,-115.325 106,-105 113.827,-101.034 122.557,-97.8426 131.182,-95.2919"/>
<polygon fill="black" stroke="black" points="49.6911,-142.919 45.027,-152.432 54.6055,-147.904 49.6911,-142.919"/>
</g>
<!-- Node0&#45;&gt;Node8 -->
<g id="edge8" class="edge"><title>Node0&#45;&gt;Node8</title>
<path fill="none" stroke="black" d="M44.957,-143.013C56.1743,-121.321 77.443,-86.3362 106,-67 111.964,-62.9616 118.735,-59.7815 125.691,-57.2772"/>
<polygon fill="black" stroke="black" points="41.7059,-141.691 40.3947,-152.204 47.976,-144.803 41.7059,-141.691"/>
</g>
<!-- Node9 -->
<g id="node10" class="node"><title>Node9</title>
<g id="a_node10"><a xlink:href="group__x_event_group_get_bits_from_i_s_r.html" target="_top" xlink:title="xEventGroupGetBitsFromISR">
<polygon fill="white" stroke="black" points="106,-0.5 106,-19.5 254,-19.5 254,-0.5 106,-0.5"/>
<text text-anchor="middle" x="180" y="-7.5" font-family="Helvetica,sans-Serif" font-size="10.00">xEventGroupGetBitsFromISR</text>
</a>
</g>
</g>
<!-- Node0&#45;&gt;Node9 -->
<g id="edge9" class="edge"><title>Node0&#45;&gt;Node9</title>
<path fill="none" stroke="black" d="M40.8686,-142.375C49.1563,-113.148 68.8361,-58.4718 106,-29 110.925,-25.0942 116.57,-21.985 122.491,-19.5112"/>
<polygon fill="black" stroke="black" points="37.4368,-141.66 38.2374,-152.225 44.1997,-143.467 37.4368,-141.66"/>
</g>
</g>
</svg>
