<?xml version="1.0" encoding="UTF-8" standalone="no"?>
<!DOCTYPE svg PUBLIC "-//W3C//DTD SVG 1.1//EN"
 "http://www.w3.org/Graphics/SVG/1.1/DTD/svg11.dtd">
<!-- Generated by graphviz version 2.30.1 (20130221.2233)
 -->
<!-- Title: pvPortMalloc Pages: 1 -->
<svg width="510pt" height="199pt"
 viewBox="0.00 0.00 510.00 199.00" xmlns="http://www.w3.org/2000/svg" xmlns:xlink="http://www.w3.org/1999/xlink">
<g id="graph0" class="graph" transform="scale(1 1) rotate(0) translate(4 195)">
<title>pvPortMalloc</title>
<polygon fill="white" stroke="white" points="-4,5 -4,-195 507,-195 507,5 -4,5"/>
<!-- Node1 -->
<g id="node1" class="node"><title>Node1</title>
<polygon fill="#bfbfbf" stroke="black" points="0,-95.5 0,-114.5 74,-114.5 74,-95.5 0,-95.5"/>
<text text-anchor="middle" x="37" y="-102.5" font-family="Helvetica,sans-Serif" font-size="10.00">pvPortMalloc</text>
</g>
<!-- Node2 -->
<g id="node2" class="node"><title>Node2</title>
<g id="a_node2"><a xlink:href="heap__4_8c.html#a3e55181f788f17d9a3e7d226a5206e4f" target="_top" xlink:title="prvHeapInit">
<polygon fill="white" stroke="black" points="143,-171.5 143,-190.5 211,-190.5 211,-171.5 143,-171.5"/>
<text text-anchor="middle" x="177" y="-178.5" font-family="Helvetica,sans-Serif" font-size="10.00">prvHeapInit</text>
</a>
</g>
</g>
<!-- Node1&#45;&gt;Node2 -->
<g id="edge1" class="edge"><title>Node1&#45;&gt;Node2</title>
<path fill="none" stroke="midnightblue" d="M47.8358,-114.893C60.9336,-127.54 85.33,-149.314 110,-162 117.158,-165.681 125.129,-168.741 132.988,-171.253"/>
<polygon fill="midnightblue" stroke="midnightblue" points="132.231,-174.679 142.812,-174.146 134.208,-167.964 132.231,-174.679"/>
</g>
<!-- Node3 -->
<g id="node3" class="node"><title>Node3</title>
<g id="a_node3"><a xlink:href="heap__4_8c.html#a1a70fdf86d8a603f45e9b93c14e0d24a" target="_top" xlink:title="prvInsertBlockIntoFreeList">
<polygon fill="white" stroke="black" points="110.5,-133.5 110.5,-152.5 243.5,-152.5 243.5,-133.5 110.5,-133.5"/>
<text text-anchor="middle" x="177" y="-140.5" font-family="Helvetica,sans-Serif" font-size="10.00">prvInsertBlockIntoFreeList</text>
</a>
</g>
</g>
<!-- Node1&#45;&gt;Node3 -->
<g id="edge2" class="edge"><title>Node1&#45;&gt;Node3</title>
<path fill="none" stroke="midnightblue" d="M72.8232,-114.589C90.6377,-119.494 112.518,-125.52 131.539,-130.757"/>
<polygon fill="midnightblue" stroke="midnightblue" points="130.618,-134.134 141.188,-133.414 132.476,-127.385 130.618,-134.134"/>
</g>
<!-- Node4 -->
<g id="node4" class="node"><title>Node4</title>
<g id="a_node4"><a xlink:href="_paradigm_2_tern___e_e_2small_2portmacro_8h.html#a14d32f8130d3c0b212cfc751730b5b49" target="_top" xlink:title="void">
<polygon fill="white" stroke="black" points="444.5,-57.5 444.5,-76.5 479.5,-76.5 479.5,-57.5 444.5,-57.5"/>
<text text-anchor="middle" x="462" y="-64.5" font-family="Helvetica,sans-Serif" font-size="10.00">void</text>
</a>
</g>
</g>
<!-- Node1&#45;&gt;Node4 -->
<g id="edge3" class="edge"><title>Node1&#45;&gt;Node4</title>
<path fill="none" stroke="midnightblue" d="M74.0647,-101.76C157.11,-94.2998 360.339,-76.0428 433.878,-69.4365"/>
<polygon fill="midnightblue" stroke="midnightblue" points="434.498,-72.895 444.145,-68.5142 433.872,-65.9231 434.498,-72.895"/>
</g>
<!-- Node5 -->
<g id="node5" class="node"><title>Node5</title>
<g id="a_node5"><a xlink:href="task_8h.html#a366b302eba79d10b5ee2a3756f0fcc43" target="_top" xlink:title="vTaskSuspendAll">
<polygon fill="white" stroke="black" points="130,-57.5 130,-76.5 224,-76.5 224,-57.5 130,-57.5"/>
<text text-anchor="middle" x="177" y="-64.5" font-family="Helvetica,sans-Serif" font-size="10.00">vTaskSuspendAll</text>
</a>
</g>
</g>
<!-- Node1&#45;&gt;Node5 -->
<g id="edge4" class="edge"><title>Node1&#45;&gt;Node5</title>
<path fill="none" stroke="midnightblue" d="M72.8232,-95.411C90.6377,-90.5056 112.518,-84.4804 131.539,-79.2429"/>
<polygon fill="midnightblue" stroke="midnightblue" points="132.476,-82.6152 141.188,-76.5859 130.618,-75.8664 132.476,-82.6152"/>
</g>
<!-- Node6 -->
<g id="node6" class="node"><title>Node6</title>
<g id="a_node6"><a xlink:href="task_8h.html#a003f8ae6d649225abd030cc76e1c7d0e" target="_top" xlink:title="xTaskResumeAll">
<polygon fill="white" stroke="black" points="131,-19.5 131,-38.5 223,-38.5 223,-19.5 131,-19.5"/>
<text text-anchor="middle" x="177" y="-26.5" font-family="Helvetica,sans-Serif" font-size="10.00">xTaskResumeAll</text>
</a>
</g>
</g>
<!-- Node1&#45;&gt;Node6 -->
<g id="edge5" class="edge"><title>Node1&#45;&gt;Node6</title>
<path fill="none" stroke="midnightblue" d="M47.8358,-95.1067C60.9336,-82.4596 85.33,-60.6861 110,-48 114.344,-45.766 118.988,-43.7605 123.725,-41.9675"/>
<polygon fill="midnightblue" stroke="midnightblue" points="125.206,-45.1586 133.512,-38.5804 122.917,-38.5436 125.206,-45.1586"/>
</g>
<!-- Node7 -->
<g id="node7" class="node"><title>Node7</title>
<g id="a_node7"><a xlink:href="list_8h.html#a2eb1558482076fff8cafc63419c2d34a" target="_top" xlink:title="uxListRemove">
<polygon fill="white" stroke="black" points="422,-0.5 422,-19.5 502,-19.5 502,-0.5 422,-0.5"/>
<text text-anchor="middle" x="462" y="-7.5" font-family="Helvetica,sans-Serif" font-size="10.00">uxListRemove</text>
</a>
</g>
</g>
<!-- Node6&#45;&gt;Node7 -->
<g id="edge6" class="edge"><title>Node6&#45;&gt;Node7</title>
<path fill="none" stroke="midnightblue" d="M219.444,-19.4889C237.876,-15.7237 259.911,-11.8551 280,-10 324.285,-5.91057 374.926,-6.34281 411.359,-7.54703"/>
<polygon fill="midnightblue" stroke="midnightblue" points="411.593,-11.0577 421.713,-7.9226 411.846,-4.06232 411.593,-11.0577"/>
</g>
<!-- Node6&#45;&gt;Node4 -->
<g id="edge7" class="edge"><title>Node6&#45;&gt;Node4</title>
<path fill="none" stroke="midnightblue" d="M223.063,-38.1927C240.761,-41.5935 261.283,-45.2788 280,-48 334.689,-55.9511 399.139,-61.9066 434.483,-64.8818"/>
<polygon fill="midnightblue" stroke="midnightblue" points="434.22,-68.3719 444.474,-65.7084 434.797,-61.3957 434.22,-68.3719"/>
</g>
<!-- Node8 -->
<g id="node8" class="node"><title>Node8</title>
<g id="a_node8"><a xlink:href="tasks_8c.html#a54f31e9aef0eb7b87e48c7d68ecc84c1" target="_top" xlink:title="xTaskIncrementTick">
<polygon fill="white" stroke="black" points="280,-19.5 280,-38.5 386,-38.5 386,-19.5 280,-19.5"/>
<text text-anchor="middle" x="333" y="-26.5" font-family="Helvetica,sans-Serif" font-size="10.00">xTaskIncrementTick</text>
</a>
</g>
</g>
<!-- Node6&#45;&gt;Node8 -->
<g id="edge8" class="edge"><title>Node6&#45;&gt;Node8</title>
<path fill="none" stroke="midnightblue" d="M223.372,-29C237.928,-29 254.31,-29 269.852,-29"/>
<polygon fill="midnightblue" stroke="midnightblue" points="269.916,-32.5001 279.916,-29 269.916,-25.5001 269.916,-32.5001"/>
</g>
<!-- Node8&#45;&gt;Node4 -->
<g id="edge9" class="edge"><title>Node8&#45;&gt;Node4</title>
<path fill="none" stroke="midnightblue" d="M366.047,-38.589C387.198,-44.9174 414.576,-53.1093 434.496,-59.0695"/>
<polygon fill="midnightblue" stroke="midnightblue" points="433.576,-62.4477 444.16,-61.9613 435.583,-55.7415 433.576,-62.4477"/>
</g>
<!-- Node8&#45;&gt;Node7 -->
<g id="edge10" class="edge"><title>Node8&#45;&gt;Node7</title>
<path fill="none" stroke="midnightblue" d="M386.022,-21.2172C394.496,-19.9494 403.252,-18.6395 411.659,-17.3817"/>
<polygon fill="midnightblue" stroke="midnightblue" points="412.326,-20.8209 421.698,-15.8798 411.291,-13.898 412.326,-20.8209"/>
</g>
</g>
</svg>
