<?xml version="1.0" encoding="UTF-8" standalone="no"?>
<!DOCTYPE svg PUBLIC "-//W3C//DTD SVG 1.1//EN"
 "http://www.w3.org/Graphics/SVG/1.1/DTD/svg11.dtd">
<!-- Generated by graphviz version 2.30.1 (20130221.2233)
 -->
<!-- Title: vPortFree Pages: 1 -->
<svg width="496pt" height="161pt"
 viewBox="0.00 0.00 496.00 161.00" xmlns="http://www.w3.org/2000/svg" xmlns:xlink="http://www.w3.org/1999/xlink">
<g id="graph0" class="graph" transform="scale(1 1) rotate(0) translate(4 157)">
<title>vPortFree</title>
<polygon fill="white" stroke="white" points="-4,5 -4,-157 493,-157 493,5 -4,5"/>
<!-- Node1 -->
<g id="node1" class="node"><title>Node1</title>
<polygon fill="#bfbfbf" stroke="black" points="0,-76.5 0,-95.5 60,-95.5 60,-76.5 0,-76.5"/>
<text text-anchor="middle" x="30" y="-83.5" font-family="Helvetica,sans-Serif" font-size="10.00">vPortFree</text>
</g>
<!-- Node2 -->
<g id="node2" class="node"><title>Node2</title>
<g id="a_node2"><a xlink:href="heap__4_8c.html#a1a70fdf86d8a603f45e9b93c14e0d24a" target="_top" xlink:title="prvInsertBlockIntoFreeList">
<polygon fill="white" stroke="black" points="96.5,-133.5 96.5,-152.5 229.5,-152.5 229.5,-133.5 96.5,-133.5"/>
<text text-anchor="middle" x="163" y="-140.5" font-family="Helvetica,sans-Serif" font-size="10.00">prvInsertBlockIntoFreeList</text>
</a>
</g>
</g>
<!-- Node1&#45;&gt;Node2 -->
<g id="edge1" class="edge"><title>Node1&#45;&gt;Node2</title>
<path fill="none" stroke="midnightblue" d="M48.381,-95.5492C61.3173,-102.477 79.5131,-111.848 96,-119 104.871,-122.848 114.581,-126.616 123.758,-129.983"/>
<polygon fill="midnightblue" stroke="midnightblue" points="122.847,-133.375 133.441,-133.465 125.215,-126.787 122.847,-133.375"/>
</g>
<!-- Node3 -->
<g id="node3" class="node"><title>Node3</title>
<g id="a_node3"><a xlink:href="_paradigm_2_tern___e_e_2small_2portmacro_8h.html#a14d32f8130d3c0b212cfc751730b5b49" target="_top" xlink:title="void">
<polygon fill="white" stroke="black" points="430.5,-57.5 430.5,-76.5 465.5,-76.5 465.5,-57.5 430.5,-57.5"/>
<text text-anchor="middle" x="448" y="-64.5" font-family="Helvetica,sans-Serif" font-size="10.00">void</text>
</a>
</g>
</g>
<!-- Node1&#45;&gt;Node3 -->
<g id="edge2" class="edge"><title>Node1&#45;&gt;Node3</title>
<path fill="none" stroke="midnightblue" d="M60.019,-86.7927C98.7838,-87.6702 169.598,-88.6393 230,-86 298.845,-82.9918 379.624,-74.6399 420.47,-70.0755"/>
<polygon fill="midnightblue" stroke="midnightblue" points="420.883,-73.5511 430.426,-68.9491 420.096,-66.5955 420.883,-73.5511"/>
</g>
<!-- Node4 -->
<g id="node4" class="node"><title>Node4</title>
<g id="a_node4"><a xlink:href="task_8h.html#a366b302eba79d10b5ee2a3756f0fcc43" target="_top" xlink:title="vTaskSuspendAll">
<polygon fill="white" stroke="black" points="116,-57.5 116,-76.5 210,-76.5 210,-57.5 116,-57.5"/>
<text text-anchor="middle" x="163" y="-64.5" font-family="Helvetica,sans-Serif" font-size="10.00">vTaskSuspendAll</text>
</a>
</g>
</g>
<!-- Node1&#45;&gt;Node4 -->
<g id="edge3" class="edge"><title>Node1&#45;&gt;Node4</title>
<path fill="none" stroke="midnightblue" d="M60.0731,-81.7833C73.4911,-79.8372 89.8994,-77.4573 105.597,-75.1806"/>
<polygon fill="midnightblue" stroke="midnightblue" points="106.377,-78.6042 115.771,-73.705 105.372,-71.6766 106.377,-78.6042"/>
</g>
<!-- Node5 -->
<g id="node5" class="node"><title>Node5</title>
<g id="a_node5"><a xlink:href="task_8h.html#a003f8ae6d649225abd030cc76e1c7d0e" target="_top" xlink:title="xTaskResumeAll">
<polygon fill="white" stroke="black" points="117,-19.5 117,-38.5 209,-38.5 209,-19.5 117,-19.5"/>
<text text-anchor="middle" x="163" y="-26.5" font-family="Helvetica,sans-Serif" font-size="10.00">xTaskResumeAll</text>
</a>
</g>
</g>
<!-- Node1&#45;&gt;Node5 -->
<g id="edge4" class="edge"><title>Node1&#45;&gt;Node5</title>
<path fill="none" stroke="midnightblue" d="M44.9209,-76.484C57.7322,-68.067 77.4955,-55.9255 96,-48 101.407,-45.6843 107.18,-43.5556 112.979,-41.6277"/>
<polygon fill="midnightblue" stroke="midnightblue" points="114.207,-44.9104 122.7,-38.5755 112.11,-38.2319 114.207,-44.9104"/>
</g>
<!-- Node6 -->
<g id="node6" class="node"><title>Node6</title>
<g id="a_node6"><a xlink:href="list_8h.html#a2eb1558482076fff8cafc63419c2d34a" target="_top" xlink:title="uxListRemove">
<polygon fill="white" stroke="black" points="408,-0.5 408,-19.5 488,-19.5 488,-0.5 408,-0.5"/>
<text text-anchor="middle" x="448" y="-7.5" font-family="Helvetica,sans-Serif" font-size="10.00">uxListRemove</text>
</a>
</g>
</g>
<!-- Node5&#45;&gt;Node6 -->
<g id="edge5" class="edge"><title>Node5&#45;&gt;Node6</title>
<path fill="none" stroke="midnightblue" d="M205.444,-19.4889C223.876,-15.7237 245.911,-11.8551 266,-10 310.285,-5.91057 360.926,-6.34281 397.359,-7.54703"/>
<polygon fill="midnightblue" stroke="midnightblue" points="397.593,-11.0577 407.713,-7.9226 397.846,-4.06232 397.593,-11.0577"/>
</g>
<!-- Node5&#45;&gt;Node3 -->
<g id="edge6" class="edge"><title>Node5&#45;&gt;Node3</title>
<path fill="none" stroke="midnightblue" d="M209.063,-38.1927C226.761,-41.5935 247.283,-45.2788 266,-48 320.689,-55.9511 385.139,-61.9066 420.483,-64.8818"/>
<polygon fill="midnightblue" stroke="midnightblue" points="420.22,-68.3719 430.474,-65.7084 420.797,-61.3957 420.22,-68.3719"/>
</g>
<!-- Node7 -->
<g id="node7" class="node"><title>Node7</title>
<g id="a_node7"><a xlink:href="tasks_8c.html#a54f31e9aef0eb7b87e48c7d68ecc84c1" target="_top" xlink:title="xTaskIncrementTick">
<polygon fill="white" stroke="black" points="266,-19.5 266,-38.5 372,-38.5 372,-19.5 266,-19.5"/>
<text text-anchor="middle" x="319" y="-26.5" font-family="Helvetica,sans-Serif" font-size="10.00">xTaskIncrementTick</text>
</a>
</g>
</g>
<!-- Node5&#45;&gt;Node7 -->
<g id="edge7" class="edge"><title>Node5&#45;&gt;Node7</title>
<path fill="none" stroke="midnightblue" d="M209.372,-29C223.928,-29 240.31,-29 255.852,-29"/>
<polygon fill="midnightblue" stroke="midnightblue" points="255.916,-32.5001 265.916,-29 255.916,-25.5001 255.916,-32.5001"/>
</g>
<!-- Node7&#45;&gt;Node3 -->
<g id="edge8" class="edge"><title>Node7&#45;&gt;Node3</title>
<path fill="none" stroke="midnightblue" d="M352.047,-38.589C373.198,-44.9174 400.576,-53.1093 420.496,-59.0695"/>
<polygon fill="midnightblue" stroke="midnightblue" points="419.576,-62.4477 430.16,-61.9613 421.583,-55.7415 419.576,-62.4477"/>
</g>
<!-- Node7&#45;&gt;Node6 -->
<g id="edge9" class="edge"><title>Node7&#45;&gt;Node6</title>
<path fill="none" stroke="midnightblue" d="M372.022,-21.2172C380.496,-19.9494 389.252,-18.6395 397.659,-17.3817"/>
<polygon fill="midnightblue" stroke="midnightblue" points="398.326,-20.8209 407.698,-15.8798 397.291,-13.898 398.326,-20.8209"/>
</g>
</g>
</svg>
