<?xml version="1.0" encoding="UTF-8" standalone="no"?>
<!DOCTYPE svg PUBLIC "-//W3C//DTD SVG 1.1//EN"
 "http://www.w3.org/Graphics/SVG/1.1/DTD/svg11.dtd">
<!-- Generated by graphviz version 2.30.1 (20130221.2233)
 -->
<!-- Title: prvInsertBlockIntoFreeList Pages: 1 -->
<svg width="252pt" height="66pt"
 viewBox="0.00 0.00 252.00 66.00" xmlns="http://www.w3.org/2000/svg" xmlns:xlink="http://www.w3.org/1999/xlink">
<g id="graph0" class="graph" transform="scale(1 1) rotate(0) translate(4 62)">
<title>prvInsertBlockIntoFreeList</title>
<polygon fill="white" stroke="white" points="-4,5 -4,-62 249,-62 249,5 -4,5"/>
<!-- Node1 -->
<g id="node1" class="node"><title>Node1</title>
<polygon fill="#bfbfbf" stroke="black" points="0.5,-19.5 0.5,-38.5 133.5,-38.5 133.5,-19.5 0.5,-19.5"/>
<text text-anchor="middle" x="67" y="-26.5" font-family="Helvetica,sans-Serif" font-size="10.00">prvInsertBlockIntoFreeList</text>
</g>
<!-- Node2 -->
<g id="node2" class="node"><title>Node2</title>
<g id="a_node2"><a xlink:href="heap__4_8c.html#a0379669d07d76cc81e3028123113b271" target="_top" xlink:title="pvPortMalloc">
<polygon fill="white" stroke="black" points="170,-38.5 170,-57.5 244,-57.5 244,-38.5 170,-38.5"/>
<text text-anchor="middle" x="207" y="-45.5" font-family="Helvetica,sans-Serif" font-size="10.00">pvPortMalloc</text>
</a>
</g>
</g>
<!-- Node1&#45;&gt;Node2 -->
<g id="edge1" class="edge"><title>Node1&#45;&gt;Node2</title>
<path fill="none" stroke="midnightblue" d="M143.902,-39.4502C152.848,-40.682 161.639,-41.8923 169.663,-42.9971"/>
<polygon fill="midnightblue" stroke="midnightblue" points="144.151,-35.9516 133.767,-38.0548 143.196,-42.8862 144.151,-35.9516"/>
</g>
<!-- Node3 -->
<g id="node3" class="node"><title>Node3</title>
<g id="a_node3"><a xlink:href="heap__4_8c.html#a1e7cea2fd1bc894ea3b5f5e8179d259b" target="_top" xlink:title="vPortFree">
<polygon fill="white" stroke="black" points="177,-0.5 177,-19.5 237,-19.5 237,-0.5 177,-0.5"/>
<text text-anchor="middle" x="207" y="-7.5" font-family="Helvetica,sans-Serif" font-size="10.00">vPortFree</text>
</a>
</g>
</g>
<!-- Node1&#45;&gt;Node3 -->
<g id="edge2" class="edge"><title>Node1&#45;&gt;Node3</title>
<path fill="none" stroke="midnightblue" d="M143.697,-18.5779C155.483,-16.9553 167.005,-15.3689 176.871,-14.0105"/>
<polygon fill="midnightblue" stroke="midnightblue" points="143.196,-15.1138 133.767,-19.9452 144.151,-22.0484 143.196,-15.1138"/>
</g>
</g>
</svg>
