<?xml version="1.0" encoding="UTF-8" standalone="no"?>
<!DOCTYPE svg PUBLIC "-//W3C//DTD SVG 1.1//EN"
 "http://www.w3.org/Graphics/SVG/1.1/DTD/svg11.dtd">
<!-- Generated by graphviz version 2.30.1 (20130221.2233)
 -->
<!-- Title: pvPortMalloc Pages: 1 -->
<svg width="510pt" height="161pt"
 viewBox="0.00 0.00 510.00 161.00" xmlns="http://www.w3.org/2000/svg" xmlns:xlink="http://www.w3.org/1999/xlink">
<g id="graph0" class="graph" transform="scale(1 1) rotate(0) translate(4 157)">
<title>pvPortMalloc</title>
<polygon fill="white" stroke="white" points="-4,5 -4,-157 507,-157 507,5 -4,5"/>
<!-- Node1 -->
<g id="node1" class="node"><title>Node1</title>
<polygon fill="#bfbfbf" stroke="black" points="0,-76.5 0,-95.5 74,-95.5 74,-76.5 0,-76.5"/>
<text text-anchor="middle" x="37" y="-83.5" font-family="Helvetica,sans-Serif" font-size="10.00">pvPortMalloc</text>
</g>
<!-- Node2 -->
<g id="node2" class="node"><title>Node2</title>
<g id="a_node2"><a xlink:href="heap__5_8c.html#a1a70fdf86d8a603f45e9b93c14e0d24a" target="_top" xlink:title="prvInsertBlockIntoFreeList">
<polygon fill="white" stroke="black" points="110.5,-133.5 110.5,-152.5 243.5,-152.5 243.5,-133.5 110.5,-133.5"/>
<text text-anchor="middle" x="177" y="-140.5" font-family="Helvetica,sans-Serif" font-size="10.00">prvInsertBlockIntoFreeList</text>
</a>
</g>
</g>
<!-- Node1&#45;&gt;Node2 -->
<g id="edge1" class="edge"><title>Node1&#45;&gt;Node2</title>
<path fill="none" stroke="midnightblue" d="M57.6752,-95.5405C72.0423,-102.378 92.0624,-111.642 110,-119 119.209,-122.778 129.257,-126.587 138.672,-130.023"/>
<polygon fill="midnightblue" stroke="midnightblue" points="137.598,-133.356 148.193,-133.452 139.97,-126.77 137.598,-133.356"/>
</g>
<!-- Node3 -->
<g id="node3" class="node"><title>Node3</title>
<g id="a_node3"><a xlink:href="_paradigm_2_tern___e_e_2small_2portmacro_8h.html#a14d32f8130d3c0b212cfc751730b5b49" target="_top" xlink:title="void">
<polygon fill="white" stroke="black" points="444.5,-57.5 444.5,-76.5 479.5,-76.5 479.5,-57.5 444.5,-57.5"/>
<text text-anchor="middle" x="462" y="-64.5" font-family="Helvetica,sans-Serif" font-size="10.00">void</text>
</a>
</g>
</g>
<!-- Node1&#45;&gt;Node3 -->
<g id="edge2" class="edge"><title>Node1&#45;&gt;Node3</title>
<path fill="none" stroke="midnightblue" d="M74.1168,-86.9532C115.264,-87.8176 184.51,-88.5994 244,-86 312.845,-82.9918 393.624,-74.6399 434.47,-70.0755"/>
<polygon fill="midnightblue" stroke="midnightblue" points="434.883,-73.5511 444.426,-68.9491 434.096,-66.5955 434.883,-73.5511"/>
</g>
<!-- Node4 -->
<g id="node4" class="node"><title>Node4</title>
<g id="a_node4"><a xlink:href="task_8h.html#a366b302eba79d10b5ee2a3756f0fcc43" target="_top" xlink:title="vTaskSuspendAll">
<polygon fill="white" stroke="black" points="130,-57.5 130,-76.5 224,-76.5 224,-57.5 130,-57.5"/>
<text text-anchor="middle" x="177" y="-64.5" font-family="Helvetica,sans-Serif" font-size="10.00">vTaskSuspendAll</text>
</a>
</g>
</g>
<!-- Node1&#45;&gt;Node4 -->
<g id="edge3" class="edge"><title>Node1&#45;&gt;Node4</title>
<path fill="none" stroke="midnightblue" d="M74.2579,-81.008C88.2111,-79.0869 104.49,-76.8456 119.882,-74.7264"/>
<polygon fill="midnightblue" stroke="midnightblue" points="120.406,-78.1874 129.835,-73.356 119.451,-71.2528 120.406,-78.1874"/>
</g>
<!-- Node5 -->
<g id="node5" class="node"><title>Node5</title>
<g id="a_node5"><a xlink:href="task_8h.html#a003f8ae6d649225abd030cc76e1c7d0e" target="_top" xlink:title="xTaskResumeAll">
<polygon fill="white" stroke="black" points="131,-19.5 131,-38.5 223,-38.5 223,-19.5 131,-19.5"/>
<text text-anchor="middle" x="177" y="-26.5" font-family="Helvetica,sans-Serif" font-size="10.00">xTaskResumeAll</text>
</a>
</g>
</g>
<!-- Node1&#45;&gt;Node5 -->
<g id="edge4" class="edge"><title>Node1&#45;&gt;Node5</title>
<path fill="none" stroke="midnightblue" d="M53.8459,-76.4199C68.1411,-68.0757 89.9413,-56.0807 110,-48 115.806,-45.6609 122.007,-43.482 128.196,-41.4962"/>
<polygon fill="midnightblue" stroke="midnightblue" points="129.317,-44.8135 137.854,-38.539 127.267,-38.1203 129.317,-44.8135"/>
</g>
<!-- Node6 -->
<g id="node6" class="node"><title>Node6</title>
<g id="a_node6"><a xlink:href="list_8h.html#a2eb1558482076fff8cafc63419c2d34a" target="_top" xlink:title="uxListRemove">
<polygon fill="white" stroke="black" points="422,-0.5 422,-19.5 502,-19.5 502,-0.5 422,-0.5"/>
<text text-anchor="middle" x="462" y="-7.5" font-family="Helvetica,sans-Serif" font-size="10.00">uxListRemove</text>
</a>
</g>
</g>
<!-- Node5&#45;&gt;Node6 -->
<g id="edge5" class="edge"><title>Node5&#45;&gt;Node6</title>
<path fill="none" stroke="midnightblue" d="M219.444,-19.4889C237.876,-15.7237 259.911,-11.8551 280,-10 324.285,-5.91057 374.926,-6.34281 411.359,-7.54703"/>
<polygon fill="midnightblue" stroke="midnightblue" points="411.593,-11.0577 421.713,-7.9226 411.846,-4.06232 411.593,-11.0577"/>
</g>
<!-- Node5&#45;&gt;Node3 -->
<g id="edge6" class="edge"><title>Node5&#45;&gt;Node3</title>
<path fill="none" stroke="midnightblue" d="M223.063,-38.1927C240.761,-41.5935 261.283,-45.2788 280,-48 334.689,-55.9511 399.139,-61.9066 434.483,-64.8818"/>
<polygon fill="midnightblue" stroke="midnightblue" points="434.22,-68.3719 444.474,-65.7084 434.797,-61.3957 434.22,-68.3719"/>
</g>
<!-- Node7 -->
<g id="node7" class="node"><title>Node7</title>
<g id="a_node7"><a xlink:href="tasks_8c.html#a54f31e9aef0eb7b87e48c7d68ecc84c1" target="_top" xlink:title="xTaskIncrementTick">
<polygon fill="white" stroke="black" points="280,-19.5 280,-38.5 386,-38.5 386,-19.5 280,-19.5"/>
<text text-anchor="middle" x="333" y="-26.5" font-family="Helvetica,sans-Serif" font-size="10.00">xTaskIncrementTick</text>
</a>
</g>
</g>
<!-- Node5&#45;&gt;Node7 -->
<g id="edge7" class="edge"><title>Node5&#45;&gt;Node7</title>
<path fill="none" stroke="midnightblue" d="M223.372,-29C237.928,-29 254.31,-29 269.852,-29"/>
<polygon fill="midnightblue" stroke="midnightblue" points="269.916,-32.5001 279.916,-29 269.916,-25.5001 269.916,-32.5001"/>
</g>
<!-- Node7&#45;&gt;Node3 -->
<g id="edge8" class="edge"><title>Node7&#45;&gt;Node3</title>
<path fill="none" stroke="midnightblue" d="M366.047,-38.589C387.198,-44.9174 414.576,-53.1093 434.496,-59.0695"/>
<polygon fill="midnightblue" stroke="midnightblue" points="433.576,-62.4477 444.16,-61.9613 435.583,-55.7415 433.576,-62.4477"/>
</g>
<!-- Node7&#45;&gt;Node6 -->
<g id="edge9" class="edge"><title>Node7&#45;&gt;Node6</title>
<path fill="none" stroke="midnightblue" d="M386.022,-21.2172C394.496,-19.9494 403.252,-18.6395 411.659,-17.3817"/>
<polygon fill="midnightblue" stroke="midnightblue" points="412.326,-20.8209 421.698,-15.8798 411.291,-13.898 412.326,-20.8209"/>
</g>
</g>
</svg>
