<?xml version="1.0" encoding="UTF-8" standalone="no"?>
<!DOCTYPE svg PUBLIC "-//W3C//DTD SVG 1.1//EN"
 "http://www.w3.org/Graphics/SVG/1.1/DTD/svg11.dtd">
<!-- Generated by graphviz version 2.30.1 (20130221.2233)
 -->
<!-- Title: prvInsertBlockIntoFreeList Pages: 1 -->
<svg width="598pt" height="104pt"
 viewBox="0.00 0.00 598.00 104.00" xmlns="http://www.w3.org/2000/svg" xmlns:xlink="http://www.w3.org/1999/xlink">
<g id="graph0" class="graph" transform="scale(1 1) rotate(0) translate(4 100)">
<title>prvInsertBlockIntoFreeList</title>
<polygon fill="white" stroke="white" points="-4,5 -4,-100 595,-100 595,5 -4,5"/>
<!-- Node1 -->
<g id="node1" class="node"><title>Node1</title>
<polygon fill="#bfbfbf" stroke="black" points="0.5,-19.5 0.5,-38.5 133.5,-38.5 133.5,-19.5 0.5,-19.5"/>
<text text-anchor="middle" x="67" y="-26.5" font-family="Helvetica,sans-Serif" font-size="10.00">prvInsertBlockIntoFreeList</text>
</g>
<!-- Node2 -->
<g id="node2" class="node"><title>Node2</title>
<g id="a_node2"><a xlink:href="heap__5_8c.html#a0379669d07d76cc81e3028123113b271" target="_top" xlink:title="pvPortMalloc">
<polygon fill="white" stroke="black" points="170,-38.5 170,-57.5 244,-57.5 244,-38.5 170,-38.5"/>
<text text-anchor="middle" x="207" y="-45.5" font-family="Helvetica,sans-Serif" font-size="10.00">pvPortMalloc</text>
</a>
</g>
</g>
<!-- Node1&#45;&gt;Node2 -->
<g id="edge1" class="edge"><title>Node1&#45;&gt;Node2</title>
<path fill="none" stroke="midnightblue" d="M143.902,-39.4502C152.848,-40.682 161.639,-41.8923 169.663,-42.9971"/>
<polygon fill="midnightblue" stroke="midnightblue" points="144.151,-35.9516 133.767,-38.0548 143.196,-42.8862 144.151,-35.9516"/>
</g>
<!-- Node7 -->
<g id="node7" class="node"><title>Node7</title>
<g id="a_node7"><a xlink:href="heap__5_8c.html#a1e7cea2fd1bc894ea3b5f5e8179d259b" target="_top" xlink:title="vPortFree">
<polygon fill="white" stroke="black" points="177,-0.5 177,-19.5 237,-19.5 237,-0.5 177,-0.5"/>
<text text-anchor="middle" x="207" y="-7.5" font-family="Helvetica,sans-Serif" font-size="10.00">vPortFree</text>
</a>
</g>
</g>
<!-- Node1&#45;&gt;Node7 -->
<g id="edge6" class="edge"><title>Node1&#45;&gt;Node7</title>
<path fill="none" stroke="midnightblue" d="M143.697,-18.5779C155.483,-16.9553 167.005,-15.3689 176.871,-14.0105"/>
<polygon fill="midnightblue" stroke="midnightblue" points="143.196,-15.1138 133.767,-19.9452 144.151,-22.0484 143.196,-15.1138"/>
</g>
<!-- Node3 -->
<g id="node3" class="node"><title>Node3</title>
<g id="a_node3"><a xlink:href="event__groups_8h.html#a7ed741a0902718aca9c8d3ca273f1b73" target="_top" xlink:title="xEventGroupCreate">
<polygon fill="white" stroke="black" points="292.5,-76.5 292.5,-95.5 397.5,-95.5 397.5,-76.5 292.5,-76.5"/>
<text text-anchor="middle" x="345" y="-83.5" font-family="Helvetica,sans-Serif" font-size="10.00">xEventGroupCreate</text>
</a>
</g>
</g>
<!-- Node2&#45;&gt;Node3 -->
<g id="edge2" class="edge"><title>Node2&#45;&gt;Node3</title>
<path fill="none" stroke="midnightblue" d="M252.087,-60.3183C270.772,-65.5393 292.218,-71.5316 309.692,-76.4141"/>
<polygon fill="midnightblue" stroke="midnightblue" points="252.892,-56.9092 242.319,-57.589 251.008,-63.651 252.892,-56.9092"/>
</g>
<!-- Node4 -->
<g id="node4" class="node"><title>Node4</title>
<g id="a_node4"><a xlink:href="queue_8c.html#ac999cdfbb09fff396fa818bb9a30b4e5" target="_top" xlink:title="xQueueGenericCreate">
<polygon fill="white" stroke="black" points="286.5,-38.5 286.5,-57.5 403.5,-57.5 403.5,-38.5 286.5,-38.5"/>
<text text-anchor="middle" x="345" y="-45.5" font-family="Helvetica,sans-Serif" font-size="10.00">xQueueGenericCreate</text>
</a>
</g>
</g>
<!-- Node2&#45;&gt;Node4 -->
<g id="edge3" class="edge"><title>Node2&#45;&gt;Node4</title>
<path fill="none" stroke="midnightblue" d="M254.162,-48C264.529,-48 275.654,-48 286.422,-48"/>
<polygon fill="midnightblue" stroke="midnightblue" points="254.088,-44.5001 244.088,-48 254.088,-51.5001 254.088,-44.5001"/>
</g>
<!-- Node6 -->
<g id="node6" class="node"><title>Node6</title>
<g id="a_node6"><a xlink:href="tasks_8c.html#a91a076d3c5af24feadfe2bca03cc9f7a" target="_top" xlink:title="prvAllocateTCBAndStack">
<polygon fill="white" stroke="black" points="280.5,-0.5 280.5,-19.5 409.5,-19.5 409.5,-0.5 280.5,-0.5"/>
<text text-anchor="middle" x="345" y="-7.5" font-family="Helvetica,sans-Serif" font-size="10.00">prvAllocateTCBAndStack</text>
</a>
</g>
</g>
<!-- Node2&#45;&gt;Node6 -->
<g id="edge5" class="edge"><title>Node2&#45;&gt;Node6</title>
<path fill="none" stroke="midnightblue" d="M252.087,-35.6817C270.772,-30.4607 292.218,-24.4684 309.692,-19.5859"/>
<polygon fill="midnightblue" stroke="midnightblue" points="251.008,-32.349 242.319,-38.411 252.892,-39.0908 251.008,-32.349"/>
</g>
<!-- Node5 -->
<g id="node5" class="node"><title>Node5</title>
<g id="a_node5"><a xlink:href="_g_c_c_2_a_r_m___c_m3___m_p_u_2port_8c.html#a807a463b8fc68904094127b85ae5d23b" target="_top" xlink:title="MPU_xQueueGenericCreate">
<polygon fill="white" stroke="black" points="446,-38.5 446,-57.5 590,-57.5 590,-38.5 446,-38.5"/>
<text text-anchor="middle" x="518" y="-45.5" font-family="Helvetica,sans-Serif" font-size="10.00">MPU_xQueueGenericCreate</text>
</a>
</g>
</g>
<!-- Node4&#45;&gt;Node5 -->
<g id="edge4" class="edge"><title>Node4&#45;&gt;Node5</title>
<path fill="none" stroke="midnightblue" d="M414.161,-48C424.574,-48 435.344,-48 445.819,-48"/>
<polygon fill="midnightblue" stroke="midnightblue" points="413.893,-44.5001 403.893,-48 413.893,-51.5001 413.893,-44.5001"/>
</g>
</g>
</svg>
