<?xml version="1.0" encoding="UTF-8" standalone="no"?>
<!DOCTYPE svg PUBLIC "-//W3C//DTD SVG 1.1//EN"
 "http://www.w3.org/Graphics/SVG/1.1/DTD/svg11.dtd">
<!-- Generated by graphviz version 2.30.1 (20130221.2233)
 -->
<!-- Title: pvPortMalloc Pages: 1 -->
<svg width="470pt" height="99pt"
 viewBox="0.00 0.00 470.00 98.93" xmlns="http://www.w3.org/2000/svg" xmlns:xlink="http://www.w3.org/1999/xlink">
<g id="graph0" class="graph" transform="scale(1 1) rotate(0) translate(4 94.9268)">
<title>pvPortMalloc</title>
<polygon fill="white" stroke="white" points="-4,5 -4,-94.9268 467,-94.9268 467,5 -4,5"/>
<!-- Node1 -->
<g id="node1" class="node"><title>Node1</title>
<polygon fill="#bfbfbf" stroke="black" points="0,-57.5 0,-76.5 74,-76.5 74,-57.5 0,-57.5"/>
<text text-anchor="middle" x="37" y="-64.5" font-family="Helvetica,sans-Serif" font-size="10.00">pvPortMalloc</text>
</g>
<!-- Node2 -->
<g id="node2" class="node"><title>Node2</title>
<g id="a_node2"><a xlink:href="_paradigm_2_tern___e_e_2small_2portmacro_8h.html#a14d32f8130d3c0b212cfc751730b5b49" target="_top" xlink:title="void">
<polygon fill="white" stroke="black" points="404.5,-57.5 404.5,-76.5 439.5,-76.5 439.5,-57.5 404.5,-57.5"/>
<text text-anchor="middle" x="422" y="-64.5" font-family="Helvetica,sans-Serif" font-size="10.00">void</text>
</a>
</g>
</g>
<!-- Node1&#45;&gt;Node2 -->
<g id="edge1" class="edge"><title>Node1&#45;&gt;Node2</title>
<path fill="none" stroke="midnightblue" d="M67.0851,-76.5039C80.0649,-80.2677 95.6411,-84.1373 110,-86 214.639,-99.5742 340.378,-81.4314 394.31,-72.0248"/>
<polygon fill="midnightblue" stroke="midnightblue" points="395.177,-75.4253 404.404,-70.2182 393.944,-68.5348 395.177,-75.4253"/>
</g>
<!-- Node3 -->
<g id="node3" class="node"><title>Node3</title>
<g id="a_node3"><a xlink:href="task_8h.html#a366b302eba79d10b5ee2a3756f0fcc43" target="_top" xlink:title="vTaskSuspendAll">
<polygon fill="white" stroke="black" points="110,-57.5 110,-76.5 204,-76.5 204,-57.5 110,-57.5"/>
<text text-anchor="middle" x="157" y="-64.5" font-family="Helvetica,sans-Serif" font-size="10.00">vTaskSuspendAll</text>
</a>
</g>
</g>
<!-- Node1&#45;&gt;Node3 -->
<g id="edge2" class="edge"><title>Node1&#45;&gt;Node3</title>
<path fill="none" stroke="midnightblue" d="M74.0451,-67C82.1317,-67 90.8999,-67 99.5929,-67"/>
<polygon fill="midnightblue" stroke="midnightblue" points="99.7179,-70.5001 109.718,-67 99.7178,-63.5001 99.7179,-70.5001"/>
</g>
<!-- Node4 -->
<g id="node4" class="node"><title>Node4</title>
<g id="a_node4"><a xlink:href="task_8h.html#a003f8ae6d649225abd030cc76e1c7d0e" target="_top" xlink:title="xTaskResumeAll">
<polygon fill="white" stroke="black" points="111,-19.5 111,-38.5 203,-38.5 203,-19.5 111,-19.5"/>
<text text-anchor="middle" x="157" y="-26.5" font-family="Helvetica,sans-Serif" font-size="10.00">xTaskResumeAll</text>
</a>
</g>
</g>
<!-- Node1&#45;&gt;Node4 -->
<g id="edge3" class="edge"><title>Node1&#45;&gt;Node4</title>
<path fill="none" stroke="midnightblue" d="M67.7764,-57.411C82.5898,-52.6406 100.691,-46.8112 116.634,-41.6771"/>
<polygon fill="midnightblue" stroke="midnightblue" points="117.787,-44.9828 126.233,-38.5859 115.642,-38.3198 117.787,-44.9828"/>
</g>
<!-- Node5 -->
<g id="node5" class="node"><title>Node5</title>
<g id="a_node5"><a xlink:href="list_8h.html#a2eb1558482076fff8cafc63419c2d34a" target="_top" xlink:title="uxListRemove">
<polygon fill="white" stroke="black" points="382,-0.5 382,-19.5 462,-19.5 462,-0.5 382,-0.5"/>
<text text-anchor="middle" x="422" y="-7.5" font-family="Helvetica,sans-Serif" font-size="10.00">uxListRemove</text>
</a>
</g>
</g>
<!-- Node4&#45;&gt;Node5 -->
<g id="edge4" class="edge"><title>Node4&#45;&gt;Node5</title>
<path fill="none" stroke="midnightblue" d="M191.212,-19.4929C206.011,-15.7284 223.739,-11.8593 240,-10 284.186,-4.94785 334.837,-5.48185 371.299,-6.96955"/>
<polygon fill="midnightblue" stroke="midnightblue" points="371.516,-10.4827 381.662,-7.43354 371.829,-3.48968 371.516,-10.4827"/>
</g>
<!-- Node4&#45;&gt;Node2 -->
<g id="edge5" class="edge"><title>Node4&#45;&gt;Node2</title>
<path fill="none" stroke="midnightblue" d="M194.952,-38.5805C208.982,-41.9489 225.156,-45.5108 240,-48 294.503,-57.1393 359.021,-62.6594 394.427,-65.2395"/>
<polygon fill="midnightblue" stroke="midnightblue" points="394.215,-68.7332 404.437,-65.9466 394.708,-61.7506 394.215,-68.7332"/>
</g>
<!-- Node6 -->
<g id="node6" class="node"><title>Node6</title>
<g id="a_node6"><a xlink:href="tasks_8c.html#a54f31e9aef0eb7b87e48c7d68ecc84c1" target="_top" xlink:title="xTaskIncrementTick">
<polygon fill="white" stroke="black" points="240,-19.5 240,-38.5 346,-38.5 346,-19.5 240,-19.5"/>
<text text-anchor="middle" x="293" y="-26.5" font-family="Helvetica,sans-Serif" font-size="10.00">xTaskIncrementTick</text>
</a>
</g>
</g>
<!-- Node4&#45;&gt;Node6 -->
<g id="edge6" class="edge"><title>Node4&#45;&gt;Node6</title>
<path fill="none" stroke="midnightblue" d="M203.366,-29C211.77,-29 220.683,-29 229.492,-29"/>
<polygon fill="midnightblue" stroke="midnightblue" points="229.748,-32.5001 239.748,-29 229.748,-25.5001 229.748,-32.5001"/>
</g>
<!-- Node6&#45;&gt;Node2 -->
<g id="edge7" class="edge"><title>Node6&#45;&gt;Node2</title>
<path fill="none" stroke="midnightblue" d="M326.047,-38.589C347.198,-44.9174 374.576,-53.1093 394.496,-59.0695"/>
<polygon fill="midnightblue" stroke="midnightblue" points="393.576,-62.4477 404.16,-61.9613 395.583,-55.7415 393.576,-62.4477"/>
</g>
<!-- Node6&#45;&gt;Node5 -->
<g id="edge8" class="edge"><title>Node6&#45;&gt;Node5</title>
<path fill="none" stroke="midnightblue" d="M346.022,-21.2172C354.496,-19.9494 363.252,-18.6395 371.659,-17.3817"/>
<polygon fill="midnightblue" stroke="midnightblue" points="372.326,-20.8209 381.698,-15.8798 371.291,-13.898 372.326,-20.8209"/>
</g>
</g>
</svg>
