<?xml version="1.0" encoding="UTF-8" standalone="no"?>
<!DOCTYPE svg PUBLIC "-//W3C//DTD SVG 1.1//EN"
 "http://www.w3.org/Graphics/SVG/1.1/DTD/svg11.dtd">
<!-- Generated by graphviz version 2.30.1 (20130221.2233)
 -->
<!-- Title: Graphical Class Hierarchy Pages: 1 -->
<svg width="238pt" height="104pt"
 viewBox="0.00 0.00 238.00 104.00" xmlns="http://www.w3.org/2000/svg" xmlns:xlink="http://www.w3.org/1999/xlink">
<g id="graph0" class="graph" transform="scale(1 1) rotate(0) translate(4 100)">
<title>Graphical Class Hierarchy</title>
<polygon fill="white" stroke="white" points="-4,5 -4,-100 235,-100 235,5 -4,5"/>
<!-- Node1 -->
<g id="node1" class="node"><title>Node1</title>
<polygon fill="white" stroke="#bfbfbf" points="0.5,-38.5 0.5,-57.5 53.5,-57.5 53.5,-38.5 0.5,-38.5"/>
<text text-anchor="middle" x="27" y="-45.5" font-family="Helvetica,sans-Serif" font-size="10.00">QObject</text>
</g>
<!-- Node2 -->
<g id="node2" class="node"><title>Node2</title>
<g id="a_node2"><a xlink:href="class_interrupt_flags.html" target="_top" xlink:title="InterruptFlags">
<polygon fill="white" stroke="black" points="121,-76.5 121,-95.5 199,-95.5 199,-76.5 121,-76.5"/>
<text text-anchor="middle" x="160" y="-83.5" font-family="Helvetica,sans-Serif" font-size="10.00">InterruptFlags</text>
</a>
</g>
</g>
<!-- Node1&#45;&gt;Node2 -->
<g id="edge1" class="edge"><title>Node1&#45;&gt;Node2</title>
<path fill="none" stroke="midnightblue" d="M63.4288,-59.0486C72.1051,-61.7014 81.3756,-64.4917 90,-67 100.857,-70.1576 112.714,-73.4712 123.488,-76.4308"/>
<polygon fill="midnightblue" stroke="midnightblue" points="64.178,-55.6172 53.5909,-56.0226 62.12,-62.3079 64.178,-55.6172"/>
</g>
<!-- Node3 -->
<g id="node3" class="node"><title>Node3</title>
<g id="a_node3"><a xlink:href="class_micro_controller_environment.html" target="_top" xlink:title="MicroControllerEnvironment">
<polygon fill="white" stroke="black" points="90,-38.5 90,-57.5 230,-57.5 230,-38.5 90,-38.5"/>
<text text-anchor="middle" x="160" y="-45.5" font-family="Helvetica,sans-Serif" font-size="10.00">MicroControllerEnvironment</text>
</a>
</g>
</g>
<!-- Node1&#45;&gt;Node3 -->
<g id="edge2" class="edge"><title>Node1&#45;&gt;Node3</title>
<path fill="none" stroke="midnightblue" d="M63.8007,-48C71.9707,-48 80.9228,-48 89.965,-48"/>
<polygon fill="midnightblue" stroke="midnightblue" points="63.5691,-44.5001 53.5691,-48 63.5691,-51.5001 63.5691,-44.5001"/>
</g>
<!-- Node4 -->
<g id="node4" class="node"><title>Node4</title>
<g id="a_node4"><a xlink:href="class_task_timer.html" target="_top" xlink:title="TaskTimer">
<polygon fill="white" stroke="black" points="128,-0.5 128,-19.5 192,-19.5 192,-0.5 128,-0.5"/>
<text text-anchor="middle" x="160" y="-7.5" font-family="Helvetica,sans-Serif" font-size="10.00">TaskTimer</text>
</a>
</g>
</g>
<!-- Node1&#45;&gt;Node4 -->
<g id="edge3" class="edge"><title>Node1&#45;&gt;Node4</title>
<path fill="none" stroke="midnightblue" d="M63.4288,-36.9514C72.1051,-34.2986 81.3756,-31.5083 90,-29 102.289,-25.426 115.858,-21.6522 127.689,-18.4179"/>
<polygon fill="midnightblue" stroke="midnightblue" points="62.12,-33.6921 53.5909,-39.9774 64.178,-40.3828 62.12,-33.6921"/>
</g>
</g>
</svg>
