<?xml version="1.0" encoding="UTF-8" standalone="no"?>
<!DOCTYPE svg PUBLIC "-//W3C//DTD SVG 1.1//EN"
 "http://www.w3.org/Graphics/SVG/1.1/DTD/svg11.dtd">
<!-- Generated by graphviz version 2.30.1 (20130221.2233)
 -->
<!-- Title: AT91F_PDC_Close Pages: 1 -->
<svg width="248pt" height="66pt"
 viewBox="0.00 0.00 248.00 66.00" xmlns="http://www.w3.org/2000/svg" xmlns:xlink="http://www.w3.org/1999/xlink">
<g id="graph0" class="graph" transform="scale(1 1) rotate(0) translate(4 62)">
<title>AT91F_PDC_Close</title>
<polygon fill="white" stroke="white" points="-4,5 -4,-62 245,-62 245,5 -4,5"/>
<!-- Node1 -->
<g id="node1" class="node"><title>Node1</title>
<polygon fill="#bfbfbf" stroke="black" points="0,-19.5 0,-38.5 104,-38.5 104,-19.5 0,-19.5"/>
<text text-anchor="middle" x="52" y="-26.5" font-family="Helvetica,sans-Serif" font-size="10.00">AT91F_PDC_Close</text>
</g>
<!-- Node2 -->
<g id="node2" class="node"><title>Node2</title>
<g id="a_node2"><a xlink:href="lib___a_t91_s_a_m7_s64_8h.html#a1d538178f15852104ef39cbb837504c3" target="_top" xlink:title="AT91F_SPI_Close">
<polygon fill="white" stroke="black" points="140.5,-38.5 140.5,-57.5 239.5,-57.5 239.5,-38.5 140.5,-38.5"/>
<text text-anchor="middle" x="190" y="-45.5" font-family="Helvetica,sans-Serif" font-size="10.00">AT91F_SPI_Close</text>
</a>
</g>
</g>
<!-- Node1&#45;&gt;Node2 -->
<g id="edge1" class="edge"><title>Node1&#45;&gt;Node2</title>
<path fill="none" stroke="midnightblue" d="M114.217,-37.5524C122.986,-38.7774 131.907,-40.0237 140.388,-41.2087"/>
<polygon fill="midnightblue" stroke="midnightblue" points="114.416,-34.0463 104.028,-36.129 113.448,-40.979 114.416,-34.0463"/>
</g>
<!-- Node3 -->
<g id="node3" class="node"><title>Node3</title>
<g id="a_node3"><a xlink:href="lib___a_t91_s_a_m7_s64_8h.html#a7b4bbc35e32ebaa01d042c344ff4ded0" target="_top" xlink:title="AT91F_US_Close">
<polygon fill="white" stroke="black" points="141.5,-0.5 141.5,-19.5 238.5,-19.5 238.5,-0.5 141.5,-0.5"/>
<text text-anchor="middle" x="190" y="-7.5" font-family="Helvetica,sans-Serif" font-size="10.00">AT91F_US_Close</text>
</a>
</g>
</g>
<!-- Node1&#45;&gt;Node3 -->
<g id="edge2" class="edge"><title>Node1&#45;&gt;Node3</title>
<path fill="none" stroke="midnightblue" d="M114.184,-20.4522C123.273,-19.1825 132.525,-17.8899 141.283,-16.6663"/>
<polygon fill="midnightblue" stroke="midnightblue" points="113.448,-17.021 104.028,-21.871 114.416,-23.9537 113.448,-17.021"/>
</g>
</g>
</svg>
