<?xml version="1.0" encoding="UTF-8" standalone="no"?>
<!DOCTYPE svg PUBLIC "-//W3C//DTD SVG 1.1//EN"
 "http://www.w3.org/Graphics/SVG/1.1/DTD/svg11.dtd">
<!-- Generated by graphviz version 2.30.1 (20130221.2233)
 -->
<!-- Title: AT91F_PDC_IsRxEmpty Pages: 1 -->
<svg width="496pt" height="104pt"
 viewBox="0.00 0.00 496.00 104.00" xmlns="http://www.w3.org/2000/svg" xmlns:xlink="http://www.w3.org/1999/xlink">
<g id="graph0" class="graph" transform="scale(1 1) rotate(0) translate(4 100)">
<title>AT91F_PDC_IsRxEmpty</title>
<polygon fill="white" stroke="white" points="-4,5 -4,-100 493,-100 493,5 -4,5"/>
<!-- Node1 -->
<g id="node1" class="node"><title>Node1</title>
<polygon fill="#bfbfbf" stroke="black" points="0.5,-38.5 0.5,-57.5 127.5,-57.5 127.5,-38.5 0.5,-38.5"/>
<text text-anchor="middle" x="64" y="-45.5" font-family="Helvetica,sans-Serif" font-size="10.00">AT91F_PDC_IsRxEmpty</text>
</g>
<!-- Node2 -->
<g id="node2" class="node"><title>Node2</title>
<g id="a_node2"><a xlink:href="lib___a_t91_s_a_m7_x128_8h.html#aafc2ac73bfe8e6584b59dfa99dcc734d" target="_top" xlink:title="AT91F_PDC_ReceiveFrame">
<polygon fill="white" stroke="black" points="164,-38.5 164,-57.5 308,-57.5 308,-38.5 164,-38.5"/>
<text text-anchor="middle" x="236" y="-45.5" font-family="Helvetica,sans-Serif" font-size="10.00">AT91F_PDC_ReceiveFrame</text>
</a>
</g>
</g>
<!-- Node1&#45;&gt;Node2 -->
<g id="edge1" class="edge"><title>Node1&#45;&gt;Node2</title>
<path fill="none" stroke="midnightblue" d="M137.836,-48C146.455,-48 155.245,-48 163.84,-48"/>
<polygon fill="midnightblue" stroke="midnightblue" points="137.819,-44.5001 127.819,-48 137.819,-51.5001 137.819,-44.5001"/>
</g>
<!-- Node3 -->
<g id="node3" class="node"><title>Node3</title>
<g id="a_node3"><a xlink:href="lib___a_t91_s_a_m7_x128_8h.html#a3fd88379fedca045387ceabc79da98f6" target="_top" xlink:title="AT91F_SPI_ReceiveFrame">
<polygon fill="white" stroke="black" points="346.5,-76.5 346.5,-95.5 485.5,-95.5 485.5,-76.5 346.5,-76.5"/>
<text text-anchor="middle" x="416" y="-83.5" font-family="Helvetica,sans-Serif" font-size="10.00">AT91F_SPI_ReceiveFrame</text>
</a>
</g>
</g>
<!-- Node2&#45;&gt;Node3 -->
<g id="edge2" class="edge"><title>Node2&#45;&gt;Node3</title>
<path fill="none" stroke="midnightblue" d="M291.716,-59.681C316.959,-65.0699 346.545,-71.3861 370.406,-76.4799"/>
<polygon fill="midnightblue" stroke="midnightblue" points="292.427,-56.254 281.917,-57.589 290.966,-63.0997 292.427,-56.254"/>
</g>
<!-- Node4 -->
<g id="node4" class="node"><title>Node4</title>
<g id="a_node4"><a xlink:href="lib___a_t91_s_a_m7_x128_8h.html#a413427ce949ec0321bf321a4c1b91cd1" target="_top" xlink:title="AT91F_US_ReceiveFrame">
<polygon fill="white" stroke="black" points="347.5,-38.5 347.5,-57.5 484.5,-57.5 484.5,-38.5 347.5,-38.5"/>
<text text-anchor="middle" x="416" y="-45.5" font-family="Helvetica,sans-Serif" font-size="10.00">AT91F_US_ReceiveFrame</text>
</a>
</g>
</g>
<!-- Node2&#45;&gt;Node4 -->
<g id="edge3" class="edge"><title>Node2&#45;&gt;Node4</title>
<path fill="none" stroke="midnightblue" d="M318.239,-48C328.015,-48 337.916,-48 347.467,-48"/>
<polygon fill="midnightblue" stroke="midnightblue" points="318.118,-44.5001 308.118,-48 318.118,-51.5001 318.118,-44.5001"/>
</g>
<!-- Node5 -->
<g id="node5" class="node"><title>Node5</title>
<g id="a_node5"><a xlink:href="lib___a_t91_s_a_m7_x128_8h.html#ae2e9978885885118d9106fb029b40b8a" target="_top" xlink:title="AT91F_SSC_ReceiveFrame">
<polygon fill="white" stroke="black" points="344.5,-0.5 344.5,-19.5 487.5,-19.5 487.5,-0.5 344.5,-0.5"/>
<text text-anchor="middle" x="416" y="-7.5" font-family="Helvetica,sans-Serif" font-size="10.00">AT91F_SSC_ReceiveFrame</text>
</a>
</g>
</g>
<!-- Node2&#45;&gt;Node5 -->
<g id="edge4" class="edge"><title>Node2&#45;&gt;Node5</title>
<path fill="none" stroke="midnightblue" d="M291.716,-36.319C316.959,-30.9301 346.545,-24.6139 370.406,-19.5201"/>
<polygon fill="midnightblue" stroke="midnightblue" points="290.966,-32.9003 281.917,-38.411 292.427,-39.746 290.966,-32.9003"/>
</g>
</g>
</svg>
