<?xml version="1.0" encoding="UTF-8" standalone="no"?>
<!DOCTYPE svg PUBLIC "-//W3C//DTD SVG 1.1//EN"
 "http://www.w3.org/Graphics/SVG/1.1/DTD/svg11.dtd">
<!-- Generated by graphviz version 2.30.1 (20130221.2233)
 -->
<!-- Title: AT91F_SSC_SendFrame Pages: 1 -->
<svg width="490pt" height="142pt"
 viewBox="0.00 0.00 490.00 142.00" xmlns="http://www.w3.org/2000/svg" xmlns:xlink="http://www.w3.org/1999/xlink">
<g id="graph0" class="graph" transform="scale(1 1) rotate(0) translate(4 138)">
<title>AT91F_SSC_SendFrame</title>
<polygon fill="white" stroke="white" points="-4,5 -4,-138 487,-138 487,5 -4,5"/>
<!-- Node1 -->
<g id="node1" class="node"><title>Node1</title>
<polygon fill="#bfbfbf" stroke="black" points="0,-57.5 0,-76.5 130,-76.5 130,-57.5 0,-57.5"/>
<text text-anchor="middle" x="65" y="-64.5" font-family="Helvetica,sans-Serif" font-size="10.00">AT91F_SSC_SendFrame</text>
</g>
<!-- Node2 -->
<g id="node2" class="node"><title>Node2</title>
<g id="a_node2"><a xlink:href="lib___a_t91_s_a_m7_s64_8h.html#a69b0e9baa0272a3febd549034aad1fcb" target="_top" xlink:title="AT91F_PDC_SendFrame">
<polygon fill="white" stroke="black" points="166.5,-57.5 166.5,-76.5 297.5,-76.5 297.5,-57.5 166.5,-57.5"/>
<text text-anchor="middle" x="232" y="-64.5" font-family="Helvetica,sans-Serif" font-size="10.00">AT91F_PDC_SendFrame</text>
</a>
</g>
</g>
<!-- Node1&#45;&gt;Node2 -->
<g id="edge1" class="edge"><title>Node1&#45;&gt;Node2</title>
<path fill="none" stroke="midnightblue" d="M130.266,-67C138.786,-67 147.579,-67 156.256,-67"/>
<polygon fill="midnightblue" stroke="midnightblue" points="156.367,-70.5001 166.367,-67 156.367,-63.5001 156.367,-70.5001"/>
</g>
<!-- Node3 -->
<g id="node3" class="node"><title>Node3</title>
<g id="a_node3"><a xlink:href="lib___a_t91_s_a_m7_s64_8h.html#a850c514a0aa55991ed5fe7c7e0989209" target="_top" xlink:title="AT91F_PDC_IsNextTxEmpty">
<polygon fill="white" stroke="black" points="334.5,-114.5 334.5,-133.5 481.5,-133.5 481.5,-114.5 334.5,-114.5"/>
<text text-anchor="middle" x="408" y="-121.5" font-family="Helvetica,sans-Serif" font-size="10.00">AT91F_PDC_IsNextTxEmpty</text>
</a>
</g>
</g>
<!-- Node2&#45;&gt;Node3 -->
<g id="edge2" class="edge"><title>Node2&#45;&gt;Node3</title>
<path fill="none" stroke="midnightblue" d="M256.427,-76.6162C276.741,-84.761 307.035,-96.4445 334,-105 341.548,-107.395 349.603,-109.718 357.505,-111.871"/>
<polygon fill="midnightblue" stroke="midnightblue" points="356.818,-115.31 367.382,-114.498 358.617,-108.545 356.818,-115.31"/>
</g>
<!-- Node4 -->
<g id="node4" class="node"><title>Node4</title>
<g id="a_node4"><a xlink:href="lib___a_t91_s_a_m7_s64_8h.html#a07dcf21b4e39e894efcc34afa3b4787d" target="_top" xlink:title="AT91F_PDC_IsTxEmpty">
<polygon fill="white" stroke="black" points="345,-76.5 345,-95.5 471,-95.5 471,-76.5 345,-76.5"/>
<text text-anchor="middle" x="408" y="-83.5" font-family="Helvetica,sans-Serif" font-size="10.00">AT91F_PDC_IsTxEmpty</text>
</a>
</g>
</g>
<!-- Node2&#45;&gt;Node4 -->
<g id="edge3" class="edge"><title>Node2&#45;&gt;Node4</title>
<path fill="none" stroke="midnightblue" d="M297.791,-74.0749C309.793,-75.3855 322.4,-76.7621 334.611,-78.0955"/>
<polygon fill="midnightblue" stroke="midnightblue" points="334.433,-81.5968 344.754,-79.203 335.193,-74.6381 334.433,-81.5968"/>
</g>
<!-- Node5 -->
<g id="node5" class="node"><title>Node5</title>
<g id="a_node5"><a xlink:href="lib___a_t91_s_a_m7_s64_8h.html#aa0b8b8b33d4b6514714851b653a011eb" target="_top" xlink:title="AT91F_PDC_SetNextTx">
<polygon fill="white" stroke="black" points="345.5,-38.5 345.5,-57.5 470.5,-57.5 470.5,-38.5 345.5,-38.5"/>
<text text-anchor="middle" x="408" y="-45.5" font-family="Helvetica,sans-Serif" font-size="10.00">AT91F_PDC_SetNextTx</text>
</a>
</g>
</g>
<!-- Node2&#45;&gt;Node5 -->
<g id="edge4" class="edge"><title>Node2&#45;&gt;Node5</title>
<path fill="none" stroke="midnightblue" d="M297.791,-59.9251C309.944,-58.598 322.717,-57.2033 335.072,-55.8542"/>
<polygon fill="midnightblue" stroke="midnightblue" points="335.768,-59.2991 345.329,-54.7342 335.008,-52.3405 335.768,-59.2991"/>
</g>
<!-- Node6 -->
<g id="node6" class="node"><title>Node6</title>
<g id="a_node6"><a xlink:href="lib___a_t91_s_a_m7_s64_8h.html#ad32f369ef9e9f0f395e577e1ed1652df" target="_top" xlink:title="AT91F_PDC_SetTx">
<polygon fill="white" stroke="black" points="355.5,-0.5 355.5,-19.5 460.5,-19.5 460.5,-0.5 355.5,-0.5"/>
<text text-anchor="middle" x="408" y="-7.5" font-family="Helvetica,sans-Serif" font-size="10.00">AT91F_PDC_SetTx</text>
</a>
</g>
</g>
<!-- Node2&#45;&gt;Node6 -->
<g id="edge5" class="edge"><title>Node2&#45;&gt;Node6</title>
<path fill="none" stroke="midnightblue" d="M256.427,-57.3838C276.741,-49.239 307.035,-37.5555 334,-29 341.548,-26.6051 349.603,-24.2815 357.505,-22.1291"/>
<polygon fill="midnightblue" stroke="midnightblue" points="358.617,-25.455 367.382,-19.5019 356.818,-18.6902 358.617,-25.455"/>
</g>
</g>
</svg>
