<?xml version="1.0" encoding="UTF-8" standalone="no"?>
<!DOCTYPE svg PUBLIC "-//W3C//DTD SVG 1.1//EN"
 "http://www.w3.org/Graphics/SVG/1.1/DTD/svg11.dtd">
<!-- Generated by graphviz version 2.30.1 (20130221.2233)
 -->
<!-- Title: AT91F_PDC_SetNextTx Pages: 1 -->
<svg width="468pt" height="256pt"
 viewBox="0.00 0.00 468.00 256.00" xmlns="http://www.w3.org/2000/svg" xmlns:xlink="http://www.w3.org/1999/xlink">
<g id="graph0" class="graph" transform="scale(1 1) rotate(0) translate(4 252)">
<title>AT91F_PDC_SetNextTx</title>
<polygon fill="white" stroke="white" points="-4,5 -4,-252 465,-252 465,5 -4,5"/>
<!-- Node1 -->
<g id="node1" class="node"><title>Node1</title>
<polygon fill="#bfbfbf" stroke="black" points="0.5,-123.5 0.5,-142.5 125.5,-142.5 125.5,-123.5 0.5,-123.5"/>
<text text-anchor="middle" x="63" y="-130.5" font-family="Helvetica,sans-Serif" font-size="10.00">AT91F_PDC_SetNextTx</text>
</g>
<!-- Node2 -->
<g id="node2" class="node"><title>Node2</title>
<g id="a_node2"><a xlink:href="lib___a_t91_s_a_m7_s64_8h.html#ae7a00663d9b586d0060d83e4c3e1921f" target="_top" xlink:title="AT91F_PDC_Close">
<polygon fill="white" stroke="black" points="176,-190.5 176,-209.5 280,-209.5 280,-190.5 176,-190.5"/>
<text text-anchor="middle" x="228" y="-197.5" font-family="Helvetica,sans-Serif" font-size="10.00">AT91F_PDC_Close</text>
</a>
</g>
</g>
<!-- Node1&#45;&gt;Node2 -->
<g id="edge1" class="edge"><title>Node1&#45;&gt;Node2</title>
<path fill="none" stroke="midnightblue" d="M96.6472,-146.419C128.332,-159.443 175.628,-178.884 203.689,-190.418"/>
<polygon fill="midnightblue" stroke="midnightblue" points="97.9337,-143.164 87.3539,-142.599 95.2724,-149.639 97.9337,-143.164"/>
</g>
<!-- Node5 -->
<g id="node5" class="node"><title>Node5</title>
<g id="a_node5"><a xlink:href="lib___a_t91_s_a_m7_s64_8h.html#a943bb6125d66d7956df049c6989f00f1" target="_top" xlink:title="AT91F_PDC_Open">
<polygon fill="white" stroke="black" points="176.5,-123.5 176.5,-142.5 279.5,-142.5 279.5,-123.5 176.5,-123.5"/>
<text text-anchor="middle" x="228" y="-130.5" font-family="Helvetica,sans-Serif" font-size="10.00">AT91F_PDC_Open</text>
</a>
</g>
</g>
<!-- Node1&#45;&gt;Node5 -->
<g id="edge4" class="edge"><title>Node1&#45;&gt;Node5</title>
<path fill="none" stroke="midnightblue" d="M135.964,-133C149.612,-133 163.622,-133 176.434,-133"/>
<polygon fill="midnightblue" stroke="midnightblue" points="135.623,-129.5 125.623,-133 135.623,-136.5 135.623,-129.5"/>
</g>
<!-- Node8 -->
<g id="node8" class="node"><title>Node8</title>
<g id="a_node8"><a xlink:href="lib___a_t91_s_a_m7_s64_8h.html#a69b0e9baa0272a3febd549034aad1fcb" target="_top" xlink:title="AT91F_PDC_SendFrame">
<polygon fill="white" stroke="black" points="162.5,-66.5 162.5,-85.5 293.5,-85.5 293.5,-66.5 162.5,-66.5"/>
<text text-anchor="middle" x="228" y="-73.5" font-family="Helvetica,sans-Serif" font-size="10.00">AT91F_PDC_SendFrame</text>
</a>
</g>
</g>
<!-- Node1&#45;&gt;Node8 -->
<g id="edge7" class="edge"><title>Node1&#45;&gt;Node8</title>
<path fill="none" stroke="midnightblue" d="M100.971,-120.072C130.963,-109.584 172.564,-95.0361 199.628,-85.5716"/>
<polygon fill="midnightblue" stroke="midnightblue" points="99.5667,-116.855 91.2825,-123.459 101.877,-123.462 99.5667,-116.855"/>
</g>
<!-- Node3 -->
<g id="node3" class="node"><title>Node3</title>
<g id="a_node3"><a xlink:href="lib___a_t91_s_a_m7_s64_8h.html#a1d538178f15852104ef39cbb837504c3" target="_top" xlink:title="AT91F_SPI_Close">
<polygon fill="white" stroke="black" points="345.5,-228.5 345.5,-247.5 444.5,-247.5 444.5,-228.5 345.5,-228.5"/>
<text text-anchor="middle" x="395" y="-235.5" font-family="Helvetica,sans-Serif" font-size="10.00">AT91F_SPI_Close</text>
</a>
</g>
</g>
<!-- Node2&#45;&gt;Node3 -->
<g id="edge2" class="edge"><title>Node2&#45;&gt;Node3</title>
<path fill="none" stroke="midnightblue" d="M280.654,-211.896C303.846,-217.237 330.838,-223.454 352.663,-228.48"/>
<polygon fill="midnightblue" stroke="midnightblue" points="281.167,-208.423 270.636,-209.589 279.596,-215.244 281.167,-208.423"/>
</g>
<!-- Node4 -->
<g id="node4" class="node"><title>Node4</title>
<g id="a_node4"><a xlink:href="lib___a_t91_s_a_m7_s64_8h.html#a7b4bbc35e32ebaa01d042c344ff4ded0" target="_top" xlink:title="AT91F_US_Close">
<polygon fill="white" stroke="black" points="346.5,-190.5 346.5,-209.5 443.5,-209.5 443.5,-190.5 346.5,-190.5"/>
<text text-anchor="middle" x="395" y="-197.5" font-family="Helvetica,sans-Serif" font-size="10.00">AT91F_US_Close</text>
</a>
</g>
</g>
<!-- Node2&#45;&gt;Node4 -->
<g id="edge3" class="edge"><title>Node2&#45;&gt;Node4</title>
<path fill="none" stroke="midnightblue" d="M290.399,-200C308.901,-200 328.921,-200 346.384,-200"/>
<polygon fill="midnightblue" stroke="midnightblue" points="290.303,-196.5 280.303,-200 290.303,-203.5 290.303,-196.5"/>
</g>
<!-- Node6 -->
<g id="node6" class="node"><title>Node6</title>
<g id="a_node6"><a xlink:href="lib___a_t91_s_a_m7_s64_8h.html#aa9745e47a0642596e61432ffbc890080" target="_top" xlink:title="AT91F_SSC_Configure">
<polygon fill="white" stroke="black" points="334,-152.5 334,-171.5 456,-171.5 456,-152.5 334,-152.5"/>
<text text-anchor="middle" x="395" y="-159.5" font-family="Helvetica,sans-Serif" font-size="10.00">AT91F_SSC_Configure</text>
</a>
</g>
</g>
<!-- Node5&#45;&gt;Node6 -->
<g id="edge5" class="edge"><title>Node5&#45;&gt;Node6</title>
<path fill="none" stroke="midnightblue" d="M289.875,-143.699C306.267,-146.58 323.886,-149.677 339.883,-152.488"/>
<polygon fill="midnightblue" stroke="midnightblue" points="290.307,-140.222 279.852,-141.938 289.095,-147.116 290.307,-140.222"/>
</g>
<!-- Node7 -->
<g id="node7" class="node"><title>Node7</title>
<g id="a_node7"><a xlink:href="lib___a_t91_s_a_m7_s64_8h.html#acbbed25fcf0256823175db5f1a8f1f39" target="_top" xlink:title="AT91F_US_Configure">
<polygon fill="white" stroke="black" points="337.5,-114.5 337.5,-133.5 452.5,-133.5 452.5,-114.5 337.5,-114.5"/>
<text text-anchor="middle" x="395" y="-121.5" font-family="Helvetica,sans-Serif" font-size="10.00">AT91F_US_Configure</text>
</a>
</g>
</g>
<!-- Node5&#45;&gt;Node7 -->
<g id="edge6" class="edge"><title>Node5&#45;&gt;Node7</title>
<path fill="none" stroke="midnightblue" d="M289.861,-129.68C305.371,-128.834 321.98,-127.928 337.274,-127.094"/>
<polygon fill="midnightblue" stroke="midnightblue" points="289.646,-126.187 279.852,-130.226 290.028,-133.176 289.646,-126.187"/>
</g>
<!-- Node9 -->
<g id="node9" class="node"><title>Node9</title>
<g id="a_node9"><a xlink:href="lib___a_t91_s_a_m7_s64_8h.html#a9cf180ac507975a8259e99352d233732" target="_top" xlink:title="AT91F_SPI_SendFrame">
<polygon fill="white" stroke="black" points="332,-76.5 332,-95.5 458,-95.5 458,-76.5 332,-76.5"/>
<text text-anchor="middle" x="395" y="-83.5" font-family="Helvetica,sans-Serif" font-size="10.00">AT91F_SPI_SendFrame</text>
</a>
</g>
</g>
<!-- Node8&#45;&gt;Node9 -->
<g id="edge8" class="edge"><title>Node8&#45;&gt;Node9</title>
<path fill="none" stroke="midnightblue" d="M303.838,-80.5356C313.214,-81.1039 322.724,-81.6802 331.877,-82.235"/>
<polygon fill="midnightblue" stroke="midnightblue" points="303.932,-77.035 293.739,-79.9236 303.509,-84.0222 303.932,-77.035"/>
</g>
<!-- Node10 -->
<g id="node10" class="node"><title>Node10</title>
<g id="a_node10"><a xlink:href="lib___a_t91_s_a_m7_s64_8h.html#ad69b884ddf6875c1e37a7a2bdcb624a4" target="_top" xlink:title="AT91F_SSC_SendFrame">
<polygon fill="white" stroke="black" points="330,-38.5 330,-57.5 460,-57.5 460,-38.5 330,-38.5"/>
<text text-anchor="middle" x="395" y="-45.5" font-family="Helvetica,sans-Serif" font-size="10.00">AT91F_SSC_SendFrame</text>
</a>
</g>
</g>
<!-- Node8&#45;&gt;Node10 -->
<g id="edge9" class="edge"><title>Node8&#45;&gt;Node10</title>
<path fill="none" stroke="midnightblue" d="M295.442,-64.7249C309.532,-62.3339 324.272,-59.8326 337.932,-57.5146"/>
<polygon fill="midnightblue" stroke="midnightblue" points="294.596,-61.3185 285.322,-66.4423 295.767,-68.2198 294.596,-61.3185"/>
</g>
<!-- Node11 -->
<g id="node11" class="node"><title>Node11</title>
<g id="a_node11"><a xlink:href="lib___a_t91_s_a_m7_s64_8h.html#abf1fd25f710588e80351fba226751bdf" target="_top" xlink:title="AT91F_US_SendFrame">
<polygon fill="white" stroke="black" points="333,-0.5 333,-19.5 457,-19.5 457,-0.5 333,-0.5"/>
<text text-anchor="middle" x="395" y="-7.5" font-family="Helvetica,sans-Serif" font-size="10.00">AT91F_US_SendFrame</text>
</a>
</g>
</g>
<!-- Node8&#45;&gt;Node11 -->
<g id="edge10" class="edge"><title>Node8&#45;&gt;Node11</title>
<path fill="none" stroke="midnightblue" d="M256.789,-61.7192C276.815,-51.7626 304.665,-38.596 330,-29 339.105,-25.5515 349.125,-22.3204 358.48,-19.5353"/>
<polygon fill="midnightblue" stroke="midnightblue" points="254.996,-58.7029 247.631,-66.3194 258.138,-64.958 254.996,-58.7029"/>
</g>
</g>
</svg>
