<?xml version="1.0" encoding="UTF-8" standalone="no"?>
<!DOCTYPE svg PUBLIC "-//W3C//DTD SVG 1.1//EN"
 "http://www.w3.org/Graphics/SVG/1.1/DTD/svg11.dtd">
<!-- Generated by graphviz version 2.30.1 (20130221.2233)
 -->
<!-- Title: AT91F_PMC_EnablePeriphClock Pages: 1 -->
<svg width="338pt" height="598pt"
 viewBox="0.00 0.00 338.00 598.00" xmlns="http://www.w3.org/2000/svg" xmlns:xlink="http://www.w3.org/1999/xlink">
<g id="graph0" class="graph" transform="scale(1 1) rotate(0) translate(4 594)">
<title>AT91F_PMC_EnablePeriphClock</title>
<polygon fill="white" stroke="white" points="-4,5 -4,-594 335,-594 335,5 -4,5"/>
<!-- Node1 -->
<g id="node1" class="node"><title>Node1</title>
<polygon fill="#bfbfbf" stroke="black" points="0.5,-285.5 0.5,-304.5 165.5,-304.5 165.5,-285.5 0.5,-285.5"/>
<text text-anchor="middle" x="83" y="-292.5" font-family="Helvetica,sans-Serif" font-size="10.00">AT91F_PMC_EnablePeriphClock</text>
</g>
<!-- Node2 -->
<g id="node2" class="node"><title>Node2</title>
<g id="a_node2"><a xlink:href="lib___a_t91_s_a_m7_s64_8h.html#a8dcd858499e80c3ef81f022532556c5c" target="_top" xlink:title="AT91F_ADC_CfgPMC">
<polygon fill="white" stroke="black" points="207.5,-570.5 207.5,-589.5 324.5,-589.5 324.5,-570.5 207.5,-570.5"/>
<text text-anchor="middle" x="266" y="-577.5" font-family="Helvetica,sans-Serif" font-size="10.00">AT91F_ADC_CfgPMC</text>
</a>
</g>
</g>
<!-- Node1&#45;&gt;Node2 -->
<g id="edge1" class="edge"><title>Node1&#45;&gt;Node2</title>
<path fill="none" stroke="midnightblue" d="M86.9922,-314.617C95.5164,-363.67 124.514,-492.614 202,-561 206.368,-564.855 211.497,-567.929 216.908,-570.378"/>
<polygon fill="midnightblue" stroke="midnightblue" points="90.4338,-313.975 85.3597,-304.674 83.5263,-315.109 90.4338,-313.975"/>
</g>
<!-- Node3 -->
<g id="node3" class="node"><title>Node3</title>
<g id="a_node3"><a xlink:href="lib___a_t91_s_a_m7_s64_8h.html#a79155a1e2bd0b16d5146467e10525d0b" target="_top" xlink:title="AT91F_AIC_CfgPMC">
<polygon fill="white" stroke="black" points="210,-532.5 210,-551.5 322,-551.5 322,-532.5 210,-532.5"/>
<text text-anchor="middle" x="266" y="-539.5" font-family="Helvetica,sans-Serif" font-size="10.00">AT91F_AIC_CfgPMC</text>
</a>
</g>
</g>
<!-- Node1&#45;&gt;Node3 -->
<g id="edge2" class="edge"><title>Node1&#45;&gt;Node3</title>
<path fill="none" stroke="midnightblue" d="M88.6168,-314.751C99.9611,-358.873 133.409,-466.035 202,-523 206.658,-526.868 212.087,-529.949 217.769,-532.403"/>
<polygon fill="midnightblue" stroke="midnightblue" points="91.9948,-313.83 86.201,-304.96 85.1987,-315.507 91.9948,-313.83"/>
</g>
<!-- Node4 -->
<g id="node4" class="node"><title>Node4</title>
<g id="a_node4"><a xlink:href="lib___a_t91_s_a_m7_s64_8h.html#af85b471b90d02eff97aef470a6bdf5d8" target="_top" xlink:title="AT91F_DBGU_CfgPMC">
<polygon fill="white" stroke="black" points="204,-494.5 204,-513.5 328,-513.5 328,-494.5 204,-494.5"/>
<text text-anchor="middle" x="266" y="-501.5" font-family="Helvetica,sans-Serif" font-size="10.00">AT91F_DBGU_CfgPMC</text>
</a>
</g>
</g>
<!-- Node1&#45;&gt;Node4 -->
<g id="edge3" class="edge"><title>Node1&#45;&gt;Node4</title>
<path fill="none" stroke="midnightblue" d="M90.5375,-314.017C104.664,-352.268 141.717,-438.793 202,-485 207.078,-488.892 212.948,-491.99 219.022,-494.456"/>
<polygon fill="midnightblue" stroke="midnightblue" points="93.8258,-312.818 87.1608,-304.582 87.2352,-315.177 93.8258,-312.818"/>
</g>
<!-- Node5 -->
<g id="node5" class="node"><title>Node5</title>
<g id="a_node5"><a xlink:href="lib___a_t91_s_a_m7_s64_8h.html#a27d79e5bbddb5d37fd2801ec975c615e" target="_top" xlink:title="AT91F_MC_CfgPMC">
<polygon fill="white" stroke="black" points="210.5,-456.5 210.5,-475.5 321.5,-475.5 321.5,-456.5 210.5,-456.5"/>
<text text-anchor="middle" x="266" y="-463.5" font-family="Helvetica,sans-Serif" font-size="10.00">AT91F_MC_CfgPMC</text>
</a>
</g>
</g>
<!-- Node1&#45;&gt;Node5 -->
<g id="edge4" class="edge"><title>Node1&#45;&gt;Node5</title>
<path fill="none" stroke="midnightblue" d="M93.6816,-314.111C110.989,-346.354 150.314,-411.504 202,-447 207.65,-450.88 214.113,-453.986 220.696,-456.466"/>
<polygon fill="midnightblue" stroke="midnightblue" points="96.5871,-312.115 88.8484,-304.878 90.3855,-315.361 96.5871,-312.115"/>
</g>
<!-- Node6 -->
<g id="node6" class="node"><title>Node6</title>
<g id="a_node6"><a xlink:href="lib___a_t91_s_a_m7_s64_8h.html#ab386280c73442a5558f4d418b5ba9045" target="_top" xlink:title="AT91F_PIOA_CfgPMC">
<polygon fill="white" stroke="black" points="206.5,-418.5 206.5,-437.5 325.5,-437.5 325.5,-418.5 206.5,-418.5"/>
<text text-anchor="middle" x="266" y="-425.5" font-family="Helvetica,sans-Serif" font-size="10.00">AT91F_PIOA_CfgPMC</text>
</a>
</g>
</g>
<!-- Node1&#45;&gt;Node6 -->
<g id="edge5" class="edge"><title>Node1&#45;&gt;Node6</title>
<path fill="none" stroke="midnightblue" d="M97.3983,-312.4C117.494,-337.337 157.824,-383.085 202,-409 208.503,-412.815 215.841,-415.926 223.15,-418.442"/>
<polygon fill="midnightblue" stroke="midnightblue" points="100.11,-310.186 91.1611,-304.513 94.6192,-314.528 100.11,-310.186"/>
</g>
<!-- Node7 -->
<g id="node7" class="node"><title>Node7</title>
<g id="a_node7"><a xlink:href="lib___a_t91_s_a_m7_s64_8h.html#a708ecf76e44c8bd26a1d823d91d1c83d" target="_top" xlink:title="AT91F_PMC_CfgPMC">
<polygon fill="white" stroke="black" points="207,-380.5 207,-399.5 325,-399.5 325,-380.5 207,-380.5"/>
<text text-anchor="middle" x="266" y="-387.5" font-family="Helvetica,sans-Serif" font-size="10.00">AT91F_PMC_CfgPMC</text>
</a>
</g>
</g>
<!-- Node1&#45;&gt;Node7 -->
<g id="edge6" class="edge"><title>Node1&#45;&gt;Node7</title>
<path fill="none" stroke="midnightblue" d="M104.624,-310.838C127.4,-327.703 165.673,-354.227 202,-371 209.883,-374.64 218.637,-377.793 227.052,-380.427"/>
<polygon fill="midnightblue" stroke="midnightblue" points="106.513,-307.88 96.4131,-304.678 102.311,-313.479 106.513,-307.88"/>
</g>
<!-- Node8 -->
<g id="node8" class="node"><title>Node8</title>
<g id="a_node8"><a xlink:href="lib___a_t91_s_a_m7_s64_8h.html#aa216783dfc0231aec2a5a05538db3baa" target="_top" xlink:title="AT91F_PWMC_CfgPMC">
<polygon fill="white" stroke="black" points="202.5,-342.5 202.5,-361.5 329.5,-361.5 329.5,-342.5 202.5,-342.5"/>
<text text-anchor="middle" x="266" y="-349.5" font-family="Helvetica,sans-Serif" font-size="10.00">AT91F_PWMC_CfgPMC</text>
</a>
</g>
</g>
<!-- Node1&#45;&gt;Node8 -->
<g id="edge7" class="edge"><title>Node1&#45;&gt;Node8</title>
<path fill="none" stroke="midnightblue" d="M122.781,-307.69C145.775,-315.163 175.511,-324.741 202,-333 212.034,-336.128 222.992,-339.462 232.915,-342.449"/>
<polygon fill="midnightblue" stroke="midnightblue" points="123.64,-304.289 113.048,-304.521 121.473,-310.945 123.64,-304.289"/>
</g>
<!-- Node9 -->
<g id="node9" class="node"><title>Node9</title>
<g id="a_node9"><a xlink:href="lib___a_t91_s_a_m7_s64_8h.html#a6416b2b6aaaecc83e187dddba39ca1fb" target="_top" xlink:title="AT91F_SPI_CfgPMC">
<polygon fill="white" stroke="black" points="210,-304.5 210,-323.5 322,-323.5 322,-304.5 210,-304.5"/>
<text text-anchor="middle" x="266" y="-311.5" font-family="Helvetica,sans-Serif" font-size="10.00">AT91F_SPI_CfgPMC</text>
</a>
</g>
</g>
<!-- Node1&#45;&gt;Node9 -->
<g id="edge8" class="edge"><title>Node1&#45;&gt;Node9</title>
<path fill="none" stroke="midnightblue" d="M175.917,-304.649C187.485,-305.863 199.022,-307.074 209.772,-308.203"/>
<polygon fill="midnightblue" stroke="midnightblue" points="176.073,-301.146 165.763,-303.583 175.343,-308.108 176.073,-301.146"/>
</g>
<!-- Node10 -->
<g id="node10" class="node"><title>Node10</title>
<g id="a_node10"><a xlink:href="lib___a_t91_s_a_m7_s64_8h.html#aad1e09250f06b9594c64db3d751ad884" target="_top" xlink:title="AT91F_SSC_CfgPMC">
<polygon fill="white" stroke="black" points="208,-266.5 208,-285.5 324,-285.5 324,-266.5 208,-266.5"/>
<text text-anchor="middle" x="266" y="-273.5" font-family="Helvetica,sans-Serif" font-size="10.00">AT91F_SSC_CfgPMC</text>
</a>
</g>
</g>
<!-- Node1&#45;&gt;Node10 -->
<g id="edge9" class="edge"><title>Node1&#45;&gt;Node10</title>
<path fill="none" stroke="midnightblue" d="M175.805,-285.363C186.752,-284.214 197.673,-283.067 207.928,-281.991"/>
<polygon fill="midnightblue" stroke="midnightblue" points="175.343,-281.892 165.763,-286.417 176.073,-288.854 175.343,-281.892"/>
</g>
<!-- Node11 -->
<g id="node11" class="node"><title>Node11</title>
<g id="a_node11"><a xlink:href="lib___a_t91_s_a_m7_s64_8h.html#ac35ffc55e9516215597c2abf21c5c62a" target="_top" xlink:title="AT91F_TC0_CfgPMC">
<polygon fill="white" stroke="black" points="209,-228.5 209,-247.5 323,-247.5 323,-228.5 209,-228.5"/>
<text text-anchor="middle" x="266" y="-235.5" font-family="Helvetica,sans-Serif" font-size="10.00">AT91F_TC0_CfgPMC</text>
</a>
</g>
</g>
<!-- Node1&#45;&gt;Node11 -->
<g id="edge10" class="edge"><title>Node1&#45;&gt;Node11</title>
<path fill="none" stroke="midnightblue" d="M122.781,-282.31C145.775,-274.837 175.511,-265.259 202,-257 212.034,-253.872 222.992,-250.538 232.915,-247.551"/>
<polygon fill="midnightblue" stroke="midnightblue" points="121.473,-279.055 113.048,-285.479 123.64,-285.711 121.473,-279.055"/>
</g>
<!-- Node12 -->
<g id="node12" class="node"><title>Node12</title>
<g id="a_node12"><a xlink:href="lib___a_t91_s_a_m7_s64_8h.html#a2b4f14bea2d16c80a8a41b94761fa942" target="_top" xlink:title="AT91F_TC1_CfgPMC">
<polygon fill="white" stroke="black" points="209,-190.5 209,-209.5 323,-209.5 323,-190.5 209,-190.5"/>
<text text-anchor="middle" x="266" y="-197.5" font-family="Helvetica,sans-Serif" font-size="10.00">AT91F_TC1_CfgPMC</text>
</a>
</g>
</g>
<!-- Node1&#45;&gt;Node12 -->
<g id="edge11" class="edge"><title>Node1&#45;&gt;Node12</title>
<path fill="none" stroke="midnightblue" d="M104.624,-279.162C127.4,-262.297 165.673,-235.773 202,-219 209.883,-215.36 218.637,-212.207 227.052,-209.573"/>
<polygon fill="midnightblue" stroke="midnightblue" points="102.311,-276.521 96.4131,-285.322 106.513,-282.12 102.311,-276.521"/>
</g>
<!-- Node13 -->
<g id="node13" class="node"><title>Node13</title>
<g id="a_node13"><a xlink:href="lib___a_t91_s_a_m7_s64_8h.html#a040a1b7de4ddf4bd73313d3834fc4fdd" target="_top" xlink:title="AT91F_TC2_CfgPMC">
<polygon fill="white" stroke="black" points="209,-152.5 209,-171.5 323,-171.5 323,-152.5 209,-152.5"/>
<text text-anchor="middle" x="266" y="-159.5" font-family="Helvetica,sans-Serif" font-size="10.00">AT91F_TC2_CfgPMC</text>
</a>
</g>
</g>
<!-- Node1&#45;&gt;Node13 -->
<g id="edge12" class="edge"><title>Node1&#45;&gt;Node13</title>
<path fill="none" stroke="midnightblue" d="M97.3983,-277.6C117.494,-252.663 157.824,-206.915 202,-181 208.503,-177.185 215.841,-174.074 223.15,-171.558"/>
<polygon fill="midnightblue" stroke="midnightblue" points="94.6192,-275.472 91.1611,-285.487 100.11,-279.814 94.6192,-275.472"/>
</g>
<!-- Node14 -->
<g id="node14" class="node"><title>Node14</title>
<g id="a_node14"><a xlink:href="lib___a_t91_s_a_m7_s64_8h.html#a51c7c79fb28f540454214bc469926b1e" target="_top" xlink:title="AT91F_TWI_CfgPMC">
<polygon fill="white" stroke="black" points="209,-114.5 209,-133.5 323,-133.5 323,-114.5 209,-114.5"/>
<text text-anchor="middle" x="266" y="-121.5" font-family="Helvetica,sans-Serif" font-size="10.00">AT91F_TWI_CfgPMC</text>
</a>
</g>
</g>
<!-- Node1&#45;&gt;Node14 -->
<g id="edge13" class="edge"><title>Node1&#45;&gt;Node14</title>
<path fill="none" stroke="midnightblue" d="M93.6816,-275.889C110.989,-243.646 150.314,-178.496 202,-143 207.65,-139.12 214.113,-136.014 220.696,-133.534"/>
<polygon fill="midnightblue" stroke="midnightblue" points="90.3855,-274.639 88.8484,-285.122 96.5871,-277.885 90.3855,-274.639"/>
</g>
<!-- Node15 -->
<g id="node15" class="node"><title>Node15</title>
<g id="a_node15"><a xlink:href="lib___a_t91_s_a_m7_s64_8h.html#a8302a993efb6366aea67be2ff4b42db3" target="_top" xlink:title="AT91F_UDP_CfgPMC">
<polygon fill="white" stroke="black" points="207.5,-76.5 207.5,-95.5 324.5,-95.5 324.5,-76.5 207.5,-76.5"/>
<text text-anchor="middle" x="266" y="-83.5" font-family="Helvetica,sans-Serif" font-size="10.00">AT91F_UDP_CfgPMC</text>
</a>
</g>
</g>
<!-- Node1&#45;&gt;Node15 -->
<g id="edge14" class="edge"><title>Node1&#45;&gt;Node15</title>
<path fill="none" stroke="midnightblue" d="M90.5375,-275.983C104.664,-237.732 141.717,-151.207 202,-105 207.078,-101.108 212.948,-98.0097 219.022,-95.544"/>
<polygon fill="midnightblue" stroke="midnightblue" points="87.2352,-274.823 87.1608,-285.418 93.8258,-277.182 87.2352,-274.823"/>
</g>
<!-- Node16 -->
<g id="node16" class="node"><title>Node16</title>
<g id="a_node16"><a xlink:href="lib___a_t91_s_a_m7_s64_8h.html#ade44121449196dfc9bef195825fbf76e" target="_top" xlink:title="AT91F_US0_CfgPMC">
<polygon fill="white" stroke="black" points="208.5,-38.5 208.5,-57.5 323.5,-57.5 323.5,-38.5 208.5,-38.5"/>
<text text-anchor="middle" x="266" y="-45.5" font-family="Helvetica,sans-Serif" font-size="10.00">AT91F_US0_CfgPMC</text>
</a>
</g>
</g>
<!-- Node1&#45;&gt;Node16 -->
<g id="edge15" class="edge"><title>Node1&#45;&gt;Node16</title>
<path fill="none" stroke="midnightblue" d="M88.6168,-275.249C99.9611,-231.127 133.409,-123.965 202,-67 206.658,-63.1316 212.087,-60.0506 217.769,-57.5968"/>
<polygon fill="midnightblue" stroke="midnightblue" points="85.1987,-274.493 86.201,-285.04 91.9948,-276.17 85.1987,-274.493"/>
</g>
<!-- Node17 -->
<g id="node17" class="node"><title>Node17</title>
<g id="a_node17"><a xlink:href="lib___a_t91_s_a_m7_s64_8h.html#a278b7419f9f39265d7dc9252b2f9c7ab" target="_top" xlink:title="AT91F_US1_CfgPMC">
<polygon fill="white" stroke="black" points="208.5,-0.5 208.5,-19.5 323.5,-19.5 323.5,-0.5 208.5,-0.5"/>
<text text-anchor="middle" x="266" y="-7.5" font-family="Helvetica,sans-Serif" font-size="10.00">AT91F_US1_CfgPMC</text>
</a>
</g>
</g>
<!-- Node1&#45;&gt;Node17 -->
<g id="edge16" class="edge"><title>Node1&#45;&gt;Node17</title>
<path fill="none" stroke="midnightblue" d="M86.9922,-275.383C95.5164,-226.33 124.514,-97.3856 202,-29 206.368,-25.1447 211.497,-22.0714 216.908,-19.6216"/>
<polygon fill="midnightblue" stroke="midnightblue" points="83.5263,-274.891 85.3597,-285.326 90.4338,-276.025 83.5263,-274.891"/>
</g>
</g>
</svg>
