<?xml version="1.0" encoding="UTF-8" standalone="no"?>
<!DOCTYPE svg PUBLIC "-//W3C//DTD SVG 1.1//EN"
 "http://www.w3.org/Graphics/SVG/1.1/DTD/svg11.dtd">
<!-- Generated by graphviz version 2.30.1 (20130221.2233)
 -->
<!-- Title: AT91F_SSC_Configure Pages: 1 -->
<svg width="464pt" height="294pt"
 viewBox="0.00 0.00 464.00 294.00" xmlns="http://www.w3.org/2000/svg" xmlns:xlink="http://www.w3.org/1999/xlink">
<g id="graph0" class="graph" transform="scale(1 1) rotate(0) translate(4 290)">
<title>AT91F_SSC_Configure</title>
<polygon fill="white" stroke="white" points="-4,5 -4,-290 461,-290 461,5 -4,5"/>
<!-- Node1 -->
<g id="node1" class="node"><title>Node1</title>
<polygon fill="#bfbfbf" stroke="black" points="0,-114.5 0,-133.5 122,-133.5 122,-114.5 0,-114.5"/>
<text text-anchor="middle" x="61" y="-121.5" font-family="Helvetica,sans-Serif" font-size="10.00">AT91F_SSC_Configure</text>
</g>
<!-- Node2 -->
<g id="node2" class="node"><title>Node2</title>
<g id="a_node2"><a xlink:href="lib___a_t91_s_a_m7_s64_8h.html#a943bb6125d66d7956df049c6989f00f1" target="_top" xlink:title="AT91F_PDC_Open">
<polygon fill="white" stroke="black" points="173.5,-133.5 173.5,-152.5 276.5,-152.5 276.5,-133.5 173.5,-133.5"/>
<text text-anchor="middle" x="225" y="-140.5" font-family="Helvetica,sans-Serif" font-size="10.00">AT91F_PDC_Open</text>
</a>
</g>
</g>
<!-- Node1&#45;&gt;Node2 -->
<g id="edge1" class="edge"><title>Node1&#45;&gt;Node2</title>
<path fill="none" stroke="midnightblue" d="M122.323,-131.075C135.728,-132.647 149.943,-134.314 163.361,-135.888"/>
<polygon fill="midnightblue" stroke="midnightblue" points="163.1,-139.381 173.44,-137.07 163.916,-132.429 163.1,-139.381"/>
</g>
<!-- Node11 -->
<g id="node11" class="node"><title>Node11</title>
<g id="a_node11"><a xlink:href="lib___a_t91_s_a_m7_s64_8h.html#ae9e3b487a5fa77d67c7602dad996e0a7" target="_top" xlink:title="AT91F_SSC_SetBaudrate">
<polygon fill="white" stroke="black" points="158,-95.5 158,-114.5 292,-114.5 292,-95.5 158,-95.5"/>
<text text-anchor="middle" x="225" y="-102.5" font-family="Helvetica,sans-Serif" font-size="10.00">AT91F_SSC_SetBaudrate</text>
</a>
</g>
</g>
<!-- Node1&#45;&gt;Node11 -->
<g id="edge10" class="edge"><title>Node1&#45;&gt;Node11</title>
<path fill="none" stroke="midnightblue" d="M122.323,-116.925C130.664,-115.947 139.318,-114.932 147.899,-113.925"/>
<polygon fill="midnightblue" stroke="midnightblue" points="148.391,-117.392 157.915,-112.751 147.575,-110.439 148.391,-117.392"/>
</g>
<!-- Node3 -->
<g id="node3" class="node"><title>Node3</title>
<g id="a_node3"><a xlink:href="lib___a_t91_s_a_m7_s64_8h.html#a065419f8fc40760b2db4773c57812ac5" target="_top" xlink:title="AT91F_PDC_DisableRx">
<polygon fill="white" stroke="black" points="330,-266.5 330,-285.5 454,-285.5 454,-266.5 330,-266.5"/>
<text text-anchor="middle" x="392" y="-273.5" font-family="Helvetica,sans-Serif" font-size="10.00">AT91F_PDC_DisableRx</text>
</a>
</g>
</g>
<!-- Node2&#45;&gt;Node3 -->
<g id="edge2" class="edge"><title>Node2&#45;&gt;Node3</title>
<path fill="none" stroke="midnightblue" d="M231.866,-152.555C245.771,-174.405 282.97,-228.333 328,-257 331.32,-259.114 334.888,-261.003 338.576,-262.689"/>
<polygon fill="midnightblue" stroke="midnightblue" points="337.338,-265.964 347.921,-266.476 339.968,-259.476 337.338,-265.964"/>
</g>
<!-- Node4 -->
<g id="node4" class="node"><title>Node4</title>
<g id="a_node4"><a xlink:href="lib___a_t91_s_a_m7_s64_8h.html#a232c924087e392d02daf17acf4b9be52" target="_top" xlink:title="AT91F_PDC_DisableTx">
<polygon fill="white" stroke="black" points="330.5,-228.5 330.5,-247.5 453.5,-247.5 453.5,-228.5 330.5,-228.5"/>
<text text-anchor="middle" x="392" y="-235.5" font-family="Helvetica,sans-Serif" font-size="10.00">AT91F_PDC_DisableTx</text>
</a>
</g>
</g>
<!-- Node2&#45;&gt;Node4 -->
<g id="edge3" class="edge"><title>Node2&#45;&gt;Node4</title>
<path fill="none" stroke="midnightblue" d="M236.198,-152.538C253.693,-168.433 291.119,-200.422 328,-219 332.362,-221.197 337.023,-223.19 341.763,-224.986"/>
<polygon fill="midnightblue" stroke="midnightblue" points="340.937,-228.405 351.532,-228.398 343.245,-221.797 340.937,-228.405"/>
</g>
<!-- Node5 -->
<g id="node5" class="node"><title>Node5</title>
<g id="a_node5"><a xlink:href="lib___a_t91_s_a_m7_s64_8h.html#aa8532ddcc7f440a628adc6f75e1a00e2" target="_top" xlink:title="AT91F_PDC_EnableRx">
<polygon fill="white" stroke="black" points="331,-190.5 331,-209.5 453,-209.5 453,-190.5 331,-190.5"/>
<text text-anchor="middle" x="392" y="-197.5" font-family="Helvetica,sans-Serif" font-size="10.00">AT91F_PDC_EnableRx</text>
</a>
</g>
</g>
<!-- Node2&#45;&gt;Node5 -->
<g id="edge4" class="edge"><title>Node2&#45;&gt;Node5</title>
<path fill="none" stroke="midnightblue" d="M250.576,-152.657C271.139,-160.617 301.315,-172.015 328,-181 334.474,-183.18 341.361,-185.378 348.115,-187.467"/>
<polygon fill="midnightblue" stroke="midnightblue" points="347.265,-190.867 357.851,-190.434 349.306,-184.171 347.265,-190.867"/>
</g>
<!-- Node6 -->
<g id="node6" class="node"><title>Node6</title>
<g id="a_node6"><a xlink:href="lib___a_t91_s_a_m7_s64_8h.html#a5ac6178dea9c718b3236651a9c33ceb6" target="_top" xlink:title="AT91F_PDC_EnableTx">
<polygon fill="white" stroke="black" points="331.5,-152.5 331.5,-171.5 452.5,-171.5 452.5,-152.5 331.5,-152.5"/>
<text text-anchor="middle" x="392" y="-159.5" font-family="Helvetica,sans-Serif" font-size="10.00">AT91F_PDC_EnableTx</text>
</a>
</g>
</g>
<!-- Node2&#45;&gt;Node6 -->
<g id="edge5" class="edge"><title>Node2&#45;&gt;Node6</title>
<path fill="none" stroke="midnightblue" d="M276.852,-148.856C290.854,-150.468 306.29,-152.245 321.163,-153.958"/>
<polygon fill="midnightblue" stroke="midnightblue" points="321.011,-157.464 331.346,-155.131 321.812,-150.51 321.011,-157.464"/>
</g>
<!-- Node7 -->
<g id="node7" class="node"><title>Node7</title>
<g id="a_node7"><a xlink:href="lib___a_t91_s_a_m7_s64_8h.html#a90529726eb41ee44d45f3bb99923b2ef" target="_top" xlink:title="AT91F_PDC_SetNextRx">
<polygon fill="white" stroke="black" points="328.5,-114.5 328.5,-133.5 455.5,-133.5 455.5,-114.5 328.5,-114.5"/>
<text text-anchor="middle" x="392" y="-121.5" font-family="Helvetica,sans-Serif" font-size="10.00">AT91F_PDC_SetNextRx</text>
</a>
</g>
</g>
<!-- Node2&#45;&gt;Node7 -->
<g id="edge6" class="edge"><title>Node2&#45;&gt;Node7</title>
<path fill="none" stroke="midnightblue" d="M276.852,-137.144C289.957,-135.635 304.319,-133.981 318.3,-132.372"/>
<polygon fill="midnightblue" stroke="midnightblue" points="318.855,-135.831 328.389,-131.21 318.054,-128.877 318.855,-135.831"/>
</g>
<!-- Node8 -->
<g id="node8" class="node"><title>Node8</title>
<g id="a_node8"><a xlink:href="lib___a_t91_s_a_m7_s64_8h.html#aa0b8b8b33d4b6514714851b653a011eb" target="_top" xlink:title="AT91F_PDC_SetNextTx">
<polygon fill="white" stroke="black" points="329.5,-76.5 329.5,-95.5 454.5,-95.5 454.5,-76.5 329.5,-76.5"/>
<text text-anchor="middle" x="392" y="-83.5" font-family="Helvetica,sans-Serif" font-size="10.00">AT91F_PDC_SetNextTx</text>
</a>
</g>
</g>
<!-- Node2&#45;&gt;Node8 -->
<g id="edge7" class="edge"><title>Node2&#45;&gt;Node8</title>
<path fill="none" stroke="midnightblue" d="M264.146,-133.461C273.389,-130.757 283.152,-127.564 292,-124 308.781,-117.24 311.262,-111.866 328,-105 333.485,-102.75 339.334,-100.632 345.175,-98.6841"/>
<polygon fill="midnightblue" stroke="midnightblue" points="346.467,-101.946 354.932,-95.5741 344.341,-95.2765 346.467,-101.946"/>
</g>
<!-- Node9 -->
<g id="node9" class="node"><title>Node9</title>
<g id="a_node9"><a xlink:href="lib___a_t91_s_a_m7_s64_8h.html#af3a2086c959ae5ea3b73fcfc09bb46fb" target="_top" xlink:title="AT91F_PDC_SetRx">
<polygon fill="white" stroke="black" points="339,-38.5 339,-57.5 445,-57.5 445,-38.5 339,-38.5"/>
<text text-anchor="middle" x="392" y="-45.5" font-family="Helvetica,sans-Serif" font-size="10.00">AT91F_PDC_SetRx</text>
</a>
</g>
</g>
<!-- Node2&#45;&gt;Node9 -->
<g id="edge8" class="edge"><title>Node2&#45;&gt;Node9</title>
<path fill="none" stroke="midnightblue" d="M274.81,-133.399C280.937,-130.945 286.85,-127.865 292,-124 315.963,-106.013 304.151,-85.1378 328,-67 330.467,-65.1242 333.118,-63.4326 335.887,-61.9072"/>
<polygon fill="midnightblue" stroke="midnightblue" points="337.502,-65.015 345.049,-57.5792 334.512,-58.6856 337.502,-65.015"/>
</g>
<!-- Node10 -->
<g id="node10" class="node"><title>Node10</title>
<g id="a_node10"><a xlink:href="lib___a_t91_s_a_m7_s64_8h.html#ad32f369ef9e9f0f395e577e1ed1652df" target="_top" xlink:title="AT91F_PDC_SetTx">
<polygon fill="white" stroke="black" points="339.5,-0.5 339.5,-19.5 444.5,-19.5 444.5,-0.5 339.5,-0.5"/>
<text text-anchor="middle" x="392" y="-7.5" font-family="Helvetica,sans-Serif" font-size="10.00">AT91F_PDC_SetTx</text>
</a>
</g>
</g>
<!-- Node2&#45;&gt;Node10 -->
<g id="edge9" class="edge"><title>Node2&#45;&gt;Node10</title>
<path fill="none" stroke="midnightblue" d="M276.582,-133.888C282.218,-131.353 287.528,-128.12 292,-124 325.208,-93.4069 294.985,-59.8019 328,-29 329.697,-27.417 331.521,-25.9656 333.441,-24.6348"/>
<polygon fill="midnightblue" stroke="midnightblue" points="335.428,-27.531 342.384,-19.5393 331.963,-21.449 335.428,-27.531"/>
</g>
</g>
</svg>
