<?xml version="1.0" encoding="UTF-8" standalone="no"?>
<!DOCTYPE svg PUBLIC "-//W3C//DTD SVG 1.1//EN"
 "http://www.w3.org/Graphics/SVG/1.1/DTD/svg11.dtd">
<!-- Generated by graphviz version 2.30.1 (20130221.2233)
 -->
<!-- Title: AT91F_PDC_SetTx Pages: 1 -->
<svg width="448pt" height="256pt"
 viewBox="0.00 0.00 448.00 256.00" xmlns="http://www.w3.org/2000/svg" xmlns:xlink="http://www.w3.org/1999/xlink">
<g id="graph0" class="graph" transform="scale(1 1) rotate(0) translate(4 252)">
<title>AT91F_PDC_SetTx</title>
<polygon fill="white" stroke="white" points="-4,5 -4,-252 445,-252 445,5 -4,5"/>
<!-- Node1 -->
<g id="node1" class="node"><title>Node1</title>
<polygon fill="#bfbfbf" stroke="black" points="0.5,-123.5 0.5,-142.5 105.5,-142.5 105.5,-123.5 0.5,-123.5"/>
<text text-anchor="middle" x="53" y="-130.5" font-family="Helvetica,sans-Serif" font-size="10.00">AT91F_PDC_SetTx</text>
</g>
<!-- Node2 -->
<g id="node2" class="node"><title>Node2</title>
<g id="a_node2"><a xlink:href="lib___a_t91_s_a_m7_x128_8h.html#ae7a00663d9b586d0060d83e4c3e1921f" target="_top" xlink:title="AT91F_PDC_Close">
<polygon fill="white" stroke="black" points="156,-190.5 156,-209.5 260,-209.5 260,-190.5 156,-190.5"/>
<text text-anchor="middle" x="208" y="-197.5" font-family="Helvetica,sans-Serif" font-size="10.00">AT91F_PDC_Close</text>
</a>
</g>
</g>
<!-- Node1&#45;&gt;Node2 -->
<g id="edge1" class="edge"><title>Node1&#45;&gt;Node2</title>
<path fill="none" stroke="midnightblue" d="M85.4167,-146.758C115.149,-159.778 159.007,-178.983 185.119,-190.418"/>
<polygon fill="midnightblue" stroke="midnightblue" points="86.4854,-143.405 75.9212,-142.599 83.6774,-149.817 86.4854,-143.405"/>
</g>
<!-- Node5 -->
<g id="node5" class="node"><title>Node5</title>
<g id="a_node5"><a xlink:href="lib___a_t91_s_a_m7_x128_8h.html#a943bb6125d66d7956df049c6989f00f1" target="_top" xlink:title="AT91F_PDC_Open">
<polygon fill="white" stroke="black" points="156.5,-123.5 156.5,-142.5 259.5,-142.5 259.5,-123.5 156.5,-123.5"/>
<text text-anchor="middle" x="208" y="-130.5" font-family="Helvetica,sans-Serif" font-size="10.00">AT91F_PDC_Open</text>
</a>
</g>
</g>
<!-- Node1&#45;&gt;Node5 -->
<g id="edge4" class="edge"><title>Node1&#45;&gt;Node5</title>
<path fill="none" stroke="midnightblue" d="M115.909,-133C129.327,-133 143.366,-133 156.292,-133"/>
<polygon fill="midnightblue" stroke="midnightblue" points="115.799,-129.5 105.799,-133 115.799,-136.5 115.799,-129.5"/>
</g>
<!-- Node8 -->
<g id="node8" class="node"><title>Node8</title>
<g id="a_node8"><a xlink:href="lib___a_t91_s_a_m7_x128_8h.html#a69b0e9baa0272a3febd549034aad1fcb" target="_top" xlink:title="AT91F_PDC_SendFrame">
<polygon fill="white" stroke="black" points="142.5,-66.5 142.5,-85.5 273.5,-85.5 273.5,-66.5 142.5,-66.5"/>
<text text-anchor="middle" x="208" y="-73.5" font-family="Helvetica,sans-Serif" font-size="10.00">AT91F_PDC_SendFrame</text>
</a>
</g>
</g>
<!-- Node1&#45;&gt;Node8 -->
<g id="edge7" class="edge"><title>Node1&#45;&gt;Node8</title>
<path fill="none" stroke="midnightblue" d="M89.0705,-119.935C117.194,-109.457 156.014,-94.9949 181.308,-85.5716"/>
<polygon fill="midnightblue" stroke="midnightblue" points="87.7577,-116.689 79.6088,-123.459 90.2015,-123.248 87.7577,-116.689"/>
</g>
<!-- Node3 -->
<g id="node3" class="node"><title>Node3</title>
<g id="a_node3"><a xlink:href="lib___a_t91_s_a_m7_x128_8h.html#a1d538178f15852104ef39cbb837504c3" target="_top" xlink:title="AT91F_SPI_Close">
<polygon fill="white" stroke="black" points="325.5,-228.5 325.5,-247.5 424.5,-247.5 424.5,-228.5 325.5,-228.5"/>
<text text-anchor="middle" x="375" y="-235.5" font-family="Helvetica,sans-Serif" font-size="10.00">AT91F_SPI_Close</text>
</a>
</g>
</g>
<!-- Node2&#45;&gt;Node3 -->
<g id="edge2" class="edge"><title>Node2&#45;&gt;Node3</title>
<path fill="none" stroke="midnightblue" d="M260.654,-211.896C283.846,-217.237 310.838,-223.454 332.663,-228.48"/>
<polygon fill="midnightblue" stroke="midnightblue" points="261.167,-208.423 250.636,-209.589 259.596,-215.244 261.167,-208.423"/>
</g>
<!-- Node4 -->
<g id="node4" class="node"><title>Node4</title>
<g id="a_node4"><a xlink:href="lib___a_t91_s_a_m7_x128_8h.html#a7b4bbc35e32ebaa01d042c344ff4ded0" target="_top" xlink:title="AT91F_US_Close">
<polygon fill="white" stroke="black" points="326.5,-190.5 326.5,-209.5 423.5,-209.5 423.5,-190.5 326.5,-190.5"/>
<text text-anchor="middle" x="375" y="-197.5" font-family="Helvetica,sans-Serif" font-size="10.00">AT91F_US_Close</text>
</a>
</g>
</g>
<!-- Node2&#45;&gt;Node4 -->
<g id="edge3" class="edge"><title>Node2&#45;&gt;Node4</title>
<path fill="none" stroke="midnightblue" d="M270.399,-200C288.901,-200 308.921,-200 326.384,-200"/>
<polygon fill="midnightblue" stroke="midnightblue" points="270.303,-196.5 260.303,-200 270.303,-203.5 270.303,-196.5"/>
</g>
<!-- Node6 -->
<g id="node6" class="node"><title>Node6</title>
<g id="a_node6"><a xlink:href="lib___a_t91_s_a_m7_x128_8h.html#aa9745e47a0642596e61432ffbc890080" target="_top" xlink:title="AT91F_SSC_Configure">
<polygon fill="white" stroke="black" points="314,-152.5 314,-171.5 436,-171.5 436,-152.5 314,-152.5"/>
<text text-anchor="middle" x="375" y="-159.5" font-family="Helvetica,sans-Serif" font-size="10.00">AT91F_SSC_Configure</text>
</a>
</g>
</g>
<!-- Node5&#45;&gt;Node6 -->
<g id="edge5" class="edge"><title>Node5&#45;&gt;Node6</title>
<path fill="none" stroke="midnightblue" d="M269.875,-143.699C286.267,-146.58 303.886,-149.677 319.883,-152.488"/>
<polygon fill="midnightblue" stroke="midnightblue" points="270.307,-140.222 259.852,-141.938 269.095,-147.116 270.307,-140.222"/>
</g>
<!-- Node7 -->
<g id="node7" class="node"><title>Node7</title>
<g id="a_node7"><a xlink:href="lib___a_t91_s_a_m7_x128_8h.html#acbbed25fcf0256823175db5f1a8f1f39" target="_top" xlink:title="AT91F_US_Configure">
<polygon fill="white" stroke="black" points="317.5,-114.5 317.5,-133.5 432.5,-133.5 432.5,-114.5 317.5,-114.5"/>
<text text-anchor="middle" x="375" y="-121.5" font-family="Helvetica,sans-Serif" font-size="10.00">AT91F_US_Configure</text>
</a>
</g>
</g>
<!-- Node5&#45;&gt;Node7 -->
<g id="edge6" class="edge"><title>Node5&#45;&gt;Node7</title>
<path fill="none" stroke="midnightblue" d="M269.861,-129.68C285.371,-128.834 301.98,-127.928 317.274,-127.094"/>
<polygon fill="midnightblue" stroke="midnightblue" points="269.646,-126.187 259.852,-130.226 270.028,-133.176 269.646,-126.187"/>
</g>
<!-- Node9 -->
<g id="node9" class="node"><title>Node9</title>
<g id="a_node9"><a xlink:href="lib___a_t91_s_a_m7_x128_8h.html#a9cf180ac507975a8259e99352d233732" target="_top" xlink:title="AT91F_SPI_SendFrame">
<polygon fill="white" stroke="black" points="312,-76.5 312,-95.5 438,-95.5 438,-76.5 312,-76.5"/>
<text text-anchor="middle" x="375" y="-83.5" font-family="Helvetica,sans-Serif" font-size="10.00">AT91F_SPI_SendFrame</text>
</a>
</g>
</g>
<!-- Node8&#45;&gt;Node9 -->
<g id="edge8" class="edge"><title>Node8&#45;&gt;Node9</title>
<path fill="none" stroke="midnightblue" d="M283.838,-80.5356C293.214,-81.1039 302.724,-81.6802 311.877,-82.235"/>
<polygon fill="midnightblue" stroke="midnightblue" points="283.932,-77.035 273.739,-79.9236 283.509,-84.0222 283.932,-77.035"/>
</g>
<!-- Node10 -->
<g id="node10" class="node"><title>Node10</title>
<g id="a_node10"><a xlink:href="lib___a_t91_s_a_m7_x128_8h.html#ad69b884ddf6875c1e37a7a2bdcb624a4" target="_top" xlink:title="AT91F_SSC_SendFrame">
<polygon fill="white" stroke="black" points="310,-38.5 310,-57.5 440,-57.5 440,-38.5 310,-38.5"/>
<text text-anchor="middle" x="375" y="-45.5" font-family="Helvetica,sans-Serif" font-size="10.00">AT91F_SSC_SendFrame</text>
</a>
</g>
</g>
<!-- Node8&#45;&gt;Node10 -->
<g id="edge9" class="edge"><title>Node8&#45;&gt;Node10</title>
<path fill="none" stroke="midnightblue" d="M275.442,-64.7249C289.532,-62.3339 304.272,-59.8326 317.932,-57.5146"/>
<polygon fill="midnightblue" stroke="midnightblue" points="274.596,-61.3185 265.322,-66.4423 275.767,-68.2198 274.596,-61.3185"/>
</g>
<!-- Node11 -->
<g id="node11" class="node"><title>Node11</title>
<g id="a_node11"><a xlink:href="lib___a_t91_s_a_m7_x128_8h.html#abf1fd25f710588e80351fba226751bdf" target="_top" xlink:title="AT91F_US_SendFrame">
<polygon fill="white" stroke="black" points="313,-0.5 313,-19.5 437,-19.5 437,-0.5 313,-0.5"/>
<text text-anchor="middle" x="375" y="-7.5" font-family="Helvetica,sans-Serif" font-size="10.00">AT91F_US_SendFrame</text>
</a>
</g>
</g>
<!-- Node8&#45;&gt;Node11 -->
<g id="edge10" class="edge"><title>Node8&#45;&gt;Node11</title>
<path fill="none" stroke="midnightblue" d="M236.789,-61.7192C256.815,-51.7626 284.665,-38.596 310,-29 319.105,-25.5515 329.125,-22.3204 338.48,-19.5353"/>
<polygon fill="midnightblue" stroke="midnightblue" points="234.996,-58.7029 227.631,-66.3194 238.138,-64.958 234.996,-58.7029"/>
</g>
</g>
</svg>
