<?xml version="1.0" encoding="UTF-8" standalone="no"?>
<!DOCTYPE svg PUBLIC "-//W3C//DTD SVG 1.1//EN"
 "http://www.w3.org/Graphics/SVG/1.1/DTD/svg11.dtd">
<!-- Generated by graphviz version 2.30.1 (20130221.2233)
 -->
<!-- Title: AT91F_PDC_IsNextRxEmpty Pages: 1 -->
<svg width="516pt" height="104pt"
 viewBox="0.00 0.00 516.00 104.00" xmlns="http://www.w3.org/2000/svg" xmlns:xlink="http://www.w3.org/1999/xlink">
<g id="graph0" class="graph" transform="scale(1 1) rotate(0) translate(4 100)">
<title>AT91F_PDC_IsNextRxEmpty</title>
<polygon fill="white" stroke="white" points="-4,5 -4,-100 513,-100 513,5 -4,5"/>
<!-- Node1 -->
<g id="node1" class="node"><title>Node1</title>
<polygon fill="#bfbfbf" stroke="black" points="0,-38.5 0,-57.5 148,-57.5 148,-38.5 0,-38.5"/>
<text text-anchor="middle" x="74" y="-45.5" font-family="Helvetica,sans-Serif" font-size="10.00">AT91F_PDC_IsNextRxEmpty</text>
</g>
<!-- Node2 -->
<g id="node2" class="node"><title>Node2</title>
<g id="a_node2"><a xlink:href="lib___a_t91_s_a_m7_x128_8h.html#aafc2ac73bfe8e6584b59dfa99dcc734d" target="_top" xlink:title="AT91F_PDC_ReceiveFrame">
<polygon fill="white" stroke="black" points="184,-38.5 184,-57.5 328,-57.5 328,-38.5 184,-38.5"/>
<text text-anchor="middle" x="256" y="-45.5" font-family="Helvetica,sans-Serif" font-size="10.00">AT91F_PDC_ReceiveFrame</text>
</a>
</g>
</g>
<!-- Node1&#45;&gt;Node2 -->
<g id="edge1" class="edge"><title>Node1&#45;&gt;Node2</title>
<path fill="none" stroke="midnightblue" d="M158.225,-48C166.803,-48 175.463,-48 183.892,-48"/>
<polygon fill="midnightblue" stroke="midnightblue" points="158.213,-44.5001 148.213,-48 158.213,-51.5001 158.213,-44.5001"/>
</g>
<!-- Node3 -->
<g id="node3" class="node"><title>Node3</title>
<g id="a_node3"><a xlink:href="lib___a_t91_s_a_m7_x128_8h.html#a3fd88379fedca045387ceabc79da98f6" target="_top" xlink:title="AT91F_SPI_ReceiveFrame">
<polygon fill="white" stroke="black" points="366.5,-76.5 366.5,-95.5 505.5,-95.5 505.5,-76.5 366.5,-76.5"/>
<text text-anchor="middle" x="436" y="-83.5" font-family="Helvetica,sans-Serif" font-size="10.00">AT91F_SPI_ReceiveFrame</text>
</a>
</g>
</g>
<!-- Node2&#45;&gt;Node3 -->
<g id="edge2" class="edge"><title>Node2&#45;&gt;Node3</title>
<path fill="none" stroke="midnightblue" d="M311.716,-59.681C336.959,-65.0699 366.545,-71.3861 390.406,-76.4799"/>
<polygon fill="midnightblue" stroke="midnightblue" points="312.427,-56.254 301.917,-57.589 310.966,-63.0997 312.427,-56.254"/>
</g>
<!-- Node4 -->
<g id="node4" class="node"><title>Node4</title>
<g id="a_node4"><a xlink:href="lib___a_t91_s_a_m7_x128_8h.html#a413427ce949ec0321bf321a4c1b91cd1" target="_top" xlink:title="AT91F_US_ReceiveFrame">
<polygon fill="white" stroke="black" points="367.5,-38.5 367.5,-57.5 504.5,-57.5 504.5,-38.5 367.5,-38.5"/>
<text text-anchor="middle" x="436" y="-45.5" font-family="Helvetica,sans-Serif" font-size="10.00">AT91F_US_ReceiveFrame</text>
</a>
</g>
</g>
<!-- Node2&#45;&gt;Node4 -->
<g id="edge3" class="edge"><title>Node2&#45;&gt;Node4</title>
<path fill="none" stroke="midnightblue" d="M338.239,-48C348.015,-48 357.916,-48 367.467,-48"/>
<polygon fill="midnightblue" stroke="midnightblue" points="338.118,-44.5001 328.118,-48 338.118,-51.5001 338.118,-44.5001"/>
</g>
<!-- Node5 -->
<g id="node5" class="node"><title>Node5</title>
<g id="a_node5"><a xlink:href="lib___a_t91_s_a_m7_x128_8h.html#ae2e9978885885118d9106fb029b40b8a" target="_top" xlink:title="AT91F_SSC_ReceiveFrame">
<polygon fill="white" stroke="black" points="364.5,-0.5 364.5,-19.5 507.5,-19.5 507.5,-0.5 364.5,-0.5"/>
<text text-anchor="middle" x="436" y="-7.5" font-family="Helvetica,sans-Serif" font-size="10.00">AT91F_SSC_ReceiveFrame</text>
</a>
</g>
</g>
<!-- Node2&#45;&gt;Node5 -->
<g id="edge4" class="edge"><title>Node2&#45;&gt;Node5</title>
<path fill="none" stroke="midnightblue" d="M311.716,-36.319C336.959,-30.9301 366.545,-24.6139 390.406,-19.5201"/>
<polygon fill="midnightblue" stroke="midnightblue" points="310.966,-32.9003 301.917,-38.411 312.427,-39.746 310.966,-32.9003"/>
</g>
</g>
</svg>
