<?xml version="1.0" encoding="UTF-8" standalone="no"?>
<!DOCTYPE svg PUBLIC "-//W3C//DTD SVG 1.1//EN"
 "http://www.w3.org/Graphics/SVG/1.1/DTD/svg11.dtd">
<!-- Generated by graphviz version 2.30.1 (20130221.2233)
 -->
<!-- Title: AT91F_PDC_ReceiveFrame Pages: 1 -->
<svg width="336pt" height="142pt"
 viewBox="0.00 0.00 336.00 142.00" xmlns="http://www.w3.org/2000/svg" xmlns:xlink="http://www.w3.org/1999/xlink">
<g id="graph0" class="graph" transform="scale(1 1) rotate(0) translate(4 138)">
<title>AT91F_PDC_ReceiveFrame</title>
<polygon fill="white" stroke="white" points="-4,5 -4,-138 333,-138 333,5 -4,5"/>
<!-- Node1 -->
<g id="node1" class="node"><title>Node1</title>
<polygon fill="#bfbfbf" stroke="black" points="0,-57.5 0,-76.5 144,-76.5 144,-57.5 0,-57.5"/>
<text text-anchor="middle" x="72" y="-64.5" font-family="Helvetica,sans-Serif" font-size="10.00">AT91F_PDC_ReceiveFrame</text>
</g>
<!-- Node2 -->
<g id="node2" class="node"><title>Node2</title>
<g id="a_node2"><a xlink:href="lib___a_t91_s_a_m7_s64_8h.html#ae073ed106e68b56986c7e7d1f54645c3" target="_top" xlink:title="AT91F_PDC_IsNextRxEmpty">
<polygon fill="white" stroke="black" points="180,-114.5 180,-133.5 328,-133.5 328,-114.5 180,-114.5"/>
<text text-anchor="middle" x="254" y="-121.5" font-family="Helvetica,sans-Serif" font-size="10.00">AT91F_PDC_IsNextRxEmpty</text>
</a>
</g>
</g>
<!-- Node1&#45;&gt;Node2 -->
<g id="edge1" class="edge"><title>Node1&#45;&gt;Node2</title>
<path fill="none" stroke="midnightblue" d="M97.8743,-76.5241C119.431,-84.6114 151.545,-96.262 180,-105 187.743,-107.378 196.006,-109.716 204.085,-111.894"/>
<polygon fill="midnightblue" stroke="midnightblue" points="203.24,-115.291 213.802,-114.464 205.03,-108.523 203.24,-115.291"/>
</g>
<!-- Node3 -->
<g id="node3" class="node"><title>Node3</title>
<g id="a_node3"><a xlink:href="lib___a_t91_s_a_m7_s64_8h.html#a9d1c7d81accef655c0e89b2bc3a3bcca" target="_top" xlink:title="AT91F_PDC_IsRxEmpty">
<polygon fill="white" stroke="black" points="190.5,-76.5 190.5,-95.5 317.5,-95.5 317.5,-76.5 190.5,-76.5"/>
<text text-anchor="middle" x="254" y="-83.5" font-family="Helvetica,sans-Serif" font-size="10.00">AT91F_PDC_IsRxEmpty</text>
</a>
</g>
</g>
<!-- Node1&#45;&gt;Node3 -->
<g id="edge2" class="edge"><title>Node1&#45;&gt;Node3</title>
<path fill="none" stroke="midnightblue" d="M144.141,-74.5093C155.921,-75.7528 168.153,-77.044 179.979,-78.2923"/>
<polygon fill="midnightblue" stroke="midnightblue" points="179.934,-81.8068 190.246,-79.376 180.669,-74.8455 179.934,-81.8068"/>
</g>
<!-- Node4 -->
<g id="node4" class="node"><title>Node4</title>
<g id="a_node4"><a xlink:href="lib___a_t91_s_a_m7_s64_8h.html#a90529726eb41ee44d45f3bb99923b2ef" target="_top" xlink:title="AT91F_PDC_SetNextRx">
<polygon fill="white" stroke="black" points="190.5,-38.5 190.5,-57.5 317.5,-57.5 317.5,-38.5 190.5,-38.5"/>
<text text-anchor="middle" x="254" y="-45.5" font-family="Helvetica,sans-Serif" font-size="10.00">AT91F_PDC_SetNextRx</text>
</a>
</g>
</g>
<!-- Node1&#45;&gt;Node4 -->
<g id="edge3" class="edge"><title>Node1&#45;&gt;Node4</title>
<path fill="none" stroke="midnightblue" d="M144.141,-59.4907C155.921,-58.2472 168.153,-56.956 179.979,-55.7077"/>
<polygon fill="midnightblue" stroke="midnightblue" points="180.669,-59.1545 190.246,-54.624 179.934,-52.1932 180.669,-59.1545"/>
</g>
<!-- Node5 -->
<g id="node5" class="node"><title>Node5</title>
<g id="a_node5"><a xlink:href="lib___a_t91_s_a_m7_s64_8h.html#af3a2086c959ae5ea3b73fcfc09bb46fb" target="_top" xlink:title="AT91F_PDC_SetRx">
<polygon fill="white" stroke="black" points="201,-0.5 201,-19.5 307,-19.5 307,-0.5 201,-0.5"/>
<text text-anchor="middle" x="254" y="-7.5" font-family="Helvetica,sans-Serif" font-size="10.00">AT91F_PDC_SetRx</text>
</a>
</g>
</g>
<!-- Node1&#45;&gt;Node5 -->
<g id="edge4" class="edge"><title>Node1&#45;&gt;Node5</title>
<path fill="none" stroke="midnightblue" d="M97.8743,-57.4759C119.431,-49.3886 151.545,-37.738 180,-29 187.743,-26.6223 196.006,-24.2844 204.085,-22.1059"/>
<polygon fill="midnightblue" stroke="midnightblue" points="205.03,-25.4765 213.802,-19.5357 203.24,-18.7093 205.03,-25.4765"/>
</g>
</g>
</svg>
