<?xml version="1.0" encoding="UTF-8" standalone="no"?>
<!DOCTYPE svg PUBLIC "-//W3C//DTD SVG 1.1//EN"
 "http://www.w3.org/Graphics/SVG/1.1/DTD/svg11.dtd">
<!-- Generated by graphviz version 2.30.1 (20130221.2233)
 -->
<!-- Title: AT91F_US_Configure Pages: 1 -->
<svg width="458pt" height="332pt"
 viewBox="0.00 0.00 458.00 332.00" xmlns="http://www.w3.org/2000/svg" xmlns:xlink="http://www.w3.org/1999/xlink">
<g id="graph0" class="graph" transform="scale(1 1) rotate(0) translate(4 328)">
<title>AT91F_US_Configure</title>
<polygon fill="white" stroke="white" points="-4,5 -4,-328 455,-328 455,5 -4,5"/>
<!-- Node1 -->
<g id="node1" class="node"><title>Node1</title>
<polygon fill="#bfbfbf" stroke="black" points="0.5,-57.5 0.5,-76.5 115.5,-76.5 115.5,-57.5 0.5,-57.5"/>
<text text-anchor="middle" x="58" y="-64.5" font-family="Helvetica,sans-Serif" font-size="10.00">AT91F_US_Configure</text>
</g>
<!-- Node2 -->
<g id="node2" class="node"><title>Node2</title>
<g id="a_node2"><a xlink:href="lib___a_t91_s_a_m7_s64_8h.html#a943bb6125d66d7956df049c6989f00f1" target="_top" xlink:title="AT91F_PDC_Open">
<polygon fill="white" stroke="black" points="167.5,-152.5 167.5,-171.5 270.5,-171.5 270.5,-152.5 167.5,-152.5"/>
<text text-anchor="middle" x="219" y="-159.5" font-family="Helvetica,sans-Serif" font-size="10.00">AT91F_PDC_Open</text>
</a>
</g>
</g>
<!-- Node1&#45;&gt;Node2 -->
<g id="edge1" class="edge"><title>Node1&#45;&gt;Node2</title>
<path fill="none" stroke="midnightblue" d="M75.1208,-76.6319C102.977,-93.2753 160.291,-127.52 193.236,-147.204"/>
<polygon fill="midnightblue" stroke="midnightblue" points="191.457,-150.218 201.837,-152.343 195.047,-144.209 191.457,-150.218"/>
</g>
<!-- Node11 -->
<g id="node11" class="node"><title>Node11</title>
<g id="a_node11"><a xlink:href="lib___a_t91_s_a_m7_s64_8h.html#ac5b5adb5f1acc709829449baa731045f" target="_top" xlink:title="AT91F_US_SetBaudrate">
<polygon fill="white" stroke="black" points="155.5,-57.5 155.5,-76.5 282.5,-76.5 282.5,-57.5 155.5,-57.5"/>
<text text-anchor="middle" x="219" y="-64.5" font-family="Helvetica,sans-Serif" font-size="10.00">AT91F_US_SetBaudrate</text>
</a>
</g>
</g>
<!-- Node1&#45;&gt;Node11 -->
<g id="edge10" class="edge"><title>Node1&#45;&gt;Node11</title>
<path fill="none" stroke="midnightblue" d="M115.505,-67C125.111,-67 135.207,-67 145.163,-67"/>
<polygon fill="midnightblue" stroke="midnightblue" points="145.46,-70.5001 155.46,-67 145.46,-63.5001 145.46,-70.5001"/>
</g>
<!-- Node13 -->
<g id="node13" class="node"><title>Node13</title>
<g id="a_node13"><a xlink:href="lib___a_t91_s_a_m7_s64_8h.html#a3dfb2db746ba127d6b6f7f5f85909323" target="_top" xlink:title="AT91F_US_SetTimeguard">
<polygon fill="white" stroke="black" points="152,-19.5 152,-38.5 286,-38.5 286,-19.5 152,-19.5"/>
<text text-anchor="middle" x="219" y="-26.5" font-family="Helvetica,sans-Serif" font-size="10.00">AT91F_US_SetTimeguard</text>
</a>
</g>
</g>
<!-- Node1&#45;&gt;Node13 -->
<g id="edge12" class="edge"><title>Node1&#45;&gt;Node13</title>
<path fill="none" stroke="midnightblue" d="M99.1224,-57.411C120.104,-52.3965 145.982,-46.2119 168.23,-40.8947"/>
<polygon fill="midnightblue" stroke="midnightblue" points="169.254,-44.2487 178.166,-38.5201 167.626,-37.4405 169.254,-44.2487"/>
</g>
<!-- Node3 -->
<g id="node3" class="node"><title>Node3</title>
<g id="a_node3"><a xlink:href="lib___a_t91_s_a_m7_s64_8h.html#a065419f8fc40760b2db4773c57812ac5" target="_top" xlink:title="AT91F_PDC_DisableRx">
<polygon fill="white" stroke="black" points="324,-304.5 324,-323.5 448,-323.5 448,-304.5 324,-304.5"/>
<text text-anchor="middle" x="386" y="-311.5" font-family="Helvetica,sans-Serif" font-size="10.00">AT91F_PDC_DisableRx</text>
</a>
</g>
</g>
<!-- Node2&#45;&gt;Node3 -->
<g id="edge2" class="edge"><title>Node2&#45;&gt;Node3</title>
<path fill="none" stroke="midnightblue" d="M224.689,-171.694C237.04,-196.201 272.926,-261.085 322,-295 324.908,-297.009 328.032,-298.811 331.28,-300.425"/>
<polygon fill="midnightblue" stroke="midnightblue" points="330.109,-303.732 340.676,-304.495 332.891,-297.308 330.109,-303.732"/>
</g>
<!-- Node4 -->
<g id="node4" class="node"><title>Node4</title>
<g id="a_node4"><a xlink:href="lib___a_t91_s_a_m7_s64_8h.html#a232c924087e392d02daf17acf4b9be52" target="_top" xlink:title="AT91F_PDC_DisableTx">
<polygon fill="white" stroke="black" points="324.5,-266.5 324.5,-285.5 447.5,-285.5 447.5,-266.5 324.5,-266.5"/>
<text text-anchor="middle" x="386" y="-273.5" font-family="Helvetica,sans-Serif" font-size="10.00">AT91F_PDC_DisableTx</text>
</a>
</g>
</g>
<!-- Node2&#45;&gt;Node4 -->
<g id="edge3" class="edge"><title>Node2&#45;&gt;Node4</title>
<path fill="none" stroke="midnightblue" d="M227.644,-171.608C243.318,-190.678 281.082,-233.496 322,-257 325.733,-259.145 329.733,-261.069 333.839,-262.793"/>
<polygon fill="midnightblue" stroke="midnightblue" points="332.948,-266.198 343.54,-266.457 335.422,-259.649 332.948,-266.198"/>
</g>
<!-- Node5 -->
<g id="node5" class="node"><title>Node5</title>
<g id="a_node5"><a xlink:href="lib___a_t91_s_a_m7_s64_8h.html#aa8532ddcc7f440a628adc6f75e1a00e2" target="_top" xlink:title="AT91F_PDC_EnableRx">
<polygon fill="white" stroke="black" points="325,-228.5 325,-247.5 447,-247.5 447,-228.5 325,-228.5"/>
<text text-anchor="middle" x="386" y="-235.5" font-family="Helvetica,sans-Serif" font-size="10.00">AT91F_PDC_EnableRx</text>
</a>
</g>
</g>
<!-- Node2&#45;&gt;Node5 -->
<g id="edge4" class="edge"><title>Node2&#45;&gt;Node5</title>
<path fill="none" stroke="midnightblue" d="M234.69,-171.555C254.062,-183.836 289.506,-205.214 322,-219 327.39,-221.287 333.147,-223.419 338.907,-225.368"/>
<polygon fill="midnightblue" stroke="midnightblue" points="337.95,-228.737 348.542,-228.468 340.095,-222.073 337.95,-228.737"/>
</g>
<!-- Node6 -->
<g id="node6" class="node"><title>Node6</title>
<g id="a_node6"><a xlink:href="lib___a_t91_s_a_m7_s64_8h.html#a5ac6178dea9c718b3236651a9c33ceb6" target="_top" xlink:title="AT91F_PDC_EnableTx">
<polygon fill="white" stroke="black" points="325.5,-190.5 325.5,-209.5 446.5,-209.5 446.5,-190.5 325.5,-190.5"/>
<text text-anchor="middle" x="386" y="-197.5" font-family="Helvetica,sans-Serif" font-size="10.00">AT91F_PDC_EnableTx</text>
</a>
</g>
</g>
<!-- Node2&#45;&gt;Node6 -->
<g id="edge5" class="edge"><title>Node2&#45;&gt;Node6</title>
<path fill="none" stroke="midnightblue" d="M261.636,-171.589C283.508,-176.626 310.506,-182.844 333.664,-188.177"/>
<polygon fill="midnightblue" stroke="midnightblue" points="333.133,-191.646 343.663,-190.48 334.704,-184.825 333.133,-191.646"/>
</g>
<!-- Node7 -->
<g id="node7" class="node"><title>Node7</title>
<g id="a_node7"><a xlink:href="lib___a_t91_s_a_m7_s64_8h.html#a90529726eb41ee44d45f3bb99923b2ef" target="_top" xlink:title="AT91F_PDC_SetNextRx">
<polygon fill="white" stroke="black" points="322.5,-152.5 322.5,-171.5 449.5,-171.5 449.5,-152.5 322.5,-152.5"/>
<text text-anchor="middle" x="386" y="-159.5" font-family="Helvetica,sans-Serif" font-size="10.00">AT91F_PDC_SetNextRx</text>
</a>
</g>
</g>
<!-- Node2&#45;&gt;Node7 -->
<g id="edge6" class="edge"><title>Node2&#45;&gt;Node7</title>
<path fill="none" stroke="midnightblue" d="M270.852,-162C283.957,-162 298.319,-162 312.3,-162"/>
<polygon fill="midnightblue" stroke="midnightblue" points="312.389,-165.5 322.389,-162 312.389,-158.5 312.389,-165.5"/>
</g>
<!-- Node8 -->
<g id="node8" class="node"><title>Node8</title>
<g id="a_node8"><a xlink:href="lib___a_t91_s_a_m7_s64_8h.html#aa0b8b8b33d4b6514714851b653a011eb" target="_top" xlink:title="AT91F_PDC_SetNextTx">
<polygon fill="white" stroke="black" points="323.5,-114.5 323.5,-133.5 448.5,-133.5 448.5,-114.5 323.5,-114.5"/>
<text text-anchor="middle" x="386" y="-121.5" font-family="Helvetica,sans-Serif" font-size="10.00">AT91F_PDC_SetNextTx</text>
</a>
</g>
</g>
<!-- Node2&#45;&gt;Node8 -->
<g id="edge7" class="edge"><title>Node2&#45;&gt;Node8</title>
<path fill="none" stroke="midnightblue" d="M261.636,-152.411C283.508,-147.374 310.506,-141.156 333.664,-135.823"/>
<polygon fill="midnightblue" stroke="midnightblue" points="334.704,-139.175 343.663,-133.52 333.133,-132.354 334.704,-139.175"/>
</g>
<!-- Node9 -->
<g id="node9" class="node"><title>Node9</title>
<g id="a_node9"><a xlink:href="lib___a_t91_s_a_m7_s64_8h.html#af3a2086c959ae5ea3b73fcfc09bb46fb" target="_top" xlink:title="AT91F_PDC_SetRx">
<polygon fill="white" stroke="black" points="333,-76.5 333,-95.5 439,-95.5 439,-76.5 333,-76.5"/>
<text text-anchor="middle" x="386" y="-83.5" font-family="Helvetica,sans-Serif" font-size="10.00">AT91F_PDC_SetRx</text>
</a>
</g>
</g>
<!-- Node2&#45;&gt;Node9 -->
<g id="edge8" class="edge"><title>Node2&#45;&gt;Node9</title>
<path fill="none" stroke="midnightblue" d="M234.69,-152.445C254.062,-140.164 289.506,-118.786 322,-105 327.39,-102.713 333.147,-100.581 338.907,-98.632"/>
<polygon fill="midnightblue" stroke="midnightblue" points="340.095,-101.927 348.542,-95.5318 337.95,-95.2633 340.095,-101.927"/>
</g>
<!-- Node10 -->
<g id="node10" class="node"><title>Node10</title>
<g id="a_node10"><a xlink:href="lib___a_t91_s_a_m7_s64_8h.html#ad32f369ef9e9f0f395e577e1ed1652df" target="_top" xlink:title="AT91F_PDC_SetTx">
<polygon fill="white" stroke="black" points="333.5,-38.5 333.5,-57.5 438.5,-57.5 438.5,-38.5 333.5,-38.5"/>
<text text-anchor="middle" x="386" y="-45.5" font-family="Helvetica,sans-Serif" font-size="10.00">AT91F_PDC_SetTx</text>
</a>
</g>
</g>
<!-- Node2&#45;&gt;Node10 -->
<g id="edge9" class="edge"><title>Node2&#45;&gt;Node10</title>
<path fill="none" stroke="midnightblue" d="M227.644,-152.392C243.318,-133.322 281.082,-90.5042 322,-67 325.733,-64.8555 329.733,-62.9306 333.839,-61.2072"/>
<polygon fill="midnightblue" stroke="midnightblue" points="335.422,-64.3508 343.54,-57.5429 332.948,-57.8024 335.422,-64.3508"/>
</g>
<!-- Node12 -->
<g id="node12" class="node"><title>Node12</title>
<g id="a_node12"><a xlink:href="lib___a_t91_s_a_m7_s64_8h.html#aafb45f22b05851b84133c43e975989ad" target="_top" xlink:title="AT91F_US_Baudrate">
<polygon fill="white" stroke="black" points="330,-0.5 330,-19.5 442,-19.5 442,-0.5 330,-0.5"/>
<text text-anchor="middle" x="386" y="-7.5" font-family="Helvetica,sans-Serif" font-size="10.00">AT91F_US_Baudrate</text>
</a>
</g>
</g>
<!-- Node11&#45;&gt;Node12 -->
<g id="edge11" class="edge"><title>Node11&#45;&gt;Node12</title>
<path fill="none" stroke="midnightblue" d="M258.146,-57.461C267.389,-54.7565 277.152,-51.5644 286,-48 302.781,-41.2397 305.262,-35.866 322,-29 327.485,-26.7503 333.334,-24.6319 339.175,-22.6841"/>
<polygon fill="midnightblue" stroke="midnightblue" points="340.467,-25.9458 348.932,-19.5741 338.341,-19.2765 340.467,-25.9458"/>
</g>
</g>
</svg>
