<?xml version="1.0" encoding="UTF-8" standalone="no"?>
<!DOCTYPE svg PUBLIC "-//W3C//DTD SVG 1.1//EN"
 "http://www.w3.org/Graphics/SVG/1.1/DTD/svg11.dtd">
<!-- Generated by graphviz version 2.30.1 (20130221.2233)
 -->
<!-- Title: AT91F_PIO_CfgPeriph Pages: 1 -->
<svg width="312pt" height="598pt"
 viewBox="0.00 0.00 312.00 598.00" xmlns="http://www.w3.org/2000/svg" xmlns:xlink="http://www.w3.org/1999/xlink">
<g id="graph0" class="graph" transform="scale(1 1) rotate(0) translate(4 594)">
<title>AT91F_PIO_CfgPeriph</title>
<polygon fill="white" stroke="white" points="-4,5 -4,-594 309,-594 309,5 -4,5"/>
<!-- Node1 -->
<g id="node1" class="node"><title>Node1</title>
<polygon fill="#bfbfbf" stroke="black" points="0.5,-285.5 0.5,-304.5 119.5,-304.5 119.5,-285.5 0.5,-285.5"/>
<text text-anchor="middle" x="60" y="-292.5" font-family="Helvetica,sans-Serif" font-size="10.00">AT91F_PIO_CfgPeriph</text>
</g>
<!-- Node2 -->
<g id="node2" class="node"><title>Node2</title>
<g id="a_node2"><a xlink:href="lib___a_t91_s_a_m7_s64_8h.html#a0d455227cf619e2d01fc40426f939105" target="_top" xlink:title="AT91F_ADC_CfgPIO">
<polygon fill="white" stroke="black" points="174,-570.5 174,-589.5 286,-589.5 286,-570.5 174,-570.5"/>
<text text-anchor="middle" x="230" y="-577.5" font-family="Helvetica,sans-Serif" font-size="10.00">AT91F_ADC_CfgPIO</text>
</a>
</g>
</g>
<!-- Node1&#45;&gt;Node2 -->
<g id="edge1" class="edge"><title>Node1&#45;&gt;Node2</title>
<path fill="none" stroke="midnightblue" d="M62.0025,-314.696C65.6047,-363.934 82.0027,-493.271 156,-561 161.12,-565.686 167.249,-569.246 173.749,-571.946"/>
<polygon fill="midnightblue" stroke="midnightblue" points="65.4956,-314.475 61.3725,-304.715 58.5095,-314.916 65.4956,-314.475"/>
</g>
<!-- Node3 -->
<g id="node3" class="node"><title>Node3</title>
<g id="a_node3"><a xlink:href="lib___a_t91_s_a_m7_s64_8h.html#a33bc9f33509a141ddc019aff77379d1d" target="_top" xlink:title="AT91F_AIC_CfgPIO">
<polygon fill="white" stroke="black" points="176.5,-532.5 176.5,-551.5 283.5,-551.5 283.5,-532.5 176.5,-532.5"/>
<text text-anchor="middle" x="230" y="-539.5" font-family="Helvetica,sans-Serif" font-size="10.00">AT91F_AIC_CfgPIO</text>
</a>
</g>
</g>
<!-- Node1&#45;&gt;Node3 -->
<g id="edge2" class="edge"><title>Node1&#45;&gt;Node3</title>
<path fill="none" stroke="midnightblue" d="M63.3036,-314.523C69.5752,-358.647 91.0822,-466.599 156,-523 161.833,-528.067 168.854,-531.808 176.207,-534.565"/>
<polygon fill="midnightblue" stroke="midnightblue" points="66.7634,-313.987 61.9935,-304.527 59.8228,-314.897 66.7634,-313.987"/>
</g>
<!-- Node4 -->
<g id="node4" class="node"><title>Node4</title>
<g id="a_node4"><a xlink:href="lib___a_t91_s_a_m7_s64_8h.html#a76156828a1bc6d8d7d2c6407e16ec804" target="_top" xlink:title="AT91F_DBGU_CfgPIO">
<polygon fill="white" stroke="black" points="170.5,-494.5 170.5,-513.5 289.5,-513.5 289.5,-494.5 170.5,-494.5"/>
<text text-anchor="middle" x="230" y="-501.5" font-family="Helvetica,sans-Serif" font-size="10.00">AT91F_DBGU_CfgPIO</text>
</a>
</g>
</g>
<!-- Node1&#45;&gt;Node4 -->
<g id="edge3" class="edge"><title>Node1&#45;&gt;Node4</title>
<path fill="none" stroke="midnightblue" d="M65.125,-314.646C74.3098,-353.386 100.186,-439.783 156,-485 160.783,-488.874 166.27,-491.967 172.041,-494.433"/>
<polygon fill="midnightblue" stroke="midnightblue" points="68.4868,-313.643 62.8803,-304.653 61.657,-315.177 68.4868,-313.643"/>
</g>
<!-- Node5 -->
<g id="node5" class="node"><title>Node5</title>
<g id="a_node5"><a xlink:href="lib___a_t91_s_a_m7_s64_8h.html#a0fe1b1a35fb3e5ddc1d3ad8bc8fa3709" target="_top" xlink:title="AT91F_PMC_CfgPIO">
<polygon fill="white" stroke="black" points="173.5,-456.5 173.5,-475.5 286.5,-475.5 286.5,-456.5 173.5,-456.5"/>
<text text-anchor="middle" x="230" y="-463.5" font-family="Helvetica,sans-Serif" font-size="10.00">AT91F_PMC_CfgPIO</text>
</a>
</g>
</g>
<!-- Node1&#45;&gt;Node5 -->
<g id="edge4" class="edge"><title>Node1&#45;&gt;Node5</title>
<path fill="none" stroke="midnightblue" d="M67.6105,-314.264C79.7851,-346.788 108.902,-412.413 156,-447 161.278,-450.876 167.279,-453.962 173.519,-456.42"/>
<polygon fill="midnightblue" stroke="midnightblue" points="70.8103,-312.819 64.1297,-304.596 64.2241,-315.191 70.8103,-312.819"/>
</g>
<!-- Node6 -->
<g id="node6" class="node"><title>Node6</title>
<g id="a_node6"><a xlink:href="lib___a_t91_s_a_m7_s64_8h.html#a0b690d563c2f014fc7d61deda403f1c8" target="_top" xlink:title="AT91F_PWMC_CH0_CfgPIO">
<polygon fill="white" stroke="black" points="156,-418.5 156,-437.5 304,-437.5 304,-418.5 156,-418.5"/>
<text text-anchor="middle" x="230" y="-425.5" font-family="Helvetica,sans-Serif" font-size="10.00">AT91F_PWMC_CH0_CfgPIO</text>
</a>
</g>
</g>
<!-- Node1&#45;&gt;Node6 -->
<g id="edge5" class="edge"><title>Node1&#45;&gt;Node6</title>
<path fill="none" stroke="midnightblue" d="M71.2403,-313.36C86.3949,-338.798 117.227,-384.402 156,-409 162.082,-412.859 168.92,-415.936 175.909,-418.39"/>
<polygon fill="midnightblue" stroke="midnightblue" points="74.2561,-311.583 66.2159,-304.684 68.1985,-315.091 74.2561,-311.583"/>
</g>
<!-- Node7 -->
<g id="node7" class="node"><title>Node7</title>
<g id="a_node7"><a xlink:href="lib___a_t91_s_a_m7_s64_8h.html#af24954299ad7a276905e17926675e8ad" target="_top" xlink:title="AT91F_PWMC_CH1_CfgPIO">
<polygon fill="white" stroke="black" points="156,-380.5 156,-399.5 304,-399.5 304,-380.5 156,-380.5"/>
<text text-anchor="middle" x="230" y="-387.5" font-family="Helvetica,sans-Serif" font-size="10.00">AT91F_PWMC_CH1_CfgPIO</text>
</a>
</g>
</g>
<!-- Node1&#45;&gt;Node7 -->
<g id="edge6" class="edge"><title>Node1&#45;&gt;Node7</title>
<path fill="none" stroke="midnightblue" d="M77.5927,-311.961C95.4331,-329.251 125.381,-355.651 156,-371 163.61,-374.815 172.061,-377.917 180.437,-380.423"/>
<polygon fill="midnightblue" stroke="midnightblue" points="79.8577,-309.278 70.2888,-304.73 74.9328,-314.253 79.8577,-309.278"/>
</g>
<!-- Node8 -->
<g id="node8" class="node"><title>Node8</title>
<g id="a_node8"><a xlink:href="lib___a_t91_s_a_m7_s64_8h.html#ad4c4d693cd8eea3f078a4c9f1df6102d" target="_top" xlink:title="AT91F_PWMC_CH2_CfgPIO">
<polygon fill="white" stroke="black" points="156,-342.5 156,-361.5 304,-361.5 304,-342.5 156,-342.5"/>
<text text-anchor="middle" x="230" y="-349.5" font-family="Helvetica,sans-Serif" font-size="10.00">AT91F_PWMC_CH2_CfgPIO</text>
</a>
</g>
</g>
<!-- Node1&#45;&gt;Node8 -->
<g id="edge7" class="edge"><title>Node1&#45;&gt;Node8</title>
<path fill="none" stroke="midnightblue" d="M91.9375,-308.523C110.336,-316.275 134.257,-325.853 156,-333 166.45,-336.435 177.902,-339.661 188.574,-342.446"/>
<polygon fill="midnightblue" stroke="midnightblue" points="93.169,-305.243 82.5972,-304.545 90.426,-311.683 93.169,-305.243"/>
</g>
<!-- Node9 -->
<g id="node9" class="node"><title>Node9</title>
<g id="a_node9"><a xlink:href="lib___a_t91_s_a_m7_s64_8h.html#a3162bc2434c21b8be8e79bd90016b8cc" target="_top" xlink:title="AT91F_PWMC_CH3_CfgPIO">
<polygon fill="white" stroke="black" points="156,-304.5 156,-323.5 304,-323.5 304,-304.5 156,-304.5"/>
<text text-anchor="middle" x="230" y="-311.5" font-family="Helvetica,sans-Serif" font-size="10.00">AT91F_PWMC_CH3_CfgPIO</text>
</a>
</g>
</g>
<!-- Node1&#45;&gt;Node9 -->
<g id="edge8" class="edge"><title>Node1&#45;&gt;Node9</title>
<path fill="none" stroke="midnightblue" d="M129.725,-302.772C138.32,-303.745 147.137,-304.742 155.798,-305.721"/>
<polygon fill="midnightblue" stroke="midnightblue" points="130.088,-299.291 119.758,-301.645 129.302,-306.247 130.088,-299.291"/>
</g>
<!-- Node10 -->
<g id="node10" class="node"><title>Node10</title>
<g id="a_node10"><a xlink:href="lib___a_t91_s_a_m7_s64_8h.html#a2c462385f2d0376ca6bc80391a7ad26d" target="_top" xlink:title="AT91F_SPI_CfgPIO">
<polygon fill="white" stroke="black" points="176.5,-266.5 176.5,-285.5 283.5,-285.5 283.5,-266.5 176.5,-266.5"/>
<text text-anchor="middle" x="230" y="-273.5" font-family="Helvetica,sans-Serif" font-size="10.00">AT91F_SPI_CfgPIO</text>
</a>
</g>
</g>
<!-- Node1&#45;&gt;Node10 -->
<g id="edge9" class="edge"><title>Node1&#45;&gt;Node10</title>
<path fill="none" stroke="midnightblue" d="M129.855,-287.213C145.412,-285.453 161.685,-283.613 176.445,-281.944"/>
<polygon fill="midnightblue" stroke="midnightblue" points="129.302,-283.753 119.758,-288.355 130.088,-290.709 129.302,-283.753"/>
</g>
<!-- Node11 -->
<g id="node11" class="node"><title>Node11</title>
<g id="a_node11"><a xlink:href="lib___a_t91_s_a_m7_s64_8h.html#a2887c8d4df90490931680b2ffe227dcd" target="_top" xlink:title="AT91F_SSC_CfgPIO">
<polygon fill="white" stroke="black" points="174.5,-228.5 174.5,-247.5 285.5,-247.5 285.5,-228.5 174.5,-228.5"/>
<text text-anchor="middle" x="230" y="-235.5" font-family="Helvetica,sans-Serif" font-size="10.00">AT91F_SSC_CfgPIO</text>
</a>
</g>
</g>
<!-- Node1&#45;&gt;Node11 -->
<g id="edge10" class="edge"><title>Node1&#45;&gt;Node11</title>
<path fill="none" stroke="midnightblue" d="M91.9375,-281.477C110.336,-273.725 134.257,-264.147 156,-257 166.45,-253.565 177.902,-250.339 188.574,-247.554"/>
<polygon fill="midnightblue" stroke="midnightblue" points="90.426,-278.317 82.5972,-285.455 93.169,-284.757 90.426,-278.317"/>
</g>
<!-- Node12 -->
<g id="node12" class="node"><title>Node12</title>
<g id="a_node12"><a xlink:href="lib___a_t91_s_a_m7_s64_8h.html#abcc4af6458f85a5a03190674e12158f5" target="_top" xlink:title="AT91F_TC0_CfgPIO">
<polygon fill="white" stroke="black" points="175.5,-190.5 175.5,-209.5 284.5,-209.5 284.5,-190.5 175.5,-190.5"/>
<text text-anchor="middle" x="230" y="-197.5" font-family="Helvetica,sans-Serif" font-size="10.00">AT91F_TC0_CfgPIO</text>
</a>
</g>
</g>
<!-- Node1&#45;&gt;Node12 -->
<g id="edge11" class="edge"><title>Node1&#45;&gt;Node12</title>
<path fill="none" stroke="midnightblue" d="M77.5927,-278.039C95.4331,-260.749 125.381,-234.349 156,-219 163.61,-215.185 172.061,-212.083 180.437,-209.577"/>
<polygon fill="midnightblue" stroke="midnightblue" points="74.9328,-275.747 70.2888,-285.27 79.8577,-280.722 74.9328,-275.747"/>
</g>
<!-- Node13 -->
<g id="node13" class="node"><title>Node13</title>
<g id="a_node13"><a xlink:href="lib___a_t91_s_a_m7_s64_8h.html#a9aab7bf29eabb567b6b050ad73cbaba9" target="_top" xlink:title="AT91F_TC1_CfgPIO">
<polygon fill="white" stroke="black" points="175.5,-152.5 175.5,-171.5 284.5,-171.5 284.5,-152.5 175.5,-152.5"/>
<text text-anchor="middle" x="230" y="-159.5" font-family="Helvetica,sans-Serif" font-size="10.00">AT91F_TC1_CfgPIO</text>
</a>
</g>
</g>
<!-- Node1&#45;&gt;Node13 -->
<g id="edge12" class="edge"><title>Node1&#45;&gt;Node13</title>
<path fill="none" stroke="midnightblue" d="M71.2403,-276.64C86.3949,-251.202 117.227,-205.598 156,-181 162.082,-177.141 168.92,-174.064 175.909,-171.61"/>
<polygon fill="midnightblue" stroke="midnightblue" points="68.1985,-274.909 66.2159,-285.316 74.2561,-278.417 68.1985,-274.909"/>
</g>
<!-- Node14 -->
<g id="node14" class="node"><title>Node14</title>
<g id="a_node14"><a xlink:href="lib___a_t91_s_a_m7_s64_8h.html#aee426d7c8c6ddd43b750545222d364c4" target="_top" xlink:title="AT91F_TC2_CfgPIO">
<polygon fill="white" stroke="black" points="175.5,-114.5 175.5,-133.5 284.5,-133.5 284.5,-114.5 175.5,-114.5"/>
<text text-anchor="middle" x="230" y="-121.5" font-family="Helvetica,sans-Serif" font-size="10.00">AT91F_TC2_CfgPIO</text>
</a>
</g>
</g>
<!-- Node1&#45;&gt;Node14 -->
<g id="edge13" class="edge"><title>Node1&#45;&gt;Node14</title>
<path fill="none" stroke="midnightblue" d="M67.6105,-275.736C79.7851,-243.212 108.902,-177.587 156,-143 161.805,-138.737 168.486,-135.428 175.397,-132.861"/>
<polygon fill="midnightblue" stroke="midnightblue" points="64.2241,-274.809 64.1297,-285.404 70.8103,-277.181 64.2241,-274.809"/>
</g>
<!-- Node15 -->
<g id="node15" class="node"><title>Node15</title>
<g id="a_node15"><a xlink:href="lib___a_t91_s_a_m7_s64_8h.html#a79ea78bdca11f0dc4b7559072bab31fb" target="_top" xlink:title="AT91F_TWI_CfgPIO">
<polygon fill="white" stroke="black" points="175.5,-76.5 175.5,-95.5 284.5,-95.5 284.5,-76.5 175.5,-76.5"/>
<text text-anchor="middle" x="230" y="-83.5" font-family="Helvetica,sans-Serif" font-size="10.00">AT91F_TWI_CfgPIO</text>
</a>
</g>
</g>
<!-- Node1&#45;&gt;Node15 -->
<g id="edge14" class="edge"><title>Node1&#45;&gt;Node15</title>
<path fill="none" stroke="midnightblue" d="M65.125,-275.354C74.3098,-236.614 100.186,-150.217 156,-105 161.698,-100.384 168.397,-96.8777 175.385,-94.2173"/>
<polygon fill="midnightblue" stroke="midnightblue" points="61.657,-274.823 62.8803,-285.347 68.4868,-276.357 61.657,-274.823"/>
</g>
<!-- Node16 -->
<g id="node16" class="node"><title>Node16</title>
<g id="a_node16"><a xlink:href="lib___a_t91_s_a_m7_s64_8h.html#aeeefa4b2a9d0e0119707d757371b0bc4" target="_top" xlink:title="AT91F_US0_CfgPIO">
<polygon fill="white" stroke="black" points="175,-38.5 175,-57.5 285,-57.5 285,-38.5 175,-38.5"/>
<text text-anchor="middle" x="230" y="-45.5" font-family="Helvetica,sans-Serif" font-size="10.00">AT91F_US0_CfgPIO</text>
</a>
</g>
</g>
<!-- Node1&#45;&gt;Node16 -->
<g id="edge15" class="edge"><title>Node1&#45;&gt;Node16</title>
<path fill="none" stroke="midnightblue" d="M63.3036,-275.477C69.5752,-231.353 91.0822,-123.401 156,-67 161.437,-62.2761 167.908,-58.7049 174.716,-56.0093"/>
<polygon fill="midnightblue" stroke="midnightblue" points="59.8228,-275.103 61.9935,-285.473 66.7634,-276.013 59.8228,-275.103"/>
</g>
<!-- Node17 -->
<g id="node17" class="node"><title>Node17</title>
<g id="a_node17"><a xlink:href="lib___a_t91_s_a_m7_s64_8h.html#af00dc4c2e81eb1dcdca1d5074e45d557" target="_top" xlink:title="AT91F_US1_CfgPIO">
<polygon fill="white" stroke="black" points="175,-0.5 175,-19.5 285,-19.5 285,-0.5 175,-0.5"/>
<text text-anchor="middle" x="230" y="-7.5" font-family="Helvetica,sans-Serif" font-size="10.00">AT91F_US1_CfgPIO</text>
</a>
</g>
</g>
<!-- Node1&#45;&gt;Node17 -->
<g id="edge16" class="edge"><title>Node1&#45;&gt;Node17</title>
<path fill="none" stroke="midnightblue" d="M62.0025,-275.304C65.6047,-226.066 82.0027,-96.7289 156,-29 161.41,-24.0485 167.946,-20.3541 174.857,-17.6038"/>
<polygon fill="midnightblue" stroke="midnightblue" points="58.5095,-275.084 61.3725,-285.285 65.4956,-275.525 58.5095,-275.084"/>
</g>
</g>
</svg>
