<?xml version="1.0" encoding="UTF-8" standalone="no"?>
<!DOCTYPE svg PUBLIC "-//W3C//DTD SVG 1.1//EN"
 "http://www.w3.org/Graphics/SVG/1.1/DTD/svg11.dtd">
<!-- Generated by graphviz version 2.30.1 (20130221.2233)
 -->
<!-- Title: AT91F_PDC_SendFrame Pages: 1 -->
<svg width="324pt" height="142pt"
 viewBox="0.00 0.00 324.00 142.00" xmlns="http://www.w3.org/2000/svg" xmlns:xlink="http://www.w3.org/1999/xlink">
<g id="graph0" class="graph" transform="scale(1 1) rotate(0) translate(4 138)">
<title>AT91F_PDC_SendFrame</title>
<polygon fill="white" stroke="white" points="-4,5 -4,-138 321,-138 321,5 -4,5"/>
<!-- Node1 -->
<g id="node1" class="node"><title>Node1</title>
<polygon fill="#bfbfbf" stroke="black" points="0.5,-57.5 0.5,-76.5 131.5,-76.5 131.5,-57.5 0.5,-57.5"/>
<text text-anchor="middle" x="66" y="-64.5" font-family="Helvetica,sans-Serif" font-size="10.00">AT91F_PDC_SendFrame</text>
</g>
<!-- Node2 -->
<g id="node2" class="node"><title>Node2</title>
<g id="a_node2"><a xlink:href="lib___a_t91_s_a_m7_s64_8h.html#a850c514a0aa55991ed5fe7c7e0989209" target="_top" xlink:title="AT91F_PDC_IsNextTxEmpty">
<polygon fill="white" stroke="black" points="168.5,-114.5 168.5,-133.5 315.5,-133.5 315.5,-114.5 168.5,-114.5"/>
<text text-anchor="middle" x="242" y="-121.5" font-family="Helvetica,sans-Serif" font-size="10.00">AT91F_PDC_IsNextTxEmpty</text>
</a>
</g>
</g>
<!-- Node1&#45;&gt;Node2 -->
<g id="edge1" class="edge"><title>Node1&#45;&gt;Node2</title>
<path fill="none" stroke="midnightblue" d="M90.4265,-76.6162C110.741,-84.761 141.035,-96.4445 168,-105 175.548,-107.395 183.603,-109.718 191.505,-111.871"/>
<polygon fill="midnightblue" stroke="midnightblue" points="190.818,-115.31 201.382,-114.498 192.617,-108.545 190.818,-115.31"/>
</g>
<!-- Node3 -->
<g id="node3" class="node"><title>Node3</title>
<g id="a_node3"><a xlink:href="lib___a_t91_s_a_m7_s64_8h.html#a07dcf21b4e39e894efcc34afa3b4787d" target="_top" xlink:title="AT91F_PDC_IsTxEmpty">
<polygon fill="white" stroke="black" points="179,-76.5 179,-95.5 305,-95.5 305,-76.5 179,-76.5"/>
<text text-anchor="middle" x="242" y="-83.5" font-family="Helvetica,sans-Serif" font-size="10.00">AT91F_PDC_IsTxEmpty</text>
</a>
</g>
</g>
<!-- Node1&#45;&gt;Node3 -->
<g id="edge2" class="edge"><title>Node1&#45;&gt;Node3</title>
<path fill="none" stroke="midnightblue" d="M131.791,-74.0749C143.793,-75.3855 156.4,-76.7621 168.611,-78.0955"/>
<polygon fill="midnightblue" stroke="midnightblue" points="168.433,-81.5968 178.754,-79.203 169.193,-74.6381 168.433,-81.5968"/>
</g>
<!-- Node4 -->
<g id="node4" class="node"><title>Node4</title>
<g id="a_node4"><a xlink:href="lib___a_t91_s_a_m7_s64_8h.html#aa0b8b8b33d4b6514714851b653a011eb" target="_top" xlink:title="AT91F_PDC_SetNextTx">
<polygon fill="white" stroke="black" points="179.5,-38.5 179.5,-57.5 304.5,-57.5 304.5,-38.5 179.5,-38.5"/>
<text text-anchor="middle" x="242" y="-45.5" font-family="Helvetica,sans-Serif" font-size="10.00">AT91F_PDC_SetNextTx</text>
</a>
</g>
</g>
<!-- Node1&#45;&gt;Node4 -->
<g id="edge3" class="edge"><title>Node1&#45;&gt;Node4</title>
<path fill="none" stroke="midnightblue" d="M131.791,-59.9251C143.944,-58.598 156.717,-57.2033 169.072,-55.8542"/>
<polygon fill="midnightblue" stroke="midnightblue" points="169.768,-59.2991 179.329,-54.7342 169.008,-52.3405 169.768,-59.2991"/>
</g>
<!-- Node5 -->
<g id="node5" class="node"><title>Node5</title>
<g id="a_node5"><a xlink:href="lib___a_t91_s_a_m7_s64_8h.html#ad32f369ef9e9f0f395e577e1ed1652df" target="_top" xlink:title="AT91F_PDC_SetTx">
<polygon fill="white" stroke="black" points="189.5,-0.5 189.5,-19.5 294.5,-19.5 294.5,-0.5 189.5,-0.5"/>
<text text-anchor="middle" x="242" y="-7.5" font-family="Helvetica,sans-Serif" font-size="10.00">AT91F_PDC_SetTx</text>
</a>
</g>
</g>
<!-- Node1&#45;&gt;Node5 -->
<g id="edge4" class="edge"><title>Node1&#45;&gt;Node5</title>
<path fill="none" stroke="midnightblue" d="M90.4265,-57.3838C110.741,-49.239 141.035,-37.5555 168,-29 175.548,-26.6051 183.603,-24.2815 191.505,-22.1291"/>
<polygon fill="midnightblue" stroke="midnightblue" points="192.617,-25.455 201.382,-19.5019 190.818,-18.6902 192.617,-25.455"/>
</g>
</g>
</svg>
