<?xml version="1.0" encoding="UTF-8" standalone="no"?>
<!DOCTYPE svg PUBLIC "-//W3C//DTD SVG 1.1//EN"
 "http://www.w3.org/Graphics/SVG/1.1/DTD/svg11.dtd">
<!-- Generated by graphviz version 2.30.1 (20130221.2233)
 -->
<!-- Title: AT91F_PMC_EnablePeriphClock Pages: 1 -->
<svg width="338pt" height="1016pt"
 viewBox="0.00 0.00 338.00 1016.00" xmlns="http://www.w3.org/2000/svg" xmlns:xlink="http://www.w3.org/1999/xlink">
<g id="graph0" class="graph" transform="scale(1 1) rotate(0) translate(4 1012)">
<title>AT91F_PMC_EnablePeriphClock</title>
<polygon fill="white" stroke="white" points="-4,5 -4,-1012 335,-1012 335,5 -4,5"/>
<!-- Node1 -->
<g id="node1" class="node"><title>Node1</title>
<polygon fill="#bfbfbf" stroke="black" points="0.5,-494.5 0.5,-513.5 165.5,-513.5 165.5,-494.5 0.5,-494.5"/>
<text text-anchor="middle" x="83" y="-501.5" font-family="Helvetica,sans-Serif" font-size="10.00">AT91F_PMC_EnablePeriphClock</text>
</g>
<!-- Node2 -->
<g id="node2" class="node"><title>Node2</title>
<g id="a_node2"><a xlink:href="lib___a_t91_s_a_m7_x128_8h.html#a8dcd858499e80c3ef81f022532556c5c" target="_top" xlink:title="AT91F_ADC_CfgPMC">
<polygon fill="white" stroke="black" points="207.5,-988.5 207.5,-1007.5 324.5,-1007.5 324.5,-988.5 207.5,-988.5"/>
<text text-anchor="middle" x="266" y="-995.5" font-family="Helvetica,sans-Serif" font-size="10.00">AT91F_ADC_CfgPMC</text>
</a>
</g>
</g>
<!-- Node1&#45;&gt;Node2 -->
<g id="edge1" class="edge"><title>Node1&#45;&gt;Node2</title>
<path fill="none" stroke="midnightblue" d="M86.367,-524.255C96.3135,-606.062 137.231,-910.948 202,-979 205.702,-982.889 210.168,-985.991 214.993,-988.463"/>
<polygon fill="midnightblue" stroke="midnightblue" points="89.7866,-523.373 85.1251,-513.859 82.836,-524.204 89.7866,-523.373"/>
</g>
<!-- Node3 -->
<g id="node3" class="node"><title>Node3</title>
<g id="a_node3"><a xlink:href="lib___a_t91_s_a_m7_x128_8h.html#acbdf60f6fd796cf3c7fb08376721c73e" target="_top" xlink:title="AT91F_AES_CfgPMC">
<polygon fill="white" stroke="black" points="208.5,-950.5 208.5,-969.5 323.5,-969.5 323.5,-950.5 208.5,-950.5"/>
<text text-anchor="middle" x="266" y="-957.5" font-family="Helvetica,sans-Serif" font-size="10.00">AT91F_AES_CfgPMC</text>
</a>
</g>
</g>
<!-- Node1&#45;&gt;Node3 -->
<g id="edge2" class="edge"><title>Node1&#45;&gt;Node3</title>
<path fill="none" stroke="midnightblue" d="M86.8138,-524.11C98.0266,-601.53 141.85,-879.068 202,-941 205.741,-944.852 210.232,-947.929 215.071,-950.388"/>
<polygon fill="midnightblue" stroke="midnightblue" points="90.2239,-523.231 85.347,-513.826 83.294,-524.22 90.2239,-523.231"/>
</g>
<!-- Node4 -->
<g id="node4" class="node"><title>Node4</title>
<g id="a_node4"><a xlink:href="lib___a_t91_s_a_m7_x128_8h.html#a79155a1e2bd0b16d5146467e10525d0b" target="_top" xlink:title="AT91F_AIC_CfgPMC">
<polygon fill="white" stroke="black" points="210,-912.5 210,-931.5 322,-931.5 322,-912.5 210,-912.5"/>
<text text-anchor="middle" x="266" y="-919.5" font-family="Helvetica,sans-Serif" font-size="10.00">AT91F_AIC_CfgPMC</text>
</a>
</g>
</g>
<!-- Node1&#45;&gt;Node4 -->
<g id="edge3" class="edge"><title>Node1&#45;&gt;Node4</title>
<path fill="none" stroke="midnightblue" d="M83.6838,-524.117C83.7981,-588.796 93.138,-793.552 202,-903 205.867,-906.888 210.499,-909.986 215.473,-912.453"/>
<polygon fill="midnightblue" stroke="midnightblue" points="87.186,-523.746 83.7479,-513.725 80.1862,-523.703 87.186,-523.746"/>
</g>
<!-- Node5 -->
<g id="node5" class="node"><title>Node5</title>
<g id="a_node5"><a xlink:href="lib___a_t91_s_a_m7_x128_8h.html#adc0e9fed9e192ef26299caadbd6e55b6" target="_top" xlink:title="AT91F_CAN_CfgPMC">
<polygon fill="white" stroke="black" points="207.5,-874.5 207.5,-893.5 324.5,-893.5 324.5,-874.5 207.5,-874.5"/>
<text text-anchor="middle" x="266" y="-881.5" font-family="Helvetica,sans-Serif" font-size="10.00">AT91F_CAN_CfgPMC</text>
</a>
</g>
</g>
<!-- Node1&#45;&gt;Node5 -->
<g id="edge4" class="edge"><title>Node1&#45;&gt;Node5</title>
<path fill="none" stroke="midnightblue" d="M84.4043,-523.799C86.7327,-584.11 102.098,-767.371 202,-865 206.004,-868.912 210.783,-872.023 215.893,-874.496"/>
<polygon fill="midnightblue" stroke="midnightblue" points="87.9004,-523.615 84.0974,-513.726 80.9036,-523.828 87.9004,-523.615"/>
</g>
<!-- Node6 -->
<g id="node6" class="node"><title>Node6</title>
<g id="a_node6"><a xlink:href="lib___a_t91_s_a_m7_x128_8h.html#af85b471b90d02eff97aef470a6bdf5d8" target="_top" xlink:title="AT91F_DBGU_CfgPMC">
<polygon fill="white" stroke="black" points="204,-836.5 204,-855.5 328,-855.5 328,-836.5 204,-836.5"/>
<text text-anchor="middle" x="266" y="-843.5" font-family="Helvetica,sans-Serif" font-size="10.00">AT91F_DBGU_CfgPMC</text>
</a>
</g>
</g>
<!-- Node1&#45;&gt;Node6 -->
<g id="edge5" class="edge"><title>Node1&#45;&gt;Node6</title>
<path fill="none" stroke="midnightblue" d="M85.2599,-523.55C89.9245,-579.392 111.033,-741.106 202,-827 206.07,-830.843 210.89,-833.911 216.024,-836.36"/>
<polygon fill="midnightblue" stroke="midnightblue" points="88.75,-523.286 84.5125,-513.575 81.7696,-523.809 88.75,-523.286"/>
</g>
<!-- Node7 -->
<g id="node7" class="node"><title>Node7</title>
<g id="a_node7"><a xlink:href="lib___a_t91_s_a_m7_x128_8h.html#a316c3a32b8057b623d8622947a03e331" target="_top" xlink:title="AT91F_EMAC_CfgPMC">
<polygon fill="white" stroke="black" points="204,-798.5 204,-817.5 328,-817.5 328,-798.5 204,-798.5"/>
<text text-anchor="middle" x="266" y="-805.5" font-family="Helvetica,sans-Serif" font-size="10.00">AT91F_EMAC_CfgPMC</text>
</a>
</g>
</g>
<!-- Node1&#45;&gt;Node7 -->
<g id="edge6" class="edge"><title>Node1&#45;&gt;Node7</title>
<path fill="none" stroke="midnightblue" d="M86.344,-523.604C93.5409,-575.011 120.051,-714.834 202,-789 206.32,-792.91 211.419,-796.015 216.815,-798.483"/>
<polygon fill="midnightblue" stroke="midnightblue" points="89.7931,-522.987 85.0269,-513.525 82.8521,-523.894 89.7931,-522.987"/>
</g>
<!-- Node8 -->
<g id="node8" class="node"><title>Node8</title>
<g id="a_node8"><a xlink:href="lib___a_t91_s_a_m7_x128_8h.html#a27d79e5bbddb5d37fd2801ec975c615e" target="_top" xlink:title="AT91F_MC_CfgPMC">
<polygon fill="white" stroke="black" points="210.5,-760.5 210.5,-779.5 321.5,-779.5 321.5,-760.5 210.5,-760.5"/>
<text text-anchor="middle" x="266" y="-767.5" font-family="Helvetica,sans-Serif" font-size="10.00">AT91F_MC_CfgPMC</text>
</a>
</g>
</g>
<!-- Node1&#45;&gt;Node8 -->
<g id="edge7" class="edge"><title>Node1&#45;&gt;Node8</title>
<path fill="none" stroke="midnightblue" d="M87.763,-523.77C97.693,-570.473 129.022,-688.398 202,-751 206.509,-754.868 211.785,-757.948 217.332,-760.402"/>
<polygon fill="midnightblue" stroke="midnightblue" points="91.1473,-522.847 85.7318,-513.741 84.2866,-524.237 91.1473,-522.847"/>
</g>
<!-- Node9 -->
<g id="node9" class="node"><title>Node9</title>
<g id="a_node9"><a xlink:href="lib___a_t91_s_a_m7_x128_8h.html#ab386280c73442a5558f4d418b5ba9045" target="_top" xlink:title="AT91F_PIOA_CfgPMC">
<polygon fill="white" stroke="black" points="206.5,-722.5 206.5,-741.5 325.5,-741.5 325.5,-722.5 206.5,-722.5"/>
<text text-anchor="middle" x="266" y="-729.5" font-family="Helvetica,sans-Serif" font-size="10.00">AT91F_PIOA_CfgPMC</text>
</a>
</g>
</g>
<!-- Node1&#45;&gt;Node9 -->
<g id="edge8" class="edge"><title>Node1&#45;&gt;Node9</title>
<path fill="none" stroke="midnightblue" d="M89.4525,-523.21C102.122,-564.342 137.49,-661.379 202,-713 206.817,-716.854 212.405,-719.928 218.224,-722.379"/>
<polygon fill="midnightblue" stroke="midnightblue" points="92.7988,-522.183 86.5953,-513.594 86.0888,-524.177 92.7988,-522.183"/>
</g>
<!-- Node10 -->
<g id="node10" class="node"><title>Node10</title>
<g id="a_node10"><a xlink:href="lib___a_t91_s_a_m7_x128_8h.html#aa2a5a8a9e1f1edc7d7d4ee85e8b28f0a" target="_top" xlink:title="AT91F_PIOB_CfgPMC">
<polygon fill="white" stroke="black" points="206.5,-684.5 206.5,-703.5 325.5,-703.5 325.5,-684.5 206.5,-684.5"/>
<text text-anchor="middle" x="266" y="-691.5" font-family="Helvetica,sans-Serif" font-size="10.00">AT91F_PIOB_CfgPMC</text>
</a>
</g>
</g>
<!-- Node1&#45;&gt;Node10 -->
<g id="edge9" class="edge"><title>Node1&#45;&gt;Node10</title>
<path fill="none" stroke="midnightblue" d="M91.9334,-523.047C107.625,-558.383 146.022,-634.199 202,-675 207.355,-678.903 213.517,-682.012 219.846,-684.488"/>
<polygon fill="midnightblue" stroke="midnightblue" points="95.1342,-521.63 87.9552,-513.838 88.7082,-524.406 95.1342,-521.63"/>
</g>
<!-- Node11 -->
<g id="node11" class="node"><title>Node11</title>
<g id="a_node11"><a xlink:href="lib___a_t91_s_a_m7_x128_8h.html#a018a13b30ca75ecfa2d5d579ba7fecda" target="_top" xlink:title="AT91F_PITC_CfgPMC">
<polygon fill="white" stroke="black" points="207,-646.5 207,-665.5 325,-665.5 325,-646.5 207,-646.5"/>
<text text-anchor="middle" x="266" y="-653.5" font-family="Helvetica,sans-Serif" font-size="10.00">AT91F_PITC_CfgPMC</text>
</a>
</g>
</g>
<!-- Node1&#45;&gt;Node11 -->
<g id="edge10" class="edge"><title>Node1&#45;&gt;Node11</title>
<path fill="none" stroke="midnightblue" d="M95.3421,-522.298C114.048,-550.97 154.105,-606.368 202,-637 208.063,-640.878 214.958,-643.998 221.907,-646.498"/>
<polygon fill="midnightblue" stroke="midnightblue" points="98.1673,-520.219 89.8364,-513.673 92.267,-523.985 98.1673,-520.219"/>
</g>
<!-- Node12 -->
<g id="node12" class="node"><title>Node12</title>
<g id="a_node12"><a xlink:href="lib___a_t91_s_a_m7_x128_8h.html#a708ecf76e44c8bd26a1d823d91d1c83d" target="_top" xlink:title="AT91F_PMC_CfgPMC">
<polygon fill="white" stroke="black" points="207,-608.5 207,-627.5 325,-627.5 325,-608.5 207,-608.5"/>
<text text-anchor="middle" x="266" y="-615.5" font-family="Helvetica,sans-Serif" font-size="10.00">AT91F_PMC_CfgPMC</text>
</a>
</g>
</g>
<!-- Node1&#45;&gt;Node12 -->
<g id="edge11" class="edge"><title>Node1&#45;&gt;Node12</title>
<path fill="none" stroke="midnightblue" d="M100.511,-520.822C122.057,-541.888 161.777,-577.784 202,-599 209.073,-602.731 216.989,-605.842 224.757,-608.393"/>
<polygon fill="midnightblue" stroke="midnightblue" points="102.74,-518.103 93.1798,-513.536 97.8053,-523.067 102.74,-518.103"/>
</g>
<!-- Node13 -->
<g id="node13" class="node"><title>Node13</title>
<g id="a_node13"><a xlink:href="lib___a_t91_s_a_m7_x128_8h.html#aa216783dfc0231aec2a5a05538db3baa" target="_top" xlink:title="AT91F_PWMC_CfgPMC">
<polygon fill="white" stroke="black" points="202.5,-570.5 202.5,-589.5 329.5,-589.5 329.5,-570.5 202.5,-570.5"/>
<text text-anchor="middle" x="266" y="-577.5" font-family="Helvetica,sans-Serif" font-size="10.00">AT91F_PWMC_CfgPMC</text>
</a>
</g>
</g>
<!-- Node1&#45;&gt;Node13 -->
<g id="edge12" class="edge"><title>Node1&#45;&gt;Node13</title>
<path fill="none" stroke="midnightblue" d="M110.623,-518.351C134.195,-530.695 169.766,-548.444 202,-561 210.835,-564.442 220.564,-567.649 229.678,-570.412"/>
<polygon fill="midnightblue" stroke="midnightblue" points="112.08,-515.162 101.603,-513.585 108.809,-521.351 112.08,-515.162"/>
</g>
<!-- Node14 -->
<g id="node14" class="node"><title>Node14</title>
<g id="a_node14"><a xlink:href="lib___a_t91_s_a_m7_x128_8h.html#a66cb9ac773a7f4ad03ba766a275c6817" target="_top" xlink:title="AT91F_RSTC_CfgPMC">
<polygon fill="white" stroke="black" points="204.5,-532.5 204.5,-551.5 327.5,-551.5 327.5,-532.5 204.5,-532.5"/>
<text text-anchor="middle" x="266" y="-539.5" font-family="Helvetica,sans-Serif" font-size="10.00">AT91F_RSTC_CfgPMC</text>
</a>
</g>
</g>
<!-- Node1&#45;&gt;Node14 -->
<g id="edge13" class="edge"><title>Node1&#45;&gt;Node14</title>
<path fill="none" stroke="midnightblue" d="M139.638,-515.681C165.307,-521.07 195.391,-527.386 219.654,-532.48"/>
<polygon fill="midnightblue" stroke="midnightblue" points="140.18,-512.218 129.674,-513.589 138.741,-519.069 140.18,-512.218"/>
</g>
<!-- Node15 -->
<g id="node15" class="node"><title>Node15</title>
<g id="a_node15"><a xlink:href="lib___a_t91_s_a_m7_x128_8h.html#accdc1f0e102331b58e1be798f001b695" target="_top" xlink:title="AT91F_RTTC_CfgPMC">
<polygon fill="white" stroke="black" points="205,-494.5 205,-513.5 327,-513.5 327,-494.5 205,-494.5"/>
<text text-anchor="middle" x="266" y="-501.5" font-family="Helvetica,sans-Serif" font-size="10.00">AT91F_RTTC_CfgPMC</text>
</a>
</g>
</g>
<!-- Node1&#45;&gt;Node15 -->
<g id="edge14" class="edge"><title>Node1&#45;&gt;Node15</title>
<path fill="none" stroke="midnightblue" d="M175.937,-504C185.711,-504 195.462,-504 204.736,-504"/>
<polygon fill="midnightblue" stroke="midnightblue" points="175.763,-500.5 165.763,-504 175.763,-507.5 175.763,-500.5"/>
</g>
<!-- Node16 -->
<g id="node16" class="node"><title>Node16</title>
<g id="a_node16"><a xlink:href="lib___a_t91_s_a_m7_x128_8h.html#a6465f5fb4aa4c61ccf473194b54bf690" target="_top" xlink:title="AT91F_SPI0_CfgPMC">
<polygon fill="white" stroke="black" points="207.5,-456.5 207.5,-475.5 324.5,-475.5 324.5,-456.5 207.5,-456.5"/>
<text text-anchor="middle" x="266" y="-463.5" font-family="Helvetica,sans-Serif" font-size="10.00">AT91F_SPI0_CfgPMC</text>
</a>
</g>
</g>
<!-- Node1&#45;&gt;Node16 -->
<g id="edge15" class="edge"><title>Node1&#45;&gt;Node16</title>
<path fill="none" stroke="midnightblue" d="M139.638,-492.319C165.307,-486.93 195.391,-480.614 219.654,-475.52"/>
<polygon fill="midnightblue" stroke="midnightblue" points="138.741,-488.931 129.674,-494.411 140.18,-495.782 138.741,-488.931"/>
</g>
<!-- Node17 -->
<g id="node17" class="node"><title>Node17</title>
<g id="a_node17"><a xlink:href="lib___a_t91_s_a_m7_x128_8h.html#a08bbd483007479a7fbe86acd2f4c4dee" target="_top" xlink:title="AT91F_SPI1_CfgPMC">
<polygon fill="white" stroke="black" points="207.5,-418.5 207.5,-437.5 324.5,-437.5 324.5,-418.5 207.5,-418.5"/>
<text text-anchor="middle" x="266" y="-425.5" font-family="Helvetica,sans-Serif" font-size="10.00">AT91F_SPI1_CfgPMC</text>
</a>
</g>
</g>
<!-- Node1&#45;&gt;Node17 -->
<g id="edge16" class="edge"><title>Node1&#45;&gt;Node17</title>
<path fill="none" stroke="midnightblue" d="M110.623,-489.649C134.195,-477.305 169.766,-459.556 202,-447 210.835,-443.558 220.564,-440.351 229.678,-437.588"/>
<polygon fill="midnightblue" stroke="midnightblue" points="108.809,-486.649 101.603,-494.415 112.08,-492.838 108.809,-486.649"/>
</g>
<!-- Node18 -->
<g id="node18" class="node"><title>Node18</title>
<g id="a_node18"><a xlink:href="lib___a_t91_s_a_m7_x128_8h.html#aad1e09250f06b9594c64db3d751ad884" target="_top" xlink:title="AT91F_SSC_CfgPMC">
<polygon fill="white" stroke="black" points="208,-380.5 208,-399.5 324,-399.5 324,-380.5 208,-380.5"/>
<text text-anchor="middle" x="266" y="-387.5" font-family="Helvetica,sans-Serif" font-size="10.00">AT91F_SSC_CfgPMC</text>
</a>
</g>
</g>
<!-- Node1&#45;&gt;Node18 -->
<g id="edge17" class="edge"><title>Node1&#45;&gt;Node18</title>
<path fill="none" stroke="midnightblue" d="M100.511,-487.178C122.057,-466.112 161.777,-430.216 202,-409 209.073,-405.269 216.989,-402.158 224.757,-399.607"/>
<polygon fill="midnightblue" stroke="midnightblue" points="97.8053,-484.933 93.1798,-494.464 102.74,-489.897 97.8053,-484.933"/>
</g>
<!-- Node19 -->
<g id="node19" class="node"><title>Node19</title>
<g id="a_node19"><a xlink:href="lib___a_t91_s_a_m7_x128_8h.html#ac35ffc55e9516215597c2abf21c5c62a" target="_top" xlink:title="AT91F_TC0_CfgPMC">
<polygon fill="white" stroke="black" points="209,-342.5 209,-361.5 323,-361.5 323,-342.5 209,-342.5"/>
<text text-anchor="middle" x="266" y="-349.5" font-family="Helvetica,sans-Serif" font-size="10.00">AT91F_TC0_CfgPMC</text>
</a>
</g>
</g>
<!-- Node1&#45;&gt;Node19 -->
<g id="edge18" class="edge"><title>Node1&#45;&gt;Node19</title>
<path fill="none" stroke="midnightblue" d="M95.3421,-485.702C114.048,-457.03 154.105,-401.632 202,-371 208.063,-367.122 214.958,-364.002 221.907,-361.502"/>
<polygon fill="midnightblue" stroke="midnightblue" points="92.267,-484.015 89.8364,-494.327 98.1673,-487.781 92.267,-484.015"/>
</g>
<!-- Node20 -->
<g id="node20" class="node"><title>Node20</title>
<g id="a_node20"><a xlink:href="lib___a_t91_s_a_m7_x128_8h.html#a2b4f14bea2d16c80a8a41b94761fa942" target="_top" xlink:title="AT91F_TC1_CfgPMC">
<polygon fill="white" stroke="black" points="209,-304.5 209,-323.5 323,-323.5 323,-304.5 209,-304.5"/>
<text text-anchor="middle" x="266" y="-311.5" font-family="Helvetica,sans-Serif" font-size="10.00">AT91F_TC1_CfgPMC</text>
</a>
</g>
</g>
<!-- Node1&#45;&gt;Node20 -->
<g id="edge19" class="edge"><title>Node1&#45;&gt;Node20</title>
<path fill="none" stroke="midnightblue" d="M91.9334,-484.953C107.625,-449.617 146.022,-373.801 202,-333 207.355,-329.097 213.517,-325.988 219.846,-323.512"/>
<polygon fill="midnightblue" stroke="midnightblue" points="88.7082,-483.594 87.9552,-494.162 95.1342,-486.37 88.7082,-483.594"/>
</g>
<!-- Node21 -->
<g id="node21" class="node"><title>Node21</title>
<g id="a_node21"><a xlink:href="lib___a_t91_s_a_m7_x128_8h.html#a040a1b7de4ddf4bd73313d3834fc4fdd" target="_top" xlink:title="AT91F_TC2_CfgPMC">
<polygon fill="white" stroke="black" points="209,-266.5 209,-285.5 323,-285.5 323,-266.5 209,-266.5"/>
<text text-anchor="middle" x="266" y="-273.5" font-family="Helvetica,sans-Serif" font-size="10.00">AT91F_TC2_CfgPMC</text>
</a>
</g>
</g>
<!-- Node1&#45;&gt;Node21 -->
<g id="edge20" class="edge"><title>Node1&#45;&gt;Node21</title>
<path fill="none" stroke="midnightblue" d="M89.4525,-484.79C102.122,-443.658 137.49,-346.621 202,-295 206.817,-291.146 212.405,-288.072 218.224,-285.621"/>
<polygon fill="midnightblue" stroke="midnightblue" points="86.0888,-483.823 86.5953,-494.406 92.7988,-485.817 86.0888,-483.823"/>
</g>
<!-- Node22 -->
<g id="node22" class="node"><title>Node22</title>
<g id="a_node22"><a xlink:href="lib___a_t91_s_a_m7_x128_8h.html#a025f3758edf40020b21e0b238f30db88" target="_top" xlink:title="AT91F_TDES_CfgPMC">
<polygon fill="white" stroke="black" points="205,-228.5 205,-247.5 327,-247.5 327,-228.5 205,-228.5"/>
<text text-anchor="middle" x="266" y="-235.5" font-family="Helvetica,sans-Serif" font-size="10.00">AT91F_TDES_CfgPMC</text>
</a>
</g>
</g>
<!-- Node1&#45;&gt;Node22 -->
<g id="edge21" class="edge"><title>Node1&#45;&gt;Node22</title>
<path fill="none" stroke="midnightblue" d="M87.763,-484.23C97.693,-437.527 129.022,-319.602 202,-257 206.509,-253.132 211.785,-250.052 217.332,-247.598"/>
<polygon fill="midnightblue" stroke="midnightblue" points="84.2866,-483.763 85.7318,-494.259 91.1473,-485.153 84.2866,-483.763"/>
</g>
<!-- Node23 -->
<g id="node23" class="node"><title>Node23</title>
<g id="a_node23"><a xlink:href="lib___a_t91_s_a_m7_x128_8h.html#a51c7c79fb28f540454214bc469926b1e" target="_top" xlink:title="AT91F_TWI_CfgPMC">
<polygon fill="white" stroke="black" points="209,-190.5 209,-209.5 323,-209.5 323,-190.5 209,-190.5"/>
<text text-anchor="middle" x="266" y="-197.5" font-family="Helvetica,sans-Serif" font-size="10.00">AT91F_TWI_CfgPMC</text>
</a>
</g>
</g>
<!-- Node1&#45;&gt;Node23 -->
<g id="edge22" class="edge"><title>Node1&#45;&gt;Node23</title>
<path fill="none" stroke="midnightblue" d="M86.344,-484.396C93.5409,-432.989 120.051,-293.166 202,-219 206.32,-215.09 211.419,-211.985 216.815,-209.517"/>
<polygon fill="midnightblue" stroke="midnightblue" points="82.8521,-484.106 85.0269,-494.475 89.7931,-485.013 82.8521,-484.106"/>
</g>
<!-- Node24 -->
<g id="node24" class="node"><title>Node24</title>
<g id="a_node24"><a xlink:href="lib___a_t91_s_a_m7_x128_8h.html#a8302a993efb6366aea67be2ff4b42db3" target="_top" xlink:title="AT91F_UDP_CfgPMC">
<polygon fill="white" stroke="black" points="207.5,-152.5 207.5,-171.5 324.5,-171.5 324.5,-152.5 207.5,-152.5"/>
<text text-anchor="middle" x="266" y="-159.5" font-family="Helvetica,sans-Serif" font-size="10.00">AT91F_UDP_CfgPMC</text>
</a>
</g>
</g>
<!-- Node1&#45;&gt;Node24 -->
<g id="edge23" class="edge"><title>Node1&#45;&gt;Node24</title>
<path fill="none" stroke="midnightblue" d="M85.2599,-484.45C89.9245,-428.608 111.033,-266.894 202,-181 206.07,-177.157 210.89,-174.089 216.024,-171.64"/>
<polygon fill="midnightblue" stroke="midnightblue" points="81.7696,-484.191 84.5125,-494.425 88.75,-484.714 81.7696,-484.191"/>
</g>
<!-- Node25 -->
<g id="node25" class="node"><title>Node25</title>
<g id="a_node25"><a xlink:href="lib___a_t91_s_a_m7_x128_8h.html#ade44121449196dfc9bef195825fbf76e" target="_top" xlink:title="AT91F_US0_CfgPMC">
<polygon fill="white" stroke="black" points="208.5,-114.5 208.5,-133.5 323.5,-133.5 323.5,-114.5 208.5,-114.5"/>
<text text-anchor="middle" x="266" y="-121.5" font-family="Helvetica,sans-Serif" font-size="10.00">AT91F_US0_CfgPMC</text>
</a>
</g>
</g>
<!-- Node1&#45;&gt;Node25 -->
<g id="edge24" class="edge"><title>Node1&#45;&gt;Node25</title>
<path fill="none" stroke="midnightblue" d="M84.4043,-484.201C86.7327,-423.89 102.098,-240.629 202,-143 206.004,-139.088 210.783,-135.977 215.893,-133.504"/>
<polygon fill="midnightblue" stroke="midnightblue" points="80.9036,-484.172 84.0974,-494.274 87.9004,-484.385 80.9036,-484.172"/>
</g>
<!-- Node26 -->
<g id="node26" class="node"><title>Node26</title>
<g id="a_node26"><a xlink:href="lib___a_t91_s_a_m7_x128_8h.html#a278b7419f9f39265d7dc9252b2f9c7ab" target="_top" xlink:title="AT91F_US1_CfgPMC">
<polygon fill="white" stroke="black" points="208.5,-76.5 208.5,-95.5 323.5,-95.5 323.5,-76.5 208.5,-76.5"/>
<text text-anchor="middle" x="266" y="-83.5" font-family="Helvetica,sans-Serif" font-size="10.00">AT91F_US1_CfgPMC</text>
</a>
</g>
</g>
<!-- Node1&#45;&gt;Node26 -->
<g id="edge25" class="edge"><title>Node1&#45;&gt;Node26</title>
<path fill="none" stroke="midnightblue" d="M83.6838,-483.883C83.7981,-419.204 93.138,-214.448 202,-105 205.867,-101.112 210.499,-98.0143 215.473,-95.5468"/>
<polygon fill="midnightblue" stroke="midnightblue" points="80.1862,-484.297 83.7479,-494.275 87.186,-484.254 80.1862,-484.297"/>
</g>
<!-- Node27 -->
<g id="node27" class="node"><title>Node27</title>
<g id="a_node27"><a xlink:href="lib___a_t91_s_a_m7_x128_8h.html#a9cb809e094ce47d56ef9329312ddb958" target="_top" xlink:title="AT91F_VREG_CfgPMC">
<polygon fill="white" stroke="black" points="204,-38.5 204,-57.5 328,-57.5 328,-38.5 204,-38.5"/>
<text text-anchor="middle" x="266" y="-45.5" font-family="Helvetica,sans-Serif" font-size="10.00">AT91F_VREG_CfgPMC</text>
</a>
</g>
</g>
<!-- Node1&#45;&gt;Node27 -->
<g id="edge26" class="edge"><title>Node1&#45;&gt;Node27</title>
<path fill="none" stroke="midnightblue" d="M86.8138,-483.89C98.0266,-406.47 141.85,-128.932 202,-67 205.741,-63.1483 210.232,-60.0705 215.071,-57.6122"/>
<polygon fill="midnightblue" stroke="midnightblue" points="83.294,-483.78 85.347,-494.174 90.2239,-484.769 83.294,-483.78"/>
</g>
<!-- Node28 -->
<g id="node28" class="node"><title>Node28</title>
<g id="a_node28"><a xlink:href="lib___a_t91_s_a_m7_x128_8h.html#a48cedd1892005305566a3ea92b55b99d" target="_top" xlink:title="AT91F_WDTC_CfgPMC">
<polygon fill="white" stroke="black" points="203.5,-0.5 203.5,-19.5 328.5,-19.5 328.5,-0.5 203.5,-0.5"/>
<text text-anchor="middle" x="266" y="-7.5" font-family="Helvetica,sans-Serif" font-size="10.00">AT91F_WDTC_CfgPMC</text>
</a>
</g>
</g>
<!-- Node1&#45;&gt;Node28 -->
<g id="edge27" class="edge"><title>Node1&#45;&gt;Node28</title>
<path fill="none" stroke="midnightblue" d="M86.367,-483.745C96.3135,-401.938 137.231,-97.0516 202,-29 205.702,-25.1107 210.168,-22.009 214.993,-19.5369"/>
<polygon fill="midnightblue" stroke="midnightblue" points="82.836,-483.796 85.1251,-494.141 89.7866,-484.627 82.836,-483.796"/>
</g>
</g>
</svg>
