<?xml version="1.0" encoding="UTF-8" standalone="no"?>
<!DOCTYPE svg PUBLIC "-//W3C//DTD SVG 1.1//EN"
 "http://www.w3.org/Graphics/SVG/1.1/DTD/svg11.dtd">
<!-- Generated by graphviz version 2.30.1 (20130221.2233)
 -->
<!-- Title: source/portable/GCC/ARM7_AT91SAM7S/lib_AT91SAM7X256.c Pages: 1 -->
<svg width="130pt" height="106pt"
 viewBox="0.00 0.00 130.00 106.00" xmlns="http://www.w3.org/2000/svg" xmlns:xlink="http://www.w3.org/1999/xlink">
<g id="graph0" class="graph" transform="scale(1 1) rotate(0) translate(4 102)">
<title>source/portable/GCC/ARM7_AT91SAM7S/lib_AT91SAM7X256.c</title>
<polygon fill="white" stroke="white" points="-4,5 -4,-102 127,-102 127,5 -4,5"/>
<!-- Node1 -->
<g id="node1" class="node"><title>Node1</title>
<polygon fill="#bfbfbf" stroke="black" points="-0.5,-56.5 -0.5,-97.5 122.5,-97.5 122.5,-56.5 -0.5,-56.5"/>
<text text-anchor="start" x="7.5" y="-85.5" font-family="Helvetica,sans-Serif" font-size="10.00">source/portable/GCC</text>
<text text-anchor="start" x="7.5" y="-74.5" font-family="Helvetica,sans-Serif" font-size="10.00">/ARM7_AT91SAM7S/lib</text>
<text text-anchor="middle" x="61" y="-63.5" font-family="Helvetica,sans-Serif" font-size="10.00">_AT91SAM7X256.c</text>
</g>
<!-- Node2 -->
<g id="node2" class="node"><title>Node2</title>
<g id="a_node2"><a xlink:href="_g_c_c_2_a_r_m7___a_t91_s_a_m7_s_2_a_t91_s_a_m7_x256_8h.html" target="_top" xlink:title="AT91SAM7X256.h">
<polygon fill="white" stroke="black" points="11.5,-0.5 11.5,-19.5 110.5,-19.5 110.5,-0.5 11.5,-0.5"/>
<text text-anchor="middle" x="61" y="-7.5" font-family="Helvetica,sans-Serif" font-size="10.00">AT91SAM7X256.h</text>
</a>
</g>
</g>
<!-- Node1&#45;&gt;Node2 -->
<g id="edge1" class="edge"><title>Node1&#45;&gt;Node2</title>
<path fill="none" stroke="midnightblue" d="M61,-56.4979C61,-48.0653 61,-38.2351 61,-29.874"/>
<polygon fill="midnightblue" stroke="midnightblue" points="64.5001,-29.6525 61,-19.6525 57.5001,-29.6525 64.5001,-29.6525"/>
</g>
</g>
</svg>
