<?xml version="1.0" encoding="UTF-8" standalone="no"?>
<!DOCTYPE svg PUBLIC "-//W3C//DTD SVG 1.1//EN"
 "http://www.w3.org/Graphics/SVG/1.1/DTD/svg11.dtd">
<!-- Generated by graphviz version 2.30.1 (20130221.2233)
 -->
<!-- Title: AT91F_SSC_ReceiveFrame Pages: 1 -->
<svg width="516pt" height="142pt"
 viewBox="0.00 0.00 516.00 142.00" xmlns="http://www.w3.org/2000/svg" xmlns:xlink="http://www.w3.org/1999/xlink">
<g id="graph0" class="graph" transform="scale(1 1) rotate(0) translate(4 138)">
<title>AT91F_SSC_ReceiveFrame</title>
<polygon fill="white" stroke="white" points="-4,5 -4,-138 513,-138 513,5 -4,5"/>
<!-- Node1 -->
<g id="node1" class="node"><title>Node1</title>
<polygon fill="#bfbfbf" stroke="black" points="0.5,-57.5 0.5,-76.5 143.5,-76.5 143.5,-57.5 0.5,-57.5"/>
<text text-anchor="middle" x="72" y="-64.5" font-family="Helvetica,sans-Serif" font-size="10.00">AT91F_SSC_ReceiveFrame</text>
</g>
<!-- Node2 -->
<g id="node2" class="node"><title>Node2</title>
<g id="a_node2"><a xlink:href="lib___a_t91_s_a_m7_x128_8h.html#aafc2ac73bfe8e6584b59dfa99dcc734d" target="_top" xlink:title="AT91F_PDC_ReceiveFrame">
<polygon fill="white" stroke="black" points="180,-57.5 180,-76.5 324,-76.5 324,-57.5 180,-57.5"/>
<text text-anchor="middle" x="252" y="-64.5" font-family="Helvetica,sans-Serif" font-size="10.00">AT91F_PDC_ReceiveFrame</text>
</a>
</g>
</g>
<!-- Node1&#45;&gt;Node2 -->
<g id="edge1" class="edge"><title>Node1&#45;&gt;Node2</title>
<path fill="none" stroke="midnightblue" d="M143.606,-67C152.187,-67 161.007,-67 169.726,-67"/>
<polygon fill="midnightblue" stroke="midnightblue" points="169.897,-70.5001 179.897,-67 169.897,-63.5001 169.897,-70.5001"/>
</g>
<!-- Node3 -->
<g id="node3" class="node"><title>Node3</title>
<g id="a_node3"><a xlink:href="lib___a_t91_s_a_m7_x128_8h.html#ae073ed106e68b56986c7e7d1f54645c3" target="_top" xlink:title="AT91F_PDC_IsNextRxEmpty">
<polygon fill="white" stroke="black" points="360,-114.5 360,-133.5 508,-133.5 508,-114.5 360,-114.5"/>
<text text-anchor="middle" x="434" y="-121.5" font-family="Helvetica,sans-Serif" font-size="10.00">AT91F_PDC_IsNextRxEmpty</text>
</a>
</g>
</g>
<!-- Node2&#45;&gt;Node3 -->
<g id="edge2" class="edge"><title>Node2&#45;&gt;Node3</title>
<path fill="none" stroke="midnightblue" d="M277.874,-76.5241C299.431,-84.6114 331.545,-96.262 360,-105 367.743,-107.378 376.006,-109.716 384.085,-111.894"/>
<polygon fill="midnightblue" stroke="midnightblue" points="383.24,-115.291 393.802,-114.464 385.03,-108.523 383.24,-115.291"/>
</g>
<!-- Node4 -->
<g id="node4" class="node"><title>Node4</title>
<g id="a_node4"><a xlink:href="lib___a_t91_s_a_m7_x128_8h.html#a9d1c7d81accef655c0e89b2bc3a3bcca" target="_top" xlink:title="AT91F_PDC_IsRxEmpty">
<polygon fill="white" stroke="black" points="370.5,-76.5 370.5,-95.5 497.5,-95.5 497.5,-76.5 370.5,-76.5"/>
<text text-anchor="middle" x="434" y="-83.5" font-family="Helvetica,sans-Serif" font-size="10.00">AT91F_PDC_IsRxEmpty</text>
</a>
</g>
</g>
<!-- Node2&#45;&gt;Node4 -->
<g id="edge3" class="edge"><title>Node2&#45;&gt;Node4</title>
<path fill="none" stroke="midnightblue" d="M324.141,-74.5093C335.921,-75.7528 348.153,-77.044 359.979,-78.2923"/>
<polygon fill="midnightblue" stroke="midnightblue" points="359.934,-81.8068 370.246,-79.376 360.669,-74.8455 359.934,-81.8068"/>
</g>
<!-- Node5 -->
<g id="node5" class="node"><title>Node5</title>
<g id="a_node5"><a xlink:href="lib___a_t91_s_a_m7_x128_8h.html#a90529726eb41ee44d45f3bb99923b2ef" target="_top" xlink:title="AT91F_PDC_SetNextRx">
<polygon fill="white" stroke="black" points="370.5,-38.5 370.5,-57.5 497.5,-57.5 497.5,-38.5 370.5,-38.5"/>
<text text-anchor="middle" x="434" y="-45.5" font-family="Helvetica,sans-Serif" font-size="10.00">AT91F_PDC_SetNextRx</text>
</a>
</g>
</g>
<!-- Node2&#45;&gt;Node5 -->
<g id="edge4" class="edge"><title>Node2&#45;&gt;Node5</title>
<path fill="none" stroke="midnightblue" d="M324.141,-59.4907C335.921,-58.2472 348.153,-56.956 359.979,-55.7077"/>
<polygon fill="midnightblue" stroke="midnightblue" points="360.669,-59.1545 370.246,-54.624 359.934,-52.1932 360.669,-59.1545"/>
</g>
<!-- Node6 -->
<g id="node6" class="node"><title>Node6</title>
<g id="a_node6"><a xlink:href="lib___a_t91_s_a_m7_x128_8h.html#af3a2086c959ae5ea3b73fcfc09bb46fb" target="_top" xlink:title="AT91F_PDC_SetRx">
<polygon fill="white" stroke="black" points="381,-0.5 381,-19.5 487,-19.5 487,-0.5 381,-0.5"/>
<text text-anchor="middle" x="434" y="-7.5" font-family="Helvetica,sans-Serif" font-size="10.00">AT91F_PDC_SetRx</text>
</a>
</g>
</g>
<!-- Node2&#45;&gt;Node6 -->
<g id="edge5" class="edge"><title>Node2&#45;&gt;Node6</title>
<path fill="none" stroke="midnightblue" d="M277.874,-57.4759C299.431,-49.3886 331.545,-37.738 360,-29 367.743,-26.6223 376.006,-24.2844 384.085,-22.1059"/>
<polygon fill="midnightblue" stroke="midnightblue" points="385.03,-25.4765 393.802,-19.5357 383.24,-18.7093 385.03,-25.4765"/>
</g>
</g>
</svg>
