<?xml version="1.0" encoding="UTF-8" standalone="no"?>
<!DOCTYPE svg PUBLIC "-//W3C//DTD SVG 1.1//EN"
 "http://www.w3.org/Graphics/SVG/1.1/DTD/svg11.dtd">
<!-- Generated by graphviz version 2.30.1 (20130221.2233)
 -->
<!-- Title: AT91F_PDC_SetRx Pages: 1 -->
<svg width="474pt" height="256pt"
 viewBox="0.00 0.00 474.00 256.00" xmlns="http://www.w3.org/2000/svg" xmlns:xlink="http://www.w3.org/1999/xlink">
<g id="graph0" class="graph" transform="scale(1 1) rotate(0) translate(4 252)">
<title>AT91F_PDC_SetRx</title>
<polygon fill="white" stroke="white" points="-4,5 -4,-252 471,-252 471,5 -4,5"/>
<!-- Node1 -->
<g id="node1" class="node"><title>Node1</title>
<polygon fill="#bfbfbf" stroke="black" points="0,-123.5 0,-142.5 106,-142.5 106,-123.5 0,-123.5"/>
<text text-anchor="middle" x="53" y="-130.5" font-family="Helvetica,sans-Serif" font-size="10.00">AT91F_PDC_SetRx</text>
</g>
<!-- Node2 -->
<g id="node2" class="node"><title>Node2</title>
<g id="a_node2"><a xlink:href="lib___a_t91_s_a_m7_s64_8h.html#ae7a00663d9b586d0060d83e4c3e1921f" target="_top" xlink:title="AT91F_PDC_Close">
<polygon fill="white" stroke="black" points="162,-190.5 162,-209.5 266,-209.5 266,-190.5 162,-190.5"/>
<text text-anchor="middle" x="214" y="-197.5" font-family="Helvetica,sans-Serif" font-size="10.00">AT91F_PDC_Close</text>
</a>
</g>
</g>
<!-- Node1&#45;&gt;Node2 -->
<g id="edge1" class="edge"><title>Node1&#45;&gt;Node2</title>
<path fill="none" stroke="midnightblue" d="M86.2465,-146.588C117.15,-159.61 163.007,-178.934 190.261,-190.418"/>
<polygon fill="midnightblue" stroke="midnightblue" points="87.3552,-143.257 76.7808,-142.599 84.637,-149.708 87.3552,-143.257"/>
</g>
<!-- Node5 -->
<g id="node5" class="node"><title>Node5</title>
<g id="a_node5"><a xlink:href="lib___a_t91_s_a_m7_s64_8h.html#a943bb6125d66d7956df049c6989f00f1" target="_top" xlink:title="AT91F_PDC_Open">
<polygon fill="white" stroke="black" points="162.5,-123.5 162.5,-142.5 265.5,-142.5 265.5,-123.5 162.5,-123.5"/>
<text text-anchor="middle" x="214" y="-130.5" font-family="Helvetica,sans-Serif" font-size="10.00">AT91F_PDC_Open</text>
</a>
</g>
</g>
<!-- Node1&#45;&gt;Node5 -->
<g id="edge4" class="edge"><title>Node1&#45;&gt;Node5</title>
<path fill="none" stroke="midnightblue" d="M116.451,-133C131.701,-133 147.829,-133 162.446,-133"/>
<polygon fill="midnightblue" stroke="midnightblue" points="116.063,-129.5 106.063,-133 116.063,-136.5 116.063,-129.5"/>
</g>
<!-- Node8 -->
<g id="node8" class="node"><title>Node8</title>
<g id="a_node8"><a xlink:href="lib___a_t91_s_a_m7_s64_8h.html#aafc2ac73bfe8e6584b59dfa99dcc734d" target="_top" xlink:title="AT91F_PDC_ReceiveFrame">
<polygon fill="white" stroke="black" points="142,-66.5 142,-85.5 286,-85.5 286,-66.5 142,-66.5"/>
<text text-anchor="middle" x="214" y="-73.5" font-family="Helvetica,sans-Serif" font-size="10.00">AT91F_PDC_ReceiveFrame</text>
</a>
</g>
</g>
<!-- Node1&#45;&gt;Node8 -->
<g id="edge7" class="edge"><title>Node1&#45;&gt;Node8</title>
<path fill="none" stroke="midnightblue" d="M90.0636,-120.072C119.319,-109.584 159.899,-95.0361 186.3,-85.5716"/>
<polygon fill="midnightblue" stroke="midnightblue" points="88.8453,-116.79 80.613,-123.459 91.2076,-123.379 88.8453,-116.79"/>
</g>
<!-- Node3 -->
<g id="node3" class="node"><title>Node3</title>
<g id="a_node3"><a xlink:href="lib___a_t91_s_a_m7_s64_8h.html#a1d538178f15852104ef39cbb837504c3" target="_top" xlink:title="AT91F_SPI_Close">
<polygon fill="white" stroke="black" points="344.5,-228.5 344.5,-247.5 443.5,-247.5 443.5,-228.5 344.5,-228.5"/>
<text text-anchor="middle" x="394" y="-235.5" font-family="Helvetica,sans-Serif" font-size="10.00">AT91F_SPI_Close</text>
</a>
</g>
</g>
<!-- Node2&#45;&gt;Node3 -->
<g id="edge2" class="edge"><title>Node2&#45;&gt;Node3</title>
<path fill="none" stroke="midnightblue" d="M269.716,-211.681C294.959,-217.07 324.545,-223.386 348.406,-228.48"/>
<polygon fill="midnightblue" stroke="midnightblue" points="270.427,-208.254 259.917,-209.589 268.966,-215.1 270.427,-208.254"/>
</g>
<!-- Node4 -->
<g id="node4" class="node"><title>Node4</title>
<g id="a_node4"><a xlink:href="lib___a_t91_s_a_m7_s64_8h.html#a7b4bbc35e32ebaa01d042c344ff4ded0" target="_top" xlink:title="AT91F_US_Close">
<polygon fill="white" stroke="black" points="345.5,-190.5 345.5,-209.5 442.5,-209.5 442.5,-190.5 345.5,-190.5"/>
<text text-anchor="middle" x="394" y="-197.5" font-family="Helvetica,sans-Serif" font-size="10.00">AT91F_US_Close</text>
</a>
</g>
</g>
<!-- Node2&#45;&gt;Node4 -->
<g id="edge3" class="edge"><title>Node2&#45;&gt;Node4</title>
<path fill="none" stroke="midnightblue" d="M276.19,-200C298.812,-200 324.099,-200 345.344,-200"/>
<polygon fill="midnightblue" stroke="midnightblue" points="276.008,-196.5 266.008,-200 276.008,-203.5 276.008,-196.5"/>
</g>
<!-- Node6 -->
<g id="node6" class="node"><title>Node6</title>
<g id="a_node6"><a xlink:href="lib___a_t91_s_a_m7_s64_8h.html#aa9745e47a0642596e61432ffbc890080" target="_top" xlink:title="AT91F_SSC_Configure">
<polygon fill="white" stroke="black" points="333,-152.5 333,-171.5 455,-171.5 455,-152.5 333,-152.5"/>
<text text-anchor="middle" x="394" y="-159.5" font-family="Helvetica,sans-Serif" font-size="10.00">AT91F_SSC_Configure</text>
</a>
</g>
</g>
<!-- Node5&#45;&gt;Node6 -->
<g id="edge5" class="edge"><title>Node5&#45;&gt;Node6</title>
<path fill="none" stroke="midnightblue" d="M275.584,-142.87C294.619,-145.972 315.592,-149.389 334.481,-152.466"/>
<polygon fill="midnightblue" stroke="midnightblue" points="275.964,-139.386 265.532,-141.233 274.839,-146.295 275.964,-139.386"/>
</g>
<!-- Node7 -->
<g id="node7" class="node"><title>Node7</title>
<g id="a_node7"><a xlink:href="lib___a_t91_s_a_m7_s64_8h.html#acbbed25fcf0256823175db5f1a8f1f39" target="_top" xlink:title="AT91F_US_Configure">
<polygon fill="white" stroke="black" points="336.5,-114.5 336.5,-133.5 451.5,-133.5 451.5,-114.5 336.5,-114.5"/>
<text text-anchor="middle" x="394" y="-121.5" font-family="Helvetica,sans-Serif" font-size="10.00">AT91F_US_Configure</text>
</a>
</g>
</g>
<!-- Node5&#45;&gt;Node7 -->
<g id="edge6" class="edge"><title>Node5&#45;&gt;Node7</title>
<path fill="none" stroke="midnightblue" d="M275.608,-129.936C295.281,-128.941 317.023,-127.842 336.393,-126.862"/>
<polygon fill="midnightblue" stroke="midnightblue" points="275.342,-126.444 265.532,-130.445 275.696,-133.436 275.342,-126.444"/>
</g>
<!-- Node9 -->
<g id="node9" class="node"><title>Node9</title>
<g id="a_node9"><a xlink:href="lib___a_t91_s_a_m7_s64_8h.html#a3fd88379fedca045387ceabc79da98f6" target="_top" xlink:title="AT91F_SPI_ReceiveFrame">
<polygon fill="white" stroke="black" points="324.5,-76.5 324.5,-95.5 463.5,-95.5 463.5,-76.5 324.5,-76.5"/>
<text text-anchor="middle" x="394" y="-83.5" font-family="Helvetica,sans-Serif" font-size="10.00">AT91F_SPI_ReceiveFrame</text>
</a>
</g>
</g>
<!-- Node8&#45;&gt;Node9 -->
<g id="edge8" class="edge"><title>Node8&#45;&gt;Node9</title>
<path fill="none" stroke="midnightblue" d="M296.235,-80.5637C305.619,-81.0909 315.118,-81.6246 324.313,-82.1412"/>
<polygon fill="midnightblue" stroke="midnightblue" points="296.298,-77.0619 286.118,-79.9954 295.906,-84.0509 296.298,-77.0619"/>
</g>
<!-- Node10 -->
<g id="node10" class="node"><title>Node10</title>
<g id="a_node10"><a xlink:href="lib___a_t91_s_a_m7_s64_8h.html#ae2e9978885885118d9106fb029b40b8a" target="_top" xlink:title="AT91F_SSC_ReceiveFrame">
<polygon fill="white" stroke="black" points="322.5,-38.5 322.5,-57.5 465.5,-57.5 465.5,-38.5 322.5,-38.5"/>
<text text-anchor="middle" x="394" y="-45.5" font-family="Helvetica,sans-Serif" font-size="10.00">AT91F_SSC_ReceiveFrame</text>
</a>
</g>
</g>
<!-- Node8&#45;&gt;Node10 -->
<g id="edge9" class="edge"><title>Node8&#45;&gt;Node10</title>
<path fill="none" stroke="midnightblue" d="M285.792,-64.8641C301.259,-62.4311 317.493,-59.8776 332.514,-57.5146"/>
<polygon fill="midnightblue" stroke="midnightblue" points="285.094,-61.4308 275.76,-66.4423 286.182,-68.3458 285.094,-61.4308"/>
</g>
<!-- Node11 -->
<g id="node11" class="node"><title>Node11</title>
<g id="a_node11"><a xlink:href="lib___a_t91_s_a_m7_s64_8h.html#a413427ce949ec0321bf321a4c1b91cd1" target="_top" xlink:title="AT91F_US_ReceiveFrame">
<polygon fill="white" stroke="black" points="325.5,-0.5 325.5,-19.5 462.5,-19.5 462.5,-0.5 325.5,-0.5"/>
<text text-anchor="middle" x="394" y="-7.5" font-family="Helvetica,sans-Serif" font-size="10.00">AT91F_US_ReceiveFrame</text>
</a>
</g>
</g>
<!-- Node8&#45;&gt;Node11 -->
<g id="edge10" class="edge"><title>Node8&#45;&gt;Node11</title>
<path fill="none" stroke="midnightblue" d="M243.487,-62.065C264.775,-52.0033 294.774,-38.5598 322,-29 331.872,-25.5335 342.705,-22.3384 352.87,-19.5964"/>
<polygon fill="midnightblue" stroke="midnightblue" points="241.876,-58.9559 234.361,-66.4239 244.893,-65.2725 241.876,-58.9559"/>
</g>
</g>
</svg>
