<?xml version="1.0" encoding="UTF-8" standalone="no"?>
<!DOCTYPE svg PUBLIC "-//W3C//DTD SVG 1.1//EN"
 "http://www.w3.org/Graphics/SVG/1.1/DTD/svg11.dtd">
<!-- Generated by graphviz version 2.30.1 (20130221.2233)
 -->
<!-- Title: AT91F_SPI_SendFrame Pages: 1 -->
<svg width="486pt" height="142pt"
 viewBox="0.00 0.00 486.00 142.00" xmlns="http://www.w3.org/2000/svg" xmlns:xlink="http://www.w3.org/1999/xlink">
<g id="graph0" class="graph" transform="scale(1 1) rotate(0) translate(4 138)">
<title>AT91F_SPI_SendFrame</title>
<polygon fill="white" stroke="white" points="-4,5 -4,-138 483,-138 483,5 -4,5"/>
<!-- Node1 -->
<g id="node1" class="node"><title>Node1</title>
<polygon fill="#bfbfbf" stroke="black" points="0,-57.5 0,-76.5 126,-76.5 126,-57.5 0,-57.5"/>
<text text-anchor="middle" x="63" y="-64.5" font-family="Helvetica,sans-Serif" font-size="10.00">AT91F_SPI_SendFrame</text>
</g>
<!-- Node2 -->
<g id="node2" class="node"><title>Node2</title>
<g id="a_node2"><a xlink:href="lib___a_t91_s_a_m7_x128_8h.html#a69b0e9baa0272a3febd549034aad1fcb" target="_top" xlink:title="AT91F_PDC_SendFrame">
<polygon fill="white" stroke="black" points="162.5,-57.5 162.5,-76.5 293.5,-76.5 293.5,-57.5 162.5,-57.5"/>
<text text-anchor="middle" x="228" y="-64.5" font-family="Helvetica,sans-Serif" font-size="10.00">AT91F_PDC_SendFrame</text>
</a>
</g>
</g>
<!-- Node1&#45;&gt;Node2 -->
<g id="edge1" class="edge"><title>Node1&#45;&gt;Node2</title>
<path fill="none" stroke="midnightblue" d="M126.088,-67C134.624,-67 143.461,-67 152.196,-67"/>
<polygon fill="midnightblue" stroke="midnightblue" points="152.377,-70.5001 162.377,-67 152.377,-63.5001 152.377,-70.5001"/>
</g>
<!-- Node3 -->
<g id="node3" class="node"><title>Node3</title>
<g id="a_node3"><a xlink:href="lib___a_t91_s_a_m7_x128_8h.html#a850c514a0aa55991ed5fe7c7e0989209" target="_top" xlink:title="AT91F_PDC_IsNextTxEmpty">
<polygon fill="white" stroke="black" points="330.5,-114.5 330.5,-133.5 477.5,-133.5 477.5,-114.5 330.5,-114.5"/>
<text text-anchor="middle" x="404" y="-121.5" font-family="Helvetica,sans-Serif" font-size="10.00">AT91F_PDC_IsNextTxEmpty</text>
</a>
</g>
</g>
<!-- Node2&#45;&gt;Node3 -->
<g id="edge2" class="edge"><title>Node2&#45;&gt;Node3</title>
<path fill="none" stroke="midnightblue" d="M252.427,-76.6162C272.741,-84.761 303.035,-96.4445 330,-105 337.548,-107.395 345.603,-109.718 353.505,-111.871"/>
<polygon fill="midnightblue" stroke="midnightblue" points="352.818,-115.31 363.382,-114.498 354.617,-108.545 352.818,-115.31"/>
</g>
<!-- Node4 -->
<g id="node4" class="node"><title>Node4</title>
<g id="a_node4"><a xlink:href="lib___a_t91_s_a_m7_x128_8h.html#a07dcf21b4e39e894efcc34afa3b4787d" target="_top" xlink:title="AT91F_PDC_IsTxEmpty">
<polygon fill="white" stroke="black" points="341,-76.5 341,-95.5 467,-95.5 467,-76.5 341,-76.5"/>
<text text-anchor="middle" x="404" y="-83.5" font-family="Helvetica,sans-Serif" font-size="10.00">AT91F_PDC_IsTxEmpty</text>
</a>
</g>
</g>
<!-- Node2&#45;&gt;Node4 -->
<g id="edge3" class="edge"><title>Node2&#45;&gt;Node4</title>
<path fill="none" stroke="midnightblue" d="M293.791,-74.0749C305.793,-75.3855 318.4,-76.7621 330.611,-78.0955"/>
<polygon fill="midnightblue" stroke="midnightblue" points="330.433,-81.5968 340.754,-79.203 331.193,-74.6381 330.433,-81.5968"/>
</g>
<!-- Node5 -->
<g id="node5" class="node"><title>Node5</title>
<g id="a_node5"><a xlink:href="lib___a_t91_s_a_m7_x128_8h.html#aa0b8b8b33d4b6514714851b653a011eb" target="_top" xlink:title="AT91F_PDC_SetNextTx">
<polygon fill="white" stroke="black" points="341.5,-38.5 341.5,-57.5 466.5,-57.5 466.5,-38.5 341.5,-38.5"/>
<text text-anchor="middle" x="404" y="-45.5" font-family="Helvetica,sans-Serif" font-size="10.00">AT91F_PDC_SetNextTx</text>
</a>
</g>
</g>
<!-- Node2&#45;&gt;Node5 -->
<g id="edge4" class="edge"><title>Node2&#45;&gt;Node5</title>
<path fill="none" stroke="midnightblue" d="M293.791,-59.9251C305.944,-58.598 318.717,-57.2033 331.072,-55.8542"/>
<polygon fill="midnightblue" stroke="midnightblue" points="331.768,-59.2991 341.329,-54.7342 331.008,-52.3405 331.768,-59.2991"/>
</g>
<!-- Node6 -->
<g id="node6" class="node"><title>Node6</title>
<g id="a_node6"><a xlink:href="lib___a_t91_s_a_m7_x128_8h.html#ad32f369ef9e9f0f395e577e1ed1652df" target="_top" xlink:title="AT91F_PDC_SetTx">
<polygon fill="white" stroke="black" points="351.5,-0.5 351.5,-19.5 456.5,-19.5 456.5,-0.5 351.5,-0.5"/>
<text text-anchor="middle" x="404" y="-7.5" font-family="Helvetica,sans-Serif" font-size="10.00">AT91F_PDC_SetTx</text>
</a>
</g>
</g>
<!-- Node2&#45;&gt;Node6 -->
<g id="edge5" class="edge"><title>Node2&#45;&gt;Node6</title>
<path fill="none" stroke="midnightblue" d="M252.427,-57.3838C272.741,-49.239 303.035,-37.5555 330,-29 337.548,-26.6051 345.603,-24.2815 353.505,-22.1291"/>
<polygon fill="midnightblue" stroke="midnightblue" points="354.617,-25.455 363.382,-19.5019 352.818,-18.6902 354.617,-25.455"/>
</g>
</g>
</svg>
