<?xml version="1.0" encoding="UTF-8" standalone="no"?>
<!DOCTYPE svg PUBLIC "-//W3C//DTD SVG 1.1//EN"
 "http://www.w3.org/Graphics/SVG/1.1/DTD/svg11.dtd">
<!-- Generated by graphviz version 2.30.1 (20130221.2233)
 -->
<!-- Title: AT91F_PDC_Open Pages: 1 -->
<svg width="276pt" height="294pt"
 viewBox="0.00 0.00 276.00 294.00" xmlns="http://www.w3.org/2000/svg" xmlns:xlink="http://www.w3.org/1999/xlink">
<g id="graph0" class="graph" transform="scale(1 1) rotate(0) translate(4 290)">
<title>AT91F_PDC_Open</title>
<polygon fill="white" stroke="white" points="-4,5 -4,-290 273,-290 273,5 -4,5"/>
<!-- Node1 -->
<g id="node1" class="node"><title>Node1</title>
<polygon fill="#bfbfbf" stroke="black" points="0.5,-133.5 0.5,-152.5 103.5,-152.5 103.5,-133.5 0.5,-133.5"/>
<text text-anchor="middle" x="52" y="-140.5" font-family="Helvetica,sans-Serif" font-size="10.00">AT91F_PDC_Open</text>
</g>
<!-- Node2 -->
<g id="node2" class="node"><title>Node2</title>
<g id="a_node2"><a xlink:href="lib___a_t91_s_a_m7_s64_8h.html#a065419f8fc40760b2db4773c57812ac5" target="_top" xlink:title="AT91F_PDC_DisableRx">
<polygon fill="white" stroke="black" points="142,-266.5 142,-285.5 266,-285.5 266,-266.5 142,-266.5"/>
<text text-anchor="middle" x="204" y="-273.5" font-family="Helvetica,sans-Serif" font-size="10.00">AT91F_PDC_DisableRx</text>
</a>
</g>
</g>
<!-- Node1&#45;&gt;Node2 -->
<g id="edge1" class="edge"><title>Node1&#45;&gt;Node2</title>
<path fill="none" stroke="midnightblue" d="M57.6257,-152.578C68.6924,-174.476 98.8662,-228.5 140,-257 142.857,-258.979 145.924,-260.757 149.112,-262.352"/>
<polygon fill="midnightblue" stroke="midnightblue" points="147.774,-265.587 158.339,-266.382 150.576,-259.172 147.774,-265.587"/>
</g>
<!-- Node3 -->
<g id="node3" class="node"><title>Node3</title>
<g id="a_node3"><a xlink:href="lib___a_t91_s_a_m7_s64_8h.html#a232c924087e392d02daf17acf4b9be52" target="_top" xlink:title="AT91F_PDC_DisableTx">
<polygon fill="white" stroke="black" points="142.5,-228.5 142.5,-247.5 265.5,-247.5 265.5,-228.5 142.5,-228.5"/>
<text text-anchor="middle" x="204" y="-235.5" font-family="Helvetica,sans-Serif" font-size="10.00">AT91F_PDC_DisableTx</text>
</a>
</g>
</g>
<!-- Node1&#45;&gt;Node3 -->
<g id="edge2" class="edge"><title>Node1&#45;&gt;Node3</title>
<path fill="none" stroke="midnightblue" d="M61.4023,-152.629C75.8892,-168.658 107.186,-200.84 140,-219 143.929,-221.175 148.138,-223.129 152.447,-224.881"/>
<polygon fill="midnightblue" stroke="midnightblue" points="151.377,-228.217 161.971,-228.395 153.801,-221.65 151.377,-228.217"/>
</g>
<!-- Node4 -->
<g id="node4" class="node"><title>Node4</title>
<g id="a_node4"><a xlink:href="lib___a_t91_s_a_m7_s64_8h.html#aa8532ddcc7f440a628adc6f75e1a00e2" target="_top" xlink:title="AT91F_PDC_EnableRx">
<polygon fill="white" stroke="black" points="143,-190.5 143,-209.5 265,-209.5 265,-190.5 143,-190.5"/>
<text text-anchor="middle" x="204" y="-197.5" font-family="Helvetica,sans-Serif" font-size="10.00">AT91F_PDC_EnableRx</text>
</a>
</g>
</g>
<!-- Node1&#45;&gt;Node4 -->
<g id="edge3" class="edge"><title>Node1&#45;&gt;Node4</title>
<path fill="none" stroke="midnightblue" d="M73.1127,-152.599C90.5698,-160.733 116.641,-172.411 140,-181 146.051,-183.225 152.496,-185.393 158.868,-187.42"/>
<polygon fill="midnightblue" stroke="midnightblue" points="158.164,-190.865 168.751,-190.478 160.233,-184.178 158.164,-190.865"/>
</g>
<!-- Node5 -->
<g id="node5" class="node"><title>Node5</title>
<g id="a_node5"><a xlink:href="lib___a_t91_s_a_m7_s64_8h.html#a5ac6178dea9c718b3236651a9c33ceb6" target="_top" xlink:title="AT91F_PDC_EnableTx">
<polygon fill="white" stroke="black" points="143.5,-152.5 143.5,-171.5 264.5,-171.5 264.5,-152.5 143.5,-152.5"/>
<text text-anchor="middle" x="204" y="-159.5" font-family="Helvetica,sans-Serif" font-size="10.00">AT91F_PDC_EnableTx</text>
</a>
</g>
</g>
<!-- Node1&#45;&gt;Node5 -->
<g id="edge4" class="edge"><title>Node1&#45;&gt;Node5</title>
<path fill="none" stroke="midnightblue" d="M103.783,-149.433C113.345,-150.644 123.495,-151.929 133.513,-153.198"/>
<polygon fill="midnightblue" stroke="midnightblue" points="133.1,-156.674 143.46,-154.458 133.979,-149.729 133.1,-156.674"/>
</g>
<!-- Node6 -->
<g id="node6" class="node"><title>Node6</title>
<g id="a_node6"><a xlink:href="lib___a_t91_s_a_m7_s64_8h.html#a90529726eb41ee44d45f3bb99923b2ef" target="_top" xlink:title="AT91F_PDC_SetNextRx">
<polygon fill="white" stroke="black" points="140.5,-114.5 140.5,-133.5 267.5,-133.5 267.5,-114.5 140.5,-114.5"/>
<text text-anchor="middle" x="204" y="-121.5" font-family="Helvetica,sans-Serif" font-size="10.00">AT91F_PDC_SetNextRx</text>
</a>
</g>
</g>
<!-- Node1&#45;&gt;Node6 -->
<g id="edge5" class="edge"><title>Node1&#45;&gt;Node6</title>
<path fill="none" stroke="midnightblue" d="M103.783,-136.567C112.305,-135.488 121.294,-134.349 130.241,-133.216"/>
<polygon fill="midnightblue" stroke="midnightblue" points="130.815,-136.671 140.296,-131.942 129.936,-129.727 130.815,-136.671"/>
</g>
<!-- Node7 -->
<g id="node7" class="node"><title>Node7</title>
<g id="a_node7"><a xlink:href="lib___a_t91_s_a_m7_s64_8h.html#aa0b8b8b33d4b6514714851b653a011eb" target="_top" xlink:title="AT91F_PDC_SetNextTx">
<polygon fill="white" stroke="black" points="141.5,-76.5 141.5,-95.5 266.5,-95.5 266.5,-76.5 141.5,-76.5"/>
<text text-anchor="middle" x="204" y="-83.5" font-family="Helvetica,sans-Serif" font-size="10.00">AT91F_PDC_SetNextTx</text>
</a>
</g>
</g>
<!-- Node1&#45;&gt;Node7 -->
<g id="edge6" class="edge"><title>Node1&#45;&gt;Node7</title>
<path fill="none" stroke="midnightblue" d="M73.1127,-133.401C90.5698,-125.267 116.641,-113.589 140,-105 146.051,-102.775 152.496,-100.607 158.868,-98.5803"/>
<polygon fill="midnightblue" stroke="midnightblue" points="160.233,-101.822 168.751,-95.5224 158.164,-95.1345 160.233,-101.822"/>
</g>
<!-- Node8 -->
<g id="node8" class="node"><title>Node8</title>
<g id="a_node8"><a xlink:href="lib___a_t91_s_a_m7_s64_8h.html#af3a2086c959ae5ea3b73fcfc09bb46fb" target="_top" xlink:title="AT91F_PDC_SetRx">
<polygon fill="white" stroke="black" points="151,-38.5 151,-57.5 257,-57.5 257,-38.5 151,-38.5"/>
<text text-anchor="middle" x="204" y="-45.5" font-family="Helvetica,sans-Serif" font-size="10.00">AT91F_PDC_SetRx</text>
</a>
</g>
</g>
<!-- Node1&#45;&gt;Node8 -->
<g id="edge7" class="edge"><title>Node1&#45;&gt;Node8</title>
<path fill="none" stroke="midnightblue" d="M61.4023,-133.371C75.8892,-117.342 107.186,-85.16 140,-67 143.929,-64.8254 148.138,-62.8705 152.447,-61.1193"/>
<polygon fill="midnightblue" stroke="midnightblue" points="153.801,-64.3503 161.971,-57.6046 151.377,-57.7833 153.801,-64.3503"/>
</g>
<!-- Node9 -->
<g id="node9" class="node"><title>Node9</title>
<g id="a_node9"><a xlink:href="lib___a_t91_s_a_m7_s64_8h.html#ad32f369ef9e9f0f395e577e1ed1652df" target="_top" xlink:title="AT91F_PDC_SetTx">
<polygon fill="white" stroke="black" points="151.5,-0.5 151.5,-19.5 256.5,-19.5 256.5,-0.5 151.5,-0.5"/>
<text text-anchor="middle" x="204" y="-7.5" font-family="Helvetica,sans-Serif" font-size="10.00">AT91F_PDC_SetTx</text>
</a>
</g>
</g>
<!-- Node1&#45;&gt;Node9 -->
<g id="edge8" class="edge"><title>Node1&#45;&gt;Node9</title>
<path fill="none" stroke="midnightblue" d="M57.6257,-133.422C68.6924,-111.524 98.8662,-57.5001 140,-29 142.857,-27.0207 145.924,-25.2435 149.112,-23.6483"/>
<polygon fill="midnightblue" stroke="midnightblue" points="150.576,-26.8282 158.339,-19.618 147.774,-20.4134 150.576,-26.8282"/>
</g>
</g>
</svg>
