<?xml version="1.0" encoding="UTF-8" standalone="no"?>
<!DOCTYPE svg PUBLIC "-//W3C//DTD SVG 1.1//EN"
 "http://www.w3.org/Graphics/SVG/1.1/DTD/svg11.dtd">
<!-- Generated by graphviz version 2.30.1 (20130221.2233)
 -->
<!-- Title: AT91F_SPI_Close Pages: 1 -->
<svg width="412pt" height="218pt"
 viewBox="0.00 0.00 412.00 218.00" xmlns="http://www.w3.org/2000/svg" xmlns:xlink="http://www.w3.org/1999/xlink">
<g id="graph0" class="graph" transform="scale(1 1) rotate(0) translate(4 214)">
<title>AT91F_SPI_Close</title>
<polygon fill="white" stroke="white" points="-4,5 -4,-214 409,-214 409,5 -4,5"/>
<!-- Node1 -->
<g id="node1" class="node"><title>Node1</title>
<polygon fill="#bfbfbf" stroke="black" points="0.5,-95.5 0.5,-114.5 99.5,-114.5 99.5,-95.5 0.5,-95.5"/>
<text text-anchor="middle" x="50" y="-102.5" font-family="Helvetica,sans-Serif" font-size="10.00">AT91F_SPI_Close</text>
</g>
<!-- Node2 -->
<g id="node2" class="node"><title>Node2</title>
<g id="a_node2"><a xlink:href="lib___a_t91_s_a_m7_x128_8h.html#ae7a00663d9b586d0060d83e4c3e1921f" target="_top" xlink:title="AT91F_PDC_Close">
<polygon fill="white" stroke="black" points="136,-95.5 136,-114.5 240,-114.5 240,-95.5 136,-95.5"/>
<text text-anchor="middle" x="188" y="-102.5" font-family="Helvetica,sans-Serif" font-size="10.00">AT91F_PDC_Close</text>
</a>
</g>
</g>
<!-- Node1&#45;&gt;Node2 -->
<g id="edge1" class="edge"><title>Node1&#45;&gt;Node2</title>
<path fill="none" stroke="midnightblue" d="M99.715,-105C108.151,-105 117.02,-105 125.738,-105"/>
<polygon fill="midnightblue" stroke="midnightblue" points="125.87,-108.5 135.87,-105 125.87,-101.5 125.87,-108.5"/>
</g>
<!-- Node3 -->
<g id="node3" class="node"><title>Node3</title>
<g id="a_node3"><a xlink:href="lib___a_t91_s_a_m7_x128_8h.html#a065419f8fc40760b2db4773c57812ac5" target="_top" xlink:title="AT91F_PDC_DisableRx">
<polygon fill="white" stroke="black" points="278,-190.5 278,-209.5 402,-209.5 402,-190.5 278,-190.5"/>
<text text-anchor="middle" x="340" y="-197.5" font-family="Helvetica,sans-Serif" font-size="10.00">AT91F_PDC_DisableRx</text>
</a>
</g>
</g>
<!-- Node2&#45;&gt;Node3 -->
<g id="edge2" class="edge"><title>Node2&#45;&gt;Node3</title>
<path fill="none" stroke="midnightblue" d="M197.402,-114.629C211.889,-130.658 243.186,-162.84 276,-181 279.929,-183.175 284.138,-185.129 288.447,-186.881"/>
<polygon fill="midnightblue" stroke="midnightblue" points="287.377,-190.217 297.971,-190.395 289.801,-183.65 287.377,-190.217"/>
</g>
<!-- Node4 -->
<g id="node4" class="node"><title>Node4</title>
<g id="a_node4"><a xlink:href="lib___a_t91_s_a_m7_x128_8h.html#a232c924087e392d02daf17acf4b9be52" target="_top" xlink:title="AT91F_PDC_DisableTx">
<polygon fill="white" stroke="black" points="278.5,-152.5 278.5,-171.5 401.5,-171.5 401.5,-152.5 278.5,-152.5"/>
<text text-anchor="middle" x="340" y="-159.5" font-family="Helvetica,sans-Serif" font-size="10.00">AT91F_PDC_DisableTx</text>
</a>
</g>
</g>
<!-- Node2&#45;&gt;Node4 -->
<g id="edge3" class="edge"><title>Node2&#45;&gt;Node4</title>
<path fill="none" stroke="midnightblue" d="M209.113,-114.599C226.57,-122.733 252.641,-134.411 276,-143 282.051,-145.225 288.496,-147.393 294.868,-149.42"/>
<polygon fill="midnightblue" stroke="midnightblue" points="294.164,-152.865 304.751,-152.478 296.233,-146.178 294.164,-152.865"/>
</g>
<!-- Node5 -->
<g id="node5" class="node"><title>Node5</title>
<g id="a_node5"><a xlink:href="lib___a_t91_s_a_m7_x128_8h.html#a90529726eb41ee44d45f3bb99923b2ef" target="_top" xlink:title="AT91F_PDC_SetNextRx">
<polygon fill="white" stroke="black" points="276.5,-114.5 276.5,-133.5 403.5,-133.5 403.5,-114.5 276.5,-114.5"/>
<text text-anchor="middle" x="340" y="-121.5" font-family="Helvetica,sans-Serif" font-size="10.00">AT91F_PDC_SetNextRx</text>
</a>
</g>
</g>
<!-- Node2&#45;&gt;Node5 -->
<g id="edge4" class="edge"><title>Node2&#45;&gt;Node5</title>
<path fill="none" stroke="midnightblue" d="M240.202,-111.486C248.65,-112.556 257.547,-113.683 266.4,-114.804"/>
<polygon fill="midnightblue" stroke="midnightblue" points="265.989,-118.28 276.35,-116.064 266.869,-111.335 265.989,-118.28"/>
</g>
<!-- Node6 -->
<g id="node6" class="node"><title>Node6</title>
<g id="a_node6"><a xlink:href="lib___a_t91_s_a_m7_x128_8h.html#aa0b8b8b33d4b6514714851b653a011eb" target="_top" xlink:title="AT91F_PDC_SetNextTx">
<polygon fill="white" stroke="black" points="277.5,-76.5 277.5,-95.5 402.5,-95.5 402.5,-76.5 277.5,-76.5"/>
<text text-anchor="middle" x="340" y="-83.5" font-family="Helvetica,sans-Serif" font-size="10.00">AT91F_PDC_SetNextTx</text>
</a>
</g>
</g>
<!-- Node2&#45;&gt;Node6 -->
<g id="edge5" class="edge"><title>Node2&#45;&gt;Node6</title>
<path fill="none" stroke="midnightblue" d="M240.202,-98.5144C248.99,-97.4013 258.264,-96.2265 267.469,-95.0606"/>
<polygon fill="midnightblue" stroke="midnightblue" points="267.922,-98.5312 277.403,-93.8022 267.043,-91.5867 267.922,-98.5312"/>
</g>
<!-- Node7 -->
<g id="node7" class="node"><title>Node7</title>
<g id="a_node7"><a xlink:href="lib___a_t91_s_a_m7_x128_8h.html#af3a2086c959ae5ea3b73fcfc09bb46fb" target="_top" xlink:title="AT91F_PDC_SetRx">
<polygon fill="white" stroke="black" points="287,-38.5 287,-57.5 393,-57.5 393,-38.5 287,-38.5"/>
<text text-anchor="middle" x="340" y="-45.5" font-family="Helvetica,sans-Serif" font-size="10.00">AT91F_PDC_SetRx</text>
</a>
</g>
</g>
<!-- Node2&#45;&gt;Node7 -->
<g id="edge6" class="edge"><title>Node2&#45;&gt;Node7</title>
<path fill="none" stroke="midnightblue" d="M209.113,-95.4008C226.57,-87.2666 252.641,-75.5892 276,-67 282.051,-64.7749 288.496,-62.6074 294.868,-60.5803"/>
<polygon fill="midnightblue" stroke="midnightblue" points="296.233,-63.8218 304.751,-57.5224 294.164,-57.1345 296.233,-63.8218"/>
</g>
<!-- Node8 -->
<g id="node8" class="node"><title>Node8</title>
<g id="a_node8"><a xlink:href="lib___a_t91_s_a_m7_x128_8h.html#ad32f369ef9e9f0f395e577e1ed1652df" target="_top" xlink:title="AT91F_PDC_SetTx">
<polygon fill="white" stroke="black" points="287.5,-0.5 287.5,-19.5 392.5,-19.5 392.5,-0.5 287.5,-0.5"/>
<text text-anchor="middle" x="340" y="-7.5" font-family="Helvetica,sans-Serif" font-size="10.00">AT91F_PDC_SetTx</text>
</a>
</g>
</g>
<!-- Node2&#45;&gt;Node8 -->
<g id="edge7" class="edge"><title>Node2&#45;&gt;Node8</title>
<path fill="none" stroke="midnightblue" d="M197.402,-95.3705C211.889,-79.3418 243.186,-47.16 276,-29 279.929,-26.8254 284.138,-24.8705 288.447,-23.1193"/>
<polygon fill="midnightblue" stroke="midnightblue" points="289.801,-26.3503 297.971,-19.6046 287.377,-19.7833 289.801,-26.3503"/>
</g>
</g>
</svg>
