<?xml version="1.0" encoding="UTF-8" standalone="no"?>
<!DOCTYPE svg PUBLIC "-//W3C//DTD SVG 1.1//EN"
 "http://www.w3.org/Graphics/SVG/1.1/DTD/svg11.dtd">
<!-- Generated by graphviz version 2.30.1 (20130221.2233)
 -->
<!-- Title: AT91F_PDC_SendFrame Pages: 1 -->
<svg width="306pt" height="104pt"
 viewBox="0.00 0.00 306.00 104.00" xmlns="http://www.w3.org/2000/svg" xmlns:xlink="http://www.w3.org/1999/xlink">
<g id="graph0" class="graph" transform="scale(1 1) rotate(0) translate(4 100)">
<title>AT91F_PDC_SendFrame</title>
<polygon fill="white" stroke="white" points="-4,5 -4,-100 303,-100 303,5 -4,5"/>
<!-- Node1 -->
<g id="node1" class="node"><title>Node1</title>
<polygon fill="#bfbfbf" stroke="black" points="0.5,-38.5 0.5,-57.5 131.5,-57.5 131.5,-38.5 0.5,-38.5"/>
<text text-anchor="middle" x="66" y="-45.5" font-family="Helvetica,sans-Serif" font-size="10.00">AT91F_PDC_SendFrame</text>
</g>
<!-- Node2 -->
<g id="node2" class="node"><title>Node2</title>
<g id="a_node2"><a xlink:href="lib___a_t91_s_a_m7_s64_8h.html#a9cf180ac507975a8259e99352d233732" target="_top" xlink:title="AT91F_SPI_SendFrame">
<polygon fill="white" stroke="black" points="170,-76.5 170,-95.5 296,-95.5 296,-76.5 170,-76.5"/>
<text text-anchor="middle" x="233" y="-83.5" font-family="Helvetica,sans-Serif" font-size="10.00">AT91F_SPI_SendFrame</text>
</a>
</g>
</g>
<!-- Node1&#45;&gt;Node2 -->
<g id="edge1" class="edge"><title>Node1&#45;&gt;Node2</title>
<path fill="none" stroke="midnightblue" d="M118.654,-59.8961C141.846,-65.2374 168.838,-71.4537 190.663,-76.4799"/>
<polygon fill="midnightblue" stroke="midnightblue" points="119.167,-56.4226 108.636,-57.589 117.596,-63.2441 119.167,-56.4226"/>
</g>
<!-- Node3 -->
<g id="node3" class="node"><title>Node3</title>
<g id="a_node3"><a xlink:href="lib___a_t91_s_a_m7_s64_8h.html#ad69b884ddf6875c1e37a7a2bdcb624a4" target="_top" xlink:title="AT91F_SSC_SendFrame">
<polygon fill="white" stroke="black" points="168,-38.5 168,-57.5 298,-57.5 298,-38.5 168,-38.5"/>
<text text-anchor="middle" x="233" y="-45.5" font-family="Helvetica,sans-Serif" font-size="10.00">AT91F_SSC_SendFrame</text>
</a>
</g>
</g>
<!-- Node1&#45;&gt;Node3 -->
<g id="edge2" class="edge"><title>Node1&#45;&gt;Node3</title>
<path fill="none" stroke="midnightblue" d="M141.894,-48C150.609,-48 159.439,-48 167.989,-48"/>
<polygon fill="midnightblue" stroke="midnightblue" points="141.739,-44.5001 131.739,-48 141.739,-51.5001 141.739,-44.5001"/>
</g>
<!-- Node4 -->
<g id="node4" class="node"><title>Node4</title>
<g id="a_node4"><a xlink:href="lib___a_t91_s_a_m7_s64_8h.html#abf1fd25f710588e80351fba226751bdf" target="_top" xlink:title="AT91F_US_SendFrame">
<polygon fill="white" stroke="black" points="171,-0.5 171,-19.5 295,-19.5 295,-0.5 171,-0.5"/>
<text text-anchor="middle" x="233" y="-7.5" font-family="Helvetica,sans-Serif" font-size="10.00">AT91F_US_SendFrame</text>
</a>
</g>
</g>
<!-- Node1&#45;&gt;Node4 -->
<g id="edge3" class="edge"><title>Node1&#45;&gt;Node4</title>
<path fill="none" stroke="midnightblue" d="M118.654,-36.1039C141.846,-30.7626 168.838,-24.5463 190.663,-19.5201"/>
<polygon fill="midnightblue" stroke="midnightblue" points="117.596,-32.7559 108.636,-38.411 119.167,-39.5774 117.596,-32.7559"/>
</g>
</g>
</svg>
