<?xml version="1.0" encoding="UTF-8" standalone="no"?>
<!DOCTYPE svg PUBLIC "-//W3C//DTD SVG 1.1//EN"
 "http://www.w3.org/Graphics/SVG/1.1/DTD/svg11.dtd">
<!-- Generated by graphviz version 2.30.1 (20130221.2233)
 -->
<!-- Title: AT91F_US_SendFrame Pages: 1 -->
<svg width="484pt" height="142pt"
 viewBox="0.00 0.00 484.00 142.00" xmlns="http://www.w3.org/2000/svg" xmlns:xlink="http://www.w3.org/1999/xlink">
<g id="graph0" class="graph" transform="scale(1 1) rotate(0) translate(4 138)">
<title>AT91F_US_SendFrame</title>
<polygon fill="white" stroke="white" points="-4,5 -4,-138 481,-138 481,5 -4,5"/>
<!-- Node1 -->
<g id="node1" class="node"><title>Node1</title>
<polygon fill="#bfbfbf" stroke="black" points="0,-57.5 0,-76.5 124,-76.5 124,-57.5 0,-57.5"/>
<text text-anchor="middle" x="62" y="-64.5" font-family="Helvetica,sans-Serif" font-size="10.00">AT91F_US_SendFrame</text>
</g>
<!-- Node2 -->
<g id="node2" class="node"><title>Node2</title>
<g id="a_node2"><a xlink:href="lib___a_t91_s_a_m7_s64_8h.html#a69b0e9baa0272a3febd549034aad1fcb" target="_top" xlink:title="AT91F_PDC_SendFrame">
<polygon fill="white" stroke="black" points="160.5,-57.5 160.5,-76.5 291.5,-76.5 291.5,-57.5 160.5,-57.5"/>
<text text-anchor="middle" x="226" y="-64.5" font-family="Helvetica,sans-Serif" font-size="10.00">AT91F_PDC_SendFrame</text>
</a>
</g>
</g>
<!-- Node1&#45;&gt;Node2 -->
<g id="edge1" class="edge"><title>Node1&#45;&gt;Node2</title>
<path fill="none" stroke="midnightblue" d="M124.245,-67C132.746,-67 141.556,-67 150.269,-67"/>
<polygon fill="midnightblue" stroke="midnightblue" points="150.428,-70.5001 160.428,-67 150.428,-63.5001 150.428,-70.5001"/>
</g>
<!-- Node3 -->
<g id="node3" class="node"><title>Node3</title>
<g id="a_node3"><a xlink:href="lib___a_t91_s_a_m7_s64_8h.html#a850c514a0aa55991ed5fe7c7e0989209" target="_top" xlink:title="AT91F_PDC_IsNextTxEmpty">
<polygon fill="white" stroke="black" points="328.5,-114.5 328.5,-133.5 475.5,-133.5 475.5,-114.5 328.5,-114.5"/>
<text text-anchor="middle" x="402" y="-121.5" font-family="Helvetica,sans-Serif" font-size="10.00">AT91F_PDC_IsNextTxEmpty</text>
</a>
</g>
</g>
<!-- Node2&#45;&gt;Node3 -->
<g id="edge2" class="edge"><title>Node2&#45;&gt;Node3</title>
<path fill="none" stroke="midnightblue" d="M250.427,-76.6162C270.741,-84.761 301.035,-96.4445 328,-105 335.548,-107.395 343.603,-109.718 351.505,-111.871"/>
<polygon fill="midnightblue" stroke="midnightblue" points="350.818,-115.31 361.382,-114.498 352.617,-108.545 350.818,-115.31"/>
</g>
<!-- Node4 -->
<g id="node4" class="node"><title>Node4</title>
<g id="a_node4"><a xlink:href="lib___a_t91_s_a_m7_s64_8h.html#a07dcf21b4e39e894efcc34afa3b4787d" target="_top" xlink:title="AT91F_PDC_IsTxEmpty">
<polygon fill="white" stroke="black" points="339,-76.5 339,-95.5 465,-95.5 465,-76.5 339,-76.5"/>
<text text-anchor="middle" x="402" y="-83.5" font-family="Helvetica,sans-Serif" font-size="10.00">AT91F_PDC_IsTxEmpty</text>
</a>
</g>
</g>
<!-- Node2&#45;&gt;Node4 -->
<g id="edge3" class="edge"><title>Node2&#45;&gt;Node4</title>
<path fill="none" stroke="midnightblue" d="M291.791,-74.0749C303.793,-75.3855 316.4,-76.7621 328.611,-78.0955"/>
<polygon fill="midnightblue" stroke="midnightblue" points="328.433,-81.5968 338.754,-79.203 329.193,-74.6381 328.433,-81.5968"/>
</g>
<!-- Node5 -->
<g id="node5" class="node"><title>Node5</title>
<g id="a_node5"><a xlink:href="lib___a_t91_s_a_m7_s64_8h.html#aa0b8b8b33d4b6514714851b653a011eb" target="_top" xlink:title="AT91F_PDC_SetNextTx">
<polygon fill="white" stroke="black" points="339.5,-38.5 339.5,-57.5 464.5,-57.5 464.5,-38.5 339.5,-38.5"/>
<text text-anchor="middle" x="402" y="-45.5" font-family="Helvetica,sans-Serif" font-size="10.00">AT91F_PDC_SetNextTx</text>
</a>
</g>
</g>
<!-- Node2&#45;&gt;Node5 -->
<g id="edge4" class="edge"><title>Node2&#45;&gt;Node5</title>
<path fill="none" stroke="midnightblue" d="M291.791,-59.9251C303.944,-58.598 316.717,-57.2033 329.072,-55.8542"/>
<polygon fill="midnightblue" stroke="midnightblue" points="329.768,-59.2991 339.329,-54.7342 329.008,-52.3405 329.768,-59.2991"/>
</g>
<!-- Node6 -->
<g id="node6" class="node"><title>Node6</title>
<g id="a_node6"><a xlink:href="lib___a_t91_s_a_m7_s64_8h.html#ad32f369ef9e9f0f395e577e1ed1652df" target="_top" xlink:title="AT91F_PDC_SetTx">
<polygon fill="white" stroke="black" points="349.5,-0.5 349.5,-19.5 454.5,-19.5 454.5,-0.5 349.5,-0.5"/>
<text text-anchor="middle" x="402" y="-7.5" font-family="Helvetica,sans-Serif" font-size="10.00">AT91F_PDC_SetTx</text>
</a>
</g>
</g>
<!-- Node2&#45;&gt;Node6 -->
<g id="edge5" class="edge"><title>Node2&#45;&gt;Node6</title>
<path fill="none" stroke="midnightblue" d="M250.427,-57.3838C270.741,-49.239 301.035,-37.5555 328,-29 335.548,-26.6051 343.603,-24.2815 351.505,-22.1291"/>
<polygon fill="midnightblue" stroke="midnightblue" points="352.617,-25.455 361.382,-19.5019 350.818,-18.6902 352.617,-25.455"/>
</g>
</g>
</svg>
