<?xml version="1.0" encoding="UTF-8" standalone="no"?>
<!DOCTYPE svg PUBLIC "-//W3C//DTD SVG 1.1//EN"
 "http://www.w3.org/Graphics/SVG/1.1/DTD/svg11.dtd">
<!-- Generated by graphviz version 2.30.1 (20130221.2233)
 -->
<!-- Title: AT91F_AIC_Open Pages: 1 -->
<svg width="306pt" height="104pt"
 viewBox="0.00 0.00 306.00 104.00" xmlns="http://www.w3.org/2000/svg" xmlns:xlink="http://www.w3.org/1999/xlink">
<g id="graph0" class="graph" transform="scale(1 1) rotate(0) translate(4 100)">
<title>AT91F_AIC_Open</title>
<polygon fill="white" stroke="white" points="-4,5 -4,-100 303,-100 303,5 -4,5"/>
<!-- Node1 -->
<g id="node1" class="node"><title>Node1</title>
<polygon fill="#bfbfbf" stroke="black" points="0.5,-38.5 0.5,-57.5 99.5,-57.5 99.5,-38.5 0.5,-38.5"/>
<text text-anchor="middle" x="50" y="-45.5" font-family="Helvetica,sans-Serif" font-size="10.00">AT91F_AIC_Open</text>
</g>
<!-- Node2 -->
<g id="node2" class="node"><title>Node2</title>
<g id="a_node2"><a xlink:href="lib___a_t91_s_a_m7_x128_8h.html#ab354c5552fbb8ffd43aeda1193f87136" target="_top" xlink:title="AT91F_AIC_ConfigureIt">
<polygon fill="white" stroke="black" points="155.5,-76.5 155.5,-95.5 278.5,-95.5 278.5,-76.5 155.5,-76.5"/>
<text text-anchor="middle" x="217" y="-83.5" font-family="Helvetica,sans-Serif" font-size="10.00">AT91F_AIC_ConfigureIt</text>
</a>
</g>
</g>
<!-- Node1&#45;&gt;Node2 -->
<g id="edge1" class="edge"><title>Node1&#45;&gt;Node2</title>
<path fill="none" stroke="midnightblue" d="M92.6365,-57.589C114.508,-62.6261 141.506,-68.8438 164.664,-74.1771"/>
<polygon fill="midnightblue" stroke="midnightblue" points="164.133,-77.6463 174.663,-76.4799 165.704,-70.8249 164.133,-77.6463"/>
</g>
<!-- Node3 -->
<g id="node3" class="node"><title>Node3</title>
<g id="a_node3"><a xlink:href="lib___a_t91_s_a_m7_x128_8h.html#a3288ce2842a02f63ae6fe09c21870a52" target="_top" xlink:title="AT91F_AIC_DisableIt">
<polygon fill="white" stroke="black" points="160.5,-38.5 160.5,-57.5 273.5,-57.5 273.5,-38.5 160.5,-38.5"/>
<text text-anchor="middle" x="217" y="-45.5" font-family="Helvetica,sans-Serif" font-size="10.00">AT91F_AIC_DisableIt</text>
</a>
</g>
</g>
<!-- Node1&#45;&gt;Node3 -->
<g id="edge2" class="edge"><title>Node1&#45;&gt;Node3</title>
<path fill="none" stroke="midnightblue" d="M99.613,-48C115.436,-48 133.272,-48 150.14,-48"/>
<polygon fill="midnightblue" stroke="midnightblue" points="150.491,-51.5001 160.491,-48 150.491,-44.5001 150.491,-51.5001"/>
</g>
<!-- Node4 -->
<g id="node4" class="node"><title>Node4</title>
<g id="a_node4"><a xlink:href="lib___a_t91_s_a_m7_x128_8h.html#af5683d3423dc1ed78c00bdb6249059ac" target="_top" xlink:title="AT91F_AIC_SetExceptionVector">
<polygon fill="white" stroke="black" points="136,-0.5 136,-19.5 298,-19.5 298,-0.5 136,-0.5"/>
<text text-anchor="middle" x="217" y="-7.5" font-family="Helvetica,sans-Serif" font-size="10.00">AT91F_AIC_SetExceptionVector</text>
</a>
</g>
</g>
<!-- Node1&#45;&gt;Node4 -->
<g id="edge3" class="edge"><title>Node1&#45;&gt;Node4</title>
<path fill="none" stroke="midnightblue" d="M92.6365,-38.411C114.508,-33.3739 141.506,-27.1562 164.664,-21.8229"/>
<polygon fill="midnightblue" stroke="midnightblue" points="165.704,-25.1751 174.663,-19.5201 164.133,-18.3537 165.704,-25.1751"/>
</g>
</g>
</svg>
