<?xml version="1.0" encoding="UTF-8" standalone="no"?>
<!DOCTYPE svg PUBLIC "-//W3C//DTD SVG 1.1//EN"
 "http://www.w3.org/Graphics/SVG/1.1/DTD/svg11.dtd">
<!-- Generated by graphviz version 2.30.1 (20130221.2233)
 -->
<!-- Title: vListInsertEnd Pages: 1 -->
<svg width="842pt" height="370pt"
 viewBox="0.00 0.00 842.00 370.00" xmlns="http://www.w3.org/2000/svg" xmlns:xlink="http://www.w3.org/1999/xlink">
<g id="graph0" class="graph" transform="scale(1 1) rotate(0) translate(4 366)">
<title>vListInsertEnd</title>
<polygon fill="white" stroke="white" points="-4,5 -4,-366 839,-366 839,5 -4,5"/>
<!-- Node1 -->
<g id="node1" class="node"><title>Node1</title>
<polygon fill="#bfbfbf" stroke="black" points="0,-190.5 0,-209.5 80,-209.5 80,-190.5 0,-190.5"/>
<text text-anchor="middle" x="40" y="-197.5" font-family="Helvetica,sans-Serif" font-size="10.00">vListInsertEnd</text>
</g>
<!-- Node2 -->
<g id="node2" class="node"><title>Node2</title>
<g id="a_node2"><a xlink:href="tasks_8c.html#adc9eb47ceecf7dd7ee325bebff9eafc5" target="_top" xlink:title="vTaskPlaceOnEventList">
<polygon fill="white" stroke="black" points="335.5,-342.5 335.5,-361.5 458.5,-361.5 458.5,-342.5 335.5,-342.5"/>
<text text-anchor="middle" x="397" y="-349.5" font-family="Helvetica,sans-Serif" font-size="10.00">vTaskPlaceOnEventList</text>
</a>
</g>
</g>
<!-- Node1&#45;&gt;Node2 -->
<g id="edge1" class="edge"><title>Node1&#45;&gt;Node2</title>
<path fill="none" stroke="midnightblue" d="M72.5269,-213.696C124.461,-236.231 231.292,-282.472 322,-321 339.051,-328.242 358.359,-336.327 372.976,-342.424"/>
<polygon fill="midnightblue" stroke="midnightblue" points="73.7554,-210.414 63.1887,-209.643 70.9683,-216.835 73.7554,-210.414"/>
</g>
<!-- Node7 -->
<g id="node7" class="node"><title>Node7</title>
<g id="a_node7"><a xlink:href="tasks_8c.html#a0896d9cd10d789ef8dbb95c4959c3ce5" target="_top" xlink:title="vTaskPlaceOnUnorderedEventList">
<polygon fill="white" stroke="black" points="116,-38.5 116,-57.5 286,-57.5 286,-38.5 116,-38.5"/>
<text text-anchor="middle" x="201" y="-45.5" font-family="Helvetica,sans-Serif" font-size="10.00">vTaskPlaceOnUnorderedEventList</text>
</a>
</g>
</g>
<!-- Node1&#45;&gt;Node7 -->
<g id="edge6" class="edge"><title>Node1&#45;&gt;Node7</title>
<path fill="none" stroke="midnightblue" d="M58.5663,-183.207C91.9878,-151.257 163.738,-82.6651 190.058,-57.5047"/>
<polygon fill="midnightblue" stroke="midnightblue" points="55.756,-181.052 50.9462,-190.492 60.5931,-186.111 55.756,-181.052"/>
</g>
<!-- Node10 -->
<g id="node10" class="node"><title>Node10</title>
<g id="a_node10"><a xlink:href="tasks_8c.html#a6d21c9054b62d8bc1bfb2724e11578d9" target="_top" xlink:title="xTaskRemoveFromEventList">
<polygon fill="white" stroke="black" points="128.5,-190.5 128.5,-209.5 273.5,-209.5 273.5,-190.5 128.5,-190.5"/>
<text text-anchor="middle" x="201" y="-197.5" font-family="Helvetica,sans-Serif" font-size="10.00">xTaskRemoveFromEventList</text>
</a>
</g>
</g>
<!-- Node1&#45;&gt;Node10 -->
<g id="edge9" class="edge"><title>Node1&#45;&gt;Node10</title>
<path fill="none" stroke="midnightblue" d="M90.52,-200C102.496,-200 115.534,-200 128.302,-200"/>
<polygon fill="midnightblue" stroke="midnightblue" points="90.3034,-196.5 80.3034,-200 90.3033,-203.5 90.3034,-196.5"/>
</g>
<!-- Node3 -->
<g id="node3" class="node"><title>Node3</title>
<g id="a_node3"><a xlink:href="queue_8c.html#acb67c81366c00896b21cd826e07d885d" target="_top" xlink:title="xQueueGenericSend">
<polygon fill="white" stroke="black" points="523,-228.5 523,-247.5 633,-247.5 633,-228.5 523,-228.5"/>
<text text-anchor="middle" x="578" y="-235.5" font-family="Helvetica,sans-Serif" font-size="10.00">xQueueGenericSend</text>
</a>
</g>
</g>
<!-- Node2&#45;&gt;Node3 -->
<g id="edge2" class="edge"><title>Node2&#45;&gt;Node3</title>
<path fill="none" stroke="midnightblue" d="M421.657,-336.933C458.966,-313.173 530.434,-267.656 561.71,-247.738"/>
<polygon fill="midnightblue" stroke="midnightblue" points="419.508,-334.153 412.954,-342.477 423.268,-340.057 419.508,-334.153"/>
</g>
<!-- Node5 -->
<g id="node5" class="node"><title>Node5</title>
<g id="a_node5"><a xlink:href="queue_8c.html#ace632b55c3955bacae20978e261129a6" target="_top" xlink:title="xQueueGenericReceive">
<polygon fill="white" stroke="black" points="516.5,-304.5 516.5,-323.5 639.5,-323.5 639.5,-304.5 516.5,-304.5"/>
<text text-anchor="middle" x="578" y="-311.5" font-family="Helvetica,sans-Serif" font-size="10.00">xQueueGenericReceive</text>
</a>
</g>
</g>
<!-- Node2&#45;&gt;Node5 -->
<g id="edge4" class="edge"><title>Node2&#45;&gt;Node5</title>
<path fill="none" stroke="midnightblue" d="M453.024,-340.319C478.408,-334.93 508.161,-328.614 532.156,-323.52"/>
<polygon fill="midnightblue" stroke="midnightblue" points="452.224,-336.911 443.169,-342.411 453.678,-343.758 452.224,-336.911"/>
</g>
<!-- Node4 -->
<g id="node4" class="node"><title>Node4</title>
<g id="a_node4"><a xlink:href="_g_c_c_2_a_r_m___c_m3___m_p_u_2port_8c.html#afec3801d053a850488cda14b0cad95fd" target="_top" xlink:title="MPU_xQueueGenericSend">
<polygon fill="white" stroke="black" points="690,-228.5 690,-247.5 828,-247.5 828,-228.5 690,-228.5"/>
<text text-anchor="middle" x="759" y="-235.5" font-family="Helvetica,sans-Serif" font-size="10.00">MPU_xQueueGenericSend</text>
</a>
</g>
</g>
<!-- Node3&#45;&gt;Node4 -->
<g id="edge3" class="edge"><title>Node3&#45;&gt;Node4</title>
<path fill="none" stroke="midnightblue" d="M643.416,-238C658.455,-238 674.522,-238 689.722,-238"/>
<polygon fill="midnightblue" stroke="midnightblue" points="643.192,-234.5 633.192,-238 643.192,-241.5 643.192,-234.5"/>
</g>
<!-- Node6 -->
<g id="node6" class="node"><title>Node6</title>
<g id="a_node6"><a xlink:href="_g_c_c_2_a_r_m___c_m3___m_p_u_2port_8c.html#a11f6f4ba0b7f2612c09d7494aa695297" target="_top" xlink:title="MPU_xQueueGenericReceive">
<polygon fill="white" stroke="black" points="684,-304.5 684,-323.5 834,-323.5 834,-304.5 684,-304.5"/>
<text text-anchor="middle" x="759" y="-311.5" font-family="Helvetica,sans-Serif" font-size="10.00">MPU_xQueueGenericReceive</text>
</a>
</g>
</g>
<!-- Node5&#45;&gt;Node6 -->
<g id="edge5" class="edge"><title>Node5&#45;&gt;Node6</title>
<path fill="none" stroke="midnightblue" d="M649.743,-314C660.935,-314 672.537,-314 683.805,-314"/>
<polygon fill="midnightblue" stroke="midnightblue" points="649.601,-310.5 639.601,-314 649.601,-317.5 649.601,-310.5"/>
</g>
<!-- Node8 -->
<g id="node8" class="node"><title>Node8</title>
<g id="a_node8"><a xlink:href="event__groups_8h.html#a869511456b86426f52e2eec898bff341" target="_top" xlink:title="xEventGroupSync">
<polygon fill="white" stroke="black" points="348.5,-38.5 348.5,-57.5 445.5,-57.5 445.5,-38.5 348.5,-38.5"/>
<text text-anchor="middle" x="397" y="-45.5" font-family="Helvetica,sans-Serif" font-size="10.00">xEventGroupSync</text>
</a>
</g>
</g>
<!-- Node7&#45;&gt;Node8 -->
<g id="edge7" class="edge"><title>Node7&#45;&gt;Node8</title>
<path fill="none" stroke="midnightblue" d="M296.26,-48C314.339,-48 332.545,-48 348.364,-48"/>
<polygon fill="midnightblue" stroke="midnightblue" points="296.245,-44.5001 286.245,-48 296.245,-51.5001 296.245,-44.5001"/>
</g>
<!-- Node9 -->
<g id="node9" class="node"><title>Node9</title>
<g id="a_node9"><a xlink:href="event__groups_8h.html#aab9d5b405bc57b7624dcabe9a9a503db" target="_top" xlink:title="xEventGroupWaitBits">
<polygon fill="white" stroke="black" points="341,-0.5 341,-19.5 453,-19.5 453,-0.5 341,-0.5"/>
<text text-anchor="middle" x="397" y="-7.5" font-family="Helvetica,sans-Serif" font-size="10.00">xEventGroupWaitBits</text>
</a>
</g>
</g>
<!-- Node7&#45;&gt;Node9 -->
<g id="edge8" class="edge"><title>Node7&#45;&gt;Node9</title>
<path fill="none" stroke="midnightblue" d="M260.905,-36.4619C288.575,-31.042 321.162,-24.659 347.398,-19.5201"/>
<polygon fill="midnightblue" stroke="midnightblue" points="260.095,-33.054 250.954,-38.411 261.441,-39.9234 260.095,-33.054"/>
</g>
<!-- Node11 -->
<g id="node11" class="node"><title>Node11</title>
<g id="a_node11"><a xlink:href="queue_8c.html#a5e54273dbe3f56b8bdc8f7abee67a871" target="_top" xlink:title="xQueueGenericReset">
<polygon fill="white" stroke="black" points="340.5,-152.5 340.5,-171.5 453.5,-171.5 453.5,-152.5 340.5,-152.5"/>
<text text-anchor="middle" x="397" y="-159.5" font-family="Helvetica,sans-Serif" font-size="10.00">xQueueGenericReset</text>
</a>
</g>
</g>
<!-- Node10&#45;&gt;Node11 -->
<g id="edge10" class="edge"><title>Node10&#45;&gt;Node11</title>
<path fill="none" stroke="midnightblue" d="M260.905,-188.462C288.575,-183.042 321.162,-176.659 347.398,-171.52"/>
<polygon fill="midnightblue" stroke="midnightblue" points="260.095,-185.054 250.954,-190.411 261.441,-191.923 260.095,-185.054"/>
</g>
<!-- Node10&#45;&gt;Node3 -->
<g id="edge14" class="edge"><title>Node10&#45;&gt;Node3</title>
<path fill="none" stroke="midnightblue" d="M283.695,-203.433C337.363,-206.258 409.033,-211.111 472,-219 491.301,-221.418 512.433,-225.049 530.647,-228.491"/>
<polygon fill="midnightblue" stroke="midnightblue" points="283.716,-199.93 273.549,-202.912 283.357,-206.921 283.716,-199.93"/>
</g>
<!-- Node15 -->
<g id="node15" class="node"><title>Node15</title>
<g id="a_node15"><a xlink:href="queue_8c.html#a0fb58b25eb396a5cf8e1688b7e1a56cb" target="_top" xlink:title="xQueueGenericSendFromISR">
<polygon fill="white" stroke="black" points="322,-114.5 322,-133.5 472,-133.5 472,-114.5 322,-114.5"/>
<text text-anchor="middle" x="397" y="-121.5" font-family="Helvetica,sans-Serif" font-size="10.00">xQueueGenericSendFromISR</text>
</a>
</g>
</g>
<!-- Node10&#45;&gt;Node15 -->
<g id="edge15" class="edge"><title>Node10&#45;&gt;Node15</title>
<path fill="none" stroke="midnightblue" d="M228.565,-185.56C252.471,-173.011 288.835,-155.008 322,-143 331.853,-139.433 342.671,-136.258 352.922,-133.573"/>
<polygon fill="midnightblue" stroke="midnightblue" points="226.626,-182.627 219.434,-190.407 229.908,-188.81 226.626,-182.627"/>
</g>
<!-- Node16 -->
<g id="node16" class="node"><title>Node16</title>
<g id="a_node16"><a xlink:href="queue_8c.html#a4df49fafb6ba4400ede6f2d07a40865f" target="_top" xlink:title="xQueueGiveFromISR">
<polygon fill="white" stroke="black" points="341,-76.5 341,-95.5 453,-95.5 453,-76.5 341,-76.5"/>
<text text-anchor="middle" x="397" y="-83.5" font-family="Helvetica,sans-Serif" font-size="10.00">xQueueGiveFromISR</text>
</a>
</g>
</g>
<!-- Node10&#45;&gt;Node16 -->
<g id="edge16" class="edge"><title>Node10&#45;&gt;Node16</title>
<path fill="none" stroke="midnightblue" d="M218.423,-183.207C240.182,-161.912 280.659,-125.507 322,-105 329.724,-101.169 338.296,-98.0581 346.787,-95.5492"/>
<polygon fill="midnightblue" stroke="midnightblue" points="215.904,-180.775 211.287,-190.311 220.843,-185.736 215.904,-180.775"/>
</g>
<!-- Node10&#45;&gt;Node5 -->
<g id="edge17" class="edge"><title>Node10&#45;&gt;Node5</title>
<path fill="none" stroke="midnightblue" d="M217.264,-217.263C238.303,-239.713 278.568,-278.054 322,-295 384.966,-319.568 463.23,-321.634 516.325,-319.273"/>
<polygon fill="midnightblue" stroke="midnightblue" points="219.747,-214.792 210.413,-209.78 214.585,-219.519 219.747,-214.792"/>
</g>
<!-- Node17 -->
<g id="node17" class="node"><title>Node17</title>
<g id="a_node17"><a xlink:href="queue_8c.html#ac61ec62828e70ed35d18559a35550462" target="_top" xlink:title="xQueueReceiveFromISR">
<polygon fill="white" stroke="black" points="333,-266.5 333,-285.5 461,-285.5 461,-266.5 333,-266.5"/>
<text text-anchor="middle" x="397" y="-273.5" font-family="Helvetica,sans-Serif" font-size="10.00">xQueueReceiveFromISR</text>
</a>
</g>
</g>
<!-- Node10&#45;&gt;Node17 -->
<g id="edge18" class="edge"><title>Node10&#45;&gt;Node17</title>
<path fill="none" stroke="midnightblue" d="M228.565,-214.44C252.471,-226.989 288.835,-244.992 322,-257 331.853,-260.567 342.671,-263.742 352.922,-266.427"/>
<polygon fill="midnightblue" stroke="midnightblue" points="229.908,-211.19 219.434,-209.593 226.626,-217.373 229.908,-211.19"/>
</g>
<!-- Node18 -->
<g id="node18" class="node"><title>Node18</title>
<g id="a_node18"><a xlink:href="queue_8c.html#a7297c84a7c770ed57567bad1d3e2faf6" target="_top" xlink:title="prvUnlockQueue">
<polygon fill="white" stroke="black" points="351.5,-228.5 351.5,-247.5 442.5,-247.5 442.5,-228.5 351.5,-228.5"/>
<text text-anchor="middle" x="397" y="-235.5" font-family="Helvetica,sans-Serif" font-size="10.00">prvUnlockQueue</text>
</a>
</g>
</g>
<!-- Node10&#45;&gt;Node18 -->
<g id="edge19" class="edge"><title>Node10&#45;&gt;Node18</title>
<path fill="none" stroke="midnightblue" d="M260.99,-211.555C290.059,-217.249 324.54,-224.003 351.378,-229.26"/>
<polygon fill="midnightblue" stroke="midnightblue" points="261.441,-208.077 250.954,-209.589 260.095,-214.946 261.441,-208.077"/>
</g>
<!-- Node12 -->
<g id="node12" class="node"><title>Node12</title>
<g id="a_node12"><a xlink:href="_g_c_c_2_a_r_m___c_m3___m_p_u_2port_8c.html#ac7dccb1862fd656e1aedff73bd7c3433" target="_top" xlink:title="MPU_xQueueGenericReset">
<polygon fill="white" stroke="black" points="508,-133.5 508,-152.5 648,-152.5 648,-133.5 508,-133.5"/>
<text text-anchor="middle" x="578" y="-140.5" font-family="Helvetica,sans-Serif" font-size="10.00">MPU_xQueueGenericReset</text>
</a>
</g>
</g>
<!-- Node11&#45;&gt;Node12 -->
<g id="edge11" class="edge"><title>Node11&#45;&gt;Node12</title>
<path fill="none" stroke="midnightblue" d="M463.897,-155.005C478.204,-153.487 493.378,-151.876 507.808,-150.344"/>
<polygon fill="midnightblue" stroke="midnightblue" points="463.23,-151.556 453.656,-156.092 463.969,-158.517 463.23,-151.556"/>
</g>
<!-- Node13 -->
<g id="node13" class="node"><title>Node13</title>
<g id="a_node13"><a xlink:href="queue_8c.html#ac999cdfbb09fff396fa818bb9a30b4e5" target="_top" xlink:title="xQueueGenericCreate">
<polygon fill="white" stroke="black" points="519.5,-171.5 519.5,-190.5 636.5,-190.5 636.5,-171.5 519.5,-171.5"/>
<text text-anchor="middle" x="578" y="-178.5" font-family="Helvetica,sans-Serif" font-size="10.00">xQueueGenericCreate</text>
</a>
</g>
</g>
<!-- Node11&#45;&gt;Node13 -->
<g id="edge12" class="edge"><title>Node11&#45;&gt;Node13</title>
<path fill="none" stroke="midnightblue" d="M463.61,-168.964C481.831,-170.898 501.477,-172.984 519.214,-174.866"/>
<polygon fill="midnightblue" stroke="midnightblue" points="463.969,-165.483 453.656,-167.908 463.23,-172.444 463.969,-165.483"/>
</g>
<!-- Node14 -->
<g id="node14" class="node"><title>Node14</title>
<g id="a_node14"><a xlink:href="_g_c_c_2_a_r_m___c_m3___m_p_u_2port_8c.html#a807a463b8fc68904094127b85ae5d23b" target="_top" xlink:title="MPU_xQueueGenericCreate">
<polygon fill="white" stroke="black" points="687,-171.5 687,-190.5 831,-190.5 831,-171.5 687,-171.5"/>
<text text-anchor="middle" x="759" y="-178.5" font-family="Helvetica,sans-Serif" font-size="10.00">MPU_xQueueGenericCreate</text>
</a>
</g>
</g>
<!-- Node13&#45;&gt;Node14 -->
<g id="edge13" class="edge"><title>Node13&#45;&gt;Node14</title>
<path fill="none" stroke="midnightblue" d="M646.896,-181C659.908,-181 673.568,-181 686.684,-181"/>
<polygon fill="midnightblue" stroke="midnightblue" points="646.622,-177.5 636.622,-181 646.622,-184.5 646.622,-177.5"/>
</g>
<!-- Node18&#45;&gt;Node3 -->
<g id="edge20" class="edge"><title>Node18&#45;&gt;Node3</title>
<path fill="none" stroke="midnightblue" d="M452.995,-238C475.237,-238 500.836,-238 522.978,-238"/>
<polygon fill="midnightblue" stroke="midnightblue" points="452.708,-234.5 442.708,-238 452.707,-241.5 452.708,-234.5"/>
</g>
<!-- Node18&#45;&gt;Node5 -->
<g id="edge21" class="edge"><title>Node18&#45;&gt;Node5</title>
<path fill="none" stroke="midnightblue" d="M452.222,-250.272C458.963,-252.279 465.696,-254.523 472,-257 505.785,-270.273 542.446,-292.035 562.263,-304.478"/>
<polygon fill="midnightblue" stroke="midnightblue" points="452.965,-246.846 442.391,-247.504 451.068,-253.583 452.965,-246.846"/>
</g>
</g>
</svg>
