<?xml version="1.0" encoding="UTF-8" standalone="no"?>
<!DOCTYPE svg PUBLIC "-//W3C//DTD SVG 1.1//EN"
 "http://www.w3.org/Graphics/SVG/1.1/DTD/svg11.dtd">
<!-- Generated by graphviz version 2.30.1 (20130221.2233)
 -->
<!-- Title: vListInitialise Pages: 1 -->
<svg width="588pt" height="123pt"
 viewBox="0.00 0.00 588.00 123.00" xmlns="http://www.w3.org/2000/svg" xmlns:xlink="http://www.w3.org/1999/xlink">
<g id="graph0" class="graph" transform="scale(1 1) rotate(0) translate(4 119)">
<title>vListInitialise</title>
<polygon fill="white" stroke="white" points="-4,5 -4,-119 585,-119 585,5 -4,5"/>
<!-- Node1 -->
<g id="node1" class="node"><title>Node1</title>
<polygon fill="#bfbfbf" stroke="black" points="0.5,-57.5 0.5,-76.5 73.5,-76.5 73.5,-57.5 0.5,-57.5"/>
<text text-anchor="middle" x="37" y="-64.5" font-family="Helvetica,sans-Serif" font-size="10.00">vListInitialise</text>
</g>
<!-- Node2 -->
<g id="node2" class="node"><title>Node2</title>
<g id="a_node2"><a xlink:href="tasks_8c.html#af4a1bd397cb871d893fc24e5f86e4f19" target="_top" xlink:title="prvInitialiseTaskLists">
<polygon fill="white" stroke="black" points="112.5,-95.5 112.5,-114.5 221.5,-114.5 221.5,-95.5 112.5,-95.5"/>
<text text-anchor="middle" x="167" y="-102.5" font-family="Helvetica,sans-Serif" font-size="10.00">prvInitialiseTaskLists</text>
</a>
</g>
</g>
<!-- Node1&#45;&gt;Node2 -->
<g id="edge1" class="edge"><title>Node1&#45;&gt;Node2</title>
<path fill="none" stroke="midnightblue" d="M80.2242,-79.5353C97.6371,-84.7048 117.492,-90.5991 133.711,-95.4141"/>
<polygon fill="midnightblue" stroke="midnightblue" points="80.8824,-76.0798 70.2998,-76.589 78.8902,-82.7903 80.8824,-76.0798"/>
</g>
<!-- Node3 -->
<g id="node3" class="node"><title>Node3</title>
<g id="a_node3"><a xlink:href="event__groups_8h.html#a7ed741a0902718aca9c8d3ca273f1b73" target="_top" xlink:title="xEventGroupCreate">
<polygon fill="white" stroke="black" points="114.5,-57.5 114.5,-76.5 219.5,-76.5 219.5,-57.5 114.5,-57.5"/>
<text text-anchor="middle" x="167" y="-64.5" font-family="Helvetica,sans-Serif" font-size="10.00">xEventGroupCreate</text>
</a>
</g>
</g>
<!-- Node1&#45;&gt;Node3 -->
<g id="edge2" class="edge"><title>Node1&#45;&gt;Node3</title>
<path fill="none" stroke="midnightblue" d="M83.7017,-67C93.6069,-67 104.15,-67 114.269,-67"/>
<polygon fill="midnightblue" stroke="midnightblue" points="83.6552,-63.5001 73.6551,-67 83.6551,-70.5001 83.6552,-63.5001"/>
</g>
<!-- Node4 -->
<g id="node4" class="node"><title>Node4</title>
<g id="a_node4"><a xlink:href="queue_8c.html#a5e54273dbe3f56b8bdc8f7abee67a871" target="_top" xlink:title="xQueueGenericReset">
<polygon fill="white" stroke="black" points="110.5,-19.5 110.5,-38.5 223.5,-38.5 223.5,-19.5 110.5,-19.5"/>
<text text-anchor="middle" x="167" y="-26.5" font-family="Helvetica,sans-Serif" font-size="10.00">xQueueGenericReset</text>
</a>
</g>
</g>
<!-- Node1&#45;&gt;Node4 -->
<g id="edge3" class="edge"><title>Node1&#45;&gt;Node4</title>
<path fill="none" stroke="midnightblue" d="M80.2242,-54.4647C97.6371,-49.2952 117.492,-43.4009 133.711,-38.5859"/>
<polygon fill="midnightblue" stroke="midnightblue" points="78.8902,-51.2097 70.2998,-57.411 80.8824,-57.9202 78.8902,-51.2097"/>
</g>
<!-- Node5 -->
<g id="node5" class="node"><title>Node5</title>
<g id="a_node5"><a xlink:href="_g_c_c_2_a_r_m___c_m3___m_p_u_2port_8c.html#ac7dccb1862fd656e1aedff73bd7c3433" target="_top" xlink:title="MPU_xQueueGenericReset">
<polygon fill="white" stroke="black" points="260,-38.5 260,-57.5 400,-57.5 400,-38.5 260,-38.5"/>
<text text-anchor="middle" x="330" y="-45.5" font-family="Helvetica,sans-Serif" font-size="10.00">MPU_xQueueGenericReset</text>
</a>
</g>
</g>
<!-- Node4&#45;&gt;Node5 -->
<g id="edge4" class="edge"><title>Node4&#45;&gt;Node5</title>
<path fill="none" stroke="midnightblue" d="M233.822,-36.7679C242.422,-37.7827 251.253,-38.8248 259.904,-39.8458"/>
<polygon fill="midnightblue" stroke="midnightblue" points="234.199,-33.2882 223.858,-35.592 233.379,-40.2399 234.199,-33.2882"/>
</g>
<!-- Node6 -->
<g id="node6" class="node"><title>Node6</title>
<g id="a_node6"><a xlink:href="queue_8c.html#ac999cdfbb09fff396fa818bb9a30b4e5" target="_top" xlink:title="xQueueGenericCreate">
<polygon fill="white" stroke="black" points="271.5,-0.5 271.5,-19.5 388.5,-19.5 388.5,-0.5 271.5,-0.5"/>
<text text-anchor="middle" x="330" y="-7.5" font-family="Helvetica,sans-Serif" font-size="10.00">xQueueGenericCreate</text>
</a>
</g>
</g>
<!-- Node4&#45;&gt;Node6 -->
<g id="edge5" class="edge"><title>Node4&#45;&gt;Node6</title>
<path fill="none" stroke="midnightblue" d="M234.094,-21.2001C246.442,-19.7428 259.258,-18.2304 271.327,-16.8061"/>
<polygon fill="midnightblue" stroke="midnightblue" points="233.379,-17.7601 223.858,-22.408 234.199,-24.7118 233.379,-17.7601"/>
</g>
<!-- Node7 -->
<g id="node7" class="node"><title>Node7</title>
<g id="a_node7"><a xlink:href="_g_c_c_2_a_r_m___c_m3___m_p_u_2port_8c.html#a807a463b8fc68904094127b85ae5d23b" target="_top" xlink:title="MPU_xQueueGenericCreate">
<polygon fill="white" stroke="black" points="436,-0.5 436,-19.5 580,-19.5 580,-0.5 436,-0.5"/>
<text text-anchor="middle" x="508" y="-7.5" font-family="Helvetica,sans-Serif" font-size="10.00">MPU_xQueueGenericCreate</text>
</a>
</g>
</g>
<!-- Node6&#45;&gt;Node7 -->
<g id="edge6" class="edge"><title>Node6&#45;&gt;Node7</title>
<path fill="none" stroke="midnightblue" d="M398.669,-10C410.801,-10 423.478,-10 435.707,-10"/>
<polygon fill="midnightblue" stroke="midnightblue" points="398.629,-6.5001 388.629,-10 398.629,-13.5001 398.629,-6.5001"/>
</g>
</g>
</svg>
