<?xml version="1.0" encoding="UTF-8" standalone="no"?>
<!DOCTYPE svg PUBLIC "-//W3C//DTD SVG 1.1//EN"
 "http://www.w3.org/Graphics/SVG/1.1/DTD/svg11.dtd">
<!-- Generated by graphviz version 2.30.1 (20130221.2233)
 -->
<!-- Title: vListInsert Pages: 1 -->
<svg width="826pt" height="142pt"
 viewBox="0.00 0.00 826.00 142.00" xmlns="http://www.w3.org/2000/svg" xmlns:xlink="http://www.w3.org/1999/xlink">
<g id="graph0" class="graph" transform="scale(1 1) rotate(0) translate(4 138)">
<title>vListInsert</title>
<polygon fill="white" stroke="white" points="-4,5 -4,-138 823,-138 823,5 -4,5"/>
<!-- Node1 -->
<g id="node1" class="node"><title>Node1</title>
<polygon fill="#bfbfbf" stroke="black" points="0,-57.5 0,-76.5 62,-76.5 62,-57.5 0,-57.5"/>
<text text-anchor="middle" x="31" y="-64.5" font-family="Helvetica,sans-Serif" font-size="10.00">vListInsert</text>
</g>
<!-- Node2 -->
<g id="node2" class="node"><title>Node2</title>
<g id="a_node2"><a xlink:href="tasks_8c.html#a7859bfaa75a7c5524dd45b89036f1233" target="_top" xlink:title="prvAddCurrentTaskToDelayedList">
<polygon fill="white" stroke="black" points="98.5,-38.5 98.5,-57.5 265.5,-57.5 265.5,-38.5 98.5,-38.5"/>
<text text-anchor="middle" x="182" y="-45.5" font-family="Helvetica,sans-Serif" font-size="10.00">prvAddCurrentTaskToDelayedList</text>
</a>
</g>
</g>
<!-- Node1&#45;&gt;Node2 -->
<g id="edge1" class="edge"><title>Node1&#45;&gt;Node2</title>
<path fill="none" stroke="midnightblue" d="M72.2579,-61.8664C82.7957,-60.5227 94.5016,-59.03 106.217,-57.5361"/>
<polygon fill="midnightblue" stroke="midnightblue" points="71.6293,-58.4182 62.1524,-63.1551 72.5148,-65.3619 71.6293,-58.4182"/>
</g>
<!-- Node3 -->
<g id="node3" class="node"><title>Node3</title>
<g id="a_node3"><a xlink:href="tasks_8c.html#adc9eb47ceecf7dd7ee325bebff9eafc5" target="_top" xlink:title="vTaskPlaceOnEventList">
<polygon fill="white" stroke="black" points="325.5,-76.5 325.5,-95.5 448.5,-95.5 448.5,-76.5 325.5,-76.5"/>
<text text-anchor="middle" x="387" y="-83.5" font-family="Helvetica,sans-Serif" font-size="10.00">vTaskPlaceOnEventList</text>
</a>
</g>
</g>
<!-- Node1&#45;&gt;Node3 -->
<g id="edge10" class="edge"><title>Node1&#45;&gt;Node3</title>
<path fill="none" stroke="midnightblue" d="M72.325,-69.1643C134.173,-72.4839 252.868,-78.8545 325.192,-82.7363"/>
<polygon fill="midnightblue" stroke="midnightblue" points="72.3551,-65.661 62.1818,-68.6199 71.9799,-72.6509 72.3551,-65.661"/>
</g>
<!-- Node2&#45;&gt;Node3 -->
<g id="edge2" class="edge"><title>Node2&#45;&gt;Node3</title>
<path fill="none" stroke="midnightblue" d="M243.997,-59.4181C273.042,-64.8552 307.382,-71.2832 335.016,-76.4561"/>
<polygon fill="midnightblue" stroke="midnightblue" points="244.437,-55.9398 233.963,-57.54 243.149,-62.8202 244.437,-55.9398"/>
</g>
<!-- Node8 -->
<g id="node8" class="node"><title>Node8</title>
<g id="a_node8"><a xlink:href="tasks_8c.html#a0896d9cd10d789ef8dbb95c4959c3ce5" target="_top" xlink:title="vTaskPlaceOnUnorderedEventList">
<polygon fill="white" stroke="black" points="302,-38.5 302,-57.5 472,-57.5 472,-38.5 302,-38.5"/>
<text text-anchor="middle" x="387" y="-45.5" font-family="Helvetica,sans-Serif" font-size="10.00">vTaskPlaceOnUnorderedEventList</text>
</a>
</g>
</g>
<!-- Node2&#45;&gt;Node8 -->
<g id="edge7" class="edge"><title>Node2&#45;&gt;Node8</title>
<path fill="none" stroke="midnightblue" d="M275.734,-48C284.441,-48 293.235,-48 301.857,-48"/>
<polygon fill="midnightblue" stroke="midnightblue" points="275.568,-44.5001 265.568,-48 275.568,-51.5001 275.568,-44.5001"/>
</g>
<!-- Node4 -->
<g id="node4" class="node"><title>Node4</title>
<g id="a_node4"><a xlink:href="queue_8c.html#acb67c81366c00896b21cd826e07d885d" target="_top" xlink:title="xQueueGenericSend">
<polygon fill="white" stroke="black" points="515,-114.5 515,-133.5 625,-133.5 625,-114.5 515,-114.5"/>
<text text-anchor="middle" x="570" y="-121.5" font-family="Helvetica,sans-Serif" font-size="10.00">xQueueGenericSend</text>
</a>
</g>
</g>
<!-- Node3&#45;&gt;Node4 -->
<g id="edge3" class="edge"><title>Node3&#45;&gt;Node4</title>
<path fill="none" stroke="midnightblue" d="M443.638,-97.681C469.307,-103.07 499.391,-109.386 523.654,-114.48"/>
<polygon fill="midnightblue" stroke="midnightblue" points="444.18,-94.2184 433.674,-95.589 442.741,-101.069 444.18,-94.2184"/>
</g>
<!-- Node6 -->
<g id="node6" class="node"><title>Node6</title>
<g id="a_node6"><a xlink:href="queue_8c.html#ace632b55c3955bacae20978e261129a6" target="_top" xlink:title="xQueueGenericReceive">
<polygon fill="white" stroke="black" points="508.5,-76.5 508.5,-95.5 631.5,-95.5 631.5,-76.5 508.5,-76.5"/>
<text text-anchor="middle" x="570" y="-83.5" font-family="Helvetica,sans-Serif" font-size="10.00">xQueueGenericReceive</text>
</a>
</g>
</g>
<!-- Node3&#45;&gt;Node6 -->
<g id="edge5" class="edge"><title>Node3&#45;&gt;Node6</title>
<path fill="none" stroke="midnightblue" d="M458.591,-86C474.985,-86 492.297,-86 508.227,-86"/>
<polygon fill="midnightblue" stroke="midnightblue" points="458.522,-82.5001 448.522,-86 458.522,-89.5001 458.522,-82.5001"/>
</g>
<!-- Node5 -->
<g id="node5" class="node"><title>Node5</title>
<g id="a_node5"><a xlink:href="_g_c_c_2_a_r_m___c_m3___m_p_u_2port_8c.html#afec3801d053a850488cda14b0cad95fd" target="_top" xlink:title="MPU_xQueueGenericSend">
<polygon fill="white" stroke="black" points="674,-114.5 674,-133.5 812,-133.5 812,-114.5 674,-114.5"/>
<text text-anchor="middle" x="743" y="-121.5" font-family="Helvetica,sans-Serif" font-size="10.00">MPU_xQueueGenericSend</text>
</a>
</g>
</g>
<!-- Node4&#45;&gt;Node5 -->
<g id="edge4" class="edge"><title>Node4&#45;&gt;Node5</title>
<path fill="none" stroke="midnightblue" d="M635.454,-124C647.983,-124 661.156,-124 673.802,-124"/>
<polygon fill="midnightblue" stroke="midnightblue" points="635.106,-120.5 625.105,-124 635.105,-127.5 635.106,-120.5"/>
</g>
<!-- Node7 -->
<g id="node7" class="node"><title>Node7</title>
<g id="a_node7"><a xlink:href="_g_c_c_2_a_r_m___c_m3___m_p_u_2port_8c.html#a11f6f4ba0b7f2612c09d7494aa695297" target="_top" xlink:title="MPU_xQueueGenericReceive">
<polygon fill="white" stroke="black" points="668,-76.5 668,-95.5 818,-95.5 818,-76.5 668,-76.5"/>
<text text-anchor="middle" x="743" y="-83.5" font-family="Helvetica,sans-Serif" font-size="10.00">MPU_xQueueGenericReceive</text>
</a>
</g>
</g>
<!-- Node6&#45;&gt;Node7 -->
<g id="edge6" class="edge"><title>Node6&#45;&gt;Node7</title>
<path fill="none" stroke="midnightblue" d="M641.79,-86C650.426,-86 659.267,-86 667.949,-86"/>
<polygon fill="midnightblue" stroke="midnightblue" points="641.77,-82.5001 631.77,-86 641.77,-89.5001 641.77,-82.5001"/>
</g>
<!-- Node9 -->
<g id="node9" class="node"><title>Node9</title>
<g id="a_node9"><a xlink:href="event__groups_8h.html#a869511456b86426f52e2eec898bff341" target="_top" xlink:title="xEventGroupSync">
<polygon fill="white" stroke="black" points="521.5,-38.5 521.5,-57.5 618.5,-57.5 618.5,-38.5 521.5,-38.5"/>
<text text-anchor="middle" x="570" y="-45.5" font-family="Helvetica,sans-Serif" font-size="10.00">xEventGroupSync</text>
</a>
</g>
</g>
<!-- Node8&#45;&gt;Node9 -->
<g id="edge8" class="edge"><title>Node8&#45;&gt;Node9</title>
<path fill="none" stroke="midnightblue" d="M482.397,-48C495.804,-48 509.098,-48 521.097,-48"/>
<polygon fill="midnightblue" stroke="midnightblue" points="482.141,-44.5001 472.141,-48 482.141,-51.5001 482.141,-44.5001"/>
</g>
<!-- Node10 -->
<g id="node10" class="node"><title>Node10</title>
<g id="a_node10"><a xlink:href="event__groups_8h.html#aab9d5b405bc57b7624dcabe9a9a503db" target="_top" xlink:title="xEventGroupWaitBits">
<polygon fill="white" stroke="black" points="514,-0.5 514,-19.5 626,-19.5 626,-0.5 514,-0.5"/>
<text text-anchor="middle" x="570" y="-7.5" font-family="Helvetica,sans-Serif" font-size="10.00">xEventGroupWaitBits</text>
</a>
</g>
</g>
<!-- Node8&#45;&gt;Node10 -->
<g id="edge9" class="edge"><title>Node8&#45;&gt;Node10</title>
<path fill="none" stroke="midnightblue" d="M443.638,-36.319C469.307,-30.9301 499.391,-24.6139 523.654,-19.5201"/>
<polygon fill="midnightblue" stroke="midnightblue" points="442.741,-32.9309 433.674,-38.411 444.18,-39.7816 442.741,-32.9309"/>
</g>
</g>
</svg>
