<?xml version="1.0" encoding="UTF-8" standalone="no"?>
<!DOCTYPE svg PUBLIC "-//W3C//DTD SVG 1.1//EN"
 "http://www.w3.org/Graphics/SVG/1.1/DTD/svg11.dtd">
<!-- Generated by graphviz version 2.30.1 (20130221.2233)
 -->
<!-- Title: source/include/list.h Pages: 1 -->
<svg width="6248pt" height="208pt"
 viewBox="0.00 0.00 6248.00 208.00" xmlns="http://www.w3.org/2000/svg" xmlns:xlink="http://www.w3.org/1999/xlink">
<g id="graph0" class="graph" transform="scale(1 1) rotate(0) translate(4 204)">
<title>source/include/list.h</title>
<polygon fill="white" stroke="white" points="-4,5 -4,-204 6245,-204 6245,5 -4,5"/>
<!-- Node1 -->
<g id="node1" class="node"><title>Node1</title>
<polygon fill="#bfbfbf" stroke="black" points="3203,-180.5 3203,-199.5 3307,-199.5 3307,-180.5 3203,-180.5"/>
<text text-anchor="middle" x="3255" y="-187.5" font-family="Helvetica,sans-Serif" font-size="10.00">source/include/list.h</text>
</g>
<!-- Node2 -->
<g id="node2" class="node"><title>Node2</title>
<g id="a_node2"><a xlink:href="croutine_8h.html" target="_top" xlink:title="source/include/croutine.h">
<polygon fill="white" stroke="black" points="1524,-124.5 1524,-143.5 1652,-143.5 1652,-124.5 1524,-124.5"/>
<text text-anchor="middle" x="1588" y="-131.5" font-family="Helvetica,sans-Serif" font-size="10.00">source/include/croutine.h</text>
</a>
</g>
</g>
<!-- Node1&#45;&gt;Node2 -->
<g id="edge1" class="edge"><title>Node1&#45;&gt;Node2</title>
<path fill="none" stroke="midnightblue" d="M3192.72,-186.982C2930.48,-178.488 1917.53,-145.675 1652.02,-137.074"/>
<polygon fill="midnightblue" stroke="midnightblue" points="3192.71,-190.484 3202.82,-187.31 3192.94,-183.488 3192.71,-190.484"/>
</g>
<!-- Node4 -->
<g id="node4" class="node"><title>Node4</title>
<g id="a_node4"><a xlink:href="task_8h.html" target="_top" xlink:title="source/include/task.h">
<polygon fill="white" stroke="red" points="3146,-124.5 3146,-143.5 3256,-143.5 3256,-124.5 3146,-124.5"/>
<text text-anchor="middle" x="3201" y="-131.5" font-family="Helvetica,sans-Serif" font-size="10.00">source/include/task.h</text>
</a>
</g>
</g>
<!-- Node1&#45;&gt;Node4 -->
<g id="edge3" class="edge"><title>Node1&#45;&gt;Node4</title>
<path fill="none" stroke="midnightblue" d="M3239,-173.002C3229.43,-163.433 3217.64,-151.639 3209.75,-143.751"/>
<polygon fill="midnightblue" stroke="midnightblue" points="3236.54,-175.487 3246.08,-180.083 3241.49,-170.537 3236.54,-175.487"/>
</g>
<!-- Node50 -->
<g id="node50" class="node"><title>Node50</title>
<g id="a_node50"><a xlink:href="list_8c.html" target="_top" xlink:title="source/list.c">
<polygon fill="white" stroke="black" points="3274.5,-124.5 3274.5,-143.5 3343.5,-143.5 3343.5,-124.5 3274.5,-124.5"/>
<text text-anchor="middle" x="3309" y="-131.5" font-family="Helvetica,sans-Serif" font-size="10.00">source/list.c</text>
</a>
</g>
</g>
<!-- Node1&#45;&gt;Node50 -->
<g id="edge51" class="edge"><title>Node1&#45;&gt;Node50</title>
<path fill="none" stroke="midnightblue" d="M3271,-173.002C3280.57,-163.433 3292.36,-151.639 3300.25,-143.751"/>
<polygon fill="midnightblue" stroke="midnightblue" points="3268.51,-170.537 3263.92,-180.083 3273.46,-175.487 3268.51,-170.537"/>
</g>
<!-- Node49 -->
<g id="node49" class="node"><title>Node49</title>
<g id="a_node49"><a xlink:href="_g_c_c_2_tri_core__1782_2port_8c.html" target="_top" xlink:title="source/portable/GCC\l/TriCore_1782/port.c">
<polygon fill="white" stroke="black" points="6130,-57 6130,-87 6240,-87 6240,-57 6130,-57"/>
<text text-anchor="start" x="6138" y="-75" font-family="Helvetica,sans-Serif" font-size="10.00">source/portable/GCC</text>
<text text-anchor="middle" x="6185" y="-64" font-family="Helvetica,sans-Serif" font-size="10.00">/TriCore_1782/port.c</text>
</a>
</g>
</g>
<!-- Node1&#45;&gt;Node49 -->
<g id="edge52" class="edge"><title>Node1&#45;&gt;Node49</title>
<path fill="none" stroke="midnightblue" d="M3317.26,-188.458C3682.66,-185.026 5552.01,-163.965 6121,-88 6123.94,-87.6073 6126.94,-87.1397 6129.97,-86.6164"/>
<polygon fill="midnightblue" stroke="midnightblue" points="3317.11,-184.959 3307.14,-188.552 3317.17,-191.959 3317.11,-184.959"/>
</g>
<!-- Node3 -->
<g id="node3" class="node"><title>Node3</title>
<g id="a_node3"><a xlink:href="croutine_8c.html" target="_top" xlink:title="source/croutine.c">
<polygon fill="white" stroke="black" points="-0.5,-62.5 -0.5,-81.5 92.5,-81.5 92.5,-62.5 -0.5,-62.5"/>
<text text-anchor="middle" x="46" y="-69.5" font-family="Helvetica,sans-Serif" font-size="10.00">source/croutine.c</text>
</a>
</g>
</g>
<!-- Node2&#45;&gt;Node3 -->
<g id="edge2" class="edge"><title>Node2&#45;&gt;Node3</title>
<path fill="none" stroke="midnightblue" d="M1513.64,-132.811C1253.21,-131.827 383.19,-125.724 107,-88 96.5187,-86.5684 85.2225,-84.0681 75.2338,-81.5146"/>
<polygon fill="midnightblue" stroke="midnightblue" points="1513.73,-136.311 1523.75,-132.848 1513.76,-129.312 1513.73,-136.311"/>
</g>
<!-- Node4&#45;&gt;Node3 -->
<g id="edge4" class="edge"><title>Node4&#45;&gt;Node3</title>
<path fill="none" stroke="midnightblue" d="M3135.61,-132.469C2702.73,-128.903 262.339,-107.966 107,-88 96.3996,-86.6375 84.9758,-84.12 74.9125,-81.5314"/>
<polygon fill="midnightblue" stroke="midnightblue" points="3135.73,-135.97 3145.76,-132.553 3135.79,-128.97 3135.73,-135.97"/>
</g>
<!-- Node5 -->
<g id="node5" class="node"><title>Node5</title>
<g id="a_node5"><a xlink:href="event__groups_8c.html" target="_top" xlink:title="source/event_groups.c">
<polygon fill="white" stroke="black" points="106,-0.5 106,-19.5 224,-19.5 224,-0.5 106,-0.5"/>
<text text-anchor="middle" x="165" y="-7.5" font-family="Helvetica,sans-Serif" font-size="10.00">source/event_groups.c</text>
</a>
</g>
</g>
<!-- Node4&#45;&gt;Node5 -->
<g id="edge5" class="edge"><title>Node4&#45;&gt;Node5</title>
<path fill="none" stroke="midnightblue" d="M3135.76,-132.663C2694.83,-130.313 167.239,-115.642 140,-88 121.158,-68.8787 144.348,-35.4275 157.339,-19.6732"/>
<polygon fill="midnightblue" stroke="midnightblue" points="3135.77,-136.163 3145.79,-132.716 3135.8,-129.163 3135.77,-136.163"/>
</g>
<!-- Node6 -->
<g id="node6" class="node"><title>Node6</title>
<g id="a_node6"><a xlink:href="timers_8h.html" target="_top" xlink:title="source/include/timers.h">
<polygon fill="white" stroke="red" points="149.5,-62.5 149.5,-81.5 268.5,-81.5 268.5,-62.5 149.5,-62.5"/>
<text text-anchor="middle" x="209" y="-69.5" font-family="Helvetica,sans-Serif" font-size="10.00">source/include/timers.h</text>
</a>
</g>
</g>
<!-- Node4&#45;&gt;Node6 -->
<g id="edge6" class="edge"><title>Node4&#45;&gt;Node6</title>
<path fill="none" stroke="midnightblue" d="M3135.81,-132.774C2731.16,-131.266 570.274,-121.68 278,-88 266.065,-86.6247 253.156,-84.1042 241.768,-81.5168"/>
<polygon fill="midnightblue" stroke="midnightblue" points="3135.87,-136.274 3145.88,-132.811 3135.89,-129.274 3135.87,-136.274"/>
</g>
<!-- Node7 -->
<g id="node7" class="node"><title>Node7</title>
<g id="a_node7"><a xlink:href="_b_c_c_216_bit_d_o_s_2_flsh186_2port_8c.html" target="_top" xlink:title="source/portable/BCC\l/16BitDOS/Flsh186/port.c">
<polygon fill="white" stroke="black" points="287,-57 287,-87 417,-87 417,-57 287,-57"/>
<text text-anchor="start" x="295" y="-75" font-family="Helvetica,sans-Serif" font-size="10.00">source/portable/BCC</text>
<text text-anchor="middle" x="352" y="-64" font-family="Helvetica,sans-Serif" font-size="10.00">/16BitDOS/Flsh186/port.c</text>
</a>
</g>
</g>
<!-- Node4&#45;&gt;Node7 -->
<g id="edge8" class="edge"><title>Node4&#45;&gt;Node7</title>
<path fill="none" stroke="midnightblue" d="M3135.71,-132.661C2743.03,-130.525 702.874,-118.048 426,-88 423.133,-87.6888 420.212,-87.3204 417.268,-86.9068"/>
<polygon fill="midnightblue" stroke="midnightblue" points="3135.75,-136.161 3145.77,-132.715 3135.79,-129.161 3135.75,-136.161"/>
</g>
<!-- Node8 -->
<g id="node8" class="node"><title>Node8</title>
<g id="a_node8"><a xlink:href="_b_c_c_216_bit_d_o_s_2_p_c_2port_8c.html" target="_top" xlink:title="source/portable/BCC\l/16BitDOS/PC/port.c">
<polygon fill="white" stroke="black" points="435.5,-57 435.5,-87 544.5,-87 544.5,-57 435.5,-57"/>
<text text-anchor="start" x="443.5" y="-75" font-family="Helvetica,sans-Serif" font-size="10.00">source/portable/BCC</text>
<text text-anchor="middle" x="490" y="-64" font-family="Helvetica,sans-Serif" font-size="10.00">/16BitDOS/PC/port.c</text>
</a>
</g>
</g>
<!-- Node4&#45;&gt;Node8 -->
<g id="edge9" class="edge"><title>Node4&#45;&gt;Node8</title>
<path fill="none" stroke="midnightblue" d="M3135.66,-132.737C2753.55,-131.089 815.971,-121.142 553,-88 550.211,-87.6485 547.366,-87.2227 544.503,-86.7403"/>
<polygon fill="midnightblue" stroke="midnightblue" points="3135.71,-136.238 3145.72,-132.78 3135.74,-129.238 3135.71,-136.238"/>
</g>
<!-- Node9 -->
<g id="node9" class="node"><title>Node9</title>
<g id="a_node9"><a xlink:href="_c_c_s_2_a_r_m___c_m4_f_2port_8c.html" target="_top" xlink:title="source/portable/CCS\l/ARM_CM4F/port.c">
<polygon fill="white" stroke="black" points="562.5,-57 562.5,-87 671.5,-87 671.5,-57 562.5,-57"/>
<text text-anchor="start" x="570.5" y="-75" font-family="Helvetica,sans-Serif" font-size="10.00">source/portable/CCS</text>
<text text-anchor="middle" x="617" y="-64" font-family="Helvetica,sans-Serif" font-size="10.00">/ARM_CM4F/port.c</text>
</a>
</g>
</g>
<!-- Node4&#45;&gt;Node9 -->
<g id="edge10" class="edge"><title>Node4&#45;&gt;Node9</title>
<path fill="none" stroke="midnightblue" d="M3135.89,-132.664C2765.38,-130.644 930.639,-119.124 681,-88 677.942,-87.6188 674.818,-87.1511 671.674,-86.6195"/>
<polygon fill="midnightblue" stroke="midnightblue" points="3135.89,-136.164 3145.91,-132.719 3135.93,-129.164 3135.89,-136.164"/>
</g>
<!-- Node10 -->
<g id="node10" class="node"><title>Node10</title>
<g id="a_node10"><a xlink:href="_c_c_s_2_a_r_m___cortex-_r4_2port_8c.html" target="_top" xlink:title="source/portable/CCS\l/ARM_Cortex&#45;R4/port.c">
<polygon fill="white" stroke="black" points="690,-57 690,-87 810,-87 810,-57 690,-57"/>
<text text-anchor="start" x="698" y="-75" font-family="Helvetica,sans-Serif" font-size="10.00">source/portable/CCS</text>
<text text-anchor="middle" x="750" y="-64" font-family="Helvetica,sans-Serif" font-size="10.00">/ARM_Cortex&#45;R4/port.c</text>
</a>
</g>
</g>
<!-- Node4&#45;&gt;Node10 -->
<g id="edge11" class="edge"><title>Node4&#45;&gt;Node10</title>
<path fill="none" stroke="midnightblue" d="M3135.78,-132.528C2777.32,-129.835 1054.37,-115.54 819,-88 816.078,-87.6581 813.097,-87.2484 810.094,-86.7868"/>
<polygon fill="midnightblue" stroke="midnightblue" points="3135.96,-136.03 3145.99,-132.605 3136.01,-129.03 3135.96,-136.03"/>
</g>
<!-- Node11 -->
<g id="node11" class="node"><title>Node11</title>
<g id="a_node11"><a xlink:href="_c_c_s_2_m_s_p430_x_2port_8c.html" target="_top" xlink:title="source/portable/CCS\l/MSP430X/port.c">
<polygon fill="white" stroke="black" points="828.5,-57 828.5,-87 937.5,-87 937.5,-57 828.5,-57"/>
<text text-anchor="start" x="836.5" y="-75" font-family="Helvetica,sans-Serif" font-size="10.00">source/portable/CCS</text>
<text text-anchor="middle" x="883" y="-64" font-family="Helvetica,sans-Serif" font-size="10.00">/MSP430X/port.c</text>
</a>
</g>
</g>
<!-- Node4&#45;&gt;Node11 -->
<g id="edge12" class="edge"><title>Node4&#45;&gt;Node11</title>
<path fill="none" stroke="midnightblue" d="M3135.65,-132.529C2788.49,-129.916 1167.77,-116.283 946,-88 943.212,-87.6444 940.367,-87.2152 937.504,-86.7302"/>
<polygon fill="midnightblue" stroke="midnightblue" points="3135.77,-136.03 3145.79,-132.605 3135.82,-129.03 3135.77,-136.03"/>
</g>
<!-- Node12 -->
<g id="node12" class="node"><title>Node12</title>
<g id="a_node12"><a xlink:href="_code_warrior_2_cold_fire___v1_2port_8c.html" target="_top" xlink:title="source/portable/CodeWarrior\l/ColdFire_V1/port.c">
<polygon fill="white" stroke="black" points="955.5,-57 955.5,-87 1100.5,-87 1100.5,-57 955.5,-57"/>
<text text-anchor="start" x="963.5" y="-75" font-family="Helvetica,sans-Serif" font-size="10.00">source/portable/CodeWarrior</text>
<text text-anchor="middle" x="1028" y="-64" font-family="Helvetica,sans-Serif" font-size="10.00">/ColdFire_V1/port.c</text>
</a>
</g>
</g>
<!-- Node4&#45;&gt;Node12 -->
<g id="edge13" class="edge"><title>Node4&#45;&gt;Node12</title>
<path fill="none" stroke="midnightblue" d="M3135.59,-133.017C2827.16,-132.879 1516.12,-129.798 1109,-88 1106.3,-87.7225 1103.55,-87.4035 1100.78,-87.0508"/>
<polygon fill="midnightblue" stroke="midnightblue" points="3135.71,-136.517 3145.71,-133.021 3135.71,-129.517 3135.71,-136.517"/>
</g>
<!-- Node13 -->
<g id="node13" class="node"><title>Node13</title>
<g id="a_node13"><a xlink:href="_code_warrior_2_cold_fire___v2_2port_8c.html" target="_top" xlink:title="source/portable/CodeWarrior\l/ColdFire_V2/port.c">
<polygon fill="white" stroke="black" points="1118.5,-57 1118.5,-87 1263.5,-87 1263.5,-57 1118.5,-57"/>
<text text-anchor="start" x="1126.5" y="-75" font-family="Helvetica,sans-Serif" font-size="10.00">source/portable/CodeWarrior</text>
<text text-anchor="middle" x="1191" y="-64" font-family="Helvetica,sans-Serif" font-size="10.00">/ColdFire_V2/port.c</text>
</a>
</g>
</g>
<!-- Node4&#45;&gt;Node13 -->
<g id="edge14" class="edge"><title>Node4&#45;&gt;Node13</title>
<path fill="none" stroke="midnightblue" d="M3135.49,-132.878C2841.86,-132.116 1645.14,-126.652 1272,-88 1269.3,-87.72 1266.55,-87.399 1263.78,-87.0445"/>
<polygon fill="midnightblue" stroke="midnightblue" points="3135.54,-136.378 3145.55,-132.903 3135.56,-129.378 3135.54,-136.378"/>
</g>
<!-- Node14 -->
<g id="node14" class="node"><title>Node14</title>
<g id="a_node14"><a xlink:href="_code_warrior_2_h_c_s12_2port_8c.html" target="_top" xlink:title="source/portable/CodeWarrior\l/HCS12/port.c">
<polygon fill="white" stroke="black" points="1281.5,-57 1281.5,-87 1426.5,-87 1426.5,-57 1281.5,-57"/>
<text text-anchor="start" x="1289.5" y="-75" font-family="Helvetica,sans-Serif" font-size="10.00">source/portable/CodeWarrior</text>
<text text-anchor="middle" x="1354" y="-64" font-family="Helvetica,sans-Serif" font-size="10.00">/HCS12/port.c</text>
</a>
</g>
</g>
<!-- Node4&#45;&gt;Node14 -->
<g id="edge15" class="edge"><title>Node4&#45;&gt;Node14</title>
<path fill="none" stroke="midnightblue" d="M3135.68,-132.715C2857.99,-131.291 1774.37,-123.523 1435,-88 1432.3,-87.7171 1429.55,-87.3936 1426.78,-87.037"/>
<polygon fill="midnightblue" stroke="midnightblue" points="3135.97,-136.216 3145.98,-132.767 3136,-129.216 3135.97,-136.216"/>
</g>
<!-- Node15 -->
<g id="node15" class="node"><title>Node15</title>
<g id="a_node15"><a xlink:href="_g_c_c_2_a_r_m7___a_t91_f_r40008_2port_8c.html" target="_top" xlink:title="source/portable/GCC\l/ARM7_AT91FR40008/port.c">
<polygon fill="white" stroke="black" points="1444.5,-57 1444.5,-87 1589.5,-87 1589.5,-57 1444.5,-57"/>
<text text-anchor="start" x="1452.5" y="-75" font-family="Helvetica,sans-Serif" font-size="10.00">source/portable/GCC</text>
<text text-anchor="middle" x="1517" y="-64" font-family="Helvetica,sans-Serif" font-size="10.00">/ARM7_AT91FR40008/port.c</text>
</a>
</g>
</g>
<!-- Node4&#45;&gt;Node15 -->
<g id="edge16" class="edge"><title>Node4&#45;&gt;Node15</title>
<path fill="none" stroke="midnightblue" d="M3135.79,-132.499C2874.75,-130.287 1904.5,-120.042 1599,-88 1595.98,-87.683 1592.9,-87.317 1589.79,-86.9123"/>
<polygon fill="midnightblue" stroke="midnightblue" points="3135.84,-135.999 3145.87,-132.583 3135.9,-129 3135.84,-135.999"/>
</g>
<!-- Node16 -->
<g id="node16" class="node"><title>Node16</title>
<g id="a_node16"><a xlink:href="_a_r_m7___a_t91_f_r40008_2port_i_s_r_8c.html" target="_top" xlink:title="source/portable/GCC\l/ARM7_AT91FR40008/portISR.c">
<polygon fill="white" stroke="black" points="1608,-57 1608,-87 1770,-87 1770,-57 1608,-57"/>
<text text-anchor="start" x="1616" y="-75" font-family="Helvetica,sans-Serif" font-size="10.00">source/portable/GCC</text>
<text text-anchor="middle" x="1689" y="-64" font-family="Helvetica,sans-Serif" font-size="10.00">/ARM7_AT91FR40008/portISR.c</text>
</a>
</g>
</g>
<!-- Node4&#45;&gt;Node16 -->
<g id="edge17" class="edge"><title>Node4&#45;&gt;Node16</title>
<path fill="none" stroke="midnightblue" d="M3135.64,-132.092C2893.48,-128.546 2047.52,-114.506 1779,-88 1776,-87.7043 1772.96,-87.37 1769.89,-87.0042"/>
<polygon fill="midnightblue" stroke="midnightblue" points="3135.65,-135.592 3145.7,-132.238 3135.75,-128.593 3135.65,-135.592"/>
</g>
<!-- Node17 -->
<g id="node17" class="node"><title>Node17</title>
<g id="a_node17"><a xlink:href="_g_c_c_2_a_r_m7___a_t91_s_a_m7_s_2port_8c.html" target="_top" xlink:title="source/portable/GCC\l/ARM7_AT91SAM7S/port.c">
<polygon fill="white" stroke="black" points="1788,-57 1788,-87 1926,-87 1926,-57 1788,-57"/>
<text text-anchor="start" x="1796" y="-75" font-family="Helvetica,sans-Serif" font-size="10.00">source/portable/GCC</text>
<text text-anchor="middle" x="1857" y="-64" font-family="Helvetica,sans-Serif" font-size="10.00">/ARM7_AT91SAM7S/port.c</text>
</a>
</g>
</g>
<!-- Node4&#45;&gt;Node17 -->
<g id="edge18" class="edge"><title>Node4&#45;&gt;Node17</title>
<path fill="none" stroke="midnightblue" d="M3135.44,-132.008C2910.52,-128.397 2171.09,-114.735 1935,-88 1932.12,-87.6742 1929.19,-87.3008 1926.24,-86.89"/>
<polygon fill="midnightblue" stroke="midnightblue" points="3135.7,-135.513 3145.76,-132.173 3135.81,-128.514 3135.7,-135.513"/>
</g>
<!-- Node18 -->
<g id="node18" class="node"><title>Node18</title>
<g id="a_node18"><a xlink:href="_a_r_m7___a_t91_s_a_m7_s_2port_i_s_r_8c.html" target="_top" xlink:title="source/portable/GCC\l/ARM7_AT91SAM7S/portISR.c">
<polygon fill="white" stroke="black" points="1944.5,-57 1944.5,-87 2099.5,-87 2099.5,-57 1944.5,-57"/>
<text text-anchor="start" x="1952.5" y="-75" font-family="Helvetica,sans-Serif" font-size="10.00">source/portable/GCC</text>
<text text-anchor="middle" x="2022" y="-64" font-family="Helvetica,sans-Serif" font-size="10.00">/ARM7_AT91SAM7S/portISR.c</text>
</a>
</g>
</g>
<!-- Node4&#45;&gt;Node18 -->
<g id="edge19" class="edge"><title>Node4&#45;&gt;Node18</title>
<path fill="none" stroke="midnightblue" d="M3135.98,-133.252C2966.43,-133.274 2497.06,-129.274 2109,-88 2105.95,-87.6758 2102.85,-87.3107 2099.72,-86.9131"/>
<polygon fill="midnightblue" stroke="midnightblue" points="3135.99,-136.752 3145.99,-133.246 3135.99,-129.752 3135.99,-136.752"/>
</g>
<!-- Node19 -->
<g id="node19" class="node"><title>Node19</title>
<g id="a_node19"><a xlink:href="_g_c_c_2_a_r_m7___l_p_c2000_2port_8c.html" target="_top" xlink:title="source/portable/GCC\l/ARM7_LPC2000/port.c">
<polygon fill="white" stroke="black" points="2118,-57 2118,-87 2240,-87 2240,-57 2118,-57"/>
<text text-anchor="start" x="2126" y="-75" font-family="Helvetica,sans-Serif" font-size="10.00">source/portable/GCC</text>
<text text-anchor="middle" x="2179" y="-64" font-family="Helvetica,sans-Serif" font-size="10.00">/ARM7_LPC2000/port.c</text>
</a>
</g>
</g>
<!-- Node4&#45;&gt;Node19 -->
<g id="edge20" class="edge"><title>Node4&#45;&gt;Node19</title>
<path fill="none" stroke="midnightblue" d="M3135.72,-133.586C2981.02,-134.176 2580.22,-131.021 2249,-88 2246.17,-87.6318 2243.27,-87.2087 2240.36,-86.7435"/>
<polygon fill="midnightblue" stroke="midnightblue" points="3136.01,-137.085 3145.99,-133.54 3135.97,-130.085 3136.01,-137.085"/>
</g>
<!-- Node20 -->
<g id="node20" class="node"><title>Node20</title>
<g id="a_node20"><a xlink:href="_g_c_c_2_a_r_m7___l_p_c23xx_2port_8c.html" target="_top" xlink:title="source/portable/GCC\l/ARM7_LPC23xx/port.c">
<polygon fill="white" stroke="black" points="2258.5,-57 2258.5,-87 2379.5,-87 2379.5,-57 2258.5,-57"/>
<text text-anchor="start" x="2266.5" y="-75" font-family="Helvetica,sans-Serif" font-size="10.00">source/portable/GCC</text>
<text text-anchor="middle" x="2319" y="-64" font-family="Helvetica,sans-Serif" font-size="10.00">/ARM7_LPC23xx/port.c</text>
</a>
</g>
</g>
<!-- Node4&#45;&gt;Node20 -->
<g id="edge21" class="edge"><title>Node4&#45;&gt;Node20</title>
<path fill="none" stroke="midnightblue" d="M3135.56,-132.82C2997.15,-131.683 2664.77,-124.959 2389,-88 2385.92,-87.5873 2382.77,-87.1121 2379.61,-86.5906"/>
<polygon fill="midnightblue" stroke="midnightblue" points="3135.56,-136.32 3145.59,-132.895 3135.61,-129.32 3135.56,-136.32"/>
</g>
<!-- Node21 -->
<g id="node21" class="node"><title>Node21</title>
<g id="a_node21"><a xlink:href="_a_r_m7___l_p_c23xx_2port_i_s_r_8c.html" target="_top" xlink:title="source/portable/GCC\l/ARM7_LPC23xx/portISR.c">
<polygon fill="white" stroke="black" points="2398,-57 2398,-87 2536,-87 2536,-57 2398,-57"/>
<text text-anchor="start" x="2406" y="-75" font-family="Helvetica,sans-Serif" font-size="10.00">source/portable/GCC</text>
<text text-anchor="middle" x="2467" y="-64" font-family="Helvetica,sans-Serif" font-size="10.00">/ARM7_LPC23xx/portISR.c</text>
</a>
</g>
</g>
<!-- Node4&#45;&gt;Node21 -->
<g id="edge22" class="edge"><title>Node4&#45;&gt;Node21</title>
<path fill="none" stroke="midnightblue" d="M3135.59,-131.144C3017.3,-127.203 2760.11,-115.956 2545,-88 2542.13,-87.6268 2539.2,-87.2139 2536.25,-86.7703"/>
<polygon fill="midnightblue" stroke="midnightblue" points="3135.81,-134.653 3145.92,-131.481 3136.04,-127.657 3135.81,-134.653"/>
</g>
<!-- Node22 -->
<g id="node22" class="node"><title>Node22</title>
<g id="a_node22"><a xlink:href="_g_c_c_2_a_r_m___c_a9_2port_8c.html" target="_top" xlink:title="source/portable/GCC\l/ARM_CA9/port.c">
<polygon fill="white" stroke="black" points="2554,-57 2554,-87 2664,-87 2664,-57 2554,-57"/>
<text text-anchor="start" x="2562" y="-75" font-family="Helvetica,sans-Serif" font-size="10.00">source/portable/GCC</text>
<text text-anchor="middle" x="2609" y="-64" font-family="Helvetica,sans-Serif" font-size="10.00">/ARM_CA9/port.c</text>
</a>
</g>
</g>
<!-- Node4&#45;&gt;Node22 -->
<g id="edge23" class="edge"><title>Node4&#45;&gt;Node22</title>
<path fill="none" stroke="midnightblue" d="M3135.7,-130.486C3035.59,-125.946 2838.41,-114.291 2673,-88 2670.07,-87.5342 2667.07,-87.0084 2664.06,-86.4394"/>
<polygon fill="midnightblue" stroke="midnightblue" points="3135.81,-133.994 3145.95,-130.942 3136.12,-127.001 3135.81,-133.994"/>
</g>
<!-- Node23 -->
<g id="node23" class="node"><title>Node23</title>
<g id="a_node23"><a xlink:href="_g_c_c_2_a_r_m___c_m0_2port_8c.html" target="_top" xlink:title="source/portable/GCC\l/ARM_CM0/port.c">
<polygon fill="white" stroke="black" points="2682,-57 2682,-87 2792,-87 2792,-57 2682,-57"/>
<text text-anchor="start" x="2690" y="-75" font-family="Helvetica,sans-Serif" font-size="10.00">source/portable/GCC</text>
<text text-anchor="middle" x="2737" y="-64" font-family="Helvetica,sans-Serif" font-size="10.00">/ARM_CM0/port.c</text>
</a>
</g>
</g>
<!-- Node4&#45;&gt;Node23 -->
<g id="edge24" class="edge"><title>Node4&#45;&gt;Node23</title>
<path fill="none" stroke="midnightblue" d="M3135.36,-128.011C3055.84,-121.417 2917.98,-108.215 2801,-88 2798.08,-87.4947 2795.09,-86.9373 2792.07,-86.3437"/>
<polygon fill="midnightblue" stroke="midnightblue" points="3135.46,-131.531 3145.71,-128.86 3136.03,-124.554 3135.46,-131.531"/>
</g>
<!-- Node24 -->
<g id="node24" class="node"><title>Node24</title>
<g id="a_node24"><a xlink:href="_g_c_c_2_a_r_m___c_m3_2port_8c.html" target="_top" xlink:title="source/portable/GCC\l/ARM_CM3/port.c">
<polygon fill="white" stroke="black" points="2810,-57 2810,-87 2920,-87 2920,-57 2810,-57"/>
<text text-anchor="start" x="2818" y="-75" font-family="Helvetica,sans-Serif" font-size="10.00">source/portable/GCC</text>
<text text-anchor="middle" x="2865" y="-64" font-family="Helvetica,sans-Serif" font-size="10.00">/ARM_CM3/port.c</text>
</a>
</g>
</g>
<!-- Node4&#45;&gt;Node24 -->
<g id="edge25" class="edge"><title>Node4&#45;&gt;Node24</title>
<path fill="none" stroke="midnightblue" d="M3135.84,-123.461C3080.6,-115.078 2999.37,-102.051 2929,-88 2926.09,-87.419 2923.11,-86.8013 2920.11,-86.1603"/>
<polygon fill="midnightblue" stroke="midnightblue" points="3135.43,-126.939 3145.84,-124.972 3136.48,-120.018 3135.43,-126.939"/>
</g>
<!-- Node25 -->
<g id="node25" class="node"><title>Node25</title>
<g id="a_node25"><a xlink:href="_g_c_c_2_a_r_m___c_m3___m_p_u_2port_8c.html" target="_top" xlink:title="source/portable/GCC\l/ARM_CM3_MPU/port.c">
<polygon fill="white" stroke="black" points="2938,-57 2938,-87 3062,-87 3062,-57 2938,-57"/>
<text text-anchor="start" x="2946" y="-75" font-family="Helvetica,sans-Serif" font-size="10.00">source/portable/GCC</text>
<text text-anchor="middle" x="3000" y="-64" font-family="Helvetica,sans-Serif" font-size="10.00">/ARM_CM3_MPU/port.c</text>
</a>
</g>
</g>
<!-- Node4&#45;&gt;Node25 -->
<g id="edge26" class="edge"><title>Node4&#45;&gt;Node25</title>
<path fill="none" stroke="midnightblue" d="M3162.49,-121.503C3129.58,-111.68 3082.12,-97.5137 3046.98,-87.0253"/>
<polygon fill="midnightblue" stroke="midnightblue" points="3161.62,-124.897 3172.2,-124.403 3163.62,-118.189 3161.62,-124.897"/>
</g>
<!-- Node26 -->
<g id="node26" class="node"><title>Node26</title>
<g id="a_node26"><a xlink:href="_g_c_c_2_a_r_m___c_m4_f_2port_8c.html" target="_top" xlink:title="source/portable/GCC\l/ARM_CM4F/port.c">
<polygon fill="white" stroke="black" points="3080,-57 3080,-87 3190,-87 3190,-57 3080,-57"/>
<text text-anchor="start" x="3088" y="-75" font-family="Helvetica,sans-Serif" font-size="10.00">source/portable/GCC</text>
<text text-anchor="middle" x="3135" y="-64" font-family="Helvetica,sans-Serif" font-size="10.00">/ARM_CM4F/port.c</text>
</a>
</g>
</g>
<!-- Node4&#45;&gt;Node26 -->
<g id="edge27" class="edge"><title>Node4&#45;&gt;Node26</title>
<path fill="none" stroke="midnightblue" d="M3183.97,-117.517C3173.65,-108.138 3160.59,-96.2659 3150.55,-87.1408"/>
<polygon fill="midnightblue" stroke="midnightblue" points="3181.79,-120.267 3191.54,-124.403 3186.5,-115.087 3181.79,-120.267"/>
</g>
<!-- Node27 -->
<g id="node27" class="node"><title>Node27</title>
<g id="a_node27"><a xlink:href="_g_c_c_2_a_r_m___c_m7_2r0p1_2port_8c.html" target="_top" xlink:title="source/portable/GCC\l/ARM_CM7/r0p1/port.c">
<polygon fill="white" stroke="black" points="3208.5,-57 3208.5,-87 3327.5,-87 3327.5,-57 3208.5,-57"/>
<text text-anchor="start" x="3216.5" y="-75" font-family="Helvetica,sans-Serif" font-size="10.00">source/portable/GCC</text>
<text text-anchor="middle" x="3268" y="-64" font-family="Helvetica,sans-Serif" font-size="10.00">/ARM_CM7/r0p1/port.c</text>
</a>
</g>
</g>
<!-- Node4&#45;&gt;Node27 -->
<g id="edge28" class="edge"><title>Node4&#45;&gt;Node27</title>
<path fill="none" stroke="midnightblue" d="M3218.29,-117.517C3228.76,-108.138 3242.02,-96.2659 3252.21,-87.1408"/>
<polygon fill="midnightblue" stroke="midnightblue" points="3215.71,-115.125 3210.6,-124.403 3220.38,-120.34 3215.71,-115.125"/>
</g>
<!-- Node28 -->
<g id="node28" class="node"><title>Node28</title>
<g id="a_node28"><a xlink:href="_g_c_c_2_a_r_m___c_r5_2port_8c.html" target="_top" xlink:title="source/portable/GCC\l/ARM_CR5/port.c">
<polygon fill="white" stroke="black" points="3346,-57 3346,-87 3456,-87 3456,-57 3346,-57"/>
<text text-anchor="start" x="3354" y="-75" font-family="Helvetica,sans-Serif" font-size="10.00">source/portable/GCC</text>
<text text-anchor="middle" x="3401" y="-64" font-family="Helvetica,sans-Serif" font-size="10.00">/ARM_CR5/port.c</text>
</a>
</g>
</g>
<!-- Node4&#45;&gt;Node28 -->
<g id="edge29" class="edge"><title>Node4&#45;&gt;Node28</title>
<path fill="none" stroke="midnightblue" d="M3239.32,-121.503C3272.07,-111.68 3319.29,-97.5137 3354.25,-87.0253"/>
<polygon fill="midnightblue" stroke="midnightblue" points="3238.23,-118.178 3229.66,-124.403 3240.24,-124.882 3238.23,-118.178"/>
</g>
<!-- Node29 -->
<g id="node29" class="node"><title>Node29</title>
<g id="a_node29"><a xlink:href="_g_c_c_2_a_r_m___c_rx___no___g_i_c_2port_8c.html" target="_top" xlink:title="source/portable/GCC\l/ARM_CRx_No_GIC/port.c">
<polygon fill="white" stroke="black" points="3474,-57 3474,-87 3610,-87 3610,-57 3474,-57"/>
<text text-anchor="start" x="3482" y="-75" font-family="Helvetica,sans-Serif" font-size="10.00">source/portable/GCC</text>
<text text-anchor="middle" x="3542" y="-64" font-family="Helvetica,sans-Serif" font-size="10.00">/ARM_CRx_No_GIC/port.c</text>
</a>
</g>
</g>
<!-- Node4&#45;&gt;Node29 -->
<g id="edge30" class="edge"><title>Node4&#45;&gt;Node29</title>
<path fill="none" stroke="midnightblue" d="M3263.18,-122.826C3316.72,-113.963 3396.04,-100.593 3465,-88 3467.95,-87.4618 3470.96,-86.9053 3474,-86.3376"/>
<polygon fill="midnightblue" stroke="midnightblue" points="3262.45,-119.398 3253.16,-124.482 3263.6,-126.304 3262.45,-119.398"/>
</g>
<!-- Node30 -->
<g id="node30" class="node"><title>Node30</title>
<g id="a_node30"><a xlink:href="_g_c_c_2_a_t_mega323_2port_8c.html" target="_top" xlink:title="source/portable/GCC\l/ATMega323/port.c">
<polygon fill="white" stroke="black" points="3628,-57 3628,-87 3738,-87 3738,-57 3628,-57"/>
<text text-anchor="start" x="3636" y="-75" font-family="Helvetica,sans-Serif" font-size="10.00">source/portable/GCC</text>
<text text-anchor="middle" x="3683" y="-64" font-family="Helvetica,sans-Serif" font-size="10.00">/ATMega323/port.c</text>
</a>
</g>
</g>
<!-- Node4&#45;&gt;Node30 -->
<g id="edge31" class="edge"><title>Node4&#45;&gt;Node30</title>
<path fill="none" stroke="midnightblue" d="M3266.19,-123.907C3423.73,-105.344 3466.22,-113.563 3619,-88 3621.93,-87.5103 3624.92,-86.9654 3627.93,-86.3815"/>
<polygon fill="midnightblue" stroke="midnightblue" points="3265.65,-120.446 3256.14,-125.109 3266.49,-127.397 3265.65,-120.446"/>
</g>
<!-- Node31 -->
<g id="node31" class="node"><title>Node31</title>
<g id="a_node31"><a xlink:href="_g_c_c_2_a_v_r32___u_c3_2port_8c.html" target="_top" xlink:title="FreeRTOS port source for AVR32 UC3. ">
<polygon fill="white" stroke="black" points="3756,-57 3756,-87 3866,-87 3866,-57 3756,-57"/>
<text text-anchor="start" x="3764" y="-75" font-family="Helvetica,sans-Serif" font-size="10.00">source/portable/GCC</text>
<text text-anchor="middle" x="3811" y="-64" font-family="Helvetica,sans-Serif" font-size="10.00">/AVR32_UC3/port.c</text>
</a>
</g>
</g>
<!-- Node4&#45;&gt;Node31 -->
<g id="edge32" class="edge"><title>Node4&#45;&gt;Node31</title>
<path fill="none" stroke="midnightblue" d="M3266.12,-123.955C3480.32,-101.611 3537.88,-120.115 3747,-88 3749.93,-87.5496 3752.93,-87.036 3755.95,-86.4766"/>
<polygon fill="midnightblue" stroke="midnightblue" points="3265.7,-120.48 3256.13,-125.015 3266.44,-127.441 3265.7,-120.48"/>
</g>
<!-- Node32 -->
<g id="node32" class="node"><title>Node32</title>
<g id="a_node32"><a xlink:href="_g_c_c_2_cold_fire___v2_2port_8c.html" target="_top" xlink:title="source/portable/GCC\l/ColdFire_V2/port.c">
<polygon fill="white" stroke="black" points="3884,-57 3884,-87 3994,-87 3994,-57 3884,-57"/>
<text text-anchor="start" x="3892" y="-75" font-family="Helvetica,sans-Serif" font-size="10.00">source/portable/GCC</text>
<text text-anchor="middle" x="3939" y="-64" font-family="Helvetica,sans-Serif" font-size="10.00">/ColdFire_V2/port.c</text>
</a>
</g>
</g>
<!-- Node4&#45;&gt;Node32 -->
<g id="edge33" class="edge"><title>Node4&#45;&gt;Node32</title>
<path fill="none" stroke="midnightblue" d="M3266.25,-123.964C3537.01,-97.792 3609.53,-126.652 3875,-88 3877.94,-87.5725 3880.94,-87.0771 3883.96,-86.532"/>
<polygon fill="midnightblue" stroke="midnightblue" points="3265.73,-120.499 3256.12,-124.96 3266.42,-127.465 3265.73,-120.499"/>
</g>
<!-- Node33 -->
<g id="node33" class="node"><title>Node33</title>
<g id="a_node33"><a xlink:href="_g_c_c_2_c_o_r_t_u_s___a_p_s3_2port_8c.html" target="_top" xlink:title="source/portable/GCC\l/CORTUS_APS3/port.c">
<polygon fill="white" stroke="black" points="4012,-57 4012,-87 4132,-87 4132,-57 4012,-57"/>
<text text-anchor="start" x="4020" y="-75" font-family="Helvetica,sans-Serif" font-size="10.00">source/portable/GCC</text>
<text text-anchor="middle" x="4072" y="-64" font-family="Helvetica,sans-Serif" font-size="10.00">/CORTUS_APS3/port.c</text>
</a>
</g>
</g>
<!-- Node4&#45;&gt;Node33 -->
<g id="edge34" class="edge"><title>Node4&#45;&gt;Node33</title>
<path fill="none" stroke="midnightblue" d="M3266.37,-123.967C3593.71,-93.8723 3680.78,-130.586 4003,-88 4005.92,-87.6145 4008.89,-87.1695 4011.89,-86.6794"/>
<polygon fill="midnightblue" stroke="midnightblue" points="3265.75,-120.51 3256.12,-124.924 3266.4,-127.48 3265.75,-120.51"/>
</g>
<!-- Node34 -->
<g id="node34" class="node"><title>Node34</title>
<g id="a_node34"><a xlink:href="_g_c_c_2_h8_s2329_2port_8c.html" target="_top" xlink:title="source/portable/GCC\l/H8S2329/port.c">
<polygon fill="white" stroke="black" points="4150,-57 4150,-87 4260,-87 4260,-57 4150,-57"/>
<text text-anchor="start" x="4158" y="-75" font-family="Helvetica,sans-Serif" font-size="10.00">source/portable/GCC</text>
<text text-anchor="middle" x="4205" y="-64" font-family="Helvetica,sans-Serif" font-size="10.00">/H8S2329/port.c</text>
</a>
</g>
</g>
<!-- Node4&#45;&gt;Node34 -->
<g id="edge35" class="edge"><title>Node4&#45;&gt;Node34</title>
<path fill="none" stroke="midnightblue" d="M3266.23,-123.992C3654.83,-89.7049 3758.22,-140.244 4141,-88 4143.94,-87.5987 4146.94,-87.1243 4149.97,-86.5956"/>
<polygon fill="midnightblue" stroke="midnightblue" points="3265.77,-120.519 3256.12,-124.897 3266.39,-127.491 3265.77,-120.519"/>
</g>
<!-- Node35 -->
<g id="node35" class="node"><title>Node35</title>
<g id="a_node35"><a xlink:href="_g_c_c_2_h_c_s12_2port_8c.html" target="_top" xlink:title="source/portable/GCC\l/HCS12/port.c">
<polygon fill="white" stroke="black" points="4278,-57 4278,-87 4388,-87 4388,-57 4278,-57"/>
<text text-anchor="start" x="4286" y="-75" font-family="Helvetica,sans-Serif" font-size="10.00">source/portable/GCC</text>
<text text-anchor="middle" x="4333" y="-64" font-family="Helvetica,sans-Serif" font-size="10.00">/HCS12/port.c</text>
</a>
</g>
</g>
<!-- Node4&#45;&gt;Node35 -->
<g id="edge36" class="edge"><title>Node4&#45;&gt;Node35</title>
<path fill="none" stroke="midnightblue" d="M3266.36,-123.988C3711.57,-85.795 3829.79,-146.776 4269,-88 4271.94,-87.6064 4274.94,-87.1381 4277.97,-86.6142"/>
<polygon fill="midnightblue" stroke="midnightblue" points="3265.78,-120.525 3256.12,-124.879 3266.38,-127.499 3265.78,-120.525"/>
</g>
<!-- Node36 -->
<g id="node36" class="node"><title>Node36</title>
<g id="a_node36"><a xlink:href="_g_c_c_2_i_a32__flat_2port_8c.html" target="_top" xlink:title="source/portable/GCC\l/IA32_flat/port.c">
<polygon fill="white" stroke="black" points="4406,-57 4406,-87 4516,-87 4516,-57 4406,-57"/>
<text text-anchor="start" x="4414" y="-75" font-family="Helvetica,sans-Serif" font-size="10.00">source/portable/GCC</text>
<text text-anchor="middle" x="4461" y="-64" font-family="Helvetica,sans-Serif" font-size="10.00">/IA32_flat/port.c</text>
</a>
</g>
</g>
<!-- Node4&#45;&gt;Node36 -->
<g id="edge37" class="edge"><title>Node4&#45;&gt;Node36</title>
<path fill="none" stroke="midnightblue" d="M3266.16,-124.01C3768.26,-81.8438 3901.24,-153.322 4397,-88 4399.94,-87.6124 4402.95,-87.1488 4405.97,-86.6286"/>
<polygon fill="midnightblue" stroke="midnightblue" points="3265.78,-120.53 3256.12,-124.865 3266.38,-127.504 3265.78,-120.53"/>
</g>
<!-- Node37 -->
<g id="node37" class="node"><title>Node37</title>
<g id="a_node37"><a xlink:href="_g_c_c_2_m_c_f5235_2port_8c.html" target="_top" xlink:title="source/portable/GCC\l/MCF5235/port.c">
<polygon fill="white" stroke="black" points="4534,-57 4534,-87 4644,-87 4644,-57 4534,-57"/>
<text text-anchor="start" x="4542" y="-75" font-family="Helvetica,sans-Serif" font-size="10.00">source/portable/GCC</text>
<text text-anchor="middle" x="4589" y="-64" font-family="Helvetica,sans-Serif" font-size="10.00">/MCF5235/port.c</text>
</a>
</g>
</g>
<!-- Node4&#45;&gt;Node37 -->
<g id="edge38" class="edge"><title>Node4&#45;&gt;Node37</title>
<path fill="none" stroke="midnightblue" d="M3266.45,-123.99C3825.05,-77.9319 3972.85,-159.846 4525,-88 4527.94,-87.6171 4530.95,-87.1573 4533.97,-86.6401"/>
<polygon fill="midnightblue" stroke="midnightblue" points="3265.79,-120.533 3256.11,-124.853 3266.37,-127.509 3265.79,-120.533"/>
</g>
<!-- Node38 -->
<g id="node38" class="node"><title>Node38</title>
<g id="a_node38"><a xlink:href="_g_c_c_2_micro_blaze_2port_8c.html" target="_top" xlink:title="source/portable/GCC\l/MicroBlaze/port.c">
<polygon fill="white" stroke="black" points="4662,-57 4662,-87 4772,-87 4772,-57 4662,-57"/>
<text text-anchor="start" x="4670" y="-75" font-family="Helvetica,sans-Serif" font-size="10.00">source/portable/GCC</text>
<text text-anchor="middle" x="4717" y="-64" font-family="Helvetica,sans-Serif" font-size="10.00">/MicroBlaze/port.c</text>
</a>
</g>
</g>
<!-- Node4&#45;&gt;Node38 -->
<g id="edge39" class="edge"><title>Node4&#45;&gt;Node38</title>
<path fill="none" stroke="midnightblue" d="M3266.13,-124.02C3881.72,-73.954 4044.25,-166.395 4653,-88 4655.94,-87.621 4658.95,-87.1643 4661.97,-86.6495"/>
<polygon fill="midnightblue" stroke="midnightblue" points="3265.79,-120.536 3256.11,-124.844 3266.37,-127.512 3265.79,-120.536"/>
</g>
<!-- Node39 -->
<g id="node39" class="node"><title>Node39</title>
<g id="a_node39"><a xlink:href="_g_c_c_2_micro_blaze_v8_2port_8c.html" target="_top" xlink:title="source/portable/GCC\l/MicroBlazeV8/port.c">
<polygon fill="white" stroke="black" points="4790,-57 4790,-87 4900,-87 4900,-57 4790,-57"/>
<text text-anchor="start" x="4798" y="-75" font-family="Helvetica,sans-Serif" font-size="10.00">source/portable/GCC</text>
<text text-anchor="middle" x="4845" y="-64" font-family="Helvetica,sans-Serif" font-size="10.00">/MicroBlazeV8/port.c</text>
</a>
</g>
</g>
<!-- Node4&#45;&gt;Node39 -->
<g id="edge40" class="edge"><title>Node4&#45;&gt;Node39</title>
<path fill="none" stroke="midnightblue" d="M3266.54,-123.99C3938.53,-70.0461 4115.89,-172.914 4781,-88 4783.94,-87.6242 4786.95,-87.1701 4789.97,-86.6573"/>
<polygon fill="midnightblue" stroke="midnightblue" points="3265.8,-120.539 3256.11,-124.836 3266.36,-127.516 3265.8,-120.539"/>
</g>
<!-- Node40 -->
<g id="node40" class="node"><title>Node40</title>
<g id="a_node40"><a xlink:href="port__exceptions_8c.html" target="_top" xlink:title="source/portable/GCC\l/MicroBlazeV8/port_exceptions.c">
<polygon fill="white" stroke="black" points="4918,-57 4918,-87 5080,-87 5080,-57 4918,-57"/>
<text text-anchor="start" x="4926" y="-75" font-family="Helvetica,sans-Serif" font-size="10.00">source/portable/GCC</text>
<text text-anchor="middle" x="4999" y="-64" font-family="Helvetica,sans-Serif" font-size="10.00">/MicroBlazeV8/port_exceptions.c</text>
</a>
</g>
</g>
<!-- Node4&#45;&gt;Node40 -->
<g id="edge41" class="edge"><title>Node4&#45;&gt;Node40</title>
<path fill="none" stroke="midnightblue" d="M3266.34,-124.007C3995.21,-65.8541 4184.73,-155.933 4909,-88 4912,-87.7189 4915.04,-87.397 4918.12,-87.0417"/>
<polygon fill="midnightblue" stroke="midnightblue" points="3265.8,-120.539 3256.11,-124.83 3266.36,-127.517 3265.8,-120.539"/>
</g>
<!-- Node41 -->
<g id="node41" class="node"><title>Node41</title>
<g id="a_node41"><a xlink:href="_g_c_c_2_m_s_p430_f449_2port_8c.html" target="_top" xlink:title="source/portable/GCC\l/MSP430F449/port.c">
<polygon fill="white" stroke="black" points="5098,-57 5098,-87 5208,-87 5208,-57 5098,-57"/>
<text text-anchor="start" x="5106" y="-75" font-family="Helvetica,sans-Serif" font-size="10.00">source/portable/GCC</text>
<text text-anchor="middle" x="5153" y="-64" font-family="Helvetica,sans-Serif" font-size="10.00">/MSP430F449/port.c</text>
</a>
</g>
</g>
<!-- Node4&#45;&gt;Node41 -->
<g id="edge42" class="edge"><title>Node4&#45;&gt;Node41</title>
<path fill="none" stroke="midnightblue" d="M3266.21,-124.037C3685.48,-92.4622 4689.99,-138.128 5089,-88 5091.94,-87.6301 5094.95,-87.1807 5097.98,-86.6716"/>
<polygon fill="midnightblue" stroke="midnightblue" points="3265.81,-120.558 3256.11,-124.822 3266.35,-127.537 3265.81,-120.558"/>
</g>
<!-- Node42 -->
<g id="node42" class="node"><title>Node42</title>
<g id="a_node42"><a xlink:href="_g_c_c_2_nios_i_i_2port_8c.html" target="_top" xlink:title="source/portable/GCC\l/NiosII/port.c">
<polygon fill="white" stroke="black" points="5226,-57 5226,-87 5336,-87 5336,-57 5226,-57"/>
<text text-anchor="start" x="5234" y="-75" font-family="Helvetica,sans-Serif" font-size="10.00">source/portable/GCC</text>
<text text-anchor="middle" x="5281" y="-64" font-family="Helvetica,sans-Serif" font-size="10.00">/NiosII/port.c</text>
</a>
</g>
</g>
<!-- Node4&#45;&gt;Node42 -->
<g id="edge43" class="edge"><title>Node4&#45;&gt;Node42</title>
<path fill="none" stroke="midnightblue" d="M3266.24,-124.036C3713.94,-90.5112 4789.76,-141.395 5217,-88 5219.94,-87.632 5222.95,-87.1841 5225.98,-86.6762"/>
<polygon fill="midnightblue" stroke="midnightblue" points="3265.81,-120.559 3256.11,-124.818 3266.35,-127.538 3265.81,-120.559"/>
</g>
<!-- Node43 -->
<g id="node43" class="node"><title>Node43</title>
<g id="a_node43"><a xlink:href="_g_c_c_2_p_p_c405___xilinx_2port_8c.html" target="_top" xlink:title="source/portable/GCC\l/PPC405_Xilinx/port.c">
<polygon fill="white" stroke="black" points="5354,-57 5354,-87 5468,-87 5468,-57 5354,-57"/>
<text text-anchor="start" x="5362" y="-75" font-family="Helvetica,sans-Serif" font-size="10.00">source/portable/GCC</text>
<text text-anchor="middle" x="5411" y="-64" font-family="Helvetica,sans-Serif" font-size="10.00">/PPC405_Xilinx/port.c</text>
</a>
</g>
</g>
<!-- Node4&#45;&gt;Node43 -->
<g id="edge44" class="edge"><title>Node4&#45;&gt;Node43</title>
<path fill="none" stroke="midnightblue" d="M3266.19,-124.04C3742.26,-88.5282 4889.3,-143.128 5345,-88 5347.92,-87.6472 5350.89,-87.2202 5353.89,-86.737"/>
<polygon fill="midnightblue" stroke="midnightblue" points="3265.81,-120.559 3256.11,-124.814 3266.35,-127.538 3265.81,-120.559"/>
</g>
<!-- Node44 -->
<g id="node44" class="node"><title>Node44</title>
<g id="a_node44"><a xlink:href="_g_c_c_2_p_p_c440___xilinx_2port_8c.html" target="_top" xlink:title="source/portable/GCC\l/PPC440_Xilinx/port.c">
<polygon fill="white" stroke="black" points="5486,-57 5486,-87 5600,-87 5600,-57 5486,-57"/>
<text text-anchor="start" x="5494" y="-75" font-family="Helvetica,sans-Serif" font-size="10.00">source/portable/GCC</text>
<text text-anchor="middle" x="5543" y="-64" font-family="Helvetica,sans-Serif" font-size="10.00">/PPC440_Xilinx/port.c</text>
</a>
</g>
</g>
<!-- Node4&#45;&gt;Node44 -->
<g id="edge45" class="edge"><title>Node4&#45;&gt;Node44</title>
<path fill="none" stroke="midnightblue" d="M3266.45,-124.022C3771.96,-86.5265 4992.24,-146.39 5477,-88 5479.92,-87.6487 5482.89,-87.223 5485.89,-86.7407"/>
<polygon fill="midnightblue" stroke="midnightblue" points="3265.82,-120.56 3256.11,-124.81 3266.35,-127.54 3265.82,-120.56"/>
</g>
<!-- Node45 -->
<g id="node45" class="node"><title>Node45</title>
<g id="a_node45"><a xlink:href="_g_c_c_2_r_l78_2port_8c.html" target="_top" xlink:title="source/portable/GCC\l/RL78/port.c">
<polygon fill="white" stroke="black" points="5618,-57 5618,-87 5728,-87 5728,-57 5618,-57"/>
<text text-anchor="start" x="5626" y="-75" font-family="Helvetica,sans-Serif" font-size="10.00">source/portable/GCC</text>
<text text-anchor="middle" x="5673" y="-64" font-family="Helvetica,sans-Serif" font-size="10.00">/RL78/port.c</text>
</a>
</g>
</g>
<!-- Node4&#45;&gt;Node45 -->
<g id="edge46" class="edge"><title>Node4&#45;&gt;Node45</title>
<path fill="none" stroke="midnightblue" d="M3266.26,-124.036C3800.95,-84.5096 5095.25,-151.401 5609,-88 5611.94,-87.6366 5614.95,-87.1923 5617.98,-86.6872"/>
<polygon fill="midnightblue" stroke="midnightblue" points="3265.82,-120.56 3256.11,-124.807 3266.35,-127.54 3265.82,-120.56"/>
</g>
<!-- Node46 -->
<g id="node46" class="node"><title>Node46</title>
<g id="a_node46"><a xlink:href="_g_c_c_2_r_x100_2port_8c.html" target="_top" xlink:title="source/portable/GCC\l/RX100/port.c">
<polygon fill="white" stroke="black" points="5746,-57 5746,-87 5856,-87 5856,-57 5746,-57"/>
<text text-anchor="start" x="5754" y="-75" font-family="Helvetica,sans-Serif" font-size="10.00">source/portable/GCC</text>
<text text-anchor="middle" x="5801" y="-64" font-family="Helvetica,sans-Serif" font-size="10.00">/RX100/port.c</text>
</a>
</g>
</g>
<!-- Node4&#45;&gt;Node46 -->
<g id="edge47" class="edge"><title>Node4&#45;&gt;Node46</title>
<path fill="none" stroke="midnightblue" d="M3266.39,-124.027C3829.56,-82.5553 5195.05,-154.663 5737,-88 5739.94,-87.6378 5742.95,-87.1944 5745.98,-86.69"/>
<polygon fill="midnightblue" stroke="midnightblue" points="3265.82,-120.561 3256.11,-124.804 3266.35,-127.541 3265.82,-120.561"/>
</g>
<!-- Node47 -->
<g id="node47" class="node"><title>Node47</title>
<g id="a_node47"><a xlink:href="_g_c_c_2_r_x600_2port_8c.html" target="_top" xlink:title="source/portable/GCC\l/RX600/port.c">
<polygon fill="white" stroke="black" points="5874,-57 5874,-87 5984,-87 5984,-57 5874,-57"/>
<text text-anchor="start" x="5882" y="-75" font-family="Helvetica,sans-Serif" font-size="10.00">source/portable/GCC</text>
<text text-anchor="middle" x="5929" y="-64" font-family="Helvetica,sans-Serif" font-size="10.00">/RX600/port.c</text>
</a>
</g>
</g>
<!-- Node4&#45;&gt;Node47 -->
<g id="edge48" class="edge"><title>Node4&#45;&gt;Node47</title>
<path fill="none" stroke="midnightblue" d="M3266.48,-124.021C3858.1,-80.5959 5294.82,-157.927 5865,-88 5867.95,-87.6388 5870.95,-87.1963 5873.98,-86.6926"/>
<polygon fill="midnightblue" stroke="midnightblue" points="3265.82,-120.561 3256.11,-124.802 3266.34,-127.541 3265.82,-120.561"/>
</g>
<!-- Node48 -->
<g id="node48" class="node"><title>Node48</title>
<g id="a_node48"><a xlink:href="_g_c_c_2_r_x600v2_2port_8c.html" target="_top" xlink:title="source/portable/GCC\l/RX600v2/port.c">
<polygon fill="white" stroke="black" points="6002,-57 6002,-87 6112,-87 6112,-57 6002,-57"/>
<text text-anchor="start" x="6010" y="-75" font-family="Helvetica,sans-Serif" font-size="10.00">source/portable/GCC</text>
<text text-anchor="middle" x="6057" y="-64" font-family="Helvetica,sans-Serif" font-size="10.00">/RX600v2/port.c</text>
</a>
</g>
</g>
<!-- Node4&#45;&gt;Node48 -->
<g id="edge49" class="edge"><title>Node4&#45;&gt;Node48</title>
<path fill="none" stroke="midnightblue" d="M3266.53,-124.018C3886.56,-78.6314 5394.59,-161.193 5993,-88 5995.95,-87.6398 5998.95,-87.198 6001.98,-86.6949"/>
<polygon fill="midnightblue" stroke="midnightblue" points="3265.82,-120.561 3256.11,-124.799 3266.34,-127.542 3265.82,-120.561"/>
</g>
<!-- Node4&#45;&gt;Node49 -->
<g id="edge50" class="edge"><title>Node4&#45;&gt;Node49</title>
<path fill="none" stroke="midnightblue" d="M3266.53,-124.018C3914.96,-76.6618 5494.34,-164.46 6121,-88 6123.95,-87.6406 6126.95,-87.1995 6129.98,-86.697"/>
<polygon fill="midnightblue" stroke="midnightblue" points="3265.82,-120.561 3256.11,-124.797 3266.34,-127.542 3265.82,-120.561"/>
</g>
<!-- Node6&#45;&gt;Node5 -->
<g id="edge7" class="edge"><title>Node6&#45;&gt;Node5</title>
<path fill="none" stroke="midnightblue" d="M196.678,-54.1977C188.419,-42.9356 177.888,-28.5743 171.292,-19.5806"/>
<polygon fill="midnightblue" stroke="midnightblue" points="193.96,-56.4092 202.696,-62.4035 199.605,-52.2696 193.96,-56.4092"/>
</g>
</g>
</svg>
