<?xml version="1.0" encoding="UTF-8" standalone="no"?>
<!DOCTYPE svg PUBLIC "-//W3C//DTD SVG 1.1//EN"
 "http://www.w3.org/Graphics/SVG/1.1/DTD/svg11.dtd">
<!-- Generated by graphviz version 2.30.1 (20130221.2233)
 -->
<!-- Title: uxListRemove Pages: 1 -->
<svg width="838pt" height="1484pt"
 viewBox="0.00 0.00 838.00 1484.00" xmlns="http://www.w3.org/2000/svg" xmlns:xlink="http://www.w3.org/1999/xlink">
<g id="graph0" class="graph" transform="scale(1 1) rotate(0) translate(4 1480)">
<title>uxListRemove</title>
<polygon fill="white" stroke="white" points="-4,5 -4,-1480 835,-1480 835,5 -4,5"/>
<!-- Node1 -->
<g id="node1" class="node"><title>Node1</title>
<polygon fill="#bfbfbf" stroke="black" points="0,-829.5 0,-848.5 80,-848.5 80,-829.5 0,-829.5"/>
<text text-anchor="middle" x="40" y="-836.5" font-family="Helvetica,sans-Serif" font-size="10.00">uxListRemove</text>
</g>
<!-- Node2 -->
<g id="node2" class="node"><title>Node2</title>
<g id="a_node2"><a xlink:href="tasks_8c.html#a903096c962a2bc907f4b902a7d42302a" target="_top" xlink:title="prvCheckTasksWaitingTermination">
<polygon fill="white" stroke="black" points="504,-1456.5 504,-1475.5 676,-1475.5 676,-1456.5 504,-1456.5"/>
<text text-anchor="middle" x="590" y="-1463.5" font-family="Helvetica,sans-Serif" font-size="10.00">prvCheckTasksWaitingTermination</text>
</a>
</g>
</g>
<!-- Node1&#45;&gt;Node2 -->
<g id="edge1" class="edge"><title>Node1&#45;&gt;Node2</title>
<path fill="none" stroke="midnightblue" d="M42.7436,-859.082C49.4392,-932.991 75.188,-1189.2 116,-1259 168.909,-1349.49 203.224,-1364.22 298,-1409 363.05,-1439.73 443.798,-1453.9 503.72,-1460.43"/>
<polygon fill="midnightblue" stroke="midnightblue" points="46.2051,-858.492 41.8332,-848.841 39.2326,-859.112 46.2051,-858.492"/>
</g>
<!-- Node4 -->
<g id="node4" class="node"><title>Node4</title>
<g id="a_node4"><a xlink:href="tasks_8c.html#adc9eb47ceecf7dd7ee325bebff9eafc5" target="_top" xlink:title="vTaskPlaceOnEventList">
<polygon fill="white" stroke="black" points="321.5,-266.5 321.5,-285.5 444.5,-285.5 444.5,-266.5 321.5,-266.5"/>
<text text-anchor="middle" x="383" y="-273.5" font-family="Helvetica,sans-Serif" font-size="10.00">vTaskPlaceOnEventList</text>
</a>
</g>
</g>
<!-- Node1&#45;&gt;Node4 -->
<g id="edge3" class="edge"><title>Node1&#45;&gt;Node4</title>
<path fill="none" stroke="midnightblue" d="M41.8729,-818.838C45.6499,-739.913 62.8682,-452.802 116,-382 164.636,-317.189 259.177,-291.937 321.447,-282.143"/>
<polygon fill="midnightblue" stroke="midnightblue" points="38.3555,-819.14 41.3945,-829.289 45.3482,-819.46 38.3555,-819.14"/>
</g>
<!-- Node7 -->
<g id="node7" class="node"><title>Node7</title>
<g id="a_node7"><a xlink:href="tasks_8c.html#a0896d9cd10d789ef8dbb95c4959c3ce5" target="_top" xlink:title="vTaskPlaceOnUnorderedEventList">
<polygon fill="white" stroke="black" points="298,-1380.5 298,-1399.5 468,-1399.5 468,-1380.5 298,-1380.5"/>
<text text-anchor="middle" x="383" y="-1387.5" font-family="Helvetica,sans-Serif" font-size="10.00">vTaskPlaceOnUnorderedEventList</text>
</a>
</g>
</g>
<!-- Node1&#45;&gt;Node7 -->
<g id="edge6" class="edge"><title>Node1&#45;&gt;Node7</title>
<path fill="none" stroke="midnightblue" d="M41.2439,-858.869C42.7505,-913.254 52.7114,-1067.57 116,-1174 178.485,-1279.07 312.058,-1354.64 362.325,-1380.37"/>
<polygon fill="midnightblue" stroke="midnightblue" points="44.737,-858.496 41.031,-848.57 37.7385,-858.64 44.737,-858.496"/>
</g>
<!-- Node10 -->
<g id="node10" class="node"><title>Node10</title>
<g id="a_node10"><a xlink:href="tasks_8c.html#a54f31e9aef0eb7b87e48c7d68ecc84c1" target="_top" xlink:title="xTaskIncrementTick">
<polygon fill="white" stroke="black" points="136,-829.5 136,-848.5 242,-848.5 242,-829.5 136,-829.5"/>
<text text-anchor="middle" x="189" y="-836.5" font-family="Helvetica,sans-Serif" font-size="10.00">xTaskIncrementTick</text>
</a>
</g>
</g>
<!-- Node1&#45;&gt;Node10 -->
<g id="edge9" class="edge"><title>Node1&#45;&gt;Node10</title>
<path fill="none" stroke="midnightblue" d="M90.3549,-839C104.966,-839 121.009,-839 135.794,-839"/>
<polygon fill="midnightblue" stroke="midnightblue" points="90.0074,-835.5 80.0074,-839 90.0073,-842.5 90.0074,-835.5"/>
</g>
<!-- Node44 -->
<g id="node44" class="node"><title>Node44</title>
<g id="a_node44"><a xlink:href="tasks_8c.html#a6d21c9054b62d8bc1bfb2724e11578d9" target="_top" xlink:title="xTaskRemoveFromEventList">
<polygon fill="white" stroke="black" points="116.5,-133.5 116.5,-152.5 261.5,-152.5 261.5,-133.5 116.5,-133.5"/>
<text text-anchor="middle" x="189" y="-140.5" font-family="Helvetica,sans-Serif" font-size="10.00">xTaskRemoveFromEventList</text>
</a>
</g>
</g>
<!-- Node1&#45;&gt;Node44 -->
<g id="edge51" class="edge"><title>Node1&#45;&gt;Node44</title>
<path fill="none" stroke="midnightblue" d="M40.7545,-818.839C40.4295,-743.537 44.5815,-472.463 116,-265 131.61,-219.653 165.215,-172.603 180.343,-152.756"/>
<polygon fill="midnightblue" stroke="midnightblue" points="37.2573,-819.231 40.8355,-829.204 44.2571,-819.177 37.2573,-819.231"/>
</g>
<!-- Node50 -->
<g id="node50" class="node"><title>Node50</title>
<g id="a_node50"><a xlink:href="tasks_8c.html#aa3405f598b765ea7519d6136e2073e46" target="_top" xlink:title="xTaskRemoveFromUnordered\lEventList">
<polygon fill="white" stroke="black" points="307.5,-305 307.5,-335 458.5,-335 458.5,-305 307.5,-305"/>
<text text-anchor="start" x="315.5" y="-323" font-family="Helvetica,sans-Serif" font-size="10.00">xTaskRemoveFromUnordered</text>
<text text-anchor="middle" x="383" y="-312" font-family="Helvetica,sans-Serif" font-size="10.00">EventList</text>
</a>
</g>
</g>
<!-- Node1&#45;&gt;Node50 -->
<g id="edge61" class="edge"><title>Node1&#45;&gt;Node50</title>
<path fill="none" stroke="midnightblue" d="M45.2641,-819.72C62.5659,-746.082 134.553,-479.948 298,-345 302.693,-341.125 307.971,-337.851 313.535,-335.084"/>
<polygon fill="midnightblue" stroke="midnightblue" points="41.8463,-818.966 43.027,-829.495 48.6698,-820.528 41.8463,-818.966"/>
</g>
<!-- Node36 -->
<g id="node36" class="node"><title>Node36</title>
<g id="a_node36"><a xlink:href="tasks_8c.html#adf830ea0f150fcdfdaa944667137f080" target="_top" xlink:title="xTaskResumeAll">
<polygon fill="white" stroke="black" points="337,-1304.5 337,-1323.5 429,-1323.5 429,-1304.5 337,-1304.5"/>
<text text-anchor="middle" x="383" y="-1311.5" font-family="Helvetica,sans-Serif" font-size="10.00">xTaskResumeAll</text>
</a>
</g>
</g>
<!-- Node1&#45;&gt;Node36 -->
<g id="edge64" class="edge"><title>Node1&#45;&gt;Node36</title>
<path fill="none" stroke="midnightblue" d="M45.8432,-858.49C64.5669,-929.555 139.214,-1176.77 298,-1295 309.153,-1303.3 323.289,-1308.08 336.768,-1310.8"/>
<polygon fill="midnightblue" stroke="midnightblue" points="49.1919,-857.458 43.314,-848.643 42.412,-859.2 49.1919,-857.458"/>
</g>
<!-- Node3 -->
<g id="node3" class="node"><title>Node3</title>
<g id="a_node3"><a xlink:href="tasks_8c.html#a36c7cc58985d41c2cb1b263563dbbaa1" target="_top" xlink:title="portTASK_FUNCTION">
<polygon fill="white" stroke="black" points="712.5,-1399.5 712.5,-1418.5 829.5,-1418.5 829.5,-1399.5 712.5,-1399.5"/>
<text text-anchor="middle" x="771" y="-1406.5" font-family="Helvetica,sans-Serif" font-size="10.00">portTASK_FUNCTION</text>
</a>
</g>
</g>
<!-- Node2&#45;&gt;Node3 -->
<g id="edge2" class="edge"><title>Node2&#45;&gt;Node3</title>
<path fill="none" stroke="midnightblue" d="M636.682,-1453.67C649.455,-1450.07 663.311,-1446.01 676,-1442 699.251,-1434.64 725.406,-1425.38 744.212,-1418.54"/>
<polygon fill="midnightblue" stroke="midnightblue" points="635.404,-1450.39 626.714,-1456.45 637.287,-1457.13 635.404,-1450.39"/>
</g>
<!-- Node5 -->
<g id="node5" class="node"><title>Node5</title>
<g id="a_node5"><a xlink:href="queue_8c.html#acb67c81366c00896b21cd826e07d885d" target="_top" xlink:title="xQueueGenericSend">
<polygon fill="white" stroke="red" points="535,-247.5 535,-266.5 645,-266.5 645,-247.5 535,-247.5"/>
<text text-anchor="middle" x="590" y="-254.5" font-family="Helvetica,sans-Serif" font-size="10.00">xQueueGenericSend</text>
</a>
</g>
</g>
<!-- Node4&#45;&gt;Node5 -->
<g id="edge4" class="edge"><title>Node4&#45;&gt;Node5</title>
<path fill="none" stroke="midnightblue" d="M454.917,-269.427C481.086,-267.002 510.299,-264.294 534.76,-262.027"/>
<polygon fill="midnightblue" stroke="midnightblue" points="454.309,-265.968 444.675,-270.376 454.955,-272.939 454.309,-265.968"/>
</g>
<!-- Node6 -->
<g id="node6" class="node"><title>Node6</title>
<g id="a_node6"><a xlink:href="queue_8c.html#ace632b55c3955bacae20978e261129a6" target="_top" xlink:title="xQueueGenericReceive">
<polygon fill="white" stroke="red" points="528.5,-152.5 528.5,-171.5 651.5,-171.5 651.5,-152.5 528.5,-152.5"/>
<text text-anchor="middle" x="590" y="-159.5" font-family="Helvetica,sans-Serif" font-size="10.00">xQueueGenericReceive</text>
</a>
</g>
</g>
<!-- Node4&#45;&gt;Node6 -->
<g id="edge5" class="edge"><title>Node4&#45;&gt;Node6</title>
<path fill="none" stroke="midnightblue" d="M410.04,-261.519C452.576,-237.865 535.82,-191.573 571.779,-171.577"/>
<polygon fill="midnightblue" stroke="midnightblue" points="408.164,-258.558 401.126,-266.477 411.566,-264.675 408.164,-258.558"/>
</g>
<!-- Node8 -->
<g id="node8" class="node"><title>Node8</title>
<g id="a_node8"><a xlink:href="event__groups_8h.html#a869511456b86426f52e2eec898bff341" target="_top" xlink:title="xEventGroupSync">
<polygon fill="white" stroke="black" points="722.5,-1152.5 722.5,-1171.5 819.5,-1171.5 819.5,-1152.5 722.5,-1152.5"/>
<text text-anchor="middle" x="771" y="-1159.5" font-family="Helvetica,sans-Serif" font-size="10.00">xEventGroupSync</text>
</a>
</g>
</g>
<!-- Node7&#45;&gt;Node8 -->
<g id="edge7" class="edge"><title>Node7&#45;&gt;Node8</title>
<path fill="none" stroke="midnightblue" d="M415.013,-1403.53C472.241,-1426.19 595.903,-1464.22 676,-1409 759.295,-1351.58 768.839,-1209.83 769.884,-1171.62"/>
<polygon fill="midnightblue" stroke="midnightblue" points="416.029,-1400.16 405.447,-1399.63 413.39,-1406.64 416.029,-1400.16"/>
</g>
<!-- Node9 -->
<g id="node9" class="node"><title>Node9</title>
<g id="a_node9"><a xlink:href="event__groups_8h.html#aab9d5b405bc57b7624dcabe9a9a503db" target="_top" xlink:title="xEventGroupWaitBits">
<polygon fill="white" stroke="black" points="534,-1380.5 534,-1399.5 646,-1399.5 646,-1380.5 534,-1380.5"/>
<text text-anchor="middle" x="590" y="-1387.5" font-family="Helvetica,sans-Serif" font-size="10.00">xEventGroupWaitBits</text>
</a>
</g>
</g>
<!-- Node7&#45;&gt;Node9 -->
<g id="edge8" class="edge"><title>Node7&#45;&gt;Node9</title>
<path fill="none" stroke="midnightblue" d="M478.429,-1390C497.368,-1390 516.677,-1390 533.748,-1390"/>
<polygon fill="midnightblue" stroke="midnightblue" points="478.269,-1386.5 468.269,-1390 478.269,-1393.5 478.269,-1386.5"/>
</g>
<!-- Node11 -->
<g id="node11" class="node"><title>Node11</title>
<g id="a_node11"><a xlink:href="_b_c_c_216_bit_d_o_s_2_flsh186_2port_8c.html#acf9df4f9ff9bc642609898d1a7503a53" target="_top" xlink:title="prvNonPreemptiveTick">
<polygon fill="white" stroke="red" points="324,-848.5 324,-867.5 442,-867.5 442,-848.5 324,-848.5"/>
<text text-anchor="middle" x="383" y="-855.5" font-family="Helvetica,sans-Serif" font-size="10.00">prvNonPreemptiveTick</text>
</a>
</g>
</g>
<!-- Node10&#45;&gt;Node11 -->
<g id="edge10" class="edge"><title>Node10&#45;&gt;Node11</title>
<path fill="none" stroke="midnightblue" d="M252.195,-845.155C275.166,-847.428 301.098,-849.994 323.711,-852.232"/>
<polygon fill="midnightblue" stroke="midnightblue" points="252.507,-841.669 242.211,-844.167 251.818,-848.635 252.507,-841.669"/>
</g>
<!-- Node12 -->
<g id="node12" class="node"><title>Node12</title>
<g id="a_node12"><a xlink:href="_c_c_s_2_a_r_m___c_m4_f_2port_8c.html#a78100b2d36913d0b45565be8975e5de8" target="_top" xlink:title="xPortSysTickHandler">
<polygon fill="white" stroke="black" points="328,-810.5 328,-829.5 438,-829.5 438,-810.5 328,-810.5"/>
<text text-anchor="middle" x="383" y="-817.5" font-family="Helvetica,sans-Serif" font-size="10.00">xPortSysTickHandler</text>
</a>
</g>
</g>
<!-- Node10&#45;&gt;Node12 -->
<g id="edge11" class="edge"><title>Node10&#45;&gt;Node12</title>
<path fill="none" stroke="midnightblue" d="M252.408,-832.824C276.722,-830.418 304.325,-827.687 327.79,-825.365"/>
<polygon fill="midnightblue" stroke="midnightblue" points="251.818,-829.365 242.211,-833.833 252.507,-836.331 251.818,-829.365"/>
</g>
<!-- Node13 -->
<g id="node13" class="node"><title>Node13</title>
<g id="a_node13"><a xlink:href="_c_c_s_2_a_r_m___cortex-_r4_2port_8c.html#aa3d36248da898dd1d2ae1784c76bdb9c" target="_top" xlink:title="vPortNonPreemptiveTick">
<polygon fill="white" stroke="red" points="319.5,-772.5 319.5,-791.5 446.5,-791.5 446.5,-772.5 319.5,-772.5"/>
<text text-anchor="middle" x="383" y="-779.5" font-family="Helvetica,sans-Serif" font-size="10.00">vPortNonPreemptiveTick</text>
</a>
</g>
</g>
<!-- Node10&#45;&gt;Node13 -->
<g id="edge12" class="edge"><title>Node10&#45;&gt;Node13</title>
<path fill="none" stroke="midnightblue" d="M224.099,-825.861C245.192,-818.02 272.936,-808.218 298,-801 309.925,-797.566 322.948,-794.361 335.102,-791.598"/>
<polygon fill="midnightblue" stroke="midnightblue" points="222.748,-822.63 214.616,-829.421 225.208,-829.183 222.748,-822.63"/>
</g>
<!-- Node14 -->
<g id="node14" class="node"><title>Node14</title>
<g id="a_node14"><a xlink:href="_g_c_c_2_p_p_c440___xilinx_2port_8c.html#a546d822c1cff528af19326d0fb49e7de" target="_top" xlink:title="vPortTickISR">
<polygon fill="white" stroke="red" points="345.5,-734.5 345.5,-753.5 420.5,-753.5 420.5,-734.5 345.5,-734.5"/>
<text text-anchor="middle" x="383" y="-741.5" font-family="Helvetica,sans-Serif" font-size="10.00">vPortTickISR</text>
</a>
</g>
</g>
<!-- Node10&#45;&gt;Node14 -->
<g id="edge13" class="edge"><title>Node10&#45;&gt;Node14</title>
<path fill="none" stroke="midnightblue" d="M208.044,-822.91C228.455,-805.562 263.375,-778.372 298,-763 312.895,-756.387 330.335,-751.961 345.451,-749.058"/>
<polygon fill="midnightblue" stroke="midnightblue" points="205.744,-820.273 200.473,-829.464 210.325,-825.566 205.744,-820.273"/>
</g>
<!-- Node15 -->
<g id="node15" class="node"><title>Node15</title>
<g id="a_node15"><a xlink:href="_code_warrior_2_h_c_s12_2port_8c.html#ae536a48b8cb683c5474b383aa811fd3e" target="_top" xlink:title="vPortTickInterrupt">
<polygon fill="white" stroke="black" points="335.5,-696.5 335.5,-715.5 430.5,-715.5 430.5,-696.5 335.5,-696.5"/>
<text text-anchor="middle" x="383" y="-703.5" font-family="Helvetica,sans-Serif" font-size="10.00">vPortTickInterrupt</text>
</a>
</g>
</g>
<!-- Node10&#45;&gt;Node15 -->
<g id="edge14" class="edge"><title>Node10&#45;&gt;Node15</title>
<path fill="none" stroke="midnightblue" d="M201.919,-820.822C219.678,-795.265 255.584,-749.141 298,-725 309.305,-718.566 322.628,-714.31 335.291,-711.496"/>
<polygon fill="midnightblue" stroke="midnightblue" points="198.934,-818.988 196.218,-829.229 204.727,-822.916 198.934,-818.988"/>
</g>
<!-- Node16 -->
<g id="node16" class="node"><title>Node16</title>
<g id="a_node16"><a xlink:href="_r_v_d_s_2_a_r_m___c_a9_2portmacro_8h.html#a3853f6eea7b62957ada2e0feba299037" target="_top" xlink:title="FreeRTOS_Tick_Handler">
<polygon fill="white" stroke="black" points="318.5,-658.5 318.5,-677.5 447.5,-677.5 447.5,-658.5 318.5,-658.5"/>
<text text-anchor="middle" x="383" y="-665.5" font-family="Helvetica,sans-Serif" font-size="10.00">FreeRTOS_Tick_Handler</text>
</a>
</g>
</g>
<!-- Node10&#45;&gt;Node16 -->
<g id="edge15" class="edge"><title>Node10&#45;&gt;Node16</title>
<path fill="none" stroke="midnightblue" d="M197.954,-819.974C212.633,-787.317 247.195,-720.851 298,-687 304.221,-682.855 311.217,-679.604 318.447,-677.056"/>
<polygon fill="midnightblue" stroke="midnightblue" points="194.674,-818.739 193.891,-829.305 201.092,-821.533 194.674,-818.739"/>
</g>
<!-- Node17 -->
<g id="node17" class="node"><title>Node17</title>
<g id="a_node17"><a xlink:href="_i_a_r_2_a_t_mega323_2port_8c.html#a130213f2e8a8331aaa6dc715f41b6358" target="_top" xlink:title="vPortYieldFromTick">
<polygon fill="white" stroke="black" points="331,-620.5 331,-639.5 435,-639.5 435,-620.5 331,-620.5"/>
<text text-anchor="middle" x="383" y="-627.5" font-family="Helvetica,sans-Serif" font-size="10.00">vPortYieldFromTick</text>
</a>
</g>
</g>
<!-- Node10&#45;&gt;Node17 -->
<g id="edge16" class="edge"><title>Node10&#45;&gt;Node17</title>
<path fill="none" stroke="midnightblue" d="M195.317,-819.4C206.955,-780.418 238.516,-693.121 298,-649 307.487,-641.963 319.118,-637.46 330.667,-634.597"/>
<polygon fill="midnightblue" stroke="midnightblue" points="191.887,-818.665 192.501,-829.242 198.617,-820.591 191.887,-818.665"/>
</g>
<!-- Node18 -->
<g id="node18" class="node"><title>Node18</title>
<g id="a_node18"><a xlink:href="_g_c_c_2_a_t_mega323_2port_8c.html#aab4625a488c36c904d1a725a531f3157" target="_top" xlink:title="SIG_OUTPUT_COMPARE1A">
<polygon fill="white" stroke="black" points="308.5,-582.5 308.5,-601.5 457.5,-601.5 457.5,-582.5 308.5,-582.5"/>
<text text-anchor="middle" x="383" y="-589.5" font-family="Helvetica,sans-Serif" font-size="10.00">SIG_OUTPUT_COMPARE1A</text>
</a>
</g>
</g>
<!-- Node10&#45;&gt;Node18 -->
<g id="edge17" class="edge"><title>Node10&#45;&gt;Node18</title>
<path fill="none" stroke="midnightblue" d="M193.358,-819.269C202.023,-774.711 229.449,-665.919 298,-611 302.784,-607.167 308.191,-604.075 313.897,-601.584"/>
<polygon fill="midnightblue" stroke="midnightblue" points="189.867,-818.899 191.507,-829.367 196.753,-820.162 189.867,-818.899"/>
</g>
<!-- Node19 -->
<g id="node19" class="node"><title>Node19</title>
<g id="a_node19"><a xlink:href="_g_c_c_2_a_v_r32___u_c3_2port_8c.html#ae17f84edd67d6e218b43620ca2954e3c" target="_top" xlink:title="__attribute__">
<polygon fill="white" stroke="black" points="345.5,-544.5 345.5,-563.5 420.5,-563.5 420.5,-544.5 345.5,-544.5"/>
<text text-anchor="middle" x="383" y="-551.5" font-family="Helvetica,sans-Serif" font-size="10.00">__attribute__</text>
</a>
</g>
</g>
<!-- Node10&#45;&gt;Node19 -->
<g id="edge18" class="edge"><title>Node10&#45;&gt;Node19</title>
<path fill="none" stroke="midnightblue" d="M191.874,-819.429C197.701,-769.954 220.09,-639.128 298,-573 310.995,-561.97 329.074,-556.996 345.132,-554.871"/>
<polygon fill="midnightblue" stroke="midnightblue" points="188.386,-819.123 190.795,-829.44 195.346,-819.873 188.386,-819.123"/>
</g>
<!-- Node20 -->
<g id="node20" class="node"><title>Node20</title>
<g id="a_node20"><a xlink:href="_g_c_c_2_c_o_r_t_u_s___a_p_s3_2port_8c.html#aa0ae742a01361a946aea2acb64fb924b" target="_top" xlink:title="prvProcessTick">
<polygon fill="white" stroke="red" points="340.5,-506.5 340.5,-525.5 425.5,-525.5 425.5,-506.5 340.5,-506.5"/>
<text text-anchor="middle" x="383" y="-513.5" font-family="Helvetica,sans-Serif" font-size="10.00">prvProcessTick</text>
</a>
</g>
</g>
<!-- Node10&#45;&gt;Node20 -->
<g id="edge19" class="edge"><title>Node10&#45;&gt;Node20</title>
<path fill="none" stroke="midnightblue" d="M190.769,-819.252C194,-764.969 210.793,-612.408 298,-535 309.517,-524.777 325.365,-519.704 340.194,-517.293"/>
<polygon fill="midnightblue" stroke="midnightblue" points="187.271,-819.118 190.265,-829.281 194.262,-819.469 187.271,-819.118"/>
</g>
<!-- Node21 -->
<g id="node21" class="node"><title>Node21</title>
<g id="a_node21"><a xlink:href="_g_c_c_2_h8_s2329_2port_8c.html#a502142367426395ab5c401b99204b437" target="_top" xlink:title="vTickISR">
<polygon fill="white" stroke="red" points="355,-468.5 355,-487.5 411,-487.5 411,-468.5 355,-468.5"/>
<text text-anchor="middle" x="383" y="-475.5" font-family="Helvetica,sans-Serif" font-size="10.00">vTickISR</text>
</a>
</g>
</g>
<!-- Node10&#45;&gt;Node21 -->
<g id="edge20" class="edge"><title>Node10&#45;&gt;Node21</title>
<path fill="none" stroke="midnightblue" d="M195.044,-819.125C212.867,-749.541 273.148,-519.86 298,-497 313.296,-482.93 336.746,-478.538 354.986,-477.462"/>
<polygon fill="midnightblue" stroke="midnightblue" points="191.555,-818.64 192.475,-829.195 198.338,-820.37 191.555,-818.64"/>
</g>
<!-- Node22 -->
<g id="node22" class="node"><title>Node22</title>
<g id="a_node22"><a xlink:href="_g_c_c_2_m_s_p430_f449_2port_8c.html#ae0992854bdba99f7b163894433c32aef" target="_top" xlink:title="interrupt">
<polygon fill="white" stroke="black" points="356.5,-430.5 356.5,-449.5 409.5,-449.5 409.5,-430.5 356.5,-430.5"/>
<text text-anchor="middle" x="383" y="-437.5" font-family="Helvetica,sans-Serif" font-size="10.00">interrupt</text>
</a>
</g>
</g>
<!-- Node10&#45;&gt;Node22 -->
<g id="edge21" class="edge"><title>Node10&#45;&gt;Node22</title>
<path fill="none" stroke="midnightblue" d="M194.949,-819.517C214.278,-743.711 284.294,-471.979 298,-459 313.525,-444.299 337.916,-440.093 356.423,-439.244"/>
<polygon fill="midnightblue" stroke="midnightblue" points="191.552,-818.671 192.477,-829.226 198.336,-820.398 191.552,-818.671"/>
</g>
<!-- Node23 -->
<g id="node23" class="node"><title>Node23</title>
<g id="a_node23"><a xlink:href="_g_c_c_2_nios_i_i_2port_8c.html#aba3499e1ee02f7effadcdda992d7c17f" target="_top" xlink:title="vPortSysTickHandler">
<polygon fill="white" stroke="red" points="328,-392.5 328,-411.5 438,-411.5 438,-392.5 328,-392.5"/>
<text text-anchor="middle" x="383" y="-399.5" font-family="Helvetica,sans-Serif" font-size="10.00">vPortSysTickHandler</text>
</a>
</g>
</g>
<!-- Node10&#45;&gt;Node23 -->
<g id="edge22" class="edge"><title>Node10&#45;&gt;Node23</title>
<path fill="none" stroke="midnightblue" d="M195.313,-819.113C207.353,-773.978 237.565,-660.309 262,-565 278.383,-501.097 250.83,-467.119 298,-421 306.125,-413.056 316.829,-408.154 327.865,-405.188"/>
<polygon fill="midnightblue" stroke="midnightblue" points="191.856,-818.494 192.658,-829.058 198.619,-820.299 191.856,-818.494"/>
</g>
<!-- Node24 -->
<g id="node24" class="node"><title>Node24</title>
<g id="a_node24"><a xlink:href="_g_c_c_2_tri_core__1782_2port_8c.html#acc47dfc4b7b63a5dc427be518fd85d99" target="_top" xlink:title="prvSystemTickHandler">
<polygon fill="white" stroke="black" points="324.5,-354.5 324.5,-373.5 441.5,-373.5 441.5,-354.5 324.5,-354.5"/>
<text text-anchor="middle" x="383" y="-361.5" font-family="Helvetica,sans-Serif" font-size="10.00">prvSystemTickHandler</text>
</a>
</g>
</g>
<!-- Node10&#45;&gt;Node24 -->
<g id="edge23" class="edge"><title>Node10&#45;&gt;Node24</title>
<path fill="none" stroke="midnightblue" d="M195.573,-819.481C208.257,-774.711 239.894,-661.09 262,-565 280.487,-484.643 240.492,-442.092 298,-383 305.091,-375.714 314.342,-370.958 324.104,-367.902"/>
<polygon fill="midnightblue" stroke="midnightblue" points="192.206,-818.526 192.838,-829.102 198.939,-820.44 192.206,-818.526"/>
</g>
<!-- Node25 -->
<g id="node25" class="node"><title>Node25</title>
<g id="a_node25"><a xlink:href="_i_a_r_2_a_v_r32___u_c3_2port_8c.html#a4d7be48967d0bbfac84a6d33223702a2" target="_top" xlink:title="vTick">
<polygon fill="white" stroke="red" points="363,-1266.5 363,-1285.5 403,-1285.5 403,-1266.5 363,-1266.5"/>
<text text-anchor="middle" x="383" y="-1273.5" font-family="Helvetica,sans-Serif" font-size="10.00">vTick</text>
</a>
</g>
</g>
<!-- Node10&#45;&gt;Node25 -->
<g id="edge24" class="edge"><title>Node10&#45;&gt;Node25</title>
<path fill="none" stroke="midnightblue" d="M196.676,-858.117C210.315,-897.665 241.793,-991.502 262,-1072 282.395,-1153.24 239.672,-1196.88 298,-1257 314.762,-1274.28 343.665,-1277.34 362.807,-1277.23"/>
<polygon fill="midnightblue" stroke="midnightblue" points="199.98,-856.962 193.397,-848.661 193.366,-859.255 199.98,-856.962"/>
</g>
<!-- Node26 -->
<g id="node26" class="node"><title>Node26</title>
<g id="a_node26"><a xlink:href="_i_a_r_2_r_x100_2port_8c.html#a2a8e0f3c630d48b9b0a26ec631c6760a" target="_top" xlink:title="prvTickISR">
<polygon fill="white" stroke="black" points="350.5,-1228.5 350.5,-1247.5 415.5,-1247.5 415.5,-1228.5 350.5,-1228.5"/>
<text text-anchor="middle" x="383" y="-1235.5" font-family="Helvetica,sans-Serif" font-size="10.00">prvTickISR</text>
</a>
</g>
</g>
<!-- Node10&#45;&gt;Node26 -->
<g id="edge25" class="edge"><title>Node10&#45;&gt;Node26</title>
<path fill="none" stroke="midnightblue" d="M196.443,-858.456C209.543,-898.305 239.915,-992.181 262,-1072 279.937,-1136.83 250.018,-1171.86 298,-1219 311.652,-1232.41 332.652,-1237.16 350.239,-1238.56"/>
<polygon fill="midnightblue" stroke="midnightblue" points="199.683,-857.106 193.227,-848.705 193.035,-859.299 199.683,-857.106"/>
</g>
<!-- Node27 -->
<g id="node27" class="node"><title>Node27</title>
<g id="a_node27"><a xlink:href="_i_a_r_2_s_t_r71x_2port_8c.html#afa0af0d6450abd50943523742eb8090b" target="_top" xlink:title="vPortPreemptiveTick">
<polygon fill="white" stroke="red" points="328.5,-1190.5 328.5,-1209.5 437.5,-1209.5 437.5,-1190.5 328.5,-1190.5"/>
<text text-anchor="middle" x="383" y="-1197.5" font-family="Helvetica,sans-Serif" font-size="10.00">vPortPreemptiveTick</text>
</a>
</g>
</g>
<!-- Node10&#45;&gt;Node27 -->
<g id="edge26" class="edge"><title>Node10&#45;&gt;Node27</title>
<path fill="none" stroke="midnightblue" d="M195.99,-858.413C218.218,-930.404 294.867,-1178.12 298,-1181 306.363,-1188.69 317.164,-1193.49 328.218,-1196.44"/>
<polygon fill="midnightblue" stroke="midnightblue" points="199.308,-857.296 193.014,-848.773 192.619,-859.36 199.308,-857.296"/>
</g>
<!-- Node28 -->
<g id="node28" class="node"><title>Node28</title>
<g id="a_node28"><a xlink:href="_i_a_r_2_s_t_r91x_2port_8c.html#a38ad4725462bdc5e86c4ead4f04b9fc2" target="_top" xlink:title="TIM2_IRQHandler">
<polygon fill="white" stroke="black" points="334,-1152.5 334,-1171.5 432,-1171.5 432,-1152.5 334,-1152.5"/>
<text text-anchor="middle" x="383" y="-1159.5" font-family="Helvetica,sans-Serif" font-size="10.00">TIM2_IRQHandler</text>
</a>
</g>
</g>
<!-- Node10&#45;&gt;Node28 -->
<g id="edge27" class="edge"><title>Node10&#45;&gt;Node28</title>
<path fill="none" stroke="midnightblue" d="M195.675,-858.305C214.579,-922.066 275.479,-1123.01 298,-1143 307.84,-1151.73 320.841,-1156.71 333.667,-1159.48"/>
<polygon fill="midnightblue" stroke="midnightblue" points="199.021,-857.277 192.832,-848.678 192.308,-859.26 199.021,-857.277"/>
</g>
<!-- Node29 -->
<g id="node29" class="node"><title>Node29</title>
<g id="a_node29"><a xlink:href="_m_p_l_a_b_2_p_i_c32_m_e_c14xx_2port_8c.html#aa9ac2b26adfad38266878b63174ea70a" target="_top" xlink:title="vPortIncrementTick">
<polygon fill="white" stroke="black" points="331.5,-1114.5 331.5,-1133.5 434.5,-1133.5 434.5,-1114.5 331.5,-1114.5"/>
<text text-anchor="middle" x="383" y="-1121.5" font-family="Helvetica,sans-Serif" font-size="10.00">vPortIncrementTick</text>
</a>
</g>
</g>
<!-- Node10&#45;&gt;Node29 -->
<g id="edge28" class="edge"><title>Node10&#45;&gt;Node29</title>
<path fill="none" stroke="midnightblue" d="M191.874,-858.571C197.701,-908.046 220.09,-1038.87 298,-1105 307.347,-1112.93 319.325,-1117.73 331.289,-1120.6"/>
<polygon fill="midnightblue" stroke="midnightblue" points="195.346,-858.127 190.795,-848.56 188.386,-858.877 195.346,-858.127"/>
</g>
<!-- Node30 -->
<g id="node30" class="node"><title>Node30</title>
<g id="a_node30"><a xlink:href="_m_s_v_c-_ming_w_2port_8c.html#adc28efa1df4fe75c8bb49108e6609377" target="_top" xlink:title="prvProcessTickInterrupt">
<polygon fill="white" stroke="red" points="322,-1076.5 322,-1095.5 444,-1095.5 444,-1076.5 322,-1076.5"/>
<text text-anchor="middle" x="383" y="-1083.5" font-family="Helvetica,sans-Serif" font-size="10.00">prvProcessTickInterrupt</text>
</a>
</g>
</g>
<!-- Node10&#45;&gt;Node30 -->
<g id="edge29" class="edge"><title>Node10&#45;&gt;Node30</title>
<path fill="none" stroke="midnightblue" d="M193.358,-858.731C202.023,-903.289 229.449,-1012.08 298,-1067 305.001,-1072.61 313.335,-1076.63 321.992,-1079.51"/>
<polygon fill="midnightblue" stroke="midnightblue" points="196.753,-857.838 191.507,-848.633 189.867,-859.101 196.753,-857.838"/>
</g>
<!-- Node31 -->
<g id="node31" class="node"><title>Node31</title>
<g id="a_node31"><a xlink:href="_r_v_d_s_2_a_r_m7___l_p_c21xx_2port_8c.html#ac642f8fce0e1256dd848a1e4ffd0c30c" target="_top" xlink:title="vNonPreemptiveTick">
<polygon fill="white" stroke="red" points="328.5,-1038.5 328.5,-1057.5 437.5,-1057.5 437.5,-1038.5 328.5,-1038.5"/>
<text text-anchor="middle" x="383" y="-1045.5" font-family="Helvetica,sans-Serif" font-size="10.00">vNonPreemptiveTick</text>
</a>
</g>
</g>
<!-- Node10&#45;&gt;Node31 -->
<g id="edge30" class="edge"><title>Node10&#45;&gt;Node31</title>
<path fill="none" stroke="midnightblue" d="M195.317,-858.6C206.955,-897.582 238.516,-984.879 298,-1029 306.887,-1035.59 317.654,-1039.96 328.473,-1042.84"/>
<polygon fill="midnightblue" stroke="midnightblue" points="198.617,-857.409 192.501,-848.758 191.887,-859.335 198.617,-857.409"/>
</g>
<!-- Node32 -->
<g id="node32" class="node"><title>Node32</title>
<g id="a_node32"><a xlink:href="_s_d_c_c_2_cygnal_2portmacro_8h.html#a702d7c354a3e7d2c91ea8fbb24eef033" target="_top" xlink:title="vTimer2ISR">
<polygon fill="white" stroke="black" points="348.5,-1000.5 348.5,-1019.5 417.5,-1019.5 417.5,-1000.5 348.5,-1000.5"/>
<text text-anchor="middle" x="383" y="-1007.5" font-family="Helvetica,sans-Serif" font-size="10.00">vTimer2ISR</text>
</a>
</g>
</g>
<!-- Node10&#45;&gt;Node32 -->
<g id="edge31" class="edge"><title>Node10&#45;&gt;Node32</title>
<path fill="none" stroke="midnightblue" d="M197.954,-858.026C212.633,-890.683 247.195,-957.149 298,-991 312.807,-1000.87 331.999,-1005.66 348.299,-1007.98"/>
<polygon fill="midnightblue" stroke="midnightblue" points="201.092,-856.467 193.891,-848.695 194.674,-859.261 201.092,-856.467"/>
</g>
<!-- Node33 -->
<g id="node33" class="node"><title>Node33</title>
<g id="a_node33"><a xlink:href="_softune_2_m_b91460_2port_8c.html#a6901867773543e9e843544d101152285" target="_top" xlink:title="ReloadTimer0_IRQHandler">
<polygon fill="white" stroke="black" points="314,-962.5 314,-981.5 452,-981.5 452,-962.5 314,-962.5"/>
<text text-anchor="middle" x="383" y="-969.5" font-family="Helvetica,sans-Serif" font-size="10.00">ReloadTimer0_IRQHandler</text>
</a>
</g>
</g>
<!-- Node10&#45;&gt;Node33 -->
<g id="edge32" class="edge"><title>Node10&#45;&gt;Node33</title>
<path fill="none" stroke="midnightblue" d="M201.919,-857.178C219.678,-882.735 255.584,-928.859 298,-953 304.757,-956.846 312.235,-959.913 319.862,-962.36"/>
<polygon fill="midnightblue" stroke="midnightblue" points="204.727,-855.084 196.218,-848.771 198.934,-859.012 204.727,-855.084"/>
</g>
<!-- Node34 -->
<g id="node34" class="node"><title>Node34</title>
<g id="a_node34"><a xlink:href="_softune_2_m_b96340_2port_8c.html#aa4da5ab5570e9f7f2177febfa143843a" target="_top" xlink:title="prvRLT0_TICKISR">
<polygon fill="white" stroke="black" points="333,-924.5 333,-943.5 433,-943.5 433,-924.5 333,-924.5"/>
<text text-anchor="middle" x="383" y="-931.5" font-family="Helvetica,sans-Serif" font-size="10.00">prvRLT0_TICKISR</text>
</a>
</g>
</g>
<!-- Node10&#45;&gt;Node34 -->
<g id="edge33" class="edge"><title>Node10&#45;&gt;Node34</title>
<path fill="none" stroke="midnightblue" d="M208.044,-855.09C228.455,-872.438 263.375,-899.628 298,-915 308.932,-919.854 321.235,-923.529 332.984,-926.289"/>
<polygon fill="midnightblue" stroke="midnightblue" points="210.325,-852.434 200.473,-848.536 205.744,-857.727 210.325,-852.434"/>
</g>
<!-- Node35 -->
<g id="node35" class="node"><title>Node35</title>
<g id="a_node35"><a xlink:href="_tasking_2_a_r_m___c_m4_f_2port_8c.html#ab5e09814056d617c521549e542639b7e" target="_top" xlink:title="SysTick_Handler">
<polygon fill="white" stroke="black" points="337,-886.5 337,-905.5 429,-905.5 429,-886.5 337,-886.5"/>
<text text-anchor="middle" x="383" y="-893.5" font-family="Helvetica,sans-Serif" font-size="10.00">SysTick_Handler</text>
</a>
</g>
</g>
<!-- Node10&#45;&gt;Node35 -->
<g id="edge34" class="edge"><title>Node10&#45;&gt;Node35</title>
<path fill="none" stroke="midnightblue" d="M224.099,-852.139C245.192,-859.98 272.936,-869.782 298,-877 310.5,-880.6 324.205,-883.947 336.853,-886.798"/>
<polygon fill="midnightblue" stroke="midnightblue" points="225.208,-848.817 214.616,-848.579 222.748,-855.37 225.208,-848.817"/>
</g>
<!-- Node10&#45;&gt;Node36 -->
<g id="edge35" class="edge"><title>Node10&#45;&gt;Node36</title>
<path fill="none" stroke="midnightblue" d="M196.889,-858.066C210.922,-897.518 243.089,-991.188 262,-1072 284.876,-1169.75 229.259,-1221.83 298,-1295 308.033,-1305.68 322.694,-1310.97 336.97,-1313.43"/>
<polygon fill="midnightblue" stroke="midnightblue" points="200.178,-856.867 193.511,-848.633 193.588,-859.228 200.178,-856.867"/>
</g>
<!-- Node36&#45;&gt;Node8 -->
<g id="edge36" class="edge"><title>Node36&#45;&gt;Node8</title>
<path fill="none" stroke="midnightblue" d="M438.872,-1310.14C449.544,-1307.17 459.912,-1302.44 468,-1295 507.105,-1259.03 462.291,-1213.92 504,-1181 536.709,-1155.19 654.928,-1156.28 722.237,-1159.2"/>
<polygon fill="midnightblue" stroke="midnightblue" points="438.005,-1306.75 429.042,-1312.4 439.572,-1313.57 438.005,-1306.75"/>
</g>
<!-- Node36&#45;&gt;Node9 -->
<g id="edge37" class="edge"><title>Node36&#45;&gt;Node9</title>
<path fill="none" stroke="midnightblue" d="M413.317,-1328.02C437.345,-1339.18 472.416,-1354.75 504,-1366 519.168,-1371.4 536.193,-1376.41 551,-1380.44"/>
<polygon fill="midnightblue" stroke="midnightblue" points="414.592,-1324.75 404.052,-1323.67 411.622,-1331.09 414.592,-1324.75"/>
</g>
<!-- Node37 -->
<g id="node37" class="node"><title>Node37</title>
<g id="a_node37"><a xlink:href="event__groups_8h.html#a02d7b3bb55f7e11d9c47116266c5fb2e" target="_top" xlink:title="xEventGroupSetBits">
<polygon fill="white" stroke="red" points="536.5,-1114.5 536.5,-1133.5 643.5,-1133.5 643.5,-1114.5 536.5,-1114.5"/>
<text text-anchor="middle" x="590" y="-1121.5" font-family="Helvetica,sans-Serif" font-size="10.00">xEventGroupSetBits</text>
</a>
</g>
</g>
<!-- Node36&#45;&gt;Node37 -->
<g id="edge38" class="edge"><title>Node36&#45;&gt;Node37</title>
<path fill="none" stroke="midnightblue" d="M439.251,-1310.54C449.899,-1307.55 460.161,-1302.7 468,-1295 515.982,-1247.86 457.277,-1196.39 504,-1148 512.627,-1139.06 524.305,-1133.38 536.239,-1129.79"/>
<polygon fill="midnightblue" stroke="midnightblue" points="438.385,-1307.15 429.423,-1312.8 439.953,-1313.97 438.385,-1307.15"/>
</g>
<!-- Node38 -->
<g id="node38" class="node"><title>Node38</title>
<g id="a_node38"><a xlink:href="event__groups_8h.html#a50cb52d1c81b063fd8d94f5293dcfea9" target="_top" xlink:title="vEventGroupDelete">
<polygon fill="white" stroke="black" points="719,-1038.5 719,-1057.5 823,-1057.5 823,-1038.5 719,-1038.5"/>
<text text-anchor="middle" x="771" y="-1045.5" font-family="Helvetica,sans-Serif" font-size="10.00">vEventGroupDelete</text>
</a>
</g>
</g>
<!-- Node36&#45;&gt;Node38 -->
<g id="edge40" class="edge"><title>Node36&#45;&gt;Node38</title>
<path fill="none" stroke="midnightblue" d="M439.234,-1310.95C449.981,-1307.94 460.288,-1302.99 468,-1295 527.695,-1233.17 443.955,-1166.49 504,-1105 505.938,-1103.01 648.485,-1073.2 724.077,-1057.51"/>
<polygon fill="midnightblue" stroke="midnightblue" points="438.285,-1307.57 429.302,-1313.19 439.828,-1314.4 438.285,-1307.57"/>
</g>
<!-- Node39 -->
<g id="node39" class="node"><title>Node39</title>
<g id="a_node39"><a xlink:href="_g_c_c_2_a_r_m___c_m3___m_p_u_2port_8c.html#aa43b421a9eff441d0a850998551b17b4" target="_top" xlink:title="MPU_xTaskResumeAll">
<polygon fill="white" stroke="black" points="530.5,-1304.5 530.5,-1323.5 649.5,-1323.5 649.5,-1304.5 530.5,-1304.5"/>
<text text-anchor="middle" x="590" y="-1311.5" font-family="Helvetica,sans-Serif" font-size="10.00">MPU_xTaskResumeAll</text>
</a>
</g>
</g>
<!-- Node36&#45;&gt;Node39 -->
<g id="edge41" class="edge"><title>Node36&#45;&gt;Node39</title>
<path fill="none" stroke="midnightblue" d="M439.309,-1314C467.439,-1314 501.633,-1314 530.236,-1314"/>
<polygon fill="midnightblue" stroke="midnightblue" points="439.242,-1310.5 429.242,-1314 439.242,-1317.5 439.242,-1310.5"/>
</g>
<!-- Node40 -->
<g id="node40" class="node"><title>Node40</title>
<g id="a_node40"><a xlink:href="_g_c_c_2_a_v_r32___u_c3_2port_8c.html#adb1054baf76a9dc8c93df1a78dbe7058" target="_top" xlink:title="__malloc_unlock">
<polygon fill="white" stroke="black" points="544.5,-1266.5 544.5,-1285.5 635.5,-1285.5 635.5,-1266.5 544.5,-1266.5"/>
<text text-anchor="middle" x="590" y="-1273.5" font-family="Helvetica,sans-Serif" font-size="10.00">__malloc_unlock</text>
</a>
</g>
</g>
<!-- Node36&#45;&gt;Node40 -->
<g id="edge42" class="edge"><title>Node36&#45;&gt;Node40</title>
<path fill="none" stroke="midnightblue" d="M439.168,-1303.77C472.083,-1297.67 513.342,-1290.02 544.227,-1284.3"/>
<polygon fill="midnightblue" stroke="midnightblue" points="438.436,-1300.35 429.242,-1305.61 439.712,-1307.23 438.436,-1300.35"/>
</g>
<!-- Node41 -->
<g id="node41" class="node"><title>Node41</title>
<g id="a_node41"><a xlink:href="_i_a_r_2_a_v_r32___u_c3_2portmacro_8h.html#a0e22115d0fea39851af4e93fcaf6b41c" target="_top" xlink:title="pvPortRealloc">
<polygon fill="white" stroke="black" points="550.5,-1228.5 550.5,-1247.5 629.5,-1247.5 629.5,-1228.5 550.5,-1228.5"/>
<text text-anchor="middle" x="590" y="-1235.5" font-family="Helvetica,sans-Serif" font-size="10.00">pvPortRealloc</text>
</a>
</g>
</g>
<!-- Node36&#45;&gt;Node41 -->
<g id="edge43" class="edge"><title>Node36&#45;&gt;Node41</title>
<path fill="none" stroke="midnightblue" d="M439.293,-1306.39C449.243,-1303.67 459.229,-1299.99 468,-1295 488.219,-1283.49 483.766,-1268.48 504,-1257 518.072,-1249.01 535.23,-1244.39 550.436,-1241.7"/>
<polygon fill="midnightblue" stroke="midnightblue" points="438.292,-1303.03 429.401,-1308.79 439.945,-1309.83 438.292,-1303.03"/>
</g>
<!-- Node42 -->
<g id="node42" class="node"><title>Node42</title>
<g id="a_node42"><a xlink:href="_wiz_c_2_p_i_c18_2port_8c.html#a0dc0ff621115a685d59ea38b526ebe89" target="_top" xlink:title="pvPortMalloc">
<polygon fill="white" stroke="red" points="553,-1190.5 553,-1209.5 627,-1209.5 627,-1190.5 553,-1190.5"/>
<text text-anchor="middle" x="590" y="-1197.5" font-family="Helvetica,sans-Serif" font-size="10.00">pvPortMalloc</text>
</a>
</g>
</g>
<!-- Node36&#45;&gt;Node42 -->
<g id="edge44" class="edge"><title>Node36&#45;&gt;Node42</title>
<path fill="none" stroke="midnightblue" d="M439.118,-1309C449.497,-1306.08 459.688,-1301.66 468,-1295 497.169,-1271.63 474.801,-1242.33 504,-1219 517.703,-1208.05 536.44,-1203.12 552.836,-1201.01"/>
<polygon fill="midnightblue" stroke="midnightblue" points="438.087,-1305.65 429.163,-1311.36 439.701,-1312.46 438.087,-1305.65"/>
</g>
<!-- Node43 -->
<g id="node43" class="node"><title>Node43</title>
<g id="a_node43"><a xlink:href="_wiz_c_2_p_i_c18_2port_8c.html#a1e7cea2fd1bc894ea3b5f5e8179d259b" target="_top" xlink:title="vPortFree">
<polygon fill="white" stroke="red" points="560,-1038.5 560,-1057.5 620,-1057.5 620,-1038.5 560,-1038.5"/>
<text text-anchor="middle" x="590" y="-1045.5" font-family="Helvetica,sans-Serif" font-size="10.00">vPortFree</text>
</a>
</g>
</g>
<!-- Node36&#45;&gt;Node43 -->
<g id="edge45" class="edge"><title>Node36&#45;&gt;Node43</title>
<path fill="none" stroke="midnightblue" d="M439.067,-1311.2C449.924,-1308.19 460.319,-1303.18 468,-1295 536.741,-1221.83 437.213,-1146.96 504,-1072 517.873,-1056.43 540.995,-1050.63 559.624,-1048.61"/>
<polygon fill="midnightblue" stroke="midnightblue" points="438.034,-1307.84 429.03,-1313.43 439.551,-1314.67 438.034,-1307.84"/>
</g>
<!-- Node36&#45;&gt;Node5 -->
<g id="edge47" class="edge"><title>Node36&#45;&gt;Node5</title>
<path fill="none" stroke="midnightblue" d="M439.339,-1311.45C450.181,-1308.43 460.5,-1303.34 468,-1295 477.153,-1284.82 576.718,-370.102 587.968,-266.515"/>
<polygon fill="midnightblue" stroke="midnightblue" points="438.306,-1308.09 429.301,-1313.67 439.822,-1314.93 438.306,-1308.09"/>
</g>
<!-- Node36&#45;&gt;Node6 -->
<g id="edge48" class="edge"><title>Node36&#45;&gt;Node6</title>
<path fill="none" stroke="midnightblue" d="M439.195,-1312.08C450.255,-1309.06 460.702,-1303.82 468,-1295 542.91,-1204.46 454.197,-344.437 504,-238 518.262,-207.519 551.066,-184.006 571.496,-171.649"/>
<polygon fill="midnightblue" stroke="midnightblue" points="438.422,-1308.67 429.382,-1314.2 439.895,-1315.51 438.422,-1308.67"/>
</g>
<!-- Node36&#45;&gt;Node3 -->
<g id="edge49" class="edge"><title>Node36&#45;&gt;Node3</title>
<path fill="none" stroke="midnightblue" d="M439.432,-1323.51C511.284,-1336.07 632.521,-1358.1 676,-1371 701.988,-1378.71 730.725,-1390.9 749.5,-1399.38"/>
<polygon fill="midnightblue" stroke="midnightblue" points="439.657,-1320 429.205,-1321.73 438.456,-1326.9 439.657,-1320"/>
</g>
<!-- Node36&#45;&gt;Node2 -->
<g id="edge50" class="edge"><title>Node36&#45;&gt;Node2</title>
<path fill="none" stroke="midnightblue" d="M409.134,-1329.04C426.38,-1339.84 449.416,-1355.21 468,-1371 485.729,-1386.06 486.23,-1393.98 504,-1409 526.257,-1427.81 554.882,-1445.91 572.581,-1456.49"/>
<polygon fill="midnightblue" stroke="midnightblue" points="410.564,-1325.81 400.214,-1323.54 406.89,-1331.77 410.564,-1325.81"/>
</g>
<!-- Node37&#45;&gt;Node8 -->
<g id="edge39" class="edge"><title>Node37&#45;&gt;Node8</title>
<path fill="none" stroke="midnightblue" d="M646.024,-1135.68C671.408,-1141.07 701.161,-1147.39 725.156,-1152.48"/>
<polygon fill="midnightblue" stroke="midnightblue" points="646.678,-1132.24 636.169,-1133.59 645.224,-1139.09 646.678,-1132.24"/>
</g>
<!-- Node43&#45;&gt;Node38 -->
<g id="edge46" class="edge"><title>Node43&#45;&gt;Node38</title>
<path fill="none" stroke="midnightblue" d="M630.389,-1048C656.378,-1048 690.687,-1048 718.789,-1048"/>
<polygon fill="midnightblue" stroke="midnightblue" points="630.158,-1044.5 620.158,-1048 630.158,-1051.5 630.158,-1044.5"/>
</g>
<!-- Node45 -->
<g id="node45" class="node"><title>Node45</title>
<g id="a_node45"><a xlink:href="queue_8c.html#a5e54273dbe3f56b8bdc8f7abee67a871" target="_top" xlink:title="xQueueGenericReset">
<polygon fill="white" stroke="red" points="326.5,-0.5 326.5,-19.5 439.5,-19.5 439.5,-0.5 326.5,-0.5"/>
<text text-anchor="middle" x="383" y="-7.5" font-family="Helvetica,sans-Serif" font-size="10.00">xQueueGenericReset</text>
</a>
</g>
</g>
<!-- Node44&#45;&gt;Node45 -->
<g id="edge52" class="edge"><title>Node44&#45;&gt;Node45</title>
<path fill="none" stroke="midnightblue" d="M201.919,-124.822C219.678,-99.2648 255.584,-53.1415 298,-29 306.706,-24.0448 316.609,-20.3818 326.486,-17.6742"/>
<polygon fill="midnightblue" stroke="midnightblue" points="198.934,-122.988 196.218,-133.229 204.727,-126.916 198.934,-122.988"/>
</g>
<!-- Node44&#45;&gt;Node5 -->
<g id="edge53" class="edge"><title>Node44&#45;&gt;Node5</title>
<path fill="none" stroke="midnightblue" d="M207.469,-159.415C227.607,-177.291 262.513,-205.174 298,-219 376.45,-249.566 474.874,-256.505 534.796,-257.583"/>
<polygon fill="midnightblue" stroke="midnightblue" points="209.782,-156.788 200.024,-152.66 205.078,-161.972 209.782,-156.788"/>
</g>
<!-- Node46 -->
<g id="node46" class="node"><title>Node46</title>
<g id="a_node46"><a xlink:href="queue_8c.html#a0fb58b25eb396a5cf8e1688b7e1a56cb" target="_top" xlink:title="xQueueGenericSendFromISR">
<polygon fill="white" stroke="black" points="308,-190.5 308,-209.5 458,-209.5 458,-190.5 308,-190.5"/>
<text text-anchor="middle" x="383" y="-197.5" font-family="Helvetica,sans-Serif" font-size="10.00">xQueueGenericSendFromISR</text>
</a>
</g>
</g>
<!-- Node44&#45;&gt;Node46 -->
<g id="edge54" class="edge"><title>Node44&#45;&gt;Node46</title>
<path fill="none" stroke="midnightblue" d="M224.099,-156.139C245.192,-163.98 272.936,-173.782 298,-181 309.925,-184.434 322.948,-187.639 335.102,-190.402"/>
<polygon fill="midnightblue" stroke="midnightblue" points="225.208,-152.817 214.616,-152.579 222.748,-159.37 225.208,-152.817"/>
</g>
<!-- Node47 -->
<g id="node47" class="node"><title>Node47</title>
<g id="a_node47"><a xlink:href="queue_8c.html#a4df49fafb6ba4400ede6f2d07a40865f" target="_top" xlink:title="xQueueGiveFromISR">
<polygon fill="white" stroke="black" points="327,-152.5 327,-171.5 439,-171.5 439,-152.5 327,-152.5"/>
<text text-anchor="middle" x="383" y="-159.5" font-family="Helvetica,sans-Serif" font-size="10.00">xQueueGiveFromISR</text>
</a>
</g>
</g>
<!-- Node44&#45;&gt;Node47 -->
<g id="edge55" class="edge"><title>Node44&#45;&gt;Node47</title>
<path fill="none" stroke="midnightblue" d="M271.961,-151.111C290.476,-152.943 309.703,-154.846 326.807,-156.538"/>
<polygon fill="midnightblue" stroke="midnightblue" points="272.063,-147.604 261.767,-150.102 271.373,-154.57 272.063,-147.604"/>
</g>
<!-- Node44&#45;&gt;Node6 -->
<g id="edge56" class="edge"><title>Node44&#45;&gt;Node6</title>
<path fill="none" stroke="midnightblue" d="M219.996,-129.356C241.271,-120.453 270.768,-109.651 298,-105 372.477,-92.2798 394.268,-88.5027 468,-105 508.789,-114.126 552.039,-138.599 574.124,-152.325"/>
<polygon fill="midnightblue" stroke="midnightblue" points="218.357,-126.25 210.548,-133.411 221.118,-132.683 218.357,-126.25"/>
</g>
<!-- Node48 -->
<g id="node48" class="node"><title>Node48</title>
<g id="a_node48"><a xlink:href="queue_8c.html#ac61ec62828e70ed35d18559a35550462" target="_top" xlink:title="xQueueReceiveFromISR">
<polygon fill="white" stroke="black" points="319,-38.5 319,-57.5 447,-57.5 447,-38.5 319,-38.5"/>
<text text-anchor="middle" x="383" y="-45.5" font-family="Helvetica,sans-Serif" font-size="10.00">xQueueReceiveFromISR</text>
</a>
</g>
</g>
<!-- Node44&#45;&gt;Node48 -->
<g id="edge57" class="edge"><title>Node44&#45;&gt;Node48</title>
<path fill="none" stroke="midnightblue" d="M210.013,-127.145C230.911,-111.258 265.161,-87.0579 298,-72 310.959,-66.0576 325.727,-61.2433 339.228,-57.5299"/>
<polygon fill="midnightblue" stroke="midnightblue" points="207.695,-124.513 201.917,-133.394 211.972,-130.054 207.695,-124.513"/>
</g>
<!-- Node49 -->
<g id="node49" class="node"><title>Node49</title>
<g id="a_node49"><a xlink:href="queue_8c.html#a7297c84a7c770ed57567bad1d3e2faf6" target="_top" xlink:title="prvUnlockQueue">
<polygon fill="white" stroke="black" points="337.5,-114.5 337.5,-133.5 428.5,-133.5 428.5,-114.5 337.5,-114.5"/>
<text text-anchor="middle" x="383" y="-121.5" font-family="Helvetica,sans-Serif" font-size="10.00">prvUnlockQueue</text>
</a>
</g>
</g>
<!-- Node44&#45;&gt;Node49 -->
<g id="edge58" class="edge"><title>Node44&#45;&gt;Node49</title>
<path fill="none" stroke="midnightblue" d="M271.977,-134.888C294.398,-132.669 317.862,-130.347 337.334,-128.42"/>
<polygon fill="midnightblue" stroke="midnightblue" points="271.373,-131.43 261.767,-135.898 272.063,-138.396 271.373,-131.43"/>
</g>
<!-- Node49&#45;&gt;Node5 -->
<g id="edge59" class="edge"><title>Node49&#45;&gt;Node5</title>
<path fill="none" stroke="midnightblue" d="M438.312,-131.349C448.585,-134.087 458.94,-137.844 468,-143 488.219,-154.508 487.314,-164.788 504,-181 529.556,-205.83 561.197,-233.316 577.731,-247.447"/>
<polygon fill="midnightblue" stroke="midnightblue" points="439.071,-127.932 428.533,-129.025 437.452,-134.742 439.071,-127.932"/>
</g>
<!-- Node49&#45;&gt;Node6 -->
<g id="edge60" class="edge"><title>Node49&#45;&gt;Node6</title>
<path fill="none" stroke="midnightblue" d="M438.823,-134.162C469.46,-139.841 507.408,-146.876 537.493,-152.452"/>
<polygon fill="midnightblue" stroke="midnightblue" points="439.205,-130.674 428.735,-132.292 437.929,-137.556 439.205,-130.674"/>
</g>
<!-- Node50&#45;&gt;Node37 -->
<g id="edge62" class="edge"><title>Node50&#45;&gt;Node37</title>
<path fill="none" stroke="midnightblue" d="M465.334,-341.902C466.264,-342.891 467.154,-343.923 468,-345 517.606,-408.173 464.442,-997.095 504,-1067 516.951,-1089.89 543.337,-1105.36 563.295,-1114.35"/>
<polygon fill="midnightblue" stroke="midnightblue" points="467.342,-339.012 457.484,-335.13 462.77,-344.312 467.342,-339.012"/>
</g>
<!-- Node50&#45;&gt;Node38 -->
<g id="edge63" class="edge"><title>Node50&#45;&gt;Node38</title>
<path fill="none" stroke="midnightblue" d="M462.472,-340.602C464.397,-341.975 466.245,-343.439 468,-345 700.708,-552.066 760.491,-969.657 768.892,-1038.34"/>
<polygon fill="midnightblue" stroke="midnightblue" points="463.952,-337.404 453.6,-335.15 460.287,-343.367 463.952,-337.404"/>
</g>
</g>
</svg>
