<?xml version="1.0" encoding="UTF-8" standalone="no"?>
<!DOCTYPE svg PUBLIC "-//W3C//DTD SVG 1.1//EN"
 "http://www.w3.org/Graphics/SVG/1.1/DTD/svg11.dtd">
<!-- Generated by graphviz version 2.30.1 (20130221.2233)
 -->
<!-- Title: source/portable/Qt/microcontrollerenvironment.h Pages: 1 -->
<svg width="166pt" height="108pt"
 viewBox="0.00 0.00 166.00 108.00" xmlns="http://www.w3.org/2000/svg" xmlns:xlink="http://www.w3.org/1999/xlink">
<g id="graph0" class="graph" transform="scale(1 1) rotate(0) translate(4 104)">
<title>source/portable/Qt/microcontrollerenvironment.h</title>
<polygon fill="white" stroke="white" points="-4,5 -4,-104 163,-104 163,5 -4,5"/>
<!-- Node1 -->
<g id="node1" class="node"><title>Node1</title>
<polygon fill="#bfbfbf" stroke="black" points="5,-69 5,-99 153,-99 153,-69 5,-69"/>
<text text-anchor="start" x="13" y="-87" font-family="Helvetica,sans-Serif" font-size="10.00">source/portable/Qt</text>
<text text-anchor="middle" x="79" y="-76" font-family="Helvetica,sans-Serif" font-size="10.00">/microcontrollerenvironment.h</text>
</g>
<!-- Node2 -->
<g id="node2" class="node"><title>Node2</title>
<g id="a_node2"><a xlink:href="microcontrollerenvironment_8cpp.html" target="_top" xlink:title="source/portable/Qt\l/microcontrollerenvironment.cpp">
<polygon fill="white" stroke="black" points="-0.5,-1 -0.5,-31 158.5,-31 158.5,-1 -0.5,-1"/>
<text text-anchor="start" x="7.5" y="-19" font-family="Helvetica,sans-Serif" font-size="10.00">source/portable/Qt</text>
<text text-anchor="middle" x="79" y="-8" font-family="Helvetica,sans-Serif" font-size="10.00">/microcontrollerenvironment.cpp</text>
</a>
</g>
</g>
<!-- Node1&#45;&gt;Node2 -->
<g id="edge1" class="edge"><title>Node1&#45;&gt;Node2</title>
<path fill="none" stroke="midnightblue" d="M79,-58.5322C79,-49.3606 79,-39.2449 79,-31.2931"/>
<polygon fill="midnightblue" stroke="midnightblue" points="75.5001,-58.6789 79,-68.679 82.5001,-58.679 75.5001,-58.6789"/>
</g>
</g>
</svg>
