<?xml version="1.0" encoding="UTF-8" standalone="no"?>
<!DOCTYPE svg PUBLIC "-//W3C//DTD SVG 1.1//EN"
 "http://www.w3.org/Graphics/SVG/1.1/DTD/svg11.dtd">
<!-- Generated by graphviz version 2.30.1 (20130221.2233)
 -->
<!-- Title: source/portable/Qt/microcontrollerenvironment.cpp Pages: 1 -->
<svg width="166pt" height="152pt"
 viewBox="0.00 0.00 166.00 152.00" xmlns="http://www.w3.org/2000/svg" xmlns:xlink="http://www.w3.org/1999/xlink">
<g id="graph0" class="graph" transform="scale(1 1) rotate(0) translate(4 148)">
<title>source/portable/Qt/microcontrollerenvironment.cpp</title>
<polygon fill="white" stroke="white" points="-4,5 -4,-148 163,-148 163,5 -4,5"/>
<!-- Node1 -->
<g id="node1" class="node"><title>Node1</title>
<polygon fill="#bfbfbf" stroke="black" points="-0.5,-113 -0.5,-143 158.5,-143 158.5,-113 -0.5,-113"/>
<text text-anchor="start" x="7.5" y="-131" font-family="Helvetica,sans-Serif" font-size="10.00">source/portable/Qt</text>
<text text-anchor="middle" x="79" y="-120" font-family="Helvetica,sans-Serif" font-size="10.00">/microcontrollerenvironment.cpp</text>
</g>
<!-- Node2 -->
<g id="node2" class="node"><title>Node2</title>
<g id="a_node2"><a xlink:href="microcontrollerenvironment_8h.html" target="_top" xlink:title="microcontrollerenvironment.h">
<polygon fill="white" stroke="black" points="6.5,-56.5 6.5,-75.5 151.5,-75.5 151.5,-56.5 6.5,-56.5"/>
<text text-anchor="middle" x="79" y="-63.5" font-family="Helvetica,sans-Serif" font-size="10.00">microcontrollerenvironment.h</text>
</a>
</g>
</g>
<!-- Node1&#45;&gt;Node2 -->
<g id="edge1" class="edge"><title>Node1&#45;&gt;Node2</title>
<path fill="none" stroke="midnightblue" d="M79,-112.781C79,-104.781 79,-94.6887 79,-86.0168"/>
<polygon fill="midnightblue" stroke="midnightblue" points="82.5001,-85.7305 79,-75.7305 75.5001,-85.7306 82.5001,-85.7305"/>
</g>
<!-- Node3 -->
<g id="node3" class="node"><title>Node3</title>
<polygon fill="white" stroke="#bfbfbf" points="52.5,-0.5 52.5,-19.5 105.5,-19.5 105.5,-0.5 52.5,-0.5"/>
<text text-anchor="middle" x="79" y="-7.5" font-family="Helvetica,sans-Serif" font-size="10.00">QObject</text>
</g>
<!-- Node2&#45;&gt;Node3 -->
<g id="edge2" class="edge"><title>Node2&#45;&gt;Node3</title>
<path fill="none" stroke="midnightblue" d="M79,-56.083C79,-49.0059 79,-38.8611 79,-29.9865"/>
<polygon fill="midnightblue" stroke="midnightblue" points="82.5001,-29.751 79,-19.7511 75.5001,-29.7511 82.5001,-29.751"/>
</g>
</g>
</svg>
