<?xml version="1.0" encoding="UTF-8" standalone="no"?>
<!DOCTYPE svg PUBLIC "-//W3C//DTD SVG 1.1//EN"
 "http://www.w3.org/Graphics/SVG/1.1/DTD/svg11.dtd">
<!-- Generated by graphviz version 2.30.1 (20130221.2233)
 -->
<!-- Title: xPortStartScheduler Pages: 1 -->
<svg width="564pt" height="180pt"
 viewBox="0.00 0.00 564.00 180.00" xmlns="http://www.w3.org/2000/svg" xmlns:xlink="http://www.w3.org/1999/xlink">
<g id="graph0" class="graph" transform="scale(1 1) rotate(0) translate(4 176)">
<title>xPortStartScheduler</title>
<polygon fill="white" stroke="white" points="-4,5 -4,-176 561,-176 561,5 -4,5"/>
<!-- Node1 -->
<g id="node1" class="node"><title>Node1</title>
<polygon fill="#bfbfbf" stroke="black" points="0,-76.5 0,-95.5 106,-95.5 106,-76.5 0,-76.5"/>
<text text-anchor="middle" x="53" y="-83.5" font-family="Helvetica,sans-Serif" font-size="10.00">xPortStartScheduler</text>
</g>
<!-- Node2 -->
<g id="node2" class="node"><title>Node2</title>
<g id="a_node2"><a xlink:href="o_watcom_216_bit_d_o_s_2common_2portasm_8h.html#a1417b1dac299b0a3773613340427aa14" target="_top" xlink:title="portFIRST_CONTEXT">
<polygon fill="white" stroke="black" points="143,-152.5 143,-171.5 259,-171.5 259,-152.5 143,-152.5"/>
<text text-anchor="middle" x="201" y="-159.5" font-family="Helvetica,sans-Serif" font-size="10.00">portFIRST_CONTEXT</text>
</a>
</g>
</g>
<!-- Node1&#45;&gt;Node2 -->
<g id="edge1" class="edge"><title>Node1&#45;&gt;Node2</title>
<path fill="none" stroke="midnightblue" d="M66.5057,-95.5957C83.0378,-107.921 113.421,-129.347 142,-143 146.603,-145.199 151.525,-147.243 156.485,-149.112"/>
<polygon fill="midnightblue" stroke="midnightblue" points="155.399,-152.44 165.993,-152.486 157.74,-145.843 155.399,-152.44"/>
</g>
<!-- Node3 -->
<g id="node3" class="node"><title>Node3</title>
<g id="a_node3"><a xlink:href="o_watcom_216_bit_d_o_s_2_p_c_2port_8c.html#a00a48cbe854dbefdb16fe52c71a4d661" target="_top" xlink:title="prvExitFunction">
<polygon fill="white" stroke="black" points="158.5,-114.5 158.5,-133.5 243.5,-133.5 243.5,-114.5 158.5,-114.5"/>
<text text-anchor="middle" x="201" y="-121.5" font-family="Helvetica,sans-Serif" font-size="10.00">prvExitFunction</text>
</a>
</g>
</g>
<!-- Node1&#45;&gt;Node3 -->
<g id="edge2" class="edge"><title>Node1&#45;&gt;Node3</title>
<path fill="none" stroke="midnightblue" d="M90.842,-95.589C109.848,-100.536 133.229,-106.621 153.469,-111.889"/>
<polygon fill="midnightblue" stroke="midnightblue" points="152.864,-115.348 163.423,-114.48 154.627,-108.574 152.864,-115.348"/>
</g>
<!-- Node6 -->
<g id="node6" class="node"><title>Node6</title>
<g id="a_node6"><a xlink:href="o_watcom_216_bit_d_o_s_2_p_c_2port_8c.html#acf9df4f9ff9bc642609898d1a7503a53" target="_top" xlink:title="prvNonPreemptiveTick">
<polygon fill="white" stroke="black" points="142,-76.5 142,-95.5 260,-95.5 260,-76.5 142,-76.5"/>
<text text-anchor="middle" x="201" y="-83.5" font-family="Helvetica,sans-Serif" font-size="10.00">prvNonPreemptiveTick</text>
</a>
</g>
</g>
<!-- Node1&#45;&gt;Node6 -->
<g id="edge5" class="edge"><title>Node1&#45;&gt;Node6</title>
<path fill="none" stroke="midnightblue" d="M106.297,-86C114.589,-86 123.27,-86 131.86,-86"/>
<polygon fill="midnightblue" stroke="midnightblue" points="131.875,-89.5001 141.875,-86 131.875,-82.5001 131.875,-89.5001"/>
</g>
<!-- Node11 -->
<g id="node11" class="node"><title>Node11</title>
<g id="a_node11"><a xlink:href="o_watcom_216_bit_d_o_s_2_p_c_2port_8c.html#a5959625826e2b2a3f4b14c49c24f9737" target="_top" xlink:title="prvSetTickFrequency">
<polygon fill="white" stroke="black" points="145.5,-38.5 145.5,-57.5 256.5,-57.5 256.5,-38.5 145.5,-38.5"/>
<text text-anchor="middle" x="201" y="-45.5" font-family="Helvetica,sans-Serif" font-size="10.00">prvSetTickFrequency</text>
</a>
</g>
</g>
<!-- Node1&#45;&gt;Node11 -->
<g id="edge10" class="edge"><title>Node1&#45;&gt;Node11</title>
<path fill="none" stroke="midnightblue" d="M90.842,-76.411C109.848,-71.4642 133.229,-65.3789 153.469,-60.1108"/>
<polygon fill="midnightblue" stroke="midnightblue" points="154.627,-63.4261 163.423,-57.5201 152.864,-56.6518 154.627,-63.4261"/>
</g>
<!-- Node12 -->
<g id="node12" class="node"><title>Node12</title>
<g id="a_node12"><a xlink:href="o_watcom_216_bit_d_o_s_2_p_c_2port_8c.html#a45db6cc1dd49dae903bd425b5c2027f9" target="_top" xlink:title="prvYieldProcessor">
<polygon fill="white" stroke="black" points="152,-0.5 152,-19.5 250,-19.5 250,-0.5 152,-0.5"/>
<text text-anchor="middle" x="201" y="-7.5" font-family="Helvetica,sans-Serif" font-size="10.00">prvYieldProcessor</text>
</a>
</g>
</g>
<!-- Node1&#45;&gt;Node12 -->
<g id="edge11" class="edge"><title>Node1&#45;&gt;Node12</title>
<path fill="none" stroke="midnightblue" d="M66.5057,-76.4043C83.0378,-64.079 113.421,-42.653 142,-29 146.603,-26.8012 151.525,-24.7574 156.485,-22.8882"/>
<polygon fill="midnightblue" stroke="midnightblue" points="157.74,-26.1568 165.993,-19.5138 155.399,-19.5599 157.74,-26.1568"/>
</g>
<!-- Node4 -->
<g id="node4" class="node"><title>Node4</title>
<g id="a_node4"><a xlink:href="o_watcom_216_bit_d_o_s_2_p_c_2port_8c.html#a2a802a87f0bd14993b86925d83dc3b5b" target="_top" xlink:title="prvSetTickFrequencyDefault">
<polygon fill="white" stroke="black" points="296.5,-152.5 296.5,-171.5 439.5,-171.5 439.5,-152.5 296.5,-152.5"/>
<text text-anchor="middle" x="368" y="-159.5" font-family="Helvetica,sans-Serif" font-size="10.00">prvSetTickFrequencyDefault</text>
</a>
</g>
</g>
<!-- Node3&#45;&gt;Node4 -->
<g id="edge3" class="edge"><title>Node3&#45;&gt;Node4</title>
<path fill="none" stroke="midnightblue" d="M243.636,-133.589C265.508,-138.626 292.506,-144.844 315.664,-150.177"/>
<polygon fill="midnightblue" stroke="midnightblue" points="315.133,-153.646 325.663,-152.48 316.704,-146.825 315.133,-153.646"/>
</g>
<!-- Node5 -->
<g id="node5" class="node"><title>Node5</title>
<g id="a_node5"><a xlink:href="o_watcom_216_bit_d_o_s_2_p_c_2port_8c.html#a6844da40beef38737cda9e5a83517564" target="_top" xlink:title="void">
<polygon fill="white" stroke="black" points="350.5,-114.5 350.5,-133.5 385.5,-133.5 385.5,-114.5 350.5,-114.5"/>
<text text-anchor="middle" x="368" y="-121.5" font-family="Helvetica,sans-Serif" font-size="10.00">void</text>
</a>
</g>
</g>
<!-- Node3&#45;&gt;Node5 -->
<g id="edge4" class="edge"><title>Node3&#45;&gt;Node5</title>
<path fill="none" stroke="midnightblue" d="M243.636,-124C273.876,-124 313.915,-124 340.055,-124"/>
<polygon fill="midnightblue" stroke="midnightblue" points="340.338,-127.5 350.338,-124 340.338,-120.5 340.338,-127.5"/>
</g>
<!-- Node7 -->
<g id="node7" class="node"><title>Node7</title>
<g id="a_node7"><a xlink:href="o_watcom_216_bit_d_o_s_2_p_c_2port_8c.html#a88c1b60d0c7941f4aa7d4a14a51295b5" target="_top" xlink:title="prvPortResetPIC">
<polygon fill="white" stroke="black" points="322,-76.5 322,-95.5 414,-95.5 414,-76.5 322,-76.5"/>
<text text-anchor="middle" x="368" y="-83.5" font-family="Helvetica,sans-Serif" font-size="10.00">prvPortResetPIC</text>
</a>
</g>
</g>
<!-- Node6&#45;&gt;Node7 -->
<g id="edge6" class="edge"><title>Node6&#45;&gt;Node7</title>
<path fill="none" stroke="midnightblue" d="M260.173,-86C276.923,-86 295.142,-86 311.712,-86"/>
<polygon fill="midnightblue" stroke="midnightblue" points="311.789,-89.5001 321.789,-86 311.789,-82.5001 311.789,-89.5001"/>
</g>
<!-- Node8 -->
<g id="node8" class="node"><title>Node8</title>
<g id="a_node8"><a xlink:href="task_8h.html#a978e25460ac35706f9ad30b46d9403d8" target="_top" xlink:title="xTaskIncrementTick">
<polygon fill="white" stroke="black" points="315,-38.5 315,-57.5 421,-57.5 421,-38.5 315,-38.5"/>
<text text-anchor="middle" x="368" y="-45.5" font-family="Helvetica,sans-Serif" font-size="10.00">xTaskIncrementTick</text>
</a>
</g>
</g>
<!-- Node6&#45;&gt;Node8 -->
<g id="edge7" class="edge"><title>Node6&#45;&gt;Node8</title>
<path fill="none" stroke="midnightblue" d="M243.636,-76.411C265.508,-71.3739 292.506,-65.1562 315.664,-59.8229"/>
<polygon fill="midnightblue" stroke="midnightblue" points="316.704,-63.1751 325.663,-57.5201 315.133,-56.3537 316.704,-63.1751"/>
</g>
<!-- Node9 -->
<g id="node9" class="node"><title>Node9</title>
<g id="a_node9"><a xlink:href="list_8h.html#a2eb1558482076fff8cafc63419c2d34a" target="_top" xlink:title="uxListRemove">
<polygon fill="white" stroke="black" points="476,-57.5 476,-76.5 556,-76.5 556,-57.5 476,-57.5"/>
<text text-anchor="middle" x="516" y="-64.5" font-family="Helvetica,sans-Serif" font-size="10.00">uxListRemove</text>
</a>
</g>
</g>
<!-- Node8&#45;&gt;Node9 -->
<g id="edge8" class="edge"><title>Node8&#45;&gt;Node9</title>
<path fill="none" stroke="midnightblue" d="M421.297,-54.8058C435.782,-56.6908 451.453,-58.7302 465.758,-60.5917"/>
<polygon fill="midnightblue" stroke="midnightblue" points="465.528,-64.0912 475.896,-61.9111 466.431,-57.1498 465.528,-64.0912"/>
</g>
<!-- Node10 -->
<g id="node10" class="node"><title>Node10</title>
<g id="a_node10"><a xlink:href="_paradigm_2_tern___e_e_2small_2portmacro_8h.html#a14d32f8130d3c0b212cfc751730b5b49" target="_top" xlink:title="void">
<polygon fill="white" stroke="black" points="498.5,-19.5 498.5,-38.5 533.5,-38.5 533.5,-19.5 498.5,-19.5"/>
<text text-anchor="middle" x="516" y="-26.5" font-family="Helvetica,sans-Serif" font-size="10.00">void</text>
</a>
</g>
</g>
<!-- Node8&#45;&gt;Node10 -->
<g id="edge9" class="edge"><title>Node8&#45;&gt;Node10</title>
<path fill="none" stroke="midnightblue" d="M421.297,-41.1942C444.005,-38.239 469.627,-34.9047 488.332,-32.4705"/>
<polygon fill="midnightblue" stroke="midnightblue" points="489.007,-35.9123 498.472,-31.151 488.104,-28.9708 489.007,-35.9123"/>
</g>
<!-- Node13 -->
<g id="node13" class="node"><title>Node13</title>
<g id="a_node13"><a xlink:href="o_watcom_216_bit_d_o_s_2common_2portasm_8h.html#af70bcc366f49027b3a4930a113be2dbb" target="_top" xlink:title="portSWITCH_CONTEXT">
<polygon fill="white" stroke="black" points="304.5,-0.5 304.5,-19.5 431.5,-19.5 431.5,-0.5 304.5,-0.5"/>
<text text-anchor="middle" x="368" y="-7.5" font-family="Helvetica,sans-Serif" font-size="10.00">portSWITCH_CONTEXT</text>
</a>
</g>
</g>
<!-- Node12&#45;&gt;Node13 -->
<g id="edge12" class="edge"><title>Node12&#45;&gt;Node13</title>
<path fill="none" stroke="midnightblue" d="M250.168,-10C263.925,-10 279.232,-10 294.116,-10"/>
<polygon fill="midnightblue" stroke="midnightblue" points="294.328,-13.5001 304.328,-10 294.328,-6.5001 294.328,-13.5001"/>
</g>
</g>
</svg>
