<?xml version="1.0" encoding="UTF-8" standalone="no"?>
<!DOCTYPE svg PUBLIC "-//W3C//DTD SVG 1.1//EN"
 "http://www.w3.org/Graphics/SVG/1.1/DTD/svg11.dtd">
<!-- Generated by graphviz version 2.30.1 (20130221.2233)
 -->
<!-- Title: source/portable/oWatcom/16BitDOS/common/portcomn.c Pages: 1 -->
<svg width="519pt" height="208pt"
 viewBox="0.00 0.00 519.00 208.00" xmlns="http://www.w3.org/2000/svg" xmlns:xlink="http://www.w3.org/1999/xlink">
<g id="graph0" class="graph" transform="scale(1 1) rotate(0) translate(4 204)">
<title>source/portable/oWatcom/16BitDOS/common/portcomn.c</title>
<polygon fill="white" stroke="white" points="-4,5 -4,-204 516,-204 516,5 -4,5"/>
<!-- Node1 -->
<g id="node1" class="node"><title>Node1</title>
<polygon fill="#bfbfbf" stroke="black" points="70.5,-169 70.5,-199 227.5,-199 227.5,-169 70.5,-169"/>
<text text-anchor="start" x="78.5" y="-187" font-family="Helvetica,sans-Serif" font-size="10.00">source/portable/oWatcom</text>
<text text-anchor="middle" x="149" y="-176" font-family="Helvetica,sans-Serif" font-size="10.00">/16BitDOS/common/portcomn.c</text>
</g>
<!-- Node2 -->
<g id="node2" class="node"><title>Node2</title>
<polygon fill="white" stroke="#bfbfbf" points="86,-112.5 86,-131.5 134,-131.5 134,-112.5 86,-112.5"/>
<text text-anchor="middle" x="110" y="-119.5" font-family="Helvetica,sans-Serif" font-size="10.00">stdlib.h</text>
</g>
<!-- Node1&#45;&gt;Node2 -->
<g id="edge1" class="edge"><title>Node1&#45;&gt;Node2</title>
<path fill="none" stroke="midnightblue" d="M139.758,-168.781C134.207,-160.242 127.107,-149.318 121.234,-140.283"/>
<polygon fill="midnightblue" stroke="midnightblue" points="124.059,-138.208 115.675,-131.731 118.19,-142.022 124.059,-138.208"/>
</g>
<!-- Node3 -->
<g id="node3" class="node"><title>Node3</title>
<g id="a_node3"><a xlink:href="_free_r_t_o_s_8h.html" target="_top" xlink:title="FreeRTOS.h">
<polygon fill="white" stroke="black" points="152.5,-112.5 152.5,-131.5 225.5,-131.5 225.5,-112.5 152.5,-112.5"/>
<text text-anchor="middle" x="189" y="-119.5" font-family="Helvetica,sans-Serif" font-size="10.00">FreeRTOS.h</text>
</a>
</g>
</g>
<!-- Node1&#45;&gt;Node3 -->
<g id="edge2" class="edge"><title>Node1&#45;&gt;Node3</title>
<path fill="none" stroke="midnightblue" d="M158.479,-168.781C164.172,-160.242 171.454,-149.318 177.478,-140.283"/>
<polygon fill="midnightblue" stroke="midnightblue" points="180.545,-141.993 183.18,-131.731 174.72,-138.11 180.545,-141.993"/>
</g>
<!-- Node4 -->
<g id="node4" class="node"><title>Node4</title>
<polygon fill="white" stroke="#bfbfbf" points="0,-56.5 0,-75.5 52,-75.5 52,-56.5 0,-56.5"/>
<text text-anchor="middle" x="26" y="-63.5" font-family="Helvetica,sans-Serif" font-size="10.00">stddef.h</text>
</g>
<!-- Node3&#45;&gt;Node4 -->
<g id="edge3" class="edge"><title>Node3&#45;&gt;Node4</title>
<path fill="none" stroke="midnightblue" d="M163.172,-112.444C135.751,-103.359 92.2225,-88.9388 61.5676,-78.7831"/>
<polygon fill="midnightblue" stroke="midnightblue" points="62.3003,-75.3389 51.707,-75.5164 60.0989,-81.9837 62.3003,-75.3389"/>
</g>
<!-- Node5 -->
<g id="node5" class="node"><title>Node5</title>
<polygon fill="white" stroke="#bfbfbf" points="70.5,-56.5 70.5,-75.5 119.5,-75.5 119.5,-56.5 70.5,-56.5"/>
<text text-anchor="middle" x="95" y="-63.5" font-family="Helvetica,sans-Serif" font-size="10.00">stdint.h</text>
</g>
<!-- Node3&#45;&gt;Node5 -->
<g id="edge4" class="edge"><title>Node3&#45;&gt;Node5</title>
<path fill="none" stroke="midnightblue" d="M173.897,-112.324C159.097,-103.822 136.306,-90.7288 119.018,-80.7975"/>
<polygon fill="midnightblue" stroke="midnightblue" points="120.48,-77.6009 110.065,-75.6545 116.993,-83.6707 120.48,-77.6009"/>
</g>
<!-- Node6 -->
<g id="node6" class="node"><title>Node6</title>
<polygon fill="white" stroke="#bfbfbf" points="138,-56.5 138,-75.5 240,-75.5 240,-56.5 138,-56.5"/>
<text text-anchor="middle" x="189" y="-63.5" font-family="Helvetica,sans-Serif" font-size="10.00">FreeRTOSConfig.h</text>
</g>
<!-- Node3&#45;&gt;Node6 -->
<g id="edge5" class="edge"><title>Node3&#45;&gt;Node6</title>
<path fill="none" stroke="midnightblue" d="M189,-112.083C189,-105.006 189,-94.8611 189,-85.9865"/>
<polygon fill="midnightblue" stroke="midnightblue" points="192.5,-85.751 189,-75.7511 185.5,-85.7511 192.5,-85.751"/>
</g>
<!-- Node7 -->
<g id="node7" class="node"><title>Node7</title>
<g id="a_node7"><a xlink:href="projdefs_8h.html" target="_top" xlink:title="projdefs.h">
<polygon fill="white" stroke="black" points="258,-56.5 258,-75.5 318,-75.5 318,-56.5 258,-56.5"/>
<text text-anchor="middle" x="288" y="-63.5" font-family="Helvetica,sans-Serif" font-size="10.00">projdefs.h</text>
</a>
</g>
</g>
<!-- Node3&#45;&gt;Node7 -->
<g id="edge6" class="edge"><title>Node3&#45;&gt;Node7</title>
<path fill="none" stroke="midnightblue" d="M204.906,-112.324C220.638,-103.743 244.942,-90.486 263.209,-80.5224"/>
<polygon fill="midnightblue" stroke="midnightblue" points="265.03,-83.5157 272.133,-75.6545 261.678,-77.3704 265.03,-83.5157"/>
</g>
<!-- Node8 -->
<g id="node8" class="node"><title>Node8</title>
<g id="a_node8"><a xlink:href="portable_8h.html" target="_top" xlink:title="portable.h">
<polygon fill="white" stroke="black" points="336.5,-56.5 336.5,-75.5 397.5,-75.5 397.5,-56.5 336.5,-56.5"/>
<text text-anchor="middle" x="367" y="-63.5" font-family="Helvetica,sans-Serif" font-size="10.00">portable.h</text>
</a>
</g>
</g>
<!-- Node3&#45;&gt;Node8 -->
<g id="edge7" class="edge"><title>Node3&#45;&gt;Node8</title>
<path fill="none" stroke="midnightblue" d="M217.205,-112.444C247.41,-103.28 295.511,-88.6876 329.029,-78.5192"/>
<polygon fill="midnightblue" stroke="midnightblue" points="330.374,-81.7688 338.927,-75.5164 328.342,-75.0703 330.374,-81.7688"/>
</g>
<!-- Node9 -->
<g id="node9" class="node"><title>Node9</title>
<g id="a_node9"><a xlink:href="deprecated__definitions_8h.html" target="_top" xlink:title="deprecated_definitions.h">
<polygon fill="white" stroke="black" points="188.5,-0.5 188.5,-19.5 313.5,-19.5 313.5,-0.5 188.5,-0.5"/>
<text text-anchor="middle" x="251" y="-7.5" font-family="Helvetica,sans-Serif" font-size="10.00">deprecated_definitions.h</text>
</a>
</g>
</g>
<!-- Node8&#45;&gt;Node9 -->
<g id="edge8" class="edge"><title>Node8&#45;&gt;Node9</title>
<path fill="none" stroke="midnightblue" d="M348.619,-56.4435C329.784,-47.6751 300.269,-33.9355 278.621,-23.8579"/>
<polygon fill="midnightblue" stroke="midnightblue" points="279.838,-20.5637 269.295,-19.5164 276.883,-26.9098 279.838,-20.5637"/>
</g>
<!-- Node10 -->
<g id="node10" class="node"><title>Node10</title>
<polygon fill="white" stroke="#bfbfbf" points="332,-0.5 332,-19.5 402,-19.5 402,-0.5 332,-0.5"/>
<text text-anchor="middle" x="367" y="-7.5" font-family="Helvetica,sans-Serif" font-size="10.00">portmacro.h</text>
</g>
<!-- Node8&#45;&gt;Node10 -->
<g id="edge9" class="edge"><title>Node8&#45;&gt;Node10</title>
<path fill="none" stroke="midnightblue" d="M367,-56.083C367,-49.0059 367,-38.8611 367,-29.9865"/>
<polygon fill="midnightblue" stroke="midnightblue" points="370.5,-29.751 367,-19.7511 363.5,-29.7511 370.5,-29.751"/>
</g>
<!-- Node11 -->
<g id="node11" class="node"><title>Node11</title>
<g id="a_node11"><a xlink:href="mpu__wrappers_8h.html" target="_top" xlink:title="mpu_wrappers.h">
<polygon fill="white" stroke="black" points="420.5,-0.5 420.5,-19.5 511.5,-19.5 511.5,-0.5 420.5,-0.5"/>
<text text-anchor="middle" x="466" y="-7.5" font-family="Helvetica,sans-Serif" font-size="10.00">mpu_wrappers.h</text>
</a>
</g>
</g>
<!-- Node8&#45;&gt;Node11 -->
<g id="edge10" class="edge"><title>Node8&#45;&gt;Node11</title>
<path fill="none" stroke="midnightblue" d="M382.906,-56.324C398.638,-47.7428 422.942,-34.486 441.209,-24.5224"/>
<polygon fill="midnightblue" stroke="midnightblue" points="443.03,-27.5157 450.133,-19.6545 439.678,-21.3704 443.03,-27.5157"/>
</g>
</g>
</svg>
