<?xml version="1.0" encoding="UTF-8" standalone="no"?>
<!DOCTYPE svg PUBLIC "-//W3C//DTD SVG 1.1//EN"
 "http://www.w3.org/Graphics/SVG/1.1/DTD/svg11.dtd">
<!-- Generated by graphviz version 2.30.1 (20130221.2233)
 -->
<!-- Title: portSWITCH_CONTEXT Pages: 1 -->
<svg width="412pt" height="28pt"
 viewBox="0.00 0.00 412.00 28.00" xmlns="http://www.w3.org/2000/svg" xmlns:xlink="http://www.w3.org/1999/xlink">
<g id="graph0" class="graph" transform="scale(1 1) rotate(0) translate(4 24)">
<title>portSWITCH_CONTEXT</title>
<polygon fill="white" stroke="white" points="-4,5 -4,-24 409,-24 409,5 -4,5"/>
<!-- Node1 -->
<g id="node1" class="node"><title>Node1</title>
<polygon fill="#bfbfbf" stroke="black" points="0.5,-0.5 0.5,-19.5 127.5,-19.5 127.5,-0.5 0.5,-0.5"/>
<text text-anchor="middle" x="64" y="-7.5" font-family="Helvetica,sans-Serif" font-size="10.00">portSWITCH_CONTEXT</text>
</g>
<!-- Node2 -->
<g id="node2" class="node"><title>Node2</title>
<g id="a_node2"><a xlink:href="_b_c_c_216_bit_d_o_s_2_flsh186_2port_8c.html#a45db6cc1dd49dae903bd425b5c2027f9" target="_top" xlink:title="prvYieldProcessor">
<polygon fill="white" stroke="black" points="164,-0.5 164,-19.5 262,-19.5 262,-0.5 164,-0.5"/>
<text text-anchor="middle" x="213" y="-7.5" font-family="Helvetica,sans-Serif" font-size="10.00">prvYieldProcessor</text>
</a>
</g>
</g>
<!-- Node1&#45;&gt;Node2 -->
<g id="edge1" class="edge"><title>Node1&#45;&gt;Node2</title>
<path fill="none" stroke="midnightblue" d="M137.971,-10C146.691,-10 155.422,-10 163.671,-10"/>
<polygon fill="midnightblue" stroke="midnightblue" points="137.768,-6.5001 127.768,-10 137.768,-13.5001 137.768,-6.5001"/>
</g>
<!-- Node3 -->
<g id="node3" class="node"><title>Node3</title>
<g id="a_node3"><a xlink:href="_b_c_c_216_bit_d_o_s_2_flsh186_2port_8c.html#ade5a8c6666e7413a0355cc252029c5c6" target="_top" xlink:title="xPortStartScheduler">
<polygon fill="white" stroke="black" points="298,-0.5 298,-19.5 404,-19.5 404,-0.5 298,-0.5"/>
<text text-anchor="middle" x="351" y="-7.5" font-family="Helvetica,sans-Serif" font-size="10.00">xPortStartScheduler</text>
</a>
</g>
</g>
<!-- Node2&#45;&gt;Node3 -->
<g id="edge2" class="edge"><title>Node2&#45;&gt;Node3</title>
<path fill="none" stroke="midnightblue" d="M272.432,-10C280.821,-10 289.409,-10 297.671,-10"/>
<polygon fill="midnightblue" stroke="midnightblue" points="272.331,-6.5001 262.331,-10 272.331,-13.5001 272.331,-6.5001"/>
</g>
</g>
</svg>
