<?xml version="1.0" encoding="UTF-8" standalone="no"?>
<!DOCTYPE svg PUBLIC "-//W3C//DTD SVG 1.1//EN"
 "http://www.w3.org/Graphics/SVG/1.1/DTD/svg11.dtd">
<!-- Generated by graphviz version 2.30.1 (20130221.2233)
 -->
<!-- Title: xPortStartScheduler Pages: 1 -->
<svg width="548pt" height="180pt"
 viewBox="0.00 0.00 548.00 180.00" xmlns="http://www.w3.org/2000/svg" xmlns:xlink="http://www.w3.org/1999/xlink">
<g id="graph0" class="graph" transform="scale(1 1) rotate(0) translate(4 176)">
<title>xPortStartScheduler</title>
<polygon fill="white" stroke="white" points="-4,5 -4,-176 545,-176 545,5 -4,5"/>
<!-- Node1 -->
<g id="node1" class="node"><title>Node1</title>
<polygon fill="#bfbfbf" stroke="black" points="0,-76.5 0,-95.5 106,-95.5 106,-76.5 0,-76.5"/>
<text text-anchor="middle" x="53" y="-83.5" font-family="Helvetica,sans-Serif" font-size="10.00">xPortStartScheduler</text>
</g>
<!-- Node2 -->
<g id="node2" class="node"><title>Node2</title>
<g id="a_node2"><a xlink:href="o_watcom_216_bit_d_o_s_2common_2portasm_8h.html#a1417b1dac299b0a3773613340427aa14" target="_top" xlink:title="portFIRST_CONTEXT">
<polygon fill="white" stroke="black" points="143,-152.5 143,-171.5 259,-171.5 259,-152.5 143,-152.5"/>
<text text-anchor="middle" x="201" y="-159.5" font-family="Helvetica,sans-Serif" font-size="10.00">portFIRST_CONTEXT</text>
</a>
</g>
</g>
<!-- Node1&#45;&gt;Node2 -->
<g id="edge1" class="edge"><title>Node1&#45;&gt;Node2</title>
<path fill="none" stroke="midnightblue" d="M66.5057,-95.5957C83.0378,-107.921 113.421,-129.347 142,-143 146.603,-145.199 151.525,-147.243 156.485,-149.112"/>
<polygon fill="midnightblue" stroke="midnightblue" points="155.399,-152.44 165.993,-152.486 157.74,-145.843 155.399,-152.44"/>
</g>
<!-- Node3 -->
<g id="node3" class="node"><title>Node3</title>
<g id="a_node3"><a xlink:href="o_watcom_216_bit_d_o_s_2_flsh186_2port_8c.html#a00a48cbe854dbefdb16fe52c71a4d661" target="_top" xlink:title="prvExitFunction">
<polygon fill="white" stroke="black" points="158.5,-114.5 158.5,-133.5 243.5,-133.5 243.5,-114.5 158.5,-114.5"/>
<text text-anchor="middle" x="201" y="-121.5" font-family="Helvetica,sans-Serif" font-size="10.00">prvExitFunction</text>
</a>
</g>
</g>
<!-- Node1&#45;&gt;Node3 -->
<g id="edge2" class="edge"><title>Node1&#45;&gt;Node3</title>
<path fill="none" stroke="midnightblue" d="M90.842,-95.589C109.848,-100.536 133.229,-106.621 153.469,-111.889"/>
<polygon fill="midnightblue" stroke="midnightblue" points="152.864,-115.348 163.423,-114.48 154.627,-108.574 152.864,-115.348"/>
</g>
<!-- Node4 -->
<g id="node4" class="node"><title>Node4</title>
<g id="a_node4"><a xlink:href="o_watcom_216_bit_d_o_s_2_flsh186_2port_8c.html#acf9df4f9ff9bc642609898d1a7503a53" target="_top" xlink:title="prvNonPreemptiveTick">
<polygon fill="white" stroke="black" points="142,-76.5 142,-95.5 260,-95.5 260,-76.5 142,-76.5"/>
<text text-anchor="middle" x="201" y="-83.5" font-family="Helvetica,sans-Serif" font-size="10.00">prvNonPreemptiveTick</text>
</a>
</g>
</g>
<!-- Node1&#45;&gt;Node4 -->
<g id="edge3" class="edge"><title>Node1&#45;&gt;Node4</title>
<path fill="none" stroke="midnightblue" d="M106.297,-86C114.589,-86 123.27,-86 131.86,-86"/>
<polygon fill="midnightblue" stroke="midnightblue" points="131.875,-89.5001 141.875,-86 131.875,-82.5001 131.875,-89.5001"/>
</g>
<!-- Node8 -->
<g id="node8" class="node"><title>Node8</title>
<g id="a_node8"><a xlink:href="o_watcom_216_bit_d_o_s_2_flsh186_2port_8c.html#a5959625826e2b2a3f4b14c49c24f9737" target="_top" xlink:title="prvSetTickFrequency">
<polygon fill="white" stroke="black" points="145.5,-38.5 145.5,-57.5 256.5,-57.5 256.5,-38.5 145.5,-38.5"/>
<text text-anchor="middle" x="201" y="-45.5" font-family="Helvetica,sans-Serif" font-size="10.00">prvSetTickFrequency</text>
</a>
</g>
</g>
<!-- Node1&#45;&gt;Node8 -->
<g id="edge7" class="edge"><title>Node1&#45;&gt;Node8</title>
<path fill="none" stroke="midnightblue" d="M90.842,-76.411C109.848,-71.4642 133.229,-65.3789 153.469,-60.1108"/>
<polygon fill="midnightblue" stroke="midnightblue" points="154.627,-63.4261 163.423,-57.5201 152.864,-56.6518 154.627,-63.4261"/>
</g>
<!-- Node9 -->
<g id="node9" class="node"><title>Node9</title>
<g id="a_node9"><a xlink:href="o_watcom_216_bit_d_o_s_2_flsh186_2port_8c.html#a45db6cc1dd49dae903bd425b5c2027f9" target="_top" xlink:title="prvYieldProcessor">
<polygon fill="white" stroke="black" points="152,-0.5 152,-19.5 250,-19.5 250,-0.5 152,-0.5"/>
<text text-anchor="middle" x="201" y="-7.5" font-family="Helvetica,sans-Serif" font-size="10.00">prvYieldProcessor</text>
</a>
</g>
</g>
<!-- Node1&#45;&gt;Node9 -->
<g id="edge8" class="edge"><title>Node1&#45;&gt;Node9</title>
<path fill="none" stroke="midnightblue" d="M66.5057,-76.4043C83.0378,-64.079 113.421,-42.653 142,-29 146.603,-26.8012 151.525,-24.7574 156.485,-22.8882"/>
<polygon fill="midnightblue" stroke="midnightblue" points="157.74,-26.1568 165.993,-19.5138 155.399,-19.5599 157.74,-26.1568"/>
</g>
<!-- Node5 -->
<g id="node5" class="node"><title>Node5</title>
<g id="a_node5"><a xlink:href="task_8h.html#a978e25460ac35706f9ad30b46d9403d8" target="_top" xlink:title="xTaskIncrementTick">
<polygon fill="white" stroke="black" points="307,-76.5 307,-95.5 413,-95.5 413,-76.5 307,-76.5"/>
<text text-anchor="middle" x="360" y="-83.5" font-family="Helvetica,sans-Serif" font-size="10.00">xTaskIncrementTick</text>
</a>
</g>
</g>
<!-- Node4&#45;&gt;Node5 -->
<g id="edge4" class="edge"><title>Node4&#45;&gt;Node5</title>
<path fill="none" stroke="midnightblue" d="M260.015,-86C272.026,-86 284.724,-86 296.875,-86"/>
<polygon fill="midnightblue" stroke="midnightblue" points="296.926,-89.5001 306.926,-86 296.926,-82.5001 296.926,-89.5001"/>
</g>
<!-- Node6 -->
<g id="node6" class="node"><title>Node6</title>
<g id="a_node6"><a xlink:href="list_8h.html#a2eb1558482076fff8cafc63419c2d34a" target="_top" xlink:title="uxListRemove">
<polygon fill="white" stroke="black" points="460,-95.5 460,-114.5 540,-114.5 540,-95.5 460,-95.5"/>
<text text-anchor="middle" x="500" y="-102.5" font-family="Helvetica,sans-Serif" font-size="10.00">uxListRemove</text>
</a>
</g>
</g>
<!-- Node5&#45;&gt;Node6 -->
<g id="edge5" class="edge"><title>Node5&#45;&gt;Node6</title>
<path fill="none" stroke="midnightblue" d="M413.172,-93.1831C425.097,-94.8249 437.736,-96.5651 449.543,-98.1907"/>
<polygon fill="midnightblue" stroke="midnightblue" points="449.281,-101.688 459.665,-99.5844 450.236,-94.753 449.281,-101.688"/>
</g>
<!-- Node7 -->
<g id="node7" class="node"><title>Node7</title>
<g id="a_node7"><a xlink:href="_paradigm_2_tern___e_e_2small_2portmacro_8h.html#a14d32f8130d3c0b212cfc751730b5b49" target="_top" xlink:title="void">
<polygon fill="white" stroke="black" points="482.5,-57.5 482.5,-76.5 517.5,-76.5 517.5,-57.5 482.5,-57.5"/>
<text text-anchor="middle" x="500" y="-64.5" font-family="Helvetica,sans-Serif" font-size="10.00">void</text>
</a>
</g>
</g>
<!-- Node5&#45;&gt;Node7 -->
<g id="edge6" class="edge"><title>Node5&#45;&gt;Node7</title>
<path fill="none" stroke="midnightblue" d="M413.172,-78.8169C433.333,-76.0411 455.535,-72.9843 472.307,-70.6752"/>
<polygon fill="midnightblue" stroke="midnightblue" points="473.038,-74.1075 482.468,-69.2762 472.084,-67.1729 473.038,-74.1075"/>
</g>
<!-- Node10 -->
<g id="node10" class="node"><title>Node10</title>
<g id="a_node10"><a xlink:href="o_watcom_216_bit_d_o_s_2common_2portasm_8h.html#af70bcc366f49027b3a4930a113be2dbb" target="_top" xlink:title="portSWITCH_CONTEXT">
<polygon fill="white" stroke="black" points="296.5,-0.5 296.5,-19.5 423.5,-19.5 423.5,-0.5 296.5,-0.5"/>
<text text-anchor="middle" x="360" y="-7.5" font-family="Helvetica,sans-Serif" font-size="10.00">portSWITCH_CONTEXT</text>
</a>
</g>
</g>
<!-- Node9&#45;&gt;Node10 -->
<g id="edge9" class="edge"><title>Node9&#45;&gt;Node10</title>
<path fill="none" stroke="midnightblue" d="M250.386,-10C261.719,-10 274.039,-10 286.176,-10"/>
<polygon fill="midnightblue" stroke="midnightblue" points="286.303,-13.5001 296.303,-10 286.303,-6.5001 286.303,-13.5001"/>
</g>
</g>
</svg>
