<?xml version="1.0" encoding="UTF-8" standalone="no"?>
<!DOCTYPE svg PUBLIC "-//W3C//DTD SVG 1.1//EN"
 "http://www.w3.org/Graphics/SVG/1.1/DTD/svg11.dtd">
<!-- Generated by graphviz version 2.30.1 (20130221.2233)
 -->
<!-- Title: source/portable/oWatcom/16BitDOS/Flsh186/port.c Pages: 1 -->
<svg width="571pt" height="208pt"
 viewBox="0.00 0.00 571.00 208.00" xmlns="http://www.w3.org/2000/svg" xmlns:xlink="http://www.w3.org/1999/xlink">
<g id="graph0" class="graph" transform="scale(1 1) rotate(0) translate(4 204)">
<title>source/portable/oWatcom/16BitDOS/Flsh186/port.c</title>
<polygon fill="white" stroke="white" points="-4,5 -4,-204 568,-204 568,5 -4,5"/>
<!-- Node1 -->
<g id="node1" class="node"><title>Node1</title>
<polygon fill="#bfbfbf" stroke="black" points="144,-169 144,-199 274,-199 274,-169 144,-169"/>
<text text-anchor="start" x="152" y="-187" font-family="Helvetica,sans-Serif" font-size="10.00">source/portable/oWatcom</text>
<text text-anchor="middle" x="209" y="-176" font-family="Helvetica,sans-Serif" font-size="10.00">/16BitDOS/Flsh186/port.c</text>
</g>
<!-- Node2 -->
<g id="node2" class="node"><title>Node2</title>
<polygon fill="white" stroke="#bfbfbf" points="0,-112.5 0,-131.5 48,-131.5 48,-112.5 0,-112.5"/>
<text text-anchor="middle" x="24" y="-119.5" font-family="Helvetica,sans-Serif" font-size="10.00">stdlib.h</text>
</g>
<!-- Node1&#45;&gt;Node2 -->
<g id="edge1" class="edge"><title>Node1&#45;&gt;Node2</title>
<path fill="none" stroke="midnightblue" d="M165.626,-168.933C132.714,-158.259 88.1149,-143.794 57.8195,-133.968"/>
<polygon fill="midnightblue" stroke="midnightblue" points="58.7234,-130.582 48.1314,-130.826 56.5638,-137.241 58.7234,-130.582"/>
</g>
<!-- Node3 -->
<g id="node3" class="node"><title>Node3</title>
<polygon fill="white" stroke="#bfbfbf" points="66,-112.5 66,-131.5 104,-131.5 104,-112.5 66,-112.5"/>
<text text-anchor="middle" x="85" y="-119.5" font-family="Helvetica,sans-Serif" font-size="10.00">i86.h</text>
</g>
<!-- Node1&#45;&gt;Node3 -->
<g id="edge2" class="edge"><title>Node1&#45;&gt;Node3</title>
<path fill="none" stroke="midnightblue" d="M179.928,-168.933C159.381,-158.991 132.037,-145.76 111.975,-136.053"/>
<polygon fill="midnightblue" stroke="midnightblue" points="113.299,-132.805 102.773,-131.6 110.251,-139.106 113.299,-132.805"/>
</g>
<!-- Node4 -->
<g id="node4" class="node"><title>Node4</title>
<polygon fill="white" stroke="#bfbfbf" points="122.5,-112.5 122.5,-131.5 163.5,-131.5 163.5,-112.5 122.5,-112.5"/>
<text text-anchor="middle" x="143" y="-119.5" font-family="Helvetica,sans-Serif" font-size="10.00">dos.h</text>
</g>
<!-- Node1&#45;&gt;Node4 -->
<g id="edge3" class="edge"><title>Node1&#45;&gt;Node4</title>
<path fill="none" stroke="midnightblue" d="M193.359,-168.781C183.373,-159.703 170.422,-147.929 160.155,-138.595"/>
<polygon fill="midnightblue" stroke="midnightblue" points="162.357,-135.867 152.604,-131.731 157.649,-141.047 162.357,-135.867"/>
</g>
<!-- Node5 -->
<g id="node5" class="node"><title>Node5</title>
<polygon fill="white" stroke="#bfbfbf" points="182,-112.5 182,-131.5 236,-131.5 236,-112.5 182,-112.5"/>
<text text-anchor="middle" x="209" y="-119.5" font-family="Helvetica,sans-Serif" font-size="10.00">setjmp.h</text>
</g>
<!-- Node1&#45;&gt;Node5 -->
<g id="edge4" class="edge"><title>Node1&#45;&gt;Node5</title>
<path fill="none" stroke="midnightblue" d="M209,-168.781C209,-160.781 209,-150.689 209,-142.017"/>
<polygon fill="midnightblue" stroke="midnightblue" points="212.5,-141.73 209,-131.731 205.5,-141.731 212.5,-141.73"/>
</g>
<!-- Node6 -->
<g id="node6" class="node"><title>Node6</title>
<g id="a_node6"><a xlink:href="_free_r_t_o_s_8h.html" target="_top" xlink:title="FreeRTOS.h">
<polygon fill="white" stroke="black" points="254.5,-112.5 254.5,-131.5 327.5,-131.5 327.5,-112.5 254.5,-112.5"/>
<text text-anchor="middle" x="291" y="-119.5" font-family="Helvetica,sans-Serif" font-size="10.00">FreeRTOS.h</text>
</a>
</g>
</g>
<!-- Node1&#45;&gt;Node6 -->
<g id="edge5" class="edge"><title>Node1&#45;&gt;Node6</title>
<path fill="none" stroke="midnightblue" d="M228.433,-168.781C241.208,-159.433 257.889,-147.227 270.814,-137.77"/>
<polygon fill="midnightblue" stroke="midnightblue" points="273.065,-140.46 279.068,-131.731 268.931,-134.811 273.065,-140.46"/>
</g>
<!-- Node15 -->
<g id="node15" class="node"><title>Node15</title>
<g id="a_node15"><a xlink:href="task_8h.html" target="_top" xlink:title="task.h">
<polygon fill="white" stroke="black" points="345.5,-112.5 345.5,-131.5 388.5,-131.5 388.5,-112.5 345.5,-112.5"/>
<text text-anchor="middle" x="367" y="-119.5" font-family="Helvetica,sans-Serif" font-size="10.00">task.h</text>
</a>
</g>
</g>
<!-- Node1&#45;&gt;Node15 -->
<g id="edge14" class="edge"><title>Node1&#45;&gt;Node15</title>
<path fill="none" stroke="midnightblue" d="M246.044,-168.933C273.26,-158.597 309.836,-144.708 335.618,-134.917"/>
<polygon fill="midnightblue" stroke="midnightblue" points="337.162,-138.075 345.268,-131.253 334.677,-131.531 337.162,-138.075"/>
</g>
<!-- Node17 -->
<g id="node17" class="node"><title>Node17</title>
<polygon fill="white" stroke="#bfbfbf" points="406.5,-112.5 406.5,-131.5 467.5,-131.5 467.5,-112.5 406.5,-112.5"/>
<text text-anchor="middle" x="437" y="-119.5" font-family="Helvetica,sans-Serif" font-size="10.00">portasm.h</text>
</g>
<!-- Node1&#45;&gt;Node17 -->
<g id="edge16" class="edge"><title>Node1&#45;&gt;Node17</title>
<path fill="none" stroke="midnightblue" d="M262.456,-168.933C303.361,-158.168 358.917,-143.548 396.267,-133.719"/>
<polygon fill="midnightblue" stroke="midnightblue" points="397.512,-137.011 406.292,-131.081 395.73,-130.241 397.512,-137.011"/>
</g>
<!-- Node7 -->
<g id="node7" class="node"><title>Node7</title>
<polygon fill="white" stroke="#bfbfbf" points="52,-56.5 52,-75.5 104,-75.5 104,-56.5 52,-56.5"/>
<text text-anchor="middle" x="78" y="-63.5" font-family="Helvetica,sans-Serif" font-size="10.00">stddef.h</text>
</g>
<!-- Node6&#45;&gt;Node7 -->
<g id="edge6" class="edge"><title>Node6&#45;&gt;Node7</title>
<path fill="none" stroke="midnightblue" d="M257.25,-112.444C218.186,-102.54 154.108,-86.2949 114.08,-76.1471"/>
<polygon fill="midnightblue" stroke="midnightblue" points="114.76,-72.7087 104.206,-73.6439 113.04,-79.4941 114.76,-72.7087"/>
</g>
<!-- Node8 -->
<g id="node8" class="node"><title>Node8</title>
<polygon fill="white" stroke="#bfbfbf" points="122.5,-56.5 122.5,-75.5 171.5,-75.5 171.5,-56.5 122.5,-56.5"/>
<text text-anchor="middle" x="147" y="-63.5" font-family="Helvetica,sans-Serif" font-size="10.00">stdint.h</text>
</g>
<!-- Node6&#45;&gt;Node8 -->
<g id="edge7" class="edge"><title>Node6&#45;&gt;Node8</title>
<path fill="none" stroke="midnightblue" d="M268.183,-112.444C244.168,-103.438 206.171,-89.1891 179.131,-79.049"/>
<polygon fill="midnightblue" stroke="midnightblue" points="180.303,-75.7506 169.71,-75.5164 177.845,-82.3049 180.303,-75.7506"/>
</g>
<!-- Node9 -->
<g id="node9" class="node"><title>Node9</title>
<polygon fill="white" stroke="#bfbfbf" points="190,-56.5 190,-75.5 292,-75.5 292,-56.5 190,-56.5"/>
<text text-anchor="middle" x="241" y="-63.5" font-family="Helvetica,sans-Serif" font-size="10.00">FreeRTOSConfig.h</text>
</g>
<!-- Node6&#45;&gt;Node9 -->
<g id="edge8" class="edge"><title>Node6&#45;&gt;Node9</title>
<path fill="none" stroke="midnightblue" d="M282.744,-112.083C275.535,-104.298 264.89,-92.8015 256.154,-83.3665"/>
<polygon fill="midnightblue" stroke="midnightblue" points="258.465,-80.7108 249.103,-75.7511 253.329,-85.4666 258.465,-80.7108"/>
</g>
<!-- Node10 -->
<g id="node10" class="node"><title>Node10</title>
<g id="a_node10"><a xlink:href="projdefs_8h.html" target="_top" xlink:title="projdefs.h">
<polygon fill="white" stroke="black" points="310,-56.5 310,-75.5 370,-75.5 370,-56.5 310,-56.5"/>
<text text-anchor="middle" x="340" y="-63.5" font-family="Helvetica,sans-Serif" font-size="10.00">projdefs.h</text>
</a>
</g>
</g>
<!-- Node6&#45;&gt;Node10 -->
<g id="edge9" class="edge"><title>Node6&#45;&gt;Node10</title>
<path fill="none" stroke="midnightblue" d="M299.091,-112.083C306.155,-104.298 316.588,-92.8015 325.149,-83.3665"/>
<polygon fill="midnightblue" stroke="midnightblue" points="327.931,-85.5087 332.059,-75.7511 322.747,-80.8047 327.931,-85.5087"/>
</g>
<!-- Node11 -->
<g id="node11" class="node"><title>Node11</title>
<g id="a_node11"><a xlink:href="portable_8h.html" target="_top" xlink:title="portable.h">
<polygon fill="white" stroke="black" points="388.5,-56.5 388.5,-75.5 449.5,-75.5 449.5,-56.5 388.5,-56.5"/>
<text text-anchor="middle" x="419" y="-63.5" font-family="Helvetica,sans-Serif" font-size="10.00">portable.h</text>
</a>
</g>
</g>
<!-- Node6&#45;&gt;Node11 -->
<g id="edge10" class="edge"><title>Node6&#45;&gt;Node11</title>
<path fill="none" stroke="midnightblue" d="M311.282,-112.444C332.347,-103.557 365.517,-89.5632 389.486,-79.4514"/>
<polygon fill="midnightblue" stroke="midnightblue" points="390.96,-82.6283 398.813,-75.5164 388.239,-76.1787 390.96,-82.6283"/>
</g>
<!-- Node12 -->
<g id="node12" class="node"><title>Node12</title>
<g id="a_node12"><a xlink:href="deprecated__definitions_8h.html" target="_top" xlink:title="deprecated_definitions.h">
<polygon fill="white" stroke="black" points="240.5,-0.5 240.5,-19.5 365.5,-19.5 365.5,-0.5 240.5,-0.5"/>
<text text-anchor="middle" x="303" y="-7.5" font-family="Helvetica,sans-Serif" font-size="10.00">deprecated_definitions.h</text>
</a>
</g>
</g>
<!-- Node11&#45;&gt;Node12 -->
<g id="edge11" class="edge"><title>Node11&#45;&gt;Node12</title>
<path fill="none" stroke="midnightblue" d="M400.619,-56.4435C381.784,-47.6751 352.269,-33.9355 330.621,-23.8579"/>
<polygon fill="midnightblue" stroke="midnightblue" points="331.838,-20.5637 321.295,-19.5164 328.883,-26.9098 331.838,-20.5637"/>
</g>
<!-- Node13 -->
<g id="node13" class="node"><title>Node13</title>
<polygon fill="white" stroke="#bfbfbf" points="384,-0.5 384,-19.5 454,-19.5 454,-0.5 384,-0.5"/>
<text text-anchor="middle" x="419" y="-7.5" font-family="Helvetica,sans-Serif" font-size="10.00">portmacro.h</text>
</g>
<!-- Node11&#45;&gt;Node13 -->
<g id="edge12" class="edge"><title>Node11&#45;&gt;Node13</title>
<path fill="none" stroke="midnightblue" d="M419,-56.083C419,-49.0059 419,-38.8611 419,-29.9865"/>
<polygon fill="midnightblue" stroke="midnightblue" points="422.5,-29.751 419,-19.7511 415.5,-29.7511 422.5,-29.751"/>
</g>
<!-- Node14 -->
<g id="node14" class="node"><title>Node14</title>
<g id="a_node14"><a xlink:href="mpu__wrappers_8h.html" target="_top" xlink:title="mpu_wrappers.h">
<polygon fill="white" stroke="black" points="472.5,-0.5 472.5,-19.5 563.5,-19.5 563.5,-0.5 472.5,-0.5"/>
<text text-anchor="middle" x="518" y="-7.5" font-family="Helvetica,sans-Serif" font-size="10.00">mpu_wrappers.h</text>
</a>
</g>
</g>
<!-- Node11&#45;&gt;Node14 -->
<g id="edge13" class="edge"><title>Node11&#45;&gt;Node14</title>
<path fill="none" stroke="midnightblue" d="M434.906,-56.324C450.638,-47.7428 474.942,-34.486 493.209,-24.5224"/>
<polygon fill="midnightblue" stroke="midnightblue" points="495.03,-27.5157 502.133,-19.6545 491.678,-21.3704 495.03,-27.5157"/>
</g>
<!-- Node16 -->
<g id="node16" class="node"><title>Node16</title>
<g id="a_node16"><a xlink:href="list_8h.html" target="_top" xlink:title="list.h">
<polygon fill="white" stroke="black" points="467.5,-56.5 467.5,-75.5 504.5,-75.5 504.5,-56.5 467.5,-56.5"/>
<text text-anchor="middle" x="486" y="-63.5" font-family="Helvetica,sans-Serif" font-size="10.00">list.h</text>
</a>
</g>
</g>
<!-- Node15&#45;&gt;Node16 -->
<g id="edge15" class="edge"><title>Node15&#45;&gt;Node16</title>
<path fill="none" stroke="midnightblue" d="M385.856,-112.444C405.266,-103.636 435.73,-89.8116 457.965,-79.722"/>
<polygon fill="midnightblue" stroke="midnightblue" points="459.572,-82.836 467.232,-75.5164 456.68,-76.4615 459.572,-82.836"/>
</g>
</g>
</svg>
