<?xml version="1.0" encoding="UTF-8" standalone="no"?>
<!DOCTYPE svg PUBLIC "-//W3C//DTD SVG 1.1//EN"
 "http://www.w3.org/Graphics/SVG/1.1/DTD/svg11.dtd">
<!-- Generated by graphviz version 2.30.1 (20130221.2233)
 -->
<!-- Title: prvNonPreemptiveTick Pages: 1 -->
<svg width="384pt" height="85pt"
 viewBox="0.00 0.00 384.00 85.00" xmlns="http://www.w3.org/2000/svg" xmlns:xlink="http://www.w3.org/1999/xlink">
<g id="graph0" class="graph" transform="scale(1 1) rotate(0) translate(4 81)">
<title>prvNonPreemptiveTick</title>
<polygon fill="white" stroke="white" points="-4,5 -4,-81 381,-81 381,5 -4,5"/>
<!-- Node1 -->
<g id="node1" class="node"><title>Node1</title>
<polygon fill="#bfbfbf" stroke="black" points="0,-38.5 0,-57.5 118,-57.5 118,-38.5 0,-38.5"/>
<text text-anchor="middle" x="59" y="-45.5" font-family="Helvetica,sans-Serif" font-size="10.00">prvNonPreemptiveTick</text>
</g>
<!-- Node2 -->
<g id="node2" class="node"><title>Node2</title>
<g id="a_node2"><a xlink:href="o_watcom_216_bit_d_o_s_2_p_c_2port_8c.html#a88c1b60d0c7941f4aa7d4a14a51295b5" target="_top" xlink:title="prvPortResetPIC">
<polygon fill="white" stroke="black" points="161,-57.5 161,-76.5 253,-76.5 253,-57.5 161,-57.5"/>
<text text-anchor="middle" x="207" y="-64.5" font-family="Helvetica,sans-Serif" font-size="10.00">prvPortResetPIC</text>
</a>
</g>
</g>
<!-- Node1&#45;&gt;Node2 -->
<g id="edge1" class="edge"><title>Node1&#45;&gt;Node2</title>
<path fill="none" stroke="midnightblue" d="M118.123,-55.5639C128.849,-56.9598 140.023,-58.414 150.665,-59.7988"/>
<polygon fill="midnightblue" stroke="midnightblue" points="150.304,-63.2813 160.672,-61.1012 151.207,-56.3398 150.304,-63.2813"/>
</g>
<!-- Node3 -->
<g id="node3" class="node"><title>Node3</title>
<g id="a_node3"><a xlink:href="task_8h.html#a978e25460ac35706f9ad30b46d9403d8" target="_top" xlink:title="xTaskIncrementTick">
<polygon fill="white" stroke="black" points="154,-19.5 154,-38.5 260,-38.5 260,-19.5 154,-19.5"/>
<text text-anchor="middle" x="207" y="-26.5" font-family="Helvetica,sans-Serif" font-size="10.00">xTaskIncrementTick</text>
</a>
</g>
</g>
<!-- Node1&#45;&gt;Node3 -->
<g id="edge2" class="edge"><title>Node1&#45;&gt;Node3</title>
<path fill="none" stroke="midnightblue" d="M118.123,-40.4361C126.49,-39.3472 135.129,-38.2229 143.576,-37.1237"/>
<polygon fill="midnightblue" stroke="midnightblue" points="144.287,-40.5608 153.751,-35.7995 143.383,-33.6193 144.287,-40.5608"/>
</g>
<!-- Node4 -->
<g id="node4" class="node"><title>Node4</title>
<g id="a_node4"><a xlink:href="list_8h.html#a2eb1558482076fff8cafc63419c2d34a" target="_top" xlink:title="uxListRemove">
<polygon fill="white" stroke="black" points="296,-38.5 296,-57.5 376,-57.5 376,-38.5 296,-38.5"/>
<text text-anchor="middle" x="336" y="-45.5" font-family="Helvetica,sans-Serif" font-size="10.00">uxListRemove</text>
</a>
</g>
</g>
<!-- Node3&#45;&gt;Node4 -->
<g id="edge3" class="edge"><title>Node3&#45;&gt;Node4</title>
<path fill="none" stroke="midnightblue" d="M260.022,-36.7828C268.496,-38.0506 277.252,-39.3605 285.659,-40.6183"/>
<polygon fill="midnightblue" stroke="midnightblue" points="285.291,-44.102 295.698,-42.1202 286.326,-37.1791 285.291,-44.102"/>
</g>
<!-- Node5 -->
<g id="node5" class="node"><title>Node5</title>
<g id="a_node5"><a xlink:href="_paradigm_2_tern___e_e_2small_2portmacro_8h.html#a14d32f8130d3c0b212cfc751730b5b49" target="_top" xlink:title="void">
<polygon fill="white" stroke="black" points="318.5,-0.5 318.5,-19.5 353.5,-19.5 353.5,-0.5 318.5,-0.5"/>
<text text-anchor="middle" x="336" y="-7.5" font-family="Helvetica,sans-Serif" font-size="10.00">void</text>
</a>
</g>
</g>
<!-- Node3&#45;&gt;Node5 -->
<g id="edge4" class="edge"><title>Node3&#45;&gt;Node5</title>
<path fill="none" stroke="midnightblue" d="M260.022,-21.2172C276.617,-18.7345 294.293,-16.09 308.312,-13.9926"/>
<polygon fill="midnightblue" stroke="midnightblue" points="308.87,-17.4483 318.242,-12.5071 307.834,-10.5253 308.87,-17.4483"/>
</g>
</g>
</svg>
