<?xml version="1.0" encoding="UTF-8" standalone="no"?>
<!DOCTYPE svg PUBLIC "-//W3C//DTD SVG 1.1//EN"
 "http://www.w3.org/Graphics/SVG/1.1/DTD/svg11.dtd">
<!-- Generated by graphviz version 2.30.1 (20130221.2233)
 -->
<!-- Title: portENTER_CRITICAL Pages: 1 -->
<svg width="580pt" height="142pt"
 viewBox="0.00 0.00 580.00 142.00" xmlns="http://www.w3.org/2000/svg" xmlns:xlink="http://www.w3.org/1999/xlink">
<g id="graph0" class="graph" transform="scale(1 1) rotate(0) translate(4 138)">
<title>portENTER_CRITICAL</title>
<polygon fill="white" stroke="white" points="-4,5 -4,-138 577,-138 577,5 -4,5"/>
<!-- Node1 -->
<g id="node1" class="node"><title>Node1</title>
<polygon fill="#bfbfbf" stroke="black" points="0.5,-57.5 0.5,-76.5 119.5,-76.5 119.5,-57.5 0.5,-57.5"/>
<text text-anchor="middle" x="60" y="-64.5" font-family="Helvetica,sans-Serif" font-size="10.00">portENTER_CRITICAL</text>
</g>
<!-- Node2 -->
<g id="node2" class="node"><title>Node2</title>
<g id="a_node2"><a xlink:href="_g_c_c_2_a_v_r32___u_c3_2port_8c.html#ae17f84edd67d6e218b43620ca2954e3c" target="_top" xlink:title="__attribute__">
<polygon fill="white" stroke="black" points="177.5,-114.5 177.5,-133.5 252.5,-133.5 252.5,-114.5 177.5,-114.5"/>
<text text-anchor="middle" x="215" y="-121.5" font-family="Helvetica,sans-Serif" font-size="10.00">__attribute__</text>
</a>
</g>
</g>
<!-- Node1&#45;&gt;Node2 -->
<g id="edge1" class="edge"><title>Node1&#45;&gt;Node2</title>
<path fill="none" stroke="midnightblue" d="M93.2082,-80.478C111.51,-87.9866 134.913,-97.3377 156,-105 164.863,-108.221 174.574,-111.498 183.472,-114.404"/>
<polygon fill="midnightblue" stroke="midnightblue" points="94.457,-77.2071 83.8779,-76.6287 91.7873,-83.678 94.457,-77.2071"/>
</g>
<!-- Node3 -->
<g id="node3" class="node"><title>Node3</title>
<g id="a_node3"><a xlink:href="_g_c_c_2_tri_core__1782_2port_8c.html#a5986ea73d477ec35723b0e09e0cdcbb7" target="_top" xlink:title="prvSystemTickHandler">
<polygon fill="white" stroke="black" points="156.5,-76.5 156.5,-95.5 273.5,-95.5 273.5,-76.5 156.5,-76.5"/>
<text text-anchor="middle" x="215" y="-83.5" font-family="Helvetica,sans-Serif" font-size="10.00">prvSystemTickHandler</text>
</a>
</g>
</g>
<!-- Node1&#45;&gt;Node3 -->
<g id="edge2" class="edge"><title>Node1&#45;&gt;Node3</title>
<path fill="none" stroke="midnightblue" d="M129.715,-75.5332C138.648,-76.6426 147.725,-77.7697 156.45,-78.8533"/>
<polygon fill="midnightblue" stroke="midnightblue" points="130.071,-72.0507 119.716,-74.2916 129.209,-78.9973 130.071,-72.0507"/>
</g>
<!-- Node6 -->
<g id="node6" class="node"><title>Node6</title>
<g id="a_node6"><a xlink:href="_g_c_c_2_micro_blaze_2port_8c.html#add01c927fb689f7ec170e42d47d27927" target="_top" xlink:title="vPortYield">
<polygon fill="white" stroke="black" points="184,-38.5 184,-57.5 246,-57.5 246,-38.5 184,-38.5"/>
<text text-anchor="middle" x="215" y="-45.5" font-family="Helvetica,sans-Serif" font-size="10.00">vPortYield</text>
</a>
</g>
</g>
<!-- Node1&#45;&gt;Node6 -->
<g id="edge5" class="edge"><title>Node1&#45;&gt;Node6</title>
<path fill="none" stroke="midnightblue" d="M129.846,-58.4505C148.798,-56.0969 168.384,-53.6648 183.886,-51.7396"/>
<polygon fill="midnightblue" stroke="midnightblue" points="129.209,-55.0027 119.716,-59.7084 130.071,-61.9493 129.209,-55.0027"/>
</g>
<!-- Node7 -->
<g id="node7" class="node"><title>Node7</title>
<g id="a_node7"><a xlink:href="_i_a_r_2_a_v_r32___u_c3_2port_8c.html#a4d7be48967d0bbfac84a6d33223702a2" target="_top" xlink:title="vTick">
<polygon fill="white" stroke="black" points="195,-0.5 195,-19.5 235,-19.5 235,-0.5 195,-0.5"/>
<text text-anchor="middle" x="215" y="-7.5" font-family="Helvetica,sans-Serif" font-size="10.00">vTick</text>
</a>
</g>
</g>
<!-- Node1&#45;&gt;Node7 -->
<g id="edge6" class="edge"><title>Node1&#45;&gt;Node7</title>
<path fill="none" stroke="midnightblue" d="M93.2082,-53.522C111.51,-46.0134 134.913,-36.6623 156,-29 168.847,-24.3318 183.474,-19.5437 194.825,-15.942"/>
<polygon fill="midnightblue" stroke="midnightblue" points="91.7873,-50.322 83.8779,-57.3713 94.457,-56.7929 91.7873,-50.322"/>
</g>
<!-- Node4 -->
<g id="node4" class="node"><title>Node4</title>
<g id="a_node4"><a xlink:href="_g_c_c_2_tri_core__1782_2port_8c.html#aeb91268bfbb6dc04ff839631ee5c72ba" target="_top" xlink:title="prvSetupTimerInterrupt">
<polygon fill="white" stroke="black" points="310.5,-76.5 310.5,-95.5 429.5,-95.5 429.5,-76.5 310.5,-76.5"/>
<text text-anchor="middle" x="370" y="-83.5" font-family="Helvetica,sans-Serif" font-size="10.00">prvSetupTimerInterrupt</text>
</a>
</g>
</g>
<!-- Node3&#45;&gt;Node4 -->
<g id="edge3" class="edge"><title>Node3&#45;&gt;Node4</title>
<path fill="none" stroke="midnightblue" d="M284.035,-86C292.8,-86 301.715,-86 310.313,-86"/>
<polygon fill="midnightblue" stroke="midnightblue" points="283.843,-82.5001 273.843,-86 283.843,-89.5001 283.843,-82.5001"/>
</g>
<!-- Node5 -->
<g id="node5" class="node"><title>Node5</title>
<g id="a_node5"><a xlink:href="_g_c_c_2_tri_core__1782_2port_8c.html#a42d48e1e07c99c055d4353dc3b38b466" target="_top" xlink:title="xPortStartScheduler">
<polygon fill="white" stroke="black" points="466,-76.5 466,-95.5 572,-95.5 572,-76.5 466,-76.5"/>
<text text-anchor="middle" x="519" y="-83.5" font-family="Helvetica,sans-Serif" font-size="10.00">xPortStartScheduler</text>
</a>
</g>
</g>
<!-- Node4&#45;&gt;Node5 -->
<g id="edge4" class="edge"><title>Node4&#45;&gt;Node5</title>
<path fill="none" stroke="midnightblue" d="M439.756,-86C448.536,-86 457.407,-86 465.865,-86"/>
<polygon fill="midnightblue" stroke="midnightblue" points="439.521,-82.5001 429.521,-86 439.521,-89.5001 439.521,-82.5001"/>
</g>
<!-- Node8 -->
<g id="node8" class="node"><title>Node8</title>
<g id="a_node8"><a xlink:href="_g_c_c_2_a_v_r32___u_c3_2port_8c.html#aeb91268bfbb6dc04ff839631ee5c72ba" target="_top" xlink:title="prvSetupTimerInterrupt">
<polygon fill="white" stroke="black" points="310.5,-0.5 310.5,-19.5 429.5,-19.5 429.5,-0.5 310.5,-0.5"/>
<text text-anchor="middle" x="370" y="-7.5" font-family="Helvetica,sans-Serif" font-size="10.00">prvSetupTimerInterrupt</text>
</a>
</g>
</g>
<!-- Node7&#45;&gt;Node8 -->
<g id="edge7" class="edge"><title>Node7&#45;&gt;Node8</title>
<path fill="none" stroke="midnightblue" d="M245.155,-10C263.575,-10 288.031,-10 310.343,-10"/>
<polygon fill="midnightblue" stroke="midnightblue" points="245.068,-6.5001 235.068,-10 245.068,-13.5001 245.068,-6.5001"/>
</g>
<!-- Node9 -->
<g id="node9" class="node"><title>Node9</title>
<g id="a_node9"><a xlink:href="_g_c_c_2_a_v_r32___u_c3_2port_8c.html#ade5a8c6666e7413a0355cc252029c5c6" target="_top" xlink:title="xPortStartScheduler">
<polygon fill="white" stroke="black" points="466,-0.5 466,-19.5 572,-19.5 572,-0.5 466,-0.5"/>
<text text-anchor="middle" x="519" y="-7.5" font-family="Helvetica,sans-Serif" font-size="10.00">xPortStartScheduler</text>
</a>
</g>
</g>
<!-- Node8&#45;&gt;Node9 -->
<g id="edge8" class="edge"><title>Node8&#45;&gt;Node9</title>
<path fill="none" stroke="midnightblue" d="M439.756,-10C448.536,-10 457.407,-10 465.865,-10"/>
<polygon fill="midnightblue" stroke="midnightblue" points="439.521,-6.5001 429.521,-10 439.521,-13.5001 439.521,-6.5001"/>
</g>
</g>
</svg>
