<?xml version="1.0" encoding="UTF-8" standalone="no"?>
<!DOCTYPE svg PUBLIC "-//W3C//DTD SVG 1.1//EN"
 "http://www.w3.org/Graphics/SVG/1.1/DTD/svg11.dtd">
<!-- Generated by graphviz version 2.30.1 (20130221.2233)
 -->
<!-- Title: source/portable/oWatcom/16BitDOS/PC/port.c Pages: 1 -->
<svg width="635pt" height="208pt"
 viewBox="0.00 0.00 635.00 208.00" xmlns="http://www.w3.org/2000/svg" xmlns:xlink="http://www.w3.org/1999/xlink">
<g id="graph0" class="graph" transform="scale(1 1) rotate(0) translate(4 204)">
<title>source/portable/oWatcom/16BitDOS/PC/port.c</title>
<polygon fill="white" stroke="white" points="-4,5 -4,-204 632,-204 632,5 -4,5"/>
<!-- Node1 -->
<g id="node1" class="node"><title>Node1</title>
<polygon fill="#bfbfbf" stroke="black" points="175,-169 175,-199 305,-199 305,-169 175,-169"/>
<text text-anchor="start" x="183" y="-187" font-family="Helvetica,sans-Serif" font-size="10.00">source/portable/oWatcom</text>
<text text-anchor="middle" x="240" y="-176" font-family="Helvetica,sans-Serif" font-size="10.00">/16BitDOS/PC/port.c</text>
</g>
<!-- Node2 -->
<g id="node2" class="node"><title>Node2</title>
<polygon fill="white" stroke="#bfbfbf" points="0,-112.5 0,-131.5 48,-131.5 48,-112.5 0,-112.5"/>
<text text-anchor="middle" x="24" y="-119.5" font-family="Helvetica,sans-Serif" font-size="10.00">stdlib.h</text>
</g>
<!-- Node1&#45;&gt;Node2 -->
<g id="edge1" class="edge"><title>Node1&#45;&gt;Node2</title>
<path fill="none" stroke="midnightblue" d="M189.358,-168.933C148.841,-157.678 93.1534,-142.209 57.8678,-132.408"/>
<polygon fill="midnightblue" stroke="midnightblue" points="58.6211,-128.985 48.0491,-129.68 56.7475,-135.729 58.6211,-128.985"/>
</g>
<!-- Node3 -->
<g id="node3" class="node"><title>Node3</title>
<g id="a_node3"><a xlink:href="stdio_8h.html" target="_top" xlink:title="stdio.h">
<polygon fill="white" stroke="black" points="66,-112.5 66,-131.5 112,-131.5 112,-112.5 66,-112.5"/>
<text text-anchor="middle" x="89" y="-119.5" font-family="Helvetica,sans-Serif" font-size="10.00">stdio.h</text>
</a>
</g>
</g>
<!-- Node1&#45;&gt;Node3 -->
<g id="edge2" class="edge"><title>Node1&#45;&gt;Node3</title>
<path fill="none" stroke="midnightblue" d="M204.597,-168.933C179.008,-158.765 144.762,-145.157 120.197,-135.396"/>
<polygon fill="midnightblue" stroke="midnightblue" points="121.229,-132.04 110.643,-131.6 118.644,-138.545 121.229,-132.04"/>
</g>
<!-- Node4 -->
<g id="node4" class="node"><title>Node4</title>
<polygon fill="white" stroke="#bfbfbf" points="130,-112.5 130,-131.5 168,-131.5 168,-112.5 130,-112.5"/>
<text text-anchor="middle" x="149" y="-119.5" font-family="Helvetica,sans-Serif" font-size="10.00">i86.h</text>
</g>
<!-- Node1&#45;&gt;Node4 -->
<g id="edge3" class="edge"><title>Node1&#45;&gt;Node4</title>
<path fill="none" stroke="midnightblue" d="M218.434,-168.781C204.034,-159.286 185.163,-146.843 170.729,-137.327"/>
<polygon fill="midnightblue" stroke="midnightblue" points="172.251,-134.138 161.976,-131.556 168.398,-139.982 172.251,-134.138"/>
</g>
<!-- Node5 -->
<g id="node5" class="node"><title>Node5</title>
<polygon fill="white" stroke="#bfbfbf" points="186.5,-112.5 186.5,-131.5 227.5,-131.5 227.5,-112.5 186.5,-112.5"/>
<text text-anchor="middle" x="207" y="-119.5" font-family="Helvetica,sans-Serif" font-size="10.00">dos.h</text>
</g>
<!-- Node1&#45;&gt;Node5 -->
<g id="edge4" class="edge"><title>Node1&#45;&gt;Node5</title>
<path fill="none" stroke="midnightblue" d="M232.179,-168.781C227.532,-160.332 221.601,-149.548 216.663,-140.569"/>
<polygon fill="midnightblue" stroke="midnightblue" points="219.688,-138.806 211.802,-131.731 213.554,-142.179 219.688,-138.806"/>
</g>
<!-- Node6 -->
<g id="node6" class="node"><title>Node6</title>
<polygon fill="white" stroke="#bfbfbf" points="246,-112.5 246,-131.5 300,-131.5 300,-112.5 246,-112.5"/>
<text text-anchor="middle" x="273" y="-119.5" font-family="Helvetica,sans-Serif" font-size="10.00">setjmp.h</text>
</g>
<!-- Node1&#45;&gt;Node6 -->
<g id="edge5" class="edge"><title>Node1&#45;&gt;Node6</title>
<path fill="none" stroke="midnightblue" d="M247.821,-168.781C252.468,-160.332 258.399,-149.548 263.337,-140.569"/>
<polygon fill="midnightblue" stroke="midnightblue" points="266.446,-142.179 268.198,-131.731 260.312,-138.806 266.446,-142.179"/>
</g>
<!-- Node7 -->
<g id="node7" class="node"><title>Node7</title>
<g id="a_node7"><a xlink:href="_free_r_t_o_s_8h.html" target="_top" xlink:title="FreeRTOS.h">
<polygon fill="white" stroke="black" points="318.5,-112.5 318.5,-131.5 391.5,-131.5 391.5,-112.5 318.5,-112.5"/>
<text text-anchor="middle" x="355" y="-119.5" font-family="Helvetica,sans-Serif" font-size="10.00">FreeRTOS.h</text>
</a>
</g>
</g>
<!-- Node1&#45;&gt;Node7 -->
<g id="edge6" class="edge"><title>Node1&#45;&gt;Node7</title>
<path fill="none" stroke="midnightblue" d="M266.962,-168.933C285.845,-159.081 310.916,-146 329.473,-136.318"/>
<polygon fill="midnightblue" stroke="midnightblue" points="331.27,-139.329 338.517,-131.6 328.032,-133.123 331.27,-139.329"/>
</g>
<!-- Node16 -->
<g id="node16" class="node"><title>Node16</title>
<g id="a_node16"><a xlink:href="task_8h.html" target="_top" xlink:title="task.h">
<polygon fill="white" stroke="black" points="409.5,-112.5 409.5,-131.5 452.5,-131.5 452.5,-112.5 409.5,-112.5"/>
<text text-anchor="middle" x="431" y="-119.5" font-family="Helvetica,sans-Serif" font-size="10.00">task.h</text>
</a>
</g>
</g>
<!-- Node1&#45;&gt;Node16 -->
<g id="edge15" class="edge"><title>Node1&#45;&gt;Node16</title>
<path fill="none" stroke="midnightblue" d="M284.781,-168.933C320.047,-157.854 368.313,-142.692 399.575,-132.872"/>
<polygon fill="midnightblue" stroke="midnightblue" points="400.99,-136.096 409.481,-129.76 398.892,-129.418 400.99,-136.096"/>
</g>
<!-- Node18 -->
<g id="node18" class="node"><title>Node18</title>
<polygon fill="white" stroke="#bfbfbf" points="470.5,-112.5 470.5,-131.5 531.5,-131.5 531.5,-112.5 470.5,-112.5"/>
<text text-anchor="middle" x="501" y="-119.5" font-family="Helvetica,sans-Serif" font-size="10.00">portasm.h</text>
</g>
<!-- Node1&#45;&gt;Node18 -->
<g id="edge17" class="edge"><title>Node1&#45;&gt;Node18</title>
<path fill="none" stroke="midnightblue" d="M301.193,-168.933C350.293,-157.645 417.833,-142.119 460.449,-132.322"/>
<polygon fill="midnightblue" stroke="midnightblue" points="461.234,-135.733 470.196,-130.081 459.666,-128.911 461.234,-135.733"/>
</g>
<!-- Node8 -->
<g id="node8" class="node"><title>Node8</title>
<polygon fill="white" stroke="#bfbfbf" points="116,-56.5 116,-75.5 168,-75.5 168,-56.5 116,-56.5"/>
<text text-anchor="middle" x="142" y="-63.5" font-family="Helvetica,sans-Serif" font-size="10.00">stddef.h</text>
</g>
<!-- Node7&#45;&gt;Node8 -->
<g id="edge7" class="edge"><title>Node7&#45;&gt;Node8</title>
<path fill="none" stroke="midnightblue" d="M321.25,-112.444C282.186,-102.54 218.108,-86.2949 178.08,-76.1471"/>
<polygon fill="midnightblue" stroke="midnightblue" points="178.76,-72.7087 168.206,-73.6439 177.04,-79.4941 178.76,-72.7087"/>
</g>
<!-- Node9 -->
<g id="node9" class="node"><title>Node9</title>
<polygon fill="white" stroke="#bfbfbf" points="186.5,-56.5 186.5,-75.5 235.5,-75.5 235.5,-56.5 186.5,-56.5"/>
<text text-anchor="middle" x="211" y="-63.5" font-family="Helvetica,sans-Serif" font-size="10.00">stdint.h</text>
</g>
<!-- Node7&#45;&gt;Node9 -->
<g id="edge8" class="edge"><title>Node7&#45;&gt;Node9</title>
<path fill="none" stroke="midnightblue" d="M332.183,-112.444C308.168,-103.438 270.171,-89.1891 243.131,-79.049"/>
<polygon fill="midnightblue" stroke="midnightblue" points="244.303,-75.7506 233.71,-75.5164 241.845,-82.3049 244.303,-75.7506"/>
</g>
<!-- Node10 -->
<g id="node10" class="node"><title>Node10</title>
<polygon fill="white" stroke="#bfbfbf" points="254,-56.5 254,-75.5 356,-75.5 356,-56.5 254,-56.5"/>
<text text-anchor="middle" x="305" y="-63.5" font-family="Helvetica,sans-Serif" font-size="10.00">FreeRTOSConfig.h</text>
</g>
<!-- Node7&#45;&gt;Node10 -->
<g id="edge9" class="edge"><title>Node7&#45;&gt;Node10</title>
<path fill="none" stroke="midnightblue" d="M346.744,-112.083C339.535,-104.298 328.89,-92.8015 320.154,-83.3665"/>
<polygon fill="midnightblue" stroke="midnightblue" points="322.465,-80.7108 313.103,-75.7511 317.329,-85.4666 322.465,-80.7108"/>
</g>
<!-- Node11 -->
<g id="node11" class="node"><title>Node11</title>
<g id="a_node11"><a xlink:href="projdefs_8h.html" target="_top" xlink:title="projdefs.h">
<polygon fill="white" stroke="black" points="374,-56.5 374,-75.5 434,-75.5 434,-56.5 374,-56.5"/>
<text text-anchor="middle" x="404" y="-63.5" font-family="Helvetica,sans-Serif" font-size="10.00">projdefs.h</text>
</a>
</g>
</g>
<!-- Node7&#45;&gt;Node11 -->
<g id="edge10" class="edge"><title>Node7&#45;&gt;Node11</title>
<path fill="none" stroke="midnightblue" d="M363.091,-112.083C370.155,-104.298 380.588,-92.8015 389.149,-83.3665"/>
<polygon fill="midnightblue" stroke="midnightblue" points="391.931,-85.5087 396.059,-75.7511 386.747,-80.8047 391.931,-85.5087"/>
</g>
<!-- Node12 -->
<g id="node12" class="node"><title>Node12</title>
<g id="a_node12"><a xlink:href="portable_8h.html" target="_top" xlink:title="portable.h">
<polygon fill="white" stroke="black" points="452.5,-56.5 452.5,-75.5 513.5,-75.5 513.5,-56.5 452.5,-56.5"/>
<text text-anchor="middle" x="483" y="-63.5" font-family="Helvetica,sans-Serif" font-size="10.00">portable.h</text>
</a>
</g>
</g>
<!-- Node7&#45;&gt;Node12 -->
<g id="edge11" class="edge"><title>Node7&#45;&gt;Node12</title>
<path fill="none" stroke="midnightblue" d="M375.282,-112.444C396.347,-103.557 429.517,-89.5632 453.486,-79.4514"/>
<polygon fill="midnightblue" stroke="midnightblue" points="454.96,-82.6283 462.813,-75.5164 452.239,-76.1787 454.96,-82.6283"/>
</g>
<!-- Node13 -->
<g id="node13" class="node"><title>Node13</title>
<g id="a_node13"><a xlink:href="deprecated__definitions_8h.html" target="_top" xlink:title="deprecated_definitions.h">
<polygon fill="white" stroke="black" points="304.5,-0.5 304.5,-19.5 429.5,-19.5 429.5,-0.5 304.5,-0.5"/>
<text text-anchor="middle" x="367" y="-7.5" font-family="Helvetica,sans-Serif" font-size="10.00">deprecated_definitions.h</text>
</a>
</g>
</g>
<!-- Node12&#45;&gt;Node13 -->
<g id="edge12" class="edge"><title>Node12&#45;&gt;Node13</title>
<path fill="none" stroke="midnightblue" d="M464.619,-56.4435C445.784,-47.6751 416.269,-33.9355 394.621,-23.8579"/>
<polygon fill="midnightblue" stroke="midnightblue" points="395.838,-20.5637 385.295,-19.5164 392.883,-26.9098 395.838,-20.5637"/>
</g>
<!-- Node14 -->
<g id="node14" class="node"><title>Node14</title>
<polygon fill="white" stroke="#bfbfbf" points="448,-0.5 448,-19.5 518,-19.5 518,-0.5 448,-0.5"/>
<text text-anchor="middle" x="483" y="-7.5" font-family="Helvetica,sans-Serif" font-size="10.00">portmacro.h</text>
</g>
<!-- Node12&#45;&gt;Node14 -->
<g id="edge13" class="edge"><title>Node12&#45;&gt;Node14</title>
<path fill="none" stroke="midnightblue" d="M483,-56.083C483,-49.0059 483,-38.8611 483,-29.9865"/>
<polygon fill="midnightblue" stroke="midnightblue" points="486.5,-29.751 483,-19.7511 479.5,-29.7511 486.5,-29.751"/>
</g>
<!-- Node15 -->
<g id="node15" class="node"><title>Node15</title>
<g id="a_node15"><a xlink:href="mpu__wrappers_8h.html" target="_top" xlink:title="mpu_wrappers.h">
<polygon fill="white" stroke="black" points="536.5,-0.5 536.5,-19.5 627.5,-19.5 627.5,-0.5 536.5,-0.5"/>
<text text-anchor="middle" x="582" y="-7.5" font-family="Helvetica,sans-Serif" font-size="10.00">mpu_wrappers.h</text>
</a>
</g>
</g>
<!-- Node12&#45;&gt;Node15 -->
<g id="edge14" class="edge"><title>Node12&#45;&gt;Node15</title>
<path fill="none" stroke="midnightblue" d="M498.906,-56.324C514.638,-47.7428 538.942,-34.486 557.209,-24.5224"/>
<polygon fill="midnightblue" stroke="midnightblue" points="559.03,-27.5157 566.133,-19.6545 555.678,-21.3704 559.03,-27.5157"/>
</g>
<!-- Node17 -->
<g id="node17" class="node"><title>Node17</title>
<g id="a_node17"><a xlink:href="list_8h.html" target="_top" xlink:title="list.h">
<polygon fill="white" stroke="black" points="531.5,-56.5 531.5,-75.5 568.5,-75.5 568.5,-56.5 531.5,-56.5"/>
<text text-anchor="middle" x="550" y="-63.5" font-family="Helvetica,sans-Serif" font-size="10.00">list.h</text>
</a>
</g>
</g>
<!-- Node16&#45;&gt;Node17 -->
<g id="edge16" class="edge"><title>Node16&#45;&gt;Node17</title>
<path fill="none" stroke="midnightblue" d="M449.856,-112.444C469.266,-103.636 499.73,-89.8116 521.965,-79.722"/>
<polygon fill="midnightblue" stroke="midnightblue" points="523.572,-82.836 531.232,-75.5164 520.68,-76.4615 523.572,-82.836"/>
</g>
</g>
</svg>
