<?xml version="1.0" encoding="UTF-8" standalone="no"?>
<!DOCTYPE svg PUBLIC "-//W3C//DTD SVG 1.1//EN"
 "http://www.w3.org/Graphics/SVG/1.1/DTD/svg11.dtd">
<!-- Generated by graphviz version 2.30.1 (20130221.2233)
 -->
<!-- Title: pxPortInitialiseStack Pages: 1 -->
<svg width="270pt" height="256pt"
 viewBox="0.00 0.00 270.00 256.00" xmlns="http://www.w3.org/2000/svg" xmlns:xlink="http://www.w3.org/1999/xlink">
<g id="graph0" class="graph" transform="scale(1 1) rotate(0) translate(4 252)">
<title>pxPortInitialiseStack</title>
<polygon fill="white" stroke="white" points="-4,5 -4,-252 267,-252 267,5 -4,5"/>
<!-- Node1 -->
<g id="node1" class="node"><title>Node1</title>
<polygon fill="#bfbfbf" stroke="black" points="0.5,-114.5 0.5,-133.5 107.5,-133.5 107.5,-114.5 0.5,-114.5"/>
<text text-anchor="middle" x="54" y="-121.5" font-family="Helvetica,sans-Serif" font-size="10.00">pxPortInitialiseStack</text>
</g>
<!-- Node2 -->
<g id="node2" class="node"><title>Node2</title>
<g id="a_node2"><a xlink:href="_g_c_c_2_nios_i_i_2port_8c.html#af12554aec821763780e57c970f983b6d" target="_top" xlink:title="prvReadGp">
<polygon fill="white" stroke="black" points="169,-228.5 169,-247.5 237,-247.5 237,-228.5 169,-228.5"/>
<text text-anchor="middle" x="203" y="-235.5" font-family="Helvetica,sans-Serif" font-size="10.00">prvReadGp</text>
</a>
</g>
</g>
<!-- Node1&#45;&gt;Node2 -->
<g id="edge1" class="edge"><title>Node1&#45;&gt;Node2</title>
<path fill="none" stroke="midnightblue" d="M61.4207,-133.578C74.6483,-152.594 106.833,-195.319 144,-219 148.692,-221.989 153.898,-224.551 159.211,-226.736"/>
<polygon fill="midnightblue" stroke="midnightblue" points="158.208,-230.096 168.801,-230.271 160.629,-223.529 158.208,-230.096"/>
</g>
<!-- Node3 -->
<g id="node3" class="node"><title>Node3</title>
<g id="a_node3"><a xlink:href="_c_c_s_2_a_r_m___c_m4_f_2port_8c.html#a813e8227aedfc6bd83c66c4a9b8e4f41" target="_top" xlink:title="prvTaskExitError">
<polygon fill="white" stroke="black" points="157.5,-190.5 157.5,-209.5 248.5,-209.5 248.5,-190.5 157.5,-190.5"/>
<text text-anchor="middle" x="203" y="-197.5" font-family="Helvetica,sans-Serif" font-size="10.00">prvTaskExitError</text>
</a>
</g>
</g>
<!-- Node1&#45;&gt;Node3 -->
<g id="edge2" class="edge"><title>Node1&#45;&gt;Node3</title>
<path fill="none" stroke="midnightblue" d="M67.6664,-133.585C84.4064,-145.898 115.157,-167.312 144,-181 148.608,-183.187 153.535,-185.223 158.496,-187.088"/>
<polygon fill="midnightblue" stroke="midnightblue" points="157.412,-190.417 168.007,-190.458 159.75,-183.819 157.412,-190.417"/>
</g>
<!-- Node4 -->
<g id="node4" class="node"><title>Node4</title>
<g id="a_node4"><a xlink:href="_m_p_l_a_b_2_p_i_c32_m_e_c14xx_2portmacro_8h.html#ad523f50bacdc86f42c830315ae15db6e" target="_top" xlink:title="ulPortGetCP0Cause">
<polygon fill="white" stroke="black" points="149.5,-152.5 149.5,-171.5 256.5,-171.5 256.5,-152.5 149.5,-152.5"/>
<text text-anchor="middle" x="203" y="-159.5" font-family="Helvetica,sans-Serif" font-size="10.00">ulPortGetCP0Cause</text>
</a>
</g>
</g>
<!-- Node1&#45;&gt;Node4 -->
<g id="edge3" class="edge"><title>Node1&#45;&gt;Node4</title>
<path fill="none" stroke="midnightblue" d="M92.0943,-133.589C111.318,-138.558 134.986,-144.677 155.429,-149.961"/>
<polygon fill="midnightblue" stroke="midnightblue" points="154.615,-153.366 165.172,-152.48 156.367,-146.588 154.615,-153.366"/>
</g>
<!-- Node5 -->
<g id="node5" class="node"><title>Node5</title>
<g id="a_node5"><a xlink:href="_renesas_2_s_h2_a___f_p_u_2port_8c.html#a7a34437befcf8e09719a0642630f7fc6" target="_top" xlink:title="ulPortGetGBR">
<polygon fill="white" stroke="black" points="163,-114.5 163,-133.5 243,-133.5 243,-114.5 163,-114.5"/>
<text text-anchor="middle" x="203" y="-121.5" font-family="Helvetica,sans-Serif" font-size="10.00">ulPortGetGBR</text>
</a>
</g>
</g>
<!-- Node1&#45;&gt;Node5 -->
<g id="edge4" class="edge"><title>Node1&#45;&gt;Node5</title>
<path fill="none" stroke="midnightblue" d="M107.655,-124C122.24,-124 138.018,-124 152.42,-124"/>
<polygon fill="midnightblue" stroke="midnightblue" points="152.628,-127.5 162.628,-124 152.628,-120.5 152.628,-127.5"/>
</g>
<!-- Node6 -->
<g id="node6" class="node"><title>Node6</title>
<g id="a_node6"><a xlink:href="_b_c_c_216_bit_d_o_s_2_flsh186_2port_8c.html#af76f3c0b44c5b5c06fc046a4ee1a6423" target="_top" xlink:title="vPortEndScheduler">
<polygon fill="white" stroke="black" points="151.5,-76.5 151.5,-95.5 254.5,-95.5 254.5,-76.5 151.5,-76.5"/>
<text text-anchor="middle" x="203" y="-83.5" font-family="Helvetica,sans-Serif" font-size="10.00">vPortEndScheduler</text>
</a>
</g>
</g>
<!-- Node1&#45;&gt;Node6 -->
<g id="edge5" class="edge"><title>Node1&#45;&gt;Node6</title>
<path fill="none" stroke="midnightblue" d="M92.0943,-114.411C111.318,-109.442 134.986,-103.323 155.429,-98.0387"/>
<polygon fill="midnightblue" stroke="midnightblue" points="156.367,-101.412 165.172,-95.5201 154.615,-94.6343 156.367,-101.412"/>
</g>
<!-- Node7 -->
<g id="node7" class="node"><title>Node7</title>
<g id="a_node7"><a xlink:href="_softune_2_m_b96340_2port_8c.html#a13e5fe7547f79ab37fa3a6908f4a298e" target="_top" xlink:title="xGet_DPR_ADB_bank">
<polygon fill="white" stroke="black" points="144,-38.5 144,-57.5 262,-57.5 262,-38.5 144,-38.5"/>
<text text-anchor="middle" x="203" y="-45.5" font-family="Helvetica,sans-Serif" font-size="10.00">xGet_DPR_ADB_bank</text>
</a>
</g>
</g>
<!-- Node1&#45;&gt;Node7 -->
<g id="edge6" class="edge"><title>Node1&#45;&gt;Node7</title>
<path fill="none" stroke="midnightblue" d="M67.6664,-114.415C84.4064,-102.102 115.157,-80.6883 144,-67 148.608,-64.813 153.535,-62.7766 158.496,-60.9116"/>
<polygon fill="midnightblue" stroke="midnightblue" points="159.75,-64.1806 168.007,-57.5416 157.412,-57.5826 159.75,-64.1806"/>
</g>
<!-- Node8 -->
<g id="node8" class="node"><title>Node8</title>
<g id="a_node8"><a xlink:href="_softune_2_m_b96340_2port_8c.html#ac1749073ebb72afb94fe7392ae8ba435" target="_top" xlink:title="xGet_DTB_PCB_bank">
<polygon fill="white" stroke="black" points="144.5,-0.5 144.5,-19.5 261.5,-19.5 261.5,-0.5 144.5,-0.5"/>
<text text-anchor="middle" x="203" y="-7.5" font-family="Helvetica,sans-Serif" font-size="10.00">xGet_DTB_PCB_bank</text>
</a>
</g>
</g>
<!-- Node1&#45;&gt;Node8 -->
<g id="edge7" class="edge"><title>Node1&#45;&gt;Node8</title>
<path fill="none" stroke="midnightblue" d="M61.4207,-114.422C74.6483,-95.4059 106.833,-52.6808 144,-29 147.181,-26.9734 150.598,-25.1431 154.125,-23.4936"/>
<polygon fill="midnightblue" stroke="midnightblue" points="155.741,-26.6122 163.629,-19.5391 153.052,-20.1493 155.741,-26.6122"/>
</g>
</g>
</svg>
