<?xml version="1.0" encoding="UTF-8" standalone="no"?>
<!DOCTYPE svg PUBLIC "-//W3C//DTD SVG 1.1//EN"
 "http://www.w3.org/Graphics/SVG/1.1/DTD/svg11.dtd">
<!-- Generated by graphviz version 2.30.1 (20130221.2233)
 -->
<!-- Title: pvPortMalloc Pages: 1 -->
<svg width="428pt" height="104pt"
 viewBox="0.00 0.00 428.00 104.00" xmlns="http://www.w3.org/2000/svg" xmlns:xlink="http://www.w3.org/1999/xlink">
<g id="graph0" class="graph" transform="scale(1 1) rotate(0) translate(4 100)">
<title>pvPortMalloc</title>
<polygon fill="white" stroke="white" points="-4,5 -4,-100 425,-100 425,5 -4,5"/>
<!-- Node1 -->
<g id="node1" class="node"><title>Node1</title>
<polygon fill="#bfbfbf" stroke="black" points="0,-38.5 0,-57.5 74,-57.5 74,-38.5 0,-38.5"/>
<text text-anchor="middle" x="37" y="-45.5" font-family="Helvetica,sans-Serif" font-size="10.00">pvPortMalloc</text>
</g>
<!-- Node2 -->
<g id="node2" class="node"><title>Node2</title>
<g id="a_node2"><a xlink:href="tasks_8c.html#a91a076d3c5af24feadfe2bca03cc9f7a" target="_top" xlink:title="prvAllocateTCBAndStack">
<polygon fill="white" stroke="black" points="110.5,-76.5 110.5,-95.5 239.5,-95.5 239.5,-76.5 110.5,-76.5"/>
<text text-anchor="middle" x="175" y="-83.5" font-family="Helvetica,sans-Serif" font-size="10.00">prvAllocateTCBAndStack</text>
</a>
</g>
</g>
<!-- Node1&#45;&gt;Node2 -->
<g id="edge1" class="edge"><title>Node1&#45;&gt;Node2</title>
<path fill="none" stroke="midnightblue" d="M82.0866,-60.3183C100.772,-65.5393 122.218,-71.5316 139.692,-76.4141"/>
<polygon fill="midnightblue" stroke="midnightblue" points="82.8915,-56.9092 72.3185,-57.589 81.0078,-63.651 82.8915,-56.9092"/>
</g>
<!-- Node3 -->
<g id="node3" class="node"><title>Node3</title>
<g id="a_node3"><a xlink:href="event__groups_8h.html#a7ed741a0902718aca9c8d3ca273f1b73" target="_top" xlink:title="xEventGroupCreate">
<polygon fill="white" stroke="black" points="122.5,-38.5 122.5,-57.5 227.5,-57.5 227.5,-38.5 122.5,-38.5"/>
<text text-anchor="middle" x="175" y="-45.5" font-family="Helvetica,sans-Serif" font-size="10.00">xEventGroupCreate</text>
</a>
</g>
</g>
<!-- Node1&#45;&gt;Node3 -->
<g id="edge2" class="edge"><title>Node1&#45;&gt;Node3</title>
<path fill="none" stroke="midnightblue" d="M84.1304,-48C96.4331,-48 109.805,-48 122.381,-48"/>
<polygon fill="midnightblue" stroke="midnightblue" points="84.0885,-44.5001 74.0884,-48 84.0884,-51.5001 84.0885,-44.5001"/>
</g>
<!-- Node4 -->
<g id="node4" class="node"><title>Node4</title>
<g id="a_node4"><a xlink:href="queue_8c.html#ac999cdfbb09fff396fa818bb9a30b4e5" target="_top" xlink:title="xQueueGenericCreate">
<polygon fill="white" stroke="black" points="116.5,-0.5 116.5,-19.5 233.5,-19.5 233.5,-0.5 116.5,-0.5"/>
<text text-anchor="middle" x="175" y="-7.5" font-family="Helvetica,sans-Serif" font-size="10.00">xQueueGenericCreate</text>
</a>
</g>
</g>
<!-- Node1&#45;&gt;Node4 -->
<g id="edge3" class="edge"><title>Node1&#45;&gt;Node4</title>
<path fill="none" stroke="midnightblue" d="M82.0866,-35.6817C100.772,-30.4607 122.218,-24.4684 139.692,-19.5859"/>
<polygon fill="midnightblue" stroke="midnightblue" points="81.0078,-32.349 72.3185,-38.411 82.8915,-39.0908 81.0078,-32.349"/>
</g>
<!-- Node5 -->
<g id="node5" class="node"><title>Node5</title>
<g id="a_node5"><a xlink:href="_g_c_c_2_a_r_m___c_m3___m_p_u_2port_8c.html#a807a463b8fc68904094127b85ae5d23b" target="_top" xlink:title="MPU_xQueueGenericCreate">
<polygon fill="white" stroke="black" points="276,-0.5 276,-19.5 420,-19.5 420,-0.5 276,-0.5"/>
<text text-anchor="middle" x="348" y="-7.5" font-family="Helvetica,sans-Serif" font-size="10.00">MPU_xQueueGenericCreate</text>
</a>
</g>
</g>
<!-- Node4&#45;&gt;Node5 -->
<g id="edge4" class="edge"><title>Node4&#45;&gt;Node5</title>
<path fill="none" stroke="midnightblue" d="M244.161,-10C254.574,-10 265.344,-10 275.819,-10"/>
<polygon fill="midnightblue" stroke="midnightblue" points="243.893,-6.5001 233.893,-10 243.893,-13.5001 243.893,-6.5001"/>
</g>
</g>
</svg>
