<?xml version="1.0" encoding="UTF-8" standalone="no"?>
<!DOCTYPE svg PUBLIC "-//W3C//DTD SVG 1.1//EN"
 "http://www.w3.org/Graphics/SVG/1.1/DTD/svg11.dtd">
<!-- Generated by graphviz version 2.30.1 (20130221.2233)
 -->
<!-- Title: source/portable/Qt/port.cpp Pages: 1 -->
<svg width="926pt" height="264pt"
 viewBox="0.00 0.00 926.00 264.00" xmlns="http://www.w3.org/2000/svg" xmlns:xlink="http://www.w3.org/1999/xlink">
<g id="graph0" class="graph" transform="scale(1 1) rotate(0) translate(4 260)">
<title>source/portable/Qt/port.cpp</title>
<polygon fill="white" stroke="white" points="-4,5 -4,-260 923,-260 923,5 -4,5"/>
<!-- Node1 -->
<g id="node1" class="node"><title>Node1</title>
<polygon fill="#bfbfbf" stroke="black" points="331.5,-225 331.5,-255 430.5,-255 430.5,-225 331.5,-225"/>
<text text-anchor="start" x="339.5" y="-243" font-family="Helvetica,sans-Serif" font-size="10.00">source/portable/Qt</text>
<text text-anchor="middle" x="381" y="-232" font-family="Helvetica,sans-Serif" font-size="10.00">/port.cpp</text>
</g>
<!-- Node2 -->
<g id="node2" class="node"><title>Node2</title>
<g id="a_node2"><a xlink:href="stdio_8h.html" target="_top" xlink:title="stdio.h">
<polygon fill="white" stroke="black" points="0,-168.5 0,-187.5 46,-187.5 46,-168.5 0,-168.5"/>
<text text-anchor="middle" x="23" y="-175.5" font-family="Helvetica,sans-Serif" font-size="10.00">stdio.h</text>
</a>
</g>
</g>
<!-- Node1&#45;&gt;Node2 -->
<g id="edge1" class="edge"><title>Node1&#45;&gt;Node2</title>
<path fill="none" stroke="midnightblue" d="M331.23,-233.086C269.005,-225.278 159.109,-210.128 56.2666,-188.067"/>
<polygon fill="midnightblue" stroke="midnightblue" points="56.8531,-184.612 46.338,-185.91 55.3673,-191.453 56.8531,-184.612"/>
</g>
<!-- Node3 -->
<g id="node3" class="node"><title>Node3</title>
<polygon fill="white" stroke="#bfbfbf" points="64.5,-168.5 64.5,-187.5 121.5,-187.5 121.5,-168.5 64.5,-168.5"/>
<text text-anchor="middle" x="93" y="-175.5" font-family="Helvetica,sans-Serif" font-size="10.00">stdbool.h</text>
</g>
<!-- Node1&#45;&gt;Node3 -->
<g id="edge2" class="edge"><title>Node1&#45;&gt;Node3</title>
<path fill="none" stroke="midnightblue" d="M331.098,-229.298C282.738,-219.788 207.064,-204.625 131.751,-188.11"/>
<polygon fill="midnightblue" stroke="midnightblue" points="132.131,-184.61 121.612,-185.878 130.625,-191.446 132.131,-184.61"/>
</g>
<!-- Node4 -->
<g id="node4" class="node"><title>Node4</title>
<polygon fill="white" stroke="#bfbfbf" points="140,-168.5 140,-187.5 192,-187.5 192,-168.5 140,-168.5"/>
<text text-anchor="middle" x="166" y="-175.5" font-family="Helvetica,sans-Serif" font-size="10.00">QMutex</text>
</g>
<!-- Node1&#45;&gt;Node4 -->
<g id="edge3" class="edge"><title>Node1&#45;&gt;Node4</title>
<path fill="none" stroke="midnightblue" d="M331.405,-225.159C291.9,-214.135 237.524,-198.96 202.075,-189.067"/>
<polygon fill="midnightblue" stroke="midnightblue" points="202.735,-185.618 192.163,-186.301 200.854,-192.36 202.735,-185.618"/>
</g>
<!-- Node5 -->
<g id="node5" class="node"><title>Node5</title>
<polygon fill="white" stroke="#bfbfbf" points="210.5,-168.5 210.5,-187.5 297.5,-187.5 297.5,-168.5 210.5,-168.5"/>
<text text-anchor="middle" x="254" y="-175.5" font-family="Helvetica,sans-Serif" font-size="10.00">QWaitCondition</text>
</g>
<!-- Node1&#45;&gt;Node5 -->
<g id="edge4" class="edge"><title>Node1&#45;&gt;Node5</title>
<path fill="none" stroke="midnightblue" d="M351.224,-224.933C330.085,-214.946 301.921,-201.64 281.348,-191.92"/>
<polygon fill="midnightblue" stroke="midnightblue" points="282.74,-188.707 272.203,-187.6 279.75,-195.036 282.74,-188.707"/>
</g>
<!-- Node6 -->
<g id="node6" class="node"><title>Node6</title>
<polygon fill="white" stroke="#bfbfbf" points="357,-112.5 357,-131.5 413,-131.5 413,-112.5 357,-112.5"/>
<text text-anchor="middle" x="385" y="-119.5" font-family="Helvetica,sans-Serif" font-size="10.00">QThread</text>
</g>
<!-- Node1&#45;&gt;Node6 -->
<g id="edge5" class="edge"><title>Node1&#45;&gt;Node6</title>
<path fill="none" stroke="midnightblue" d="M366.048,-224.991C352.969,-210.954 337.191,-188.54 345,-168 349.335,-156.598 358.031,-146.239 366.21,-138.343"/>
<polygon fill="midnightblue" stroke="midnightblue" points="368.642,-140.863 373.734,-131.573 363.959,-135.66 368.642,-140.863"/>
</g>
<!-- Node7 -->
<g id="node7" class="node"><title>Node7</title>
<polygon fill="white" stroke="#bfbfbf" points="354,-168.5 354,-187.5 408,-187.5 408,-168.5 354,-168.5"/>
<text text-anchor="middle" x="381" y="-175.5" font-family="Helvetica,sans-Serif" font-size="10.00">QDebug</text>
</g>
<!-- Node1&#45;&gt;Node7 -->
<g id="edge6" class="edge"><title>Node1&#45;&gt;Node7</title>
<path fill="none" stroke="midnightblue" d="M381,-224.781C381,-216.781 381,-206.689 381,-198.017"/>
<polygon fill="midnightblue" stroke="midnightblue" points="384.5,-197.73 381,-187.731 377.5,-197.731 384.5,-197.73"/>
</g>
<!-- Node8 -->
<g id="node8" class="node"><title>Node8</title>
<polygon fill="white" stroke="#bfbfbf" points="426,-168.5 426,-187.5 476,-187.5 476,-168.5 426,-168.5"/>
<text text-anchor="middle" x="451" y="-175.5" font-family="Helvetica,sans-Serif" font-size="10.00">QTimer</text>
</g>
<!-- Node1&#45;&gt;Node8 -->
<g id="edge7" class="edge"><title>Node1&#45;&gt;Node8</title>
<path fill="none" stroke="midnightblue" d="M397.589,-224.781C408.285,-215.613 422.188,-203.696 433.128,-194.319"/>
<polygon fill="midnightblue" stroke="midnightblue" points="435.5,-196.896 440.814,-187.731 430.944,-191.581 435.5,-196.896"/>
</g>
<!-- Node9 -->
<g id="node9" class="node"><title>Node9</title>
<g id="a_node9"><a xlink:href="_free_r_t_o_s_8h.html" target="_top" xlink:title="FreeRTOS.h">
<polygon fill="white" stroke="black" points="559.5,-112.5 559.5,-131.5 632.5,-131.5 632.5,-112.5 559.5,-112.5"/>
<text text-anchor="middle" x="596" y="-119.5" font-family="Helvetica,sans-Serif" font-size="10.00">FreeRTOS.h</text>
</a>
</g>
</g>
<!-- Node1&#45;&gt;Node9 -->
<g id="edge8" class="edge"><title>Node1&#45;&gt;Node9</title>
<path fill="none" stroke="midnightblue" d="M430.546,-233.396C485.283,-226.123 568.434,-211.505 589,-188 599.851,-175.598 600.646,-156.357 599.3,-142.022"/>
<polygon fill="midnightblue" stroke="midnightblue" points="602.726,-141.242 597.914,-131.803 595.79,-142.183 602.726,-141.242"/>
</g>
<!-- Node18 -->
<g id="node18" class="node"><title>Node18</title>
<g id="a_node18"><a xlink:href="task_8h.html" target="_top" xlink:title="task.h">
<polygon fill="white" stroke="black" points="636.5,-168.5 636.5,-187.5 679.5,-187.5 679.5,-168.5 636.5,-168.5"/>
<text text-anchor="middle" x="658" y="-175.5" font-family="Helvetica,sans-Serif" font-size="10.00">task.h</text>
</a>
</g>
</g>
<!-- Node1&#45;&gt;Node18 -->
<g id="edge17" class="edge"><title>Node1&#45;&gt;Node18</title>
<path fill="none" stroke="midnightblue" d="M430.503,-229.073C479.305,-219.158 555.95,-203.24 622,-188 623.452,-187.665 624.935,-187.317 626.432,-186.961"/>
<polygon fill="midnightblue" stroke="midnightblue" points="627.44,-190.318 636.329,-184.554 625.785,-183.517 627.44,-190.318"/>
</g>
<!-- Node20 -->
<g id="node20" class="node"><title>Node20</title>
<g id="a_node20"><a xlink:href="simulatedtask_8h.html" target="_top" xlink:title="simulatedtask.h">
<polygon fill="white" stroke="black" points="494,-168.5 494,-187.5 580,-187.5 580,-168.5 494,-168.5"/>
<text text-anchor="middle" x="537" y="-175.5" font-family="Helvetica,sans-Serif" font-size="10.00">simulatedtask.h</text>
</a>
</g>
</g>
<!-- Node1&#45;&gt;Node20 -->
<g id="edge19" class="edge"><title>Node1&#45;&gt;Node20</title>
<path fill="none" stroke="midnightblue" d="M417.575,-224.933C444.129,-214.72 479.706,-201.036 505.107,-191.266"/>
<polygon fill="midnightblue" stroke="midnightblue" points="506.563,-194.457 514.64,-187.6 504.05,-187.923 506.563,-194.457"/>
</g>
<!-- Node22 -->
<g id="node22" class="node"><title>Node22</title>
<polygon fill="white" stroke="#bfbfbf" points="698,-168.5 698,-187.5 832,-187.5 832,-168.5 698,-168.5"/>
<text text-anchor="middle" x="765" y="-175.5" font-family="Helvetica,sans-Serif" font-size="10.00">simulatedperipheraltimer.h</text>
</g>
<!-- Node1&#45;&gt;Node22 -->
<g id="edge23" class="edge"><title>Node1&#45;&gt;Node22</title>
<path fill="none" stroke="midnightblue" d="M430.808,-231.218C499.753,-220.445 624.35,-200.977 700.384,-189.096"/>
<polygon fill="midnightblue" stroke="midnightblue" points="700.983,-192.545 710.322,-187.543 699.902,-185.629 700.983,-192.545"/>
</g>
<!-- Node10 -->
<g id="node10" class="node"><title>Node10</title>
<polygon fill="white" stroke="#bfbfbf" points="407,-56.5 407,-75.5 459,-75.5 459,-56.5 407,-56.5"/>
<text text-anchor="middle" x="433" y="-63.5" font-family="Helvetica,sans-Serif" font-size="10.00">stddef.h</text>
</g>
<!-- Node9&#45;&gt;Node10 -->
<g id="edge9" class="edge"><title>Node9&#45;&gt;Node10</title>
<path fill="none" stroke="midnightblue" d="M570.172,-112.444C542.751,-103.359 499.223,-88.9388 468.568,-78.7831"/>
<polygon fill="midnightblue" stroke="midnightblue" points="469.3,-75.3389 458.707,-75.5164 467.099,-81.9837 469.3,-75.3389"/>
</g>
<!-- Node11 -->
<g id="node11" class="node"><title>Node11</title>
<polygon fill="white" stroke="#bfbfbf" points="477.5,-56.5 477.5,-75.5 526.5,-75.5 526.5,-56.5 477.5,-56.5"/>
<text text-anchor="middle" x="502" y="-63.5" font-family="Helvetica,sans-Serif" font-size="10.00">stdint.h</text>
</g>
<!-- Node9&#45;&gt;Node11 -->
<g id="edge10" class="edge"><title>Node9&#45;&gt;Node11</title>
<path fill="none" stroke="midnightblue" d="M580.897,-112.324C566.097,-103.822 543.306,-90.7288 526.018,-80.7975"/>
<polygon fill="midnightblue" stroke="midnightblue" points="527.48,-77.6009 517.065,-75.6545 523.993,-83.6707 527.48,-77.6009"/>
</g>
<!-- Node12 -->
<g id="node12" class="node"><title>Node12</title>
<polygon fill="white" stroke="#bfbfbf" points="545,-56.5 545,-75.5 647,-75.5 647,-56.5 545,-56.5"/>
<text text-anchor="middle" x="596" y="-63.5" font-family="Helvetica,sans-Serif" font-size="10.00">FreeRTOSConfig.h</text>
</g>
<!-- Node9&#45;&gt;Node12 -->
<g id="edge11" class="edge"><title>Node9&#45;&gt;Node12</title>
<path fill="none" stroke="midnightblue" d="M596,-112.083C596,-105.006 596,-94.8611 596,-85.9865"/>
<polygon fill="midnightblue" stroke="midnightblue" points="599.5,-85.751 596,-75.7511 592.5,-85.7511 599.5,-85.751"/>
</g>
<!-- Node13 -->
<g id="node13" class="node"><title>Node13</title>
<g id="a_node13"><a xlink:href="projdefs_8h.html" target="_top" xlink:title="projdefs.h">
<polygon fill="white" stroke="black" points="665,-56.5 665,-75.5 725,-75.5 725,-56.5 665,-56.5"/>
<text text-anchor="middle" x="695" y="-63.5" font-family="Helvetica,sans-Serif" font-size="10.00">projdefs.h</text>
</a>
</g>
</g>
<!-- Node9&#45;&gt;Node13 -->
<g id="edge12" class="edge"><title>Node9&#45;&gt;Node13</title>
<path fill="none" stroke="midnightblue" d="M611.906,-112.324C627.638,-103.743 651.942,-90.486 670.209,-80.5224"/>
<polygon fill="midnightblue" stroke="midnightblue" points="672.03,-83.5157 679.133,-75.6545 668.678,-77.3704 672.03,-83.5157"/>
</g>
<!-- Node14 -->
<g id="node14" class="node"><title>Node14</title>
<g id="a_node14"><a xlink:href="portable_8h.html" target="_top" xlink:title="portable.h">
<polygon fill="white" stroke="black" points="743.5,-56.5 743.5,-75.5 804.5,-75.5 804.5,-56.5 743.5,-56.5"/>
<text text-anchor="middle" x="774" y="-63.5" font-family="Helvetica,sans-Serif" font-size="10.00">portable.h</text>
</a>
</g>
</g>
<!-- Node9&#45;&gt;Node14 -->
<g id="edge13" class="edge"><title>Node9&#45;&gt;Node14</title>
<path fill="none" stroke="midnightblue" d="M624.205,-112.444C654.41,-103.28 702.511,-88.6876 736.029,-78.5192"/>
<polygon fill="midnightblue" stroke="midnightblue" points="737.374,-81.7688 745.927,-75.5164 735.342,-75.0703 737.374,-81.7688"/>
</g>
<!-- Node15 -->
<g id="node15" class="node"><title>Node15</title>
<g id="a_node15"><a xlink:href="deprecated__definitions_8h.html" target="_top" xlink:title="deprecated_definitions.h">
<polygon fill="white" stroke="black" points="595.5,-0.5 595.5,-19.5 720.5,-19.5 720.5,-0.5 595.5,-0.5"/>
<text text-anchor="middle" x="658" y="-7.5" font-family="Helvetica,sans-Serif" font-size="10.00">deprecated_definitions.h</text>
</a>
</g>
</g>
<!-- Node14&#45;&gt;Node15 -->
<g id="edge14" class="edge"><title>Node14&#45;&gt;Node15</title>
<path fill="none" stroke="midnightblue" d="M755.619,-56.4435C736.784,-47.6751 707.269,-33.9355 685.621,-23.8579"/>
<polygon fill="midnightblue" stroke="midnightblue" points="686.838,-20.5637 676.295,-19.5164 683.883,-26.9098 686.838,-20.5637"/>
</g>
<!-- Node16 -->
<g id="node16" class="node"><title>Node16</title>
<polygon fill="white" stroke="#bfbfbf" points="739,-0.5 739,-19.5 809,-19.5 809,-0.5 739,-0.5"/>
<text text-anchor="middle" x="774" y="-7.5" font-family="Helvetica,sans-Serif" font-size="10.00">portmacro.h</text>
</g>
<!-- Node14&#45;&gt;Node16 -->
<g id="edge15" class="edge"><title>Node14&#45;&gt;Node16</title>
<path fill="none" stroke="midnightblue" d="M774,-56.083C774,-49.0059 774,-38.8611 774,-29.9865"/>
<polygon fill="midnightblue" stroke="midnightblue" points="777.5,-29.751 774,-19.7511 770.5,-29.7511 777.5,-29.751"/>
</g>
<!-- Node17 -->
<g id="node17" class="node"><title>Node17</title>
<g id="a_node17"><a xlink:href="mpu__wrappers_8h.html" target="_top" xlink:title="mpu_wrappers.h">
<polygon fill="white" stroke="black" points="827.5,-0.5 827.5,-19.5 918.5,-19.5 918.5,-0.5 827.5,-0.5"/>
<text text-anchor="middle" x="873" y="-7.5" font-family="Helvetica,sans-Serif" font-size="10.00">mpu_wrappers.h</text>
</a>
</g>
</g>
<!-- Node14&#45;&gt;Node17 -->
<g id="edge16" class="edge"><title>Node14&#45;&gt;Node17</title>
<path fill="none" stroke="midnightblue" d="M789.906,-56.324C805.638,-47.7428 829.942,-34.486 848.209,-24.5224"/>
<polygon fill="midnightblue" stroke="midnightblue" points="850.03,-27.5157 857.133,-19.6545 846.678,-21.3704 850.03,-27.5157"/>
</g>
<!-- Node19 -->
<g id="node19" class="node"><title>Node19</title>
<g id="a_node19"><a xlink:href="list_8h.html" target="_top" xlink:title="list.h">
<polygon fill="white" stroke="black" points="650.5,-112.5 650.5,-131.5 687.5,-131.5 687.5,-112.5 650.5,-112.5"/>
<text text-anchor="middle" x="669" y="-119.5" font-family="Helvetica,sans-Serif" font-size="10.00">list.h</text>
</a>
</g>
</g>
<!-- Node18&#45;&gt;Node19 -->
<g id="edge18" class="edge"><title>Node18&#45;&gt;Node19</title>
<path fill="none" stroke="midnightblue" d="M659.816,-168.083C661.274,-160.927 663.371,-150.635 665.193,-141.691"/>
<polygon fill="midnightblue" stroke="midnightblue" points="668.651,-142.248 667.217,-131.751 661.792,-140.851 668.651,-142.248"/>
</g>
<!-- Node20&#45;&gt;Node6 -->
<g id="edge20" class="edge"><title>Node20&#45;&gt;Node6</title>
<path fill="none" stroke="midnightblue" d="M512.915,-168.444C487.455,-159.399 447.106,-145.064 418.541,-134.916"/>
<polygon fill="midnightblue" stroke="midnightblue" points="419.567,-131.566 408.972,-131.516 417.223,-138.162 419.567,-131.566"/>
</g>
<!-- Node21 -->
<g id="node21" class="node"><title>Node21</title>
<polygon fill="white" stroke="#bfbfbf" points="491,-112.5 491,-131.5 541,-131.5 541,-112.5 491,-112.5"/>
<text text-anchor="middle" x="516" y="-119.5" font-family="Helvetica,sans-Serif" font-size="10.00">QString</text>
</g>
<!-- Node20&#45;&gt;Node21 -->
<g id="edge21" class="edge"><title>Node20&#45;&gt;Node21</title>
<path fill="none" stroke="midnightblue" d="M533.532,-168.083C530.688,-160.77 526.571,-150.181 523.04,-141.103"/>
<polygon fill="midnightblue" stroke="midnightblue" points="526.29,-139.803 519.403,-131.751 519.766,-142.34 526.29,-139.803"/>
</g>
<!-- Node20&#45;&gt;Node9 -->
<g id="edge22" class="edge"><title>Node20&#45;&gt;Node9</title>
<path fill="none" stroke="midnightblue" d="M546.479,-168.324C555.201,-160.341 568.343,-148.313 578.898,-138.653"/>
<polygon fill="midnightblue" stroke="midnightblue" points="581.334,-141.167 586.348,-131.834 576.608,-136.004 581.334,-141.167"/>
</g>
</g>
</svg>
