<?xml version="1.0" encoding="UTF-8" standalone="no"?>
<!DOCTYPE svg PUBLIC "-//W3C//DTD SVG 1.1//EN"
 "http://www.w3.org/Graphics/SVG/1.1/DTD/svg11.dtd">
<!-- Generated by graphviz version 2.30.1 (20130221.2233)
 -->
<!-- Title: source/include/portable.h Pages: 1 -->
<svg width="6628pt" height="152pt"
 viewBox="0.00 0.00 6628.00 152.00" xmlns="http://www.w3.org/2000/svg" xmlns:xlink="http://www.w3.org/1999/xlink">
<g id="graph0" class="graph" transform="scale(1 1) rotate(0) translate(4 148)">
<title>source/include/portable.h</title>
<polygon fill="white" stroke="white" points="-4,5 -4,-148 6625,-148 6625,5 -4,5"/>
<!-- Node1 -->
<g id="node1" class="node"><title>Node1</title>
<polygon fill="#bfbfbf" stroke="black" points="3383,-124.5 3383,-143.5 3511,-143.5 3511,-124.5 3383,-124.5"/>
<text text-anchor="middle" x="3447" y="-131.5" font-family="Helvetica,sans-Serif" font-size="10.00">source/include/portable.h</text>
</g>
<!-- Node2 -->
<g id="node2" class="node"><title>Node2</title>
<g id="a_node2"><a xlink:href="_free_r_t_o_s_8h.html" target="_top" xlink:title="source/include/FreeRTOS.h">
<polygon fill="white" stroke="red" points="3377,-68.5 3377,-87.5 3517,-87.5 3517,-68.5 3377,-68.5"/>
<text text-anchor="middle" x="3447" y="-75.5" font-family="Helvetica,sans-Serif" font-size="10.00">source/include/FreeRTOS.h</text>
</a>
</g>
</g>
<!-- Node1&#45;&gt;Node2 -->
<g id="edge1" class="edge"><title>Node1&#45;&gt;Node2</title>
<path fill="none" stroke="midnightblue" d="M3447,-113.805C3447,-104.91 3447,-94.7798 3447,-87.7511"/>
<polygon fill="midnightblue" stroke="midnightblue" points="3443.5,-114.083 3447,-124.083 3450.5,-114.083 3443.5,-114.083"/>
</g>
<!-- Node3 -->
<g id="node3" class="node"><title>Node3</title>
<g id="a_node3"><a xlink:href="croutine_8c.html" target="_top" xlink:title="source/croutine.c">
<polygon fill="white" stroke="black" points="-0.5,-6.5 -0.5,-25.5 92.5,-25.5 92.5,-6.5 -0.5,-6.5"/>
<text text-anchor="middle" x="46" y="-13.5" font-family="Helvetica,sans-Serif" font-size="10.00">source/croutine.c</text>
</a>
</g>
</g>
<!-- Node2&#45;&gt;Node3 -->
<g id="edge2" class="edge"><title>Node2&#45;&gt;Node3</title>
<path fill="none" stroke="midnightblue" d="M3366.55,-77.113C2888.79,-77.6247 434.119,-77.9843 102,-32 92.2296,-30.6472 81.7331,-28.132 72.4982,-25.5425"/>
<polygon fill="midnightblue" stroke="midnightblue" points="3366.8,-80.6128 3376.8,-77.1016 3366.79,-73.6128 3366.8,-80.6128"/>
</g>
<!-- Node4 -->
<g id="node4" class="node"><title>Node4</title>
<g id="a_node4"><a xlink:href="event__groups_8c.html" target="_top" xlink:title="source/event_groups.c">
<polygon fill="white" stroke="black" points="111,-6.5 111,-25.5 229,-25.5 229,-6.5 111,-6.5"/>
<text text-anchor="middle" x="170" y="-13.5" font-family="Helvetica,sans-Serif" font-size="10.00">source/event_groups.c</text>
</a>
</g>
</g>
<!-- Node2&#45;&gt;Node4 -->
<g id="edge3" class="edge"><title>Node2&#45;&gt;Node4</title>
<path fill="none" stroke="midnightblue" d="M3366.52,-76.8498C2900.4,-75.8494 556.747,-69.0014 238,-32 226.231,-30.6339 213.508,-28.1155 202.286,-25.5273"/>
<polygon fill="midnightblue" stroke="midnightblue" points="3366.85,-80.3504 3376.85,-76.8717 3366.86,-73.3504 3366.85,-80.3504"/>
</g>
<!-- Node5 -->
<g id="node5" class="node"><title>Node5</title>
<g id="a_node5"><a xlink:href="list_8c.html" target="_top" xlink:title="source/list.c">
<polygon fill="white" stroke="black" points="247.5,-6.5 247.5,-25.5 316.5,-25.5 316.5,-6.5 247.5,-6.5"/>
<text text-anchor="middle" x="282" y="-13.5" font-family="Helvetica,sans-Serif" font-size="10.00">source/list.c</text>
</a>
</g>
</g>
<!-- Node2&#45;&gt;Node5 -->
<g id="edge4" class="edge"><title>Node2&#45;&gt;Node5</title>
<path fill="none" stroke="midnightblue" d="M3366.66,-76.5692C2892.87,-73.9377 478.996,-59.2319 325,-32 317.37,-30.6508 309.28,-28.1363 302.201,-25.5466"/>
<polygon fill="midnightblue" stroke="midnightblue" points="3366.81,-80.07 3376.83,-76.6255 3366.85,-73.0701 3366.81,-80.07"/>
</g>
<!-- Node6 -->
<g id="node6" class="node"><title>Node6</title>
<g id="a_node6"><a xlink:href="_b_c_c_216_bit_d_o_s_2common_2portcomn_8c.html" target="_top" xlink:title="source/portable/BCC\l/16BitDOS/common/portcomn.c">
<polygon fill="white" stroke="black" points="334.5,-1 334.5,-31 491.5,-31 491.5,-1 334.5,-1"/>
<text text-anchor="start" x="342.5" y="-19" font-family="Helvetica,sans-Serif" font-size="10.00">source/portable/BCC</text>
<text text-anchor="middle" x="413" y="-8" font-family="Helvetica,sans-Serif" font-size="10.00">/16BitDOS/common/portcomn.c</text>
</a>
</g>
</g>
<!-- Node2&#45;&gt;Node6 -->
<g id="edge5" class="edge"><title>Node2&#45;&gt;Node6</title>
<path fill="none" stroke="midnightblue" d="M3366.83,-76.5117C2924.64,-73.7198 792.932,-58.9493 501,-32 497.913,-31.7151 494.772,-31.3831 491.603,-31.0132"/>
<polygon fill="midnightblue" stroke="midnightblue" points="3366.94,-80.0123 3376.96,-76.5754 3366.98,-73.0124 3366.94,-80.0123"/>
</g>
<!-- Node7 -->
<g id="node7" class="node"><title>Node7</title>
<g id="a_node7"><a xlink:href="_b_c_c_216_bit_d_o_s_2_flsh186_2port_8c.html" target="_top" xlink:title="source/portable/BCC\l/16BitDOS/Flsh186/port.c">
<polygon fill="white" stroke="black" points="510,-1 510,-31 640,-31 640,-1 510,-1"/>
<text text-anchor="start" x="518" y="-19" font-family="Helvetica,sans-Serif" font-size="10.00">source/portable/BCC</text>
<text text-anchor="middle" x="575" y="-8" font-family="Helvetica,sans-Serif" font-size="10.00">/16BitDOS/Flsh186/port.c</text>
</a>
</g>
</g>
<!-- Node2&#45;&gt;Node7 -->
<g id="edge6" class="edge"><title>Node2&#45;&gt;Node7</title>
<path fill="none" stroke="midnightblue" d="M3366.73,-76.5903C2937.77,-74.2826 924.933,-61.9276 649,-32 646.133,-31.689 643.212,-31.3207 640.268,-30.9073"/>
<polygon fill="midnightblue" stroke="midnightblue" points="3366.85,-80.0909 3376.87,-76.6445 3366.89,-73.091 3366.85,-80.0909"/>
</g>
<!-- Node8 -->
<g id="node8" class="node"><title>Node8</title>
<g id="a_node8"><a xlink:href="_b_c_c_216_bit_d_o_s_2_p_c_2port_8c.html" target="_top" xlink:title="source/portable/BCC\l/16BitDOS/PC/port.c">
<polygon fill="white" stroke="black" points="658.5,-1 658.5,-31 767.5,-31 767.5,-1 658.5,-1"/>
<text text-anchor="start" x="666.5" y="-19" font-family="Helvetica,sans-Serif" font-size="10.00">source/portable/BCC</text>
<text text-anchor="middle" x="713" y="-8" font-family="Helvetica,sans-Serif" font-size="10.00">/16BitDOS/PC/port.c</text>
</a>
</g>
</g>
<!-- Node2&#45;&gt;Node8 -->
<g id="edge7" class="edge"><title>Node2&#45;&gt;Node8</title>
<path fill="none" stroke="midnightblue" d="M3366.68,-76.6847C2949.41,-74.9075 1038.1,-65.0129 776,-32 773.211,-31.6487 770.366,-31.223 767.503,-30.7408"/>
<polygon fill="midnightblue" stroke="midnightblue" points="3366.83,-80.1853 3376.85,-76.7276 3366.86,-73.1853 3366.83,-80.1853"/>
</g>
<!-- Node9 -->
<g id="node9" class="node"><title>Node9</title>
<g id="a_node9"><a xlink:href="_c_c_s_2_a_r_m___c_m4_f_2port_8c.html" target="_top" xlink:title="source/portable/CCS\l/ARM_CM4F/port.c">
<polygon fill="white" stroke="black" points="785.5,-1 785.5,-31 894.5,-31 894.5,-1 785.5,-1"/>
<text text-anchor="start" x="793.5" y="-19" font-family="Helvetica,sans-Serif" font-size="10.00">source/portable/CCS</text>
<text text-anchor="middle" x="840" y="-8" font-family="Helvetica,sans-Serif" font-size="10.00">/ARM_CM4F/port.c</text>
</a>
</g>
</g>
<!-- Node2&#45;&gt;Node9 -->
<g id="edge8" class="edge"><title>Node2&#45;&gt;Node9</title>
<path fill="none" stroke="midnightblue" d="M3366.63,-76.5942C2961.5,-74.4122 1152.78,-62.9967 904,-32 900.942,-31.619 897.818,-31.1516 894.674,-30.6201"/>
<polygon fill="midnightblue" stroke="midnightblue" points="3366.77,-80.0949 3376.79,-76.6486 3366.81,-73.095 3366.77,-80.0949"/>
</g>
<!-- Node10 -->
<g id="node10" class="node"><title>Node10</title>
<g id="a_node10"><a xlink:href="_c_c_s_2_a_r_m___cortex-_r4_2port_8c.html" target="_top" xlink:title="source/portable/CCS\l/ARM_Cortex&#45;R4/port.c">
<polygon fill="white" stroke="black" points="913,-1 913,-31 1033,-31 1033,-1 913,-1"/>
<text text-anchor="start" x="921" y="-19" font-family="Helvetica,sans-Serif" font-size="10.00">source/portable/CCS</text>
<text text-anchor="middle" x="973" y="-8" font-family="Helvetica,sans-Serif" font-size="10.00">/ARM_Cortex&#45;R4/port.c</text>
</a>
</g>
</g>
<!-- Node2&#45;&gt;Node10 -->
<g id="edge9" class="edge"><title>Node2&#45;&gt;Node10</title>
<path fill="none" stroke="midnightblue" d="M3366.91,-76.4315C2975.87,-73.5308 1276.67,-59.4359 1042,-32 1039.08,-31.6584 1036.1,-31.2489 1033.09,-30.7874"/>
<polygon fill="midnightblue" stroke="midnightblue" points="3366.97,-79.932 3377,-76.506 3367.02,-72.9322 3366.97,-79.932"/>
</g>
<!-- Node11 -->
<g id="node11" class="node"><title>Node11</title>
<g id="a_node11"><a xlink:href="_c_c_s_2_m_s_p430_x_2port_8c.html" target="_top" xlink:title="source/portable/CCS\l/MSP430X/port.c">
<polygon fill="white" stroke="black" points="1051.5,-1 1051.5,-31 1160.5,-31 1160.5,-1 1051.5,-1"/>
<text text-anchor="start" x="1059.5" y="-19" font-family="Helvetica,sans-Serif" font-size="10.00">source/portable/CCS</text>
<text text-anchor="middle" x="1106" y="-8" font-family="Helvetica,sans-Serif" font-size="10.00">/MSP430X/port.c</text>
</a>
</g>
</g>
<!-- Node2&#45;&gt;Node11 -->
<g id="edge10" class="edge"><title>Node2&#45;&gt;Node11</title>
<path fill="none" stroke="midnightblue" d="M3366.84,-76.4343C2988.46,-73.6264 1390.16,-60.182 1169,-32 1166.21,-31.6447 1163.37,-31.2157 1160.5,-30.7309"/>
<polygon fill="midnightblue" stroke="midnightblue" points="3366.86,-79.9344 3376.88,-76.5084 3366.91,-72.9346 3366.86,-79.9344"/>
</g>
<!-- Node12 -->
<g id="node12" class="node"><title>Node12</title>
<g id="a_node12"><a xlink:href="_code_warrior_2_cold_fire___v1_2port_8c.html" target="_top" xlink:title="source/portable/CodeWarrior\l/ColdFire_V1/port.c">
<polygon fill="white" stroke="black" points="1178.5,-1 1178.5,-31 1323.5,-31 1323.5,-1 1178.5,-1"/>
<text text-anchor="start" x="1186.5" y="-19" font-family="Helvetica,sans-Serif" font-size="10.00">source/portable/CodeWarrior</text>
<text text-anchor="middle" x="1251" y="-8" font-family="Helvetica,sans-Serif" font-size="10.00">/ColdFire_V1/port.c</text>
</a>
</g>
</g>
<!-- Node2&#45;&gt;Node12 -->
<g id="edge11" class="edge"><title>Node2&#45;&gt;Node12</title>
<path fill="none" stroke="midnightblue" d="M3366.79,-77.0304C3031.1,-76.8897 1737.68,-73.6021 1332,-32 1329.3,-31.7228 1326.55,-31.4041 1323.78,-31.0516"/>
<polygon fill="midnightblue" stroke="midnightblue" points="3366.91,-80.5304 3376.91,-77.0338 3366.91,-73.5304 3366.91,-80.5304"/>
</g>
<!-- Node13 -->
<g id="node13" class="node"><title>Node13</title>
<g id="a_node13"><a xlink:href="_code_warrior_2_cold_fire___v2_2port_8c.html" target="_top" xlink:title="source/portable/CodeWarrior\l/ColdFire_V2/port.c">
<polygon fill="white" stroke="black" points="1341.5,-1 1341.5,-31 1486.5,-31 1486.5,-1 1341.5,-1"/>
<text text-anchor="start" x="1349.5" y="-19" font-family="Helvetica,sans-Serif" font-size="10.00">source/portable/CodeWarrior</text>
<text text-anchor="middle" x="1414" y="-8" font-family="Helvetica,sans-Serif" font-size="10.00">/ColdFire_V2/port.c</text>
</a>
</g>
</g>
<!-- Node2&#45;&gt;Node13 -->
<g id="edge12" class="edge"><title>Node2&#45;&gt;Node13</title>
<path fill="none" stroke="midnightblue" d="M3366.7,-76.8636C3047.38,-76.0555 1866.92,-70.4735 1495,-32 1492.3,-31.7204 1489.55,-31.3997 1486.78,-31.0455"/>
<polygon fill="midnightblue" stroke="midnightblue" points="3366.79,-80.3637 3376.8,-76.8883 3366.8,-73.3637 3366.79,-80.3637"/>
</g>
<!-- Node14 -->
<g id="node14" class="node"><title>Node14</title>
<g id="a_node14"><a xlink:href="_code_warrior_2_h_c_s12_2port_8c.html" target="_top" xlink:title="source/portable/CodeWarrior\l/HCS12/port.c">
<polygon fill="white" stroke="black" points="1504.5,-1 1504.5,-31 1649.5,-31 1649.5,-1 1504.5,-1"/>
<text text-anchor="start" x="1512.5" y="-19" font-family="Helvetica,sans-Serif" font-size="10.00">source/portable/CodeWarrior</text>
<text text-anchor="middle" x="1577" y="-8" font-family="Helvetica,sans-Serif" font-size="10.00">/HCS12/port.c</text>
</a>
</g>
</g>
<!-- Node2&#45;&gt;Node14 -->
<g id="edge13" class="edge"><title>Node2&#45;&gt;Node14</title>
<path fill="none" stroke="midnightblue" d="M3366.5,-76.6657C3064.11,-75.147 1996.21,-67.3459 1658,-32 1655.3,-31.7176 1652.55,-31.3944 1649.78,-31.0382"/>
<polygon fill="midnightblue" stroke="midnightblue" points="3366.91,-80.1677 3376.93,-76.7171 3366.95,-73.1678 3366.91,-80.1677"/>
</g>
<!-- Node15 -->
<g id="node15" class="node"><title>Node15</title>
<g id="a_node15"><a xlink:href="_g_c_c_2_a_r_m7___a_t91_f_r40008_2port_8c.html" target="_top" xlink:title="source/portable/GCC\l/ARM7_AT91FR40008/port.c">
<polygon fill="white" stroke="black" points="1667.5,-1 1667.5,-31 1812.5,-31 1812.5,-1 1667.5,-1"/>
<text text-anchor="start" x="1675.5" y="-19" font-family="Helvetica,sans-Serif" font-size="10.00">source/portable/GCC</text>
<text text-anchor="middle" x="1740" y="-8" font-family="Helvetica,sans-Serif" font-size="10.00">/ARM7_AT91FR40008/port.c</text>
</a>
</g>
</g>
<!-- Node2&#45;&gt;Node15 -->
<g id="edge14" class="edge"><title>Node2&#45;&gt;Node15</title>
<path fill="none" stroke="midnightblue" d="M3366.33,-76.403C3081.9,-74.0423 2126.47,-63.874 1822,-32 1818.98,-31.6836 1815.9,-31.3181 1812.79,-30.9138"/>
<polygon fill="midnightblue" stroke="midnightblue" points="3366.54,-79.9048 3376.57,-76.487 3366.6,-72.905 3366.54,-79.9048"/>
</g>
<!-- Node16 -->
<g id="node16" class="node"><title>Node16</title>
<g id="a_node16"><a xlink:href="_a_r_m7___a_t91_f_r40008_2port_i_s_r_8c.html" target="_top" xlink:title="source/portable/GCC\l/ARM7_AT91FR40008/portISR.c">
<polygon fill="white" stroke="black" points="1831,-1 1831,-31 1993,-31 1993,-1 1831,-1"/>
<text text-anchor="start" x="1839" y="-19" font-family="Helvetica,sans-Serif" font-size="10.00">source/portable/GCC</text>
<text text-anchor="middle" x="1912" y="-8" font-family="Helvetica,sans-Serif" font-size="10.00">/ARM7_AT91FR40008/portISR.c</text>
</a>
</g>
</g>
<!-- Node2&#45;&gt;Node16 -->
<g id="edge15" class="edge"><title>Node2&#45;&gt;Node16</title>
<path fill="none" stroke="midnightblue" d="M3366.54,-75.9156C3103.4,-72.1454 2269.9,-58.3768 2002,-32 1999,-31.7051 1995.96,-31.3714 1992.88,-31.0061"/>
<polygon fill="midnightblue" stroke="midnightblue" points="3366.73,-79.4185 3376.78,-76.0613 3366.83,-72.4193 3366.73,-79.4185"/>
</g>
<!-- Node17 -->
<g id="node17" class="node"><title>Node17</title>
<g id="a_node17"><a xlink:href="_g_c_c_2_a_r_m7___a_t91_s_a_m7_s_2port_8c.html" target="_top" xlink:title="source/portable/GCC\l/ARM7_AT91SAM7S/port.c">
<polygon fill="white" stroke="black" points="2011,-1 2011,-31 2149,-31 2149,-1 2011,-1"/>
<text text-anchor="start" x="2019" y="-19" font-family="Helvetica,sans-Serif" font-size="10.00">source/portable/GCC</text>
<text text-anchor="middle" x="2080" y="-8" font-family="Helvetica,sans-Serif" font-size="10.00">/ARM7_AT91SAM7S/port.c</text>
</a>
</g>
</g>
<!-- Node2&#45;&gt;Node17 -->
<g id="edge16" class="edge"><title>Node2&#45;&gt;Node17</title>
<path fill="none" stroke="midnightblue" d="M3366.6,-75.8268C3122.75,-72.01 2393.81,-58.6271 2158,-32 2155.12,-31.6751 2152.19,-31.3025 2149.24,-30.8923"/>
<polygon fill="midnightblue" stroke="midnightblue" points="3366.75,-79.3295 3376.81,-75.9854 3366.86,-72.3303 3366.75,-79.3295"/>
</g>
<!-- Node18 -->
<g id="node18" class="node"><title>Node18</title>
<g id="a_node18"><a xlink:href="_a_r_m7___a_t91_s_a_m7_s_2port_i_s_r_8c.html" target="_top" xlink:title="source/portable/GCC\l/ARM7_AT91SAM7S/portISR.c">
<polygon fill="white" stroke="black" points="2167.5,-1 2167.5,-31 2322.5,-31 2322.5,-1 2167.5,-1"/>
<text text-anchor="start" x="2175.5" y="-19" font-family="Helvetica,sans-Serif" font-size="10.00">source/portable/GCC</text>
<text text-anchor="middle" x="2245" y="-8" font-family="Helvetica,sans-Serif" font-size="10.00">/ARM7_AT91SAM7S/portISR.c</text>
</a>
</g>
</g>
<!-- Node2&#45;&gt;Node18 -->
<g id="edge17" class="edge"><title>Node2&#45;&gt;Node18</title>
<path fill="none" stroke="midnightblue" d="M3366.86,-77.3415C3183.25,-77.3434 2718.2,-72.9099 2332,-32 2328.95,-31.6771 2325.85,-31.3131 2322.72,-30.9164"/>
<polygon fill="midnightblue" stroke="midnightblue" points="3366.97,-80.8415 3376.97,-77.3369 3366.97,-73.8415 3366.97,-80.8415"/>
</g>
<!-- Node19 -->
<g id="node19" class="node"><title>Node19</title>
<g id="a_node19"><a xlink:href="_g_c_c_2_a_r_m7___l_p_c2000_2port_8c.html" target="_top" xlink:title="source/portable/GCC\l/ARM7_LPC2000/port.c">
<polygon fill="white" stroke="black" points="2341,-1 2341,-31 2463,-31 2463,-1 2341,-1"/>
<text text-anchor="start" x="2349" y="-19" font-family="Helvetica,sans-Serif" font-size="10.00">source/portable/GCC</text>
<text text-anchor="middle" x="2402" y="-8" font-family="Helvetica,sans-Serif" font-size="10.00">/ARM7_LPC2000/port.c</text>
</a>
</g>
</g>
<!-- Node2&#45;&gt;Node19 -->
<g id="edge18" class="edge"><title>Node2&#45;&gt;Node19</title>
<path fill="none" stroke="midnightblue" d="M3366.7,-77.759C3199.5,-78.3597 2802.03,-74.6803 2472,-32 2469.17,-31.6334 2466.27,-31.2116 2463.36,-30.7474"/>
<polygon fill="midnightblue" stroke="midnightblue" points="3366.92,-81.2583 3376.9,-77.716 3366.89,-74.2583 3366.92,-81.2583"/>
</g>
<!-- Node20 -->
<g id="node20" class="node"><title>Node20</title>
<g id="a_node20"><a xlink:href="_a_r_m7___l_p_c2000_2port_i_s_r_8c.html" target="_top" xlink:title="source/portable/GCC\l/ARM7_LPC2000/portISR.c">
<polygon fill="white" stroke="black" points="2481.5,-1 2481.5,-31 2620.5,-31 2620.5,-1 2481.5,-1"/>
<text text-anchor="start" x="2489.5" y="-19" font-family="Helvetica,sans-Serif" font-size="10.00">source/portable/GCC</text>
<text text-anchor="middle" x="2551" y="-8" font-family="Helvetica,sans-Serif" font-size="10.00">/ARM7_LPC2000/portISR.c</text>
</a>
</g>
</g>
<!-- Node2&#45;&gt;Node20 -->
<g id="edge19" class="edge"><title>Node2&#45;&gt;Node20</title>
<path fill="none" stroke="midnightblue" d="M3366.69,-76.1724C3219.75,-73.8614 2897.99,-65.1095 2629,-32 2626.26,-31.6631 2623.48,-31.2872 2620.67,-30.8806"/>
<polygon fill="midnightblue" stroke="midnightblue" points="3366.91,-79.6761 3376.96,-76.3279 3367.01,-72.6769 3366.91,-79.6761"/>
</g>
<!-- Node21 -->
<g id="node21" class="node"><title>Node21</title>
<g id="a_node21"><a xlink:href="_g_c_c_2_a_r_m7___l_p_c23xx_2port_8c.html" target="_top" xlink:title="source/portable/GCC\l/ARM7_LPC23xx/port.c">
<polygon fill="white" stroke="black" points="2638.5,-1 2638.5,-31 2759.5,-31 2759.5,-1 2638.5,-1"/>
<text text-anchor="start" x="2646.5" y="-19" font-family="Helvetica,sans-Serif" font-size="10.00">source/portable/GCC</text>
<text text-anchor="middle" x="2699" y="-8" font-family="Helvetica,sans-Serif" font-size="10.00">/ARM7_LPC23xx/port.c</text>
</a>
</g>
</g>
<!-- Node2&#45;&gt;Node21 -->
<g id="edge20" class="edge"><title>Node2&#45;&gt;Node21</title>
<path fill="none" stroke="midnightblue" d="M3366.82,-75.4319C3239.55,-72.1006 2983.71,-61.9693 2769,-32 2765.92,-31.5705 2762.78,-31.0818 2759.61,-30.5496"/>
<polygon fill="midnightblue" stroke="midnightblue" points="3366.79,-78.9321 3376.87,-75.6878 3366.96,-71.9344 3366.79,-78.9321"/>
</g>
<!-- Node22 -->
<g id="node22" class="node"><title>Node22</title>
<g id="a_node22"><a xlink:href="_a_r_m7___l_p_c23xx_2port_i_s_r_8c.html" target="_top" xlink:title="source/portable/GCC\l/ARM7_LPC23xx/portISR.c">
<polygon fill="white" stroke="black" points="2778,-1 2778,-31 2916,-31 2916,-1 2778,-1"/>
<text text-anchor="start" x="2786" y="-19" font-family="Helvetica,sans-Serif" font-size="10.00">source/portable/GCC</text>
<text text-anchor="middle" x="2847" y="-8" font-family="Helvetica,sans-Serif" font-size="10.00">/ARM7_LPC23xx/portISR.c</text>
</a>
</g>
</g>
<!-- Node2&#45;&gt;Node22 -->
<g id="edge21" class="edge"><title>Node2&#45;&gt;Node22</title>
<path fill="none" stroke="midnightblue" d="M3366.67,-72.6757C3263.92,-66.5488 3080.64,-53.6143 2925,-32 2922.13,-31.6017 2919.21,-31.1677 2916.26,-30.7068"/>
<polygon fill="midnightblue" stroke="midnightblue" points="3366.47,-76.1701 3376.66,-73.2652 3366.89,-69.1822 3366.47,-76.1701"/>
</g>
<!-- Node23 -->
<g id="node23" class="node"><title>Node23</title>
<g id="a_node23"><a xlink:href="_g_c_c_2_a_r_m___c_a9_2port_8c.html" target="_top" xlink:title="source/portable/GCC\l/ARM_CA9/port.c">
<polygon fill="white" stroke="black" points="2934,-1 2934,-31 3044,-31 3044,-1 2934,-1"/>
<text text-anchor="start" x="2942" y="-19" font-family="Helvetica,sans-Serif" font-size="10.00">source/portable/GCC</text>
<text text-anchor="middle" x="2989" y="-8" font-family="Helvetica,sans-Serif" font-size="10.00">/ARM_CA9/port.c</text>
</a>
</g>
</g>
<!-- Node2&#45;&gt;Node23 -->
<g id="edge22" class="edge"><title>Node2&#45;&gt;Node23</title>
<path fill="none" stroke="midnightblue" d="M3366.91,-70.6076C3287.02,-63.5857 3160.98,-50.755 3053,-32 3050.08,-31.4922 3047.09,-30.9329 3044.07,-30.3377"/>
<polygon fill="midnightblue" stroke="midnightblue" points="3366.63,-74.0969 3376.9,-71.4768 3367.24,-67.1233 3366.63,-74.0969"/>
</g>
<!-- Node24 -->
<g id="node24" class="node"><title>Node24</title>
<g id="a_node24"><a xlink:href="_g_c_c_2_a_r_m___c_m0_2port_8c.html" target="_top" xlink:title="source/portable/GCC\l/ARM_CM0/port.c">
<polygon fill="white" stroke="black" points="3062,-1 3062,-31 3172,-31 3172,-1 3062,-1"/>
<text text-anchor="start" x="3070" y="-19" font-family="Helvetica,sans-Serif" font-size="10.00">source/portable/GCC</text>
<text text-anchor="middle" x="3117" y="-8" font-family="Helvetica,sans-Serif" font-size="10.00">/ARM_CM0/port.c</text>
</a>
</g>
</g>
<!-- Node2&#45;&gt;Node24 -->
<g id="edge23" class="edge"><title>Node2&#45;&gt;Node24</title>
<path fill="none" stroke="midnightblue" d="M3380.39,-66.9166C3326.46,-58.4679 3248.61,-45.6283 3181,-32 3178.09,-31.4137 3175.11,-30.7918 3172.11,-30.1475"/>
<polygon fill="midnightblue" stroke="midnightblue" points="3380.09,-70.4122 3390.51,-68.4945 3381.17,-63.4957 3380.09,-70.4122"/>
</g>
<!-- Node25 -->
<g id="node25" class="node"><title>Node25</title>
<g id="a_node25"><a xlink:href="_g_c_c_2_a_r_m___c_m3_2port_8c.html" target="_top" xlink:title="source/portable/GCC\l/ARM_CM3/port.c">
<polygon fill="white" stroke="black" points="3190,-1 3190,-31 3300,-31 3300,-1 3190,-1"/>
<text text-anchor="start" x="3198" y="-19" font-family="Helvetica,sans-Serif" font-size="10.00">source/portable/GCC</text>
<text text-anchor="middle" x="3245" y="-8" font-family="Helvetica,sans-Serif" font-size="10.00">/ARM_CM3/port.c</text>
</a>
</g>
</g>
<!-- Node2&#45;&gt;Node25 -->
<g id="edge24" class="edge"><title>Node2&#45;&gt;Node25</title>
<path fill="none" stroke="midnightblue" d="M3408.29,-65.5031C3375.22,-55.6798 3327.53,-41.5137 3292.22,-31.0253"/>
<polygon fill="midnightblue" stroke="midnightblue" points="3407.48,-68.9112 3418.06,-68.4035 3409.47,-62.2009 3407.48,-68.9112"/>
</g>
<!-- Node26 -->
<g id="node26" class="node"><title>Node26</title>
<g id="a_node26"><a xlink:href="_g_c_c_2_a_r_m___c_m3___m_p_u_2port_8c.html" target="_top" xlink:title="source/portable/GCC\l/ARM_CM3_MPU/port.c">
<polygon fill="white" stroke="black" points="3318,-1 3318,-31 3442,-31 3442,-1 3318,-1"/>
<text text-anchor="start" x="3326" y="-19" font-family="Helvetica,sans-Serif" font-size="10.00">source/portable/GCC</text>
<text text-anchor="middle" x="3380" y="-8" font-family="Helvetica,sans-Serif" font-size="10.00">/ARM_CM3_MPU/port.c</text>
</a>
</g>
</g>
<!-- Node2&#45;&gt;Node26 -->
<g id="edge25" class="edge"><title>Node2&#45;&gt;Node26</title>
<path fill="none" stroke="midnightblue" d="M3429.71,-61.5169C3419.24,-52.1384 3405.98,-40.2659 3395.79,-31.1408"/>
<polygon fill="midnightblue" stroke="midnightblue" points="3427.62,-64.3396 3437.4,-68.4035 3432.29,-59.1249 3427.62,-64.3396"/>
</g>
<!-- Node27 -->
<g id="node27" class="node"><title>Node27</title>
<g id="a_node27"><a xlink:href="_g_c_c_2_a_r_m___c_m4_f_2port_8c.html" target="_top" xlink:title="source/portable/GCC\l/ARM_CM4F/port.c">
<polygon fill="white" stroke="black" points="3460,-1 3460,-31 3570,-31 3570,-1 3460,-1"/>
<text text-anchor="start" x="3468" y="-19" font-family="Helvetica,sans-Serif" font-size="10.00">source/portable/GCC</text>
<text text-anchor="middle" x="3515" y="-8" font-family="Helvetica,sans-Serif" font-size="10.00">/ARM_CM4F/port.c</text>
</a>
</g>
</g>
<!-- Node2&#45;&gt;Node27 -->
<g id="edge26" class="edge"><title>Node2&#45;&gt;Node27</title>
<path fill="none" stroke="midnightblue" d="M3464.55,-61.5169C3475.18,-52.1384 3488.63,-40.2659 3498.97,-31.1408"/>
<polygon fill="midnightblue" stroke="midnightblue" points="3461.93,-59.1628 3456.74,-68.4035 3466.56,-64.4117 3461.93,-59.1628"/>
</g>
<!-- Node28 -->
<g id="node28" class="node"><title>Node28</title>
<g id="a_node28"><a xlink:href="_g_c_c_2_a_r_m___c_m7_2r0p1_2port_8c.html" target="_top" xlink:title="source/portable/GCC\l/ARM_CM7/r0p1/port.c">
<polygon fill="white" stroke="black" points="3588.5,-1 3588.5,-31 3707.5,-31 3707.5,-1 3588.5,-1"/>
<text text-anchor="start" x="3596.5" y="-19" font-family="Helvetica,sans-Serif" font-size="10.00">source/portable/GCC</text>
<text text-anchor="middle" x="3648" y="-8" font-family="Helvetica,sans-Serif" font-size="10.00">/ARM_CM7/r0p1/port.c</text>
</a>
</g>
</g>
<!-- Node2&#45;&gt;Node28 -->
<g id="edge27" class="edge"><title>Node2&#45;&gt;Node28</title>
<path fill="none" stroke="midnightblue" d="M3485.51,-65.5031C3518.42,-55.6798 3565.88,-41.5137 3601.02,-31.0253"/>
<polygon fill="midnightblue" stroke="midnightblue" points="3484.38,-62.1893 3475.8,-68.4035 3486.38,-68.8968 3484.38,-62.1893"/>
</g>
<!-- Node29 -->
<g id="node29" class="node"><title>Node29</title>
<g id="a_node29"><a xlink:href="_g_c_c_2_a_r_m___c_r5_2port_8c.html" target="_top" xlink:title="source/portable/GCC\l/ARM_CR5/port.c">
<polygon fill="white" stroke="black" points="3726,-1 3726,-31 3836,-31 3836,-1 3726,-1"/>
<text text-anchor="start" x="3734" y="-19" font-family="Helvetica,sans-Serif" font-size="10.00">source/portable/GCC</text>
<text text-anchor="middle" x="3781" y="-8" font-family="Helvetica,sans-Serif" font-size="10.00">/ARM_CR5/port.c</text>
</a>
</g>
</g>
<!-- Node2&#45;&gt;Node29 -->
<g id="edge28" class="edge"><title>Node2&#45;&gt;Node29</title>
<path fill="none" stroke="midnightblue" d="M3514.02,-66.953C3568.56,-58.4956 3647.47,-45.6264 3716,-32 3719.18,-31.3676 3722.44,-30.6941 3725.73,-29.9961"/>
<polygon fill="midnightblue" stroke="midnightblue" points="3513.47,-63.4955 3504.12,-68.48 3514.54,-70.4136 3513.47,-63.4955"/>
</g>
<!-- Node30 -->
<g id="node30" class="node"><title>Node30</title>
<g id="a_node30"><a xlink:href="_g_c_c_2_a_r_m___c_rx___no___g_i_c_2port_8c.html" target="_top" xlink:title="source/portable/GCC\l/ARM_CRx_No_GIC/port.c">
<polygon fill="white" stroke="black" points="3854,-1 3854,-31 3990,-31 3990,-1 3854,-1"/>
<text text-anchor="start" x="3862" y="-19" font-family="Helvetica,sans-Serif" font-size="10.00">source/portable/GCC</text>
<text text-anchor="middle" x="3922" y="-8" font-family="Helvetica,sans-Serif" font-size="10.00">/ARM_CRx_No_GIC/port.c</text>
</a>
</g>
</g>
<!-- Node2&#45;&gt;Node30 -->
<g id="edge29" class="edge"><title>Node2&#45;&gt;Node30</title>
<path fill="none" stroke="midnightblue" d="M3527.4,-69.8099C3607.96,-62.1585 3735.42,-48.8404 3845,-32 3847.83,-31.5656 3850.71,-31.1014 3853.62,-30.6155"/>
<polygon fill="midnightblue" stroke="midnightblue" points="3526.95,-66.3366 3517.32,-70.7604 3527.61,-73.3056 3526.95,-66.3366"/>
</g>
<!-- Node31 -->
<g id="node31" class="node"><title>Node31</title>
<g id="a_node31"><a xlink:href="_g_c_c_2_a_t_mega323_2port_8c.html" target="_top" xlink:title="source/portable/GCC\l/ATMega323/port.c">
<polygon fill="white" stroke="black" points="4008,-1 4008,-31 4118,-31 4118,-1 4008,-1"/>
<text text-anchor="start" x="4016" y="-19" font-family="Helvetica,sans-Serif" font-size="10.00">source/portable/GCC</text>
<text text-anchor="middle" x="4063" y="-8" font-family="Helvetica,sans-Serif" font-size="10.00">/ATMega323/port.c</text>
</a>
</g>
</g>
<!-- Node2&#45;&gt;Node31 -->
<g id="edge30" class="edge"><title>Node2&#45;&gt;Node31</title>
<path fill="none" stroke="midnightblue" d="M3527.26,-74.2036C3635.09,-69.5939 3832.45,-58.1578 3999,-32 4001.93,-31.5396 4004.93,-31.0181 4007.94,-30.4525"/>
<polygon fill="midnightblue" stroke="midnightblue" points="3526.95,-70.7133 3517.11,-74.6287 3527.24,-77.7072 3526.95,-70.7133"/>
</g>
<!-- Node32 -->
<g id="node32" class="node"><title>Node32</title>
<g id="a_node32"><a xlink:href="_g_c_c_2_a_v_r32___u_c3_2port_8c.html" target="_top" xlink:title="FreeRTOS port source for AVR32 UC3. ">
<polygon fill="white" stroke="black" points="4136,-1 4136,-31 4246,-31 4246,-1 4136,-1"/>
<text text-anchor="start" x="4144" y="-19" font-family="Helvetica,sans-Serif" font-size="10.00">source/portable/GCC</text>
<text text-anchor="middle" x="4191" y="-8" font-family="Helvetica,sans-Serif" font-size="10.00">/AVR32_UC3/port.c</text>
</a>
</g>
</g>
<!-- Node2&#45;&gt;Node32 -->
<g id="edge31" class="edge"><title>Node2&#45;&gt;Node32</title>
<path fill="none" stroke="midnightblue" d="M3527.49,-75.9393C3655.23,-73.2997 3911.95,-64.0944 4127,-32 4129.93,-31.562 4132.93,-31.0583 4135.95,-30.5067"/>
<polygon fill="midnightblue" stroke="midnightblue" points="3527.33,-72.4418 3517.4,-76.1397 3527.46,-79.4404 3527.33,-72.4418"/>
</g>
<!-- Node33 -->
<g id="node33" class="node"><title>Node33</title>
<g id="a_node33"><a xlink:href="_g_c_c_2_cold_fire___v2_2port_8c.html" target="_top" xlink:title="source/portable/GCC\l/ColdFire_V2/port.c">
<polygon fill="white" stroke="black" points="4264,-1 4264,-31 4374,-31 4374,-1 4264,-1"/>
<text text-anchor="start" x="4272" y="-19" font-family="Helvetica,sans-Serif" font-size="10.00">source/portable/GCC</text>
<text text-anchor="middle" x="4319" y="-8" font-family="Helvetica,sans-Serif" font-size="10.00">/ColdFire_V2/port.c</text>
</a>
</g>
</g>
<!-- Node2&#45;&gt;Node33 -->
<g id="edge32" class="edge"><title>Node2&#45;&gt;Node33</title>
<path fill="none" stroke="midnightblue" d="M3527.31,-77.1533C3673.06,-76.4061 3990.52,-70.0606 4255,-32 4257.94,-31.5774 4260.94,-31.0858 4263.96,-30.5438"/>
<polygon fill="midnightblue" stroke="midnightblue" points="3527.1,-73.6541 3517.12,-77.1978 3527.13,-80.654 3527.1,-73.6541"/>
</g>
<!-- Node34 -->
<g id="node34" class="node"><title>Node34</title>
<g id="a_node34"><a xlink:href="_g_c_c_2_c_o_r_t_u_s___a_p_s3_2port_8c.html" target="_top" xlink:title="source/portable/GCC\l/CORTUS_APS3/port.c">
<polygon fill="white" stroke="black" points="4392,-1 4392,-31 4512,-31 4512,-1 4392,-1"/>
<text text-anchor="start" x="4400" y="-19" font-family="Helvetica,sans-Serif" font-size="10.00">source/portable/GCC</text>
<text text-anchor="middle" x="4452" y="-8" font-family="Helvetica,sans-Serif" font-size="10.00">/CORTUS_APS3/port.c</text>
</a>
</g>
</g>
<!-- Node2&#45;&gt;Node34 -->
<g id="edge33" class="edge"><title>Node2&#45;&gt;Node34</title>
<path fill="none" stroke="midnightblue" d="M3527.61,-77.614C3690.15,-77.8645 4068.53,-73.4491 4383,-32 4385.92,-31.6155 4388.89,-31.1713 4391.89,-30.6819"/>
<polygon fill="midnightblue" stroke="midnightblue" points="3527.23,-74.1133 3517.22,-77.5911 3527.21,-81.1132 3527.23,-74.1133"/>
</g>
<!-- Node35 -->
<g id="node35" class="node"><title>Node35</title>
<g id="a_node35"><a xlink:href="_g_c_c_2_h8_s2329_2port_8c.html" target="_top" xlink:title="source/portable/GCC\l/H8S2329/port.c">
<polygon fill="white" stroke="black" points="4530,-1 4530,-31 4640,-31 4640,-1 4530,-1"/>
<text text-anchor="start" x="4538" y="-19" font-family="Helvetica,sans-Serif" font-size="10.00">source/portable/GCC</text>
<text text-anchor="middle" x="4585" y="-8" font-family="Helvetica,sans-Serif" font-size="10.00">/H8S2329/port.c</text>
</a>
</g>
</g>
<!-- Node2&#45;&gt;Node35 -->
<g id="edge34" class="edge"><title>Node2&#45;&gt;Node35</title>
<path fill="none" stroke="midnightblue" d="M3527.45,-75.5928C3742.84,-71.5117 4329.19,-58.2574 4521,-32 4523.94,-31.5976 4526.94,-31.1222 4529.97,-30.5927"/>
<polygon fill="midnightblue" stroke="midnightblue" points="3527.11,-72.0986 3517.17,-75.786 3527.24,-79.0974 3527.11,-72.0986"/>
</g>
<!-- Node36 -->
<g id="node36" class="node"><title>Node36</title>
<g id="a_node36"><a xlink:href="_g_c_c_2_h_c_s12_2port_8c.html" target="_top" xlink:title="source/portable/GCC\l/HCS12/port.c">
<polygon fill="white" stroke="black" points="4658,-1 4658,-31 4768,-31 4768,-1 4658,-1"/>
<text text-anchor="start" x="4666" y="-19" font-family="Helvetica,sans-Serif" font-size="10.00">source/portable/GCC</text>
<text text-anchor="middle" x="4713" y="-8" font-family="Helvetica,sans-Serif" font-size="10.00">/HCS12/port.c</text>
</a>
</g>
</g>
<!-- Node2&#45;&gt;Node36 -->
<g id="edge35" class="edge"><title>Node2&#45;&gt;Node36</title>
<path fill="none" stroke="midnightblue" d="M3527.19,-76.014C3759.69,-72.8354 4431.31,-61.3068 4649,-32 4651.94,-31.6041 4654.94,-31.1339 4657.97,-30.6086"/>
<polygon fill="midnightblue" stroke="midnightblue" points="3527.07,-72.5153 3517.12,-76.1503 3527.17,-79.5146 3527.07,-72.5153"/>
</g>
<!-- Node37 -->
<g id="node37" class="node"><title>Node37</title>
<g id="a_node37"><a xlink:href="_g_c_c_2_i_a32__flat_2port_8c.html" target="_top" xlink:title="source/portable/GCC\l/IA32_flat/port.c">
<polygon fill="white" stroke="black" points="4786,-1 4786,-31 4896,-31 4896,-1 4786,-1"/>
<text text-anchor="start" x="4794" y="-19" font-family="Helvetica,sans-Serif" font-size="10.00">source/portable/GCC</text>
<text text-anchor="middle" x="4841" y="-8" font-family="Helvetica,sans-Serif" font-size="10.00">/IA32_flat/port.c</text>
</a>
</g>
</g>
<!-- Node2&#45;&gt;Node37 -->
<g id="edge36" class="edge"><title>Node2&#45;&gt;Node37</title>
<path fill="none" stroke="midnightblue" d="M3527.45,-76.3485C3776.63,-74.004 4533.46,-64.3406 4777,-32 4779.94,-31.6094 4782.95,-31.1434 4785.97,-30.6214"/>
<polygon fill="midnightblue" stroke="midnightblue" points="3527.35,-72.8492 3517.39,-76.4419 3527.42,-79.8489 3527.35,-72.8492"/>
</g>
<!-- Node38 -->
<g id="node38" class="node"><title>Node38</title>
<g id="a_node38"><a xlink:href="_g_c_c_2_m_c_f5235_2port_8c.html" target="_top" xlink:title="source/portable/GCC\l/MCF5235/port.c">
<polygon fill="white" stroke="black" points="4914,-1 4914,-31 5024,-31 5024,-1 4914,-1"/>
<text text-anchor="start" x="4922" y="-19" font-family="Helvetica,sans-Serif" font-size="10.00">source/portable/GCC</text>
<text text-anchor="middle" x="4969" y="-8" font-family="Helvetica,sans-Serif" font-size="10.00">/MCF5235/port.c</text>
</a>
</g>
</g>
<!-- Node2&#45;&gt;Node38 -->
<g id="edge37" class="edge"><title>Node2&#45;&gt;Node38</title>
<path fill="none" stroke="midnightblue" d="M3527.34,-76.6285C3792.08,-75.0735 4635.38,-67.3962 4905,-32 4907.94,-31.6138 4910.95,-31.1513 4913.97,-30.632"/>
<polygon fill="midnightblue" stroke="midnightblue" points="3527.03,-73.1302 3517.05,-76.6876 3527.07,-80.1301 3527.03,-73.1302"/>
</g>
<!-- Node39 -->
<g id="node39" class="node"><title>Node39</title>
<g id="a_node39"><a xlink:href="_g_c_c_2_micro_blaze_2port_8c.html" target="_top" xlink:title="source/portable/GCC\l/MicroBlaze/port.c">
<polygon fill="white" stroke="black" points="5042,-1 5042,-31 5152,-31 5152,-1 5042,-1"/>
<text text-anchor="start" x="5050" y="-19" font-family="Helvetica,sans-Serif" font-size="10.00">source/portable/GCC</text>
<text text-anchor="middle" x="5097" y="-8" font-family="Helvetica,sans-Serif" font-size="10.00">/MicroBlaze/port.c</text>
</a>
</g>
</g>
<!-- Node2&#45;&gt;Node39 -->
<g id="edge38" class="edge"><title>Node2&#45;&gt;Node39</title>
<path fill="none" stroke="midnightblue" d="M3527.22,-76.8633C3806.79,-76.0525 4737.2,-70.4587 5033,-32 5035.94,-31.6174 5038.95,-31.1579 5041.97,-30.6408"/>
<polygon fill="midnightblue" stroke="midnightblue" points="3527.15,-73.3634 3517.16,-76.8912 3527.17,-80.3634 3527.15,-73.3634"/>
</g>
<!-- Node40 -->
<g id="node40" class="node"><title>Node40</title>
<g id="a_node40"><a xlink:href="_g_c_c_2_micro_blaze_v8_2port_8c.html" target="_top" xlink:title="source/portable/GCC\l/MicroBlazeV8/port.c">
<polygon fill="white" stroke="black" points="5170,-1 5170,-31 5280,-31 5280,-1 5170,-1"/>
<text text-anchor="start" x="5178" y="-19" font-family="Helvetica,sans-Serif" font-size="10.00">source/portable/GCC</text>
<text text-anchor="middle" x="5225" y="-8" font-family="Helvetica,sans-Serif" font-size="10.00">/MicroBlazeV8/port.c</text>
</a>
</g>
</g>
<!-- Node2&#45;&gt;Node40 -->
<g id="edge39" class="edge"><title>Node2&#45;&gt;Node40</title>
<path fill="none" stroke="midnightblue" d="M3527.15,-77.0628C3821.02,-76.9556 4838.96,-73.5242 5161,-32 5163.94,-31.6205 5166.95,-31.1635 5169.97,-30.6484"/>
<polygon fill="midnightblue" stroke="midnightblue" points="3527.01,-73.5627 3517.01,-77.0653 3527.01,-80.5627 3527.01,-73.5627"/>
</g>
<!-- Node41 -->
<g id="node41" class="node"><title>Node41</title>
<g id="a_node41"><a xlink:href="port__exceptions_8c.html" target="_top" xlink:title="source/portable/GCC\l/MicroBlazeV8/port_exceptions.c">
<polygon fill="white" stroke="black" points="5298,-1 5298,-31 5460,-31 5460,-1 5298,-1"/>
<text text-anchor="start" x="5306" y="-19" font-family="Helvetica,sans-Serif" font-size="10.00">source/portable/GCC</text>
<text text-anchor="middle" x="5379" y="-8" font-family="Helvetica,sans-Serif" font-size="10.00">/MicroBlazeV8/port_exceptions.c</text>
</a>
</g>
</g>
<!-- Node2&#45;&gt;Node41 -->
<g id="edge40" class="edge"><title>Node2&#45;&gt;Node41</title>
<path fill="none" stroke="midnightblue" d="M3527.31,-76.5431C3835.08,-74.5584 4939.49,-65.2286 5289,-32 5292,-31.7151 5295.04,-31.39 5298.12,-31.032"/>
<polygon fill="midnightblue" stroke="midnightblue" points="3527.12,-73.0442 3517.14,-76.6079 3527.16,-80.0441 3527.12,-73.0442"/>
</g>
<!-- Node42 -->
<g id="node42" class="node"><title>Node42</title>
<g id="a_node42"><a xlink:href="_g_c_c_2_m_s_p430_f449_2port_8c.html" target="_top" xlink:title="source/portable/GCC\l/MSP430F449/port.c">
<polygon fill="white" stroke="black" points="5478,-1 5478,-31 5588,-31 5588,-1 5478,-1"/>
<text text-anchor="start" x="5486" y="-19" font-family="Helvetica,sans-Serif" font-size="10.00">source/portable/GCC</text>
<text text-anchor="middle" x="5533" y="-8" font-family="Helvetica,sans-Serif" font-size="10.00">/MSP430F449/port.c</text>
</a>
</g>
</g>
<!-- Node2&#45;&gt;Node42 -->
<g id="edge41" class="edge"><title>Node2&#45;&gt;Node42</title>
<path fill="none" stroke="midnightblue" d="M3527.48,-77.4415C3854.37,-78.8896 5083.7,-80.8983 5469,-32 5471.94,-31.6264 5474.95,-31.174 5477.97,-30.6626"/>
<polygon fill="midnightblue" stroke="midnightblue" points="3527.16,-73.9401 3517.15,-77.3946 3527.13,-80.94 3527.16,-73.9401"/>
</g>
<!-- Node43 -->
<g id="node43" class="node"><title>Node43</title>
<g id="a_node43"><a xlink:href="_g_c_c_2_nios_i_i_2port_8c.html" target="_top" xlink:title="source/portable/GCC\l/NiosII/port.c">
<polygon fill="white" stroke="black" points="5606,-1 5606,-31 5716,-31 5716,-1 5606,-1"/>
<text text-anchor="start" x="5614" y="-19" font-family="Helvetica,sans-Serif" font-size="10.00">source/portable/GCC</text>
<text text-anchor="middle" x="5661" y="-8" font-family="Helvetica,sans-Serif" font-size="10.00">/NiosII/port.c</text>
</a>
</g>
</g>
<!-- Node2&#45;&gt;Node43 -->
<g id="edge42" class="edge"><title>Node2&#45;&gt;Node43</title>
<path fill="none" stroke="midnightblue" d="M3527.36,-76.3143C3892.83,-73.0612 5389.14,-58.2397 5597,-32 5599.94,-31.6284 5602.95,-31.1775 5605.98,-30.6674"/>
<polygon fill="midnightblue" stroke="midnightblue" points="3527.11,-72.8163 3517.14,-76.4049 3527.17,-79.8161 3527.11,-72.8163"/>
</g>
<!-- Node44 -->
<g id="node44" class="node"><title>Node44</title>
<g id="a_node44"><a xlink:href="_g_c_c_2_p_p_c405___xilinx_2port_8c.html" target="_top" xlink:title="source/portable/GCC\l/PPC405_Xilinx/port.c">
<polygon fill="white" stroke="black" points="5734,-1 5734,-31 5848,-31 5848,-1 5734,-1"/>
<text text-anchor="start" x="5742" y="-19" font-family="Helvetica,sans-Serif" font-size="10.00">source/portable/GCC</text>
<text text-anchor="middle" x="5791" y="-8" font-family="Helvetica,sans-Serif" font-size="10.00">/PPC405_Xilinx/port.c</text>
</a>
</g>
</g>
<!-- Node2&#45;&gt;Node44 -->
<g id="edge43" class="edge"><title>Node2&#45;&gt;Node44</title>
<path fill="none" stroke="midnightblue" d="M3527.15,-76.3857C3905.51,-73.3553 5503.7,-59.0464 5725,-32 5727.92,-31.6436 5730.89,-31.2138 5733.89,-30.7283"/>
<polygon fill="midnightblue" stroke="midnightblue" points="3527.08,-72.8861 3517.11,-76.4658 3527.14,-79.8859 3527.08,-72.8861"/>
</g>
<!-- Node45 -->
<g id="node45" class="node"><title>Node45</title>
<g id="a_node45"><a xlink:href="_g_c_c_2_p_p_c440___xilinx_2port_8c.html" target="_top" xlink:title="source/portable/GCC\l/PPC440_Xilinx/port.c">
<polygon fill="white" stroke="black" points="5866,-1 5866,-31 5980,-31 5980,-1 5866,-1"/>
<text text-anchor="start" x="5874" y="-19" font-family="Helvetica,sans-Serif" font-size="10.00">source/portable/GCC</text>
<text text-anchor="middle" x="5923" y="-8" font-family="Helvetica,sans-Serif" font-size="10.00">/PPC440_Xilinx/port.c</text>
</a>
</g>
</g>
<!-- Node2&#45;&gt;Node45 -->
<g id="edge44" class="edge"><title>Node2&#45;&gt;Node45</title>
<path fill="none" stroke="midnightblue" d="M3527.27,-76.4783C3919.14,-73.7998 5621.97,-60.5952 5857,-32 5859.92,-31.6452 5862.89,-31.2166 5865.89,-30.7321"/>
<polygon fill="midnightblue" stroke="midnightblue" points="3527.13,-72.9791 3517.15,-76.5471 3527.18,-79.9789 3527.13,-72.9791"/>
</g>
<!-- Node46 -->
<g id="node46" class="node"><title>Node46</title>
<g id="a_node46"><a xlink:href="_g_c_c_2_r_l78_2port_8c.html" target="_top" xlink:title="source/portable/GCC\l/RL78/port.c">
<polygon fill="white" stroke="black" points="5998,-1 5998,-31 6108,-31 6108,-1 5998,-1"/>
<text text-anchor="start" x="6006" y="-19" font-family="Helvetica,sans-Serif" font-size="10.00">source/portable/GCC</text>
<text text-anchor="middle" x="6053" y="-8" font-family="Helvetica,sans-Serif" font-size="10.00">/RL78/port.c</text>
</a>
</g>
</g>
<!-- Node2&#45;&gt;Node46 -->
<g id="edge45" class="edge"><title>Node2&#45;&gt;Node46</title>
<path fill="none" stroke="midnightblue" d="M3527.34,-76.5938C3932.31,-74.4096 5740.32,-62.9854 5989,-32 5991.94,-31.6331 5994.95,-31.1861 5997.98,-30.6789"/>
<polygon fill="midnightblue" stroke="midnightblue" points="3527.16,-73.0946 3517.18,-76.6482 3527.2,-80.0945 3527.16,-73.0946"/>
</g>
<!-- Node47 -->
<g id="node47" class="node"><title>Node47</title>
<g id="a_node47"><a xlink:href="_g_c_c_2_r_x100_2port_8c.html" target="_top" xlink:title="source/portable/GCC\l/RX100/port.c">
<polygon fill="white" stroke="black" points="6126,-1 6126,-31 6236,-31 6236,-1 6126,-1"/>
<text text-anchor="start" x="6134" y="-19" font-family="Helvetica,sans-Serif" font-size="10.00">source/portable/GCC</text>
<text text-anchor="middle" x="6181" y="-8" font-family="Helvetica,sans-Serif" font-size="10.00">/RX100/port.c</text>
</a>
</g>
</g>
<!-- Node2&#45;&gt;Node47 -->
<g id="edge46" class="edge"><title>Node2&#45;&gt;Node47</title>
<path fill="none" stroke="midnightblue" d="M3527.28,-76.6675C3944.39,-74.8034 5854.94,-64.5397 6117,-32 6119.94,-31.6344 6122.95,-31.1883 6125.98,-30.6819"/>
<polygon fill="midnightblue" stroke="midnightblue" points="3527.11,-73.1682 3517.13,-76.7126 3527.14,-80.1681 3527.11,-73.1682"/>
</g>
<!-- Node48 -->
<g id="node48" class="node"><title>Node48</title>
<g id="a_node48"><a xlink:href="_g_c_c_2_r_x600_2port_8c.html" target="_top" xlink:title="source/portable/GCC\l/RX600/port.c">
<polygon fill="white" stroke="black" points="6254,-1 6254,-31 6364,-31 6364,-1 6254,-1"/>
<text text-anchor="start" x="6262" y="-19" font-family="Helvetica,sans-Serif" font-size="10.00">source/portable/GCC</text>
<text text-anchor="middle" x="6309" y="-8" font-family="Helvetica,sans-Serif" font-size="10.00">/RX600/port.c</text>
</a>
</g>
</g>
<!-- Node2&#45;&gt;Node48 -->
<g id="edge47" class="edge"><title>Node2&#45;&gt;Node48</title>
<path fill="none" stroke="midnightblue" d="M3527.28,-76.7343C3956.34,-75.1772 5969.55,-66.0943 6245,-32 6247.94,-31.6355 6250.95,-31.1903 6253.98,-30.6846"/>
<polygon fill="midnightblue" stroke="midnightblue" points="3527.13,-73.2347 3517.14,-76.7708 3527.16,-80.2347 3527.13,-73.2347"/>
</g>
<!-- Node49 -->
<g id="node49" class="node"><title>Node49</title>
<g id="a_node49"><a xlink:href="_g_c_c_2_r_x600v2_2port_8c.html" target="_top" xlink:title="source/portable/GCC\l/RX600v2/port.c">
<polygon fill="white" stroke="black" points="6382,-1 6382,-31 6492,-31 6492,-1 6382,-1"/>
<text text-anchor="start" x="6390" y="-19" font-family="Helvetica,sans-Serif" font-size="10.00">source/portable/GCC</text>
<text text-anchor="middle" x="6437" y="-8" font-family="Helvetica,sans-Serif" font-size="10.00">/RX600v2/port.c</text>
</a>
</g>
</g>
<!-- Node2&#45;&gt;Node49 -->
<g id="edge48" class="edge"><title>Node2&#45;&gt;Node49</title>
<path fill="none" stroke="midnightblue" d="M3527.37,-76.795C3968.3,-75.5327 6084.17,-67.6479 6373,-32 6375.94,-31.6365 6378.95,-31.1922 6381.98,-30.6871"/>
<polygon fill="midnightblue" stroke="midnightblue" points="3527.26,-73.2952 3517.27,-76.8236 3527.28,-80.2952 3527.26,-73.2952"/>
</g>
<!-- Node50 -->
<g id="node50" class="node"><title>Node50</title>
<g id="a_node50"><a xlink:href="_g_c_c_2_s_t_r75x_2port_8c.html" target="_top" xlink:title="source/portable/GCC\l/STR75x/port.c">
<polygon fill="white" stroke="black" points="6510,-1 6510,-31 6620,-31 6620,-1 6510,-1"/>
<text text-anchor="start" x="6518" y="-19" font-family="Helvetica,sans-Serif" font-size="10.00">source/portable/GCC</text>
<text text-anchor="middle" x="6565" y="-8" font-family="Helvetica,sans-Serif" font-size="10.00">/STR75x/port.c</text>
</a>
</g>
</g>
<!-- Node2&#45;&gt;Node50 -->
<g id="edge49" class="edge"><title>Node2&#45;&gt;Node50</title>
<path fill="none" stroke="midnightblue" d="M3527.22,-76.8513C3979.25,-75.8754 6198.71,-69.2094 6501,-32 6503.94,-31.6375 6506.95,-31.1939 6509.98,-30.6894"/>
<polygon fill="midnightblue" stroke="midnightblue" points="3527.18,-73.3513 3517.19,-76.8726 3527.2,-80.3512 3527.18,-73.3513"/>
</g>
</g>
</svg>
