<?xml version="1.0" encoding="UTF-8" standalone="no"?>
<!DOCTYPE svg PUBLIC "-//W3C//DTD SVG 1.1//EN"
 "http://www.w3.org/Graphics/SVG/1.1/DTD/svg11.dtd">
<!-- Generated by graphviz version 2.30.1 (20130221.2233)
 -->
<!-- Title: prvProcessTickInterrupt Pages: 1 -->
<svg width="388pt" height="66pt"
 viewBox="0.00 0.00 388.00 66.00" xmlns="http://www.w3.org/2000/svg" xmlns:xlink="http://www.w3.org/1999/xlink">
<g id="graph0" class="graph" transform="scale(1 1) rotate(0) translate(4 62)">
<title>prvProcessTickInterrupt</title>
<polygon fill="white" stroke="white" points="-4,5 -4,-62 385,-62 385,5 -4,5"/>
<!-- Node1 -->
<g id="node1" class="node"><title>Node1</title>
<polygon fill="#bfbfbf" stroke="black" points="0,-19.5 0,-38.5 122,-38.5 122,-19.5 0,-19.5"/>
<text text-anchor="middle" x="61" y="-26.5" font-family="Helvetica,sans-Serif" font-size="10.00">prvProcessTickInterrupt</text>
</g>
<!-- Node2 -->
<g id="node2" class="node"><title>Node2</title>
<g id="a_node2"><a xlink:href="task_8h.html#a978e25460ac35706f9ad30b46d9403d8" target="_top" xlink:title="xTaskIncrementTick">
<polygon fill="white" stroke="black" points="158,-19.5 158,-38.5 264,-38.5 264,-19.5 158,-19.5"/>
<text text-anchor="middle" x="211" y="-26.5" font-family="Helvetica,sans-Serif" font-size="10.00">xTaskIncrementTick</text>
</a>
</g>
</g>
<!-- Node1&#45;&gt;Node2 -->
<g id="edge1" class="edge"><title>Node1&#45;&gt;Node2</title>
<path fill="none" stroke="midnightblue" d="M122.197,-29C130.618,-29 139.285,-29 147.743,-29"/>
<polygon fill="midnightblue" stroke="midnightblue" points="147.925,-32.5001 157.925,-29 147.925,-25.5001 147.925,-32.5001"/>
</g>
<!-- Node3 -->
<g id="node3" class="node"><title>Node3</title>
<g id="a_node3"><a xlink:href="list_8h.html#a2eb1558482076fff8cafc63419c2d34a" target="_top" xlink:title="uxListRemove">
<polygon fill="white" stroke="black" points="300,-38.5 300,-57.5 380,-57.5 380,-38.5 300,-38.5"/>
<text text-anchor="middle" x="340" y="-45.5" font-family="Helvetica,sans-Serif" font-size="10.00">uxListRemove</text>
</a>
</g>
</g>
<!-- Node2&#45;&gt;Node3 -->
<g id="edge2" class="edge"><title>Node2&#45;&gt;Node3</title>
<path fill="none" stroke="midnightblue" d="M264.022,-36.7828C272.496,-38.0506 281.252,-39.3605 289.659,-40.6183"/>
<polygon fill="midnightblue" stroke="midnightblue" points="289.291,-44.102 299.698,-42.1202 290.326,-37.1791 289.291,-44.102"/>
</g>
<!-- Node4 -->
<g id="node4" class="node"><title>Node4</title>
<g id="a_node4"><a xlink:href="_paradigm_2_tern___e_e_2small_2portmacro_8h.html#a14d32f8130d3c0b212cfc751730b5b49" target="_top" xlink:title="void">
<polygon fill="white" stroke="black" points="322.5,-0.5 322.5,-19.5 357.5,-19.5 357.5,-0.5 322.5,-0.5"/>
<text text-anchor="middle" x="340" y="-7.5" font-family="Helvetica,sans-Serif" font-size="10.00">void</text>
</a>
</g>
</g>
<!-- Node2&#45;&gt;Node4 -->
<g id="edge3" class="edge"><title>Node2&#45;&gt;Node4</title>
<path fill="none" stroke="midnightblue" d="M264.022,-21.2172C280.617,-18.7345 298.293,-16.09 312.312,-13.9926"/>
<polygon fill="midnightblue" stroke="midnightblue" points="312.87,-17.4483 322.242,-12.5071 311.834,-10.5253 312.87,-17.4483"/>
</g>
</g>
</svg>
