<?xml version="1.0" encoding="UTF-8" standalone="no"?>
<!DOCTYPE svg PUBLIC "-//W3C//DTD SVG 1.1//EN"
 "http://www.w3.org/Graphics/SVG/1.1/DTD/svg11.dtd">
<!-- Generated by graphviz version 2.30.1 (20130221.2233)
 -->
<!-- Title: vContextManagementTrap Pages: 1 -->
<svg width="430pt" height="28pt"
 viewBox="0.00 0.00 430.00 28.00" xmlns="http://www.w3.org/2000/svg" xmlns:xlink="http://www.w3.org/1999/xlink">
<g id="graph0" class="graph" transform="scale(1 1) rotate(0) translate(4 24)">
<title>vContextManagementTrap</title>
<polygon fill="white" stroke="white" points="-4,5 -4,-24 427,-24 427,5 -4,5"/>
<!-- Node1 -->
<g id="node1" class="node"><title>Node1</title>
<polygon fill="#bfbfbf" stroke="black" points="0.5,-0.5 0.5,-19.5 135.5,-19.5 135.5,-0.5 0.5,-0.5"/>
<text text-anchor="middle" x="68" y="-7.5" font-family="Helvetica,sans-Serif" font-size="10.00">vContextManagementTrap</text>
</g>
<!-- Node2 -->
<g id="node2" class="node"><title>Node2</title>
<g id="a_node2"><a xlink:href="porttrap_8c.html#abb81dc2f729d6c6fe39b23aa9f61e1a5" target="_top" xlink:title="vTrapInstallHandlers">
<polygon fill="white" stroke="black" points="172,-0.5 172,-19.5 280,-19.5 280,-0.5 172,-0.5"/>
<text text-anchor="middle" x="226" y="-7.5" font-family="Helvetica,sans-Serif" font-size="10.00">vTrapInstallHandlers</text>
</a>
</g>
</g>
<!-- Node1&#45;&gt;Node2 -->
<g id="edge1" class="edge"><title>Node1&#45;&gt;Node2</title>
<path fill="none" stroke="midnightblue" d="M145.874,-10C154.647,-10 163.439,-10 171.806,-10"/>
<polygon fill="midnightblue" stroke="midnightblue" points="145.611,-6.5001 135.611,-10 145.611,-13.5001 145.611,-6.5001"/>
</g>
<!-- Node3 -->
<g id="node3" class="node"><title>Node3</title>
<g id="a_node3"><a xlink:href="_g_c_c_2_tri_core__1782_2port_8c.html#a42d48e1e07c99c055d4353dc3b38b466" target="_top" xlink:title="xPortStartScheduler">
<polygon fill="white" stroke="black" points="316,-0.5 316,-19.5 422,-19.5 422,-0.5 316,-0.5"/>
<text text-anchor="middle" x="369" y="-7.5" font-family="Helvetica,sans-Serif" font-size="10.00">xPortStartScheduler</text>
</a>
</g>
</g>
<!-- Node2&#45;&gt;Node3 -->
<g id="edge2" class="edge"><title>Node2&#45;&gt;Node3</title>
<path fill="none" stroke="midnightblue" d="M290.447,-10C298.842,-10 307.371,-10 315.553,-10"/>
<polygon fill="midnightblue" stroke="midnightblue" points="290.306,-6.5001 280.306,-10 290.306,-13.5001 290.306,-6.5001"/>
</g>
</g>
</svg>
