<?xml version="1.0" encoding="UTF-8" standalone="no"?>
<!DOCTYPE svg PUBLIC "-//W3C//DTD SVG 1.1//EN"
 "http://www.w3.org/Graphics/SVG/1.1/DTD/svg11.dtd">
<!-- Generated by graphviz version 2.30.1 (20130221.2233)
 -->
<!-- Title: vInstructionErrorTrap Pages: 1 -->
<svg width="404pt" height="28pt"
 viewBox="0.00 0.00 404.00 28.00" xmlns="http://www.w3.org/2000/svg" xmlns:xlink="http://www.w3.org/1999/xlink">
<g id="graph0" class="graph" transform="scale(1 1) rotate(0) translate(4 24)">
<title>vInstructionErrorTrap</title>
<polygon fill="white" stroke="white" points="-4,5 -4,-24 401,-24 401,5 -4,5"/>
<!-- Node1 -->
<g id="node1" class="node"><title>Node1</title>
<polygon fill="#bfbfbf" stroke="black" points="0,-0.5 0,-19.5 110,-19.5 110,-0.5 0,-0.5"/>
<text text-anchor="middle" x="55" y="-7.5" font-family="Helvetica,sans-Serif" font-size="10.00">vInstructionErrorTrap</text>
</g>
<!-- Node2 -->
<g id="node2" class="node"><title>Node2</title>
<g id="a_node2"><a xlink:href="porttrap_8c.html#abb81dc2f729d6c6fe39b23aa9f61e1a5" target="_top" xlink:title="vTrapInstallHandlers">
<polygon fill="white" stroke="black" points="146,-0.5 146,-19.5 254,-19.5 254,-0.5 146,-0.5"/>
<text text-anchor="middle" x="200" y="-7.5" font-family="Helvetica,sans-Serif" font-size="10.00">vTrapInstallHandlers</text>
</a>
</g>
</g>
<!-- Node1&#45;&gt;Node2 -->
<g id="edge1" class="edge"><title>Node1&#45;&gt;Node2</title>
<path fill="none" stroke="midnightblue" d="M120.066,-10C128.671,-10 137.42,-10 145.809,-10"/>
<polygon fill="midnightblue" stroke="midnightblue" points="120.062,-6.5001 110.062,-10 120.062,-13.5001 120.062,-6.5001"/>
</g>
<!-- Node3 -->
<g id="node3" class="node"><title>Node3</title>
<g id="a_node3"><a xlink:href="_g_c_c_2_tri_core__1782_2port_8c.html#a42d48e1e07c99c055d4353dc3b38b466" target="_top" xlink:title="xPortStartScheduler">
<polygon fill="white" stroke="black" points="290,-0.5 290,-19.5 396,-19.5 396,-0.5 290,-0.5"/>
<text text-anchor="middle" x="343" y="-7.5" font-family="Helvetica,sans-Serif" font-size="10.00">xPortStartScheduler</text>
</a>
</g>
</g>
<!-- Node2&#45;&gt;Node3 -->
<g id="edge2" class="edge"><title>Node2&#45;&gt;Node3</title>
<path fill="none" stroke="midnightblue" d="M264.447,-10C272.842,-10 281.371,-10 289.553,-10"/>
<polygon fill="midnightblue" stroke="midnightblue" points="264.306,-6.5001 254.306,-10 264.306,-13.5001 264.306,-6.5001"/>
</g>
</g>
</svg>
