<?xml version="1.0" encoding="UTF-8" standalone="no"?>
<!DOCTYPE svg PUBLIC "-//W3C//DTD SVG 1.1//EN"
 "http://www.w3.org/Graphics/SVG/1.1/DTD/svg11.dtd">
<!-- Generated by graphviz version 2.30.1 (20130221.2233)
 -->
<!-- Title: vPortEndScheduler Pages: 1 -->
<svg width="256pt" height="66pt"
 viewBox="0.00 0.00 256.00 66.00" xmlns="http://www.w3.org/2000/svg" xmlns:xlink="http://www.w3.org/1999/xlink">
<g id="graph0" class="graph" transform="scale(1 1) rotate(0) translate(4 62)">
<title>vPortEndScheduler</title>
<polygon fill="white" stroke="white" points="-4,5 -4,-62 253,-62 253,5 -4,5"/>
<!-- Node1 -->
<g id="node1" class="node"><title>Node1</title>
<polygon fill="#bfbfbf" stroke="black" points="0.5,-19.5 0.5,-38.5 103.5,-38.5 103.5,-19.5 0.5,-19.5"/>
<text text-anchor="middle" x="52" y="-26.5" font-family="Helvetica,sans-Serif" font-size="10.00">vPortEndScheduler</text>
</g>
<!-- Node2 -->
<g id="node2" class="node"><title>Node2</title>
<g id="a_node2"><a xlink:href="_g_c_c_2_p_p_c405___xilinx_2port_8c.html#a474fbbb58ea661a1557f05adc41120c1" target="_top" xlink:title="pxPortInitialiseStack">
<polygon fill="white" stroke="black" points="140.5,-38.5 140.5,-57.5 247.5,-57.5 247.5,-38.5 140.5,-38.5"/>
<text text-anchor="middle" x="194" y="-45.5" font-family="Helvetica,sans-Serif" font-size="10.00">pxPortInitialiseStack</text>
</a>
</g>
</g>
<!-- Node1&#45;&gt;Node2 -->
<g id="edge1" class="edge"><title>Node1&#45;&gt;Node2</title>
<path fill="none" stroke="midnightblue" d="M113.461,-37.2054C122.351,-38.412 131.451,-39.6469 140.172,-40.8305"/>
<polygon fill="midnightblue" stroke="midnightblue" points="113.923,-33.7361 103.543,-35.8594 112.982,-40.6725 113.923,-33.7361"/>
</g>
<!-- Node3 -->
<g id="node3" class="node"><title>Node3</title>
<g id="a_node3"><a xlink:href="tasks_8c.html#aeadc53d3d0d0ea3a6c7702a9eacbf452" target="_top" xlink:title="vTaskEndScheduler">
<polygon fill="white" stroke="black" points="141,-0.5 141,-19.5 247,-19.5 247,-0.5 141,-0.5"/>
<text text-anchor="middle" x="194" y="-7.5" font-family="Helvetica,sans-Serif" font-size="10.00">vTaskEndScheduler</text>
</a>
</g>
</g>
<!-- Node1&#45;&gt;Node3 -->
<g id="edge2" class="edge"><title>Node1&#45;&gt;Node3</title>
<path fill="none" stroke="midnightblue" d="M113.593,-20.7767C122.602,-19.554 131.824,-18.3025 140.645,-17.1053"/>
<polygon fill="midnightblue" stroke="midnightblue" points="112.982,-17.3275 103.543,-22.1406 113.923,-24.2639 112.982,-17.3275"/>
</g>
</g>
</svg>
