<?xml version="1.0" encoding="UTF-8" standalone="no"?>
<!DOCTYPE svg PUBLIC "-//W3C//DTD SVG 1.1//EN"
 "http://www.w3.org/Graphics/SVG/1.1/DTD/svg11.dtd">
<!-- Generated by graphviz version 2.30.1 (20130221.2233)
 -->
<!-- Title: xPortStartScheduler Pages: 1 -->
<svg width="564pt" height="180pt"
 viewBox="0.00 0.00 564.00 180.00" xmlns="http://www.w3.org/2000/svg" xmlns:xlink="http://www.w3.org/1999/xlink">
<g id="graph0" class="graph" transform="scale(1 1) rotate(0) translate(4 176)">
<title>xPortStartScheduler</title>
<polygon fill="white" stroke="white" points="-4,5 -4,-176 561,-176 561,5 -4,5"/>
<!-- Node1 -->
<g id="node1" class="node"><title>Node1</title>
<polygon fill="#bfbfbf" stroke="black" points="0,-76.5 0,-95.5 106,-95.5 106,-76.5 0,-76.5"/>
<text text-anchor="middle" x="53" y="-83.5" font-family="Helvetica,sans-Serif" font-size="10.00">xPortStartScheduler</text>
</g>
<!-- Node2 -->
<g id="node2" class="node"><title>Node2</title>
<g id="a_node2"><a xlink:href="port_8cpp.html#a1d6207a2b13a4c014a0b0f4d54f900e0" target="_top" xlink:title="prvProcessSimulatedInterrupts">
<polygon fill="white" stroke="black" points="142.5,-152.5 142.5,-171.5 295.5,-171.5 295.5,-152.5 142.5,-152.5"/>
<text text-anchor="middle" x="219" y="-159.5" font-family="Helvetica,sans-Serif" font-size="10.00">prvProcessSimulatedInterrupts</text>
</a>
</g>
</g>
<!-- Node1&#45;&gt;Node2 -->
<g id="edge1" class="edge"><title>Node1&#45;&gt;Node2</title>
<path fill="none" stroke="midnightblue" d="M66.08,-95.6957C82.3892,-108.331 112.784,-130.306 142,-143 147.73,-145.49 153.851,-147.698 160.038,-149.645"/>
<polygon fill="midnightblue" stroke="midnightblue" points="159.187,-153.043 169.768,-152.493 161.154,-146.325 159.187,-153.043"/>
</g>
<!-- Node4 -->
<g id="node4" class="node"><title>Node4</title>
<g id="a_node4"><a xlink:href="port_8cpp.html#adc28efa1df4fe75c8bb49108e6609377" target="_top" xlink:title="prvProcessTickInterrupt">
<polygon fill="white" stroke="black" points="158,-114.5 158,-133.5 280,-133.5 280,-114.5 158,-114.5"/>
<text text-anchor="middle" x="219" y="-121.5" font-family="Helvetica,sans-Serif" font-size="10.00">prvProcessTickInterrupt</text>
</a>
</g>
</g>
<!-- Node1&#45;&gt;Node4 -->
<g id="edge3" class="edge"><title>Node1&#45;&gt;Node4</title>
<path fill="none" stroke="midnightblue" d="M95.3841,-95.589C117.123,-100.626 143.957,-106.844 166.975,-112.177"/>
<polygon fill="midnightblue" stroke="midnightblue" points="166.381,-115.632 176.913,-114.48 167.962,-108.813 166.381,-115.632"/>
</g>
<!-- Node8 -->
<g id="node8" class="node"><title>Node8</title>
<g id="a_node8"><a xlink:href="port_8cpp.html#a905a83e355b01f0e9aca35992ddeae52" target="_top" xlink:title="prvProcessYieldInterrupt">
<polygon fill="white" stroke="black" points="156,-76.5 156,-95.5 282,-95.5 282,-76.5 156,-76.5"/>
<text text-anchor="middle" x="219" y="-83.5" font-family="Helvetica,sans-Serif" font-size="10.00">prvProcessYieldInterrupt</text>
</a>
</g>
</g>
<!-- Node1&#45;&gt;Node8 -->
<g id="edge7" class="edge"><title>Node1&#45;&gt;Node8</title>
<path fill="none" stroke="midnightblue" d="M106.342,-86C118.891,-86 132.512,-86 145.786,-86"/>
<polygon fill="midnightblue" stroke="midnightblue" points="145.845,-89.5001 155.845,-86 145.845,-82.5001 145.845,-89.5001"/>
</g>
<!-- Node9 -->
<g id="node9" class="node"><title>Node9</title>
<g id="a_node9"><a xlink:href="port_8cpp.html#a05db1f56ad08c86031ba3242e98cd19c" target="_top" xlink:title="prvSimulatedPeripheralTimer">
<polygon fill="white" stroke="black" points="146,-38.5 146,-57.5 292,-57.5 292,-38.5 146,-38.5"/>
<text text-anchor="middle" x="219" y="-45.5" font-family="Helvetica,sans-Serif" font-size="10.00">prvSimulatedPeripheralTimer</text>
</a>
</g>
</g>
<!-- Node1&#45;&gt;Node9 -->
<g id="edge8" class="edge"><title>Node1&#45;&gt;Node9</title>
<path fill="none" stroke="midnightblue" d="M95.3841,-76.411C117.123,-71.3739 143.957,-65.1562 166.975,-59.8229"/>
<polygon fill="midnightblue" stroke="midnightblue" points="167.962,-63.1871 176.913,-57.5201 166.381,-56.3677 167.962,-63.1871"/>
</g>
<!-- Node10 -->
<g id="node10" class="node"><title>Node10</title>
<g id="a_node10"><a xlink:href="port_8cpp.html#a35b5d3a9b147da8e3adda2a2cc7b6cc0" target="_top" xlink:title="vPortSetInterruptHandler">
<polygon fill="white" stroke="black" points="155.5,-0.5 155.5,-19.5 282.5,-19.5 282.5,-0.5 155.5,-0.5"/>
<text text-anchor="middle" x="219" y="-7.5" font-family="Helvetica,sans-Serif" font-size="10.00">vPortSetInterruptHandler</text>
</a>
</g>
</g>
<!-- Node1&#45;&gt;Node10 -->
<g id="edge9" class="edge"><title>Node1&#45;&gt;Node10</title>
<path fill="none" stroke="midnightblue" d="M66.08,-76.3043C82.3892,-63.669 112.784,-41.694 142,-29 147.73,-26.5103 153.851,-24.3023 160.038,-22.3551"/>
<polygon fill="midnightblue" stroke="midnightblue" points="161.154,-25.6754 169.768,-19.5069 159.187,-18.9573 161.154,-25.6754"/>
</g>
<!-- Node3 -->
<g id="node3" class="node"><title>Node3</title>
<g id="a_node3"><a xlink:href="task_8h.html#a26df422f8d635d5191a3e106fbeeed68" target="_top" xlink:title="vTaskSwitchContext">
<polygon fill="white" stroke="black" points="332.5,-152.5 332.5,-171.5 439.5,-171.5 439.5,-152.5 332.5,-152.5"/>
<text text-anchor="middle" x="386" y="-159.5" font-family="Helvetica,sans-Serif" font-size="10.00">vTaskSwitchContext</text>
</a>
</g>
</g>
<!-- Node2&#45;&gt;Node3 -->
<g id="edge2" class="edge"><title>Node2&#45;&gt;Node3</title>
<path fill="none" stroke="midnightblue" d="M295.739,-162C304.629,-162 313.625,-162 322.309,-162"/>
<polygon fill="midnightblue" stroke="midnightblue" points="322.336,-165.5 332.336,-162 322.336,-158.5 322.336,-165.5"/>
</g>
<!-- Node5 -->
<g id="node5" class="node"><title>Node5</title>
<g id="a_node5"><a xlink:href="task_8h.html#a978e25460ac35706f9ad30b46d9403d8" target="_top" xlink:title="xTaskIncrementTick">
<polygon fill="white" stroke="black" points="333,-114.5 333,-133.5 439,-133.5 439,-114.5 333,-114.5"/>
<text text-anchor="middle" x="386" y="-121.5" font-family="Helvetica,sans-Serif" font-size="10.00">xTaskIncrementTick</text>
</a>
</g>
</g>
<!-- Node4&#45;&gt;Node5 -->
<g id="edge4" class="edge"><title>Node4&#45;&gt;Node5</title>
<path fill="none" stroke="midnightblue" d="M280.036,-124C293.975,-124 308.841,-124 322.869,-124"/>
<polygon fill="midnightblue" stroke="midnightblue" points="322.91,-127.5 332.91,-124 322.91,-120.5 322.91,-127.5"/>
</g>
<!-- Node6 -->
<g id="node6" class="node"><title>Node6</title>
<g id="a_node6"><a xlink:href="list_8h.html#a2eb1558482076fff8cafc63419c2d34a" target="_top" xlink:title="uxListRemove">
<polygon fill="white" stroke="black" points="476,-133.5 476,-152.5 556,-152.5 556,-133.5 476,-133.5"/>
<text text-anchor="middle" x="516" y="-140.5" font-family="Helvetica,sans-Serif" font-size="10.00">uxListRemove</text>
</a>
</g>
</g>
<!-- Node5&#45;&gt;Node6 -->
<g id="edge5" class="edge"><title>Node5&#45;&gt;Node6</title>
<path fill="none" stroke="midnightblue" d="M439.062,-131.728C447.918,-133.042 457.089,-134.404 465.865,-135.707"/>
<polygon fill="midnightblue" stroke="midnightblue" points="465.538,-139.196 475.944,-137.203 466.566,-132.272 465.538,-139.196"/>
</g>
<!-- Node7 -->
<g id="node7" class="node"><title>Node7</title>
<g id="a_node7"><a xlink:href="_paradigm_2_tern___e_e_2small_2portmacro_8h.html#a14d32f8130d3c0b212cfc751730b5b49" target="_top" xlink:title="void">
<polygon fill="white" stroke="black" points="498.5,-95.5 498.5,-114.5 533.5,-114.5 533.5,-95.5 498.5,-95.5"/>
<text text-anchor="middle" x="516" y="-102.5" font-family="Helvetica,sans-Serif" font-size="10.00">void</text>
</a>
</g>
</g>
<!-- Node5&#45;&gt;Node7 -->
<g id="edge6" class="edge"><title>Node5&#45;&gt;Node7</title>
<path fill="none" stroke="midnightblue" d="M439.062,-116.272C455.94,-113.767 473.966,-111.091 488.218,-108.976"/>
<polygon fill="midnightblue" stroke="midnightblue" points="488.921,-112.409 498.299,-107.479 487.894,-105.485 488.921,-112.409"/>
</g>
</g>
</svg>
