<?xml version="1.0" encoding="UTF-8" standalone="no"?>
<!DOCTYPE svg PUBLIC "-//W3C//DTD SVG 1.1//EN"
 "http://www.w3.org/Graphics/SVG/1.1/DTD/svg11.dtd">
<!-- Generated by graphviz version 2.30.1 (20130221.2233)
 -->
<!-- Title: vTrapInstallHandlers Pages: 1 -->
<svg width="314pt" height="256pt"
 viewBox="0.00 0.00 314.00 256.00" xmlns="http://www.w3.org/2000/svg" xmlns:xlink="http://www.w3.org/1999/xlink">
<g id="graph0" class="graph" transform="scale(1 1) rotate(0) translate(4 252)">
<title>vTrapInstallHandlers</title>
<polygon fill="white" stroke="white" points="-4,5 -4,-252 311,-252 311,5 -4,5"/>
<!-- Node1 -->
<g id="node1" class="node"><title>Node1</title>
<polygon fill="#bfbfbf" stroke="black" points="0,-114.5 0,-133.5 108,-133.5 108,-114.5 0,-114.5"/>
<text text-anchor="middle" x="54" y="-121.5" font-family="Helvetica,sans-Serif" font-size="10.00">vTrapInstallHandlers</text>
</g>
<!-- Node2 -->
<g id="node2" class="node"><title>Node2</title>
<g id="a_node2"><a xlink:href="porttrap_8c.html#a0d55dbf825efb634259c4f5cecda97f6" target="_top" xlink:title="vAssertionTrap">
<polygon fill="white" stroke="black" points="183,-228.5 183,-247.5 267,-247.5 267,-228.5 183,-228.5"/>
<text text-anchor="middle" x="225" y="-235.5" font-family="Helvetica,sans-Serif" font-size="10.00">vAssertionTrap</text>
</a>
</g>
</g>
<!-- Node1&#45;&gt;Node2 -->
<g id="edge1" class="edge"><title>Node1&#45;&gt;Node2</title>
<path fill="none" stroke="midnightblue" d="M61.0605,-133.547C73.8685,-152.895 105.682,-196.776 144,-219 152.798,-224.103 162.896,-227.837 172.888,-230.569"/>
<polygon fill="midnightblue" stroke="midnightblue" points="172.25,-234.016 182.794,-232.981 173.906,-227.215 172.25,-234.016"/>
</g>
<!-- Node3 -->
<g id="node3" class="node"><title>Node3</title>
<g id="a_node3"><a xlink:href="porttrap_8c.html#aafb193dbaa52093ad36ea36e60742031" target="_top" xlink:title="vContextManagementTrap">
<polygon fill="white" stroke="black" points="157.5,-190.5 157.5,-209.5 292.5,-209.5 292.5,-190.5 157.5,-190.5"/>
<text text-anchor="middle" x="225" y="-197.5" font-family="Helvetica,sans-Serif" font-size="10.00">vContextManagementTrap</text>
</a>
</g>
</g>
<!-- Node1&#45;&gt;Node3 -->
<g id="edge2" class="edge"><title>Node1&#45;&gt;Node3</title>
<path fill="none" stroke="midnightblue" d="M66.9331,-133.524C83.3544,-146.173 114.273,-168.382 144,-181 149.864,-183.489 156.114,-185.688 162.439,-187.621"/>
<polygon fill="midnightblue" stroke="midnightblue" points="161.816,-191.083 172.392,-190.446 163.727,-184.349 161.816,-191.083"/>
</g>
<!-- Node4 -->
<g id="node4" class="node"><title>Node4</title>
<g id="a_node4"><a xlink:href="porttrap_8c.html#a51979b7d23c817291c4bec28288e37ef" target="_top" xlink:title="vInstructionErrorTrap">
<polygon fill="white" stroke="black" points="170,-152.5 170,-171.5 280,-171.5 280,-152.5 170,-152.5"/>
<text text-anchor="middle" x="225" y="-159.5" font-family="Helvetica,sans-Serif" font-size="10.00">vInstructionErrorTrap</text>
</a>
</g>
</g>
<!-- Node1&#45;&gt;Node4 -->
<g id="edge3" class="edge"><title>Node1&#45;&gt;Node4</title>
<path fill="none" stroke="midnightblue" d="M97.6458,-133.589C120.148,-138.649 147.948,-144.9 171.738,-150.249"/>
<polygon fill="midnightblue" stroke="midnightblue" points="171.137,-153.701 181.661,-152.48 172.672,-146.871 171.137,-153.701"/>
</g>
<!-- Node5 -->
<g id="node5" class="node"><title>Node5</title>
<g id="a_node5"><a xlink:href="porttrap_8c.html#a5df71a2cd124792eeddc63b57ec6de08" target="_top" xlink:title="vInternalProtectionTrap">
<polygon fill="white" stroke="black" points="165,-114.5 165,-133.5 285,-133.5 285,-114.5 165,-114.5"/>
<text text-anchor="middle" x="225" y="-121.5" font-family="Helvetica,sans-Serif" font-size="10.00">vInternalProtectionTrap</text>
</a>
</g>
</g>
<!-- Node1&#45;&gt;Node5 -->
<g id="edge4" class="edge"><title>Node1&#45;&gt;Node5</title>
<path fill="none" stroke="midnightblue" d="M108.009,-124C122.779,-124 139.046,-124 154.607,-124"/>
<polygon fill="midnightblue" stroke="midnightblue" points="154.708,-127.5 164.708,-124 154.708,-120.5 154.708,-127.5"/>
</g>
<!-- Node6 -->
<g id="node6" class="node"><title>Node6</title>
<g id="a_node6"><a xlink:href="porttrap_8c.html#a17a5aece41bf1c8f900abc6c18e21f79" target="_top" xlink:title="vMMUTrap">
<polygon fill="white" stroke="black" points="192,-76.5 192,-95.5 258,-95.5 258,-76.5 192,-76.5"/>
<text text-anchor="middle" x="225" y="-83.5" font-family="Helvetica,sans-Serif" font-size="10.00">vMMUTrap</text>
</a>
</g>
</g>
<!-- Node1&#45;&gt;Node6 -->
<g id="edge5" class="edge"><title>Node1&#45;&gt;Node6</title>
<path fill="none" stroke="midnightblue" d="M97.6458,-114.411C123.457,-108.607 156.238,-101.236 181.942,-95.4569"/>
<polygon fill="midnightblue" stroke="midnightblue" points="182.782,-98.8553 191.771,-93.2468 181.247,-92.0258 182.782,-98.8553"/>
</g>
<!-- Node7 -->
<g id="node7" class="node"><title>Node7</title>
<g id="a_node7"><a xlink:href="porttrap_8c.html#ad338c056dbca06ab78a09678009a1cb2" target="_top" xlink:title="vNonMaskableInterruptTrap">
<polygon fill="white" stroke="black" points="155,-38.5 155,-57.5 295,-57.5 295,-38.5 155,-38.5"/>
<text text-anchor="middle" x="225" y="-45.5" font-family="Helvetica,sans-Serif" font-size="10.00">vNonMaskableInterruptTrap</text>
</a>
</g>
</g>
<!-- Node1&#45;&gt;Node7 -->
<g id="edge6" class="edge"><title>Node1&#45;&gt;Node7</title>
<path fill="none" stroke="midnightblue" d="M66.9331,-114.476C83.3544,-101.827 114.273,-79.6175 144,-67 149.864,-64.511 156.114,-62.3125 162.439,-60.3787"/>
<polygon fill="midnightblue" stroke="midnightblue" points="163.727,-63.6512 172.392,-57.5542 161.816,-56.9171 163.727,-63.6512"/>
</g>
<!-- Node8 -->
<g id="node8" class="node"><title>Node8</title>
<g id="a_node8"><a xlink:href="porttrap_8c.html#a8b44898fec32d8fa9b25be516928ff69" target="_top" xlink:title="vSystemBusAndPeripheralsTrap">
<polygon fill="white" stroke="black" points="144.5,-0.5 144.5,-19.5 305.5,-19.5 305.5,-0.5 144.5,-0.5"/>
<text text-anchor="middle" x="225" y="-7.5" font-family="Helvetica,sans-Serif" font-size="10.00">vSystemBusAndPeripheralsTrap</text>
</a>
</g>
</g>
<!-- Node1&#45;&gt;Node8 -->
<g id="edge7" class="edge"><title>Node1&#45;&gt;Node8</title>
<path fill="none" stroke="midnightblue" d="M61.0605,-114.453C73.8685,-95.1049 105.682,-51.2244 144,-29 147.855,-26.7641 151.96,-24.7909 156.195,-23.0497"/>
<polygon fill="midnightblue" stroke="midnightblue" points="157.444,-26.3198 165.632,-19.5964 155.038,-19.7461 157.444,-26.3198"/>
</g>
</g>
</svg>
