<?xml version="1.0" encoding="UTF-8" standalone="no"?>
<!DOCTYPE svg PUBLIC "-//W3C//DTD SVG 1.1//EN"
 "http://www.w3.org/Graphics/SVG/1.1/DTD/svg11.dtd">
<!-- Generated by graphviz version 2.30.1 (20130221.2233)
 -->
<!-- Title: vPortFree Pages: 1 -->
<svg width="456pt" height="100pt"
 viewBox="0.00 0.00 456.00 99.72" xmlns="http://www.w3.org/2000/svg" xmlns:xlink="http://www.w3.org/1999/xlink">
<g id="graph0" class="graph" transform="scale(1 1) rotate(0) translate(4 95.7241)">
<title>vPortFree</title>
<polygon fill="white" stroke="white" points="-4,5 -4,-95.7241 453,-95.7241 453,5 -4,5"/>
<!-- Node1 -->
<g id="node1" class="node"><title>Node1</title>
<polygon fill="#bfbfbf" stroke="black" points="0,-57.5 0,-76.5 60,-76.5 60,-57.5 0,-57.5"/>
<text text-anchor="middle" x="30" y="-64.5" font-family="Helvetica,sans-Serif" font-size="10.00">vPortFree</text>
</g>
<!-- Node2 -->
<g id="node2" class="node"><title>Node2</title>
<g id="a_node2"><a xlink:href="_paradigm_2_tern___e_e_2small_2portmacro_8h.html#a14d32f8130d3c0b212cfc751730b5b49" target="_top" xlink:title="void">
<polygon fill="white" stroke="black" points="390.5,-57.5 390.5,-76.5 425.5,-76.5 425.5,-57.5 390.5,-57.5"/>
<text text-anchor="middle" x="408" y="-64.5" font-family="Helvetica,sans-Serif" font-size="10.00">void</text>
</a>
</g>
</g>
<!-- Node1&#45;&gt;Node2 -->
<g id="edge1" class="edge"><title>Node1&#45;&gt;Node2</title>
<path fill="none" stroke="midnightblue" d="M57.1891,-76.5007C68.8943,-80.264 82.9651,-84.1339 96,-86 200.451,-100.953 326.288,-82.0878 380.278,-72.2591"/>
<polygon fill="midnightblue" stroke="midnightblue" points="381.197,-75.6482 390.384,-70.3704 379.911,-68.7673 381.197,-75.6482"/>
</g>
<!-- Node3 -->
<g id="node3" class="node"><title>Node3</title>
<g id="a_node3"><a xlink:href="task_8h.html#a366b302eba79d10b5ee2a3756f0fcc43" target="_top" xlink:title="vTaskSuspendAll">
<polygon fill="white" stroke="black" points="96,-57.5 96,-76.5 190,-76.5 190,-57.5 96,-57.5"/>
<text text-anchor="middle" x="143" y="-64.5" font-family="Helvetica,sans-Serif" font-size="10.00">vTaskSuspendAll</text>
</a>
</g>
</g>
<!-- Node1&#45;&gt;Node3 -->
<g id="edge2" class="edge"><title>Node1&#45;&gt;Node3</title>
<path fill="none" stroke="midnightblue" d="M60.1639,-67C68.0124,-67 76.7757,-67 85.57,-67"/>
<polygon fill="midnightblue" stroke="midnightblue" points="85.8552,-70.5001 95.8552,-67 85.8552,-63.5001 85.8552,-70.5001"/>
</g>
<!-- Node4 -->
<g id="node4" class="node"><title>Node4</title>
<g id="a_node4"><a xlink:href="task_8h.html#a003f8ae6d649225abd030cc76e1c7d0e" target="_top" xlink:title="xTaskResumeAll">
<polygon fill="white" stroke="black" points="97,-19.5 97,-38.5 189,-38.5 189,-19.5 97,-19.5"/>
<text text-anchor="middle" x="143" y="-26.5" font-family="Helvetica,sans-Serif" font-size="10.00">xTaskResumeAll</text>
</a>
</g>
</g>
<!-- Node1&#45;&gt;Node4 -->
<g id="edge3" class="edge"><title>Node1&#45;&gt;Node4</title>
<path fill="none" stroke="midnightblue" d="M59.01,-57.411C72.6817,-52.7306 89.331,-47.0308 104.118,-41.9685"/>
<polygon fill="midnightblue" stroke="midnightblue" points="105.672,-45.1362 113.999,-38.5859 103.404,-38.5136 105.672,-45.1362"/>
</g>
<!-- Node4&#45;&gt;Node2 -->
<g id="edge4" class="edge"><title>Node4&#45;&gt;Node2</title>
<path fill="none" stroke="midnightblue" d="M180.952,-38.5805C194.982,-41.9489 211.156,-45.5108 226,-48 280.503,-57.1393 345.021,-62.6594 380.427,-65.2395"/>
<polygon fill="midnightblue" stroke="midnightblue" points="380.215,-68.7332 390.437,-65.9466 380.708,-61.7506 380.215,-68.7332"/>
</g>
<!-- Node5 -->
<g id="node5" class="node"><title>Node5</title>
<g id="a_node5"><a xlink:href="list_8h.html#a2eb1558482076fff8cafc63419c2d34a" target="_top" xlink:title="uxListRemove">
<polygon fill="white" stroke="black" points="368,-0.5 368,-19.5 448,-19.5 448,-0.5 368,-0.5"/>
<text text-anchor="middle" x="408" y="-7.5" font-family="Helvetica,sans-Serif" font-size="10.00">uxListRemove</text>
</a>
</g>
</g>
<!-- Node4&#45;&gt;Node5 -->
<g id="edge5" class="edge"><title>Node4&#45;&gt;Node5</title>
<path fill="none" stroke="midnightblue" d="M177.212,-19.4929C192.011,-15.7284 209.739,-11.8593 226,-10 270.186,-4.94785 320.837,-5.48185 357.299,-6.96955"/>
<polygon fill="midnightblue" stroke="midnightblue" points="357.516,-10.4827 367.662,-7.43354 357.829,-3.48968 357.516,-10.4827"/>
</g>
<!-- Node6 -->
<g id="node6" class="node"><title>Node6</title>
<g id="a_node6"><a xlink:href="tasks_8c.html#a54f31e9aef0eb7b87e48c7d68ecc84c1" target="_top" xlink:title="xTaskIncrementTick">
<polygon fill="white" stroke="black" points="226,-19.5 226,-38.5 332,-38.5 332,-19.5 226,-19.5"/>
<text text-anchor="middle" x="279" y="-26.5" font-family="Helvetica,sans-Serif" font-size="10.00">xTaskIncrementTick</text>
</a>
</g>
</g>
<!-- Node4&#45;&gt;Node6 -->
<g id="edge6" class="edge"><title>Node4&#45;&gt;Node6</title>
<path fill="none" stroke="midnightblue" d="M189.366,-29C197.77,-29 206.683,-29 215.492,-29"/>
<polygon fill="midnightblue" stroke="midnightblue" points="215.748,-32.5001 225.748,-29 215.748,-25.5001 215.748,-32.5001"/>
</g>
<!-- Node6&#45;&gt;Node2 -->
<g id="edge7" class="edge"><title>Node6&#45;&gt;Node2</title>
<path fill="none" stroke="midnightblue" d="M312.047,-38.589C333.198,-44.9174 360.576,-53.1093 380.496,-59.0695"/>
<polygon fill="midnightblue" stroke="midnightblue" points="379.576,-62.4477 390.16,-61.9613 381.583,-55.7415 379.576,-62.4477"/>
</g>
<!-- Node6&#45;&gt;Node5 -->
<g id="edge8" class="edge"><title>Node6&#45;&gt;Node5</title>
<path fill="none" stroke="midnightblue" d="M332.022,-21.2172C340.496,-19.9494 349.252,-18.6395 357.659,-17.3817"/>
<polygon fill="midnightblue" stroke="midnightblue" points="358.326,-20.8209 367.698,-15.8798 357.291,-13.898 358.326,-20.8209"/>
</g>
</g>
</svg>
