<?xml version="1.0" encoding="UTF-8" standalone="no"?>
<!DOCTYPE svg PUBLIC "-//W3C//DTD SVG 1.1//EN"
 "http://www.w3.org/Graphics/SVG/1.1/DTD/svg11.dtd">
<!-- Generated by graphviz version 2.30.1 (20130221.2233)
 -->
<!-- Title: xPortStartScheduler Pages: 1 -->
<svg width="716pt" height="1484pt"
 viewBox="0.00 0.00 716.00 1484.00" xmlns="http://www.w3.org/2000/svg" xmlns:xlink="http://www.w3.org/1999/xlink">
<g id="graph0" class="graph" transform="scale(1 1) rotate(0) translate(4 1480)">
<title>xPortStartScheduler</title>
<polygon fill="white" stroke="white" points="-4,5 -4,-1480 713,-1480 713,5 -4,5"/>
<!-- Node1 -->
<g id="node1" class="node"><title>Node1</title>
<polygon fill="#bfbfbf" stroke="black" points="0,-734.5 0,-753.5 106,-753.5 106,-734.5 0,-734.5"/>
<text text-anchor="middle" x="53" y="-741.5" font-family="Helvetica,sans-Serif" font-size="10.00">xPortStartScheduler</text>
</g>
<!-- Node2 -->
<g id="node2" class="node"><title>Node2</title>
<g id="a_node2"><a xlink:href="o_watcom_216_bit_d_o_s_2common_2portasm_8h.html#a1417b1dac299b0a3773613340427aa14" target="_top" xlink:title="portFIRST_CONTEXT">
<polygon fill="white" stroke="black" points="164,-1456.5 164,-1475.5 280,-1475.5 280,-1456.5 164,-1456.5"/>
<text text-anchor="middle" x="222" y="-1463.5" font-family="Helvetica,sans-Serif" font-size="10.00">portFIRST_CONTEXT</text>
</a>
</g>
</g>
<!-- Node1&#45;&gt;Node2 -->
<g id="edge1" class="edge"><title>Node1&#45;&gt;Node2</title>
<path fill="none" stroke="midnightblue" d="M54.5495,-753.63C59.2229,-834.066 93.3162,-1392.56 142,-1447 145.553,-1450.97 149.778,-1454.19 154.399,-1456.78"/>
<polygon fill="midnightblue" stroke="midnightblue" points="153.151,-1460.06 163.701,-1461.04 156.064,-1453.69 153.151,-1460.06"/>
</g>
<!-- Node3 -->
<g id="node3" class="node"><title>Node3</title>
<g id="a_node3"><a xlink:href="_tick_8c.html#a97b27e7afea96574a70aab311e350ac0" target="_top" xlink:title="portSetupTick">
<polygon fill="white" stroke="black" points="183,-1418.5 183,-1437.5 261,-1437.5 261,-1418.5 183,-1418.5"/>
<text text-anchor="middle" x="222" y="-1425.5" font-family="Helvetica,sans-Serif" font-size="10.00">portSetupTick</text>
</a>
</g>
</g>
<!-- Node1&#45;&gt;Node3 -->
<g id="edge2" class="edge"><title>Node1&#45;&gt;Node3</title>
<path fill="none" stroke="midnightblue" d="M53.8435,-753.673C52.8433,-827.893 50.0345,-1306.89 142,-1409 149.959,-1417.84 161.243,-1422.91 172.799,-1425.75"/>
<polygon fill="midnightblue" stroke="midnightblue" points="172.467,-1429.25 182.948,-1427.7 173.79,-1422.38 172.467,-1429.25"/>
</g>
<!-- Node4 -->
<g id="node4" class="node"><title>Node4</title>
<g id="a_node4"><a xlink:href="_r_v_d_s_2_a_r_m___c_m4_f_2port_8c.html#ad4aeb42aa6c5283df3346cb2fa6625fe" target="_top" xlink:title="prvEnableVFP">
<polygon fill="white" stroke="black" points="181.5,-1380.5 181.5,-1399.5 262.5,-1399.5 262.5,-1380.5 181.5,-1380.5"/>
<text text-anchor="middle" x="222" y="-1387.5" font-family="Helvetica,sans-Serif" font-size="10.00">prvEnableVFP</text>
</a>
</g>
</g>
<!-- Node1&#45;&gt;Node4 -->
<g id="edge3" class="edge"><title>Node1&#45;&gt;Node4</title>
<path fill="none" stroke="midnightblue" d="M53.9289,-753.574C53.5963,-825.049 55.0025,-1275.17 142,-1371 149.622,-1379.4 160.248,-1384.39 171.239,-1387.3"/>
<polygon fill="midnightblue" stroke="midnightblue" points="170.855,-1390.79 181.359,-1389.41 172.287,-1383.94 170.855,-1390.79"/>
</g>
<!-- Node5 -->
<g id="node5" class="node"><title>Node5</title>
<g id="a_node5"><a xlink:href="_b_c_c_216_bit_d_o_s_2_flsh186_2port_8c.html#a00a48cbe854dbefdb16fe52c71a4d661" target="_top" xlink:title="prvExitFunction">
<polygon fill="white" stroke="black" points="179.5,-1342.5 179.5,-1361.5 264.5,-1361.5 264.5,-1342.5 179.5,-1342.5"/>
<text text-anchor="middle" x="222" y="-1349.5" font-family="Helvetica,sans-Serif" font-size="10.00">prvExitFunction</text>
</a>
</g>
</g>
<!-- Node1&#45;&gt;Node5 -->
<g id="edge4" class="edge"><title>Node1&#45;&gt;Node5</title>
<path fill="none" stroke="midnightblue" d="M54.0944,-753.741C54.9564,-822.696 63.3895,-1237.04 142,-1328 149.176,-1336.3 159.126,-1341.79 169.549,-1345.39"/>
<polygon fill="midnightblue" stroke="midnightblue" points="168.607,-1348.77 179.187,-1348.21 170.568,-1342.05 168.607,-1348.77"/>
</g>
<!-- Node6 -->
<g id="node6" class="node"><title>Node6</title>
<g id="a_node6"><a xlink:href="_g_c_c_2_tri_core__1782_2port_8c.html#a6b11d209264bd492e907dfa5924057c5" target="_top" xlink:title="prvInterruptYield">
<polygon fill="white" stroke="black" points="370,-1266.5 370,-1285.5 460,-1285.5 460,-1266.5 370,-1266.5"/>
<text text-anchor="middle" x="415" y="-1273.5" font-family="Helvetica,sans-Serif" font-size="10.00">prvInterruptYield</text>
</a>
</g>
</g>
<!-- Node1&#45;&gt;Node6 -->
<g id="edge5" class="edge"><title>Node1&#45;&gt;Node6</title>
<path fill="none" stroke="midnightblue" d="M54.1576,-753.81C55.406,-818.156 65.778,-1179.42 142,-1250 201.721,-1305.3 303.569,-1298.15 364.25,-1287.42"/>
<polygon fill="midnightblue" stroke="midnightblue" points="365.164,-1290.81 374.352,-1285.54 363.879,-1283.93 365.164,-1290.81"/>
</g>
<!-- Node9 -->
<g id="node9" class="node"><title>Node9</title>
<g id="a_node9"><a xlink:href="_m_p_l_a_b_2_p_i_c18_f_2port_8c.html#a58197e4187d2a15e3442c99500df5250" target="_top" xlink:title="prvLowInterrupt">
<polygon fill="white" stroke="black" points="179,-1152.5 179,-1171.5 265,-1171.5 265,-1152.5 179,-1152.5"/>
<text text-anchor="middle" x="222" y="-1159.5" font-family="Helvetica,sans-Serif" font-size="10.00">prvLowInterrupt</text>
</a>
</g>
</g>
<!-- Node1&#45;&gt;Node9 -->
<g id="edge8" class="edge"><title>Node1&#45;&gt;Node9</title>
<path fill="none" stroke="midnightblue" d="M54.8426,-753.538C59.8338,-807.963 87.1888,-1078.9 142,-1138 149.239,-1145.81 158.927,-1151.1 169.033,-1154.69"/>
<polygon fill="midnightblue" stroke="midnightblue" points="168.199,-1158.09 178.784,-1157.63 170.22,-1151.39 168.199,-1158.09"/>
</g>
<!-- Node14 -->
<g id="node14" class="node"><title>Node14</title>
<g id="a_node14"><a xlink:href="_b_c_c_216_bit_d_o_s_2_flsh186_2port_8c.html#acf9df4f9ff9bc642609898d1a7503a53" target="_top" xlink:title="prvNonPreemptiveTick">
<polygon fill="white" stroke="black" points="356,-1228.5 356,-1247.5 474,-1247.5 474,-1228.5 356,-1228.5"/>
<text text-anchor="middle" x="415" y="-1235.5" font-family="Helvetica,sans-Serif" font-size="10.00">prvNonPreemptiveTick</text>
</a>
</g>
</g>
<!-- Node1&#45;&gt;Node14 -->
<g id="edge15" class="edge"><title>Node1&#45;&gt;Node14</title>
<path fill="none" stroke="midnightblue" d="M54.2753,-753.538C56.2468,-814.595 70.2769,-1150.14 142,-1215 202.971,-1270.14 306.2,-1261.11 366.425,-1249.56"/>
<polygon fill="midnightblue" stroke="midnightblue" points="367.319,-1252.95 376.429,-1247.55 365.934,-1246.09 367.319,-1252.95"/>
</g>
<!-- Node15 -->
<g id="node15" class="node"><title>Node15</title>
<g id="a_node15"><a xlink:href="_g_c_c_2_m_c_f5235_2port_8c.html#a63dbda6b7b3f407d233f73a0095ed528" target="_top" xlink:title="prvPortPreemptiveTick">
<polygon fill="white" stroke="black" points="163,-886.5 163,-905.5 281,-905.5 281,-886.5 163,-886.5"/>
<text text-anchor="middle" x="222" y="-893.5" font-family="Helvetica,sans-Serif" font-size="10.00">prvPortPreemptiveTick</text>
</a>
</g>
</g>
<!-- Node1&#45;&gt;Node15 -->
<g id="edge17" class="edge"><title>Node1&#45;&gt;Node15</title>
<path fill="none" stroke="midnightblue" d="M57.5514,-753.855C67.0488,-778.737 95.5154,-844.432 142,-877 145.509,-879.459 149.298,-881.601 153.25,-883.468"/>
<polygon fill="midnightblue" stroke="midnightblue" points="152.135,-886.794 162.715,-887.344 154.787,-880.316 152.135,-886.794"/>
</g>
<!-- Node16 -->
<g id="node16" class="node"><title>Node16</title>
<g id="a_node16"><a xlink:href="_g_c_c_2_a_r_m___c_m3_2port_8c.html#a50dd292452ec6c17a611a90c22e19136" target="_top" xlink:title="prvPortStartFirstTask">
<polygon fill="white" stroke="black" points="166.5,-848.5 166.5,-867.5 277.5,-867.5 277.5,-848.5 166.5,-848.5"/>
<text text-anchor="middle" x="222" y="-855.5" font-family="Helvetica,sans-Serif" font-size="10.00">prvPortStartFirstTask</text>
</a>
</g>
</g>
<!-- Node1&#45;&gt;Node16 -->
<g id="edge18" class="edge"><title>Node1&#45;&gt;Node16</title>
<path fill="none" stroke="midnightblue" d="M59.97,-753.539C72.5928,-772.874 103.977,-816.731 142,-839 146.525,-841.65 151.401,-843.931 156.431,-845.894"/>
<polygon fill="midnightblue" stroke="midnightblue" points="155.648,-849.327 166.243,-849.292 157.939,-842.712 155.648,-849.327"/>
</g>
<!-- Node17 -->
<g id="node17" class="node"><title>Node17</title>
<g id="a_node17"><a xlink:href="_g_c_c_2_m_c_f5235_2port_8c.html#ab29afb2a4cb7a5158953f41abd366a76" target="_top" xlink:title="prvPortYield">
<polygon fill="white" stroke="black" points="186.5,-962.5 186.5,-981.5 257.5,-981.5 257.5,-962.5 186.5,-962.5"/>
<text text-anchor="middle" x="222" y="-969.5" font-family="Helvetica,sans-Serif" font-size="10.00">prvPortYield</text>
</a>
</g>
</g>
<!-- Node1&#45;&gt;Node17 -->
<g id="edge19" class="edge"><title>Node1&#45;&gt;Node17</title>
<path fill="none" stroke="midnightblue" d="M55.0268,-753.681C59.0973,-787.006 77.1864,-897.947 142,-953 151.575,-961.133 164.05,-965.907 176.248,-968.675"/>
<polygon fill="midnightblue" stroke="midnightblue" points="175.887,-972.168 186.359,-970.557 177.168,-965.286 175.887,-972.168"/>
</g>
<!-- Node20 -->
<g id="node20" class="node"><title>Node20</title>
<g id="a_node20"><a xlink:href="_m_s_v_c-_ming_w_2port_8c.html#a1d6207a2b13a4c014a0b0f4d54f900e0" target="_top" xlink:title="prvProcessSimulatedInterrupts">
<polygon fill="white" stroke="black" points="338.5,-1038.5 338.5,-1057.5 491.5,-1057.5 491.5,-1038.5 338.5,-1038.5"/>
<text text-anchor="middle" x="415" y="-1045.5" font-family="Helvetica,sans-Serif" font-size="10.00">prvProcessSimulatedInterrupts</text>
</a>
</g>
</g>
<!-- Node1&#45;&gt;Node20 -->
<g id="edge23" class="edge"><title>Node1&#45;&gt;Node20</title>
<path fill="none" stroke="midnightblue" d="M55.3966,-753.577C62.3481,-799.818 94.775,-999.266 142,-1036 207.994,-1087.33 312.644,-1073.46 371.027,-1059.98"/>
<polygon fill="midnightblue" stroke="midnightblue" points="372.123,-1063.32 381.024,-1057.57 370.482,-1056.51 372.123,-1063.32"/>
</g>
<!-- Node21 -->
<g id="node21" class="node"><title>Node21</title>
<g id="a_node21"><a xlink:href="_m_s_v_c-_ming_w_2port_8c.html#adc28efa1df4fe75c8bb49108e6609377" target="_top" xlink:title="prvProcessTickInterrupt">
<polygon fill="white" stroke="black" points="354,-1076.5 354,-1095.5 476,-1095.5 476,-1076.5 354,-1076.5"/>
<text text-anchor="middle" x="415" y="-1083.5" font-family="Helvetica,sans-Serif" font-size="10.00">prvProcessTickInterrupt</text>
</a>
</g>
</g>
<!-- Node1&#45;&gt;Node21 -->
<g id="edge26" class="edge"><title>Node1&#45;&gt;Node21</title>
<path fill="none" stroke="midnightblue" d="M55.1213,-753.592C61.0784,-802.776 90.6892,-1026.01 142,-1068 205.877,-1120.27 308.967,-1109.68 368.19,-1097.61"/>
<polygon fill="midnightblue" stroke="midnightblue" points="368.963,-1101.02 378.012,-1095.51 367.502,-1094.18 368.963,-1101.02"/>
</g>
<!-- Node22 -->
<g id="node22" class="node"><title>Node22</title>
<g id="a_node22"><a xlink:href="_m_s_v_c-_ming_w_2port_8c.html#a905a83e355b01f0e9aca35992ddeae52" target="_top" xlink:title="prvProcessYieldInterrupt">
<polygon fill="white" stroke="black" points="159,-810.5 159,-829.5 285,-829.5 285,-810.5 159,-810.5"/>
<text text-anchor="middle" x="222" y="-817.5" font-family="Helvetica,sans-Serif" font-size="10.00">prvProcessYieldInterrupt</text>
</a>
</g>
</g>
<!-- Node1&#45;&gt;Node22 -->
<g id="edge28" class="edge"><title>Node1&#45;&gt;Node22</title>
<path fill="none" stroke="midnightblue" d="M65.7852,-753.519C82.0063,-766.162 112.56,-788.365 142,-801 147.785,-803.483 153.953,-805.677 160.196,-807.608"/>
<polygon fill="midnightblue" stroke="midnightblue" points="159.445,-811.034 170.022,-810.43 161.377,-804.306 159.445,-811.034"/>
</g>
<!-- Node23 -->
<g id="node23" class="node"><title>Node23</title>
<g id="a_node23"><a xlink:href="_b_c_c_216_bit_d_o_s_2_flsh186_2port_8c.html#a5959625826e2b2a3f4b14c49c24f9737" target="_top" xlink:title="prvSetTickFrequency">
<polygon fill="white" stroke="black" points="166.5,-772.5 166.5,-791.5 277.5,-791.5 277.5,-772.5 166.5,-772.5"/>
<text text-anchor="middle" x="222" y="-779.5" font-family="Helvetica,sans-Serif" font-size="10.00">prvSetTickFrequency</text>
</a>
</g>
</g>
<!-- Node1&#45;&gt;Node23 -->
<g id="edge29" class="edge"><title>Node1&#45;&gt;Node23</title>
<path fill="none" stroke="midnightblue" d="M96.1412,-753.589C118.377,-758.649 145.848,-764.9 169.356,-770.249"/>
<polygon fill="midnightblue" stroke="midnightblue" points="168.635,-773.674 179.162,-772.48 170.188,-766.848 168.635,-773.674"/>
</g>
<!-- Node24 -->
<g id="node24" class="node"><title>Node24</title>
<g id="a_node24"><a xlink:href="_g_c_c_2_a_r_m___c_m3___m_p_u_2port_8c.html#ac8f1b1a01e872c9158247e0bf5d5e472" target="_top" xlink:title="prvSetupMPU">
<polygon fill="white" stroke="black" points="182.5,-734.5 182.5,-753.5 261.5,-753.5 261.5,-734.5 182.5,-734.5"/>
<text text-anchor="middle" x="222" y="-741.5" font-family="Helvetica,sans-Serif" font-size="10.00">prvSetupMPU</text>
</a>
</g>
</g>
<!-- Node1&#45;&gt;Node24 -->
<g id="edge30" class="edge"><title>Node1&#45;&gt;Node24</title>
<path fill="none" stroke="midnightblue" d="M106.382,-744C127.412,-744 151.516,-744 172.175,-744"/>
<polygon fill="midnightblue" stroke="midnightblue" points="172.32,-747.5 182.32,-744 172.32,-740.5 172.32,-747.5"/>
</g>
<!-- Node26 -->
<g id="node26" class="node"><title>Node26</title>
<g id="a_node26"><a xlink:href="_softune_2_m_b96340_2port_8c.html#aa47c7c699025c6ca78265952043e3859" target="_top" xlink:title="prvSetupRLT0Interrupt">
<polygon fill="white" stroke="black" points="163,-696.5 163,-715.5 281,-715.5 281,-696.5 163,-696.5"/>
<text text-anchor="middle" x="222" y="-703.5" font-family="Helvetica,sans-Serif" font-size="10.00">prvSetupRLT0Interrupt</text>
</a>
</g>
</g>
<!-- Node1&#45;&gt;Node26 -->
<g id="edge32" class="edge"><title>Node1&#45;&gt;Node26</title>
<path fill="none" stroke="midnightblue" d="M96.1412,-734.411C118.377,-729.351 145.848,-723.1 169.356,-717.751"/>
<polygon fill="midnightblue" stroke="midnightblue" points="170.188,-721.152 179.162,-715.52 168.635,-714.326 170.188,-721.152"/>
</g>
<!-- Node27 -->
<g id="node27" class="node"><title>Node27</title>
<g id="a_node27"><a xlink:href="_c_c_s_2_a_r_m___cortex-_r4_2port_8c.html#aeb91268bfbb6dc04ff839631ee5c72ba" target="_top" xlink:title="prvSetupTimerInterrupt">
<polygon fill="white" stroke="black" points="162.5,-658.5 162.5,-677.5 281.5,-677.5 281.5,-658.5 162.5,-658.5"/>
<text text-anchor="middle" x="222" y="-665.5" font-family="Helvetica,sans-Serif" font-size="10.00">prvSetupTimerInterrupt</text>
</a>
</g>
</g>
<!-- Node1&#45;&gt;Node27 -->
<g id="edge33" class="edge"><title>Node1&#45;&gt;Node27</title>
<path fill="none" stroke="midnightblue" d="M65.7852,-734.481C82.0063,-721.838 112.56,-699.635 142,-687 147.785,-684.517 153.953,-682.323 160.196,-680.392"/>
<polygon fill="midnightblue" stroke="midnightblue" points="161.377,-683.694 170.022,-677.57 159.445,-676.966 161.377,-683.694"/>
</g>
<!-- Node28 -->
<g id="node28" class="node"><title>Node28</title>
<g id="a_node28"><a xlink:href="_m_s_v_c-_ming_w_2port_8c.html#a284a392f76fcc26d88e604c71e491bfd" target="_top" xlink:title="prvSimulatedPeripheralTimer">
<polygon fill="white" stroke="black" points="342,-924.5 342,-943.5 488,-943.5 488,-924.5 342,-924.5"/>
<text text-anchor="middle" x="415" y="-931.5" font-family="Helvetica,sans-Serif" font-size="10.00">prvSimulatedPeripheralTimer</text>
</a>
</g>
</g>
<!-- Node1&#45;&gt;Node28 -->
<g id="edge34" class="edge"><title>Node1&#45;&gt;Node28</title>
<path fill="none" stroke="midnightblue" d="M53.8752,-753.594C53.9643,-791.709 59.973,-933.147 142,-991 220.69,-1046.5 342.002,-980.82 391.654,-949.174"/>
<polygon fill="midnightblue" stroke="midnightblue" points="393.594,-952.087 400.064,-943.697 389.774,-946.221 393.594,-952.087"/>
</g>
<!-- Node30 -->
<g id="node30" class="node"><title>Node30</title>
<g id="a_node30"><a xlink:href="_g_c_c_2_r_x100_2port_8c.html#ae6d8cff7a6585aa3b48d5d56375ebdeb" target="_top" xlink:title="prvStartFirstTask">
<polygon fill="white" stroke="black" points="175.5,-620.5 175.5,-639.5 268.5,-639.5 268.5,-620.5 175.5,-620.5"/>
<text text-anchor="middle" x="222" y="-627.5" font-family="Helvetica,sans-Serif" font-size="10.00">prvStartFirstTask</text>
</a>
</g>
</g>
<!-- Node1&#45;&gt;Node30 -->
<g id="edge38" class="edge"><title>Node1&#45;&gt;Node30</title>
<path fill="none" stroke="midnightblue" d="M59.97,-734.461C72.5928,-715.126 103.977,-671.269 142,-649 149.262,-644.747 157.429,-641.444 165.685,-638.88"/>
<polygon fill="midnightblue" stroke="midnightblue" points="166.667,-642.24 175.37,-636.197 164.798,-635.494 166.667,-642.24"/>
</g>
<!-- Node31 -->
<g id="node31" class="node"><title>Node31</title>
<g id="a_node31"><a xlink:href="_g_c_c_2_a_r_m___c_a9_2port_8c.html#a813e8227aedfc6bd83c66c4a9b8e4f41" target="_top" xlink:title="prvTaskExitError">
<polygon fill="white" stroke="black" points="176.5,-582.5 176.5,-601.5 267.5,-601.5 267.5,-582.5 176.5,-582.5"/>
<text text-anchor="middle" x="222" y="-589.5" font-family="Helvetica,sans-Serif" font-size="10.00">prvTaskExitError</text>
</a>
</g>
</g>
<!-- Node1&#45;&gt;Node31 -->
<g id="edge39" class="edge"><title>Node1&#45;&gt;Node31</title>
<path fill="none" stroke="midnightblue" d="M57.5514,-734.145C67.0488,-709.263 95.5154,-643.568 142,-611 149.303,-605.883 157.816,-602.135 166.496,-599.392"/>
<polygon fill="midnightblue" stroke="midnightblue" points="167.592,-602.72 176.312,-596.701 165.742,-595.969 167.592,-602.72"/>
</g>
<!-- Node10 -->
<g id="node10" class="node"><title>Node10</title>
<g id="a_node10"><a xlink:href="_m_p_l_a_b_2_p_i_c18_f_2port_8c.html#aa102d20e6272879e93b4fe81a049dad6" target="_top" xlink:title="prvTickISR">
<polygon fill="white" stroke="black" points="382.5,-1190.5 382.5,-1209.5 447.5,-1209.5 447.5,-1190.5 382.5,-1190.5"/>
<text text-anchor="middle" x="415" y="-1197.5" font-family="Helvetica,sans-Serif" font-size="10.00">prvTickISR</text>
</a>
</g>
</g>
<!-- Node1&#45;&gt;Node10 -->
<g id="edge40" class="edge"><title>Node1&#45;&gt;Node10</title>
<path fill="none" stroke="midnightblue" d="M54.4147,-753.617C57.1574,-812.324 74.7069,-1121.87 142,-1181 205.569,-1236.86 312.993,-1223.97 372.025,-1211.11"/>
<polygon fill="midnightblue" stroke="midnightblue" points="373.143,-1214.44 382.115,-1208.81 371.587,-1207.62 373.143,-1214.44"/>
</g>
<!-- Node32 -->
<g id="node32" class="node"><title>Node32</title>
<g id="a_node32"><a xlink:href="_g_c_c_2_tri_core__1782_2port_8c.html#ab7cabab6d1e9f66ab2be70efc236a7df" target="_top" xlink:title="prvTrapYield">
<polygon fill="white" stroke="black" points="378.5,-1000.5 378.5,-1019.5 451.5,-1019.5 451.5,-1000.5 378.5,-1000.5"/>
<text text-anchor="middle" x="415" y="-1007.5" font-family="Helvetica,sans-Serif" font-size="10.00">prvTrapYield</text>
</a>
</g>
</g>
<!-- Node1&#45;&gt;Node32 -->
<g id="edge41" class="edge"><title>Node1&#45;&gt;Node32</title>
<path fill="none" stroke="midnightblue" d="M53.5433,-753.655C52.2252,-794.056 53.1622,-950.443 142,-1015 176.888,-1040.35 300.423,-1026.99 368.372,-1017.25"/>
<polygon fill="midnightblue" stroke="midnightblue" points="368.991,-1020.69 378.377,-1015.78 367.976,-1013.77 368.991,-1020.69"/>
</g>
<!-- Node33 -->
<g id="node33" class="node"><title>Node33</title>
<g id="a_node33"><a xlink:href="_b_c_c_216_bit_d_o_s_2_flsh186_2port_8c.html#a45db6cc1dd49dae903bd425b5c2027f9" target="_top" xlink:title="prvYieldProcessor">
<polygon fill="white" stroke="black" points="173,-544.5 173,-563.5 271,-563.5 271,-544.5 173,-544.5"/>
<text text-anchor="middle" x="222" y="-551.5" font-family="Helvetica,sans-Serif" font-size="10.00">prvYieldProcessor</text>
</a>
</g>
</g>
<!-- Node1&#45;&gt;Node33 -->
<g id="edge43" class="edge"><title>Node1&#45;&gt;Node33</title>
<path fill="none" stroke="midnightblue" d="M55.9719,-734.457C62.5151,-705.299 86.3338,-616.72 142,-573 148.24,-568.099 155.552,-564.434 163.164,-561.699"/>
<polygon fill="midnightblue" stroke="midnightblue" points="164.374,-564.989 172.907,-558.709 162.32,-558.297 164.374,-564.989"/>
</g>
<!-- Node35 -->
<g id="node35" class="node"><title>Node35</title>
<g id="a_node35"><a xlink:href="_wiz_c_2_p_i_c18_2port_8c.html#a0dc0ff621115a685d59ea38b526ebe89" target="_top" xlink:title="pvPortMalloc">
<polygon fill="white" stroke="red" points="185,-506.5 185,-525.5 259,-525.5 259,-506.5 185,-506.5"/>
<text text-anchor="middle" x="222" y="-513.5" font-family="Helvetica,sans-Serif" font-size="10.00">pvPortMalloc</text>
</a>
</g>
</g>
<!-- Node1&#45;&gt;Node35 -->
<g id="edge45" class="edge"><title>Node1&#45;&gt;Node35</title>
<path fill="none" stroke="midnightblue" d="M55.0268,-734.319C59.0973,-700.994 77.1864,-590.053 142,-535 151.147,-527.23 162.94,-522.527 174.609,-519.709"/>
<polygon fill="midnightblue" stroke="midnightblue" points="175.638,-523.073 184.763,-517.689 174.272,-516.207 175.638,-523.073"/>
</g>
<!-- Node37 -->
<g id="node37" class="node"><title>Node37</title>
<g id="a_node37"><a xlink:href="_m_p_l_a_b_2_p_i_c24__ds_p_i_c_2port_8c.html#a8b738ae962ed08676c294ff428c93fa5" target="_top" xlink:title="vApplicationSetupTickTimer\lInterrupt">
<polygon fill="white" stroke="black" points="152,-457 152,-487 292,-487 292,-457 152,-457"/>
<text text-anchor="start" x="160" y="-475" font-family="Helvetica,sans-Serif" font-size="10.00">vApplicationSetupTickTimer</text>
<text text-anchor="middle" x="222" y="-464" font-family="Helvetica,sans-Serif" font-size="10.00">Interrupt</text>
</a>
</g>
</g>
<!-- Node1&#45;&gt;Node37 -->
<g id="edge47" class="edge"><title>Node1&#45;&gt;Node37</title>
<path fill="none" stroke="midnightblue" d="M54.4874,-734.351C56.8609,-697.771 70.2565,-566.222 142,-497 143.64,-495.417 145.38,-493.935 147.201,-492.546"/>
<polygon fill="midnightblue" stroke="midnightblue" points="149.181,-495.434 155.645,-487.039 145.357,-489.57 149.181,-495.434"/>
</g>
<!-- Node38 -->
<g id="node38" class="node"><title>Node38</title>
<g id="a_node38"><a xlink:href="_c_c_s_2_m_s_p430_x_2portmacro_8h.html#af6c61ea6aaa9367ebdc5348c1b121aa7" target="_top" xlink:title="vApplicationSetupTimerInterrupt">
<polygon fill="white" stroke="black" points="142.5,-418.5 142.5,-437.5 301.5,-437.5 301.5,-418.5 142.5,-418.5"/>
<text text-anchor="middle" x="222" y="-425.5" font-family="Helvetica,sans-Serif" font-size="10.00">vApplicationSetupTimerInterrupt</text>
</a>
</g>
</g>
<!-- Node1&#45;&gt;Node38 -->
<g id="edge48" class="edge"><title>Node1&#45;&gt;Node38</title>
<path fill="none" stroke="midnightblue" d="M53.7053,-734.364C53.0007,-693.218 55.9397,-530.601 142,-448 143.965,-446.114 146.081,-444.399 148.314,-442.839"/>
<polygon fill="midnightblue" stroke="midnightblue" points="150.535,-445.598 157.439,-437.562 147.03,-439.539 150.535,-445.598"/>
</g>
<!-- Node7 -->
<g id="node7" class="node"><title>Node7</title>
<g id="a_node7"><a xlink:href="_paradigm_2_tern___e_e_2small_2portmacro_8h.html#a14d32f8130d3c0b212cfc751730b5b49" target="_top" xlink:title="void">
<polygon fill="white" stroke="black" points="672.5,-1123.5 672.5,-1142.5 707.5,-1142.5 707.5,-1123.5 672.5,-1123.5"/>
<text text-anchor="middle" x="690" y="-1130.5" font-family="Helvetica,sans-Serif" font-size="10.00">void</text>
</a>
</g>
</g>
<!-- Node1&#45;&gt;Node7 -->
<g id="edge49" class="edge"><title>Node1&#45;&gt;Node7</title>
<path fill="none" stroke="midnightblue" d="M53.993,-753.676C54.1627,-820.4 58.7279,-1211.8 142,-1286 200.088,-1337.76 416.082,-1312.02 492,-1295 561.062,-1279.51 584.179,-1275.21 636,-1227 658.661,-1205.92 674.146,-1172.9 682.28,-1152.13"/>
<polygon fill="midnightblue" stroke="midnightblue" points="685.651,-1153.11 685.862,-1142.51 679.092,-1150.66 685.651,-1153.11"/>
</g>
<!-- Node39 -->
<g id="node39" class="node"><title>Node39</title>
<g id="a_node39"><a xlink:href="_c_c_s_2_a_r_m___c_m4_f_2port_8c.html#ae7d07e03614f384260df2c902d131caf" target="_top" xlink:title="vPortEnableVFP">
<polygon fill="white" stroke="black" points="177,-380.5 177,-399.5 267,-399.5 267,-380.5 177,-380.5"/>
<text text-anchor="middle" x="222" y="-387.5" font-family="Helvetica,sans-Serif" font-size="10.00">vPortEnableVFP</text>
</a>
</g>
</g>
<!-- Node1&#45;&gt;Node39 -->
<g id="edge50" class="edge"><title>Node1&#45;&gt;Node39</title>
<path fill="none" stroke="midnightblue" d="M55.2121,-734.248C61.6222,-684.218 93.1313,-456.86 142,-409 148.882,-402.261 157.712,-397.765 166.963,-394.795"/>
<polygon fill="midnightblue" stroke="midnightblue" points="167.918,-398.163 176.691,-392.222 166.128,-391.395 167.918,-398.163"/>
</g>
<!-- Node40 -->
<g id="node40" class="node"><title>Node40</title>
<g id="a_node40"><a xlink:href="_g_c_c_2_a_r_m7___a_t91_f_r40008_2port_8c.html#ab6f659b3911405d21fe98a1c7a347d8f" target="_top" xlink:title="vPortISRStartFirstTask">
<polygon fill="white" stroke="black" points="162.5,-342.5 162.5,-361.5 281.5,-361.5 281.5,-342.5 162.5,-342.5"/>
<text text-anchor="middle" x="222" y="-349.5" font-family="Helvetica,sans-Serif" font-size="10.00">vPortISRStartFirstTask</text>
</a>
</g>
</g>
<!-- Node1&#45;&gt;Node40 -->
<g id="edge51" class="edge"><title>Node1&#45;&gt;Node40</title>
<path fill="none" stroke="midnightblue" d="M54.9364,-734.229C60.2453,-680.857 88.2479,-424.986 142,-371 145.28,-367.706 149.024,-364.945 153.059,-362.635"/>
<polygon fill="midnightblue" stroke="midnightblue" points="154.749,-365.707 162.29,-358.265 151.754,-359.38 154.749,-365.707"/>
</g>
<!-- Node41 -->
<g id="node41" class="node"><title>Node41</title>
<g id="a_node41"><a xlink:href="_g_c_c_2_a_r_m___c_a9_2port_8c.html#a222aec9e4494ebf3fdbda864b5cb3a4b" target="_top" xlink:title="vPortRestoreTaskContext">
<polygon fill="white" stroke="black" points="156.5,-304.5 156.5,-323.5 287.5,-323.5 287.5,-304.5 156.5,-304.5"/>
<text text-anchor="middle" x="222" y="-311.5" font-family="Helvetica,sans-Serif" font-size="10.00">vPortRestoreTaskContext</text>
</a>
</g>
</g>
<!-- Node1&#45;&gt;Node41 -->
<g id="edge52" class="edge"><title>Node1&#45;&gt;Node41</title>
<path fill="none" stroke="midnightblue" d="M54.6977,-734.371C58.9607,-678.194 83.2835,-393.209 142,-333 143.68,-331.277 145.488,-329.699 147.398,-328.255"/>
<polygon fill="midnightblue" stroke="midnightblue" points="149.672,-330.965 156.353,-322.742 146.003,-325.004 149.672,-330.965"/>
</g>
<!-- Node42 -->
<g id="node42" class="node"><title>Node42</title>
<g id="a_node42"><a xlink:href="_m_s_v_c-_ming_w_2port_8c.html#a35b5d3a9b147da8e3adda2a2cc7b6cc0" target="_top" xlink:title="vPortSetInterruptHandler">
<polygon fill="white" stroke="black" points="158.5,-266.5 158.5,-285.5 285.5,-285.5 285.5,-266.5 158.5,-266.5"/>
<text text-anchor="middle" x="222" y="-273.5" font-family="Helvetica,sans-Serif" font-size="10.00">vPortSetInterruptHandler</text>
</a>
</g>
</g>
<!-- Node1&#45;&gt;Node42 -->
<g id="edge53" class="edge"><title>Node1&#45;&gt;Node42</title>
<path fill="none" stroke="midnightblue" d="M54.5156,-734.274C57.8606,-674.877 78.3805,-361.382 142,-295 144.222,-292.681 146.674,-290.625 149.296,-288.802"/>
<polygon fill="midnightblue" stroke="midnightblue" points="151.225,-291.732 158.184,-283.743 147.762,-285.649 151.225,-291.732"/>
</g>
<!-- Node43 -->
<g id="node43" class="node"><title>Node43</title>
<g id="a_node43"><a xlink:href="_g_c_c_2_i_a32__flat_2port_8c.html#ab80bbff02ac9871dcfb168f77b763beb" target="_top" xlink:title="vPortSetupIDT">
<polygon fill="white" stroke="red" points="181,-228.5 181,-247.5 263,-247.5 263,-228.5 181,-228.5"/>
<text text-anchor="middle" x="222" y="-235.5" font-family="Helvetica,sans-Serif" font-size="10.00">vPortSetupIDT</text>
</a>
</g>
</g>
<!-- Node1&#45;&gt;Node43 -->
<g id="edge54" class="edge"><title>Node1&#45;&gt;Node43</title>
<path fill="none" stroke="midnightblue" d="M54.3549,-734.278C56.8248,-672.026 73.425,-329.618 142,-257 149.638,-248.912 160.066,-244.004 170.842,-241.084"/>
<polygon fill="midnightblue" stroke="midnightblue" points="171.736,-244.472 180.765,-238.928 170.249,-237.631 171.736,-244.472"/>
</g>
<!-- Node44 -->
<g id="node44" class="node"><title>Node44</title>
<g id="a_node44"><a xlink:href="_c_c_s_2_a_r_m___c_m4_f_2port_8c.html#a4649001ea4d29b80759e6eca4bba58eb" target="_top" xlink:title="vPortSetupTimerInterrupt">
<polygon fill="white" stroke="black" points="157.5,-190.5 157.5,-209.5 286.5,-209.5 286.5,-190.5 157.5,-190.5"/>
<text text-anchor="middle" x="222" y="-197.5" font-family="Helvetica,sans-Serif" font-size="10.00">vPortSetupTimerInterrupt</text>
</a>
</g>
</g>
<!-- Node1&#45;&gt;Node44 -->
<g id="edge55" class="edge"><title>Node1&#45;&gt;Node44</title>
<path fill="none" stroke="midnightblue" d="M54.2147,-734.375C55.8549,-669.642 68.4196,-297.916 142,-219 144.029,-216.824 146.26,-214.877 148.646,-213.137"/>
<polygon fill="midnightblue" stroke="midnightblue" points="150.492,-216.112 157.287,-207.983 146.906,-210.1 150.492,-216.112"/>
</g>
<!-- Node45 -->
<g id="node45" class="node"><title>Node45</title>
<g id="a_node45"><a xlink:href="_i_a_r_2_a_t_mega323_2port_8c.html#a97998187984cbffc1cbeef4d67622ab6" target="_top" xlink:title="vPortStart">
<polygon fill="white" stroke="black" points="191.5,-152.5 191.5,-171.5 252.5,-171.5 252.5,-152.5 191.5,-152.5"/>
<text text-anchor="middle" x="222" y="-159.5" font-family="Helvetica,sans-Serif" font-size="10.00">vPortStart</text>
</a>
</g>
</g>
<!-- Node1&#45;&gt;Node45 -->
<g id="edge56" class="edge"><title>Node1&#45;&gt;Node45</title>
<path fill="none" stroke="midnightblue" d="M54.0995,-734.126C54.9887,-666.017 63.5337,-266.092 142,-181 152.004,-170.152 167.023,-164.997 181.289,-162.694"/>
<polygon fill="midnightblue" stroke="midnightblue" points="181.945,-166.14 191.46,-161.48 181.116,-159.189 181.945,-166.14"/>
</g>
<!-- Node46 -->
<g id="node46" class="node"><title>Node46</title>
<g id="a_node46"><a xlink:href="_c_c_s_2_a_r_m___c_m4_f_2port_8c.html#a5cfc38319f17c8e804020ec247b6325d" target="_top" xlink:title="vPortStartFirstTask">
<polygon fill="white" stroke="black" points="171,-114.5 171,-133.5 273,-133.5 273,-114.5 171,-114.5"/>
<text text-anchor="middle" x="222" y="-121.5" font-family="Helvetica,sans-Serif" font-size="10.00">vPortStartFirstTask</text>
</a>
</g>
</g>
<!-- Node1&#45;&gt;Node46 -->
<g id="edge57" class="edge"><title>Node1&#45;&gt;Node46</title>
<path fill="none" stroke="midnightblue" d="M53.9926,-734.378C54.1369,-664.453 58.4435,-234.495 142,-143 147.167,-137.343 153.697,-133.231 160.779,-130.263"/>
<polygon fill="midnightblue" stroke="midnightblue" points="162.363,-133.421 170.704,-126.887 160.109,-126.794 162.363,-133.421"/>
</g>
<!-- Node47 -->
<g id="node47" class="node"><title>Node47</title>
<g id="a_node47"><a xlink:href="_code_warrior_2_h_c_s12_2port_8c.html#aad7fc9aa6bc470c8d84a4078eb29bb96" target="_top" xlink:title="vPortYield">
<polygon fill="white" stroke="black" points="191,-76.5 191,-95.5 253,-95.5 253,-76.5 191,-76.5"/>
<text text-anchor="middle" x="222" y="-83.5" font-family="Helvetica,sans-Serif" font-size="10.00">vPortYield</text>
</a>
</g>
</g>
<!-- Node1&#45;&gt;Node47 -->
<g id="edge58" class="edge"><title>Node1&#45;&gt;Node47</title>
<path fill="none" stroke="midnightblue" d="M53.8999,-734.244C53.3549,-661.413 53.4956,-202.747 142,-105 151.828,-94.1453 166.675,-88.9695 180.855,-86.6519"/>
<polygon fill="midnightblue" stroke="midnightblue" points="181.472,-90.1029 190.981,-85.4291 180.633,-83.1533 181.472,-90.1029"/>
</g>
<!-- Node48 -->
<g id="node48" class="node"><title>Node48</title>
<g id="a_node48"><a xlink:href="_g_c_c_2_r_x600_2port_8c.html#a05b8170f6114a4798593860395d9e8fd" target="_top" xlink:title="vSoftwareInterruptISR">
<polygon fill="white" stroke="black" points="164.5,-38.5 164.5,-57.5 279.5,-57.5 279.5,-38.5 164.5,-38.5"/>
<text text-anchor="middle" x="222" y="-45.5" font-family="Helvetica,sans-Serif" font-size="10.00">vSoftwareInterruptISR</text>
</a>
</g>
</g>
<!-- Node1&#45;&gt;Node48 -->
<g id="edge59" class="edge"><title>Node1&#45;&gt;Node48</title>
<path fill="none" stroke="midnightblue" d="M53.8158,-734.154C52.6071,-658.606 48.5231,-171.03 142,-67 145.62,-62.9718 149.93,-59.7244 154.643,-57.1144"/>
<polygon fill="midnightblue" stroke="midnightblue" points="156.446,-60.1409 164.127,-52.8427 153.571,-53.7585 156.446,-60.1409"/>
</g>
<!-- Node49 -->
<g id="node49" class="node"><title>Node49</title>
<g id="a_node49"><a xlink:href="porttrap_8c.html#abb81dc2f729d6c6fe39b23aa9f61e1a5" target="_top" xlink:title="vTrapInstallHandlers">
<polygon fill="white" stroke="red" points="168,-0.5 168,-19.5 276,-19.5 276,-0.5 168,-0.5"/>
<text text-anchor="middle" x="222" y="-7.5" font-family="Helvetica,sans-Serif" font-size="10.00">vTrapInstallHandlers</text>
</a>
</g>
</g>
<!-- Node1&#45;&gt;Node49 -->
<g id="edge60" class="edge"><title>Node1&#45;&gt;Node49</title>
<path fill="none" stroke="midnightblue" d="M54.5233,-734.463C59.0425,-653.598 92.5032,-84.463 142,-29 146.544,-23.9087 152.191,-20.0631 158.363,-17.1742"/>
<polygon fill="midnightblue" stroke="midnightblue" points="159.627,-20.4382 167.713,-13.5925 157.122,-13.9013 159.627,-20.4382"/>
</g>
<!-- Node50 -->
<g id="node50" class="node"><title>Node50</title>
<g id="a_node50"><a xlink:href="_code_warrior_2_h_c_s12_2port_8c.html#af6daded1e58ffe8853c8c1f71e574b1d" target="_top" xlink:title="xBankedStartScheduler">
<polygon fill="white" stroke="red" points="161,-924.5 161,-943.5 283,-943.5 283,-924.5 161,-924.5"/>
<text text-anchor="middle" x="222" y="-931.5" font-family="Helvetica,sans-Serif" font-size="10.00">xBankedStartScheduler</text>
</a>
</g>
</g>
<!-- Node1&#45;&gt;Node50 -->
<g id="edge61" class="edge"><title>Node1&#45;&gt;Node50</title>
<path fill="none" stroke="midnightblue" d="M55.9719,-753.543C62.5151,-782.701 86.3338,-871.28 142,-915 144.947,-917.314 148.133,-919.353 151.476,-921.148"/>
<polygon fill="midnightblue" stroke="midnightblue" points="150.09,-924.363 160.639,-925.354 153.011,-918.002 150.09,-924.363"/>
</g>
<!-- Node6&#45;&gt;Node7 -->
<g id="edge6" class="edge"><title>Node6&#45;&gt;Node7</title>
<path fill="none" stroke="midnightblue" d="M460.303,-1266.66C470.828,-1263.96 481.923,-1260.73 492,-1257 559.11,-1232.17 577.754,-1226.56 636,-1185 650.048,-1174.98 663.897,-1161.22 673.914,-1150.37"/>
<polygon fill="midnightblue" stroke="midnightblue" points="676.681,-1152.53 680.767,-1142.75 671.477,-1147.84 676.681,-1152.53"/>
</g>
<!-- Node8 -->
<g id="node8" class="node"><title>Node8</title>
<g id="a_node8"><a xlink:href="_renesas_2_r_x100_2port_8c.html#a9c86137bc3c1cbffc39fff22627cb885" target="_top" xlink:title="vTaskSwitchContext">
<polygon fill="white" stroke="black" points="528.5,-1038.5 528.5,-1057.5 635.5,-1057.5 635.5,-1038.5 528.5,-1038.5"/>
<text text-anchor="middle" x="582" y="-1045.5" font-family="Helvetica,sans-Serif" font-size="10.00">vTaskSwitchContext</text>
</a>
</g>
</g>
<!-- Node6&#45;&gt;Node8 -->
<g id="edge7" class="edge"><title>Node6&#45;&gt;Node8</title>
<path fill="none" stroke="midnightblue" d="M460.311,-1272.63C471.789,-1269.84 483.34,-1265.06 492,-1257 529.647,-1221.95 507.783,-1194.3 528,-1147 540.454,-1117.86 558.459,-1085.82 569.945,-1066.3"/>
<polygon fill="midnightblue" stroke="midnightblue" points="573.043,-1067.94 575.151,-1057.56 567.028,-1064.36 573.043,-1067.94"/>
</g>
<!-- Node9&#45;&gt;Node10 -->
<g id="edge9" class="edge"><title>Node9&#45;&gt;Node10</title>
<path fill="none" stroke="midnightblue" d="M265.389,-1170.43C297.322,-1176.79 340.871,-1185.45 372.568,-1191.76"/>
<polygon fill="midnightblue" stroke="midnightblue" points="371.923,-1195.2 382.413,-1193.72 373.289,-1188.33 371.923,-1195.2"/>
</g>
<!-- Node12 -->
<g id="node12" class="node"><title>Node12</title>
<g id="a_node12"><a xlink:href="_m_p_l_a_b_2_p_i_c18_f_2port_8c.html#ac7e6fe280714dbd37e42dff8f41005c4" target="_top" xlink:title="vSerialRxISR">
<polygon fill="white" stroke="black" points="377,-1152.5 377,-1171.5 453,-1171.5 453,-1152.5 377,-1152.5"/>
<text text-anchor="middle" x="415" y="-1159.5" font-family="Helvetica,sans-Serif" font-size="10.00">vSerialRxISR</text>
</a>
</g>
</g>
<!-- Node9&#45;&gt;Node12 -->
<g id="edge13" class="edge"><title>Node9&#45;&gt;Node12</title>
<path fill="none" stroke="midnightblue" d="M265.389,-1162C295.406,-1162 335.688,-1162 366.741,-1162"/>
<polygon fill="midnightblue" stroke="midnightblue" points="366.89,-1165.5 376.89,-1162 366.89,-1158.5 366.89,-1165.5"/>
</g>
<!-- Node13 -->
<g id="node13" class="node"><title>Node13</title>
<g id="a_node13"><a xlink:href="_m_p_l_a_b_2_p_i_c18_f_2port_8c.html#aca258f7ba02e25e54c401721007de5a9" target="_top" xlink:title="vSerialTxISR">
<polygon fill="white" stroke="black" points="377.5,-1114.5 377.5,-1133.5 452.5,-1133.5 452.5,-1114.5 377.5,-1114.5"/>
<text text-anchor="middle" x="415" y="-1121.5" font-family="Helvetica,sans-Serif" font-size="10.00">vSerialTxISR</text>
</a>
</g>
</g>
<!-- Node9&#45;&gt;Node13 -->
<g id="edge14" class="edge"><title>Node9&#45;&gt;Node13</title>
<path fill="none" stroke="midnightblue" d="M265.389,-1153.57C295.505,-1147.57 335.953,-1139.53 367.047,-1133.34"/>
<polygon fill="midnightblue" stroke="midnightblue" points="368.08,-1136.7 377.205,-1131.32 366.714,-1129.84 368.08,-1136.7"/>
</g>
<!-- Node11 -->
<g id="node11" class="node"><title>Node11</title>
<g id="a_node11"><a xlink:href="task_8h.html#a978e25460ac35706f9ad30b46d9403d8" target="_top" xlink:title="xTaskIncrementTick">
<polygon fill="white" stroke="red" points="529,-1156.5 529,-1175.5 635,-1175.5 635,-1156.5 529,-1156.5"/>
<text text-anchor="middle" x="582" y="-1163.5" font-family="Helvetica,sans-Serif" font-size="10.00">xTaskIncrementTick</text>
</a>
</g>
</g>
<!-- Node10&#45;&gt;Node11 -->
<g id="edge10" class="edge"><title>Node10&#45;&gt;Node11</title>
<path fill="none" stroke="midnightblue" d="M447.814,-1193.44C469.557,-1188.96 498.968,-1182.9 524.622,-1177.62"/>
<polygon fill="midnightblue" stroke="midnightblue" points="525.525,-1181 534.613,-1175.56 524.112,-1174.15 525.525,-1181"/>
</g>
<!-- Node10&#45;&gt;Node8 -->
<g id="edge12" class="edge"><title>Node10&#45;&gt;Node8</title>
<path fill="none" stroke="midnightblue" d="M447.75,-1197.31C462.282,-1194.83 479.096,-1190.08 492,-1181 533.49,-1151.82 561.068,-1096.61 573.475,-1067.34"/>
<polygon fill="midnightblue" stroke="midnightblue" points="576.819,-1068.41 577.357,-1057.83 570.338,-1065.77 576.819,-1068.41"/>
</g>
<!-- Node11&#45;&gt;Node7 -->
<g id="edge11" class="edge"><title>Node11&#45;&gt;Node7</title>
<path fill="none" stroke="midnightblue" d="M613.66,-1156.46C629.16,-1151.63 647.78,-1145.83 662.631,-1141.21"/>
<polygon fill="midnightblue" stroke="midnightblue" points="663.718,-1144.54 672.226,-1138.22 661.638,-1137.85 663.718,-1144.54"/>
</g>
<!-- Node14&#45;&gt;Node11 -->
<g id="edge16" class="edge"><title>Node14&#45;&gt;Node11</title>
<path fill="none" stroke="midnightblue" d="M463.316,-1228.45C472.974,-1225.87 482.947,-1222.73 492,-1219 516.352,-1208.96 541.972,-1193.06 559.438,-1181.29"/>
<polygon fill="midnightblue" stroke="midnightblue" points="561.514,-1184.11 567.778,-1175.57 557.553,-1178.34 561.514,-1184.11"/>
</g>
<!-- Node18 -->
<g id="node18" class="node"><title>Node18</title>
<g id="a_node18"><a xlink:href="_i_a_r_2_v850_e_s_2portmacro_8h.html#ad79a8b96e1489f7f0645e8d57360337d" target="_top" xlink:title="portSAVE_CONTEXT">
<polygon fill="white" stroke="black" points="358,-886.5 358,-905.5 472,-905.5 472,-886.5 358,-886.5"/>
<text text-anchor="middle" x="415" y="-893.5" font-family="Helvetica,sans-Serif" font-size="10.00">portSAVE_CONTEXT</text>
</a>
</g>
</g>
<!-- Node17&#45;&gt;Node18 -->
<g id="edge20" class="edge"><title>Node17&#45;&gt;Node18</title>
<path fill="none" stroke="midnightblue" d="M257.669,-968.088C272.092,-965.367 288.567,-960.767 302,-953 322.14,-941.355 317.912,-926.735 338,-915 341.87,-912.739 346.003,-910.746 350.267,-908.988"/>
<polygon fill="midnightblue" stroke="midnightblue" points="351.578,-912.235 359.76,-905.505 349.166,-905.664 351.578,-912.235"/>
</g>
<!-- Node17&#45;&gt;Node8 -->
<g id="edge21" class="edge"><title>Node17&#45;&gt;Node8</title>
<path fill="none" stroke="midnightblue" d="M257.592,-969.098C309.839,-965.888 411.341,-964.264 492,-991 518.548,-999.8 545.035,-1018.33 562.121,-1031.88"/>
<polygon fill="midnightblue" stroke="midnightblue" points="560.19,-1034.82 570.15,-1038.44 564.617,-1029.4 560.19,-1034.82"/>
</g>
<!-- Node19 -->
<g id="node19" class="node"><title>Node19</title>
<g id="a_node19"><a xlink:href="_i_a_r_2_v850_e_s_2portmacro_8h.html#a716d176e9130fa97ac875a31e7453605" target="_top" xlink:title="portRESTORE_CONTEXT">
<polygon fill="white" stroke="black" points="347.5,-848.5 347.5,-867.5 482.5,-867.5 482.5,-848.5 347.5,-848.5"/>
<text text-anchor="middle" x="415" y="-855.5" font-family="Helvetica,sans-Serif" font-size="10.00">portRESTORE_CONTEXT</text>
</a>
</g>
</g>
<!-- Node17&#45;&gt;Node19 -->
<g id="edge22" class="edge"><title>Node17&#45;&gt;Node19</title>
<path fill="none" stroke="midnightblue" d="M257.83,-970.246C272.785,-967.93 289.628,-963.051 302,-953 331.01,-929.434 309.096,-900.696 338,-877 340.071,-875.302 342.272,-873.754 344.573,-872.341"/>
<polygon fill="midnightblue" stroke="midnightblue" points="346.589,-875.238 353.865,-867.537 343.375,-869.02 346.589,-875.238"/>
</g>
<!-- Node20&#45;&gt;Node8 -->
<g id="edge24" class="edge"><title>Node20&#45;&gt;Node8</title>
<path fill="none" stroke="midnightblue" d="M491.739,-1048C500.629,-1048 509.625,-1048 518.309,-1048"/>
<polygon fill="midnightblue" stroke="midnightblue" points="518.336,-1051.5 528.336,-1048 518.336,-1044.5 518.336,-1051.5"/>
</g>
<!-- Node20&#45;&gt;Node7 -->
<g id="edge25" class="edge"><title>Node20&#45;&gt;Node7</title>
<path fill="none" stroke="midnightblue" d="M456.784,-1057.57C468.226,-1060.43 480.642,-1063.68 492,-1067 553.714,-1085.02 624.991,-1109.94 662.597,-1123.42"/>
<polygon fill="midnightblue" stroke="midnightblue" points="661.681,-1126.81 672.275,-1126.9 664.051,-1120.22 661.681,-1126.81"/>
</g>
<!-- Node21&#45;&gt;Node11 -->
<g id="edge27" class="edge"><title>Node21&#45;&gt;Node11</title>
<path fill="none" stroke="midnightblue" d="M465.117,-1095.55C474.251,-1098.08 483.566,-1101.2 492,-1105 518.038,-1116.72 544.622,-1136.11 561.871,-1149.88"/>
<polygon fill="midnightblue" stroke="midnightblue" points="560.025,-1152.89 569.987,-1156.5 564.449,-1147.47 560.025,-1152.89"/>
</g>
<!-- Node25 -->
<g id="node25" class="node"><title>Node25</title>
<g id="a_node25"><a xlink:href="_g_c_c_2_a_r_m___c_m3___m_p_u_2port_8c.html#ad888bf94e92ca9b4cf8e14d863d89c58" target="_top" xlink:title="prvGetMPURegionSizeSetting">
<polygon fill="white" stroke="black" points="339.5,-734.5 339.5,-753.5 490.5,-753.5 490.5,-734.5 339.5,-734.5"/>
<text text-anchor="middle" x="415" y="-741.5" font-family="Helvetica,sans-Serif" font-size="10.00">prvGetMPURegionSizeSetting</text>
</a>
</g>
</g>
<!-- Node24&#45;&gt;Node25 -->
<g id="edge31" class="edge"><title>Node24&#45;&gt;Node25</title>
<path fill="none" stroke="midnightblue" d="M261.652,-744C281.205,-744 305.756,-744 329.404,-744"/>
<polygon fill="midnightblue" stroke="midnightblue" points="329.466,-747.5 339.466,-744 329.466,-740.5 329.466,-747.5"/>
</g>
<!-- Node29 -->
<g id="node29" class="node"><title>Node29</title>
<g id="a_node29"><a xlink:href="_m_s_v_c-_ming_w_2port_8c.html#ae18099e835a03c7c5dfe13da9c102bd7" target="_top" xlink:title="prvEndProcess">
<polygon fill="white" stroke="black" points="540,-934.5 540,-953.5 624,-953.5 624,-934.5 540,-934.5"/>
<text text-anchor="middle" x="582" y="-941.5" font-family="Helvetica,sans-Serif" font-size="10.00">prvEndProcess</text>
</a>
</g>
</g>
<!-- Node28&#45;&gt;Node29 -->
<g id="edge35" class="edge"><title>Node28&#45;&gt;Node29</title>
<path fill="none" stroke="midnightblue" d="M488.371,-938.386C502.309,-939.231 516.639,-940.099 529.737,-940.893"/>
<polygon fill="midnightblue" stroke="midnightblue" points="529.752,-944.4 539.945,-941.512 530.175,-937.413 529.752,-944.4"/>
</g>
<!-- Node28&#45;&gt;Node7 -->
<g id="edge37" class="edge"><title>Node28&#45;&gt;Node7</title>
<path fill="none" stroke="midnightblue" d="M461.297,-943.576C509.856,-955.907 586.613,-981.623 636,-1029 660.871,-1052.86 676.087,-1090.91 683.501,-1113.78"/>
<polygon fill="midnightblue" stroke="midnightblue" points="680.166,-1114.84 686.443,-1123.38 686.859,-1112.79 680.166,-1114.84"/>
</g>
<!-- Node29&#45;&gt;Node7 -->
<g id="edge36" class="edge"><title>Node29&#45;&gt;Node7</title>
<path fill="none" stroke="midnightblue" d="M605.402,-953.556C615.967,-959.054 627.983,-966.895 636,-977 668.776,-1018.31 681.831,-1081.03 686.572,-1112.89"/>
<polygon fill="midnightblue" stroke="midnightblue" points="683.149,-1113.7 687.963,-1123.14 690.086,-1112.76 683.149,-1113.7"/>
</g>
<!-- Node32&#45;&gt;Node8 -->
<g id="edge42" class="edge"><title>Node32&#45;&gt;Node8</title>
<path fill="none" stroke="midnightblue" d="M451.803,-1018.25C474.645,-1023.51 504.61,-1030.41 529.931,-1036.24"/>
<polygon fill="midnightblue" stroke="midnightblue" points="529.211,-1039.66 539.741,-1038.5 530.782,-1032.84 529.211,-1039.66"/>
</g>
<!-- Node34 -->
<g id="node34" class="node"><title>Node34</title>
<g id="a_node34"><a xlink:href="o_watcom_216_bit_d_o_s_2common_2portasm_8h.html#af70bcc366f49027b3a4930a113be2dbb" target="_top" xlink:title="portSWITCH_CONTEXT">
<polygon fill="white" stroke="black" points="351.5,-544.5 351.5,-563.5 478.5,-563.5 478.5,-544.5 351.5,-544.5"/>
<text text-anchor="middle" x="415" y="-551.5" font-family="Helvetica,sans-Serif" font-size="10.00">portSWITCH_CONTEXT</text>
</a>
</g>
</g>
<!-- Node33&#45;&gt;Node34 -->
<g id="edge44" class="edge"><title>Node33&#45;&gt;Node34</title>
<path fill="none" stroke="midnightblue" d="M271.197,-554C292.376,-554 317.707,-554 341.115,-554"/>
<polygon fill="midnightblue" stroke="midnightblue" points="341.36,-557.5 351.36,-554 341.36,-550.5 341.36,-557.5"/>
</g>
<!-- Node36 -->
<g id="node36" class="node"><title>Node36</title>
<g id="a_node36"><a xlink:href="task_8h.html#a366b302eba79d10b5ee2a3756f0fcc43" target="_top" xlink:title="vTaskSuspendAll">
<polygon fill="white" stroke="black" points="368,-506.5 368,-525.5 462,-525.5 462,-506.5 368,-506.5"/>
<text text-anchor="middle" x="415" y="-513.5" font-family="Helvetica,sans-Serif" font-size="10.00">vTaskSuspendAll</text>
</a>
</g>
</g>
<!-- Node35&#45;&gt;Node36 -->
<g id="edge46" class="edge"><title>Node35&#45;&gt;Node36</title>
<path fill="none" stroke="midnightblue" d="M259.375,-516C287.21,-516 326.093,-516 357.903,-516"/>
<polygon fill="midnightblue" stroke="midnightblue" points="357.959,-519.5 367.959,-516 357.959,-512.5 357.959,-519.5"/>
</g>
<!-- Node50&#45;&gt;Node19 -->
<g id="edge62" class="edge"><title>Node50&#45;&gt;Node19</title>
<path fill="none" stroke="midnightblue" d="M280.206,-924.436C287.806,-921.975 295.283,-918.883 302,-915 322.14,-903.355 317.912,-888.735 338,-877 341.87,-874.739 346.003,-872.746 350.267,-870.988"/>
<polygon fill="midnightblue" stroke="midnightblue" points="351.578,-874.235 359.76,-867.505 349.166,-867.664 351.578,-874.235"/>
</g>
</g>
</svg>
