<?xml version="1.0" encoding="UTF-8" standalone="no"?>
<!DOCTYPE svg PUBLIC "-//W3C//DTD SVG 1.1//EN"
 "http://www.w3.org/Graphics/SVG/1.1/DTD/svg11.dtd">
<!-- Generated by graphviz version 2.30.1 (20130221.2233)
 -->
<!-- Title: xQueueReceiveFromISR Pages: 1 -->
<svg width="512pt" height="142pt"
 viewBox="0.00 0.00 512.00 142.00" xmlns="http://www.w3.org/2000/svg" xmlns:xlink="http://www.w3.org/1999/xlink">
<g id="graph0" class="graph" transform="scale(1 1) rotate(0) translate(4 138)">
<title>xQueueReceiveFromISR</title>
<polygon fill="white" stroke="white" points="-4,5 -4,-138 509,-138 509,5 -4,5"/>
<!-- Node1 -->
<g id="node1" class="node"><title>Node1</title>
<polygon fill="#bfbfbf" stroke="black" points="0,-95.5 0,-114.5 128,-114.5 128,-95.5 0,-95.5"/>
<text text-anchor="middle" x="64" y="-102.5" font-family="Helvetica,sans-Serif" font-size="10.00">xQueueReceiveFromISR</text>
</g>
<!-- Node2 -->
<g id="node2" class="node"><title>Node2</title>
<g id="a_node2"><a xlink:href="queue_8c.html#ad9a2e17b2b13d4878f7af1361437320e" target="_top" xlink:title="prvCopyDataFromQueue">
<polygon fill="white" stroke="black" points="173,-114.5 173,-133.5 301,-133.5 301,-114.5 173,-114.5"/>
<text text-anchor="middle" x="237" y="-121.5" font-family="Helvetica,sans-Serif" font-size="10.00">prvCopyDataFromQueue</text>
</a>
</g>
</g>
<!-- Node1&#45;&gt;Node2 -->
<g id="edge1" class="edge"><title>Node1&#45;&gt;Node2</title>
<path fill="none" stroke="midnightblue" d="M128.188,-112.021C139.447,-113.272 151.26,-114.584 162.77,-115.863"/>
<polygon fill="midnightblue" stroke="midnightblue" points="162.461,-119.35 172.786,-116.976 163.234,-112.393 162.461,-119.35"/>
</g>
<!-- Node4 -->
<g id="node4" class="node"><title>Node4</title>
<g id="a_node4"><a xlink:href="task_8h.html#a14513b7dd36055f73fba3c5ebbdc1b06" target="_top" xlink:title="xTaskRemoveFromEventList">
<polygon fill="white" stroke="black" points="164.5,-76.5 164.5,-95.5 309.5,-95.5 309.5,-76.5 164.5,-76.5"/>
<text text-anchor="middle" x="237" y="-83.5" font-family="Helvetica,sans-Serif" font-size="10.00">xTaskRemoveFromEventList</text>
</a>
</g>
</g>
<!-- Node1&#45;&gt;Node4 -->
<g id="edge3" class="edge"><title>Node1&#45;&gt;Node4</title>
<path fill="none" stroke="midnightblue" d="M128.188,-97.9791C136.668,-97.0369 145.462,-96.0598 154.204,-95.0884"/>
<polygon fill="midnightblue" stroke="midnightblue" points="154.869,-98.5362 164.421,-93.9532 154.096,-91.579 154.869,-98.5362"/>
</g>
<!-- Node3 -->
<g id="node3" class="node"><title>Node3</title>
<g id="a_node3"><a xlink:href="_paradigm_2_tern___e_e_2small_2portmacro_8h.html#a14d32f8130d3c0b212cfc751730b5b49" target="_top" xlink:title="void">
<polygon fill="white" stroke="black" points="407.5,-114.5 407.5,-133.5 442.5,-133.5 442.5,-114.5 407.5,-114.5"/>
<text text-anchor="middle" x="425" y="-121.5" font-family="Helvetica,sans-Serif" font-size="10.00">void</text>
</a>
</g>
</g>
<!-- Node2&#45;&gt;Node3 -->
<g id="edge2" class="edge"><title>Node2&#45;&gt;Node3</title>
<path fill="none" stroke="midnightblue" d="M301.231,-124C333.89,-124 372.025,-124 397.022,-124"/>
<polygon fill="midnightblue" stroke="midnightblue" points="397.195,-127.5 407.195,-124 397.195,-120.5 397.195,-127.5"/>
</g>
<!-- Node4&#45;&gt;Node3 -->
<g id="edge4" class="edge"><title>Node4&#45;&gt;Node3</title>
<path fill="none" stroke="midnightblue" d="M284.936,-95.589C320.591,-102.873 368.332,-112.627 397.588,-118.604"/>
<polygon fill="midnightblue" stroke="midnightblue" points="396.975,-122.051 407.473,-120.624 398.376,-115.193 396.975,-122.051"/>
</g>
<!-- Node5 -->
<g id="node5" class="node"><title>Node5</title>
<g id="a_node5"><a xlink:href="list_8h.html#a2eb1558482076fff8cafc63419c2d34a" target="_top" xlink:title="uxListRemove">
<polygon fill="white" stroke="black" points="385,-76.5 385,-95.5 465,-95.5 465,-76.5 385,-76.5"/>
<text text-anchor="middle" x="425" y="-83.5" font-family="Helvetica,sans-Serif" font-size="10.00">uxListRemove</text>
</a>
</g>
</g>
<!-- Node4&#45;&gt;Node5 -->
<g id="edge5" class="edge"><title>Node4&#45;&gt;Node5</title>
<path fill="none" stroke="midnightblue" d="M309.646,-86C331.433,-86 354.873,-86 374.824,-86"/>
<polygon fill="midnightblue" stroke="midnightblue" points="374.912,-89.5001 384.912,-86 374.912,-82.5001 374.912,-89.5001"/>
</g>
<!-- Node6 -->
<g id="node6" class="node"><title>Node6</title>
<g id="a_node6"><a xlink:href="list_8h.html#a71a6a6099b3cbd8f90539aabe5c9e572" target="_top" xlink:title="vListInsertEnd">
<polygon fill="white" stroke="black" points="385,-38.5 385,-57.5 465,-57.5 465,-38.5 385,-38.5"/>
<text text-anchor="middle" x="425" y="-45.5" font-family="Helvetica,sans-Serif" font-size="10.00">vListInsertEnd</text>
</a>
</g>
</g>
<!-- Node4&#45;&gt;Node6 -->
<g id="edge6" class="edge"><title>Node4&#45;&gt;Node6</title>
<path fill="none" stroke="midnightblue" d="M284.936,-76.411C312.444,-70.791 347.146,-63.7013 375.003,-58.0101"/>
<polygon fill="midnightblue" stroke="midnightblue" points="375.833,-61.4129 384.93,-55.982 374.432,-54.5545 375.833,-61.4129"/>
</g>
<!-- Node7 -->
<g id="node7" class="node"><title>Node7</title>
<g id="a_node7"><a xlink:href="tasks_8c.html#ad1b2e4995f863a99cf980836efe330d7" target="_top" xlink:title="prvResetNextTaskUnblockTime">
<polygon fill="white" stroke="black" points="346.5,-0.5 346.5,-19.5 503.5,-19.5 503.5,-0.5 346.5,-0.5"/>
<text text-anchor="middle" x="425" y="-7.5" font-family="Helvetica,sans-Serif" font-size="10.00">prvResetNextTaskUnblockTime</text>
</a>
</g>
</g>
<!-- Node4&#45;&gt;Node7 -->
<g id="edge7" class="edge"><title>Node4&#45;&gt;Node7</title>
<path fill="none" stroke="midnightblue" d="M253.175,-76.441C273.577,-63.9571 311.306,-42.1492 346,-29 352.72,-26.453 359.897,-24.1613 367.075,-22.1252"/>
<polygon fill="midnightblue" stroke="midnightblue" points="368.071,-25.4819 376.821,-19.5073 366.255,-18.7216 368.071,-25.4819"/>
</g>
</g>
</svg>
