<?xml version="1.0" encoding="UTF-8" standalone="no"?>
<!DOCTYPE svg PUBLIC "-//W3C//DTD SVG 1.1//EN"
 "http://www.w3.org/Graphics/SVG/1.1/DTD/svg11.dtd">
<!-- Generated by graphviz version 2.30.1 (20130221.2233)
 -->
<!-- Title: prvUnlockQueue Pages: 1 -->
<svg width="476pt" height="142pt"
 viewBox="0.00 0.00 476.00 142.00" xmlns="http://www.w3.org/2000/svg" xmlns:xlink="http://www.w3.org/1999/xlink">
<g id="graph0" class="graph" transform="scale(1 1) rotate(0) translate(4 138)">
<title>prvUnlockQueue</title>
<polygon fill="white" stroke="white" points="-4,5 -4,-138 473,-138 473,5 -4,5"/>
<!-- Node1 -->
<g id="node1" class="node"><title>Node1</title>
<polygon fill="#bfbfbf" stroke="black" points="0.5,-76.5 0.5,-95.5 91.5,-95.5 91.5,-76.5 0.5,-76.5"/>
<text text-anchor="middle" x="46" y="-83.5" font-family="Helvetica,sans-Serif" font-size="10.00">prvUnlockQueue</text>
</g>
<!-- Node2 -->
<g id="node2" class="node"><title>Node2</title>
<g id="a_node2"><a xlink:href="task_8h.html#a998c69e37431a3a32c637b31ff60089a" target="_top" xlink:title="vTaskMissedYield">
<polygon fill="white" stroke="black" points="152.5,-95.5 152.5,-114.5 249.5,-114.5 249.5,-95.5 152.5,-95.5"/>
<text text-anchor="middle" x="201" y="-102.5" font-family="Helvetica,sans-Serif" font-size="10.00">vTaskMissedYield</text>
</a>
</g>
</g>
<!-- Node1&#45;&gt;Node2 -->
<g id="edge1" class="edge"><title>Node1&#45;&gt;Node2</title>
<path fill="none" stroke="midnightblue" d="M91.6652,-91.5467C107.443,-93.5059 125.419,-95.7383 142.132,-97.8137"/>
<polygon fill="midnightblue" stroke="midnightblue" points="141.988,-101.323 152.344,-99.0819 142.851,-94.3761 141.988,-101.323"/>
</g>
<!-- Node3 -->
<g id="node3" class="node"><title>Node3</title>
<g id="a_node3"><a xlink:href="task_8h.html#a14513b7dd36055f73fba3c5ebbdc1b06" target="_top" xlink:title="xTaskRemoveFromEventList">
<polygon fill="white" stroke="black" points="128.5,-57.5 128.5,-76.5 273.5,-76.5 273.5,-57.5 128.5,-57.5"/>
<text text-anchor="middle" x="201" y="-64.5" font-family="Helvetica,sans-Serif" font-size="10.00">xTaskRemoveFromEventList</text>
</a>
</g>
</g>
<!-- Node1&#45;&gt;Node3 -->
<g id="edge2" class="edge"><title>Node1&#45;&gt;Node3</title>
<path fill="none" stroke="midnightblue" d="M91.6652,-80.4533C100.086,-79.4076 109.133,-78.2842 118.28,-77.1483"/>
<polygon fill="midnightblue" stroke="midnightblue" points="118.727,-80.6197 128.22,-75.9139 117.865,-73.673 118.727,-80.6197"/>
</g>
<!-- Node4 -->
<g id="node4" class="node"><title>Node4</title>
<g id="a_node4"><a xlink:href="tasks_8c.html#ad1b2e4995f863a99cf980836efe330d7" target="_top" xlink:title="prvResetNextTaskUnblockTime">
<polygon fill="white" stroke="black" points="310.5,-114.5 310.5,-133.5 467.5,-133.5 467.5,-114.5 310.5,-114.5"/>
<text text-anchor="middle" x="389" y="-121.5" font-family="Helvetica,sans-Serif" font-size="10.00">prvResetNextTaskUnblockTime</text>
</a>
</g>
</g>
<!-- Node3&#45;&gt;Node4 -->
<g id="edge3" class="edge"><title>Node3&#45;&gt;Node4</title>
<path fill="none" stroke="midnightblue" d="M244.774,-76.5728C254.517,-79.2236 264.726,-82.3835 274,-86 290.855,-92.5728 293.083,-98.5882 310,-105 316.72,-107.547 323.897,-109.839 331.075,-111.875"/>
<polygon fill="midnightblue" stroke="midnightblue" points="330.255,-115.278 340.821,-114.493 332.071,-108.518 330.255,-115.278"/>
</g>
<!-- Node5 -->
<g id="node5" class="node"><title>Node5</title>
<g id="a_node5"><a xlink:href="list_8h.html#a2eb1558482076fff8cafc63419c2d34a" target="_top" xlink:title="uxListRemove">
<polygon fill="white" stroke="black" points="349,-76.5 349,-95.5 429,-95.5 429,-76.5 349,-76.5"/>
<text text-anchor="middle" x="389" y="-83.5" font-family="Helvetica,sans-Serif" font-size="10.00">uxListRemove</text>
</a>
</g>
</g>
<!-- Node3&#45;&gt;Node5 -->
<g id="edge4" class="edge"><title>Node3&#45;&gt;Node5</title>
<path fill="none" stroke="midnightblue" d="M273.646,-74.3187C295.433,-76.5442 318.873,-78.9386 338.824,-80.9766"/>
<polygon fill="midnightblue" stroke="midnightblue" points="338.608,-84.4727 348.912,-82.0071 339.319,-77.5089 338.608,-84.4727"/>
</g>
<!-- Node6 -->
<g id="node6" class="node"><title>Node6</title>
<g id="a_node6"><a xlink:href="list_8h.html#a71a6a6099b3cbd8f90539aabe5c9e572" target="_top" xlink:title="vListInsertEnd">
<polygon fill="white" stroke="black" points="349,-38.5 349,-57.5 429,-57.5 429,-38.5 349,-38.5"/>
<text text-anchor="middle" x="389" y="-45.5" font-family="Helvetica,sans-Serif" font-size="10.00">vListInsertEnd</text>
</a>
</g>
</g>
<!-- Node3&#45;&gt;Node6 -->
<g id="edge5" class="edge"><title>Node3&#45;&gt;Node6</title>
<path fill="none" stroke="midnightblue" d="M273.646,-59.6813C295.433,-57.4558 318.873,-55.0614 338.824,-53.0234"/>
<polygon fill="midnightblue" stroke="midnightblue" points="339.319,-56.4911 348.912,-51.9929 338.608,-49.5273 339.319,-56.4911"/>
</g>
<!-- Node7 -->
<g id="node7" class="node"><title>Node7</title>
<g id="a_node7"><a xlink:href="_paradigm_2_tern___e_e_2small_2portmacro_8h.html#a14d32f8130d3c0b212cfc751730b5b49" target="_top" xlink:title="void">
<polygon fill="white" stroke="black" points="371.5,-0.5 371.5,-19.5 406.5,-19.5 406.5,-0.5 371.5,-0.5"/>
<text text-anchor="middle" x="389" y="-7.5" font-family="Helvetica,sans-Serif" font-size="10.00">void</text>
</a>
</g>
</g>
<!-- Node3&#45;&gt;Node7 -->
<g id="edge6" class="edge"><title>Node3&#45;&gt;Node7</title>
<path fill="none" stroke="midnightblue" d="M227.081,-57.3776C248.823,-49.2288 281.228,-37.5431 310,-29 327.044,-23.9393 346.469,-19.2045 361.67,-15.7272"/>
<polygon fill="midnightblue" stroke="midnightblue" points="362.449,-19.1396 371.439,-13.5323 360.914,-12.3099 362.449,-19.1396"/>
</g>
</g>
</svg>
