<?xml version="1.0" encoding="UTF-8" standalone="no"?>
<!DOCTYPE svg PUBLIC "-//W3C//DTD SVG 1.1//EN"
 "http://www.w3.org/Graphics/SVG/1.1/DTD/svg11.dtd">
<!-- Generated by graphviz version 2.30.1 (20130221.2233)
 -->
<!-- Title: xQueueGenericReceive Pages: 1 -->
<svg width="794pt" height="457pt"
 viewBox="0.00 0.00 794.00 456.95" xmlns="http://www.w3.org/2000/svg" xmlns:xlink="http://www.w3.org/1999/xlink">
<g id="graph0" class="graph" transform="scale(1 1) rotate(0) translate(4 452.954)">
<title>xQueueGenericReceive</title>
<polygon fill="white" stroke="white" points="-4,5 -4,-452.954 791,-452.954 791,5 -4,5"/>
<!-- Node1 -->
<g id="node1" class="node"><title>Node1</title>
<polygon fill="#bfbfbf" stroke="black" points="0.5,-198.48 0.5,-217.48 123.5,-217.48 123.5,-198.48 0.5,-198.48"/>
<text text-anchor="middle" x="62" y="-205.48" font-family="Helvetica,sans-Serif" font-size="10.00">xQueueGenericReceive</text>
</g>
<!-- Node2 -->
<g id="node2" class="node"><title>Node2</title>
<g id="a_node2"><a xlink:href="queue_8c.html#ad9a2e17b2b13d4878f7af1361437320e" target="_top" xlink:title="prvCopyDataFromQueue">
<polygon fill="white" stroke="black" points="347,-17.4797 347,-36.4797 475,-36.4797 475,-17.4797 347,-17.4797"/>
<text text-anchor="middle" x="411" y="-24.4797" font-family="Helvetica,sans-Serif" font-size="10.00">prvCopyDataFromQueue</text>
</a>
</g>
</g>
<!-- Node1&#45;&gt;Node2 -->
<g id="edge1" class="edge"><title>Node1&#45;&gt;Node2</title>
<path fill="none" stroke="midnightblue" d="M65.0365,-198.33C71.9952,-168.07 97.9229,-74.8171 160,-36.9797 220.979,0.188068 306.742,-6.25851 360.308,-15.6298"/>
<polygon fill="midnightblue" stroke="midnightblue" points="359.778,-19.0911 370.248,-17.4672 361.051,-12.2077 359.778,-19.0911"/>
</g>
<!-- Node4 -->
<g id="node4" class="node"><title>Node4</title>
<g id="a_node4"><a xlink:href="queue_8c.html#a8f21d4b7a21be0d109953120c93f6741" target="_top" xlink:title="prvIsQueueEmpty">
<polygon fill="white" stroke="black" points="182.5,-400.48 182.5,-419.48 279.5,-419.48 279.5,-400.48 182.5,-400.48"/>
<text text-anchor="middle" x="231" y="-407.48" font-family="Helvetica,sans-Serif" font-size="10.00">prvIsQueueEmpty</text>
</a>
</g>
</g>
<!-- Node1&#45;&gt;Node4 -->
<g id="edge3" class="edge"><title>Node1&#45;&gt;Node4</title>
<path fill="none" stroke="midnightblue" d="M65.2265,-217.687C72.7493,-248.231 100.168,-343.165 160,-390.98 163.855,-394.06 168.17,-396.643 172.714,-398.808"/>
<polygon fill="midnightblue" stroke="midnightblue" points="171.706,-402.176 182.288,-402.691 174.337,-395.689 171.706,-402.176"/>
</g>
<!-- Node5 -->
<g id="node5" class="node"><title>Node5</title>
<g id="a_node5"><a xlink:href="queue_8c.html#a7297c84a7c770ed57567bad1d3e2faf6" target="_top" xlink:title="prvUnlockQueue">
<polygon fill="white" stroke="black" points="185.5,-362.48 185.5,-381.48 276.5,-381.48 276.5,-362.48 185.5,-362.48"/>
<text text-anchor="middle" x="231" y="-369.48" font-family="Helvetica,sans-Serif" font-size="10.00">prvUnlockQueue</text>
</a>
</g>
</g>
<!-- Node1&#45;&gt;Node5 -->
<g id="edge4" class="edge"><title>Node1&#45;&gt;Node5</title>
<path fill="none" stroke="midnightblue" d="M66.752,-217.757C77.2526,-243.793 109.515,-315.313 160,-351.98 164.782,-355.453 170.154,-358.325 175.739,-360.699"/>
<polygon fill="midnightblue" stroke="midnightblue" points="174.681,-364.04 185.274,-364.243 177.12,-357.478 174.681,-364.04"/>
</g>
<!-- Node11 -->
<g id="node11" class="node"><title>Node11</title>
<g id="a_node11"><a xlink:href="task_8h.html#aa1a0ae86baba1a7edda940a6ecd4cfb4" target="_top" xlink:title="pvTaskIncrementMutexHeld\lCount">
<polygon fill="white" stroke="black" points="160.5,-312.98 160.5,-342.98 301.5,-342.98 301.5,-312.98 160.5,-312.98"/>
<text text-anchor="start" x="168.5" y="-330.98" font-family="Helvetica,sans-Serif" font-size="10.00">pvTaskIncrementMutexHeld</text>
<text text-anchor="middle" x="231" y="-319.98" font-family="Helvetica,sans-Serif" font-size="10.00">Count</text>
</a>
</g>
</g>
<!-- Node1&#45;&gt;Node11 -->
<g id="edge11" class="edge"><title>Node1&#45;&gt;Node11</title>
<path fill="none" stroke="midnightblue" d="M71.2225,-217.535C86.9475,-235.335 123.02,-273.94 160,-297.98 166.021,-301.894 172.638,-305.497 179.326,-308.746"/>
<polygon fill="midnightblue" stroke="midnightblue" points="177.897,-311.941 188.443,-312.952 180.829,-305.585 177.897,-311.941"/>
</g>
<!-- Node3 -->
<g id="node3" class="node"><title>Node3</title>
<g id="a_node3"><a xlink:href="_paradigm_2_tern___e_e_2small_2portmacro_8h.html#a14d32f8130d3c0b212cfc751730b5b49" target="_top" xlink:title="void">
<polygon fill="white" stroke="black" points="586.5,-74.4797 586.5,-93.4797 621.5,-93.4797 621.5,-74.4797 586.5,-74.4797"/>
<text text-anchor="middle" x="604" y="-81.4797" font-family="Helvetica,sans-Serif" font-size="10.00">void</text>
</a>
</g>
</g>
<!-- Node1&#45;&gt;Node3 -->
<g id="edge12" class="edge"><title>Node1&#45;&gt;Node3</title>
<path fill="none" stroke="midnightblue" d="M64.0756,-198.429C68.4575,-164.613 88.3005,-50.1837 160,-4.97972 174.465,4.14019 461.91,-1.32938 484,-7.97972 523.579,-19.8952 562.646,-49.0855 584.705,-67.6249"/>
<polygon fill="midnightblue" stroke="midnightblue" points="582.689,-70.508 592.552,-74.3794 587.256,-65.2029 582.689,-70.508"/>
</g>
<!-- Node12 -->
<g id="node12" class="node"><title>Node12</title>
<g id="a_node12"><a xlink:href="task_8h.html#a56ae23bc0dece4522d666959902221ca" target="_top" xlink:title="vTaskPlaceOnEventList">
<polygon fill="white" stroke="black" points="349.5,-378.48 349.5,-397.48 472.5,-397.48 472.5,-378.48 349.5,-378.48"/>
<text text-anchor="middle" x="411" y="-385.48" font-family="Helvetica,sans-Serif" font-size="10.00">vTaskPlaceOnEventList</text>
</a>
</g>
</g>
<!-- Node1&#45;&gt;Node12 -->
<g id="edge13" class="edge"><title>Node1&#45;&gt;Node12</title>
<path fill="none" stroke="midnightblue" d="M63.7221,-217.841C66.9557,-253.89 83.5238,-379.028 160,-428.98 231.139,-475.446 337.282,-428.431 385.084,-402.564"/>
<polygon fill="midnightblue" stroke="midnightblue" points="387.059,-405.471 394.103,-397.556 383.661,-399.351 387.059,-405.471"/>
</g>
<!-- Node15 -->
<g id="node15" class="node"><title>Node15</title>
<g id="a_node15"><a xlink:href="task_8h.html#a4d9ad38aaf26a0ccac6bb307f90ead39" target="_top" xlink:title="vTaskPriorityInherit">
<polygon fill="white" stroke="black" points="180,-198.48 180,-217.48 282,-217.48 282,-198.48 180,-198.48"/>
<text text-anchor="middle" x="231" y="-205.48" font-family="Helvetica,sans-Serif" font-size="10.00">vTaskPriorityInherit</text>
</a>
</g>
</g>
<!-- Node1&#45;&gt;Node15 -->
<g id="edge19" class="edge"><title>Node1&#45;&gt;Node15</title>
<path fill="none" stroke="midnightblue" d="M123.763,-207.98C138.767,-207.98 154.83,-207.98 169.806,-207.98"/>
<polygon fill="midnightblue" stroke="midnightblue" points="169.974,-211.48 179.974,-207.98 169.974,-204.48 169.974,-211.48"/>
</g>
<!-- Node16 -->
<g id="node16" class="node"><title>Node16</title>
<g id="a_node16"><a xlink:href="task_8h.html#a67155ad4ea2482b5f4597a69f2152be0" target="_top" xlink:title="vTaskSetTimeOutState">
<polygon fill="white" stroke="black" points="171,-160.48 171,-179.48 291,-179.48 291,-160.48 171,-160.48"/>
<text text-anchor="middle" x="231" y="-167.48" font-family="Helvetica,sans-Serif" font-size="10.00">vTaskSetTimeOutState</text>
</a>
</g>
</g>
<!-- Node1&#45;&gt;Node16 -->
<g id="edge20" class="edge"><title>Node1&#45;&gt;Node16</title>
<path fill="none" stroke="midnightblue" d="M105.141,-198.391C127.377,-193.331 154.848,-187.08 178.356,-181.731"/>
<polygon fill="midnightblue" stroke="midnightblue" points="179.188,-185.131 188.162,-179.5 177.635,-178.306 179.188,-185.131"/>
</g>
<!-- Node17 -->
<g id="node17" class="node"><title>Node17</title>
<g id="a_node17"><a xlink:href="task_8h.html#a366b302eba79d10b5ee2a3756f0fcc43" target="_top" xlink:title="vTaskSuspendAll">
<polygon fill="white" stroke="black" points="184,-122.48 184,-141.48 278,-141.48 278,-122.48 184,-122.48"/>
<text text-anchor="middle" x="231" y="-129.48" font-family="Helvetica,sans-Serif" font-size="10.00">vTaskSuspendAll</text>
</a>
</g>
</g>
<!-- Node1&#45;&gt;Node17 -->
<g id="edge21" class="edge"><title>Node1&#45;&gt;Node17</title>
<path fill="none" stroke="midnightblue" d="M76.5245,-198.452C94.7331,-186.003 128.492,-164.233 160,-150.98 165.713,-148.577 171.817,-146.395 177.95,-144.439"/>
<polygon fill="midnightblue" stroke="midnightblue" points="178.99,-147.781 187.56,-141.551 176.975,-141.078 178.99,-147.781"/>
</g>
<!-- Node18 -->
<g id="node18" class="node"><title>Node18</title>
<g id="a_node18"><a xlink:href="task_8h.html#a3b018a85d339e536a6c05748dd666a3a" target="_top" xlink:title="xTaskCheckForTimeOut">
<polygon fill="white" stroke="black" points="168.5,-236.48 168.5,-255.48 293.5,-255.48 293.5,-236.48 168.5,-236.48"/>
<text text-anchor="middle" x="231" y="-243.48" font-family="Helvetica,sans-Serif" font-size="10.00">xTaskCheckForTimeOut</text>
</a>
</g>
</g>
<!-- Node1&#45;&gt;Node18 -->
<g id="edge22" class="edge"><title>Node1&#45;&gt;Node18</title>
<path fill="none" stroke="midnightblue" d="M105.141,-217.569C127.377,-222.628 154.848,-228.879 178.356,-234.228"/>
<polygon fill="midnightblue" stroke="midnightblue" points="177.635,-237.654 188.162,-236.46 179.188,-230.828 177.635,-237.654"/>
</g>
<!-- Node20 -->
<g id="node20" class="node"><title>Node20</title>
<g id="a_node20"><a xlink:href="task_8h.html#a0241000e08a261372186d34825a35979" target="_top" xlink:title="xTaskGetSchedulerState">
<polygon fill="white" stroke="black" points="167,-46.4797 167,-65.4797 295,-65.4797 295,-46.4797 167,-46.4797"/>
<text text-anchor="middle" x="231" y="-53.4797" font-family="Helvetica,sans-Serif" font-size="10.00">xTaskGetSchedulerState</text>
</a>
</g>
</g>
<!-- Node1&#45;&gt;Node20 -->
<g id="edge24" class="edge"><title>Node1&#45;&gt;Node20</title>
<path fill="none" stroke="midnightblue" d="M67.2694,-198.202C78.5704,-173.501 111.741,-108.198 160,-74.9797 162.888,-72.9917 165.976,-71.2114 169.186,-69.6171"/>
<polygon fill="midnightblue" stroke="midnightblue" points="170.699,-72.7763 178.492,-65.5986 167.924,-66.3498 170.699,-72.7763"/>
</g>
<!-- Node7 -->
<g id="node7" class="node"><title>Node7</title>
<g id="a_node7"><a xlink:href="task_8h.html#a14513b7dd36055f73fba3c5ebbdc1b06" target="_top" xlink:title="xTaskRemoveFromEventList">
<polygon fill="white" stroke="black" points="338.5,-274.48 338.5,-293.48 483.5,-293.48 483.5,-274.48 338.5,-274.48"/>
<text text-anchor="middle" x="411" y="-281.48" font-family="Helvetica,sans-Serif" font-size="10.00">xTaskRemoveFromEventList</text>
</a>
</g>
</g>
<!-- Node1&#45;&gt;Node7 -->
<g id="edge25" class="edge"><title>Node1&#45;&gt;Node7</title>
<path fill="none" stroke="midnightblue" d="M74.9921,-217.511C92.5051,-230.825 126.635,-254.528 160,-264.98 214.405,-282.022 278.58,-286.599 328.287,-287.005"/>
<polygon fill="midnightblue" stroke="midnightblue" points="328.337,-290.505 338.347,-287.032 328.356,-283.505 328.337,-290.505"/>
</g>
<!-- Node21 -->
<g id="node21" class="node"><title>Node21</title>
<g id="a_node21"><a xlink:href="task_8h.html#a003f8ae6d649225abd030cc76e1c7d0e" target="_top" xlink:title="xTaskResumeAll">
<polygon fill="white" stroke="black" points="185,-84.4797 185,-103.48 277,-103.48 277,-84.4797 185,-84.4797"/>
<text text-anchor="middle" x="231" y="-91.4797" font-family="Helvetica,sans-Serif" font-size="10.00">xTaskResumeAll</text>
</a>
</g>
</g>
<!-- Node1&#45;&gt;Node21 -->
<g id="edge26" class="edge"><title>Node1&#45;&gt;Node21</title>
<path fill="none" stroke="midnightblue" d="M70.1034,-198.259C84.7097,-178.985 120.111,-135.819 160,-112.98 164.781,-110.242 169.972,-107.886 175.294,-105.859"/>
<polygon fill="midnightblue" stroke="midnightblue" points="176.623,-109.104 184.954,-102.558 174.359,-102.48 176.623,-109.104"/>
</g>
<!-- Node2&#45;&gt;Node3 -->
<g id="edge2" class="edge"><title>Node2&#45;&gt;Node3</title>
<path fill="none" stroke="midnightblue" d="M443.969,-36.5202C481.118,-47.6066 541.74,-65.6981 576.419,-76.0473"/>
<polygon fill="midnightblue" stroke="midnightblue" points="575.711,-79.4884 586.294,-78.9943 577.713,-72.7807 575.711,-79.4884"/>
</g>
<!-- Node6 -->
<g id="node6" class="node"><title>Node6</title>
<g id="a_node6"><a xlink:href="task_8h.html#a998c69e37431a3a32c637b31ff60089a" target="_top" xlink:title="vTaskMissedYield">
<polygon fill="white" stroke="black" points="362.5,-340.48 362.5,-359.48 459.5,-359.48 459.5,-340.48 362.5,-340.48"/>
<text text-anchor="middle" x="411" y="-347.48" font-family="Helvetica,sans-Serif" font-size="10.00">vTaskMissedYield</text>
</a>
</g>
</g>
<!-- Node5&#45;&gt;Node6 -->
<g id="edge5" class="edge"><title>Node5&#45;&gt;Node6</title>
<path fill="none" stroke="midnightblue" d="M276.917,-366.428C299.716,-363.61 327.68,-360.154 352.079,-357.139"/>
<polygon fill="midnightblue" stroke="midnightblue" points="352.797,-360.576 362.292,-355.876 351.938,-353.629 352.797,-360.576"/>
</g>
<!-- Node5&#45;&gt;Node7 -->
<g id="edge6" class="edge"><title>Node5&#45;&gt;Node7</title>
<path fill="none" stroke="midnightblue" d="M272.674,-362.466C282.47,-359.603 292.768,-356.104 302,-351.98 310.808,-348.045 357.613,-317.995 386.641,-299.181"/>
<polygon fill="midnightblue" stroke="midnightblue" points="388.888,-301.895 395.371,-293.515 385.077,-296.024 388.888,-301.895"/>
</g>
<!-- Node8 -->
<g id="node8" class="node"><title>Node8</title>
<g id="a_node8"><a xlink:href="tasks_8c.html#ad1b2e4995f863a99cf980836efe330d7" target="_top" xlink:title="prvResetNextTaskUnblockTime">
<polygon fill="white" stroke="black" points="525.5,-274.48 525.5,-293.48 682.5,-293.48 682.5,-274.48 525.5,-274.48"/>
<text text-anchor="middle" x="604" y="-281.48" font-family="Helvetica,sans-Serif" font-size="10.00">prvResetNextTaskUnblockTime</text>
</a>
</g>
</g>
<!-- Node7&#45;&gt;Node8 -->
<g id="edge7" class="edge"><title>Node7&#45;&gt;Node8</title>
<path fill="none" stroke="midnightblue" d="M483.665,-283.98C494.013,-283.98 504.76,-283.98 515.376,-283.98"/>
<polygon fill="midnightblue" stroke="midnightblue" points="515.497,-287.48 525.497,-283.98 515.497,-280.48 515.497,-287.48"/>
</g>
<!-- Node9 -->
<g id="node9" class="node"><title>Node9</title>
<g id="a_node9"><a xlink:href="list_8h.html#a2eb1558482076fff8cafc63419c2d34a" target="_top" xlink:title="uxListRemove">
<polygon fill="white" stroke="black" points="564,-212.48 564,-231.48 644,-231.48 644,-212.48 564,-212.48"/>
<text text-anchor="middle" x="604" y="-219.48" font-family="Helvetica,sans-Serif" font-size="10.00">uxListRemove</text>
</a>
</g>
</g>
<!-- Node7&#45;&gt;Node9 -->
<g id="edge8" class="edge"><title>Node7&#45;&gt;Node9</title>
<path fill="none" stroke="midnightblue" d="M450.668,-274.45C461.508,-271.596 473.263,-268.329 484,-264.98 512.992,-255.936 545.376,-244.12 569.033,-235.163"/>
<polygon fill="midnightblue" stroke="midnightblue" points="570.504,-238.348 578.602,-231.516 568.011,-231.807 570.504,-238.348"/>
</g>
<!-- Node10 -->
<g id="node10" class="node"><title>Node10</title>
<g id="a_node10"><a xlink:href="list_8h.html#a71a6a6099b3cbd8f90539aabe5c9e572" target="_top" xlink:title="vListInsertEnd">
<polygon fill="white" stroke="black" points="564,-318.48 564,-337.48 644,-337.48 644,-318.48 564,-318.48"/>
<text text-anchor="middle" x="604" y="-325.48" font-family="Helvetica,sans-Serif" font-size="10.00">vListInsertEnd</text>
</a>
</g>
</g>
<!-- Node7&#45;&gt;Node10 -->
<g id="edge9" class="edge"><title>Node7&#45;&gt;Node10</title>
<path fill="none" stroke="midnightblue" d="M453.444,-293.527C483.046,-300.346 522.979,-309.545 554.135,-316.723"/>
<polygon fill="midnightblue" stroke="midnightblue" points="553.388,-320.142 563.918,-318.977 554.959,-313.321 553.388,-320.142"/>
</g>
<!-- Node7&#45;&gt;Node3 -->
<g id="edge10" class="edge"><title>Node7&#45;&gt;Node3</title>
<path fill="none" stroke="midnightblue" d="M467.215,-274.335C473.215,-271.887 478.962,-268.82 484,-264.98 509.34,-245.661 502.871,-229.848 520,-202.98 543.429,-166.229 573.105,-124.793 589.879,-101.796"/>
<polygon fill="midnightblue" stroke="midnightblue" points="592.748,-103.802 595.833,-93.6658 587.101,-99.666 592.748,-103.802"/>
</g>
<!-- Node13 -->
<g id="node13" class="node"><title>Node13</title>
<g id="a_node13"><a xlink:href="tasks_8c.html#a7859bfaa75a7c5524dd45b89036f1233" target="_top" xlink:title="prvAddCurrentTaskToDelayedList">
<polygon fill="white" stroke="black" points="520.5,-397.48 520.5,-416.48 687.5,-416.48 687.5,-397.48 520.5,-397.48"/>
<text text-anchor="middle" x="604" y="-404.48" font-family="Helvetica,sans-Serif" font-size="10.00">prvAddCurrentTaskToDelayedList</text>
</a>
</g>
</g>
<!-- Node12&#45;&gt;Node13 -->
<g id="edge14" class="edge"><title>Node12&#45;&gt;Node13</title>
<path fill="none" stroke="midnightblue" d="M472.696,-394.018C484.677,-395.209 497.504,-396.485 510.265,-397.755"/>
<polygon fill="midnightblue" stroke="midnightblue" points="510.171,-401.263 520.468,-398.77 510.864,-394.297 510.171,-401.263"/>
</g>
<!-- Node12&#45;&gt;Node9 -->
<g id="edge16" class="edge"><title>Node12&#45;&gt;Node9</title>
<path fill="none" stroke="midnightblue" d="M469.77,-378.429C474.965,-375.948 479.829,-372.848 484,-368.98 519.863,-335.718 488.005,-301.977 520,-264.98 531.34,-251.866 547.67,-242.209 562.849,-235.408"/>
<polygon fill="midnightblue" stroke="midnightblue" points="564.224,-238.626 572.097,-231.536 561.521,-232.169 564.224,-238.626"/>
</g>
<!-- Node14 -->
<g id="node14" class="node"><title>Node14</title>
<g id="a_node14"><a xlink:href="list_8h.html#aa129290da5cbda47dffb7bf877b2f02a" target="_top" xlink:title="vListInsert">
<polygon fill="white" stroke="black" points="724,-378.48 724,-397.48 786,-397.48 786,-378.48 724,-378.48"/>
<text text-anchor="middle" x="755" y="-385.48" font-family="Helvetica,sans-Serif" font-size="10.00">vListInsert</text>
</a>
</g>
</g>
<!-- Node12&#45;&gt;Node14 -->
<g id="edge17" class="edge"><title>Node12&#45;&gt;Node14</title>
<path fill="none" stroke="midnightblue" d="M472.749,-387.98C542.282,-387.98 654.213,-387.98 713.74,-387.98"/>
<polygon fill="midnightblue" stroke="midnightblue" points="713.875,-391.48 723.875,-387.98 713.875,-384.48 713.875,-391.48"/>
</g>
<!-- Node12&#45;&gt;Node10 -->
<g id="edge18" class="edge"><title>Node12&#45;&gt;Node10</title>
<path fill="none" stroke="midnightblue" d="M451.471,-378.422C462.102,-375.615 473.55,-372.378 484,-368.98 500.326,-363.67 503.831,-360.748 520,-354.98 533.781,-350.063 548.975,-345.014 562.555,-340.632"/>
<polygon fill="midnightblue" stroke="midnightblue" points="563.659,-343.953 572.115,-337.57 561.524,-337.287 563.659,-343.953"/>
</g>
<!-- Node13&#45;&gt;Node14 -->
<g id="edge15" class="edge"><title>Node13&#45;&gt;Node14</title>
<path fill="none" stroke="midnightblue" d="M679.937,-397.424C691.568,-395.941 703.185,-394.46 713.654,-393.125"/>
<polygon fill="midnightblue" stroke="midnightblue" points="714.221,-396.581 723.698,-391.844 713.335,-389.637 714.221,-396.581"/>
</g>
<!-- Node19 -->
<g id="node19" class="node"><title>Node19</title>
<g id="a_node19"><a xlink:href="tasks_8c.html#a5dfb2b9e41fb002318d9c55452a91c83" target="_top" xlink:title="vTaskSetTimeOutState">
<polygon fill="white" stroke="black" points="351,-236.48 351,-255.48 471,-255.48 471,-236.48 351,-236.48"/>
<text text-anchor="middle" x="411" y="-243.48" font-family="Helvetica,sans-Serif" font-size="10.00">vTaskSetTimeOutState</text>
</a>
</g>
</g>
<!-- Node18&#45;&gt;Node19 -->
<g id="edge23" class="edge"><title>Node18&#45;&gt;Node19</title>
<path fill="none" stroke="midnightblue" d="M293.756,-245.98C308.912,-245.98 325.234,-245.98 340.718,-245.98"/>
<polygon fill="midnightblue" stroke="midnightblue" points="340.752,-249.48 350.752,-245.98 340.752,-242.48 340.752,-249.48"/>
</g>
<!-- Node21&#45;&gt;Node9 -->
<g id="edge27" class="edge"><title>Node21&#45;&gt;Node9</title>
<path fill="none" stroke="midnightblue" d="M277.041,-103.37C285.558,-105.929 294.226,-109.099 302,-112.98 320.135,-122.034 320.01,-131.64 338,-140.98 408.744,-177.706 498.92,-200.823 553.741,-212.562"/>
<polygon fill="midnightblue" stroke="midnightblue" points="553.048,-215.993 563.553,-214.622 554.486,-209.142 553.048,-215.993"/>
</g>
<!-- Node21&#45;&gt;Node3 -->
<g id="edge28" class="edge"><title>Node21&#45;&gt;Node3</title>
<path fill="none" stroke="midnightblue" d="M277.121,-92.7635C355.091,-90.6619 512.744,-86.4125 575.918,-84.7097"/>
<polygon fill="midnightblue" stroke="midnightblue" points="576.336,-88.1998 586.238,-84.4315 576.147,-81.2023 576.336,-88.1998"/>
</g>
<!-- Node22 -->
<g id="node22" class="node"><title>Node22</title>
<g id="a_node22"><a xlink:href="tasks_8c.html#a54f31e9aef0eb7b87e48c7d68ecc84c1" target="_top" xlink:title="xTaskIncrementTick">
<polygon fill="white" stroke="black" points="358,-112.48 358,-131.48 464,-131.48 464,-112.48 358,-112.48"/>
<text text-anchor="middle" x="411" y="-119.48" font-family="Helvetica,sans-Serif" font-size="10.00">xTaskIncrementTick</text>
</a>
</g>
</g>
<!-- Node21&#45;&gt;Node22 -->
<g id="edge29" class="edge"><title>Node21&#45;&gt;Node22</title>
<path fill="none" stroke="midnightblue" d="M277.377,-101.118C298.732,-104.477 324.538,-108.536 347.688,-112.178"/>
<polygon fill="midnightblue" stroke="midnightblue" points="347.346,-115.667 357.769,-113.764 348.434,-108.752 347.346,-115.667"/>
</g>
<!-- Node22&#45;&gt;Node3 -->
<g id="edge30" class="edge"><title>Node22&#45;&gt;Node3</title>
<path fill="none" stroke="midnightblue" d="M460.197,-112.391C497.008,-105.067 546.363,-95.2477 576.361,-89.2797"/>
<polygon fill="midnightblue" stroke="midnightblue" points="577.353,-92.651 586.478,-87.2669 575.987,-85.7855 577.353,-92.651"/>
</g>
<!-- Node22&#45;&gt;Node9 -->
<g id="edge31" class="edge"><title>Node22&#45;&gt;Node9</title>
<path fill="none" stroke="midnightblue" d="M430.314,-131.568C463.97,-149.189 535.826,-186.81 575.415,-207.537"/>
<polygon fill="midnightblue" stroke="midnightblue" points="574.259,-210.883 584.742,-212.42 577.506,-204.681 574.259,-210.883"/>
</g>
</g>
</svg>
