<?xml version="1.0" encoding="UTF-8" standalone="no"?>
<!DOCTYPE svg PUBLIC "-//W3C//DTD SVG 1.1//EN"
 "http://www.w3.org/Graphics/SVG/1.1/DTD/svg11.dtd">
<!-- Generated by graphviz version 2.30.1 (20130221.2233)
 -->
<!-- Title: source/queue.c Pages: 1 -->
<svg width="519pt" height="196pt"
 viewBox="0.00 0.00 519.00 196.00" xmlns="http://www.w3.org/2000/svg" xmlns:xlink="http://www.w3.org/1999/xlink">
<g id="graph0" class="graph" transform="scale(1 1) rotate(0) translate(4 192)">
<title>source/queue.c</title>
<polygon fill="white" stroke="white" points="-4,5 -4,-192 516,-192 516,5 -4,5"/>
<!-- Node1 -->
<g id="node1" class="node"><title>Node1</title>
<polygon fill="#bfbfbf" stroke="black" points="196.5,-168.5 196.5,-187.5 281.5,-187.5 281.5,-168.5 196.5,-168.5"/>
<text text-anchor="middle" x="239" y="-175.5" font-family="Helvetica,sans-Serif" font-size="10.00">source/queue.c</text>
</g>
<!-- Node2 -->
<g id="node2" class="node"><title>Node2</title>
<polygon fill="white" stroke="#bfbfbf" points="69,-112.5 69,-131.5 117,-131.5 117,-112.5 69,-112.5"/>
<text text-anchor="middle" x="93" y="-119.5" font-family="Helvetica,sans-Serif" font-size="10.00">stdlib.h</text>
</g>
<!-- Node1&#45;&gt;Node2 -->
<g id="edge1" class="edge"><title>Node1&#45;&gt;Node2</title>
<path fill="none" stroke="midnightblue" d="M215.866,-168.444C191.518,-159.438 152.993,-145.189 125.577,-135.049"/>
<polygon fill="midnightblue" stroke="midnightblue" points="126.619,-131.703 116.026,-131.516 124.191,-138.268 126.619,-131.703"/>
</g>
<!-- Node3 -->
<g id="node3" class="node"><title>Node3</title>
<polygon fill="white" stroke="#bfbfbf" points="135.5,-112.5 135.5,-131.5 184.5,-131.5 184.5,-112.5 135.5,-112.5"/>
<text text-anchor="middle" x="160" y="-119.5" font-family="Helvetica,sans-Serif" font-size="10.00">string.h</text>
</g>
<!-- Node1&#45;&gt;Node3 -->
<g id="edge2" class="edge"><title>Node1&#45;&gt;Node3</title>
<path fill="none" stroke="midnightblue" d="M226.307,-168.324C214.099,-159.979 195.422,-147.212 180.997,-137.352"/>
<polygon fill="midnightblue" stroke="midnightblue" points="182.892,-134.408 172.661,-131.655 178.942,-140.187 182.892,-134.408"/>
</g>
<!-- Node4 -->
<g id="node4" class="node"><title>Node4</title>
<g id="a_node4"><a xlink:href="_free_r_t_o_s_8h.html" target="_top" xlink:title="FreeRTOS.h">
<polygon fill="white" stroke="black" points="202.5,-112.5 202.5,-131.5 275.5,-131.5 275.5,-112.5 202.5,-112.5"/>
<text text-anchor="middle" x="239" y="-119.5" font-family="Helvetica,sans-Serif" font-size="10.00">FreeRTOS.h</text>
</a>
</g>
</g>
<!-- Node1&#45;&gt;Node4 -->
<g id="edge3" class="edge"><title>Node1&#45;&gt;Node4</title>
<path fill="none" stroke="midnightblue" d="M239,-168.083C239,-161.006 239,-150.861 239,-141.986"/>
<polygon fill="midnightblue" stroke="midnightblue" points="242.5,-141.751 239,-131.751 235.5,-141.751 242.5,-141.751"/>
</g>
<!-- Node13 -->
<g id="node13" class="node"><title>Node13</title>
<g id="a_node13"><a xlink:href="task_8h.html" target="_top" xlink:title="task.h">
<polygon fill="white" stroke="black" points="293.5,-112.5 293.5,-131.5 336.5,-131.5 336.5,-112.5 293.5,-112.5"/>
<text text-anchor="middle" x="315" y="-119.5" font-family="Helvetica,sans-Serif" font-size="10.00">task.h</text>
</a>
</g>
</g>
<!-- Node1&#45;&gt;Node13 -->
<g id="edge12" class="edge"><title>Node1&#45;&gt;Node13</title>
<path fill="none" stroke="midnightblue" d="M251.211,-168.324C262.776,-160.107 280.375,-147.602 294.161,-137.807"/>
<polygon fill="midnightblue" stroke="midnightblue" points="296.443,-140.479 302.567,-131.834 292.388,-134.773 296.443,-140.479"/>
</g>
<!-- Node15 -->
<g id="node15" class="node"><title>Node15</title>
<g id="a_node15"><a xlink:href="queue_8h.html" target="_top" xlink:title="queue.h">
<polygon fill="white" stroke="black" points="354.5,-112.5 354.5,-131.5 407.5,-131.5 407.5,-112.5 354.5,-112.5"/>
<text text-anchor="middle" x="381" y="-119.5" font-family="Helvetica,sans-Serif" font-size="10.00">queue.h</text>
</a>
</g>
</g>
<!-- Node1&#45;&gt;Node15 -->
<g id="edge14" class="edge"><title>Node1&#45;&gt;Node15</title>
<path fill="none" stroke="midnightblue" d="M261.5,-168.444C285.077,-159.478 322.322,-145.314 348.964,-135.183"/>
<polygon fill="midnightblue" stroke="midnightblue" points="350.502,-138.342 358.605,-131.516 348.014,-131.8 350.502,-138.342"/>
</g>
<!-- Node5 -->
<g id="node5" class="node"><title>Node5</title>
<polygon fill="white" stroke="#bfbfbf" points="0,-56.5 0,-75.5 52,-75.5 52,-56.5 0,-56.5"/>
<text text-anchor="middle" x="26" y="-63.5" font-family="Helvetica,sans-Serif" font-size="10.00">stddef.h</text>
</g>
<!-- Node4&#45;&gt;Node5 -->
<g id="edge4" class="edge"><title>Node4&#45;&gt;Node5</title>
<path fill="none" stroke="midnightblue" d="M205.197,-112.498C171.413,-103.991 117.711,-90.4425 62.3553,-76.3387"/>
<polygon fill="midnightblue" stroke="midnightblue" points="62.925,-72.872 52.3703,-73.7932 61.1958,-79.6551 62.925,-72.872"/>
</g>
<!-- Node6 -->
<g id="node6" class="node"><title>Node6</title>
<polygon fill="white" stroke="#bfbfbf" points="70.5,-56.5 70.5,-75.5 119.5,-75.5 119.5,-56.5 70.5,-56.5"/>
<text text-anchor="middle" x="95" y="-63.5" font-family="Helvetica,sans-Serif" font-size="10.00">stdint.h</text>
</g>
<!-- Node4&#45;&gt;Node6 -->
<g id="edge5" class="edge"><title>Node4&#45;&gt;Node6</title>
<path fill="none" stroke="midnightblue" d="M216.183,-112.444C192.168,-103.438 154.171,-89.1891 127.131,-79.049"/>
<polygon fill="midnightblue" stroke="midnightblue" points="128.303,-75.7506 117.71,-75.5164 125.845,-82.3049 128.303,-75.7506"/>
</g>
<!-- Node7 -->
<g id="node7" class="node"><title>Node7</title>
<polygon fill="white" stroke="#bfbfbf" points="138,-56.5 138,-75.5 240,-75.5 240,-56.5 138,-56.5"/>
<text text-anchor="middle" x="189" y="-63.5" font-family="Helvetica,sans-Serif" font-size="10.00">FreeRTOSConfig.h</text>
</g>
<!-- Node4&#45;&gt;Node7 -->
<g id="edge6" class="edge"><title>Node4&#45;&gt;Node7</title>
<path fill="none" stroke="midnightblue" d="M230.744,-112.083C223.535,-104.298 212.89,-92.8015 204.154,-83.3665"/>
<polygon fill="midnightblue" stroke="midnightblue" points="206.465,-80.7108 197.103,-75.7511 201.329,-85.4666 206.465,-80.7108"/>
</g>
<!-- Node8 -->
<g id="node8" class="node"><title>Node8</title>
<g id="a_node8"><a xlink:href="projdefs_8h.html" target="_top" xlink:title="projdefs.h">
<polygon fill="white" stroke="black" points="258,-56.5 258,-75.5 318,-75.5 318,-56.5 258,-56.5"/>
<text text-anchor="middle" x="288" y="-63.5" font-family="Helvetica,sans-Serif" font-size="10.00">projdefs.h</text>
</a>
</g>
</g>
<!-- Node4&#45;&gt;Node8 -->
<g id="edge7" class="edge"><title>Node4&#45;&gt;Node8</title>
<path fill="none" stroke="midnightblue" d="M247.091,-112.083C254.155,-104.298 264.588,-92.8015 273.149,-83.3665"/>
<polygon fill="midnightblue" stroke="midnightblue" points="275.931,-85.5087 280.059,-75.7511 270.747,-80.8047 275.931,-85.5087"/>
</g>
<!-- Node9 -->
<g id="node9" class="node"><title>Node9</title>
<g id="a_node9"><a xlink:href="portable_8h.html" target="_top" xlink:title="portable.h">
<polygon fill="white" stroke="black" points="336.5,-56.5 336.5,-75.5 397.5,-75.5 397.5,-56.5 336.5,-56.5"/>
<text text-anchor="middle" x="367" y="-63.5" font-family="Helvetica,sans-Serif" font-size="10.00">portable.h</text>
</a>
</g>
</g>
<!-- Node4&#45;&gt;Node9 -->
<g id="edge8" class="edge"><title>Node4&#45;&gt;Node9</title>
<path fill="none" stroke="midnightblue" d="M259.282,-112.444C280.347,-103.557 313.517,-89.5632 337.486,-79.4514"/>
<polygon fill="midnightblue" stroke="midnightblue" points="338.96,-82.6283 346.813,-75.5164 336.239,-76.1787 338.96,-82.6283"/>
</g>
<!-- Node10 -->
<g id="node10" class="node"><title>Node10</title>
<g id="a_node10"><a xlink:href="deprecated__definitions_8h.html" target="_top" xlink:title="deprecated_definitions.h">
<polygon fill="white" stroke="black" points="188.5,-0.5 188.5,-19.5 313.5,-19.5 313.5,-0.5 188.5,-0.5"/>
<text text-anchor="middle" x="251" y="-7.5" font-family="Helvetica,sans-Serif" font-size="10.00">deprecated_definitions.h</text>
</a>
</g>
</g>
<!-- Node9&#45;&gt;Node10 -->
<g id="edge9" class="edge"><title>Node9&#45;&gt;Node10</title>
<path fill="none" stroke="midnightblue" d="M348.619,-56.4435C329.784,-47.6751 300.269,-33.9355 278.621,-23.8579"/>
<polygon fill="midnightblue" stroke="midnightblue" points="279.838,-20.5637 269.295,-19.5164 276.883,-26.9098 279.838,-20.5637"/>
</g>
<!-- Node11 -->
<g id="node11" class="node"><title>Node11</title>
<polygon fill="white" stroke="#bfbfbf" points="332,-0.5 332,-19.5 402,-19.5 402,-0.5 332,-0.5"/>
<text text-anchor="middle" x="367" y="-7.5" font-family="Helvetica,sans-Serif" font-size="10.00">portmacro.h</text>
</g>
<!-- Node9&#45;&gt;Node11 -->
<g id="edge10" class="edge"><title>Node9&#45;&gt;Node11</title>
<path fill="none" stroke="midnightblue" d="M367,-56.083C367,-49.0059 367,-38.8611 367,-29.9865"/>
<polygon fill="midnightblue" stroke="midnightblue" points="370.5,-29.751 367,-19.7511 363.5,-29.7511 370.5,-29.751"/>
</g>
<!-- Node12 -->
<g id="node12" class="node"><title>Node12</title>
<g id="a_node12"><a xlink:href="mpu__wrappers_8h.html" target="_top" xlink:title="mpu_wrappers.h">
<polygon fill="white" stroke="black" points="420.5,-0.5 420.5,-19.5 511.5,-19.5 511.5,-0.5 420.5,-0.5"/>
<text text-anchor="middle" x="466" y="-7.5" font-family="Helvetica,sans-Serif" font-size="10.00">mpu_wrappers.h</text>
</a>
</g>
</g>
<!-- Node9&#45;&gt;Node12 -->
<g id="edge11" class="edge"><title>Node9&#45;&gt;Node12</title>
<path fill="none" stroke="midnightblue" d="M382.906,-56.324C398.638,-47.7428 422.942,-34.486 441.209,-24.5224"/>
<polygon fill="midnightblue" stroke="midnightblue" points="443.03,-27.5157 450.133,-19.6545 439.678,-21.3704 443.03,-27.5157"/>
</g>
<!-- Node14 -->
<g id="node14" class="node"><title>Node14</title>
<g id="a_node14"><a xlink:href="list_8h.html" target="_top" xlink:title="list.h">
<polygon fill="white" stroke="black" points="415.5,-56.5 415.5,-75.5 452.5,-75.5 452.5,-56.5 415.5,-56.5"/>
<text text-anchor="middle" x="434" y="-63.5" font-family="Helvetica,sans-Serif" font-size="10.00">list.h</text>
</a>
</g>
</g>
<!-- Node13&#45;&gt;Node14 -->
<g id="edge13" class="edge"><title>Node13&#45;&gt;Node14</title>
<path fill="none" stroke="midnightblue" d="M333.856,-112.444C353.266,-103.636 383.73,-89.8116 405.965,-79.722"/>
<polygon fill="midnightblue" stroke="midnightblue" points="407.572,-82.836 415.232,-75.5164 404.68,-76.4615 407.572,-82.836"/>
</g>
</g>
</svg>
