<?xml version="1.0" encoding="UTF-8" standalone="no"?>
<!DOCTYPE svg PUBLIC "-//W3C//DTD SVG 1.1//EN"
 "http://www.w3.org/Graphics/SVG/1.1/DTD/svg11.dtd">
<!-- Generated by graphviz version 2.30.1 (20130221.2233)
 -->
<!-- Title: prvCopyDataToQueue Pages: 1 -->
<svg width="278pt" height="66pt"
 viewBox="0.00 0.00 278.00 66.00" xmlns="http://www.w3.org/2000/svg" xmlns:xlink="http://www.w3.org/1999/xlink">
<g id="graph0" class="graph" transform="scale(1 1) rotate(0) translate(4 62)">
<title>prvCopyDataToQueue</title>
<polygon fill="white" stroke="white" points="-4,5 -4,-62 275,-62 275,5 -4,5"/>
<!-- Node1 -->
<g id="node1" class="node"><title>Node1</title>
<polygon fill="#bfbfbf" stroke="black" points="0.5,-19.5 0.5,-38.5 117.5,-38.5 117.5,-19.5 0.5,-19.5"/>
<text text-anchor="middle" x="59" y="-26.5" font-family="Helvetica,sans-Serif" font-size="10.00">prvCopyDataToQueue</text>
</g>
<!-- Node2 -->
<g id="node2" class="node"><title>Node2</title>
<g id="a_node2"><a xlink:href="_paradigm_2_tern___e_e_2small_2portmacro_8h.html#a14d32f8130d3c0b212cfc751730b5b49" target="_top" xlink:title="void">
<polygon fill="white" stroke="black" points="194.5,-38.5 194.5,-57.5 229.5,-57.5 229.5,-38.5 194.5,-38.5"/>
<text text-anchor="middle" x="212" y="-45.5" font-family="Helvetica,sans-Serif" font-size="10.00">void</text>
</a>
</g>
</g>
<!-- Node1&#45;&gt;Node2 -->
<g id="edge1" class="edge"><title>Node1&#45;&gt;Node2</title>
<path fill="none" stroke="midnightblue" d="M117.517,-36.2373C140.509,-39.1302 165.863,-42.3205 184.359,-44.6478"/>
<polygon fill="midnightblue" stroke="midnightblue" points="184.028,-48.1337 194.387,-45.9096 184.902,-41.1885 184.028,-48.1337"/>
</g>
<!-- Node3 -->
<g id="node3" class="node"><title>Node3</title>
<g id="a_node3"><a xlink:href="task_8h.html#a02fe2e1419fd6c35f75a1357c5e5ce22" target="_top" xlink:title="xTaskPriorityDisinherit">
<polygon fill="white" stroke="black" points="154,-0.5 154,-19.5 270,-19.5 270,-0.5 154,-0.5"/>
<text text-anchor="middle" x="212" y="-7.5" font-family="Helvetica,sans-Serif" font-size="10.00">xTaskPriorityDisinherit</text>
</a>
</g>
</g>
<!-- Node1&#45;&gt;Node3 -->
<g id="edge2" class="edge"><title>Node1&#45;&gt;Node3</title>
<path fill="none" stroke="midnightblue" d="M117.517,-21.7627C126.084,-20.6848 134.978,-19.5657 143.723,-18.4653"/>
<polygon fill="midnightblue" stroke="midnightblue" points="144.408,-21.9069 153.892,-17.1857 143.534,-14.9616 144.408,-21.9069"/>
</g>
</g>
</svg>
