<?xml version="1.0" encoding="UTF-8" standalone="no"?>
<!DOCTYPE svg PUBLIC "-//W3C//DTD SVG 1.1//EN"
 "http://www.w3.org/Graphics/SVG/1.1/DTD/svg11.dtd">
<!-- Generated by graphviz version 2.30.1 (20130221.2233)
 -->
<!-- Title: xQueueGenericCreate Pages: 1 -->
<svg width="762pt" height="246pt"
 viewBox="0.00 0.00 762.00 246.40" xmlns="http://www.w3.org/2000/svg" xmlns:xlink="http://www.w3.org/1999/xlink">
<g id="graph0" class="graph" transform="scale(1 1) rotate(0) translate(4 242.395)">
<title>xQueueGenericCreate</title>
<polygon fill="white" stroke="white" points="-4,5 -4,-242.395 759,-242.395 759,5 -4,5"/>
<!-- Node1 -->
<g id="node1" class="node"><title>Node1</title>
<polygon fill="#bfbfbf" stroke="black" points="0.5,-152.5 0.5,-171.5 117.5,-171.5 117.5,-152.5 0.5,-152.5"/>
<text text-anchor="middle" x="59" y="-159.5" font-family="Helvetica,sans-Serif" font-size="10.00">xQueueGenericCreate</text>
</g>
<!-- Node2 -->
<g id="node2" class="node"><title>Node2</title>
<g id="a_node2"><a xlink:href="portable_8h.html#a237d63f90b28e0950bd86f76815cd6e3" target="_top" xlink:title="pvPortMalloc">
<polygon fill="white" stroke="black" points="154,-152.5 154,-171.5 228,-171.5 228,-152.5 154,-152.5"/>
<text text-anchor="middle" x="191" y="-159.5" font-family="Helvetica,sans-Serif" font-size="10.00">pvPortMalloc</text>
</a>
</g>
</g>
<!-- Node1&#45;&gt;Node2 -->
<g id="edge1" class="edge"><title>Node1&#45;&gt;Node2</title>
<path fill="none" stroke="midnightblue" d="M117.777,-162C126.359,-162 135.112,-162 143.426,-162"/>
<polygon fill="midnightblue" stroke="midnightblue" points="143.677,-165.5 153.677,-162 143.677,-158.5 143.677,-165.5"/>
</g>
<!-- Node4 -->
<g id="node4" class="node"><title>Node4</title>
<g id="a_node4"><a xlink:href="_paradigm_2_tern___e_e_2small_2portmacro_8h.html#a14d32f8130d3c0b212cfc751730b5b49" target="_top" xlink:title="void">
<polygon fill="white" stroke="black" points="657.5,-171.5 657.5,-190.5 692.5,-190.5 692.5,-171.5 657.5,-171.5"/>
<text text-anchor="middle" x="675" y="-178.5" font-family="Helvetica,sans-Serif" font-size="10.00">void</text>
</a>
</g>
</g>
<!-- Node1&#45;&gt;Node4 -->
<g id="edge11" class="edge"><title>Node1&#45;&gt;Node4</title>
<path fill="none" stroke="midnightblue" d="M84.9579,-171.584C122.933,-185.622 197.81,-211.17 264,-221 394.131,-240.326 430.485,-246.099 560,-223 591.292,-217.419 625.247,-203.854 647.887,-193.64"/>
<polygon fill="midnightblue" stroke="midnightblue" points="649.538,-196.732 657.149,-189.362 646.602,-190.377 649.538,-196.732"/>
</g>
<!-- Node9 -->
<g id="node9" class="node"><title>Node9</title>
<g id="a_node9"><a xlink:href="queue_8c.html#a5e54273dbe3f56b8bdc8f7abee67a871" target="_top" xlink:title="xQueueGenericReset">
<polygon fill="white" stroke="black" points="264.5,-57.5 264.5,-76.5 377.5,-76.5 377.5,-57.5 264.5,-57.5"/>
<text text-anchor="middle" x="321" y="-64.5" font-family="Helvetica,sans-Serif" font-size="10.00">xQueueGenericReset</text>
</a>
</g>
</g>
<!-- Node1&#45;&gt;Node9 -->
<g id="edge12" class="edge"><title>Node1&#45;&gt;Node9</title>
<path fill="none" stroke="midnightblue" d="M85.0375,-152.401C123.426,-137.744 199.194,-109.06 264,-86 269.701,-83.9715 275.745,-81.87 281.672,-79.8365"/>
<polygon fill="midnightblue" stroke="midnightblue" points="283.118,-83.0415 291.455,-76.5036 280.861,-76.4154 283.118,-83.0415"/>
</g>
<!-- Node3 -->
<g id="node3" class="node"><title>Node3</title>
<g id="a_node3"><a xlink:href="heap__2_8c.html#a3e55181f788f17d9a3e7d226a5206e4f" target="_top" xlink:title="prvHeapInit">
<polygon fill="white" stroke="black" points="287,-133.5 287,-152.5 355,-152.5 355,-133.5 287,-133.5"/>
<text text-anchor="middle" x="321" y="-140.5" font-family="Helvetica,sans-Serif" font-size="10.00">prvHeapInit</text>
</a>
</g>
</g>
<!-- Node2&#45;&gt;Node3 -->
<g id="edge2" class="edge"><title>Node2&#45;&gt;Node3</title>
<path fill="none" stroke="midnightblue" d="M228.337,-156.606C243.374,-154.374 260.932,-151.768 276.635,-149.437"/>
<polygon fill="midnightblue" stroke="midnightblue" points="277.263,-152.882 286.641,-147.952 276.236,-145.958 277.263,-152.882"/>
</g>
<!-- Node2&#45;&gt;Node4 -->
<g id="edge3" class="edge"><title>Node2&#45;&gt;Node4</title>
<path fill="none" stroke="midnightblue" d="M205.261,-171.555C219.129,-180.909 241.912,-194.529 264,-200 404.866,-234.892 581.091,-202.242 647.26,-187.433"/>
<polygon fill="midnightblue" stroke="midnightblue" points="648.297,-190.786 657.262,-185.14 646.733,-183.963 648.297,-190.786"/>
</g>
<!-- Node5 -->
<g id="node5" class="node"><title>Node5</title>
<g id="a_node5"><a xlink:href="task_8h.html#a366b302eba79d10b5ee2a3756f0fcc43" target="_top" xlink:title="vTaskSuspendAll">
<polygon fill="white" stroke="black" points="274,-171.5 274,-190.5 368,-190.5 368,-171.5 274,-171.5"/>
<text text-anchor="middle" x="321" y="-178.5" font-family="Helvetica,sans-Serif" font-size="10.00">vTaskSuspendAll</text>
</a>
</g>
</g>
<!-- Node2&#45;&gt;Node5 -->
<g id="edge4" class="edge"><title>Node2&#45;&gt;Node5</title>
<path fill="none" stroke="midnightblue" d="M228.337,-167.394C239.424,-169.039 251.882,-170.889 263.956,-172.681"/>
<polygon fill="midnightblue" stroke="midnightblue" points="263.564,-176.161 273.97,-174.167 264.592,-169.237 263.564,-176.161"/>
</g>
<!-- Node6 -->
<g id="node6" class="node"><title>Node6</title>
<g id="a_node6"><a xlink:href="task_8h.html#a003f8ae6d649225abd030cc76e1c7d0e" target="_top" xlink:title="xTaskResumeAll">
<polygon fill="white" stroke="black" points="275,-95.5 275,-114.5 367,-114.5 367,-95.5 275,-95.5"/>
<text text-anchor="middle" x="321" y="-102.5" font-family="Helvetica,sans-Serif" font-size="10.00">xTaskResumeAll</text>
</a>
</g>
</g>
<!-- Node2&#45;&gt;Node6 -->
<g id="edge5" class="edge"><title>Node2&#45;&gt;Node6</title>
<path fill="none" stroke="midnightblue" d="M208.223,-152.486C222.583,-144.296 244.266,-132.492 264,-124 268.827,-121.923 273.963,-119.917 279.091,-118.036"/>
<polygon fill="midnightblue" stroke="midnightblue" points="280.594,-121.217 288.859,-114.589 278.264,-114.616 280.594,-121.217"/>
</g>
<!-- Node6&#45;&gt;Node4 -->
<g id="edge6" class="edge"><title>Node6&#45;&gt;Node4</title>
<path fill="none" stroke="midnightblue" d="M358.735,-114.598C365.415,-117.128 372.122,-120.234 378,-124 397.589,-136.55 392.978,-152.034 414,-162 492.133,-199.04 598.453,-191.377 647.373,-185.104"/>
<polygon fill="midnightblue" stroke="midnightblue" points="648.017,-188.549 657.45,-183.725 647.068,-181.613 648.017,-188.549"/>
</g>
<!-- Node7 -->
<g id="node7" class="node"><title>Node7</title>
<g id="a_node7"><a xlink:href="list_8h.html#a2eb1558482076fff8cafc63419c2d34a" target="_top" xlink:title="uxListRemove">
<polygon fill="white" stroke="black" points="635,-95.5 635,-114.5 715,-114.5 715,-95.5 635,-95.5"/>
<text text-anchor="middle" x="675" y="-102.5" font-family="Helvetica,sans-Serif" font-size="10.00">uxListRemove</text>
</a>
</g>
</g>
<!-- Node6&#45;&gt;Node7 -->
<g id="edge7" class="edge"><title>Node6&#45;&gt;Node7</title>
<path fill="none" stroke="midnightblue" d="M367.297,-105C433.528,-105 556.332,-105 624.74,-105"/>
<polygon fill="midnightblue" stroke="midnightblue" points="624.83,-108.5 634.83,-105 624.83,-101.5 624.83,-108.5"/>
</g>
<!-- Node8 -->
<g id="node8" class="node"><title>Node8</title>
<g id="a_node8"><a xlink:href="tasks_8c.html#a54f31e9aef0eb7b87e48c7d68ecc84c1" target="_top" xlink:title="xTaskIncrementTick">
<polygon fill="white" stroke="black" points="434,-133.5 434,-152.5 540,-152.5 540,-133.5 434,-133.5"/>
<text text-anchor="middle" x="487" y="-140.5" font-family="Helvetica,sans-Serif" font-size="10.00">xTaskIncrementTick</text>
</a>
</g>
</g>
<!-- Node6&#45;&gt;Node8 -->
<g id="edge8" class="edge"><title>Node6&#45;&gt;Node8</title>
<path fill="none" stroke="midnightblue" d="M363.384,-114.589C385.123,-119.626 411.957,-125.844 434.975,-131.177"/>
<polygon fill="midnightblue" stroke="midnightblue" points="434.381,-134.632 444.913,-133.48 435.962,-127.813 434.381,-134.632"/>
</g>
<!-- Node8&#45;&gt;Node4 -->
<g id="edge9" class="edge"><title>Node8&#45;&gt;Node4</title>
<path fill="none" stroke="midnightblue" d="M534.936,-152.589C570.591,-159.873 618.332,-169.627 647.588,-175.604"/>
<polygon fill="midnightblue" stroke="midnightblue" points="646.975,-179.051 657.473,-177.624 648.376,-172.193 646.975,-179.051"/>
</g>
<!-- Node8&#45;&gt;Node7 -->
<g id="edge10" class="edge"><title>Node8&#45;&gt;Node7</title>
<path fill="none" stroke="midnightblue" d="M534.936,-133.411C562.444,-127.791 597.146,-120.701 625.003,-115.01"/>
<polygon fill="midnightblue" stroke="midnightblue" points="625.833,-118.413 634.93,-112.982 624.432,-111.555 625.833,-118.413"/>
</g>
<!-- Node10 -->
<g id="node10" class="node"><title>Node10</title>
<g id="a_node10"><a xlink:href="task_8h.html#a14513b7dd36055f73fba3c5ebbdc1b06" target="_top" xlink:title="xTaskRemoveFromEventList">
<polygon fill="white" stroke="black" points="414.5,-19.5 414.5,-38.5 559.5,-38.5 559.5,-19.5 414.5,-19.5"/>
<text text-anchor="middle" x="487" y="-26.5" font-family="Helvetica,sans-Serif" font-size="10.00">xTaskRemoveFromEventList</text>
</a>
</g>
</g>
<!-- Node9&#45;&gt;Node10 -->
<g id="edge13" class="edge"><title>Node9&#45;&gt;Node10</title>
<path fill="none" stroke="midnightblue" d="M363.384,-57.411C385.123,-52.3739 411.957,-46.1562 434.975,-40.8229"/>
<polygon fill="midnightblue" stroke="midnightblue" points="435.962,-44.1871 444.913,-38.5201 434.381,-37.3677 435.962,-44.1871"/>
</g>
<!-- Node13 -->
<g id="node13" class="node"><title>Node13</title>
<g id="a_node13"><a xlink:href="list_8h.html#adeef7734d7d6d9a3eea642a70c106919" target="_top" xlink:title="vListInitialise">
<polygon fill="white" stroke="black" points="450.5,-57.5 450.5,-76.5 523.5,-76.5 523.5,-57.5 450.5,-57.5"/>
<text text-anchor="middle" x="487" y="-64.5" font-family="Helvetica,sans-Serif" font-size="10.00">vListInitialise</text>
</a>
</g>
</g>
<!-- Node9&#45;&gt;Node13 -->
<g id="edge18" class="edge"><title>Node9&#45;&gt;Node13</title>
<path fill="none" stroke="midnightblue" d="M377.523,-67C397.845,-67 420.598,-67 439.997,-67"/>
<polygon fill="midnightblue" stroke="midnightblue" points="440.098,-70.5001 450.098,-67 440.098,-63.5001 440.098,-70.5001"/>
</g>
<!-- Node10&#45;&gt;Node4 -->
<g id="edge14" class="edge"><title>Node10&#45;&gt;Node4</title>
<path fill="none" stroke="midnightblue" d="M544.265,-38.5502C549.942,-41.0198 555.326,-44.1173 560,-48 588.749,-71.8835 572.179,-95.1991 596,-124 610.702,-141.775 632.119,-156.903 648.793,-167.097"/>
<polygon fill="midnightblue" stroke="midnightblue" points="647.106,-170.165 657.496,-172.239 650.667,-164.139 647.106,-170.165"/>
</g>
<!-- Node10&#45;&gt;Node7 -->
<g id="edge15" class="edge"><title>Node10&#45;&gt;Node7</title>
<path fill="none" stroke="midnightblue" d="M530.774,-38.5728C540.517,-41.2236 550.726,-44.3835 560,-48 576.855,-54.5728 579.866,-58.8149 596,-67 612.089,-75.162 630.195,-84.004 644.911,-91.1035"/>
<polygon fill="midnightblue" stroke="midnightblue" points="643.507,-94.312 654.036,-95.4925 646.541,-88.0038 643.507,-94.312"/>
</g>
<!-- Node11 -->
<g id="node11" class="node"><title>Node11</title>
<g id="a_node11"><a xlink:href="list_8h.html#a71a6a6099b3cbd8f90539aabe5c9e572" target="_top" xlink:title="vListInsertEnd">
<polygon fill="white" stroke="black" points="635,-38.5 635,-57.5 715,-57.5 715,-38.5 635,-38.5"/>
<text text-anchor="middle" x="675" y="-45.5" font-family="Helvetica,sans-Serif" font-size="10.00">vListInsertEnd</text>
</a>
</g>
</g>
<!-- Node10&#45;&gt;Node11 -->
<g id="edge16" class="edge"><title>Node10&#45;&gt;Node11</title>
<path fill="none" stroke="midnightblue" d="M559.646,-36.3187C581.433,-38.5442 604.873,-40.9386 624.824,-42.9766"/>
<polygon fill="midnightblue" stroke="midnightblue" points="624.608,-46.4727 634.912,-44.0071 625.319,-39.5089 624.608,-46.4727"/>
</g>
<!-- Node12 -->
<g id="node12" class="node"><title>Node12</title>
<g id="a_node12"><a xlink:href="tasks_8c.html#ad1b2e4995f863a99cf980836efe330d7" target="_top" xlink:title="prvResetNextTaskUnblockTime">
<polygon fill="white" stroke="black" points="596.5,-0.5 596.5,-19.5 753.5,-19.5 753.5,-0.5 596.5,-0.5"/>
<text text-anchor="middle" x="675" y="-7.5" font-family="Helvetica,sans-Serif" font-size="10.00">prvResetNextTaskUnblockTime</text>
</a>
</g>
</g>
<!-- Node10&#45;&gt;Node12 -->
<g id="edge17" class="edge"><title>Node10&#45;&gt;Node12</title>
<path fill="none" stroke="midnightblue" d="M559.646,-21.6813C568.346,-20.7926 577.309,-19.877 586.208,-18.968"/>
<polygon fill="midnightblue" stroke="midnightblue" points="586.619,-22.4444 596.211,-17.9462 585.907,-15.4806 586.619,-22.4444"/>
</g>
</g>
</svg>
