<?xml version="1.0" encoding="UTF-8" standalone="no"?>
<!DOCTYPE svg PUBLIC "-//W3C//DTD SVG 1.1//EN"
 "http://www.w3.org/Graphics/SVG/1.1/DTD/svg11.dtd">
<!-- Generated by graphviz version 2.30.1 (20130221.2233)
 -->
<!-- Title: source/include/queue.h Pages: 1 -->
<svg width="481pt" height="96pt"
 viewBox="0.00 0.00 481.00 96.00" xmlns="http://www.w3.org/2000/svg" xmlns:xlink="http://www.w3.org/1999/xlink">
<g id="graph0" class="graph" transform="scale(1 1) rotate(0) translate(4 92)">
<title>source/include/queue.h</title>
<polygon fill="white" stroke="white" points="-4,5 -4,-92 478,-92 478,5 -4,5"/>
<!-- Node1 -->
<g id="node1" class="node"><title>Node1</title>
<polygon fill="#bfbfbf" stroke="black" points="206,-68.5 206,-87.5 326,-87.5 326,-68.5 206,-68.5"/>
<text text-anchor="middle" x="266" y="-75.5" font-family="Helvetica,sans-Serif" font-size="10.00">source/include/queue.h</text>
</g>
<!-- Node2 -->
<g id="node2" class="node"><title>Node2</title>
<g id="a_node2"><a xlink:href="semphr_8h.html" target="_top" xlink:title="source/include/semphr.h">
<polygon fill="white" stroke="black" points="-0.5,-6.5 -0.5,-25.5 124.5,-25.5 124.5,-6.5 -0.5,-6.5"/>
<text text-anchor="middle" x="62" y="-13.5" font-family="Helvetica,sans-Serif" font-size="10.00">source/include/semphr.h</text>
</a>
</g>
</g>
<!-- Node1&#45;&gt;Node2 -->
<g id="edge1" class="edge"><title>Node1&#45;&gt;Node2</title>
<path fill="none" stroke="midnightblue" d="M227.174,-65.5807C187.535,-53.9221 126.899,-36.0881 91.174,-25.5806"/>
<polygon fill="midnightblue" stroke="midnightblue" points="226.191,-68.9395 236.772,-68.4035 228.166,-62.2239 226.191,-68.9395"/>
</g>
<!-- Node3 -->
<g id="node3" class="node"><title>Node3</title>
<g id="a_node3"><a xlink:href="_g_c_c_2_a_r_m___c_m3___m_p_u_2port_8c.html" target="_top" xlink:title="source/portable/GCC\l/ARM_CM3_MPU/port.c">
<polygon fill="white" stroke="black" points="143,-1 143,-31 267,-31 267,-1 143,-1"/>
<text text-anchor="start" x="151" y="-19" font-family="Helvetica,sans-Serif" font-size="10.00">source/portable/GCC</text>
<text text-anchor="middle" x="205" y="-8" font-family="Helvetica,sans-Serif" font-size="10.00">/ARM_CM3_MPU/port.c</text>
</a>
</g>
</g>
<!-- Node1&#45;&gt;Node3 -->
<g id="edge2" class="edge"><title>Node1&#45;&gt;Node3</title>
<path fill="none" stroke="midnightblue" d="M249.975,-61.2376C240.485,-51.9036 228.562,-40.1755 219.376,-31.1408"/>
<polygon fill="midnightblue" stroke="midnightblue" points="247.677,-63.8863 257.26,-68.4035 252.585,-58.8958 247.677,-63.8863"/>
</g>
<!-- Node4 -->
<g id="node4" class="node"><title>Node4</title>
<g id="a_node4"><a xlink:href="queue_8c.html" target="_top" xlink:title="source/queue.c">
<polygon fill="white" stroke="black" points="285.5,-6.5 285.5,-25.5 370.5,-25.5 370.5,-6.5 285.5,-6.5"/>
<text text-anchor="middle" x="328" y="-13.5" font-family="Helvetica,sans-Serif" font-size="10.00">source/queue.c</text>
</a>
</g>
</g>
<!-- Node1&#45;&gt;Node4 -->
<g id="edge3" class="edge"><title>Node1&#45;&gt;Node4</title>
<path fill="none" stroke="midnightblue" d="M282.334,-61.1928C294.113,-49.7935 309.564,-34.8414 319.133,-25.5806"/>
<polygon fill="midnightblue" stroke="midnightblue" points="279.635,-58.9341 274.883,-68.4035 284.503,-63.9643 279.635,-58.9341"/>
</g>
<!-- Node5 -->
<g id="node5" class="node"><title>Node5</title>
<g id="a_node5"><a xlink:href="timers_8c.html" target="_top" xlink:title="source/timers.c">
<polygon fill="white" stroke="black" points="389,-6.5 389,-25.5 473,-25.5 473,-6.5 389,-6.5"/>
<text text-anchor="middle" x="431" y="-13.5" font-family="Helvetica,sans-Serif" font-size="10.00">source/timers.c</text>
</a>
</g>
</g>
<!-- Node1&#45;&gt;Node5 -->
<g id="edge4" class="edge"><title>Node1&#45;&gt;Node5</title>
<path fill="none" stroke="midnightblue" d="M299.048,-64.9826C331.121,-53.3197 378.998,-35.91 407.403,-25.5806"/>
<polygon fill="midnightblue" stroke="midnightblue" points="297.842,-61.6967 289.64,-68.4035 300.235,-68.2752 297.842,-61.6967"/>
</g>
</g>
</svg>
