<?xml version="1.0" encoding="UTF-8" standalone="no"?>
<!DOCTYPE svg PUBLIC "-//W3C//DTD SVG 1.1//EN"
 "http://www.w3.org/Graphics/SVG/1.1/DTD/svg11.dtd">
<!-- Generated by graphviz version 2.30.1 (20130221.2233)
 -->
<!-- Title: xQueueGenericSendFromISR Pages: 1 -->
<svg width="534pt" height="180pt"
 viewBox="0.00 0.00 534.00 180.00" xmlns="http://www.w3.org/2000/svg" xmlns:xlink="http://www.w3.org/1999/xlink">
<g id="graph0" class="graph" transform="scale(1 1) rotate(0) translate(4 176)">
<title>xQueueGenericSendFromISR</title>
<polygon fill="white" stroke="white" points="-4,5 -4,-176 531,-176 531,5 -4,5"/>
<!-- Node1 -->
<g id="node1" class="node"><title>Node1</title>
<polygon fill="#bfbfbf" stroke="black" points="0,-114.5 0,-133.5 150,-133.5 150,-114.5 0,-114.5"/>
<text text-anchor="middle" x="75" y="-121.5" font-family="Helvetica,sans-Serif" font-size="10.00">xQueueGenericSendFromISR</text>
</g>
<!-- Node2 -->
<g id="node2" class="node"><title>Node2</title>
<g id="a_node2"><a xlink:href="queue_8c.html#a77098159b7735e0c27e27aa7072376c6" target="_top" xlink:title="prvCopyDataToQueue">
<polygon fill="white" stroke="black" points="200.5,-152.5 200.5,-171.5 317.5,-171.5 317.5,-152.5 200.5,-152.5"/>
<text text-anchor="middle" x="259" y="-159.5" font-family="Helvetica,sans-Serif" font-size="10.00">prvCopyDataToQueue</text>
</a>
</g>
</g>
<!-- Node1&#45;&gt;Node2 -->
<g id="edge1" class="edge"><title>Node1&#45;&gt;Node2</title>
<path fill="none" stroke="midnightblue" d="M121.926,-133.589C146.376,-138.694 176.633,-145.011 202.403,-150.392"/>
<polygon fill="midnightblue" stroke="midnightblue" points="201.9,-153.862 212.404,-152.48 203.33,-147.01 201.9,-153.862"/>
</g>
<!-- Node4 -->
<g id="node4" class="node"><title>Node4</title>
<g id="a_node4"><a xlink:href="_paradigm_2_tern___e_e_2small_2portmacro_8h.html#a14d32f8130d3c0b212cfc751730b5b49" target="_top" xlink:title="void">
<polygon fill="white" stroke="black" points="429.5,-114.5 429.5,-133.5 464.5,-133.5 464.5,-114.5 429.5,-114.5"/>
<text text-anchor="middle" x="447" y="-121.5" font-family="Helvetica,sans-Serif" font-size="10.00">void</text>
</a>
</g>
</g>
<!-- Node1&#45;&gt;Node4 -->
<g id="edge4" class="edge"><title>Node1&#45;&gt;Node4</title>
<path fill="none" stroke="midnightblue" d="M150.43,-124C233.522,-124 363.619,-124 419.281,-124"/>
<polygon fill="midnightblue" stroke="midnightblue" points="419.385,-127.5 429.385,-124 419.385,-120.5 419.385,-127.5"/>
</g>
<!-- Node5 -->
<g id="node5" class="node"><title>Node5</title>
<g id="a_node5"><a xlink:href="task_8h.html#a14513b7dd36055f73fba3c5ebbdc1b06" target="_top" xlink:title="xTaskRemoveFromEventList">
<polygon fill="white" stroke="black" points="186.5,-76.5 186.5,-95.5 331.5,-95.5 331.5,-76.5 186.5,-76.5"/>
<text text-anchor="middle" x="259" y="-83.5" font-family="Helvetica,sans-Serif" font-size="10.00">xTaskRemoveFromEventList</text>
</a>
</g>
</g>
<!-- Node1&#45;&gt;Node5 -->
<g id="edge5" class="edge"><title>Node1&#45;&gt;Node5</title>
<path fill="none" stroke="midnightblue" d="M121.926,-114.411C146.376,-109.306 176.633,-102.989 202.403,-97.6082"/>
<polygon fill="midnightblue" stroke="midnightblue" points="203.33,-100.99 212.404,-95.5201 201.9,-94.1378 203.33,-100.99"/>
</g>
<!-- Node3 -->
<g id="node3" class="node"><title>Node3</title>
<g id="a_node3"><a xlink:href="task_8h.html#a02fe2e1419fd6c35f75a1357c5e5ce22" target="_top" xlink:title="xTaskPriorityDisinherit">
<polygon fill="white" stroke="black" points="389,-152.5 389,-171.5 505,-171.5 505,-152.5 389,-152.5"/>
<text text-anchor="middle" x="447" y="-159.5" font-family="Helvetica,sans-Serif" font-size="10.00">xTaskPriorityDisinherit</text>
</a>
</g>
</g>
<!-- Node2&#45;&gt;Node3 -->
<g id="edge2" class="edge"><title>Node2&#45;&gt;Node3</title>
<path fill="none" stroke="midnightblue" d="M317.578,-162C336.839,-162 358.484,-162 378.436,-162"/>
<polygon fill="midnightblue" stroke="midnightblue" points="378.694,-165.5 388.694,-162 378.694,-158.5 378.694,-165.5"/>
</g>
<!-- Node2&#45;&gt;Node4 -->
<g id="edge3" class="edge"><title>Node2&#45;&gt;Node4</title>
<path fill="none" stroke="midnightblue" d="M306.936,-152.411C342.591,-145.127 390.332,-135.373 419.588,-129.396"/>
<polygon fill="midnightblue" stroke="midnightblue" points="420.376,-132.807 429.473,-127.376 418.975,-125.949 420.376,-132.807"/>
</g>
<!-- Node5&#45;&gt;Node4 -->
<g id="edge6" class="edge"><title>Node5&#45;&gt;Node4</title>
<path fill="none" stroke="midnightblue" d="M306.936,-95.589C342.591,-102.873 390.332,-112.627 419.588,-118.604"/>
<polygon fill="midnightblue" stroke="midnightblue" points="418.975,-122.051 429.473,-120.624 420.376,-115.193 418.975,-122.051"/>
</g>
<!-- Node6 -->
<g id="node6" class="node"><title>Node6</title>
<g id="a_node6"><a xlink:href="list_8h.html#a2eb1558482076fff8cafc63419c2d34a" target="_top" xlink:title="uxListRemove">
<polygon fill="white" stroke="black" points="407,-76.5 407,-95.5 487,-95.5 487,-76.5 407,-76.5"/>
<text text-anchor="middle" x="447" y="-83.5" font-family="Helvetica,sans-Serif" font-size="10.00">uxListRemove</text>
</a>
</g>
</g>
<!-- Node5&#45;&gt;Node6 -->
<g id="edge7" class="edge"><title>Node5&#45;&gt;Node6</title>
<path fill="none" stroke="midnightblue" d="M331.646,-86C353.433,-86 376.873,-86 396.824,-86"/>
<polygon fill="midnightblue" stroke="midnightblue" points="396.912,-89.5001 406.912,-86 396.912,-82.5001 396.912,-89.5001"/>
</g>
<!-- Node7 -->
<g id="node7" class="node"><title>Node7</title>
<g id="a_node7"><a xlink:href="list_8h.html#a71a6a6099b3cbd8f90539aabe5c9e572" target="_top" xlink:title="vListInsertEnd">
<polygon fill="white" stroke="black" points="407,-38.5 407,-57.5 487,-57.5 487,-38.5 407,-38.5"/>
<text text-anchor="middle" x="447" y="-45.5" font-family="Helvetica,sans-Serif" font-size="10.00">vListInsertEnd</text>
</a>
</g>
</g>
<!-- Node5&#45;&gt;Node7 -->
<g id="edge8" class="edge"><title>Node5&#45;&gt;Node7</title>
<path fill="none" stroke="midnightblue" d="M306.936,-76.411C334.444,-70.791 369.146,-63.7013 397.003,-58.0101"/>
<polygon fill="midnightblue" stroke="midnightblue" points="397.833,-61.4129 406.93,-55.982 396.432,-54.5545 397.833,-61.4129"/>
</g>
<!-- Node8 -->
<g id="node8" class="node"><title>Node8</title>
<g id="a_node8"><a xlink:href="tasks_8c.html#ad1b2e4995f863a99cf980836efe330d7" target="_top" xlink:title="prvResetNextTaskUnblockTime">
<polygon fill="white" stroke="black" points="368.5,-0.5 368.5,-19.5 525.5,-19.5 525.5,-0.5 368.5,-0.5"/>
<text text-anchor="middle" x="447" y="-7.5" font-family="Helvetica,sans-Serif" font-size="10.00">prvResetNextTaskUnblockTime</text>
</a>
</g>
</g>
<!-- Node5&#45;&gt;Node8 -->
<g id="edge9" class="edge"><title>Node5&#45;&gt;Node8</title>
<path fill="none" stroke="midnightblue" d="M275.175,-76.441C295.577,-63.9571 333.306,-42.1492 368,-29 374.72,-26.453 381.897,-24.1613 389.075,-22.1252"/>
<polygon fill="midnightblue" stroke="midnightblue" points="390.071,-25.4819 398.821,-19.5073 388.255,-18.7216 390.071,-25.4819"/>
</g>
</g>
</svg>
