<?xml version="1.0" encoding="UTF-8" standalone="no"?>
<!DOCTYPE svg PUBLIC "-//W3C//DTD SVG 1.1//EN"
 "http://www.w3.org/Graphics/SVG/1.1/DTD/svg11.dtd">
<!-- Generated by graphviz version 2.30.1 (20130221.2233)
 -->
<!-- Title: xQueueGenericReset Pages: 1 -->
<svg width="478pt" height="66pt"
 viewBox="0.00 0.00 478.00 66.00" xmlns="http://www.w3.org/2000/svg" xmlns:xlink="http://www.w3.org/1999/xlink">
<g id="graph0" class="graph" transform="scale(1 1) rotate(0) translate(4 62)">
<title>xQueueGenericReset</title>
<polygon fill="white" stroke="white" points="-4,5 -4,-62 475,-62 475,5 -4,5"/>
<!-- Node1 -->
<g id="node1" class="node"><title>Node1</title>
<polygon fill="#bfbfbf" stroke="black" points="0.5,-19.5 0.5,-38.5 113.5,-38.5 113.5,-19.5 0.5,-19.5"/>
<text text-anchor="middle" x="57" y="-26.5" font-family="Helvetica,sans-Serif" font-size="10.00">xQueueGenericReset</text>
</g>
<!-- Node2 -->
<g id="node2" class="node"><title>Node2</title>
<g id="a_node2"><a xlink:href="_g_c_c_2_a_r_m___c_m3___m_p_u_2port_8c.html#ac7dccb1862fd656e1aedff73bd7c3433" target="_top" xlink:title="MPU_xQueueGenericReset">
<polygon fill="white" stroke="black" points="150,-38.5 150,-57.5 290,-57.5 290,-38.5 150,-38.5"/>
<text text-anchor="middle" x="220" y="-45.5" font-family="Helvetica,sans-Serif" font-size="10.00">MPU_xQueueGenericReset</text>
</a>
</g>
</g>
<!-- Node1&#45;&gt;Node2 -->
<g id="edge1" class="edge"><title>Node1&#45;&gt;Node2</title>
<path fill="none" stroke="midnightblue" d="M123.822,-36.7679C132.422,-37.7827 141.253,-38.8248 149.904,-39.8458"/>
<polygon fill="midnightblue" stroke="midnightblue" points="124.199,-33.2882 113.858,-35.592 123.379,-40.2399 124.199,-33.2882"/>
</g>
<!-- Node3 -->
<g id="node3" class="node"><title>Node3</title>
<g id="a_node3"><a xlink:href="queue_8c.html#ac999cdfbb09fff396fa818bb9a30b4e5" target="_top" xlink:title="xQueueGenericCreate">
<polygon fill="white" stroke="black" points="161.5,-0.5 161.5,-19.5 278.5,-19.5 278.5,-0.5 161.5,-0.5"/>
<text text-anchor="middle" x="220" y="-7.5" font-family="Helvetica,sans-Serif" font-size="10.00">xQueueGenericCreate</text>
</a>
</g>
</g>
<!-- Node1&#45;&gt;Node3 -->
<g id="edge2" class="edge"><title>Node1&#45;&gt;Node3</title>
<path fill="none" stroke="midnightblue" d="M124.094,-21.2001C136.442,-19.7428 149.258,-18.2304 161.327,-16.8061"/>
<polygon fill="midnightblue" stroke="midnightblue" points="123.379,-17.7601 113.858,-22.408 124.199,-24.7118 123.379,-17.7601"/>
</g>
<!-- Node4 -->
<g id="node4" class="node"><title>Node4</title>
<g id="a_node4"><a xlink:href="_g_c_c_2_a_r_m___c_m3___m_p_u_2port_8c.html#a807a463b8fc68904094127b85ae5d23b" target="_top" xlink:title="MPU_xQueueGenericCreate">
<polygon fill="white" stroke="black" points="326,-0.5 326,-19.5 470,-19.5 470,-0.5 326,-0.5"/>
<text text-anchor="middle" x="398" y="-7.5" font-family="Helvetica,sans-Serif" font-size="10.00">MPU_xQueueGenericCreate</text>
</a>
</g>
</g>
<!-- Node3&#45;&gt;Node4 -->
<g id="edge3" class="edge"><title>Node3&#45;&gt;Node4</title>
<path fill="none" stroke="midnightblue" d="M288.669,-10C300.801,-10 313.478,-10 325.707,-10"/>
<polygon fill="midnightblue" stroke="midnightblue" points="288.629,-6.5001 278.629,-10 288.629,-13.5001 288.629,-6.5001"/>
</g>
</g>
</svg>
