<?xml version="1.0" encoding="UTF-8" standalone="no"?>
<!DOCTYPE svg PUBLIC "-//W3C//DTD SVG 1.1//EN"
 "http://www.w3.org/Graphics/SVG/1.1/DTD/svg11.dtd">
<!-- Generated by graphviz version 2.30.1 (20130221.2233)
 -->
<!-- Title: prvCopyDataFromQueue Pages: 1 -->
<svg width="486pt" height="104pt"
 viewBox="0.00 0.00 486.00 104.00" xmlns="http://www.w3.org/2000/svg" xmlns:xlink="http://www.w3.org/1999/xlink">
<g id="graph0" class="graph" transform="scale(1 1) rotate(0) translate(4 100)">
<title>prvCopyDataFromQueue</title>
<polygon fill="white" stroke="white" points="-4,5 -4,-100 483,-100 483,5 -4,5"/>
<!-- Node1 -->
<g id="node1" class="node"><title>Node1</title>
<polygon fill="#bfbfbf" stroke="black" points="0,-38.5 0,-57.5 128,-57.5 128,-38.5 0,-38.5"/>
<text text-anchor="middle" x="64" y="-45.5" font-family="Helvetica,sans-Serif" font-size="10.00">prvCopyDataFromQueue</text>
</g>
<!-- Node2 -->
<g id="node2" class="node"><title>Node2</title>
<g id="a_node2"><a xlink:href="queue_8c.html#ace632b55c3955bacae20978e261129a6" target="_top" xlink:title="xQueueGenericReceive">
<polygon fill="white" stroke="black" points="166.5,-76.5 166.5,-95.5 289.5,-95.5 289.5,-76.5 166.5,-76.5"/>
<text text-anchor="middle" x="228" y="-83.5" font-family="Helvetica,sans-Serif" font-size="10.00">xQueueGenericReceive</text>
</a>
</g>
</g>
<!-- Node1&#45;&gt;Node2 -->
<g id="edge1" class="edge"><title>Node1&#45;&gt;Node2</title>
<path fill="none" stroke="midnightblue" d="M115.715,-59.8961C138.486,-65.2374 164.987,-71.4537 186.415,-76.4799"/>
<polygon fill="midnightblue" stroke="midnightblue" points="116.415,-56.4653 105.879,-57.589 114.816,-63.2803 116.415,-56.4653"/>
</g>
<!-- Node4 -->
<g id="node4" class="node"><title>Node4</title>
<g id="a_node4"><a xlink:href="queue_8c.html#af67763957452955ac663c374d71278ce" target="_top" xlink:title="xQueuePeekFromISR">
<polygon fill="white" stroke="black" points="171,-38.5 171,-57.5 285,-57.5 285,-38.5 171,-38.5"/>
<text text-anchor="middle" x="228" y="-45.5" font-family="Helvetica,sans-Serif" font-size="10.00">xQueuePeekFromISR</text>
</a>
</g>
</g>
<!-- Node1&#45;&gt;Node4 -->
<g id="edge3" class="edge"><title>Node1&#45;&gt;Node4</title>
<path fill="none" stroke="midnightblue" d="M138.132,-48C149.144,-48 160.352,-48 170.932,-48"/>
<polygon fill="midnightblue" stroke="midnightblue" points="138.097,-44.5001 128.097,-48 138.097,-51.5001 138.097,-44.5001"/>
</g>
<!-- Node6 -->
<g id="node6" class="node"><title>Node6</title>
<g id="a_node6"><a xlink:href="queue_8c.html#ac61ec62828e70ed35d18559a35550462" target="_top" xlink:title="xQueueReceiveFromISR">
<polygon fill="white" stroke="black" points="164,-0.5 164,-19.5 292,-19.5 292,-0.5 164,-0.5"/>
<text text-anchor="middle" x="228" y="-7.5" font-family="Helvetica,sans-Serif" font-size="10.00">xQueueReceiveFromISR</text>
</a>
</g>
</g>
<!-- Node1&#45;&gt;Node6 -->
<g id="edge5" class="edge"><title>Node1&#45;&gt;Node6</title>
<path fill="none" stroke="midnightblue" d="M115.715,-36.1039C138.486,-30.7626 164.987,-24.5463 186.415,-19.5201"/>
<polygon fill="midnightblue" stroke="midnightblue" points="114.816,-32.7197 105.879,-38.411 116.415,-39.5347 114.816,-32.7197"/>
</g>
<!-- Node3 -->
<g id="node3" class="node"><title>Node3</title>
<g id="a_node3"><a xlink:href="_g_c_c_2_a_r_m___c_m3___m_p_u_2port_8c.html#a11f6f4ba0b7f2612c09d7494aa695297" target="_top" xlink:title="MPU_xQueueGenericReceive">
<polygon fill="white" stroke="black" points="328,-76.5 328,-95.5 478,-95.5 478,-76.5 328,-76.5"/>
<text text-anchor="middle" x="403" y="-83.5" font-family="Helvetica,sans-Serif" font-size="10.00">MPU_xQueueGenericReceive</text>
</a>
</g>
</g>
<!-- Node2&#45;&gt;Node3 -->
<g id="edge2" class="edge"><title>Node2&#45;&gt;Node3</title>
<path fill="none" stroke="midnightblue" d="M299.512,-86C308.845,-86 318.436,-86 327.829,-86"/>
<polygon fill="midnightblue" stroke="midnightblue" points="299.507,-82.5001 289.507,-86 299.507,-89.5001 299.507,-82.5001"/>
</g>
<!-- Node5 -->
<g id="node5" class="node"><title>Node5</title>
<g id="a_node5"><a xlink:href="_g_c_c_2_a_r_m___c_m3___m_p_u_2port_8c.html#a9aeb66abf9fe439c26ffebcde56017ea" target="_top" xlink:title="MPU_xQueuePeekFromISR">
<polygon fill="white" stroke="black" points="332,-38.5 332,-57.5 474,-57.5 474,-38.5 332,-38.5"/>
<text text-anchor="middle" x="403" y="-45.5" font-family="Helvetica,sans-Serif" font-size="10.00">MPU_xQueuePeekFromISR</text>
</a>
</g>
</g>
<!-- Node4&#45;&gt;Node5 -->
<g id="edge4" class="edge"><title>Node4&#45;&gt;Node5</title>
<path fill="none" stroke="midnightblue" d="M295.481,-48C307.402,-48 319.859,-48 331.879,-48"/>
<polygon fill="midnightblue" stroke="midnightblue" points="295.168,-44.5001 285.168,-48 295.168,-51.5001 295.168,-44.5001"/>
</g>
</g>
</svg>
