<?xml version="1.0" encoding="UTF-8" standalone="no"?>
<!DOCTYPE svg PUBLIC "-//W3C//DTD SVG 1.1//EN"
 "http://www.w3.org/Graphics/SVG/1.1/DTD/svg11.dtd">
<!-- Generated by graphviz version 2.30.1 (20130221.2233)
 -->
<!-- Title: xQueueGenericReset Pages: 1 -->
<svg width="498pt" height="142pt"
 viewBox="0.00 0.00 498.00 142.00" xmlns="http://www.w3.org/2000/svg" xmlns:xlink="http://www.w3.org/1999/xlink">
<g id="graph0" class="graph" transform="scale(1 1) rotate(0) translate(4 138)">
<title>xQueueGenericReset</title>
<polygon fill="white" stroke="white" points="-4,5 -4,-138 495,-138 495,5 -4,5"/>
<!-- Node1 -->
<g id="node1" class="node"><title>Node1</title>
<polygon fill="#bfbfbf" stroke="black" points="0.5,-76.5 0.5,-95.5 113.5,-95.5 113.5,-76.5 0.5,-76.5"/>
<text text-anchor="middle" x="57" y="-83.5" font-family="Helvetica,sans-Serif" font-size="10.00">xQueueGenericReset</text>
</g>
<!-- Node2 -->
<g id="node2" class="node"><title>Node2</title>
<g id="a_node2"><a xlink:href="list_8h.html#adeef7734d7d6d9a3eea642a70c106919" target="_top" xlink:title="vListInitialise">
<polygon fill="white" stroke="black" points="186.5,-95.5 186.5,-114.5 259.5,-114.5 259.5,-95.5 186.5,-95.5"/>
<text text-anchor="middle" x="223" y="-102.5" font-family="Helvetica,sans-Serif" font-size="10.00">vListInitialise</text>
</a>
</g>
</g>
<!-- Node1&#45;&gt;Node2 -->
<g id="edge1" class="edge"><title>Node1&#45;&gt;Node2</title>
<path fill="none" stroke="midnightblue" d="M113.523,-92.4325C133.845,-94.7869 156.598,-97.4229 175.997,-99.6704"/>
<polygon fill="midnightblue" stroke="midnightblue" points="175.762,-103.166 186.098,-100.841 176.567,-96.213 175.762,-103.166"/>
</g>
<!-- Node3 -->
<g id="node3" class="node"><title>Node3</title>
<g id="a_node3"><a xlink:href="task_8h.html#a14513b7dd36055f73fba3c5ebbdc1b06" target="_top" xlink:title="xTaskRemoveFromEventList">
<polygon fill="white" stroke="black" points="150.5,-57.5 150.5,-76.5 295.5,-76.5 295.5,-57.5 150.5,-57.5"/>
<text text-anchor="middle" x="223" y="-64.5" font-family="Helvetica,sans-Serif" font-size="10.00">xTaskRemoveFromEventList</text>
</a>
</g>
</g>
<!-- Node1&#45;&gt;Node3 -->
<g id="edge2" class="edge"><title>Node1&#45;&gt;Node3</title>
<path fill="none" stroke="midnightblue" d="M113.523,-79.5675C122.097,-78.5741 131.105,-77.5306 140.11,-76.4872"/>
<polygon fill="midnightblue" stroke="midnightblue" points="140.723,-79.9398 150.254,-75.3121 139.917,-72.9863 140.723,-79.9398"/>
</g>
<!-- Node4 -->
<g id="node4" class="node"><title>Node4</title>
<g id="a_node4"><a xlink:href="tasks_8c.html#ad1b2e4995f863a99cf980836efe330d7" target="_top" xlink:title="prvResetNextTaskUnblockTime">
<polygon fill="white" stroke="black" points="332.5,-114.5 332.5,-133.5 489.5,-133.5 489.5,-114.5 332.5,-114.5"/>
<text text-anchor="middle" x="411" y="-121.5" font-family="Helvetica,sans-Serif" font-size="10.00">prvResetNextTaskUnblockTime</text>
</a>
</g>
</g>
<!-- Node3&#45;&gt;Node4 -->
<g id="edge3" class="edge"><title>Node3&#45;&gt;Node4</title>
<path fill="none" stroke="midnightblue" d="M266.774,-76.5728C276.517,-79.2236 286.726,-82.3835 296,-86 312.855,-92.5728 315.083,-98.5882 332,-105 338.72,-107.547 345.897,-109.839 353.075,-111.875"/>
<polygon fill="midnightblue" stroke="midnightblue" points="352.255,-115.278 362.821,-114.493 354.071,-108.518 352.255,-115.278"/>
</g>
<!-- Node5 -->
<g id="node5" class="node"><title>Node5</title>
<g id="a_node5"><a xlink:href="list_8h.html#a2eb1558482076fff8cafc63419c2d34a" target="_top" xlink:title="uxListRemove">
<polygon fill="white" stroke="black" points="371,-76.5 371,-95.5 451,-95.5 451,-76.5 371,-76.5"/>
<text text-anchor="middle" x="411" y="-83.5" font-family="Helvetica,sans-Serif" font-size="10.00">uxListRemove</text>
</a>
</g>
</g>
<!-- Node3&#45;&gt;Node5 -->
<g id="edge4" class="edge"><title>Node3&#45;&gt;Node5</title>
<path fill="none" stroke="midnightblue" d="M295.646,-74.3187C317.433,-76.5442 340.873,-78.9386 360.824,-80.9766"/>
<polygon fill="midnightblue" stroke="midnightblue" points="360.608,-84.4727 370.912,-82.0071 361.319,-77.5089 360.608,-84.4727"/>
</g>
<!-- Node6 -->
<g id="node6" class="node"><title>Node6</title>
<g id="a_node6"><a xlink:href="list_8h.html#a71a6a6099b3cbd8f90539aabe5c9e572" target="_top" xlink:title="vListInsertEnd">
<polygon fill="white" stroke="black" points="371,-38.5 371,-57.5 451,-57.5 451,-38.5 371,-38.5"/>
<text text-anchor="middle" x="411" y="-45.5" font-family="Helvetica,sans-Serif" font-size="10.00">vListInsertEnd</text>
</a>
</g>
</g>
<!-- Node3&#45;&gt;Node6 -->
<g id="edge5" class="edge"><title>Node3&#45;&gt;Node6</title>
<path fill="none" stroke="midnightblue" d="M295.646,-59.6813C317.433,-57.4558 340.873,-55.0614 360.824,-53.0234"/>
<polygon fill="midnightblue" stroke="midnightblue" points="361.319,-56.4911 370.912,-51.9929 360.608,-49.5273 361.319,-56.4911"/>
</g>
<!-- Node7 -->
<g id="node7" class="node"><title>Node7</title>
<g id="a_node7"><a xlink:href="_paradigm_2_tern___e_e_2small_2portmacro_8h.html#a14d32f8130d3c0b212cfc751730b5b49" target="_top" xlink:title="void">
<polygon fill="white" stroke="black" points="393.5,-0.5 393.5,-19.5 428.5,-19.5 428.5,-0.5 393.5,-0.5"/>
<text text-anchor="middle" x="411" y="-7.5" font-family="Helvetica,sans-Serif" font-size="10.00">void</text>
</a>
</g>
</g>
<!-- Node3&#45;&gt;Node7 -->
<g id="edge6" class="edge"><title>Node3&#45;&gt;Node7</title>
<path fill="none" stroke="midnightblue" d="M249.081,-57.3776C270.823,-49.2288 303.228,-37.5431 332,-29 349.044,-23.9393 368.469,-19.2045 383.67,-15.7272"/>
<polygon fill="midnightblue" stroke="midnightblue" points="384.449,-19.1396 393.439,-13.5323 382.914,-12.3099 384.449,-19.1396"/>
</g>
</g>
</svg>
