<?xml version="1.0" encoding="UTF-8" standalone="no"?>
<!DOCTYPE svg PUBLIC "-//W3C//DTD SVG 1.1//EN"
 "http://www.w3.org/Graphics/SVG/1.1/DTD/svg11.dtd">
<!-- Generated by graphviz version 2.30.1 (20130221.2233)
 -->
<!-- Title: vQueueDelete Pages: 1 -->
<svg width="572pt" height="100pt"
 viewBox="0.00 0.00 572.00 99.72" xmlns="http://www.w3.org/2000/svg" xmlns:xlink="http://www.w3.org/1999/xlink">
<g id="graph0" class="graph" transform="scale(1 1) rotate(0) translate(4 95.7241)">
<title>vQueueDelete</title>
<polygon fill="white" stroke="white" points="-4,5 -4,-95.7241 569,-95.7241 569,5 -4,5"/>
<!-- Node1 -->
<g id="node1" class="node"><title>Node1</title>
<polygon fill="#bfbfbf" stroke="black" points="0,-57.5 0,-76.5 80,-76.5 80,-57.5 0,-57.5"/>
<text text-anchor="middle" x="40" y="-64.5" font-family="Helvetica,sans-Serif" font-size="10.00">vQueueDelete</text>
</g>
<!-- Node2 -->
<g id="node2" class="node"><title>Node2</title>
<g id="a_node2"><a xlink:href="portable_8h.html#a735cd3085bb7ba06ff8e47565bfd7016" target="_top" xlink:title="vPortFree">
<polygon fill="white" stroke="black" points="116,-57.5 116,-76.5 176,-76.5 176,-57.5 116,-57.5"/>
<text text-anchor="middle" x="146" y="-64.5" font-family="Helvetica,sans-Serif" font-size="10.00">vPortFree</text>
</a>
</g>
</g>
<!-- Node1&#45;&gt;Node2 -->
<g id="edge1" class="edge"><title>Node1&#45;&gt;Node2</title>
<path fill="none" stroke="midnightblue" d="M80.0217,-67C88.3701,-67 97.1953,-67 105.559,-67"/>
<polygon fill="midnightblue" stroke="midnightblue" points="105.837,-70.5001 115.837,-67 105.837,-63.5001 105.837,-70.5001"/>
</g>
<!-- Node3 -->
<g id="node3" class="node"><title>Node3</title>
<g id="a_node3"><a xlink:href="_paradigm_2_tern___e_e_2small_2portmacro_8h.html#a14d32f8130d3c0b212cfc751730b5b49" target="_top" xlink:title="void">
<polygon fill="white" stroke="black" points="506.5,-57.5 506.5,-76.5 541.5,-76.5 541.5,-57.5 506.5,-57.5"/>
<text text-anchor="middle" x="524" y="-64.5" font-family="Helvetica,sans-Serif" font-size="10.00">void</text>
</a>
</g>
</g>
<!-- Node2&#45;&gt;Node3 -->
<g id="edge2" class="edge"><title>Node2&#45;&gt;Node3</title>
<path fill="none" stroke="midnightblue" d="M173.189,-76.5007C184.894,-80.264 198.965,-84.1339 212,-86 316.451,-100.953 442.288,-82.0878 496.278,-72.2591"/>
<polygon fill="midnightblue" stroke="midnightblue" points="497.197,-75.6482 506.384,-70.3704 495.911,-68.7673 497.197,-75.6482"/>
</g>
<!-- Node4 -->
<g id="node4" class="node"><title>Node4</title>
<g id="a_node4"><a xlink:href="task_8h.html#a366b302eba79d10b5ee2a3756f0fcc43" target="_top" xlink:title="vTaskSuspendAll">
<polygon fill="white" stroke="black" points="212,-57.5 212,-76.5 306,-76.5 306,-57.5 212,-57.5"/>
<text text-anchor="middle" x="259" y="-64.5" font-family="Helvetica,sans-Serif" font-size="10.00">vTaskSuspendAll</text>
</a>
</g>
</g>
<!-- Node2&#45;&gt;Node4 -->
<g id="edge3" class="edge"><title>Node2&#45;&gt;Node4</title>
<path fill="none" stroke="midnightblue" d="M176.164,-67C184.012,-67 192.776,-67 201.57,-67"/>
<polygon fill="midnightblue" stroke="midnightblue" points="201.855,-70.5001 211.855,-67 201.855,-63.5001 201.855,-70.5001"/>
</g>
<!-- Node5 -->
<g id="node5" class="node"><title>Node5</title>
<g id="a_node5"><a xlink:href="task_8h.html#a003f8ae6d649225abd030cc76e1c7d0e" target="_top" xlink:title="xTaskResumeAll">
<polygon fill="white" stroke="black" points="213,-19.5 213,-38.5 305,-38.5 305,-19.5 213,-19.5"/>
<text text-anchor="middle" x="259" y="-26.5" font-family="Helvetica,sans-Serif" font-size="10.00">xTaskResumeAll</text>
</a>
</g>
</g>
<!-- Node2&#45;&gt;Node5 -->
<g id="edge4" class="edge"><title>Node2&#45;&gt;Node5</title>
<path fill="none" stroke="midnightblue" d="M175.01,-57.411C188.682,-52.7306 205.331,-47.0308 220.118,-41.9685"/>
<polygon fill="midnightblue" stroke="midnightblue" points="221.672,-45.1362 229.999,-38.5859 219.404,-38.5136 221.672,-45.1362"/>
</g>
<!-- Node5&#45;&gt;Node3 -->
<g id="edge5" class="edge"><title>Node5&#45;&gt;Node3</title>
<path fill="none" stroke="midnightblue" d="M296.952,-38.5805C310.982,-41.9489 327.156,-45.5108 342,-48 396.503,-57.1393 461.021,-62.6594 496.427,-65.2395"/>
<polygon fill="midnightblue" stroke="midnightblue" points="496.215,-68.7332 506.437,-65.9466 496.708,-61.7506 496.215,-68.7332"/>
</g>
<!-- Node6 -->
<g id="node6" class="node"><title>Node6</title>
<g id="a_node6"><a xlink:href="list_8h.html#a2eb1558482076fff8cafc63419c2d34a" target="_top" xlink:title="uxListRemove">
<polygon fill="white" stroke="black" points="484,-0.5 484,-19.5 564,-19.5 564,-0.5 484,-0.5"/>
<text text-anchor="middle" x="524" y="-7.5" font-family="Helvetica,sans-Serif" font-size="10.00">uxListRemove</text>
</a>
</g>
</g>
<!-- Node5&#45;&gt;Node6 -->
<g id="edge6" class="edge"><title>Node5&#45;&gt;Node6</title>
<path fill="none" stroke="midnightblue" d="M293.212,-19.4929C308.011,-15.7284 325.739,-11.8593 342,-10 386.186,-4.94785 436.837,-5.48185 473.299,-6.96955"/>
<polygon fill="midnightblue" stroke="midnightblue" points="473.516,-10.4827 483.662,-7.43354 473.829,-3.48968 473.516,-10.4827"/>
</g>
<!-- Node7 -->
<g id="node7" class="node"><title>Node7</title>
<g id="a_node7"><a xlink:href="tasks_8c.html#a54f31e9aef0eb7b87e48c7d68ecc84c1" target="_top" xlink:title="xTaskIncrementTick">
<polygon fill="white" stroke="black" points="342,-19.5 342,-38.5 448,-38.5 448,-19.5 342,-19.5"/>
<text text-anchor="middle" x="395" y="-26.5" font-family="Helvetica,sans-Serif" font-size="10.00">xTaskIncrementTick</text>
</a>
</g>
</g>
<!-- Node5&#45;&gt;Node7 -->
<g id="edge7" class="edge"><title>Node5&#45;&gt;Node7</title>
<path fill="none" stroke="midnightblue" d="M305.366,-29C313.77,-29 322.683,-29 331.492,-29"/>
<polygon fill="midnightblue" stroke="midnightblue" points="331.748,-32.5001 341.748,-29 331.748,-25.5001 331.748,-32.5001"/>
</g>
<!-- Node7&#45;&gt;Node3 -->
<g id="edge8" class="edge"><title>Node7&#45;&gt;Node3</title>
<path fill="none" stroke="midnightblue" d="M428.047,-38.589C449.198,-44.9174 476.576,-53.1093 496.496,-59.0695"/>
<polygon fill="midnightblue" stroke="midnightblue" points="495.576,-62.4477 506.16,-61.9613 497.583,-55.7415 495.576,-62.4477"/>
</g>
<!-- Node7&#45;&gt;Node6 -->
<g id="edge9" class="edge"><title>Node7&#45;&gt;Node6</title>
<path fill="none" stroke="midnightblue" d="M448.022,-21.2172C456.496,-19.9494 465.252,-18.6395 473.659,-17.3817"/>
<polygon fill="midnightblue" stroke="midnightblue" points="474.326,-20.8209 483.698,-15.8798 473.291,-13.898 474.326,-20.8209"/>
</g>
</g>
</svg>
