<?xml version="1.0" encoding="UTF-8" standalone="no"?>
<!DOCTYPE svg PUBLIC "-//W3C//DTD SVG 1.1//EN"
 "http://www.w3.org/Graphics/SVG/1.1/DTD/svg11.dtd">
<!-- Generated by graphviz version 2.30.1 (20130221.2233)
 -->
<!-- Title: xQueueGenericSend Pages: 1 -->
<svg width="766pt" height="522pt"
 viewBox="0.00 0.00 766.00 522.00" xmlns="http://www.w3.org/2000/svg" xmlns:xlink="http://www.w3.org/1999/xlink">
<g id="graph0" class="graph" transform="scale(1 1) rotate(0) translate(4 518)">
<title>xQueueGenericSend</title>
<polygon fill="white" stroke="white" points="-4,5 -4,-518 763,-518 763,5 -4,5"/>
<!-- Node1 -->
<g id="node1" class="node"><title>Node1</title>
<polygon fill="#bfbfbf" stroke="black" points="0,-190.5 0,-209.5 110,-209.5 110,-190.5 0,-190.5"/>
<text text-anchor="middle" x="55" y="-197.5" font-family="Helvetica,sans-Serif" font-size="10.00">xQueueGenericSend</text>
</g>
<!-- Node2 -->
<g id="node2" class="node"><title>Node2</title>
<g id="a_node2"><a xlink:href="queue_8c.html#a77098159b7735e0c27e27aa7072376c6" target="_top" xlink:title="prvCopyDataToQueue">
<polygon fill="white" stroke="black" points="151.5,-456.5 151.5,-475.5 268.5,-475.5 268.5,-456.5 151.5,-456.5"/>
<text text-anchor="middle" x="210" y="-463.5" font-family="Helvetica,sans-Serif" font-size="10.00">prvCopyDataToQueue</text>
</a>
</g>
</g>
<!-- Node1&#45;&gt;Node2 -->
<g id="edge1" class="edge"><title>Node1&#45;&gt;Node2</title>
<path fill="none" stroke="midnightblue" d="M56.8111,-209.828C60.3038,-245.917 77.1766,-372.629 146,-442 149.916,-445.947 154.547,-449.255 159.494,-452.026"/>
<polygon fill="midnightblue" stroke="midnightblue" points="158.126,-455.252 168.653,-456.456 161.174,-448.951 158.126,-455.252"/>
</g>
<!-- Node5 -->
<g id="node5" class="node"><title>Node5</title>
<g id="a_node5"><a xlink:href="queue_8c.html#a70546f6b48a8b715eae3dd84e0546045" target="_top" xlink:title="prvIsQueueFull">
<polygon fill="white" stroke="black" points="168,-152.5 168,-171.5 252,-171.5 252,-152.5 168,-152.5"/>
<text text-anchor="middle" x="210" y="-159.5" font-family="Helvetica,sans-Serif" font-size="10.00">prvIsQueueFull</text>
</a>
</g>
</g>
<!-- Node1&#45;&gt;Node5 -->
<g id="edge4" class="edge"><title>Node1&#45;&gt;Node5</title>
<path fill="none" stroke="midnightblue" d="M94.6084,-190.411C114.707,-185.419 139.475,-179.268 160.819,-173.967"/>
<polygon fill="midnightblue" stroke="midnightblue" points="161.808,-177.327 170.669,-171.52 160.12,-170.534 161.808,-177.327"/>
</g>
<!-- Node6 -->
<g id="node6" class="node"><title>Node6</title>
<g id="a_node6"><a xlink:href="queue_8c.html#a7297c84a7c770ed57567bad1d3e2faf6" target="_top" xlink:title="prvUnlockQueue">
<polygon fill="white" stroke="black" points="164.5,-266.5 164.5,-285.5 255.5,-285.5 255.5,-266.5 164.5,-266.5"/>
<text text-anchor="middle" x="210" y="-273.5" font-family="Helvetica,sans-Serif" font-size="10.00">prvUnlockQueue</text>
</a>
</g>
</g>
<!-- Node1&#45;&gt;Node6 -->
<g id="edge5" class="edge"><title>Node1&#45;&gt;Node6</title>
<path fill="none" stroke="midnightblue" d="M70.8877,-209.593C88.4181,-220.653 118.622,-238.979 146,-252 154.14,-255.872 163.085,-259.586 171.612,-262.887"/>
<polygon fill="midnightblue" stroke="midnightblue" points="170.407,-266.173 180.999,-266.425 172.876,-259.623 170.407,-266.173"/>
</g>
<!-- Node3 -->
<g id="node3" class="node"><title>Node3</title>
<g id="a_node3"><a xlink:href="_paradigm_2_tern___e_e_2small_2portmacro_8h.html#a14d32f8130d3c0b212cfc751730b5b49" target="_top" xlink:title="void">
<polygon fill="white" stroke="black" points="558.5,-380.5 558.5,-399.5 593.5,-399.5 593.5,-380.5 558.5,-380.5"/>
<text text-anchor="middle" x="576" y="-387.5" font-family="Helvetica,sans-Serif" font-size="10.00">void</text>
</a>
</g>
</g>
<!-- Node1&#45;&gt;Node3 -->
<g id="edge12" class="edge"><title>Node1&#45;&gt;Node3</title>
<path fill="none" stroke="midnightblue" d="M58.7905,-209.615C67.1441,-236.623 94.6117,-313.692 146,-352 270.303,-444.663 474.694,-412.146 547.882,-396.443"/>
<polygon fill="midnightblue" stroke="midnightblue" points="549.084,-399.761 558.087,-394.176 547.566,-392.927 549.084,-399.761"/>
</g>
<!-- Node12 -->
<g id="node12" class="node"><title>Node12</title>
<g id="a_node12"><a xlink:href="task_8h.html#a56ae23bc0dece4522d666959902221ca" target="_top" xlink:title="vTaskPlaceOnEventList">
<polygon fill="white" stroke="black" points="321.5,-190.5 321.5,-209.5 444.5,-209.5 444.5,-190.5 321.5,-190.5"/>
<text text-anchor="middle" x="383" y="-197.5" font-family="Helvetica,sans-Serif" font-size="10.00">vTaskPlaceOnEventList</text>
</a>
</g>
</g>
<!-- Node1&#45;&gt;Node12 -->
<g id="edge13" class="edge"><title>Node1&#45;&gt;Node12</title>
<path fill="none" stroke="midnightblue" d="M110.198,-200C165.224,-200 250.693,-200 311.076,-200"/>
<polygon fill="midnightblue" stroke="midnightblue" points="311.293,-203.5 321.293,-200 311.293,-196.5 311.293,-203.5"/>
</g>
<!-- Node15 -->
<g id="node15" class="node"><title>Node15</title>
<g id="a_node15"><a xlink:href="task_8h.html#a67155ad4ea2482b5f4597a69f2152be0" target="_top" xlink:title="vTaskSetTimeOutState">
<polygon fill="white" stroke="black" points="150,-114.5 150,-133.5 270,-133.5 270,-114.5 150,-114.5"/>
<text text-anchor="middle" x="210" y="-121.5" font-family="Helvetica,sans-Serif" font-size="10.00">vTaskSetTimeOutState</text>
</a>
</g>
</g>
<!-- Node1&#45;&gt;Node15 -->
<g id="edge19" class="edge"><title>Node1&#45;&gt;Node15</title>
<path fill="none" stroke="midnightblue" d="M68.7776,-190.32C85.672,-177.903 116.731,-156.379 146,-143 151,-140.714 156.347,-138.617 161.733,-136.717"/>
<polygon fill="midnightblue" stroke="midnightblue" points="163.012,-139.98 171.404,-133.514 160.811,-133.335 163.012,-139.98"/>
</g>
<!-- Node16 -->
<g id="node16" class="node"><title>Node16</title>
<g id="a_node16"><a xlink:href="task_8h.html#a366b302eba79d10b5ee2a3756f0fcc43" target="_top" xlink:title="vTaskSuspendAll">
<polygon fill="white" stroke="black" points="163,-76.5 163,-95.5 257,-95.5 257,-76.5 163,-76.5"/>
<text text-anchor="middle" x="210" y="-83.5" font-family="Helvetica,sans-Serif" font-size="10.00">vTaskSuspendAll</text>
</a>
</g>
</g>
<!-- Node1&#45;&gt;Node16 -->
<g id="edge20" class="edge"><title>Node1&#45;&gt;Node16</title>
<path fill="none" stroke="midnightblue" d="M62.472,-190.35C75.8108,-171.204 108.293,-128.257 146,-105 149.403,-102.901 153.053,-101.021 156.819,-99.3388"/>
<polygon fill="midnightblue" stroke="midnightblue" points="158.344,-102.499 166.345,-95.5543 155.759,-95.9939 158.344,-102.499"/>
</g>
<!-- Node17 -->
<g id="node17" class="node"><title>Node17</title>
<g id="a_node17"><a xlink:href="task_8h.html#a3b018a85d339e536a6c05748dd666a3a" target="_top" xlink:title="xTaskCheckForTimeOut">
<polygon fill="white" stroke="black" points="147.5,-38.5 147.5,-57.5 272.5,-57.5 272.5,-38.5 147.5,-38.5"/>
<text text-anchor="middle" x="210" y="-45.5" font-family="Helvetica,sans-Serif" font-size="10.00">xTaskCheckForTimeOut</text>
</a>
</g>
</g>
<!-- Node1&#45;&gt;Node17 -->
<g id="edge21" class="edge"><title>Node1&#45;&gt;Node17</title>
<path fill="none" stroke="midnightblue" d="M59.8116,-190.301C69.9459,-165.783 99.9663,-100.875 146,-67 148.622,-65.0703 151.442,-63.3347 154.382,-61.774"/>
<polygon fill="midnightblue" stroke="midnightblue" points="155.857,-64.9481 163.487,-57.5972 152.938,-58.5856 155.857,-64.9481"/>
</g>
<!-- Node19 -->
<g id="node19" class="node"><title>Node19</title>
<g id="a_node19"><a xlink:href="task_8h.html#a0241000e08a261372186d34825a35979" target="_top" xlink:title="xTaskGetSchedulerState">
<polygon fill="white" stroke="black" points="146,-0.5 146,-19.5 274,-19.5 274,-0.5 146,-0.5"/>
<text text-anchor="middle" x="210" y="-7.5" font-family="Helvetica,sans-Serif" font-size="10.00">xTaskGetSchedulerState</text>
</a>
</g>
</g>
<!-- Node1&#45;&gt;Node19 -->
<g id="edge23" class="edge"><title>Node1&#45;&gt;Node19</title>
<path fill="none" stroke="midnightblue" d="M58.3028,-190.181C65.6604,-161 91.3886,-74.0375 146,-29 148.044,-27.3146 150.234,-25.7787 152.528,-24.3789"/>
<polygon fill="midnightblue" stroke="midnightblue" points="154.493,-27.3044 161.795,-19.6271 151.299,-21.0755 154.493,-27.3044"/>
</g>
<!-- Node8 -->
<g id="node8" class="node"><title>Node8</title>
<g id="a_node8"><a xlink:href="task_8h.html#a14513b7dd36055f73fba3c5ebbdc1b06" target="_top" xlink:title="xTaskRemoveFromEventList">
<polygon fill="white" stroke="black" points="310.5,-228.5 310.5,-247.5 455.5,-247.5 455.5,-228.5 310.5,-228.5"/>
<text text-anchor="middle" x="383" y="-235.5" font-family="Helvetica,sans-Serif" font-size="10.00">xTaskRemoveFromEventList</text>
</a>
</g>
</g>
<!-- Node1&#45;&gt;Node8 -->
<g id="edge24" class="edge"><title>Node1&#45;&gt;Node8</title>
<path fill="none" stroke="midnightblue" d="M110.189,-208.905C121.977,-210.709 134.394,-212.508 146,-214 197.172,-220.577 254.776,-226.465 300.263,-230.762"/>
<polygon fill="midnightblue" stroke="midnightblue" points="300.085,-234.261 310.368,-231.71 300.738,-227.291 300.085,-234.261"/>
</g>
<!-- Node20 -->
<g id="node20" class="node"><title>Node20</title>
<g id="a_node20"><a xlink:href="task_8h.html#a003f8ae6d649225abd030cc76e1c7d0e" target="_top" xlink:title="xTaskResumeAll">
<polygon fill="white" stroke="black" points="164,-323.5 164,-342.5 256,-342.5 256,-323.5 164,-323.5"/>
<text text-anchor="middle" x="210" y="-330.5" font-family="Helvetica,sans-Serif" font-size="10.00">xTaskResumeAll</text>
</a>
</g>
</g>
<!-- Node1&#45;&gt;Node20 -->
<g id="edge25" class="edge"><title>Node1&#45;&gt;Node20</title>
<path fill="none" stroke="midnightblue" d="M63.6904,-209.716C78.3827,-227.889 112.015,-267.654 146,-295 156.807,-303.696 169.781,-311.852 181.14,-318.362"/>
<polygon fill="midnightblue" stroke="midnightblue" points="179.779,-321.61 190.218,-323.418 183.185,-315.494 179.779,-321.61"/>
</g>
<!-- Node2&#45;&gt;Node3 -->
<g id="edge2" class="edge"><title>Node2&#45;&gt;Node3</title>
<path fill="none" stroke="midnightblue" d="M268.822,-465.426C319.041,-463.73 393.342,-458.321 456,-442 489.558,-433.259 525.748,-416.251 549.294,-404.064"/>
<polygon fill="midnightblue" stroke="midnightblue" points="551.051,-407.095 558.266,-399.336 547.788,-400.902 551.051,-407.095"/>
</g>
<!-- Node4 -->
<g id="node4" class="node"><title>Node4</title>
<g id="a_node4"><a xlink:href="task_8h.html#a02fe2e1419fd6c35f75a1357c5e5ce22" target="_top" xlink:title="xTaskPriorityDisinherit">
<polygon fill="white" stroke="black" points="325,-494.5 325,-513.5 441,-513.5 441,-494.5 325,-494.5"/>
<text text-anchor="middle" x="383" y="-501.5" font-family="Helvetica,sans-Serif" font-size="10.00">xTaskPriorityDisinherit</text>
</a>
</g>
</g>
<!-- Node2&#45;&gt;Node4 -->
<g id="edge3" class="edge"><title>Node2&#45;&gt;Node4</title>
<path fill="none" stroke="midnightblue" d="M254.151,-475.589C276.919,-480.649 305.048,-486.9 329.119,-492.249"/>
<polygon fill="midnightblue" stroke="midnightblue" points="328.639,-495.727 339.16,-494.48 330.157,-488.894 328.639,-495.727"/>
</g>
<!-- Node7 -->
<g id="node7" class="node"><title>Node7</title>
<g id="a_node7"><a xlink:href="task_8h.html#a998c69e37431a3a32c637b31ff60089a" target="_top" xlink:title="vTaskMissedYield">
<polygon fill="white" stroke="black" points="334.5,-266.5 334.5,-285.5 431.5,-285.5 431.5,-266.5 334.5,-266.5"/>
<text text-anchor="middle" x="383" y="-273.5" font-family="Helvetica,sans-Serif" font-size="10.00">vTaskMissedYield</text>
</a>
</g>
</g>
<!-- Node6&#45;&gt;Node7 -->
<g id="edge6" class="edge"><title>Node6&#45;&gt;Node7</title>
<path fill="none" stroke="midnightblue" d="M255.928,-276C276.866,-276 302.03,-276 324.351,-276"/>
<polygon fill="midnightblue" stroke="midnightblue" points="324.381,-279.5 334.381,-276 324.381,-272.5 324.381,-279.5"/>
</g>
<!-- Node6&#45;&gt;Node8 -->
<g id="edge7" class="edge"><title>Node6&#45;&gt;Node8</title>
<path fill="none" stroke="midnightblue" d="M254.151,-266.411C276.919,-261.351 305.048,-255.1 329.119,-249.751"/>
<polygon fill="midnightblue" stroke="midnightblue" points="330.157,-253.106 339.16,-247.52 328.639,-246.273 330.157,-253.106"/>
</g>
<!-- Node9 -->
<g id="node9" class="node"><title>Node9</title>
<g id="a_node9"><a xlink:href="tasks_8c.html#ad1b2e4995f863a99cf980836efe330d7" target="_top" xlink:title="prvResetNextTaskUnblockTime">
<polygon fill="white" stroke="black" points="497.5,-266.5 497.5,-285.5 654.5,-285.5 654.5,-266.5 497.5,-266.5"/>
<text text-anchor="middle" x="576" y="-273.5" font-family="Helvetica,sans-Serif" font-size="10.00">prvResetNextTaskUnblockTime</text>
</a>
</g>
</g>
<!-- Node8&#45;&gt;Node9 -->
<g id="edge8" class="edge"><title>Node8&#45;&gt;Node9</title>
<path fill="none" stroke="midnightblue" d="M432.197,-247.589C457.97,-252.716 489.891,-259.067 517.012,-264.463"/>
<polygon fill="midnightblue" stroke="midnightblue" points="516.658,-267.961 527.149,-266.48 518.024,-261.096 516.658,-267.961"/>
</g>
<!-- Node10 -->
<g id="node10" class="node"><title>Node10</title>
<g id="a_node10"><a xlink:href="list_8h.html#a2eb1558482076fff8cafc63419c2d34a" target="_top" xlink:title="uxListRemove">
<polygon fill="white" stroke="black" points="536,-304.5 536,-323.5 616,-323.5 616,-304.5 536,-304.5"/>
<text text-anchor="middle" x="576" y="-311.5" font-family="Helvetica,sans-Serif" font-size="10.00">uxListRemove</text>
</a>
</g>
</g>
<!-- Node8&#45;&gt;Node10 -->
<g id="edge9" class="edge"><title>Node8&#45;&gt;Node10</title>
<path fill="none" stroke="midnightblue" d="M434.634,-247.527C442.078,-250.004 449.439,-253.11 456,-257 476.011,-268.865 471.796,-283.466 492,-295 502.227,-300.838 514.127,-304.883 525.667,-307.685"/>
<polygon fill="midnightblue" stroke="midnightblue" points="525.153,-311.154 535.666,-309.841 526.628,-304.312 525.153,-311.154"/>
</g>
<!-- Node11 -->
<g id="node11" class="node"><title>Node11</title>
<g id="a_node11"><a xlink:href="list_8h.html#a71a6a6099b3cbd8f90539aabe5c9e572" target="_top" xlink:title="vListInsertEnd">
<polygon fill="white" stroke="black" points="536,-228.5 536,-247.5 616,-247.5 616,-228.5 536,-228.5"/>
<text text-anchor="middle" x="576" y="-235.5" font-family="Helvetica,sans-Serif" font-size="10.00">vListInsertEnd</text>
</a>
</g>
</g>
<!-- Node8&#45;&gt;Node11 -->
<g id="edge10" class="edge"><title>Node8&#45;&gt;Node11</title>
<path fill="none" stroke="midnightblue" d="M455.665,-238C479.044,-238 504.458,-238 525.802,-238"/>
<polygon fill="midnightblue" stroke="midnightblue" points="525.926,-241.5 535.926,-238 525.926,-234.5 525.926,-241.5"/>
</g>
<!-- Node8&#45;&gt;Node3 -->
<g id="edge11" class="edge"><title>Node8&#45;&gt;Node3</title>
<path fill="none" stroke="midnightblue" d="M440.265,-247.55C445.942,-250.02 451.326,-253.117 456,-257 484.749,-280.884 467.759,-304.551 492,-333 507.879,-351.636 531.228,-366.942 549.119,-376.984"/>
<polygon fill="midnightblue" stroke="midnightblue" points="547.954,-380.332 558.416,-382.008 551.283,-374.174 547.954,-380.332"/>
</g>
<!-- Node13 -->
<g id="node13" class="node"><title>Node13</title>
<g id="a_node13"><a xlink:href="tasks_8c.html#a7859bfaa75a7c5524dd45b89036f1233" target="_top" xlink:title="prvAddCurrentTaskToDelayedList">
<polygon fill="white" stroke="black" points="492.5,-152.5 492.5,-171.5 659.5,-171.5 659.5,-152.5 492.5,-152.5"/>
<text text-anchor="middle" x="576" y="-159.5" font-family="Helvetica,sans-Serif" font-size="10.00">prvAddCurrentTaskToDelayedList</text>
</a>
</g>
</g>
<!-- Node12&#45;&gt;Node13 -->
<g id="edge14" class="edge"><title>Node12&#45;&gt;Node13</title>
<path fill="none" stroke="midnightblue" d="M432.197,-190.411C457.97,-185.284 489.891,-178.933 517.012,-173.537"/>
<polygon fill="midnightblue" stroke="midnightblue" points="518.024,-176.904 527.149,-171.52 516.658,-170.039 518.024,-176.904"/>
</g>
<!-- Node12&#45;&gt;Node10 -->
<g id="edge16" class="edge"><title>Node12&#45;&gt;Node10</title>
<path fill="none" stroke="midnightblue" d="M440.265,-209.55C445.942,-212.02 451.326,-215.117 456,-219 484.749,-242.884 462.861,-271.594 492,-295 501.634,-302.739 513.826,-307.449 525.879,-310.284"/>
<polygon fill="midnightblue" stroke="midnightblue" points="525.425,-313.762 535.911,-312.25 526.771,-306.892 525.425,-313.762"/>
</g>
<!-- Node14 -->
<g id="node14" class="node"><title>Node14</title>
<g id="a_node14"><a xlink:href="list_8h.html#aa129290da5cbda47dffb7bf877b2f02a" target="_top" xlink:title="vListInsert">
<polygon fill="white" stroke="black" points="696,-171.5 696,-190.5 758,-190.5 758,-171.5 696,-171.5"/>
<text text-anchor="middle" x="727" y="-178.5" font-family="Helvetica,sans-Serif" font-size="10.00">vListInsert</text>
</a>
</g>
</g>
<!-- Node12&#45;&gt;Node14 -->
<g id="edge17" class="edge"><title>Node12&#45;&gt;Node14</title>
<path fill="none" stroke="midnightblue" d="M444.749,-196.625C514.282,-192.762 626.213,-186.544 685.74,-183.237"/>
<polygon fill="midnightblue" stroke="midnightblue" points="686.084,-186.723 695.875,-182.674 685.696,-179.734 686.084,-186.723"/>
</g>
<!-- Node12&#45;&gt;Node11 -->
<g id="edge18" class="edge"><title>Node12&#45;&gt;Node11</title>
<path fill="none" stroke="midnightblue" d="M432.197,-209.589C460.866,-215.293 497.143,-222.51 525.959,-228.243"/>
<polygon fill="midnightblue" stroke="midnightblue" points="525.324,-231.685 535.815,-230.204 526.69,-224.82 525.324,-231.685"/>
</g>
<!-- Node13&#45;&gt;Node14 -->
<g id="edge15" class="edge"><title>Node13&#45;&gt;Node14</title>
<path fill="none" stroke="midnightblue" d="M651.937,-171.556C663.568,-173.039 675.185,-174.52 685.654,-175.855"/>
<polygon fill="midnightblue" stroke="midnightblue" points="685.335,-179.343 695.698,-177.136 686.221,-172.399 685.335,-179.343"/>
</g>
<!-- Node18 -->
<g id="node18" class="node"><title>Node18</title>
<g id="a_node18"><a xlink:href="tasks_8c.html#a5dfb2b9e41fb002318d9c55452a91c83" target="_top" xlink:title="vTaskSetTimeOutState">
<polygon fill="white" stroke="black" points="323,-38.5 323,-57.5 443,-57.5 443,-38.5 323,-38.5"/>
<text text-anchor="middle" x="383" y="-45.5" font-family="Helvetica,sans-Serif" font-size="10.00">vTaskSetTimeOutState</text>
</a>
</g>
</g>
<!-- Node17&#45;&gt;Node18 -->
<g id="edge22" class="edge"><title>Node17&#45;&gt;Node18</title>
<path fill="none" stroke="midnightblue" d="M272.735,-48C285.771,-48 299.607,-48 312.895,-48"/>
<polygon fill="midnightblue" stroke="midnightblue" points="312.927,-51.5001 322.927,-48 312.927,-44.5001 312.927,-51.5001"/>
</g>
<!-- Node20&#45;&gt;Node10 -->
<g id="edge26" class="edge"><title>Node20&#45;&gt;Node10</title>
<path fill="none" stroke="midnightblue" d="M256.365,-330.632C325.027,-327.048 454.832,-320.272 525.732,-316.572"/>
<polygon fill="midnightblue" stroke="midnightblue" points="525.947,-320.065 535.751,-316.049 525.582,-313.075 525.947,-320.065"/>
</g>
<!-- Node20&#45;&gt;Node3 -->
<g id="edge27" class="edge"><title>Node20&#45;&gt;Node3</title>
<path fill="none" stroke="midnightblue" d="M230.934,-342.664C250.55,-351.686 281.607,-364.679 310,-371 395.418,-390.015 499.775,-391.281 548.086,-390.662"/>
<polygon fill="midnightblue" stroke="midnightblue" points="548.38,-394.158 558.32,-390.491 548.262,-387.159 548.38,-394.158"/>
</g>
<!-- Node21 -->
<g id="node21" class="node"><title>Node21</title>
<g id="a_node21"><a xlink:href="tasks_8c.html#a54f31e9aef0eb7b87e48c7d68ecc84c1" target="_top" xlink:title="xTaskIncrementTick">
<polygon fill="white" stroke="black" points="330,-342.5 330,-361.5 436,-361.5 436,-342.5 330,-342.5"/>
<text text-anchor="middle" x="383" y="-349.5" font-family="Helvetica,sans-Serif" font-size="10.00">xTaskIncrementTick</text>
</a>
</g>
</g>
<!-- Node20&#45;&gt;Node21 -->
<g id="edge28" class="edge"><title>Node20&#45;&gt;Node21</title>
<path fill="none" stroke="midnightblue" d="M256.376,-338.042C275.763,-340.196 298.709,-342.745 319.652,-345.072"/>
<polygon fill="midnightblue" stroke="midnightblue" points="319.422,-348.568 329.747,-346.194 320.195,-341.611 319.422,-348.568"/>
</g>
<!-- Node21&#45;&gt;Node3 -->
<g id="edge29" class="edge"><title>Node21&#45;&gt;Node3</title>
<path fill="none" stroke="midnightblue" d="M432.197,-361.589C469.008,-368.913 518.363,-378.732 548.361,-384.7"/>
<polygon fill="midnightblue" stroke="midnightblue" points="547.987,-388.194 558.478,-386.713 549.353,-381.329 547.987,-388.194"/>
</g>
<!-- Node21&#45;&gt;Node10 -->
<g id="edge30" class="edge"><title>Node21&#45;&gt;Node10</title>
<path fill="none" stroke="midnightblue" d="M432.197,-342.411C460.866,-336.707 497.143,-329.49 525.959,-323.757"/>
<polygon fill="midnightblue" stroke="midnightblue" points="526.69,-327.18 535.815,-321.796 525.324,-320.315 526.69,-327.18"/>
</g>
</g>
</svg>
