<?xml version="1.0" encoding="UTF-8" standalone="no"?>
<!DOCTYPE svg PUBLIC "-//W3C//DTD SVG 1.1//EN"
 "http://www.w3.org/Graphics/SVG/1.1/DTD/svg11.dtd">
<!-- Generated by graphviz version 2.30.1 (20130221.2233)
 -->
<!-- Title: xQueueGiveFromISR Pages: 1 -->
<svg width="496pt" height="142pt"
 viewBox="0.00 0.00 496.00 142.00" xmlns="http://www.w3.org/2000/svg" xmlns:xlink="http://www.w3.org/1999/xlink">
<g id="graph0" class="graph" transform="scale(1 1) rotate(0) translate(4 138)">
<title>xQueueGiveFromISR</title>
<polygon fill="white" stroke="white" points="-4,5 -4,-138 493,-138 493,5 -4,5"/>
<!-- Node1 -->
<g id="node1" class="node"><title>Node1</title>
<polygon fill="#bfbfbf" stroke="black" points="0,-57.5 0,-76.5 112,-76.5 112,-57.5 0,-57.5"/>
<text text-anchor="middle" x="56" y="-64.5" font-family="Helvetica,sans-Serif" font-size="10.00">xQueueGiveFromISR</text>
</g>
<!-- Node2 -->
<g id="node2" class="node"><title>Node2</title>
<g id="a_node2"><a xlink:href="task_8h.html#a14513b7dd36055f73fba3c5ebbdc1b06" target="_top" xlink:title="xTaskRemoveFromEventList">
<polygon fill="white" stroke="black" points="148.5,-57.5 148.5,-76.5 293.5,-76.5 293.5,-57.5 148.5,-57.5"/>
<text text-anchor="middle" x="221" y="-64.5" font-family="Helvetica,sans-Serif" font-size="10.00">xTaskRemoveFromEventList</text>
</a>
</g>
</g>
<!-- Node1&#45;&gt;Node2 -->
<g id="edge1" class="edge"><title>Node1&#45;&gt;Node2</title>
<path fill="none" stroke="midnightblue" d="M112.184,-67C120.639,-67 129.518,-67 138.398,-67"/>
<polygon fill="midnightblue" stroke="midnightblue" points="138.402,-70.5001 148.402,-67 138.402,-63.5001 138.402,-70.5001"/>
</g>
<!-- Node3 -->
<g id="node3" class="node"><title>Node3</title>
<g id="a_node3"><a xlink:href="tasks_8c.html#ad1b2e4995f863a99cf980836efe330d7" target="_top" xlink:title="prvResetNextTaskUnblockTime">
<polygon fill="white" stroke="black" points="330.5,-114.5 330.5,-133.5 487.5,-133.5 487.5,-114.5 330.5,-114.5"/>
<text text-anchor="middle" x="409" y="-121.5" font-family="Helvetica,sans-Serif" font-size="10.00">prvResetNextTaskUnblockTime</text>
</a>
</g>
</g>
<!-- Node2&#45;&gt;Node3 -->
<g id="edge2" class="edge"><title>Node2&#45;&gt;Node3</title>
<path fill="none" stroke="midnightblue" d="M247.081,-76.6224C268.823,-84.7712 301.228,-96.4569 330,-105 338.163,-107.424 346.872,-109.773 355.402,-111.945"/>
<polygon fill="midnightblue" stroke="midnightblue" points="354.739,-115.387 365.289,-114.407 356.431,-108.594 354.739,-115.387"/>
</g>
<!-- Node4 -->
<g id="node4" class="node"><title>Node4</title>
<g id="a_node4"><a xlink:href="list_8h.html#a2eb1558482076fff8cafc63419c2d34a" target="_top" xlink:title="uxListRemove">
<polygon fill="white" stroke="black" points="369,-76.5 369,-95.5 449,-95.5 449,-76.5 369,-76.5"/>
<text text-anchor="middle" x="409" y="-83.5" font-family="Helvetica,sans-Serif" font-size="10.00">uxListRemove</text>
</a>
</g>
</g>
<!-- Node2&#45;&gt;Node4 -->
<g id="edge3" class="edge"><title>Node2&#45;&gt;Node4</title>
<path fill="none" stroke="midnightblue" d="M293.646,-74.3187C315.433,-76.5442 338.873,-78.9386 358.824,-80.9766"/>
<polygon fill="midnightblue" stroke="midnightblue" points="358.608,-84.4727 368.912,-82.0071 359.319,-77.5089 358.608,-84.4727"/>
</g>
<!-- Node5 -->
<g id="node5" class="node"><title>Node5</title>
<g id="a_node5"><a xlink:href="list_8h.html#a71a6a6099b3cbd8f90539aabe5c9e572" target="_top" xlink:title="vListInsertEnd">
<polygon fill="white" stroke="black" points="369,-38.5 369,-57.5 449,-57.5 449,-38.5 369,-38.5"/>
<text text-anchor="middle" x="409" y="-45.5" font-family="Helvetica,sans-Serif" font-size="10.00">vListInsertEnd</text>
</a>
</g>
</g>
<!-- Node2&#45;&gt;Node5 -->
<g id="edge4" class="edge"><title>Node2&#45;&gt;Node5</title>
<path fill="none" stroke="midnightblue" d="M293.646,-59.6813C315.433,-57.4558 338.873,-55.0614 358.824,-53.0234"/>
<polygon fill="midnightblue" stroke="midnightblue" points="359.319,-56.4911 368.912,-51.9929 358.608,-49.5273 359.319,-56.4911"/>
</g>
<!-- Node6 -->
<g id="node6" class="node"><title>Node6</title>
<g id="a_node6"><a xlink:href="_paradigm_2_tern___e_e_2small_2portmacro_8h.html#a14d32f8130d3c0b212cfc751730b5b49" target="_top" xlink:title="void">
<polygon fill="white" stroke="black" points="391.5,-0.5 391.5,-19.5 426.5,-19.5 426.5,-0.5 391.5,-0.5"/>
<text text-anchor="middle" x="409" y="-7.5" font-family="Helvetica,sans-Serif" font-size="10.00">void</text>
</a>
</g>
</g>
<!-- Node2&#45;&gt;Node6 -->
<g id="edge5" class="edge"><title>Node2&#45;&gt;Node6</title>
<path fill="none" stroke="midnightblue" d="M247.081,-57.3776C268.823,-49.2288 301.228,-37.5431 330,-29 347.044,-23.9393 366.469,-19.2045 381.67,-15.7272"/>
<polygon fill="midnightblue" stroke="midnightblue" points="382.449,-19.1396 391.439,-13.5323 380.914,-12.3099 382.449,-19.1396"/>
</g>
</g>
</svg>
