<?xml version="1.0" encoding="UTF-8" standalone="no"?>
<!DOCTYPE svg PUBLIC "-//W3C//DTD SVG 1.1//EN"
 "http://www.w3.org/Graphics/SVG/1.1/DTD/svg11.dtd">
<!-- Generated by graphviz version 2.30.1 (20130221.2233)
 -->
<!-- Title: source/portable/Qt/simulatedtask.cpp Pages: 1 -->
<svg width="451pt" height="264pt"
 viewBox="0.00 0.00 451.00 264.00" xmlns="http://www.w3.org/2000/svg" xmlns:xlink="http://www.w3.org/1999/xlink">
<g id="graph0" class="graph" transform="scale(1 1) rotate(0) translate(4 260)">
<title>source/portable/Qt/simulatedtask.cpp</title>
<polygon fill="white" stroke="white" points="-4,5 -4,-260 448,-260 448,5 -4,5"/>
<!-- Node1 -->
<g id="node1" class="node"><title>Node1</title>
<polygon fill="#bfbfbf" stroke="black" points="244.5,-225 244.5,-255 343.5,-255 343.5,-225 244.5,-225"/>
<text text-anchor="start" x="252.5" y="-243" font-family="Helvetica,sans-Serif" font-size="10.00">source/portable/Qt</text>
<text text-anchor="middle" x="294" y="-232" font-family="Helvetica,sans-Serif" font-size="10.00">/simulatedtask.cpp</text>
</g>
<!-- Node2 -->
<g id="node2" class="node"><title>Node2</title>
<g id="a_node2"><a xlink:href="simulatedtask_8h.html" target="_top" xlink:title="simulatedtask.h">
<polygon fill="white" stroke="black" points="173,-168.5 173,-187.5 259,-187.5 259,-168.5 173,-168.5"/>
<text text-anchor="middle" x="216" y="-175.5" font-family="Helvetica,sans-Serif" font-size="10.00">simulatedtask.h</text>
</a>
</g>
</g>
<!-- Node1&#45;&gt;Node2 -->
<g id="edge1" class="edge"><title>Node1&#45;&gt;Node2</title>
<path fill="none" stroke="midnightblue" d="M275.515,-224.781C263.48,-215.523 247.8,-203.462 235.557,-194.044"/>
<polygon fill="midnightblue" stroke="midnightblue" points="237.41,-191.053 227.35,-187.731 233.142,-196.602 237.41,-191.053"/>
</g>
<!-- Node7 -->
<g id="node7" class="node"><title>Node7</title>
<polygon fill="white" stroke="#bfbfbf" points="347.5,-56.5 347.5,-75.5 396.5,-75.5 396.5,-56.5 347.5,-56.5"/>
<text text-anchor="middle" x="372" y="-63.5" font-family="Helvetica,sans-Serif" font-size="10.00">stdint.h</text>
</g>
<!-- Node1&#45;&gt;Node7 -->
<g id="edge13" class="edge"><title>Node1&#45;&gt;Node7</title>
<path fill="none" stroke="midnightblue" d="M300.383,-224.925C314.496,-193.805 348.327,-119.201 363.902,-84.8577"/>
<polygon fill="midnightblue" stroke="midnightblue" points="367.164,-86.1375 368.107,-75.5847 360.789,-83.2464 367.164,-86.1375"/>
</g>
<!-- Node3 -->
<g id="node3" class="node"><title>Node3</title>
<polygon fill="white" stroke="#bfbfbf" points="149,-112.5 149,-131.5 205,-131.5 205,-112.5 149,-112.5"/>
<text text-anchor="middle" x="177" y="-119.5" font-family="Helvetica,sans-Serif" font-size="10.00">QThread</text>
</g>
<!-- Node2&#45;&gt;Node3 -->
<g id="edge2" class="edge"><title>Node2&#45;&gt;Node3</title>
<path fill="none" stroke="midnightblue" d="M209.56,-168.083C204.051,-160.455 195.969,-149.264 189.235,-139.941"/>
<polygon fill="midnightblue" stroke="midnightblue" points="192.013,-137.809 183.32,-131.751 186.338,-141.907 192.013,-137.809"/>
</g>
<!-- Node4 -->
<g id="node4" class="node"><title>Node4</title>
<polygon fill="white" stroke="#bfbfbf" points="81,-112.5 81,-131.5 131,-131.5 131,-112.5 81,-112.5"/>
<text text-anchor="middle" x="106" y="-119.5" font-family="Helvetica,sans-Serif" font-size="10.00">QString</text>
</g>
<!-- Node2&#45;&gt;Node4 -->
<g id="edge3" class="edge"><title>Node2&#45;&gt;Node4</title>
<path fill="none" stroke="midnightblue" d="M198.327,-168.324C180.606,-159.625 153.097,-146.12 132.712,-136.113"/>
<polygon fill="midnightblue" stroke="midnightblue" points="134.149,-132.919 123.63,-131.655 131.064,-139.203 134.149,-132.919"/>
</g>
<!-- Node5 -->
<g id="node5" class="node"><title>Node5</title>
<g id="a_node5"><a xlink:href="_free_r_t_o_s_8h.html" target="_top" xlink:title="FreeRTOS.h">
<polygon fill="white" stroke="black" points="223.5,-112.5 223.5,-131.5 296.5,-131.5 296.5,-112.5 223.5,-112.5"/>
<text text-anchor="middle" x="260" y="-119.5" font-family="Helvetica,sans-Serif" font-size="10.00">FreeRTOS.h</text>
</a>
</g>
</g>
<!-- Node2&#45;&gt;Node5 -->
<g id="edge4" class="edge"><title>Node2&#45;&gt;Node5</title>
<path fill="none" stroke="midnightblue" d="M223.266,-168.083C229.545,-160.377 238.788,-149.033 246.431,-139.653"/>
<polygon fill="midnightblue" stroke="midnightblue" points="249.266,-141.714 252.869,-131.751 243.839,-137.293 249.266,-141.714"/>
</g>
<!-- Node6 -->
<g id="node6" class="node"><title>Node6</title>
<polygon fill="white" stroke="#bfbfbf" points="0,-56.5 0,-75.5 52,-75.5 52,-56.5 0,-56.5"/>
<text text-anchor="middle" x="26" y="-63.5" font-family="Helvetica,sans-Serif" font-size="10.00">stddef.h</text>
</g>
<!-- Node5&#45;&gt;Node6 -->
<g id="edge5" class="edge"><title>Node5&#45;&gt;Node6</title>
<path fill="none" stroke="midnightblue" d="M223.248,-113.027C185.285,-104.717 124.081,-91.112 62.274,-76.2585"/>
<polygon fill="midnightblue" stroke="midnightblue" points="62.8946,-72.8079 52.3526,-73.8645 61.2526,-79.6126 62.8946,-72.8079"/>
</g>
<!-- Node5&#45;&gt;Node7 -->
<g id="edge6" class="edge"><title>Node5&#45;&gt;Node7</title>
<path fill="none" stroke="midnightblue" d="M277.995,-112.324C296.038,-103.625 324.047,-90.1202 344.803,-80.113"/>
<polygon fill="midnightblue" stroke="midnightblue" points="346.562,-83.1502 354.05,-75.6545 343.522,-76.8449 346.562,-83.1502"/>
</g>
<!-- Node8 -->
<g id="node8" class="node"><title>Node8</title>
<polygon fill="white" stroke="#bfbfbf" points="70,-56.5 70,-75.5 172,-75.5 172,-56.5 70,-56.5"/>
<text text-anchor="middle" x="121" y="-63.5" font-family="Helvetica,sans-Serif" font-size="10.00">FreeRTOSConfig.h</text>
</g>
<!-- Node5&#45;&gt;Node8 -->
<g id="edge7" class="edge"><title>Node5&#45;&gt;Node8</title>
<path fill="none" stroke="midnightblue" d="M237.975,-112.444C214.896,-103.478 178.438,-89.314 152.359,-79.1827"/>
<polygon fill="midnightblue" stroke="midnightblue" points="153.511,-75.8753 142.922,-75.5164 150.976,-82.4002 153.511,-75.8753"/>
</g>
<!-- Node9 -->
<g id="node9" class="node"><title>Node9</title>
<g id="a_node9"><a xlink:href="projdefs_8h.html" target="_top" xlink:title="projdefs.h">
<polygon fill="white" stroke="black" points="190,-56.5 190,-75.5 250,-75.5 250,-56.5 190,-56.5"/>
<text text-anchor="middle" x="220" y="-63.5" font-family="Helvetica,sans-Serif" font-size="10.00">projdefs.h</text>
</a>
</g>
</g>
<!-- Node5&#45;&gt;Node9 -->
<g id="edge8" class="edge"><title>Node5&#45;&gt;Node9</title>
<path fill="none" stroke="midnightblue" d="M253.395,-112.083C247.745,-104.455 239.455,-93.2645 232.549,-83.9408"/>
<polygon fill="midnightblue" stroke="midnightblue" points="235.247,-81.7034 226.482,-75.7511 229.622,-85.87 235.247,-81.7034"/>
</g>
<!-- Node10 -->
<g id="node10" class="node"><title>Node10</title>
<g id="a_node10"><a xlink:href="portable_8h.html" target="_top" xlink:title="portable.h">
<polygon fill="white" stroke="black" points="268.5,-56.5 268.5,-75.5 329.5,-75.5 329.5,-56.5 268.5,-56.5"/>
<text text-anchor="middle" x="299" y="-63.5" font-family="Helvetica,sans-Serif" font-size="10.00">portable.h</text>
</a>
</g>
</g>
<!-- Node5&#45;&gt;Node10 -->
<g id="edge9" class="edge"><title>Node5&#45;&gt;Node10</title>
<path fill="none" stroke="midnightblue" d="M266.44,-112.083C271.949,-104.455 280.031,-93.2645 286.765,-83.9408"/>
<polygon fill="midnightblue" stroke="midnightblue" points="289.662,-85.9071 292.68,-75.7511 283.987,-81.8087 289.662,-85.9071"/>
</g>
<!-- Node11 -->
<g id="node11" class="node"><title>Node11</title>
<g id="a_node11"><a xlink:href="deprecated__definitions_8h.html" target="_top" xlink:title="deprecated_definitions.h">
<polygon fill="white" stroke="black" points="120.5,-0.5 120.5,-19.5 245.5,-19.5 245.5,-0.5 120.5,-0.5"/>
<text text-anchor="middle" x="183" y="-7.5" font-family="Helvetica,sans-Serif" font-size="10.00">deprecated_definitions.h</text>
</a>
</g>
</g>
<!-- Node10&#45;&gt;Node11 -->
<g id="edge10" class="edge"><title>Node10&#45;&gt;Node11</title>
<path fill="none" stroke="midnightblue" d="M280.619,-56.4435C261.784,-47.6751 232.269,-33.9355 210.621,-23.8579"/>
<polygon fill="midnightblue" stroke="midnightblue" points="211.838,-20.5637 201.295,-19.5164 208.883,-26.9098 211.838,-20.5637"/>
</g>
<!-- Node12 -->
<g id="node12" class="node"><title>Node12</title>
<polygon fill="white" stroke="#bfbfbf" points="264,-0.5 264,-19.5 334,-19.5 334,-0.5 264,-0.5"/>
<text text-anchor="middle" x="299" y="-7.5" font-family="Helvetica,sans-Serif" font-size="10.00">portmacro.h</text>
</g>
<!-- Node10&#45;&gt;Node12 -->
<g id="edge11" class="edge"><title>Node10&#45;&gt;Node12</title>
<path fill="none" stroke="midnightblue" d="M299,-56.083C299,-49.0059 299,-38.8611 299,-29.9865"/>
<polygon fill="midnightblue" stroke="midnightblue" points="302.5,-29.751 299,-19.7511 295.5,-29.7511 302.5,-29.751"/>
</g>
<!-- Node13 -->
<g id="node13" class="node"><title>Node13</title>
<g id="a_node13"><a xlink:href="mpu__wrappers_8h.html" target="_top" xlink:title="mpu_wrappers.h">
<polygon fill="white" stroke="black" points="352.5,-0.5 352.5,-19.5 443.5,-19.5 443.5,-0.5 352.5,-0.5"/>
<text text-anchor="middle" x="398" y="-7.5" font-family="Helvetica,sans-Serif" font-size="10.00">mpu_wrappers.h</text>
</a>
</g>
</g>
<!-- Node10&#45;&gt;Node13 -->
<g id="edge12" class="edge"><title>Node10&#45;&gt;Node13</title>
<path fill="none" stroke="midnightblue" d="M314.906,-56.324C330.638,-47.7428 354.942,-34.486 373.209,-24.5224"/>
<polygon fill="midnightblue" stroke="midnightblue" points="375.03,-27.5157 382.133,-19.6545 371.678,-21.3704 375.03,-27.5157"/>
</g>
</g>
</svg>
