<?xml version="1.0" encoding="UTF-8" standalone="no"?>
<!DOCTYPE svg PUBLIC "-//W3C//DTD SVG 1.1//EN"
 "http://www.w3.org/Graphics/SVG/1.1/DTD/svg11.dtd">
<!-- Generated by graphviz version 2.30.1 (20130221.2233)
 -->
<!-- Title: source/portable/Qt/simulatedtask.h Pages: 1 -->
<svg width="223pt" height="108pt"
 viewBox="0.00 0.00 223.00 108.00" xmlns="http://www.w3.org/2000/svg" xmlns:xlink="http://www.w3.org/1999/xlink">
<g id="graph0" class="graph" transform="scale(1 1) rotate(0) translate(4 104)">
<title>source/portable/Qt/simulatedtask.h</title>
<polygon fill="white" stroke="white" points="-4,5 -4,-104 220,-104 220,5 -4,5"/>
<!-- Node1 -->
<g id="node1" class="node"><title>Node1</title>
<polygon fill="#bfbfbf" stroke="black" points="57.5,-69 57.5,-99 156.5,-99 156.5,-69 57.5,-69"/>
<text text-anchor="start" x="65.5" y="-87" font-family="Helvetica,sans-Serif" font-size="10.00">source/portable/Qt</text>
<text text-anchor="middle" x="107" y="-76" font-family="Helvetica,sans-Serif" font-size="10.00">/simulatedtask.h</text>
</g>
<!-- Node2 -->
<g id="node2" class="node"><title>Node2</title>
<g id="a_node2"><a xlink:href="port_8cpp.html" target="_top" xlink:title="source/portable/Qt\l/port.cpp">
<polygon fill="white" stroke="black" points="-0.5,-1 -0.5,-31 98.5,-31 98.5,-1 -0.5,-1"/>
<text text-anchor="start" x="7.5" y="-19" font-family="Helvetica,sans-Serif" font-size="10.00">source/portable/Qt</text>
<text text-anchor="middle" x="49" y="-8" font-family="Helvetica,sans-Serif" font-size="10.00">/port.cpp</text>
</a>
</g>
</g>
<!-- Node1&#45;&gt;Node2 -->
<g id="edge1" class="edge"><title>Node1&#45;&gt;Node2</title>
<path fill="none" stroke="midnightblue" d="M87.58,-60.9013C78.9985,-51.1362 69.1562,-39.9363 61.5606,-31.2931"/>
<polygon fill="midnightblue" stroke="midnightblue" points="85.1846,-63.4777 94.4149,-68.679 90.4428,-58.8569 85.1846,-63.4777"/>
</g>
<!-- Node3 -->
<g id="node3" class="node"><title>Node3</title>
<g id="a_node3"><a xlink:href="simulatedtask_8cpp.html" target="_top" xlink:title="source/portable/Qt\l/simulatedtask.cpp">
<polygon fill="white" stroke="black" points="116.5,-1 116.5,-31 215.5,-31 215.5,-1 116.5,-1"/>
<text text-anchor="start" x="124.5" y="-19" font-family="Helvetica,sans-Serif" font-size="10.00">source/portable/Qt</text>
<text text-anchor="middle" x="166" y="-8" font-family="Helvetica,sans-Serif" font-size="10.00">/simulatedtask.cpp</text>
</a>
</g>
</g>
<!-- Node1&#45;&gt;Node3 -->
<g id="edge2" class="edge"><title>Node1&#45;&gt;Node3</title>
<path fill="none" stroke="midnightblue" d="M126.493,-61.1939C135.284,-51.3605 145.419,-40.0228 153.223,-31.2931"/>
<polygon fill="midnightblue" stroke="midnightblue" points="123.857,-58.891 119.802,-68.679 129.076,-63.5562 123.857,-58.891"/>
</g>
</g>
</svg>
