<?xml version="1.0" encoding="UTF-8" standalone="no"?>
<!DOCTYPE svg PUBLIC "-//W3C//DTD SVG 1.1//EN"
 "http://www.w3.org/Graphics/SVG/1.1/DTD/svg11.dtd">
<!-- Generated by graphviz version 2.30.1 (20130221.2233)
 -->
<!-- Title: source/portable/MPLAB/PIC18F/stdio.h Pages: 1 -->
<svg width="390pt" height="108pt"
 viewBox="0.00 0.00 390.00 108.00" xmlns="http://www.w3.org/2000/svg" xmlns:xlink="http://www.w3.org/1999/xlink">
<g id="graph0" class="graph" transform="scale(1 1) rotate(0) translate(4 104)">
<title>source/portable/MPLAB/PIC18F/stdio.h</title>
<polygon fill="white" stroke="white" points="-4,5 -4,-104 387,-104 387,5 -4,5"/>
<!-- Node1 -->
<g id="node1" class="node"><title>Node1</title>
<polygon fill="#bfbfbf" stroke="black" points="139,-69 139,-99 261,-99 261,-69 139,-69"/>
<text text-anchor="start" x="147" y="-87" font-family="Helvetica,sans-Serif" font-size="10.00">source/portable/MPLAB</text>
<text text-anchor="middle" x="200" y="-76" font-family="Helvetica,sans-Serif" font-size="10.00">/PIC18F/stdio.h</text>
</g>
<!-- Node2 -->
<g id="node2" class="node"><title>Node2</title>
<g id="a_node2"><a xlink:href="_m_s_v_c-_ming_w_2port_8c.html" target="_top" xlink:title="source/portable/MSVC\l&#45;MingW/port.c">
<polygon fill="white" stroke="black" points="-0.5,-1 -0.5,-31 116.5,-31 116.5,-1 -0.5,-1"/>
<text text-anchor="start" x="7.5" y="-19" font-family="Helvetica,sans-Serif" font-size="10.00">source/portable/MSVC</text>
<text text-anchor="middle" x="58" y="-8" font-family="Helvetica,sans-Serif" font-size="10.00">&#45;MingW/port.c</text>
</a>
</g>
</g>
<!-- Node1&#45;&gt;Node2 -->
<g id="edge1" class="edge"><title>Node1&#45;&gt;Node2</title>
<path fill="none" stroke="midnightblue" d="M160.459,-64.6218C137.669,-54.0292 109.458,-40.9173 88.4122,-31.1352"/>
<polygon fill="midnightblue" stroke="midnightblue" points="158.994,-67.8003 169.537,-68.8413 161.944,-61.4525 158.994,-67.8003"/>
</g>
<!-- Node3 -->
<g id="node3" class="node"><title>Node3</title>
<g id="a_node3"><a xlink:href="o_watcom_216_bit_d_o_s_2_p_c_2port_8c.html" target="_top" xlink:title="source/portable/oWatcom\l/16BitDOS/PC/port.c">
<polygon fill="white" stroke="black" points="135,-1 135,-31 265,-31 265,-1 135,-1"/>
<text text-anchor="start" x="143" y="-19" font-family="Helvetica,sans-Serif" font-size="10.00">source/portable/oWatcom</text>
<text text-anchor="middle" x="200" y="-8" font-family="Helvetica,sans-Serif" font-size="10.00">/16BitDOS/PC/port.c</text>
</a>
</g>
</g>
<!-- Node1&#45;&gt;Node3 -->
<g id="edge2" class="edge"><title>Node1&#45;&gt;Node3</title>
<path fill="none" stroke="midnightblue" d="M200,-58.5322C200,-49.3606 200,-39.2449 200,-31.2931"/>
<polygon fill="midnightblue" stroke="midnightblue" points="196.5,-58.6789 200,-68.679 203.5,-58.679 196.5,-58.6789"/>
</g>
<!-- Node4 -->
<g id="node4" class="node"><title>Node4</title>
<g id="a_node4"><a xlink:href="port_8cpp.html" target="_top" xlink:title="source/portable/Qt\l/port.cpp">
<polygon fill="white" stroke="black" points="283.5,-1 283.5,-31 382.5,-31 382.5,-1 283.5,-1"/>
<text text-anchor="start" x="291.5" y="-19" font-family="Helvetica,sans-Serif" font-size="10.00">source/portable/Qt</text>
<text text-anchor="middle" x="333" y="-8" font-family="Helvetica,sans-Serif" font-size="10.00">/port.cpp</text>
</a>
</g>
</g>
<!-- Node1&#45;&gt;Node4 -->
<g id="edge3" class="edge"><title>Node1&#45;&gt;Node4</title>
<path fill="none" stroke="midnightblue" d="M237.605,-64.3388C258.85,-53.7964 284.978,-40.8303 304.515,-31.1352"/>
<polygon fill="midnightblue" stroke="midnightblue" points="235.934,-61.2609 228.532,-68.8413 239.045,-67.5313 235.934,-61.2609"/>
</g>
</g>
</svg>
