<?xml version="1.0" encoding="UTF-8" standalone="no"?>
<!DOCTYPE svg PUBLIC "-//W3C//DTD SVG 1.1//EN"
 "http://www.w3.org/Graphics/SVG/1.1/DTD/svg11.dtd">
<!-- Generated by graphviz version 2.30.1 (20130221.2233)
 -->
<!-- Title: xEventGroupDefinition Pages: 1 -->
<svg width="219pt" height="416pt"
 viewBox="0.00 0.00 219.00 416.00" xmlns="http://www.w3.org/2000/svg" xmlns:xlink="http://www.w3.org/1999/xlink">
<g id="graph0" class="graph" transform="scale(1 1) rotate(0) translate(4 412)">
<title>xEventGroupDefinition</title>
<polygon fill="white" stroke="white" points="-4,5 -4,-412 216,-412 216,5 -4,5"/>
<!-- Node1 -->
<g id="node1" class="node"><title>Node1</title>
<polygon fill="#bfbfbf" stroke="black" points="45.5,-0.5 45.5,-57.5 162.5,-57.5 162.5,-0.5 45.5,-0.5"/>
<text text-anchor="middle" x="104" y="-45.5" font-family="Helvetica,sans-Serif" font-size="10.00">xEventGroupDefinition</text>
<polyline fill="none" stroke="black" points="45.5,-38.5 162.5,-38.5 "/>
<text text-anchor="start" x="53.5" y="-26.5" font-family="Helvetica,sans-Serif" font-size="10.00">+ uxEventBits</text>
<polyline fill="none" stroke="black" points="45.5,-19.5 162.5,-19.5 "/>
<text text-anchor="middle" x="104" y="-7.5" font-family="Helvetica,sans-Serif" font-size="10.00"> </text>
</g>
<!-- Node2 -->
<g id="node2" class="node"><title>Node2</title>
<g id="a_node2"><a xlink:href="structx_l_i_s_t.html" target="_top" xlink:title="{xLIST\n|+ uxNumberOfItems\l|}">
<polygon fill="white" stroke="black" points="51,-106.5 51,-163.5 157,-163.5 157,-106.5 51,-106.5"/>
<text text-anchor="middle" x="104" y="-151.5" font-family="Helvetica,sans-Serif" font-size="10.00">xLIST</text>
<polyline fill="none" stroke="black" points="51,-144.5 157,-144.5 "/>
<text text-anchor="start" x="59" y="-132.5" font-family="Helvetica,sans-Serif" font-size="10.00">+ uxNumberOfItems</text>
<polyline fill="none" stroke="black" points="51,-125.5 157,-125.5 "/>
<text text-anchor="middle" x="104" y="-113.5" font-family="Helvetica,sans-Serif" font-size="10.00"> </text>
</a>
</g>
</g>
<!-- Node2&#45;&gt;Node1 -->
<g id="edge1" class="edge"><title>Node2&#45;&gt;Node1</title>
<path fill="none" stroke="#404040" d="M104,-106.403C104,-95.2373 104,-82.1304 104,-69.9556"/>
<polygon fill="none" stroke="#404040" points="104,-69.726 100,-63.726 104,-57.726 108,-63.726 104,-69.726"/>
<text text-anchor="middle" x="157" y="-79.5" font-family="Helvetica,sans-Serif" font-size="10.00"> +xTasksWaitingForBits</text>
</g>
<!-- Node3 -->
<g id="node3" class="node"><title>Node3</title>
<g id="a_node3"><a xlink:href="structx_m_i_n_i___l_i_s_t___i_t_e_m.html" target="_top" xlink:title="{xMINI_LIST_ITEM\n|+ xItemValue\l|}">
<polygon fill="white" stroke="black" points="-0.5,-212.5 -0.5,-269.5 98.5,-269.5 98.5,-212.5 -0.5,-212.5"/>
<text text-anchor="middle" x="49" y="-257.5" font-family="Helvetica,sans-Serif" font-size="10.00">xMINI_LIST_ITEM</text>
<polyline fill="none" stroke="black" points="-0.5,-250.5 98.5,-250.5 "/>
<text text-anchor="start" x="7.5" y="-238.5" font-family="Helvetica,sans-Serif" font-size="10.00">+ xItemValue</text>
<polyline fill="none" stroke="black" points="-0.5,-231.5 98.5,-231.5 "/>
<text text-anchor="middle" x="49" y="-219.5" font-family="Helvetica,sans-Serif" font-size="10.00"> </text>
</a>
</g>
</g>
<!-- Node3&#45;&gt;Node2 -->
<g id="edge2" class="edge"><title>Node3&#45;&gt;Node2</title>
<path fill="none" stroke="#404040" d="M59.7611,-212.4C63.8673,-202.626 68.816,-191.662 74,-182 75.3692,-179.448 76.8358,-176.854 78.3575,-174.264"/>
<polygon fill="none" stroke="#404040" points="78.5319,-173.98 78.265,-166.774 84.8142,-163.756 85.0811,-170.962 78.5319,-173.98"/>
<text text-anchor="middle" x="97.5" y="-185.5" font-family="Helvetica,sans-Serif" font-size="10.00"> +xListEnd</text>
</g>
<!-- Node4 -->
<g id="node4" class="node"><title>Node4</title>
<g id="a_node4"><a xlink:href="structx_l_i_s_t___i_t_e_m.html" target="_top" xlink:title="{xLIST_ITEM\n|+ xItemValue\l+ pvOwner\l+ pvContainer\l|}">
<polygon fill="white" stroke="black" points="55.5,-328.5 55.5,-407.5 134.5,-407.5 134.5,-328.5 55.5,-328.5"/>
<text text-anchor="middle" x="95" y="-395.5" font-family="Helvetica,sans-Serif" font-size="10.00">xLIST_ITEM</text>
<polyline fill="none" stroke="black" points="55.5,-388.5 134.5,-388.5 "/>
<text text-anchor="start" x="63.5" y="-376.5" font-family="Helvetica,sans-Serif" font-size="10.00">+ xItemValue</text>
<text text-anchor="start" x="63.5" y="-365.5" font-family="Helvetica,sans-Serif" font-size="10.00">+ pvOwner</text>
<text text-anchor="start" x="63.5" y="-354.5" font-family="Helvetica,sans-Serif" font-size="10.00">+ pvContainer</text>
<polyline fill="none" stroke="black" points="55.5,-347.5 134.5,-347.5 "/>
<text text-anchor="middle" x="95" y="-335.5" font-family="Helvetica,sans-Serif" font-size="10.00"> </text>
</a>
</g>
</g>
<!-- Node4&#45;&gt;Node3 -->
<g id="edge3" class="edge"><title>Node4&#45;&gt;Node3</title>
<path fill="none" stroke="#404040" d="M70.3068,-328.29C67.1757,-322.321 64.2768,-316.107 62,-310 58.6719,-301.073 56.1585,-291.155 54.2743,-281.715"/>
<polygon fill="none" stroke="#404040" points="54.2399,-281.521 49.2535,-276.312 52.1441,-269.705 57.1305,-274.914 54.2399,-281.521"/>
<text text-anchor="middle" x="91.5" y="-302" font-family="Helvetica,sans-Serif" font-size="10.00"> +pxPrevious</text>
<text text-anchor="middle" x="91.5" y="-291" font-family="Helvetica,sans-Serif" font-size="10.00">+pxNext</text>
</g>
<!-- Node4&#45;&gt;Node4 -->
<g id="edge4" class="edge"><title>Node4&#45;&gt;Node4</title>
<path fill="none" stroke="#404040" d="M134.69,-380.575C144.596,-379.696 152,-375.504 152,-368 152,-364.014 149.91,-360.962 146.466,-358.845"/>
<polygon fill="none" stroke="#404040" points="146.214,-358.772 139.337,-360.94 134.69,-355.425 141.568,-353.257 146.214,-358.772"/>
<text text-anchor="middle" x="181.5" y="-371" font-family="Helvetica,sans-Serif" font-size="10.00"> +pxPrevious</text>
<text text-anchor="middle" x="181.5" y="-360" font-family="Helvetica,sans-Serif" font-size="10.00">+pxNext</text>
</g>
<!-- Node4&#45;&gt;Node2 -->
<g id="edge5" class="edge"><title>Node4&#45;&gt;Node2</title>
<path fill="none" stroke="#404040" d="M115.321,-328.202C117.664,-322.245 119.684,-316.058 121,-310 133.08,-254.408 131.017,-238 121,-182 120.612,-179.831 120.129,-177.631 119.574,-175.428"/>
<polygon fill="none" stroke="#404040" points="119.524,-175.265 113.958,-170.68 116.049,-163.779 121.616,-168.363 119.524,-175.265"/>
<text text-anchor="middle" x="152" y="-238.5" font-family="Helvetica,sans-Serif" font-size="10.00"> +pxIndex</text>
</g>
</g>
</svg>
