<?xml version="1.0" encoding="UTF-8" standalone="no"?>
<!DOCTYPE svg PUBLIC "-//W3C//DTD SVG 1.1//EN"
 "http://www.w3.org/Graphics/SVG/1.1/DTD/svg11.dtd">
<!-- Generated by graphviz version 2.30.1 (20130221.2233)
 -->
<!-- Title: xThreadState Pages: 1 -->
<svg width="118pt" height="302pt"
 viewBox="0.00 0.00 118.00 302.00" xmlns="http://www.w3.org/2000/svg" xmlns:xlink="http://www.w3.org/1999/xlink">
<g id="graph0" class="graph" transform="scale(1 1) rotate(0) translate(4 298)">
<title>xThreadState</title>
<polygon fill="white" stroke="white" points="-4,5 -4,-298 115,-298 115,5 -4,5"/>
<!-- Node1 -->
<g id="node1" class="node"><title>Node1</title>
<polygon fill="#bfbfbf" stroke="black" points="16.5,-0.5 16.5,-57.5 93.5,-57.5 93.5,-0.5 16.5,-0.5"/>
<text text-anchor="middle" x="55" y="-45.5" font-family="Helvetica,sans-Serif" font-size="10.00">xThreadState</text>
<polyline fill="none" stroke="black" points="16.5,-38.5 93.5,-38.5 "/>
<text text-anchor="middle" x="55" y="-26.5" font-family="Helvetica,sans-Serif" font-size="10.00"> </text>
<polyline fill="none" stroke="black" points="16.5,-19.5 93.5,-19.5 "/>
<text text-anchor="middle" x="55" y="-7.5" font-family="Helvetica,sans-Serif" font-size="10.00"> </text>
</g>
<!-- Node2 -->
<g id="node2" class="node"><title>Node2</title>
<g id="a_node2"><a xlink:href="class_simulated_task.html" target="_top" xlink:title="{SimulatedTask\n|&#45; m_pxCode\l&#45; m_pvParameters\l&#45; s_totalNumThreads\l|+ SimulatedTask()\l# run()\l}">
<polygon fill="white" stroke="black" points="0,-107 0,-197 110,-197 110,-107 0,-107"/>
<text text-anchor="middle" x="55" y="-185" font-family="Helvetica,sans-Serif" font-size="10.00">SimulatedTask</text>
<polyline fill="none" stroke="black" points="0,-178 110,-178 "/>
<text text-anchor="start" x="8" y="-166" font-family="Helvetica,sans-Serif" font-size="10.00">&#45; m_pxCode</text>
<text text-anchor="start" x="8" y="-155" font-family="Helvetica,sans-Serif" font-size="10.00">&#45; m_pvParameters</text>
<text text-anchor="start" x="8" y="-144" font-family="Helvetica,sans-Serif" font-size="10.00">&#45; s_totalNumThreads</text>
<polyline fill="none" stroke="black" points="0,-137 110,-137 "/>
<text text-anchor="start" x="8" y="-125" font-family="Helvetica,sans-Serif" font-size="10.00">+ SimulatedTask()</text>
<text text-anchor="start" x="8" y="-114" font-family="Helvetica,sans-Serif" font-size="10.00"># run()</text>
</a>
</g>
</g>
<!-- Node2&#45;&gt;Node1 -->
<g id="edge1" class="edge"><title>Node2&#45;&gt;Node1</title>
<path fill="none" stroke="#404040" d="M55,-106.974C55,-94.8659 55,-81.8049 55,-69.941"/>
<polygon fill="none" stroke="#404040" points="55.0001,-69.639 51,-63.639 55,-57.639 59,-63.6389 55.0001,-69.639"/>
<text text-anchor="middle" x="80.5" y="-79.5" font-family="Helvetica,sans-Serif" font-size="10.00"> +pvThread</text>
</g>
<!-- Node3 -->
<g id="node3" class="node"><title>Node3</title>
<polygon fill="white" stroke="#bfbfbf" points="27,-236.5 27,-293.5 83,-293.5 83,-236.5 27,-236.5"/>
<text text-anchor="middle" x="55" y="-281.5" font-family="Helvetica,sans-Serif" font-size="10.00">QThread</text>
<polyline fill="none" stroke="#bfbfbf" points="27,-274.5 83,-274.5 "/>
<text text-anchor="middle" x="55" y="-262.5" font-family="Helvetica,sans-Serif" font-size="10.00"> </text>
<polyline fill="none" stroke="#bfbfbf" points="27,-255.5 83,-255.5 "/>
<text text-anchor="middle" x="55" y="-243.5" font-family="Helvetica,sans-Serif" font-size="10.00"> </text>
</g>
<!-- Node3&#45;&gt;Node2 -->
<g id="edge2" class="edge"><title>Node3&#45;&gt;Node2</title>
<path fill="none" stroke="midnightblue" d="M55,-226.141C55,-216.828 55,-206.776 55,-197.194"/>
<polygon fill="none" stroke="midnightblue" points="51.5001,-226.276 55,-236.276 58.5001,-226.276 51.5001,-226.276"/>
</g>
</g>
</svg>
