<?xml version="1.0" encoding="UTF-8" standalone="no"?>
<!DOCTYPE svg PUBLIC "-//W3C//DTD SVG 1.1//EN"
 "http://www.w3.org/Graphics/SVG/1.1/DTD/svg11.dtd">
<!-- Generated by graphviz version 2.30.1 (20130221.2233)
 -->
<!-- Title: _AT91S_PWMC Pages: 1 -->
<svg width="124pt" height="338pt"
 viewBox="0.00 0.00 124.00 338.00" xmlns="http://www.w3.org/2000/svg" xmlns:xlink="http://www.w3.org/1999/xlink">
<g id="graph0" class="graph" transform="scale(1 1) rotate(0) translate(4 334)">
<title>_AT91S_PWMC</title>
<polygon fill="white" stroke="white" points="-4,5 -4,-334 121,-334 121,5 -4,5"/>
<!-- Node1 -->
<g id="node1" class="node"><title>Node1</title>
<polygon fill="#bfbfbf" stroke="black" points="10,-0.5 10,-167.5 100,-167.5 100,-0.5 10,-0.5"/>
<text text-anchor="middle" x="55" y="-155.5" font-family="Helvetica,sans-Serif" font-size="10.00">_AT91S_PWMC</text>
<polyline fill="none" stroke="black" points="10,-148.5 100,-148.5 "/>
<text text-anchor="start" x="18" y="-136.5" font-family="Helvetica,sans-Serif" font-size="10.00">+ PWMC_MR</text>
<text text-anchor="start" x="18" y="-125.5" font-family="Helvetica,sans-Serif" font-size="10.00">+ PWMC_ENA</text>
<text text-anchor="start" x="18" y="-114.5" font-family="Helvetica,sans-Serif" font-size="10.00">+ PWMC_DIS</text>
<text text-anchor="start" x="18" y="-103.5" font-family="Helvetica,sans-Serif" font-size="10.00">+ PWMC_SR</text>
<text text-anchor="start" x="18" y="-92.5" font-family="Helvetica,sans-Serif" font-size="10.00">+ PWMC_IER</text>
<text text-anchor="start" x="18" y="-81.5" font-family="Helvetica,sans-Serif" font-size="10.00">+ PWMC_IDR</text>
<text text-anchor="start" x="18" y="-70.5" font-family="Helvetica,sans-Serif" font-size="10.00">+ PWMC_IMR</text>
<text text-anchor="start" x="18" y="-59.5" font-family="Helvetica,sans-Serif" font-size="10.00">+ PWMC_ISR</text>
<text text-anchor="start" x="18" y="-48.5" font-family="Helvetica,sans-Serif" font-size="10.00">+ Reserved0</text>
<text text-anchor="start" x="18" y="-37.5" font-family="Helvetica,sans-Serif" font-size="10.00">+ PWMC_VR</text>
<text text-anchor="start" x="18" y="-26.5" font-family="Helvetica,sans-Serif" font-size="10.00">+ Reserved1</text>
<polyline fill="none" stroke="black" points="10,-19.5 100,-19.5 "/>
<text text-anchor="middle" x="55" y="-7.5" font-family="Helvetica,sans-Serif" font-size="10.00"> </text>
</g>
<!-- Node2 -->
<g id="node2" class="node"><title>Node2</title>
<g id="a_node2"><a xlink:href="struct___a_t91_s___p_w_m_c___c_h.html" target="_top" xlink:title="{_AT91S_PWMC_CH\n|+ PWMC_CMR\l+ PWMC_CDTYR\l+ PWMC_CPRDR\l+ PWMC_CCNTR\l+ PWMC_CUPDR\l+ PWMC_Reserved\l|}">
<polygon fill="white" stroke="black" points="0,-217 0,-329 110,-329 110,-217 0,-217"/>
<text text-anchor="middle" x="55" y="-317" font-family="Helvetica,sans-Serif" font-size="10.00">_AT91S_PWMC_CH</text>
<polyline fill="none" stroke="black" points="0,-310 110,-310 "/>
<text text-anchor="start" x="8" y="-298" font-family="Helvetica,sans-Serif" font-size="10.00">+ PWMC_CMR</text>
<text text-anchor="start" x="8" y="-287" font-family="Helvetica,sans-Serif" font-size="10.00">+ PWMC_CDTYR</text>
<text text-anchor="start" x="8" y="-276" font-family="Helvetica,sans-Serif" font-size="10.00">+ PWMC_CPRDR</text>
<text text-anchor="start" x="8" y="-265" font-family="Helvetica,sans-Serif" font-size="10.00">+ PWMC_CCNTR</text>
<text text-anchor="start" x="8" y="-254" font-family="Helvetica,sans-Serif" font-size="10.00">+ PWMC_CUPDR</text>
<text text-anchor="start" x="8" y="-243" font-family="Helvetica,sans-Serif" font-size="10.00">+ PWMC_Reserved</text>
<polyline fill="none" stroke="black" points="0,-236 110,-236 "/>
<text text-anchor="middle" x="55" y="-224" font-family="Helvetica,sans-Serif" font-size="10.00"> </text>
</a>
</g>
</g>
<!-- Node2&#45;&gt;Node1 -->
<g id="edge1" class="edge"><title>Node2&#45;&gt;Node1</title>
<path fill="none" stroke="#404040" d="M55,-216.905C55,-205.23 55,-192.588 55,-179.912"/>
<polygon fill="none" stroke="#404040" points="55.0001,-179.778 51,-173.778 55,-167.778 59,-173.778 55.0001,-179.778"/>
<text text-anchor="middle" x="85.5" y="-189.5" font-family="Helvetica,sans-Serif" font-size="10.00"> +PWMC_CH</text>
</g>
</g>
</svg>
