<?xml version="1.0" encoding="UTF-8" standalone="no"?>
<!DOCTYPE svg PUBLIC "-//W3C//DTD SVG 1.1//EN"
 "http://www.w3.org/Graphics/SVG/1.1/DTD/svg11.dtd">
<!-- Generated by graphviz version 2.30.1 (20130221.2233)
 -->
<!-- Title: _AT91S_TCB Pages: 1 -->
<svg width="101pt" height="348pt"
 viewBox="0.00 0.00 101.00 348.00" xmlns="http://www.w3.org/2000/svg" xmlns:xlink="http://www.w3.org/1999/xlink">
<g id="graph0" class="graph" transform="scale(1 1) rotate(0) translate(4 344)">
<title>_AT91S_TCB</title>
<polygon fill="white" stroke="white" points="-4,5 -4,-344 98,-344 98,5 -4,5"/>
<!-- Node1 -->
<g id="node1" class="node"><title>Node1</title>
<polygon fill="#bfbfbf" stroke="black" points="0,-0.5 0,-101.5 78,-101.5 78,-0.5 0,-0.5"/>
<text text-anchor="middle" x="39" y="-89.5" font-family="Helvetica,sans-Serif" font-size="10.00">_AT91S_TCB</text>
<polyline fill="none" stroke="black" points="0,-82.5 78,-82.5 "/>
<text text-anchor="start" x="8" y="-70.5" font-family="Helvetica,sans-Serif" font-size="10.00">+ Reserved0</text>
<text text-anchor="start" x="8" y="-59.5" font-family="Helvetica,sans-Serif" font-size="10.00">+ Reserved1</text>
<text text-anchor="start" x="8" y="-48.5" font-family="Helvetica,sans-Serif" font-size="10.00">+ Reserved2</text>
<text text-anchor="start" x="8" y="-37.5" font-family="Helvetica,sans-Serif" font-size="10.00">+ TCB_BCR</text>
<text text-anchor="start" x="8" y="-26.5" font-family="Helvetica,sans-Serif" font-size="10.00">+ TCB_BMR</text>
<polyline fill="none" stroke="black" points="0,-19.5 78,-19.5 "/>
<text text-anchor="middle" x="39" y="-7.5" font-family="Helvetica,sans-Serif" font-size="10.00"> </text>
</g>
<!-- Node2 -->
<g id="node2" class="node"><title>Node2</title>
<g id="a_node2"><a xlink:href="struct___a_t91_s___t_c.html" target="_top" xlink:title="{_AT91S_TC\n|+ TC_CCR\l+ TC_CMR\l+ Reserved0\l+ TC_CV\l+ TC_RA\l+ TC_RB\l+ TC_RC\l+ TC_SR\l+ TC_IER\l+ TC_IDR\l+ TC_IMR\l|}">
<polygon fill="white" stroke="black" points="2.5,-172.5 2.5,-339.5 75.5,-339.5 75.5,-172.5 2.5,-172.5"/>
<text text-anchor="middle" x="39" y="-327.5" font-family="Helvetica,sans-Serif" font-size="10.00">_AT91S_TC</text>
<polyline fill="none" stroke="black" points="2.5,-320.5 75.5,-320.5 "/>
<text text-anchor="start" x="10.5" y="-308.5" font-family="Helvetica,sans-Serif" font-size="10.00">+ TC_CCR</text>
<text text-anchor="start" x="10.5" y="-297.5" font-family="Helvetica,sans-Serif" font-size="10.00">+ TC_CMR</text>
<text text-anchor="start" x="10.5" y="-286.5" font-family="Helvetica,sans-Serif" font-size="10.00">+ Reserved0</text>
<text text-anchor="start" x="10.5" y="-275.5" font-family="Helvetica,sans-Serif" font-size="10.00">+ TC_CV</text>
<text text-anchor="start" x="10.5" y="-264.5" font-family="Helvetica,sans-Serif" font-size="10.00">+ TC_RA</text>
<text text-anchor="start" x="10.5" y="-253.5" font-family="Helvetica,sans-Serif" font-size="10.00">+ TC_RB</text>
<text text-anchor="start" x="10.5" y="-242.5" font-family="Helvetica,sans-Serif" font-size="10.00">+ TC_RC</text>
<text text-anchor="start" x="10.5" y="-231.5" font-family="Helvetica,sans-Serif" font-size="10.00">+ TC_SR</text>
<text text-anchor="start" x="10.5" y="-220.5" font-family="Helvetica,sans-Serif" font-size="10.00">+ TC_IER</text>
<text text-anchor="start" x="10.5" y="-209.5" font-family="Helvetica,sans-Serif" font-size="10.00">+ TC_IDR</text>
<text text-anchor="start" x="10.5" y="-198.5" font-family="Helvetica,sans-Serif" font-size="10.00">+ TC_IMR</text>
<polyline fill="none" stroke="black" points="2.5,-191.5 75.5,-191.5 "/>
<text text-anchor="middle" x="39" y="-179.5" font-family="Helvetica,sans-Serif" font-size="10.00"> </text>
</a>
</g>
</g>
<!-- Node2&#45;&gt;Node1 -->
<g id="edge1" class="edge"><title>Node2&#45;&gt;Node1</title>
<path fill="none" stroke="#404040" d="M39,-172.432C39,-152.806 39,-132.201 39,-113.694"/>
<polygon fill="none" stroke="#404040" points="39.0001,-113.562 35,-107.562 39,-101.562 43,-107.562 39.0001,-113.562"/>
<text text-anchor="middle" x="66" y="-145.5" font-family="Helvetica,sans-Serif" font-size="10.00"> +TCB_TC0</text>
<text text-anchor="middle" x="66" y="-134.5" font-family="Helvetica,sans-Serif" font-size="10.00">+TCB_TC1</text>
<text text-anchor="middle" x="66" y="-123.5" font-family="Helvetica,sans-Serif" font-size="10.00">+TCB_TC2</text>
</g>
</g>
</svg>
