<?xml version="1.0" encoding="UTF-8" standalone="no"?>
<!DOCTYPE svg PUBLIC "-//W3C//DTD SVG 1.1//EN"
 "http://www.w3.org/Graphics/SVG/1.1/DTD/svg11.dtd">
<!-- Generated by graphviz version 2.30.1 (20130221.2233)
 -->
<!-- Title: tskTaskControlBlock Pages: 1 -->
<svg width="178pt" height="238pt"
 viewBox="0.00 0.00 178.00 238.00" xmlns="http://www.w3.org/2000/svg" xmlns:xlink="http://www.w3.org/1999/xlink">
<g id="graph0" class="graph" transform="scale(1 1) rotate(0) translate(4 234)">
<title>tskTaskControlBlock</title>
<polygon fill="white" stroke="white" points="-4,5 -4,-234 175,-234 175,5 -4,5"/>
<!-- Node1 -->
<g id="node1" class="node"><title>Node1</title>
<polygon fill="#bfbfbf" stroke="black" points="0,-1 0,-91 108,-91 108,-1 0,-1"/>
<text text-anchor="middle" x="54" y="-79" font-family="Helvetica,sans-Serif" font-size="10.00">tskTaskControlBlock</text>
<polyline fill="none" stroke="black" points="0,-72 108,-72 "/>
<text text-anchor="start" x="8" y="-60" font-family="Helvetica,sans-Serif" font-size="10.00">+ pxTopOfStack</text>
<text text-anchor="start" x="8" y="-49" font-family="Helvetica,sans-Serif" font-size="10.00">+ uxPriority</text>
<text text-anchor="start" x="8" y="-38" font-family="Helvetica,sans-Serif" font-size="10.00">+ pxStack</text>
<text text-anchor="start" x="8" y="-27" font-family="Helvetica,sans-Serif" font-size="10.00">+ pcTaskName</text>
<polyline fill="none" stroke="black" points="0,-20 108,-20 "/>
<text text-anchor="middle" x="54" y="-8" font-family="Helvetica,sans-Serif" font-size="10.00"> </text>
</g>
<!-- Node2 -->
<g id="node2" class="node"><title>Node2</title>
<g id="a_node2"><a xlink:href="structx_l_i_s_t___i_t_e_m.html" target="_top" xlink:title="{xLIST_ITEM\n|+ xItemValue\l+ pvOwner\l+ pvContainer\l|}">
<polygon fill="white" stroke="black" points="14.5,-150.5 14.5,-229.5 93.5,-229.5 93.5,-150.5 14.5,-150.5"/>
<text text-anchor="middle" x="54" y="-217.5" font-family="Helvetica,sans-Serif" font-size="10.00">xLIST_ITEM</text>
<polyline fill="none" stroke="black" points="14.5,-210.5 93.5,-210.5 "/>
<text text-anchor="start" x="22.5" y="-198.5" font-family="Helvetica,sans-Serif" font-size="10.00">+ xItemValue</text>
<text text-anchor="start" x="22.5" y="-187.5" font-family="Helvetica,sans-Serif" font-size="10.00">+ pvOwner</text>
<text text-anchor="start" x="22.5" y="-176.5" font-family="Helvetica,sans-Serif" font-size="10.00">+ pvContainer</text>
<polyline fill="none" stroke="black" points="14.5,-169.5 93.5,-169.5 "/>
<text text-anchor="middle" x="54" y="-157.5" font-family="Helvetica,sans-Serif" font-size="10.00"> </text>
</a>
</g>
</g>
<!-- Node2&#45;&gt;Node1 -->
<g id="edge1" class="edge"><title>Node2&#45;&gt;Node1</title>
<path fill="none" stroke="#404040" d="M54,-150.198C54,-135.749 54,-119.042 54,-103.337"/>
<polygon fill="none" stroke="#404040" points="54.0001,-103.018 50,-97.0179 54,-91.0178 58,-97.0178 54.0001,-103.018"/>
<text text-anchor="middle" x="96" y="-124" font-family="Helvetica,sans-Serif" font-size="10.00"> +xGenericListItem</text>
<text text-anchor="middle" x="96" y="-113" font-family="Helvetica,sans-Serif" font-size="10.00">+xEventListItem</text>
</g>
<!-- Node2&#45;&gt;Node2 -->
<g id="edge2" class="edge"><title>Node2&#45;&gt;Node2</title>
<path fill="none" stroke="#404040" d="M93.6905,-202.575C103.596,-201.696 111,-197.504 111,-190 111,-186.014 108.91,-182.962 105.466,-180.845"/>
<polygon fill="none" stroke="#404040" points="105.214,-180.772 98.3368,-182.94 93.6905,-177.425 100.568,-175.257 105.214,-180.772"/>
<text text-anchor="middle" x="140.5" y="-193" font-family="Helvetica,sans-Serif" font-size="10.00"> +pxPrevious</text>
<text text-anchor="middle" x="140.5" y="-182" font-family="Helvetica,sans-Serif" font-size="10.00">+pxNext</text>
</g>
</g>
</svg>
