<?xml version="1.0" encoding="UTF-8" standalone="no"?>
<!DOCTYPE svg PUBLIC "-//W3C//DTD SVG 1.1//EN"
 "http://www.w3.org/Graphics/SVG/1.1/DTD/svg11.dtd">
<!-- Generated by graphviz version 2.30.1 (20130221.2233)
 -->
<!-- Title: xMINI_LIST_ITEM Pages: 1 -->
<svg width="173pt" height="204pt"
 viewBox="0.00 0.00 173.00 204.00" xmlns="http://www.w3.org/2000/svg" xmlns:xlink="http://www.w3.org/1999/xlink">
<g id="graph0" class="graph" transform="scale(1 1) rotate(0) translate(4 200)">
<title>xMINI_LIST_ITEM</title>
<polygon fill="white" stroke="white" points="-4,5 -4,-200 170,-200 170,5 -4,5"/>
<!-- Node1 -->
<g id="node1" class="node"><title>Node1</title>
<polygon fill="#bfbfbf" stroke="black" points="-0.5,-0.5 -0.5,-57.5 98.5,-57.5 98.5,-0.5 -0.5,-0.5"/>
<text text-anchor="middle" x="49" y="-45.5" font-family="Helvetica,sans-Serif" font-size="10.00">xMINI_LIST_ITEM</text>
<polyline fill="none" stroke="black" points="-0.5,-38.5 98.5,-38.5 "/>
<text text-anchor="start" x="7.5" y="-26.5" font-family="Helvetica,sans-Serif" font-size="10.00">+ xItemValue</text>
<polyline fill="none" stroke="black" points="-0.5,-19.5 98.5,-19.5 "/>
<text text-anchor="middle" x="49" y="-7.5" font-family="Helvetica,sans-Serif" font-size="10.00"> </text>
</g>
<!-- Node2 -->
<g id="node2" class="node"><title>Node2</title>
<g id="a_node2"><a xlink:href="structx_l_i_s_t___i_t_e_m.html" target="_top" xlink:title="{xLIST_ITEM\n|+ xItemValue\l+ pvOwner\l+ pvContainer\l|}">
<polygon fill="white" stroke="black" points="9.5,-116.5 9.5,-195.5 88.5,-195.5 88.5,-116.5 9.5,-116.5"/>
<text text-anchor="middle" x="49" y="-183.5" font-family="Helvetica,sans-Serif" font-size="10.00">xLIST_ITEM</text>
<polyline fill="none" stroke="black" points="9.5,-176.5 88.5,-176.5 "/>
<text text-anchor="start" x="17.5" y="-164.5" font-family="Helvetica,sans-Serif" font-size="10.00">+ xItemValue</text>
<text text-anchor="start" x="17.5" y="-153.5" font-family="Helvetica,sans-Serif" font-size="10.00">+ pvOwner</text>
<text text-anchor="start" x="17.5" y="-142.5" font-family="Helvetica,sans-Serif" font-size="10.00">+ pvContainer</text>
<polyline fill="none" stroke="black" points="9.5,-135.5 88.5,-135.5 "/>
<text text-anchor="middle" x="49" y="-123.5" font-family="Helvetica,sans-Serif" font-size="10.00"> </text>
</a>
</g>
</g>
<!-- Node2&#45;&gt;Node1 -->
<g id="edge1" class="edge"><title>Node2&#45;&gt;Node1</title>
<path fill="none" stroke="#404040" d="M49,-116.476C49,-101.829 49,-85.1107 49,-70.3031"/>
<polygon fill="none" stroke="#404040" points="49.0001,-69.8823 45,-63.8823 49,-57.8823 53,-63.8823 49.0001,-69.8823"/>
<text text-anchor="middle" x="78.5" y="-90" font-family="Helvetica,sans-Serif" font-size="10.00"> +pxPrevious</text>
<text text-anchor="middle" x="78.5" y="-79" font-family="Helvetica,sans-Serif" font-size="10.00">+pxNext</text>
</g>
<!-- Node2&#45;&gt;Node2 -->
<g id="edge2" class="edge"><title>Node2&#45;&gt;Node2</title>
<path fill="none" stroke="#404040" d="M88.6905,-168.575C98.5961,-167.696 106,-163.504 106,-156 106,-152.014 103.91,-148.962 100.466,-146.845"/>
<polygon fill="none" stroke="#404040" points="100.214,-146.772 93.3368,-148.94 88.6905,-143.425 95.568,-141.257 100.214,-146.772"/>
<text text-anchor="middle" x="135.5" y="-159" font-family="Helvetica,sans-Serif" font-size="10.00"> +pxPrevious</text>
<text text-anchor="middle" x="135.5" y="-148" font-family="Helvetica,sans-Serif" font-size="10.00">+pxNext</text>
</g>
</g>
</svg>
