<?xml version="1.0" encoding="UTF-8" standalone="no"?>
<!DOCTYPE svg PUBLIC "-//W3C//DTD SVG 1.1//EN"
 "http://www.w3.org/Graphics/SVG/1.1/DTD/svg11.dtd">
<!-- Generated by graphviz version 2.30.1 (20130221.2233)
 -->
<!-- Title: QueueDefinition Pages: 1 -->
<svg width="231pt" height="536pt"
 viewBox="0.00 0.00 231.00 536.00" xmlns="http://www.w3.org/2000/svg" xmlns:xlink="http://www.w3.org/1999/xlink">
<g id="graph0" class="graph" transform="scale(1 1) rotate(0) translate(4 532)">
<title>QueueDefinition</title>
<polygon fill="white" stroke="white" points="-4,5 -4,-532 228,-532 228,5 -4,5"/>
<!-- Node1 -->
<g id="node1" class="node"><title>Node1</title>
<polygon fill="#bfbfbf" stroke="black" points="42,-0.5 42,-167.5 166,-167.5 166,-0.5 42,-0.5"/>
<text text-anchor="middle" x="104" y="-155.5" font-family="Helvetica,sans-Serif" font-size="10.00">QueueDefinition</text>
<polyline fill="none" stroke="black" points="42,-148.5 166,-148.5 "/>
<text text-anchor="start" x="50" y="-136.5" font-family="Helvetica,sans-Serif" font-size="10.00">+ pcHead</text>
<text text-anchor="start" x="50" y="-125.5" font-family="Helvetica,sans-Serif" font-size="10.00">+ pcTail</text>
<text text-anchor="start" x="50" y="-114.5" font-family="Helvetica,sans-Serif" font-size="10.00">+ pcWriteTo</text>
<text text-anchor="start" x="50" y="-103.5" font-family="Helvetica,sans-Serif" font-size="10.00">+ pcReadFrom</text>
<text text-anchor="start" x="50" y="-92.5" font-family="Helvetica,sans-Serif" font-size="10.00">+ uxRecursiveCallCount</text>
<text text-anchor="start" x="50" y="-81.5" font-family="Helvetica,sans-Serif" font-size="10.00">+ u</text>
<text text-anchor="start" x="50" y="-70.5" font-family="Helvetica,sans-Serif" font-size="10.00">+ uxMessagesWaiting</text>
<text text-anchor="start" x="50" y="-59.5" font-family="Helvetica,sans-Serif" font-size="10.00">+ uxLength</text>
<text text-anchor="start" x="50" y="-48.5" font-family="Helvetica,sans-Serif" font-size="10.00">+ uxItemSize</text>
<text text-anchor="start" x="50" y="-37.5" font-family="Helvetica,sans-Serif" font-size="10.00">+ xRxLock</text>
<text text-anchor="start" x="50" y="-26.5" font-family="Helvetica,sans-Serif" font-size="10.00">+ xTxLock</text>
<polyline fill="none" stroke="black" points="42,-19.5 166,-19.5 "/>
<text text-anchor="middle" x="104" y="-7.5" font-family="Helvetica,sans-Serif" font-size="10.00"> </text>
</g>
<!-- Node2 -->
<g id="node2" class="node"><title>Node2</title>
<g id="a_node2"><a xlink:href="structx_l_i_s_t.html" target="_top" xlink:title="{xLIST\n|+ uxNumberOfItems\l|}">
<polygon fill="white" stroke="black" points="51,-226.5 51,-283.5 157,-283.5 157,-226.5 51,-226.5"/>
<text text-anchor="middle" x="104" y="-271.5" font-family="Helvetica,sans-Serif" font-size="10.00">xLIST</text>
<polyline fill="none" stroke="black" points="51,-264.5 157,-264.5 "/>
<text text-anchor="start" x="59" y="-252.5" font-family="Helvetica,sans-Serif" font-size="10.00">+ uxNumberOfItems</text>
<polyline fill="none" stroke="black" points="51,-245.5 157,-245.5 "/>
<text text-anchor="middle" x="104" y="-233.5" font-family="Helvetica,sans-Serif" font-size="10.00"> </text>
</a>
</g>
</g>
<!-- Node2&#45;&gt;Node1 -->
<g id="edge1" class="edge"><title>Node2&#45;&gt;Node1</title>
<path fill="none" stroke="#404040" d="M104,-226.471C104,-213.45 104,-197.052 104,-180.075"/>
<polygon fill="none" stroke="#404040" points="104,-179.65 100,-173.65 104,-167.65 108,-173.65 104,-179.65"/>
<text text-anchor="middle" x="163.5" y="-200" font-family="Helvetica,sans-Serif" font-size="10.00"> +xTasksWaitingToSend</text>
<text text-anchor="middle" x="163.5" y="-189" font-family="Helvetica,sans-Serif" font-size="10.00">+xTasksWaitingToReceive</text>
</g>
<!-- Node3 -->
<g id="node3" class="node"><title>Node3</title>
<g id="a_node3"><a xlink:href="structx_m_i_n_i___l_i_s_t___i_t_e_m.html" target="_top" xlink:title="{xMINI_LIST_ITEM\n|+ xItemValue\l|}">
<polygon fill="white" stroke="black" points="-0.5,-332.5 -0.5,-389.5 98.5,-389.5 98.5,-332.5 -0.5,-332.5"/>
<text text-anchor="middle" x="49" y="-377.5" font-family="Helvetica,sans-Serif" font-size="10.00">xMINI_LIST_ITEM</text>
<polyline fill="none" stroke="black" points="-0.5,-370.5 98.5,-370.5 "/>
<text text-anchor="start" x="7.5" y="-358.5" font-family="Helvetica,sans-Serif" font-size="10.00">+ xItemValue</text>
<polyline fill="none" stroke="black" points="-0.5,-351.5 98.5,-351.5 "/>
<text text-anchor="middle" x="49" y="-339.5" font-family="Helvetica,sans-Serif" font-size="10.00"> </text>
</a>
</g>
</g>
<!-- Node3&#45;&gt;Node2 -->
<g id="edge2" class="edge"><title>Node3&#45;&gt;Node2</title>
<path fill="none" stroke="#404040" d="M59.7611,-332.4C63.8673,-322.626 68.816,-311.662 74,-302 75.3692,-299.448 76.8358,-296.854 78.3575,-294.264"/>
<polygon fill="none" stroke="#404040" points="78.5319,-293.98 78.265,-286.774 84.8142,-283.756 85.0811,-290.962 78.5319,-293.98"/>
<text text-anchor="middle" x="97.5" y="-305.5" font-family="Helvetica,sans-Serif" font-size="10.00"> +xListEnd</text>
</g>
<!-- Node4 -->
<g id="node4" class="node"><title>Node4</title>
<g id="a_node4"><a xlink:href="structx_l_i_s_t___i_t_e_m.html" target="_top" xlink:title="{xLIST_ITEM\n|+ xItemValue\l+ pvOwner\l+ pvContainer\l|}">
<polygon fill="white" stroke="black" points="55.5,-448.5 55.5,-527.5 134.5,-527.5 134.5,-448.5 55.5,-448.5"/>
<text text-anchor="middle" x="95" y="-515.5" font-family="Helvetica,sans-Serif" font-size="10.00">xLIST_ITEM</text>
<polyline fill="none" stroke="black" points="55.5,-508.5 134.5,-508.5 "/>
<text text-anchor="start" x="63.5" y="-496.5" font-family="Helvetica,sans-Serif" font-size="10.00">+ xItemValue</text>
<text text-anchor="start" x="63.5" y="-485.5" font-family="Helvetica,sans-Serif" font-size="10.00">+ pvOwner</text>
<text text-anchor="start" x="63.5" y="-474.5" font-family="Helvetica,sans-Serif" font-size="10.00">+ pvContainer</text>
<polyline fill="none" stroke="black" points="55.5,-467.5 134.5,-467.5 "/>
<text text-anchor="middle" x="95" y="-455.5" font-family="Helvetica,sans-Serif" font-size="10.00"> </text>
</a>
</g>
</g>
<!-- Node4&#45;&gt;Node3 -->
<g id="edge3" class="edge"><title>Node4&#45;&gt;Node3</title>
<path fill="none" stroke="#404040" d="M70.3068,-448.29C67.1757,-442.321 64.2768,-436.107 62,-430 58.6719,-421.073 56.1585,-411.155 54.2743,-401.715"/>
<polygon fill="none" stroke="#404040" points="54.2399,-401.521 49.2535,-396.312 52.1441,-389.705 57.1305,-394.914 54.2399,-401.521"/>
<text text-anchor="middle" x="91.5" y="-422" font-family="Helvetica,sans-Serif" font-size="10.00"> +pxPrevious</text>
<text text-anchor="middle" x="91.5" y="-411" font-family="Helvetica,sans-Serif" font-size="10.00">+pxNext</text>
</g>
<!-- Node4&#45;&gt;Node4 -->
<g id="edge4" class="edge"><title>Node4&#45;&gt;Node4</title>
<path fill="none" stroke="#404040" d="M134.69,-500.575C144.596,-499.696 152,-495.504 152,-488 152,-484.014 149.91,-480.962 146.466,-478.845"/>
<polygon fill="none" stroke="#404040" points="146.214,-478.772 139.337,-480.94 134.69,-475.425 141.568,-473.257 146.214,-478.772"/>
<text text-anchor="middle" x="181.5" y="-491" font-family="Helvetica,sans-Serif" font-size="10.00"> +pxPrevious</text>
<text text-anchor="middle" x="181.5" y="-480" font-family="Helvetica,sans-Serif" font-size="10.00">+pxNext</text>
</g>
<!-- Node4&#45;&gt;Node2 -->
<g id="edge5" class="edge"><title>Node4&#45;&gt;Node2</title>
<path fill="none" stroke="#404040" d="M115.321,-448.202C117.664,-442.245 119.684,-436.058 121,-430 133.08,-374.408 131.017,-358 121,-302 120.612,-299.831 120.129,-297.631 119.574,-295.428"/>
<polygon fill="none" stroke="#404040" points="119.524,-295.265 113.958,-290.68 116.049,-283.779 121.616,-288.363 119.524,-295.265"/>
<text text-anchor="middle" x="152" y="-358.5" font-family="Helvetica,sans-Serif" font-size="10.00"> +pxIndex</text>
</g>
</g>
</svg>
