<?xml version="1.0" encoding="UTF-8" standalone="no"?>
<!DOCTYPE svg PUBLIC "-//W3C//DTD SVG 1.1//EN"
 "http://www.w3.org/Graphics/SVG/1.1/DTD/svg11.dtd">
<!-- Generated by graphviz version 2.30.1 (20130221.2233)
 -->
<!-- Title: MPU_SETTINGS Pages: 1 -->
<svg width="154pt" height="184pt"
 viewBox="0.00 0.00 154.00 184.00" xmlns="http://www.w3.org/2000/svg" xmlns:xlink="http://www.w3.org/1999/xlink">
<g id="graph0" class="graph" transform="scale(1 1) rotate(0) translate(4 180)">
<title>MPU_SETTINGS</title>
<polygon fill="white" stroke="white" points="-4,5 -4,-180 151,-180 151,5 -4,5"/>
<!-- Node1 -->
<g id="node1" class="node"><title>Node1</title>
<polygon fill="#bfbfbf" stroke="black" points="26,-0.5 26,-57.5 120,-57.5 120,-0.5 26,-0.5"/>
<text text-anchor="middle" x="73" y="-45.5" font-family="Helvetica,sans-Serif" font-size="10.00">MPU_SETTINGS</text>
<polyline fill="none" stroke="black" points="26,-38.5 120,-38.5 "/>
<text text-anchor="start" x="34" y="-26.5" font-family="Helvetica,sans-Serif" font-size="10.00">+ ulNotUsed</text>
<polyline fill="none" stroke="black" points="26,-19.5 120,-19.5 "/>
<text text-anchor="middle" x="73" y="-7.5" font-family="Helvetica,sans-Serif" font-size="10.00"> </text>
</g>
<!-- Node2 -->
<g id="node2" class="node"><title>Node2</title>
<g id="a_node2"><a xlink:href="struct_m_p_u___r_e_g_i_o_n___r_e_g_i_s_t_e_r_s.html" target="_top" xlink:title="{MPU_REGION_REGISTERS\n|+ ulRegionBaseAddress\l+ ulRegionAttribute\l|}">
<polygon fill="white" stroke="black" points="-0.5,-107 -0.5,-175 146.5,-175 146.5,-107 -0.5,-107"/>
<text text-anchor="middle" x="73" y="-163" font-family="Helvetica,sans-Serif" font-size="10.00">MPU_REGION_REGISTERS</text>
<polyline fill="none" stroke="black" points="-0.5,-156 146.5,-156 "/>
<text text-anchor="start" x="7.5" y="-144" font-family="Helvetica,sans-Serif" font-size="10.00">+ ulRegionBaseAddress</text>
<text text-anchor="start" x="7.5" y="-133" font-family="Helvetica,sans-Serif" font-size="10.00">+ ulRegionAttribute</text>
<polyline fill="none" stroke="black" points="-0.5,-126 146.5,-126 "/>
<text text-anchor="middle" x="73" y="-114" font-family="Helvetica,sans-Serif" font-size="10.00"> </text>
</a>
</g>
</g>
<!-- Node2&#45;&gt;Node1 -->
<g id="edge1" class="edge"><title>Node2&#45;&gt;Node1</title>
<path fill="none" stroke="#404040" d="M73,-106.996C73,-95.3482 73,-82.1242 73,-69.9627"/>
<polygon fill="none" stroke="#404040" points="73.0001,-69.7843 69,-63.7843 73,-57.7843 77,-63.7843 73.0001,-69.7843"/>
<text text-anchor="middle" x="96" y="-79.5" font-family="Helvetica,sans-Serif" font-size="10.00"> +xRegion</text>
</g>
</g>
</svg>
