<?xml version="1.0" encoding="UTF-8" standalone="no"?>
<!DOCTYPE svg PUBLIC "-//W3C//DTD SVG 1.1//EN"
 "http://www.w3.org/Graphics/SVG/1.1/DTD/svg11.dtd">
<!-- Generated by graphviz version 2.30.1 (20130221.2233)
 -->
<!-- Title: xLIST Pages: 1 -->
<svg width="219pt" height="310pt"
 viewBox="0.00 0.00 219.00 310.00" xmlns="http://www.w3.org/2000/svg" xmlns:xlink="http://www.w3.org/1999/xlink">
<g id="graph0" class="graph" transform="scale(1 1) rotate(0) translate(4 306)">
<title>xLIST</title>
<polygon fill="white" stroke="white" points="-4,5 -4,-306 216,-306 216,5 -4,5"/>
<!-- Node1 -->
<g id="node1" class="node"><title>Node1</title>
<polygon fill="#bfbfbf" stroke="black" points="51,-0.5 51,-57.5 157,-57.5 157,-0.5 51,-0.5"/>
<text text-anchor="middle" x="104" y="-45.5" font-family="Helvetica,sans-Serif" font-size="10.00">xLIST</text>
<polyline fill="none" stroke="black" points="51,-38.5 157,-38.5 "/>
<text text-anchor="start" x="59" y="-26.5" font-family="Helvetica,sans-Serif" font-size="10.00">+ uxNumberOfItems</text>
<polyline fill="none" stroke="black" points="51,-19.5 157,-19.5 "/>
<text text-anchor="middle" x="104" y="-7.5" font-family="Helvetica,sans-Serif" font-size="10.00"> </text>
</g>
<!-- Node2 -->
<g id="node2" class="node"><title>Node2</title>
<g id="a_node2"><a xlink:href="structx_m_i_n_i___l_i_s_t___i_t_e_m.html" target="_top" xlink:title="{xMINI_LIST_ITEM\n|+ xItemValue\l|}">
<polygon fill="white" stroke="black" points="-0.5,-106.5 -0.5,-163.5 98.5,-163.5 98.5,-106.5 -0.5,-106.5"/>
<text text-anchor="middle" x="49" y="-151.5" font-family="Helvetica,sans-Serif" font-size="10.00">xMINI_LIST_ITEM</text>
<polyline fill="none" stroke="black" points="-0.5,-144.5 98.5,-144.5 "/>
<text text-anchor="start" x="7.5" y="-132.5" font-family="Helvetica,sans-Serif" font-size="10.00">+ xItemValue</text>
<polyline fill="none" stroke="black" points="-0.5,-125.5 98.5,-125.5 "/>
<text text-anchor="middle" x="49" y="-113.5" font-family="Helvetica,sans-Serif" font-size="10.00"> </text>
</a>
</g>
</g>
<!-- Node2&#45;&gt;Node1 -->
<g id="edge1" class="edge"><title>Node2&#45;&gt;Node1</title>
<path fill="none" stroke="#404040" d="M59.7611,-106.4C63.8673,-96.6259 68.816,-85.6622 74,-76 75.3692,-73.448 76.8358,-70.854 78.3575,-68.2639"/>
<polygon fill="none" stroke="#404040" points="78.5319,-67.98 78.265,-60.7738 84.8142,-57.7558 85.0811,-64.962 78.5319,-67.98"/>
<text text-anchor="middle" x="97.5" y="-79.5" font-family="Helvetica,sans-Serif" font-size="10.00"> +xListEnd</text>
</g>
<!-- Node3 -->
<g id="node3" class="node"><title>Node3</title>
<g id="a_node3"><a xlink:href="structx_l_i_s_t___i_t_e_m.html" target="_top" xlink:title="{xLIST_ITEM\n|+ xItemValue\l+ pvOwner\l+ pvContainer\l|}">
<polygon fill="white" stroke="black" points="55.5,-222.5 55.5,-301.5 134.5,-301.5 134.5,-222.5 55.5,-222.5"/>
<text text-anchor="middle" x="95" y="-289.5" font-family="Helvetica,sans-Serif" font-size="10.00">xLIST_ITEM</text>
<polyline fill="none" stroke="black" points="55.5,-282.5 134.5,-282.5 "/>
<text text-anchor="start" x="63.5" y="-270.5" font-family="Helvetica,sans-Serif" font-size="10.00">+ xItemValue</text>
<text text-anchor="start" x="63.5" y="-259.5" font-family="Helvetica,sans-Serif" font-size="10.00">+ pvOwner</text>
<text text-anchor="start" x="63.5" y="-248.5" font-family="Helvetica,sans-Serif" font-size="10.00">+ pvContainer</text>
<polyline fill="none" stroke="black" points="55.5,-241.5 134.5,-241.5 "/>
<text text-anchor="middle" x="95" y="-229.5" font-family="Helvetica,sans-Serif" font-size="10.00"> </text>
</a>
</g>
</g>
<!-- Node3&#45;&gt;Node2 -->
<g id="edge2" class="edge"><title>Node3&#45;&gt;Node2</title>
<path fill="none" stroke="#404040" d="M70.3068,-222.29C67.1757,-216.321 64.2768,-210.107 62,-204 58.6719,-195.073 56.1585,-185.155 54.2743,-175.715"/>
<polygon fill="none" stroke="#404040" points="54.2399,-175.521 49.2535,-170.312 52.1441,-163.705 57.1305,-168.914 54.2399,-175.521"/>
<text text-anchor="middle" x="91.5" y="-196" font-family="Helvetica,sans-Serif" font-size="10.00"> +pxPrevious</text>
<text text-anchor="middle" x="91.5" y="-185" font-family="Helvetica,sans-Serif" font-size="10.00">+pxNext</text>
</g>
<!-- Node3&#45;&gt;Node3 -->
<g id="edge3" class="edge"><title>Node3&#45;&gt;Node3</title>
<path fill="none" stroke="#404040" d="M134.69,-274.575C144.596,-273.696 152,-269.504 152,-262 152,-258.014 149.91,-254.962 146.466,-252.845"/>
<polygon fill="none" stroke="#404040" points="146.214,-252.772 139.337,-254.94 134.69,-249.425 141.568,-247.257 146.214,-252.772"/>
<text text-anchor="middle" x="181.5" y="-265" font-family="Helvetica,sans-Serif" font-size="10.00"> +pxPrevious</text>
<text text-anchor="middle" x="181.5" y="-254" font-family="Helvetica,sans-Serif" font-size="10.00">+pxNext</text>
</g>
<!-- Node3&#45;&gt;Node1 -->
<g id="edge4" class="edge"><title>Node3&#45;&gt;Node1</title>
<path fill="none" stroke="#404040" d="M115.321,-222.202C117.664,-216.245 119.684,-210.058 121,-204 133.08,-148.408 131.017,-132 121,-76 120.612,-73.8314 120.129,-71.6313 119.574,-69.4281"/>
<polygon fill="none" stroke="#404040" points="119.524,-69.2646 113.958,-64.68 116.049,-57.7787 121.616,-62.3633 119.524,-69.2646"/>
<text text-anchor="middle" x="152" y="-132.5" font-family="Helvetica,sans-Serif" font-size="10.00"> +pxIndex</text>
</g>
</g>
</svg>
