<?xml version="1.0" encoding="UTF-8" standalone="no"?>
<!DOCTYPE svg PUBLIC "-//W3C//DTD SVG 1.1//EN"
 "http://www.w3.org/Graphics/SVG/1.1/DTD/svg11.dtd">
<!-- Generated by graphviz version 2.30.1 (20130221.2233)
 -->
<!-- Title: xTASK_PARAMETERS Pages: 1 -->
<svg width="130pt" height="250pt"
 viewBox="0.00 0.00 130.00 250.00" xmlns="http://www.w3.org/2000/svg" xmlns:xlink="http://www.w3.org/1999/xlink">
<g id="graph0" class="graph" transform="scale(1 1) rotate(0) translate(4 246)">
<title>xTASK_PARAMETERS</title>
<polygon fill="white" stroke="white" points="-4,5 -4,-246 127,-246 127,5 -4,5"/>
<!-- Node1 -->
<g id="node1" class="node"><title>Node1</title>
<polygon fill="#bfbfbf" stroke="black" points="0,-1 0,-113 122,-113 122,-1 0,-1"/>
<text text-anchor="middle" x="61" y="-101" font-family="Helvetica,sans-Serif" font-size="10.00">xTASK_PARAMETERS</text>
<polyline fill="none" stroke="black" points="0,-94 122,-94 "/>
<text text-anchor="start" x="8" y="-82" font-family="Helvetica,sans-Serif" font-size="10.00">+ pvTaskCode</text>
<text text-anchor="start" x="8" y="-71" font-family="Helvetica,sans-Serif" font-size="10.00">+ pcName</text>
<text text-anchor="start" x="8" y="-60" font-family="Helvetica,sans-Serif" font-size="10.00">+ usStackDepth</text>
<text text-anchor="start" x="8" y="-49" font-family="Helvetica,sans-Serif" font-size="10.00">+ pvParameters</text>
<text text-anchor="start" x="8" y="-38" font-family="Helvetica,sans-Serif" font-size="10.00">+ uxPriority</text>
<text text-anchor="start" x="8" y="-27" font-family="Helvetica,sans-Serif" font-size="10.00">+ puxStackBuffer</text>
<polyline fill="none" stroke="black" points="0,-20 122,-20 "/>
<text text-anchor="middle" x="61" y="-8" font-family="Helvetica,sans-Serif" font-size="10.00"> </text>
</g>
<!-- Node2 -->
<g id="node2" class="node"><title>Node2</title>
<g id="a_node2"><a xlink:href="structx_m_e_m_o_r_y___r_e_g_i_o_n.html" target="_top" xlink:title="{xMEMORY_REGION\n|+ pvBaseAddress\l+ ulLengthInBytes\l+ ulParameters\l|}">
<polygon fill="white" stroke="black" points="5,-162.5 5,-241.5 117,-241.5 117,-162.5 5,-162.5"/>
<text text-anchor="middle" x="61" y="-229.5" font-family="Helvetica,sans-Serif" font-size="10.00">xMEMORY_REGION</text>
<polyline fill="none" stroke="black" points="5,-222.5 117,-222.5 "/>
<text text-anchor="start" x="13" y="-210.5" font-family="Helvetica,sans-Serif" font-size="10.00">+ pvBaseAddress</text>
<text text-anchor="start" x="13" y="-199.5" font-family="Helvetica,sans-Serif" font-size="10.00">+ ulLengthInBytes</text>
<text text-anchor="start" x="13" y="-188.5" font-family="Helvetica,sans-Serif" font-size="10.00">+ ulParameters</text>
<polyline fill="none" stroke="black" points="5,-181.5 117,-181.5 "/>
<text text-anchor="middle" x="61" y="-169.5" font-family="Helvetica,sans-Serif" font-size="10.00"> </text>
</a>
</g>
</g>
<!-- Node2&#45;&gt;Node1 -->
<g id="edge1" class="edge"><title>Node2&#45;&gt;Node1</title>
<path fill="none" stroke="#404040" d="M61,-162.302C61,-150.831 61,-137.922 61,-125.196"/>
<polygon fill="none" stroke="#404040" points="61.0001,-125.103 57,-119.103 61,-113.103 65,-119.103 61.0001,-125.103"/>
<text text-anchor="middle" x="86.5" y="-135.5" font-family="Helvetica,sans-Serif" font-size="10.00"> +xRegions</text>
</g>
</g>
</svg>
