<?xml version="1.0" encoding="UTF-8" standalone="no"?>
<!DOCTYPE svg PUBLIC "-//W3C//DTD SVG 1.1//EN"
 "http://www.w3.org/Graphics/SVG/1.1/DTD/svg11.dtd">
<!-- Generated by graphviz version 2.30.1 (20130221.2233)
 -->
<!-- Title: xLIST_ITEM Pages: 1 -->
<svg width="163pt" height="88pt"
 viewBox="0.00 0.00 163.00 88.00" xmlns="http://www.w3.org/2000/svg" xmlns:xlink="http://www.w3.org/1999/xlink">
<g id="graph0" class="graph" transform="scale(1 1) rotate(0) translate(4 84)">
<title>xLIST_ITEM</title>
<polygon fill="white" stroke="white" points="-4,5 -4,-84 160,-84 160,5 -4,5"/>
<!-- Node1 -->
<g id="node1" class="node"><title>Node1</title>
<polygon fill="#bfbfbf" stroke="black" points="-0.5,-0.5 -0.5,-79.5 78.5,-79.5 78.5,-0.5 -0.5,-0.5"/>
<text text-anchor="middle" x="39" y="-67.5" font-family="Helvetica,sans-Serif" font-size="10.00">xLIST_ITEM</text>
<polyline fill="none" stroke="black" points="-0.5,-60.5 78.5,-60.5 "/>
<text text-anchor="start" x="7.5" y="-48.5" font-family="Helvetica,sans-Serif" font-size="10.00">+ xItemValue</text>
<text text-anchor="start" x="7.5" y="-37.5" font-family="Helvetica,sans-Serif" font-size="10.00">+ pvOwner</text>
<text text-anchor="start" x="7.5" y="-26.5" font-family="Helvetica,sans-Serif" font-size="10.00">+ pvContainer</text>
<polyline fill="none" stroke="black" points="-0.5,-19.5 78.5,-19.5 "/>
<text text-anchor="middle" x="39" y="-7.5" font-family="Helvetica,sans-Serif" font-size="10.00"> </text>
</g>
<!-- Node1&#45;&gt;Node1 -->
<g id="edge1" class="edge"><title>Node1&#45;&gt;Node1</title>
<path fill="none" stroke="#404040" d="M78.6905,-54.794C88.5961,-53.7595 96,-48.8281 96,-40 96,-35.1721 93.7857,-31.5097 90.1589,-29.0126"/>
<polygon fill="none" stroke="#404040" points="90.0795,-28.9863 83.1249,-30.8925 78.6905,-25.206 85.6451,-23.2998 90.0795,-28.9863"/>
<text text-anchor="middle" x="125.5" y="-43" font-family="Helvetica,sans-Serif" font-size="10.00"> +pxPrevious</text>
<text text-anchor="middle" x="125.5" y="-32" font-family="Helvetica,sans-Serif" font-size="10.00">+pxNext</text>
</g>
</g>
</svg>
