<?xml version="1.0" encoding="UTF-8" standalone="no"?>
<!DOCTYPE svg PUBLIC "-//W3C//DTD SVG 1.1//EN"
 "http://www.w3.org/Graphics/SVG/1.1/DTD/svg11.dtd">
<!-- Generated by graphviz version 2.30.1 (20130221.2233)
 -->
<!-- Title: xTaskResumeAll Pages: 1 -->
<svg width="638pt" height="484pt"
 viewBox="0.00 0.00 638.00 484.00" xmlns="http://www.w3.org/2000/svg" xmlns:xlink="http://www.w3.org/1999/xlink">
<g id="graph0" class="graph" transform="scale(1 1) rotate(0) translate(4 480)">
<title>xTaskResumeAll</title>
<polygon fill="white" stroke="white" points="-4,5 -4,-480 635,-480 635,5 -4,5"/>
<!-- Node1 -->
<g id="node1" class="node"><title>Node1</title>
<polygon fill="#bfbfbf" stroke="black" points="0,-228.5 0,-247.5 92,-247.5 92,-228.5 0,-228.5"/>
<text text-anchor="middle" x="46" y="-235.5" font-family="Helvetica,sans-Serif" font-size="10.00">xTaskResumeAll</text>
</g>
<!-- Node2 -->
<g id="node2" class="node"><title>Node2</title>
<g id="a_node2"><a xlink:href="_g_c_c_2_a_v_r32___u_c3_2port_8c.html#adb1054baf76a9dc8c93df1a78dbe7058" target="_top" xlink:title="__malloc_unlock">
<polygon fill="white" stroke="black" points="168.5,-456.5 168.5,-475.5 259.5,-475.5 259.5,-456.5 168.5,-456.5"/>
<text text-anchor="middle" x="214" y="-463.5" font-family="Helvetica,sans-Serif" font-size="10.00">__malloc_unlock</text>
</a>
</g>
</g>
<!-- Node1&#45;&gt;Node2 -->
<g id="edge1" class="edge"><title>Node1&#45;&gt;Node2</title>
<path fill="none" stroke="midnightblue" d="M48.6046,-257.673C53.1028,-299.343 69.6337,-396.783 128,-447 139.119,-456.566 154.015,-461.611 168.23,-464.187"/>
<polygon fill="midnightblue" stroke="midnightblue" points="52.0867,-257.318 47.6478,-247.698 45.1186,-257.986 52.0867,-257.318"/>
</g>
<!-- Node3 -->
<g id="node3" class="node"><title>Node3</title>
<g id="a_node3"><a xlink:href="_g_c_c_2_a_r_m___c_m3___m_p_u_2port_8c.html#aa43b421a9eff441d0a850998551b17b4" target="_top" xlink:title="MPU_xTaskResumeAll">
<polygon fill="white" stroke="black" points="154.5,-418.5 154.5,-437.5 273.5,-437.5 273.5,-418.5 154.5,-418.5"/>
<text text-anchor="middle" x="214" y="-425.5" font-family="Helvetica,sans-Serif" font-size="10.00">MPU_xTaskResumeAll</text>
</a>
</g>
</g>
<!-- Node1&#45;&gt;Node3 -->
<g id="edge2" class="edge"><title>Node1&#45;&gt;Node3</title>
<path fill="none" stroke="midnightblue" d="M51.0011,-257.406C59.1818,-292.116 81.1465,-364.854 128,-404 135.649,-410.39 144.893,-415.083 154.43,-418.528"/>
<polygon fill="midnightblue" stroke="midnightblue" points="54.4001,-256.566 48.8153,-247.563 47.5666,-258.084 54.4001,-256.566"/>
</g>
<!-- Node4 -->
<g id="node4" class="node"><title>Node4</title>
<g id="a_node4"><a xlink:href="tasks_8c.html#a36c7cc58985d41c2cb1b263563dbbaa1" target="_top" xlink:title="portTASK_FUNCTION">
<polygon fill="white" stroke="black" points="352.5,-418.5 352.5,-437.5 469.5,-437.5 469.5,-418.5 352.5,-418.5"/>
<text text-anchor="middle" x="411" y="-425.5" font-family="Helvetica,sans-Serif" font-size="10.00">portTASK_FUNCTION</text>
</a>
</g>
</g>
<!-- Node1&#45;&gt;Node4 -->
<g id="edge3" class="edge"><title>Node1&#45;&gt;Node4</title>
<path fill="none" stroke="midnightblue" d="M53.0422,-257.121C63.3848,-286.55 87.3898,-342.52 128,-371 137.38,-377.578 278.204,-404.012 357.215,-418.457"/>
<polygon fill="midnightblue" stroke="midnightblue" points="56.3409,-255.949 49.8445,-247.579 49.7037,-258.173 56.3409,-255.949"/>
</g>
<!-- Node5 -->
<g id="node5" class="node"><title>Node5</title>
<g id="a_node5"><a xlink:href="tasks_8c.html#a903096c962a2bc907f4b902a7d42302a" target="_top" xlink:title="prvCheckTasksWaitingTermination">
<polygon fill="white" stroke="black" points="128,-342.5 128,-361.5 300,-361.5 300,-342.5 128,-342.5"/>
<text text-anchor="middle" x="214" y="-349.5" font-family="Helvetica,sans-Serif" font-size="10.00">prvCheckTasksWaitingTermination</text>
</a>
</g>
</g>
<!-- Node1&#45;&gt;Node5 -->
<g id="edge4" class="edge"><title>Node1&#45;&gt;Node5</title>
<path fill="none" stroke="midnightblue" d="M57.4231,-256.239C70.8581,-278.021 96.3048,-313.9 128,-333 134.476,-336.902 141.664,-340.005 149.04,-342.472"/>
<polygon fill="midnightblue" stroke="midnightblue" points="60.3957,-254.391 52.2666,-247.596 54.3842,-257.977 60.3957,-254.391"/>
</g>
<!-- Node6 -->
<g id="node6" class="node"><title>Node6</title>
<g id="a_node6"><a xlink:href="_wiz_c_2_p_i_c18_2port_8c.html#a0dc0ff621115a685d59ea38b526ebe89" target="_top" xlink:title="pvPortMalloc">
<polygon fill="white" stroke="black" points="177,-304.5 177,-323.5 251,-323.5 251,-304.5 177,-304.5"/>
<text text-anchor="middle" x="214" y="-311.5" font-family="Helvetica,sans-Serif" font-size="10.00">pvPortMalloc</text>
</a>
</g>
</g>
<!-- Node1&#45;&gt;Node6 -->
<g id="edge6" class="edge"><title>Node1&#45;&gt;Node6</title>
<path fill="none" stroke="midnightblue" d="M65.5007,-254.246C81.1326,-267.143 104.648,-284.668 128,-295 143.349,-301.791 161.368,-306.265 176.856,-309.155"/>
<polygon fill="midnightblue" stroke="midnightblue" points="67.5746,-251.416 57.6784,-247.633 63.0551,-256.762 67.5746,-251.416"/>
</g>
<!-- Node10 -->
<g id="node10" class="node"><title>Node10</title>
<g id="a_node10"><a xlink:href="_i_a_r_2_a_v_r32___u_c3_2portmacro_8h.html#a0e22115d0fea39851af4e93fcaf6b41c" target="_top" xlink:title="pvPortRealloc">
<polygon fill="white" stroke="black" points="174.5,-266.5 174.5,-285.5 253.5,-285.5 253.5,-266.5 174.5,-266.5"/>
<text text-anchor="middle" x="214" y="-273.5" font-family="Helvetica,sans-Serif" font-size="10.00">pvPortRealloc</text>
</a>
</g>
</g>
<!-- Node1&#45;&gt;Node10 -->
<g id="edge10" class="edge"><title>Node1&#45;&gt;Node10</title>
<path fill="none" stroke="midnightblue" d="M98.7094,-249.837C123.117,-255.424 151.754,-261.98 174.257,-267.131"/>
<polygon fill="midnightblue" stroke="midnightblue" points="99.4177,-246.409 88.8888,-247.589 97.8556,-253.232 99.4177,-246.409"/>
</g>
<!-- Node11 -->
<g id="node11" class="node"><title>Node11</title>
<g id="a_node11"><a xlink:href="event__groups_8h.html#a50cb52d1c81b063fd8d94f5293dcfea9" target="_top" xlink:title="vEventGroupDelete">
<polygon fill="white" stroke="black" points="359,-266.5 359,-285.5 463,-285.5 463,-266.5 359,-266.5"/>
<text text-anchor="middle" x="411" y="-273.5" font-family="Helvetica,sans-Serif" font-size="10.00">vEventGroupDelete</text>
</a>
</g>
</g>
<!-- Node1&#45;&gt;Node11 -->
<g id="edge11" class="edge"><title>Node1&#45;&gt;Node11</title>
<path fill="none" stroke="midnightblue" d="M102.594,-240.636C153.956,-243.436 232.315,-248.633 300,-257 320.003,-259.473 341.908,-263.072 360.868,-266.475"/>
<polygon fill="midnightblue" stroke="midnightblue" points="102.547,-237.129 92.3751,-240.091 102.175,-244.119 102.547,-237.129"/>
</g>
<!-- Node12 -->
<g id="node12" class="node"><title>Node12</title>
<g id="a_node12"><a xlink:href="_wiz_c_2_p_i_c18_2port_8c.html#a1e7cea2fd1bc894ea3b5f5e8179d259b" target="_top" xlink:title="vPortFree">
<polygon fill="white" stroke="black" points="184,-190.5 184,-209.5 244,-209.5 244,-190.5 184,-190.5"/>
<text text-anchor="middle" x="214" y="-197.5" font-family="Helvetica,sans-Serif" font-size="10.00">vPortFree</text>
</a>
</g>
</g>
<!-- Node1&#45;&gt;Node12 -->
<g id="edge12" class="edge"><title>Node1&#45;&gt;Node12</title>
<path fill="none" stroke="midnightblue" d="M98.9348,-226.111C126.959,-219.696 160.506,-212.017 183.937,-206.653"/>
<polygon fill="midnightblue" stroke="midnightblue" points="97.8556,-222.768 88.8888,-228.411 99.4177,-229.591 97.8556,-222.768"/>
</g>
<!-- Node17 -->
<g id="node17" class="node"><title>Node17</title>
<g id="a_node17"><a xlink:href="event__groups_8h.html#a02d7b3bb55f7e11d9c47116266c5fb2e" target="_top" xlink:title="xEventGroupSetBits">
<polygon fill="white" stroke="black" points="160.5,-152.5 160.5,-171.5 267.5,-171.5 267.5,-152.5 160.5,-152.5"/>
<text text-anchor="middle" x="214" y="-159.5" font-family="Helvetica,sans-Serif" font-size="10.00">xEventGroupSetBits</text>
</a>
</g>
</g>
<!-- Node1&#45;&gt;Node17 -->
<g id="edge18" class="edge"><title>Node1&#45;&gt;Node17</title>
<path fill="none" stroke="midnightblue" d="M65.5007,-221.754C81.1326,-208.857 104.648,-191.332 128,-181 138.094,-176.534 149.344,-173.07 160.268,-170.399"/>
<polygon fill="midnightblue" stroke="midnightblue" points="63.0551,-219.238 57.6784,-228.367 67.5746,-224.584 63.0551,-219.238"/>
</g>
<!-- Node19 -->
<g id="node19" class="node"><title>Node19</title>
<g id="a_node19"><a xlink:href="event__groups_8h.html#a869511456b86426f52e2eec898bff341" target="_top" xlink:title="xEventGroupSync">
<polygon fill="white" stroke="black" points="362.5,-76.5 362.5,-95.5 459.5,-95.5 459.5,-76.5 362.5,-76.5"/>
<text text-anchor="middle" x="411" y="-83.5" font-family="Helvetica,sans-Serif" font-size="10.00">xEventGroupSync</text>
</a>
</g>
</g>
<!-- Node1&#45;&gt;Node19 -->
<g id="edge21" class="edge"><title>Node1&#45;&gt;Node19</title>
<path fill="none" stroke="midnightblue" d="M57.3586,-219.652C70.7289,-197.762 96.1109,-161.775 128,-143 138.088,-137.061 284.675,-109.244 362.4,-94.7835"/>
<polygon fill="midnightblue" stroke="midnightblue" points="54.2983,-217.952 52.2299,-228.342 60.3267,-221.509 54.2983,-217.952"/>
</g>
<!-- Node20 -->
<g id="node20" class="node"><title>Node20</title>
<g id="a_node20"><a xlink:href="event__groups_8h.html#aab9d5b405bc57b7624dcabe9a9a503db" target="_top" xlink:title="xEventGroupWaitBits">
<polygon fill="white" stroke="black" points="158,-76.5 158,-95.5 270,-95.5 270,-76.5 158,-76.5"/>
<text text-anchor="middle" x="214" y="-83.5" font-family="Helvetica,sans-Serif" font-size="10.00">xEventGroupWaitBits</text>
</a>
</g>
</g>
<!-- Node1&#45;&gt;Node20 -->
<g id="edge22" class="edge"><title>Node1&#45;&gt;Node20</title>
<path fill="none" stroke="midnightblue" d="M53.9793,-218.756C65.1828,-190.599 89.8693,-138.443 128,-110 136.727,-103.49 147.151,-98.7457 157.66,-95.2874"/>
<polygon fill="midnightblue" stroke="midnightblue" points="50.643,-217.682 50.3457,-228.272 57.1825,-220.178 50.643,-217.682"/>
</g>
<!-- Node21 -->
<g id="node21" class="node"><title>Node21</title>
<g id="a_node21"><a xlink:href="queue_8c.html#ace632b55c3955bacae20978e261129a6" target="_top" xlink:title="xQueueGenericReceive">
<polygon fill="white" stroke="black" points="152.5,-38.5 152.5,-57.5 275.5,-57.5 275.5,-38.5 152.5,-38.5"/>
<text text-anchor="middle" x="214" y="-45.5" font-family="Helvetica,sans-Serif" font-size="10.00">xQueueGenericReceive</text>
</a>
</g>
</g>
<!-- Node1&#45;&gt;Node21 -->
<g id="edge23" class="edge"><title>Node1&#45;&gt;Node21</title>
<path fill="none" stroke="midnightblue" d="M50.4992,-218.269C57.9546,-182.314 78.9074,-106.228 128,-67 135.088,-61.3364 143.522,-57.2839 152.283,-54.3984"/>
<polygon fill="midnightblue" stroke="midnightblue" points="46.9957,-217.952 48.5343,-228.435 53.8685,-219.281 46.9957,-217.952"/>
</g>
<!-- Node23 -->
<g id="node23" class="node"><title>Node23</title>
<g id="a_node23"><a xlink:href="queue_8c.html#acb67c81366c00896b21cd826e07d885d" target="_top" xlink:title="xQueueGenericSend">
<polygon fill="white" stroke="black" points="159,-0.5 159,-19.5 269,-19.5 269,-0.5 159,-0.5"/>
<text text-anchor="middle" x="214" y="-7.5" font-family="Helvetica,sans-Serif" font-size="10.00">xQueueGenericSend</text>
</a>
</g>
</g>
<!-- Node1&#45;&gt;Node23 -->
<g id="edge25" class="edge"><title>Node1&#45;&gt;Node23</title>
<path fill="none" stroke="midnightblue" d="M48.6046,-218.327C53.1028,-176.657 69.6337,-79.217 128,-29 136.711,-21.5048 147.742,-16.7854 158.947,-13.8541"/>
<polygon fill="midnightblue" stroke="midnightblue" points="45.1186,-218.014 47.6478,-228.302 52.0867,-218.682 45.1186,-218.014"/>
</g>
<!-- Node5&#45;&gt;Node4 -->
<g id="edge5" class="edge"><title>Node5&#45;&gt;Node4</title>
<path fill="none" stroke="midnightblue" d="M273.331,-364.543C282.548,-367.625 291.75,-371.401 300,-376 318.958,-386.569 316.917,-398.658 336,-409 343.114,-412.855 351.039,-415.952 358.985,-418.433"/>
<polygon fill="midnightblue" stroke="midnightblue" points="274.347,-361.194 263.759,-361.577 272.275,-367.88 274.347,-361.194"/>
</g>
<!-- Node7 -->
<g id="node7" class="node"><title>Node7</title>
<g id="a_node7"><a xlink:href="_g_c_c_2_a_r_m___c_m3___m_p_u_2port_8c.html#a84af3fe5d0df7cd011534fb37e97b504" target="_top" xlink:title="MPU_pvPortMalloc">
<polygon fill="white" stroke="black" points="360,-380.5 360,-399.5 462,-399.5 462,-380.5 360,-380.5"/>
<text text-anchor="middle" x="411" y="-387.5" font-family="Helvetica,sans-Serif" font-size="10.00">MPU_pvPortMalloc</text>
</a>
</g>
</g>
<!-- Node6&#45;&gt;Node7 -->
<g id="edge7" class="edge"><title>Node6&#45;&gt;Node7</title>
<path fill="none" stroke="midnightblue" d="M260.919,-319.129C274.13,-321.936 288.158,-326.28 300,-333 320.234,-344.482 315.949,-359.201 336,-371 343.316,-375.305 351.599,-378.645 359.909,-381.234"/>
<polygon fill="midnightblue" stroke="midnightblue" points="261.5,-315.677 251.026,-317.268 260.206,-322.557 261.5,-315.677"/>
</g>
<!-- Node8 -->
<g id="node8" class="node"><title>Node8</title>
<g id="a_node8"><a xlink:href="_g_c_c_2_micro_blaze_2port_8c.html#ade5a8c6666e7413a0355cc252029c5c6" target="_top" xlink:title="xPortStartScheduler">
<polygon fill="white" stroke="black" points="358,-342.5 358,-361.5 464,-361.5 464,-342.5 358,-342.5"/>
<text text-anchor="middle" x="411" y="-349.5" font-family="Helvetica,sans-Serif" font-size="10.00">xPortStartScheduler</text>
</a>
</g>
</g>
<!-- Node6&#45;&gt;Node8 -->
<g id="edge8" class="edge"><title>Node6&#45;&gt;Node8</title>
<path fill="none" stroke="midnightblue" d="M261.054,-322.975C291.161,-328.842 330.441,-336.496 361.103,-342.471"/>
<polygon fill="midnightblue" stroke="midnightblue" points="261.706,-319.536 251.221,-321.058 260.367,-326.407 261.706,-319.536"/>
</g>
<!-- Node9 -->
<g id="node9" class="node"><title>Node9</title>
<g id="a_node9"><a xlink:href="_renesas_2_s_h2_a___f_p_u_2portmacro_8h.html#a8c8d74fd181a4df3300db81a72bcd17d" target="_top" xlink:title="xPortUsesFloatingPoint">
<polygon fill="white" stroke="black" points="350.5,-304.5 350.5,-323.5 471.5,-323.5 471.5,-304.5 350.5,-304.5"/>
<text text-anchor="middle" x="411" y="-311.5" font-family="Helvetica,sans-Serif" font-size="10.00">xPortUsesFloatingPoint</text>
</a>
</g>
</g>
<!-- Node6&#45;&gt;Node9 -->
<g id="edge9" class="edge"><title>Node6&#45;&gt;Node9</title>
<path fill="none" stroke="midnightblue" d="M261.409,-314C288.003,-314 321.665,-314 350.222,-314"/>
<polygon fill="midnightblue" stroke="midnightblue" points="261.221,-310.5 251.221,-314 261.221,-317.5 261.221,-310.5"/>
</g>
<!-- Node13 -->
<g id="node13" class="node"><title>Node13</title>
<g id="a_node13"><a xlink:href="_g_c_c_2_a_r_m___c_m3___m_p_u_2port_8c.html#acd24fff1bcec99632bfea2b06fd9fb22" target="_top" xlink:title="MPU_vPortFree">
<polygon fill="white" stroke="black" points="367,-228.5 367,-247.5 455,-247.5 455,-228.5 367,-228.5"/>
<text text-anchor="middle" x="411" y="-235.5" font-family="Helvetica,sans-Serif" font-size="10.00">MPU_vPortFree</text>
</a>
</g>
</g>
<!-- Node12&#45;&gt;Node13 -->
<g id="edge13" class="edge"><title>Node12&#45;&gt;Node13</title>
<path fill="none" stroke="midnightblue" d="M254.267,-207.652C286.884,-214.008 333.221,-223.038 366.865,-229.594"/>
<polygon fill="midnightblue" stroke="midnightblue" points="254.678,-204.166 244.193,-205.689 253.339,-211.037 254.678,-204.166"/>
</g>
<!-- Node14 -->
<g id="node14" class="node"><title>Node14</title>
<g id="a_node14"><a xlink:href="tasks_8c.html#a91a076d3c5af24feadfe2bca03cc9f7a" target="_top" xlink:title="prvAllocateTCBAndStack">
<polygon fill="white" stroke="black" points="346.5,-190.5 346.5,-209.5 475.5,-209.5 475.5,-190.5 346.5,-190.5"/>
<text text-anchor="middle" x="411" y="-197.5" font-family="Helvetica,sans-Serif" font-size="10.00">prvAllocateTCBAndStack</text>
</a>
</g>
</g>
<!-- Node12&#45;&gt;Node14 -->
<g id="edge14" class="edge"><title>Node12&#45;&gt;Node14</title>
<path fill="none" stroke="midnightblue" d="M254.535,-200C280.862,-200 316.04,-200 346.275,-200"/>
<polygon fill="midnightblue" stroke="midnightblue" points="254.194,-196.5 244.193,-200 254.193,-203.5 254.194,-196.5"/>
</g>
<!-- Node12&#45;&gt;Node11 -->
<g id="edge15" class="edge"><title>Node12&#45;&gt;Node11</title>
<path fill="none" stroke="midnightblue" d="M254.234,-207.037C269.171,-210.733 285.962,-216.174 300,-224 318.958,-234.569 316.917,-246.658 336,-257 343.114,-260.855 351.039,-263.952 358.985,-266.433"/>
<polygon fill="midnightblue" stroke="midnightblue" points="254.775,-203.57 244.246,-204.748 253.211,-210.393 254.775,-203.57"/>
</g>
<!-- Node15 -->
<g id="node15" class="node"><title>Node15</title>
<g id="a_node15"><a xlink:href="queue_8c.html#a35c0b4f9a0e940cb3a86ca4c5e84c41c" target="_top" xlink:title="vQueueDelete">
<polygon fill="white" stroke="black" points="371,-152.5 371,-171.5 451,-171.5 451,-152.5 371,-152.5"/>
<text text-anchor="middle" x="411" y="-159.5" font-family="Helvetica,sans-Serif" font-size="10.00">vQueueDelete</text>
</a>
</g>
</g>
<!-- Node12&#45;&gt;Node15 -->
<g id="edge16" class="edge"><title>Node12&#45;&gt;Node15</title>
<path fill="none" stroke="midnightblue" d="M254.209,-192.359C288.127,-185.75 336.916,-176.242 370.824,-169.634"/>
<polygon fill="midnightblue" stroke="midnightblue" points="253.339,-188.963 244.193,-194.311 254.678,-195.834 253.339,-188.963"/>
</g>
<!-- Node16 -->
<g id="node16" class="node"><title>Node16</title>
<g id="a_node16"><a xlink:href="_g_c_c_2_a_r_m___c_m3___m_p_u_2port_8c.html#ac378aaf28d5631ab7dcb8c75840f9544" target="_top" xlink:title="MPU_vQueueDelete">
<polygon fill="white" stroke="black" points="522,-152.5 522,-171.5 630,-171.5 630,-152.5 522,-152.5"/>
<text text-anchor="middle" x="576" y="-159.5" font-family="Helvetica,sans-Serif" font-size="10.00">MPU_vQueueDelete</text>
</a>
</g>
</g>
<!-- Node15&#45;&gt;Node16 -->
<g id="edge17" class="edge"><title>Node15&#45;&gt;Node16</title>
<path fill="none" stroke="midnightblue" d="M461.067,-162C480.23,-162 502.251,-162 521.794,-162"/>
<polygon fill="midnightblue" stroke="midnightblue" points="461.043,-158.5 451.043,-162 461.043,-165.5 461.043,-158.5"/>
</g>
<!-- Node18 -->
<g id="node18" class="node"><title>Node18</title>
<g id="a_node18"><a xlink:href="event__groups_8h.html#abe76a301815525eb5e03f331e5e51ae3" target="_top" xlink:title="vEventGroupSetBitsCallback">
<polygon fill="white" stroke="black" points="338.5,-114.5 338.5,-133.5 483.5,-133.5 483.5,-114.5 338.5,-114.5"/>
<text text-anchor="middle" x="411" y="-121.5" font-family="Helvetica,sans-Serif" font-size="10.00">vEventGroupSetBitsCallback</text>
</a>
</g>
</g>
<!-- Node17&#45;&gt;Node18 -->
<g id="edge19" class="edge"><title>Node17&#45;&gt;Node18</title>
<path fill="none" stroke="midnightblue" d="M273.959,-150.511C301.782,-145.089 334.596,-138.694 361.025,-133.544"/>
<polygon fill="midnightblue" stroke="midnightblue" points="273.101,-147.112 263.955,-152.46 274.44,-153.983 273.101,-147.112"/>
</g>
<!-- Node17&#45;&gt;Node19 -->
<g id="edge20" class="edge"><title>Node17&#45;&gt;Node19</title>
<path fill="none" stroke="midnightblue" d="M273.331,-149.457C282.548,-146.375 291.75,-142.599 300,-138 318.958,-127.431 316.917,-115.342 336,-105 344.046,-100.639 353.131,-97.249 362.11,-94.6227"/>
<polygon fill="midnightblue" stroke="midnightblue" points="272.275,-146.12 263.759,-152.423 274.347,-152.806 272.275,-146.12"/>
</g>
<!-- Node22 -->
<g id="node22" class="node"><title>Node22</title>
<g id="a_node22"><a xlink:href="_g_c_c_2_a_r_m___c_m3___m_p_u_2port_8c.html#a11f6f4ba0b7f2612c09d7494aa695297" target="_top" xlink:title="MPU_xQueueGenericReceive">
<polygon fill="white" stroke="black" points="336,-38.5 336,-57.5 486,-57.5 486,-38.5 336,-38.5"/>
<text text-anchor="middle" x="411" y="-45.5" font-family="Helvetica,sans-Serif" font-size="10.00">MPU_xQueueGenericReceive</text>
</a>
</g>
</g>
<!-- Node21&#45;&gt;Node22 -->
<g id="edge24" class="edge"><title>Node21&#45;&gt;Node22</title>
<path fill="none" stroke="midnightblue" d="M286.068,-48C302.211,-48 319.4,-48 335.675,-48"/>
<polygon fill="midnightblue" stroke="midnightblue" points="285.63,-44.5001 275.63,-48 285.63,-51.5001 285.63,-44.5001"/>
</g>
<!-- Node24 -->
<g id="node24" class="node"><title>Node24</title>
<g id="a_node24"><a xlink:href="_g_c_c_2_a_r_m___c_m3___m_p_u_2port_8c.html#afec3801d053a850488cda14b0cad95fd" target="_top" xlink:title="MPU_xQueueGenericSend">
<polygon fill="white" stroke="black" points="342,-0.5 342,-19.5 480,-19.5 480,-0.5 342,-0.5"/>
<text text-anchor="middle" x="411" y="-7.5" font-family="Helvetica,sans-Serif" font-size="10.00">MPU_xQueueGenericSend</text>
</a>
</g>
</g>
<!-- Node23&#45;&gt;Node24 -->
<g id="edge26" class="edge"><title>Node23&#45;&gt;Node24</title>
<path fill="none" stroke="midnightblue" d="M279.334,-10C299.394,-10 321.579,-10 341.888,-10"/>
<polygon fill="midnightblue" stroke="midnightblue" points="279.059,-6.5001 269.059,-10 279.059,-13.5001 279.059,-6.5001"/>
</g>
</g>
</svg>
