<?xml version="1.0" encoding="UTF-8" standalone="no"?>
<!DOCTYPE svg PUBLIC "-//W3C//DTD SVG 1.1//EN"
 "http://www.w3.org/Graphics/SVG/1.1/DTD/svg11.dtd">
<!-- Generated by graphviz version 2.30.1 (20130221.2233)
 -->
<!-- Title: vTaskSetTimeOutState Pages: 1 -->
<svg width="636pt" height="75pt"
 viewBox="0.00 0.00 636.00 75.00" xmlns="http://www.w3.org/2000/svg" xmlns:xlink="http://www.w3.org/1999/xlink">
<g id="graph0" class="graph" transform="scale(1 1) rotate(0) translate(4 71)">
<title>vTaskSetTimeOutState</title>
<polygon fill="white" stroke="white" points="-4,5 -4,-71 633,-71 633,5 -4,5"/>
<!-- Node1 -->
<g id="node1" class="node"><title>Node1</title>
<polygon fill="#bfbfbf" stroke="black" points="0,-28.5 0,-47.5 120,-47.5 120,-28.5 0,-28.5"/>
<text text-anchor="middle" x="60" y="-35.5" font-family="Helvetica,sans-Serif" font-size="10.00">vTaskSetTimeOutState</text>
</g>
<!-- Node2 -->
<g id="node2" class="node"><title>Node2</title>
<g id="a_node2"><a xlink:href="queue_8c.html#ace632b55c3955bacae20978e261129a6" target="_top" xlink:title="xQueueGenericReceive">
<polygon fill="white" stroke="black" points="318.5,-47.5 318.5,-66.5 441.5,-66.5 441.5,-47.5 318.5,-47.5"/>
<text text-anchor="middle" x="380" y="-54.5" font-family="Helvetica,sans-Serif" font-size="10.00">xQueueGenericReceive</text>
</a>
</g>
</g>
<!-- Node1&#45;&gt;Node2 -->
<g id="edge1" class="edge"><title>Node1&#45;&gt;Node2</title>
<path fill="none" stroke="midnightblue" d="M109.54,-49.6248C124.362,-52.655 140.769,-55.4918 156,-57 210.708,-62.4172 273.337,-61.8247 318.266,-60.2227"/>
<polygon fill="midnightblue" stroke="midnightblue" points="110.074,-46.1603 99.5655,-47.51 108.622,-53.0081 110.074,-46.1603"/>
</g>
<!-- Node4 -->
<g id="node4" class="node"><title>Node4</title>
<g id="a_node4"><a xlink:href="queue_8c.html#acb67c81366c00896b21cd826e07d885d" target="_top" xlink:title="xQueueGenericSend">
<polygon fill="white" stroke="black" points="325,-0.5 325,-19.5 435,-19.5 435,-0.5 325,-0.5"/>
<text text-anchor="middle" x="380" y="-7.5" font-family="Helvetica,sans-Serif" font-size="10.00">xQueueGenericSend</text>
</a>
</g>
</g>
<!-- Node1&#45;&gt;Node4 -->
<g id="edge3" class="edge"><title>Node1&#45;&gt;Node4</title>
<path fill="none" stroke="midnightblue" d="M111.591,-26.3511C125.878,-23.4796 141.486,-20.7334 156,-19 213.325,-12.1537 279.464,-10.2281 324.737,-9.8144"/>
<polygon fill="midnightblue" stroke="midnightblue" points="110.538,-22.9949 101.457,-28.4515 111.959,-29.8492 110.538,-22.9949"/>
</g>
<!-- Node6 -->
<g id="node6" class="node"><title>Node6</title>
<g id="a_node6"><a xlink:href="tasks_8c.html#acfc8de487c86355713d0e8546506d9e4" target="_top" xlink:title="xTaskCheckForTimeOut">
<polygon fill="white" stroke="black" points="156.5,-28.5 156.5,-47.5 281.5,-47.5 281.5,-28.5 156.5,-28.5"/>
<text text-anchor="middle" x="219" y="-35.5" font-family="Helvetica,sans-Serif" font-size="10.00">xTaskCheckForTimeOut</text>
</a>
</g>
</g>
<!-- Node1&#45;&gt;Node6 -->
<g id="edge5" class="edge"><title>Node1&#45;&gt;Node6</title>
<path fill="none" stroke="midnightblue" d="M130.44,-38C139.111,-38 147.931,-38 156.47,-38"/>
<polygon fill="midnightblue" stroke="midnightblue" points="130.355,-34.5001 120.355,-38 130.355,-41.5001 130.355,-34.5001"/>
</g>
<!-- Node3 -->
<g id="node3" class="node"><title>Node3</title>
<g id="a_node3"><a xlink:href="_g_c_c_2_a_r_m___c_m3___m_p_u_2port_8c.html#a11f6f4ba0b7f2612c09d7494aa695297" target="_top" xlink:title="MPU_xQueueGenericReceive">
<polygon fill="white" stroke="black" points="478,-47.5 478,-66.5 628,-66.5 628,-47.5 478,-47.5"/>
<text text-anchor="middle" x="553" y="-54.5" font-family="Helvetica,sans-Serif" font-size="10.00">MPU_xQueueGenericReceive</text>
</a>
</g>
</g>
<!-- Node2&#45;&gt;Node3 -->
<g id="edge2" class="edge"><title>Node2&#45;&gt;Node3</title>
<path fill="none" stroke="midnightblue" d="M451.79,-57C460.426,-57 469.267,-57 477.949,-57"/>
<polygon fill="midnightblue" stroke="midnightblue" points="451.77,-53.5001 441.77,-57 451.77,-60.5001 451.77,-53.5001"/>
</g>
<!-- Node5 -->
<g id="node5" class="node"><title>Node5</title>
<g id="a_node5"><a xlink:href="_g_c_c_2_a_r_m___c_m3___m_p_u_2port_8c.html#afec3801d053a850488cda14b0cad95fd" target="_top" xlink:title="MPU_xQueueGenericSend">
<polygon fill="white" stroke="black" points="484,-0.5 484,-19.5 622,-19.5 622,-0.5 484,-0.5"/>
<text text-anchor="middle" x="553" y="-7.5" font-family="Helvetica,sans-Serif" font-size="10.00">MPU_xQueueGenericSend</text>
</a>
</g>
</g>
<!-- Node4&#45;&gt;Node5 -->
<g id="edge4" class="edge"><title>Node4&#45;&gt;Node5</title>
<path fill="none" stroke="midnightblue" d="M445.454,-10C457.983,-10 471.156,-10 483.802,-10"/>
<polygon fill="midnightblue" stroke="midnightblue" points="445.106,-6.5001 435.105,-10 445.105,-13.5001 445.106,-6.5001"/>
</g>
<!-- Node6&#45;&gt;Node4 -->
<g id="edge6" class="edge"><title>Node6&#45;&gt;Node4</title>
<path fill="none" stroke="midnightblue" d="M284.422,-26.6553C297.88,-24.2854 311.936,-21.81 324.971,-19.5146"/>
<polygon fill="midnightblue" stroke="midnightblue" points="283.515,-23.2609 274.274,-28.4423 284.73,-30.1549 283.515,-23.2609"/>
</g>
<!-- Node6&#45;&gt;Node2 -->
<g id="edge7" class="edge"><title>Node6&#45;&gt;Node2</title>
<path fill="none" stroke="midnightblue" d="M292.115,-46.6175C300.861,-47.6626 309.727,-48.722 318.285,-49.7447"/>
<polygon fill="midnightblue" stroke="midnightblue" points="292.274,-43.1116 281.929,-45.4003 291.443,-50.0622 292.274,-43.1116"/>
</g>
</g>
</svg>
