<?xml version="1.0" encoding="UTF-8" standalone="no"?>
<!DOCTYPE svg PUBLIC "-//W3C//DTD SVG 1.1//EN"
 "http://www.w3.org/Graphics/SVG/1.1/DTD/svg11.dtd">
<!-- Generated by graphviz version 2.30.1 (20130221.2233)
 -->
<!-- Title: xTaskRemoveFromUnorderedEventList Pages: 1 -->
<svg width="486pt" height="85pt"
 viewBox="0.00 0.00 486.00 85.00" xmlns="http://www.w3.org/2000/svg" xmlns:xlink="http://www.w3.org/1999/xlink">
<g id="graph0" class="graph" transform="scale(1 1) rotate(0) translate(4 81)">
<title>xTaskRemoveFromUnorderedEventList</title>
<polygon fill="white" stroke="white" points="-4,5 -4,-81 483,-81 483,5 -4,5"/>
<!-- Node1 -->
<g id="node1" class="node"><title>Node1</title>
<polygon fill="#bfbfbf" stroke="black" points="0.5,-33 0.5,-63 151.5,-63 151.5,-33 0.5,-33"/>
<text text-anchor="start" x="8.5" y="-51" font-family="Helvetica,sans-Serif" font-size="10.00">xTaskRemoveFromUnordered</text>
<text text-anchor="middle" x="76" y="-40" font-family="Helvetica,sans-Serif" font-size="10.00">EventList</text>
</g>
<!-- Node2 -->
<g id="node2" class="node"><title>Node2</title>
<g id="a_node2"><a xlink:href="event__groups_8h.html#a50cb52d1c81b063fd8d94f5293dcfea9" target="_top" xlink:title="vEventGroupDelete">
<polygon fill="white" stroke="black" points="190,-57.5 190,-76.5 294,-76.5 294,-57.5 190,-57.5"/>
<text text-anchor="middle" x="242" y="-64.5" font-family="Helvetica,sans-Serif" font-size="10.00">vEventGroupDelete</text>
</a>
</g>
</g>
<!-- Node1&#45;&gt;Node2 -->
<g id="edge1" class="edge"><title>Node1&#45;&gt;Node2</title>
<path fill="none" stroke="midnightblue" d="M161.758,-57.8196C171.317,-58.9269 180.825,-60.0285 189.763,-61.064"/>
<polygon fill="midnightblue" stroke="midnightblue" points="162.138,-54.3402 151.801,-56.666 161.332,-61.2937 162.138,-54.3402"/>
</g>
<!-- Node3 -->
<g id="node3" class="node"><title>Node3</title>
<g id="a_node3"><a xlink:href="event__groups_8h.html#a02d7b3bb55f7e11d9c47116266c5fb2e" target="_top" xlink:title="xEventGroupSetBits">
<polygon fill="white" stroke="black" points="188.5,-19.5 188.5,-38.5 295.5,-38.5 295.5,-19.5 188.5,-19.5"/>
<text text-anchor="middle" x="242" y="-26.5" font-family="Helvetica,sans-Serif" font-size="10.00">xEventGroupSetBits</text>
</a>
</g>
</g>
<!-- Node1&#45;&gt;Node3 -->
<g id="edge2" class="edge"><title>Node1&#45;&gt;Node3</title>
<path fill="none" stroke="midnightblue" d="M161.945,-38.1588C170.932,-37.1176 179.872,-36.0819 188.332,-35.1018"/>
<polygon fill="midnightblue" stroke="midnightblue" points="161.332,-34.7063 151.801,-39.334 162.138,-41.6598 161.332,-34.7063"/>
</g>
<!-- Node4 -->
<g id="node4" class="node"><title>Node4</title>
<g id="a_node4"><a xlink:href="event__groups_8h.html#abe76a301815525eb5e03f331e5e51ae3" target="_top" xlink:title="vEventGroupSetBitsCallback">
<polygon fill="white" stroke="black" points="332.5,-38.5 332.5,-57.5 477.5,-57.5 477.5,-38.5 332.5,-38.5"/>
<text text-anchor="middle" x="405" y="-45.5" font-family="Helvetica,sans-Serif" font-size="10.00">vEventGroupSetBitsCallback</text>
</a>
</g>
</g>
<!-- Node3&#45;&gt;Node4 -->
<g id="edge3" class="edge"><title>Node3&#45;&gt;Node4</title>
<path fill="none" stroke="midnightblue" d="M305.809,-36.4122C314.542,-37.4428 323.567,-38.5079 332.445,-39.5557"/>
<polygon fill="midnightblue" stroke="midnightblue" points="306.059,-32.9175 295.717,-35.2213 305.238,-39.8693 306.059,-32.9175"/>
</g>
<!-- Node5 -->
<g id="node5" class="node"><title>Node5</title>
<g id="a_node5"><a xlink:href="event__groups_8h.html#a869511456b86426f52e2eec898bff341" target="_top" xlink:title="xEventGroupSync">
<polygon fill="white" stroke="black" points="356.5,-0.5 356.5,-19.5 453.5,-19.5 453.5,-0.5 356.5,-0.5"/>
<text text-anchor="middle" x="405" y="-7.5" font-family="Helvetica,sans-Serif" font-size="10.00">xEventGroupSync</text>
</a>
</g>
</g>
<!-- Node3&#45;&gt;Node5 -->
<g id="edge4" class="edge"><title>Node3&#45;&gt;Node5</title>
<path fill="none" stroke="midnightblue" d="M305.982,-21.5673C322.734,-19.5905 340.548,-17.4881 356.331,-15.6255"/>
<polygon fill="midnightblue" stroke="midnightblue" points="305.238,-18.1307 295.717,-22.7787 306.059,-25.0825 305.238,-18.1307"/>
</g>
</g>
</svg>
