<?xml version="1.0" encoding="UTF-8" standalone="no"?>
<!DOCTYPE svg PUBLIC "-//W3C//DTD SVG 1.1//EN"
 "http://www.w3.org/Graphics/SVG/1.1/DTD/svg11.dtd">
<!-- Generated by graphviz version 2.30.1 (20130221.2233)
 -->
<!-- Title: vTaskSwitchContext Pages: 1 -->
<svg width="604pt" height="788pt"
 viewBox="0.00 0.00 604.00 788.00" xmlns="http://www.w3.org/2000/svg" xmlns:xlink="http://www.w3.org/1999/xlink">
<g id="graph0" class="graph" transform="scale(1 1) rotate(0) translate(4 784)">
<title>vTaskSwitchContext</title>
<polygon fill="white" stroke="white" points="-4,5 -4,-784 601,-784 601,5 -4,5"/>
<!-- Node1 -->
<g id="node1" class="node"><title>Node1</title>
<polygon fill="#bfbfbf" stroke="black" points="0.5,-380.5 0.5,-399.5 107.5,-399.5 107.5,-380.5 0.5,-380.5"/>
<text text-anchor="middle" x="54" y="-387.5" font-family="Helvetica,sans-Serif" font-size="10.00">vTaskSwitchContext</text>
</g>
<!-- Node2 -->
<g id="node2" class="node"><title>Node2</title>
<g id="a_node2"><a xlink:href="_g_c_c_2_tri_core__1782_2port_8c.html#a6b11d209264bd492e907dfa5924057c5" target="_top" xlink:title="prvInterruptYield">
<polygon fill="white" stroke="black" points="176,-646.5 176,-665.5 266,-665.5 266,-646.5 176,-646.5"/>
<text text-anchor="middle" x="221" y="-653.5" font-family="Helvetica,sans-Serif" font-size="10.00">prvInterruptYield</text>
</a>
</g>
</g>
<!-- Node1&#45;&gt;Node2 -->
<g id="edge1" class="edge"><title>Node1&#45;&gt;Node2</title>
<path fill="none" stroke="midnightblue" d="M56.0498,-409.55C59.6485,-456.253 75.4314,-575.021 144,-637 152.778,-644.934 164.367,-649.67 175.843,-652.465"/>
<polygon fill="midnightblue" stroke="midnightblue" points="59.54,-409.286 55.3853,-399.54 52.5554,-409.75 59.54,-409.286"/>
</g>
<!-- Node4 -->
<g id="node4" class="node"><title>Node4</title>
<g id="a_node4"><a xlink:href="_g_c_c_2_m_c_f5235_2port_8c.html#ab29afb2a4cb7a5158953f41abd366a76" target="_top" xlink:title="prvPortYield">
<polygon fill="white" stroke="black" points="185.5,-760.5 185.5,-779.5 256.5,-779.5 256.5,-760.5 185.5,-760.5"/>
<text text-anchor="middle" x="221" y="-767.5" font-family="Helvetica,sans-Serif" font-size="10.00">prvPortYield</text>
</a>
</g>
</g>
<!-- Node1&#45;&gt;Node4 -->
<g id="edge3" class="edge"><title>Node1&#45;&gt;Node4</title>
<path fill="none" stroke="midnightblue" d="M57.2345,-410.066C65.2589,-478.561 94.7842,-701.623 144,-751 154.753,-761.789 170.645,-766.774 185.12,-768.969"/>
<polygon fill="midnightblue" stroke="midnightblue" points="60.6732,-409.331 56.0581,-399.794 53.7187,-410.127 60.6732,-409.331"/>
</g>
<!-- Node6 -->
<g id="node6" class="node"><title>Node6</title>
<g id="a_node6"><a xlink:href="_m_s_v_c-_ming_w_2port_8c.html#a1d6207a2b13a4c014a0b0f4d54f900e0" target="_top" xlink:title="prvProcessSimulatedInterrupts">
<polygon fill="white" stroke="black" points="144.5,-722.5 144.5,-741.5 297.5,-741.5 297.5,-722.5 144.5,-722.5"/>
<text text-anchor="middle" x="221" y="-729.5" font-family="Helvetica,sans-Serif" font-size="10.00">prvProcessSimulatedInterrupts</text>
</a>
</g>
</g>
<!-- Node1&#45;&gt;Node6 -->
<g id="edge5" class="edge"><title>Node1&#45;&gt;Node6</title>
<path fill="none" stroke="midnightblue" d="M57.8445,-409.986C67.2865,-473.576 99.5312,-669.581 144,-713 147.892,-716.801 152.424,-719.877 157.3,-722.364"/>
<polygon fill="midnightblue" stroke="midnightblue" points="61.2541,-409.111 56.349,-399.72 54.3272,-410.12 61.2541,-409.111"/>
</g>
<!-- Node8 -->
<g id="node8" class="node"><title>Node8</title>
<g id="a_node8"><a xlink:href="_g_c_c_2_c_o_r_t_u_s___a_p_s3_2port_8c.html#aa0ae742a01361a946aea2acb64fb924b" target="_top" xlink:title="prvProcessTick">
<polygon fill="white" stroke="black" points="178.5,-570.5 178.5,-589.5 263.5,-589.5 263.5,-570.5 178.5,-570.5"/>
<text text-anchor="middle" x="221" y="-577.5" font-family="Helvetica,sans-Serif" font-size="10.00">prvProcessTick</text>
</a>
</g>
</g>
<!-- Node1&#45;&gt;Node8 -->
<g id="edge7" class="edge"><title>Node1&#45;&gt;Node8</title>
<path fill="none" stroke="midnightblue" d="M59.5495,-409.65C68.8953,-445.471 93.7359,-521.346 144,-561 153.824,-568.75 166.402,-573.383 178.486,-576.14"/>
<polygon fill="midnightblue" stroke="midnightblue" points="62.844,-408.392 57.047,-399.523 56.0484,-410.071 62.844,-408.392"/>
</g>
<!-- Node10 -->
<g id="node10" class="node"><title>Node10</title>
<g id="a_node10"><a xlink:href="_g_c_c_2_tri_core__1782_2port_8c.html#acc47dfc4b7b63a5dc427be518fd85d99" target="_top" xlink:title="prvSystemTickHandler">
<polygon fill="white" stroke="black" points="162.5,-608.5 162.5,-627.5 279.5,-627.5 279.5,-608.5 162.5,-608.5"/>
<text text-anchor="middle" x="221" y="-615.5" font-family="Helvetica,sans-Serif" font-size="10.00">prvSystemTickHandler</text>
</a>
</g>
</g>
<!-- Node1&#45;&gt;Node10 -->
<g id="edge9" class="edge"><title>Node1&#45;&gt;Node10</title>
<path fill="none" stroke="midnightblue" d="M57.5031,-409.605C63.8778,-451.141 84.6515,-548.338 144,-599 149.379,-603.592 155.709,-607.102 162.38,-609.781"/>
<polygon fill="midnightblue" stroke="midnightblue" points="60.9627,-409.072 56.0942,-399.662 54.032,-410.054 60.9627,-409.072"/>
</g>
<!-- Node11 -->
<g id="node11" class="node"><title>Node11</title>
<g id="a_node11"><a xlink:href="_m_p_l_a_b_2_p_i_c18_f_2port_8c.html#aa102d20e6272879e93b4fe81a049dad6" target="_top" xlink:title="prvTickISR">
<polygon fill="white" stroke="black" points="188.5,-532.5 188.5,-551.5 253.5,-551.5 253.5,-532.5 188.5,-532.5"/>
<text text-anchor="middle" x="221" y="-539.5" font-family="Helvetica,sans-Serif" font-size="10.00">prvTickISR</text>
</a>
</g>
</g>
<!-- Node1&#45;&gt;Node11 -->
<g id="edge10" class="edge"><title>Node1&#45;&gt;Node11</title>
<path fill="none" stroke="midnightblue" d="M62.5249,-409.343C74.9315,-438.609 102.51,-493.815 144,-523 156.904,-532.077 173.718,-536.829 188.25,-539.312"/>
<polygon fill="midnightblue" stroke="midnightblue" points="65.6619,-407.767 58.6428,-399.831 59.1808,-410.412 65.6619,-407.767"/>
</g>
<!-- Node14 -->
<g id="node14" class="node"><title>Node14</title>
<g id="a_node14"><a xlink:href="_g_c_c_2_tri_core__1782_2port_8c.html#ab7cabab6d1e9f66ab2be70efc236a7df" target="_top" xlink:title="prvTrapYield">
<polygon fill="white" stroke="black" points="184.5,-684.5 184.5,-703.5 257.5,-703.5 257.5,-684.5 184.5,-684.5"/>
<text text-anchor="middle" x="221" y="-691.5" font-family="Helvetica,sans-Serif" font-size="10.00">prvTrapYield</text>
</a>
</g>
</g>
<!-- Node1&#45;&gt;Node14 -->
<g id="edge14" class="edge"><title>Node1&#45;&gt;Node14</title>
<path fill="none" stroke="midnightblue" d="M54.9664,-409.687C55.9986,-461.294 66.2,-601.565 144,-675 154.781,-685.176 170.159,-690.131 184.265,-692.466"/>
<polygon fill="midnightblue" stroke="midnightblue" points="58.4651,-409.53 54.8643,-399.566 51.4655,-409.601 58.4651,-409.53"/>
</g>
<!-- Node15 -->
<g id="node15" class="node"><title>Node15</title>
<g id="a_node15"><a xlink:href="_i_a_r_2_a_v_r32___u_c3_2port_8c.html#ad547cf475a00f0c1a37dac99d82ef31d" target="_top" xlink:title="SCALLYield">
<polygon fill="white" stroke="black" points="186,-494.5 186,-513.5 256,-513.5 256,-494.5 186,-494.5"/>
<text text-anchor="middle" x="221" y="-501.5" font-family="Helvetica,sans-Serif" font-size="10.00">SCALLYield</text>
</a>
</g>
</g>
<!-- Node1&#45;&gt;Node15 -->
<g id="edge16" class="edge"><title>Node1&#45;&gt;Node15</title>
<path fill="none" stroke="midnightblue" d="M66.7677,-407.798C81.9997,-429.396 110.587,-465.356 144,-485 156.662,-492.444 172.167,-496.989 185.863,-499.756"/>
<polygon fill="midnightblue" stroke="midnightblue" points="69.6253,-405.776 61.0822,-399.51 63.8529,-409.736 69.6253,-405.776"/>
</g>
<!-- Node16 -->
<g id="node16" class="node"><title>Node16</title>
<g id="a_node16"><a xlink:href="_i_a_r_2_s_t_r91x_2port_8c.html#a38ad4725462bdc5e86c4ead4f04b9fc2" target="_top" xlink:title="TIM2_IRQHandler">
<polygon fill="white" stroke="black" points="172,-456.5 172,-475.5 270,-475.5 270,-456.5 172,-456.5"/>
<text text-anchor="middle" x="221" y="-463.5" font-family="Helvetica,sans-Serif" font-size="10.00">TIM2_IRQHandler</text>
</a>
</g>
</g>
<!-- Node1&#45;&gt;Node16 -->
<g id="edge17" class="edge"><title>Node1&#45;&gt;Node16</title>
<path fill="none" stroke="midnightblue" d="M75.4826,-405.867C92.8577,-418.632 118.893,-436.168 144,-447 152.742,-450.771 162.385,-453.901 171.783,-456.458"/>
<polygon fill="midnightblue" stroke="midnightblue" points="77.3381,-402.884 67.2368,-399.688 73.1403,-408.486 77.3381,-402.884"/>
</g>
<!-- Node17 -->
<g id="node17" class="node"><title>Node17</title>
<g id="a_node17"><a xlink:href="_renesas_2_r_x100_2port_8c.html#af76f3c0b44c5b5c06fc046a4ee1a6423" target="_top" xlink:title="vPortEndScheduler">
<polygon fill="white" stroke="black" points="169.5,-418.5 169.5,-437.5 272.5,-437.5 272.5,-418.5 169.5,-418.5"/>
<text text-anchor="middle" x="221" y="-425.5" font-family="Helvetica,sans-Serif" font-size="10.00">vPortEndScheduler</text>
</a>
</g>
</g>
<!-- Node1&#45;&gt;Node17 -->
<g id="edge18" class="edge"><title>Node1&#45;&gt;Node17</title>
<path fill="none" stroke="midnightblue" d="M106.654,-401.896C129.846,-407.237 156.838,-413.454 178.663,-418.48"/>
<polygon fill="midnightblue" stroke="midnightblue" points="107.167,-398.423 96.6365,-399.589 105.596,-405.244 107.167,-398.423"/>
</g>
<!-- Node18 -->
<g id="node18" class="node"><title>Node18</title>
<g id="a_node18"><a xlink:href="_i_a_r_2_s_t_r71x_2port_8c.html#afa0af0d6450abd50943523742eb8090b" target="_top" xlink:title="vPortPreemptiveTick">
<polygon fill="white" stroke="black" points="166.5,-380.5 166.5,-399.5 275.5,-399.5 275.5,-380.5 166.5,-380.5"/>
<text text-anchor="middle" x="221" y="-387.5" font-family="Helvetica,sans-Serif" font-size="10.00">vPortPreemptiveTick</text>
</a>
</g>
</g>
<!-- Node1&#45;&gt;Node18 -->
<g id="edge19" class="edge"><title>Node1&#45;&gt;Node18</title>
<path fill="none" stroke="midnightblue" d="M117.981,-390C133.955,-390 150.965,-390 166.423,-390"/>
<polygon fill="midnightblue" stroke="midnightblue" points="117.661,-386.5 107.661,-390 117.661,-393.5 117.661,-386.5"/>
</g>
<!-- Node21 -->
<g id="node21" class="node"><title>Node21</title>
<g id="a_node21"><a xlink:href="_g_c_c_2_nios_i_i_2port_8c.html#aba3499e1ee02f7effadcdda992d7c17f" target="_top" xlink:title="vPortSysTickHandler">
<polygon fill="white" stroke="black" points="166,-342.5 166,-361.5 276,-361.5 276,-342.5 166,-342.5"/>
<text text-anchor="middle" x="221" y="-349.5" font-family="Helvetica,sans-Serif" font-size="10.00">vPortSysTickHandler</text>
</a>
</g>
</g>
<!-- Node1&#45;&gt;Node21 -->
<g id="edge22" class="edge"><title>Node1&#45;&gt;Node21</title>
<path fill="none" stroke="midnightblue" d="M106.654,-378.104C129.846,-372.763 156.838,-366.546 178.663,-361.52"/>
<polygon fill="midnightblue" stroke="midnightblue" points="105.596,-374.756 96.6365,-380.411 107.167,-381.577 105.596,-374.756"/>
</g>
<!-- Node24 -->
<g id="node24" class="node"><title>Node24</title>
<g id="a_node24"><a xlink:href="_code_warrior_2_h_c_s12_2port_8c.html#ae536a48b8cb683c5474b383aa811fd3e" target="_top" xlink:title="vPortTickInterrupt">
<polygon fill="white" stroke="black" points="173.5,-304.5 173.5,-323.5 268.5,-323.5 268.5,-304.5 173.5,-304.5"/>
<text text-anchor="middle" x="221" y="-311.5" font-family="Helvetica,sans-Serif" font-size="10.00">vPortTickInterrupt</text>
</a>
</g>
</g>
<!-- Node1&#45;&gt;Node24 -->
<g id="edge25" class="edge"><title>Node1&#45;&gt;Node24</title>
<path fill="none" stroke="midnightblue" d="M75.4826,-374.133C92.8577,-361.368 118.893,-343.832 144,-333 153.241,-329.013 163.49,-325.744 173.392,-323.11"/>
<polygon fill="midnightblue" stroke="midnightblue" points="73.1403,-371.514 67.2368,-380.312 77.3381,-377.116 73.1403,-371.514"/>
</g>
<!-- Node25 -->
<g id="node25" class="node"><title>Node25</title>
<g id="a_node25"><a xlink:href="_i_a_r_2_atmel_s_a_m9_x_e_2port_8c.html#aa9b28633f6ea4e6b2509a7c5bd839981" target="_top" xlink:title="vPortTickISR">
<polygon fill="white" stroke="black" points="183.5,-266.5 183.5,-285.5 258.5,-285.5 258.5,-266.5 183.5,-266.5"/>
<text text-anchor="middle" x="221" y="-273.5" font-family="Helvetica,sans-Serif" font-size="10.00">vPortTickISR</text>
</a>
</g>
</g>
<!-- Node1&#45;&gt;Node25 -->
<g id="edge26" class="edge"><title>Node1&#45;&gt;Node25</title>
<path fill="none" stroke="midnightblue" d="M66.7677,-372.202C81.9997,-350.604 110.587,-314.644 144,-295 155.842,-288.038 170.169,-283.612 183.178,-280.805"/>
<polygon fill="midnightblue" stroke="midnightblue" points="63.8529,-370.264 61.0822,-380.49 69.6253,-374.224 63.8529,-370.264"/>
</g>
<!-- Node26 -->
<g id="node26" class="node"><title>Node26</title>
<g id="a_node26"><a xlink:href="_tasking_2_a_r_m___c_m4_f_2portmacro_8h.html#add01c927fb689f7ec170e42d47d27927" target="_top" xlink:title="vPortYield">
<polygon fill="white" stroke="black" points="190,-228.5 190,-247.5 252,-247.5 252,-228.5 190,-228.5"/>
<text text-anchor="middle" x="221" y="-235.5" font-family="Helvetica,sans-Serif" font-size="10.00">vPortYield</text>
</a>
</g>
</g>
<!-- Node1&#45;&gt;Node26 -->
<g id="edge27" class="edge"><title>Node1&#45;&gt;Node26</title>
<path fill="none" stroke="midnightblue" d="M62.5249,-370.657C74.9315,-341.391 102.51,-286.185 144,-257 157.349,-247.61 174.882,-242.848 189.744,-240.439"/>
<polygon fill="midnightblue" stroke="midnightblue" points="59.1808,-369.588 58.6428,-380.169 65.6619,-372.233 59.1808,-369.588"/>
</g>
<!-- Node28 -->
<g id="node28" class="node"><title>Node28</title>
<g id="a_node28"><a xlink:href="_softune_2_m_b96340_2port_8c.html#a04375590036a5cbfb25df405922ab067" target="_top" xlink:title="vPortYieldDelayed">
<polygon fill="white" stroke="black" points="171.5,-190.5 171.5,-209.5 270.5,-209.5 270.5,-190.5 171.5,-190.5"/>
<text text-anchor="middle" x="221" y="-197.5" font-family="Helvetica,sans-Serif" font-size="10.00">vPortYieldDelayed</text>
</a>
</g>
</g>
<!-- Node1&#45;&gt;Node28 -->
<g id="edge29" class="edge"><title>Node1&#45;&gt;Node28</title>
<path fill="none" stroke="midnightblue" d="M59.5495,-370.35C68.8953,-334.529 93.7359,-258.654 144,-219 151.902,-212.766 161.585,-208.549 171.361,-205.703"/>
<polygon fill="midnightblue" stroke="midnightblue" points="56.0484,-369.929 57.047,-380.477 62.844,-371.608 56.0484,-369.929"/>
</g>
<!-- Node29 -->
<g id="node29" class="node"><title>Node29</title>
<g id="a_node29"><a xlink:href="_i_a_r_2_a_t_mega323_2port_8c.html#a130213f2e8a8331aaa6dc715f41b6358" target="_top" xlink:title="vPortYieldFromTick">
<polygon fill="white" stroke="black" points="169,-152.5 169,-171.5 273,-171.5 273,-152.5 169,-152.5"/>
<text text-anchor="middle" x="221" y="-159.5" font-family="Helvetica,sans-Serif" font-size="10.00">vPortYieldFromTick</text>
</a>
</g>
</g>
<!-- Node1&#45;&gt;Node29 -->
<g id="edge30" class="edge"><title>Node1&#45;&gt;Node29</title>
<path fill="none" stroke="midnightblue" d="M57.5031,-370.395C63.8778,-328.859 84.6515,-231.662 144,-181 151.034,-174.996 159.694,-170.84 168.619,-167.976"/>
<polygon fill="midnightblue" stroke="midnightblue" points="54.032,-369.946 56.0942,-380.338 60.9627,-370.928 54.032,-369.946"/>
</g>
<!-- Node30 -->
<g id="node30" class="node"><title>Node30</title>
<g id="a_node30"><a xlink:href="_code_warrior_2_cold_fire___v1_2port_8c.html#ad39f79e3ec80894f2c6b1e5ed132f10f" target="_top" xlink:title="vPortYieldHandler">
<polygon fill="white" stroke="black" points="172.5,-114.5 172.5,-133.5 269.5,-133.5 269.5,-114.5 172.5,-114.5"/>
<text text-anchor="middle" x="221" y="-121.5" font-family="Helvetica,sans-Serif" font-size="10.00">vPortYieldHandler</text>
</a>
</g>
</g>
<!-- Node1&#45;&gt;Node30 -->
<g id="edge31" class="edge"><title>Node1&#45;&gt;Node30</title>
<path fill="none" stroke="midnightblue" d="M56.0498,-370.45C59.6485,-323.747 75.4314,-204.979 144,-143 151.87,-135.886 161.999,-131.344 172.281,-128.466"/>
<polygon fill="midnightblue" stroke="midnightblue" points="52.5554,-370.25 55.3853,-380.46 59.54,-370.714 52.5554,-370.25"/>
</g>
<!-- Node31 -->
<g id="node31" class="node"><title>Node31</title>
<g id="a_node31"><a xlink:href="_a_r_m7___a_t91_f_r40008_2port_i_s_r_8c.html#ab2e6549af16c47ab2e7d0fccb861a708" target="_top" xlink:title="vPortYieldProcessor">
<polygon fill="white" stroke="black" points="167.5,-76.5 167.5,-95.5 274.5,-95.5 274.5,-76.5 167.5,-76.5"/>
<text text-anchor="middle" x="221" y="-83.5" font-family="Helvetica,sans-Serif" font-size="10.00">vPortYieldProcessor</text>
</a>
</g>
</g>
<!-- Node1&#45;&gt;Node31 -->
<g id="edge32" class="edge"><title>Node1&#45;&gt;Node31</title>
<path fill="none" stroke="midnightblue" d="M54.9664,-370.313C55.9986,-318.706 66.2,-178.435 144,-105 150.528,-98.8385 158.741,-94.5912 167.337,-91.6805"/>
<polygon fill="midnightblue" stroke="midnightblue" points="51.4655,-370.399 54.8643,-380.434 58.4651,-370.47 51.4655,-370.399"/>
</g>
<!-- Node32 -->
<g id="node32" class="node"><title>Node32</title>
<g id="a_node32"><a xlink:href="_g_c_c_2_micro_blaze_2port_8c.html#ab5ab3ae4463018bbd90bc56dbe7da7b4" target="_top" xlink:title="vTickISR">
<polygon fill="white" stroke="black" points="193,-38.5 193,-57.5 249,-57.5 249,-38.5 193,-38.5"/>
<text text-anchor="middle" x="221" y="-45.5" font-family="Helvetica,sans-Serif" font-size="10.00">vTickISR</text>
</a>
</g>
</g>
<!-- Node1&#45;&gt;Node32 -->
<g id="edge33" class="edge"><title>Node1&#45;&gt;Node32</title>
<path fill="none" stroke="midnightblue" d="M57.8445,-370.014C67.2865,-306.424 99.5312,-110.419 144,-67 156.845,-54.4581 176.65,-49.7985 192.822,-48.2271"/>
<polygon fill="midnightblue" stroke="midnightblue" points="54.3272,-369.88 56.349,-380.28 61.2541,-370.889 54.3272,-369.88"/>
</g>
<!-- Node33 -->
<g id="node33" class="node"><title>Node33</title>
<g id="a_node33"><a xlink:href="_r_v_d_s_2_a_r_m___c_m0_2port_8c.html#a4e6b17b7b6e1a92564afdeff7e9dba91" target="_top" xlink:title="xPortPendSVHandler">
<polygon fill="white" stroke="black" points="165,-0.5 165,-19.5 277,-19.5 277,-0.5 165,-0.5"/>
<text text-anchor="middle" x="221" y="-7.5" font-family="Helvetica,sans-Serif" font-size="10.00">xPortPendSVHandler</text>
</a>
</g>
</g>
<!-- Node1&#45;&gt;Node33 -->
<g id="edge34" class="edge"><title>Node1&#45;&gt;Node33</title>
<path fill="none" stroke="midnightblue" d="M57.2345,-369.934C65.2589,-301.439 94.7842,-78.3766 144,-29 149.761,-23.2204 156.996,-19.1063 164.698,-16.1944"/>
<polygon fill="midnightblue" stroke="midnightblue" points="53.7187,-369.873 56.0581,-380.206 60.6732,-370.669 53.7187,-369.873"/>
</g>
<!-- Node3 -->
<g id="node3" class="node"><title>Node3</title>
<g id="a_node3"><a xlink:href="_g_c_c_2_tri_core__1782_2port_8c.html#a42d48e1e07c99c055d4353dc3b38b466" target="_top" xlink:title="xPortStartScheduler">
<polygon fill="white" stroke="black" points="341,-665.5 341,-684.5 447,-684.5 447,-665.5 341,-665.5"/>
<text text-anchor="middle" x="394" y="-672.5" font-family="Helvetica,sans-Serif" font-size="10.00">xPortStartScheduler</text>
</a>
</g>
</g>
<!-- Node2&#45;&gt;Node3 -->
<g id="edge2" class="edge"><title>Node2&#45;&gt;Node3</title>
<path fill="none" stroke="midnightblue" d="M276.247,-662.027C296.925,-664.325 320.431,-666.937 340.905,-669.212"/>
<polygon fill="midnightblue" stroke="midnightblue" points="276.362,-658.519 266.037,-660.893 275.589,-665.476 276.362,-658.519"/>
</g>
<!-- Node5 -->
<g id="node5" class="node"><title>Node5</title>
<g id="a_node5"><a xlink:href="_g_c_c_2_m_c_f5235_2port_8c.html#ade5a8c6666e7413a0355cc252029c5c6" target="_top" xlink:title="xPortStartScheduler">
<polygon fill="white" stroke="black" points="341,-760.5 341,-779.5 447,-779.5 447,-760.5 341,-760.5"/>
<text text-anchor="middle" x="394" y="-767.5" font-family="Helvetica,sans-Serif" font-size="10.00">xPortStartScheduler</text>
</a>
</g>
</g>
<!-- Node4&#45;&gt;Node5 -->
<g id="edge4" class="edge"><title>Node4&#45;&gt;Node5</title>
<path fill="none" stroke="midnightblue" d="M266.668,-770C289.413,-770 317.196,-770 340.911,-770"/>
<polygon fill="midnightblue" stroke="midnightblue" points="266.604,-766.5 256.604,-770 266.604,-773.5 266.604,-766.5"/>
</g>
<!-- Node7 -->
<g id="node7" class="node"><title>Node7</title>
<g id="a_node7"><a xlink:href="_m_s_v_c-_ming_w_2port_8c.html#ade5a8c6666e7413a0355cc252029c5c6" target="_top" xlink:title="xPortStartScheduler">
<polygon fill="white" stroke="black" points="341,-722.5 341,-741.5 447,-741.5 447,-722.5 341,-722.5"/>
<text text-anchor="middle" x="394" y="-729.5" font-family="Helvetica,sans-Serif" font-size="10.00">xPortStartScheduler</text>
</a>
</g>
</g>
<!-- Node6&#45;&gt;Node7 -->
<g id="edge6" class="edge"><title>Node6&#45;&gt;Node7</title>
<path fill="none" stroke="midnightblue" d="M307.515,-732C318.933,-732 330.351,-732 340.954,-732"/>
<polygon fill="midnightblue" stroke="midnightblue" points="307.501,-728.5 297.501,-732 307.501,-735.5 307.501,-728.5"/>
</g>
<!-- Node9 -->
<g id="node9" class="node"><title>Node9</title>
<g id="a_node9"><a xlink:href="_g_c_c_2_c_o_r_t_u_s___a_p_s3_2port_8c.html#a1addd63671cd6fd6f4b9c5752433008e" target="_top" xlink:title="interrupt7_handler">
<polygon fill="white" stroke="black" points="345,-570.5 345,-589.5 443,-589.5 443,-570.5 345,-570.5"/>
<text text-anchor="middle" x="394" y="-577.5" font-family="Helvetica,sans-Serif" font-size="10.00">interrupt7_handler</text>
</a>
</g>
</g>
<!-- Node8&#45;&gt;Node9 -->
<g id="edge8" class="edge"><title>Node8&#45;&gt;Node9</title>
<path fill="none" stroke="midnightblue" d="M273.92,-580C296.508,-580 322.814,-580 344.947,-580"/>
<polygon fill="midnightblue" stroke="midnightblue" points="273.831,-576.5 263.831,-580 273.831,-583.5 273.831,-576.5"/>
</g>
<!-- Node12 -->
<g id="node12" class="node"><title>Node12</title>
<g id="a_node12"><a xlink:href="_m_p_l_a_b_2_p_i_c18_f_2port_8c.html#a58197e4187d2a15e3442c99500df5250" target="_top" xlink:title="prvLowInterrupt">
<polygon fill="white" stroke="black" points="351,-532.5 351,-551.5 437,-551.5 437,-532.5 351,-532.5"/>
<text text-anchor="middle" x="394" y="-539.5" font-family="Helvetica,sans-Serif" font-size="10.00">prvLowInterrupt</text>
</a>
</g>
</g>
<!-- Node11&#45;&gt;Node12 -->
<g id="edge11" class="edge"><title>Node11&#45;&gt;Node12</title>
<path fill="none" stroke="midnightblue" d="M263.845,-542C290.259,-542 324.269,-542 350.759,-542"/>
<polygon fill="midnightblue" stroke="midnightblue" points="263.763,-538.5 253.763,-542 263.763,-545.5 263.763,-538.5"/>
</g>
<!-- Node13 -->
<g id="node13" class="node"><title>Node13</title>
<g id="a_node13"><a xlink:href="_m_p_l_a_b_2_p_i_c18_f_2port_8c.html#ade5a8c6666e7413a0355cc252029c5c6" target="_top" xlink:title="xPortStartScheduler">
<polygon fill="white" stroke="black" points="490,-513.5 490,-532.5 596,-532.5 596,-513.5 490,-513.5"/>
<text text-anchor="middle" x="543" y="-520.5" font-family="Helvetica,sans-Serif" font-size="10.00">xPortStartScheduler</text>
</a>
</g>
</g>
<!-- Node11&#45;&gt;Node13 -->
<g id="edge13" class="edge"><title>Node11&#45;&gt;Node13</title>
<path fill="none" stroke="midnightblue" d="M263.564,-533.237C284.571,-529.246 310.524,-524.977 334,-523 386.896,-518.545 447.628,-519.206 489.755,-520.577"/>
<polygon fill="midnightblue" stroke="midnightblue" points="262.827,-529.815 253.681,-535.163 264.166,-536.686 262.827,-529.815"/>
</g>
<!-- Node12&#45;&gt;Node13 -->
<g id="edge12" class="edge"><title>Node12&#45;&gt;Node13</title>
<path fill="none" stroke="midnightblue" d="M447.438,-535.222C461.248,-533.437 476.142,-531.512 489.932,-529.73"/>
<polygon fill="midnightblue" stroke="midnightblue" points="446.593,-531.802 437.124,-536.555 447.49,-538.745 446.593,-531.802"/>
</g>
<!-- Node14&#45;&gt;Node3 -->
<g id="edge15" class="edge"><title>Node14&#45;&gt;Node3</title>
<path fill="none" stroke="midnightblue" d="M267.841,-688.907C290.384,-686.402 317.652,-683.372 340.974,-680.781"/>
<polygon fill="midnightblue" stroke="midnightblue" points="267.4,-685.434 257.847,-690.017 268.173,-692.391 267.4,-685.434"/>
</g>
<!-- Node19 -->
<g id="node19" class="node"><title>Node19</title>
<g id="a_node19"><a xlink:href="_i_a_r_2_atmel_s_a_m7_s64_2port_8c.html#aeb91268bfbb6dc04ff839631ee5c72ba" target="_top" xlink:title="prvSetupTimerInterrupt">
<polygon fill="white" stroke="black" points="334.5,-380.5 334.5,-399.5 453.5,-399.5 453.5,-380.5 334.5,-380.5"/>
<text text-anchor="middle" x="394" y="-387.5" font-family="Helvetica,sans-Serif" font-size="10.00">prvSetupTimerInterrupt</text>
</a>
</g>
</g>
<!-- Node18&#45;&gt;Node19 -->
<g id="edge20" class="edge"><title>Node18&#45;&gt;Node19</title>
<path fill="none" stroke="midnightblue" d="M285.871,-390C301.716,-390 318.621,-390 334.209,-390"/>
<polygon fill="midnightblue" stroke="midnightblue" points="285.636,-386.5 275.636,-390 285.636,-393.5 285.636,-386.5"/>
</g>
<!-- Node20 -->
<g id="node20" class="node"><title>Node20</title>
<g id="a_node20"><a xlink:href="_i_a_r_2_atmel_s_a_m7_s64_2port_8c.html#ade5a8c6666e7413a0355cc252029c5c6" target="_top" xlink:title="xPortStartScheduler">
<polygon fill="white" stroke="black" points="490,-380.5 490,-399.5 596,-399.5 596,-380.5 490,-380.5"/>
<text text-anchor="middle" x="543" y="-387.5" font-family="Helvetica,sans-Serif" font-size="10.00">xPortStartScheduler</text>
</a>
</g>
</g>
<!-- Node19&#45;&gt;Node20 -->
<g id="edge21" class="edge"><title>Node19&#45;&gt;Node20</title>
<path fill="none" stroke="midnightblue" d="M463.756,-390C472.536,-390 481.407,-390 489.865,-390"/>
<polygon fill="midnightblue" stroke="midnightblue" points="463.521,-386.5 453.521,-390 463.521,-393.5 463.521,-386.5"/>
</g>
<!-- Node22 -->
<g id="node22" class="node"><title>Node22</title>
<g id="a_node22"><a xlink:href="_g_c_c_2_nios_i_i_2port_8c.html#a397ed34de04a678dc71217c713763423" target="_top" xlink:title="prvSetupTimerInterrupt">
<polygon fill="white" stroke="black" points="334.5,-342.5 334.5,-361.5 453.5,-361.5 453.5,-342.5 334.5,-342.5"/>
<text text-anchor="middle" x="394" y="-349.5" font-family="Helvetica,sans-Serif" font-size="10.00">prvSetupTimerInterrupt</text>
</a>
</g>
</g>
<!-- Node21&#45;&gt;Node22 -->
<g id="edge23" class="edge"><title>Node21&#45;&gt;Node22</title>
<path fill="none" stroke="midnightblue" d="M286.27,-352C302,-352 318.753,-352 334.211,-352"/>
<polygon fill="midnightblue" stroke="midnightblue" points="286.106,-348.5 276.105,-352 286.105,-355.5 286.106,-348.5"/>
</g>
<!-- Node23 -->
<g id="node23" class="node"><title>Node23</title>
<g id="a_node23"><a xlink:href="_g_c_c_2_nios_i_i_2port_8c.html#ade5a8c6666e7413a0355cc252029c5c6" target="_top" xlink:title="xPortStartScheduler">
<polygon fill="white" stroke="black" points="490,-342.5 490,-361.5 596,-361.5 596,-342.5 490,-342.5"/>
<text text-anchor="middle" x="543" y="-349.5" font-family="Helvetica,sans-Serif" font-size="10.00">xPortStartScheduler</text>
</a>
</g>
</g>
<!-- Node22&#45;&gt;Node23 -->
<g id="edge24" class="edge"><title>Node22&#45;&gt;Node23</title>
<path fill="none" stroke="midnightblue" d="M463.756,-352C472.536,-352 481.407,-352 489.865,-352"/>
<polygon fill="midnightblue" stroke="midnightblue" points="463.521,-348.5 453.521,-352 463.521,-355.5 463.521,-348.5"/>
</g>
<!-- Node27 -->
<g id="node27" class="node"><title>Node27</title>
<g id="a_node27"><a xlink:href="_g_c_c_2_p_p_c405___xilinx_2port_8c.html#ade5a8c6666e7413a0355cc252029c5c6" target="_top" xlink:title="xPortStartScheduler">
<polygon fill="white" stroke="black" points="341,-228.5 341,-247.5 447,-247.5 447,-228.5 341,-228.5"/>
<text text-anchor="middle" x="394" y="-235.5" font-family="Helvetica,sans-Serif" font-size="10.00">xPortStartScheduler</text>
</a>
</g>
</g>
<!-- Node26&#45;&gt;Node27 -->
<g id="edge28" class="edge"><title>Node26&#45;&gt;Node27</title>
<path fill="none" stroke="midnightblue" d="M262.482,-238C285.966,-238 315.789,-238 340.998,-238"/>
<polygon fill="midnightblue" stroke="midnightblue" points="262.178,-234.5 252.178,-238 262.178,-241.5 262.178,-234.5"/>
</g>
</g>
</svg>
