<?xml version="1.0" encoding="UTF-8" standalone="no"?>
<!DOCTYPE svg PUBLIC "-//W3C//DTD SVG 1.1//EN"
 "http://www.w3.org/Graphics/SVG/1.1/DTD/svg11.dtd">
<!-- Generated by graphviz version 2.30.1 (20130221.2233)
 -->
<!-- Title: vTaskSwitchContext Pages: 1 -->
<svg width="448pt" height="104pt"
 viewBox="0.00 0.00 448.00 104.00" xmlns="http://www.w3.org/2000/svg" xmlns:xlink="http://www.w3.org/1999/xlink">
<g id="graph0" class="graph" transform="scale(1 1) rotate(0) translate(4 100)">
<title>vTaskSwitchContext</title>
<polygon fill="white" stroke="white" points="-4,5 -4,-100 445,-100 445,5 -4,5"/>
<!-- Node1 -->
<g id="node1" class="node"><title>Node1</title>
<polygon fill="#bfbfbf" stroke="black" points="0.5,-38.5 0.5,-57.5 107.5,-57.5 107.5,-38.5 0.5,-38.5"/>
<text text-anchor="middle" x="54" y="-45.5" font-family="Helvetica,sans-Serif" font-size="10.00">vTaskSwitchContext</text>
</g>
<!-- Node2 -->
<g id="node2" class="node"><title>Node2</title>
<g id="a_node2"><a xlink:href="port_8cpp.html#a1d6207a2b13a4c014a0b0f4d54f900e0" target="_top" xlink:title="prvProcessSimulatedInterrupts">
<polygon fill="white" stroke="black" points="144.5,-76.5 144.5,-95.5 297.5,-95.5 297.5,-76.5 144.5,-76.5"/>
<text text-anchor="middle" x="221" y="-83.5" font-family="Helvetica,sans-Serif" font-size="10.00">prvProcessSimulatedInterrupts</text>
</a>
</g>
</g>
<!-- Node1&#45;&gt;Node2 -->
<g id="edge1" class="edge"><title>Node1&#45;&gt;Node2</title>
<path fill="none" stroke="midnightblue" d="M106.654,-59.8961C129.846,-65.2374 156.838,-71.4537 178.663,-76.4799"/>
<polygon fill="midnightblue" stroke="midnightblue" points="107.167,-56.4226 96.6365,-57.589 105.596,-63.2441 107.167,-56.4226"/>
</g>
<!-- Node4 -->
<g id="node4" class="node"><title>Node4</title>
<g id="a_node4"><a xlink:href="_s_t_r75x_2port_i_s_r_8c.html#a546d822c1cff528af19326d0fb49e7de" target="_top" xlink:title="vPortTickISR">
<polygon fill="white" stroke="black" points="183.5,-38.5 183.5,-57.5 258.5,-57.5 258.5,-38.5 183.5,-38.5"/>
<text text-anchor="middle" x="221" y="-45.5" font-family="Helvetica,sans-Serif" font-size="10.00">vPortTickISR</text>
</a>
</g>
</g>
<!-- Node1&#45;&gt;Node4 -->
<g id="edge3" class="edge"><title>Node1&#45;&gt;Node4</title>
<path fill="none" stroke="midnightblue" d="M117.699,-48C139.915,-48 164.166,-48 183.479,-48"/>
<polygon fill="midnightblue" stroke="midnightblue" points="117.661,-44.5001 107.661,-48 117.661,-51.5001 117.661,-44.5001"/>
</g>
<!-- Node5 -->
<g id="node5" class="node"><title>Node5</title>
<g id="a_node5"><a xlink:href="_a_r_m7___a_t91_f_r40008_2port_i_s_r_8c.html#ab2e6549af16c47ab2e7d0fccb861a708" target="_top" xlink:title="vPortYieldProcessor">
<polygon fill="white" stroke="black" points="167.5,-0.5 167.5,-19.5 274.5,-19.5 274.5,-0.5 167.5,-0.5"/>
<text text-anchor="middle" x="221" y="-7.5" font-family="Helvetica,sans-Serif" font-size="10.00">vPortYieldProcessor</text>
</a>
</g>
</g>
<!-- Node1&#45;&gt;Node5 -->
<g id="edge4" class="edge"><title>Node1&#45;&gt;Node5</title>
<path fill="none" stroke="midnightblue" d="M106.654,-36.1039C129.846,-30.7626 156.838,-24.5463 178.663,-19.5201"/>
<polygon fill="midnightblue" stroke="midnightblue" points="105.596,-32.7559 96.6365,-38.411 107.167,-39.5774 105.596,-32.7559"/>
</g>
<!-- Node3 -->
<g id="node3" class="node"><title>Node3</title>
<g id="a_node3"><a xlink:href="port_8cpp.html#ade5a8c6666e7413a0355cc252029c5c6" target="_top" xlink:title="xPortStartScheduler">
<polygon fill="white" stroke="black" points="334,-76.5 334,-95.5 440,-95.5 440,-76.5 334,-76.5"/>
<text text-anchor="middle" x="387" y="-83.5" font-family="Helvetica,sans-Serif" font-size="10.00">xPortStartScheduler</text>
</a>
</g>
</g>
<!-- Node2&#45;&gt;Node3 -->
<g id="edge2" class="edge"><title>Node2&#45;&gt;Node3</title>
<path fill="none" stroke="midnightblue" d="M307.83,-86C316.748,-86 325.604,-86 333.977,-86"/>
<polygon fill="midnightblue" stroke="midnightblue" points="307.759,-82.5001 297.759,-86 307.759,-89.5001 307.759,-82.5001"/>
</g>
</g>
</svg>
