<?xml version="1.0" encoding="UTF-8" standalone="no"?>
<!DOCTYPE svg PUBLIC "-//W3C//DTD SVG 1.1//EN"
 "http://www.w3.org/Graphics/SVG/1.1/DTD/svg11.dtd">
<!-- Generated by graphviz version 2.30.1 (20130221.2233)
 -->
<!-- Title: prvAddCurrentTaskToDelayedList Pages: 1 -->
<svg width="728pt" height="142pt"
 viewBox="0.00 0.00 728.00 142.00" xmlns="http://www.w3.org/2000/svg" xmlns:xlink="http://www.w3.org/1999/xlink">
<g id="graph0" class="graph" transform="scale(1 1) rotate(0) translate(4 138)">
<title>prvAddCurrentTaskToDelayedList</title>
<polygon fill="white" stroke="white" points="-4,5 -4,-138 725,-138 725,5 -4,5"/>
<!-- Node1 -->
<g id="node1" class="node"><title>Node1</title>
<polygon fill="#bfbfbf" stroke="black" points="0.5,-57.5 0.5,-76.5 167.5,-76.5 167.5,-57.5 0.5,-57.5"/>
<text text-anchor="middle" x="84" y="-64.5" font-family="Helvetica,sans-Serif" font-size="10.00">prvAddCurrentTaskToDelayedList</text>
</g>
<!-- Node2 -->
<g id="node2" class="node"><title>Node2</title>
<g id="a_node2"><a xlink:href="tasks_8c.html#adc9eb47ceecf7dd7ee325bebff9eafc5" target="_top" xlink:title="vTaskPlaceOnEventList">
<polygon fill="white" stroke="black" points="227.5,-76.5 227.5,-95.5 350.5,-95.5 350.5,-76.5 227.5,-76.5"/>
<text text-anchor="middle" x="289" y="-83.5" font-family="Helvetica,sans-Serif" font-size="10.00">vTaskPlaceOnEventList</text>
</a>
</g>
</g>
<!-- Node1&#45;&gt;Node2 -->
<g id="edge1" class="edge"><title>Node1&#45;&gt;Node2</title>
<path fill="none" stroke="midnightblue" d="M177.942,-75.699C194.696,-77.2671 211.763,-78.8645 227.3,-80.3187"/>
<polygon fill="midnightblue" stroke="midnightblue" points="177.851,-72.1752 167.568,-74.728 177.198,-79.1448 177.851,-72.1752"/>
</g>
<!-- Node7 -->
<g id="node7" class="node"><title>Node7</title>
<g id="a_node7"><a xlink:href="tasks_8c.html#a0896d9cd10d789ef8dbb95c4959c3ce5" target="_top" xlink:title="vTaskPlaceOnUnorderedEventList">
<polygon fill="white" stroke="black" points="204,-38.5 204,-57.5 374,-57.5 374,-38.5 204,-38.5"/>
<text text-anchor="middle" x="289" y="-45.5" font-family="Helvetica,sans-Serif" font-size="10.00">vTaskPlaceOnUnorderedEventList</text>
</a>
</g>
</g>
<!-- Node1&#45;&gt;Node7 -->
<g id="edge6" class="edge"><title>Node1&#45;&gt;Node7</title>
<path fill="none" stroke="midnightblue" d="M177.734,-58.3205C186.441,-57.5055 195.235,-56.6824 203.857,-55.8755"/>
<polygon fill="midnightblue" stroke="midnightblue" points="177.198,-54.8552 167.568,-59.272 177.851,-61.8248 177.198,-54.8552"/>
</g>
<!-- Node3 -->
<g id="node3" class="node"><title>Node3</title>
<g id="a_node3"><a xlink:href="queue_8c.html#acb67c81366c00896b21cd826e07d885d" target="_top" xlink:title="xQueueGenericSend">
<polygon fill="white" stroke="black" points="417,-114.5 417,-133.5 527,-133.5 527,-114.5 417,-114.5"/>
<text text-anchor="middle" x="472" y="-121.5" font-family="Helvetica,sans-Serif" font-size="10.00">xQueueGenericSend</text>
</a>
</g>
</g>
<!-- Node2&#45;&gt;Node3 -->
<g id="edge2" class="edge"><title>Node2&#45;&gt;Node3</title>
<path fill="none" stroke="midnightblue" d="M345.638,-97.681C371.307,-103.07 401.391,-109.386 425.654,-114.48"/>
<polygon fill="midnightblue" stroke="midnightblue" points="346.18,-94.2184 335.674,-95.589 344.741,-101.069 346.18,-94.2184"/>
</g>
<!-- Node5 -->
<g id="node5" class="node"><title>Node5</title>
<g id="a_node5"><a xlink:href="queue_8c.html#ace632b55c3955bacae20978e261129a6" target="_top" xlink:title="xQueueGenericReceive">
<polygon fill="white" stroke="black" points="410.5,-76.5 410.5,-95.5 533.5,-95.5 533.5,-76.5 410.5,-76.5"/>
<text text-anchor="middle" x="472" y="-83.5" font-family="Helvetica,sans-Serif" font-size="10.00">xQueueGenericReceive</text>
</a>
</g>
</g>
<!-- Node2&#45;&gt;Node5 -->
<g id="edge4" class="edge"><title>Node2&#45;&gt;Node5</title>
<path fill="none" stroke="midnightblue" d="M360.591,-86C376.985,-86 394.297,-86 410.227,-86"/>
<polygon fill="midnightblue" stroke="midnightblue" points="360.522,-82.5001 350.522,-86 360.522,-89.5001 360.522,-82.5001"/>
</g>
<!-- Node4 -->
<g id="node4" class="node"><title>Node4</title>
<g id="a_node4"><a xlink:href="_g_c_c_2_a_r_m___c_m3___m_p_u_2port_8c.html#afec3801d053a850488cda14b0cad95fd" target="_top" xlink:title="MPU_xQueueGenericSend">
<polygon fill="white" stroke="black" points="576,-114.5 576,-133.5 714,-133.5 714,-114.5 576,-114.5"/>
<text text-anchor="middle" x="645" y="-121.5" font-family="Helvetica,sans-Serif" font-size="10.00">MPU_xQueueGenericSend</text>
</a>
</g>
</g>
<!-- Node3&#45;&gt;Node4 -->
<g id="edge3" class="edge"><title>Node3&#45;&gt;Node4</title>
<path fill="none" stroke="midnightblue" d="M537.454,-124C549.983,-124 563.156,-124 575.802,-124"/>
<polygon fill="midnightblue" stroke="midnightblue" points="537.106,-120.5 527.105,-124 537.105,-127.5 537.106,-120.5"/>
</g>
<!-- Node6 -->
<g id="node6" class="node"><title>Node6</title>
<g id="a_node6"><a xlink:href="_g_c_c_2_a_r_m___c_m3___m_p_u_2port_8c.html#a11f6f4ba0b7f2612c09d7494aa695297" target="_top" xlink:title="MPU_xQueueGenericReceive">
<polygon fill="white" stroke="black" points="570,-76.5 570,-95.5 720,-95.5 720,-76.5 570,-76.5"/>
<text text-anchor="middle" x="645" y="-83.5" font-family="Helvetica,sans-Serif" font-size="10.00">MPU_xQueueGenericReceive</text>
</a>
</g>
</g>
<!-- Node5&#45;&gt;Node6 -->
<g id="edge5" class="edge"><title>Node5&#45;&gt;Node6</title>
<path fill="none" stroke="midnightblue" d="M543.79,-86C552.426,-86 561.267,-86 569.949,-86"/>
<polygon fill="midnightblue" stroke="midnightblue" points="543.77,-82.5001 533.77,-86 543.77,-89.5001 543.77,-82.5001"/>
</g>
<!-- Node8 -->
<g id="node8" class="node"><title>Node8</title>
<g id="a_node8"><a xlink:href="event__groups_8h.html#a869511456b86426f52e2eec898bff341" target="_top" xlink:title="xEventGroupSync">
<polygon fill="white" stroke="black" points="423.5,-38.5 423.5,-57.5 520.5,-57.5 520.5,-38.5 423.5,-38.5"/>
<text text-anchor="middle" x="472" y="-45.5" font-family="Helvetica,sans-Serif" font-size="10.00">xEventGroupSync</text>
</a>
</g>
</g>
<!-- Node7&#45;&gt;Node8 -->
<g id="edge7" class="edge"><title>Node7&#45;&gt;Node8</title>
<path fill="none" stroke="midnightblue" d="M384.397,-48C397.804,-48 411.098,-48 423.097,-48"/>
<polygon fill="midnightblue" stroke="midnightblue" points="384.141,-44.5001 374.141,-48 384.141,-51.5001 384.141,-44.5001"/>
</g>
<!-- Node9 -->
<g id="node9" class="node"><title>Node9</title>
<g id="a_node9"><a xlink:href="event__groups_8h.html#aab9d5b405bc57b7624dcabe9a9a503db" target="_top" xlink:title="xEventGroupWaitBits">
<polygon fill="white" stroke="black" points="416,-0.5 416,-19.5 528,-19.5 528,-0.5 416,-0.5"/>
<text text-anchor="middle" x="472" y="-7.5" font-family="Helvetica,sans-Serif" font-size="10.00">xEventGroupWaitBits</text>
</a>
</g>
</g>
<!-- Node7&#45;&gt;Node9 -->
<g id="edge8" class="edge"><title>Node7&#45;&gt;Node9</title>
<path fill="none" stroke="midnightblue" d="M345.638,-36.319C371.307,-30.9301 401.391,-24.6139 425.654,-19.5201"/>
<polygon fill="midnightblue" stroke="midnightblue" points="344.741,-32.9309 335.674,-38.411 346.18,-39.7816 344.741,-32.9309"/>
</g>
</g>
</svg>
