<?xml version="1.0" encoding="UTF-8" standalone="no"?>
<!DOCTYPE svg PUBLIC "-//W3C//DTD SVG 1.1//EN"
 "http://www.w3.org/Graphics/SVG/1.1/DTD/svg11.dtd">
<!-- Generated by graphviz version 2.30.1 (20130221.2233)
 -->
<!-- Title: vTaskMissedYield Pages: 1 -->
<svg width="580pt" height="66pt"
 viewBox="0.00 0.00 580.00 66.00" xmlns="http://www.w3.org/2000/svg" xmlns:xlink="http://www.w3.org/1999/xlink">
<g id="graph0" class="graph" transform="scale(1 1) rotate(0) translate(4 62)">
<title>vTaskMissedYield</title>
<polygon fill="white" stroke="white" points="-4,5 -4,-62 577,-62 577,5 -4,5"/>
<!-- Node1 -->
<g id="node1" class="node"><title>Node1</title>
<polygon fill="#bfbfbf" stroke="black" points="0.5,-19.5 0.5,-38.5 97.5,-38.5 97.5,-19.5 0.5,-19.5"/>
<text text-anchor="middle" x="49" y="-26.5" font-family="Helvetica,sans-Serif" font-size="10.00">vTaskMissedYield</text>
</g>
<!-- Node2 -->
<g id="node2" class="node"><title>Node2</title>
<g id="a_node2"><a xlink:href="queue_8c.html#a7297c84a7c770ed57567bad1d3e2faf6" target="_top" xlink:title="prvUnlockQueue">
<polygon fill="white" stroke="black" points="134.5,-19.5 134.5,-38.5 225.5,-38.5 225.5,-19.5 134.5,-19.5"/>
<text text-anchor="middle" x="180" y="-26.5" font-family="Helvetica,sans-Serif" font-size="10.00">prvUnlockQueue</text>
</a>
</g>
</g>
<!-- Node1&#45;&gt;Node2 -->
<g id="edge1" class="edge"><title>Node1&#45;&gt;Node2</title>
<path fill="none" stroke="midnightblue" d="M107.877,-29C116.671,-29 125.632,-29 134.096,-29"/>
<polygon fill="midnightblue" stroke="midnightblue" points="107.668,-25.5001 97.6683,-29 107.668,-32.5001 107.668,-25.5001"/>
</g>
<!-- Node3 -->
<g id="node3" class="node"><title>Node3</title>
<g id="a_node3"><a xlink:href="queue_8c.html#ace632b55c3955bacae20978e261129a6" target="_top" xlink:title="xQueueGenericReceive">
<polygon fill="white" stroke="black" points="262.5,-38.5 262.5,-57.5 385.5,-57.5 385.5,-38.5 262.5,-38.5"/>
<text text-anchor="middle" x="324" y="-45.5" font-family="Helvetica,sans-Serif" font-size="10.00">xQueueGenericReceive</text>
</a>
</g>
</g>
<!-- Node2&#45;&gt;Node3 -->
<g id="edge2" class="edge"><title>Node2&#45;&gt;Node3</title>
<path fill="none" stroke="midnightblue" d="M235.654,-36.3128C244.437,-37.488 253.573,-38.7104 262.483,-39.9027"/>
<polygon fill="midnightblue" stroke="midnightblue" points="235.916,-32.8168 225.54,-34.9596 234.988,-39.755 235.916,-32.8168"/>
</g>
<!-- Node5 -->
<g id="node5" class="node"><title>Node5</title>
<g id="a_node5"><a xlink:href="queue_8c.html#acb67c81366c00896b21cd826e07d885d" target="_top" xlink:title="xQueueGenericSend">
<polygon fill="white" stroke="black" points="269,-0.5 269,-19.5 379,-19.5 379,-0.5 269,-0.5"/>
<text text-anchor="middle" x="324" y="-7.5" font-family="Helvetica,sans-Serif" font-size="10.00">xQueueGenericSend</text>
</a>
</g>
</g>
<!-- Node2&#45;&gt;Node5 -->
<g id="edge4" class="edge"><title>Node2&#45;&gt;Node5</title>
<path fill="none" stroke="midnightblue" d="M235.763,-21.6725C246.635,-20.2179 258.043,-18.6914 268.893,-17.2397"/>
<polygon fill="midnightblue" stroke="midnightblue" points="234.988,-18.245 225.54,-23.0404 235.916,-25.1832 234.988,-18.245"/>
</g>
<!-- Node4 -->
<g id="node4" class="node"><title>Node4</title>
<g id="a_node4"><a xlink:href="_g_c_c_2_a_r_m___c_m3___m_p_u_2port_8c.html#a11f6f4ba0b7f2612c09d7494aa695297" target="_top" xlink:title="MPU_xQueueGenericReceive">
<polygon fill="white" stroke="black" points="422,-38.5 422,-57.5 572,-57.5 572,-38.5 422,-38.5"/>
<text text-anchor="middle" x="497" y="-45.5" font-family="Helvetica,sans-Serif" font-size="10.00">MPU_xQueueGenericReceive</text>
</a>
</g>
</g>
<!-- Node3&#45;&gt;Node4 -->
<g id="edge3" class="edge"><title>Node3&#45;&gt;Node4</title>
<path fill="none" stroke="midnightblue" d="M395.79,-48C404.426,-48 413.267,-48 421.949,-48"/>
<polygon fill="midnightblue" stroke="midnightblue" points="395.77,-44.5001 385.77,-48 395.77,-51.5001 395.77,-44.5001"/>
</g>
<!-- Node6 -->
<g id="node6" class="node"><title>Node6</title>
<g id="a_node6"><a xlink:href="_g_c_c_2_a_r_m___c_m3___m_p_u_2port_8c.html#afec3801d053a850488cda14b0cad95fd" target="_top" xlink:title="MPU_xQueueGenericSend">
<polygon fill="white" stroke="black" points="428,-0.5 428,-19.5 566,-19.5 566,-0.5 428,-0.5"/>
<text text-anchor="middle" x="497" y="-7.5" font-family="Helvetica,sans-Serif" font-size="10.00">MPU_xQueueGenericSend</text>
</a>
</g>
</g>
<!-- Node5&#45;&gt;Node6 -->
<g id="edge5" class="edge"><title>Node5&#45;&gt;Node6</title>
<path fill="none" stroke="midnightblue" d="M389.454,-10C401.983,-10 415.156,-10 427.802,-10"/>
<polygon fill="midnightblue" stroke="midnightblue" points="389.106,-6.5001 379.105,-10 389.105,-13.5001 389.106,-6.5001"/>
</g>
</g>
</svg>
