<?xml version="1.0" encoding="UTF-8" standalone="no"?>
<!DOCTYPE svg PUBLIC "-//W3C//DTD SVG 1.1//EN"
 "http://www.w3.org/Graphics/SVG/1.1/DTD/svg11.dtd">
<!-- Generated by graphviz version 2.30.1 (20130221.2233)
 -->
<!-- Title: prvAllocateTCBAndStack Pages: 1 -->
<svg width="636pt" height="200pt"
 viewBox="0.00 0.00 636.00 199.60" xmlns="http://www.w3.org/2000/svg" xmlns:xlink="http://www.w3.org/1999/xlink">
<g id="graph0" class="graph" transform="scale(1 1) rotate(0) translate(4 195.598)">
<title>prvAllocateTCBAndStack</title>
<polygon fill="white" stroke="white" points="-4,5 -4,-195.598 633,-195.598 633,5 -4,5"/>
<!-- Node1 -->
<g id="node1" class="node"><title>Node1</title>
<polygon fill="#bfbfbf" stroke="black" points="0.5,-34.7397 0.5,-53.7397 129.5,-53.7397 129.5,-34.7397 0.5,-34.7397"/>
<text text-anchor="middle" x="65" y="-41.7397" font-family="Helvetica,sans-Serif" font-size="10.00">prvAllocateTCBAndStack</text>
</g>
<!-- Node2 -->
<g id="node2" class="node"><title>Node2</title>
<g id="a_node2"><a xlink:href="portable_8h.html#a237d63f90b28e0950bd86f76815cd6e3" target="_top" xlink:title="pvPortMalloc">
<polygon fill="white" stroke="black" points="166,-72.7397 166,-91.7397 240,-91.7397 240,-72.7397 166,-72.7397"/>
<text text-anchor="middle" x="203" y="-79.7397" font-family="Helvetica,sans-Serif" font-size="10.00">pvPortMalloc</text>
</a>
</g>
</g>
<!-- Node1&#45;&gt;Node2 -->
<g id="edge1" class="edge"><title>Node1&#45;&gt;Node2</title>
<path fill="none" stroke="midnightblue" d="M100.319,-53.8287C117.794,-58.7116 139.241,-64.704 157.925,-69.9246"/>
<polygon fill="midnightblue" stroke="midnightblue" points="157.119,-73.3335 167.692,-72.6537 159.003,-66.5917 157.119,-73.3335"/>
</g>
<!-- Node4 -->
<g id="node4" class="node"><title>Node4</title>
<g id="a_node4"><a xlink:href="_paradigm_2_tern___e_e_2small_2portmacro_8h.html#a14d32f8130d3c0b212cfc751730b5b49" target="_top" xlink:title="void">
<polygon fill="white" stroke="black" points="570.5,-72.7397 570.5,-91.7397 605.5,-91.7397 605.5,-72.7397 570.5,-72.7397"/>
<text text-anchor="middle" x="588" y="-79.7397" font-family="Helvetica,sans-Serif" font-size="10.00">void</text>
</a>
</g>
</g>
<!-- Node1&#45;&gt;Node4 -->
<g id="edge11" class="edge"><title>Node1&#45;&gt;Node4</title>
<path fill="none" stroke="midnightblue" d="M98.6435,-34.7321C174.156,-14.4604 365.618,26.9983 512,-26.2397 534.723,-34.504 556.369,-52.0801 570.513,-65.3513"/>
<polygon fill="midnightblue" stroke="midnightblue" points="568.318,-68.0989 577.926,-72.5648 573.2,-63.0822 568.318,-68.0989"/>
</g>
<!-- Node9 -->
<g id="node9" class="node"><title>Node9</title>
<g id="a_node9"><a xlink:href="portable_8h.html#a735cd3085bb7ba06ff8e47565bfd7016" target="_top" xlink:title="vPortFree">
<polygon fill="white" stroke="black" points="173,-34.7397 173,-53.7397 233,-53.7397 233,-34.7397 173,-34.7397"/>
<text text-anchor="middle" x="203" y="-41.7397" font-family="Helvetica,sans-Serif" font-size="10.00">vPortFree</text>
</a>
</g>
</g>
<!-- Node1&#45;&gt;Node9 -->
<g id="edge12" class="edge"><title>Node1&#45;&gt;Node9</title>
<path fill="none" stroke="midnightblue" d="M129.62,-44.2397C140.805,-44.2397 152.149,-44.2397 162.435,-44.2397"/>
<polygon fill="midnightblue" stroke="midnightblue" points="162.719,-47.7398 172.719,-44.2397 162.719,-40.7398 162.719,-47.7398"/>
</g>
<!-- Node3 -->
<g id="node3" class="node"><title>Node3</title>
<g id="a_node3"><a xlink:href="heap__2_8c.html#a3e55181f788f17d9a3e7d226a5206e4f" target="_top" xlink:title="prvHeapInit">
<polygon fill="white" stroke="black" points="289,-148.74 289,-167.74 357,-167.74 357,-148.74 289,-148.74"/>
<text text-anchor="middle" x="323" y="-155.74" font-family="Helvetica,sans-Serif" font-size="10.00">prvHeapInit</text>
</a>
</g>
</g>
<!-- Node2&#45;&gt;Node3 -->
<g id="edge2" class="edge"><title>Node2&#45;&gt;Node3</title>
<path fill="none" stroke="midnightblue" d="M214.53,-92.1404C227.977,-104.401 252.35,-125.361 276,-139.24 279.167,-141.098 282.551,-142.863 285.991,-144.515"/>
<polygon fill="midnightblue" stroke="midnightblue" points="284.566,-147.711 295.123,-148.607 287.428,-141.323 284.566,-147.711"/>
</g>
<!-- Node2&#45;&gt;Node4 -->
<g id="edge3" class="edge"><title>Node2&#45;&gt;Node4</title>
<path fill="none" stroke="midnightblue" d="M240.032,-82.2397C316.235,-82.2397 492.273,-82.2397 559.88,-82.2397"/>
<polygon fill="midnightblue" stroke="midnightblue" points="560.126,-85.7398 570.126,-82.2397 560.126,-78.7398 560.126,-85.7398"/>
</g>
<!-- Node5 -->
<g id="node5" class="node"><title>Node5</title>
<g id="a_node5"><a xlink:href="task_8h.html#a366b302eba79d10b5ee2a3756f0fcc43" target="_top" xlink:title="vTaskSuspendAll">
<polygon fill="white" stroke="black" points="276,-34.7397 276,-53.7397 370,-53.7397 370,-34.7397 276,-34.7397"/>
<text text-anchor="middle" x="323" y="-41.7397" font-family="Helvetica,sans-Serif" font-size="10.00">vTaskSuspendAll</text>
</a>
</g>
</g>
<!-- Node2&#45;&gt;Node5 -->
<g id="edge4" class="edge"><title>Node2&#45;&gt;Node5</title>
<path fill="none" stroke="midnightblue" d="M233.776,-72.6507C248.59,-67.8802 266.691,-62.0509 282.634,-56.9168"/>
<polygon fill="midnightblue" stroke="midnightblue" points="283.787,-60.2225 292.233,-53.8256 281.642,-53.5595 283.787,-60.2225"/>
</g>
<!-- Node6 -->
<g id="node6" class="node"><title>Node6</title>
<g id="a_node6"><a xlink:href="task_8h.html#a003f8ae6d649225abd030cc76e1c7d0e" target="_top" xlink:title="xTaskResumeAll">
<polygon fill="white" stroke="black" points="277,-110.74 277,-129.74 369,-129.74 369,-110.74 277,-110.74"/>
<text text-anchor="middle" x="323" y="-117.74" font-family="Helvetica,sans-Serif" font-size="10.00">xTaskResumeAll</text>
</a>
</g>
</g>
<!-- Node2&#45;&gt;Node6 -->
<g id="edge5" class="edge"><title>Node2&#45;&gt;Node6</title>
<path fill="none" stroke="midnightblue" d="M233.776,-91.8287C248.59,-96.5991 266.691,-102.428 282.634,-107.563"/>
<polygon fill="midnightblue" stroke="midnightblue" points="281.642,-110.92 292.233,-110.654 283.787,-104.257 281.642,-110.92"/>
</g>
<!-- Node7 -->
<g id="node7" class="node"><title>Node7</title>
<g id="a_node7"><a xlink:href="list_8h.html#a2eb1558482076fff8cafc63419c2d34a" target="_top" xlink:title="uxListRemove">
<polygon fill="white" stroke="black" points="548,-167.74 548,-186.74 628,-186.74 628,-167.74 548,-167.74"/>
<text text-anchor="middle" x="588" y="-174.74" font-family="Helvetica,sans-Serif" font-size="10.00">uxListRemove</text>
</a>
</g>
</g>
<!-- Node6&#45;&gt;Node7 -->
<g id="edge6" class="edge"><title>Node6&#45;&gt;Node7</title>
<path fill="none" stroke="midnightblue" d="M352.701,-129.904C358.663,-132.503 364.73,-135.618 370,-139.24 389.174,-152.415 384.629,-168.047 406,-177.24 447.69,-195.172 499.947,-192.871 537.58,-187.459"/>
<polygon fill="midnightblue" stroke="midnightblue" points="538.446,-190.866 547.785,-185.864 537.365,-183.95 538.446,-190.866"/>
</g>
<!-- Node6&#45;&gt;Node4 -->
<g id="edge7" class="edge"><title>Node6&#45;&gt;Node4</title>
<path fill="none" stroke="midnightblue" d="M369.308,-115.197C407.452,-110.774 463.404,-103.871 512,-96.2397 528.058,-93.7181 545.955,-90.3969 560.238,-87.6222"/>
<polygon fill="midnightblue" stroke="midnightblue" points="561.23,-90.9942 570.366,-85.6291 559.878,-84.126 561.23,-90.9942"/>
</g>
<!-- Node8 -->
<g id="node8" class="node"><title>Node8</title>
<g id="a_node8"><a xlink:href="tasks_8c.html#a54f31e9aef0eb7b87e48c7d68ecc84c1" target="_top" xlink:title="xTaskIncrementTick">
<polygon fill="white" stroke="black" points="406,-148.74 406,-167.74 512,-167.74 512,-148.74 406,-148.74"/>
<text text-anchor="middle" x="459" y="-155.74" font-family="Helvetica,sans-Serif" font-size="10.00">xTaskIncrementTick</text>
</a>
</g>
</g>
<!-- Node6&#45;&gt;Node8 -->
<g id="edge8" class="edge"><title>Node6&#45;&gt;Node8</title>
<path fill="none" stroke="midnightblue" d="M357.814,-129.829C375.033,-134.712 396.164,-140.704 414.573,-145.925"/>
<polygon fill="midnightblue" stroke="midnightblue" points="413.621,-149.293 424.197,-148.654 415.531,-142.558 413.621,-149.293"/>
</g>
<!-- Node8&#45;&gt;Node4 -->
<g id="edge9" class="edge"><title>Node8&#45;&gt;Node4</title>
<path fill="none" stroke="midnightblue" d="M482.954,-148.679C492.164,-144.579 502.764,-139.52 512,-134.24 531.137,-123.3 551.625,-108.893 566.343,-98.0178"/>
<polygon fill="midnightblue" stroke="midnightblue" points="568.788,-100.559 574.698,-91.7659 564.594,-94.9549 568.788,-100.559"/>
</g>
<!-- Node8&#45;&gt;Node7 -->
<g id="edge10" class="edge"><title>Node8&#45;&gt;Node7</title>
<path fill="none" stroke="midnightblue" d="M512.022,-166.023C520.496,-167.29 529.252,-168.6 537.659,-169.858"/>
<polygon fill="midnightblue" stroke="midnightblue" points="537.291,-173.342 547.698,-171.36 538.326,-166.419 537.291,-173.342"/>
</g>
<!-- Node9&#45;&gt;Node4 -->
<g id="edge13" class="edge"><title>Node9&#45;&gt;Node4</title>
<path fill="none" stroke="midnightblue" d="M233.085,-34.7358C246.065,-30.9719 261.641,-27.1024 276,-25.2397 382.372,-11.4407 507.555,-51.9176 560.856,-71.852"/>
<polygon fill="midnightblue" stroke="midnightblue" points="559.65,-75.1382 570.241,-75.4303 562.144,-68.5974 559.65,-75.1382"/>
</g>
<!-- Node9&#45;&gt;Node5 -->
<g id="edge14" class="edge"><title>Node9&#45;&gt;Node5</title>
<path fill="none" stroke="midnightblue" d="M233.169,-44.2397C242.992,-44.2397 254.313,-44.2397 265.513,-44.2397"/>
<polygon fill="midnightblue" stroke="midnightblue" points="265.718,-47.7398 275.718,-44.2397 265.718,-40.7398 265.718,-47.7398"/>
</g>
<!-- Node9&#45;&gt;Node6 -->
<g id="edge15" class="edge"><title>Node9&#45;&gt;Node6</title>
<path fill="none" stroke="midnightblue" d="M223.298,-53.8719C228.773,-56.7523 234.687,-60.0075 240,-63.2397 261.371,-76.2407 284.7,-92.6927 300.991,-104.576"/>
<polygon fill="midnightblue" stroke="midnightblue" points="299.13,-107.552 309.26,-110.657 303.277,-101.913 299.13,-107.552"/>
</g>
</g>
</svg>
