<?xml version="1.0" encoding="UTF-8" standalone="no"?>
<!DOCTYPE svg PUBLIC "-//W3C//DTD SVG 1.1//EN"
 "http://www.w3.org/Graphics/SVG/1.1/DTD/svg11.dtd">
<!-- Generated by graphviz version 2.30.1 (20130221.2233)
 -->
<!-- Title: vTaskPlaceOnEventList Pages: 1 -->
<svg width="434pt" height="142pt"
 viewBox="0.00 0.00 434.00 142.00" xmlns="http://www.w3.org/2000/svg" xmlns:xlink="http://www.w3.org/1999/xlink">
<g id="graph0" class="graph" transform="scale(1 1) rotate(0) translate(4 138)">
<title>vTaskPlaceOnEventList</title>
<polygon fill="white" stroke="white" points="-4,5 -4,-138 431,-138 431,5 -4,5"/>
<!-- Node1 -->
<g id="node1" class="node"><title>Node1</title>
<polygon fill="#bfbfbf" stroke="black" points="0.5,-57.5 0.5,-76.5 123.5,-76.5 123.5,-57.5 0.5,-57.5"/>
<text text-anchor="middle" x="62" y="-64.5" font-family="Helvetica,sans-Serif" font-size="10.00">vTaskPlaceOnEventList</text>
</g>
<!-- Node2 -->
<g id="node2" class="node"><title>Node2</title>
<g id="a_node2"><a xlink:href="tasks_8c.html#a7859bfaa75a7c5524dd45b89036f1233" target="_top" xlink:title="prvAddCurrentTaskToDelayedList">
<polygon fill="white" stroke="black" points="160.5,-114.5 160.5,-133.5 327.5,-133.5 327.5,-114.5 160.5,-114.5"/>
<text text-anchor="middle" x="244" y="-121.5" font-family="Helvetica,sans-Serif" font-size="10.00">prvAddCurrentTaskToDelayedList</text>
</a>
</g>
</g>
<!-- Node1&#45;&gt;Node2 -->
<g id="edge1" class="edge"><title>Node1&#45;&gt;Node2</title>
<path fill="none" stroke="midnightblue" d="M84.63,-76.5431C104.074,-84.863 133.557,-96.8433 160,-105 168.313,-107.564 177.191,-109.954 185.934,-112.113"/>
<polygon fill="midnightblue" stroke="midnightblue" points="185.17,-115.529 195.71,-114.451 186.798,-108.721 185.17,-115.529"/>
</g>
<!-- Node4 -->
<g id="node4" class="node"><title>Node4</title>
<g id="a_node4"><a xlink:href="list_8h.html#a2eb1558482076fff8cafc63419c2d34a" target="_top" xlink:title="uxListRemove">
<polygon fill="white" stroke="black" points="204,-76.5 204,-95.5 284,-95.5 284,-76.5 204,-76.5"/>
<text text-anchor="middle" x="244" y="-83.5" font-family="Helvetica,sans-Serif" font-size="10.00">uxListRemove</text>
</a>
</g>
</g>
<!-- Node1&#45;&gt;Node4 -->
<g id="edge3" class="edge"><title>Node1&#45;&gt;Node4</title>
<path fill="none" stroke="midnightblue" d="M123.689,-73.406C146.509,-75.8148 172.151,-78.5215 193.799,-80.8066"/>
<polygon fill="midnightblue" stroke="midnightblue" points="193.444,-84.2885 203.757,-81.8576 194.179,-77.3272 193.444,-84.2885"/>
</g>
<!-- Node3 -->
<g id="node3" class="node"><title>Node3</title>
<g id="a_node3"><a xlink:href="list_8h.html#aa129290da5cbda47dffb7bf877b2f02a" target="_top" xlink:title="vListInsert">
<polygon fill="white" stroke="black" points="364,-76.5 364,-95.5 426,-95.5 426,-76.5 364,-76.5"/>
<text text-anchor="middle" x="395" y="-83.5" font-family="Helvetica,sans-Serif" font-size="10.00">vListInsert</text>
</a>
</g>
</g>
<!-- Node1&#45;&gt;Node3 -->
<g id="edge4" class="edge"><title>Node1&#45;&gt;Node3</title>
<path fill="none" stroke="midnightblue" d="M123.59,-62.2093C177.522,-59.0813 258.413,-57.1831 328,-67 337.814,-68.3846 348.214,-70.8732 357.784,-73.603"/>
<polygon fill="midnightblue" stroke="midnightblue" points="356.812,-76.9657 367.397,-76.4988 358.831,-70.2632 356.812,-76.9657"/>
</g>
<!-- Node5 -->
<g id="node5" class="node"><title>Node5</title>
<g id="a_node5"><a xlink:href="list_8h.html#a71a6a6099b3cbd8f90539aabe5c9e572" target="_top" xlink:title="vListInsertEnd">
<polygon fill="white" stroke="black" points="204,-0.5 204,-19.5 284,-19.5 284,-0.5 204,-0.5"/>
<text text-anchor="middle" x="244" y="-7.5" font-family="Helvetica,sans-Serif" font-size="10.00">vListInsertEnd</text>
</a>
</g>
</g>
<!-- Node1&#45;&gt;Node5 -->
<g id="edge5" class="edge"><title>Node1&#45;&gt;Node5</title>
<path fill="none" stroke="midnightblue" d="M90.0666,-57.4155C109.461,-50.6402 136.244,-41.4712 160,-34 172.533,-30.0585 186.205,-26.0047 198.771,-22.3769"/>
<polygon fill="midnightblue" stroke="midnightblue" points="199.919,-25.6888 208.568,-19.569 197.99,-18.9597 199.919,-25.6888"/>
</g>
<!-- Node2&#45;&gt;Node3 -->
<g id="edge2" class="edge"><title>Node2&#45;&gt;Node3</title>
<path fill="none" stroke="midnightblue" d="M288.617,-114.491C301.348,-111.587 315.261,-108.289 328,-105 336.464,-102.815 345.493,-100.323 354.069,-97.8792"/>
<polygon fill="midnightblue" stroke="midnightblue" points="355.229,-101.187 363.868,-95.054 353.29,-94.4614 355.229,-101.187"/>
</g>
</g>
</svg>
