<?xml version="1.0" encoding="UTF-8" standalone="no"?>
<!DOCTYPE svg PUBLIC "-//W3C//DTD SVG 1.1//EN"
 "http://www.w3.org/Graphics/SVG/1.1/DTD/svg11.dtd">
<!-- Generated by graphviz version 2.30.1 (20130221.2233)
 -->
<!-- Title: xTaskRemoveFromEventList Pages: 1 -->
<svg width="702pt" height="251pt"
 viewBox="0.00 0.00 702.00 251.00" xmlns="http://www.w3.org/2000/svg" xmlns:xlink="http://www.w3.org/1999/xlink">
<g id="graph0" class="graph" transform="scale(1 1) rotate(0) translate(4 247)">
<title>xTaskRemoveFromEventList</title>
<polygon fill="white" stroke="white" points="-4,5 -4,-247 699,-247 699,5 -4,5"/>
<!-- Node1 -->
<g id="node1" class="node"><title>Node1</title>
<polygon fill="#bfbfbf" stroke="black" points="0.5,-114.5 0.5,-133.5 145.5,-133.5 145.5,-114.5 0.5,-114.5"/>
<text text-anchor="middle" x="73" y="-121.5" font-family="Helvetica,sans-Serif" font-size="10.00">xTaskRemoveFromEventList</text>
</g>
<!-- Node2 -->
<g id="node2" class="node"><title>Node2</title>
<g id="a_node2"><a xlink:href="queue_8c.html#a7297c84a7c770ed57567bad1d3e2faf6" target="_top" xlink:title="prvUnlockQueue">
<polygon fill="white" stroke="black" points="211.5,-190.5 211.5,-209.5 302.5,-209.5 302.5,-190.5 211.5,-190.5"/>
<text text-anchor="middle" x="257" y="-197.5" font-family="Helvetica,sans-Serif" font-size="10.00">prvUnlockQueue</text>
</a>
</g>
</g>
<!-- Node1&#45;&gt;Node2 -->
<g id="edge1" class="edge"><title>Node1&#45;&gt;Node2</title>
<path fill="none" stroke="midnightblue" d="M100.911,-138.213C122.489,-149.301 153.731,-164.671 182,-176 195.289,-181.326 210.26,-186.356 223.242,-190.422"/>
<polygon fill="midnightblue" stroke="midnightblue" points="102.497,-135.093 92.0075,-133.599 99.2756,-141.308 102.497,-135.093"/>
</g>
<!-- Node5 -->
<g id="node5" class="node"><title>Node5</title>
<g id="a_node5"><a xlink:href="queue_8c.html#ace632b55c3955bacae20978e261129a6" target="_top" xlink:title="xQueueGenericReceive">
<polygon fill="white" stroke="black" points="376.5,-180.5 376.5,-199.5 499.5,-199.5 499.5,-180.5 376.5,-180.5"/>
<text text-anchor="middle" x="438" y="-187.5" font-family="Helvetica,sans-Serif" font-size="10.00">xQueueGenericReceive</text>
</a>
</g>
</g>
<!-- Node1&#45;&gt;Node5 -->
<g id="edge6" class="edge"><title>Node1&#45;&gt;Node5</title>
<path fill="none" stroke="midnightblue" d="M136.416,-135.348C206.485,-148.088 318.943,-168.535 384.62,-180.476"/>
<polygon fill="midnightblue" stroke="midnightblue" points="136.86,-131.872 126.396,-133.526 135.608,-138.759 136.86,-131.872"/>
</g>
<!-- Node7 -->
<g id="node7" class="node"><title>Node7</title>
<g id="a_node7"><a xlink:href="queue_8c.html#a5e54273dbe3f56b8bdc8f7abee67a871" target="_top" xlink:title="xQueueGenericReset">
<polygon fill="white" stroke="black" points="200.5,-114.5 200.5,-133.5 313.5,-133.5 313.5,-114.5 200.5,-114.5"/>
<text text-anchor="middle" x="257" y="-121.5" font-family="Helvetica,sans-Serif" font-size="10.00">xQueueGenericReset</text>
</a>
</g>
</g>
<!-- Node1&#45;&gt;Node7 -->
<g id="edge7" class="edge"><title>Node1&#45;&gt;Node7</title>
<path fill="none" stroke="midnightblue" d="M156.003,-124C171.035,-124 186.397,-124 200.428,-124"/>
<polygon fill="midnightblue" stroke="midnightblue" points="155.67,-120.5 145.67,-124 155.67,-127.5 155.67,-120.5"/>
</g>
<!-- Node3 -->
<g id="node3" class="node"><title>Node3</title>
<g id="a_node3"><a xlink:href="queue_8c.html#acb67c81366c00896b21cd826e07d885d" target="_top" xlink:title="xQueueGenericSend">
<polygon fill="white" stroke="black" points="383,-223.5 383,-242.5 493,-242.5 493,-223.5 383,-223.5"/>
<text text-anchor="middle" x="438" y="-230.5" font-family="Helvetica,sans-Serif" font-size="10.00">xQueueGenericSend</text>
</a>
</g>
</g>
<!-- Node1&#45;&gt;Node3 -->
<g id="edge11" class="edge"><title>Node1&#45;&gt;Node3</title>
<path fill="none" stroke="midnightblue" d="M87.5104,-141.625C106.017,-164.229 141.597,-202.48 182,-219 247.15,-245.639 329.558,-244.623 382.767,-240.007"/>
<polygon fill="midnightblue" stroke="midnightblue" points="90.0385,-139.181 81.0716,-133.538 84.5622,-143.541 90.0385,-139.181"/>
</g>
<!-- Node11 -->
<g id="node11" class="node"><title>Node11</title>
<g id="a_node11"><a xlink:href="queue_8c.html#a0fb58b25eb396a5cf8e1688b7e1a56cb" target="_top" xlink:title="xQueueGenericSendFromISR">
<polygon fill="white" stroke="black" points="182,-76.5 182,-95.5 332,-95.5 332,-76.5 182,-76.5"/>
<text text-anchor="middle" x="257" y="-83.5" font-family="Helvetica,sans-Serif" font-size="10.00">xQueueGenericSendFromISR</text>
</a>
</g>
</g>
<!-- Node1&#45;&gt;Node11 -->
<g id="edge12" class="edge"><title>Node1&#45;&gt;Node11</title>
<path fill="none" stroke="midnightblue" d="M129.946,-112.319C155.756,-106.93 186.007,-100.614 210.404,-95.5201"/>
<polygon fill="midnightblue" stroke="midnightblue" points="129,-108.941 119.926,-114.411 130.431,-115.793 129,-108.941"/>
</g>
<!-- Node12 -->
<g id="node12" class="node"><title>Node12</title>
<g id="a_node12"><a xlink:href="queue_8c.html#a4df49fafb6ba4400ede6f2d07a40865f" target="_top" xlink:title="xQueueGiveFromISR">
<polygon fill="white" stroke="black" points="201,-38.5 201,-57.5 313,-57.5 313,-38.5 201,-38.5"/>
<text text-anchor="middle" x="257" y="-45.5" font-family="Helvetica,sans-Serif" font-size="10.00">xQueueGiveFromISR</text>
</a>
</g>
</g>
<!-- Node1&#45;&gt;Node12 -->
<g id="edge13" class="edge"><title>Node1&#45;&gt;Node12</title>
<path fill="none" stroke="midnightblue" d="M98.2876,-109.061C119.683,-96.4246 152.022,-78.5747 182,-67 191.404,-63.369 201.746,-60.2194 211.641,-57.5853"/>
<polygon fill="midnightblue" stroke="midnightblue" points="96.3332,-106.152 89.5512,-114.292 99.9289,-112.158 96.3332,-106.152"/>
</g>
<!-- Node13 -->
<g id="node13" class="node"><title>Node13</title>
<g id="a_node13"><a xlink:href="queue_8c.html#ac61ec62828e70ed35d18559a35550462" target="_top" xlink:title="xQueueReceiveFromISR">
<polygon fill="white" stroke="black" points="193,-0.5 193,-19.5 321,-19.5 321,-0.5 193,-0.5"/>
<text text-anchor="middle" x="257" y="-7.5" font-family="Helvetica,sans-Serif" font-size="10.00">xQueueReceiveFromISR</text>
</a>
</g>
</g>
<!-- Node1&#45;&gt;Node13 -->
<g id="edge14" class="edge"><title>Node1&#45;&gt;Node13</title>
<path fill="none" stroke="midnightblue" d="M88.9387,-106.568C108.268,-85.1221 143.997,-49.0942 182,-29 189.27,-25.156 197.359,-22.0595 205.444,-19.5739"/>
<polygon fill="midnightblue" stroke="midnightblue" points="86.1366,-104.453 82.1413,-114.266 91.3839,-109.086 86.1366,-104.453"/>
</g>
<!-- Node2&#45;&gt;Node3 -->
<g id="edge2" class="edge"><title>Node2&#45;&gt;Node3</title>
<path fill="none" stroke="midnightblue" d="M312.688,-210.082C335.768,-214.337 362.506,-219.266 385.258,-223.461"/>
<polygon fill="midnightblue" stroke="midnightblue" points="313.176,-206.613 302.708,-208.242 311.907,-213.497 313.176,-206.613"/>
</g>
<!-- Node2&#45;&gt;Node5 -->
<g id="edge4" class="edge"><title>Node2&#45;&gt;Node5</title>
<path fill="none" stroke="midnightblue" d="M312.925,-196.932C332.991,-195.811 355.797,-194.536 376.335,-193.389"/>
<polygon fill="midnightblue" stroke="midnightblue" points="312.497,-193.45 302.708,-197.502 312.887,-200.439 312.497,-193.45"/>
</g>
<!-- Node4 -->
<g id="node4" class="node"><title>Node4</title>
<g id="a_node4"><a xlink:href="_g_c_c_2_a_r_m___c_m3___m_p_u_2port_8c.html#afec3801d053a850488cda14b0cad95fd" target="_top" xlink:title="MPU_xQueueGenericSend">
<polygon fill="white" stroke="black" points="550,-223.5 550,-242.5 688,-242.5 688,-223.5 550,-223.5"/>
<text text-anchor="middle" x="619" y="-230.5" font-family="Helvetica,sans-Serif" font-size="10.00">MPU_xQueueGenericSend</text>
</a>
</g>
</g>
<!-- Node3&#45;&gt;Node4 -->
<g id="edge3" class="edge"><title>Node3&#45;&gt;Node4</title>
<path fill="none" stroke="midnightblue" d="M503.416,-233C518.455,-233 534.522,-233 549.722,-233"/>
<polygon fill="midnightblue" stroke="midnightblue" points="503.192,-229.5 493.192,-233 503.192,-236.5 503.192,-229.5"/>
</g>
<!-- Node6 -->
<g id="node6" class="node"><title>Node6</title>
<g id="a_node6"><a xlink:href="_g_c_c_2_a_r_m___c_m3___m_p_u_2port_8c.html#a11f6f4ba0b7f2612c09d7494aa695297" target="_top" xlink:title="MPU_xQueueGenericReceive">
<polygon fill="white" stroke="black" points="544,-180.5 544,-199.5 694,-199.5 694,-180.5 544,-180.5"/>
<text text-anchor="middle" x="619" y="-187.5" font-family="Helvetica,sans-Serif" font-size="10.00">MPU_xQueueGenericReceive</text>
</a>
</g>
</g>
<!-- Node5&#45;&gt;Node6 -->
<g id="edge5" class="edge"><title>Node5&#45;&gt;Node6</title>
<path fill="none" stroke="midnightblue" d="M509.743,-190C520.935,-190 532.537,-190 543.805,-190"/>
<polygon fill="midnightblue" stroke="midnightblue" points="509.601,-186.5 499.601,-190 509.601,-193.5 509.601,-186.5"/>
</g>
<!-- Node8 -->
<g id="node8" class="node"><title>Node8</title>
<g id="a_node8"><a xlink:href="_g_c_c_2_a_r_m___c_m3___m_p_u_2port_8c.html#ac7dccb1862fd656e1aedff73bd7c3433" target="_top" xlink:title="MPU_xQueueGenericReset">
<polygon fill="white" stroke="black" points="368,-123.5 368,-142.5 508,-142.5 508,-123.5 368,-123.5"/>
<text text-anchor="middle" x="438" y="-130.5" font-family="Helvetica,sans-Serif" font-size="10.00">MPU_xQueueGenericReset</text>
</a>
</g>
</g>
<!-- Node7&#45;&gt;Node8 -->
<g id="edge8" class="edge"><title>Node7&#45;&gt;Node8</title>
<path fill="none" stroke="midnightblue" d="M323.897,-127.313C338.204,-128.033 353.378,-128.796 367.808,-129.521"/>
<polygon fill="midnightblue" stroke="midnightblue" points="323.819,-123.805 313.656,-126.798 323.467,-130.796 323.819,-123.805"/>
</g>
<!-- Node9 -->
<g id="node9" class="node"><title>Node9</title>
<g id="a_node9"><a xlink:href="queue_8c.html#ac999cdfbb09fff396fa818bb9a30b4e5" target="_top" xlink:title="xQueueGenericCreate">
<polygon fill="white" stroke="black" points="379.5,-85.5 379.5,-104.5 496.5,-104.5 496.5,-85.5 379.5,-85.5"/>
<text text-anchor="middle" x="438" y="-92.5" font-family="Helvetica,sans-Serif" font-size="10.00">xQueueGenericCreate</text>
</a>
</g>
</g>
<!-- Node7&#45;&gt;Node9 -->
<g id="edge9" class="edge"><title>Node7&#45;&gt;Node9</title>
<path fill="none" stroke="midnightblue" d="M323.61,-113.37C341.831,-110.418 361.477,-107.236 379.214,-104.362"/>
<polygon fill="midnightblue" stroke="midnightblue" points="322.967,-109.929 313.656,-114.983 324.087,-116.839 322.967,-109.929"/>
</g>
<!-- Node10 -->
<g id="node10" class="node"><title>Node10</title>
<g id="a_node10"><a xlink:href="_g_c_c_2_a_r_m___c_m3___m_p_u_2port_8c.html#a807a463b8fc68904094127b85ae5d23b" target="_top" xlink:title="MPU_xQueueGenericCreate">
<polygon fill="white" stroke="black" points="547,-85.5 547,-104.5 691,-104.5 691,-85.5 547,-85.5"/>
<text text-anchor="middle" x="619" y="-92.5" font-family="Helvetica,sans-Serif" font-size="10.00">MPU_xQueueGenericCreate</text>
</a>
</g>
</g>
<!-- Node9&#45;&gt;Node10 -->
<g id="edge10" class="edge"><title>Node9&#45;&gt;Node10</title>
<path fill="none" stroke="midnightblue" d="M506.896,-95C519.908,-95 533.568,-95 546.684,-95"/>
<polygon fill="midnightblue" stroke="midnightblue" points="506.622,-91.5001 496.622,-95 506.622,-98.5001 506.622,-91.5001"/>
</g>
</g>
</svg>
