<?xml version="1.0" encoding="UTF-8" standalone="no"?>
<!DOCTYPE svg PUBLIC "-//W3C//DTD SVG 1.1//EN"
 "http://www.w3.org/Graphics/SVG/1.1/DTD/svg11.dtd">
<!-- Generated by graphviz version 2.30.1 (20130221.2233)
 -->
<!-- Title: prvResetNextTaskUnblockTime Pages: 1 -->
<svg width="896pt" height="259pt"
 viewBox="0.00 0.00 896.00 258.91" xmlns="http://www.w3.org/2000/svg" xmlns:xlink="http://www.w3.org/1999/xlink">
<g id="graph0" class="graph" transform="scale(1 1) rotate(0) translate(4 254.909)">
<title>prvResetNextTaskUnblockTime</title>
<polygon fill="white" stroke="white" points="-4,5 -4,-254.909 893,-254.909 893,5 -4,5"/>
<!-- Node1 -->
<g id="node1" class="node"><title>Node1</title>
<polygon fill="#bfbfbf" stroke="black" points="0.5,-98.4088 0.5,-117.409 157.5,-117.409 157.5,-98.4088 0.5,-98.4088"/>
<text text-anchor="middle" x="79" y="-105.409" font-family="Helvetica,sans-Serif" font-size="10.00">prvResetNextTaskUnblockTime</text>
</g>
<!-- Node2 -->
<g id="node2" class="node"><title>Node2</title>
<g id="a_node2"><a xlink:href="tasks_8c.html#a6d21c9054b62d8bc1bfb2724e11578d9" target="_top" xlink:title="xTaskRemoveFromEventList">
<polygon fill="white" stroke="black" points="194.5,-98.4088 194.5,-117.409 339.5,-117.409 339.5,-98.4088 194.5,-98.4088"/>
<text text-anchor="middle" x="267" y="-105.409" font-family="Helvetica,sans-Serif" font-size="10.00">xTaskRemoveFromEventList</text>
</a>
</g>
</g>
<!-- Node1&#45;&gt;Node2 -->
<g id="edge1" class="edge"><title>Node1&#45;&gt;Node2</title>
<path fill="none" stroke="midnightblue" d="M167.573,-107.909C176.507,-107.909 185.507,-107.909 194.242,-107.909"/>
<polygon fill="midnightblue" stroke="midnightblue" points="167.534,-104.409 157.534,-107.909 167.534,-111.409 167.534,-104.409"/>
</g>
<!-- Node3 -->
<g id="node3" class="node"><title>Node3</title>
<g id="a_node3"><a xlink:href="queue_8c.html#a5e54273dbe3f56b8bdc8f7abee67a871" target="_top" xlink:title="xQueueGenericReset">
<polygon fill="white" stroke="black" points="394.5,-212.409 394.5,-231.409 507.5,-231.409 507.5,-212.409 394.5,-212.409"/>
<text text-anchor="middle" x="451" y="-219.409" font-family="Helvetica,sans-Serif" font-size="10.00">xQueueGenericReset</text>
</a>
</g>
</g>
<!-- Node2&#45;&gt;Node3 -->
<g id="edge2" class="edge"><title>Node2&#45;&gt;Node3</title>
<path fill="none" stroke="midnightblue" d="M283.942,-124.634C303.805,-144.604 339.589,-177.819 376,-197.909 386.879,-203.911 399.496,-208.699 411.197,-212.37"/>
<polygon fill="midnightblue" stroke="midnightblue" points="286.404,-122.145 276.909,-117.443 281.399,-127.04 286.404,-122.145"/>
</g>
<!-- Node7 -->
<g id="node7" class="node"><title>Node7</title>
<g id="a_node7"><a xlink:href="queue_8c.html#acb67c81366c00896b21cd826e07d885d" target="_top" xlink:title="xQueueGenericSend">
<polygon fill="white" stroke="black" points="577,-88.4088 577,-107.409 687,-107.409 687,-88.4088 577,-88.4088"/>
<text text-anchor="middle" x="632" y="-95.4088" font-family="Helvetica,sans-Serif" font-size="10.00">xQueueGenericSend</text>
</a>
</g>
</g>
<!-- Node2&#45;&gt;Node7 -->
<g id="edge6" class="edge"><title>Node2&#45;&gt;Node7</title>
<path fill="none" stroke="midnightblue" d="M289.548,-123.353C310.477,-137.331 343.732,-156.916 376,-164.909 440.711,-180.938 462.003,-183.587 526,-164.909 564.818,-153.579 602.951,-123.051 620.688,-107.418"/>
<polygon fill="midnightblue" stroke="midnightblue" points="291.337,-120.336 281.11,-117.571 287.381,-126.111 291.337,-120.336"/>
</g>
<!-- Node9 -->
<g id="node9" class="node"><title>Node9</title>
<g id="a_node9"><a xlink:href="queue_8c.html#a0fb58b25eb396a5cf8e1688b7e1a56cb" target="_top" xlink:title="xQueueGenericSendFromISR">
<polygon fill="white" stroke="black" points="376,-136.409 376,-155.409 526,-155.409 526,-136.409 376,-136.409"/>
<text text-anchor="middle" x="451" y="-143.409" font-family="Helvetica,sans-Serif" font-size="10.00">xQueueGenericSendFromISR</text>
</a>
</g>
</g>
<!-- Node2&#45;&gt;Node9 -->
<g id="edge8" class="edge"><title>Node2&#45;&gt;Node9</title>
<path fill="none" stroke="midnightblue" d="M323.946,-119.59C349.756,-124.979 380.007,-131.295 404.404,-136.389"/>
<polygon fill="midnightblue" stroke="midnightblue" points="324.431,-116.116 313.926,-117.498 323,-122.968 324.431,-116.116"/>
</g>
<!-- Node10 -->
<g id="node10" class="node"><title>Node10</title>
<g id="a_node10"><a xlink:href="queue_8c.html#a4df49fafb6ba4400ede6f2d07a40865f" target="_top" xlink:title="xQueueGiveFromISR">
<polygon fill="white" stroke="black" points="395,-98.4088 395,-117.409 507,-117.409 507,-98.4088 395,-98.4088"/>
<text text-anchor="middle" x="451" y="-105.409" font-family="Helvetica,sans-Serif" font-size="10.00">xQueueGiveFromISR</text>
</a>
</g>
</g>
<!-- Node2&#45;&gt;Node10 -->
<g id="edge9" class="edge"><title>Node2&#45;&gt;Node10</title>
<path fill="none" stroke="midnightblue" d="M349.679,-107.909C365.016,-107.909 380.71,-107.909 394.993,-107.909"/>
<polygon fill="midnightblue" stroke="midnightblue" points="349.67,-104.409 339.67,-107.909 349.67,-111.409 349.67,-104.409"/>
</g>
<!-- Node11 -->
<g id="node11" class="node"><title>Node11</title>
<g id="a_node11"><a xlink:href="queue_8c.html#ace632b55c3955bacae20978e261129a6" target="_top" xlink:title="xQueueGenericReceive">
<polygon fill="white" stroke="black" points="570.5,-31.4088 570.5,-50.4088 693.5,-50.4088 693.5,-31.4088 570.5,-31.4088"/>
<text text-anchor="middle" x="632" y="-38.4088" font-family="Helvetica,sans-Serif" font-size="10.00">xQueueGenericReceive</text>
</a>
</g>
</g>
<!-- Node2&#45;&gt;Node11 -->
<g id="edge10" class="edge"><title>Node2&#45;&gt;Node11</title>
<path fill="none" stroke="midnightblue" d="M281.135,-90.2516C299.426,-67.3155 334.979,-28.3831 376,-12.9088 456.633,17.5082 561.059,-14.0538 607.242,-31.2779"/>
<polygon fill="midnightblue" stroke="midnightblue" points="278.353,-88.1279 274.995,-98.1765 283.887,-92.4153 278.353,-88.1279"/>
</g>
<!-- Node13 -->
<g id="node13" class="node"><title>Node13</title>
<g id="a_node13"><a xlink:href="queue_8c.html#ac61ec62828e70ed35d18559a35550462" target="_top" xlink:title="xQueueReceiveFromISR">
<polygon fill="white" stroke="black" points="387,-22.4088 387,-41.4088 515,-41.4088 515,-22.4088 387,-22.4088"/>
<text text-anchor="middle" x="451" y="-29.4088" font-family="Helvetica,sans-Serif" font-size="10.00">xQueueReceiveFromISR</text>
</a>
</g>
</g>
<!-- Node2&#45;&gt;Node13 -->
<g id="edge12" class="edge"><title>Node2&#45;&gt;Node13</title>
<path fill="none" stroke="midnightblue" d="M292.288,-92.9702C313.683,-80.3333 346.022,-62.4835 376,-50.9088 385.404,-47.2778 395.746,-44.1282 405.641,-41.4941"/>
<polygon fill="midnightblue" stroke="midnightblue" points="290.333,-90.0609 283.551,-98.2006 293.929,-96.0668 290.333,-90.0609"/>
</g>
<!-- Node14 -->
<g id="node14" class="node"><title>Node14</title>
<g id="a_node14"><a xlink:href="queue_8c.html#a7297c84a7c770ed57567bad1d3e2faf6" target="_top" xlink:title="prvUnlockQueue">
<polygon fill="white" stroke="black" points="405.5,-60.4088 405.5,-79.4088 496.5,-79.4088 496.5,-60.4088 405.5,-60.4088"/>
<text text-anchor="middle" x="451" y="-67.4088" font-family="Helvetica,sans-Serif" font-size="10.00">prvUnlockQueue</text>
</a>
</g>
</g>
<!-- Node2&#45;&gt;Node14 -->
<g id="edge13" class="edge"><title>Node2&#45;&gt;Node14</title>
<path fill="none" stroke="midnightblue" d="M323.717,-96.2756C349.91,-90.8067 380.718,-84.3743 405.347,-79.232"/>
<polygon fill="midnightblue" stroke="midnightblue" points="323,-92.8497 313.926,-98.3198 324.431,-99.702 323,-92.8497"/>
</g>
<!-- Node4 -->
<g id="node4" class="node"><title>Node4</title>
<g id="a_node4"><a xlink:href="_g_c_c_2_a_r_m___c_m3___m_p_u_2port_8c.html#ac7dccb1862fd656e1aedff73bd7c3433" target="_top" xlink:title="MPU_xQueueGenericReset">
<polygon fill="white" stroke="black" points="562,-231.409 562,-250.409 702,-250.409 702,-231.409 562,-231.409"/>
<text text-anchor="middle" x="632" y="-238.409" font-family="Helvetica,sans-Serif" font-size="10.00">MPU_xQueueGenericReset</text>
</a>
</g>
</g>
<!-- Node3&#45;&gt;Node4 -->
<g id="edge3" class="edge"><title>Node3&#45;&gt;Node4</title>
<path fill="none" stroke="midnightblue" d="M517.897,-228.903C532.204,-230.422 547.378,-232.033 561.808,-233.564"/>
<polygon fill="midnightblue" stroke="midnightblue" points="517.969,-225.391 507.656,-227.816 517.23,-232.352 517.969,-225.391"/>
</g>
<!-- Node5 -->
<g id="node5" class="node"><title>Node5</title>
<g id="a_node5"><a xlink:href="queue_8c.html#ac999cdfbb09fff396fa818bb9a30b4e5" target="_top" xlink:title="xQueueGenericCreate">
<polygon fill="white" stroke="black" points="573.5,-193.409 573.5,-212.409 690.5,-212.409 690.5,-193.409 573.5,-193.409"/>
<text text-anchor="middle" x="632" y="-200.409" font-family="Helvetica,sans-Serif" font-size="10.00">xQueueGenericCreate</text>
</a>
</g>
</g>
<!-- Node3&#45;&gt;Node5 -->
<g id="edge4" class="edge"><title>Node3&#45;&gt;Node5</title>
<path fill="none" stroke="midnightblue" d="M517.61,-214.945C535.831,-213.011 555.477,-210.925 573.214,-209.042"/>
<polygon fill="midnightblue" stroke="midnightblue" points="517.23,-211.465 507.656,-216.001 517.969,-218.426 517.23,-211.465"/>
</g>
<!-- Node6 -->
<g id="node6" class="node"><title>Node6</title>
<g id="a_node6"><a xlink:href="_g_c_c_2_a_r_m___c_m3___m_p_u_2port_8c.html#a807a463b8fc68904094127b85ae5d23b" target="_top" xlink:title="MPU_xQueueGenericCreate">
<polygon fill="white" stroke="black" points="741,-193.409 741,-212.409 885,-212.409 885,-193.409 741,-193.409"/>
<text text-anchor="middle" x="813" y="-200.409" font-family="Helvetica,sans-Serif" font-size="10.00">MPU_xQueueGenericCreate</text>
</a>
</g>
</g>
<!-- Node5&#45;&gt;Node6 -->
<g id="edge5" class="edge"><title>Node5&#45;&gt;Node6</title>
<path fill="none" stroke="midnightblue" d="M700.896,-202.909C713.908,-202.909 727.568,-202.909 740.684,-202.909"/>
<polygon fill="midnightblue" stroke="midnightblue" points="700.622,-199.409 690.622,-202.909 700.622,-206.409 700.622,-199.409"/>
</g>
<!-- Node8 -->
<g id="node8" class="node"><title>Node8</title>
<g id="a_node8"><a xlink:href="_g_c_c_2_a_r_m___c_m3___m_p_u_2port_8c.html#afec3801d053a850488cda14b0cad95fd" target="_top" xlink:title="MPU_xQueueGenericSend">
<polygon fill="white" stroke="black" points="744,-88.4088 744,-107.409 882,-107.409 882,-88.4088 744,-88.4088"/>
<text text-anchor="middle" x="813" y="-95.4088" font-family="Helvetica,sans-Serif" font-size="10.00">MPU_xQueueGenericSend</text>
</a>
</g>
</g>
<!-- Node7&#45;&gt;Node8 -->
<g id="edge7" class="edge"><title>Node7&#45;&gt;Node8</title>
<path fill="none" stroke="midnightblue" d="M697.416,-97.9088C712.455,-97.9088 728.522,-97.9088 743.722,-97.9088"/>
<polygon fill="midnightblue" stroke="midnightblue" points="697.192,-94.4089 687.192,-97.9088 697.192,-101.409 697.192,-94.4089"/>
</g>
<!-- Node12 -->
<g id="node12" class="node"><title>Node12</title>
<g id="a_node12"><a xlink:href="_g_c_c_2_a_r_m___c_m3___m_p_u_2port_8c.html#a11f6f4ba0b7f2612c09d7494aa695297" target="_top" xlink:title="MPU_xQueueGenericReceive">
<polygon fill="white" stroke="black" points="738,-31.4088 738,-50.4088 888,-50.4088 888,-31.4088 738,-31.4088"/>
<text text-anchor="middle" x="813" y="-38.4088" font-family="Helvetica,sans-Serif" font-size="10.00">MPU_xQueueGenericReceive</text>
</a>
</g>
</g>
<!-- Node11&#45;&gt;Node12 -->
<g id="edge11" class="edge"><title>Node11&#45;&gt;Node12</title>
<path fill="none" stroke="midnightblue" d="M703.743,-40.9088C714.935,-40.9088 726.537,-40.9088 737.805,-40.9088"/>
<polygon fill="midnightblue" stroke="midnightblue" points="703.601,-37.4089 693.601,-40.9088 703.601,-44.4089 703.601,-37.4089"/>
</g>
<!-- Node14&#45;&gt;Node11 -->
<g id="edge14" class="edge"><title>Node14&#45;&gt;Node11</title>
<path fill="none" stroke="midnightblue" d="M506.65,-61.0549C527.439,-57.6867 551.202,-53.8369 572.347,-50.4112"/>
<polygon fill="midnightblue" stroke="midnightblue" points="506.019,-57.6113 496.708,-62.6656 507.139,-64.5213 506.019,-57.6113"/>
</g>
<!-- Node14&#45;&gt;Node7 -->
<g id="edge15" class="edge"><title>Node14&#45;&gt;Node7</title>
<path fill="none" stroke="midnightblue" d="M506.694,-78.4642C529.005,-81.9543 554.736,-85.9792 576.978,-89.4584"/>
<polygon fill="midnightblue" stroke="midnightblue" points="507.128,-74.9897 496.708,-76.9021 506.046,-81.9056 507.128,-74.9897"/>
</g>
</g>
</svg>
