<?xml version="1.0" encoding="UTF-8" standalone="no"?>
<!DOCTYPE svg PUBLIC "-//W3C//DTD SVG 1.1//EN"
 "http://www.w3.org/Graphics/SVG/1.1/DTD/svg11.dtd">
<!-- Generated by graphviz version 2.30.1 (20130221.2233)
 -->
<!-- Title: portTASK_FUNCTION Pages: 1 -->
<svg width="722pt" height="202pt"
 viewBox="0.00 0.00 722.00 201.68" xmlns="http://www.w3.org/2000/svg" xmlns:xlink="http://www.w3.org/1999/xlink">
<g id="graph0" class="graph" transform="scale(1 1) rotate(0) translate(4 197.68)">
<title>portTASK_FUNCTION</title>
<polygon fill="white" stroke="white" points="-4,5 -4,-197.68 719,-197.68 719,5 -4,5"/>
<!-- Node1 -->
<g id="node1" class="node"><title>Node1</title>
<polygon fill="#bfbfbf" stroke="black" points="0.5,-134.479 0.5,-153.479 117.5,-153.479 117.5,-134.479 0.5,-134.479"/>
<text text-anchor="middle" x="59" y="-141.479" font-family="Helvetica,sans-Serif" font-size="10.00">portTASK_FUNCTION</text>
</g>
<!-- Node2 -->
<g id="node2" class="node"><title>Node2</title>
<g id="a_node2"><a xlink:href="tasks_8c.html#a903096c962a2bc907f4b902a7d42302a" target="_top" xlink:title="prvCheckTasksWaitingTermination">
<polygon fill="white" stroke="black" points="154,-115.479 154,-134.479 326,-134.479 326,-115.479 154,-115.479"/>
<text text-anchor="middle" x="240" y="-122.479" font-family="Helvetica,sans-Serif" font-size="10.00">prvCheckTasksWaitingTermination</text>
</a>
</g>
</g>
<!-- Node1&#45;&gt;Node2 -->
<g id="edge1" class="edge"><title>Node1&#45;&gt;Node2</title>
<path fill="none" stroke="midnightblue" d="M117.622,-137.863C126.013,-136.972 134.834,-136.036 143.731,-135.092"/>
<polygon fill="midnightblue" stroke="midnightblue" points="144.215,-138.56 153.79,-134.024 143.477,-131.599 144.215,-138.56"/>
</g>
<!-- Node4 -->
<g id="node4" class="node"><title>Node4</title>
<g id="a_node4"><a xlink:href="_paradigm_2_tern___e_e_2small_2portmacro_8h.html#a14d32f8130d3c0b212cfc751730b5b49" target="_top" xlink:title="void">
<polygon fill="white" stroke="black" points="656.5,-96.4792 656.5,-115.479 691.5,-115.479 691.5,-96.4792 656.5,-96.4792"/>
<text text-anchor="middle" x="674" y="-103.479" font-family="Helvetica,sans-Serif" font-size="10.00">void</text>
</a>
</g>
</g>
<!-- Node1&#45;&gt;Node4 -->
<g id="edge11" class="edge"><title>Node1&#45;&gt;Node4</title>
<path fill="none" stroke="midnightblue" d="M91.4607,-153.546C109.579,-158.668 132.878,-164.601 154,-167.979 286.68,-189.2 323.535,-204.505 456,-181.979 527.649,-169.795 607.146,-136.5 647.087,-118.285"/>
<polygon fill="midnightblue" stroke="midnightblue" points="648.749,-121.372 656.36,-114.001 645.814,-115.017 648.749,-121.372"/>
</g>
<!-- Node3 -->
<g id="node3" class="node"><title>Node3</title>
<g id="a_node3"><a xlink:href="tasks_8c.html#a084d232640bd1d04bcac0b8784417015" target="_top" xlink:title="vTaskSuspendAll">
<polygon fill="white" stroke="black" points="362,-153.479 362,-172.479 456,-172.479 456,-153.479 362,-153.479"/>
<text text-anchor="middle" x="409" y="-160.479" font-family="Helvetica,sans-Serif" font-size="10.00">vTaskSuspendAll</text>
</a>
</g>
</g>
<!-- Node1&#45;&gt;Node3 -->
<g id="edge12" class="edge"><title>Node1&#45;&gt;Node3</title>
<path fill="none" stroke="midnightblue" d="M117.856,-147.138C182.758,-150.682 287.335,-156.391 351.626,-159.901"/>
<polygon fill="midnightblue" stroke="midnightblue" points="351.799,-163.416 361.975,-160.466 352.18,-156.426 351.799,-163.416"/>
</g>
<!-- Node5 -->
<g id="node5" class="node"><title>Node5</title>
<g id="a_node5"><a xlink:href="tasks_8c.html#adf830ea0f150fcdfdaa944667137f080" target="_top" xlink:title="xTaskResumeAll">
<polygon fill="white" stroke="black" points="363,-77.4792 363,-96.4792 455,-96.4792 455,-77.4792 363,-77.4792"/>
<text text-anchor="middle" x="409" y="-84.4792" font-family="Helvetica,sans-Serif" font-size="10.00">xTaskResumeAll</text>
</a>
</g>
</g>
<!-- Node1&#45;&gt;Node5 -->
<g id="edge13" class="edge"><title>Node1&#45;&gt;Node5</title>
<path fill="none" stroke="midnightblue" d="M78.8723,-134.317C97.4579,-125.297 126.917,-112.304 154,-105.979 221.217,-90.2822 300.897,-86.6635 352.852,-86.2298"/>
<polygon fill="midnightblue" stroke="midnightblue" points="352.878,-89.7298 362.861,-86.1829 352.845,-82.7299 352.878,-89.7298"/>
</g>
<!-- Node2&#45;&gt;Node3 -->
<g id="edge2" class="edge"><title>Node2&#45;&gt;Node3</title>
<path fill="none" stroke="midnightblue" d="M283.141,-134.568C305.377,-139.628 332.848,-145.879 356.356,-151.228"/>
<polygon fill="midnightblue" stroke="midnightblue" points="355.635,-154.653 366.162,-153.459 357.188,-147.828 355.635,-154.653"/>
</g>
<!-- Node2&#45;&gt;Node4 -->
<g id="edge3" class="edge"><title>Node2&#45;&gt;Node4</title>
<path fill="none" stroke="midnightblue" d="M326.128,-121.673C398.464,-118.799 505.055,-114.41 598,-109.979 613.984,-109.217 631.878,-108.267 646.178,-107.483"/>
<polygon fill="midnightblue" stroke="midnightblue" points="646.53,-110.969 656.321,-106.923 646.143,-103.98 646.53,-110.969"/>
</g>
<!-- Node2&#45;&gt;Node5 -->
<g id="edge4" class="edge"><title>Node2&#45;&gt;Node5</title>
<path fill="none" stroke="midnightblue" d="M283.141,-115.39C305.377,-110.331 332.848,-104.08 356.356,-98.7305"/>
<polygon fill="midnightblue" stroke="midnightblue" points="357.188,-102.131 366.162,-96.4993 355.635,-95.3053 357.188,-102.131"/>
</g>
<!-- Node6 -->
<g id="node6" class="node"><title>Node6</title>
<g id="a_node6"><a xlink:href="list_8h.html#a2eb1558482076fff8cafc63419c2d34a" target="_top" xlink:title="uxListRemove">
<polygon fill="white" stroke="black" points="634,-1.47923 634,-20.4792 714,-20.4792 714,-1.47923 634,-1.47923"/>
<text text-anchor="middle" x="674" y="-8.47923" font-family="Helvetica,sans-Serif" font-size="10.00">uxListRemove</text>
</a>
</g>
</g>
<!-- Node2&#45;&gt;Node6 -->
<g id="edge10" class="edge"><title>Node2&#45;&gt;Node6</title>
<path fill="none" stroke="midnightblue" d="M255.445,-115.353C292.658,-91.2054 395.655,-28.4597 492,-6.97923 535.885,2.80511 587.242,0.405631 624.017,-3.61637"/>
<polygon fill="midnightblue" stroke="midnightblue" points="623.645,-7.09663 633.985,-4.78503 624.46,-0.144258 623.645,-7.09663"/>
</g>
<!-- Node5&#45;&gt;Node4 -->
<g id="edge5" class="edge"><title>Node5&#45;&gt;Node4</title>
<path fill="none" stroke="midnightblue" d="M455.211,-90.2454C510.161,-94.2152 601.103,-100.785 646.089,-104.035"/>
<polygon fill="midnightblue" stroke="midnightblue" points="646.007,-107.538 656.234,-104.768 646.512,-100.556 646.007,-107.538"/>
</g>
<!-- Node5&#45;&gt;Node6 -->
<g id="edge6" class="edge"><title>Node5&#45;&gt;Node6</title>
<path fill="none" stroke="midnightblue" d="M420.143,-77.3248C434.73,-64.0911 463.074,-40.7357 492,-29.9792 534.635,-14.1248 586.559,-10.0935 623.841,-9.60151"/>
<polygon fill="midnightblue" stroke="midnightblue" points="623.966,-13.101 633.948,-9.54971 623.93,-6.1011 623.966,-13.101"/>
</g>
<!-- Node7 -->
<g id="node7" class="node"><title>Node7</title>
<g id="a_node7"><a xlink:href="tasks_8c.html#a54f31e9aef0eb7b87e48c7d68ecc84c1" target="_top" xlink:title="xTaskIncrementTick">
<polygon fill="white" stroke="black" points="492,-39.4792 492,-58.4792 598,-58.4792 598,-39.4792 492,-39.4792"/>
<text text-anchor="middle" x="545" y="-46.4792" font-family="Helvetica,sans-Serif" font-size="10.00">xTaskIncrementTick</text>
</a>
</g>
</g>
<!-- Node5&#45;&gt;Node7 -->
<g id="edge7" class="edge"><title>Node5&#45;&gt;Node7</title>
<path fill="none" stroke="midnightblue" d="M443.814,-77.3902C461.033,-72.5073 482.164,-66.5149 500.573,-61.2943"/>
<polygon fill="midnightblue" stroke="midnightblue" points="501.531,-64.6607 510.197,-58.5652 499.621,-57.9263 501.531,-64.6607"/>
</g>
<!-- Node7&#45;&gt;Node4 -->
<g id="edge8" class="edge"><title>Node7&#45;&gt;Node4</title>
<path fill="none" stroke="midnightblue" d="M567.257,-58.5198C589.129,-68.3365 623.239,-83.6456 646.774,-94.2086"/>
<polygon fill="midnightblue" stroke="midnightblue" points="645.59,-97.5135 656.147,-98.4151 648.457,-91.1273 645.59,-97.5135"/>
</g>
<!-- Node7&#45;&gt;Node6 -->
<g id="edge9" class="edge"><title>Node7&#45;&gt;Node6</title>
<path fill="none" stroke="midnightblue" d="M578.047,-39.3902C594.141,-34.5748 613.841,-28.6804 631.117,-23.5112"/>
<polygon fill="midnightblue" stroke="midnightblue" points="632.386,-26.7849 640.963,-20.5652 630.379,-20.0787 632.386,-26.7849"/>
</g>
</g>
</svg>
