<?xml version="1.0" encoding="UTF-8" standalone="no"?>
<!DOCTYPE svg PUBLIC "-//W3C//DTD SVG 1.1//EN"
 "http://www.w3.org/Graphics/SVG/1.1/DTD/svg11.dtd">
<!-- Generated by graphviz version 2.30.1 (20130221.2233)
 -->
<!-- Title: vTaskSuspendAll Pages: 1 -->
<svg width="640pt" height="484pt"
 viewBox="0.00 0.00 640.00 484.00" xmlns="http://www.w3.org/2000/svg" xmlns:xlink="http://www.w3.org/1999/xlink">
<g id="graph0" class="graph" transform="scale(1 1) rotate(0) translate(4 480)">
<title>vTaskSuspendAll</title>
<polygon fill="white" stroke="white" points="-4,5 -4,-480 637,-480 637,5 -4,5"/>
<!-- Node1 -->
<g id="node1" class="node"><title>Node1</title>
<polygon fill="#bfbfbf" stroke="black" points="0,-228.5 0,-247.5 94,-247.5 94,-228.5 0,-228.5"/>
<text text-anchor="middle" x="47" y="-235.5" font-family="Helvetica,sans-Serif" font-size="10.00">vTaskSuspendAll</text>
</g>
<!-- Node2 -->
<g id="node2" class="node"><title>Node2</title>
<g id="a_node2"><a xlink:href="_g_c_c_2_a_v_r32___u_c3_2port_8c.html#ae3b0643b1ed2a627fda68cb6622fca54" target="_top" xlink:title="__malloc_lock">
<polygon fill="white" stroke="black" points="176,-456.5 176,-475.5 256,-475.5 256,-456.5 176,-456.5"/>
<text text-anchor="middle" x="216" y="-463.5" font-family="Helvetica,sans-Serif" font-size="10.00">__malloc_lock</text>
</a>
</g>
</g>
<!-- Node1&#45;&gt;Node2 -->
<g id="edge1" class="edge"><title>Node1&#45;&gt;Node2</title>
<path fill="none" stroke="midnightblue" d="M49.7051,-257.68C54.4151,-299.361 71.4348,-396.823 130,-447 142.631,-457.822 160.101,-462.852 175.919,-465.069"/>
<polygon fill="midnightblue" stroke="midnightblue" points="53.1846,-257.299 48.6975,-247.701 46.22,-258.002 53.1846,-257.299"/>
</g>
<!-- Node3 -->
<g id="node3" class="node"><title>Node3</title>
<g id="a_node3"><a xlink:href="_g_c_c_2_a_r_m___c_m3___m_p_u_2port_8c.html#a5a89966e24025e52ea10166ce2c492d4" target="_top" xlink:title="MPU_vTaskSuspendAll">
<polygon fill="white" stroke="black" points="155,-418.5 155,-437.5 277,-437.5 277,-418.5 155,-418.5"/>
<text text-anchor="middle" x="216" y="-425.5" font-family="Helvetica,sans-Serif" font-size="10.00">MPU_vTaskSuspendAll</text>
</a>
</g>
</g>
<!-- Node1&#45;&gt;Node3 -->
<g id="edge2" class="edge"><title>Node1&#45;&gt;Node3</title>
<path fill="none" stroke="midnightblue" d="M52.1237,-257.41C60.5227,-292.127 82.9396,-364.875 130,-404 137.664,-410.372 146.916,-415.055 156.456,-418.497"/>
<polygon fill="midnightblue" stroke="midnightblue" points="55.5142,-256.535 49.8759,-247.565 48.6898,-258.093 55.5142,-256.535"/>
</g>
<!-- Node4 -->
<g id="node4" class="node"><title>Node4</title>
<g id="a_node4"><a xlink:href="tasks_8c.html#a36c7cc58985d41c2cb1b263563dbbaa1" target="_top" xlink:title="portTASK_FUNCTION">
<polygon fill="white" stroke="black" points="354.5,-418.5 354.5,-437.5 471.5,-437.5 471.5,-418.5 354.5,-418.5"/>
<text text-anchor="middle" x="413" y="-425.5" font-family="Helvetica,sans-Serif" font-size="10.00">portTASK_FUNCTION</text>
</a>
</g>
</g>
<!-- Node1&#45;&gt;Node4 -->
<g id="edge3" class="edge"><title>Node1&#45;&gt;Node4</title>
<path fill="none" stroke="midnightblue" d="M54.186,-257.124C64.7498,-286.559 89.1756,-342.536 130,-371 139.398,-377.553 280.214,-403.998 359.219,-418.451"/>
<polygon fill="midnightblue" stroke="midnightblue" points="57.4687,-255.907 50.9165,-247.581 50.8465,-258.176 57.4687,-255.907"/>
</g>
<!-- Node5 -->
<g id="node5" class="node"><title>Node5</title>
<g id="a_node5"><a xlink:href="tasks_8c.html#a903096c962a2bc907f4b902a7d42302a" target="_top" xlink:title="prvCheckTasksWaitingTermination">
<polygon fill="white" stroke="black" points="130,-342.5 130,-361.5 302,-361.5 302,-342.5 130,-342.5"/>
<text text-anchor="middle" x="216" y="-349.5" font-family="Helvetica,sans-Serif" font-size="10.00">prvCheckTasksWaitingTermination</text>
</a>
</g>
</g>
<!-- Node1&#45;&gt;Node5 -->
<g id="edge4" class="edge"><title>Node1&#45;&gt;Node5</title>
<path fill="none" stroke="midnightblue" d="M58.6077,-256.239C72.2645,-278.019 98.0814,-313.897 130,-333 136.487,-336.883 143.683,-339.974 151.063,-342.434"/>
<polygon fill="midnightblue" stroke="midnightblue" points="61.5431,-254.329 53.3633,-247.595 55.5586,-257.96 61.5431,-254.329"/>
</g>
<!-- Node6 -->
<g id="node6" class="node"><title>Node6</title>
<g id="a_node6"><a xlink:href="_wiz_c_2_p_i_c18_2port_8c.html#a0dc0ff621115a685d59ea38b526ebe89" target="_top" xlink:title="pvPortMalloc">
<polygon fill="white" stroke="black" points="179,-304.5 179,-323.5 253,-323.5 253,-304.5 179,-304.5"/>
<text text-anchor="middle" x="216" y="-311.5" font-family="Helvetica,sans-Serif" font-size="10.00">pvPortMalloc</text>
</a>
</g>
</g>
<!-- Node1&#45;&gt;Node6 -->
<g id="edge6" class="edge"><title>Node1&#45;&gt;Node6</title>
<path fill="none" stroke="midnightblue" d="M66.7635,-254.237C82.6087,-267.128 106.425,-284.65 130,-295 145.369,-301.747 163.39,-306.215 178.875,-309.112"/>
<polygon fill="midnightblue" stroke="midnightblue" points="68.7554,-251.341 58.8329,-247.627 64.2735,-256.718 68.7554,-251.341"/>
</g>
<!-- Node10 -->
<g id="node10" class="node"><title>Node10</title>
<g id="a_node10"><a xlink:href="_i_a_r_2_a_v_r32___u_c3_2portmacro_8h.html#a0e22115d0fea39851af4e93fcaf6b41c" target="_top" xlink:title="pvPortRealloc">
<polygon fill="white" stroke="black" points="176.5,-266.5 176.5,-285.5 255.5,-285.5 255.5,-266.5 176.5,-266.5"/>
<text text-anchor="middle" x="216" y="-273.5" font-family="Helvetica,sans-Serif" font-size="10.00">pvPortRealloc</text>
</a>
</g>
</g>
<!-- Node1&#45;&gt;Node10 -->
<g id="edge10" class="edge"><title>Node1&#45;&gt;Node10</title>
<path fill="none" stroke="midnightblue" d="M100.058,-249.846C124.707,-255.454 153.637,-262.037 176.307,-267.195"/>
<polygon fill="midnightblue" stroke="midnightblue" points="100.668,-246.395 90.1412,-247.589 99.1153,-253.221 100.668,-246.395"/>
</g>
<!-- Node11 -->
<g id="node11" class="node"><title>Node11</title>
<g id="a_node11"><a xlink:href="event__groups_8h.html#a50cb52d1c81b063fd8d94f5293dcfea9" target="_top" xlink:title="vEventGroupDelete">
<polygon fill="white" stroke="black" points="361,-266.5 361,-285.5 465,-285.5 465,-266.5 361,-266.5"/>
<text text-anchor="middle" x="413" y="-273.5" font-family="Helvetica,sans-Serif" font-size="10.00">vEventGroupDelete</text>
</a>
</g>
</g>
<!-- Node1&#45;&gt;Node11 -->
<g id="edge11" class="edge"><title>Node1&#45;&gt;Node11</title>
<path fill="none" stroke="midnightblue" d="M104.282,-240.651C155.854,-243.45 234.254,-248.635 302,-257 322.003,-259.47 343.908,-263.069 362.868,-266.472"/>
<polygon fill="midnightblue" stroke="midnightblue" points="104.189,-237.141 94.0171,-240.106 103.818,-244.131 104.189,-237.141"/>
</g>
<!-- Node12 -->
<g id="node12" class="node"><title>Node12</title>
<g id="a_node12"><a xlink:href="_wiz_c_2_p_i_c18_2port_8c.html#a1e7cea2fd1bc894ea3b5f5e8179d259b" target="_top" xlink:title="vPortFree">
<polygon fill="white" stroke="black" points="186,-190.5 186,-209.5 246,-209.5 246,-190.5 186,-190.5"/>
<text text-anchor="middle" x="216" y="-197.5" font-family="Helvetica,sans-Serif" font-size="10.00">vPortFree</text>
</a>
</g>
</g>
<!-- Node1&#45;&gt;Node12 -->
<g id="edge12" class="edge"><title>Node1&#45;&gt;Node12</title>
<path fill="none" stroke="midnightblue" d="M100.248,-226.111C128.441,-219.696 162.189,-212.017 185.762,-206.653"/>
<polygon fill="midnightblue" stroke="midnightblue" points="99.1153,-222.779 90.1412,-228.411 100.668,-229.605 99.1153,-222.779"/>
</g>
<!-- Node17 -->
<g id="node17" class="node"><title>Node17</title>
<g id="a_node17"><a xlink:href="event__groups_8h.html#a02d7b3bb55f7e11d9c47116266c5fb2e" target="_top" xlink:title="xEventGroupSetBits">
<polygon fill="white" stroke="black" points="162.5,-152.5 162.5,-171.5 269.5,-171.5 269.5,-152.5 162.5,-152.5"/>
<text text-anchor="middle" x="216" y="-159.5" font-family="Helvetica,sans-Serif" font-size="10.00">xEventGroupSetBits</text>
</a>
</g>
</g>
<!-- Node1&#45;&gt;Node17 -->
<g id="edge18" class="edge"><title>Node1&#45;&gt;Node17</title>
<path fill="none" stroke="midnightblue" d="M66.7635,-221.763C82.6087,-208.872 106.425,-191.35 130,-181 140.107,-176.563 151.362,-173.111 162.288,-170.444"/>
<polygon fill="midnightblue" stroke="midnightblue" points="64.2735,-219.282 58.8329,-228.373 68.7554,-224.659 64.2735,-219.282"/>
</g>
<!-- Node19 -->
<g id="node19" class="node"><title>Node19</title>
<g id="a_node19"><a xlink:href="event__groups_8h.html#a869511456b86426f52e2eec898bff341" target="_top" xlink:title="xEventGroupSync">
<polygon fill="white" stroke="black" points="364.5,-76.5 364.5,-95.5 461.5,-95.5 461.5,-76.5 364.5,-76.5"/>
<text text-anchor="middle" x="413" y="-83.5" font-family="Helvetica,sans-Serif" font-size="10.00">xEventGroupSync</text>
</a>
</g>
</g>
<!-- Node1&#45;&gt;Node19 -->
<g id="edge21" class="edge"><title>Node1&#45;&gt;Node19</title>
<path fill="none" stroke="midnightblue" d="M58.5432,-219.652C72.1353,-197.763 97.8876,-161.775 130,-143 140.106,-137.091 286.685,-109.261 364.404,-94.7901"/>
<polygon fill="midnightblue" stroke="midnightblue" points="55.4725,-217.967 53.3267,-228.343 61.4743,-221.57 55.4725,-217.967"/>
</g>
<!-- Node20 -->
<g id="node20" class="node"><title>Node20</title>
<g id="a_node20"><a xlink:href="event__groups_8h.html#aab9d5b405bc57b7624dcabe9a9a503db" target="_top" xlink:title="xEventGroupWaitBits">
<polygon fill="white" stroke="black" points="160,-76.5 160,-95.5 272,-95.5 272,-76.5 160,-76.5"/>
<text text-anchor="middle" x="216" y="-83.5" font-family="Helvetica,sans-Serif" font-size="10.00">xEventGroupWaitBits</text>
</a>
</g>
</g>
<!-- Node1&#45;&gt;Node20 -->
<g id="edge22" class="edge"><title>Node1&#45;&gt;Node20</title>
<path fill="none" stroke="midnightblue" d="M55.1316,-218.754C66.5577,-190.596 91.6549,-138.437 130,-110 138.745,-103.515 149.177,-98.7807 159.688,-95.3254"/>
<polygon fill="midnightblue" stroke="midnightblue" points="51.7927,-217.683 51.4228,-228.271 58.315,-220.225 51.7927,-217.683"/>
</g>
<!-- Node21 -->
<g id="node21" class="node"><title>Node21</title>
<g id="a_node21"><a xlink:href="queue_8c.html#ace632b55c3955bacae20978e261129a6" target="_top" xlink:title="xQueueGenericReceive">
<polygon fill="white" stroke="black" points="154.5,-38.5 154.5,-57.5 277.5,-57.5 277.5,-38.5 154.5,-38.5"/>
<text text-anchor="middle" x="216" y="-45.5" font-family="Helvetica,sans-Serif" font-size="10.00">xQueueGenericReceive</text>
</a>
</g>
</g>
<!-- Node1&#45;&gt;Node21 -->
<g id="edge23" class="edge"><title>Node1&#45;&gt;Node21</title>
<path fill="none" stroke="midnightblue" d="M51.6192,-218.263C59.2925,-182.3 80.7022,-106.2 130,-67 137.101,-61.3533 145.543,-57.3098 154.307,-54.4282"/>
<polygon fill="midnightblue" stroke="midnightblue" points="48.1148,-217.941 49.5927,-228.432 54.9798,-219.309 48.1148,-217.941"/>
</g>
<!-- Node23 -->
<g id="node23" class="node"><title>Node23</title>
<g id="a_node23"><a xlink:href="queue_8c.html#acb67c81366c00896b21cd826e07d885d" target="_top" xlink:title="xQueueGenericSend">
<polygon fill="white" stroke="black" points="161,-0.5 161,-19.5 271,-19.5 271,-0.5 161,-0.5"/>
<text text-anchor="middle" x="216" y="-7.5" font-family="Helvetica,sans-Serif" font-size="10.00">xQueueGenericSend</text>
</a>
</g>
</g>
<!-- Node1&#45;&gt;Node23 -->
<g id="edge25" class="edge"><title>Node1&#45;&gt;Node23</title>
<path fill="none" stroke="midnightblue" d="M49.7051,-218.32C54.4151,-176.639 71.4348,-79.1769 130,-29 138.727,-21.523 149.764,-16.8108 160.97,-13.881"/>
<polygon fill="midnightblue" stroke="midnightblue" points="46.22,-217.998 48.6975,-228.299 53.1846,-218.701 46.22,-217.998"/>
</g>
<!-- Node5&#45;&gt;Node4 -->
<g id="edge5" class="edge"><title>Node5&#45;&gt;Node4</title>
<path fill="none" stroke="midnightblue" d="M275.331,-364.543C284.548,-367.625 293.75,-371.401 302,-376 320.958,-386.569 318.917,-398.658 338,-409 345.114,-412.855 353.039,-415.952 360.985,-418.433"/>
<polygon fill="midnightblue" stroke="midnightblue" points="276.347,-361.194 265.759,-361.577 274.275,-367.88 276.347,-361.194"/>
</g>
<!-- Node7 -->
<g id="node7" class="node"><title>Node7</title>
<g id="a_node7"><a xlink:href="_g_c_c_2_a_r_m___c_m3___m_p_u_2port_8c.html#a84af3fe5d0df7cd011534fb37e97b504" target="_top" xlink:title="MPU_pvPortMalloc">
<polygon fill="white" stroke="black" points="362,-380.5 362,-399.5 464,-399.5 464,-380.5 362,-380.5"/>
<text text-anchor="middle" x="413" y="-387.5" font-family="Helvetica,sans-Serif" font-size="10.00">MPU_pvPortMalloc</text>
</a>
</g>
</g>
<!-- Node6&#45;&gt;Node7 -->
<g id="edge7" class="edge"><title>Node6&#45;&gt;Node7</title>
<path fill="none" stroke="midnightblue" d="M262.919,-319.129C276.13,-321.936 290.158,-326.28 302,-333 322.234,-344.482 317.949,-359.201 338,-371 345.316,-375.305 353.599,-378.645 361.909,-381.234"/>
<polygon fill="midnightblue" stroke="midnightblue" points="263.5,-315.677 253.026,-317.268 262.206,-322.557 263.5,-315.677"/>
</g>
<!-- Node8 -->
<g id="node8" class="node"><title>Node8</title>
<g id="a_node8"><a xlink:href="_g_c_c_2_micro_blaze_2port_8c.html#ade5a8c6666e7413a0355cc252029c5c6" target="_top" xlink:title="xPortStartScheduler">
<polygon fill="white" stroke="black" points="360,-342.5 360,-361.5 466,-361.5 466,-342.5 360,-342.5"/>
<text text-anchor="middle" x="413" y="-349.5" font-family="Helvetica,sans-Serif" font-size="10.00">xPortStartScheduler</text>
</a>
</g>
</g>
<!-- Node6&#45;&gt;Node8 -->
<g id="edge8" class="edge"><title>Node6&#45;&gt;Node8</title>
<path fill="none" stroke="midnightblue" d="M263.054,-322.975C293.161,-328.842 332.441,-336.496 363.103,-342.471"/>
<polygon fill="midnightblue" stroke="midnightblue" points="263.706,-319.536 253.221,-321.058 262.367,-326.407 263.706,-319.536"/>
</g>
<!-- Node9 -->
<g id="node9" class="node"><title>Node9</title>
<g id="a_node9"><a xlink:href="_renesas_2_s_h2_a___f_p_u_2portmacro_8h.html#a8c8d74fd181a4df3300db81a72bcd17d" target="_top" xlink:title="xPortUsesFloatingPoint">
<polygon fill="white" stroke="black" points="352.5,-304.5 352.5,-323.5 473.5,-323.5 473.5,-304.5 352.5,-304.5"/>
<text text-anchor="middle" x="413" y="-311.5" font-family="Helvetica,sans-Serif" font-size="10.00">xPortUsesFloatingPoint</text>
</a>
</g>
</g>
<!-- Node6&#45;&gt;Node9 -->
<g id="edge9" class="edge"><title>Node6&#45;&gt;Node9</title>
<path fill="none" stroke="midnightblue" d="M263.409,-314C290.003,-314 323.665,-314 352.222,-314"/>
<polygon fill="midnightblue" stroke="midnightblue" points="263.221,-310.5 253.221,-314 263.221,-317.5 263.221,-310.5"/>
</g>
<!-- Node12&#45;&gt;Node11 -->
<g id="edge13" class="edge"><title>Node12&#45;&gt;Node11</title>
<path fill="none" stroke="midnightblue" d="M256.234,-207.037C271.171,-210.733 287.962,-216.174 302,-224 320.958,-234.569 318.917,-246.658 338,-257 345.114,-260.855 353.039,-263.952 360.985,-266.433"/>
<polygon fill="midnightblue" stroke="midnightblue" points="256.775,-203.57 246.246,-204.748 255.211,-210.393 256.775,-203.57"/>
</g>
<!-- Node13 -->
<g id="node13" class="node"><title>Node13</title>
<g id="a_node13"><a xlink:href="_g_c_c_2_a_r_m___c_m3___m_p_u_2port_8c.html#acd24fff1bcec99632bfea2b06fd9fb22" target="_top" xlink:title="MPU_vPortFree">
<polygon fill="white" stroke="black" points="369,-228.5 369,-247.5 457,-247.5 457,-228.5 369,-228.5"/>
<text text-anchor="middle" x="413" y="-235.5" font-family="Helvetica,sans-Serif" font-size="10.00">MPU_vPortFree</text>
</a>
</g>
</g>
<!-- Node12&#45;&gt;Node13 -->
<g id="edge14" class="edge"><title>Node12&#45;&gt;Node13</title>
<path fill="none" stroke="midnightblue" d="M256.267,-207.652C288.884,-214.008 335.221,-223.038 368.865,-229.594"/>
<polygon fill="midnightblue" stroke="midnightblue" points="256.678,-204.166 246.193,-205.689 255.339,-211.037 256.678,-204.166"/>
</g>
<!-- Node14 -->
<g id="node14" class="node"><title>Node14</title>
<g id="a_node14"><a xlink:href="queue_8c.html#a35c0b4f9a0e940cb3a86ca4c5e84c41c" target="_top" xlink:title="vQueueDelete">
<polygon fill="white" stroke="black" points="373,-190.5 373,-209.5 453,-209.5 453,-190.5 373,-190.5"/>
<text text-anchor="middle" x="413" y="-197.5" font-family="Helvetica,sans-Serif" font-size="10.00">vQueueDelete</text>
</a>
</g>
</g>
<!-- Node12&#45;&gt;Node14 -->
<g id="edge15" class="edge"><title>Node12&#45;&gt;Node14</title>
<path fill="none" stroke="midnightblue" d="M256.209,-200C290.127,-200 338.916,-200 372.824,-200"/>
<polygon fill="midnightblue" stroke="midnightblue" points="256.194,-196.5 246.193,-200 256.193,-203.5 256.194,-196.5"/>
</g>
<!-- Node16 -->
<g id="node16" class="node"><title>Node16</title>
<g id="a_node16"><a xlink:href="tasks_8c.html#a91a076d3c5af24feadfe2bca03cc9f7a" target="_top" xlink:title="prvAllocateTCBAndStack">
<polygon fill="white" stroke="black" points="348.5,-152.5 348.5,-171.5 477.5,-171.5 477.5,-152.5 348.5,-152.5"/>
<text text-anchor="middle" x="413" y="-159.5" font-family="Helvetica,sans-Serif" font-size="10.00">prvAllocateTCBAndStack</text>
</a>
</g>
</g>
<!-- Node12&#45;&gt;Node16 -->
<g id="edge17" class="edge"><title>Node12&#45;&gt;Node16</title>
<path fill="none" stroke="midnightblue" d="M256.115,-192.378C286.852,-186.388 329.843,-178.01 362.894,-171.569"/>
<polygon fill="midnightblue" stroke="midnightblue" points="255.339,-188.963 246.193,-194.311 256.678,-195.834 255.339,-188.963"/>
</g>
<!-- Node15 -->
<g id="node15" class="node"><title>Node15</title>
<g id="a_node15"><a xlink:href="_g_c_c_2_a_r_m___c_m3___m_p_u_2port_8c.html#ac378aaf28d5631ab7dcb8c75840f9544" target="_top" xlink:title="MPU_vQueueDelete">
<polygon fill="white" stroke="black" points="524,-190.5 524,-209.5 632,-209.5 632,-190.5 524,-190.5"/>
<text text-anchor="middle" x="578" y="-197.5" font-family="Helvetica,sans-Serif" font-size="10.00">MPU_vQueueDelete</text>
</a>
</g>
</g>
<!-- Node14&#45;&gt;Node15 -->
<g id="edge16" class="edge"><title>Node14&#45;&gt;Node15</title>
<path fill="none" stroke="midnightblue" d="M463.067,-200C482.23,-200 504.251,-200 523.794,-200"/>
<polygon fill="midnightblue" stroke="midnightblue" points="463.043,-196.5 453.043,-200 463.043,-203.5 463.043,-196.5"/>
</g>
<!-- Node18 -->
<g id="node18" class="node"><title>Node18</title>
<g id="a_node18"><a xlink:href="event__groups_8h.html#abe76a301815525eb5e03f331e5e51ae3" target="_top" xlink:title="vEventGroupSetBitsCallback">
<polygon fill="white" stroke="black" points="340.5,-114.5 340.5,-133.5 485.5,-133.5 485.5,-114.5 340.5,-114.5"/>
<text text-anchor="middle" x="413" y="-121.5" font-family="Helvetica,sans-Serif" font-size="10.00">vEventGroupSetBitsCallback</text>
</a>
</g>
</g>
<!-- Node17&#45;&gt;Node18 -->
<g id="edge19" class="edge"><title>Node17&#45;&gt;Node18</title>
<path fill="none" stroke="midnightblue" d="M275.959,-150.511C303.782,-145.089 336.596,-138.694 363.025,-133.544"/>
<polygon fill="midnightblue" stroke="midnightblue" points="275.101,-147.112 265.955,-152.46 276.44,-153.983 275.101,-147.112"/>
</g>
<!-- Node17&#45;&gt;Node19 -->
<g id="edge20" class="edge"><title>Node17&#45;&gt;Node19</title>
<path fill="none" stroke="midnightblue" d="M275.331,-149.457C284.548,-146.375 293.75,-142.599 302,-138 320.958,-127.431 318.917,-115.342 338,-105 346.046,-100.639 355.131,-97.249 364.11,-94.6227"/>
<polygon fill="midnightblue" stroke="midnightblue" points="274.275,-146.12 265.759,-152.423 276.347,-152.806 274.275,-146.12"/>
</g>
<!-- Node22 -->
<g id="node22" class="node"><title>Node22</title>
<g id="a_node22"><a xlink:href="_g_c_c_2_a_r_m___c_m3___m_p_u_2port_8c.html#a11f6f4ba0b7f2612c09d7494aa695297" target="_top" xlink:title="MPU_xQueueGenericReceive">
<polygon fill="white" stroke="black" points="338,-38.5 338,-57.5 488,-57.5 488,-38.5 338,-38.5"/>
<text text-anchor="middle" x="413" y="-45.5" font-family="Helvetica,sans-Serif" font-size="10.00">MPU_xQueueGenericReceive</text>
</a>
</g>
</g>
<!-- Node21&#45;&gt;Node22 -->
<g id="edge24" class="edge"><title>Node21&#45;&gt;Node22</title>
<path fill="none" stroke="midnightblue" d="M288.068,-48C304.211,-48 321.4,-48 337.675,-48"/>
<polygon fill="midnightblue" stroke="midnightblue" points="287.63,-44.5001 277.63,-48 287.63,-51.5001 287.63,-44.5001"/>
</g>
<!-- Node24 -->
<g id="node24" class="node"><title>Node24</title>
<g id="a_node24"><a xlink:href="_g_c_c_2_a_r_m___c_m3___m_p_u_2port_8c.html#afec3801d053a850488cda14b0cad95fd" target="_top" xlink:title="MPU_xQueueGenericSend">
<polygon fill="white" stroke="black" points="344,-0.5 344,-19.5 482,-19.5 482,-0.5 344,-0.5"/>
<text text-anchor="middle" x="413" y="-7.5" font-family="Helvetica,sans-Serif" font-size="10.00">MPU_xQueueGenericSend</text>
</a>
</g>
</g>
<!-- Node23&#45;&gt;Node24 -->
<g id="edge26" class="edge"><title>Node23&#45;&gt;Node24</title>
<path fill="none" stroke="midnightblue" d="M281.334,-10C301.394,-10 323.579,-10 343.888,-10"/>
<polygon fill="midnightblue" stroke="midnightblue" points="281.059,-6.5001 271.059,-10 281.059,-13.5001 281.059,-6.5001"/>
</g>
</g>
</svg>
