<?xml version="1.0" encoding="UTF-8" standalone="no"?>
<!DOCTYPE svg PUBLIC "-//W3C//DTD SVG 1.1//EN"
 "http://www.w3.org/Graphics/SVG/1.1/DTD/svg11.dtd">
<!-- Generated by graphviz version 2.30.1 (20130221.2233)
 -->
<!-- Title: prvCheckTasksWaitingTermination Pages: 1 -->
<svg width="568pt" height="119pt"
 viewBox="0.00 0.00 568.00 119.32" xmlns="http://www.w3.org/2000/svg" xmlns:xlink="http://www.w3.org/1999/xlink">
<g id="graph0" class="graph" transform="scale(1 1) rotate(0) translate(4 115.325)">
<title>prvCheckTasksWaitingTermination</title>
<polygon fill="white" stroke="white" points="-4,5 -4,-115.325 565,-115.325 565,5 -4,5"/>
<!-- Node1 -->
<g id="node1" class="node"><title>Node1</title>
<polygon fill="#bfbfbf" stroke="black" points="0,-34.8249 0,-53.8249 172,-53.8249 172,-34.8249 0,-34.8249"/>
<text text-anchor="middle" x="86" y="-41.8249" font-family="Helvetica,sans-Serif" font-size="10.00">prvCheckTasksWaitingTermination</text>
</g>
<!-- Node2 -->
<g id="node2" class="node"><title>Node2</title>
<g id="a_node2"><a xlink:href="list_8h.html#a2eb1558482076fff8cafc63419c2d34a" target="_top" xlink:title="uxListRemove">
<polygon fill="white" stroke="black" points="480,-91.8249 480,-110.825 560,-110.825 560,-91.8249 480,-91.8249"/>
<text text-anchor="middle" x="520" y="-98.8249" font-family="Helvetica,sans-Serif" font-size="10.00">uxListRemove</text>
</a>
</g>
</g>
<!-- Node1&#45;&gt;Node2 -->
<g id="edge1" class="edge"><title>Node1&#45;&gt;Node2</title>
<path fill="none" stroke="midnightblue" d="M113.59,-53.9578C137.894,-62.4536 174.973,-74.6449 208,-82.3249 264.938,-95.5649 279.713,-97.8675 338,-102.325 384.974,-105.917 396.89,-102.639 444,-102.325 452.239,-102.27 460.987,-102.181 469.489,-102.078"/>
<polygon fill="midnightblue" stroke="midnightblue" points="469.733,-105.576 479.687,-101.948 469.643,-98.5763 469.733,-105.576"/>
</g>
<!-- Node3 -->
<g id="node3" class="node"><title>Node3</title>
<g id="a_node3"><a xlink:href="_paradigm_2_tern___e_e_2small_2portmacro_8h.html#a14d32f8130d3c0b212cfc751730b5b49" target="_top" xlink:title="void">
<polygon fill="white" stroke="black" points="502.5,-15.8249 502.5,-34.8249 537.5,-34.8249 537.5,-15.8249 502.5,-15.8249"/>
<text text-anchor="middle" x="520" y="-22.8249" font-family="Helvetica,sans-Serif" font-size="10.00">void</text>
</a>
</g>
</g>
<!-- Node1&#45;&gt;Node3 -->
<g id="edge2" class="edge"><title>Node1&#45;&gt;Node3</title>
<path fill="none" stroke="midnightblue" d="M110.146,-34.7294C134.135,-25.3424 172.96,-11.6977 208,-6.32489 312.297,9.6673 438.215,-9.74235 492.252,-19.8891"/>
<polygon fill="midnightblue" stroke="midnightblue" points="491.885,-23.3827 502.367,-21.8397 493.21,-16.5093 491.885,-23.3827"/>
</g>
<!-- Node4 -->
<g id="node4" class="node"><title>Node4</title>
<g id="a_node4"><a xlink:href="tasks_8c.html#a084d232640bd1d04bcac0b8784417015" target="_top" xlink:title="vTaskSuspendAll">
<polygon fill="white" stroke="black" points="208,-15.8249 208,-34.8249 302,-34.8249 302,-15.8249 208,-15.8249"/>
<text text-anchor="middle" x="255" y="-22.8249" font-family="Helvetica,sans-Serif" font-size="10.00">vTaskSuspendAll</text>
</a>
</g>
</g>
<!-- Node1&#45;&gt;Node4 -->
<g id="edge3" class="edge"><title>Node1&#45;&gt;Node4</title>
<path fill="none" stroke="midnightblue" d="M170.989,-34.7692C179.997,-33.7443 188.998,-32.7203 197.572,-31.7449"/>
<polygon fill="midnightblue" stroke="midnightblue" points="198.249,-35.1904 207.79,-30.5824 197.458,-28.2353 198.249,-35.1904"/>
</g>
<!-- Node5 -->
<g id="node5" class="node"><title>Node5</title>
<g id="a_node5"><a xlink:href="tasks_8c.html#adf830ea0f150fcdfdaa944667137f080" target="_top" xlink:title="xTaskResumeAll">
<polygon fill="white" stroke="black" points="209,-53.8249 209,-72.8249 301,-72.8249 301,-53.8249 209,-53.8249"/>
<text text-anchor="middle" x="255" y="-60.8249" font-family="Helvetica,sans-Serif" font-size="10.00">xTaskResumeAll</text>
</a>
</g>
</g>
<!-- Node1&#45;&gt;Node5 -->
<g id="edge4" class="edge"><title>Node1&#45;&gt;Node5</title>
<path fill="none" stroke="midnightblue" d="M170.989,-53.8805C180.33,-54.9433 189.662,-56.005 198.519,-57.0127"/>
<polygon fill="midnightblue" stroke="midnightblue" points="198.338,-60.5146 208.67,-58.1676 199.13,-53.5595 198.338,-60.5146"/>
</g>
<!-- Node5&#45;&gt;Node3 -->
<g id="edge5" class="edge"><title>Node5&#45;&gt;Node3</title>
<path fill="none" stroke="midnightblue" d="M292.952,-53.7444C306.982,-50.376 323.156,-46.8141 338,-44.3249 392.503,-35.1856 457.021,-29.6655 492.427,-27.0854"/>
<polygon fill="midnightblue" stroke="midnightblue" points="492.708,-30.5743 502.437,-26.3783 492.215,-23.5917 492.708,-30.5743"/>
</g>
<!-- Node5&#45;&gt;Node2 -->
<g id="edge6" class="edge"><title>Node5&#45;&gt;Node2</title>
<path fill="none" stroke="midnightblue" d="M292.952,-72.9053C306.982,-76.2738 323.156,-79.8357 338,-82.3249 382.244,-89.7439 433.088,-94.778 469.601,-97.7904"/>
<polygon fill="midnightblue" stroke="midnightblue" points="469.726,-101.312 479.974,-98.6238 470.287,-94.3342 469.726,-101.312"/>
</g>
<!-- Node6 -->
<g id="node6" class="node"><title>Node6</title>
<g id="a_node6"><a xlink:href="tasks_8c.html#a54f31e9aef0eb7b87e48c7d68ecc84c1" target="_top" xlink:title="xTaskIncrementTick">
<polygon fill="white" stroke="black" points="338,-53.8249 338,-72.8249 444,-72.8249 444,-53.8249 338,-53.8249"/>
<text text-anchor="middle" x="391" y="-60.8249" font-family="Helvetica,sans-Serif" font-size="10.00">xTaskIncrementTick</text>
</a>
</g>
</g>
<!-- Node5&#45;&gt;Node6 -->
<g id="edge7" class="edge"><title>Node5&#45;&gt;Node6</title>
<path fill="none" stroke="midnightblue" d="M301.366,-63.3249C309.77,-63.3249 318.683,-63.3249 327.492,-63.3249"/>
<polygon fill="midnightblue" stroke="midnightblue" points="327.748,-66.825 337.748,-63.3249 327.748,-59.825 327.748,-66.825"/>
</g>
<!-- Node6&#45;&gt;Node3 -->
<g id="edge8" class="edge"><title>Node6&#45;&gt;Node3</title>
<path fill="none" stroke="midnightblue" d="M424.047,-53.7359C445.198,-47.4075 472.576,-39.2156 492.496,-33.2554"/>
<polygon fill="midnightblue" stroke="midnightblue" points="493.583,-36.5834 502.16,-30.3636 491.576,-29.8771 493.583,-36.5834"/>
</g>
<!-- Node6&#45;&gt;Node2 -->
<g id="edge9" class="edge"><title>Node6&#45;&gt;Node2</title>
<path fill="none" stroke="midnightblue" d="M424.047,-72.9139C440.141,-77.7293 459.841,-83.6237 477.117,-88.7929"/>
<polygon fill="midnightblue" stroke="midnightblue" points="476.379,-92.2254 486.963,-91.7389 478.386,-85.5192 476.379,-92.2254"/>
</g>
</g>
</svg>
