<?xml version="1.0" encoding="UTF-8" standalone="no"?>
<!DOCTYPE svg PUBLIC "-//W3C//DTD SVG 1.1//EN"
 "http://www.w3.org/Graphics/SVG/1.1/DTD/svg11.dtd">
<!-- Generated by graphviz version 2.30.1 (20130221.2233)
 -->
<!-- Title: xTaskGetSchedulerState Pages: 1 -->
<svg width="482pt" height="142pt"
 viewBox="0.00 0.00 482.00 142.00" xmlns="http://www.w3.org/2000/svg" xmlns:xlink="http://www.w3.org/1999/xlink">
<g id="graph0" class="graph" transform="scale(1 1) rotate(0) translate(4 138)">
<title>xTaskGetSchedulerState</title>
<polygon fill="white" stroke="white" points="-4,5 -4,-138 479,-138 479,5 -4,5"/>
<!-- Node1 -->
<g id="node1" class="node"><title>Node1</title>
<polygon fill="#bfbfbf" stroke="black" points="0,-57.5 0,-76.5 128,-76.5 128,-57.5 0,-57.5"/>
<text text-anchor="middle" x="64" y="-64.5" font-family="Helvetica,sans-Serif" font-size="10.00">xTaskGetSchedulerState</text>
</g>
<!-- Node2 -->
<g id="node2" class="node"><title>Node2</title>
<g id="a_node2"><a xlink:href="event__groups_8h.html#a869511456b86426f52e2eec898bff341" target="_top" xlink:title="xEventGroupSync">
<polygon fill="white" stroke="black" points="177.5,-114.5 177.5,-133.5 274.5,-133.5 274.5,-114.5 177.5,-114.5"/>
<text text-anchor="middle" x="226" y="-121.5" font-family="Helvetica,sans-Serif" font-size="10.00">xEventGroupSync</text>
</a>
</g>
</g>
<!-- Node1&#45;&gt;Node2 -->
<g id="edge1" class="edge"><title>Node1&#45;&gt;Node2</title>
<path fill="none" stroke="midnightblue" d="M98.3078,-80.401C117.421,-87.9355 141.933,-97.3373 164,-105 173.326,-108.238 183.54,-111.521 192.898,-114.427"/>
<polygon fill="midnightblue" stroke="midnightblue" points="99.4327,-77.082 88.8467,-76.6502 96.8529,-83.5893 99.4327,-77.082"/>
</g>
<!-- Node3 -->
<g id="node3" class="node"><title>Node3</title>
<g id="a_node3"><a xlink:href="event__groups_8h.html#aab9d5b405bc57b7624dcabe9a9a503db" target="_top" xlink:title="xEventGroupWaitBits">
<polygon fill="white" stroke="black" points="170,-76.5 170,-95.5 282,-95.5 282,-76.5 170,-76.5"/>
<text text-anchor="middle" x="226" y="-83.5" font-family="Helvetica,sans-Serif" font-size="10.00">xEventGroupWaitBits</text>
</a>
</g>
</g>
<!-- Node1&#45;&gt;Node3 -->
<g id="edge2" class="edge"><title>Node1&#45;&gt;Node3</title>
<path fill="none" stroke="midnightblue" d="M138.361,-75.7117C148.998,-76.9748 159.793,-78.2567 169.986,-79.4671"/>
<polygon fill="midnightblue" stroke="midnightblue" points="138.579,-72.213 128.236,-74.5093 137.754,-79.1642 138.579,-72.213"/>
</g>
<!-- Node4 -->
<g id="node4" class="node"><title>Node4</title>
<g id="a_node4"><a xlink:href="queue_8c.html#ace632b55c3955bacae20978e261129a6" target="_top" xlink:title="xQueueGenericReceive">
<polygon fill="white" stroke="black" points="164.5,-38.5 164.5,-57.5 287.5,-57.5 287.5,-38.5 164.5,-38.5"/>
<text text-anchor="middle" x="226" y="-45.5" font-family="Helvetica,sans-Serif" font-size="10.00">xQueueGenericReceive</text>
</a>
</g>
</g>
<!-- Node1&#45;&gt;Node4 -->
<g id="edge3" class="edge"><title>Node1&#45;&gt;Node4</title>
<path fill="none" stroke="midnightblue" d="M138.357,-58.2888C147.041,-57.2576 155.83,-56.2139 164.311,-55.2068"/>
<polygon fill="midnightblue" stroke="midnightblue" points="137.754,-54.8358 128.236,-59.4907 138.579,-61.787 137.754,-54.8358"/>
</g>
<!-- Node6 -->
<g id="node6" class="node"><title>Node6</title>
<g id="a_node6"><a xlink:href="queue_8c.html#acb67c81366c00896b21cd826e07d885d" target="_top" xlink:title="xQueueGenericSend">
<polygon fill="white" stroke="black" points="171,-0.5 171,-19.5 281,-19.5 281,-0.5 171,-0.5"/>
<text text-anchor="middle" x="226" y="-7.5" font-family="Helvetica,sans-Serif" font-size="10.00">xQueueGenericSend</text>
</a>
</g>
</g>
<!-- Node1&#45;&gt;Node6 -->
<g id="edge5" class="edge"><title>Node1&#45;&gt;Node6</title>
<path fill="none" stroke="midnightblue" d="M98.3078,-53.599C117.421,-46.0645 141.933,-36.6627 164,-29 173.326,-25.7616 183.54,-22.4785 192.898,-19.5732"/>
<polygon fill="midnightblue" stroke="midnightblue" points="96.8529,-50.4107 88.8467,-57.3498 99.4327,-56.918 96.8529,-50.4107"/>
</g>
<!-- Node5 -->
<g id="node5" class="node"><title>Node5</title>
<g id="a_node5"><a xlink:href="_g_c_c_2_a_r_m___c_m3___m_p_u_2port_8c.html#a11f6f4ba0b7f2612c09d7494aa695297" target="_top" xlink:title="MPU_xQueueGenericReceive">
<polygon fill="white" stroke="black" points="324,-38.5 324,-57.5 474,-57.5 474,-38.5 324,-38.5"/>
<text text-anchor="middle" x="399" y="-45.5" font-family="Helvetica,sans-Serif" font-size="10.00">MPU_xQueueGenericReceive</text>
</a>
</g>
</g>
<!-- Node4&#45;&gt;Node5 -->
<g id="edge4" class="edge"><title>Node4&#45;&gt;Node5</title>
<path fill="none" stroke="midnightblue" d="M297.79,-48C306.426,-48 315.267,-48 323.949,-48"/>
<polygon fill="midnightblue" stroke="midnightblue" points="297.77,-44.5001 287.77,-48 297.77,-51.5001 297.77,-44.5001"/>
</g>
<!-- Node7 -->
<g id="node7" class="node"><title>Node7</title>
<g id="a_node7"><a xlink:href="_g_c_c_2_a_r_m___c_m3___m_p_u_2port_8c.html#afec3801d053a850488cda14b0cad95fd" target="_top" xlink:title="MPU_xQueueGenericSend">
<polygon fill="white" stroke="black" points="330,-0.5 330,-19.5 468,-19.5 468,-0.5 330,-0.5"/>
<text text-anchor="middle" x="399" y="-7.5" font-family="Helvetica,sans-Serif" font-size="10.00">MPU_xQueueGenericSend</text>
</a>
</g>
</g>
<!-- Node6&#45;&gt;Node7 -->
<g id="edge6" class="edge"><title>Node6&#45;&gt;Node7</title>
<path fill="none" stroke="midnightblue" d="M291.454,-10C303.983,-10 317.156,-10 329.802,-10"/>
<polygon fill="midnightblue" stroke="midnightblue" points="291.106,-6.5001 281.105,-10 291.105,-13.5001 291.106,-6.5001"/>
</g>
</g>
</svg>
