<?xml version="1.0" encoding="UTF-8" standalone="no"?>
<!DOCTYPE svg PUBLIC "-//W3C//DTD SVG 1.1//EN"
 "http://www.w3.org/Graphics/SVG/1.1/DTD/svg11.dtd">
<!-- Generated by graphviz version 2.30.1 (20130221.2233)
 -->
<!-- Title: xTaskIncrementTick Pages: 1 -->
<svg width="662pt" height="1358pt"
 viewBox="0.00 0.00 662.00 1358.00" xmlns="http://www.w3.org/2000/svg" xmlns:xlink="http://www.w3.org/1999/xlink">
<g id="graph0" class="graph" transform="scale(1 1) rotate(0) translate(4 1354)">
<title>xTaskIncrementTick</title>
<polygon fill="white" stroke="white" points="-4,5 -4,-1354 659,-1354 659,5 -4,5"/>
<!-- Node1 -->
<g id="node1" class="node"><title>Node1</title>
<polygon fill="#bfbfbf" stroke="black" points="0,-855.5 0,-874.5 106,-874.5 106,-855.5 0,-855.5"/>
<text text-anchor="middle" x="53" y="-862.5" font-family="Helvetica,sans-Serif" font-size="10.00">xTaskIncrementTick</text>
</g>
<!-- Node2 -->
<g id="node2" class="node"><title>Node2</title>
<g id="a_node2"><a xlink:href="_g_c_c_2_a_v_r32___u_c3_2port_8c.html#ae17f84edd67d6e218b43620ca2954e3c" target="_top" xlink:title="__attribute__">
<polygon fill="white" stroke="black" points="179.5,-1330.5 179.5,-1349.5 254.5,-1349.5 254.5,-1330.5 179.5,-1330.5"/>
<text text-anchor="middle" x="217" y="-1337.5" font-family="Helvetica,sans-Serif" font-size="10.00">__attribute__</text>
</a>
</g>
</g>
<!-- Node1&#45;&gt;Node2 -->
<g id="edge1" class="edge"><title>Node1&#45;&gt;Node2</title>
<path fill="none" stroke="midnightblue" d="M55.0834,-884.98C59.7896,-964.354 81.0391,-1256.22 142,-1321 151.636,-1331.24 165.979,-1336.26 179.479,-1338.62"/>
<polygon fill="midnightblue" stroke="midnightblue" points="58.5702,-884.647 54.5063,-874.863 51.5816,-885.046 58.5702,-884.647"/>
</g>
<!-- Node3 -->
<g id="node3" class="node"><title>Node3</title>
<g id="a_node3"><a xlink:href="_r_v_d_s_2_a_r_m___c_a9_2portmacro_8h.html#a3853f6eea7b62957ada2e0feba299037" target="_top" xlink:title="FreeRTOS_Tick_Handler">
<polygon fill="white" stroke="black" points="152.5,-1292.5 152.5,-1311.5 281.5,-1311.5 281.5,-1292.5 152.5,-1292.5"/>
<text text-anchor="middle" x="217" y="-1299.5" font-family="Helvetica,sans-Serif" font-size="10.00">FreeRTOS_Tick_Handler</text>
</a>
</g>
</g>
<!-- Node1&#45;&gt;Node3 -->
<g id="edge2" class="edge"><title>Node1&#45;&gt;Node3</title>
<path fill="none" stroke="midnightblue" d="M55.4813,-885.206C61.4146,-960.633 85.9038,-1224.39 142,-1283 145.668,-1286.83 149.997,-1289.93 154.69,-1292.43"/>
<polygon fill="midnightblue" stroke="midnightblue" points="58.9364,-884.483 54.6864,-874.778 51.9567,-885.015 58.9364,-884.483"/>
</g>
<!-- Node4 -->
<g id="node4" class="node"><title>Node4</title>
<g id="a_node4"><a xlink:href="_g_c_c_2_m_s_p430_f449_2port_8c.html#ae0992854bdba99f7b163894433c32aef" target="_top" xlink:title="interrupt">
<polygon fill="white" stroke="black" points="190.5,-1254.5 190.5,-1273.5 243.5,-1273.5 243.5,-1254.5 190.5,-1254.5"/>
<text text-anchor="middle" x="217" y="-1261.5" font-family="Helvetica,sans-Serif" font-size="10.00">interrupt</text>
</a>
</g>
</g>
<!-- Node1&#45;&gt;Node4 -->
<g id="edge3" class="edge"><title>Node1&#45;&gt;Node4</title>
<path fill="none" stroke="midnightblue" d="M55.8913,-884.723C63.0288,-955.078 90.5728,-1192.34 142,-1245 154.51,-1257.81 174.405,-1262.39 190.417,-1263.86"/>
<polygon fill="midnightblue" stroke="midnightblue" points="59.356,-884.192 54.8884,-874.585 52.39,-884.881 59.356,-884.192"/>
</g>
<!-- Node5 -->
<g id="node5" class="node"><title>Node5</title>
<g id="a_node5"><a xlink:href="_b_c_c_216_bit_d_o_s_2_flsh186_2port_8c.html#acf9df4f9ff9bc642609898d1a7503a53" target="_top" xlink:title="prvNonPreemptiveTick">
<polygon fill="white" stroke="black" points="158,-1216.5 158,-1235.5 276,-1235.5 276,-1216.5 158,-1216.5"/>
<text text-anchor="middle" x="217" y="-1223.5" font-family="Helvetica,sans-Serif" font-size="10.00">prvNonPreemptiveTick</text>
</a>
</g>
</g>
<!-- Node1&#45;&gt;Node5 -->
<g id="edge4" class="edge"><title>Node1&#45;&gt;Node5</title>
<path fill="none" stroke="midnightblue" d="M56.4513,-884.843C64.9745,-950.683 95.3658,-1160.39 142,-1207 146.503,-1211.5 151.919,-1214.98 157.747,-1217.67"/>
<polygon fill="midnightblue" stroke="midnightblue" points="59.8835,-884.086 55.1538,-874.606 52.9391,-884.966 59.8835,-884.086"/>
</g>
<!-- Node7 -->
<g id="node7" class="node"><title>Node7</title>
<g id="a_node7"><a xlink:href="_g_c_c_2_c_o_r_t_u_s___a_p_s3_2port_8c.html#aa0ae742a01361a946aea2acb64fb924b" target="_top" xlink:title="prvProcessTick">
<polygon fill="white" stroke="black" points="174.5,-1178.5 174.5,-1197.5 259.5,-1197.5 259.5,-1178.5 174.5,-1178.5"/>
<text text-anchor="middle" x="217" y="-1185.5" font-family="Helvetica,sans-Serif" font-size="10.00">prvProcessTick</text>
</a>
</g>
</g>
<!-- Node1&#45;&gt;Node7 -->
<g id="edge6" class="edge"><title>Node1&#45;&gt;Node7</title>
<path fill="none" stroke="midnightblue" d="M53.4681,-884.852C53.1603,-938.827 60.0641,-1089.52 142,-1169 150.664,-1177.4 162.519,-1182.23 174.201,-1184.97"/>
<polygon fill="midnightblue" stroke="midnightblue" points="56.9715,-884.652 53.6256,-874.599 49.9724,-884.544 56.9715,-884.652"/>
</g>
<!-- Node9 -->
<g id="node9" class="node"><title>Node9</title>
<g id="a_node9"><a xlink:href="_m_s_v_c-_ming_w_2port_8c.html#adc28efa1df4fe75c8bb49108e6609377" target="_top" xlink:title="prvProcessTickInterrupt">
<polygon fill="white" stroke="black" points="156,-1140.5 156,-1159.5 278,-1159.5 278,-1140.5 156,-1140.5"/>
<text text-anchor="middle" x="217" y="-1147.5" font-family="Helvetica,sans-Serif" font-size="10.00">prvProcessTickInterrupt</text>
</a>
</g>
</g>
<!-- Node1&#45;&gt;Node9 -->
<g id="edge8" class="edge"><title>Node1&#45;&gt;Node9</title>
<path fill="none" stroke="midnightblue" d="M54.4371,-884.985C56.6424,-934.4 69.4357,-1063.22 142,-1131 146.071,-1134.8 150.798,-1137.87 155.857,-1140.34"/>
<polygon fill="midnightblue" stroke="midnightblue" points="57.9254,-884.578 54.0855,-874.703 50.9295,-884.817 57.9254,-884.578"/>
</g>
<!-- Node11 -->
<g id="node11" class="node"><title>Node11</title>
<g id="a_node11"><a xlink:href="_softune_2_m_b96340_2port_8c.html#aa4da5ab5570e9f7f2177febfa143843a" target="_top" xlink:title="prvRLT0_TICKISR">
<polygon fill="white" stroke="black" points="167,-1102.5 167,-1121.5 267,-1121.5 267,-1102.5 167,-1102.5"/>
<text text-anchor="middle" x="217" y="-1109.5" font-family="Helvetica,sans-Serif" font-size="10.00">prvRLT0_TICKISR</text>
</a>
</g>
</g>
<!-- Node1&#45;&gt;Node11 -->
<g id="edge10" class="edge"><title>Node1&#45;&gt;Node11</title>
<path fill="none" stroke="midnightblue" d="M55.6484,-884.502C60.4494,-928.584 78.4175,-1036.45 142,-1093 149.037,-1099.26 157.863,-1103.51 166.944,-1106.38"/>
<polygon fill="midnightblue" stroke="midnightblue" points="59.1286,-884.129 54.6725,-874.517 52.1618,-884.81 59.1286,-884.129"/>
</g>
<!-- Node12 -->
<g id="node12" class="node"><title>Node12</title>
<g id="a_node12"><a xlink:href="_g_c_c_2_tri_core__1782_2port_8c.html#acc47dfc4b7b63a5dc427be518fd85d99" target="_top" xlink:title="prvSystemTickHandler">
<polygon fill="white" stroke="black" points="158.5,-1064.5 158.5,-1083.5 275.5,-1083.5 275.5,-1064.5 158.5,-1064.5"/>
<text text-anchor="middle" x="217" y="-1071.5" font-family="Helvetica,sans-Serif" font-size="10.00">prvSystemTickHandler</text>
</a>
</g>
</g>
<!-- Node1&#45;&gt;Node12 -->
<g id="edge11" class="edge"><title>Node1&#45;&gt;Node12</title>
<path fill="none" stroke="midnightblue" d="M57.3549,-884.632C65.0295,-923.347 87.5815,-1009.7 142,-1055 146.791,-1058.99 152.318,-1062.15 158.148,-1064.66"/>
<polygon fill="midnightblue" stroke="midnightblue" points="60.7674,-883.839 55.5007,-874.645 53.885,-885.116 60.7674,-883.839"/>
</g>
<!-- Node13 -->
<g id="node13" class="node"><title>Node13</title>
<g id="a_node13"><a xlink:href="_i_a_r_2_r_x100_2port_8c.html#a2a8e0f3c630d48b9b0a26ec631c6760a" target="_top" xlink:title="prvTickISR">
<polygon fill="white" stroke="black" points="184.5,-1026.5 184.5,-1045.5 249.5,-1045.5 249.5,-1026.5 184.5,-1026.5"/>
<text text-anchor="middle" x="217" y="-1033.5" font-family="Helvetica,sans-Serif" font-size="10.00">prvTickISR</text>
</a>
</g>
</g>
<!-- Node1&#45;&gt;Node13 -->
<g id="edge12" class="edge"><title>Node1&#45;&gt;Node13</title>
<path fill="none" stroke="midnightblue" d="M59.6973,-884.263C70.3351,-916.786 96.3727,-982.41 142,-1017 154.155,-1026.21 170.323,-1030.99 184.445,-1033.44"/>
<polygon fill="midnightblue" stroke="midnightblue" points="62.9992,-883.095 56.674,-874.596 56.3183,-885.185 62.9992,-883.095"/>
</g>
<!-- Node14 -->
<g id="node14" class="node"><title>Node14</title>
<g id="a_node14"><a xlink:href="_softune_2_m_b91460_2port_8c.html#a6901867773543e9e843544d101152285" target="_top" xlink:title="ReloadTimer0_IRQHandler">
<polygon fill="white" stroke="black" points="148,-988.5 148,-1007.5 286,-1007.5 286,-988.5 148,-988.5"/>
<text text-anchor="middle" x="217" y="-995.5" font-family="Helvetica,sans-Serif" font-size="10.00">ReloadTimer0_IRQHandler</text>
</a>
</g>
</g>
<!-- Node1&#45;&gt;Node14 -->
<g id="edge13" class="edge"><title>Node1&#45;&gt;Node14</title>
<path fill="none" stroke="midnightblue" d="M63.3064,-883.722C76.9809,-909.253 104.947,-954.599 142,-979 147.871,-982.866 154.483,-985.946 161.277,-988.4"/>
<polygon fill="midnightblue" stroke="midnightblue" points="66.3379,-881.965 58.6285,-874.698 60.1232,-885.186 66.3379,-881.965"/>
</g>
<!-- Node15 -->
<g id="node15" class="node"><title>Node15</title>
<g id="a_node15"><a xlink:href="_g_c_c_2_a_t_mega323_2port_8c.html#aab4625a488c36c904d1a725a531f3157" target="_top" xlink:title="SIG_OUTPUT_COMPARE1A">
<polygon fill="white" stroke="black" points="142.5,-950.5 142.5,-969.5 291.5,-969.5 291.5,-950.5 142.5,-950.5"/>
<text text-anchor="middle" x="217" y="-957.5" font-family="Helvetica,sans-Serif" font-size="10.00">SIG_OUTPUT_COMPARE1A</text>
</a>
</g>
</g>
<!-- Node1&#45;&gt;Node15 -->
<g id="edge14" class="edge"><title>Node1&#45;&gt;Node15</title>
<path fill="none" stroke="midnightblue" d="M69.2921,-882.226C85.6275,-899.579 113.099,-925.886 142,-941 149.405,-944.872 157.647,-947.99 165.865,-950.489"/>
<polygon fill="midnightblue" stroke="midnightblue" points="71.5521,-879.513 62.21,-874.516 66.3966,-884.248 71.5521,-879.513"/>
</g>
<!-- Node16 -->
<g id="node16" class="node"><title>Node16</title>
<g id="a_node16"><a xlink:href="_tasking_2_a_r_m___c_m4_f_2port_8c.html#ab5e09814056d617c521549e542639b7e" target="_top" xlink:title="SysTick_Handler">
<polygon fill="white" stroke="black" points="171,-912.5 171,-931.5 263,-931.5 263,-912.5 171,-912.5"/>
<text text-anchor="middle" x="217" y="-919.5" font-family="Helvetica,sans-Serif" font-size="10.00">SysTick_Handler</text>
</a>
</g>
</g>
<!-- Node1&#45;&gt;Node16 -->
<g id="edge15" class="edge"><title>Node1&#45;&gt;Node16</title>
<path fill="none" stroke="midnightblue" d="M82.924,-878.85C99.8798,-886.623 121.861,-896.114 142,-903 152.291,-906.519 163.582,-909.733 174.176,-912.477"/>
<polygon fill="midnightblue" stroke="midnightblue" points="84.117,-875.544 73.5734,-874.504 81.1666,-881.892 84.117,-875.544"/>
</g>
<!-- Node17 -->
<g id="node17" class="node"><title>Node17</title>
<g id="a_node17"><a xlink:href="_i_a_r_2_s_t_r91x_2port_8c.html#a38ad4725462bdc5e86c4ead4f04b9fc2" target="_top" xlink:title="TIM2_IRQHandler">
<polygon fill="white" stroke="black" points="168,-874.5 168,-893.5 266,-893.5 266,-874.5 168,-874.5"/>
<text text-anchor="middle" x="217" y="-881.5" font-family="Helvetica,sans-Serif" font-size="10.00">TIM2_IRQHandler</text>
</a>
</g>
</g>
<!-- Node1&#45;&gt;Node17 -->
<g id="edge16" class="edge"><title>Node1&#45;&gt;Node17</title>
<path fill="none" stroke="midnightblue" d="M116.561,-872.337C133.567,-874.332 151.718,-876.461 167.796,-878.346"/>
<polygon fill="midnightblue" stroke="midnightblue" points="116.489,-868.805 106.15,-871.116 115.674,-875.757 116.489,-868.805"/>
</g>
<!-- Node18 -->
<g id="node18" class="node"><title>Node18</title>
<g id="a_node18"><a xlink:href="_r_v_d_s_2_a_r_m7___l_p_c21xx_2port_8c.html#ac642f8fce0e1256dd848a1e4ffd0c30c" target="_top" xlink:title="vNonPreemptiveTick">
<polygon fill="white" stroke="black" points="162.5,-836.5 162.5,-855.5 271.5,-855.5 271.5,-836.5 162.5,-836.5"/>
<text text-anchor="middle" x="217" y="-843.5" font-family="Helvetica,sans-Serif" font-size="10.00">vNonPreemptiveTick</text>
</a>
</g>
</g>
<!-- Node1&#45;&gt;Node18 -->
<g id="edge17" class="edge"><title>Node1&#45;&gt;Node18</title>
<path fill="none" stroke="midnightblue" d="M116.444,-857.676C131.566,-855.903 147.598,-854.022 162.278,-852.301"/>
<polygon fill="midnightblue" stroke="midnightblue" points="115.674,-854.243 106.15,-858.884 116.489,-861.195 115.674,-854.243"/>
</g>
<!-- Node20 -->
<g id="node20" class="node"><title>Node20</title>
<g id="a_node20"><a xlink:href="_m_p_l_a_b_2_p_i_c32_m_e_c14xx_2port_8c.html#aa9ac2b26adfad38266878b63174ea70a" target="_top" xlink:title="vPortIncrementTick">
<polygon fill="white" stroke="black" points="165.5,-798.5 165.5,-817.5 268.5,-817.5 268.5,-798.5 165.5,-798.5"/>
<text text-anchor="middle" x="217" y="-805.5" font-family="Helvetica,sans-Serif" font-size="10.00">vPortIncrementTick</text>
</a>
</g>
</g>
<!-- Node1&#45;&gt;Node20 -->
<g id="edge19" class="edge"><title>Node1&#45;&gt;Node20</title>
<path fill="none" stroke="midnightblue" d="M82.924,-851.15C99.8798,-843.377 121.861,-833.886 142,-827 152.291,-823.481 163.582,-820.267 174.176,-817.523"/>
<polygon fill="midnightblue" stroke="midnightblue" points="81.1666,-848.108 73.5734,-855.496 84.117,-854.456 81.1666,-848.108"/>
</g>
<!-- Node21 -->
<g id="node21" class="node"><title>Node21</title>
<g id="a_node21"><a xlink:href="_c_c_s_2_a_r_m___cortex-_r4_2port_8c.html#aa3d36248da898dd1d2ae1784c76bdb9c" target="_top" xlink:title="vPortNonPreemptiveTick">
<polygon fill="white" stroke="black" points="153.5,-760.5 153.5,-779.5 280.5,-779.5 280.5,-760.5 153.5,-760.5"/>
<text text-anchor="middle" x="217" y="-767.5" font-family="Helvetica,sans-Serif" font-size="10.00">vPortNonPreemptiveTick</text>
</a>
</g>
</g>
<!-- Node1&#45;&gt;Node21 -->
<g id="edge20" class="edge"><title>Node1&#45;&gt;Node21</title>
<path fill="none" stroke="midnightblue" d="M69.2921,-847.774C85.6275,-830.421 113.099,-804.114 142,-789 149.405,-785.128 157.647,-782.01 165.865,-779.511"/>
<polygon fill="midnightblue" stroke="midnightblue" points="66.3966,-845.752 62.21,-855.484 71.5521,-850.487 66.3966,-845.752"/>
</g>
<!-- Node23 -->
<g id="node23" class="node"><title>Node23</title>
<g id="a_node23"><a xlink:href="_i_a_r_2_s_t_r71x_2port_8c.html#afa0af0d6450abd50943523742eb8090b" target="_top" xlink:title="vPortPreemptiveTick">
<polygon fill="white" stroke="black" points="162.5,-722.5 162.5,-741.5 271.5,-741.5 271.5,-722.5 162.5,-722.5"/>
<text text-anchor="middle" x="217" y="-729.5" font-family="Helvetica,sans-Serif" font-size="10.00">vPortPreemptiveTick</text>
</a>
</g>
</g>
<!-- Node1&#45;&gt;Node23 -->
<g id="edge22" class="edge"><title>Node1&#45;&gt;Node23</title>
<path fill="none" stroke="midnightblue" d="M63.3064,-846.278C76.9809,-820.747 104.947,-775.401 142,-751 148.203,-746.915 155.234,-743.708 162.433,-741.19"/>
<polygon fill="midnightblue" stroke="midnightblue" points="60.1232,-844.814 58.6285,-855.302 66.3379,-848.035 60.1232,-844.814"/>
</g>
<!-- Node24 -->
<g id="node24" class="node"><title>Node24</title>
<g id="a_node24"><a xlink:href="_g_c_c_2_nios_i_i_2port_8c.html#aba3499e1ee02f7effadcdda992d7c17f" target="_top" xlink:title="vPortSysTickHandler">
<polygon fill="white" stroke="black" points="162,-684.5 162,-703.5 272,-703.5 272,-684.5 162,-684.5"/>
<text text-anchor="middle" x="217" y="-691.5" font-family="Helvetica,sans-Serif" font-size="10.00">vPortSysTickHandler</text>
</a>
</g>
</g>
<!-- Node1&#45;&gt;Node24 -->
<g id="edge24" class="edge"><title>Node1&#45;&gt;Node24</title>
<path fill="none" stroke="midnightblue" d="M59.6973,-845.737C70.3351,-813.214 96.3727,-747.59 142,-713 147.919,-708.513 154.79,-705.079 161.912,-702.454"/>
<polygon fill="midnightblue" stroke="midnightblue" points="56.3183,-844.815 56.674,-855.404 62.9992,-846.905 56.3183,-844.815"/>
</g>
<!-- Node26 -->
<g id="node26" class="node"><title>Node26</title>
<g id="a_node26"><a xlink:href="_code_warrior_2_h_c_s12_2port_8c.html#ae536a48b8cb683c5474b383aa811fd3e" target="_top" xlink:title="vPortTickInterrupt">
<polygon fill="white" stroke="black" points="169.5,-646.5 169.5,-665.5 264.5,-665.5 264.5,-646.5 169.5,-646.5"/>
<text text-anchor="middle" x="217" y="-653.5" font-family="Helvetica,sans-Serif" font-size="10.00">vPortTickInterrupt</text>
</a>
</g>
</g>
<!-- Node1&#45;&gt;Node26 -->
<g id="edge26" class="edge"><title>Node1&#45;&gt;Node26</title>
<path fill="none" stroke="midnightblue" d="M57.3549,-845.368C65.0295,-806.653 87.5815,-720.298 142,-675 149.748,-668.551 159.417,-664.256 169.184,-661.405"/>
<polygon fill="midnightblue" stroke="midnightblue" points="53.885,-844.884 55.5007,-855.355 60.7674,-846.161 53.885,-844.884"/>
</g>
<!-- Node27 -->
<g id="node27" class="node"><title>Node27</title>
<g id="a_node27"><a xlink:href="_g_c_c_2_p_p_c440___xilinx_2port_8c.html#a546d822c1cff528af19326d0fb49e7de" target="_top" xlink:title="vPortTickISR">
<polygon fill="white" stroke="black" points="179.5,-608.5 179.5,-627.5 254.5,-627.5 254.5,-608.5 179.5,-608.5"/>
<text text-anchor="middle" x="217" y="-615.5" font-family="Helvetica,sans-Serif" font-size="10.00">vPortTickISR</text>
</a>
</g>
</g>
<!-- Node1&#45;&gt;Node27 -->
<g id="edge27" class="edge"><title>Node1&#45;&gt;Node27</title>
<path fill="none" stroke="midnightblue" d="M55.6484,-845.498C60.4494,-801.416 78.4175,-693.546 142,-637 152.209,-627.921 166.182,-623.072 179.237,-620.519"/>
<polygon fill="midnightblue" stroke="midnightblue" points="52.1618,-845.19 54.6725,-855.483 59.1286,-845.871 52.1618,-845.19"/>
</g>
<!-- Node30 -->
<g id="node30" class="node"><title>Node30</title>
<g id="a_node30"><a xlink:href="_i_a_r_2_a_t_mega323_2port_8c.html#a130213f2e8a8331aaa6dc715f41b6358" target="_top" xlink:title="vPortYieldFromTick">
<polygon fill="white" stroke="black" points="165,-570.5 165,-589.5 269,-589.5 269,-570.5 165,-570.5"/>
<text text-anchor="middle" x="217" y="-577.5" font-family="Helvetica,sans-Serif" font-size="10.00">vPortYieldFromTick</text>
</a>
</g>
</g>
<!-- Node1&#45;&gt;Node30 -->
<g id="edge30" class="edge"><title>Node1&#45;&gt;Node30</title>
<path fill="none" stroke="midnightblue" d="M54.4371,-845.015C56.6424,-795.6 69.4357,-666.779 142,-599 148.397,-593.024 156.415,-588.867 164.792,-585.988"/>
<polygon fill="midnightblue" stroke="midnightblue" points="50.9295,-845.183 54.0855,-855.297 57.9254,-845.422 50.9295,-845.183"/>
</g>
<!-- Node31 -->
<g id="node31" class="node"><title>Node31</title>
<g id="a_node31"><a xlink:href="_i_a_r_2_a_v_r32___u_c3_2port_8c.html#a4d7be48967d0bbfac84a6d33223702a2" target="_top" xlink:title="vTick">
<polygon fill="white" stroke="black" points="197,-532.5 197,-551.5 237,-551.5 237,-532.5 197,-532.5"/>
<text text-anchor="middle" x="217" y="-539.5" font-family="Helvetica,sans-Serif" font-size="10.00">vTick</text>
</a>
</g>
</g>
<!-- Node1&#45;&gt;Node31 -->
<g id="edge31" class="edge"><title>Node1&#45;&gt;Node31</title>
<path fill="none" stroke="midnightblue" d="M53.4681,-845.148C53.1603,-791.173 60.0641,-640.479 142,-561 156.567,-546.87 180.154,-542.843 196.776,-541.89"/>
<polygon fill="midnightblue" stroke="midnightblue" points="49.9724,-845.456 53.6256,-855.401 56.9715,-845.348 49.9724,-845.456"/>
</g>
<!-- Node33 -->
<g id="node33" class="node"><title>Node33</title>
<g id="a_node33"><a xlink:href="_g_c_c_2_h8_s2329_2port_8c.html#a502142367426395ab5c401b99204b437" target="_top" xlink:title="vTickISR">
<polygon fill="white" stroke="black" points="189,-494.5 189,-513.5 245,-513.5 245,-494.5 189,-494.5"/>
<text text-anchor="middle" x="217" y="-501.5" font-family="Helvetica,sans-Serif" font-size="10.00">vTickISR</text>
</a>
</g>
</g>
<!-- Node1&#45;&gt;Node33 -->
<g id="edge33" class="edge"><title>Node1&#45;&gt;Node33</title>
<path fill="none" stroke="midnightblue" d="M56.4513,-845.157C64.9745,-779.317 95.3658,-569.61 142,-523 154.196,-510.81 173.088,-506.101 188.73,-504.419"/>
<polygon fill="midnightblue" stroke="midnightblue" points="52.9391,-845.034 55.1538,-855.394 59.8835,-845.914 52.9391,-845.034"/>
</g>
<!-- Node35 -->
<g id="node35" class="node"><title>Node35</title>
<g id="a_node35"><a xlink:href="_s_d_c_c_2_cygnal_2portmacro_8h.html#a702d7c354a3e7d2c91ea8fbb24eef033" target="_top" xlink:title="vTimer2ISR">
<polygon fill="white" stroke="black" points="182.5,-456.5 182.5,-475.5 251.5,-475.5 251.5,-456.5 182.5,-456.5"/>
<text text-anchor="middle" x="217" y="-463.5" font-family="Helvetica,sans-Serif" font-size="10.00">vTimer2ISR</text>
</a>
</g>
</g>
<!-- Node1&#45;&gt;Node35 -->
<g id="edge35" class="edge"><title>Node1&#45;&gt;Node35</title>
<path fill="none" stroke="midnightblue" d="M55.8913,-845.277C63.0288,-774.922 90.5728,-537.664 142,-485 152.472,-474.277 168.117,-469.318 182.328,-467.124"/>
<polygon fill="midnightblue" stroke="midnightblue" points="52.39,-845.119 54.8884,-855.415 59.356,-845.808 52.39,-845.119"/>
</g>
<!-- Node36 -->
<g id="node36" class="node"><title>Node36</title>
<g id="a_node36"><a xlink:href="_c_c_s_2_a_r_m___c_m4_f_2port_8c.html#a78100b2d36913d0b45565be8975e5de8" target="_top" xlink:title="xPortSysTickHandler">
<polygon fill="white" stroke="black" points="162,-418.5 162,-437.5 272,-437.5 272,-418.5 162,-418.5"/>
<text text-anchor="middle" x="217" y="-425.5" font-family="Helvetica,sans-Serif" font-size="10.00">xPortSysTickHandler</text>
</a>
</g>
</g>
<!-- Node1&#45;&gt;Node36 -->
<g id="edge36" class="edge"><title>Node1&#45;&gt;Node36</title>
<path fill="none" stroke="midnightblue" d="M55.4813,-844.794C61.4146,-769.367 85.9038,-505.61 142,-447 147.503,-441.251 154.491,-437.153 161.966,-434.248"/>
<polygon fill="midnightblue" stroke="midnightblue" points="51.9567,-844.985 54.6864,-855.222 58.9364,-845.517 51.9567,-844.985"/>
</g>
<!-- Node37 -->
<g id="node37" class="node"><title>Node37</title>
<g id="a_node37"><a xlink:href="tasks_8c.html#adf830ea0f150fcdfdaa944667137f080" target="_top" xlink:title="xTaskResumeAll">
<polygon fill="white" stroke="black" points="171,-247.5 171,-266.5 263,-266.5 263,-247.5 171,-247.5"/>
<text text-anchor="middle" x="217" y="-254.5" font-family="Helvetica,sans-Serif" font-size="10.00">xTaskResumeAll</text>
</a>
</g>
</g>
<!-- Node1&#45;&gt;Node37 -->
<g id="edge37" class="edge"><title>Node1&#45;&gt;Node37</title>
<path fill="none" stroke="midnightblue" d="M55.9497,-845.152C62.6673,-780.771 87.4973,-572.453 142,-409 160.847,-352.479 196.335,-290.019 210.221,-266.58"/>
<polygon fill="midnightblue" stroke="midnightblue" points="52.4318,-845.152 54.9031,-855.455 59.3959,-845.86 52.4318,-845.152"/>
</g>
<!-- Node6 -->
<g id="node6" class="node"><title>Node6</title>
<g id="a_node6"><a xlink:href="_b_c_c_216_bit_d_o_s_2_flsh186_2port_8c.html#ade5a8c6666e7413a0355cc252029c5c6" target="_top" xlink:title="xPortStartScheduler">
<polygon fill="white" stroke="black" points="361,-1216.5 361,-1235.5 467,-1235.5 467,-1216.5 361,-1216.5"/>
<text text-anchor="middle" x="414" y="-1223.5" font-family="Helvetica,sans-Serif" font-size="10.00">xPortStartScheduler</text>
</a>
</g>
</g>
<!-- Node5&#45;&gt;Node6 -->
<g id="edge5" class="edge"><title>Node5&#45;&gt;Node6</title>
<path fill="none" stroke="midnightblue" d="M286.504,-1226C310.873,-1226 337.901,-1226 360.697,-1226"/>
<polygon fill="midnightblue" stroke="midnightblue" points="286.242,-1222.5 276.242,-1226 286.242,-1229.5 286.242,-1222.5"/>
</g>
<!-- Node8 -->
<g id="node8" class="node"><title>Node8</title>
<g id="a_node8"><a xlink:href="_g_c_c_2_c_o_r_t_u_s___a_p_s3_2port_8c.html#a1addd63671cd6fd6f4b9c5752433008e" target="_top" xlink:title="interrupt7_handler">
<polygon fill="white" stroke="black" points="365,-1178.5 365,-1197.5 463,-1197.5 463,-1178.5 365,-1178.5"/>
<text text-anchor="middle" x="414" y="-1185.5" font-family="Helvetica,sans-Serif" font-size="10.00">interrupt7_handler</text>
</a>
</g>
</g>
<!-- Node7&#45;&gt;Node8 -->
<g id="edge7" class="edge"><title>Node7&#45;&gt;Node8</title>
<path fill="none" stroke="midnightblue" d="M269.917,-1188C299.338,-1188 335.906,-1188 364.709,-1188"/>
<polygon fill="midnightblue" stroke="midnightblue" points="269.832,-1184.5 259.832,-1188 269.832,-1191.5 269.832,-1184.5"/>
</g>
<!-- Node10 -->
<g id="node10" class="node"><title>Node10</title>
<g id="a_node10"><a xlink:href="_m_s_v_c-_ming_w_2port_8c.html#ade5a8c6666e7413a0355cc252029c5c6" target="_top" xlink:title="xPortStartScheduler">
<polygon fill="white" stroke="black" points="361,-1140.5 361,-1159.5 467,-1159.5 467,-1140.5 361,-1140.5"/>
<text text-anchor="middle" x="414" y="-1147.5" font-family="Helvetica,sans-Serif" font-size="10.00">xPortStartScheduler</text>
</a>
</g>
</g>
<!-- Node9&#45;&gt;Node10 -->
<g id="edge9" class="edge"><title>Node9&#45;&gt;Node10</title>
<path fill="none" stroke="midnightblue" d="M288.185,-1150C312.106,-1150 338.414,-1150 360.683,-1150"/>
<polygon fill="midnightblue" stroke="midnightblue" points="288.098,-1146.5 278.098,-1150 288.098,-1153.5 288.098,-1146.5"/>
</g>
<!-- Node19 -->
<g id="node19" class="node"><title>Node19</title>
<g id="a_node19"><a xlink:href="_g_c_c_2_a_r_m7___a_t91_f_r40008_2port_8c.html#aeb91268bfbb6dc04ff839631ee5c72ba" target="_top" xlink:title="prvSetupTimerInterrupt">
<polygon fill="white" stroke="red" points="354.5,-836.5 354.5,-855.5 473.5,-855.5 473.5,-836.5 354.5,-836.5"/>
<text text-anchor="middle" x="414" y="-843.5" font-family="Helvetica,sans-Serif" font-size="10.00">prvSetupTimerInterrupt</text>
</a>
</g>
</g>
<!-- Node18&#45;&gt;Node19 -->
<g id="edge18" class="edge"><title>Node18&#45;&gt;Node19</title>
<path fill="none" stroke="midnightblue" d="M281.72,-846C305.131,-846 331.507,-846 354.442,-846"/>
<polygon fill="midnightblue" stroke="midnightblue" points="281.543,-842.5 271.543,-846 281.542,-849.5 281.543,-842.5"/>
</g>
<!-- Node22 -->
<g id="node22" class="node"><title>Node22</title>
<g id="a_node22"><a xlink:href="_i_a_r_2_atmel_s_a_m7_s64_2port_8c.html#aeb91268bfbb6dc04ff839631ee5c72ba" target="_top" xlink:title="prvSetupTimerInterrupt">
<polygon fill="white" stroke="red" points="354.5,-741.5 354.5,-760.5 473.5,-760.5 473.5,-741.5 354.5,-741.5"/>
<text text-anchor="middle" x="414" y="-748.5" font-family="Helvetica,sans-Serif" font-size="10.00">prvSetupTimerInterrupt</text>
</a>
</g>
</g>
<!-- Node21&#45;&gt;Node22 -->
<g id="edge21" class="edge"><title>Node21&#45;&gt;Node22</title>
<path fill="none" stroke="midnightblue" d="M290.685,-762.918C311.732,-760.867 334.432,-758.655 354.494,-756.701"/>
<polygon fill="midnightblue" stroke="midnightblue" points="290.117,-759.457 280.504,-763.91 290.796,-766.424 290.117,-759.457"/>
</g>
<!-- Node23&#45;&gt;Node22 -->
<g id="edge23" class="edge"><title>Node23&#45;&gt;Node22</title>
<path fill="none" stroke="midnightblue" d="M281.72,-738.209C305.131,-740.49 331.507,-743.06 354.442,-745.294"/>
<polygon fill="midnightblue" stroke="midnightblue" points="281.835,-734.703 271.543,-737.217 281.156,-741.67 281.835,-734.703"/>
</g>
<!-- Node25 -->
<g id="node25" class="node"><title>Node25</title>
<g id="a_node25"><a xlink:href="_g_c_c_2_nios_i_i_2port_8c.html#a397ed34de04a678dc71217c713763423" target="_top" xlink:title="prvSetupTimerInterrupt">
<polygon fill="white" stroke="red" points="354.5,-684.5 354.5,-703.5 473.5,-703.5 473.5,-684.5 354.5,-684.5"/>
<text text-anchor="middle" x="414" y="-691.5" font-family="Helvetica,sans-Serif" font-size="10.00">prvSetupTimerInterrupt</text>
</a>
</g>
</g>
<!-- Node24&#45;&gt;Node25 -->
<g id="edge25" class="edge"><title>Node24&#45;&gt;Node25</title>
<path fill="none" stroke="midnightblue" d="M282.184,-694C305.461,-694 331.618,-694 354.39,-694"/>
<polygon fill="midnightblue" stroke="midnightblue" points="282.059,-690.5 272.059,-694 282.059,-697.5 282.059,-690.5"/>
</g>
<!-- Node28 -->
<g id="node28" class="node"><title>Node28</title>
<g id="a_node28"><a xlink:href="_g_c_c_2_p_p_c405___xilinx_2port_8c.html#aeb91268bfbb6dc04ff839631ee5c72ba" target="_top" xlink:title="prvSetupTimerInterrupt">
<polygon fill="white" stroke="red" points="354.5,-627.5 354.5,-646.5 473.5,-646.5 473.5,-627.5 354.5,-627.5"/>
<text text-anchor="middle" x="414" y="-634.5" font-family="Helvetica,sans-Serif" font-size="10.00">prvSetupTimerInterrupt</text>
</a>
</g>
</g>
<!-- Node27&#45;&gt;Node28 -->
<g id="edge28" class="edge"><title>Node27&#45;&gt;Node28</title>
<path fill="none" stroke="midnightblue" d="M264.961,-622.576C291.791,-625.19 325.678,-628.492 354.258,-631.276"/>
<polygon fill="midnightblue" stroke="midnightblue" points="264.97,-619.06 254.678,-621.574 264.291,-626.027 264.97,-619.06"/>
</g>
<!-- Node29 -->
<g id="node29" class="node"><title>Node29</title>
<g id="a_node29"><a xlink:href="_c_c_s_2_m_s_p430_x_2port_8c.html#aaec2782626451af0689abd0222b24e79" target="_top" xlink:title="vTickISREntry">
<polygon fill="white" stroke="black" points="374,-589.5 374,-608.5 454,-608.5 454,-589.5 374,-589.5"/>
<text text-anchor="middle" x="414" y="-596.5" font-family="Helvetica,sans-Serif" font-size="10.00">vTickISREntry</text>
</a>
</g>
</g>
<!-- Node27&#45;&gt;Node29 -->
<g id="edge29" class="edge"><title>Node27&#45;&gt;Node29</title>
<path fill="none" stroke="midnightblue" d="M264.641,-613.455C297.969,-610.208 342.308,-605.888 373.81,-602.819"/>
<polygon fill="midnightblue" stroke="midnightblue" points="264.291,-609.973 254.678,-614.426 264.97,-616.94 264.291,-609.973"/>
</g>
<!-- Node32 -->
<g id="node32" class="node"><title>Node32</title>
<g id="a_node32"><a xlink:href="_g_c_c_2_a_v_r32___u_c3_2port_8c.html#aeb91268bfbb6dc04ff839631ee5c72ba" target="_top" xlink:title="prvSetupTimerInterrupt">
<polygon fill="white" stroke="red" points="354.5,-532.5 354.5,-551.5 473.5,-551.5 473.5,-532.5 354.5,-532.5"/>
<text text-anchor="middle" x="414" y="-539.5" font-family="Helvetica,sans-Serif" font-size="10.00">prvSetupTimerInterrupt</text>
</a>
</g>
</g>
<!-- Node31&#45;&gt;Node32 -->
<g id="edge32" class="edge"><title>Node31&#45;&gt;Node32</title>
<path fill="none" stroke="midnightblue" d="M247.057,-542C275.26,-542 318.877,-542 354.317,-542"/>
<polygon fill="midnightblue" stroke="midnightblue" points="247.053,-538.5 237.052,-542 247.052,-545.5 247.053,-538.5"/>
</g>
<!-- Node34 -->
<g id="node34" class="node"><title>Node34</title>
<g id="a_node34"><a xlink:href="_g_c_c_2_a_r_m7___l_p_c2000_2port_8c.html#aeb91268bfbb6dc04ff839631ee5c72ba" target="_top" xlink:title="prvSetupTimerInterrupt">
<polygon fill="white" stroke="red" points="354.5,-494.5 354.5,-513.5 473.5,-513.5 473.5,-494.5 354.5,-494.5"/>
<text text-anchor="middle" x="414" y="-501.5" font-family="Helvetica,sans-Serif" font-size="10.00">prvSetupTimerInterrupt</text>
</a>
</g>
</g>
<!-- Node33&#45;&gt;Node34 -->
<g id="edge34" class="edge"><title>Node33&#45;&gt;Node34</title>
<path fill="none" stroke="midnightblue" d="M255.289,-504C283.33,-504 322.289,-504 354.469,-504"/>
<polygon fill="midnightblue" stroke="midnightblue" points="255.114,-500.5 245.114,-504 255.114,-507.5 255.114,-500.5"/>
</g>
<!-- Node38 -->
<g id="node38" class="node"><title>Node38</title>
<g id="a_node38"><a xlink:href="event__groups_8h.html#a869511456b86426f52e2eec898bff341" target="_top" xlink:title="xEventGroupSync">
<polygon fill="white" stroke="black" points="546.5,-418.5 546.5,-437.5 643.5,-437.5 643.5,-418.5 546.5,-418.5"/>
<text text-anchor="middle" x="595" y="-425.5" font-family="Helvetica,sans-Serif" font-size="10.00">xEventGroupSync</text>
</a>
</g>
</g>
<!-- Node37&#45;&gt;Node38 -->
<g id="edge38" class="edge"><title>Node37&#45;&gt;Node38</title>
<path fill="none" stroke="midnightblue" d="M226.218,-276.347C245.53,-320.781 294.679,-427.789 328,-447 407.416,-492.788 523.108,-456.382 571.455,-437.535"/>
<polygon fill="midnightblue" stroke="midnightblue" points="229.34,-274.747 222.172,-266.945 222.91,-277.514 229.34,-274.747"/>
</g>
<!-- Node39 -->
<g id="node39" class="node"><title>Node39</title>
<g id="a_node39"><a xlink:href="event__groups_8h.html#aab9d5b405bc57b7624dcabe9a9a503db" target="_top" xlink:title="xEventGroupWaitBits">
<polygon fill="white" stroke="black" points="358,-418.5 358,-437.5 470,-437.5 470,-418.5 358,-418.5"/>
<text text-anchor="middle" x="414" y="-425.5" font-family="Helvetica,sans-Serif" font-size="10.00">xEventGroupWaitBits</text>
</a>
</g>
</g>
<!-- Node37&#45;&gt;Node39 -->
<g id="edge39" class="edge"><title>Node37&#45;&gt;Node39</title>
<path fill="none" stroke="midnightblue" d="M226.191,-276.042C241.28,-308.723 276.687,-375.225 328,-409 336.841,-414.82 347.203,-418.877 357.592,-421.701"/>
<polygon fill="midnightblue" stroke="midnightblue" points="229.291,-274.402 222.011,-266.704 222.902,-277.261 229.291,-274.402"/>
</g>
<!-- Node40 -->
<g id="node40" class="node"><title>Node40</title>
<g id="a_node40"><a xlink:href="event__groups_8h.html#a02d7b3bb55f7e11d9c47116266c5fb2e" target="_top" xlink:title="xEventGroupSetBits">
<polygon fill="white" stroke="red" points="360.5,-380.5 360.5,-399.5 467.5,-399.5 467.5,-380.5 360.5,-380.5"/>
<text text-anchor="middle" x="414" y="-387.5" font-family="Helvetica,sans-Serif" font-size="10.00">xEventGroupSetBits</text>
</a>
</g>
</g>
<!-- Node37&#45;&gt;Node40 -->
<g id="edge40" class="edge"><title>Node37&#45;&gt;Node40</title>
<path fill="none" stroke="midnightblue" d="M231.142,-274.788C249.948,-298.983 286.84,-341.993 328,-366 338.729,-372.258 351.178,-376.958 363.185,-380.46"/>
<polygon fill="midnightblue" stroke="midnightblue" points="233.9,-272.633 225.058,-266.796 228.331,-276.873 233.9,-272.633"/>
</g>
<!-- Node41 -->
<g id="node41" class="node"><title>Node41</title>
<g id="a_node41"><a xlink:href="event__groups_8h.html#a50cb52d1c81b063fd8d94f5293dcfea9" target="_top" xlink:title="vEventGroupDelete">
<polygon fill="white" stroke="black" points="543,-247.5 543,-266.5 647,-266.5 647,-247.5 543,-247.5"/>
<text text-anchor="middle" x="595" y="-254.5" font-family="Helvetica,sans-Serif" font-size="10.00">vEventGroupDelete</text>
</a>
</g>
</g>
<!-- Node37&#45;&gt;Node41 -->
<g id="edge42" class="edge"><title>Node37&#45;&gt;Node41</title>
<path fill="none" stroke="midnightblue" d="M234.907,-273.695C255.088,-292.332 290.801,-321.399 328,-333 400.978,-355.759 427.93,-358.49 500,-333 537.79,-319.634 571.516,-283.907 586.206,-266.626"/>
<polygon fill="midnightblue" stroke="midnightblue" points="237.152,-271 227.488,-266.658 232.335,-276.079 237.152,-271"/>
</g>
<!-- Node42 -->
<g id="node42" class="node"><title>Node42</title>
<g id="a_node42"><a xlink:href="_g_c_c_2_a_r_m___c_m3___m_p_u_2port_8c.html#aa43b421a9eff441d0a850998551b17b4" target="_top" xlink:title="MPU_xTaskResumeAll">
<polygon fill="white" stroke="black" points="354.5,-304.5 354.5,-323.5 473.5,-323.5 473.5,-304.5 354.5,-304.5"/>
<text text-anchor="middle" x="414" y="-311.5" font-family="Helvetica,sans-Serif" font-size="10.00">MPU_xTaskResumeAll</text>
</a>
</g>
</g>
<!-- Node37&#45;&gt;Node42 -->
<g id="edge43" class="edge"><title>Node37&#45;&gt;Node42</title>
<path fill="none" stroke="midnightblue" d="M252.746,-270.129C274.234,-277.966 302.493,-287.768 328,-295 340.22,-298.465 353.572,-301.701 365.998,-304.486"/>
<polygon fill="midnightblue" stroke="midnightblue" points="253.677,-266.742 243.084,-266.571 251.258,-273.311 253.677,-266.742"/>
</g>
<!-- Node43 -->
<g id="node43" class="node"><title>Node43</title>
<g id="a_node43"><a xlink:href="_g_c_c_2_a_v_r32___u_c3_2port_8c.html#adb1054baf76a9dc8c93df1a78dbe7058" target="_top" xlink:title="__malloc_unlock">
<polygon fill="white" stroke="black" points="368.5,-266.5 368.5,-285.5 459.5,-285.5 459.5,-266.5 368.5,-266.5"/>
<text text-anchor="middle" x="414" y="-273.5" font-family="Helvetica,sans-Serif" font-size="10.00">__malloc_unlock</text>
</a>
</g>
</g>
<!-- Node37&#45;&gt;Node43 -->
<g id="edge44" class="edge"><title>Node37&#45;&gt;Node43</title>
<path fill="none" stroke="midnightblue" d="M273.553,-262.413C303.59,-265.34 340.189,-268.906 368.355,-271.65"/>
<polygon fill="midnightblue" stroke="midnightblue" points="273.519,-258.893 263.227,-261.407 272.84,-265.86 273.519,-258.893"/>
</g>
<!-- Node44 -->
<g id="node44" class="node"><title>Node44</title>
<g id="a_node44"><a xlink:href="_i_a_r_2_a_v_r32___u_c3_2portmacro_8h.html#a0e22115d0fea39851af4e93fcaf6b41c" target="_top" xlink:title="pvPortRealloc">
<polygon fill="white" stroke="black" points="374.5,-228.5 374.5,-247.5 453.5,-247.5 453.5,-228.5 374.5,-228.5"/>
<text text-anchor="middle" x="414" y="-235.5" font-family="Helvetica,sans-Serif" font-size="10.00">pvPortRealloc</text>
</a>
</g>
</g>
<!-- Node37&#45;&gt;Node44 -->
<g id="edge45" class="edge"><title>Node37&#45;&gt;Node44</title>
<path fill="none" stroke="midnightblue" d="M273.396,-251.602C305.612,-248.463 345.418,-244.585 374.27,-241.774"/>
<polygon fill="midnightblue" stroke="midnightblue" points="272.84,-248.14 263.227,-252.593 273.519,-255.107 272.84,-248.14"/>
</g>
<!-- Node45 -->
<g id="node45" class="node"><title>Node45</title>
<g id="a_node45"><a xlink:href="_wiz_c_2_p_i_c18_2port_8c.html#a0dc0ff621115a685d59ea38b526ebe89" target="_top" xlink:title="pvPortMalloc">
<polygon fill="white" stroke="red" points="377,-190.5 377,-209.5 451,-209.5 451,-190.5 377,-190.5"/>
<text text-anchor="middle" x="414" y="-197.5" font-family="Helvetica,sans-Serif" font-size="10.00">pvPortMalloc</text>
</a>
</g>
</g>
<!-- Node37&#45;&gt;Node45 -->
<g id="edge46" class="edge"><title>Node37&#45;&gt;Node45</title>
<path fill="none" stroke="midnightblue" d="M252.746,-243.871C274.234,-236.034 302.493,-226.232 328,-219 343.857,-214.504 361.62,-210.392 376.792,-207.153"/>
<polygon fill="midnightblue" stroke="midnightblue" points="251.258,-240.689 243.084,-247.429 253.677,-247.258 251.258,-240.689"/>
</g>
<!-- Node46 -->
<g id="node46" class="node"><title>Node46</title>
<g id="a_node46"><a xlink:href="_wiz_c_2_p_i_c18_2port_8c.html#a1e7cea2fd1bc894ea3b5f5e8179d259b" target="_top" xlink:title="vPortFree">
<polygon fill="white" stroke="red" points="384,-152.5 384,-171.5 444,-171.5 444,-152.5 384,-152.5"/>
<text text-anchor="middle" x="414" y="-159.5" font-family="Helvetica,sans-Serif" font-size="10.00">vPortFree</text>
</a>
</g>
</g>
<!-- Node37&#45;&gt;Node46 -->
<g id="edge47" class="edge"><title>Node37&#45;&gt;Node46</title>
<path fill="none" stroke="midnightblue" d="M236.426,-240.909C257.255,-223.559 292.859,-196.368 328,-181 345.733,-173.245 366.983,-168.495 383.8,-165.684"/>
<polygon fill="midnightblue" stroke="midnightblue" points="234.06,-238.326 228.697,-247.463 238.588,-243.664 234.06,-238.326"/>
</g>
<!-- Node47 -->
<g id="node47" class="node"><title>Node47</title>
<g id="a_node47"><a xlink:href="queue_8c.html#acb67c81366c00896b21cd826e07d885d" target="_top" xlink:title="xQueueGenericSend">
<polygon fill="white" stroke="red" points="359,-114.5 359,-133.5 469,-133.5 469,-114.5 359,-114.5"/>
<text text-anchor="middle" x="414" y="-121.5" font-family="Helvetica,sans-Serif" font-size="10.00">xQueueGenericSend</text>
</a>
</g>
</g>
<!-- Node37&#45;&gt;Node47 -->
<g id="edge49" class="edge"><title>Node37&#45;&gt;Node47</title>
<path fill="none" stroke="midnightblue" d="M230.213,-238.812C248.39,-213.242 285.069,-167.103 328,-143 337.361,-137.744 348.068,-133.942 358.654,-131.192"/>
<polygon fill="midnightblue" stroke="midnightblue" points="227.202,-237.012 224.376,-247.223 232.952,-241.003 227.202,-237.012"/>
</g>
<!-- Node48 -->
<g id="node48" class="node"><title>Node48</title>
<g id="a_node48"><a xlink:href="queue_8c.html#ace632b55c3955bacae20978e261129a6" target="_top" xlink:title="xQueueGenericReceive">
<polygon fill="white" stroke="red" points="352.5,-76.5 352.5,-95.5 475.5,-95.5 475.5,-76.5 352.5,-76.5"/>
<text text-anchor="middle" x="414" y="-83.5" font-family="Helvetica,sans-Serif" font-size="10.00">xQueueGenericReceive</text>
</a>
</g>
</g>
<!-- Node37&#45;&gt;Node48 -->
<g id="edge50" class="edge"><title>Node37&#45;&gt;Node48</title>
<path fill="none" stroke="midnightblue" d="M226.191,-237.958C241.28,-205.277 276.687,-138.775 328,-105 335.326,-100.178 343.695,-96.5658 352.259,-93.8625"/>
<polygon fill="midnightblue" stroke="midnightblue" points="222.902,-236.739 222.011,-247.296 229.291,-239.598 222.902,-236.739"/>
</g>
<!-- Node49 -->
<g id="node49" class="node"><title>Node49</title>
<g id="a_node49"><a xlink:href="tasks_8c.html#a36c7cc58985d41c2cb1b263563dbbaa1" target="_top" xlink:title="portTASK_FUNCTION">
<polygon fill="white" stroke="black" points="536.5,-19.5 536.5,-38.5 653.5,-38.5 653.5,-19.5 536.5,-19.5"/>
<text text-anchor="middle" x="595" y="-26.5" font-family="Helvetica,sans-Serif" font-size="10.00">portTASK_FUNCTION</text>
</a>
</g>
</g>
<!-- Node37&#45;&gt;Node49 -->
<g id="edge51" class="edge"><title>Node37&#45;&gt;Node49</title>
<path fill="none" stroke="midnightblue" d="M223.001,-237.787C234.33,-198.449 265.923,-108.92 328,-67 361.054,-44.6787 468.635,-35.2223 536.431,-31.4035"/>
<polygon fill="midnightblue" stroke="midnightblue" points="219.615,-236.899 220.335,-247.47 226.364,-238.758 219.615,-236.899"/>
</g>
<!-- Node50 -->
<g id="node50" class="node"><title>Node50</title>
<g id="a_node50"><a xlink:href="tasks_8c.html#a903096c962a2bc907f4b902a7d42302a" target="_top" xlink:title="prvCheckTasksWaitingTermination">
<polygon fill="white" stroke="black" points="328,-0.5 328,-19.5 500,-19.5 500,-0.5 328,-0.5"/>
<text text-anchor="middle" x="414" y="-7.5" font-family="Helvetica,sans-Serif" font-size="10.00">prvCheckTasksWaitingTermination</text>
</a>
</g>
</g>
<!-- Node37&#45;&gt;Node50 -->
<g id="edge52" class="edge"><title>Node37&#45;&gt;Node50</title>
<path fill="none" stroke="midnightblue" d="M222.016,-237.337C231.935,-193.869 261.75,-89.1106 328,-34 335.545,-27.724 344.629,-23.086 354.013,-19.6592"/>
<polygon fill="midnightblue" stroke="midnightblue" points="218.571,-236.706 219.867,-247.221 225.411,-238.193 218.571,-236.706"/>
</g>
<!-- Node40&#45;&gt;Node38 -->
<g id="edge41" class="edge"><title>Node40&#45;&gt;Node38</title>
<path fill="none" stroke="midnightblue" d="M470.024,-401.681C495.408,-407.07 525.161,-413.386 549.156,-418.48"/>
<polygon fill="midnightblue" stroke="midnightblue" points="470.678,-398.242 460.169,-399.589 469.224,-405.089 470.678,-398.242"/>
</g>
<!-- Node46&#45;&gt;Node41 -->
<g id="edge48" class="edge"><title>Node46&#45;&gt;Node41</title>
<path fill="none" stroke="midnightblue" d="M453.989,-166.841C468.895,-169.674 485.728,-174.108 500,-181 535.528,-198.158 569.569,-231.102 585.147,-247.394"/>
<polygon fill="midnightblue" stroke="midnightblue" points="454.482,-163.375 444.033,-165.125 453.293,-170.273 454.482,-163.375"/>
</g>
<!-- Node50&#45;&gt;Node49 -->
<g id="edge53" class="edge"><title>Node50&#45;&gt;Node49</title>
<path fill="none" stroke="midnightblue" d="M510.114,-20.0959C519.021,-21.0414 527.854,-21.979 536.258,-22.871"/>
<polygon fill="midnightblue" stroke="midnightblue" points="510.358,-16.6022 500.044,-19.027 509.619,-23.5631 510.358,-16.6022"/>
</g>
</g>
</svg>
