<?xml version="1.0" encoding="UTF-8" standalone="no"?>
<!DOCTYPE svg PUBLIC "-//W3C//DTD SVG 1.1//EN"
 "http://www.w3.org/Graphics/SVG/1.1/DTD/svg11.dtd">
<!-- Generated by graphviz version 2.30.1 (20130221.2233)
 -->
<!-- Title: source/tasks.c Pages: 1 -->
<svg width="542pt" height="196pt"
 viewBox="0.00 0.00 542.00 196.00" xmlns="http://www.w3.org/2000/svg" xmlns:xlink="http://www.w3.org/1999/xlink">
<g id="graph0" class="graph" transform="scale(1 1) rotate(0) translate(4 192)">
<title>source/tasks.c</title>
<polygon fill="white" stroke="white" points="-4,5 -4,-192 539,-192 539,5 -4,5"/>
<!-- Node1 -->
<g id="node1" class="node"><title>Node1</title>
<polygon fill="#bfbfbf" stroke="black" points="280,-168.5 280,-187.5 360,-187.5 360,-168.5 280,-168.5"/>
<text text-anchor="middle" x="320" y="-175.5" font-family="Helvetica,sans-Serif" font-size="10.00">source/tasks.c</text>
</g>
<!-- Node2 -->
<g id="node2" class="node"><title>Node2</title>
<polygon fill="white" stroke="#bfbfbf" points="118,-112.5 118,-131.5 166,-131.5 166,-112.5 118,-112.5"/>
<text text-anchor="middle" x="142" y="-119.5" font-family="Helvetica,sans-Serif" font-size="10.00">stdlib.h</text>
</g>
<!-- Node1&#45;&gt;Node2 -->
<g id="edge1" class="edge"><title>Node1&#45;&gt;Node2</title>
<path fill="none" stroke="midnightblue" d="M291.795,-168.444C260.346,-158.903 209.497,-143.477 175.907,-133.286"/>
<polygon fill="midnightblue" stroke="midnightblue" points="176.662,-129.858 166.077,-130.304 174.63,-136.557 176.662,-129.858"/>
</g>
<!-- Node3 -->
<g id="node3" class="node"><title>Node3</title>
<polygon fill="white" stroke="#bfbfbf" points="184.5,-112.5 184.5,-131.5 233.5,-131.5 233.5,-112.5 184.5,-112.5"/>
<text text-anchor="middle" x="209" y="-119.5" font-family="Helvetica,sans-Serif" font-size="10.00">string.h</text>
</g>
<!-- Node1&#45;&gt;Node3 -->
<g id="edge2" class="edge"><title>Node1&#45;&gt;Node3</title>
<path fill="none" stroke="midnightblue" d="M302.166,-168.324C284.284,-159.625 256.525,-146.12 235.954,-136.113"/>
<polygon fill="midnightblue" stroke="midnightblue" points="237.313,-132.882 226.79,-131.655 234.251,-139.177 237.313,-132.882"/>
</g>
<!-- Node4 -->
<g id="node4" class="node"><title>Node4</title>
<g id="a_node4"><a xlink:href="_free_r_t_o_s_8h.html" target="_top" xlink:title="FreeRTOS.h">
<polygon fill="white" stroke="black" points="251.5,-112.5 251.5,-131.5 324.5,-131.5 324.5,-112.5 251.5,-112.5"/>
<text text-anchor="middle" x="288" y="-119.5" font-family="Helvetica,sans-Serif" font-size="10.00">FreeRTOS.h</text>
</a>
</g>
</g>
<!-- Node1&#45;&gt;Node4 -->
<g id="edge3" class="edge"><title>Node1&#45;&gt;Node4</title>
<path fill="none" stroke="midnightblue" d="M314.716,-168.083C310.289,-160.613 303.837,-149.724 298.382,-140.52"/>
<polygon fill="midnightblue" stroke="midnightblue" points="301.295,-138.57 293.186,-131.751 295.273,-142.138 301.295,-138.57"/>
</g>
<!-- Node13 -->
<g id="node13" class="node"><title>Node13</title>
<g id="a_node13"><a xlink:href="task_8h.html" target="_top" xlink:title="task.h">
<polygon fill="white" stroke="black" points="415.5,-56.5 415.5,-75.5 458.5,-75.5 458.5,-56.5 415.5,-56.5"/>
<text text-anchor="middle" x="437" y="-63.5" font-family="Helvetica,sans-Serif" font-size="10.00">task.h</text>
</a>
</g>
</g>
<!-- Node1&#45;&gt;Node13 -->
<g id="edge12" class="edge"><title>Node1&#45;&gt;Node13</title>
<path fill="none" stroke="midnightblue" d="M325.702,-168.344C334.6,-155.227 352.77,-129.944 372,-112 384.597,-100.246 400.469,-89.1988 413.376,-80.9918"/>
<polygon fill="midnightblue" stroke="midnightblue" points="415.503,-83.7908 422.16,-75.5483 411.816,-77.8407 415.503,-83.7908"/>
</g>
<!-- Node15 -->
<g id="node15" class="node"><title>Node15</title>
<g id="a_node15"><a xlink:href="timers_8h.html" target="_top" xlink:title="timers.h">
<polygon fill="white" stroke="black" points="381,-112.5 381,-131.5 433,-131.5 433,-112.5 381,-112.5"/>
<text text-anchor="middle" x="407" y="-119.5" font-family="Helvetica,sans-Serif" font-size="10.00">timers.h</text>
</a>
</g>
</g>
<!-- Node1&#45;&gt;Node15 -->
<g id="edge14" class="edge"><title>Node1&#45;&gt;Node15</title>
<path fill="none" stroke="midnightblue" d="M333.978,-168.324C347.55,-159.9 368.38,-146.971 384.325,-137.074"/>
<polygon fill="midnightblue" stroke="midnightblue" points="386.406,-139.902 393.057,-131.655 382.714,-133.954 386.406,-139.902"/>
</g>
<!-- Node16 -->
<g id="node16" class="node"><title>Node16</title>
<g id="a_node16"><a xlink:href="_stack_macros_8h.html" target="_top" xlink:title="StackMacros.h">
<polygon fill="white" stroke="black" points="451.5,-112.5 451.5,-131.5 534.5,-131.5 534.5,-112.5 451.5,-112.5"/>
<text text-anchor="middle" x="493" y="-119.5" font-family="Helvetica,sans-Serif" font-size="10.00">StackMacros.h</text>
</a>
</g>
</g>
<!-- Node1&#45;&gt;Node16 -->
<g id="edge16" class="edge"><title>Node1&#45;&gt;Node16</title>
<path fill="none" stroke="midnightblue" d="M347.412,-168.444C376.769,-159.28 423.519,-144.688 456.096,-134.519"/>
<polygon fill="midnightblue" stroke="midnightblue" points="457.213,-137.837 465.716,-131.516 455.127,-131.155 457.213,-137.837"/>
</g>
<!-- Node5 -->
<g id="node5" class="node"><title>Node5</title>
<polygon fill="white" stroke="#bfbfbf" points="0,-56.5 0,-75.5 52,-75.5 52,-56.5 0,-56.5"/>
<text text-anchor="middle" x="26" y="-63.5" font-family="Helvetica,sans-Serif" font-size="10.00">stddef.h</text>
</g>
<!-- Node4&#45;&gt;Node5 -->
<g id="edge4" class="edge"><title>Node4&#45;&gt;Node5</title>
<path fill="none" stroke="midnightblue" d="M251.394,-113.799C196.818,-103.056 97.4307,-83.4631 62.5567,-76.1527"/>
<polygon fill="midnightblue" stroke="midnightblue" points="62.849,-72.635 52.3349,-73.9402 61.3681,-79.4766 62.849,-72.635"/>
</g>
<!-- Node6 -->
<g id="node6" class="node"><title>Node6</title>
<polygon fill="white" stroke="#bfbfbf" points="70.5,-56.5 70.5,-75.5 119.5,-75.5 119.5,-56.5 70.5,-56.5"/>
<text text-anchor="middle" x="95" y="-63.5" font-family="Helvetica,sans-Serif" font-size="10.00">stdint.h</text>
</g>
<!-- Node4&#45;&gt;Node6 -->
<g id="edge5" class="edge"><title>Node4&#45;&gt;Node6</title>
<path fill="none" stroke="midnightblue" d="M257.419,-112.444C222.539,-102.685 165.652,-86.768 129.295,-76.5956"/>
<polygon fill="midnightblue" stroke="midnightblue" points="130.194,-73.2126 119.62,-73.8886 128.308,-79.9537 130.194,-73.2126"/>
</g>
<!-- Node7 -->
<g id="node7" class="node"><title>Node7</title>
<polygon fill="white" stroke="#bfbfbf" points="138,-56.5 138,-75.5 240,-75.5 240,-56.5 138,-56.5"/>
<text text-anchor="middle" x="189" y="-63.5" font-family="Helvetica,sans-Serif" font-size="10.00">FreeRTOSConfig.h</text>
</g>
<!-- Node4&#45;&gt;Node7 -->
<g id="edge6" class="edge"><title>Node4&#45;&gt;Node7</title>
<path fill="none" stroke="midnightblue" d="M272.094,-112.324C256.362,-103.743 232.058,-90.486 213.791,-80.5224"/>
<polygon fill="midnightblue" stroke="midnightblue" points="215.322,-77.3704 204.867,-75.6545 211.97,-83.5157 215.322,-77.3704"/>
</g>
<!-- Node8 -->
<g id="node8" class="node"><title>Node8</title>
<g id="a_node8"><a xlink:href="projdefs_8h.html" target="_top" xlink:title="projdefs.h">
<polygon fill="white" stroke="black" points="258,-56.5 258,-75.5 318,-75.5 318,-56.5 258,-56.5"/>
<text text-anchor="middle" x="288" y="-63.5" font-family="Helvetica,sans-Serif" font-size="10.00">projdefs.h</text>
</a>
</g>
</g>
<!-- Node4&#45;&gt;Node8 -->
<g id="edge7" class="edge"><title>Node4&#45;&gt;Node8</title>
<path fill="none" stroke="midnightblue" d="M288,-112.083C288,-105.006 288,-94.8611 288,-85.9865"/>
<polygon fill="midnightblue" stroke="midnightblue" points="291.5,-85.751 288,-75.7511 284.5,-85.7511 291.5,-85.751"/>
</g>
<!-- Node9 -->
<g id="node9" class="node"><title>Node9</title>
<g id="a_node9"><a xlink:href="portable_8h.html" target="_top" xlink:title="portable.h">
<polygon fill="white" stroke="black" points="336.5,-56.5 336.5,-75.5 397.5,-75.5 397.5,-56.5 336.5,-56.5"/>
<text text-anchor="middle" x="367" y="-63.5" font-family="Helvetica,sans-Serif" font-size="10.00">portable.h</text>
</a>
</g>
</g>
<!-- Node4&#45;&gt;Node9 -->
<g id="edge8" class="edge"><title>Node4&#45;&gt;Node9</title>
<path fill="none" stroke="midnightblue" d="M300.693,-112.324C312.901,-103.979 331.578,-91.2122 346.003,-81.3524"/>
<polygon fill="midnightblue" stroke="midnightblue" points="348.058,-84.1871 354.339,-75.6545 344.108,-78.4082 348.058,-84.1871"/>
</g>
<!-- Node10 -->
<g id="node10" class="node"><title>Node10</title>
<g id="a_node10"><a xlink:href="deprecated__definitions_8h.html" target="_top" xlink:title="deprecated_definitions.h">
<polygon fill="white" stroke="black" points="138.5,-0.5 138.5,-19.5 263.5,-19.5 263.5,-0.5 138.5,-0.5"/>
<text text-anchor="middle" x="201" y="-7.5" font-family="Helvetica,sans-Serif" font-size="10.00">deprecated_definitions.h</text>
</a>
</g>
</g>
<!-- Node9&#45;&gt;Node10 -->
<g id="edge9" class="edge"><title>Node9&#45;&gt;Node10</title>
<path fill="none" stroke="midnightblue" d="M340.697,-56.4435C312.649,-47.3196 268.056,-32.8133 236.816,-22.6509"/>
<polygon fill="midnightblue" stroke="midnightblue" points="237.772,-19.2816 227.18,-19.5164 235.607,-25.9383 237.772,-19.2816"/>
</g>
<!-- Node11 -->
<g id="node11" class="node"><title>Node11</title>
<polygon fill="white" stroke="#bfbfbf" points="282,-0.5 282,-19.5 352,-19.5 352,-0.5 282,-0.5"/>
<text text-anchor="middle" x="317" y="-7.5" font-family="Helvetica,sans-Serif" font-size="10.00">portmacro.h</text>
</g>
<!-- Node9&#45;&gt;Node11 -->
<g id="edge10" class="edge"><title>Node9&#45;&gt;Node11</title>
<path fill="none" stroke="midnightblue" d="M358.744,-56.083C351.535,-48.2982 340.89,-36.8015 332.154,-27.3665"/>
<polygon fill="midnightblue" stroke="midnightblue" points="334.465,-24.7108 325.103,-19.7511 329.329,-29.4666 334.465,-24.7108"/>
</g>
<!-- Node12 -->
<g id="node12" class="node"><title>Node12</title>
<g id="a_node12"><a xlink:href="mpu__wrappers_8h.html" target="_top" xlink:title="mpu_wrappers.h">
<polygon fill="white" stroke="black" points="370.5,-0.5 370.5,-19.5 461.5,-19.5 461.5,-0.5 370.5,-0.5"/>
<text text-anchor="middle" x="416" y="-7.5" font-family="Helvetica,sans-Serif" font-size="10.00">mpu_wrappers.h</text>
</a>
</g>
</g>
<!-- Node9&#45;&gt;Node12 -->
<g id="edge11" class="edge"><title>Node9&#45;&gt;Node12</title>
<path fill="none" stroke="midnightblue" d="M375.091,-56.083C382.155,-48.2982 392.588,-36.8015 401.149,-27.3665"/>
<polygon fill="midnightblue" stroke="midnightblue" points="403.931,-29.5087 408.059,-19.7511 398.747,-24.8047 403.931,-29.5087"/>
</g>
<!-- Node14 -->
<g id="node14" class="node"><title>Node14</title>
<g id="a_node14"><a xlink:href="list_8h.html" target="_top" xlink:title="list.h">
<polygon fill="white" stroke="black" points="479.5,-0.5 479.5,-19.5 516.5,-19.5 516.5,-0.5 479.5,-0.5"/>
<text text-anchor="middle" x="498" y="-7.5" font-family="Helvetica,sans-Serif" font-size="10.00">list.h</text>
</a>
</g>
</g>
<!-- Node13&#45;&gt;Node14 -->
<g id="edge13" class="edge"><title>Node13&#45;&gt;Node14</title>
<path fill="none" stroke="midnightblue" d="M446.801,-56.324C455.818,-48.3414 469.406,-36.3128 480.318,-26.6529"/>
<polygon fill="midnightblue" stroke="midnightblue" points="482.853,-29.083 488.021,-19.8339 478.213,-23.8416 482.853,-29.083"/>
</g>
<!-- Node15&#45;&gt;Node13 -->
<g id="edge15" class="edge"><title>Node15&#45;&gt;Node13</title>
<path fill="none" stroke="midnightblue" d="M411.954,-112.083C416.104,-104.613 422.153,-93.7244 427.267,-84.5199"/>
<polygon fill="midnightblue" stroke="midnightblue" points="430.341,-86.1924 432.138,-75.7511 424.222,-82.7929 430.341,-86.1924"/>
</g>
</g>
</svg>
