<?xml version="1.0" encoding="UTF-8" standalone="no"?>
<!DOCTYPE svg PUBLIC "-//W3C//DTD SVG 1.1//EN"
 "http://www.w3.org/Graphics/SVG/1.1/DTD/svg11.dtd">
<!-- Generated by graphviz version 2.30.1 (20130221.2233)
 -->
<!-- Title: xTaskPriorityDisinherit Pages: 1 -->
<svg width="638pt" height="66pt"
 viewBox="0.00 0.00 638.00 66.00" xmlns="http://www.w3.org/2000/svg" xmlns:xlink="http://www.w3.org/1999/xlink">
<g id="graph0" class="graph" transform="scale(1 1) rotate(0) translate(4 62)">
<title>xTaskPriorityDisinherit</title>
<polygon fill="white" stroke="white" points="-4,5 -4,-62 635,-62 635,5 -4,5"/>
<!-- Node1 -->
<g id="node1" class="node"><title>Node1</title>
<polygon fill="#bfbfbf" stroke="black" points="0,-19.5 0,-38.5 116,-38.5 116,-19.5 0,-19.5"/>
<text text-anchor="middle" x="58" y="-26.5" font-family="Helvetica,sans-Serif" font-size="10.00">xTaskPriorityDisinherit</text>
</g>
<!-- Node2 -->
<g id="node2" class="node"><title>Node2</title>
<g id="a_node2"><a xlink:href="queue_8c.html#a77098159b7735e0c27e27aa7072376c6" target="_top" xlink:title="prvCopyDataToQueue">
<polygon fill="white" stroke="black" points="152.5,-19.5 152.5,-38.5 269.5,-38.5 269.5,-19.5 152.5,-19.5"/>
<text text-anchor="middle" x="211" y="-26.5" font-family="Helvetica,sans-Serif" font-size="10.00">prvCopyDataToQueue</text>
</a>
</g>
</g>
<!-- Node1&#45;&gt;Node2 -->
<g id="edge1" class="edge"><title>Node1&#45;&gt;Node2</title>
<path fill="none" stroke="midnightblue" d="M126.218,-29C134.931,-29 143.792,-29 152.331,-29"/>
<polygon fill="midnightblue" stroke="midnightblue" points="126.087,-25.5001 116.087,-29 126.087,-32.5001 126.087,-25.5001"/>
</g>
<!-- Node3 -->
<g id="node3" class="node"><title>Node3</title>
<g id="a_node3"><a xlink:href="queue_8c.html#acb67c81366c00896b21cd826e07d885d" target="_top" xlink:title="xQueueGenericSend">
<polygon fill="white" stroke="black" points="326,-38.5 326,-57.5 436,-57.5 436,-38.5 326,-38.5"/>
<text text-anchor="middle" x="381" y="-45.5" font-family="Helvetica,sans-Serif" font-size="10.00">xQueueGenericSend</text>
</a>
</g>
</g>
<!-- Node2&#45;&gt;Node3 -->
<g id="edge2" class="edge"><title>Node2&#45;&gt;Node3</title>
<path fill="none" stroke="midnightblue" d="M280.179,-36.7107C295.348,-38.4263 311.233,-40.2227 325.754,-41.8651"/>
<polygon fill="midnightblue" stroke="midnightblue" points="280.146,-33.1848 269.816,-35.5387 279.359,-40.1404 280.146,-33.1848"/>
</g>
<!-- Node5 -->
<g id="node5" class="node"><title>Node5</title>
<g id="a_node5"><a xlink:href="queue_8c.html#a0fb58b25eb396a5cf8e1688b7e1a56cb" target="_top" xlink:title="xQueueGenericSendFromISR">
<polygon fill="white" stroke="black" points="306,-0.5 306,-19.5 456,-19.5 456,-0.5 306,-0.5"/>
<text text-anchor="middle" x="381" y="-7.5" font-family="Helvetica,sans-Serif" font-size="10.00">xQueueGenericSendFromISR</text>
</a>
</g>
</g>
<!-- Node2&#45;&gt;Node5 -->
<g id="edge4" class="edge"><title>Node2&#45;&gt;Node5</title>
<path fill="none" stroke="midnightblue" d="M280.018,-21.3075C288.494,-20.3489 297.195,-19.3649 305.759,-18.3963"/>
<polygon fill="midnightblue" stroke="midnightblue" points="279.359,-17.8596 269.816,-22.4613 280.146,-24.8152 279.359,-17.8596"/>
</g>
<!-- Node4 -->
<g id="node4" class="node"><title>Node4</title>
<g id="a_node4"><a xlink:href="_g_c_c_2_a_r_m___c_m3___m_p_u_2port_8c.html#afec3801d053a850488cda14b0cad95fd" target="_top" xlink:title="MPU_xQueueGenericSend">
<polygon fill="white" stroke="black" points="492,-38.5 492,-57.5 630,-57.5 630,-38.5 492,-38.5"/>
<text text-anchor="middle" x="561" y="-45.5" font-family="Helvetica,sans-Serif" font-size="10.00">MPU_xQueueGenericSend</text>
</a>
</g>
</g>
<!-- Node3&#45;&gt;Node4 -->
<g id="edge3" class="edge"><title>Node3&#45;&gt;Node4</title>
<path fill="none" stroke="midnightblue" d="M446.408,-48C461.16,-48 476.891,-48 491.797,-48"/>
<polygon fill="midnightblue" stroke="midnightblue" points="446.373,-44.5001 436.373,-48 446.373,-51.5001 446.373,-44.5001"/>
</g>
</g>
</svg>
