<?xml version="1.0" encoding="UTF-8" standalone="no"?>
<!DOCTYPE svg PUBLIC "-//W3C//DTD SVG 1.1//EN"
 "http://www.w3.org/Graphics/SVG/1.1/DTD/svg11.dtd">
<!-- Generated by graphviz version 2.30.1 (20130221.2233)
 -->
<!-- Title: vTaskEndScheduler Pages: 1 -->
<svg width="398pt" height="66pt"
 viewBox="0.00 0.00 398.00 66.00" xmlns="http://www.w3.org/2000/svg" xmlns:xlink="http://www.w3.org/1999/xlink">
<g id="graph0" class="graph" transform="scale(1 1) rotate(0) translate(4 62)">
<title>vTaskEndScheduler</title>
<polygon fill="white" stroke="white" points="-4,5 -4,-62 395,-62 395,5 -4,5"/>
<!-- Node1 -->
<g id="node1" class="node"><title>Node1</title>
<polygon fill="#bfbfbf" stroke="black" points="0,-19.5 0,-38.5 106,-38.5 106,-19.5 0,-19.5"/>
<text text-anchor="middle" x="53" y="-26.5" font-family="Helvetica,sans-Serif" font-size="10.00">vTaskEndScheduler</text>
</g>
<!-- Node2 -->
<g id="node2" class="node"><title>Node2</title>
<g id="a_node2"><a xlink:href="portable_8h.html#aa356b7baaa9089490321aa919542dd6c" target="_top" xlink:title="vPortEndScheduler">
<polygon fill="white" stroke="black" points="142.5,-19.5 142.5,-38.5 245.5,-38.5 245.5,-19.5 142.5,-19.5"/>
<text text-anchor="middle" x="194" y="-26.5" font-family="Helvetica,sans-Serif" font-size="10.00">vPortEndScheduler</text>
</a>
</g>
</g>
<!-- Node1&#45;&gt;Node2 -->
<g id="edge1" class="edge"><title>Node1&#45;&gt;Node2</title>
<path fill="none" stroke="midnightblue" d="M106.154,-29C114.681,-29 123.58,-29 132.291,-29"/>
<polygon fill="midnightblue" stroke="midnightblue" points="132.399,-32.5001 142.398,-29 132.398,-25.5001 132.399,-32.5001"/>
</g>
<!-- Node3 -->
<g id="node3" class="node"><title>Node3</title>
<g id="a_node3"><a xlink:href="_paradigm_2_tern___e_e_2small_2portmacro_8h.html#a14d32f8130d3c0b212cfc751730b5b49" target="_top" xlink:title="void">
<polygon fill="white" stroke="black" points="318.5,-38.5 318.5,-57.5 353.5,-57.5 353.5,-38.5 318.5,-38.5"/>
<text text-anchor="middle" x="336" y="-45.5" font-family="Helvetica,sans-Serif" font-size="10.00">void</text>
</a>
</g>
</g>
<!-- Node2&#45;&gt;Node3 -->
<g id="edge2" class="edge"><title>Node2&#45;&gt;Node3</title>
<path fill="none" stroke="midnightblue" d="M245.543,-35.8594C266.688,-38.7291 290.406,-41.9479 308.104,-44.3498"/>
<polygon fill="midnightblue" stroke="midnightblue" points="307.889,-47.8527 318.269,-45.7294 308.831,-40.9163 307.889,-47.8527"/>
</g>
<!-- Node4 -->
<g id="node4" class="node"><title>Node4</title>
<g id="a_node4"><a xlink:href="_renesas_2_r_x100_2port_8c.html#a9c86137bc3c1cbffc39fff22627cb885" target="_top" xlink:title="vTaskSwitchContext">
<polygon fill="white" stroke="black" points="282.5,-0.5 282.5,-19.5 389.5,-19.5 389.5,-0.5 282.5,-0.5"/>
<text text-anchor="middle" x="336" y="-7.5" font-family="Helvetica,sans-Serif" font-size="10.00">vTaskSwitchContext</text>
</a>
</g>
</g>
<!-- Node2&#45;&gt;Node4 -->
<g id="edge3" class="edge"><title>Node2&#45;&gt;Node4</title>
<path fill="none" stroke="midnightblue" d="M245.543,-22.1406C254.193,-20.9667 263.273,-19.7343 272.196,-18.5234"/>
<polygon fill="midnightblue" stroke="midnightblue" points="272.733,-21.9827 282.172,-17.1695 271.792,-15.0462 272.733,-21.9827"/>
</g>
</g>
</svg>
