<?xml version="1.0" encoding="UTF-8" standalone="no"?>
<!DOCTYPE svg PUBLIC "-//W3C//DTD SVG 1.1//EN"
 "http://www.w3.org/Graphics/SVG/1.1/DTD/svg11.dtd">
<!-- Generated by graphviz version 2.30.1 (20130221.2233)
 -->
<!-- Title: vTaskPriorityInherit Pages: 1 -->
<svg width="456pt" height="28pt"
 viewBox="0.00 0.00 456.00 28.00" xmlns="http://www.w3.org/2000/svg" xmlns:xlink="http://www.w3.org/1999/xlink">
<g id="graph0" class="graph" transform="scale(1 1) rotate(0) translate(4 24)">
<title>vTaskPriorityInherit</title>
<polygon fill="white" stroke="white" points="-4,5 -4,-24 453,-24 453,5 -4,5"/>
<!-- Node1 -->
<g id="node1" class="node"><title>Node1</title>
<polygon fill="#bfbfbf" stroke="black" points="0,-0.5 0,-19.5 102,-19.5 102,-0.5 0,-0.5"/>
<text text-anchor="middle" x="51" y="-7.5" font-family="Helvetica,sans-Serif" font-size="10.00">vTaskPriorityInherit</text>
</g>
<!-- Node2 -->
<g id="node2" class="node"><title>Node2</title>
<g id="a_node2"><a xlink:href="queue_8c.html#ace632b55c3955bacae20978e261129a6" target="_top" xlink:title="xQueueGenericReceive">
<polygon fill="white" stroke="black" points="138.5,-0.5 138.5,-19.5 261.5,-19.5 261.5,-0.5 138.5,-0.5"/>
<text text-anchor="middle" x="200" y="-7.5" font-family="Helvetica,sans-Serif" font-size="10.00">xQueueGenericReceive</text>
</a>
</g>
</g>
<!-- Node1&#45;&gt;Node2 -->
<g id="edge1" class="edge"><title>Node1&#45;&gt;Node2</title>
<path fill="none" stroke="midnightblue" d="M112.18,-10C120.825,-10 129.724,-10 138.377,-10"/>
<polygon fill="midnightblue" stroke="midnightblue" points="112.178,-6.5001 102.178,-10 112.178,-13.5001 112.178,-6.5001"/>
</g>
<!-- Node3 -->
<g id="node3" class="node"><title>Node3</title>
<g id="a_node3"><a xlink:href="_g_c_c_2_a_r_m___c_m3___m_p_u_2port_8c.html#a11f6f4ba0b7f2612c09d7494aa695297" target="_top" xlink:title="MPU_xQueueGenericReceive">
<polygon fill="white" stroke="black" points="298,-0.5 298,-19.5 448,-19.5 448,-0.5 298,-0.5"/>
<text text-anchor="middle" x="373" y="-7.5" font-family="Helvetica,sans-Serif" font-size="10.00">MPU_xQueueGenericReceive</text>
</a>
</g>
</g>
<!-- Node2&#45;&gt;Node3 -->
<g id="edge2" class="edge"><title>Node2&#45;&gt;Node3</title>
<path fill="none" stroke="midnightblue" d="M271.79,-10C280.426,-10 289.267,-10 297.949,-10"/>
<polygon fill="midnightblue" stroke="midnightblue" points="271.77,-6.5001 261.77,-10 271.77,-13.5001 271.77,-6.5001"/>
</g>
</g>
</svg>
