<?xml version="1.0" encoding="UTF-8" standalone="no"?>
<!DOCTYPE svg PUBLIC "-//W3C//DTD SVG 1.1//EN"
 "http://www.w3.org/Graphics/SVG/1.1/DTD/svg11.dtd">
<!-- Generated by graphviz version 2.30.1 (20130221.2233)
 -->
<!-- Title: vTaskStartScheduler Pages: 1 -->
<svg width="880pt" height="1484pt"
 viewBox="0.00 0.00 880.00 1484.00" xmlns="http://www.w3.org/2000/svg" xmlns:xlink="http://www.w3.org/1999/xlink">
<g id="graph0" class="graph" transform="scale(1 1) rotate(0) translate(4 1480)">
<title>vTaskStartScheduler</title>
<polygon fill="white" stroke="white" points="-4,5 -4,-1480 877,-1480 877,5 -4,5"/>
<!-- Node1 -->
<g id="node1" class="node"><title>Node1</title>
<polygon fill="#bfbfbf" stroke="black" points="0.5,-715.5 0.5,-734.5 109.5,-734.5 109.5,-715.5 0.5,-715.5"/>
<text text-anchor="middle" x="55" y="-722.5" font-family="Helvetica,sans-Serif" font-size="10.00">vTaskStartScheduler</text>
</g>
<!-- Node2 -->
<g id="node2" class="node"><title>Node2</title>
<g id="a_node2"><a xlink:href="portable_8h.html#a4f3b1bb7590996f2fa1e0456dda961ff" target="_top" xlink:title="xPortStartScheduler">
<polygon fill="white" stroke="black" points="155,-734.5 155,-753.5 261,-753.5 261,-734.5 155,-734.5"/>
<text text-anchor="middle" x="208" y="-741.5" font-family="Helvetica,sans-Serif" font-size="10.00">xPortStartScheduler</text>
</a>
</g>
</g>
<!-- Node1&#45;&gt;Node2 -->
<g id="edge1" class="edge"><title>Node1&#45;&gt;Node2</title>
<path fill="none" stroke="midnightblue" d="M109.662,-731.752C121.005,-733.179 133.067,-734.697 144.697,-736.161"/>
<polygon fill="midnightblue" stroke="midnightblue" points="144.42,-739.653 154.778,-737.429 145.294,-732.708 144.42,-739.653"/>
</g>
<!-- Node50 -->
<g id="node50" class="node"><title>Node50</title>
<g id="a_node50"><a xlink:href="timers_8h.html#af777ab3e9ac04abd5dd21be739fa1321" target="_top" xlink:title="xTimerCreateTimerTask">
<polygon fill="white" stroke="black" points="146,-696.5 146,-715.5 270,-715.5 270,-696.5 146,-696.5"/>
<text text-anchor="middle" x="208" y="-703.5" font-family="Helvetica,sans-Serif" font-size="10.00">xTimerCreateTimerTask</text>
</a>
</g>
</g>
<!-- Node1&#45;&gt;Node50 -->
<g id="edge62" class="edge"><title>Node1&#45;&gt;Node50</title>
<path fill="none" stroke="midnightblue" d="M109.662,-718.248C118.07,-717.19 126.874,-716.082 135.604,-714.984"/>
<polygon fill="midnightblue" stroke="midnightblue" points="136.305,-718.423 145.79,-713.702 135.431,-711.478 136.305,-718.423"/>
</g>
<!-- Node3 -->
<g id="node3" class="node"><title>Node3</title>
<g id="a_node3"><a xlink:href="o_watcom_216_bit_d_o_s_2common_2portasm_8h.html#a1417b1dac299b0a3773613340427aa14" target="_top" xlink:title="portFIRST_CONTEXT">
<polygon fill="white" stroke="black" points="328,-1456.5 328,-1475.5 444,-1475.5 444,-1456.5 328,-1456.5"/>
<text text-anchor="middle" x="386" y="-1463.5" font-family="Helvetica,sans-Serif" font-size="10.00">portFIRST_CONTEXT</text>
</a>
</g>
</g>
<!-- Node2&#45;&gt;Node3 -->
<g id="edge2" class="edge"><title>Node2&#45;&gt;Node3</title>
<path fill="none" stroke="midnightblue" d="M208.9,-753.736C208.315,-830.568 208.2,-1339.02 306,-1447 309.578,-1450.95 313.82,-1454.15 318.453,-1456.73"/>
<polygon fill="midnightblue" stroke="midnightblue" points="317.22,-1460.01 327.772,-1460.97 320.12,-1453.64 317.22,-1460.01"/>
</g>
<!-- Node4 -->
<g id="node4" class="node"><title>Node4</title>
<g id="a_node4"><a xlink:href="_tick_8c.html#a97b27e7afea96574a70aab311e350ac0" target="_top" xlink:title="portSetupTick">
<polygon fill="white" stroke="black" points="347,-1418.5 347,-1437.5 425,-1437.5 425,-1418.5 347,-1418.5"/>
<text text-anchor="middle" x="386" y="-1425.5" font-family="Helvetica,sans-Serif" font-size="10.00">portSetupTick</text>
</a>
</g>
</g>
<!-- Node2&#45;&gt;Node4 -->
<g id="edge3" class="edge"><title>Node2&#45;&gt;Node4</title>
<path fill="none" stroke="midnightblue" d="M208.984,-753.68C209.062,-827.959 213.187,-1307.31 306,-1409 313.944,-1417.7 325.114,-1422.75 336.56,-1425.6"/>
<polygon fill="midnightblue" stroke="midnightblue" points="336.129,-1429.08 346.616,-1427.57 337.478,-1422.21 336.129,-1429.08"/>
</g>
<!-- Node5 -->
<g id="node5" class="node"><title>Node5</title>
<g id="a_node5"><a xlink:href="_r_v_d_s_2_a_r_m___c_m4_f_2port_8c.html#ad4aeb42aa6c5283df3346cb2fa6625fe" target="_top" xlink:title="prvEnableVFP">
<polygon fill="white" stroke="black" points="345.5,-1380.5 345.5,-1399.5 426.5,-1399.5 426.5,-1380.5 345.5,-1380.5"/>
<text text-anchor="middle" x="386" y="-1387.5" font-family="Helvetica,sans-Serif" font-size="10.00">prvEnableVFP</text>
</a>
</g>
</g>
<!-- Node2&#45;&gt;Node5 -->
<g id="edge4" class="edge"><title>Node2&#45;&gt;Node5</title>
<path fill="none" stroke="midnightblue" d="M209.076,-753.582C209.843,-825.116 218.15,-1275.58 306,-1371 313.681,-1379.34 324.328,-1384.32 335.322,-1387.22"/>
<polygon fill="midnightblue" stroke="midnightblue" points="334.934,-1390.72 345.439,-1389.34 336.369,-1383.86 334.934,-1390.72"/>
</g>
<!-- Node6 -->
<g id="node6" class="node"><title>Node6</title>
<g id="a_node6"><a xlink:href="_b_c_c_216_bit_d_o_s_2_flsh186_2port_8c.html#a00a48cbe854dbefdb16fe52c71a4d661" target="_top" xlink:title="prvExitFunction">
<polygon fill="white" stroke="black" points="343.5,-1342.5 343.5,-1361.5 428.5,-1361.5 428.5,-1342.5 343.5,-1342.5"/>
<text text-anchor="middle" x="386" y="-1349.5" font-family="Helvetica,sans-Serif" font-size="10.00">prvExitFunction</text>
</a>
</g>
</g>
<!-- Node2&#45;&gt;Node6 -->
<g id="edge5" class="edge"><title>Node2&#45;&gt;Node6</title>
<path fill="none" stroke="midnightblue" d="M209.256,-753.749C211.258,-822.76 226.519,-1237.42 306,-1328 313.238,-1336.25 323.213,-1341.71 333.64,-1345.31"/>
<polygon fill="midnightblue" stroke="midnightblue" points="332.698,-1348.69 343.278,-1348.13 334.66,-1341.97 332.698,-1348.69"/>
</g>
<!-- Node7 -->
<g id="node7" class="node"><title>Node7</title>
<g id="a_node7"><a xlink:href="_g_c_c_2_tri_core__1782_2port_8c.html#a6b11d209264bd492e907dfa5924057c5" target="_top" xlink:title="prvInterruptYield">
<polygon fill="white" stroke="black" points="534,-962.5 534,-981.5 624,-981.5 624,-962.5 534,-962.5"/>
<text text-anchor="middle" x="579" y="-969.5" font-family="Helvetica,sans-Serif" font-size="10.00">prvInterruptYield</text>
</a>
</g>
</g>
<!-- Node2&#45;&gt;Node7 -->
<g id="edge6" class="edge"><title>Node2&#45;&gt;Node7</title>
<path fill="none" stroke="midnightblue" d="M210.067,-753.7C214.42,-788.072 234.177,-904.644 306,-954 370.942,-998.628 466.47,-992.818 525.325,-983.302"/>
<polygon fill="midnightblue" stroke="midnightblue" points="526.249,-986.694 535.515,-981.557 525.068,-979.795 526.249,-986.694"/>
</g>
<!-- Node10 -->
<g id="node10" class="node"><title>Node10</title>
<g id="a_node10"><a xlink:href="_m_p_l_a_b_2_p_i_c18_f_2port_8c.html#a58197e4187d2a15e3442c99500df5250" target="_top" xlink:title="prvLowInterrupt">
<polygon fill="white" stroke="black" points="343,-1190.5 343,-1209.5 429,-1209.5 429,-1190.5 343,-1190.5"/>
<text text-anchor="middle" x="386" y="-1197.5" font-family="Helvetica,sans-Serif" font-size="10.00">prvLowInterrupt</text>
</a>
</g>
</g>
<!-- Node2&#45;&gt;Node10 -->
<g id="edge9" class="edge"><title>Node2&#45;&gt;Node10</title>
<path fill="none" stroke="midnightblue" d="M209.866,-753.694C215.221,-811.548 245.589,-1110.94 306,-1176 313.244,-1183.8 322.933,-1189.1 333.039,-1192.68"/>
<polygon fill="midnightblue" stroke="midnightblue" points="332.206,-1196.09 342.791,-1195.62 334.227,-1189.38 332.206,-1196.09"/>
</g>
<!-- Node15 -->
<g id="node15" class="node"><title>Node15</title>
<g id="a_node15"><a xlink:href="_b_c_c_216_bit_d_o_s_2_flsh186_2port_8c.html#acf9df4f9ff9bc642609898d1a7503a53" target="_top" xlink:title="prvNonPreemptiveTick">
<polygon fill="white" stroke="black" points="520,-1304.5 520,-1323.5 638,-1323.5 638,-1304.5 520,-1304.5"/>
<text text-anchor="middle" x="579" y="-1311.5" font-family="Helvetica,sans-Serif" font-size="10.00">prvNonPreemptiveTick</text>
</a>
</g>
</g>
<!-- Node2&#45;&gt;Node15 -->
<g id="edge16" class="edge"><title>Node2&#45;&gt;Node15</title>
<path fill="none" stroke="midnightblue" d="M209.449,-753.742C212.594,-817.657 233.357,-1176.74 306,-1252 320.284,-1266.8 435.379,-1289.26 511.205,-1302.69"/>
<polygon fill="midnightblue" stroke="midnightblue" points="510.713,-1306.16 521.168,-1304.45 511.926,-1299.27 510.713,-1306.16"/>
</g>
<!-- Node16 -->
<g id="node16" class="node"><title>Node16</title>
<g id="a_node16"><a xlink:href="_g_c_c_2_m_c_f5235_2port_8c.html#a63dbda6b7b3f407d233f73a0095ed528" target="_top" xlink:title="prvPortPreemptiveTick">
<polygon fill="white" stroke="black" points="327,-886.5 327,-905.5 445,-905.5 445,-886.5 327,-886.5"/>
<text text-anchor="middle" x="386" y="-893.5" font-family="Helvetica,sans-Serif" font-size="10.00">prvPortPreemptiveTick</text>
</a>
</g>
</g>
<!-- Node2&#45;&gt;Node16 -->
<g id="edge18" class="edge"><title>Node2&#45;&gt;Node16</title>
<path fill="none" stroke="midnightblue" d="M213.213,-753.861C224.38,-778.759 257.264,-844.485 306,-877 309.564,-879.378 313.395,-881.459 317.379,-883.28"/>
<polygon fill="midnightblue" stroke="midnightblue" points="316.313,-886.623 326.898,-887.076 318.906,-880.121 316.313,-886.623"/>
</g>
<!-- Node17 -->
<g id="node17" class="node"><title>Node17</title>
<g id="a_node17"><a xlink:href="_g_c_c_2_a_r_m___c_m3_2port_8c.html#a50dd292452ec6c17a611a90c22e19136" target="_top" xlink:title="prvPortStartFirstTask">
<polygon fill="white" stroke="black" points="330.5,-848.5 330.5,-867.5 441.5,-867.5 441.5,-848.5 330.5,-848.5"/>
<text text-anchor="middle" x="386" y="-855.5" font-family="Helvetica,sans-Serif" font-size="10.00">prvPortStartFirstTask</text>
</a>
</g>
</g>
<!-- Node2&#45;&gt;Node17 -->
<g id="edge19" class="edge"><title>Node2&#45;&gt;Node17</title>
<path fill="none" stroke="midnightblue" d="M215.826,-753.523C230.193,-772.826 265.578,-816.628 306,-839 310.588,-841.539 315.509,-843.742 320.57,-845.651"/>
<polygon fill="midnightblue" stroke="midnightblue" points="319.829,-849.095 330.424,-848.975 322.067,-842.463 319.829,-849.095"/>
</g>
<!-- Node18 -->
<g id="node18" class="node"><title>Node18</title>
<g id="a_node18"><a xlink:href="_g_c_c_2_m_c_f5235_2port_8c.html#ab29afb2a4cb7a5158953f41abd366a76" target="_top" xlink:title="prvPortYield">
<polygon fill="white" stroke="black" points="350.5,-1076.5 350.5,-1095.5 421.5,-1095.5 421.5,-1076.5 350.5,-1076.5"/>
<text text-anchor="middle" x="386" y="-1083.5" font-family="Helvetica,sans-Serif" font-size="10.00">prvPortYield</text>
</a>
</g>
</g>
<!-- Node2&#45;&gt;Node18 -->
<g id="edge20" class="edge"><title>Node2&#45;&gt;Node18</title>
<path fill="none" stroke="midnightblue" d="M208.701,-753.655C207.913,-797.173 210.714,-976.88 306,-1067 315.3,-1075.8 327.933,-1080.74 340.367,-1083.47"/>
<polygon fill="midnightblue" stroke="midnightblue" points="339.774,-1086.91 350.229,-1085.2 340.988,-1080.02 339.774,-1086.91"/>
</g>
<!-- Node21 -->
<g id="node21" class="node"><title>Node21</title>
<g id="a_node21"><a xlink:href="_m_s_v_c-_ming_w_2port_8c.html#a1d6207a2b13a4c014a0b0f4d54f900e0" target="_top" xlink:title="prvProcessSimulatedInterrupts">
<polygon fill="white" stroke="black" points="502.5,-924.5 502.5,-943.5 655.5,-943.5 655.5,-924.5 502.5,-924.5"/>
<text text-anchor="middle" x="579" y="-931.5" font-family="Helvetica,sans-Serif" font-size="10.00">prvProcessSimulatedInterrupts</text>
</a>
</g>
</g>
<!-- Node2&#45;&gt;Node21 -->
<g id="edge24" class="edge"><title>Node2&#45;&gt;Node21</title>
<path fill="none" stroke="midnightblue" d="M210.466,-753.801C215.931,-786.412 238.405,-891.543 306,-933 336.153,-951.493 424.162,-948.684 491.987,-943.172"/>
<polygon fill="midnightblue" stroke="midnightblue" points="492.593,-946.634 502.262,-942.305 492.003,-939.659 492.593,-946.634"/>
</g>
<!-- Node22 -->
<g id="node22" class="node"><title>Node22</title>
<g id="a_node22"><a xlink:href="_m_s_v_c-_ming_w_2port_8c.html#adc28efa1df4fe75c8bb49108e6609377" target="_top" xlink:title="prvProcessTickInterrupt">
<polygon fill="white" stroke="black" points="518,-1266.5 518,-1285.5 640,-1285.5 640,-1266.5 518,-1266.5"/>
<text text-anchor="middle" x="579" y="-1273.5" font-family="Helvetica,sans-Serif" font-size="10.00">prvProcessTickInterrupt</text>
</a>
</g>
</g>
<!-- Node2&#45;&gt;Node22 -->
<g id="edge27" class="edge"><title>Node2&#45;&gt;Node22</title>
<path fill="none" stroke="midnightblue" d="M209.558,-753.52C213.322,-814.47 236.991,-1149.64 306,-1219 320.228,-1233.3 431.951,-1253.24 507.712,-1265.35"/>
<polygon fill="midnightblue" stroke="midnightblue" points="507.262,-1268.82 517.687,-1266.94 508.359,-1261.91 507.262,-1268.82"/>
</g>
<!-- Node23 -->
<g id="node23" class="node"><title>Node23</title>
<g id="a_node23"><a xlink:href="_m_s_v_c-_ming_w_2port_8c.html#a905a83e355b01f0e9aca35992ddeae52" target="_top" xlink:title="prvProcessYieldInterrupt">
<polygon fill="white" stroke="black" points="323,-810.5 323,-829.5 449,-829.5 449,-810.5 323,-810.5"/>
<text text-anchor="middle" x="386" y="-817.5" font-family="Helvetica,sans-Serif" font-size="10.00">prvProcessYieldInterrupt</text>
</a>
</g>
</g>
<!-- Node2&#45;&gt;Node23 -->
<g id="edge29" class="edge"><title>Node2&#45;&gt;Node23</title>
<path fill="none" stroke="midnightblue" d="M222.468,-753.666C240.613,-766.267 274.303,-788.205 306,-801 312.24,-803.519 318.898,-805.759 325.6,-807.736"/>
<polygon fill="midnightblue" stroke="midnightblue" points="324.839,-811.157 335.41,-810.447 326.704,-804.41 324.839,-811.157"/>
</g>
<!-- Node24 -->
<g id="node24" class="node"><title>Node24</title>
<g id="a_node24"><a xlink:href="_b_c_c_216_bit_d_o_s_2_flsh186_2port_8c.html#a5959625826e2b2a3f4b14c49c24f9737" target="_top" xlink:title="prvSetTickFrequency">
<polygon fill="white" stroke="black" points="330.5,-772.5 330.5,-791.5 441.5,-791.5 441.5,-772.5 330.5,-772.5"/>
<text text-anchor="middle" x="386" y="-779.5" font-family="Helvetica,sans-Serif" font-size="10.00">prvSetTickFrequency</text>
</a>
</g>
</g>
<!-- Node2&#45;&gt;Node24 -->
<g id="edge30" class="edge"><title>Node2&#45;&gt;Node24</title>
<path fill="none" stroke="midnightblue" d="M253.412,-753.589C276.951,-758.671 306.057,-764.955 330.905,-770.32"/>
<polygon fill="midnightblue" stroke="midnightblue" points="330.394,-773.791 340.907,-772.48 331.871,-766.948 330.394,-773.791"/>
</g>
<!-- Node25 -->
<g id="node25" class="node"><title>Node25</title>
<g id="a_node25"><a xlink:href="_g_c_c_2_a_r_m___c_m3___m_p_u_2port_8c.html#ac8f1b1a01e872c9158247e0bf5d5e472" target="_top" xlink:title="prvSetupMPU">
<polygon fill="white" stroke="black" points="346.5,-734.5 346.5,-753.5 425.5,-753.5 425.5,-734.5 346.5,-734.5"/>
<text text-anchor="middle" x="386" y="-741.5" font-family="Helvetica,sans-Serif" font-size="10.00">prvSetupMPU</text>
</a>
</g>
</g>
<!-- Node2&#45;&gt;Node25 -->
<g id="edge31" class="edge"><title>Node2&#45;&gt;Node25</title>
<path fill="none" stroke="midnightblue" d="M261.329,-744C285.073,-744 312.987,-744 336.281,-744"/>
<polygon fill="midnightblue" stroke="midnightblue" points="336.29,-747.5 346.29,-744 336.29,-740.5 336.29,-747.5"/>
</g>
<!-- Node27 -->
<g id="node27" class="node"><title>Node27</title>
<g id="a_node27"><a xlink:href="_softune_2_m_b96340_2port_8c.html#aa47c7c699025c6ca78265952043e3859" target="_top" xlink:title="prvSetupRLT0Interrupt">
<polygon fill="white" stroke="black" points="327,-696.5 327,-715.5 445,-715.5 445,-696.5 327,-696.5"/>
<text text-anchor="middle" x="386" y="-703.5" font-family="Helvetica,sans-Serif" font-size="10.00">prvSetupRLT0Interrupt</text>
</a>
</g>
</g>
<!-- Node2&#45;&gt;Node27 -->
<g id="edge33" class="edge"><title>Node2&#45;&gt;Node27</title>
<path fill="none" stroke="midnightblue" d="M253.412,-734.411C276.951,-729.329 306.057,-723.045 330.905,-717.68"/>
<polygon fill="midnightblue" stroke="midnightblue" points="331.871,-721.052 340.907,-715.52 330.394,-714.209 331.871,-721.052"/>
</g>
<!-- Node28 -->
<g id="node28" class="node"><title>Node28</title>
<g id="a_node28"><a xlink:href="_c_c_s_2_a_r_m___cortex-_r4_2port_8c.html#aeb91268bfbb6dc04ff839631ee5c72ba" target="_top" xlink:title="prvSetupTimerInterrupt">
<polygon fill="white" stroke="black" points="326.5,-658.5 326.5,-677.5 445.5,-677.5 445.5,-658.5 326.5,-658.5"/>
<text text-anchor="middle" x="386" y="-665.5" font-family="Helvetica,sans-Serif" font-size="10.00">prvSetupTimerInterrupt</text>
</a>
</g>
</g>
<!-- Node2&#45;&gt;Node28 -->
<g id="edge34" class="edge"><title>Node2&#45;&gt;Node28</title>
<path fill="none" stroke="midnightblue" d="M249.98,-734.42C256.936,-731.914 263.881,-728.813 270,-725 289.746,-712.698 285.86,-698.645 306,-687 309.883,-684.755 314.02,-682.774 318.289,-681.027"/>
<polygon fill="midnightblue" stroke="midnightblue" points="319.597,-684.276 327.794,-677.564 317.2,-677.699 319.597,-684.276"/>
</g>
<!-- Node29 -->
<g id="node29" class="node"><title>Node29</title>
<g id="a_node29"><a xlink:href="_m_s_v_c-_ming_w_2port_8c.html#a284a392f76fcc26d88e604c71e491bfd" target="_top" xlink:title="prvSimulatedPeripheralTimer">
<polygon fill="white" stroke="black" points="506,-886.5 506,-905.5 652,-905.5 652,-886.5 506,-886.5"/>
<text text-anchor="middle" x="579" y="-893.5" font-family="Helvetica,sans-Serif" font-size="10.00">prvSimulatedPeripheralTimer</text>
</a>
</g>
</g>
<!-- Node2&#45;&gt;Node29 -->
<g id="edge35" class="edge"><title>Node2&#45;&gt;Node29</title>
<path fill="none" stroke="midnightblue" d="M210.974,-753.756C217.745,-784.329 243.179,-878.411 306,-915 341.235,-935.522 452.228,-919.819 521.058,-907.352"/>
<polygon fill="midnightblue" stroke="midnightblue" points="521.693,-910.794 530.893,-905.541 520.425,-903.91 521.693,-910.794"/>
</g>
<!-- Node31 -->
<g id="node31" class="node"><title>Node31</title>
<g id="a_node31"><a xlink:href="_g_c_c_2_r_x100_2port_8c.html#ae6d8cff7a6585aa3b48d5d56375ebdeb" target="_top" xlink:title="prvStartFirstTask">
<polygon fill="white" stroke="black" points="339.5,-620.5 339.5,-639.5 432.5,-639.5 432.5,-620.5 339.5,-620.5"/>
<text text-anchor="middle" x="386" y="-627.5" font-family="Helvetica,sans-Serif" font-size="10.00">prvStartFirstTask</text>
</a>
</g>
</g>
<!-- Node2&#45;&gt;Node31 -->
<g id="edge39" class="edge"><title>Node2&#45;&gt;Node31</title>
<path fill="none" stroke="midnightblue" d="M254.866,-734.378C260.346,-731.928 265.562,-728.855 270,-725 298.218,-700.491 276.99,-672.566 306,-649 312.841,-643.442 321.05,-639.466 329.55,-636.63"/>
<polygon fill="midnightblue" stroke="midnightblue" points="330.548,-639.985 339.213,-633.889 328.638,-633.25 330.548,-639.985"/>
</g>
<!-- Node32 -->
<g id="node32" class="node"><title>Node32</title>
<g id="a_node32"><a xlink:href="_g_c_c_2_a_r_m___c_a9_2port_8c.html#a813e8227aedfc6bd83c66c4a9b8e4f41" target="_top" xlink:title="prvTaskExitError">
<polygon fill="white" stroke="black" points="340.5,-582.5 340.5,-601.5 431.5,-601.5 431.5,-582.5 340.5,-582.5"/>
<text text-anchor="middle" x="386" y="-589.5" font-family="Helvetica,sans-Serif" font-size="10.00">prvTaskExitError</text>
</a>
</g>
</g>
<!-- Node2&#45;&gt;Node32 -->
<g id="edge40" class="edge"><title>Node2&#45;&gt;Node32</title>
<path fill="none" stroke="midnightblue" d="M256.295,-734.494C261.349,-732.024 266.071,-728.914 270,-725 307.644,-687.503 267.14,-647.236 306,-611 312.819,-604.642 321.383,-600.3 330.336,-597.357"/>
<polygon fill="midnightblue" stroke="midnightblue" points="331.412,-600.692 340.139,-594.685 329.571,-593.938 331.412,-600.692"/>
</g>
<!-- Node11 -->
<g id="node11" class="node"><title>Node11</title>
<g id="a_node11"><a xlink:href="_m_p_l_a_b_2_p_i_c18_f_2port_8c.html#aa102d20e6272879e93b4fe81a049dad6" target="_top" xlink:title="prvTickISR">
<polygon fill="white" stroke="black" points="546.5,-1152.5 546.5,-1171.5 611.5,-1171.5 611.5,-1152.5 546.5,-1152.5"/>
<text text-anchor="middle" x="579" y="-1159.5" font-family="Helvetica,sans-Serif" font-size="10.00">prvTickISR</text>
</a>
</g>
</g>
<!-- Node2&#45;&gt;Node11 -->
<g id="edge41" class="edge"><title>Node2&#45;&gt;Node11</title>
<path fill="none" stroke="midnightblue" d="M209.895,-753.735C215.209,-809.257 244.495,-1085.27 306,-1138 370.339,-1193.16 477.457,-1182.98 536.235,-1171.83"/>
<polygon fill="midnightblue" stroke="midnightblue" points="537.159,-1175.21 546.28,-1169.82 535.788,-1168.35 537.159,-1175.21"/>
</g>
<!-- Node33 -->
<g id="node33" class="node"><title>Node33</title>
<g id="a_node33"><a xlink:href="_g_c_c_2_tri_core__1782_2port_8c.html#ab7cabab6d1e9f66ab2be70efc236a7df" target="_top" xlink:title="prvTrapYield">
<polygon fill="white" stroke="black" points="542.5,-1114.5 542.5,-1133.5 615.5,-1133.5 615.5,-1114.5 542.5,-1114.5"/>
<text text-anchor="middle" x="579" y="-1121.5" font-family="Helvetica,sans-Serif" font-size="10.00">prvTrapYield</text>
</a>
</g>
</g>
<!-- Node2&#45;&gt;Node33 -->
<g id="edge42" class="edge"><title>Node2&#45;&gt;Node33</title>
<path fill="none" stroke="midnightblue" d="M210.095,-753.623C216.284,-806.168 248.645,-1057.76 306,-1105 369.899,-1157.63 473.43,-1147.22 532.625,-1135.34"/>
<polygon fill="midnightblue" stroke="midnightblue" points="533.372,-1138.76 542.437,-1133.27 531.931,-1131.91 533.372,-1138.76"/>
</g>
<!-- Node34 -->
<g id="node34" class="node"><title>Node34</title>
<g id="a_node34"><a xlink:href="_b_c_c_216_bit_d_o_s_2_flsh186_2port_8c.html#a45db6cc1dd49dae903bd425b5c2027f9" target="_top" xlink:title="prvYieldProcessor">
<polygon fill="white" stroke="red" points="337,-544.5 337,-563.5 435,-563.5 435,-544.5 337,-544.5"/>
<text text-anchor="middle" x="386" y="-551.5" font-family="Helvetica,sans-Serif" font-size="10.00">prvYieldProcessor</text>
</a>
</g>
</g>
<!-- Node2&#45;&gt;Node34 -->
<g id="edge44" class="edge"><title>Node2&#45;&gt;Node34</title>
<path fill="none" stroke="midnightblue" d="M257.178,-734.464C261.954,-731.994 266.368,-728.893 270,-725 317.358,-674.236 256.995,-622.176 306,-573 311.876,-567.104 319.24,-562.916 327.094,-559.963"/>
<polygon fill="midnightblue" stroke="midnightblue" points="328.334,-563.243 336.851,-556.941 326.263,-556.557 328.334,-563.243"/>
</g>
<!-- Node35 -->
<g id="node35" class="node"><title>Node35</title>
<g id="a_node35"><a xlink:href="_wiz_c_2_p_i_c18_2port_8c.html#a0dc0ff621115a685d59ea38b526ebe89" target="_top" xlink:title="pvPortMalloc">
<polygon fill="white" stroke="red" points="349,-506.5 349,-525.5 423,-525.5 423,-506.5 349,-506.5"/>
<text text-anchor="middle" x="386" y="-513.5" font-family="Helvetica,sans-Serif" font-size="10.00">pvPortMalloc</text>
</a>
</g>
</g>
<!-- Node2&#45;&gt;Node35 -->
<g id="edge45" class="edge"><title>Node2&#45;&gt;Node35</title>
<path fill="none" stroke="midnightblue" d="M257.65,-734.468C262.28,-731.995 266.531,-728.892 270,-725 327.19,-660.843 246.726,-597.237 306,-535 314.588,-525.982 326.648,-520.924 338.764,-518.168"/>
<polygon fill="midnightblue" stroke="midnightblue" points="339.652,-521.565 348.879,-516.357 338.419,-514.674 339.652,-521.565"/>
</g>
<!-- Node36 -->
<g id="node36" class="node"><title>Node36</title>
<g id="a_node36"><a xlink:href="_m_p_l_a_b_2_p_i_c24__ds_p_i_c_2port_8c.html#a8b738ae962ed08676c294ff428c93fa5" target="_top" xlink:title="vApplicationSetupTickTimer\lInterrupt">
<polygon fill="white" stroke="black" points="316,-457 316,-487 456,-487 456,-457 316,-457"/>
<text text-anchor="start" x="324" y="-475" font-family="Helvetica,sans-Serif" font-size="10.00">vApplicationSetupTickTimer</text>
<text text-anchor="middle" x="386" y="-464" font-family="Helvetica,sans-Serif" font-size="10.00">Interrupt</text>
</a>
</g>
</g>
<!-- Node2&#45;&gt;Node36 -->
<g id="edge46" class="edge"><title>Node2&#45;&gt;Node36</title>
<path fill="none" stroke="midnightblue" d="M258.064,-734.413C262.557,-731.947 266.664,-728.86 270,-725 337.082,-647.383 239.094,-574.769 306,-497 307.026,-495.807 308.109,-494.671 309.241,-493.588"/>
<polygon fill="midnightblue" stroke="midnightblue" points="311.674,-496.127 317.368,-487.192 307.345,-490.626 311.674,-496.127"/>
</g>
<!-- Node37 -->
<g id="node37" class="node"><title>Node37</title>
<g id="a_node37"><a xlink:href="_c_c_s_2_m_s_p430_x_2portmacro_8h.html#af6c61ea6aaa9367ebdc5348c1b121aa7" target="_top" xlink:title="vApplicationSetupTimerInterrupt">
<polygon fill="white" stroke="black" points="306.5,-418.5 306.5,-437.5 465.5,-437.5 465.5,-418.5 306.5,-418.5"/>
<text text-anchor="middle" x="386" y="-425.5" font-family="Helvetica,sans-Serif" font-size="10.00">vApplicationSetupTimerInterrupt</text>
</a>
</g>
</g>
<!-- Node2&#45;&gt;Node37 -->
<g id="edge47" class="edge"><title>Node2&#45;&gt;Node37</title>
<path fill="none" stroke="midnightblue" d="M258.462,-734.342C262.821,-731.885 266.788,-728.821 270,-725 349.886,-629.971 223.577,-540.838 306,-448 307.409,-446.413 308.924,-444.943 310.528,-443.583"/>
<polygon fill="midnightblue" stroke="midnightblue" points="312.927,-446.182 319.208,-437.649 308.977,-440.403 312.927,-446.182"/>
</g>
<!-- Node8 -->
<g id="node8" class="node"><title>Node8</title>
<g id="a_node8"><a xlink:href="_paradigm_2_tern___e_e_2small_2portmacro_8h.html#a14d32f8130d3c0b212cfc751730b5b49" target="_top" xlink:title="void">
<polygon fill="white" stroke="black" points="836.5,-962.5 836.5,-981.5 871.5,-981.5 871.5,-962.5 836.5,-962.5"/>
<text text-anchor="middle" x="854" y="-969.5" font-family="Helvetica,sans-Serif" font-size="10.00">void</text>
</a>
</g>
</g>
<!-- Node2&#45;&gt;Node8 -->
<g id="edge48" class="edge"><title>Node2&#45;&gt;Node8</title>
<path fill="none" stroke="midnightblue" d="M209.318,-753.539C211.709,-819.34 228.931,-1205.67 306,-1287 367.548,-1351.95 413.116,-1322.71 502,-1333 569.99,-1340.87 590.445,-1352.68 656,-1333 729.436,-1310.96 757.206,-1301.62 800,-1238 827.42,-1197.24 845.351,-1046.21 851.046,-991.744"/>
<polygon fill="midnightblue" stroke="midnightblue" points="854.541,-991.965 852.074,-981.662 847.578,-991.255 854.541,-991.965"/>
</g>
<!-- Node38 -->
<g id="node38" class="node"><title>Node38</title>
<g id="a_node38"><a xlink:href="_c_c_s_2_a_r_m___c_m4_f_2port_8c.html#ae7d07e03614f384260df2c902d131caf" target="_top" xlink:title="vPortEnableVFP">
<polygon fill="white" stroke="black" points="341,-380.5 341,-399.5 431,-399.5 431,-380.5 341,-380.5"/>
<text text-anchor="middle" x="386" y="-387.5" font-family="Helvetica,sans-Serif" font-size="10.00">vPortEnableVFP</text>
</a>
</g>
</g>
<!-- Node2&#45;&gt;Node38 -->
<g id="edge49" class="edge"><title>Node2&#45;&gt;Node38</title>
<path fill="none" stroke="midnightblue" d="M258.524,-734.393C262.87,-731.927 266.818,-728.846 270,-725 360.101,-616.085 212.359,-514.887 306,-409 312.52,-401.628 321.353,-396.863 330.755,-393.831"/>
<polygon fill="midnightblue" stroke="midnightblue" points="331.88,-397.156 340.685,-391.263 330.127,-390.379 331.88,-397.156"/>
</g>
<!-- Node39 -->
<g id="node39" class="node"><title>Node39</title>
<g id="a_node39"><a xlink:href="_g_c_c_2_a_r_m7___a_t91_f_r40008_2port_8c.html#ab6f659b3911405d21fe98a1c7a347d8f" target="_top" xlink:title="vPortISRStartFirstTask">
<polygon fill="white" stroke="black" points="326.5,-342.5 326.5,-361.5 445.5,-361.5 445.5,-342.5 326.5,-342.5"/>
<text text-anchor="middle" x="386" y="-349.5" font-family="Helvetica,sans-Serif" font-size="10.00">vPortISRStartFirstTask</text>
</a>
</g>
</g>
<!-- Node2&#45;&gt;Node39 -->
<g id="edge50" class="edge"><title>Node2&#45;&gt;Node39</title>
<path fill="none" stroke="midnightblue" d="M258.571,-734.432C262.909,-731.959 266.842,-728.865 270,-725 370.066,-602.539 201.953,-490.096 306,-371 309.251,-367.279 313.092,-364.22 317.3,-361.712"/>
<polygon fill="midnightblue" stroke="midnightblue" points="318.915,-364.819 326.382,-357.303 315.858,-358.522 318.915,-364.819"/>
</g>
<!-- Node40 -->
<g id="node40" class="node"><title>Node40</title>
<g id="a_node40"><a xlink:href="_g_c_c_2_a_r_m___c_a9_2port_8c.html#a222aec9e4494ebf3fdbda864b5cb3a4b" target="_top" xlink:title="vPortRestoreTaskContext">
<polygon fill="white" stroke="black" points="320.5,-304.5 320.5,-323.5 451.5,-323.5 451.5,-304.5 320.5,-304.5"/>
<text text-anchor="middle" x="386" y="-311.5" font-family="Helvetica,sans-Serif" font-size="10.00">vPortRestoreTaskContext</text>
</a>
</g>
</g>
<!-- Node2&#45;&gt;Node40 -->
<g id="edge51" class="edge"><title>Node2&#45;&gt;Node40</title>
<path fill="none" stroke="midnightblue" d="M258.61,-734.463C262.94,-731.984 266.861,-728.881 270,-725 325.02,-656.991 248.769,-399.158 306,-333 307.736,-330.993 309.644,-329.178 311.688,-327.539"/>
<polygon fill="midnightblue" stroke="midnightblue" points="313.685,-330.415 320.18,-322.045 309.882,-324.538 313.685,-330.415"/>
</g>
<!-- Node41 -->
<g id="node41" class="node"><title>Node41</title>
<g id="a_node41"><a xlink:href="_m_s_v_c-_ming_w_2port_8c.html#a35b5d3a9b147da8e3adda2a2cc7b6cc0" target="_top" xlink:title="vPortSetInterruptHandler">
<polygon fill="white" stroke="black" points="322.5,-266.5 322.5,-285.5 449.5,-285.5 449.5,-266.5 322.5,-266.5"/>
<text text-anchor="middle" x="386" y="-273.5" font-family="Helvetica,sans-Serif" font-size="10.00">vPortSetInterruptHandler</text>
</a>
</g>
</g>
<!-- Node2&#45;&gt;Node41 -->
<g id="edge52" class="edge"><title>Node2&#45;&gt;Node41</title>
<path fill="none" stroke="midnightblue" d="M258.642,-734.489C262.966,-732.005 266.876,-728.893 270,-725 330.01,-650.209 243.558,-367.772 306,-295 308.251,-292.377 310.794,-290.082 313.553,-288.077"/>
<polygon fill="midnightblue" stroke="midnightblue" points="315.546,-290.965 322.404,-282.889 312.007,-284.926 315.546,-290.965"/>
</g>
<!-- Node42 -->
<g id="node42" class="node"><title>Node42</title>
<g id="a_node42"><a xlink:href="_g_c_c_2_i_a32__flat_2port_8c.html#ab80bbff02ac9871dcfb168f77b763beb" target="_top" xlink:title="vPortSetupIDT">
<polygon fill="white" stroke="red" points="345,-228.5 345,-247.5 427,-247.5 427,-228.5 345,-228.5"/>
<text text-anchor="middle" x="386" y="-235.5" font-family="Helvetica,sans-Serif" font-size="10.00">vPortSetupIDT</text>
</a>
</g>
</g>
<!-- Node2&#45;&gt;Node42 -->
<g id="edge53" class="edge"><title>Node2&#45;&gt;Node42</title>
<path fill="none" stroke="midnightblue" d="M258.956,-734.344C263.161,-731.883 266.959,-728.817 270,-725 335.003,-643.424 238.344,-336.389 306,-257 313.431,-248.281 324.097,-243.181 335.198,-240.283"/>
<polygon fill="midnightblue" stroke="midnightblue" points="335.906,-243.711 344.996,-238.266 334.495,-236.854 335.906,-243.711"/>
</g>
<!-- Node43 -->
<g id="node43" class="node"><title>Node43</title>
<g id="a_node43"><a xlink:href="_c_c_s_2_a_r_m___c_m4_f_2port_8c.html#a4649001ea4d29b80759e6eca4bba58eb" target="_top" xlink:title="vPortSetupTimerInterrupt">
<polygon fill="white" stroke="black" points="321.5,-190.5 321.5,-209.5 450.5,-209.5 450.5,-190.5 321.5,-190.5"/>
<text text-anchor="middle" x="386" y="-197.5" font-family="Helvetica,sans-Serif" font-size="10.00">vPortSetupTimerInterrupt</text>
</a>
</g>
</g>
<!-- Node2&#45;&gt;Node43 -->
<g id="edge54" class="edge"><title>Node2&#45;&gt;Node43</title>
<path fill="none" stroke="midnightblue" d="M258.979,-734.362C263.179,-731.898 266.97,-728.826 270,-725 339.997,-636.636 233.128,-305.009 306,-219 307.966,-216.679 310.162,-214.615 312.534,-212.78"/>
<polygon fill="midnightblue" stroke="midnightblue" points="314.562,-215.64 321.203,-207.386 310.864,-209.697 314.562,-215.64"/>
</g>
<!-- Node44 -->
<g id="node44" class="node"><title>Node44</title>
<g id="a_node44"><a xlink:href="_i_a_r_2_a_t_mega323_2port_8c.html#a97998187984cbffc1cbeef4d67622ab6" target="_top" xlink:title="vPortStart">
<polygon fill="white" stroke="black" points="355.5,-152.5 355.5,-171.5 416.5,-171.5 416.5,-152.5 355.5,-152.5"/>
<text text-anchor="middle" x="386" y="-159.5" font-family="Helvetica,sans-Serif" font-size="10.00">vPortStart</text>
</a>
</g>
</g>
<!-- Node2&#45;&gt;Node44 -->
<g id="edge55" class="edge"><title>Node2&#45;&gt;Node44</title>
<path fill="none" stroke="midnightblue" d="M258.998,-734.377C263.194,-731.91 266.979,-728.833 270,-725 344.993,-629.847 227.911,-273.63 306,-181 315.584,-169.631 330.671,-164.403 345.103,-162.187"/>
<polygon fill="midnightblue" stroke="midnightblue" points="345.847,-165.626 355.408,-161.06 345.087,-158.668 345.847,-165.626"/>
</g>
<!-- Node45 -->
<g id="node45" class="node"><title>Node45</title>
<g id="a_node45"><a xlink:href="_c_c_s_2_a_r_m___c_m4_f_2port_8c.html#a5cfc38319f17c8e804020ec247b6325d" target="_top" xlink:title="vPortStartFirstTask">
<polygon fill="white" stroke="black" points="335,-114.5 335,-133.5 437,-133.5 437,-114.5 335,-114.5"/>
<text text-anchor="middle" x="386" y="-121.5" font-family="Helvetica,sans-Serif" font-size="10.00">vPortStartFirstTask</text>
</a>
</g>
</g>
<!-- Node2&#45;&gt;Node45 -->
<g id="edge56" class="edge"><title>Node2&#45;&gt;Node45</title>
<path fill="none" stroke="midnightblue" d="M259.015,-734.39C263.208,-731.921 266.987,-728.84 270,-725 349.991,-623.056 222.693,-242.253 306,-143 311.101,-136.922 317.775,-132.598 325.084,-129.55"/>
<polygon fill="midnightblue" stroke="midnightblue" points="326.254,-132.849 334.61,-126.337 324.016,-126.217 326.254,-132.849"/>
</g>
<!-- Node46 -->
<g id="node46" class="node"><title>Node46</title>
<g id="a_node46"><a xlink:href="_code_warrior_2_h_c_s12_2port_8c.html#aad7fc9aa6bc470c8d84a4078eb29bb96" target="_top" xlink:title="vPortYield">
<polygon fill="white" stroke="black" points="355,-76.5 355,-95.5 417,-95.5 417,-76.5 355,-76.5"/>
<text text-anchor="middle" x="386" y="-83.5" font-family="Helvetica,sans-Serif" font-size="10.00">vPortYield</text>
</a>
</g>
</g>
<!-- Node2&#45;&gt;Node46 -->
<g id="edge57" class="edge"><title>Node2&#45;&gt;Node46</title>
<path fill="none" stroke="midnightblue" d="M259.03,-734.402C263.22,-731.93 266.994,-728.845 270,-725 354.989,-616.264 217.474,-210.876 306,-105 315.466,-93.6793 330.387,-88.4379 344.724,-86.1978"/>
<polygon fill="midnightblue" stroke="midnightblue" points="345.425,-89.6415 354.974,-85.0531 344.648,-82.6847 345.425,-89.6415"/>
</g>
<!-- Node47 -->
<g id="node47" class="node"><title>Node47</title>
<g id="a_node47"><a xlink:href="_g_c_c_2_r_x600_2port_8c.html#a05b8170f6114a4798593860395d9e8fd" target="_top" xlink:title="vSoftwareInterruptISR">
<polygon fill="white" stroke="black" points="328.5,-38.5 328.5,-57.5 443.5,-57.5 443.5,-38.5 328.5,-38.5"/>
<text text-anchor="middle" x="386" y="-45.5" font-family="Helvetica,sans-Serif" font-size="10.00">vSoftwareInterruptISR</text>
</a>
</g>
</g>
<!-- Node2&#45;&gt;Node47 -->
<g id="edge58" class="edge"><title>Node2&#45;&gt;Node47</title>
<path fill="none" stroke="midnightblue" d="M259.043,-734.412C263.231,-731.938 267.001,-728.85 270,-725 359.988,-609.47 212.253,-179.501 306,-67 309.669,-62.5975 314.162,-59.1137 319.127,-56.3681"/>
<polygon fill="midnightblue" stroke="midnightblue" points="320.792,-59.4578 328.495,-52.184 317.937,-53.0663 320.792,-59.4578"/>
</g>
<!-- Node48 -->
<g id="node48" class="node"><title>Node48</title>
<g id="a_node48"><a xlink:href="porttrap_8c.html#abb81dc2f729d6c6fe39b23aa9f61e1a5" target="_top" xlink:title="vTrapInstallHandlers">
<polygon fill="white" stroke="red" points="332,-0.5 332,-19.5 440,-19.5 440,-0.5 332,-0.5"/>
<text text-anchor="middle" x="386" y="-7.5" font-family="Helvetica,sans-Serif" font-size="10.00">vTrapInstallHandlers</text>
</a>
</g>
</g>
<!-- Node2&#45;&gt;Node48 -->
<g id="edge59" class="edge"><title>Node2&#45;&gt;Node48</title>
<path fill="none" stroke="midnightblue" d="M259.055,-734.422C263.24,-731.946 267.007,-728.855 270,-725 364.988,-602.676 207.033,-148.127 306,-29 310.421,-23.6782 316.048,-19.6982 322.256,-16.7411"/>
<polygon fill="midnightblue" stroke="midnightblue" points="323.623,-19.9654 331.696,-13.1035 321.106,-13.4336 323.623,-19.9654"/>
</g>
<!-- Node49 -->
<g id="node49" class="node"><title>Node49</title>
<g id="a_node49"><a xlink:href="_code_warrior_2_h_c_s12_2port_8c.html#af6daded1e58ffe8853c8c1f71e574b1d" target="_top" xlink:title="xBankedStartScheduler">
<polygon fill="white" stroke="red" points="325,-1038.5 325,-1057.5 447,-1057.5 447,-1038.5 325,-1038.5"/>
<text text-anchor="middle" x="386" y="-1045.5" font-family="Helvetica,sans-Serif" font-size="10.00">xBankedStartScheduler</text>
</a>
</g>
</g>
<!-- Node2&#45;&gt;Node49 -->
<g id="edge60" class="edge"><title>Node2&#45;&gt;Node49</title>
<path fill="none" stroke="midnightblue" d="M209.336,-753.58C211.251,-793.088 223.886,-944.992 306,-1024 310.235,-1028.07 315.14,-1031.46 320.391,-1034.27"/>
<polygon fill="midnightblue" stroke="midnightblue" points="318.954,-1037.46 329.499,-1038.48 321.892,-1031.11 318.954,-1037.46"/>
</g>
<!-- Node7&#45;&gt;Node8 -->
<g id="edge7" class="edge"><title>Node7&#45;&gt;Node8</title>
<path fill="none" stroke="midnightblue" d="M624.166,-972C681.306,-972 779.085,-972 826.144,-972"/>
<polygon fill="midnightblue" stroke="midnightblue" points="826.437,-975.5 836.437,-972 826.437,-968.5 826.437,-975.5"/>
</g>
<!-- Node9 -->
<g id="node9" class="node"><title>Node9</title>
<g id="a_node9"><a xlink:href="_renesas_2_r_x100_2port_8c.html#a9c86137bc3c1cbffc39fff22627cb885" target="_top" xlink:title="vTaskSwitchContext">
<polygon fill="white" stroke="black" points="692.5,-1076.5 692.5,-1095.5 799.5,-1095.5 799.5,-1076.5 692.5,-1076.5"/>
<text text-anchor="middle" x="746" y="-1083.5" font-family="Helvetica,sans-Serif" font-size="10.00">vTaskSwitchContext</text>
</a>
</g>
</g>
<!-- Node7&#45;&gt;Node9 -->
<g id="edge8" class="edge"><title>Node7&#45;&gt;Node9</title>
<path fill="none" stroke="midnightblue" d="M624.278,-978.567C635.133,-981.367 646.386,-985.348 656,-991 689.413,-1010.64 718,-1046.6 733.232,-1068.2"/>
<polygon fill="midnightblue" stroke="midnightblue" points="730.375,-1070.22 738.918,-1076.49 736.147,-1066.26 730.375,-1070.22"/>
</g>
<!-- Node10&#45;&gt;Node11 -->
<g id="edge10" class="edge"><title>Node10&#45;&gt;Node11</title>
<path fill="none" stroke="midnightblue" d="M429.389,-1191.57C461.322,-1185.21 504.871,-1176.55 536.568,-1170.24"/>
<polygon fill="midnightblue" stroke="midnightblue" points="537.289,-1173.67 546.413,-1168.28 535.923,-1166.8 537.289,-1173.67"/>
</g>
<!-- Node13 -->
<g id="node13" class="node"><title>Node13</title>
<g id="a_node13"><a xlink:href="_m_p_l_a_b_2_p_i_c18_f_2port_8c.html#ac7e6fe280714dbd37e42dff8f41005c4" target="_top" xlink:title="vSerialRxISR">
<polygon fill="white" stroke="black" points="541,-1228.5 541,-1247.5 617,-1247.5 617,-1228.5 541,-1228.5"/>
<text text-anchor="middle" x="579" y="-1235.5" font-family="Helvetica,sans-Serif" font-size="10.00">vSerialRxISR</text>
</a>
</g>
</g>
<!-- Node10&#45;&gt;Node13 -->
<g id="edge14" class="edge"><title>Node10&#45;&gt;Node13</title>
<path fill="none" stroke="midnightblue" d="M429.389,-1208.43C459.406,-1214.41 499.688,-1222.42 530.741,-1228.6"/>
<polygon fill="midnightblue" stroke="midnightblue" points="530.399,-1232.1 540.89,-1230.62 531.765,-1225.23 530.399,-1232.1"/>
</g>
<!-- Node14 -->
<g id="node14" class="node"><title>Node14</title>
<g id="a_node14"><a xlink:href="_m_p_l_a_b_2_p_i_c18_f_2port_8c.html#aca258f7ba02e25e54c401721007de5a9" target="_top" xlink:title="vSerialTxISR">
<polygon fill="white" stroke="black" points="541.5,-1190.5 541.5,-1209.5 616.5,-1209.5 616.5,-1190.5 541.5,-1190.5"/>
<text text-anchor="middle" x="579" y="-1197.5" font-family="Helvetica,sans-Serif" font-size="10.00">vSerialTxISR</text>
</a>
</g>
</g>
<!-- Node10&#45;&gt;Node14 -->
<g id="edge15" class="edge"><title>Node10&#45;&gt;Node14</title>
<path fill="none" stroke="midnightblue" d="M429.389,-1200C459.505,-1200 499.953,-1200 531.047,-1200"/>
<polygon fill="midnightblue" stroke="midnightblue" points="531.205,-1203.5 541.205,-1200 531.205,-1196.5 531.205,-1203.5"/>
</g>
<!-- Node11&#45;&gt;Node9 -->
<g id="edge11" class="edge"><title>Node11&#45;&gt;Node9</title>
<path fill="none" stroke="midnightblue" d="M611.812,-1156.46C625.718,-1153.43 642.014,-1149.03 656,-1143 681.107,-1132.17 707.142,-1114.63 724.517,-1101.87"/>
<polygon fill="midnightblue" stroke="midnightblue" points="726.86,-1104.49 732.763,-1095.69 722.662,-1098.88 726.86,-1104.49"/>
</g>
<!-- Node12 -->
<g id="node12" class="node"><title>Node12</title>
<g id="a_node12"><a xlink:href="task_8h.html#a978e25460ac35706f9ad30b46d9403d8" target="_top" xlink:title="xTaskIncrementTick">
<polygon fill="white" stroke="red" points="693,-1209.5 693,-1228.5 799,-1228.5 799,-1209.5 693,-1209.5"/>
<text text-anchor="middle" x="746" y="-1216.5" font-family="Helvetica,sans-Serif" font-size="10.00">xTaskIncrementTick</text>
</a>
</g>
</g>
<!-- Node11&#45;&gt;Node12 -->
<g id="edge12" class="edge"><title>Node11&#45;&gt;Node12</title>
<path fill="none" stroke="midnightblue" d="M611.753,-1168.75C625.501,-1171.98 641.69,-1176.19 656,-1181 676.368,-1187.85 698.599,-1197.34 715.747,-1205.12"/>
<polygon fill="midnightblue" stroke="midnightblue" points="714.657,-1208.47 725.204,-1209.47 717.584,-1202.11 714.657,-1208.47"/>
</g>
<!-- Node12&#45;&gt;Node8 -->
<g id="edge13" class="edge"><title>Node12&#45;&gt;Node8</title>
<path fill="none" stroke="midnightblue" d="M751.723,-1209.32C761.216,-1189.77 783.144,-1144.08 800,-1105 817.304,-1064.88 835.833,-1017.15 845.746,-991.176"/>
<polygon fill="midnightblue" stroke="midnightblue" points="849.045,-992.347 849.327,-981.756 842.502,-989.859 849.045,-992.347"/>
</g>
<!-- Node15&#45;&gt;Node12 -->
<g id="edge17" class="edge"><title>Node15&#45;&gt;Node12</title>
<path fill="none" stroke="midnightblue" d="M631.873,-1304.46C640.182,-1301.97 648.505,-1298.86 656,-1295 685.18,-1279.96 712.976,-1253.63 729.514,-1236.26"/>
<polygon fill="midnightblue" stroke="midnightblue" points="732.445,-1238.24 736.685,-1228.53 727.315,-1233.48 732.445,-1238.24"/>
</g>
<!-- Node19 -->
<g id="node19" class="node"><title>Node19</title>
<g id="a_node19"><a xlink:href="_i_a_r_2_v850_e_s_2portmacro_8h.html#a716d176e9130fa97ac875a31e7453605" target="_top" xlink:title="portRESTORE_CONTEXT">
<polygon fill="white" stroke="black" points="511.5,-1000.5 511.5,-1019.5 646.5,-1019.5 646.5,-1000.5 511.5,-1000.5"/>
<text text-anchor="middle" x="579" y="-1007.5" font-family="Helvetica,sans-Serif" font-size="10.00">portRESTORE_CONTEXT</text>
</a>
</g>
</g>
<!-- Node18&#45;&gt;Node19 -->
<g id="edge21" class="edge"><title>Node18&#45;&gt;Node19</title>
<path fill="none" stroke="midnightblue" d="M421.669,-1082.09C436.092,-1079.37 452.567,-1074.77 466,-1067 486.14,-1055.36 481.912,-1040.73 502,-1029 505.87,-1026.74 510.003,-1024.75 514.267,-1022.99"/>
<polygon fill="midnightblue" stroke="midnightblue" points="515.578,-1026.24 523.76,-1019.51 513.166,-1019.66 515.578,-1026.24"/>
</g>
<!-- Node20 -->
<g id="node20" class="node"><title>Node20</title>
<g id="a_node20"><a xlink:href="_i_a_r_2_v850_e_s_2portmacro_8h.html#ad79a8b96e1489f7f0645e8d57360337d" target="_top" xlink:title="portSAVE_CONTEXT">
<polygon fill="white" stroke="black" points="522,-1038.5 522,-1057.5 636,-1057.5 636,-1038.5 522,-1038.5"/>
<text text-anchor="middle" x="579" y="-1045.5" font-family="Helvetica,sans-Serif" font-size="10.00">portSAVE_CONTEXT</text>
</a>
</g>
</g>
<!-- Node18&#45;&gt;Node20 -->
<g id="edge22" class="edge"><title>Node18&#45;&gt;Node20</title>
<path fill="none" stroke="midnightblue" d="M421.589,-1079.12C448.944,-1073.68 487.742,-1065.96 519.853,-1059.57"/>
<polygon fill="midnightblue" stroke="midnightblue" points="520.895,-1062.93 530.02,-1057.55 519.53,-1056.06 520.895,-1062.93"/>
</g>
<!-- Node18&#45;&gt;Node9 -->
<g id="edge23" class="edge"><title>Node18&#45;&gt;Node9</title>
<path fill="none" stroke="midnightblue" d="M421.652,-1086C481.734,-1086 606.064,-1086 681.841,-1086"/>
<polygon fill="midnightblue" stroke="midnightblue" points="682.2,-1089.5 692.2,-1086 682.2,-1082.5 682.2,-1089.5"/>
</g>
<!-- Node21&#45;&gt;Node8 -->
<g id="edge25" class="edge"><title>Node21&#45;&gt;Node8</title>
<path fill="none" stroke="midnightblue" d="M648.537,-943.54C706.243,-951.572 785.704,-962.633 826.49,-968.31"/>
<polygon fill="midnightblue" stroke="midnightblue" points="826.067,-971.785 836.454,-969.697 827.032,-964.852 826.067,-971.785"/>
</g>
<!-- Node21&#45;&gt;Node9 -->
<g id="edge26" class="edge"><title>Node21&#45;&gt;Node9</title>
<path fill="none" stroke="midnightblue" d="M637.63,-943.509C644.149,-945.979 650.438,-949.088 656,-953 697.49,-982.185 725.068,-1037.39 737.475,-1066.66"/>
<polygon fill="midnightblue" stroke="midnightblue" points="734.338,-1068.23 741.357,-1076.17 740.819,-1065.59 734.338,-1068.23"/>
</g>
<!-- Node22&#45;&gt;Node12 -->
<g id="edge28" class="edge"><title>Node22&#45;&gt;Node12</title>
<path fill="none" stroke="midnightblue" d="M623.35,-1266.42C634.115,-1263.7 645.558,-1260.51 656,-1257 676.368,-1250.15 698.599,-1240.66 715.747,-1232.88"/>
<polygon fill="midnightblue" stroke="midnightblue" points="717.584,-1235.89 725.204,-1228.53 714.657,-1229.53 717.584,-1235.89"/>
</g>
<!-- Node26 -->
<g id="node26" class="node"><title>Node26</title>
<g id="a_node26"><a xlink:href="_g_c_c_2_a_r_m___c_m3___m_p_u_2port_8c.html#ad888bf94e92ca9b4cf8e14d863d89c58" target="_top" xlink:title="prvGetMPURegionSizeSetting">
<polygon fill="white" stroke="black" points="503.5,-734.5 503.5,-753.5 654.5,-753.5 654.5,-734.5 503.5,-734.5"/>
<text text-anchor="middle" x="579" y="-741.5" font-family="Helvetica,sans-Serif" font-size="10.00">prvGetMPURegionSizeSetting</text>
</a>
</g>
</g>
<!-- Node25&#45;&gt;Node26 -->
<g id="edge32" class="edge"><title>Node25&#45;&gt;Node26</title>
<path fill="none" stroke="midnightblue" d="M425.652,-744C445.205,-744 469.756,-744 493.404,-744"/>
<polygon fill="midnightblue" stroke="midnightblue" points="493.466,-747.5 503.466,-744 493.466,-740.5 493.466,-747.5"/>
</g>
<!-- Node30 -->
<g id="node30" class="node"><title>Node30</title>
<g id="a_node30"><a xlink:href="_m_s_v_c-_ming_w_2port_8c.html#ae18099e835a03c7c5dfe13da9c102bd7" target="_top" xlink:title="prvEndProcess">
<polygon fill="white" stroke="black" points="704,-905.5 704,-924.5 788,-924.5 788,-905.5 704,-905.5"/>
<text text-anchor="middle" x="746" y="-912.5" font-family="Helvetica,sans-Serif" font-size="10.00">prvEndProcess</text>
</a>
</g>
</g>
<!-- Node29&#45;&gt;Node30 -->
<g id="edge36" class="edge"><title>Node29&#45;&gt;Node30</title>
<path fill="none" stroke="midnightblue" d="M652.371,-904.334C666.309,-905.939 680.639,-907.589 693.737,-909.097"/>
<polygon fill="midnightblue" stroke="midnightblue" points="693.61,-912.605 703.945,-910.272 694.411,-905.651 693.61,-912.605"/>
</g>
<!-- Node29&#45;&gt;Node8 -->
<g id="edge38" class="edge"><title>Node29&#45;&gt;Node8</title>
<path fill="none" stroke="midnightblue" d="M615.513,-886.449C661.082,-876.242 741.249,-865.345 800,-896 822.757,-907.874 837.736,-934.474 845.792,-952.828"/>
<polygon fill="midnightblue" stroke="midnightblue" points="842.628,-954.337 849.651,-962.269 849.107,-951.689 842.628,-954.337"/>
</g>
<!-- Node30&#45;&gt;Node8 -->
<g id="edge37" class="edge"><title>Node30&#45;&gt;Node8</title>
<path fill="none" stroke="midnightblue" d="M769.753,-924.517C779.242,-928.687 790.291,-933.808 800,-939 810.036,-944.367 820.756,-950.883 829.91,-956.702"/>
<polygon fill="midnightblue" stroke="midnightblue" points="828.159,-959.738 838.458,-962.221 831.955,-953.857 828.159,-959.738"/>
</g>
<!-- Node33&#45;&gt;Node9 -->
<g id="edge43" class="edge"><title>Node33&#45;&gt;Node9</title>
<path fill="none" stroke="midnightblue" d="M615.803,-1115.75C638.645,-1110.49 668.61,-1103.59 693.931,-1097.76"/>
<polygon fill="midnightblue" stroke="midnightblue" points="694.782,-1101.16 703.741,-1095.5 693.211,-1094.34 694.782,-1101.16"/>
</g>
<!-- Node49&#45;&gt;Node19 -->
<g id="edge61" class="edge"><title>Node49&#45;&gt;Node19</title>
<path fill="none" stroke="midnightblue" d="M435.197,-1038.41C460.97,-1033.28 492.891,-1026.93 520.012,-1021.54"/>
<polygon fill="midnightblue" stroke="midnightblue" points="521.024,-1024.9 530.149,-1019.52 519.658,-1018.04 521.024,-1024.9"/>
</g>
</g>
</svg>
