<?xml version="1.0" encoding="UTF-8" standalone="no"?>
<!DOCTYPE svg PUBLIC "-//W3C//DTD SVG 1.1//EN"
 "http://www.w3.org/Graphics/SVG/1.1/DTD/svg11.dtd">
<!-- Generated by graphviz version 2.30.1 (20130221.2233)
 -->
<!-- Title: prvInitialiseTCBVariables Pages: 1 -->
<svg width="504pt" height="104pt"
 viewBox="0.00 0.00 504.00 104.00" xmlns="http://www.w3.org/2000/svg" xmlns:xlink="http://www.w3.org/1999/xlink">
<g id="graph0" class="graph" transform="scale(1 1) rotate(0) translate(4 100)">
<title>prvInitialiseTCBVariables</title>
<polygon fill="white" stroke="white" points="-4,5 -4,-100 501,-100 501,5 -4,5"/>
<!-- Node1 -->
<g id="node1" class="node"><title>Node1</title>
<polygon fill="#bfbfbf" stroke="black" points="0,-38.5 0,-57.5 128,-57.5 128,-38.5 0,-38.5"/>
<text text-anchor="middle" x="64" y="-45.5" font-family="Helvetica,sans-Serif" font-size="10.00">prvInitialiseTCBVariables</text>
</g>
<!-- Node2 -->
<g id="node2" class="node"><title>Node2</title>
<g id="a_node2"><a xlink:href="list_8h.html#ab91611baae53be209a05d211f55f5395" target="_top" xlink:title="vListInitialiseItem">
<polygon fill="white" stroke="black" points="189.5,-76.5 189.5,-95.5 282.5,-95.5 282.5,-76.5 189.5,-76.5"/>
<text text-anchor="middle" x="236" y="-83.5" font-family="Helvetica,sans-Serif" font-size="10.00">vListInitialiseItem</text>
</a>
</g>
</g>
<!-- Node1&#45;&gt;Node2 -->
<g id="edge1" class="edge"><title>Node1&#45;&gt;Node2</title>
<path fill="none" stroke="midnightblue" d="M107.898,-57.589C130.534,-62.6487 158.498,-68.8996 182.429,-74.2488"/>
<polygon fill="midnightblue" stroke="midnightblue" points="181.888,-77.7141 192.41,-76.4799 183.415,-70.8827 181.888,-77.7141"/>
</g>
<!-- Node3 -->
<g id="node3" class="node"><title>Node3</title>
<g id="a_node3"><a xlink:href="_paradigm_2_tern___e_e_2small_2portmacro_8h.html#a14d32f8130d3c0b212cfc751730b5b49" target="_top" xlink:title="void">
<polygon fill="white" stroke="black" points="218.5,-38.5 218.5,-57.5 253.5,-57.5 253.5,-38.5 218.5,-38.5"/>
<text text-anchor="middle" x="236" y="-45.5" font-family="Helvetica,sans-Serif" font-size="10.00">void</text>
</a>
</g>
</g>
<!-- Node1&#45;&gt;Node3 -->
<g id="edge2" class="edge"><title>Node1&#45;&gt;Node3</title>
<path fill="none" stroke="midnightblue" d="M128.302,-48C155.795,-48 186.533,-48 207.93,-48"/>
<polygon fill="midnightblue" stroke="midnightblue" points="208.2,-51.5001 218.2,-48 208.2,-44.5001 208.2,-51.5001"/>
</g>
<!-- Node4 -->
<g id="node4" class="node"><title>Node4</title>
<g id="a_node4"><a xlink:href="_g_c_c_2_a_r_m___c_m3___m_p_u_2port_8c.html#a761732f8e4da23f369a8d3cdc9d5dd9d" target="_top" xlink:title="vPortStoreTaskMPUSettings">
<polygon fill="white" stroke="black" points="164,-0.5 164,-19.5 308,-19.5 308,-0.5 164,-0.5"/>
<text text-anchor="middle" x="236" y="-7.5" font-family="Helvetica,sans-Serif" font-size="10.00">vPortStoreTaskMPUSettings</text>
</a>
</g>
</g>
<!-- Node1&#45;&gt;Node4 -->
<g id="edge3" class="edge"><title>Node1&#45;&gt;Node4</title>
<path fill="none" stroke="midnightblue" d="M107.898,-38.411C130.534,-33.3513 158.498,-27.1004 182.429,-21.7512"/>
<polygon fill="midnightblue" stroke="midnightblue" points="183.415,-25.1173 192.41,-19.5201 181.888,-18.2859 183.415,-25.1173"/>
</g>
<!-- Node5 -->
<g id="node5" class="node"><title>Node5</title>
<g id="a_node5"><a xlink:href="_g_c_c_2_a_r_m___c_m3___m_p_u_2port_8c.html#ad888bf94e92ca9b4cf8e14d863d89c58" target="_top" xlink:title="prvGetMPURegionSizeSetting">
<polygon fill="white" stroke="black" points="344.5,-0.5 344.5,-19.5 495.5,-19.5 495.5,-0.5 344.5,-0.5"/>
<text text-anchor="middle" x="420" y="-7.5" font-family="Helvetica,sans-Serif" font-size="10.00">prvGetMPURegionSizeSetting</text>
</a>
</g>
</g>
<!-- Node4&#45;&gt;Node5 -->
<g id="edge4" class="edge"><title>Node4&#45;&gt;Node5</title>
<path fill="none" stroke="midnightblue" d="M308.148,-10C316.675,-10 325.447,-10 334.144,-10"/>
<polygon fill="midnightblue" stroke="midnightblue" points="334.299,-13.5001 344.299,-10 334.299,-6.5001 334.299,-13.5001"/>
</g>
</g>
</svg>
