<?xml version="1.0" encoding="UTF-8" standalone="no"?>
<!DOCTYPE svg PUBLIC "-//W3C//DTD SVG 1.1//EN"
 "http://www.w3.org/Graphics/SVG/1.1/DTD/svg11.dtd">
<!-- Generated by graphviz version 2.30.1 (20130221.2233)
 -->
<!-- Title: vTaskPlaceOnUnorderedEventList Pages: 1 -->
<svg width="480pt" height="104pt"
 viewBox="0.00 0.00 480.00 104.00" xmlns="http://www.w3.org/2000/svg" xmlns:xlink="http://www.w3.org/1999/xlink">
<g id="graph0" class="graph" transform="scale(1 1) rotate(0) translate(4 100)">
<title>vTaskPlaceOnUnorderedEventList</title>
<polygon fill="white" stroke="white" points="-4,5 -4,-100 477,-100 477,5 -4,5"/>
<!-- Node1 -->
<g id="node1" class="node"><title>Node1</title>
<polygon fill="#bfbfbf" stroke="black" points="0,-38.5 0,-57.5 170,-57.5 170,-38.5 0,-38.5"/>
<text text-anchor="middle" x="85" y="-45.5" font-family="Helvetica,sans-Serif" font-size="10.00">vTaskPlaceOnUnorderedEventList</text>
</g>
<!-- Node2 -->
<g id="node2" class="node"><title>Node2</title>
<g id="a_node2"><a xlink:href="tasks_8c.html#a7859bfaa75a7c5524dd45b89036f1233" target="_top" xlink:title="prvAddCurrentTaskToDelayedList">
<polygon fill="white" stroke="black" points="206.5,-76.5 206.5,-95.5 373.5,-95.5 373.5,-76.5 206.5,-76.5"/>
<text text-anchor="middle" x="290" y="-83.5" font-family="Helvetica,sans-Serif" font-size="10.00">prvAddCurrentTaskToDelayedList</text>
</a>
</g>
</g>
<!-- Node1&#45;&gt;Node2 -->
<g id="edge1" class="edge"><title>Node1&#45;&gt;Node2</title>
<path fill="none" stroke="midnightblue" d="M136.963,-57.54C164.594,-62.7122 198.933,-69.1401 227.981,-74.5778"/>
<polygon fill="midnightblue" stroke="midnightblue" points="227.542,-78.0563 238.016,-76.4561 228.83,-71.1758 227.542,-78.0563"/>
</g>
<!-- Node4 -->
<g id="node4" class="node"><title>Node4</title>
<g id="a_node4"><a xlink:href="list_8h.html#a2eb1558482076fff8cafc63419c2d34a" target="_top" xlink:title="uxListRemove">
<polygon fill="white" stroke="black" points="250,-38.5 250,-57.5 330,-57.5 330,-38.5 250,-38.5"/>
<text text-anchor="middle" x="290" y="-45.5" font-family="Helvetica,sans-Serif" font-size="10.00">uxListRemove</text>
</a>
</g>
</g>
<!-- Node1&#45;&gt;Node4 -->
<g id="edge3" class="edge"><title>Node1&#45;&gt;Node4</title>
<path fill="none" stroke="midnightblue" d="M170.033,-48C193.734,-48 218.745,-48 239.685,-48"/>
<polygon fill="midnightblue" stroke="midnightblue" points="239.924,-51.5001 249.924,-48 239.924,-44.5001 239.924,-51.5001"/>
</g>
<!-- Node5 -->
<g id="node5" class="node"><title>Node5</title>
<g id="a_node5"><a xlink:href="list_8h.html#a71a6a6099b3cbd8f90539aabe5c9e572" target="_top" xlink:title="vListInsertEnd">
<polygon fill="white" stroke="black" points="250,-0.5 250,-19.5 330,-19.5 330,-0.5 250,-0.5"/>
<text text-anchor="middle" x="290" y="-7.5" font-family="Helvetica,sans-Serif" font-size="10.00">vListInsertEnd</text>
</a>
</g>
</g>
<!-- Node1&#45;&gt;Node5 -->
<g id="edge4" class="edge"><title>Node1&#45;&gt;Node5</title>
<path fill="none" stroke="midnightblue" d="M136.963,-38.46C168.408,-32.5739 208.54,-25.0615 239.676,-19.2331"/>
<polygon fill="midnightblue" stroke="midnightblue" points="240.679,-22.6062 249.864,-17.3259 239.391,-15.7257 240.679,-22.6062"/>
</g>
<!-- Node3 -->
<g id="node3" class="node"><title>Node3</title>
<g id="a_node3"><a xlink:href="list_8h.html#aa129290da5cbda47dffb7bf877b2f02a" target="_top" xlink:title="vListInsert">
<polygon fill="white" stroke="black" points="410,-76.5 410,-95.5 472,-95.5 472,-76.5 410,-76.5"/>
<text text-anchor="middle" x="441" y="-83.5" font-family="Helvetica,sans-Serif" font-size="10.00">vListInsert</text>
</a>
</g>
</g>
<!-- Node2&#45;&gt;Node3 -->
<g id="edge2" class="edge"><title>Node2&#45;&gt;Node3</title>
<path fill="none" stroke="midnightblue" d="M373.779,-86C382.721,-86 391.502,-86 399.598,-86"/>
<polygon fill="midnightblue" stroke="midnightblue" points="399.803,-89.5001 409.803,-86 399.803,-82.5001 399.803,-89.5001"/>
</g>
</g>
</svg>
