<?xml version="1.0" encoding="UTF-8" standalone="no"?>
<!DOCTYPE svg PUBLIC "-//W3C//DTD SVG 1.1//EN"
 "http://www.w3.org/Graphics/SVG/1.1/DTD/svg11.dtd">
<!-- Generated by graphviz version 2.30.1 (20130221.2233)
 -->
<!-- Title: xTaskCheckForTimeOut Pages: 1 -->
<svg width="480pt" height="66pt"
 viewBox="0.00 0.00 480.00 66.00" xmlns="http://www.w3.org/2000/svg" xmlns:xlink="http://www.w3.org/1999/xlink">
<g id="graph0" class="graph" transform="scale(1 1) rotate(0) translate(4 62)">
<title>xTaskCheckForTimeOut</title>
<polygon fill="white" stroke="white" points="-4,5 -4,-62 477,-62 477,5 -4,5"/>
<!-- Node1 -->
<g id="node1" class="node"><title>Node1</title>
<polygon fill="#bfbfbf" stroke="black" points="0.5,-19.5 0.5,-38.5 125.5,-38.5 125.5,-19.5 0.5,-19.5"/>
<text text-anchor="middle" x="63" y="-26.5" font-family="Helvetica,sans-Serif" font-size="10.00">xTaskCheckForTimeOut</text>
</g>
<!-- Node2 -->
<g id="node2" class="node"><title>Node2</title>
<g id="a_node2"><a xlink:href="queue_8c.html#ace632b55c3955bacae20978e261129a6" target="_top" xlink:title="xQueueGenericReceive">
<polygon fill="white" stroke="black" points="162.5,-38.5 162.5,-57.5 285.5,-57.5 285.5,-38.5 162.5,-38.5"/>
<text text-anchor="middle" x="224" y="-45.5" font-family="Helvetica,sans-Serif" font-size="10.00">xQueueGenericReceive</text>
</a>
</g>
</g>
<!-- Node1&#45;&gt;Node2 -->
<g id="edge1" class="edge"><title>Node1&#45;&gt;Node2</title>
<path fill="none" stroke="midnightblue" d="M136.115,-37.6175C144.861,-38.6626 153.727,-39.722 162.285,-40.7447"/>
<polygon fill="midnightblue" stroke="midnightblue" points="136.274,-34.1116 125.929,-36.4003 135.443,-41.0622 136.274,-34.1116"/>
</g>
<!-- Node4 -->
<g id="node4" class="node"><title>Node4</title>
<g id="a_node4"><a xlink:href="queue_8c.html#acb67c81366c00896b21cd826e07d885d" target="_top" xlink:title="xQueueGenericSend">
<polygon fill="white" stroke="black" points="169,-0.5 169,-19.5 279,-19.5 279,-0.5 169,-0.5"/>
<text text-anchor="middle" x="224" y="-7.5" font-family="Helvetica,sans-Serif" font-size="10.00">xQueueGenericSend</text>
</a>
</g>
</g>
<!-- Node1&#45;&gt;Node4 -->
<g id="edge3" class="edge"><title>Node1&#45;&gt;Node4</title>
<path fill="none" stroke="midnightblue" d="M136.027,-20.393C147.111,-19.0686 158.389,-17.7208 168.991,-16.4539"/>
<polygon fill="midnightblue" stroke="midnightblue" points="135.443,-16.9378 125.929,-21.5997 136.274,-23.8884 135.443,-16.9378"/>
</g>
<!-- Node3 -->
<g id="node3" class="node"><title>Node3</title>
<g id="a_node3"><a xlink:href="_g_c_c_2_a_r_m___c_m3___m_p_u_2port_8c.html#a11f6f4ba0b7f2612c09d7494aa695297" target="_top" xlink:title="MPU_xQueueGenericReceive">
<polygon fill="white" stroke="black" points="322,-38.5 322,-57.5 472,-57.5 472,-38.5 322,-38.5"/>
<text text-anchor="middle" x="397" y="-45.5" font-family="Helvetica,sans-Serif" font-size="10.00">MPU_xQueueGenericReceive</text>
</a>
</g>
</g>
<!-- Node2&#45;&gt;Node3 -->
<g id="edge2" class="edge"><title>Node2&#45;&gt;Node3</title>
<path fill="none" stroke="midnightblue" d="M295.79,-48C304.426,-48 313.267,-48 321.949,-48"/>
<polygon fill="midnightblue" stroke="midnightblue" points="295.77,-44.5001 285.77,-48 295.77,-51.5001 295.77,-44.5001"/>
</g>
<!-- Node5 -->
<g id="node5" class="node"><title>Node5</title>
<g id="a_node5"><a xlink:href="_g_c_c_2_a_r_m___c_m3___m_p_u_2port_8c.html#afec3801d053a850488cda14b0cad95fd" target="_top" xlink:title="MPU_xQueueGenericSend">
<polygon fill="white" stroke="black" points="328,-0.5 328,-19.5 466,-19.5 466,-0.5 328,-0.5"/>
<text text-anchor="middle" x="397" y="-7.5" font-family="Helvetica,sans-Serif" font-size="10.00">MPU_xQueueGenericSend</text>
</a>
</g>
</g>
<!-- Node4&#45;&gt;Node5 -->
<g id="edge4" class="edge"><title>Node4&#45;&gt;Node5</title>
<path fill="none" stroke="midnightblue" d="M289.454,-10C301.983,-10 315.156,-10 327.802,-10"/>
<polygon fill="midnightblue" stroke="midnightblue" points="289.106,-6.5001 279.105,-10 289.105,-13.5001 289.106,-6.5001"/>
</g>
</g>
</svg>
