<?xml version="1.0" encoding="UTF-8" standalone="no"?>
<!DOCTYPE svg PUBLIC "-//W3C//DTD SVG 1.1//EN"
 "http://www.w3.org/Graphics/SVG/1.1/DTD/svg11.dtd">
<!-- Generated by graphviz version 2.30.1 (20130221.2233)
 -->
<!-- Title: pvTaskIncrementMutexHeldCount Pages: 1 -->
<svg width="496pt" height="38pt"
 viewBox="0.00 0.00 496.00 38.00" xmlns="http://www.w3.org/2000/svg" xmlns:xlink="http://www.w3.org/1999/xlink">
<g id="graph0" class="graph" transform="scale(1 1) rotate(0) translate(4 34)">
<title>pvTaskIncrementMutexHeldCount</title>
<polygon fill="white" stroke="white" points="-4,5 -4,-34 493,-34 493,5 -4,5"/>
<!-- Node1 -->
<g id="node1" class="node"><title>Node1</title>
<polygon fill="#bfbfbf" stroke="black" points="0.5,-0 0.5,-30 141.5,-30 141.5,-0 0.5,-0"/>
<text text-anchor="start" x="8.5" y="-18" font-family="Helvetica,sans-Serif" font-size="10.00">pvTaskIncrementMutexHeld</text>
<text text-anchor="middle" x="71" y="-7" font-family="Helvetica,sans-Serif" font-size="10.00">Count</text>
</g>
<!-- Node2 -->
<g id="node2" class="node"><title>Node2</title>
<g id="a_node2"><a xlink:href="queue_8c.html#ace632b55c3955bacae20978e261129a6" target="_top" xlink:title="xQueueGenericReceive">
<polygon fill="white" stroke="black" points="178.5,-5.5 178.5,-24.5 301.5,-24.5 301.5,-5.5 178.5,-5.5"/>
<text text-anchor="middle" x="240" y="-12.5" font-family="Helvetica,sans-Serif" font-size="10.00">xQueueGenericReceive</text>
</a>
</g>
</g>
<!-- Node1&#45;&gt;Node2 -->
<g id="edge1" class="edge"><title>Node1&#45;&gt;Node2</title>
<path fill="none" stroke="midnightblue" d="M151.894,-15C160.825,-15 169.812,-15 178.444,-15"/>
<polygon fill="midnightblue" stroke="midnightblue" points="151.855,-11.5001 141.855,-15 151.855,-18.5001 151.855,-11.5001"/>
</g>
<!-- Node3 -->
<g id="node3" class="node"><title>Node3</title>
<g id="a_node3"><a xlink:href="_g_c_c_2_a_r_m___c_m3___m_p_u_2port_8c.html#a11f6f4ba0b7f2612c09d7494aa695297" target="_top" xlink:title="MPU_xQueueGenericReceive">
<polygon fill="white" stroke="black" points="338,-5.5 338,-24.5 488,-24.5 488,-5.5 338,-5.5"/>
<text text-anchor="middle" x="413" y="-12.5" font-family="Helvetica,sans-Serif" font-size="10.00">MPU_xQueueGenericReceive</text>
</a>
</g>
</g>
<!-- Node2&#45;&gt;Node3 -->
<g id="edge2" class="edge"><title>Node2&#45;&gt;Node3</title>
<path fill="none" stroke="midnightblue" d="M311.79,-15C320.426,-15 329.267,-15 337.949,-15"/>
<polygon fill="midnightblue" stroke="midnightblue" points="311.77,-11.5001 301.77,-15 311.77,-18.5001 311.77,-11.5001"/>
</g>
</g>
</svg>
