<?xml version="1.0" encoding="UTF-8" standalone="no"?>
<!DOCTYPE svg PUBLIC "-//W3C//DTD SVG 1.1//EN"
 "http://www.w3.org/Graphics/SVG/1.1/DTD/svg11.dtd">
<!-- Generated by graphviz version 2.30.1 (20130221.2233)
 -->
<!-- Title: xTaskResumeAll Pages: 1 -->
<svg width="358pt" height="75pt"
 viewBox="0.00 0.00 358.00 75.00" xmlns="http://www.w3.org/2000/svg" xmlns:xlink="http://www.w3.org/1999/xlink">
<g id="graph0" class="graph" transform="scale(1 1) rotate(0) translate(4 71)">
<title>xTaskResumeAll</title>
<polygon fill="white" stroke="white" points="-4,5 -4,-71 355,-71 355,5 -4,5"/>
<!-- Node1 -->
<g id="node1" class="node"><title>Node1</title>
<polygon fill="#bfbfbf" stroke="black" points="0,-28.5 0,-47.5 92,-47.5 92,-28.5 0,-28.5"/>
<text text-anchor="middle" x="46" y="-35.5" font-family="Helvetica,sans-Serif" font-size="10.00">xTaskResumeAll</text>
</g>
<!-- Node2 -->
<g id="node2" class="node"><title>Node2</title>
<g id="a_node2"><a xlink:href="list_8h.html#a2eb1558482076fff8cafc63419c2d34a" target="_top" xlink:title="uxListRemove">
<polygon fill="white" stroke="black" points="270,-47.5 270,-66.5 350,-66.5 350,-47.5 270,-47.5"/>
<text text-anchor="middle" x="310" y="-54.5" font-family="Helvetica,sans-Serif" font-size="10.00">uxListRemove</text>
</a>
</g>
</g>
<!-- Node1&#45;&gt;Node2 -->
<g id="edge1" class="edge"><title>Node1&#45;&gt;Node2</title>
<path fill="none" stroke="midnightblue" d="M79.8,-47.5069C94.417,-51.2713 111.93,-55.1405 128,-57 172.179,-62.1121 222.83,-61.5718 259.295,-60.0664"/>
<polygon fill="midnightblue" stroke="midnightblue" points="259.827,-63.546 269.659,-59.5969 259.511,-56.5531 259.827,-63.546"/>
</g>
<!-- Node3 -->
<g id="node3" class="node"><title>Node3</title>
<g id="a_node3"><a xlink:href="_paradigm_2_tern___e_e_2small_2portmacro_8h.html#a14d32f8130d3c0b212cfc751730b5b49" target="_top" xlink:title="void">
<polygon fill="white" stroke="black" points="292.5,-0.5 292.5,-19.5 327.5,-19.5 327.5,-0.5 292.5,-0.5"/>
<text text-anchor="middle" x="310" y="-7.5" font-family="Helvetica,sans-Serif" font-size="10.00">void</text>
</a>
</g>
</g>
<!-- Node1&#45;&gt;Node3 -->
<g id="edge2" class="edge"><title>Node1&#45;&gt;Node3</title>
<path fill="none" stroke="midnightblue" d="M81.4264,-28.4749C95.7231,-24.8993 112.553,-21.1775 128,-19 182.491,-11.3187 247.013,-9.93232 282.423,-9.8248"/>
<polygon fill="midnightblue" stroke="midnightblue" points="282.434,-13.3247 292.434,-9.82694 282.435,-6.32471 282.434,-13.3247"/>
</g>
<!-- Node4 -->
<g id="node4" class="node"><title>Node4</title>
<g id="a_node4"><a xlink:href="tasks_8c.html#a54f31e9aef0eb7b87e48c7d68ecc84c1" target="_top" xlink:title="xTaskIncrementTick">
<polygon fill="white" stroke="black" points="128,-28.5 128,-47.5 234,-47.5 234,-28.5 128,-28.5"/>
<text text-anchor="middle" x="181" y="-35.5" font-family="Helvetica,sans-Serif" font-size="10.00">xTaskIncrementTick</text>
</a>
</g>
</g>
<!-- Node1&#45;&gt;Node4 -->
<g id="edge3" class="edge"><title>Node1&#45;&gt;Node4</title>
<path fill="none" stroke="midnightblue" d="M92.0277,-38C100.261,-38 108.986,-38 117.618,-38"/>
<polygon fill="midnightblue" stroke="midnightblue" points="117.674,-41.5001 127.674,-38 117.673,-34.5001 117.674,-41.5001"/>
</g>
<!-- Node4&#45;&gt;Node3 -->
<g id="edge4" class="edge"><title>Node4&#45;&gt;Node3</title>
<path fill="none" stroke="midnightblue" d="M225.351,-28.4423C244.214,-24.2836 265.722,-19.5415 282.206,-15.9074"/>
<polygon fill="midnightblue" stroke="midnightblue" points="283.222,-19.2675 292.234,-13.6965 281.715,-12.4317 283.222,-19.2675"/>
</g>
<!-- Node4&#45;&gt;Node2 -->
<g id="edge5" class="edge"><title>Node4&#45;&gt;Node2</title>
<path fill="none" stroke="midnightblue" d="M234.022,-45.7828C242.496,-47.0506 251.252,-48.3605 259.659,-49.6183"/>
<polygon fill="midnightblue" stroke="midnightblue" points="259.291,-53.102 269.698,-51.1202 260.326,-46.1791 259.291,-53.102"/>
</g>
</g>
</svg>
