<?xml version="1.0" encoding="UTF-8" standalone="no"?>
<!DOCTYPE svg PUBLIC "-//W3C//DTD SVG 1.1//EN"
 "http://www.w3.org/Graphics/SVG/1.1/DTD/svg11.dtd">
<!-- Generated by graphviz version 2.30.1 (20130221.2233)
 -->
<!-- Title: source/include/timers.h Pages: 1 -->
<svg width="502pt" height="152pt"
 viewBox="0.00 0.00 502.00 152.00" xmlns="http://www.w3.org/2000/svg" xmlns:xlink="http://www.w3.org/1999/xlink">
<g id="graph0" class="graph" transform="scale(1 1) rotate(0) translate(4 148)">
<title>source/include/timers.h</title>
<polygon fill="white" stroke="white" points="-4,5 -4,-148 499,-148 499,5 -4,5"/>
<!-- Node1 -->
<g id="node1" class="node"><title>Node1</title>
<polygon fill="#bfbfbf" stroke="black" points="173.5,-124.5 173.5,-143.5 292.5,-143.5 292.5,-124.5 173.5,-124.5"/>
<text text-anchor="middle" x="233" y="-131.5" font-family="Helvetica,sans-Serif" font-size="10.00">source/include/timers.h</text>
</g>
<!-- Node2 -->
<g id="node2" class="node"><title>Node2</title>
<g id="a_node2"><a xlink:href="event__groups_8c.html" target="_top" xlink:title="source/event_groups.c">
<polygon fill="white" stroke="black" points="0,-0.5 0,-19.5 118,-19.5 118,-0.5 0,-0.5"/>
<text text-anchor="middle" x="59" y="-7.5" font-family="Helvetica,sans-Serif" font-size="10.00">source/event_groups.c</text>
</a>
</g>
</g>
<!-- Node1&#45;&gt;Node2 -->
<g id="edge1" class="edge"><title>Node1&#45;&gt;Node2</title>
<path fill="none" stroke="midnightblue" d="M163.313,-126.125C113.563,-119.608 52.7702,-107.801 37,-88 20.5433,-67.3368 40.6331,-34.9307 52.0857,-19.5947"/>
<polygon fill="midnightblue" stroke="midnightblue" points="163.06,-129.62 173.419,-127.397 163.935,-122.675 163.06,-129.62"/>
</g>
<!-- Node3 -->
<g id="node3" class="node"><title>Node3</title>
<g id="a_node3"><a xlink:href="event__groups_8h.html" target="_top" xlink:title="source/include/event\l_groups.h">
<polygon fill="white" stroke="black" points="46,-57 46,-87 154,-87 154,-57 46,-57"/>
<text text-anchor="start" x="54" y="-75" font-family="Helvetica,sans-Serif" font-size="10.00">source/include/event</text>
<text text-anchor="middle" x="100" y="-64" font-family="Helvetica,sans-Serif" font-size="10.00">_groups.h</text>
</a>
</g>
</g>
<!-- Node1&#45;&gt;Node3 -->
<g id="edge2" class="edge"><title>Node1&#45;&gt;Node3</title>
<path fill="none" stroke="midnightblue" d="M204.647,-120.209C183.048,-110.465 153.337,-97.0616 131.089,-87.0253"/>
<polygon fill="midnightblue" stroke="midnightblue" points="203.39,-123.482 213.944,-124.403 206.268,-117.101 203.39,-123.482"/>
</g>
<!-- Node4 -->
<g id="node4" class="node"><title>Node4</title>
<g id="a_node4"><a xlink:href="_m_p_l_a_b_2_p_i_c18_f_2port_8c.html" target="_top" xlink:title="source/portable/MPLAB\l/PIC18F/port.c">
<polygon fill="white" stroke="black" points="172,-57 172,-87 294,-87 294,-57 172,-57"/>
<text text-anchor="start" x="180" y="-75" font-family="Helvetica,sans-Serif" font-size="10.00">source/portable/MPLAB</text>
<text text-anchor="middle" x="233" y="-64" font-family="Helvetica,sans-Serif" font-size="10.00">/PIC18F/port.c</text>
</a>
</g>
</g>
<!-- Node1&#45;&gt;Node4 -->
<g id="edge4" class="edge"><title>Node1&#45;&gt;Node4</title>
<path fill="none" stroke="midnightblue" d="M233,-114.371C233,-105.585 233,-95.2721 233,-87.1408"/>
<polygon fill="midnightblue" stroke="midnightblue" points="229.5,-114.403 233,-124.403 236.5,-114.403 229.5,-114.403"/>
</g>
<!-- Node5 -->
<g id="node5" class="node"><title>Node5</title>
<g id="a_node5"><a xlink:href="tasks_8c.html" target="_top" xlink:title="source/tasks.c">
<polygon fill="white" stroke="black" points="312,-62.5 312,-81.5 392,-81.5 392,-62.5 312,-62.5"/>
<text text-anchor="middle" x="352" y="-69.5" font-family="Helvetica,sans-Serif" font-size="10.00">source/tasks.c</text>
</a>
</g>
</g>
<!-- Node1&#45;&gt;Node5 -->
<g id="edge5" class="edge"><title>Node1&#45;&gt;Node5</title>
<path fill="none" stroke="midnightblue" d="M259.267,-119.756C282.331,-108.127 315.202,-91.5538 334.982,-81.5806"/>
<polygon fill="midnightblue" stroke="midnightblue" points="257.403,-116.776 250.05,-124.403 260.555,-123.027 257.403,-116.776"/>
</g>
<!-- Node6 -->
<g id="node6" class="node"><title>Node6</title>
<g id="a_node6"><a xlink:href="timers_8c.html" target="_top" xlink:title="source/timers.c">
<polygon fill="white" stroke="black" points="410,-62.5 410,-81.5 494,-81.5 494,-62.5 410,-62.5"/>
<text text-anchor="middle" x="452" y="-69.5" font-family="Helvetica,sans-Serif" font-size="10.00">source/timers.c</text>
</a>
</g>
</g>
<!-- Node1&#45;&gt;Node6 -->
<g id="edge6" class="edge"><title>Node1&#45;&gt;Node6</title>
<path fill="none" stroke="midnightblue" d="M275.956,-121.802C309.946,-112.867 358.586,-99.9159 401,-88 408.286,-85.9531 416.137,-83.6785 423.443,-81.5321"/>
<polygon fill="midnightblue" stroke="midnightblue" points="274.684,-118.517 265.9,-124.441 276.461,-125.288 274.684,-118.517"/>
</g>
<!-- Node3&#45;&gt;Node2 -->
<g id="edge3" class="edge"><title>Node3&#45;&gt;Node2</title>
<path fill="none" stroke="midnightblue" d="M84.5675,-48.4159C77.7338,-38.4153 70.0984,-27.2416 64.9659,-19.7305"/>
<polygon fill="midnightblue" stroke="midnightblue" points="81.7519,-50.4991 90.2836,-56.7808 87.5314,-46.5497 81.7519,-50.4991"/>
</g>
</g>
</svg>
