<?xml version="1.0" encoding="UTF-8" standalone="no"?>
<!DOCTYPE svg PUBLIC "-//W3C//DTD SVG 1.1//EN"
 "http://www.w3.org/Graphics/SVG/1.1/DTD/svg11.dtd">
<!-- Generated by graphviz version 2.30.1 (20130221.2233)
 -->
<!-- Title: source/timers.c Pages: 1 -->
<svg width="524pt" height="196pt"
 viewBox="0.00 0.00 524.00 196.00" xmlns="http://www.w3.org/2000/svg" xmlns:xlink="http://www.w3.org/1999/xlink">
<g id="graph0" class="graph" transform="scale(1 1) rotate(0) translate(4 192)">
<title>source/timers.c</title>
<polygon fill="white" stroke="white" points="-4,5 -4,-192 521,-192 521,5 -4,5"/>
<!-- Node1 -->
<g id="node1" class="node"><title>Node1</title>
<polygon fill="#bfbfbf" stroke="black" points="275,-168.5 275,-187.5 359,-187.5 359,-168.5 275,-168.5"/>
<text text-anchor="middle" x="317" y="-175.5" font-family="Helvetica,sans-Serif" font-size="10.00">source/timers.c</text>
</g>
<!-- Node2 -->
<g id="node2" class="node"><title>Node2</title>
<polygon fill="white" stroke="#bfbfbf" points="149,-112.5 149,-131.5 197,-131.5 197,-112.5 149,-112.5"/>
<text text-anchor="middle" x="173" y="-119.5" font-family="Helvetica,sans-Serif" font-size="10.00">stdlib.h</text>
</g>
<!-- Node1&#45;&gt;Node2 -->
<g id="edge1" class="edge"><title>Node1&#45;&gt;Node2</title>
<path fill="none" stroke="midnightblue" d="M294.183,-168.444C270.168,-159.438 232.171,-145.189 205.131,-135.049"/>
<polygon fill="midnightblue" stroke="midnightblue" points="206.303,-131.751 195.71,-131.516 203.845,-138.305 206.303,-131.751"/>
</g>
<!-- Node3 -->
<g id="node3" class="node"><title>Node3</title>
<g id="a_node3"><a xlink:href="_free_r_t_o_s_8h.html" target="_top" xlink:title="FreeRTOS.h">
<polygon fill="white" stroke="black" points="215.5,-112.5 215.5,-131.5 288.5,-131.5 288.5,-112.5 215.5,-112.5"/>
<text text-anchor="middle" x="252" y="-119.5" font-family="Helvetica,sans-Serif" font-size="10.00">FreeRTOS.h</text>
</a>
</g>
</g>
<!-- Node1&#45;&gt;Node3 -->
<g id="edge2" class="edge"><title>Node1&#45;&gt;Node3</title>
<path fill="none" stroke="midnightblue" d="M306.557,-168.324C296.854,-160.263 282.185,-148.077 270.5,-138.369"/>
<polygon fill="midnightblue" stroke="midnightblue" points="272.562,-135.532 262.633,-131.834 268.089,-140.916 272.562,-135.532"/>
</g>
<!-- Node12 -->
<g id="node12" class="node"><title>Node12</title>
<g id="a_node12"><a xlink:href="task_8h.html" target="_top" xlink:title="task.h">
<polygon fill="white" stroke="black" points="421.5,-56.5 421.5,-75.5 464.5,-75.5 464.5,-56.5 421.5,-56.5"/>
<text text-anchor="middle" x="443" y="-63.5" font-family="Helvetica,sans-Serif" font-size="10.00">task.h</text>
</a>
</g>
</g>
<!-- Node1&#45;&gt;Node12 -->
<g id="edge11" class="edge"><title>Node1&#45;&gt;Node12</title>
<path fill="none" stroke="midnightblue" d="M317.246,-168.298C318.083,-154.659 321.597,-128.141 336,-112 346.456,-100.282 383.842,-86.1523 411.49,-76.8911"/>
<polygon fill="midnightblue" stroke="midnightblue" points="412.76,-80.1582 421.168,-73.7128 410.576,-73.5077 412.76,-80.1582"/>
</g>
<!-- Node14 -->
<g id="node14" class="node"><title>Node14</title>
<g id="a_node14"><a xlink:href="queue_8h.html" target="_top" xlink:title="queue.h">
<polygon fill="white" stroke="black" points="345.5,-112.5 345.5,-131.5 398.5,-131.5 398.5,-112.5 345.5,-112.5"/>
<text text-anchor="middle" x="372" y="-119.5" font-family="Helvetica,sans-Serif" font-size="10.00">queue.h</text>
</a>
</g>
</g>
<!-- Node1&#45;&gt;Node14 -->
<g id="edge13" class="edge"><title>Node1&#45;&gt;Node14</title>
<path fill="none" stroke="midnightblue" d="M326.082,-168.083C334.171,-160.141 346.195,-148.335 355.91,-138.797"/>
<polygon fill="midnightblue" stroke="midnightblue" points="358.403,-141.254 363.087,-131.751 353.499,-136.26 358.403,-141.254"/>
</g>
<!-- Node15 -->
<g id="node15" class="node"><title>Node15</title>
<g id="a_node15"><a xlink:href="timers_8h.html" target="_top" xlink:title="timers.h">
<polygon fill="white" stroke="black" points="417,-112.5 417,-131.5 469,-131.5 469,-112.5 417,-112.5"/>
<text text-anchor="middle" x="443" y="-119.5" font-family="Helvetica,sans-Serif" font-size="10.00">timers.h</text>
</a>
</g>
</g>
<!-- Node1&#45;&gt;Node15 -->
<g id="edge14" class="edge"><title>Node1&#45;&gt;Node15</title>
<path fill="none" stroke="midnightblue" d="M336.965,-168.444C357.609,-159.596 390.063,-145.687 413.632,-135.586"/>
<polygon fill="midnightblue" stroke="midnightblue" points="415.316,-138.673 423.128,-131.516 412.558,-132.239 415.316,-138.673"/>
</g>
<!-- Node4 -->
<g id="node4" class="node"><title>Node4</title>
<polygon fill="white" stroke="#bfbfbf" points="0,-56.5 0,-75.5 52,-75.5 52,-56.5 0,-56.5"/>
<text text-anchor="middle" x="26" y="-63.5" font-family="Helvetica,sans-Serif" font-size="10.00">stddef.h</text>
</g>
<!-- Node3&#45;&gt;Node4 -->
<g id="edge3" class="edge"><title>Node3&#45;&gt;Node4</title>
<path fill="none" stroke="midnightblue" d="M215.331,-112.594C178.869,-104.183 121.087,-90.7161 62.2003,-76.2616"/>
<polygon fill="midnightblue" stroke="midnightblue" points="62.9056,-72.8308 52.3588,-73.8391 61.2324,-79.6279 62.9056,-72.8308"/>
</g>
<!-- Node5 -->
<g id="node5" class="node"><title>Node5</title>
<polygon fill="white" stroke="#bfbfbf" points="70.5,-56.5 70.5,-75.5 119.5,-75.5 119.5,-56.5 70.5,-56.5"/>
<text text-anchor="middle" x="95" y="-63.5" font-family="Helvetica,sans-Serif" font-size="10.00">stdint.h</text>
</g>
<!-- Node3&#45;&gt;Node5 -->
<g id="edge4" class="edge"><title>Node3&#45;&gt;Node5</title>
<path fill="none" stroke="midnightblue" d="M227.123,-112.444C200.633,-103.332 158.538,-88.8539 128.998,-78.6936"/>
<polygon fill="midnightblue" stroke="midnightblue" points="130.097,-75.3704 119.502,-75.4275 127.82,-81.9898 130.097,-75.3704"/>
</g>
<!-- Node6 -->
<g id="node6" class="node"><title>Node6</title>
<polygon fill="white" stroke="#bfbfbf" points="138,-56.5 138,-75.5 240,-75.5 240,-56.5 138,-56.5"/>
<text text-anchor="middle" x="189" y="-63.5" font-family="Helvetica,sans-Serif" font-size="10.00">FreeRTOSConfig.h</text>
</g>
<!-- Node3&#45;&gt;Node6 -->
<g id="edge5" class="edge"><title>Node3&#45;&gt;Node6</title>
<path fill="none" stroke="midnightblue" d="M241.878,-112.324C232.474,-104.263 218.256,-92.0765 206.931,-82.3695"/>
<polygon fill="midnightblue" stroke="midnightblue" points="209.177,-79.6844 199.306,-75.8339 204.621,-84.9993 209.177,-79.6844"/>
</g>
<!-- Node7 -->
<g id="node7" class="node"><title>Node7</title>
<g id="a_node7"><a xlink:href="projdefs_8h.html" target="_top" xlink:title="projdefs.h">
<polygon fill="white" stroke="black" points="258,-56.5 258,-75.5 318,-75.5 318,-56.5 258,-56.5"/>
<text text-anchor="middle" x="288" y="-63.5" font-family="Helvetica,sans-Serif" font-size="10.00">projdefs.h</text>
</a>
</g>
</g>
<!-- Node3&#45;&gt;Node7 -->
<g id="edge6" class="edge"><title>Node3&#45;&gt;Node7</title>
<path fill="none" stroke="midnightblue" d="M257.945,-112.083C262.977,-104.534 270.337,-93.4948 276.513,-84.2298"/>
<polygon fill="midnightblue" stroke="midnightblue" points="279.531,-86.0131 282.166,-75.7511 273.707,-82.1301 279.531,-86.0131"/>
</g>
<!-- Node8 -->
<g id="node8" class="node"><title>Node8</title>
<g id="a_node8"><a xlink:href="portable_8h.html" target="_top" xlink:title="portable.h">
<polygon fill="white" stroke="black" points="336.5,-56.5 336.5,-75.5 397.5,-75.5 397.5,-56.5 336.5,-56.5"/>
<text text-anchor="middle" x="367" y="-63.5" font-family="Helvetica,sans-Serif" font-size="10.00">portable.h</text>
</a>
</g>
</g>
<!-- Node3&#45;&gt;Node8 -->
<g id="edge7" class="edge"><title>Node3&#45;&gt;Node8</title>
<path fill="none" stroke="midnightblue" d="M270.222,-112.444C288.896,-103.675 318.156,-89.9355 339.617,-79.8579"/>
<polygon fill="midnightblue" stroke="midnightblue" points="341.299,-82.935 348.863,-75.5164 338.324,-76.5988 341.299,-82.935"/>
</g>
<!-- Node9 -->
<g id="node9" class="node"><title>Node9</title>
<g id="a_node9"><a xlink:href="deprecated__definitions_8h.html" target="_top" xlink:title="deprecated_definitions.h">
<polygon fill="white" stroke="black" points="138.5,-0.5 138.5,-19.5 263.5,-19.5 263.5,-0.5 138.5,-0.5"/>
<text text-anchor="middle" x="201" y="-7.5" font-family="Helvetica,sans-Serif" font-size="10.00">deprecated_definitions.h</text>
</a>
</g>
</g>
<!-- Node8&#45;&gt;Node9 -->
<g id="edge8" class="edge"><title>Node8&#45;&gt;Node9</title>
<path fill="none" stroke="midnightblue" d="M340.697,-56.4435C312.649,-47.3196 268.056,-32.8133 236.816,-22.6509"/>
<polygon fill="midnightblue" stroke="midnightblue" points="237.772,-19.2816 227.18,-19.5164 235.607,-25.9383 237.772,-19.2816"/>
</g>
<!-- Node10 -->
<g id="node10" class="node"><title>Node10</title>
<polygon fill="white" stroke="#bfbfbf" points="282,-0.5 282,-19.5 352,-19.5 352,-0.5 282,-0.5"/>
<text text-anchor="middle" x="317" y="-7.5" font-family="Helvetica,sans-Serif" font-size="10.00">portmacro.h</text>
</g>
<!-- Node8&#45;&gt;Node10 -->
<g id="edge9" class="edge"><title>Node8&#45;&gt;Node10</title>
<path fill="none" stroke="midnightblue" d="M358.744,-56.083C351.535,-48.2982 340.89,-36.8015 332.154,-27.3665"/>
<polygon fill="midnightblue" stroke="midnightblue" points="334.465,-24.7108 325.103,-19.7511 329.329,-29.4666 334.465,-24.7108"/>
</g>
<!-- Node11 -->
<g id="node11" class="node"><title>Node11</title>
<g id="a_node11"><a xlink:href="mpu__wrappers_8h.html" target="_top" xlink:title="mpu_wrappers.h">
<polygon fill="white" stroke="black" points="370.5,-0.5 370.5,-19.5 461.5,-19.5 461.5,-0.5 370.5,-0.5"/>
<text text-anchor="middle" x="416" y="-7.5" font-family="Helvetica,sans-Serif" font-size="10.00">mpu_wrappers.h</text>
</a>
</g>
</g>
<!-- Node8&#45;&gt;Node11 -->
<g id="edge10" class="edge"><title>Node8&#45;&gt;Node11</title>
<path fill="none" stroke="midnightblue" d="M375.091,-56.083C382.155,-48.2982 392.588,-36.8015 401.149,-27.3665"/>
<polygon fill="midnightblue" stroke="midnightblue" points="403.931,-29.5087 408.059,-19.7511 398.747,-24.8047 403.931,-29.5087"/>
</g>
<!-- Node13 -->
<g id="node13" class="node"><title>Node13</title>
<g id="a_node13"><a xlink:href="list_8h.html" target="_top" xlink:title="list.h">
<polygon fill="white" stroke="black" points="479.5,-0.5 479.5,-19.5 516.5,-19.5 516.5,-0.5 479.5,-0.5"/>
<text text-anchor="middle" x="498" y="-7.5" font-family="Helvetica,sans-Serif" font-size="10.00">list.h</text>
</a>
</g>
</g>
<!-- Node12&#45;&gt;Node13 -->
<g id="edge12" class="edge"><title>Node12&#45;&gt;Node13</title>
<path fill="none" stroke="midnightblue" d="M452.082,-56.083C460.171,-48.1409 472.195,-36.3354 481.91,-26.7973"/>
<polygon fill="midnightblue" stroke="midnightblue" points="484.403,-29.2545 489.087,-19.7511 479.499,-24.2595 484.403,-29.2545"/>
</g>
<!-- Node15&#45;&gt;Node12 -->
<g id="edge15" class="edge"><title>Node15&#45;&gt;Node12</title>
<path fill="none" stroke="midnightblue" d="M443,-112.083C443,-105.006 443,-94.8611 443,-85.9865"/>
<polygon fill="midnightblue" stroke="midnightblue" points="446.5,-85.751 443,-75.7511 439.5,-85.7511 446.5,-85.751"/>
</g>
</g>
</svg>
