<?xml version="1.0" encoding="UTF-8" standalone="no"?>
<!DOCTYPE svg PUBLIC "-//W3C//DTD SVG 1.1//EN"
 "http://www.w3.org/Graphics/SVG/1.1/DTD/svg11.dtd">
<!-- Generated by graphviz version 2.30.1 (20130221.2233)
 -->
<!-- Title: source/portable/IAR/AVR32_UC3/write.c Pages: 1 -->
<svg width="200pt" height="96pt"
 viewBox="0.00 0.00 200.00 96.00" xmlns="http://www.w3.org/2000/svg" xmlns:xlink="http://www.w3.org/1999/xlink">
<g id="graph0" class="graph" transform="scale(1 1) rotate(0) translate(4 92)">
<title>source/portable/IAR/AVR32_UC3/write.c</title>
<polygon fill="white" stroke="white" points="-4,5 -4,-92 197,-92 197,5 -4,5"/>
<!-- Node1 -->
<g id="node1" class="node"><title>Node1</title>
<polygon fill="#bfbfbf" stroke="black" points="43,-57 43,-87 151,-87 151,-57 43,-57"/>
<text text-anchor="start" x="51" y="-75" font-family="Helvetica,sans-Serif" font-size="10.00">source/portable/IAR</text>
<text text-anchor="middle" x="97" y="-64" font-family="Helvetica,sans-Serif" font-size="10.00">/AVR32_UC3/write.c</text>
</g>
<!-- Node2 -->
<g id="node2" class="node"><title>Node2</title>
<polygon fill="white" stroke="#bfbfbf" points="-0.5,-0.5 -0.5,-19.5 48.5,-19.5 48.5,-0.5 -0.5,-0.5"/>
<text text-anchor="middle" x="24" y="-7.5" font-family="Helvetica,sans-Serif" font-size="10.00">yfuns.h</text>
</g>
<!-- Node1&#45;&gt;Node2 -->
<g id="edge1" class="edge"><title>Node1&#45;&gt;Node2</title>
<path fill="none" stroke="midnightblue" d="M79.7,-56.7808C68.5455,-47.6127 54.0465,-35.6957 42.6376,-26.3186"/>
<polygon fill="midnightblue" stroke="midnightblue" points="44.57,-23.3763 34.6221,-19.7305 40.1252,-28.7841 44.57,-23.3763"/>
</g>
<!-- Node3 -->
<g id="node3" class="node"><title>Node3</title>
<polygon fill="white" stroke="#bfbfbf" points="67,-0.5 67,-19.5 127,-19.5 127,-0.5 67,-0.5"/>
<text text-anchor="middle" x="97" y="-7.5" font-family="Helvetica,sans-Serif" font-size="10.00">avr32/io.h</text>
</g>
<!-- Node1&#45;&gt;Node3 -->
<g id="edge2" class="edge"><title>Node1&#45;&gt;Node3</title>
<path fill="none" stroke="midnightblue" d="M97,-56.7808C97,-48.7812 97,-38.6887 97,-30.0168"/>
<polygon fill="midnightblue" stroke="midnightblue" points="100.5,-29.7305 97,-19.7305 93.5001,-29.7306 100.5,-29.7305"/>
</g>
<!-- Node4 -->
<g id="node4" class="node"><title>Node4</title>
<polygon fill="white" stroke="#bfbfbf" points="145.5,-0.5 145.5,-19.5 192.5,-19.5 192.5,-0.5 145.5,-0.5"/>
<text text-anchor="middle" x="169" y="-7.5" font-family="Helvetica,sans-Serif" font-size="10.00">usart.h</text>
</g>
<!-- Node1&#45;&gt;Node4 -->
<g id="edge3" class="edge"><title>Node1&#45;&gt;Node4</title>
<path fill="none" stroke="midnightblue" d="M114.063,-56.7808C125.065,-47.6127 139.365,-35.6957 150.618,-26.3186"/>
<polygon fill="midnightblue" stroke="midnightblue" points="153.082,-28.8212 158.523,-19.7305 148.6,-23.4436 153.082,-28.8212"/>
</g>
</g>
</svg>
